<?xml version="1.0" encoding="UTF-8" standalone="no"?>
<!DOCTYPE svg PUBLIC "-//W3C//DTD SVG 1.1//EN"
 "http://www.w3.org/Graphics/SVG/1.1/DTD/svg11.dtd">
<!-- Generated by graphviz version 2.40.1 (20161225.0304)
 -->
<!-- Title: ene.models.PlayerModel Pages: 1 -->
<svg width="292pt" height="540pt"
 viewBox="0.00 0.00 292.00 540.00" xmlns="http://www.w3.org/2000/svg" xmlns:xlink="http://www.w3.org/1999/xlink">
<g id="graph0" class="graph" transform="scale(1 1) rotate(0) translate(4 536)">
<title>ene.models.PlayerModel</title>
<!-- Node0 -->
<g id="node1" class="node">
<title>Node0</title>
<polygon fill="#bfbfbf" stroke="#000000" points="127.5,-.5 127.5,-277.5 251.5,-277.5 251.5,-.5 127.5,-.5"/>
<text text-anchor="middle" x="189.5" y="-265.5" font-family="Helvetica,sans-Serif" font-size="10.00" fill="#000000">ene.models.PlayerModel</text>
<polyline fill="none" stroke="#000000" points="127.5,-258.5 251.5,-258.5 "/>
<text text-anchor="start" x="135.5" y="-246.5" font-family="Helvetica,sans-Serif" font-size="10.00" fill="#000000">~ currentTrack</text>
<text text-anchor="start" x="135.5" y="-235.5" font-family="Helvetica,sans-Serif" font-size="10.00" fill="#000000">~ playlist</text>
<text text-anchor="start" x="135.5" y="-224.5" font-family="Helvetica,sans-Serif" font-size="10.00" fill="#000000">~ clip</text>
<text text-anchor="start" x="135.5" y="-213.5" font-family="Helvetica,sans-Serif" font-size="10.00" fill="#000000">~ lastEvent</text>
<polyline fill="none" stroke="#000000" points="127.5,-206.5 251.5,-206.5 "/>
<text text-anchor="start" x="135.5" y="-194.5" font-family="Helvetica,sans-Serif" font-size="10.00" fill="#000000">+ getCurrentTrack()</text>
<text text-anchor="start" x="135.5" y="-183.5" font-family="Helvetica,sans-Serif" font-size="10.00" fill="#000000">+ getPlaylist()</text>
<text text-anchor="start" x="135.5" y="-172.5" font-family="Helvetica,sans-Serif" font-size="10.00" fill="#000000">+ getClip()</text>
<text text-anchor="start" x="135.5" y="-161.5" font-family="Helvetica,sans-Serif" font-size="10.00" fill="#000000">+ getLastEvent()</text>
<text text-anchor="start" x="135.5" y="-150.5" font-family="Helvetica,sans-Serif" font-size="10.00" fill="#000000">+ getTrackLength()</text>
<text text-anchor="start" x="135.5" y="-139.5" font-family="Helvetica,sans-Serif" font-size="10.00" fill="#000000">+ setTrackPosition()</text>
<text text-anchor="start" x="135.5" y="-128.5" font-family="Helvetica,sans-Serif" font-size="10.00" fill="#000000">+ getTrackPosition()</text>
<text text-anchor="start" x="135.5" y="-117.5" font-family="Helvetica,sans-Serif" font-size="10.00" fill="#000000">+ loadPlaylist()</text>
<text text-anchor="start" x="135.5" y="-106.5" font-family="Helvetica,sans-Serif" font-size="10.00" fill="#000000">+ load()</text>
<text text-anchor="start" x="135.5" y="-95.5" font-family="Helvetica,sans-Serif" font-size="10.00" fill="#000000">+ start()</text>
<text text-anchor="start" x="135.5" y="-84.5" font-family="Helvetica,sans-Serif" font-size="10.00" fill="#000000">+ previous()</text>
<text text-anchor="start" x="135.5" y="-73.5" font-family="Helvetica,sans-Serif" font-size="10.00" fill="#000000">+ next()</text>
<text text-anchor="start" x="135.5" y="-62.5" font-family="Helvetica,sans-Serif" font-size="10.00" fill="#000000">+ pause()</text>
<text text-anchor="start" x="135.5" y="-51.5" font-family="Helvetica,sans-Serif" font-size="10.00" fill="#000000">+ update()</text>
<text text-anchor="start" x="135.5" y="-40.5" font-family="Helvetica,sans-Serif" font-size="10.00" fill="#000000"># setCurrentTrack()</text>
<text text-anchor="start" x="135.5" y="-29.5" font-family="Helvetica,sans-Serif" font-size="10.00" fill="#000000"># setPlaylist()</text>
<text text-anchor="start" x="135.5" y="-18.5" font-family="Helvetica,sans-Serif" font-size="10.00" fill="#000000"># setClip()</text>
<text text-anchor="start" x="135.5" y="-7.5" font-family="Helvetica,sans-Serif" font-size="10.00" fill="#000000"># setLastEvent()</text>
</g>
<!-- Node1 -->
<g id="node2" class="node">
<title>Node1</title>
<g id="a_node2"><a xlink:href="classene_1_1models_1_1AbstractModel.html" target="_top" xlink:title="{ene.models.AbstractModel\n|# views\l|+ addView()\l# changed()\l}">
<polygon fill="none" stroke="#000000" points="64,-314.5 64,-382.5 197,-382.5 197,-314.5 64,-314.5"/>
<text text-anchor="middle" x="130.5" y="-370.5" font-family="Helvetica,sans-Serif" font-size="10.00" fill="#000000">ene.models.AbstractModel</text>
<polyline fill="none" stroke="#000000" points="64,-363.5 197,-363.5 "/>
<text text-anchor="start" x="72" y="-351.5" font-family="Helvetica,sans-Serif" font-size="10.00" fill="#000000"># views</text>
<polyline fill="none" stroke="#000000" points="64,-344.5 197,-344.5 "/>
<text text-anchor="start" x="72" y="-332.5" font-family="Helvetica,sans-Serif" font-size="10.00" fill="#000000">+ addView()</text>
<text text-anchor="start" x="72" y="-321.5" font-family="Helvetica,sans-Serif" font-size="10.00" fill="#000000"># changed()</text>
</a>
</g>
</g>
<!-- Node1&#45;&gt;Node0 -->
<g id="edge1" class="edge">
<title>Node1&#45;&gt;Node0</title>
<path fill="none" stroke="#191970" d="M142.8381,-304.6894C145.1687,-296.4136 147.7185,-287.3597 150.386,-277.8877"/>
<polygon fill="none" stroke="#191970" points="139.4526,-303.7996 140.1107,-314.3739 146.1905,-305.6972 139.4526,-303.7996"/>
</g>
<!-- Node2 -->
<g id="node3" class="node">
<title>Node2</title>
<g id="a_node3"><a xlink:href="classene_1_1AbstractObject.html" target="_top" xlink:title="{ene.AbstractObject\n|# debugModeEnabled\l|+ enableDebugMode()\l+ disableDebugMode()\l+ isDebugModeEnabled()\l+ debugInfoAbout()\l+ consoleOutput()\l# delay()\l}">
<polygon fill="none" stroke="#000000" points="0,-419.5 0,-531.5 127,-531.5 127,-419.5 0,-419.5"/>
<text text-anchor="middle" x="63.5" y="-519.5" font-family="Helvetica,sans-Serif" font-size="10.00" fill="#000000">ene.AbstractObject</text>
<polyline fill="none" stroke="#000000" points="0,-512.5 127,-512.5 "/>
<text text-anchor="start" x="8" y="-500.5" font-family="Helvetica,sans-Serif" font-size="10.00" fill="#000000"># debugModeEnabled</text>
<polyline fill="none" stroke="#000000" points="0,-493.5 127,-493.5 "/>
<text text-anchor="start" x="8" y="-481.5" font-family="Helvetica,sans-Serif" font-size="10.00" fill="#000000">+ enableDebugMode()</text>
<text text-anchor="start" x="8" y="-470.5" font-family="Helvetica,sans-Serif" font-size="10.00" fill="#000000">+ disableDebugMode()</text>
<text text-anchor="start" x="8" y="-459.5" font-family="Helvetica,sans-Serif" font-size="10.00" fill="#000000">+ isDebugModeEnabled()</text>
<text text-anchor="start" x="8" y="-448.5" font-family="Helvetica,sans-Serif" font-size="10.00" fill="#000000">+ debugInfoAbout()</text>
<text text-anchor="start" x="8" y="-437.5" font-family="Helvetica,sans-Serif" font-size="10.00" fill="#000000">+ consoleOutput()</text>
<text text-anchor="start" x="8" y="-426.5" font-family="Helvetica,sans-Serif" font-size="10.00" fill="#000000"># delay()</text>
</a>
</g>
</g>
<!-- Node2&#45;&gt;Node1 -->
<g id="edge2" class="edge">
<title>Node2&#45;&gt;Node1</title>
<path fill="none" stroke="#191970" d="M97.8919,-410.3094C102.9153,-400.7875 107.9119,-391.3163 112.4295,-382.753"/>
<polygon fill="none" stroke="#191970" points="94.6527,-408.9485 93.0822,-419.4263 100.844,-412.2148 94.6527,-408.9485"/>
</g>
<!-- Node3 -->
<g id="node4" class="node">
<title>Node3</title>
<g id="a_node4"><a xlink:href="interfaceene_1_1interfaces_1_1Model.html" target="_top" xlink:title="{ene.interfaces.Model\n||+ addView()\l}">
<polygon fill="none" stroke="#000000" points="145,-447 145,-504 252,-504 252,-447 145,-447"/>
<text text-anchor="middle" x="198.5" y="-492" font-family="Helvetica,sans-Serif" font-size="10.00" fill="#000000">ene.interfaces.Model</text>
<polyline fill="none" stroke="#000000" points="145,-485 252,-485 "/>
<text text-anchor="middle" x="198.5" y="-473" font-family="Helvetica,sans-Serif" font-size="10.00" fill="#000000"> </text>
<polyline fill="none" stroke="#000000" points="145,-466 252,-466 "/>
<text text-anchor="start" x="153" y="-454" font-family="Helvetica,sans-Serif" font-size="10.00" fill="#000000">+ addView()</text>
</a>
</g>
</g>
<!-- Node3&#45;&gt;Node1 -->
<g id="edge3" class="edge">
<title>Node3&#45;&gt;Node1</title>
<path fill="none" stroke="#191970" d="M178.5097,-438.1651C169.1272,-420.6419 158.0196,-399.8969 148.8528,-382.7765"/>
<polygon fill="none" stroke="#191970" points="175.4336,-439.835 183.2395,-446.9987 181.6047,-436.5308 175.4336,-439.835"/>
</g>
<!-- Node4 -->
<g id="node5" class="node">
<title>Node4</title>
<polygon fill="none" stroke="#bfbfbf" points="215,-320 215,-377 284,-377 284,-320 215,-320"/>
<text text-anchor="middle" x="249.5" y="-365" font-family="Helvetica,sans-Serif" font-size="10.00" fill="#000000">LineListener</text>
<polyline fill="none" stroke="#bfbfbf" points="215,-358 284,-358 "/>
<text text-anchor="middle" x="249.5" y="-346" font-family="Helvetica,sans-Serif" font-size="10.00" fill="#000000"> </text>
<polyline fill="none" stroke="#bfbfbf" points="215,-339 284,-339 "/>
<text text-anchor="middle" x="249.5" y="-327" font-family="Helvetica,sans-Serif" font-size="10.00" fill="#000000"> </text>
</g>
<!-- Node4&#45;&gt;Node0 -->
<g id="edge4" class="edge">
<title>Node4&#45;&gt;Node0</title>
<path fill="none" stroke="#191970" d="M238.526,-310.1824C235.7435,-300.4668 232.5891,-289.4529 229.2544,-277.809"/>
<polygon fill="none" stroke="#191970" points="235.165,-311.1594 241.2831,-319.8092 241.8944,-309.232 235.165,-311.1594"/>
</g>
</g>
</svg>
