<?xml version="1.0" encoding="UTF-8" standalone="no"?>
<!DOCTYPE svg PUBLIC "-//W3C//DTD SVG 1.1//EN"
 "http://www.w3.org/Graphics/SVG/1.1/DTD/svg11.dtd">
<!-- Generated by graphviz version 2.40.1 (20161225.0304)
 -->
<!-- Title: ene.models.TrackModel.detectTitle Pages: 1 -->
<svg width="1191pt" height="102pt"
 viewBox="0.00 0.00 1191.00 102.00" xmlns="http://www.w3.org/2000/svg" xmlns:xlink="http://www.w3.org/1999/xlink">
<g id="graph0" class="graph" transform="scale(1 1) rotate(0) translate(4 98)">
<title>ene.models.TrackModel.detectTitle</title>
<!-- Node31 -->
<g id="node1" class="node">
<title>Node31</title>
<polygon fill="#bfbfbf" stroke="#000000" points="0,-22.5 0,-52.5 151,-52.5 151,-22.5 0,-22.5"/>
<text text-anchor="start" x="8" y="-40.5" font-family="Helvetica,sans-Serif" font-size="10.00" fill="#000000">ene.models.TrackModel.detect</text>
<text text-anchor="middle" x="75.5" y="-29.5" font-family="Helvetica,sans-Serif" font-size="10.00" fill="#000000">Title</text>
</g>
<!-- Node32 -->
<g id="node2" class="node">
<title>Node32</title>
<g id="a_node2"><a xlink:href="classene_1_1controllers_1_1LibraryController.html#a8ebea67eb61c84ee6a4825fa98fe870b" target="_top" xlink:title="ene.controllers.LibraryController.addFile">
<polygon fill="none" stroke="#000000" points="187,-50 187,-69 376,-69 376,-50 187,-50"/>
<text text-anchor="middle" x="281.5" y="-57" font-family="Helvetica,sans-Serif" font-size="10.00" fill="#000000">ene.controllers.LibraryController.addFile</text>
</a>
</g>
</g>
<!-- Node31&#45;&gt;Node32 -->
<g id="edge1" class="edge">
<title>Node31&#45;&gt;Node32</title>
<path fill="none" stroke="#191970" d="M161.2236,-46.6549C171.5047,-47.7529 182.0222,-48.8762 192.3505,-49.9792"/>
<polygon fill="#191970" stroke="#191970" points="161.3522,-43.1489 151.0371,-45.5671 160.6088,-50.1093 161.3522,-43.1489"/>
</g>
<!-- Node37 -->
<g id="node7" class="node">
<title>Node37</title>
<g id="a_node7"><a xlink:href="classene_1_1controllers_1_1PlaylistController.html#a67b252ccabbac520eaafe9f90e8f0d43" target="_top" xlink:title="ene.controllers.Playlist\lController.loadFromFile">
<polygon fill="none" stroke="#000000" points="222.5,-.5 222.5,-30.5 340.5,-30.5 340.5,-.5 222.5,-.5"/>
<text text-anchor="start" x="230.5" y="-18.5" font-family="Helvetica,sans-Serif" font-size="10.00" fill="#000000">ene.controllers.Playlist</text>
<text text-anchor="middle" x="281.5" y="-7.5" font-family="Helvetica,sans-Serif" font-size="10.00" fill="#000000">Controller.loadFromFile</text>
</a>
</g>
</g>
<!-- Node31&#45;&gt;Node37 -->
<g id="edge7" class="edge">
<title>Node31&#45;&gt;Node37</title>
<path fill="none" stroke="#191970" d="M161.0753,-28.3609C181.7117,-26.157 203.3092,-23.8505 222.4234,-21.8092"/>
<polygon fill="#191970" stroke="#191970" points="160.6088,-24.8907 151.0371,-29.4329 161.3522,-31.8511 160.6088,-24.8907"/>
</g>
<!-- Node33 -->
<g id="node3" class="node">
<title>Node33</title>
<g id="a_node3"><a xlink:href="classene_1_1controllers_1_1LibraryController.html#aa0d66e53872a376fe6d456eb070de8d4" target="_top" xlink:title="ene.controllers.LibraryController.add">
<polygon fill="none" stroke="#000000" points="836,-69 836,-88 1009,-88 1009,-69 836,-69"/>
<text text-anchor="middle" x="922.5" y="-76" font-family="Helvetica,sans-Serif" font-size="10.00" fill="#000000">ene.controllers.LibraryController.add</text>
</a>
</g>
</g>
<!-- Node32&#45;&gt;Node33 -->
<g id="edge2" class="edge">
<title>Node32&#45;&gt;Node33</title>
<path fill="none" stroke="#191970" d="M346.009,-70.5958C366.9893,-73.7474 390.4249,-76.7863 412,-78.5 560.4283,-90.2899 733.8985,-86.6056 835.6203,-82.6794"/>
<polygon fill="#191970" stroke="#191970" points="346.3416,-67.1058 335.9257,-69.0448 345.2774,-74.0245 346.3416,-67.1058"/>
</g>
<!-- Node35 -->
<g id="node5" class="node">
<title>Node35</title>
<g id="a_node5"><a xlink:href="classene_1_1controllers_1_1LibraryController.html#a3a8b922c846a9b770b67f478ea0e5352" target="_top" xlink:title="ene.controllers.LibraryController.scan">
<polygon fill="none" stroke="#000000" points="412,-50 412,-69 591,-69 591,-50 412,-50"/>
<text text-anchor="middle" x="501.5" y="-57" font-family="Helvetica,sans-Serif" font-size="10.00" fill="#000000">ene.controllers.LibraryController.scan</text>
</a>
</g>
</g>
<!-- Node32&#45;&gt;Node35 -->
<g id="edge4" class="edge">
<title>Node32&#45;&gt;Node35</title>
<path fill="none" stroke="#191970" d="M386.1448,-59.5C394.7494,-59.5 403.3978,-59.5 411.8788,-59.5"/>
<polygon fill="#191970" stroke="#191970" points="386.0766,-56.0001 376.0766,-59.5 386.0765,-63.0001 386.0766,-56.0001"/>
</g>
<!-- Node34 -->
<g id="node4" class="node">
<title>Node34</title>
<g id="a_node4"><a xlink:href="classene_1_1views_1_1gui_1_1partial_1_1LibraryView.html#a0bd6885fe06ebde4d3dffbcd888c0b41" target="_top" xlink:title="ene.views.gui.partial.Library\lView.render">
<polygon fill="none" stroke="#000000" points="1045,-63.5 1045,-93.5 1183,-93.5 1183,-63.5 1045,-63.5"/>
<text text-anchor="start" x="1053" y="-81.5" font-family="Helvetica,sans-Serif" font-size="10.00" fill="#000000">ene.views.gui.partial.Library</text>
<text text-anchor="middle" x="1114" y="-70.5" font-family="Helvetica,sans-Serif" font-size="10.00" fill="#000000">View.render</text>
</a>
</g>
</g>
<!-- Node33&#45;&gt;Node34 -->
<g id="edge3" class="edge">
<title>Node33&#45;&gt;Node34</title>
<path fill="none" stroke="#191970" d="M1019.1546,-78.5C1027.8104,-78.5 1036.4565,-78.5 1044.8097,-78.5"/>
<polygon fill="#191970" stroke="#191970" points="1019.0058,-75.0001 1009.0057,-78.5 1019.0057,-82.0001 1019.0058,-75.0001"/>
</g>
<!-- Node36 -->
<g id="node6" class="node">
<title>Node36</title>
<g id="a_node6"><a xlink:href="classene_1_1controllers_1_1LibraryController.html#a6bc70daa48b96db79d5524113a49cd3e" target="_top" xlink:title="ene.controllers.LibraryController.add\lDirectoryContent">
<polygon fill="none" stroke="#000000" points="627,-41.5 627,-71.5 800,-71.5 800,-41.5 627,-41.5"/>
<text text-anchor="start" x="635" y="-59.5" font-family="Helvetica,sans-Serif" font-size="10.00" fill="#000000">ene.controllers.LibraryController.add</text>
<text text-anchor="middle" x="713.5" y="-48.5" font-family="Helvetica,sans-Serif" font-size="10.00" fill="#000000">DirectoryContent</text>
</a>
</g>
</g>
<!-- Node35&#45;&gt;Node36 -->
<g id="edge5" class="edge">
<title>Node35&#45;&gt;Node36</title>
<path fill="none" stroke="#191970" d="M601.1645,-58.0897C609.7717,-57.9679 618.4348,-57.8453 626.9257,-57.7251"/>
<polygon fill="#191970" stroke="#191970" points="601.0492,-54.5908 591.0998,-58.2321 601.1484,-61.5901 601.0492,-54.5908"/>
</g>
<!-- Node36&#45;&gt;Node33 -->
<g id="edge6" class="edge">
<title>Node36&#45;&gt;Node33</title>
<path fill="none" stroke="#191970" d="M810.0268,-66.6607C818.5937,-67.5625 827.2324,-68.4718 835.711,-69.3643"/>
<polygon fill="#191970" stroke="#191970" points="810.3284,-63.1732 800.017,-65.607 809.5956,-70.1348 810.3284,-63.1732"/>
</g>
<!-- Node38 -->
<g id="node8" class="node">
<title>Node38</title>
<g id="a_node8"><a xlink:href="classene_1_1controllers_1_1PlaylistController.html#a35b450f65c048707c1ad0ed44f1077f0" target="_top" xlink:title="ene.controllers.Playlist\lController.PlaylistController">
<polygon fill="none" stroke="#000000" points="433.5,-.5 433.5,-30.5 569.5,-30.5 569.5,-.5 433.5,-.5"/>
<text text-anchor="start" x="441.5" y="-18.5" font-family="Helvetica,sans-Serif" font-size="10.00" fill="#000000">ene.controllers.Playlist</text>
<text text-anchor="middle" x="501.5" y="-7.5" font-family="Helvetica,sans-Serif" font-size="10.00" fill="#000000">Controller.PlaylistController</text>
</a>
</g>
</g>
<!-- Node37&#45;&gt;Node38 -->
<g id="edge8" class="edge">
<title>Node37&#45;&gt;Node38</title>
<path fill="none" stroke="#191970" d="M350.9906,-15.5C377.235,-15.5 407.0554,-15.5 433.1906,-15.5"/>
<polygon fill="#191970" stroke="#191970" points="350.7454,-12.0001 340.7454,-15.5 350.7453,-19.0001 350.7454,-12.0001"/>
</g>
</g>
</svg>
