<?xml version="1.0" encoding="UTF-8" standalone="no"?>
<!DOCTYPE svg PUBLIC "-//W3C//DTD SVG 1.1//EN"
 "http://www.w3.org/Graphics/SVG/1.1/DTD/svg11.dtd">
<!-- Generated by graphviz version 2.40.1 (20161225.0304)
 -->
<!-- Title: ene.views.gui.partial.PlayerView.isCurrentTrackPartOfCurrentPlaylist Pages: 1 -->
<svg width="521pt" height="67pt"
 viewBox="0.00 0.00 521.00 66.50" xmlns="http://www.w3.org/2000/svg" xmlns:xlink="http://www.w3.org/1999/xlink">
<g id="graph0" class="graph" transform="scale(1 1) rotate(0) translate(4 62.5)">
<title>ene.views.gui.partial.PlayerView.isCurrentTrackPartOfCurrentPlaylist</title>
<!-- Node37 -->
<g id="node1" class="node">
<title>Node37</title>
<polygon fill="#bfbfbf" stroke="#000000" points="0,-.5 0,-41.5 167,-41.5 167,-.5 0,-.5"/>
<text text-anchor="start" x="8" y="-29.5" font-family="Helvetica,sans-Serif" font-size="10.00" fill="#000000">ene.views.gui.partial.Player</text>
<text text-anchor="start" x="8" y="-18.5" font-family="Helvetica,sans-Serif" font-size="10.00" fill="#000000">View.isCurrentTrackPartOfCurrent</text>
<text text-anchor="middle" x="83.5" y="-7.5" font-family="Helvetica,sans-Serif" font-size="10.00" fill="#000000">Playlist</text>
</g>
<!-- Node38 -->
<g id="node2" class="node">
<title>Node38</title>
<g id="a_node2"><a xlink:href="classene_1_1views_1_1gui_1_1partial_1_1PlayerView.html#a3098a851f88f8b9ce6d4e2fcacdf55c9" target="_top" xlink:title="ene.views.gui.partial.Player\lView.enablePlayerControls">
<polygon fill="none" stroke="#000000" points="203,-28 203,-58 340,-58 340,-28 203,-28"/>
<text text-anchor="start" x="211" y="-46" font-family="Helvetica,sans-Serif" font-size="10.00" fill="#000000">ene.views.gui.partial.Player</text>
<text text-anchor="middle" x="271.5" y="-35" font-family="Helvetica,sans-Serif" font-size="10.00" fill="#000000">View.enablePlayerControls</text>
</a>
</g>
</g>
<!-- Node37&#45;&gt;Node38 -->
<g id="edge1" class="edge">
<title>Node37&#45;&gt;Node38</title>
<path fill="none" stroke="#191970" d="M177.1858,-31.9632C185.8326,-32.9751 194.483,-33.9874 202.8442,-34.9658"/>
<polygon fill="#191970" stroke="#191970" points="177.3934,-28.4637 167.0544,-30.7776 176.5798,-35.4163 177.3934,-28.4637"/>
</g>
<!-- Node39 -->
<g id="node3" class="node">
<title>Node39</title>
<g id="a_node3"><a xlink:href="classene_1_1views_1_1gui_1_1partial_1_1PlayerView.html#a15d3f24a6e52ff6dedb86bb793bb8fa9" target="_top" xlink:title="ene.views.gui.partial.Player\lView.update">
<polygon fill="none" stroke="#000000" points="376,-6 376,-36 513,-36 513,-6 376,-6"/>
<text text-anchor="start" x="384" y="-24" font-family="Helvetica,sans-Serif" font-size="10.00" fill="#000000">ene.views.gui.partial.Player</text>
<text text-anchor="middle" x="444.5" y="-13" font-family="Helvetica,sans-Serif" font-size="10.00" fill="#000000">View.update</text>
</a>
</g>
</g>
<!-- Node37&#45;&gt;Node39 -->
<g id="edge3" class="edge">
<title>Node37&#45;&gt;Node39</title>
<path fill="none" stroke="#191970" d="M177.2716,-19.2817C185.9693,-19.1672 194.6486,-19.0699 203,-19 263.8868,-18.4905 279.1139,-18.4174 340,-19 351.6127,-19.1111 363.9503,-19.2917 375.9246,-19.5"/>
<polygon fill="#191970" stroke="#191970" points="177.0218,-15.7847 167.0714,-19.4233 177.1191,-22.784 177.0218,-15.7847"/>
</g>
<!-- Node38&#45;&gt;Node39 -->
<g id="edge2" class="edge">
<title>Node38&#45;&gt;Node39</title>
<path fill="none" stroke="#191970" d="M350.316,-32.9772C358.8439,-31.8927 367.4721,-30.7955 375.8657,-29.7281"/>
<polygon fill="#191970" stroke="#191970" points="349.8498,-29.5082 340.3713,-34.2418 350.7329,-36.4522 349.8498,-29.5082"/>
</g>
</g>
</svg>
