<?xml version="1.0" encoding="UTF-8" standalone="no"?>
<!DOCTYPE svg PUBLIC "-//W3C//DTD SVG 1.1//EN"
 "http://www.w3.org/Graphics/SVG/1.1/DTD/svg11.dtd">
<!-- Generated by graphviz version 2.40.1 (20161225.0304)
 -->
<!-- Title: ene.controllers.LibraryController.LibraryController Pages: 1 -->
<svg width="614pt" height="167pt"
 viewBox="0.00 0.00 614.00 167.00" xmlns="http://www.w3.org/2000/svg" xmlns:xlink="http://www.w3.org/1999/xlink">
<g id="graph0" class="graph" transform="scale(1 1) rotate(0) translate(4 163)">
<title>ene.controllers.LibraryController.LibraryController</title>
<!-- Node3 -->
<g id="node1" class="node">
<title>Node3</title>
<polygon fill="#bfbfbf" stroke="#000000" points="0,-61 0,-91 158,-91 158,-61 0,-61"/>
<text text-anchor="start" x="8" y="-79" font-family="Helvetica,sans-Serif" font-size="10.00" fill="#000000">ene.controllers.LibraryController.</text>
<text text-anchor="middle" x="79" y="-68" font-family="Helvetica,sans-Serif" font-size="10.00" fill="#000000">LibraryController</text>
</g>
<!-- Node4 -->
<g id="node2" class="node">
<title>Node4</title>
<g id="a_node2"><a xlink:href="classene_1_1controllers_1_1LibraryController.html#a109265deb8d32fc7def5c8010efc5af1" target="_top" xlink:title="ene.controllers.LibraryController.load\lFromFile">
<polygon fill="none" stroke="#000000" points="194,-110 194,-140 370,-140 370,-110 194,-110"/>
<text text-anchor="start" x="202" y="-128" font-family="Helvetica,sans-Serif" font-size="10.00" fill="#000000">ene.controllers.LibraryController.load</text>
<text text-anchor="middle" x="282" y="-117" font-family="Helvetica,sans-Serif" font-size="10.00" fill="#000000">FromFile</text>
</a>
</g>
</g>
<!-- Node3&#45;&gt;Node4 -->
<g id="edge1" class="edge">
<title>Node3&#45;&gt;Node4</title>
<path fill="none" stroke="#191970" d="M141.2863,-91.0346C163.0125,-96.2789 187.5714,-102.2069 210.0201,-107.6255"/>
<polygon fill="#191970" stroke="#191970" points="209.2894,-111.0496 219.8315,-109.9938 210.932,-104.245 209.2894,-111.0496"/>
</g>
<!-- Node7 -->
<g id="node5" class="node">
<title>Node7</title>
<g id="a_node5"><a xlink:href="classene_1_1controllers_1_1LibraryController.html#a7176f972e9f365ceb157a1da752b9e2e" target="_top" xlink:title="ene.controllers.LibraryController.set\lDatabaseFilename">
<polygon fill="none" stroke="#000000" points="196.5,-61 196.5,-91 367.5,-91 367.5,-61 196.5,-61"/>
<text text-anchor="start" x="204.5" y="-79" font-family="Helvetica,sans-Serif" font-size="10.00" fill="#000000">ene.controllers.LibraryController.set</text>
<text text-anchor="middle" x="282" y="-68" font-family="Helvetica,sans-Serif" font-size="10.00" fill="#000000">DatabaseFilename</text>
</a>
</g>
</g>
<!-- Node3&#45;&gt;Node7 -->
<g id="edge4" class="edge">
<title>Node3&#45;&gt;Node7</title>
<path fill="none" stroke="#191970" d="M158.0664,-76C167.3047,-76 176.804,-76 186.2371,-76"/>
<polygon fill="#191970" stroke="#191970" points="186.4315,-79.5001 196.4315,-76 186.4314,-72.5001 186.4315,-79.5001"/>
</g>
<!-- Node8 -->
<g id="node6" class="node">
<title>Node8</title>
<g id="a_node6"><a xlink:href="classene_1_1controllers_1_1AbstractController.html#aeb538130c72b3c48f6574443db04eed5" target="_top" xlink:title="ene.controllers.Abstract\lController\&lt; LibraryModel\l \&gt;::setModel">
<polygon fill="none" stroke="#000000" points="220.5,-.5 220.5,-41.5 343.5,-41.5 343.5,-.5 220.5,-.5"/>
<text text-anchor="start" x="228.5" y="-29.5" font-family="Helvetica,sans-Serif" font-size="10.00" fill="#000000">ene.controllers.Abstract</text>
<text text-anchor="start" x="228.5" y="-18.5" font-family="Helvetica,sans-Serif" font-size="10.00" fill="#000000">Controller&lt; LibraryModel</text>
<text text-anchor="middle" x="282" y="-7.5" font-family="Helvetica,sans-Serif" font-size="10.00" fill="#000000"> &gt;::setModel</text>
</a>
</g>
</g>
<!-- Node3&#45;&gt;Node8 -->
<g id="edge5" class="edge">
<title>Node3&#45;&gt;Node8</title>
<path fill="none" stroke="#191970" d="M134.4706,-60.971C157.8921,-54.6253 185.4622,-47.1556 210.391,-40.4014"/>
<polygon fill="#191970" stroke="#191970" points="211.4262,-43.7472 220.1629,-37.7539 209.5956,-36.9908 211.4262,-43.7472"/>
</g>
<!-- Node5 -->
<g id="node3" class="node">
<title>Node5</title>
<g id="a_node3"><a xlink:href="interfaceene_1_1interfaces_1_1DatabaseConnection.html#a09a4dba7ac52632cc125c9c555c64c4f" target="_top" xlink:title="ene.interfaces.DatabaseConnection.query">
<polygon fill="none" stroke="#000000" points="406,-139.5 406,-158.5 606,-158.5 606,-139.5 406,-139.5"/>
<text text-anchor="middle" x="506" y="-146.5" font-family="Helvetica,sans-Serif" font-size="10.00" fill="#000000">ene.interfaces.DatabaseConnection.query</text>
</a>
</g>
</g>
<!-- Node4&#45;&gt;Node5 -->
<g id="edge2" class="edge">
<title>Node4&#45;&gt;Node5</title>
<path fill="none" stroke="#191970" d="M370.2092,-134.451C382.2608,-135.7422 394.6977,-137.0748 406.9263,-138.385"/>
<polygon fill="#191970" stroke="#191970" points="406.8202,-141.8935 417.1362,-139.4789 407.566,-134.9334 406.8202,-141.8935"/>
</g>
<!-- Node6 -->
<g id="node4" class="node">
<title>Node6</title>
<g id="a_node4"><a xlink:href="classene_1_1controllers_1_1AbstractController.html#a9a5afba01d0004a64db4cb14c23e0bbd" target="_top" xlink:title="ene.controllers.Abstract\lController\&lt; LibraryModel\l \&gt;::getModel">
<polygon fill="none" stroke="#000000" points="444.5,-79.5 444.5,-120.5 567.5,-120.5 567.5,-79.5 444.5,-79.5"/>
<text text-anchor="start" x="452.5" y="-108.5" font-family="Helvetica,sans-Serif" font-size="10.00" fill="#000000">ene.controllers.Abstract</text>
<text text-anchor="start" x="452.5" y="-97.5" font-family="Helvetica,sans-Serif" font-size="10.00" fill="#000000">Controller&lt; LibraryModel</text>
<text text-anchor="middle" x="506" y="-86.5" font-family="Helvetica,sans-Serif" font-size="10.00" fill="#000000"> &gt;::getModel</text>
</a>
</g>
</g>
<!-- Node4&#45;&gt;Node6 -->
<g id="edge3" class="edge">
<title>Node4&#45;&gt;Node6</title>
<path fill="none" stroke="#191970" d="M370.2092,-115.1552C391.4702,-112.7823 413.9304,-110.2756 434.3304,-107.9988"/>
<polygon fill="#191970" stroke="#191970" points="434.9279,-111.454 444.4779,-106.8663 434.1514,-104.4972 434.9279,-111.454"/>
</g>
</g>
</svg>
