<?xml version="1.0" encoding="UTF-8" standalone="no"?>
<!DOCTYPE svg PUBLIC "-//W3C//DTD SVG 1.1//EN"
 "http://www.w3.org/Graphics/SVG/1.1/DTD/svg11.dtd">
<!-- Generated by graphviz version 2.40.1 (20161225.0304)
 -->
<!-- Title: ene.views.gui.partial.LibraryView.render Pages: 1 -->
<svg width="1228pt" height="886pt"
 viewBox="0.00 0.00 1228.00 886.00" xmlns="http://www.w3.org/2000/svg" xmlns:xlink="http://www.w3.org/1999/xlink">
<g id="graph0" class="graph" transform="scale(1 1) rotate(0) translate(4 882)">
<title>ene.views.gui.partial.LibraryView.render</title>
<!-- Node21 -->
<g id="node1" class="node">
<title>Node21</title>
<polygon fill="#bfbfbf" stroke="#000000" points="0,-387.5 0,-417.5 138,-417.5 138,-387.5 0,-387.5"/>
<text text-anchor="start" x="8" y="-405.5" font-family="Helvetica,sans-Serif" font-size="10.00" fill="#000000">ene.views.gui.partial.Library</text>
<text text-anchor="middle" x="69" y="-394.5" font-family="Helvetica,sans-Serif" font-size="10.00" fill="#000000">View.render</text>
</g>
<!-- Node22 -->
<g id="node2" class="node">
<title>Node22</title>
<g id="a_node2"><a xlink:href="classene_1_1controllers_1_1LibraryController.html#aa0d66e53872a376fe6d456eb070de8d4" target="_top" xlink:title="ene.controllers.LibraryController.add">
<polygon fill="none" stroke="#000000" points="174,-765 174,-784 347,-784 347,-765 174,-765"/>
<text text-anchor="middle" x="260.5" y="-772" font-family="Helvetica,sans-Serif" font-size="10.00" fill="#000000">ene.controllers.LibraryController.add</text>
</a>
</g>
</g>
<!-- Node21&#45;&gt;Node22 -->
<g id="edge1" class="edge">
<title>Node21&#45;&gt;Node22</title>
<path fill="none" stroke="#191970" d="M71.1997,-417.7357C78.5663,-464.5796 105.8526,-609.1344 174,-705.5 190.0863,-728.2472 215.7084,-747.3664 234.8988,-759.6675"/>
<polygon fill="#191970" stroke="#191970" points="233.1267,-762.6869 243.4691,-764.9862 236.8179,-756.7392 233.1267,-762.6869"/>
</g>
<!-- Node32 -->
<g id="node12" class="node">
<title>Node32</title>
<g id="a_node12"><a xlink:href="classene_1_1models_1_1TrackModel.html#a04afba3cc5098c28ebd394fb7ac920ba" target="_top" xlink:title="ene.models.TrackModel.get\lArtist">
<polygon fill="none" stroke="#000000" points="634.5,-633.5 634.5,-663.5 771.5,-663.5 771.5,-633.5 634.5,-633.5"/>
<text text-anchor="start" x="642.5" y="-651.5" font-family="Helvetica,sans-Serif" font-size="10.00" fill="#000000">ene.models.TrackModel.get</text>
<text text-anchor="middle" x="703" y="-640.5" font-family="Helvetica,sans-Serif" font-size="10.00" fill="#000000">Artist</text>
</a>
</g>
</g>
<!-- Node21&#45;&gt;Node32 -->
<g id="edge19" class="edge">
<title>Node21&#45;&gt;Node32</title>
<path fill="none" stroke="#191970" d="M71.6399,-417.5948C79.346,-456.6177 105.7397,-560.9631 174,-606.5 245.635,-654.2882 494.7283,-654.6797 623.9133,-651.413"/>
<polygon fill="#191970" stroke="#191970" points="624.2359,-654.9058 634.1391,-651.1404 624.0493,-647.9083 624.2359,-654.9058"/>
</g>
<!-- Node34 -->
<g id="node14" class="node">
<title>Node34</title>
<g id="a_node14"><a xlink:href="classene_1_1models_1_1TrackModel.html#a2c57f7fe3f410c0e914af9a79de57346" target="_top" xlink:title="ene.models.TrackModel.get\lGenre">
<polygon fill="none" stroke="#000000" points="634.5,-584.5 634.5,-614.5 771.5,-614.5 771.5,-584.5 634.5,-584.5"/>
<text text-anchor="start" x="642.5" y="-602.5" font-family="Helvetica,sans-Serif" font-size="10.00" fill="#000000">ene.models.TrackModel.get</text>
<text text-anchor="middle" x="703" y="-591.5" font-family="Helvetica,sans-Serif" font-size="10.00" fill="#000000">Genre</text>
</a>
</g>
</g>
<!-- Node21&#45;&gt;Node34 -->
<g id="edge21" class="edge">
<title>Node21&#45;&gt;Node34</title>
<path fill="none" stroke="#191970" d="M72.8967,-417.5128C82.8728,-452.5137 112.9578,-539.2972 174,-575.5 247.8131,-619.277 495.3098,-611.9673 623.9075,-604.8009"/>
<polygon fill="#191970" stroke="#191970" points="624.3035,-608.2841 634.0878,-604.2201 623.9047,-601.2955 624.3035,-608.2841"/>
</g>
<!-- Node35 -->
<g id="node15" class="node">
<title>Node35</title>
<g id="a_node15"><a xlink:href="classene_1_1models_1_1TrackModel.html#a5bac0e2b6c87c93eef2802d9d10bf3c1" target="_top" xlink:title="ene.models.TrackModel.get\lTitle">
<polygon fill="none" stroke="#000000" points="634.5,-486.5 634.5,-516.5 771.5,-516.5 771.5,-486.5 634.5,-486.5"/>
<text text-anchor="start" x="642.5" y="-504.5" font-family="Helvetica,sans-Serif" font-size="10.00" fill="#000000">ene.models.TrackModel.get</text>
<text text-anchor="middle" x="703" y="-493.5" font-family="Helvetica,sans-Serif" font-size="10.00" fill="#000000">Title</text>
</a>
</g>
</g>
<!-- Node21&#45;&gt;Node35 -->
<g id="edge30" class="edge">
<title>Node21&#45;&gt;Node35</title>
<path fill="none" stroke="#191970" d="M138.1545,-411.7364C273.2587,-429.7841 559.4055,-468.0239 562,-468.5 585.8019,-472.868 611.6387,-478.6166 634.6153,-484.0902"/>
<polygon fill="#191970" stroke="#191970" points="634.0704,-487.5589 644.6118,-486.4967 635.7088,-480.7533 634.0704,-487.5589"/>
</g>
<!-- Node36 -->
<g id="node16" class="node">
<title>Node36</title>
<g id="a_node16"><a xlink:href="classene_1_1controllers_1_1LibraryController.html#a9e4da87d9fab61b162c2f57e97852be5" target="_top" xlink:title="ene.controllers.LibraryController.edit">
<polygon fill="none" stroke="#000000" points="174,-677 174,-696 347,-696 347,-677 174,-677"/>
<text text-anchor="middle" x="260.5" y="-684" font-family="Helvetica,sans-Serif" font-size="10.00" fill="#000000">ene.controllers.LibraryController.edit</text>
</a>
</g>
</g>
<!-- Node21&#45;&gt;Node36 -->
<g id="edge16" class="edge">
<title>Node21&#45;&gt;Node36</title>
<path fill="none" stroke="#191970" d="M70.9374,-417.8063C77.2654,-461.4714 101.2881,-587.8982 174,-656.5 181.6224,-663.6915 191.0559,-669.1687 200.862,-673.3374"/>
<polygon fill="#191970" stroke="#191970" points="199.7401,-676.6554 210.331,-676.9467 202.2334,-670.1145 199.7401,-676.6554"/>
</g>
<!-- Node37 -->
<g id="node17" class="node">
<title>Node37</title>
<g id="a_node17"><a xlink:href="classene_1_1views_1_1AbstractView.html#a8b774594825c8749280b5b17013ad7dc" target="_top" xlink:title="ene.views.AbstractView.get\lCoreComponent">
<polygon fill="none" stroke="#000000" points="191,-294.5 191,-324.5 330,-324.5 330,-294.5 191,-294.5"/>
<text text-anchor="start" x="199" y="-312.5" font-family="Helvetica,sans-Serif" font-size="10.00" fill="#000000">ene.views.AbstractView.get</text>
<text text-anchor="middle" x="260.5" y="-301.5" font-family="Helvetica,sans-Serif" font-size="10.00" fill="#000000">CoreComponent</text>
</a>
</g>
</g>
<!-- Node21&#45;&gt;Node37 -->
<g id="edge20" class="edge">
<title>Node21&#45;&gt;Node37</title>
<path fill="none" stroke="#191970" d="M88.0584,-387.3293C108.3215,-371.8551 141.8215,-348.1028 174,-333.5 178.3817,-331.5116 182.9647,-329.6537 187.6367,-327.9237"/>
<polygon fill="#191970" stroke="#191970" points="189.0237,-331.1469 197.3156,-324.5517 186.7207,-324.5366 189.0237,-331.1469"/>
</g>
<!-- Node38 -->
<g id="node18" class="node">
<title>Node38</title>
<g id="a_node18"><a xlink:href="classene_1_1views_1_1gui_1_1partial_1_1LibraryView.html#a54aebe6234a85e8ec433d9836ad02bb4" target="_top" xlink:title="ene.views.gui.partial.Library\lView.getLibraryController">
<polygon fill="none" stroke="#000000" points="191.5,-245.5 191.5,-275.5 329.5,-275.5 329.5,-245.5 191.5,-245.5"/>
<text text-anchor="start" x="199.5" y="-263.5" font-family="Helvetica,sans-Serif" font-size="10.00" fill="#000000">ene.views.gui.partial.Library</text>
<text text-anchor="middle" x="260.5" y="-252.5" font-family="Helvetica,sans-Serif" font-size="10.00" fill="#000000">View.getLibraryController</text>
</a>
</g>
</g>
<!-- Node21&#45;&gt;Node38 -->
<g id="edge22" class="edge">
<title>Node21&#45;&gt;Node38</title>
<path fill="none" stroke="#191970" d="M78.286,-387.3134C94.511,-362.0795 130.4752,-311.6146 174,-284.5 176.7778,-282.7695 179.682,-281.1614 182.6731,-279.6673"/>
<polygon fill="#191970" stroke="#191970" points="184.1922,-282.8217 191.8677,-275.5184 181.3131,-276.4412 184.1922,-282.8217"/>
</g>
<!-- Node39 -->
<g id="node19" class="node">
<title>Node39</title>
<g id="a_node19"><a xlink:href="classene_1_1views_1_1AbstractPartialView.html#afb90f9e02eea94a2fb276d711a67ee36" target="_top" xlink:title="ene.views.AbstractPartial\lView.getModel">
<polygon fill="none" stroke="#000000" points="408.5,-478.5 408.5,-508.5 536.5,-508.5 536.5,-478.5 408.5,-478.5"/>
<text text-anchor="start" x="416.5" y="-496.5" font-family="Helvetica,sans-Serif" font-size="10.00" fill="#000000">ene.views.AbstractPartial</text>
<text text-anchor="middle" x="472.5" y="-485.5" font-family="Helvetica,sans-Serif" font-size="10.00" fill="#000000">View.getModel</text>
</a>
</g>
</g>
<!-- Node21&#45;&gt;Node39 -->
<g id="edge23" class="edge">
<title>Node21&#45;&gt;Node39</title>
<path fill="none" stroke="#191970" d="M93.4964,-417.5424C114.1866,-429.521 144.9984,-445.6914 174,-454.5 248.2183,-477.0422 336.7079,-486.555 397.9765,-490.5694"/>
<polygon fill="#191970" stroke="#191970" points="398.1308,-494.0856 408.3285,-491.2123 398.5648,-487.0991 398.1308,-494.0856"/>
</g>
<!-- Node40 -->
<g id="node20" class="node">
<title>Node40</title>
<g id="a_node20"><a xlink:href="classene_1_1views_1_1gui_1_1partial_1_1AbstractTrackListView.html#a35a32113ecdb8bc210fa6b4e9c57c782" target="_top" xlink:title="ene.views.gui.partial.Abstract\lTrackListView.getSelectedFilename">
<polygon fill="none" stroke="#000000" points="174,-343.5 174,-373.5 347,-373.5 347,-343.5 174,-343.5"/>
<text text-anchor="start" x="182" y="-361.5" font-family="Helvetica,sans-Serif" font-size="10.00" fill="#000000">ene.views.gui.partial.Abstract</text>
<text text-anchor="middle" x="260.5" y="-350.5" font-family="Helvetica,sans-Serif" font-size="10.00" fill="#000000">TrackListView.getSelectedFilename</text>
</a>
</g>
</g>
<!-- Node21&#45;&gt;Node40 -->
<g id="edge24" class="edge">
<title>Node21&#45;&gt;Node40</title>
<path fill="none" stroke="#191970" d="M134.3678,-387.4808C150.762,-383.714 168.4817,-379.6426 185.312,-375.7756"/>
<polygon fill="#191970" stroke="#191970" points="186.1396,-379.1767 195.1019,-373.5262 184.572,-372.3545 186.1396,-379.1767"/>
</g>
<!-- Node42 -->
<g id="node22" class="node">
<title>Node42</title>
<g id="a_node22"><a xlink:href="classene_1_1views_1_1gui_1_1partial_1_1AbstractTrackListView.html#a709dd0b919d5e537076fe18ad992f25f" target="_top" xlink:title="ene.views.gui.partial.Abstract\lTrackListView.getTableContent">
<polygon fill="none" stroke="#000000" points="626,-387.5 626,-417.5 780,-417.5 780,-387.5 626,-387.5"/>
<text text-anchor="start" x="634" y="-405.5" font-family="Helvetica,sans-Serif" font-size="10.00" fill="#000000">ene.views.gui.partial.Abstract</text>
<text text-anchor="middle" x="703" y="-394.5" font-family="Helvetica,sans-Serif" font-size="10.00" fill="#000000">TrackListView.getTableContent</text>
</a>
</g>
</g>
<!-- Node21&#45;&gt;Node42 -->
<g id="edge29" class="edge">
<title>Node21&#45;&gt;Node42</title>
<path fill="none" stroke="#191970" d="M138.056,-402.5C254.2179,-402.5 488.4737,-402.5 615.8034,-402.5"/>
<polygon fill="#191970" stroke="#191970" points="615.9085,-406.0001 625.9084,-402.5 615.9084,-399.0001 615.9085,-406.0001"/>
</g>
<!-- Node44 -->
<g id="node24" class="node">
<title>Node44</title>
<g id="a_node24"><a xlink:href="interfaceene_1_1interfaces_1_1Localization.html#ae7d5c65647a8bd1ca0c27b3279b0751c" target="_top" xlink:title="ene.interfaces.Localization.get\lString">
<polygon fill="none" stroke="#000000" points="186,-196.5 186,-226.5 335,-226.5 335,-196.5 186,-196.5"/>
<text text-anchor="start" x="194" y="-214.5" font-family="Helvetica,sans-Serif" font-size="10.00" fill="#000000">ene.interfaces.Localization.get</text>
<text text-anchor="middle" x="260.5" y="-203.5" font-family="Helvetica,sans-Serif" font-size="10.00" fill="#000000">String</text>
</a>
</g>
</g>
<!-- Node21&#45;&gt;Node44 -->
<g id="edge28" class="edge">
<title>Node21&#45;&gt;Node44</title>
<path fill="none" stroke="#191970" d="M74.1686,-387.4033C86.2108,-354.5384 119.3382,-276.2049 174,-235.5 175.8789,-234.1009 177.8353,-232.7833 179.8537,-231.5426"/>
<polygon fill="#191970" stroke="#191970" points="181.9134,-234.4083 189.0523,-226.5797 178.5896,-228.2477 181.9134,-234.4083"/>
</g>
<!-- Node45 -->
<g id="node25" class="node">
<title>Node45</title>
<g id="a_node25"><a xlink:href="classene_1_1views_1_1gui_1_1partial_1_1AbstractTrackListView.html#a2b9e7e6496c9675f9094dea99e1e469d" target="_top" xlink:title="ene.views.gui.partial.Abstract\lTrackListView.hideColumn">
<polygon fill="none" stroke="#000000" points="187.5,-147.5 187.5,-177.5 333.5,-177.5 333.5,-147.5 187.5,-147.5"/>
<text text-anchor="start" x="195.5" y="-165.5" font-family="Helvetica,sans-Serif" font-size="10.00" fill="#000000">ene.views.gui.partial.Abstract</text>
<text text-anchor="middle" x="260.5" y="-154.5" font-family="Helvetica,sans-Serif" font-size="10.00" fill="#000000">TrackListView.hideColumn</text>
</a>
</g>
</g>
<!-- Node21&#45;&gt;Node45 -->
<g id="edge31" class="edge">
<title>Node21&#45;&gt;Node45</title>
<path fill="none" stroke="#191970" d="M71.8987,-387.2904C80.2292,-347.8378 108.0007,-241.4711 174,-186.5 175.5268,-185.2283 177.1161,-184.0238 178.7579,-182.8828"/>
<polygon fill="#191970" stroke="#191970" points="180.6051,-185.8561 187.3576,-177.6918 176.9876,-179.8632 180.6051,-185.8561"/>
</g>
<!-- Node46 -->
<g id="node26" class="node">
<title>Node46</title>
<g id="a_node26"><a xlink:href="classene_1_1views_1_1gui_1_1partial_1_1LibraryView.html#a734cbc08cf36ed3d48cb106b77ecf28b" target="_top" xlink:title="ene.views.gui.partial.Library\lView.loadContent">
<polygon fill="none" stroke="#000000" points="403.5,-535.5 403.5,-565.5 541.5,-565.5 541.5,-535.5 403.5,-535.5"/>
<text text-anchor="start" x="411.5" y="-553.5" font-family="Helvetica,sans-Serif" font-size="10.00" fill="#000000">ene.views.gui.partial.Library</text>
<text text-anchor="middle" x="472.5" y="-542.5" font-family="Helvetica,sans-Serif" font-size="10.00" fill="#000000">View.loadContent</text>
</a>
</g>
</g>
<!-- Node21&#45;&gt;Node46 -->
<g id="edge32" class="edge">
<title>Node21&#45;&gt;Node46</title>
<path fill="none" stroke="#191970" d="M74.722,-417.9336C87.1986,-449.0368 120.1285,-518.6535 174,-546.5 243.4869,-582.4182 334.792,-577.3753 398.0375,-567.1846"/>
<polygon fill="#191970" stroke="#191970" points="398.663,-570.6286 407.9395,-565.5103 397.4959,-563.7266 398.663,-570.6286"/>
</g>
<!-- Node47 -->
<g id="node27" class="node">
<title>Node47</title>
<g id="a_node27"><a xlink:href="classene_1_1views_1_1AbstractView.html#aa9bee221c279bc8a9dbada91184d8181" target="_top" xlink:title="ene.views.AbstractView.set\lCoreComponent">
<polygon fill="none" stroke="#000000" points="191,-98.5 191,-128.5 330,-128.5 330,-98.5 191,-98.5"/>
<text text-anchor="start" x="199" y="-116.5" font-family="Helvetica,sans-Serif" font-size="10.00" fill="#000000">ene.views.AbstractView.set</text>
<text text-anchor="middle" x="260.5" y="-105.5" font-family="Helvetica,sans-Serif" font-size="10.00" fill="#000000">CoreComponent</text>
</a>
</g>
</g>
<!-- Node21&#45;&gt;Node47 -->
<g id="edge38" class="edge">
<title>Node21&#45;&gt;Node47</title>
<path fill="none" stroke="#191970" d="M70.3935,-387.2838C75.3664,-342.0617 96.3373,-207.2957 174,-137.5 176.4922,-135.2603 179.1758,-133.2275 182.0013,-131.3827"/>
<polygon fill="#191970" stroke="#191970" points="183.8604,-134.3525 190.8532,-126.3931 180.4231,-128.2545 183.8604,-134.3525"/>
</g>
<!-- Node48 -->
<g id="node28" class="node">
<title>Node48</title>
<g id="a_node28"><a xlink:href="classene_1_1views_1_1gui_1_1partial_1_1AbstractTrackListView.html#a597363a2069558d6801c75be622b1988" target="_top" xlink:title="ene.views.gui.partial.Abstract\lTrackListView.setTable">
<polygon fill="none" stroke="#000000" points="187.5,-49.5 187.5,-79.5 333.5,-79.5 333.5,-49.5 187.5,-49.5"/>
<text text-anchor="start" x="195.5" y="-67.5" font-family="Helvetica,sans-Serif" font-size="10.00" fill="#000000">ene.views.gui.partial.Abstract</text>
<text text-anchor="middle" x="260.5" y="-56.5" font-family="Helvetica,sans-Serif" font-size="10.00" fill="#000000">TrackListView.setTable</text>
</a>
</g>
</g>
<!-- Node21&#45;&gt;Node48 -->
<g id="edge39" class="edge">
<title>Node21&#45;&gt;Node48</title>
<path fill="none" stroke="#191970" d="M72.0853,-387.4339C83.9626,-330.8196 128.3503,-131.8331 174,-88.5 175.4835,-87.0918 177.0423,-85.7648 178.6647,-84.5146"/>
<polygon fill="#191970" stroke="#191970" points="180.8114,-87.2923 187.2533,-78.8808 176.972,-81.4391 180.8114,-87.2923"/>
</g>
<!-- Node49 -->
<g id="node29" class="node">
<title>Node49</title>
<g id="a_node29"><a xlink:href="classene_1_1views_1_1gui_1_1partial_1_1AbstractTrackListView.html#a7ba0c6e862c2ef6d4e999650b61ec695" target="_top" xlink:title="ene.views.gui.partial.Abstract\lTrackListView.setTableRowSorter">
<polygon fill="none" stroke="#000000" points="177.5,-.5 177.5,-30.5 343.5,-30.5 343.5,-.5 177.5,-.5"/>
<text text-anchor="start" x="185.5" y="-18.5" font-family="Helvetica,sans-Serif" font-size="10.00" fill="#000000">ene.views.gui.partial.Abstract</text>
<text text-anchor="middle" x="260.5" y="-7.5" font-family="Helvetica,sans-Serif" font-size="10.00" fill="#000000">TrackListView.setTableRowSorter</text>
</a>
</g>
</g>
<!-- Node21&#45;&gt;Node49 -->
<g id="edge40" class="edge">
<title>Node21&#45;&gt;Node49</title>
<path fill="none" stroke="#191970" d="M71.3925,-387.2827C81.4709,-325.0245 122.3441,-90.5948 174,-39.5 174.966,-38.5445 175.9666,-37.6262 176.9982,-36.7437"/>
<polygon fill="#191970" stroke="#191970" points="179.3855,-39.3379 185.458,-30.656 175.2968,-33.6561 179.3855,-39.3379"/>
</g>
<!-- Node50 -->
<g id="node30" class="node">
<title>Node50</title>
<g id="a_node30"><a xlink:href="classene_1_1views_1_1gui_1_1partial_1_1LibraryView.html#a363a0a2db7ab4295ef38bb667038a6f8" target="_top" xlink:title="ene.views.gui.partial.Library\lView.update">
<polygon fill="none" stroke="#000000" points="191.5,-507.5 191.5,-537.5 329.5,-537.5 329.5,-507.5 191.5,-507.5"/>
<text text-anchor="start" x="199.5" y="-525.5" font-family="Helvetica,sans-Serif" font-size="10.00" fill="#000000">ene.views.gui.partial.Library</text>
<text text-anchor="middle" x="260.5" y="-514.5" font-family="Helvetica,sans-Serif" font-size="10.00" fill="#000000">View.update</text>
</a>
</g>
</g>
<!-- Node21&#45;&gt;Node50 -->
<g id="edge41" class="edge">
<title>Node21&#45;&gt;Node50</title>
<path fill="none" stroke="#191970" d="M82.9402,-417.5451C101.8759,-437.2033 137.5633,-471.5781 174,-492.5 181.3314,-496.7097 189.3503,-500.4652 197.4545,-503.7734"/>
<polygon fill="#191970" stroke="#191970" points="196.3818,-507.1111 206.9712,-507.4519 198.9056,-500.5818 196.3818,-507.1111"/>
</g>
<!-- Node23 -->
<g id="node3" class="node">
<title>Node23</title>
<g id="a_node3"><a xlink:href="classene_1_1controllers_1_1LibraryController.html#a6bc70daa48b96db79d5524113a49cd3e" target="_top" xlink:title="ene.controllers.LibraryController.add\lDirectoryContent">
<polygon fill="none" stroke="#000000" points="386,-847.5 386,-877.5 559,-877.5 559,-847.5 386,-847.5"/>
<text text-anchor="start" x="394" y="-865.5" font-family="Helvetica,sans-Serif" font-size="10.00" fill="#000000">ene.controllers.LibraryController.add</text>
<text text-anchor="middle" x="472.5" y="-854.5" font-family="Helvetica,sans-Serif" font-size="10.00" fill="#000000">DirectoryContent</text>
</a>
</g>
</g>
<!-- Node22&#45;&gt;Node23 -->
<g id="edge2" class="edge">
<title>Node22&#45;&gt;Node23</title>
<path fill="none" stroke="#191970" d="M278.8727,-784.0419C302.5706,-796.1526 345.2384,-817.2943 383,-832.5 393.0094,-836.5305 403.7905,-840.4723 414.2844,-844.1044"/>
<polygon fill="#191970" stroke="#191970" points="413.216,-847.4379 423.8104,-847.3466 415.4714,-840.8112 413.216,-847.4379"/>
</g>
<!-- Node25 -->
<g id="node5" class="node">
<title>Node25</title>
<g id="a_node5"><a xlink:href="classene_1_1controllers_1_1LibraryController.html#a8ebea67eb61c84ee6a4825fa98fe870b" target="_top" xlink:title="ene.controllers.LibraryController.addFile">
<polygon fill="none" stroke="#000000" points="844,-809 844,-828 1033,-828 1033,-809 844,-809"/>
<text text-anchor="middle" x="938.5" y="-816" font-family="Helvetica,sans-Serif" font-size="10.00" fill="#000000">ene.controllers.LibraryController.addFile</text>
</a>
</g>
</g>
<!-- Node22&#45;&gt;Node25 -->
<g id="edge8" class="edge">
<title>Node22&#45;&gt;Node25</title>
<path fill="none" stroke="#191970" d="M300.8041,-784.0574C324.5783,-789.2775 355.335,-795.312 383,-798.5 539.1841,-816.4977 721.5507,-819.6882 833.5236,-819.6289"/>
<polygon fill="#191970" stroke="#191970" points="833.8067,-823.1285 843.8017,-819.6141 833.7967,-816.1286 833.8067,-823.1285"/>
</g>
<!-- Node29 -->
<g id="node9" class="node">
<title>Node29</title>
<g id="a_node9"><a xlink:href="classene_1_1controllers_1_1LibraryController.html#a510cf010821311fd17a441739179e99f" target="_top" xlink:title="ene.controllers.LibraryController.get\lDatabaseFilename">
<polygon fill="none" stroke="#000000" points="387,-759.5 387,-789.5 558,-789.5 558,-759.5 387,-759.5"/>
<text text-anchor="start" x="395" y="-777.5" font-family="Helvetica,sans-Serif" font-size="10.00" fill="#000000">ene.controllers.LibraryController.get</text>
<text text-anchor="middle" x="472.5" y="-766.5" font-family="Helvetica,sans-Serif" font-size="10.00" fill="#000000">DatabaseFilename</text>
</a>
</g>
</g>
<!-- Node22&#45;&gt;Node29 -->
<g id="edge9" class="edge">
<title>Node22&#45;&gt;Node29</title>
<path fill="none" stroke="#191970" d="M347.0343,-774.5C356.8064,-774.5 366.8071,-774.5 376.6886,-774.5"/>
<polygon fill="#191970" stroke="#191970" points="376.9285,-778.0001 386.9285,-774.5 376.9285,-771.0001 376.9285,-778.0001"/>
</g>
<!-- Node30 -->
<g id="node10" class="node">
<title>Node30</title>
<g id="a_node10"><a xlink:href="classene_1_1controllers_1_1LibraryController.html#aa40dceee9b0024082b71ab641a087c2e" target="_top" xlink:title="ene.controllers.LibraryController.save\lToFile">
<polygon fill="none" stroke="#000000" points="383,-671.5 383,-701.5 562,-701.5 562,-671.5 383,-671.5"/>
<text text-anchor="start" x="391" y="-689.5" font-family="Helvetica,sans-Serif" font-size="10.00" fill="#000000">ene.controllers.LibraryController.save</text>
<text text-anchor="middle" x="472.5" y="-678.5" font-family="Helvetica,sans-Serif" font-size="10.00" fill="#000000">ToFile</text>
</a>
</g>
</g>
<!-- Node22&#45;&gt;Node30 -->
<g id="edge10" class="edge">
<title>Node22&#45;&gt;Node30</title>
<path fill="none" stroke="#191970" d="M283.5913,-764.9149C317.7844,-750.7216 382.5782,-723.826 426.6448,-705.5342"/>
<polygon fill="#191970" stroke="#191970" points="428.0959,-708.7215 435.9899,-701.6551 425.4122,-702.2564 428.0959,-708.7215"/>
</g>
<!-- Node24 -->
<g id="node4" class="node">
<title>Node24</title>
<g id="a_node4"><a xlink:href="classene_1_1controllers_1_1LibraryController.html#a3a8b922c846a9b770b67f478ea0e5352" target="_top" xlink:title="ene.controllers.LibraryController.scan">
<polygon fill="none" stroke="#000000" points="613.5,-850 613.5,-869 792.5,-869 792.5,-850 613.5,-850"/>
<text text-anchor="middle" x="703" y="-857" font-family="Helvetica,sans-Serif" font-size="10.00" fill="#000000">ene.controllers.LibraryController.scan</text>
</a>
</g>
</g>
<!-- Node23&#45;&gt;Node24 -->
<g id="edge3" class="edge">
<title>Node23&#45;&gt;Node24</title>
<path fill="none" stroke="#191970" d="M559.3137,-861.3701C573.6227,-861.1839 588.5556,-860.9895 603.1527,-860.7995"/>
<polygon fill="#191970" stroke="#191970" points="603.2394,-864.2988 613.193,-860.6689 603.1483,-857.2994 603.2394,-864.2988"/>
</g>
<!-- Node24&#45;&gt;Node25 -->
<g id="edge4" class="edge">
<title>Node24&#45;&gt;Node25</title>
<path fill="none" stroke="#191970" d="M757.6204,-849.9907C792.2722,-843.9579 837.28,-836.1222 873.7302,-829.7763"/>
<polygon fill="#191970" stroke="#191970" points="874.517,-833.192 883.7684,-828.0286 873.3163,-826.2958 874.517,-833.192"/>
</g>
<!-- Node26 -->
<g id="node6" class="node">
<title>Node26</title>
<g id="a_node6"><a xlink:href="classene_1_1models_1_1TrackModel.html#ab0db9bf0054a77ed2879695a379e3bd9" target="_top" xlink:title="ene.models.TrackModel.detect\lArtist">
<polygon fill="none" stroke="#000000" points="1069,-795.5 1069,-825.5 1220,-825.5 1220,-795.5 1069,-795.5"/>
<text text-anchor="start" x="1077" y="-813.5" font-family="Helvetica,sans-Serif" font-size="10.00" fill="#000000">ene.models.TrackModel.detect</text>
<text text-anchor="middle" x="1144.5" y="-802.5" font-family="Helvetica,sans-Serif" font-size="10.00" fill="#000000">Artist</text>
</a>
</g>
</g>
<!-- Node25&#45;&gt;Node26 -->
<g id="edge5" class="edge">
<title>Node25&#45;&gt;Node26</title>
<path fill="none" stroke="#191970" d="M1033.0592,-814.8278C1041.5563,-814.4978 1050.1305,-814.1648 1058.5485,-813.8379"/>
<polygon fill="#191970" stroke="#191970" points="1058.8667,-817.3283 1068.7233,-813.4428 1058.595,-810.3336 1058.8667,-817.3283"/>
</g>
<!-- Node27 -->
<g id="node7" class="node">
<title>Node27</title>
<g id="a_node7"><a xlink:href="classene_1_1models_1_1TrackModel.html#a860b368d4cb6d81e7504cbf979c0cad7" target="_top" xlink:title="ene.models.TrackModel.detect\lTitle">
<polygon fill="none" stroke="#000000" points="1069,-844.5 1069,-874.5 1220,-874.5 1220,-844.5 1069,-844.5"/>
<text text-anchor="start" x="1077" y="-862.5" font-family="Helvetica,sans-Serif" font-size="10.00" fill="#000000">ene.models.TrackModel.detect</text>
<text text-anchor="middle" x="1144.5" y="-851.5" font-family="Helvetica,sans-Serif" font-size="10.00" fill="#000000">Title</text>
</a>
</g>
</g>
<!-- Node25&#45;&gt;Node27 -->
<g id="edge6" class="edge">
<title>Node25&#45;&gt;Node27</title>
<path fill="none" stroke="#191970" d="M986.2783,-828.0093C1007.7978,-832.2923 1033.8832,-837.484 1058.6143,-842.4062"/>
<polygon fill="#191970" stroke="#191970" points="1058.253,-845.9029 1068.7439,-844.4223 1059.6195,-839.0376 1058.253,-845.9029"/>
</g>
<!-- Node28 -->
<g id="node8" class="node">
<title>Node28</title>
<g id="a_node8"><a xlink:href="classene_1_1controllers_1_1AbstractController.html#a9a5afba01d0004a64db4cb14c23e0bbd" target="_top" xlink:title="ene.controllers.Abstract\lController\&lt; LibraryModel\l \&gt;::getModel">
<polygon fill="none" stroke="#000000" points="1083,-719 1083,-760 1206,-760 1206,-719 1083,-719"/>
<text text-anchor="start" x="1091" y="-748" font-family="Helvetica,sans-Serif" font-size="10.00" fill="#000000">ene.controllers.Abstract</text>
<text text-anchor="start" x="1091" y="-737" font-family="Helvetica,sans-Serif" font-size="10.00" fill="#000000">Controller&lt; LibraryModel</text>
<text text-anchor="middle" x="1144.5" y="-726" font-family="Helvetica,sans-Serif" font-size="10.00" fill="#000000"> &gt;::getModel</text>
</a>
</g>
</g>
<!-- Node25&#45;&gt;Node28 -->
<g id="edge7" class="edge">
<title>Node25&#45;&gt;Node28</title>
<path fill="none" stroke="#191970" d="M963.3484,-808.9708C992.3756,-797.839 1041.4917,-779.0032 1081.2634,-763.7509"/>
<polygon fill="#191970" stroke="#191970" points="1082.5497,-767.0062 1090.6334,-760.1576 1080.0432,-760.4704 1082.5497,-767.0062"/>
</g>
<!-- Node31 -->
<g id="node11" class="node">
<title>Node31</title>
<g id="a_node11"><a xlink:href="interfaceene_1_1interfaces_1_1DatabaseConnection.html#aabff21f4c6d43139690fc93cae679e46" target="_top" xlink:title="ene.interfaces.DatabaseConnection.execute">
<polygon fill="none" stroke="#000000" points="598,-683 598,-702 808,-702 808,-683 598,-683"/>
<text text-anchor="middle" x="703" y="-690" font-family="Helvetica,sans-Serif" font-size="10.00" fill="#000000">ene.interfaces.DatabaseConnection.execute</text>
</a>
</g>
</g>
<!-- Node30&#45;&gt;Node31 -->
<g id="edge11" class="edge">
<title>Node30&#45;&gt;Node31</title>
<path fill="none" stroke="#191970" d="M562.2773,-688.8369C570.636,-689.0545 579.1829,-689.277 587.7299,-689.4995"/>
<polygon fill="#191970" stroke="#191970" points="587.6644,-692.9989 597.7521,-689.7604 587.8466,-686.0012 587.6644,-692.9989"/>
</g>
<!-- Node30&#45;&gt;Node32 -->
<g id="edge12" class="edge">
<title>Node30&#45;&gt;Node32</title>
<path fill="none" stroke="#191970" d="M562.2773,-671.6994C582.7153,-668.33 604.2783,-664.7752 624.2177,-661.488"/>
<polygon fill="#191970" stroke="#191970" points="624.8742,-664.9271 634.1717,-659.847 623.7355,-658.0203 624.8742,-664.9271"/>
</g>
<!-- Node33 -->
<g id="node13" class="node">
<title>Node33</title>
<g id="a_node13"><a xlink:href="classene_1_1models_1_1TrackModel.html#aab88fe151b093dba71ad9f9ab5c6959d" target="_top" xlink:title="ene.models.TrackModel.get\lFilename">
<polygon fill="none" stroke="#000000" points="634.5,-535.5 634.5,-565.5 771.5,-565.5 771.5,-535.5 634.5,-535.5"/>
<text text-anchor="start" x="642.5" y="-553.5" font-family="Helvetica,sans-Serif" font-size="10.00" fill="#000000">ene.models.TrackModel.get</text>
<text text-anchor="middle" x="703" y="-542.5" font-family="Helvetica,sans-Serif" font-size="10.00" fill="#000000">Filename</text>
</a>
</g>
</g>
<!-- Node30&#45;&gt;Node33 -->
<g id="edge13" class="edge">
<title>Node30&#45;&gt;Node33</title>
<path fill="none" stroke="#191970" d="M485.0284,-671.1537C505.8331,-646.7395 549.9968,-599.2878 598,-574.5 606.3237,-570.2018 615.4107,-566.6668 624.6434,-563.7609"/>
<polygon fill="#191970" stroke="#191970" points="625.6672,-567.1082 634.2918,-560.9546 623.7122,-560.3867 625.6672,-567.1082"/>
</g>
<!-- Node30&#45;&gt;Node34 -->
<g id="edge14" class="edge">
<title>Node30&#45;&gt;Node34</title>
<path fill="none" stroke="#191970" d="M498.1289,-671.3292C522.938,-657.2064 561.9794,-636.4438 598,-623.5 606.4647,-620.4582 615.4555,-617.7122 624.4758,-615.2582"/>
<polygon fill="#191970" stroke="#191970" points="625.4582,-618.6192 634.2519,-612.7098 623.6923,-611.8456 625.4582,-618.6192"/>
</g>
<!-- Node30&#45;&gt;Node35 -->
<g id="edge15" class="edge">
<title>Node30&#45;&gt;Node35</title>
<path fill="none" stroke="#191970" d="M484.8572,-671.4371C502.3075,-650.0761 535.0496,-609.6649 562,-574.5 578.4384,-553.0512 575.4097,-540.3307 598,-525.5 606.0631,-520.2065 615.1398,-516.0718 624.4943,-512.8439"/>
<polygon fill="#191970" stroke="#191970" points="625.7987,-516.1038 634.3124,-509.7977 623.7244,-509.4182 625.7987,-516.1038"/>
</g>
<!-- Node36&#45;&gt;Node28 -->
<g id="edge17" class="edge">
<title>Node36&#45;&gt;Node28</title>
<path fill="none" stroke="#191970" d="M300.8066,-696.036C324.5816,-701.2489 355.3383,-707.2833 383,-710.5 634.9943,-739.8034 936.7293,-741.4787 1072.3049,-740.4741"/>
<polygon fill="#191970" stroke="#191970" points="1072.5878,-743.972 1082.5589,-740.3905 1072.5307,-736.9722 1072.5878,-743.972"/>
</g>
<!-- Node36&#45;&gt;Node30 -->
<g id="edge18" class="edge">
<title>Node36&#45;&gt;Node30</title>
<path fill="none" stroke="#191970" d="M347.0343,-686.5C355.5103,-686.5 364.1583,-686.5 372.7514,-686.5"/>
<polygon fill="#191970" stroke="#191970" points="372.8,-690.0001 382.8,-686.5 372.7999,-683.0001 372.8,-690.0001"/>
</g>
<!-- Node41 -->
<g id="node21" class="node">
<title>Node41</title>
<g id="a_node21"><a xlink:href="classene_1_1views_1_1gui_1_1partial_1_1AbstractTrackListView.html#aeea3d90287745704cda06893c94b9666" target="_top" xlink:title="ene.views.gui.partial.Abstract\lTrackListView.getTable">
<polygon fill="none" stroke="#000000" points="399.5,-343.5 399.5,-373.5 545.5,-373.5 545.5,-343.5 399.5,-343.5"/>
<text text-anchor="start" x="407.5" y="-361.5" font-family="Helvetica,sans-Serif" font-size="10.00" fill="#000000">ene.views.gui.partial.Abstract</text>
<text text-anchor="middle" x="472.5" y="-350.5" font-family="Helvetica,sans-Serif" font-size="10.00" fill="#000000">TrackListView.getTable</text>
</a>
</g>
</g>
<!-- Node40&#45;&gt;Node41 -->
<g id="edge25" class="edge">
<title>Node40&#45;&gt;Node41</title>
<path fill="none" stroke="#191970" d="M347.0343,-358.5C361.0382,-358.5 375.5115,-358.5 389.4307,-358.5"/>
<polygon fill="#191970" stroke="#191970" points="389.4536,-362.0001 399.4535,-358.5 389.4535,-355.0001 389.4536,-362.0001"/>
</g>
<!-- Node40&#45;&gt;Node42 -->
<g id="edge26" class="edge">
<title>Node40&#45;&gt;Node42</title>
<path fill="none" stroke="#191970" d="M329.0503,-343.3678C335.3867,-340.6063 341.4877,-337.3466 347,-333.5 369.1613,-318.0356 358.8893,-296.7044 383,-284.5 453.9802,-248.571 487.2245,-257.3392 562,-284.5 613.8832,-303.3456 660.0111,-350.575 684.4844,-379.2419"/>
<polygon fill="#191970" stroke="#191970" points="681.987,-381.7118 691.0836,-387.1435 687.3597,-377.2246 681.987,-381.7118"/>
</g>
<!-- Node43 -->
<g id="node23" class="node">
<title>Node43</title>
<g id="a_node23"><a xlink:href="classene_1_1views_1_1gui_1_1partial_1_1AbstractTrackListView.html#abb6fc383a050c8c908502156536ce518" target="_top" xlink:title="ene.views.gui.partial.Abstract\lTrackListView.getTableRowSorter">
<polygon fill="none" stroke="#000000" points="389.5,-294.5 389.5,-324.5 555.5,-324.5 555.5,-294.5 389.5,-294.5"/>
<text text-anchor="start" x="397.5" y="-312.5" font-family="Helvetica,sans-Serif" font-size="10.00" fill="#000000">ene.views.gui.partial.Abstract</text>
<text text-anchor="middle" x="472.5" y="-301.5" font-family="Helvetica,sans-Serif" font-size="10.00" fill="#000000">TrackListView.getTableRowSorter</text>
</a>
</g>
</g>
<!-- Node40&#45;&gt;Node43 -->
<g id="edge27" class="edge">
<title>Node40&#45;&gt;Node43</title>
<path fill="none" stroke="#191970" d="M325.5477,-343.4654C348.339,-338.1976 374.115,-332.2399 397.6442,-326.8016"/>
<polygon fill="#191970" stroke="#191970" points="398.6203,-330.1683 407.5753,-324.5062 397.0439,-323.3481 398.6203,-330.1683"/>
</g>
<!-- Node46&#45;&gt;Node32 -->
<g id="edge33" class="edge">
<title>Node46&#45;&gt;Node32</title>
<path fill="none" stroke="#191970" d="M494.1604,-565.7626C518.4092,-582.199 559.3813,-608.0622 598,-623.5 606.4336,-626.8713 615.4375,-629.8622 624.4935,-632.4958"/>
<polygon fill="#191970" stroke="#191970" points="623.7449,-635.9201 634.3162,-635.2145 625.6122,-629.1738 623.7449,-635.9201"/>
</g>
<!-- Node46&#45;&gt;Node33 -->
<g id="edge34" class="edge">
<title>Node46&#45;&gt;Node33</title>
<path fill="none" stroke="#191970" d="M541.6576,-550.5C567.6441,-550.5 597.3737,-550.5 624.1744,-550.5"/>
<polygon fill="#191970" stroke="#191970" points="624.2887,-554.0001 634.2887,-550.5 624.2886,-547.0001 624.2887,-554.0001"/>
</g>
<!-- Node46&#45;&gt;Node34 -->
<g id="edge35" class="edge">
<title>Node46&#45;&gt;Node34</title>
<path fill="none" stroke="#191970" d="M541.6576,-565.2016C567.6441,-570.7259 597.3737,-577.0458 624.1744,-582.7431"/>
<polygon fill="#191970" stroke="#191970" points="623.7794,-586.2373 634.2887,-584.8933 625.235,-579.3903 623.7794,-586.2373"/>
</g>
<!-- Node46&#45;&gt;Node35 -->
<g id="edge37" class="edge">
<title>Node46&#45;&gt;Node35</title>
<path fill="none" stroke="#191970" d="M541.6576,-535.7984C567.6441,-530.2741 597.3737,-523.9542 624.1744,-518.2569"/>
<polygon fill="#191970" stroke="#191970" points="625.235,-521.6097 634.2887,-516.1067 623.7794,-514.7627 625.235,-521.6097"/>
</g>
<!-- Node46&#45;&gt;Node42 -->
<g id="edge36" class="edge">
<title>Node46&#45;&gt;Node42</title>
<path fill="none" stroke="#191970" d="M526.6928,-535.4294C538.8833,-530.7322 551.3516,-524.8123 562,-517.5 581.9902,-503.7727 579.9634,-492.7089 598,-476.5 620.3057,-456.4546 648.1496,-437.05 669.5589,-423.1439"/>
<polygon fill="#191970" stroke="#191970" points="671.4835,-426.0676 678.0103,-417.7219 667.7036,-420.1758 671.4835,-426.0676"/>
</g>
<!-- Node50&#45;&gt;Node39 -->
<g id="edge43" class="edge">
<title>Node50&#45;&gt;Node39</title>
<path fill="none" stroke="#191970" d="M329.6234,-513.0444C351.6279,-510.0344 376.0545,-506.693 398.3964,-503.6368"/>
<polygon fill="#191970" stroke="#191970" points="399.0654,-507.078 408.4987,-502.2549 398.1166,-500.1426 399.0654,-507.078"/>
</g>
<!-- Node50&#45;&gt;Node46 -->
<g id="edge42" class="edge">
<title>Node50&#45;&gt;Node46</title>
<path fill="none" stroke="#191970" d="M329.6234,-531.6295C349.9759,-534.3176 372.4005,-537.2793 393.3311,-540.0437"/>
<polygon fill="#191970" stroke="#191970" points="393.0983,-543.5433 403.4705,-541.3829 394.0149,-536.6036 393.0983,-543.5433"/>
</g>
</g>
</svg>
