<?xml version="1.0" encoding="UTF-8" standalone="no"?>
<!DOCTYPE svg PUBLIC "-//W3C//DTD SVG 1.1//EN"
 "http://www.w3.org/Graphics/SVG/1.1/DTD/svg11.dtd">
<!-- Generated by graphviz version 2.40.1 (20161225.0304)
 -->
<!-- Title: ene.views.gui.partial.PlayerView.update Pages: 1 -->
<svg width="945pt" height="538pt"
 viewBox="0.00 0.00 945.00 538.00" xmlns="http://www.w3.org/2000/svg" xmlns:xlink="http://www.w3.org/1999/xlink">
<g id="graph0" class="graph" transform="scale(1 1) rotate(0) translate(4 534)">
<title>ene.views.gui.partial.PlayerView.update</title>
<!-- Node69 -->
<g id="node1" class="node">
<title>Node69</title>
<polygon fill="#bfbfbf" stroke="#000000" points="0,-225.5 0,-255.5 137,-255.5 137,-225.5 0,-225.5"/>
<text text-anchor="start" x="8" y="-243.5" font-family="Helvetica,sans-Serif" font-size="10.00" fill="#000000">ene.views.gui.partial.Player</text>
<text text-anchor="middle" x="68.5" y="-232.5" font-family="Helvetica,sans-Serif" font-size="10.00" fill="#000000">View.update</text>
</g>
<!-- Node70 -->
<g id="node2" class="node">
<title>Node70</title>
<g id="a_node2"><a xlink:href="classene_1_1views_1_1gui_1_1partial_1_1PlayerView.html#a7126e270c8cc5956e79773eddc508655" target="_top" xlink:title="ene.views.gui.partial.Player\lView.disablePlayerControls">
<polygon fill="none" stroke="#000000" points="179,-450.5 179,-480.5 316,-480.5 316,-450.5 179,-450.5"/>
<text text-anchor="start" x="187" y="-468.5" font-family="Helvetica,sans-Serif" font-size="10.00" fill="#000000">ene.views.gui.partial.Player</text>
<text text-anchor="middle" x="247.5" y="-457.5" font-family="Helvetica,sans-Serif" font-size="10.00" fill="#000000">View.disablePlayerControls</text>
</a>
</g>
</g>
<!-- Node69&#45;&gt;Node70 -->
<g id="edge1" class="edge">
<title>Node69&#45;&gt;Node70</title>
<path fill="none" stroke="#191970" d="M72.6961,-255.6877C83.407,-291.7881 115.0848,-383.5839 173,-435.5 177.3233,-439.3755 182.2113,-442.784 187.3659,-445.7748"/>
<polygon fill="#191970" stroke="#191970" points="185.7572,-448.8832 196.2397,-450.4226 189.0051,-442.6823 185.7572,-448.8832"/>
</g>
<!-- Node71 -->
<g id="node3" class="node">
<title>Node71</title>
<g id="a_node3"><a xlink:href="classene_1_1views_1_1gui_1_1partial_1_1PlayerView.html#a3098a851f88f8b9ce6d4e2fcacdf55c9" target="_top" xlink:title="ene.views.gui.partial.Player\lView.enablePlayerControls">
<polygon fill="none" stroke="#000000" points="179,-362.5 179,-392.5 316,-392.5 316,-362.5 179,-362.5"/>
<text text-anchor="start" x="187" y="-380.5" font-family="Helvetica,sans-Serif" font-size="10.00" fill="#000000">ene.views.gui.partial.Player</text>
<text text-anchor="middle" x="247.5" y="-369.5" font-family="Helvetica,sans-Serif" font-size="10.00" fill="#000000">View.enablePlayerControls</text>
</a>
</g>
</g>
<!-- Node69&#45;&gt;Node71 -->
<g id="edge2" class="edge">
<title>Node69&#45;&gt;Node71</title>
<path fill="none" stroke="#191970" d="M79.8038,-255.5621C97.4805,-278.218 133.7319,-321.2068 173,-347.5 178.974,-351.5001 185.5638,-355.1058 192.279,-358.3139"/>
<polygon fill="#191970" stroke="#191970" points="190.9117,-361.5365 201.4678,-362.4416 193.7801,-355.1512 190.9117,-361.5365"/>
</g>
<!-- Node72 -->
<g id="node4" class="node">
<title>Node72</title>
<g id="a_node4"><a xlink:href="classene_1_1views_1_1AbstractPartialView.html#afb90f9e02eea94a2fb276d711a67ee36" target="_top" xlink:title="ene.views.AbstractPartial\lView.getModel">
<polygon fill="none" stroke="#000000" points="595.5,-313.5 595.5,-343.5 723.5,-343.5 723.5,-313.5 595.5,-313.5"/>
<text text-anchor="start" x="603.5" y="-331.5" font-family="Helvetica,sans-Serif" font-size="10.00" fill="#000000">ene.views.AbstractPartial</text>
<text text-anchor="middle" x="659.5" y="-320.5" font-family="Helvetica,sans-Serif" font-size="10.00" fill="#000000">View.getModel</text>
</a>
</g>
</g>
<!-- Node69&#45;&gt;Node72 -->
<g id="edge10" class="edge">
<title>Node69&#45;&gt;Node72</title>
<path fill="none" stroke="#191970" d="M83.4868,-255.5725C102.4313,-273.4826 136.9452,-302.453 173,-314.5 247.0984,-339.2584 467.9917,-335.5537 584.9457,-331.5877"/>
<polygon fill="#191970" stroke="#191970" points="585.3722,-335.075 595.2442,-331.2286 585.1282,-328.0793 585.3722,-335.075"/>
</g>
<!-- Node73 -->
<g id="node5" class="node">
<title>Node73</title>
<g id="a_node5"><a xlink:href="classene_1_1views_1_1gui_1_1partial_1_1PlayerView.html#a46b869b84db253abe071d06cb4629925" target="_top" xlink:title="ene.views.gui.partial.Player\lView.isCurrentTrackPartOfCurrent\lPlaylist">
<polygon fill="none" stroke="#000000" points="368.5,-401 368.5,-442 535.5,-442 535.5,-401 368.5,-401"/>
<text text-anchor="start" x="376.5" y="-430" font-family="Helvetica,sans-Serif" font-size="10.00" fill="#000000">ene.views.gui.partial.Player</text>
<text text-anchor="start" x="376.5" y="-419" font-family="Helvetica,sans-Serif" font-size="10.00" fill="#000000">View.isCurrentTrackPartOfCurrent</text>
<text text-anchor="middle" x="452" y="-408" font-family="Helvetica,sans-Serif" font-size="10.00" fill="#000000">Playlist</text>
</a>
</g>
</g>
<!-- Node69&#45;&gt;Node73 -->
<g id="edge17" class="edge">
<title>Node69&#45;&gt;Node73</title>
<path fill="none" stroke="#191970" d="M73.1198,-255.7325C84.1515,-289.1424 115.4899,-368.5757 173,-402.5 228.3258,-435.1358 300.9865,-439.1128 358.2863,-435.3369"/>
<polygon fill="#191970" stroke="#191970" points="358.7233,-438.814 368.4342,-434.5774 358.2008,-431.8336 358.7233,-438.814"/>
</g>
<!-- Node79 -->
<g id="node11" class="node">
<title>Node79</title>
<g id="a_node11"><a xlink:href="classene_1_1views_1_1gui_1_1partial_1_1PlayerView.html#a4dc768b48e41f0ea98929d8069ef790a" target="_top" xlink:title="ene.views.gui.partial.Player\lView.getPlayerController">
<polygon fill="none" stroke="#000000" points="383.5,-186.5 383.5,-216.5 520.5,-216.5 520.5,-186.5 383.5,-186.5"/>
<text text-anchor="start" x="391.5" y="-204.5" font-family="Helvetica,sans-Serif" font-size="10.00" fill="#000000">ene.views.gui.partial.Player</text>
<text text-anchor="middle" x="452" y="-193.5" font-family="Helvetica,sans-Serif" font-size="10.00" fill="#000000">View.getPlayerController</text>
</a>
</g>
</g>
<!-- Node69&#45;&gt;Node79 -->
<g id="edge11" class="edge">
<title>Node69&#45;&gt;Node79</title>
<path fill="none" stroke="#191970" d="M83.4307,-225.2556C102.3187,-207.1722 136.7756,-178.0271 173,-166.5 251.4653,-141.5312 278.5417,-154.8986 358,-176.5 366.7358,-178.8749 375.9351,-181.3515 385.0206,-183.783"/>
<polygon fill="#191970" stroke="#191970" points="384.2428,-187.1979 394.8074,-186.3968 386.0491,-180.4349 384.2428,-187.1979"/>
</g>
<!-- Node80 -->
<g id="node12" class="node">
<title>Node80</title>
<g id="a_node12"><a xlink:href="interfaceene_1_1interfaces_1_1Localization.html#ae7d5c65647a8bd1ca0c27b3279b0751c" target="_top" xlink:title="ene.interfaces.Localization.get\lString">
<polygon fill="none" stroke="#000000" points="173,-225.5 173,-255.5 322,-255.5 322,-225.5 173,-225.5"/>
<text text-anchor="start" x="181" y="-243.5" font-family="Helvetica,sans-Serif" font-size="10.00" fill="#000000">ene.interfaces.Localization.get</text>
<text text-anchor="middle" x="247.5" y="-232.5" font-family="Helvetica,sans-Serif" font-size="10.00" fill="#000000">String</text>
</a>
</g>
</g>
<!-- Node69&#45;&gt;Node80 -->
<g id="edge12" class="edge">
<title>Node69&#45;&gt;Node80</title>
<path fill="none" stroke="#191970" d="M137.1941,-240.5C145.556,-240.5 154.1743,-240.5 162.7347,-240.5"/>
<polygon fill="#191970" stroke="#191970" points="162.7384,-244.0001 172.7384,-240.5 162.7383,-237.0001 162.7384,-244.0001"/>
</g>
<!-- Node81 -->
<g id="node13" class="node">
<title>Node81</title>
<g id="a_node13"><a xlink:href="classene_1_1models_1_1PlayerModel.html#ac32610c7511e6187ae364f64e1cf290b" target="_top" xlink:title="ene.models.PlayerModel.get\lTrackLength">
<polygon fill="none" stroke="#000000" points="177.5,-176.5 177.5,-206.5 317.5,-206.5 317.5,-176.5 177.5,-176.5"/>
<text text-anchor="start" x="185.5" y="-194.5" font-family="Helvetica,sans-Serif" font-size="10.00" fill="#000000">ene.models.PlayerModel.get</text>
<text text-anchor="middle" x="247.5" y="-183.5" font-family="Helvetica,sans-Serif" font-size="10.00" fill="#000000">TrackLength</text>
</a>
</g>
</g>
<!-- Node69&#45;&gt;Node81 -->
<g id="edge13" class="edge">
<title>Node69&#45;&gt;Node81</title>
<path fill="none" stroke="#191970" d="M123.6665,-225.3986C142.3842,-220.2747 163.4635,-214.5044 182.8526,-209.1968"/>
<polygon fill="#191970" stroke="#191970" points="183.7946,-212.5677 192.5157,-206.5516 181.9464,-205.8161 183.7946,-212.5677"/>
</g>
<!-- Node83 -->
<g id="node15" class="node">
<title>Node83</title>
<g id="a_node15"><a xlink:href="classene_1_1models_1_1PlayerModel.html#a3108500012be901007a2e809761ac136" target="_top" xlink:title="ene.models.PlayerModel.get\lTrackPosition">
<polygon fill="none" stroke="#000000" points="177.5,-274.5 177.5,-304.5 317.5,-304.5 317.5,-274.5 177.5,-274.5"/>
<text text-anchor="start" x="185.5" y="-292.5" font-family="Helvetica,sans-Serif" font-size="10.00" fill="#000000">ene.models.PlayerModel.get</text>
<text text-anchor="middle" x="247.5" y="-281.5" font-family="Helvetica,sans-Serif" font-size="10.00" fill="#000000">TrackPosition</text>
</a>
</g>
</g>
<!-- Node69&#45;&gt;Node83 -->
<g id="edge15" class="edge">
<title>Node69&#45;&gt;Node83</title>
<path fill="none" stroke="#191970" d="M123.6665,-255.6014C142.3842,-260.7253 163.4635,-266.4956 182.8526,-271.8032"/>
<polygon fill="#191970" stroke="#191970" points="181.9464,-275.1839 192.5157,-274.4484 183.7946,-268.4323 181.9464,-275.1839"/>
</g>
<!-- Node84 -->
<g id="node16" class="node">
<title>Node84</title>
<g id="a_node16"><a xlink:href="classene_1_1controllers_1_1PlayerController.html#a1ed7610fce44dd038ceb2ec2f27ab592" target="_top" xlink:title="ene.controllers.PlayerController.next">
<polygon fill="none" stroke="#000000" points="364.5,-50 364.5,-69 539.5,-69 539.5,-50 364.5,-50"/>
<text text-anchor="middle" x="452" y="-57" font-family="Helvetica,sans-Serif" font-size="10.00" fill="#000000">ene.controllers.PlayerController.next</text>
</a>
</g>
</g>
<!-- Node69&#45;&gt;Node84 -->
<g id="edge18" class="edge">
<title>Node69&#45;&gt;Node84</title>
<path fill="none" stroke="#191970" d="M73.1198,-225.2675C84.1515,-191.8576 115.4899,-112.4243 173,-78.5 239.311,-39.3842 330.5242,-41.4377 390.345,-48.6657"/>
<polygon fill="#191970" stroke="#191970" points="390.035,-52.1546 400.4011,-49.9651 390.9321,-45.2123 390.035,-52.1546"/>
</g>
<!-- Node86 -->
<g id="node18" class="node">
<title>Node86</title>
<g id="a_node18"><a xlink:href="classene_1_1views_1_1gui_1_1partial_1_1PlayerView.html#af84e60915df5af5201e75e01a2f9a4a5" target="_top" xlink:title="ene.views.gui.partial.Player\lView.resetProgress">
<polygon fill="none" stroke="#000000" points="179,-88.5 179,-118.5 316,-118.5 316,-88.5 179,-88.5"/>
<text text-anchor="start" x="187" y="-106.5" font-family="Helvetica,sans-Serif" font-size="10.00" fill="#000000">ene.views.gui.partial.Player</text>
<text text-anchor="middle" x="247.5" y="-95.5" font-family="Helvetica,sans-Serif" font-size="10.00" fill="#000000">View.resetProgress</text>
</a>
</g>
</g>
<!-- Node69&#45;&gt;Node86 -->
<g id="edge20" class="edge">
<title>Node69&#45;&gt;Node86</title>
<path fill="none" stroke="#191970" d="M79.8038,-225.4379C97.4805,-202.782 133.7319,-159.7932 173,-133.5 178.974,-129.4999 185.5638,-125.8942 192.279,-122.6861"/>
<polygon fill="#191970" stroke="#191970" points="193.7801,-125.8488 201.4678,-118.5584 190.9117,-119.4635 193.7801,-125.8488"/>
</g>
<!-- Node90 -->
<g id="node22" class="node">
<title>Node90</title>
<g id="a_node22"><a xlink:href="classene_1_1controllers_1_1PlayerController.html#acea0cc4709105881026516d468c4baf8" target="_top" xlink:title="ene.controllers.PlayerController.toggle\lPlayback">
<polygon fill="none" stroke="#000000" points="361,-.5 361,-30.5 543,-30.5 543,-.5 361,-.5"/>
<text text-anchor="start" x="369" y="-18.5" font-family="Helvetica,sans-Serif" font-size="10.00" fill="#000000">ene.controllers.PlayerController.toggle</text>
<text text-anchor="middle" x="452" y="-7.5" font-family="Helvetica,sans-Serif" font-size="10.00" fill="#000000">Playback</text>
</a>
</g>
</g>
<!-- Node69&#45;&gt;Node90 -->
<g id="edge27" class="edge">
<title>Node69&#45;&gt;Node90</title>
<path fill="none" stroke="#191970" d="M71.3758,-225.2529C79.5059,-186.8443 106.5319,-86.0124 173,-41.5 224.5726,-6.9629 294.0412,-.3937 350.7567,-2.4932"/>
<polygon fill="#191970" stroke="#191970" points="350.6763,-5.9932 360.828,-2.961 351.0012,.9993 350.6763,-5.9932"/>
</g>
<!-- Node71&#45;&gt;Node72 -->
<g id="edge3" class="edge">
<title>Node71&#45;&gt;Node72</title>
<path fill="none" stroke="#191970" d="M316.1156,-371.8937C376.7138,-366.6353 467.4026,-358.0167 546,-347.5 558.7819,-345.7897 572.3338,-343.734 585.4547,-341.6158"/>
<polygon fill="#191970" stroke="#191970" points="586.0822,-345.0597 595.3845,-339.9885 584.9501,-338.1519 586.0822,-345.0597"/>
</g>
<!-- Node71&#45;&gt;Node73 -->
<g id="edge4" class="edge">
<title>Node71&#45;&gt;Node73</title>
<path fill="none" stroke="#191970" d="M316.1644,-392.2738C329.7404,-395.1948 344.205,-398.3069 358.4431,-401.3704"/>
<polygon fill="#191970" stroke="#191970" points="357.7379,-404.7987 368.2504,-403.4805 359.2104,-397.9553 357.7379,-404.7987"/>
</g>
<!-- Node74 -->
<g id="node6" class="node">
<title>Node74</title>
<g id="a_node6"><a xlink:href="classene_1_1models_1_1PlayerModel.html#af4959d7f4ae27ecf932452aa3ebddae5" target="_top" xlink:title="ene.models.PlayerModel.get\lCurrentTrack">
<polygon fill="none" stroke="#000000" points="589.5,-362.5 589.5,-392.5 729.5,-392.5 729.5,-362.5 589.5,-362.5"/>
<text text-anchor="start" x="597.5" y="-380.5" font-family="Helvetica,sans-Serif" font-size="10.00" fill="#000000">ene.models.PlayerModel.get</text>
<text text-anchor="middle" x="659.5" y="-369.5" font-family="Helvetica,sans-Serif" font-size="10.00" fill="#000000">CurrentTrack</text>
</a>
</g>
</g>
<!-- Node73&#45;&gt;Node74 -->
<g id="edge5" class="edge">
<title>Node73&#45;&gt;Node74</title>
<path fill="none" stroke="#191970" d="M535.5013,-403.7937C550.0497,-400.7087 565.1508,-397.5066 579.5995,-394.4428"/>
<polygon fill="#191970" stroke="#191970" points="580.4269,-397.8452 589.4833,-392.3469 578.9748,-390.9975 580.4269,-397.8452"/>
</g>
<!-- Node75 -->
<g id="node7" class="node">
<title>Node75</title>
<g id="a_node7"><a xlink:href="classene_1_1models_1_1TrackModel.html#aab88fe151b093dba71ad9f9ab5c6959d" target="_top" xlink:title="ene.models.TrackModel.get\lFilename">
<polygon fill="none" stroke="#000000" points="591,-499.5 591,-529.5 728,-529.5 728,-499.5 591,-499.5"/>
<text text-anchor="start" x="599" y="-517.5" font-family="Helvetica,sans-Serif" font-size="10.00" fill="#000000">ene.models.TrackModel.get</text>
<text text-anchor="middle" x="659.5" y="-506.5" font-family="Helvetica,sans-Serif" font-size="10.00" fill="#000000">Filename</text>
</a>
</g>
</g>
<!-- Node73&#45;&gt;Node75 -->
<g id="edge6" class="edge">
<title>Node73&#45;&gt;Node75</title>
<path fill="none" stroke="#191970" d="M486.4482,-442.0735C512.1647,-456.861 548.4987,-476.5669 582,-490.5 586.6758,-492.4447 591.5669,-494.3165 596.5205,-496.0975"/>
<polygon fill="#191970" stroke="#191970" points="595.4888,-499.4441 606.0836,-499.4061 597.7776,-492.8288 595.4888,-499.4441"/>
</g>
<!-- Node76 -->
<g id="node8" class="node">
<title>Node76</title>
<g id="a_node8"><a xlink:href="classene_1_1models_1_1PlayerModel.html#a85b0de48a8e962642825c254f9c47fb0" target="_top" xlink:title="ene.models.PlayerModel.get\lPlaylist">
<polygon fill="none" stroke="#000000" points="589.5,-450.5 589.5,-480.5 729.5,-480.5 729.5,-450.5 589.5,-450.5"/>
<text text-anchor="start" x="597.5" y="-468.5" font-family="Helvetica,sans-Serif" font-size="10.00" fill="#000000">ene.models.PlayerModel.get</text>
<text text-anchor="middle" x="659.5" y="-457.5" font-family="Helvetica,sans-Serif" font-size="10.00" fill="#000000">Playlist</text>
</a>
</g>
</g>
<!-- Node73&#45;&gt;Node76 -->
<g id="edge7" class="edge">
<title>Node73&#45;&gt;Node76</title>
<path fill="none" stroke="#191970" d="M535.5013,-439.2063C550.0497,-442.2913 565.1508,-445.4934 579.5995,-448.5572"/>
<polygon fill="#191970" stroke="#191970" points="578.9748,-452.0025 589.4833,-450.6531 580.4269,-445.1548 578.9748,-452.0025"/>
</g>
<!-- Node77 -->
<g id="node9" class="node">
<title>Node77</title>
<g id="a_node9"><a xlink:href="classene_1_1models_1_1TrackListModel.html#a8e4e0fa1a0a69e1479b62660084fc93c" target="_top" xlink:title="ene.models.TrackListModel.has">
<polygon fill="none" stroke="#000000" points="582,-412 582,-431 737,-431 737,-412 582,-412"/>
<text text-anchor="middle" x="659.5" y="-419" font-family="Helvetica,sans-Serif" font-size="10.00" fill="#000000">ene.models.TrackListModel.has</text>
</a>
</g>
</g>
<!-- Node73&#45;&gt;Node77 -->
<g id="edge8" class="edge">
<title>Node73&#45;&gt;Node77</title>
<path fill="none" stroke="#191970" d="M535.5013,-421.5C547.4666,-421.5 559.8057,-421.5 571.8483,-421.5"/>
<polygon fill="#191970" stroke="#191970" points="571.8797,-425.0001 581.8796,-421.5 571.8796,-418.0001 571.8797,-425.0001"/>
</g>
<!-- Node78 -->
<g id="node10" class="node">
<title>Node78</title>
<g id="a_node10"><a xlink:href="classene_1_1models_1_1TrackListModel.html#a77a78d6a93e67e544d83bf5f4856d121" target="_top" xlink:title="ene.models.TrackListModel.getAll">
<polygon fill="none" stroke="#000000" points="773,-412 773,-431 937,-431 937,-412 773,-412"/>
<text text-anchor="middle" x="855" y="-419" font-family="Helvetica,sans-Serif" font-size="10.00" fill="#000000">ene.models.TrackListModel.getAll</text>
</a>
</g>
</g>
<!-- Node77&#45;&gt;Node78 -->
<g id="edge9" class="edge">
<title>Node77&#45;&gt;Node78</title>
<path fill="none" stroke="#191970" d="M737.0476,-421.5C745.4761,-421.5 754.1142,-421.5 762.6962,-421.5"/>
<polygon fill="#191970" stroke="#191970" points="762.729,-425.0001 772.7289,-421.5 762.7289,-418.0001 762.729,-425.0001"/>
</g>
<!-- Node82 -->
<g id="node14" class="node">
<title>Node82</title>
<g id="a_node14"><a xlink:href="classene_1_1models_1_1PlayerModel.html#aa03431aa1bae96eacf2019c56fd18f45" target="_top" xlink:title="ene.models.PlayerModel.getClip">
<polygon fill="none" stroke="#000000" points="373,-258 373,-277 531,-277 531,-258 373,-258"/>
<text text-anchor="middle" x="452" y="-265" font-family="Helvetica,sans-Serif" font-size="10.00" fill="#000000">ene.models.PlayerModel.getClip</text>
</a>
</g>
</g>
<!-- Node81&#45;&gt;Node82 -->
<g id="edge14" class="edge">
<title>Node81&#45;&gt;Node82</title>
<path fill="none" stroke="#191970" d="M295.7559,-206.5096C304.5249,-209.389 313.5633,-212.4578 322,-215.5 355.6589,-227.6371 393.5898,-243.0084 419.7523,-253.8821"/>
<polygon fill="#191970" stroke="#191970" points="418.5931,-257.1908 429.1697,-257.8132 421.2897,-250.7311 418.5931,-257.1908"/>
</g>
<!-- Node83&#45;&gt;Node82 -->
<g id="edge16" class="edge">
<title>Node83&#45;&gt;Node82</title>
<path fill="none" stroke="#191970" d="M317.5912,-281.9596C332.0584,-280.4032 347.482,-278.744 362.5303,-277.1251"/>
<polygon fill="#191970" stroke="#191970" points="363.3039,-280.5622 372.8721,-276.0125 362.5551,-273.6023 363.3039,-280.5622"/>
</g>
<!-- Node85 -->
<g id="node17" class="node">
<title>Node85</title>
<g id="a_node17"><a xlink:href="classene_1_1controllers_1_1AbstractController.html#a9a5afba01d0004a64db4cb14c23e0bbd" target="_top" xlink:title="ene.controllers.Abstract\lController\&lt; PlayerModel\l \&gt;::getModel">
<polygon fill="none" stroke="#000000" points="598.5,-39 598.5,-80 720.5,-80 720.5,-39 598.5,-39"/>
<text text-anchor="start" x="606.5" y="-68" font-family="Helvetica,sans-Serif" font-size="10.00" fill="#000000">ene.controllers.Abstract</text>
<text text-anchor="start" x="606.5" y="-57" font-family="Helvetica,sans-Serif" font-size="10.00" fill="#000000">Controller&lt; PlayerModel</text>
<text text-anchor="middle" x="659.5" y="-46" font-family="Helvetica,sans-Serif" font-size="10.00" fill="#000000"> &gt;::getModel</text>
</a>
</g>
</g>
<!-- Node84&#45;&gt;Node85 -->
<g id="edge19" class="edge">
<title>Node84&#45;&gt;Node85</title>
<path fill="none" stroke="#191970" d="M539.6979,-59.5C555.8485,-59.5 572.5308,-59.5 588.1282,-59.5"/>
<polygon fill="#191970" stroke="#191970" points="588.2047,-63.0001 598.2047,-59.5 588.2046,-56.0001 588.2047,-63.0001"/>
</g>
<!-- Node86&#45;&gt;Node79 -->
<g id="edge23" class="edge">
<title>Node86&#45;&gt;Node79</title>
<path fill="none" stroke="#191970" d="M295.0481,-118.5708C304.4316,-122.6447 313.878,-127.5993 322,-133.5 342.1647,-148.1499 336.9738,-163.1159 358,-176.5 362.9281,-179.6369 368.2408,-182.3826 373.7441,-184.7854"/>
<polygon fill="#191970" stroke="#191970" points="372.5656,-188.0831 383.1517,-188.5141 375.1449,-181.5756 372.5656,-188.0831"/>
</g>
<!-- Node87 -->
<g id="node19" class="node">
<title>Node87</title>
<g id="a_node19"><a xlink:href="classene_1_1controllers_1_1PlayerController.html#a4431d7fb8789a039aba690fa30c7f76f" target="_top" xlink:title="ene.controllers.PlayerController.change\lTrackPosition">
<polygon fill="none" stroke="#000000" points="358,-88.5 358,-118.5 546,-118.5 546,-88.5 358,-88.5"/>
<text text-anchor="start" x="366" y="-106.5" font-family="Helvetica,sans-Serif" font-size="10.00" fill="#000000">ene.controllers.PlayerController.change</text>
<text text-anchor="middle" x="452" y="-95.5" font-family="Helvetica,sans-Serif" font-size="10.00" fill="#000000">TrackPosition</text>
</a>
</g>
</g>
<!-- Node86&#45;&gt;Node87 -->
<g id="edge21" class="edge">
<title>Node86&#45;&gt;Node87</title>
<path fill="none" stroke="#191970" d="M316.1644,-103.5C326.2766,-103.5 336.8818,-103.5 347.5192,-103.5"/>
<polygon fill="#191970" stroke="#191970" points="347.7128,-107.0001 357.7128,-103.5 347.7127,-100.0001 347.7128,-107.0001"/>
</g>
<!-- Node88 -->
<g id="node20" class="node">
<title>Node88</title>
<g id="a_node20"><a xlink:href="classene_1_1views_1_1gui_1_1partial_1_1PlayerView.html#af324f1c0b5648dab2400b4c0ab33f3ca" target="_top" xlink:title="ene.views.gui.partial.Player\lView.updateProgress">
<polygon fill="none" stroke="#000000" points="383.5,-137.5 383.5,-167.5 520.5,-167.5 520.5,-137.5 383.5,-137.5"/>
<text text-anchor="start" x="391.5" y="-155.5" font-family="Helvetica,sans-Serif" font-size="10.00" fill="#000000">ene.views.gui.partial.Player</text>
<text text-anchor="middle" x="452" y="-144.5" font-family="Helvetica,sans-Serif" font-size="10.00" fill="#000000">View.updateProgress</text>
</a>
</g>
</g>
<!-- Node86&#45;&gt;Node88 -->
<g id="edge24" class="edge">
<title>Node86&#45;&gt;Node88</title>
<path fill="none" stroke="#191970" d="M310.2465,-118.5346C332.1333,-123.7789 356.8736,-129.7069 379.4883,-135.1255"/>
<polygon fill="#191970" stroke="#191970" points="378.8318,-138.5673 389.3721,-137.4938 380.463,-131.7599 378.8318,-138.5673"/>
</g>
<!-- Node87&#45;&gt;Node85 -->
<g id="edge22" class="edge">
<title>Node87&#45;&gt;Node85</title>
<path fill="none" stroke="#191970" d="M522.8294,-88.4808C544.0122,-83.989 567.2376,-79.0641 588.4355,-74.5691"/>
<polygon fill="#191970" stroke="#191970" points="589.2817,-77.9676 598.3381,-72.4693 587.8296,-71.1198 589.2817,-77.9676"/>
</g>
<!-- Node88&#45;&gt;Node72 -->
<g id="edge25" class="edge">
<title>Node88&#45;&gt;Node72</title>
<path fill="none" stroke="#191970" d="M520.609,-164.1253C529.5711,-167.3027 538.3009,-171.3485 546,-176.5 594.829,-209.1719 630.7199,-270.1184 647.9937,-304.069"/>
<polygon fill="#191970" stroke="#191970" points="644.9825,-305.8752 652.5594,-313.2807 651.2544,-302.7665 644.9825,-305.8752"/>
</g>
<!-- Node89 -->
<g id="node21" class="node">
<title>Node89</title>
<g id="a_node21"><a xlink:href="classene_1_1views_1_1gui_1_1partial_1_1PlayerView.html#a5214bb8084cfb78242868039e33f78ef" target="_top" xlink:title="ene.views.gui.partial.Player\lView.formatTimeToString">
<polygon fill="none" stroke="#000000" points="591,-137.5 591,-167.5 728,-167.5 728,-137.5 591,-137.5"/>
<text text-anchor="start" x="599" y="-155.5" font-family="Helvetica,sans-Serif" font-size="10.00" fill="#000000">ene.views.gui.partial.Player</text>
<text text-anchor="middle" x="659.5" y="-144.5" font-family="Helvetica,sans-Serif" font-size="10.00" fill="#000000">View.formatTimeToString</text>
</a>
</g>
</g>
<!-- Node88&#45;&gt;Node89 -->
<g id="edge26" class="edge">
<title>Node88&#45;&gt;Node89</title>
<path fill="none" stroke="#191970" d="M520.5183,-152.5C539.7185,-152.5 560.7454,-152.5 580.5008,-152.5"/>
<polygon fill="#191970" stroke="#191970" points="580.6994,-156.0001 590.6993,-152.5 580.6993,-149.0001 580.6994,-156.0001"/>
</g>
<!-- Node90&#45;&gt;Node85 -->
<g id="edge28" class="edge">
<title>Node90&#45;&gt;Node85</title>
<path fill="none" stroke="#191970" d="M522.8294,-30.5192C544.0122,-35.011 567.2376,-39.9359 588.4355,-44.4309"/>
<polygon fill="#191970" stroke="#191970" points="587.8296,-47.8802 598.3381,-46.5307 589.2817,-41.0324 587.8296,-47.8802"/>
</g>
</g>
</svg>
