<?xml version="1.0" encoding="UTF-8" standalone="no"?>
<!DOCTYPE svg PUBLIC "-//W3C//DTD SVG 1.1//EN"
 "http://www.w3.org/Graphics/SVG/1.1/DTD/svg11.dtd">
<!-- Generated by graphviz version 2.40.1 (20161225.0304)
 -->
<!-- Title: ene.views.gui.partial.LibraryView.render Pages: 1 -->
<svg width="1401pt" height="1040pt"
 viewBox="0.00 0.00 1401.00 1039.89" xmlns="http://www.w3.org/2000/svg" xmlns:xlink="http://www.w3.org/1999/xlink">
<g id="graph0" class="graph" transform="scale(1 1) rotate(0) translate(4 1035.887)">
<title>ene.views.gui.partial.LibraryView.render</title>
<!-- Node25 -->
<g id="node1" class="node">
<title>Node25</title>
<polygon fill="#bfbfbf" stroke="#000000" points="0,-436.5 0,-466.5 138,-466.5 138,-436.5 0,-436.5"/>
<text text-anchor="start" x="8" y="-454.5" font-family="Helvetica,sans-Serif" font-size="10.00" fill="#000000">ene.views.gui.partial.Library</text>
<text text-anchor="middle" x="69" y="-443.5" font-family="Helvetica,sans-Serif" font-size="10.00" fill="#000000">View.render</text>
</g>
<!-- Node26 -->
<g id="node2" class="node">
<title>Node26</title>
<g id="a_node2"><a xlink:href="classene_1_1controllers_1_1PlaylistController.html#ad5e0bbbd2de4359b178fdf0458447d77" target="_top" xlink:title="ene.controllers.Playlist\lController.add">
<polygon fill="none" stroke="#000000" points="202.5,-693.5 202.5,-723.5 318.5,-723.5 318.5,-693.5 202.5,-693.5"/>
<text text-anchor="start" x="210.5" y="-711.5" font-family="Helvetica,sans-Serif" font-size="10.00" fill="#000000">ene.controllers.Playlist</text>
<text text-anchor="middle" x="260.5" y="-700.5" font-family="Helvetica,sans-Serif" font-size="10.00" fill="#000000">Controller.add</text>
</a>
</g>
</g>
<!-- Node25&#45;&gt;Node26 -->
<g id="edge1" class="edge">
<title>Node25&#45;&gt;Node26</title>
<path fill="none" stroke="#191970" d="M72.6096,-466.6414C82.4683,-505.0268 113.2618,-607.3573 174,-667.5 182.7646,-676.1786 193.7176,-683.2712 204.8535,-688.968"/>
<polygon fill="#191970" stroke="#191970" points="203.674,-692.2831 214.2067,-693.4291 206.6875,-685.9649 203.674,-692.2831"/>
</g>
<!-- Node30 -->
<g id="node6" class="node">
<title>Node30</title>
<g id="a_node6"><a xlink:href="classene_1_1models_1_1TrackModel.html#a04afba3cc5098c28ebd394fb7ac920ba" target="_top" xlink:title="ene.models.TrackModel.get\lArtist">
<polygon fill="none" stroke="#000000" points="634.5,-729.5 634.5,-759.5 771.5,-759.5 771.5,-729.5 634.5,-729.5"/>
<text text-anchor="start" x="642.5" y="-747.5" font-family="Helvetica,sans-Serif" font-size="10.00" fill="#000000">ene.models.TrackModel.get</text>
<text text-anchor="middle" x="703" y="-736.5" font-family="Helvetica,sans-Serif" font-size="10.00" fill="#000000">Artist</text>
</a>
</g>
</g>
<!-- Node25&#45;&gt;Node30 -->
<g id="edge29" class="edge">
<title>Node25&#45;&gt;Node30</title>
<path fill="none" stroke="#191970" d="M72.3874,-466.8042C84.6357,-520.6539 128.3152,-699.947 174,-733.5 243.2918,-784.391 494.0673,-766.7423 623.8891,-753.5758"/>
<polygon fill="#191970" stroke="#191970" points="624.5755,-757.0237 634.1642,-752.5174 623.8582,-750.0605 624.5755,-757.0237"/>
</g>
<!-- Node32 -->
<g id="node8" class="node">
<title>Node32</title>
<g id="a_node8"><a xlink:href="classene_1_1models_1_1TrackModel.html#a5bac0e2b6c87c93eef2802d9d10bf3c1" target="_top" xlink:title="ene.models.TrackModel.get\lTitle">
<polygon fill="none" stroke="#000000" points="634.5,-613.5 634.5,-643.5 771.5,-643.5 771.5,-613.5 634.5,-613.5"/>
<text text-anchor="start" x="642.5" y="-631.5" font-family="Helvetica,sans-Serif" font-size="10.00" fill="#000000">ene.models.TrackModel.get</text>
<text text-anchor="middle" x="703" y="-620.5" font-family="Helvetica,sans-Serif" font-size="10.00" fill="#000000">Title</text>
</a>
</g>
</g>
<!-- Node25&#45;&gt;Node32 -->
<g id="edge41" class="edge">
<title>Node25&#45;&gt;Node32</title>
<path fill="none" stroke="#191970" d="M72.9807,-466.6498C83.0519,-501.5097 113.1795,-587.0497 174,-621.5 212.0577,-643.0569 486.3593,-636.4094 624.268,-631.595"/>
<polygon fill="#191970" stroke="#191970" points="624.4896,-635.0894 634.3594,-631.2375 624.2417,-628.0938 624.4896,-635.0894"/>
</g>
<!-- Node33 -->
<g id="node9" class="node">
<title>Node33</title>
<g id="a_node9"><a xlink:href="classene_1_1controllers_1_1LibraryController.html#aa0d66e53872a376fe6d456eb070de8d4" target="_top" xlink:title="ene.controllers.LibraryController.add">
<polygon fill="none" stroke="#000000" points="174,-924 174,-943 347,-943 347,-924 174,-924"/>
<text text-anchor="middle" x="260.5" y="-931" font-family="Helvetica,sans-Serif" font-size="10.00" fill="#000000">ene.controllers.LibraryController.add</text>
</a>
</g>
</g>
<!-- Node25&#45;&gt;Node33 -->
<g id="edge8" class="edge">
<title>Node25&#45;&gt;Node33</title>
<path fill="none" stroke="#191970" d="M71.431,-466.5521C82.3301,-532.778 128.1649,-798.0165 174,-867.5 188.6362,-889.6878 213.317,-907.4246 232.5778,-918.8999"/>
<polygon fill="#191970" stroke="#191970" points="230.8428,-921.9396 241.2596,-923.8736 234.3225,-915.8657 230.8428,-921.9396"/>
</g>
<!-- Node43 -->
<g id="node19" class="node">
<title>Node43</title>
<g id="a_node19"><a xlink:href="classene_1_1models_1_1TrackModel.html#a2c57f7fe3f410c0e914af9a79de57346" target="_top" xlink:title="ene.models.TrackModel.get\lGenre">
<polygon fill="none" stroke="#000000" points="634.5,-564.5 634.5,-594.5 771.5,-594.5 771.5,-564.5 634.5,-564.5"/>
<text text-anchor="start" x="642.5" y="-582.5" font-family="Helvetica,sans-Serif" font-size="10.00" fill="#000000">ene.models.TrackModel.get</text>
<text text-anchor="middle" x="703" y="-571.5" font-family="Helvetica,sans-Serif" font-size="10.00" fill="#000000">Genre</text>
</a>
</g>
</g>
<!-- Node25&#45;&gt;Node43 -->
<g id="edge31" class="edge">
<title>Node25&#45;&gt;Node43</title>
<path fill="none" stroke="#191970" d="M138.1635,-460.918C150.1092,-462.4885 162.4099,-464.0703 174,-465.5 346.2442,-486.7473 395.5422,-460.395 562,-509.5 601.0943,-521.0328 642.4928,-542.886 670.2422,-559.1205"/>
<polygon fill="#191970" stroke="#191970" points="668.7218,-562.2883 679.1066,-564.3877 672.2976,-556.2705 668.7218,-562.2883"/>
</g>
<!-- Node44 -->
<g id="node20" class="node">
<title>Node44</title>
<g id="a_node20"><a xlink:href="classene_1_1controllers_1_1LibraryController.html#a9e4da87d9fab61b162c2f57e97852be5" target="_top" xlink:title="ene.controllers.LibraryController.edit">
<polygon fill="none" stroke="#000000" points="174,-839 174,-858 347,-858 347,-839 174,-839"/>
<text text-anchor="middle" x="260.5" y="-846" font-family="Helvetica,sans-Serif" font-size="10.00" fill="#000000">ene.controllers.LibraryController.edit</text>
</a>
</g>
</g>
<!-- Node25&#45;&gt;Node44 -->
<g id="edge25" class="edge">
<title>Node25&#45;&gt;Node44</title>
<path fill="none" stroke="#191970" d="M70.8154,-466.7939C77.2548,-515.9104 102.5772,-672.5495 174,-777.5 189.9472,-800.9333 215.8118,-820.7171 235.1105,-833.4004"/>
<polygon fill="#191970" stroke="#191970" points="233.4042,-836.4631 243.7201,-838.8783 237.162,-830.5572 233.4042,-836.4631"/>
</g>
<!-- Node45 -->
<g id="node21" class="node">
<title>Node45</title>
<g id="a_node21"><a xlink:href="classene_1_1views_1_1AbstractView.html#a8b774594825c8749280b5b17013ad7dc" target="_top" xlink:title="ene.views.AbstractView.get\lCoreComponent">
<polygon fill="none" stroke="#000000" points="191,-343.5 191,-373.5 330,-373.5 330,-343.5 191,-343.5"/>
<text text-anchor="start" x="199" y="-361.5" font-family="Helvetica,sans-Serif" font-size="10.00" fill="#000000">ene.views.AbstractView.get</text>
<text text-anchor="middle" x="260.5" y="-350.5" font-family="Helvetica,sans-Serif" font-size="10.00" fill="#000000">CoreComponent</text>
</a>
</g>
</g>
<!-- Node25&#45;&gt;Node45 -->
<g id="edge30" class="edge">
<title>Node25&#45;&gt;Node45</title>
<path fill="none" stroke="#191970" d="M88.0584,-436.3293C108.3215,-420.8551 141.8215,-397.1028 174,-382.5 178.3817,-380.5116 182.9647,-378.6537 187.6367,-376.9237"/>
<polygon fill="#191970" stroke="#191970" points="189.0237,-380.1469 197.3156,-373.5517 186.7207,-373.5366 189.0237,-380.1469"/>
</g>
<!-- Node46 -->
<g id="node22" class="node">
<title>Node46</title>
<g id="a_node22"><a xlink:href="classene_1_1views_1_1gui_1_1partial_1_1LibraryView.html#a54aebe6234a85e8ec433d9836ad02bb4" target="_top" xlink:title="ene.views.gui.partial.Library\lView.getLibraryController">
<polygon fill="none" stroke="#000000" points="191.5,-294.5 191.5,-324.5 329.5,-324.5 329.5,-294.5 191.5,-294.5"/>
<text text-anchor="start" x="199.5" y="-312.5" font-family="Helvetica,sans-Serif" font-size="10.00" fill="#000000">ene.views.gui.partial.Library</text>
<text text-anchor="middle" x="260.5" y="-301.5" font-family="Helvetica,sans-Serif" font-size="10.00" fill="#000000">View.getLibraryController</text>
</a>
</g>
</g>
<!-- Node25&#45;&gt;Node46 -->
<g id="edge32" class="edge">
<title>Node25&#45;&gt;Node46</title>
<path fill="none" stroke="#191970" d="M78.286,-436.3134C94.511,-411.0795 130.4752,-360.6146 174,-333.5 176.7778,-331.7695 179.682,-330.1614 182.6731,-328.6673"/>
<polygon fill="#191970" stroke="#191970" points="184.1922,-331.8217 191.8677,-324.5184 181.3131,-325.4412 184.1922,-331.8217"/>
</g>
<!-- Node47 -->
<g id="node23" class="node">
<title>Node47</title>
<g id="a_node23"><a xlink:href="classene_1_1views_1_1AbstractPartialView.html#afb90f9e02eea94a2fb276d711a67ee36" target="_top" xlink:title="ene.views.AbstractPartial\lView.getModel">
<polygon fill="none" stroke="#000000" points="408.5,-518.5 408.5,-548.5 536.5,-548.5 536.5,-518.5 408.5,-518.5"/>
<text text-anchor="start" x="416.5" y="-536.5" font-family="Helvetica,sans-Serif" font-size="10.00" fill="#000000">ene.views.AbstractPartial</text>
<text text-anchor="middle" x="472.5" y="-525.5" font-family="Helvetica,sans-Serif" font-size="10.00" fill="#000000">View.getModel</text>
</a>
</g>
</g>
<!-- Node25&#45;&gt;Node47 -->
<g id="edge33" class="edge">
<title>Node25&#45;&gt;Node47</title>
<path fill="none" stroke="#191970" d="M93.015,-466.5257C113.6664,-478.6641 144.6751,-495.0675 174,-503.5 248.2896,-524.8622 336.7677,-531.5383 398.0142,-533.3767"/>
<polygon fill="#191970" stroke="#191970" points="398.2737,-536.8847 408.3624,-533.6491 398.4579,-529.8871 398.2737,-536.8847"/>
</g>
<!-- Node48 -->
<g id="node24" class="node">
<title>Node48</title>
<g id="a_node24"><a xlink:href="classene_1_1views_1_1gui_1_1partial_1_1LibraryView.html#a601c2b0f0e80edb22126c78b9d9e63ee" target="_top" xlink:title="ene.views.gui.partial.Library\lView.getPlaylistController">
<polygon fill="none" stroke="#000000" points="191.5,-245.5 191.5,-275.5 329.5,-275.5 329.5,-245.5 191.5,-245.5"/>
<text text-anchor="start" x="199.5" y="-263.5" font-family="Helvetica,sans-Serif" font-size="10.00" fill="#000000">ene.views.gui.partial.Library</text>
<text text-anchor="middle" x="260.5" y="-252.5" font-family="Helvetica,sans-Serif" font-size="10.00" fill="#000000">View.getPlaylistController</text>
</a>
</g>
</g>
<!-- Node25&#45;&gt;Node48 -->
<g id="edge34" class="edge">
<title>Node25&#45;&gt;Node48</title>
<path fill="none" stroke="#191970" d="M74.1686,-436.4033C86.2108,-403.5384 119.3382,-325.2049 174,-284.5 176.6249,-282.5453 179.4013,-280.7498 182.2865,-279.1005"/>
<polygon fill="#191970" stroke="#191970" points="183.883,-282.2153 191.2265,-274.5784 180.7233,-275.969 183.883,-282.2153"/>
</g>
<!-- Node49 -->
<g id="node25" class="node">
<title>Node49</title>
<g id="a_node25"><a xlink:href="classene_1_1views_1_1gui_1_1partial_1_1AbstractTrackListView.html#a35a32113ecdb8bc210fa6b4e9c57c782" target="_top" xlink:title="ene.views.gui.partial.Abstract\lTrackListView.getSelectedFilename">
<polygon fill="none" stroke="#000000" points="174,-392.5 174,-422.5 347,-422.5 347,-392.5 174,-392.5"/>
<text text-anchor="start" x="182" y="-410.5" font-family="Helvetica,sans-Serif" font-size="10.00" fill="#000000">ene.views.gui.partial.Abstract</text>
<text text-anchor="middle" x="260.5" y="-399.5" font-family="Helvetica,sans-Serif" font-size="10.00" fill="#000000">TrackListView.getSelectedFilename</text>
</a>
</g>
</g>
<!-- Node25&#45;&gt;Node49 -->
<g id="edge35" class="edge">
<title>Node25&#45;&gt;Node49</title>
<path fill="none" stroke="#191970" d="M134.3678,-436.4808C150.762,-432.714 168.4817,-428.6426 185.312,-424.7756"/>
<polygon fill="#191970" stroke="#191970" points="186.1396,-428.1767 195.1019,-422.5262 184.572,-421.3545 186.1396,-428.1767"/>
</g>
<!-- Node51 -->
<g id="node27" class="node">
<title>Node51</title>
<g id="a_node27"><a xlink:href="classene_1_1views_1_1gui_1_1partial_1_1AbstractTrackListView.html#a709dd0b919d5e537076fe18ad992f25f" target="_top" xlink:title="ene.views.gui.partial.Abstract\lTrackListView.getTableContent">
<polygon fill="none" stroke="#000000" points="626,-436.5 626,-466.5 780,-466.5 780,-436.5 626,-436.5"/>
<text text-anchor="start" x="634" y="-454.5" font-family="Helvetica,sans-Serif" font-size="10.00" fill="#000000">ene.views.gui.partial.Abstract</text>
<text text-anchor="middle" x="703" y="-443.5" font-family="Helvetica,sans-Serif" font-size="10.00" fill="#000000">TrackListView.getTableContent</text>
</a>
</g>
</g>
<!-- Node25&#45;&gt;Node51 -->
<g id="edge40" class="edge">
<title>Node25&#45;&gt;Node51</title>
<path fill="none" stroke="#191970" d="M138.056,-451.5C254.2179,-451.5 488.4737,-451.5 615.8034,-451.5"/>
<polygon fill="#191970" stroke="#191970" points="615.9085,-455.0001 625.9084,-451.5 615.9084,-448.0001 615.9085,-455.0001"/>
</g>
<!-- Node53 -->
<g id="node29" class="node">
<title>Node53</title>
<g id="a_node29"><a xlink:href="interfaceene_1_1interfaces_1_1Localization.html#ae7d5c65647a8bd1ca0c27b3279b0751c" target="_top" xlink:title="ene.interfaces.Localization.get\lString">
<polygon fill="none" stroke="#000000" points="186,-196.5 186,-226.5 335,-226.5 335,-196.5 186,-196.5"/>
<text text-anchor="start" x="194" y="-214.5" font-family="Helvetica,sans-Serif" font-size="10.00" fill="#000000">ene.interfaces.Localization.get</text>
<text text-anchor="middle" x="260.5" y="-203.5" font-family="Helvetica,sans-Serif" font-size="10.00" fill="#000000">String</text>
</a>
</g>
</g>
<!-- Node25&#45;&gt;Node53 -->
<g id="edge39" class="edge">
<title>Node25&#45;&gt;Node53</title>
<path fill="none" stroke="#191970" d="M71.8987,-436.2904C80.2292,-396.8378 108.0007,-290.4711 174,-235.5 175.5268,-234.2283 177.1161,-233.0238 178.7579,-231.8828"/>
<polygon fill="#191970" stroke="#191970" points="180.6051,-234.8561 187.3576,-226.6918 176.9876,-228.8632 180.6051,-234.8561"/>
</g>
<!-- Node54 -->
<g id="node30" class="node">
<title>Node54</title>
<g id="a_node30"><a xlink:href="classene_1_1views_1_1gui_1_1partial_1_1AbstractTrackListView.html#a2b9e7e6496c9675f9094dea99e1e469d" target="_top" xlink:title="ene.views.gui.partial.Abstract\lTrackListView.hideColumn">
<polygon fill="none" stroke="#000000" points="187.5,-147.5 187.5,-177.5 333.5,-177.5 333.5,-147.5 187.5,-147.5"/>
<text text-anchor="start" x="195.5" y="-165.5" font-family="Helvetica,sans-Serif" font-size="10.00" fill="#000000">ene.views.gui.partial.Abstract</text>
<text text-anchor="middle" x="260.5" y="-154.5" font-family="Helvetica,sans-Serif" font-size="10.00" fill="#000000">TrackListView.hideColumn</text>
</a>
</g>
</g>
<!-- Node25&#45;&gt;Node54 -->
<g id="edge42" class="edge">
<title>Node25&#45;&gt;Node54</title>
<path fill="none" stroke="#191970" d="M70.3935,-436.2838C75.3664,-391.0617 96.3373,-256.2957 174,-186.5 175.5214,-185.1327 177.1141,-183.8426 178.7669,-182.6252"/>
<polygon fill="#191970" stroke="#191970" points="180.8915,-185.4231 187.479,-177.1251 177.1547,-179.504 180.8915,-185.4231"/>
</g>
<!-- Node56 -->
<g id="node32" class="node">
<title>Node56</title>
<g id="a_node32"><a xlink:href="classene_1_1views_1_1gui_1_1partial_1_1LibraryView.html#a734cbc08cf36ed3d48cb106b77ecf28b" target="_top" xlink:title="ene.views.gui.partial.Library\lView.loadContent">
<polygon fill="none" stroke="#000000" points="403.5,-567.5 403.5,-597.5 541.5,-597.5 541.5,-567.5 403.5,-567.5"/>
<text text-anchor="start" x="411.5" y="-585.5" font-family="Helvetica,sans-Serif" font-size="10.00" fill="#000000">ene.views.gui.partial.Library</text>
<text text-anchor="middle" x="472.5" y="-574.5" font-family="Helvetica,sans-Serif" font-size="10.00" fill="#000000">View.loadContent</text>
</a>
</g>
</g>
<!-- Node25&#45;&gt;Node56 -->
<g id="edge44" class="edge">
<title>Node25&#45;&gt;Node56</title>
<path fill="none" stroke="#191970" d="M74.471,-466.619C86.6847,-497.8015 119.4664,-568.6596 174,-596.5 251.7424,-636.1889 356.2313,-617.6617 418.7296,-600.297"/>
<polygon fill="#191970" stroke="#191970" points="419.7402,-603.6484 428.3892,-597.5292 417.8119,-596.9192 419.7402,-603.6484"/>
</g>
<!-- Node57 -->
<g id="node33" class="node">
<title>Node57</title>
<g id="a_node33"><a xlink:href="classene_1_1views_1_1AbstractView.html#aa9bee221c279bc8a9dbada91184d8181" target="_top" xlink:title="ene.views.AbstractView.set\lCoreComponent">
<polygon fill="none" stroke="#000000" points="191,-98.5 191,-128.5 330,-128.5 330,-98.5 191,-98.5"/>
<text text-anchor="start" x="199" y="-116.5" font-family="Helvetica,sans-Serif" font-size="10.00" fill="#000000">ene.views.AbstractView.set</text>
<text text-anchor="middle" x="260.5" y="-105.5" font-family="Helvetica,sans-Serif" font-size="10.00" fill="#000000">CoreComponent</text>
</a>
</g>
</g>
<!-- Node25&#45;&gt;Node57 -->
<g id="edge50" class="edge">
<title>Node25&#45;&gt;Node57</title>
<path fill="none" stroke="#191970" d="M72.0853,-436.4339C83.9626,-379.8196 128.3503,-180.8331 174,-137.5 176.4302,-135.1932 179.0623,-133.1045 181.8452,-131.2137"/>
<polygon fill="#191970" stroke="#191970" points="183.718,-134.1733 190.5956,-126.1143 180.1934,-128.1254 183.718,-134.1733"/>
</g>
<!-- Node58 -->
<g id="node34" class="node">
<title>Node58</title>
<g id="a_node34"><a xlink:href="classene_1_1views_1_1gui_1_1partial_1_1AbstractTrackListView.html#a597363a2069558d6801c75be622b1988" target="_top" xlink:title="ene.views.gui.partial.Abstract\lTrackListView.setTable">
<polygon fill="none" stroke="#000000" points="187.5,-49.5 187.5,-79.5 333.5,-79.5 333.5,-49.5 187.5,-49.5"/>
<text text-anchor="start" x="195.5" y="-67.5" font-family="Helvetica,sans-Serif" font-size="10.00" fill="#000000">ene.views.gui.partial.Abstract</text>
<text text-anchor="middle" x="260.5" y="-56.5" font-family="Helvetica,sans-Serif" font-size="10.00" fill="#000000">TrackListView.setTable</text>
</a>
</g>
</g>
<!-- Node25&#45;&gt;Node58 -->
<g id="edge51" class="edge">
<title>Node25&#45;&gt;Node58</title>
<path fill="none" stroke="#191970" d="M71.3925,-436.2827C81.4709,-374.0245 122.3441,-139.5948 174,-88.5 175.6205,-86.8971 177.3381,-85.3991 179.1365,-83.9991"/>
<polygon fill="#191970" stroke="#191970" points="181.0833,-86.9078 187.4881,-78.4681 177.2182,-81.0716 181.0833,-86.9078"/>
</g>
<!-- Node59 -->
<g id="node35" class="node">
<title>Node59</title>
<g id="a_node35"><a xlink:href="classene_1_1views_1_1gui_1_1partial_1_1AbstractTrackListView.html#a7ba0c6e862c2ef6d4e999650b61ec695" target="_top" xlink:title="ene.views.gui.partial.Abstract\lTrackListView.setTableRowSorter">
<polygon fill="none" stroke="#000000" points="177.5,-.5 177.5,-30.5 343.5,-30.5 343.5,-.5 177.5,-.5"/>
<text text-anchor="start" x="185.5" y="-18.5" font-family="Helvetica,sans-Serif" font-size="10.00" fill="#000000">ene.views.gui.partial.Abstract</text>
<text text-anchor="middle" x="260.5" y="-7.5" font-family="Helvetica,sans-Serif" font-size="10.00" fill="#000000">TrackListView.setTableRowSorter</text>
</a>
</g>
</g>
<!-- Node25&#45;&gt;Node59 -->
<g id="edge52" class="edge">
<title>Node25&#45;&gt;Node59</title>
<path fill="none" stroke="#191970" d="M70.8569,-436.1151C79.3153,-368.496 116.2915,-98.4396 174,-39.5 174.9506,-38.5291 175.9368,-37.5965 176.9551,-36.7007"/>
<polygon fill="#191970" stroke="#191970" points="179.3562,-39.279 185.3309,-30.5295 175.204,-33.6435 179.3562,-39.279"/>
</g>
<!-- Node60 -->
<g id="node36" class="node">
<title>Node60</title>
<g id="a_node36"><a xlink:href="classene_1_1views_1_1gui_1_1partial_1_1LibraryView.html#a363a0a2db7ab4295ef38bb667038a6f8" target="_top" xlink:title="ene.views.gui.partial.Library\lView.update">
<polygon fill="none" stroke="#000000" points="191.5,-556.5 191.5,-586.5 329.5,-586.5 329.5,-556.5 191.5,-556.5"/>
<text text-anchor="start" x="199.5" y="-574.5" font-family="Helvetica,sans-Serif" font-size="10.00" fill="#000000">ene.views.gui.partial.Library</text>
<text text-anchor="middle" x="260.5" y="-563.5" font-family="Helvetica,sans-Serif" font-size="10.00" fill="#000000">View.update</text>
</a>
</g>
</g>
<!-- Node25&#45;&gt;Node60 -->
<g id="edge53" class="edge">
<title>Node25&#45;&gt;Node60</title>
<path fill="none" stroke="#191970" d="M82.9402,-466.5451C101.8759,-486.2033 137.5633,-520.5781 174,-541.5 181.3314,-545.7097 189.3503,-549.4652 197.4545,-552.7734"/>
<polygon fill="#191970" stroke="#191970" points="196.3818,-556.1111 206.9712,-556.4519 198.9056,-549.5818 196.3818,-556.1111"/>
</g>
<!-- Node27 -->
<g id="node3" class="node">
<title>Node27</title>
<g id="a_node3"><a xlink:href="classene_1_1controllers_1_1AbstractController.html#a9a5afba01d0004a64db4cb14c23e0bbd" target="_top" xlink:title="ene.controllers.Abstract\lController\&lt; PlaylistModel\l \&gt;::getModel">
<polygon fill="none" stroke="#000000" points="1081.5,-869 1081.5,-910 1207.5,-910 1207.5,-869 1081.5,-869"/>
<text text-anchor="start" x="1089.5" y="-898" font-family="Helvetica,sans-Serif" font-size="10.00" fill="#000000">ene.controllers.Abstract</text>
<text text-anchor="start" x="1089.5" y="-887" font-family="Helvetica,sans-Serif" font-size="10.00" fill="#000000">Controller&lt; PlaylistModel</text>
<text text-anchor="middle" x="1144.5" y="-876" font-family="Helvetica,sans-Serif" font-size="10.00" fill="#000000"> &gt;::getModel</text>
</a>
</g>
</g>
<!-- Node26&#45;&gt;Node27 -->
<g id="edge2" class="edge">
<title>Node26&#45;&gt;Node27</title>
<path fill="none" stroke="#191970" d="M270.0352,-723.7312C288.1686,-751.1565 330.5375,-808.2426 383,-832.5 413.9278,-846.8003 886.4108,-874.8994 1071.2056,-885.4067"/>
<polygon fill="#191970" stroke="#191970" points="1071.1909,-888.9114 1081.3731,-885.9835 1071.5874,-881.9226 1071.1909,-888.9114"/>
</g>
<!-- Node28 -->
<g id="node4" class="node">
<title>Node28</title>
<g id="a_node4"><a xlink:href="classene_1_1controllers_1_1PlaylistController.html#ad1d7aec30633c29764592d730354cb83" target="_top" xlink:title="ene.controllers.Playlist\lController.getPlaylistFilename">
<polygon fill="none" stroke="#000000" points="399,-704.5 399,-734.5 546,-734.5 546,-704.5 399,-704.5"/>
<text text-anchor="start" x="407" y="-722.5" font-family="Helvetica,sans-Serif" font-size="10.00" fill="#000000">ene.controllers.Playlist</text>
<text text-anchor="middle" x="472.5" y="-711.5" font-family="Helvetica,sans-Serif" font-size="10.00" fill="#000000">Controller.getPlaylistFilename</text>
</a>
</g>
</g>
<!-- Node26&#45;&gt;Node28 -->
<g id="edge3" class="edge">
<title>Node26&#45;&gt;Node28</title>
<path fill="none" stroke="#191970" d="M318.7103,-711.5203C340.2794,-712.6395 365.1874,-713.9319 388.5918,-715.1463"/>
<polygon fill="#191970" stroke="#191970" points="388.6996,-718.6565 398.8675,-715.6794 389.0624,-711.6659 388.6996,-718.6565"/>
</g>
<!-- Node29 -->
<g id="node5" class="node">
<title>Node29</title>
<g id="a_node5"><a xlink:href="classene_1_1controllers_1_1PlaylistController.html#ab949ed1ee47aec9ba039d92a36435809" target="_top" xlink:title="ene.controllers.Playlist\lController.saveToFile">
<polygon fill="none" stroke="#000000" points="414.5,-655.5 414.5,-685.5 530.5,-685.5 530.5,-655.5 414.5,-655.5"/>
<text text-anchor="start" x="422.5" y="-673.5" font-family="Helvetica,sans-Serif" font-size="10.00" fill="#000000">ene.controllers.Playlist</text>
<text text-anchor="middle" x="472.5" y="-662.5" font-family="Helvetica,sans-Serif" font-size="10.00" fill="#000000">Controller.saveToFile</text>
</a>
</g>
</g>
<!-- Node26&#45;&gt;Node29 -->
<g id="edge4" class="edge">
<title>Node26&#45;&gt;Node29</title>
<path fill="none" stroke="#191970" d="M318.7103,-698.0661C345.2391,-693.3109 376.8188,-687.6504 404.4393,-682.6996"/>
<polygon fill="#191970" stroke="#191970" points="405.1939,-686.1202 414.4195,-680.9107 403.9588,-679.23 405.1939,-686.1202"/>
</g>
<!-- Node29&#45;&gt;Node30 -->
<g id="edge5" class="edge">
<title>Node29&#45;&gt;Node30</title>
<path fill="none" stroke="#191970" d="M528.5167,-685.5709C539.6476,-688.7276 551.2228,-692.1257 562,-695.5 592.1761,-704.9479 625.6179,-716.521 652.3573,-726.0471"/>
<polygon fill="#191970" stroke="#191970" points="651.2923,-729.3833 661.8869,-729.4564 653.6503,-722.7924 651.2923,-729.3833"/>
</g>
<!-- Node31 -->
<g id="node7" class="node">
<title>Node31</title>
<g id="a_node7"><a xlink:href="classene_1_1models_1_1TrackModel.html#aab88fe151b093dba71ad9f9ab5c6959d" target="_top" xlink:title="ene.models.TrackModel.get\lFilename">
<polygon fill="none" stroke="#000000" points="634.5,-662.5 634.5,-692.5 771.5,-692.5 771.5,-662.5 634.5,-662.5"/>
<text text-anchor="start" x="642.5" y="-680.5" font-family="Helvetica,sans-Serif" font-size="10.00" fill="#000000">ene.models.TrackModel.get</text>
<text text-anchor="middle" x="703" y="-669.5" font-family="Helvetica,sans-Serif" font-size="10.00" fill="#000000">Filename</text>
</a>
</g>
</g>
<!-- Node29&#45;&gt;Node31 -->
<g id="edge6" class="edge">
<title>Node29&#45;&gt;Node31</title>
<path fill="none" stroke="#191970" d="M530.6649,-672.2664C558.9428,-673.1252 593.3548,-674.1702 623.9707,-675.1"/>
<polygon fill="#191970" stroke="#191970" points="624.092,-678.6052 634.1936,-675.4104 624.3045,-671.6084 624.092,-678.6052"/>
</g>
<!-- Node29&#45;&gt;Node32 -->
<g id="edge7" class="edge">
<title>Node29&#45;&gt;Node32</title>
<path fill="none" stroke="#191970" d="M530.6649,-659.9016C558.9428,-654.749 593.3548,-648.4787 623.9707,-642.9001"/>
<polygon fill="#191970" stroke="#191970" points="624.983,-646.2734 634.1936,-641.0374 623.7282,-639.3868 624.983,-646.2734"/>
</g>
<!-- Node34 -->
<g id="node10" class="node">
<title>Node34</title>
<g id="a_node10"><a xlink:href="classene_1_1controllers_1_1LibraryController.html#a6bc70daa48b96db79d5524113a49cd3e" target="_top" xlink:title="ene.controllers.LibraryController.add\lDirectoryContent">
<polygon fill="none" stroke="#000000" points="386,-967.5 386,-997.5 559,-997.5 559,-967.5 386,-967.5"/>
<text text-anchor="start" x="394" y="-985.5" font-family="Helvetica,sans-Serif" font-size="10.00" fill="#000000">ene.controllers.LibraryController.add</text>
<text text-anchor="middle" x="472.5" y="-974.5" font-family="Helvetica,sans-Serif" font-size="10.00" fill="#000000">DirectoryContent</text>
</a>
</g>
</g>
<!-- Node33&#45;&gt;Node34 -->
<g id="edge9" class="edge">
<title>Node33&#45;&gt;Node34</title>
<path fill="none" stroke="#191970" d="M301.6271,-943.0058C328.7987,-949.286 365.211,-957.7021 397.4405,-965.1513"/>
<polygon fill="#191970" stroke="#191970" points="396.7623,-968.5868 407.2936,-967.4287 398.3387,-961.7666 396.7623,-968.5868"/>
</g>
<!-- Node36 -->
<g id="node12" class="node">
<title>Node36</title>
<g id="a_node12"><a xlink:href="classene_1_1controllers_1_1LibraryController.html#a8ebea67eb61c84ee6a4825fa98fe870b" target="_top" xlink:title="ene.controllers.LibraryController.addFile">
<polygon fill="none" stroke="#000000" points="844,-973 844,-992 1033,-992 1033,-973 844,-973"/>
<text text-anchor="middle" x="938.5" y="-980" font-family="Helvetica,sans-Serif" font-size="10.00" fill="#000000">ene.controllers.LibraryController.addFile</text>
</a>
</g>
</g>
<!-- Node33&#45;&gt;Node36 -->
<g id="edge17" class="edge">
<title>Node33&#45;&gt;Node36</title>
<path fill="none" stroke="#191970" d="M271.6603,-943.1932C292.073,-960.2049 337.5234,-994.8303 383,-1007.5 565.3313,-1058.297 794.2085,-1016.623 891.3895,-994.3236"/>
<polygon fill="#191970" stroke="#191970" points="892.261,-997.7144 901.2043,-992.0339 890.6706,-990.8974 892.261,-997.7144"/>
</g>
<!-- Node40 -->
<g id="node16" class="node">
<title>Node40</title>
<g id="a_node16"><a xlink:href="classene_1_1controllers_1_1LibraryController.html#a510cf010821311fd17a441739179e99f" target="_top" xlink:title="ene.controllers.LibraryController.get\lDatabaseFilename">
<polygon fill="none" stroke="#000000" points="387,-918.5 387,-948.5 558,-948.5 558,-918.5 387,-918.5"/>
<text text-anchor="start" x="395" y="-936.5" font-family="Helvetica,sans-Serif" font-size="10.00" fill="#000000">ene.controllers.LibraryController.get</text>
<text text-anchor="middle" x="472.5" y="-925.5" font-family="Helvetica,sans-Serif" font-size="10.00" fill="#000000">DatabaseFilename</text>
</a>
</g>
</g>
<!-- Node33&#45;&gt;Node40 -->
<g id="edge18" class="edge">
<title>Node33&#45;&gt;Node40</title>
<path fill="none" stroke="#191970" d="M347.0343,-933.5C356.8064,-933.5 366.8071,-933.5 376.6886,-933.5"/>
<polygon fill="#191970" stroke="#191970" points="376.9285,-937.0001 386.9285,-933.5 376.9285,-930.0001 376.9285,-937.0001"/>
</g>
<!-- Node41 -->
<g id="node17" class="node">
<title>Node41</title>
<g id="a_node17"><a xlink:href="classene_1_1controllers_1_1LibraryController.html#aa40dceee9b0024082b71ab641a087c2e" target="_top" xlink:title="ene.controllers.LibraryController.save\lToFile">
<polygon fill="none" stroke="#000000" points="383,-792.5 383,-822.5 562,-822.5 562,-792.5 383,-792.5"/>
<text text-anchor="start" x="391" y="-810.5" font-family="Helvetica,sans-Serif" font-size="10.00" fill="#000000">ene.controllers.LibraryController.save</text>
<text text-anchor="middle" x="472.5" y="-799.5" font-family="Helvetica,sans-Serif" font-size="10.00" fill="#000000">ToFile</text>
</a>
</g>
</g>
<!-- Node33&#45;&gt;Node41 -->
<g id="edge19" class="edge">
<title>Node33&#45;&gt;Node41</title>
<path fill="none" stroke="#191970" d="M276.7833,-923.8222C311.2336,-903.347 392.125,-855.2701 438.4089,-827.7617"/>
<polygon fill="#191970" stroke="#191970" points="440.3722,-830.6664 447.1803,-822.5485 436.7957,-824.649 440.3722,-830.6664"/>
</g>
<!-- Node35 -->
<g id="node11" class="node">
<title>Node35</title>
<g id="a_node11"><a xlink:href="classene_1_1controllers_1_1LibraryController.html#a3a8b922c846a9b770b67f478ea0e5352" target="_top" xlink:title="ene.controllers.LibraryController.scan">
<polygon fill="none" stroke="#000000" points="613.5,-973 613.5,-992 792.5,-992 792.5,-973 613.5,-973"/>
<text text-anchor="middle" x="703" y="-980" font-family="Helvetica,sans-Serif" font-size="10.00" fill="#000000">ene.controllers.LibraryController.scan</text>
</a>
</g>
</g>
<!-- Node34&#45;&gt;Node35 -->
<g id="edge10" class="edge">
<title>Node34&#45;&gt;Node35</title>
<path fill="none" stroke="#191970" d="M559.3137,-982.5C573.6227,-982.5 588.5556,-982.5 603.1527,-982.5"/>
<polygon fill="#191970" stroke="#191970" points="603.193,-986.0001 613.193,-982.5 603.193,-979.0001 603.193,-986.0001"/>
</g>
<!-- Node35&#45;&gt;Node36 -->
<g id="edge11" class="edge">
<title>Node35&#45;&gt;Node36</title>
<path fill="none" stroke="#191970" d="M792.7043,-982.5C806.0663,-982.5 819.9399,-982.5 833.5811,-982.5"/>
<polygon fill="#191970" stroke="#191970" points="833.9549,-986.0001 843.9549,-982.5 833.9549,-979.0001 833.9549,-986.0001"/>
</g>
<!-- Node36&#45;&gt;Node27 -->
<g id="edge16" class="edge">
<title>Node36&#45;&gt;Node27</title>
<path fill="none" stroke="#191970" d="M959.7697,-972.8976C990.1291,-959.1917 1046.9279,-933.5496 1089.5636,-914.3014"/>
<polygon fill="#191970" stroke="#191970" points="1091.0299,-917.4796 1098.704,-910.1749 1088.1496,-911.0997 1091.0299,-917.4796"/>
</g>
<!-- Node37 -->
<g id="node13" class="node">
<title>Node37</title>
<g id="a_node13"><a xlink:href="classene_1_1models_1_1TrackModel.html#ab0db9bf0054a77ed2879695a379e3bd9" target="_top" xlink:title="ene.models.TrackModel.detect\lArtist">
<polygon fill="none" stroke="#000000" points="1069,-997.5 1069,-1027.5 1220,-1027.5 1220,-997.5 1069,-997.5"/>
<text text-anchor="start" x="1077" y="-1015.5" font-family="Helvetica,sans-Serif" font-size="10.00" fill="#000000">ene.models.TrackModel.detect</text>
<text text-anchor="middle" x="1144.5" y="-1004.5" font-family="Helvetica,sans-Serif" font-size="10.00" fill="#000000">Artist</text>
</a>
</g>
</g>
<!-- Node36&#45;&gt;Node37 -->
<g id="edge12" class="edge">
<title>Node36&#45;&gt;Node37</title>
<path fill="none" stroke="#191970" d="M1003.9627,-992.0334C1021.3584,-994.5668 1040.409,-997.3411 1058.7131,-1000.0068"/>
<polygon fill="#191970" stroke="#191970" points="1058.39,-1003.4966 1068.7901,-1001.4743 1059.3989,-996.5696 1058.39,-1003.4966"/>
</g>
<!-- Node39 -->
<g id="node15" class="node">
<title>Node39</title>
<g id="a_node15"><a xlink:href="classene_1_1models_1_1TrackModel.html#a860b368d4cb6d81e7504cbf979c0cad7" target="_top" xlink:title="ene.models.TrackModel.detect\lTitle">
<polygon fill="none" stroke="#000000" points="1069,-948.5 1069,-978.5 1220,-978.5 1220,-948.5 1069,-948.5"/>
<text text-anchor="start" x="1077" y="-966.5" font-family="Helvetica,sans-Serif" font-size="10.00" fill="#000000">ene.models.TrackModel.detect</text>
<text text-anchor="middle" x="1144.5" y="-955.5" font-family="Helvetica,sans-Serif" font-size="10.00" fill="#000000">Title</text>
</a>
</g>
</g>
<!-- Node36&#45;&gt;Node39 -->
<g id="edge14" class="edge">
<title>Node36&#45;&gt;Node39</title>
<path fill="none" stroke="#191970" d="M1033.0592,-973.7785C1041.5563,-972.9948 1050.1305,-972.204 1058.5485,-971.4276"/>
<polygon fill="#191970" stroke="#191970" points="1059.0871,-974.8928 1068.7233,-970.4891 1058.4441,-967.9224 1059.0871,-974.8928"/>
</g>
<!-- Node38 -->
<g id="node14" class="node">
<title>Node38</title>
<g id="a_node14"><a xlink:href="classene_1_1models_1_1TrackModel.html#a3bd9746678863a59cb9b7ec404f1f05e" target="_top" xlink:title="ene.models.TrackModel.cut\lFilenameFromPath">
<polygon fill="none" stroke="#000000" points="1256,-972.5 1256,-1002.5 1393,-1002.5 1393,-972.5 1256,-972.5"/>
<text text-anchor="start" x="1264" y="-990.5" font-family="Helvetica,sans-Serif" font-size="10.00" fill="#000000">ene.models.TrackModel.cut</text>
<text text-anchor="middle" x="1324.5" y="-979.5" font-family="Helvetica,sans-Serif" font-size="10.00" fill="#000000">FilenameFromPath</text>
</a>
</g>
</g>
<!-- Node37&#45;&gt;Node38 -->
<g id="edge13" class="edge">
<title>Node37&#45;&gt;Node38</title>
<path fill="none" stroke="#191970" d="M1220.0538,-1002.0064C1228.5593,-1000.8251 1237.2415,-999.6192 1245.7858,-998.4325"/>
<polygon fill="#191970" stroke="#191970" points="1246.3106,-1001.8933 1255.734,-997.0508 1245.3475,-994.9599 1246.3106,-1001.8933"/>
</g>
<!-- Node39&#45;&gt;Node38 -->
<g id="edge15" class="edge">
<title>Node39&#45;&gt;Node38</title>
<path fill="none" stroke="#191970" d="M1220.0538,-973.5738C1228.5593,-974.7079 1237.2415,-975.8655 1245.7858,-977.0048"/>
<polygon fill="#191970" stroke="#191970" points="1245.3591,-980.4788 1255.734,-978.3312 1246.2843,-973.5402 1245.3591,-980.4788"/>
</g>
<!-- Node41&#45;&gt;Node30 -->
<g id="edge21" class="edge">
<title>Node41&#45;&gt;Node30</title>
<path fill="none" stroke="#191970" d="M527.4176,-792.49C560.6251,-783.4138 603.1391,-771.7939 638.0154,-762.2615"/>
<polygon fill="#191970" stroke="#191970" points="639.3807,-765.5168 648.1041,-759.5041 637.5351,-758.7645 639.3807,-765.5168"/>
</g>
<!-- Node41&#45;&gt;Node31 -->
<g id="edge22" class="edge">
<title>Node41&#45;&gt;Node31</title>
<path fill="none" stroke="#191970" d="M494.0261,-792.397C528.4436,-768.2752 592.5685,-723.4491 598,-720.5 614.7244,-711.4192 633.7795,-703.0684 651.0245,-696.1898"/>
<polygon fill="#191970" stroke="#191970" points="652.3551,-699.4276 660.3924,-692.5245 649.8046,-692.9088 652.3551,-699.4276"/>
</g>
<!-- Node41&#45;&gt;Node32 -->
<g id="edge24" class="edge">
<title>Node41&#45;&gt;Node32</title>
<path fill="none" stroke="#191970" d="M502.5208,-792.3323C521.7515,-781.3139 546.0115,-764.8025 562,-744.5 588.9097,-710.3295 565.1268,-681.9799 598,-653.5 605.7813,-646.7586 615.0588,-641.7594 624.832,-638.065"/>
<polygon fill="#191970" stroke="#191970" points="625.9373,-641.3859 634.3214,-634.9085 623.7279,-634.7438 625.9373,-641.3859"/>
</g>
<!-- Node42 -->
<g id="node18" class="node">
<title>Node42</title>
<g id="a_node18"><a xlink:href="interfaceene_1_1interfaces_1_1DatabaseConnection.html#aabff21f4c6d43139690fc93cae679e46" target="_top" xlink:title="ene.interfaces.DatabaseConnection.execute">
<polygon fill="none" stroke="#000000" points="598,-798 598,-817 808,-817 808,-798 598,-798"/>
<text text-anchor="middle" x="703" y="-805" font-family="Helvetica,sans-Serif" font-size="10.00" fill="#000000">ene.interfaces.DatabaseConnection.execute</text>
</a>
</g>
</g>
<!-- Node41&#45;&gt;Node42 -->
<g id="edge20" class="edge">
<title>Node41&#45;&gt;Node42</title>
<path fill="none" stroke="#191970" d="M562.2773,-807.5C570.636,-807.5 579.1829,-807.5 587.7299,-807.5"/>
<polygon fill="#191970" stroke="#191970" points="587.7522,-811.0001 597.7521,-807.5 587.7521,-804.0001 587.7522,-811.0001"/>
</g>
<!-- Node41&#45;&gt;Node43 -->
<g id="edge23" class="edge">
<title>Node41&#45;&gt;Node43</title>
<path fill="none" stroke="#191970" d="M504.2449,-792.4865C523.6836,-781.7282 547.527,-765.449 562,-744.5 598.5182,-691.6415 552.1651,-649.5196 598,-604.5 605.4969,-597.1365 614.7478,-591.7993 624.6244,-587.9542"/>
<polygon fill="#191970" stroke="#191970" points="625.8923,-591.2203 634.2487,-584.7073 623.6546,-584.5876 625.8923,-591.2203"/>
</g>
<!-- Node44&#45;&gt;Node27 -->
<g id="edge27" class="edge">
<title>Node44&#45;&gt;Node27</title>
<path fill="none" stroke="#191970" d="M319.8606,-858.033C339.8674,-860.9002 362.3546,-863.7471 383,-865.5 634.7619,-886.8755 934.7992,-889.7139 1070.888,-889.7776"/>
<polygon fill="#191970" stroke="#191970" points="1071.1868,-893.2777 1081.1866,-889.7772 1071.1865,-886.2777 1071.1868,-893.2777"/>
</g>
<!-- Node44&#45;&gt;Node40 -->
<g id="edge26" class="edge">
<title>Node44&#45;&gt;Node40</title>
<path fill="none" stroke="#191970" d="M280.189,-858.0646C304.1809,-869.5499 346.0896,-889.0684 383,-903.5 393.2833,-907.5207 404.353,-911.5029 415.083,-915.1885"/>
<polygon fill="#191970" stroke="#191970" points="414.215,-918.5898 424.8093,-918.4825 416.4604,-911.9597 414.215,-918.5898"/>
</g>
<!-- Node44&#45;&gt;Node41 -->
<g id="edge28" class="edge">
<title>Node44&#45;&gt;Node41</title>
<path fill="none" stroke="#191970" d="M309.6699,-838.9907C331.9146,-834.6887 358.9001,-829.4698 384.452,-824.5281"/>
<polygon fill="#191970" stroke="#191970" points="385.3839,-827.9129 394.5374,-822.5777 384.0547,-821.0402 385.3839,-827.9129"/>
</g>
<!-- Node50 -->
<g id="node26" class="node">
<title>Node50</title>
<g id="a_node26"><a xlink:href="classene_1_1views_1_1gui_1_1partial_1_1AbstractTrackListView.html#aeea3d90287745704cda06893c94b9666" target="_top" xlink:title="ene.views.gui.partial.Abstract\lTrackListView.getTable">
<polygon fill="none" stroke="#000000" points="399.5,-392.5 399.5,-422.5 545.5,-422.5 545.5,-392.5 399.5,-392.5"/>
<text text-anchor="start" x="407.5" y="-410.5" font-family="Helvetica,sans-Serif" font-size="10.00" fill="#000000">ene.views.gui.partial.Abstract</text>
<text text-anchor="middle" x="472.5" y="-399.5" font-family="Helvetica,sans-Serif" font-size="10.00" fill="#000000">TrackListView.getTable</text>
</a>
</g>
</g>
<!-- Node49&#45;&gt;Node50 -->
<g id="edge36" class="edge">
<title>Node49&#45;&gt;Node50</title>
<path fill="none" stroke="#191970" d="M347.0343,-407.5C361.0382,-407.5 375.5115,-407.5 389.4307,-407.5"/>
<polygon fill="#191970" stroke="#191970" points="389.4536,-411.0001 399.4535,-407.5 389.4535,-404.0001 389.4536,-411.0001"/>
</g>
<!-- Node49&#45;&gt;Node51 -->
<g id="edge37" class="edge">
<title>Node49&#45;&gt;Node51</title>
<path fill="none" stroke="#191970" d="M329.0503,-392.3678C335.3867,-389.6063 341.4877,-386.3466 347,-382.5 369.1613,-367.0356 358.8893,-345.7044 383,-333.5 453.9802,-297.571 487.2245,-306.3392 562,-333.5 613.8832,-352.3456 660.0111,-399.575 684.4844,-428.2419"/>
<polygon fill="#191970" stroke="#191970" points="681.987,-430.7118 691.0836,-436.1435 687.3597,-426.2246 681.987,-430.7118"/>
</g>
<!-- Node52 -->
<g id="node28" class="node">
<title>Node52</title>
<g id="a_node28"><a xlink:href="classene_1_1views_1_1gui_1_1partial_1_1AbstractTrackListView.html#abb6fc383a050c8c908502156536ce518" target="_top" xlink:title="ene.views.gui.partial.Abstract\lTrackListView.getTableRowSorter">
<polygon fill="none" stroke="#000000" points="389.5,-343.5 389.5,-373.5 555.5,-373.5 555.5,-343.5 389.5,-343.5"/>
<text text-anchor="start" x="397.5" y="-361.5" font-family="Helvetica,sans-Serif" font-size="10.00" fill="#000000">ene.views.gui.partial.Abstract</text>
<text text-anchor="middle" x="472.5" y="-350.5" font-family="Helvetica,sans-Serif" font-size="10.00" fill="#000000">TrackListView.getTableRowSorter</text>
</a>
</g>
</g>
<!-- Node49&#45;&gt;Node52 -->
<g id="edge38" class="edge">
<title>Node49&#45;&gt;Node52</title>
<path fill="none" stroke="#191970" d="M325.5477,-392.4654C348.339,-387.1976 374.115,-381.2399 397.6442,-375.8016"/>
<polygon fill="#191970" stroke="#191970" points="398.6203,-379.1683 407.5753,-373.5062 397.0439,-372.3481 398.6203,-379.1683"/>
</g>
<!-- Node55 -->
<g id="node31" class="node">
<title>Node55</title>
<g id="a_node31"><a xlink:href="classene_1_1views_1_1gui_1_1partial_1_1AbstractTrackListView.html#a7f0f3e14d200a2a0a17afaf8131037c3" target="_top" xlink:title="ene.views.gui.partial.Abstract\lTrackListView.setColumnWidth">
<polygon fill="none" stroke="#000000" points="395,-147.5 395,-177.5 550,-177.5 550,-147.5 395,-147.5"/>
<text text-anchor="start" x="403" y="-165.5" font-family="Helvetica,sans-Serif" font-size="10.00" fill="#000000">ene.views.gui.partial.Abstract</text>
<text text-anchor="middle" x="472.5" y="-154.5" font-family="Helvetica,sans-Serif" font-size="10.00" fill="#000000">TrackListView.setColumnWidth</text>
</a>
</g>
</g>
<!-- Node54&#45;&gt;Node55 -->
<g id="edge43" class="edge">
<title>Node54&#45;&gt;Node55</title>
<path fill="none" stroke="#191970" d="M333.7552,-162.5C350.1088,-162.5 367.6154,-162.5 384.4949,-162.5"/>
<polygon fill="#191970" stroke="#191970" points="384.9078,-166.0001 394.9078,-162.5 384.9077,-159.0001 384.9078,-166.0001"/>
</g>
<!-- Node56&#45;&gt;Node30 -->
<g id="edge45" class="edge">
<title>Node56&#45;&gt;Node30</title>
<path fill="none" stroke="#191970" d="M498.8125,-597.5818C517.8078,-609.3091 543.2996,-626.8515 562,-646.5 582.3984,-667.9327 575.18,-683.6665 598,-702.5 609.565,-712.0447 623.5751,-719.6325 637.542,-725.5816"/>
<polygon fill="#191970" stroke="#191970" points="636.5896,-728.9705 647.1739,-729.4423 639.194,-722.473 636.5896,-728.9705"/>
</g>
<!-- Node56&#45;&gt;Node31 -->
<g id="edge46" class="edge">
<title>Node56&#45;&gt;Node31</title>
<path fill="none" stroke="#191970" d="M494.6439,-597.6695C518.9813,-613.6971 559.7204,-638.6625 598,-653.5 606.4507,-656.7756 615.4653,-659.6711 624.5273,-662.2131"/>
<polygon fill="#191970" stroke="#191970" points="623.7906,-665.6389 634.3548,-664.8339 625.5944,-658.8753 623.7906,-665.6389"/>
</g>
<!-- Node56&#45;&gt;Node32 -->
<g id="edge49" class="edge">
<title>Node56&#45;&gt;Node32</title>
<path fill="none" stroke="#191970" d="M541.6576,-596.3015C567.6441,-601.4875 597.3737,-607.4206 624.1744,-612.7691"/>
<polygon fill="#191970" stroke="#191970" points="623.797,-616.2627 634.2887,-614.7875 625.167,-609.3981 623.797,-616.2627"/>
</g>
<!-- Node56&#45;&gt;Node43 -->
<g id="edge47" class="edge">
<title>Node56&#45;&gt;Node43</title>
<path fill="none" stroke="#191970" d="M541.6576,-581.5999C567.6441,-581.2617 597.3737,-580.8747 624.1744,-580.5259"/>
<polygon fill="#191970" stroke="#191970" points="624.3351,-584.0242 634.2887,-580.3943 624.2439,-577.0248 624.3351,-584.0242"/>
</g>
<!-- Node56&#45;&gt;Node51 -->
<g id="edge48" class="edge">
<title>Node56&#45;&gt;Node51</title>
<path fill="none" stroke="#191970" d="M540.0073,-567.4433C547.5853,-564.8646 555.0657,-561.8974 562,-558.5 607.7655,-536.0774 653.4096,-497.801 679.8827,-473.6221"/>
<polygon fill="#191970" stroke="#191970" points="682.5024,-475.9665 687.462,-466.6041 677.7465,-470.8302 682.5024,-475.9665"/>
</g>
<!-- Node60&#45;&gt;Node47 -->
<g id="edge55" class="edge">
<title>Node60&#45;&gt;Node47</title>
<path fill="none" stroke="#191970" d="M329.6234,-559.11C351.6279,-555.1657 376.0545,-550.7874 398.3964,-546.7827"/>
<polygon fill="#191970" stroke="#191970" points="399.2732,-550.1814 408.4987,-544.9719 398.0381,-543.2912 399.2732,-550.1814"/>
</g>
<!-- Node60&#45;&gt;Node56 -->
<g id="edge54" class="edge">
<title>Node60&#45;&gt;Node56</title>
<path fill="none" stroke="#191970" d="M329.6234,-575.0866C349.9759,-576.1426 372.4005,-577.3062 393.3311,-578.3922"/>
<polygon fill="#191970" stroke="#191970" points="393.3026,-581.8953 403.4705,-578.9183 393.6653,-574.9047 393.3026,-581.8953"/>
</g>
</g>
</svg>
