<?xml version="1.0" encoding="UTF-8" standalone="no"?>
<!DOCTYPE svg PUBLIC "-//W3C//DTD SVG 1.1//EN"
 "http://www.w3.org/Graphics/SVG/1.1/DTD/svg11.dtd">
<!-- Generated by graphviz version 2.40.1 (20161225.0304)
 -->
<!-- Title: ene.models.AbstractModel.changed Pages: 1 -->
<svg width="793pt" height="427pt"
 viewBox="0.00 0.00 793.00 427.00" xmlns="http://www.w3.org/2000/svg" xmlns:xlink="http://www.w3.org/1999/xlink">
<g id="graph0" class="graph" transform="scale(1 1) rotate(0) translate(4 423)">
<title>ene.models.AbstractModel.changed</title>
<!-- Node4 -->
<g id="node1" class="node">
<title>Node4</title>
<polygon fill="#bfbfbf" stroke="#000000" points="0,-213.5 0,-232.5 173,-232.5 173,-213.5 0,-213.5"/>
<text text-anchor="middle" x="86.5" y="-220.5" font-family="Helvetica,sans-Serif" font-size="10.00" fill="#000000">ene.models.AbstractModel.changed</text>
</g>
<!-- Node5 -->
<g id="node2" class="node">
<title>Node5</title>
<g id="a_node2"><a xlink:href="classene_1_1models_1_1TrackListModel.html#a57554d49b1182a9138b871617ce57e9a" target="_top" xlink:title="ene.models.TrackListModel.add">
<polygon fill="none" stroke="#000000" points="217.5,-399.5 217.5,-418.5 372.5,-418.5 372.5,-399.5 217.5,-399.5"/>
<text text-anchor="middle" x="295" y="-406.5" font-family="Helvetica,sans-Serif" font-size="10.00" fill="#000000">ene.models.TrackListModel.add</text>
</a>
</g>
</g>
<!-- Node4&#45;&gt;Node5 -->
<g id="edge1" class="edge">
<title>Node4&#45;&gt;Node5</title>
<path fill="none" stroke="#191970" d="M95.6007,-242.0649C112.8336,-276.0889 153.5304,-347.234 209,-385 218.2255,-391.2811 229.0644,-395.9275 239.8794,-399.3619"/>
<polygon fill="#191970" stroke="#191970" points="98.5802,-240.1935 91.0155,-232.7755 92.3032,-243.2918 98.5802,-240.1935"/>
</g>
<!-- Node6 -->
<g id="node3" class="node">
<title>Node6</title>
<g id="a_node3"><a xlink:href="classene_1_1models_1_1PlaylistModel.html#afba0932567d4d21976e3c37c8d80b634" target="_top" xlink:title="ene.models.PlaylistModel.next\lTrack">
<polygon fill="none" stroke="#000000" points="426,-361 426,-391 576,-391 576,-361 426,-361"/>
<text text-anchor="start" x="434" y="-379" font-family="Helvetica,sans-Serif" font-size="10.00" fill="#000000">ene.models.PlaylistModel.next</text>
<text text-anchor="middle" x="501" y="-368" font-family="Helvetica,sans-Serif" font-size="10.00" fill="#000000">Track</text>
</a>
</g>
</g>
<!-- Node4&#45;&gt;Node6 -->
<g id="edge2" class="edge">
<title>Node4&#45;&gt;Node6</title>
<path fill="none" stroke="#191970" d="M97.626,-241.5319C116.4075,-270.8955 157.4458,-327.3109 209,-352 277.1259,-384.6253 364.4704,-387.4759 425.8132,-384.117"/>
<polygon fill="#191970" stroke="#191970" points="100.3822,-239.3365 92.1268,-232.6958 94.4391,-243.0352 100.3822,-239.3365"/>
</g>
<!-- Node8 -->
<g id="node5" class="node">
<title>Node8</title>
<g id="a_node5"><a xlink:href="classene_1_1models_1_1PlaylistModel.html#ab30573de71b566da79145210f94be294" target="_top" xlink:title="ene.models.PlaylistModel.previous\lTrack">
<polygon fill="none" stroke="#000000" points="417,-263 417,-293 585,-293 585,-263 417,-263"/>
<text text-anchor="start" x="425" y="-281" font-family="Helvetica,sans-Serif" font-size="10.00" fill="#000000">ene.models.PlaylistModel.previous</text>
<text text-anchor="middle" x="501" y="-270" font-family="Helvetica,sans-Serif" font-size="10.00" fill="#000000">Track</text>
</a>
</g>
</g>
<!-- Node4&#45;&gt;Node8 -->
<g id="edge4" class="edge">
<title>Node4&#45;&gt;Node8</title>
<path fill="none" stroke="#191970" d="M118.4747,-236.4043C142.8235,-245.9424 177.4216,-258.076 209,-264 278.212,-276.984 358.1759,-280.0061 416.9054,-280.0507"/>
<polygon fill="#191970" stroke="#191970" points="119.6139,-233.0905 109.029,-232.6328 117.0182,-239.5915 119.6139,-233.0905"/>
</g>
<!-- Node10 -->
<g id="node7" class="node">
<title>Node10</title>
<g id="a_node7"><a xlink:href="classene_1_1models_1_1TrackListModel.html#a51482a5f74dfadca48a06dd8888751cd" target="_top" xlink:title="ene.models.TrackListModel.remove">
<polygon fill="none" stroke="#000000" points="209,-235.5 209,-254.5 381,-254.5 381,-235.5 209,-235.5"/>
<text text-anchor="middle" x="295" y="-242.5" font-family="Helvetica,sans-Serif" font-size="10.00" fill="#000000">ene.models.TrackListModel.remove</text>
</a>
</g>
</g>
<!-- Node4&#45;&gt;Node10 -->
<g id="edge6" class="edge">
<title>Node4&#45;&gt;Node10</title>
<path fill="none" stroke="#191970" d="M183.1784,-233.2011C191.7931,-234.1101 200.4772,-235.0264 208.9937,-235.925"/>
<polygon fill="#191970" stroke="#191970" points="183.4235,-229.7076 173.1114,-232.1389 182.6889,-236.669 183.4235,-229.7076"/>
</g>
<!-- Node11 -->
<g id="node8" class="node">
<title>Node11</title>
<g id="a_node8"><a xlink:href="classene_1_1models_1_1TrackModel.html#a6e059ab76ba75be47de8d661e132f514" target="_top" xlink:title="ene.models.TrackModel.set\lArtist">
<polygon fill="none" stroke="#000000" points="226.5,-186 226.5,-216 363.5,-216 363.5,-186 226.5,-186"/>
<text text-anchor="start" x="234.5" y="-204" font-family="Helvetica,sans-Serif" font-size="10.00" fill="#000000">ene.models.TrackModel.set</text>
<text text-anchor="middle" x="295" y="-193" font-family="Helvetica,sans-Serif" font-size="10.00" fill="#000000">Artist</text>
</a>
</g>
</g>
<!-- Node4&#45;&gt;Node11 -->
<g id="edge7" class="edge">
<title>Node4&#45;&gt;Node11</title>
<path fill="none" stroke="#191970" d="M183.1784,-212.7989C197.786,-211.2576 212.593,-209.6952 226.4439,-208.2337"/>
<polygon fill="#191970" stroke="#191970" points="182.6889,-209.331 173.1114,-213.8611 183.4235,-216.2924 182.6889,-209.331"/>
</g>
<!-- Node13 -->
<g id="node10" class="node">
<title>Node13</title>
<g id="a_node10"><a xlink:href="classene_1_1models_1_1PlaylistModel.html#a7150506b3801f97a2e38955a585bbd07" target="_top" xlink:title="ene.models.PlaylistModel.set\lCurrentTrack">
<polygon fill="none" stroke="#000000" points="222.5,-312 222.5,-342 367.5,-342 367.5,-312 222.5,-312"/>
<text text-anchor="start" x="230.5" y="-330" font-family="Helvetica,sans-Serif" font-size="10.00" fill="#000000">ene.models.PlaylistModel.set</text>
<text text-anchor="middle" x="295" y="-319" font-family="Helvetica,sans-Serif" font-size="10.00" fill="#000000">CurrentTrack</text>
</a>
</g>
</g>
<!-- Node4&#45;&gt;Node13 -->
<g id="edge9" class="edge">
<title>Node4&#45;&gt;Node13</title>
<path fill="none" stroke="#191970" d="M108.6745,-238.3332C132.6323,-254.4301 172.3144,-279.7503 209,-297 220.7342,-302.5174 233.7747,-307.5783 246.0809,-311.9089"/>
<polygon fill="#191970" stroke="#191970" points="110.5414,-235.3704 100.3014,-232.6516 106.611,-241.1627 110.5414,-235.3704"/>
</g>
<!-- Node15 -->
<g id="node12" class="node">
<title>Node15</title>
<g id="a_node12"><a xlink:href="classene_1_1models_1_1TrackModel.html#adcb5ee61c35e73b04879409a43c4b753" target="_top" xlink:title="ene.models.TrackModel.set\lFilename">
<polygon fill="none" stroke="#000000" points="226.5,-137 226.5,-167 363.5,-167 363.5,-137 226.5,-137"/>
<text text-anchor="start" x="234.5" y="-155" font-family="Helvetica,sans-Serif" font-size="10.00" fill="#000000">ene.models.TrackModel.set</text>
<text text-anchor="middle" x="295" y="-144" font-family="Helvetica,sans-Serif" font-size="10.00" fill="#000000">Filename</text>
</a>
</g>
</g>
<!-- Node4&#45;&gt;Node15 -->
<g id="edge13" class="edge">
<title>Node4&#45;&gt;Node15</title>
<path fill="none" stroke="#191970" d="M119.7882,-209.7138C144.287,-200.1286 178.4966,-187.1444 209,-177 219.1803,-173.6144 230.1205,-170.2376 240.6713,-167.1109"/>
<polygon fill="#191970" stroke="#191970" points="118.2747,-206.5481 110.2501,-213.4658 120.8373,-213.0622 118.2747,-206.5481"/>
</g>
<!-- Node16 -->
<g id="node13" class="node">
<title>Node16</title>
<g id="a_node13"><a xlink:href="classene_1_1models_1_1TrackModel.html#acfe29ae2331320c5c60824a1bb4e1ba7" target="_top" xlink:title="ene.models.TrackModel.set\lGenre">
<polygon fill="none" stroke="#000000" points="226.5,-88 226.5,-118 363.5,-118 363.5,-88 226.5,-88"/>
<text text-anchor="start" x="234.5" y="-106" font-family="Helvetica,sans-Serif" font-size="10.00" fill="#000000">ene.models.TrackModel.set</text>
<text text-anchor="middle" x="295" y="-95" font-family="Helvetica,sans-Serif" font-size="10.00" fill="#000000">Genre</text>
</a>
</g>
</g>
<!-- Node4&#45;&gt;Node16 -->
<g id="edge15" class="edge">
<title>Node4&#45;&gt;Node16</title>
<path fill="none" stroke="#191970" d="M103.4378,-206.4281C125.8352,-185.3713 167.3543,-149.2209 209,-128 216.481,-124.188 224.6325,-120.8718 232.8388,-118.0119"/>
<polygon fill="#191970" stroke="#191970" points="100.902,-204.0101 96.0864,-213.4474 105.7361,-209.0729 100.902,-204.0101"/>
</g>
<!-- Node17 -->
<g id="node14" class="node">
<title>Node17</title>
<g id="a_node14"><a xlink:href="classene_1_1models_1_1TrackModel.html#a1e8a6872b5dcf826ba463a663a8249f1" target="_top" xlink:title="ene.models.TrackModel.set\lTitle">
<polygon fill="none" stroke="#000000" points="226.5,-39 226.5,-69 363.5,-69 363.5,-39 226.5,-39"/>
<text text-anchor="start" x="234.5" y="-57" font-family="Helvetica,sans-Serif" font-size="10.00" fill="#000000">ene.models.TrackModel.set</text>
<text text-anchor="middle" x="295" y="-46" font-family="Helvetica,sans-Serif" font-size="10.00" fill="#000000">Title</text>
</a>
</g>
</g>
<!-- Node4&#45;&gt;Node17 -->
<g id="edge17" class="edge">
<title>Node4&#45;&gt;Node17</title>
<path fill="none" stroke="#191970" d="M97.1627,-204.2258C115.7764,-173.1742 157.2015,-111.2545 209,-78 214.3481,-74.5665 220.1891,-71.6172 226.2279,-69.0851"/>
<polygon fill="#191970" stroke="#191970" points="93.9711,-202.7497 91.9365,-213.1473 100.0111,-206.2878 93.9711,-202.7497"/>
</g>
<!-- Node18 -->
<g id="node15" class="node">
<title>Node18</title>
<g id="a_node15"><a xlink:href="classene_1_1models_1_1PlayerModel.html#a108968d6fd2beb7e322bba50028d32b1" target="_top" xlink:title="ene.models.PlayerModel.update">
<polygon fill="none" stroke="#000000" points="217,-.5 217,-19.5 373,-19.5 373,-.5 217,-.5"/>
<text text-anchor="middle" x="295" y="-7.5" font-family="Helvetica,sans-Serif" font-size="10.00" fill="#000000">ene.models.PlayerModel.update</text>
</a>
</g>
</g>
<!-- Node4&#45;&gt;Node18 -->
<g id="edge19" class="edge">
<title>Node4&#45;&gt;Node18</title>
<path fill="none" stroke="#191970" d="M92.802,-203.9913C106.885,-164.6256 144.8125,-74.1018 209,-29 214.5048,-25.132 220.6578,-22.0324 227.0737,-19.5512"/>
<polygon fill="#191970" stroke="#191970" points="89.49,-202.8596 89.5278,-213.4544 96.1053,-205.1485 89.49,-202.8596"/>
</g>
<!-- Node7 -->
<g id="node4" class="node">
<title>Node7</title>
<g id="a_node4"><a xlink:href="classene_1_1models_1_1PlayerModel.html#a384fd9a2e98fc581e8221659257a8dd4" target="_top" xlink:title="ene.models.PlayerModel.next">
<polygon fill="none" stroke="#000000" points="630,-366.5 630,-385.5 776,-385.5 776,-366.5 630,-366.5"/>
<text text-anchor="middle" x="703" y="-373.5" font-family="Helvetica,sans-Serif" font-size="10.00" fill="#000000">ene.models.PlayerModel.next</text>
</a>
</g>
</g>
<!-- Node6&#45;&gt;Node7 -->
<g id="edge3" class="edge">
<title>Node6&#45;&gt;Node7</title>
<path fill="none" stroke="#191970" d="M586.58,-376C600.9382,-376 615.7222,-376 629.7342,-376"/>
<polygon fill="#191970" stroke="#191970" points="586.2174,-372.5001 576.2173,-376 586.2173,-379.5001 586.2174,-372.5001"/>
</g>
<!-- Node9 -->
<g id="node6" class="node">
<title>Node9</title>
<g id="a_node6"><a xlink:href="classene_1_1models_1_1PlayerModel.html#a7242e20d537405f031ec8d18e7faf8fc" target="_top" xlink:title="ene.models.PlayerModel.previous">
<polygon fill="none" stroke="#000000" points="621,-268.5 621,-287.5 785,-287.5 785,-268.5 621,-268.5"/>
<text text-anchor="middle" x="703" y="-275.5" font-family="Helvetica,sans-Serif" font-size="10.00" fill="#000000">ene.models.PlayerModel.previous</text>
</a>
</g>
</g>
<!-- Node8&#45;&gt;Node9 -->
<g id="edge5" class="edge">
<title>Node8&#45;&gt;Node9</title>
<path fill="none" stroke="#191970" d="M595.2193,-278C603.7896,-278 612.4253,-278 620.8781,-278"/>
<polygon fill="#191970" stroke="#191970" points="595.2035,-274.5001 585.2035,-278 595.2034,-281.5001 595.2035,-274.5001"/>
</g>
<!-- Node12 -->
<g id="node9" class="node">
<title>Node12</title>
<g id="a_node9"><a xlink:href="classene_1_1models_1_1TrackModel.html#abcdd0235436de2871b905818aaff4873" target="_top" xlink:title="ene.models.TrackModel.Track\lModel">
<polygon fill="none" stroke="#000000" points="426.5,-113 426.5,-143 575.5,-143 575.5,-113 426.5,-113"/>
<text text-anchor="start" x="434.5" y="-131" font-family="Helvetica,sans-Serif" font-size="10.00" fill="#000000">ene.models.TrackModel.Track</text>
<text text-anchor="middle" x="501" y="-120" font-family="Helvetica,sans-Serif" font-size="10.00" fill="#000000">Model</text>
</a>
</g>
</g>
<!-- Node11&#45;&gt;Node12 -->
<g id="edge8" class="edge">
<title>Node11&#45;&gt;Node12</title>
<path fill="none" stroke="#191970" d="M362.5106,-182.962C368.7906,-181.0432 375.0331,-179.0432 381,-177 410.4862,-166.9033 443.1912,-153.3893 467.0015,-143.111"/>
<polygon fill="#191970" stroke="#191970" points="361.2277,-179.6923 352.6457,-185.9052 363.229,-186.4001 361.2277,-179.6923"/>
</g>
<!-- Node13&#45;&gt;Node6 -->
<g id="edge11" class="edge">
<title>Node13&#45;&gt;Node6</title>
<path fill="none" stroke="#191970" d="M368.1672,-344.4038C390.9554,-349.8243 415.8758,-355.752 437.9128,-360.9938"/>
<polygon fill="#191970" stroke="#191970" points="368.7453,-340.9438 358.2068,-342.0346 367.1254,-347.7538 368.7453,-340.9438"/>
</g>
<!-- Node13&#45;&gt;Node8 -->
<g id="edge10" class="edge">
<title>Node13&#45;&gt;Node8</title>
<path fill="none" stroke="#191970" d="M368.1672,-309.5962C390.9554,-304.1757 415.8758,-298.248 437.9128,-293.0062"/>
<polygon fill="#191970" stroke="#191970" points="367.1254,-306.2462 358.2068,-311.9654 368.7453,-313.0562 367.1254,-306.2462"/>
</g>
<!-- Node14 -->
<g id="node11" class="node">
<title>Node14</title>
<g id="a_node11"><a xlink:href="classene_1_1views_1_1gui_1_1partial_1_1PlaylistView.html#a108f11521a24d840a4aeb31190c0a34e" target="_top" xlink:title="ene.views.gui.partial.Playlist\lView.mousePressed">
<polygon fill="none" stroke="#000000" points="430.5,-312 430.5,-342 571.5,-342 571.5,-312 430.5,-312"/>
<text text-anchor="start" x="438.5" y="-330" font-family="Helvetica,sans-Serif" font-size="10.00" fill="#000000">ene.views.gui.partial.Playlist</text>
<text text-anchor="middle" x="501" y="-319" font-family="Helvetica,sans-Serif" font-size="10.00" fill="#000000">View.mousePressed</text>
</a>
</g>
</g>
<!-- Node13&#45;&gt;Node14 -->
<g id="edge12" class="edge">
<title>Node13&#45;&gt;Node14</title>
<path fill="none" stroke="#191970" d="M377.7871,-327C395.2267,-327 413.4711,-327 430.4127,-327"/>
<polygon fill="#191970" stroke="#191970" points="377.6279,-323.5001 367.6279,-327 377.6279,-330.5001 377.6279,-323.5001"/>
</g>
<!-- Node15&#45;&gt;Node12 -->
<g id="edge14" class="edge">
<title>Node15&#45;&gt;Node12</title>
<path fill="none" stroke="#191970" d="M373.6474,-142.8372C390.9382,-140.8227 409.2002,-138.6951 426.3289,-136.6995"/>
<polygon fill="#191970" stroke="#191970" points="373.1228,-139.3746 363.595,-144.0083 373.9329,-146.3275 373.1228,-139.3746"/>
</g>
<!-- Node16&#45;&gt;Node12 -->
<g id="edge16" class="edge">
<title>Node16&#45;&gt;Node12</title>
<path fill="none" stroke="#191970" d="M373.6474,-112.5446C390.9382,-114.643 409.2002,-116.8592 426.3289,-118.938"/>
<polygon fill="#191970" stroke="#191970" points="373.9439,-109.055 363.595,-111.3246 373.1005,-116.004 373.9439,-109.055"/>
</g>
<!-- Node17&#45;&gt;Node12 -->
<g id="edge18" class="edge">
<title>Node17&#45;&gt;Node12</title>
<path fill="none" stroke="#191970" d="M362.5262,-71.9929C368.8029,-73.9211 375.0404,-75.9356 381,-78 410.9632,-88.3794 444.1826,-102.4264 468.0587,-112.9888"/>
<polygon fill="#191970" stroke="#191970" points="363.2487,-68.5558 352.6649,-69.039 361.24,-75.2614 363.2487,-68.5558"/>
</g>
</g>
</svg>
