<?xml version="1.0" encoding="UTF-8" standalone="no"?>
<!DOCTYPE svg PUBLIC "-//W3C//DTD SVG 1.1//EN"
 "http://www.w3.org/Graphics/SVG/1.1/DTD/svg11.dtd">
<!-- Generated by graphviz version 2.40.1 (20161225.0304)
 -->
<!-- Title: ene.views.gui.partial.PlaylistView.update Pages: 1 -->
<svg width="716pt" height="382pt"
 viewBox="0.00 0.00 716.00 382.00" xmlns="http://www.w3.org/2000/svg" xmlns:xlink="http://www.w3.org/1999/xlink">
<g id="graph0" class="graph" transform="scale(1 1) rotate(0) translate(4 378)">
<title>ene.views.gui.partial.PlaylistView.update</title>
<!-- Node70 -->
<g id="node1" class="node">
<title>Node70</title>
<polygon fill="#bfbfbf" stroke="#000000" points="0,-218.5 0,-248.5 141,-248.5 141,-218.5 0,-218.5"/>
<text text-anchor="start" x="8" y="-236.5" font-family="Helvetica,sans-Serif" font-size="10.00" fill="#000000">ene.views.gui.partial.Playlist</text>
<text text-anchor="middle" x="70.5" y="-225.5" font-family="Helvetica,sans-Serif" font-size="10.00" fill="#000000">View.update</text>
</g>
<!-- Node71 -->
<g id="node2" class="node">
<title>Node71</title>
<g id="a_node2"><a xlink:href="classene_1_1views_1_1AbstractPartialView.html#afb90f9e02eea94a2fb276d711a67ee36" target="_top" xlink:title="ene.views.AbstractPartial\lView.getModel">
<polygon fill="none" stroke="#000000" points="367,-343.5 367,-373.5 495,-373.5 495,-343.5 367,-343.5"/>
<text text-anchor="start" x="375" y="-361.5" font-family="Helvetica,sans-Serif" font-size="10.00" fill="#000000">ene.views.AbstractPartial</text>
<text text-anchor="middle" x="431" y="-350.5" font-family="Helvetica,sans-Serif" font-size="10.00" fill="#000000">View.getModel</text>
</a>
</g>
</g>
<!-- Node70&#45;&gt;Node71 -->
<g id="edge1" class="edge">
<title>Node70&#45;&gt;Node71</title>
<path fill="none" stroke="#191970" d="M111.1667,-248.5668C166.0609,-268.7719 267.0215,-305.4644 354,-334.5 359.8399,-336.4495 365.9451,-338.4373 372.0523,-340.3928"/>
<polygon fill="#191970" stroke="#191970" points="371.0228,-343.738 381.6132,-343.4288 373.1415,-337.0663 371.0228,-343.738"/>
</g>
<!-- Node72 -->
<g id="node3" class="node">
<title>Node72</title>
<g id="a_node3"><a xlink:href="classene_1_1views_1_1gui_1_1partial_1_1PlaylistView.html#aab891c82686652a49db41a3e1bc1f3b9" target="_top" xlink:title="ene.views.gui.partial.Playlist\lView.loadContent">
<polygon fill="none" stroke="#000000" points="177,-196.5 177,-226.5 318,-226.5 318,-196.5 177,-196.5"/>
<text text-anchor="start" x="185" y="-214.5" font-family="Helvetica,sans-Serif" font-size="10.00" fill="#000000">ene.views.gui.partial.Playlist</text>
<text text-anchor="middle" x="247.5" y="-203.5" font-family="Helvetica,sans-Serif" font-size="10.00" fill="#000000">View.loadContent</text>
</a>
</g>
</g>
<!-- Node70&#45;&gt;Node72 -->
<g id="edge2" class="edge">
<title>Node70&#45;&gt;Node72</title>
<path fill="none" stroke="#191970" d="M141.2182,-224.7102C149.6618,-223.6607 158.3306,-222.5832 166.8998,-221.5181"/>
<polygon fill="#191970" stroke="#191970" points="167.4023,-224.9827 176.8942,-220.2759 166.5388,-218.0361 167.4023,-224.9827"/>
</g>
<!-- Node72&#45;&gt;Node71 -->
<g id="edge9" class="edge">
<title>Node72&#45;&gt;Node71</title>
<path fill="none" stroke="#191970" d="M260.788,-226.6976C274.9864,-242.9528 298.1364,-269.5027 318,-292.5 334.0706,-311.1059 333.4643,-320.9822 354,-334.5 356.4123,-336.0879 358.9357,-337.5757 361.5366,-338.9693"/>
<polygon fill="#191970" stroke="#191970" points="360.1018,-342.163 370.6297,-343.3526 363.1415,-335.8574 360.1018,-342.163"/>
</g>
<!-- Node73 -->
<g id="node4" class="node">
<title>Node73</title>
<g id="a_node4"><a xlink:href="classene_1_1models_1_1TrackModel.html#a04afba3cc5098c28ebd394fb7ac920ba" target="_top" xlink:title="ene.models.TrackModel.get\lArtist">
<polygon fill="none" stroke="#000000" points="362.5,-294.5 362.5,-324.5 499.5,-324.5 499.5,-294.5 362.5,-294.5"/>
<text text-anchor="start" x="370.5" y="-312.5" font-family="Helvetica,sans-Serif" font-size="10.00" fill="#000000">ene.models.TrackModel.get</text>
<text text-anchor="middle" x="431" y="-301.5" font-family="Helvetica,sans-Serif" font-size="10.00" fill="#000000">Artist</text>
</a>
</g>
</g>
<!-- Node72&#45;&gt;Node73 -->
<g id="edge3" class="edge">
<title>Node72&#45;&gt;Node73</title>
<path fill="none" stroke="#191970" d="M266.0981,-226.7171C286.5857,-242.8715 321.0168,-268.2646 354,-284.5 358.5337,-286.7316 363.3127,-288.8296 368.1787,-290.7873"/>
<polygon fill="#191970" stroke="#191970" points="367.011,-294.0878 377.6019,-294.3776 369.5034,-287.5465 367.011,-294.0878"/>
</g>
<!-- Node74 -->
<g id="node5" class="node">
<title>Node74</title>
<g id="a_node5"><a xlink:href="classene_1_1models_1_1PlaylistModel.html#ad63fd499a74248dc9dadad29b9882fd2" target="_top" xlink:title="ene.models.PlaylistModel.get\lCurrentTrack">
<polygon fill="none" stroke="#000000" points="358.5,-245.5 358.5,-275.5 503.5,-275.5 503.5,-245.5 358.5,-245.5"/>
<text text-anchor="start" x="366.5" y="-263.5" font-family="Helvetica,sans-Serif" font-size="10.00" fill="#000000">ene.models.PlaylistModel.get</text>
<text text-anchor="middle" x="431" y="-252.5" font-family="Helvetica,sans-Serif" font-size="10.00" fill="#000000">CurrentTrack</text>
</a>
</g>
</g>
<!-- Node72&#45;&gt;Node74 -->
<g id="edge4" class="edge">
<title>Node72&#45;&gt;Node74</title>
<path fill="none" stroke="#191970" d="M303.8031,-226.5346C323.1781,-231.7083 345.0453,-237.5475 365.1144,-242.9066"/>
<polygon fill="#191970" stroke="#191970" points="364.2389,-246.2954 374.8034,-245.4938 366.0449,-239.5323 364.2389,-246.2954"/>
</g>
<!-- Node77 -->
<g id="node8" class="node">
<title>Node77</title>
<g id="a_node8"><a xlink:href="classene_1_1models_1_1TrackModel.html#aab88fe151b093dba71ad9f9ab5c6959d" target="_top" xlink:title="ene.models.TrackModel.get\lFilename">
<polygon fill="none" stroke="#000000" points="362.5,-196.5 362.5,-226.5 499.5,-226.5 499.5,-196.5 362.5,-196.5"/>
<text text-anchor="start" x="370.5" y="-214.5" font-family="Helvetica,sans-Serif" font-size="10.00" fill="#000000">ene.models.TrackModel.get</text>
<text text-anchor="middle" x="431" y="-203.5" font-family="Helvetica,sans-Serif" font-size="10.00" fill="#000000">Filename</text>
</a>
</g>
</g>
<!-- Node72&#45;&gt;Node77 -->
<g id="edge7" class="edge">
<title>Node72&#45;&gt;Node77</title>
<path fill="none" stroke="#191970" d="M318.1834,-211.5C329.3145,-211.5 340.8829,-211.5 352.1841,-211.5"/>
<polygon fill="#191970" stroke="#191970" points="352.4676,-215.0001 362.4675,-211.5 352.4675,-208.0001 352.4676,-215.0001"/>
</g>
<!-- Node78 -->
<g id="node9" class="node">
<title>Node78</title>
<g id="a_node9"><a xlink:href="classene_1_1models_1_1PlaylistModel.html#af9e600b621b1b55d22812a70302ff23e" target="_top" xlink:title="ene.models.PlaylistModel.get\lLastAccess">
<polygon fill="none" stroke="#000000" points="358.5,-147.5 358.5,-177.5 503.5,-177.5 503.5,-147.5 358.5,-147.5"/>
<text text-anchor="start" x="366.5" y="-165.5" font-family="Helvetica,sans-Serif" font-size="10.00" fill="#000000">ene.models.PlaylistModel.get</text>
<text text-anchor="middle" x="431" y="-154.5" font-family="Helvetica,sans-Serif" font-size="10.00" fill="#000000">LastAccess</text>
</a>
</g>
</g>
<!-- Node72&#45;&gt;Node78 -->
<g id="edge8" class="edge">
<title>Node72&#45;&gt;Node78</title>
<path fill="none" stroke="#191970" d="M303.8031,-196.4654C323.1781,-191.2917 345.0453,-185.4525 365.1144,-180.0934"/>
<polygon fill="#191970" stroke="#191970" points="366.0449,-183.4677 374.8034,-177.5062 364.2389,-176.7046 366.0449,-183.4677"/>
</g>
<!-- Node79 -->
<g id="node10" class="node">
<title>Node79</title>
<g id="a_node10"><a xlink:href="interfaceene_1_1interfaces_1_1Localization.html#ae7d5c65647a8bd1ca0c27b3279b0751c" target="_top" xlink:title="ene.interfaces.Localization.get\lString">
<polygon fill="none" stroke="#000000" points="356.5,-98.5 356.5,-128.5 505.5,-128.5 505.5,-98.5 356.5,-98.5"/>
<text text-anchor="start" x="364.5" y="-116.5" font-family="Helvetica,sans-Serif" font-size="10.00" fill="#000000">ene.interfaces.Localization.get</text>
<text text-anchor="middle" x="431" y="-105.5" font-family="Helvetica,sans-Serif" font-size="10.00" fill="#000000">String</text>
</a>
</g>
</g>
<!-- Node72&#45;&gt;Node79 -->
<g id="edge10" class="edge">
<title>Node72&#45;&gt;Node79</title>
<path fill="none" stroke="#191970" d="M265.6527,-196.281C286.0303,-179.8406 320.6252,-153.8157 354,-137.5 357.8211,-135.632 361.8194,-133.8694 365.8992,-132.2136"/>
<polygon fill="#191970" stroke="#191970" points="367.4248,-135.3777 375.5212,-128.544 364.9305,-128.8372 367.4248,-135.3777"/>
</g>
<!-- Node80 -->
<g id="node11" class="node">
<title>Node80</title>
<g id="a_node11"><a xlink:href="classene_1_1views_1_1gui_1_1partial_1_1AbstractTrackListView.html#a709dd0b919d5e537076fe18ad992f25f" target="_top" xlink:title="ene.views.gui.partial.Abstract\lTrackListView.getTableContent">
<polygon fill="none" stroke="#000000" points="354,-49.5 354,-79.5 508,-79.5 508,-49.5 354,-49.5"/>
<text text-anchor="start" x="362" y="-67.5" font-family="Helvetica,sans-Serif" font-size="10.00" fill="#000000">ene.views.gui.partial.Abstract</text>
<text text-anchor="middle" x="431" y="-56.5" font-family="Helvetica,sans-Serif" font-size="10.00" fill="#000000">TrackListView.getTableContent</text>
</a>
</g>
</g>
<!-- Node72&#45;&gt;Node80 -->
<g id="edge11" class="edge">
<title>Node72&#45;&gt;Node80</title>
<path fill="none" stroke="#191970" d="M256.6466,-196.2318C272.9609,-170.287 309.571,-117.5867 354,-88.5 356.5535,-86.8283 359.2304,-85.2672 361.9912,-83.8101"/>
<polygon fill="#191970" stroke="#191970" points="363.519,-86.9592 371.0452,-79.5021 360.5114,-80.6382 363.519,-86.9592"/>
</g>
<!-- Node81 -->
<g id="node12" class="node">
<title>Node81</title>
<g id="a_node12"><a xlink:href="classene_1_1models_1_1TrackModel.html#a5bac0e2b6c87c93eef2802d9d10bf3c1" target="_top" xlink:title="ene.models.TrackModel.get\lTitle">
<polygon fill="none" stroke="#000000" points="362.5,-.5 362.5,-30.5 499.5,-30.5 499.5,-.5 362.5,-.5"/>
<text text-anchor="start" x="370.5" y="-18.5" font-family="Helvetica,sans-Serif" font-size="10.00" fill="#000000">ene.models.TrackModel.get</text>
<text text-anchor="middle" x="431" y="-7.5" font-family="Helvetica,sans-Serif" font-size="10.00" fill="#000000">Title</text>
</a>
</g>
</g>
<!-- Node72&#45;&gt;Node81 -->
<g id="edge12" class="edge">
<title>Node72&#45;&gt;Node81</title>
<path fill="none" stroke="#191970" d="M252.6796,-196.3357C264.8749,-162.9011 298.6151,-82.4195 354,-39.5 355.7986,-38.1062 357.679,-36.7927 359.6238,-35.5549"/>
<polygon fill="#191970" stroke="#191970" points="361.4803,-38.527 368.5076,-30.598 358.0696,-32.4142 361.4803,-38.527"/>
</g>
<!-- Node75 -->
<g id="node6" class="node">
<title>Node75</title>
<g id="a_node6"><a xlink:href="classene_1_1models_1_1TrackListModel.html#a77a78d6a93e67e544d83bf5f4856d121" target="_top" xlink:title="ene.models.TrackListModel.getAll">
<polygon fill="none" stroke="#000000" points="544,-273 544,-292 708,-292 708,-273 544,-273"/>
<text text-anchor="middle" x="626" y="-280" font-family="Helvetica,sans-Serif" font-size="10.00" fill="#000000">ene.models.TrackListModel.getAll</text>
</a>
</g>
</g>
<!-- Node74&#45;&gt;Node75 -->
<g id="edge5" class="edge">
<title>Node74&#45;&gt;Node75</title>
<path fill="none" stroke="#191970" d="M503.6108,-268.692C513.4375,-269.8006 523.6258,-270.9501 533.7387,-272.091"/>
<polygon fill="#191970" stroke="#191970" points="533.4809,-275.5841 543.8102,-273.2273 534.2657,-268.6282 533.4809,-275.5841"/>
</g>
<!-- Node76 -->
<g id="node7" class="node">
<title>Node76</title>
<g id="a_node7"><a xlink:href="classene_1_1models_1_1PlaylistModel.html#adf17aa2e0d9900d3c620035dbc9641bc" target="_top" xlink:title="ene.models.PlaylistModel.update\lLastAccess">
<polygon fill="none" stroke="#000000" points="545.5,-223.5 545.5,-253.5 706.5,-253.5 706.5,-223.5 545.5,-223.5"/>
<text text-anchor="start" x="553.5" y="-241.5" font-family="Helvetica,sans-Serif" font-size="10.00" fill="#000000">ene.models.PlaylistModel.update</text>
<text text-anchor="middle" x="626" y="-230.5" font-family="Helvetica,sans-Serif" font-size="10.00" fill="#000000">LastAccess</text>
</a>
</g>
</g>
<!-- Node74&#45;&gt;Node76 -->
<g id="edge6" class="edge">
<title>Node74&#45;&gt;Node76</title>
<path fill="none" stroke="#191970" d="M503.6108,-252.308C513.9502,-251.1415 524.6898,-249.9299 535.3207,-248.7305"/>
<polygon fill="#191970" stroke="#191970" points="535.9188,-252.1853 545.4634,-247.5862 535.134,-245.2294 535.9188,-252.1853"/>
</g>
</g>
</svg>
