<?xml version="1.0" encoding="UTF-8" standalone="no"?>
<!DOCTYPE svg PUBLIC "-//W3C//DTD SVG 1.1//EN"
 "http://www.w3.org/Graphics/SVG/1.1/DTD/svg11.dtd">
<!-- Generated by graphviz version 2.40.1 (20161225.0304)
 -->
<!-- Title: ene.models.PlaylistModel.getCurrentTrack Pages: 1 -->
<svg width="557pt" height="215pt"
 viewBox="0.00 0.00 557.00 215.00" xmlns="http://www.w3.org/2000/svg" xmlns:xlink="http://www.w3.org/1999/xlink">
<g id="graph0" class="graph" transform="scale(1 1) rotate(0) translate(4 211)">
<title>ene.models.PlaylistModel.getCurrentTrack</title>
<!-- Node2 -->
<g id="node1" class="node">
<title>Node2</title>
<polygon fill="#bfbfbf" stroke="#000000" points="0,-88.5 0,-118.5 145,-118.5 145,-88.5 0,-88.5"/>
<text text-anchor="start" x="8" y="-106.5" font-family="Helvetica,sans-Serif" font-size="10.00" fill="#000000">ene.models.PlaylistModel.get</text>
<text text-anchor="middle" x="72.5" y="-95.5" font-family="Helvetica,sans-Serif" font-size="10.00" fill="#000000">CurrentTrack</text>
</g>
<!-- Node3 -->
<g id="node2" class="node">
<title>Node3</title>
<g id="a_node2"><a xlink:href="classene_1_1models_1_1PlayerModel.html#acfe1fde39cea80b94ae65ed401706d70" target="_top" xlink:title="ene.models.PlayerModel.load\lPlaylist">
<polygon fill="none" stroke="#000000" points="192.5,-176.5 192.5,-206.5 337.5,-206.5 337.5,-176.5 192.5,-176.5"/>
<text text-anchor="start" x="200.5" y="-194.5" font-family="Helvetica,sans-Serif" font-size="10.00" fill="#000000">ene.models.PlayerModel.load</text>
<text text-anchor="middle" x="265" y="-183.5" font-family="Helvetica,sans-Serif" font-size="10.00" fill="#000000">Playlist</text>
</a>
</g>
</g>
<!-- Node2&#45;&gt;Node3 -->
<g id="edge1" class="edge">
<title>Node2&#45;&gt;Node3</title>
<path fill="none" stroke="#191970" d="M107.1284,-123.7043C128.1173,-135.5207 155.6524,-150.2725 181,-161.5 193.0349,-166.8308 206.3384,-171.9289 218.7414,-176.3612"/>
<polygon fill="#191970" stroke="#191970" points="108.6927,-120.5677 98.2688,-118.6723 105.2356,-126.6545 108.6927,-120.5677"/>
</g>
<!-- Node4 -->
<g id="node3" class="node">
<title>Node4</title>
<g id="a_node3"><a xlink:href="classene_1_1models_1_1PlayerModel.html#a384fd9a2e98fc581e8221659257a8dd4" target="_top" xlink:title="ene.models.PlayerModel.next">
<polygon fill="none" stroke="#000000" points="394,-116 394,-135 540,-135 540,-116 394,-116"/>
<text text-anchor="middle" x="467" y="-123" font-family="Helvetica,sans-Serif" font-size="10.00" fill="#000000">ene.models.PlayerModel.next</text>
</a>
</g>
</g>
<!-- Node2&#45;&gt;Node4 -->
<g id="edge2" class="edge">
<title>Node2&#45;&gt;Node4</title>
<path fill="none" stroke="#191970" d="M136.592,-120.7919C151.0887,-123.9954 166.487,-126.8496 181,-128.5 253.0328,-136.6914 335.9265,-134.5637 393.8638,-131.2228"/>
<polygon fill="#191970" stroke="#191970" points="137.2512,-117.3523 126.7219,-118.5287 135.6867,-124.1752 137.2512,-117.3523"/>
</g>
<!-- Node5 -->
<g id="node4" class="node">
<title>Node5</title>
<g id="a_node4"><a xlink:href="classene_1_1models_1_1PlaylistModel.html#afba0932567d4d21976e3c37c8d80b634" target="_top" xlink:title="ene.models.PlaylistModel.next\lTrack">
<polygon fill="none" stroke="#000000" points="190,-88.5 190,-118.5 340,-118.5 340,-88.5 190,-88.5"/>
<text text-anchor="start" x="198" y="-106.5" font-family="Helvetica,sans-Serif" font-size="10.00" fill="#000000">ene.models.PlaylistModel.next</text>
<text text-anchor="middle" x="265" y="-95.5" font-family="Helvetica,sans-Serif" font-size="10.00" fill="#000000">Track</text>
</a>
</g>
</g>
<!-- Node2&#45;&gt;Node5 -->
<g id="edge3" class="edge">
<title>Node2&#45;&gt;Node5</title>
<path fill="none" stroke="#191970" d="M155.1025,-103.5C166.6953,-103.5 178.5577,-103.5 189.9985,-103.5"/>
<polygon fill="#191970" stroke="#191970" points="155.0017,-100.0001 145.0017,-103.5 155.0017,-107.0001 155.0017,-100.0001"/>
</g>
<!-- Node6 -->
<g id="node5" class="node">
<title>Node6</title>
<g id="a_node5"><a xlink:href="classene_1_1models_1_1PlayerModel.html#a7242e20d537405f031ec8d18e7faf8fc" target="_top" xlink:title="ene.models.PlayerModel.previous">
<polygon fill="none" stroke="#000000" points="385,-28 385,-47 549,-47 549,-28 385,-28"/>
<text text-anchor="middle" x="467" y="-35" font-family="Helvetica,sans-Serif" font-size="10.00" fill="#000000">ene.models.PlayerModel.previous</text>
</a>
</g>
</g>
<!-- Node2&#45;&gt;Node6 -->
<g id="edge5" class="edge">
<title>Node2&#45;&gt;Node6</title>
<path fill="none" stroke="#191970" d="M146.8341,-86.3164C158.2494,-83.8923 169.92,-81.5363 181,-79.5 252.3233,-66.3922 334.251,-54.7004 392.0876,-47.0023"/>
<polygon fill="#191970" stroke="#191970" points="145.9286,-82.931 136.8895,-88.4577 147.4022,-89.7742 145.9286,-82.931"/>
</g>
<!-- Node7 -->
<g id="node6" class="node">
<title>Node7</title>
<g id="a_node6"><a xlink:href="classene_1_1models_1_1PlaylistModel.html#ab30573de71b566da79145210f94be294" target="_top" xlink:title="ene.models.PlaylistModel.previous\lTrack">
<polygon fill="none" stroke="#000000" points="181,-.5 181,-30.5 349,-30.5 349,-.5 181,-.5"/>
<text text-anchor="start" x="189" y="-18.5" font-family="Helvetica,sans-Serif" font-size="10.00" fill="#000000">ene.models.PlaylistModel.previous</text>
<text text-anchor="middle" x="265" y="-7.5" font-family="Helvetica,sans-Serif" font-size="10.00" fill="#000000">Track</text>
</a>
</g>
</g>
<!-- Node2&#45;&gt;Node7 -->
<g id="edge6" class="edge">
<title>Node2&#45;&gt;Node7</title>
<path fill="none" stroke="#191970" d="M107.1284,-83.2957C128.1173,-71.4793 155.6524,-56.7275 181,-45.5 193.0349,-40.1692 206.3384,-35.0711 218.7414,-30.6388"/>
<polygon fill="#191970" stroke="#191970" points="105.2356,-80.3455 98.2688,-88.3277 108.6927,-86.4323 105.2356,-80.3455"/>
</g>
<!-- Node5&#45;&gt;Node4 -->
<g id="edge4" class="edge">
<title>Node5&#45;&gt;Node4</title>
<path fill="none" stroke="#191970" d="M350.1619,-112.7751C364.651,-114.3531 379.5861,-115.9797 393.7342,-117.5206"/>
<polygon fill="#191970" stroke="#191970" points="350.5375,-109.2954 340.2173,-111.692 349.7796,-116.2542 350.5375,-109.2954"/>
</g>
<!-- Node7&#45;&gt;Node6 -->
<g id="edge7" class="edge">
<title>Node7&#45;&gt;Node6</title>
<path fill="none" stroke="#191970" d="M359.2193,-25.7615C367.7896,-26.6949 376.4253,-27.6354 384.8781,-28.556"/>
<polygon fill="#191970" stroke="#191970" points="359.5237,-22.274 349.2035,-24.6707 358.7657,-29.2329 359.5237,-22.274"/>
</g>
</g>
</svg>
