<?xml version="1.0" encoding="UTF-8" standalone="no"?>
<!DOCTYPE svg PUBLIC "-//W3C//DTD SVG 1.1//EN"
 "http://www.w3.org/Graphics/SVG/1.1/DTD/svg11.dtd">
<!-- Generated by graphviz version 2.40.1 (20161225.0304)
 -->
<!-- Title: ene.controllers.AbstractController&lt; ModelType &gt; Pages: 1 -->
<svg width="334pt" height="515pt"
 viewBox="0.00 0.00 334.00 515.00" xmlns="http://www.w3.org/2000/svg" xmlns:xlink="http://www.w3.org/1999/xlink">
<g id="graph0" class="graph" transform="scale(1 1) rotate(0) translate(4 511)">
<title>ene.controllers.AbstractController&lt; ModelType &gt;</title>
<!-- Node0 -->
<g id="node1" class="node">
<title>Node0</title>
<polygon fill="#bfbfbf" stroke="#000000" points="96,-277.5 96,-356.5 221,-356.5 221,-277.5 96,-277.5"/>
<text text-anchor="start" x="104" y="-344.5" font-family="Helvetica,sans-Serif" font-size="10.00" fill="#000000">ene.controllers.Abstract</text>
<text text-anchor="middle" x="158.5" y="-333.5" font-family="Helvetica,sans-Serif" font-size="10.00" fill="#000000">Controller&lt; ModelType &gt;</text>
<polyline fill="none" stroke="#000000" points="96,-326.5 221,-326.5 "/>
<text text-anchor="start" x="104" y="-314.5" font-family="Helvetica,sans-Serif" font-size="10.00" fill="#000000"># model</text>
<polyline fill="none" stroke="#000000" points="96,-307.5 221,-307.5 "/>
<text text-anchor="start" x="104" y="-295.5" font-family="Helvetica,sans-Serif" font-size="10.00" fill="#000000">+ setModel()</text>
<text text-anchor="start" x="104" y="-284.5" font-family="Helvetica,sans-Serif" font-size="10.00" fill="#000000">+ getModel()</text>
</g>
<!-- Node3 -->
<g id="node4" class="node">
<title>Node3</title>
<g id="a_node4"><a xlink:href="classene_1_1controllers_1_1AbstractController.html" target="_top" xlink:title="{ene.controllers.Abstract\lController\&lt; LibraryModel \&gt;\n|# model\l|+ setModel()\l+ getModel()\l}">
<polygon fill="none" stroke="#000000" points="17.5,-150.5 17.5,-229.5 149.5,-229.5 149.5,-150.5 17.5,-150.5"/>
<text text-anchor="start" x="25.5" y="-217.5" font-family="Helvetica,sans-Serif" font-size="10.00" fill="#000000">ene.controllers.Abstract</text>
<text text-anchor="middle" x="83.5" y="-206.5" font-family="Helvetica,sans-Serif" font-size="10.00" fill="#000000">Controller&lt; LibraryModel &gt;</text>
<polyline fill="none" stroke="#000000" points="17.5,-199.5 149.5,-199.5 "/>
<text text-anchor="start" x="25.5" y="-187.5" font-family="Helvetica,sans-Serif" font-size="10.00" fill="#000000"># model</text>
<polyline fill="none" stroke="#000000" points="17.5,-180.5 149.5,-180.5 "/>
<text text-anchor="start" x="25.5" y="-168.5" font-family="Helvetica,sans-Serif" font-size="10.00" fill="#000000">+ setModel()</text>
<text text-anchor="start" x="25.5" y="-157.5" font-family="Helvetica,sans-Serif" font-size="10.00" fill="#000000">+ getModel()</text>
</a>
</g>
</g>
<!-- Node0&#45;&gt;Node3 -->
<g id="edge3" class="edge">
<title>Node0&#45;&gt;Node3</title>
<path fill="none" stroke="#ffa500" d="M129.8351,-268.4608C122.2695,-255.6496 114.195,-241.9769 106.9412,-229.6938"/>
<polygon fill="#ffa500" stroke="#ffa500" points="126.8765,-270.334 134.9753,-277.1649 132.904,-266.7745 126.8765,-270.334"/>
<text text-anchor="middle" x="162" y="-251" font-family="Helvetica,sans-Serif" font-size="10.00" fill="#000000"> &lt; LibraryModel &gt;</text>
</g>
<!-- Node5 -->
<g id="node6" class="node">
<title>Node5</title>
<g id="a_node6"><a xlink:href="classene_1_1controllers_1_1AbstractController.html" target="_top" xlink:title="{ene.controllers.Abstract\lController\&lt; PlayerModel \&gt;\n|# model\l|+ setModel()\l+ getModel()\l}">
<polygon fill="none" stroke="#000000" points="179,-150.5 179,-229.5 310,-229.5 310,-150.5 179,-150.5"/>
<text text-anchor="start" x="187" y="-217.5" font-family="Helvetica,sans-Serif" font-size="10.00" fill="#000000">ene.controllers.Abstract</text>
<text text-anchor="middle" x="244.5" y="-206.5" font-family="Helvetica,sans-Serif" font-size="10.00" fill="#000000">Controller&lt; PlayerModel &gt;</text>
<polyline fill="none" stroke="#000000" points="179,-199.5 310,-199.5 "/>
<text text-anchor="start" x="187" y="-187.5" font-family="Helvetica,sans-Serif" font-size="10.00" fill="#000000"># model</text>
<polyline fill="none" stroke="#000000" points="179,-180.5 310,-180.5 "/>
<text text-anchor="start" x="187" y="-168.5" font-family="Helvetica,sans-Serif" font-size="10.00" fill="#000000">+ setModel()</text>
<text text-anchor="start" x="187" y="-157.5" font-family="Helvetica,sans-Serif" font-size="10.00" fill="#000000">+ getModel()</text>
</a>
</g>
</g>
<!-- Node0&#45;&gt;Node5 -->
<g id="edge5" class="edge">
<title>Node0&#45;&gt;Node5</title>
<path fill="none" stroke="#ffa500" d="M197.4016,-269.0319C199.8567,-265.6758 202.2447,-262.3111 204.5,-259 210.8138,-249.7303 217.1367,-239.4188 222.8308,-229.6528"/>
<polygon fill="#ffa500" stroke="#ffa500" points="194.3875,-267.2179 191.1983,-277.3214 199.992,-271.412 194.3875,-267.2179"/>
<text text-anchor="middle" x="249.5" y="-251" font-family="Helvetica,sans-Serif" font-size="10.00" fill="#000000"> &lt; PlayerModel &gt;</text>
</g>
<!-- Node1 -->
<g id="node2" class="node">
<title>Node1</title>
<g id="a_node2"><a xlink:href="classene_1_1AbstractObject.html" target="_top" xlink:title="{ene.AbstractObject\n|# debugModeEnabled\l|+ enableDebugMode()\l+ disableDebugMode()\l+ isDebugModeEnabled()\l+ debugInfoAbout()\l+ consoleOutput()\l# delay()\l}">
<polygon fill="none" stroke="#000000" points="22,-394.5 22,-506.5 149,-506.5 149,-394.5 22,-394.5"/>
<text text-anchor="middle" x="85.5" y="-494.5" font-family="Helvetica,sans-Serif" font-size="10.00" fill="#000000">ene.AbstractObject</text>
<polyline fill="none" stroke="#000000" points="22,-487.5 149,-487.5 "/>
<text text-anchor="start" x="30" y="-475.5" font-family="Helvetica,sans-Serif" font-size="10.00" fill="#000000"># debugModeEnabled</text>
<polyline fill="none" stroke="#000000" points="22,-468.5 149,-468.5 "/>
<text text-anchor="start" x="30" y="-456.5" font-family="Helvetica,sans-Serif" font-size="10.00" fill="#000000">+ enableDebugMode()</text>
<text text-anchor="start" x="30" y="-445.5" font-family="Helvetica,sans-Serif" font-size="10.00" fill="#000000">+ disableDebugMode()</text>
<text text-anchor="start" x="30" y="-434.5" font-family="Helvetica,sans-Serif" font-size="10.00" fill="#000000">+ isDebugModeEnabled()</text>
<text text-anchor="start" x="30" y="-423.5" font-family="Helvetica,sans-Serif" font-size="10.00" fill="#000000">+ debugInfoAbout()</text>
<text text-anchor="start" x="30" y="-412.5" font-family="Helvetica,sans-Serif" font-size="10.00" fill="#000000">+ consoleOutput()</text>
<text text-anchor="start" x="30" y="-401.5" font-family="Helvetica,sans-Serif" font-size="10.00" fill="#000000"># delay()</text>
</a>
</g>
</g>
<!-- Node1&#45;&gt;Node0 -->
<g id="edge1" class="edge">
<title>Node1&#45;&gt;Node0</title>
<path fill="none" stroke="#191970" d="M121.1573,-385.2911C126.526,-375.4729 131.9191,-365.6103 136.8716,-356.5534"/>
<polygon fill="none" stroke="#191970" points="117.9739,-383.8177 116.247,-394.2709 124.1157,-387.1762 117.9739,-383.8177"/>
</g>
<!-- Node2 -->
<g id="node3" class="node">
<title>Node2</title>
<g id="a_node3"><a xlink:href="interfaceene_1_1interfaces_1_1Controller.html" target="_top" xlink:title="{ene::interfaces::Controller\l\&lt; ModelType \&gt;\n||+ setModel()\l+ getModel()\l}">
<polygon fill="none" stroke="#000000" points="167,-411 167,-490 296,-490 296,-411 167,-411"/>
<text text-anchor="start" x="175" y="-478" font-family="Helvetica,sans-Serif" font-size="10.00" fill="#000000">ene::interfaces::Controller</text>
<text text-anchor="middle" x="231.5" y="-467" font-family="Helvetica,sans-Serif" font-size="10.00" fill="#000000">&lt; ModelType &gt;</text>
<polyline fill="none" stroke="#000000" points="167,-460 296,-460 "/>
<text text-anchor="middle" x="231.5" y="-448" font-family="Helvetica,sans-Serif" font-size="10.00" fill="#000000"> </text>
<polyline fill="none" stroke="#000000" points="167,-441 296,-441 "/>
<text text-anchor="start" x="175" y="-429" font-family="Helvetica,sans-Serif" font-size="10.00" fill="#000000">+ setModel()</text>
<text text-anchor="start" x="175" y="-418" font-family="Helvetica,sans-Serif" font-size="10.00" fill="#000000">+ getModel()</text>
</a>
</g>
</g>
<!-- Node2&#45;&gt;Node0 -->
<g id="edge2" class="edge">
<title>Node2&#45;&gt;Node0</title>
<path fill="none" stroke="#191970" d="M204.8625,-401.7862C196.7697,-386.9864 187.9777,-370.9078 180.2472,-356.7705"/>
<polygon fill="none" stroke="#191970" points="201.9266,-403.7123 209.7952,-410.807 208.0683,-400.3539 201.9266,-403.7123"/>
</g>
<!-- Node4 -->
<g id="node5" class="node">
<title>Node4</title>
<g id="a_node5"><a xlink:href="classene_1_1controllers_1_1LibraryController.html" target="_top" xlink:title="{ene.controllers.LibraryController\n||+ LibraryController()\l+ add()\l+ remove()\l# addFile()\l# addDirectoryContent()\l# scan()\l}">
<polygon fill="none" stroke="#000000" points="0,-.5 0,-112.5 155,-112.5 155,-.5 0,-.5"/>
<text text-anchor="middle" x="77.5" y="-100.5" font-family="Helvetica,sans-Serif" font-size="10.00" fill="#000000">ene.controllers.LibraryController</text>
<polyline fill="none" stroke="#000000" points="0,-93.5 155,-93.5 "/>
<text text-anchor="middle" x="77.5" y="-81.5" font-family="Helvetica,sans-Serif" font-size="10.00" fill="#000000"> </text>
<polyline fill="none" stroke="#000000" points="0,-74.5 155,-74.5 "/>
<text text-anchor="start" x="8" y="-62.5" font-family="Helvetica,sans-Serif" font-size="10.00" fill="#000000">+ LibraryController()</text>
<text text-anchor="start" x="8" y="-51.5" font-family="Helvetica,sans-Serif" font-size="10.00" fill="#000000">+ add()</text>
<text text-anchor="start" x="8" y="-40.5" font-family="Helvetica,sans-Serif" font-size="10.00" fill="#000000">+ remove()</text>
<text text-anchor="start" x="8" y="-29.5" font-family="Helvetica,sans-Serif" font-size="10.00" fill="#000000"># addFile()</text>
<text text-anchor="start" x="8" y="-18.5" font-family="Helvetica,sans-Serif" font-size="10.00" fill="#000000"># addDirectoryContent()</text>
<text text-anchor="start" x="8" y="-7.5" font-family="Helvetica,sans-Serif" font-size="10.00" fill="#000000"># scan()</text>
</a>
</g>
</g>
<!-- Node3&#45;&gt;Node4 -->
<g id="edge4" class="edge">
<title>Node3&#45;&gt;Node4</title>
<path fill="none" stroke="#191970" d="M81.2545,-140.038C80.8522,-131.0858 80.4305,-121.7027 80.021,-112.5916"/>
<polygon fill="none" stroke="#191970" points="77.7705,-140.4743 81.716,-150.307 84.7634,-140.16 77.7705,-140.4743"/>
</g>
<!-- Node6 -->
<g id="node7" class="node">
<title>Node6</title>
<g id="a_node7"><a xlink:href="classene_1_1controllers_1_1PlayerController.html" target="_top" xlink:title="{ene.controllers.PlayerController\n||+ PlayerController()\l+ changeTrackPosition()\l+ load()\l+ togglePlayback()\l}">
<polygon fill="none" stroke="#000000" points="173,-11.5 173,-101.5 326,-101.5 326,-11.5 173,-11.5"/>
<text text-anchor="middle" x="249.5" y="-89.5" font-family="Helvetica,sans-Serif" font-size="10.00" fill="#000000">ene.controllers.PlayerController</text>
<polyline fill="none" stroke="#000000" points="173,-82.5 326,-82.5 "/>
<text text-anchor="middle" x="249.5" y="-70.5" font-family="Helvetica,sans-Serif" font-size="10.00" fill="#000000"> </text>
<polyline fill="none" stroke="#000000" points="173,-63.5 326,-63.5 "/>
<text text-anchor="start" x="181" y="-51.5" font-family="Helvetica,sans-Serif" font-size="10.00" fill="#000000">+ PlayerController()</text>
<text text-anchor="start" x="181" y="-40.5" font-family="Helvetica,sans-Serif" font-size="10.00" fill="#000000">+ changeTrackPosition()</text>
<text text-anchor="start" x="181" y="-29.5" font-family="Helvetica,sans-Serif" font-size="10.00" fill="#000000">+ load()</text>
<text text-anchor="start" x="181" y="-18.5" font-family="Helvetica,sans-Serif" font-size="10.00" fill="#000000">+ togglePlayback()</text>
</a>
</g>
</g>
<!-- Node5&#45;&gt;Node6 -->
<g id="edge6" class="edge">
<title>Node5&#45;&gt;Node6</title>
<path fill="none" stroke="#191970" d="M246.3712,-140.038C246.8398,-127.5271 247.3399,-114.1748 247.7997,-101.8993"/>
<polygon fill="none" stroke="#191970" points="242.8634,-140.183 245.9866,-150.307 249.8585,-140.4451 242.8634,-140.183"/>
</g>
</g>
</svg>
