<?xml version="1.0" encoding="UTF-8" standalone="no"?>
<!DOCTYPE svg PUBLIC "-//W3C//DTD SVG 1.1//EN"
 "http://www.w3.org/Graphics/SVG/1.1/DTD/svg11.dtd">
<!-- Generated by graphviz version 2.40.1 (20161225.0304)
 -->
<!-- Title: ene.models.PlayerModel.update Pages: 1 -->
<svg width="572pt" height="127pt"
 viewBox="0.00 0.00 572.00 126.50" xmlns="http://www.w3.org/2000/svg" xmlns:xlink="http://www.w3.org/1999/xlink">
<g id="graph0" class="graph" transform="scale(1 1) rotate(0) translate(4 122.5)">
<title>ene.models.PlayerModel.update</title>
<!-- Node131 -->
<g id="node1" class="node">
<title>Node131</title>
<polygon fill="#bfbfbf" stroke="#000000" points="0,-55 0,-74 156,-74 156,-55 0,-55"/>
<text text-anchor="middle" x="78" y="-62" font-family="Helvetica,sans-Serif" font-size="10.00" fill="#000000">ene.models.PlayerModel.update</text>
</g>
<!-- Node132 -->
<g id="node2" class="node">
<title>Node132</title>
<g id="a_node2"><a xlink:href="classene_1_1models_1_1AbstractModel.html#a970306ac2228cbcb599f65476d8c80dd" target="_top" xlink:title="ene.models.AbstractModel.changed">
<polygon fill="none" stroke="#000000" points="192,-99 192,-118 365,-118 365,-99 192,-99"/>
<text text-anchor="middle" x="278.5" y="-106" font-family="Helvetica,sans-Serif" font-size="10.00" fill="#000000">ene.models.AbstractModel.changed</text>
</a>
</g>
</g>
<!-- Node131&#45;&gt;Node132 -->
<g id="edge1" class="edge">
<title>Node131&#45;&gt;Node132</title>
<path fill="none" stroke="#191970" d="M121.5055,-74.0473C151.8518,-80.7069 192.5417,-89.6363 224.8926,-96.7358"/>
<polygon fill="#191970" stroke="#191970" points="224.5616,-100.2464 235.0794,-98.9713 226.0621,-93.4091 224.5616,-100.2464"/>
</g>
<!-- Node134 -->
<g id="node4" class="node">
<title>Node134</title>
<g id="a_node4"><a xlink:href="classene_1_1AbstractObject.html#aff9619cf289ec83735b6c6ca2c12e020" target="_top" xlink:title="ene.AbstractObject.debug\lInfoAbout">
<polygon fill="none" stroke="#000000" points="213.5,-49.5 213.5,-79.5 343.5,-79.5 343.5,-49.5 213.5,-49.5"/>
<text text-anchor="start" x="221.5" y="-67.5" font-family="Helvetica,sans-Serif" font-size="10.00" fill="#000000">ene.AbstractObject.debug</text>
<text text-anchor="middle" x="278.5" y="-56.5" font-family="Helvetica,sans-Serif" font-size="10.00" fill="#000000">InfoAbout</text>
</a>
</g>
</g>
<!-- Node131&#45;&gt;Node134 -->
<g id="edge3" class="edge">
<title>Node131&#45;&gt;Node134</title>
<path fill="none" stroke="#191970" d="M156.0927,-64.5C171.4589,-64.5 187.5562,-64.5 202.8407,-64.5"/>
<polygon fill="#191970" stroke="#191970" points="203.2735,-68.0001 213.2735,-64.5 203.2735,-61.0001 203.2735,-68.0001"/>
</g>
<!-- Node137 -->
<g id="node7" class="node">
<title>Node137</title>
<g id="a_node7"><a xlink:href="classene_1_1models_1_1PlayerModel.html#a96f182616ef8371e8402acc510034183" target="_top" xlink:title="ene.models.PlayerModel.set\lLastEvent">
<polygon fill="none" stroke="#000000" points="208.5,-.5 208.5,-30.5 348.5,-30.5 348.5,-.5 208.5,-.5"/>
<text text-anchor="start" x="216.5" y="-18.5" font-family="Helvetica,sans-Serif" font-size="10.00" fill="#000000">ene.models.PlayerModel.set</text>
<text text-anchor="middle" x="278.5" y="-7.5" font-family="Helvetica,sans-Serif" font-size="10.00" fill="#000000">LastEvent</text>
</a>
</g>
</g>
<!-- Node131&#45;&gt;Node137 -->
<g id="edge6" class="edge">
<title>Node131&#45;&gt;Node137</title>
<path fill="none" stroke="#191970" d="M117.1344,-54.936C142.6292,-48.7053 176.6516,-40.3906 206.8822,-33.0026"/>
<polygon fill="#191970" stroke="#191970" points="208.088,-36.311 216.9712,-30.537 206.4261,-29.5111 208.088,-36.311"/>
</g>
<!-- Node133 -->
<g id="node3" class="node">
<title>Node133</title>
<g id="a_node3"><a xlink:href="interfaceene_1_1interfaces_1_1PartialView.html#aae781d286eda4cbf8c57fdb877dde265" target="_top" xlink:title="ene.interfaces.PartialView.update">
<polygon fill="none" stroke="#000000" points="401,-99 401,-118 564,-118 564,-99 401,-99"/>
<text text-anchor="middle" x="482.5" y="-106" font-family="Helvetica,sans-Serif" font-size="10.00" fill="#000000">ene.interfaces.PartialView.update</text>
</a>
</g>
</g>
<!-- Node132&#45;&gt;Node133 -->
<g id="edge2" class="edge">
<title>Node132&#45;&gt;Node133</title>
<path fill="none" stroke="#191970" d="M365.0144,-108.5C373.4296,-108.5 381.9887,-108.5 390.4555,-108.5"/>
<polygon fill="#191970" stroke="#191970" points="390.7215,-112.0001 400.7215,-108.5 390.7214,-105.0001 390.7215,-112.0001"/>
</g>
<!-- Node135 -->
<g id="node5" class="node">
<title>Node135</title>
<g id="a_node5"><a xlink:href="classene_1_1AbstractObject.html#a9ce30d3321c7ce794df2f07bdaf3e47c" target="_top" xlink:title="ene.AbstractObject.console\lOutput">
<polygon fill="none" stroke="#000000" points="414,-49.5 414,-79.5 551,-79.5 551,-49.5 414,-49.5"/>
<text text-anchor="start" x="422" y="-67.5" font-family="Helvetica,sans-Serif" font-size="10.00" fill="#000000">ene.AbstractObject.console</text>
<text text-anchor="middle" x="482.5" y="-56.5" font-family="Helvetica,sans-Serif" font-size="10.00" fill="#000000">Output</text>
</a>
</g>
</g>
<!-- Node134&#45;&gt;Node135 -->
<g id="edge4" class="edge">
<title>Node134&#45;&gt;Node135</title>
<path fill="none" stroke="#191970" d="M343.6078,-64.5C362.6728,-64.5 383.7251,-64.5 403.5513,-64.5"/>
<polygon fill="#191970" stroke="#191970" points="403.7904,-68.0001 413.7904,-64.5 403.7903,-61.0001 403.7904,-68.0001"/>
</g>
<!-- Node136 -->
<g id="node6" class="node">
<title>Node136</title>
<g id="a_node6"><a xlink:href="classene_1_1AbstractObject.html#a6ee0b669069e0c3ee320a6cf41af24fe" target="_top" xlink:title="ene.AbstractObject.isDebug\lModeEnabled">
<polygon fill="none" stroke="#000000" points="412.5,-.5 412.5,-30.5 552.5,-30.5 552.5,-.5 412.5,-.5"/>
<text text-anchor="start" x="420.5" y="-18.5" font-family="Helvetica,sans-Serif" font-size="10.00" fill="#000000">ene.AbstractObject.isDebug</text>
<text text-anchor="middle" x="482.5" y="-7.5" font-family="Helvetica,sans-Serif" font-size="10.00" fill="#000000">ModeEnabled</text>
</a>
</g>
</g>
<!-- Node134&#45;&gt;Node136 -->
<g id="edge5" class="edge">
<title>Node134&#45;&gt;Node136</title>
<path fill="none" stroke="#191970" d="M341.0931,-49.4654C362.9264,-44.2211 387.6062,-38.2931 410.1655,-32.8745"/>
<polygon fill="#191970" stroke="#191970" points="411.1193,-36.245 420.0253,-30.5062 409.4844,-29.4386 411.1193,-36.245"/>
</g>
</g>
</svg>
