<?xml version="1.0" encoding="UTF-8" standalone="no"?>
<!DOCTYPE svg PUBLIC "-//W3C//DTD SVG 1.1//EN"
 "http://www.w3.org/Graphics/SVG/1.1/DTD/svg11.dtd">
<!-- Generated by graphviz version 2.40.1 (20161225.0304)
 -->
<!-- Title: ene.views.gui.partial.PlaylistView.mousePressed Pages: 1 -->
<svg width="775pt" height="405pt"
 viewBox="0.00 0.00 775.00 405.00" xmlns="http://www.w3.org/2000/svg" xmlns:xlink="http://www.w3.org/1999/xlink">
<g id="graph0" class="graph" transform="scale(1 1) rotate(0) translate(4 401)">
<title>ene.views.gui.partial.PlaylistView.mousePressed</title>
<!-- Node26 -->
<g id="node1" class="node">
<title>Node26</title>
<polygon fill="#bfbfbf" stroke="#000000" points="0,-191.5 0,-221.5 141,-221.5 141,-191.5 0,-191.5"/>
<text text-anchor="start" x="8" y="-209.5" font-family="Helvetica,sans-Serif" font-size="10.00" fill="#000000">ene.views.gui.partial.Playlist</text>
<text text-anchor="middle" x="70.5" y="-198.5" font-family="Helvetica,sans-Serif" font-size="10.00" fill="#000000">View.mousePressed</text>
</g>
<!-- Node27 -->
<g id="node2" class="node">
<title>Node27</title>
<g id="a_node2"><a xlink:href="classene_1_1AbstractObject.html#aff9619cf289ec83735b6c6ca2c12e020" target="_top" xlink:title="ene.AbstractObject.debug\lInfoAbout">
<polygon fill="none" stroke="#000000" points="203,-338.5 203,-368.5 333,-368.5 333,-338.5 203,-338.5"/>
<text text-anchor="start" x="211" y="-356.5" font-family="Helvetica,sans-Serif" font-size="10.00" fill="#000000">ene.AbstractObject.debug</text>
<text text-anchor="middle" x="268" y="-345.5" font-family="Helvetica,sans-Serif" font-size="10.00" fill="#000000">InfoAbout</text>
</a>
</g>
</g>
<!-- Node26&#45;&gt;Node27 -->
<g id="edge1" class="edge">
<title>Node26&#45;&gt;Node27</title>
<path fill="none" stroke="#191970" d="M79.2572,-221.5611C95.2386,-247.673 131.6983,-301.2545 177,-329.5 182.0628,-332.6566 187.5327,-335.401 193.1907,-337.7866"/>
<polygon fill="#191970" stroke="#191970" points="192.2607,-341.1778 202.8514,-341.472 194.7557,-334.6375 192.2607,-341.1778"/>
</g>
<!-- Node30 -->
<g id="node5" class="node">
<title>Node30</title>
<g id="a_node5"><a xlink:href="classene_1_1views_1_1AbstractPartialView.html#afb90f9e02eea94a2fb276d711a67ee36" target="_top" xlink:title="ene.views.AbstractPartial\lView.getModel">
<polygon fill="none" stroke="#000000" points="204,-289.5 204,-319.5 332,-319.5 332,-289.5 204,-289.5"/>
<text text-anchor="start" x="212" y="-307.5" font-family="Helvetica,sans-Serif" font-size="10.00" fill="#000000">ene.views.AbstractPartial</text>
<text text-anchor="middle" x="268" y="-296.5" font-family="Helvetica,sans-Serif" font-size="10.00" fill="#000000">View.getModel</text>
</a>
</g>
</g>
<!-- Node26&#45;&gt;Node30 -->
<g id="edge4" class="edge">
<title>Node26&#45;&gt;Node30</title>
<path fill="none" stroke="#191970" d="M88.1521,-221.6983C108.3612,-238.3691 143.0678,-264.8328 177,-280.5 182.4167,-283.001 188.1396,-285.2768 193.9712,-287.3408"/>
<polygon fill="#191970" stroke="#191970" points="193.2596,-290.7922 203.853,-290.6168 195.4624,-284.1478 193.2596,-290.7922"/>
</g>
<!-- Node31 -->
<g id="node6" class="node">
<title>Node31</title>
<g id="a_node6"><a xlink:href="classene_1_1views_1_1gui_1_1partial_1_1AbstractTrackListView.html#af869688a373ddb6b1938b53487756d08" target="_top" xlink:title="ene.views.gui.partial.Abstract\lTrackListView.getPlayerController">
<polygon fill="none" stroke="#000000" points="185.5,-240.5 185.5,-270.5 350.5,-270.5 350.5,-240.5 185.5,-240.5"/>
<text text-anchor="start" x="193.5" y="-258.5" font-family="Helvetica,sans-Serif" font-size="10.00" fill="#000000">ene.views.gui.partial.Abstract</text>
<text text-anchor="middle" x="268" y="-247.5" font-family="Helvetica,sans-Serif" font-size="10.00" fill="#000000">TrackListView.getPlayerController</text>
</a>
</g>
</g>
<!-- Node26&#45;&gt;Node31 -->
<g id="edge5" class="edge">
<title>Node26&#45;&gt;Node31</title>
<path fill="none" stroke="#191970" d="M131.0987,-221.5346C152.1415,-226.7554 175.9155,-232.6537 197.6764,-238.0526"/>
<polygon fill="#191970" stroke="#191970" points="196.9673,-241.4827 207.5159,-240.4938 198.653,-234.6887 196.9673,-241.4827"/>
</g>
<!-- Node32 -->
<g id="node7" class="node">
<title>Node32</title>
<g id="a_node7"><a xlink:href="classene_1_1views_1_1gui_1_1partial_1_1AbstractTrackListView.html#a35a32113ecdb8bc210fa6b4e9c57c782" target="_top" xlink:title="ene.views.gui.partial.Abstract\lTrackListView.getSelectedFilename">
<polygon fill="none" stroke="#000000" points="181.5,-191.5 181.5,-221.5 354.5,-221.5 354.5,-191.5 181.5,-191.5"/>
<text text-anchor="start" x="189.5" y="-209.5" font-family="Helvetica,sans-Serif" font-size="10.00" fill="#000000">ene.views.gui.partial.Abstract</text>
<text text-anchor="middle" x="268" y="-198.5" font-family="Helvetica,sans-Serif" font-size="10.00" fill="#000000">TrackListView.getSelectedFilename</text>
</a>
</g>
</g>
<!-- Node26&#45;&gt;Node32 -->
<g id="edge6" class="edge">
<title>Node26&#45;&gt;Node32</title>
<path fill="none" stroke="#191970" d="M141.2442,-206.5C150.9568,-206.5 161.0634,-206.5 171.1437,-206.5"/>
<polygon fill="#191970" stroke="#191970" points="171.1997,-210.0001 181.1996,-206.5 171.1996,-203.0001 171.1997,-210.0001"/>
</g>
<!-- Node36 -->
<g id="node11" class="node">
<title>Node36</title>
<g id="a_node11"><a xlink:href="classene_1_1controllers_1_1PlayerController.html#a56773cd5d4706ed7949e369070ddc4aa" target="_top" xlink:title="ene.controllers.PlayerController.load\lPlaylist">
<polygon fill="none" stroke="#000000" points="181,-142.5 181,-172.5 355,-172.5 355,-142.5 181,-142.5"/>
<text text-anchor="start" x="189" y="-160.5" font-family="Helvetica,sans-Serif" font-size="10.00" fill="#000000">ene.controllers.PlayerController.load</text>
<text text-anchor="middle" x="268" y="-149.5" font-family="Helvetica,sans-Serif" font-size="10.00" fill="#000000">Playlist</text>
</a>
</g>
</g>
<!-- Node26&#45;&gt;Node36 -->
<g id="edge10" class="edge">
<title>Node26&#45;&gt;Node36</title>
<path fill="none" stroke="#191970" d="M131.0987,-191.4654C152.1415,-186.2446 175.9155,-180.3463 197.6764,-174.9474"/>
<polygon fill="#191970" stroke="#191970" points="198.653,-178.3113 207.5159,-172.5062 196.9673,-171.5173 198.653,-178.3113"/>
</g>
<!-- Node38 -->
<g id="node13" class="node">
<title>Node38</title>
<g id="a_node13"><a xlink:href="classene_1_1models_1_1PlaylistModel.html#a7150506b3801f97a2e38955a585bbd07" target="_top" xlink:title="ene.models.PlaylistModel.set\lCurrentTrack">
<polygon fill="none" stroke="#000000" points="195.5,-44.5 195.5,-74.5 340.5,-74.5 340.5,-44.5 195.5,-44.5"/>
<text text-anchor="start" x="203.5" y="-62.5" font-family="Helvetica,sans-Serif" font-size="10.00" fill="#000000">ene.models.PlaylistModel.set</text>
<text text-anchor="middle" x="268" y="-51.5" font-family="Helvetica,sans-Serif" font-size="10.00" fill="#000000">CurrentTrack</text>
</a>
</g>
</g>
<!-- Node26&#45;&gt;Node38 -->
<g id="edge12" class="edge">
<title>Node26&#45;&gt;Node38</title>
<path fill="none" stroke="#191970" d="M79.5753,-191.1981C95.7819,-165.226 132.2339,-112.6047 177,-84.5 180.3389,-82.4038 183.8541,-80.4808 187.483,-78.7169"/>
<polygon fill="#191970" stroke="#191970" points="188.9638,-81.8892 196.7018,-74.6522 186.1397,-75.4841 188.9638,-81.8892"/>
</g>
<!-- Node42 -->
<g id="node17" class="node">
<title>Node42</title>
<g id="a_node17"><a xlink:href="classene_1_1controllers_1_1PlayerController.html#acea0cc4709105881026516d468c4baf8" target="_top" xlink:title="ene.controllers.PlayerController.toggle\lPlayback">
<polygon fill="none" stroke="#000000" points="177,-93.5 177,-123.5 359,-123.5 359,-93.5 177,-93.5"/>
<text text-anchor="start" x="185" y="-111.5" font-family="Helvetica,sans-Serif" font-size="10.00" fill="#000000">ene.controllers.PlayerController.toggle</text>
<text text-anchor="middle" x="268" y="-100.5" font-family="Helvetica,sans-Serif" font-size="10.00" fill="#000000">Playback</text>
</a>
</g>
</g>
<!-- Node26&#45;&gt;Node42 -->
<g id="edge16" class="edge">
<title>Node26&#45;&gt;Node42</title>
<path fill="none" stroke="#191970" d="M88.5863,-191.2875C108.9058,-174.8949 143.4501,-149.0698 177,-133.5 182.2364,-131.0699 187.7552,-128.8352 193.3795,-126.788"/>
<polygon fill="#191970" stroke="#191970" points="194.5892,-130.0733 202.9131,-123.5186 192.3184,-123.4518 194.5892,-130.0733"/>
</g>
<!-- Node28 -->
<g id="node3" class="node">
<title>Node28</title>
<g id="a_node3"><a xlink:href="classene_1_1AbstractObject.html#a9ce30d3321c7ce794df2f07bdaf3e47c" target="_top" xlink:title="ene.AbstractObject.console\lOutput">
<polygon fill="none" stroke="#000000" points="413,-366.5 413,-396.5 550,-396.5 550,-366.5 413,-366.5"/>
<text text-anchor="start" x="421" y="-384.5" font-family="Helvetica,sans-Serif" font-size="10.00" fill="#000000">ene.AbstractObject.console</text>
<text text-anchor="middle" x="481.5" y="-373.5" font-family="Helvetica,sans-Serif" font-size="10.00" fill="#000000">Output</text>
</a>
</g>
</g>
<!-- Node27&#45;&gt;Node28 -->
<g id="edge2" class="edge">
<title>Node27&#45;&gt;Node28</title>
<path fill="none" stroke="#191970" d="M333.2171,-362.0531C355.2225,-364.939 380.0174,-368.1908 402.9435,-371.1975"/>
<polygon fill="#191970" stroke="#191970" points="402.6133,-374.6841 412.9836,-372.5142 403.5236,-367.7435 402.6133,-374.6841"/>
</g>
<!-- Node29 -->
<g id="node4" class="node">
<title>Node29</title>
<g id="a_node4"><a xlink:href="classene_1_1AbstractObject.html#a6ee0b669069e0c3ee320a6cf41af24fe" target="_top" xlink:title="ene.AbstractObject.isDebug\lModeEnabled">
<polygon fill="none" stroke="#000000" points="411.5,-317.5 411.5,-347.5 551.5,-347.5 551.5,-317.5 411.5,-317.5"/>
<text text-anchor="start" x="419.5" y="-335.5" font-family="Helvetica,sans-Serif" font-size="10.00" fill="#000000">ene.AbstractObject.isDebug</text>
<text text-anchor="middle" x="481.5" y="-324.5" font-family="Helvetica,sans-Serif" font-size="10.00" fill="#000000">ModeEnabled</text>
</a>
</g>
</g>
<!-- Node27&#45;&gt;Node29 -->
<g id="edge3" class="edge">
<title>Node27&#45;&gt;Node29</title>
<path fill="none" stroke="#191970" d="M333.2171,-347.0852C354.6984,-344.9723 378.838,-342.5979 401.3024,-340.3883"/>
<polygon fill="#191970" stroke="#191970" points="401.8812,-343.8483 411.4905,-339.3862 401.1959,-336.882 401.8812,-343.8483"/>
</g>
<!-- Node33 -->
<g id="node8" class="node">
<title>Node33</title>
<g id="a_node8"><a xlink:href="classene_1_1views_1_1gui_1_1partial_1_1AbstractTrackListView.html#aeea3d90287745704cda06893c94b9666" target="_top" xlink:title="ene.views.gui.partial.Abstract\lTrackListView.getTable">
<polygon fill="none" stroke="#000000" points="408.5,-246.5 408.5,-276.5 554.5,-276.5 554.5,-246.5 408.5,-246.5"/>
<text text-anchor="start" x="416.5" y="-264.5" font-family="Helvetica,sans-Serif" font-size="10.00" fill="#000000">ene.views.gui.partial.Abstract</text>
<text text-anchor="middle" x="481.5" y="-253.5" font-family="Helvetica,sans-Serif" font-size="10.00" fill="#000000">TrackListView.getTable</text>
</a>
</g>
</g>
<!-- Node32&#45;&gt;Node33 -->
<g id="edge7" class="edge">
<title>Node32&#45;&gt;Node33</title>
<path fill="none" stroke="#191970" d="M326.3398,-221.529C353.2877,-228.4711 385.4573,-236.7583 413.4994,-243.9823"/>
<polygon fill="#191970" stroke="#191970" points="412.6737,-247.3838 423.2307,-246.4892 414.42,-240.6051 412.6737,-247.3838"/>
</g>
<!-- Node34 -->
<g id="node9" class="node">
<title>Node34</title>
<g id="a_node9"><a xlink:href="classene_1_1views_1_1gui_1_1partial_1_1AbstractTrackListView.html#a709dd0b919d5e537076fe18ad992f25f" target="_top" xlink:title="ene.views.gui.partial.Abstract\lTrackListView.getTableContent">
<polygon fill="none" stroke="#000000" points="404.5,-197.5 404.5,-227.5 558.5,-227.5 558.5,-197.5 404.5,-197.5"/>
<text text-anchor="start" x="412.5" y="-215.5" font-family="Helvetica,sans-Serif" font-size="10.00" fill="#000000">ene.views.gui.partial.Abstract</text>
<text text-anchor="middle" x="481.5" y="-204.5" font-family="Helvetica,sans-Serif" font-size="10.00" fill="#000000">TrackListView.getTableContent</text>
</a>
</g>
</g>
<!-- Node32&#45;&gt;Node34 -->
<g id="edge8" class="edge">
<title>Node32&#45;&gt;Node34</title>
<path fill="none" stroke="#191970" d="M354.5308,-208.9318C367.5735,-209.2983 381.034,-209.6766 394.0949,-210.0437"/>
<polygon fill="#191970" stroke="#191970" points="394.3737,-213.5528 404.4682,-210.3352 394.5705,-206.5555 394.3737,-213.5528"/>
</g>
<!-- Node35 -->
<g id="node10" class="node">
<title>Node35</title>
<g id="a_node10"><a xlink:href="classene_1_1views_1_1gui_1_1partial_1_1AbstractTrackListView.html#abb6fc383a050c8c908502156536ce518" target="_top" xlink:title="ene.views.gui.partial.Abstract\lTrackListView.getTableRowSorter">
<polygon fill="none" stroke="#000000" points="398.5,-148.5 398.5,-178.5 564.5,-178.5 564.5,-148.5 398.5,-148.5"/>
<text text-anchor="start" x="406.5" y="-166.5" font-family="Helvetica,sans-Serif" font-size="10.00" fill="#000000">ene.views.gui.partial.Abstract</text>
<text text-anchor="middle" x="481.5" y="-155.5" font-family="Helvetica,sans-Serif" font-size="10.00" fill="#000000">TrackListView.getTableRowSorter</text>
</a>
</g>
</g>
<!-- Node32&#45;&gt;Node35 -->
<g id="edge9" class="edge">
<title>Node32&#45;&gt;Node35</title>
<path fill="none" stroke="#191970" d="M342.6719,-191.4607C360.2245,-187.9255 379.0525,-184.1334 397.0022,-180.5183"/>
<polygon fill="#191970" stroke="#191970" points="397.7581,-183.9364 406.8702,-178.5308 396.376,-177.0742 397.7581,-183.9364"/>
</g>
<!-- Node37 -->
<g id="node12" class="node">
<title>Node37</title>
<g id="a_node12"><a xlink:href="classene_1_1controllers_1_1AbstractController.html#a9a5afba01d0004a64db4cb14c23e0bbd" target="_top" xlink:title="ene.controllers.Abstract\lController\&lt; PlayerModel\l \&gt;::getModel">
<polygon fill="none" stroke="#000000" points="420.5,-88 420.5,-129 542.5,-129 542.5,-88 420.5,-88"/>
<text text-anchor="start" x="428.5" y="-117" font-family="Helvetica,sans-Serif" font-size="10.00" fill="#000000">ene.controllers.Abstract</text>
<text text-anchor="start" x="428.5" y="-106" font-family="Helvetica,sans-Serif" font-size="10.00" fill="#000000">Controller&lt; PlayerModel</text>
<text text-anchor="middle" x="481.5" y="-95" font-family="Helvetica,sans-Serif" font-size="10.00" fill="#000000"> &gt;::getModel</text>
</a>
</g>
</g>
<!-- Node36&#45;&gt;Node37 -->
<g id="edge11" class="edge">
<title>Node36&#45;&gt;Node37</title>
<path fill="none" stroke="#191970" d="M333.508,-142.4654C357.9639,-136.8525 385.8325,-130.4565 410.7404,-124.7399"/>
<polygon fill="#191970" stroke="#191970" points="411.5244,-128.1511 420.488,-122.5027 409.9585,-121.3284 411.5244,-128.1511"/>
</g>
<!-- Node39 -->
<g id="node14" class="node">
<title>Node39</title>
<g id="a_node14"><a xlink:href="classene_1_1models_1_1AbstractModel.html#a970306ac2228cbcb599f65476d8c80dd" target="_top" xlink:title="ene.models.AbstractModel.changed">
<polygon fill="none" stroke="#000000" points="395,-50 395,-69 568,-69 568,-50 395,-50"/>
<text text-anchor="middle" x="481.5" y="-57" font-family="Helvetica,sans-Serif" font-size="10.00" fill="#000000">ene.models.AbstractModel.changed</text>
</a>
</g>
</g>
<!-- Node38&#45;&gt;Node39 -->
<g id="edge13" class="edge">
<title>Node38&#45;&gt;Node39</title>
<path fill="none" stroke="#191970" d="M340.5793,-59.5C354.723,-59.5 369.7614,-59.5 384.547,-59.5"/>
<polygon fill="#191970" stroke="#191970" points="384.7288,-63.0001 394.7287,-59.5 384.7287,-56.0001 384.7288,-63.0001"/>
</g>
<!-- Node41 -->
<g id="node16" class="node">
<title>Node41</title>
<g id="a_node16"><a xlink:href="classene_1_1models_1_1PlaylistModel.html#adf17aa2e0d9900d3c620035dbc9641bc" target="_top" xlink:title="ene.models.PlaylistModel.update\lLastAccess">
<polygon fill="none" stroke="#000000" points="401,-.5 401,-30.5 562,-30.5 562,-.5 401,-.5"/>
<text text-anchor="start" x="409" y="-18.5" font-family="Helvetica,sans-Serif" font-size="10.00" fill="#000000">ene.models.PlaylistModel.update</text>
<text text-anchor="middle" x="481.5" y="-7.5" font-family="Helvetica,sans-Serif" font-size="10.00" fill="#000000">LastAccess</text>
</a>
</g>
</g>
<!-- Node38&#45;&gt;Node41 -->
<g id="edge15" class="edge">
<title>Node38&#45;&gt;Node41</title>
<path fill="none" stroke="#191970" d="M340.5793,-44.5422C359.2119,-40.7022 379.3971,-36.5423 398.5117,-32.603"/>
<polygon fill="#191970" stroke="#191970" points="399.3082,-36.0125 408.3958,-30.566 397.8952,-29.1566 399.3082,-36.0125"/>
</g>
<!-- Node40 -->
<g id="node15" class="node">
<title>Node40</title>
<g id="a_node15"><a xlink:href="interfaceene_1_1interfaces_1_1PartialView.html#aae781d286eda4cbf8c57fdb877dde265" target="_top" xlink:title="ene.interfaces.PartialView.update">
<polygon fill="none" stroke="#000000" points="604,-50 604,-69 767,-69 767,-50 604,-50"/>
<text text-anchor="middle" x="685.5" y="-57" font-family="Helvetica,sans-Serif" font-size="10.00" fill="#000000">ene.interfaces.PartialView.update</text>
</a>
</g>
</g>
<!-- Node39&#45;&gt;Node40 -->
<g id="edge14" class="edge">
<title>Node39&#45;&gt;Node40</title>
<path fill="none" stroke="#191970" d="M568.0144,-59.5C576.4296,-59.5 584.9887,-59.5 593.4555,-59.5"/>
<polygon fill="#191970" stroke="#191970" points="593.7215,-63.0001 603.7215,-59.5 593.7214,-56.0001 593.7215,-63.0001"/>
</g>
<!-- Node42&#45;&gt;Node37 -->
<g id="edge17" class="edge">
<title>Node42&#45;&gt;Node37</title>
<path fill="none" stroke="#191970" d="M359.1625,-108.5C376.2446,-108.5 393.8708,-108.5 410.2406,-108.5"/>
<polygon fill="#191970" stroke="#191970" points="410.2547,-112.0001 420.2547,-108.5 410.2547,-105.0001 410.2547,-112.0001"/>
</g>
</g>
</svg>
