<?xml version="1.0" encoding="UTF-8" standalone="no"?>
<!DOCTYPE svg PUBLIC "-//W3C//DTD SVG 1.1//EN"
 "http://www.w3.org/Graphics/SVG/1.1/DTD/svg11.dtd">
<!-- Generated by graphviz version 2.40.1 (20161225.0304)
 -->
<!-- Title: ene.views.gui.partial.AbstractTrackListView Pages: 1 -->
<svg width="866pt" height="900pt"
 viewBox="0.00 0.00 866.00 900.00" xmlns="http://www.w3.org/2000/svg" xmlns:xlink="http://www.w3.org/1999/xlink">
<g id="graph0" class="graph" transform="scale(1 1) rotate(0) translate(4 896)">
<title>ene.views.gui.partial.AbstractTrackListView</title>
<!-- Node9 -->
<g id="node1" class="node">
<title>Node9</title>
<polygon fill="#bfbfbf" stroke="#000000" points="528,-.5 528,-167.5 674,-167.5 674,-.5 528,-.5"/>
<text text-anchor="start" x="536" y="-155.5" font-family="Helvetica,sans-Serif" font-size="10.00" fill="#000000">ene.views.gui.partial.Abstract</text>
<text text-anchor="middle" x="601" y="-144.5" font-family="Helvetica,sans-Serif" font-size="10.00" fill="#000000">TrackListView</text>
<polyline fill="none" stroke="#000000" points="528,-137.5 674,-137.5 "/>
<text text-anchor="middle" x="601" y="-125.5" font-family="Helvetica,sans-Serif" font-size="10.00" fill="#000000"> </text>
<polyline fill="none" stroke="#000000" points="528,-118.5 674,-118.5 "/>
<text text-anchor="start" x="536" y="-106.5" font-family="Helvetica,sans-Serif" font-size="10.00" fill="#000000">+ valueChanged()</text>
<text text-anchor="start" x="536" y="-95.5" font-family="Helvetica,sans-Serif" font-size="10.00" fill="#000000">+ render()</text>
<text text-anchor="start" x="536" y="-84.5" font-family="Helvetica,sans-Serif" font-size="10.00" fill="#000000"># setTable()</text>
<text text-anchor="start" x="536" y="-73.5" font-family="Helvetica,sans-Serif" font-size="10.00" fill="#000000"># getTable()</text>
<text text-anchor="start" x="536" y="-62.5" font-family="Helvetica,sans-Serif" font-size="10.00" fill="#000000"># setTableContent()</text>
<text text-anchor="start" x="536" y="-51.5" font-family="Helvetica,sans-Serif" font-size="10.00" fill="#000000"># getTableContent()</text>
<text text-anchor="start" x="536" y="-40.5" font-family="Helvetica,sans-Serif" font-size="10.00" fill="#000000"># setPlayerController()</text>
<text text-anchor="start" x="536" y="-29.5" font-family="Helvetica,sans-Serif" font-size="10.00" fill="#000000"># getPlayerController()</text>
<text text-anchor="start" x="536" y="-18.5" font-family="Helvetica,sans-Serif" font-size="10.00" fill="#000000"># hideColumn()</text>
<text text-anchor="start" x="536" y="-7.5" font-family="Helvetica,sans-Serif" font-size="10.00" fill="#000000"># getSelectedFilename()</text>
</g>
<!-- Node10 -->
<g id="node2" class="node">
<title>Node10</title>
<g id="a_node2"><a xlink:href="classene_1_1views_1_1AbstractPartialView.html" target="_top" xlink:title="{ene::views::AbstractPartial\lView\&lt; JPanel, TrackListModel \&gt;\n||+ setModel()\l+ getModel()\l}">
<polygon fill="none" stroke="#000000" points="231.5,-343.5 231.5,-422.5 390.5,-422.5 390.5,-343.5 231.5,-343.5"/>
<text text-anchor="start" x="239.5" y="-410.5" font-family="Helvetica,sans-Serif" font-size="10.00" fill="#000000">ene::views::AbstractPartial</text>
<text text-anchor="middle" x="311" y="-399.5" font-family="Helvetica,sans-Serif" font-size="10.00" fill="#000000">View&lt; JPanel, TrackListModel &gt;</text>
<polyline fill="none" stroke="#000000" points="231.5,-392.5 390.5,-392.5 "/>
<text text-anchor="middle" x="311" y="-380.5" font-family="Helvetica,sans-Serif" font-size="10.00" fill="#000000"> </text>
<polyline fill="none" stroke="#000000" points="231.5,-373.5 390.5,-373.5 "/>
<text text-anchor="start" x="239.5" y="-361.5" font-family="Helvetica,sans-Serif" font-size="10.00" fill="#000000">+ setModel()</text>
<text text-anchor="start" x="239.5" y="-350.5" font-family="Helvetica,sans-Serif" font-size="10.00" fill="#000000">+ getModel()</text>
</a>
</g>
</g>
<!-- Node10&#45;&gt;Node9 -->
<g id="edge1" class="edge">
<title>Node10&#45;&gt;Node9</title>
<path fill="none" stroke="#191970" d="M325.7834,-333.5132C338.4155,-297.537 359.4417,-249.3277 390,-215 428.0586,-172.2468 483.3839,-138.6076 527.8346,-116.1264"/>
<polygon fill="none" stroke="#191970" points="322.3562,-332.7197 322.4422,-343.3142 328.9818,-334.9785 322.3562,-332.7197"/>
</g>
<!-- Node11 -->
<g id="node3" class="node">
<title>Node11</title>
<g id="a_node3"><a xlink:href="classene_1_1views_1_1AbstractView.html" target="_top" xlink:title="{ene::views::AbstractView\l\&lt; CoreComponentType \&gt;\n||+ setTitle()\l+ getTitle()\l+ setCoreComponent()\l+ getCoreComponent()\l+ setLayoutPosition()\l+ getLayoutPosition()\l}">
<polygon fill="none" stroke="#000000" points="229,-470.5 229,-593.5 357,-593.5 357,-470.5 229,-470.5"/>
<text text-anchor="start" x="237" y="-581.5" font-family="Helvetica,sans-Serif" font-size="10.00" fill="#000000">ene::views::AbstractView</text>
<text text-anchor="middle" x="293" y="-570.5" font-family="Helvetica,sans-Serif" font-size="10.00" fill="#000000">&lt; CoreComponentType &gt;</text>
<polyline fill="none" stroke="#000000" points="229,-563.5 357,-563.5 "/>
<text text-anchor="middle" x="293" y="-551.5" font-family="Helvetica,sans-Serif" font-size="10.00" fill="#000000"> </text>
<polyline fill="none" stroke="#000000" points="229,-544.5 357,-544.5 "/>
<text text-anchor="start" x="237" y="-532.5" font-family="Helvetica,sans-Serif" font-size="10.00" fill="#000000">+ setTitle()</text>
<text text-anchor="start" x="237" y="-521.5" font-family="Helvetica,sans-Serif" font-size="10.00" fill="#000000">+ getTitle()</text>
<text text-anchor="start" x="237" y="-510.5" font-family="Helvetica,sans-Serif" font-size="10.00" fill="#000000">+ setCoreComponent()</text>
<text text-anchor="start" x="237" y="-499.5" font-family="Helvetica,sans-Serif" font-size="10.00" fill="#000000">+ getCoreComponent()</text>
<text text-anchor="start" x="237" y="-488.5" font-family="Helvetica,sans-Serif" font-size="10.00" fill="#000000">+ setLayoutPosition()</text>
<text text-anchor="start" x="237" y="-477.5" font-family="Helvetica,sans-Serif" font-size="10.00" fill="#000000">+ getLayoutPosition()</text>
</a>
</g>
</g>
<!-- Node11&#45;&gt;Node10 -->
<g id="edge2" class="edge">
<title>Node11&#45;&gt;Node10</title>
<path fill="none" stroke="#191970" d="M301.7091,-459.9078C303.2526,-447.1316 304.8074,-434.2609 306.1919,-422.8008"/>
<polygon fill="none" stroke="#191970" points="298.2019,-459.7574 300.4772,-470.105 305.1514,-460.597 298.2019,-459.7574"/>
</g>
<!-- Node12 -->
<g id="node4" class="node">
<title>Node12</title>
<g id="a_node4"><a xlink:href="classene_1_1AbstractObject.html" target="_top" xlink:title="{ene.AbstractObject\n||+ enableDebugMode()\l+ disableDebugMode()\l+ isDebugModeEnabled()\l+ debugInfoAbout()\l+ consoleOutput()\l# delay()\l}">
<polygon fill="none" stroke="#000000" points="485.5,-663.5 485.5,-775.5 612.5,-775.5 612.5,-663.5 485.5,-663.5"/>
<text text-anchor="middle" x="549" y="-763.5" font-family="Helvetica,sans-Serif" font-size="10.00" fill="#000000">ene.AbstractObject</text>
<polyline fill="none" stroke="#000000" points="485.5,-756.5 612.5,-756.5 "/>
<text text-anchor="middle" x="549" y="-744.5" font-family="Helvetica,sans-Serif" font-size="10.00" fill="#000000"> </text>
<polyline fill="none" stroke="#000000" points="485.5,-737.5 612.5,-737.5 "/>
<text text-anchor="start" x="493.5" y="-725.5" font-family="Helvetica,sans-Serif" font-size="10.00" fill="#000000">+ enableDebugMode()</text>
<text text-anchor="start" x="493.5" y="-714.5" font-family="Helvetica,sans-Serif" font-size="10.00" fill="#000000">+ disableDebugMode()</text>
<text text-anchor="start" x="493.5" y="-703.5" font-family="Helvetica,sans-Serif" font-size="10.00" fill="#000000">+ isDebugModeEnabled()</text>
<text text-anchor="start" x="493.5" y="-692.5" font-family="Helvetica,sans-Serif" font-size="10.00" fill="#000000">+ debugInfoAbout()</text>
<text text-anchor="start" x="493.5" y="-681.5" font-family="Helvetica,sans-Serif" font-size="10.00" fill="#000000">+ consoleOutput()</text>
<text text-anchor="start" x="493.5" y="-670.5" font-family="Helvetica,sans-Serif" font-size="10.00" fill="#000000"># delay()</text>
</a>
</g>
</g>
<!-- Node12&#45;&gt;Node11 -->
<g id="edge3" class="edge">
<title>Node12&#45;&gt;Node11</title>
<path fill="none" stroke="#191970" d="M482.0953,-656.865C480.0576,-655.2062 478.0231,-653.581 476,-652 438.1313,-622.407 393.0035,-592.7592 357.0372,-570.3366"/>
<polygon fill="none" stroke="#191970" points="480.0292,-659.6991 489.9535,-663.4084 484.5084,-654.3198 480.0292,-659.6991"/>
</g>
<!-- Node24 -->
<g id="node16" class="node">
<title>Node24</title>
<g id="a_node16"><a xlink:href="classene_1_1controllers_1_1AbstractController.html" target="_top" xlink:title="{ene.controllers.Abstract\lController\&lt; ModelType \&gt;\n||+ setModel()\l+ getModel()\l}">
<polygon fill="none" stroke="#000000" points="620.5,-492.5 620.5,-571.5 745.5,-571.5 745.5,-492.5 620.5,-492.5"/>
<text text-anchor="start" x="628.5" y="-559.5" font-family="Helvetica,sans-Serif" font-size="10.00" fill="#000000">ene.controllers.Abstract</text>
<text text-anchor="middle" x="683" y="-548.5" font-family="Helvetica,sans-Serif" font-size="10.00" fill="#000000">Controller&lt; ModelType &gt;</text>
<polyline fill="none" stroke="#000000" points="620.5,-541.5 745.5,-541.5 "/>
<text text-anchor="middle" x="683" y="-529.5" font-family="Helvetica,sans-Serif" font-size="10.00" fill="#000000"> </text>
<polyline fill="none" stroke="#000000" points="620.5,-522.5 745.5,-522.5 "/>
<text text-anchor="start" x="628.5" y="-510.5" font-family="Helvetica,sans-Serif" font-size="10.00" fill="#000000">+ setModel()</text>
<text text-anchor="start" x="628.5" y="-499.5" font-family="Helvetica,sans-Serif" font-size="10.00" fill="#000000">+ getModel()</text>
</a>
</g>
</g>
<!-- Node12&#45;&gt;Node24 -->
<g id="edge17" class="edge">
<title>Node12&#45;&gt;Node24</title>
<path fill="none" stroke="#191970" d="M595.0705,-655.0357C614.8657,-627.3372 637.3705,-595.8472 654.6569,-571.6592"/>
<polygon fill="none" stroke="#191970" points="591.9898,-653.3268 589.0229,-663.4978 597.6849,-657.397 591.9898,-653.3268"/>
</g>
<!-- Node13 -->
<g id="node5" class="node">
<title>Node13</title>
<polygon fill="none" stroke="#bfbfbf" points="510.5,-834.5 510.5,-891.5 587.5,-891.5 587.5,-834.5 510.5,-834.5"/>
<text text-anchor="middle" x="549" y="-879.5" font-family="Helvetica,sans-Serif" font-size="10.00" fill="#000000">static boolean</text>
<polyline fill="none" stroke="#bfbfbf" points="510.5,-872.5 587.5,-872.5 "/>
<text text-anchor="middle" x="549" y="-860.5" font-family="Helvetica,sans-Serif" font-size="10.00" fill="#000000"> </text>
<polyline fill="none" stroke="#bfbfbf" points="510.5,-853.5 587.5,-853.5 "/>
<text text-anchor="middle" x="549" y="-841.5" font-family="Helvetica,sans-Serif" font-size="10.00" fill="#000000"> </text>
</g>
<!-- Node13&#45;&gt;Node12 -->
<g id="edge4" class="edge">
<title>Node13&#45;&gt;Node12</title>
<path fill="none" stroke="#404040" d="M549,-834.3055C549,-820.9442 549,-804.4218 549,-788.1157"/>
<polygon fill="none" stroke="#404040" points="549.0001,-787.7445 545,-781.7445 549,-775.7445 553,-781.7444 549.0001,-787.7445"/>
<text text-anchor="middle" x="596" y="-808" font-family="Helvetica,sans-Serif" font-size="10.00" fill="#000000"> #debugModeEnabled</text>
</g>
<!-- Node14 -->
<g id="node6" class="node">
<title>Node14</title>
<g id="a_node6"><a xlink:href="interfaceene_1_1interfaces_1_1View.html" target="_top" xlink:title="{ene::interfaces::View\l\&lt; CoreComponentType \&gt;\n||+ setTitle()\l+ getTitle()\l+ setCoreComponent()\l+ getCoreComponent()\l+ setLayoutPosition()\l+ getLayoutPosition()\l+ render()\l}">
<polygon fill="none" stroke="#000000" points="0,-652.5 0,-786.5 128,-786.5 128,-652.5 0,-652.5"/>
<text text-anchor="start" x="8" y="-774.5" font-family="Helvetica,sans-Serif" font-size="10.00" fill="#000000">ene::interfaces::View</text>
<text text-anchor="middle" x="64" y="-763.5" font-family="Helvetica,sans-Serif" font-size="10.00" fill="#000000">&lt; CoreComponentType &gt;</text>
<polyline fill="none" stroke="#000000" points="0,-756.5 128,-756.5 "/>
<text text-anchor="middle" x="64" y="-744.5" font-family="Helvetica,sans-Serif" font-size="10.00" fill="#000000"> </text>
<polyline fill="none" stroke="#000000" points="0,-737.5 128,-737.5 "/>
<text text-anchor="start" x="8" y="-725.5" font-family="Helvetica,sans-Serif" font-size="10.00" fill="#000000">+ setTitle()</text>
<text text-anchor="start" x="8" y="-714.5" font-family="Helvetica,sans-Serif" font-size="10.00" fill="#000000">+ getTitle()</text>
<text text-anchor="start" x="8" y="-703.5" font-family="Helvetica,sans-Serif" font-size="10.00" fill="#000000">+ setCoreComponent()</text>
<text text-anchor="start" x="8" y="-692.5" font-family="Helvetica,sans-Serif" font-size="10.00" fill="#000000">+ getCoreComponent()</text>
<text text-anchor="start" x="8" y="-681.5" font-family="Helvetica,sans-Serif" font-size="10.00" fill="#000000">+ setLayoutPosition()</text>
<text text-anchor="start" x="8" y="-670.5" font-family="Helvetica,sans-Serif" font-size="10.00" fill="#000000">+ getLayoutPosition()</text>
<text text-anchor="start" x="8" y="-659.5" font-family="Helvetica,sans-Serif" font-size="10.00" fill="#000000">+ render()</text>
</a>
</g>
</g>
<!-- Node14&#45;&gt;Node11 -->
<g id="edge5" class="edge">
<title>Node14&#45;&gt;Node11</title>
<path fill="none" stroke="#191970" d="M135.9141,-652.927C136.2767,-652.6169 136.6387,-652.3079 137,-652 166.3895,-626.9584 200.2286,-600.6431 228.8628,-579.0577"/>
<polygon fill="none" stroke="#191970" points="133.4971,-650.3902 128.2302,-659.5831 138.0803,-655.6812 133.4971,-650.3902"/>
</g>
<!-- Node19 -->
<g id="node11" class="node">
<title>Node19</title>
<g id="a_node11"><a xlink:href="interfaceene_1_1interfaces_1_1PartialView.html" target="_top" xlink:title="{ene::interfaces::Partial\lView\&lt; CoreComponentType,\l ModelType \&gt;\n||+ setModel()\l+ getModel()\l+ update()\l}">
<polygon fill="none" stroke="#000000" points="41.5,-481.5 41.5,-582.5 184.5,-582.5 184.5,-481.5 41.5,-481.5"/>
<text text-anchor="start" x="49.5" y="-570.5" font-family="Helvetica,sans-Serif" font-size="10.00" fill="#000000">ene::interfaces::Partial</text>
<text text-anchor="start" x="49.5" y="-559.5" font-family="Helvetica,sans-Serif" font-size="10.00" fill="#000000">View&lt; CoreComponentType,</text>
<text text-anchor="middle" x="113" y="-548.5" font-family="Helvetica,sans-Serif" font-size="10.00" fill="#000000"> ModelType &gt;</text>
<polyline fill="none" stroke="#000000" points="41.5,-541.5 184.5,-541.5 "/>
<text text-anchor="middle" x="113" y="-529.5" font-family="Helvetica,sans-Serif" font-size="10.00" fill="#000000"> </text>
<polyline fill="none" stroke="#000000" points="41.5,-522.5 184.5,-522.5 "/>
<text text-anchor="start" x="49.5" y="-510.5" font-family="Helvetica,sans-Serif" font-size="10.00" fill="#000000">+ setModel()</text>
<text text-anchor="start" x="49.5" y="-499.5" font-family="Helvetica,sans-Serif" font-size="10.00" fill="#000000">+ getModel()</text>
<text text-anchor="start" x="49.5" y="-488.5" font-family="Helvetica,sans-Serif" font-size="10.00" fill="#000000">+ update()</text>
</a>
</g>
</g>
<!-- Node14&#45;&gt;Node19 -->
<g id="edge11" class="edge">
<title>Node14&#45;&gt;Node19</title>
<path fill="none" stroke="#191970" d="M84.1205,-642.5084C89.4083,-622.2742 94.9775,-600.9635 99.7991,-582.5135"/>
<polygon fill="none" stroke="#191970" points="80.6939,-641.7777 81.5517,-652.3378 87.4665,-643.5477 80.6939,-641.7777"/>
</g>
<!-- Node15 -->
<g id="node7" class="node">
<title>Node15</title>
<g id="a_node7"><a xlink:href="interfaceene_1_1interfaces_1_1Localization.html" target="_top" xlink:title="{ene.interfaces.Localization\n||+ getString()\l}">
<polygon fill="none" stroke="#000000" points="334.5,-691 334.5,-748 467.5,-748 467.5,-691 334.5,-691"/>
<text text-anchor="middle" x="401" y="-736" font-family="Helvetica,sans-Serif" font-size="10.00" fill="#000000">ene.interfaces.Localization</text>
<polyline fill="none" stroke="#000000" points="334.5,-729 467.5,-729 "/>
<text text-anchor="middle" x="401" y="-717" font-family="Helvetica,sans-Serif" font-size="10.00" fill="#000000"> </text>
<polyline fill="none" stroke="#000000" points="334.5,-710 467.5,-710 "/>
<text text-anchor="start" x="342.5" y="-698" font-family="Helvetica,sans-Serif" font-size="10.00" fill="#000000">+ getString()</text>
</a>
</g>
</g>
<!-- Node15&#45;&gt;Node11 -->
<g id="edge6" class="edge">
<title>Node15&#45;&gt;Node11</title>
<path fill="none" stroke="#191970" d="M390.3563,-681.2543C383.5863,-660.0402 373.6959,-633.6507 361,-612 357.4039,-605.8675 353.3254,-599.7469 348.9948,-593.7767"/>
<polygon fill="none" stroke="#191970" points="387.0416,-682.3827 393.3368,-690.9046 393.7299,-680.317 387.0416,-682.3827"/>
</g>
<!-- Node16 -->
<g id="node8" class="node">
<title>Node16</title>
<polygon fill="none" stroke="#bfbfbf" points="356,-834.5 356,-891.5 446,-891.5 446,-834.5 356,-834.5"/>
<text text-anchor="middle" x="401" y="-879.5" font-family="Helvetica,sans-Serif" font-size="10.00" fill="#000000">static final String</text>
<polyline fill="none" stroke="#bfbfbf" points="356,-872.5 446,-872.5 "/>
<text text-anchor="middle" x="401" y="-860.5" font-family="Helvetica,sans-Serif" font-size="10.00" fill="#000000"> </text>
<polyline fill="none" stroke="#bfbfbf" points="356,-853.5 446,-853.5 "/>
<text text-anchor="middle" x="401" y="-841.5" font-family="Helvetica,sans-Serif" font-size="10.00" fill="#000000"> </text>
</g>
<!-- Node16&#45;&gt;Node15 -->
<g id="edge7" class="edge">
<title>Node16&#45;&gt;Node15</title>
<path fill="none" stroke="#404040" d="M401,-834.3055C401,-813.0904 401,-783.9058 401,-760.2714"/>
<polygon fill="none" stroke="#404040" points="401.0001,-760.1447 397,-754.1448 401,-748.1447 405,-754.1447 401.0001,-760.1447"/>
<text text-anchor="middle" x="451" y="-808" font-family="Helvetica,sans-Serif" font-size="10.00" fill="#000000"> +DEFAULT_LOCALE</text>
</g>
<!-- Node17 -->
<g id="node9" class="node">
<title>Node17</title>
<polygon fill="none" stroke="#bfbfbf" points="146,-691 146,-748 188,-748 188,-691 146,-691"/>
<text text-anchor="middle" x="167" y="-736" font-family="Helvetica,sans-Serif" font-size="10.00" fill="#000000">String</text>
<polyline fill="none" stroke="#bfbfbf" points="146,-729 188,-729 "/>
<text text-anchor="middle" x="167" y="-717" font-family="Helvetica,sans-Serif" font-size="10.00" fill="#000000"> </text>
<polyline fill="none" stroke="#bfbfbf" points="146,-710 188,-710 "/>
<text text-anchor="middle" x="167" y="-698" font-family="Helvetica,sans-Serif" font-size="10.00" fill="#000000"> </text>
</g>
<!-- Node17&#45;&gt;Node11 -->
<g id="edge8" class="edge">
<title>Node17&#45;&gt;Node11</title>
<path fill="none" stroke="#404040" d="M172.3502,-690.7604C177.5526,-668.0048 187.0561,-636.1428 203,-612 207.9106,-604.5642 213.6811,-597.3866 219.8889,-590.5875"/>
<polygon fill="none" stroke="#404040" points="220.2592,-590.2032 221.5419,-583.1071 228.5855,-581.5619 227.3028,-588.658 220.2592,-590.2032"/>
<text text-anchor="middle" x="238" y="-626" font-family="Helvetica,sans-Serif" font-size="10.00" fill="#000000"> #layoutPosition</text>
<text text-anchor="middle" x="238" y="-615" font-family="Helvetica,sans-Serif" font-size="10.00" fill="#000000">#title</text>
</g>
<!-- Node18 -->
<g id="node10" class="node">
<title>Node18</title>
<polygon fill="none" stroke="#bfbfbf" points="206,-691 206,-748 316,-748 316,-691 206,-691"/>
<text text-anchor="middle" x="261" y="-736" font-family="Helvetica,sans-Serif" font-size="10.00" fill="#000000">CoreComponentType</text>
<polyline fill="none" stroke="#bfbfbf" points="206,-729 316,-729 "/>
<text text-anchor="middle" x="261" y="-717" font-family="Helvetica,sans-Serif" font-size="10.00" fill="#000000"> </text>
<polyline fill="none" stroke="#bfbfbf" points="206,-710 316,-710 "/>
<text text-anchor="middle" x="261" y="-698" font-family="Helvetica,sans-Serif" font-size="10.00" fill="#000000"> </text>
</g>
<!-- Node18&#45;&gt;Node11 -->
<g id="edge9" class="edge">
<title>Node18&#45;&gt;Node11</title>
<path fill="none" stroke="#404040" d="M265.9299,-690.614C269.7975,-667.9523 275.3577,-635.3726 280.434,-605.6287"/>
<polygon fill="none" stroke="#404040" points="280.4801,-605.3584 277.5465,-598.7709 282.499,-593.5294 285.4325,-600.1168 280.4801,-605.3584"/>
<text text-anchor="middle" x="318" y="-620.5" font-family="Helvetica,sans-Serif" font-size="10.00" fill="#000000"> #coreComponent</text>
</g>
<!-- Node19&#45;&gt;Node10 -->
<g id="edge10" class="edge">
<title>Node19&#45;&gt;Node10</title>
<path fill="none" stroke="#191970" d="M188.4574,-475.2164C211.7344,-457.6999 236.8546,-438.7963 258.2551,-422.6919"/>
<polygon fill="none" stroke="#191970" points="186.1958,-472.5379 180.3101,-481.3475 190.4049,-478.1312 186.1958,-472.5379"/>
</g>
<!-- Node20 -->
<g id="node12" class="node">
<title>Node20</title>
<polygon fill="none" stroke="#bfbfbf" points="630.5,-691 630.5,-748 695.5,-748 695.5,-691 630.5,-691"/>
<text text-anchor="middle" x="663" y="-736" font-family="Helvetica,sans-Serif" font-size="10.00" fill="#000000">ModelType</text>
<polyline fill="none" stroke="#bfbfbf" points="630.5,-729 695.5,-729 "/>
<text text-anchor="middle" x="663" y="-717" font-family="Helvetica,sans-Serif" font-size="10.00" fill="#000000"> </text>
<polyline fill="none" stroke="#bfbfbf" points="630.5,-710 695.5,-710 "/>
<text text-anchor="middle" x="663" y="-698" font-family="Helvetica,sans-Serif" font-size="10.00" fill="#000000"> </text>
</g>
<!-- Node20&#45;&gt;Node10 -->
<g id="edge12" class="edge">
<title>Node20&#45;&gt;Node10</title>
<path fill="none" stroke="#404040" d="M648.2758,-690.9207C641.1627,-678.3708 632.0022,-663.8325 622,-652 547.589,-563.9723 443.3276,-479.9778 376.4698,-429.9459"/>
<polygon fill="none" stroke="#404040" points="376.1064,-429.6756 368.9049,-429.3038 366.4782,-422.5133 373.6797,-422.885 376.1064,-429.6756"/>
<text text-anchor="middle" x="584.5" y="-529.5" font-family="Helvetica,sans-Serif" font-size="10.00" fill="#000000"> #model</text>
</g>
<!-- Node20&#45;&gt;Node24 -->
<g id="edge19" class="edge">
<title>Node20&#45;&gt;Node24</title>
<path fill="none" stroke="#404040" d="M666.0812,-690.614C669.1064,-662.2523 673.7887,-618.3557 677.4613,-583.9257"/>
<polygon fill="none" stroke="#404040" points="677.4908,-583.6479 674.1498,-577.2574 678.7637,-571.7156 682.1047,-578.106 677.4908,-583.6479"/>
<text text-anchor="middle" x="691.5" y="-620.5" font-family="Helvetica,sans-Serif" font-size="10.00" fill="#000000"> #model</text>
</g>
<!-- Node21 -->
<g id="node13" class="node">
<title>Node21</title>
<polygon fill="none" stroke="#bfbfbf" points="399.5,-232 399.5,-289 506.5,-289 506.5,-232 399.5,-232"/>
<text text-anchor="middle" x="453" y="-277" font-family="Helvetica,sans-Serif" font-size="10.00" fill="#000000">ListSelectionListener</text>
<polyline fill="none" stroke="#bfbfbf" points="399.5,-270 506.5,-270 "/>
<text text-anchor="middle" x="453" y="-258" font-family="Helvetica,sans-Serif" font-size="10.00" fill="#000000"> </text>
<polyline fill="none" stroke="#bfbfbf" points="399.5,-251 506.5,-251 "/>
<text text-anchor="middle" x="453" y="-239" font-family="Helvetica,sans-Serif" font-size="10.00" fill="#000000"> </text>
</g>
<!-- Node21&#45;&gt;Node9 -->
<g id="edge13" class="edge">
<title>Node21&#45;&gt;Node9</title>
<path fill="none" stroke="#191970" d="M483.6068,-223.9993C497.3825,-207.5709 514.2605,-187.4427 530.8771,-167.6264"/>
<polygon fill="none" stroke="#191970" points="480.8516,-221.8379 477.1081,-231.7494 486.2154,-226.3356 480.8516,-221.8379"/>
</g>
<!-- Node22 -->
<g id="node14" class="node">
<title>Node22</title>
<g id="a_node14"><a xlink:href="classene_1_1controllers_1_1PlayerController.html" target="_top" xlink:title="{ene.controllers.PlayerController\n||+ PlayerController()\l+ changeTrackPosition()\l+ load()\l+ togglePlayback()\l}">
<polygon fill="none" stroke="#000000" points="524.5,-215.5 524.5,-305.5 677.5,-305.5 677.5,-215.5 524.5,-215.5"/>
<text text-anchor="middle" x="601" y="-293.5" font-family="Helvetica,sans-Serif" font-size="10.00" fill="#000000">ene.controllers.PlayerController</text>
<polyline fill="none" stroke="#000000" points="524.5,-286.5 677.5,-286.5 "/>
<text text-anchor="middle" x="601" y="-274.5" font-family="Helvetica,sans-Serif" font-size="10.00" fill="#000000"> </text>
<polyline fill="none" stroke="#000000" points="524.5,-267.5 677.5,-267.5 "/>
<text text-anchor="start" x="532.5" y="-255.5" font-family="Helvetica,sans-Serif" font-size="10.00" fill="#000000">+ PlayerController()</text>
<text text-anchor="start" x="532.5" y="-244.5" font-family="Helvetica,sans-Serif" font-size="10.00" fill="#000000">+ changeTrackPosition()</text>
<text text-anchor="start" x="532.5" y="-233.5" font-family="Helvetica,sans-Serif" font-size="10.00" fill="#000000">+ load()</text>
<text text-anchor="start" x="532.5" y="-222.5" font-family="Helvetica,sans-Serif" font-size="10.00" fill="#000000">+ togglePlayback()</text>
</a>
</g>
</g>
<!-- Node22&#45;&gt;Node9 -->
<g id="edge14" class="edge">
<title>Node22&#45;&gt;Node9</title>
<path fill="none" stroke="#404040" d="M601,-215.0469C601,-204.169 601,-192.1464 601,-179.926"/>
<polygon fill="none" stroke="#404040" points="601.0001,-179.6748 597,-173.6748 601,-167.6748 605,-173.6747 601.0001,-179.6748"/>
<text text-anchor="middle" x="639.5" y="-189" font-family="Helvetica,sans-Serif" font-size="10.00" fill="#000000"> #playerController</text>
</g>
<!-- Node23 -->
<g id="node15" class="node">
<title>Node23</title>
<g id="a_node15"><a xlink:href="classene_1_1controllers_1_1AbstractController.html" target="_top" xlink:title="{ene.controllers.Abstract\lController\&lt; PlayerModel \&gt;\n|# model\l|+ setModel()\l+ getModel()\l}">
<polygon fill="none" stroke="#000000" points="571.5,-343.5 571.5,-422.5 702.5,-422.5 702.5,-343.5 571.5,-343.5"/>
<text text-anchor="start" x="579.5" y="-410.5" font-family="Helvetica,sans-Serif" font-size="10.00" fill="#000000">ene.controllers.Abstract</text>
<text text-anchor="middle" x="637" y="-399.5" font-family="Helvetica,sans-Serif" font-size="10.00" fill="#000000">Controller&lt; PlayerModel &gt;</text>
<polyline fill="none" stroke="#000000" points="571.5,-392.5 702.5,-392.5 "/>
<text text-anchor="start" x="579.5" y="-380.5" font-family="Helvetica,sans-Serif" font-size="10.00" fill="#000000"># model</text>
<polyline fill="none" stroke="#000000" points="571.5,-373.5 702.5,-373.5 "/>
<text text-anchor="start" x="579.5" y="-361.5" font-family="Helvetica,sans-Serif" font-size="10.00" fill="#000000">+ setModel()</text>
<text text-anchor="start" x="579.5" y="-350.5" font-family="Helvetica,sans-Serif" font-size="10.00" fill="#000000">+ getModel()</text>
</a>
</g>
</g>
<!-- Node23&#45;&gt;Node22 -->
<g id="edge15" class="edge">
<title>Node23&#45;&gt;Node22</title>
<path fill="none" stroke="#191970" d="M622.4314,-333.4264C619.7269,-324.2235 616.9151,-314.6555 614.2525,-305.5953"/>
<polygon fill="none" stroke="#191970" points="619.1342,-334.6203 625.3118,-343.2278 625.8502,-332.6466 619.1342,-334.6203"/>
</g>
<!-- Node24&#45;&gt;Node23 -->
<g id="edge16" class="edge">
<title>Node24&#45;&gt;Node23</title>
<path fill="none" stroke="#ffa500" d="M667.8201,-482.8303C661.7978,-463.3232 654.9634,-441.186 649.2634,-422.7228"/>
<polygon fill="#ffa500" stroke="#ffa500" points="664.4994,-483.9394 670.7936,-492.4619 671.1879,-481.8744 664.4994,-483.9394"/>
<text text-anchor="middle" x="695" y="-444" font-family="Helvetica,sans-Serif" font-size="10.00" fill="#000000"> &lt; PlayerModel &gt;</text>
</g>
<!-- Node25 -->
<g id="node17" class="node">
<title>Node25</title>
<g id="a_node17"><a xlink:href="interfaceene_1_1interfaces_1_1Controller.html" target="_top" xlink:title="{ene::interfaces::Controller\l\&lt; ModelType \&gt;\n||+ setModel()\l+ getModel()\l}">
<polygon fill="none" stroke="#000000" points="713.5,-680 713.5,-759 842.5,-759 842.5,-680 713.5,-680"/>
<text text-anchor="start" x="721.5" y="-747" font-family="Helvetica,sans-Serif" font-size="10.00" fill="#000000">ene::interfaces::Controller</text>
<text text-anchor="middle" x="778" y="-736" font-family="Helvetica,sans-Serif" font-size="10.00" fill="#000000">&lt; ModelType &gt;</text>
<polyline fill="none" stroke="#000000" points="713.5,-729 842.5,-729 "/>
<text text-anchor="middle" x="778" y="-717" font-family="Helvetica,sans-Serif" font-size="10.00" fill="#000000"> </text>
<polyline fill="none" stroke="#000000" points="713.5,-710 842.5,-710 "/>
<text text-anchor="start" x="721.5" y="-698" font-family="Helvetica,sans-Serif" font-size="10.00" fill="#000000">+ setModel()</text>
<text text-anchor="start" x="721.5" y="-687" font-family="Helvetica,sans-Serif" font-size="10.00" fill="#000000">+ getModel()</text>
</a>
</g>
</g>
<!-- Node25&#45;&gt;Node24 -->
<g id="edge18" class="edge">
<title>Node25&#45;&gt;Node24</title>
<path fill="none" stroke="#191970" d="M753.1611,-670.4758C737.5687,-639.7014 717.7215,-600.5292 703.118,-571.7066"/>
<polygon fill="none" stroke="#191970" points="750.2111,-672.3976 757.8529,-679.7361 756.4554,-669.2338 750.2111,-672.3976"/>
</g>
<!-- Node26 -->
<g id="node18" class="node">
<title>Node26</title>
<polygon fill="none" stroke="#bfbfbf" points="696,-232 696,-289 794,-289 794,-232 696,-232"/>
<text text-anchor="middle" x="745" y="-277" font-family="Helvetica,sans-Serif" font-size="10.00" fill="#000000">DefaultTableModel</text>
<polyline fill="none" stroke="#bfbfbf" points="696,-270 794,-270 "/>
<text text-anchor="middle" x="745" y="-258" font-family="Helvetica,sans-Serif" font-size="10.00" fill="#000000"> </text>
<polyline fill="none" stroke="#bfbfbf" points="696,-251 794,-251 "/>
<text text-anchor="middle" x="745" y="-239" font-family="Helvetica,sans-Serif" font-size="10.00" fill="#000000"> </text>
</g>
<!-- Node26&#45;&gt;Node9 -->
<g id="edge20" class="edge">
<title>Node26&#45;&gt;Node9</title>
<path fill="none" stroke="#404040" d="M721.5434,-231.7494C709.1595,-216.5705 693.1892,-196.9958 676.9502,-177.0917"/>
<polygon fill="none" stroke="#404040" points="676.8137,-176.9244 669.9214,-174.804 669.2277,-167.6264 676.1201,-169.7467 676.8137,-176.9244"/>
<text text-anchor="middle" x="722" y="-189" font-family="Helvetica,sans-Serif" font-size="10.00" fill="#000000"> #tableContent</text>
</g>
<!-- Node27 -->
<g id="node19" class="node">
<title>Node27</title>
<polygon fill="none" stroke="#bfbfbf" points="812,-232 812,-289 858,-289 858,-232 812,-232"/>
<text text-anchor="middle" x="835" y="-277" font-family="Helvetica,sans-Serif" font-size="10.00" fill="#000000">JTable</text>
<polyline fill="none" stroke="#bfbfbf" points="812,-270 858,-270 "/>
<text text-anchor="middle" x="835" y="-258" font-family="Helvetica,sans-Serif" font-size="10.00" fill="#000000"> </text>
<polyline fill="none" stroke="#bfbfbf" points="812,-251 858,-251 "/>
<text text-anchor="middle" x="835" y="-239" font-family="Helvetica,sans-Serif" font-size="10.00" fill="#000000"> </text>
</g>
<!-- Node27&#45;&gt;Node9 -->
<g id="edge21" class="edge">
<title>Node27&#45;&gt;Node9</title>
<path fill="none" stroke="#404040" d="M817.2806,-231.7244C812.9928,-225.8506 808.1474,-219.9574 803,-215 768.0506,-181.3408 723.261,-151.2708 684.742,-128.456"/>
<polygon fill="none" stroke="#404040" points="684.4199,-128.2679 677.2215,-128.6964 674.0574,-122.2165 681.2557,-121.7881 684.4199,-128.2679"/>
<text text-anchor="middle" x="793" y="-189" font-family="Helvetica,sans-Serif" font-size="10.00" fill="#000000"> #table</text>
</g>
</g>
</svg>
