<?xml version="1.0" encoding="UTF-8" standalone="no"?>
<!DOCTYPE svg PUBLIC "-//W3C//DTD SVG 1.1//EN"
 "http://www.w3.org/Graphics/SVG/1.1/DTD/svg11.dtd">
<!-- Generated by graphviz version 2.40.1 (20161225.0304)
 -->
<!-- Title: ene.views.gui.partial.PlayerView.PlayerView Pages: 1 -->
<svg width="729pt" height="382pt"
 viewBox="0.00 0.00 729.00 382.00" xmlns="http://www.w3.org/2000/svg" xmlns:xlink="http://www.w3.org/1999/xlink">
<g id="graph0" class="graph" transform="scale(1 1) rotate(0) translate(4 378)">
<title>ene.views.gui.partial.PlayerView.PlayerView</title>
<!-- Node0 -->
<g id="node1" class="node">
<title>Node0</title>
<polygon fill="#bfbfbf" stroke="#000000" points="0,-122.5 0,-152.5 137,-152.5 137,-122.5 0,-122.5"/>
<text text-anchor="start" x="8" y="-140.5" font-family="Helvetica,sans-Serif" font-size="10.00" fill="#000000">ene.views.gui.partial.Player</text>
<text text-anchor="middle" x="68.5" y="-129.5" font-family="Helvetica,sans-Serif" font-size="10.00" fill="#000000">View.PlayerView</text>
</g>
<!-- Node1 -->
<g id="node2" class="node">
<title>Node1</title>
<g id="a_node2"><a xlink:href="interfaceene_1_1interfaces_1_1Model.html#a6b798cea60bb1fa4a366b22af566f3e8" target="_top" xlink:title="ene.interfaces.Model.addView">
<polygon fill="none" stroke="#000000" points="173,-221 173,-240 321,-240 321,-221 173,-221"/>
<text text-anchor="middle" x="247" y="-228" font-family="Helvetica,sans-Serif" font-size="10.00" fill="#000000">ene.interfaces.Model.addView</text>
</a>
</g>
</g>
<!-- Node0&#45;&gt;Node1 -->
<g id="edge1" class="edge">
<title>Node0&#45;&gt;Node1</title>
<path fill="none" stroke="#191970" d="M85.75,-152.7569C105.5163,-169.4802 139.5146,-195.9908 173,-211.5 178.243,-213.9284 183.8445,-216.0805 189.5305,-217.98"/>
<polygon fill="#191970" stroke="#191970" points="188.5438,-221.3383 199.1313,-220.9425 190.6079,-214.6495 188.5438,-221.3383"/>
</g>
<!-- Node2 -->
<g id="node3" class="node">
<title>Node2</title>
<g id="a_node3"><a xlink:href="classene_1_1views_1_1gui_1_1partial_1_1PlayerView.html#a6a20ce866e62ced7476b666fe891b10a" target="_top" xlink:title="ene.views.gui.partial.Player\lView.initialize">
<polygon fill="none" stroke="#000000" points="178.5,-171.5 178.5,-201.5 315.5,-201.5 315.5,-171.5 178.5,-171.5"/>
<text text-anchor="start" x="186.5" y="-189.5" font-family="Helvetica,sans-Serif" font-size="10.00" fill="#000000">ene.views.gui.partial.Player</text>
<text text-anchor="middle" x="247" y="-178.5" font-family="Helvetica,sans-Serif" font-size="10.00" fill="#000000">View.initialize</text>
</a>
</g>
</g>
<!-- Node0&#45;&gt;Node2 -->
<g id="edge2" class="edge">
<title>Node0&#45;&gt;Node2</title>
<path fill="none" stroke="#191970" d="M123.5124,-152.6014C142.0926,-157.7019 163.0063,-163.4429 182.2682,-168.7305"/>
<polygon fill="#191970" stroke="#191970" points="181.5995,-172.1763 192.1693,-171.4484 183.4525,-165.426 181.5995,-172.1763"/>
</g>
<!-- Node16 -->
<g id="node17" class="node">
<title>Node16</title>
<g id="a_node17"><a xlink:href="classene_1_1views_1_1AbstractView.html#abdae9d407e6cc13b9004049e2327367b" target="_top" xlink:title="ene.views.AbstractView.set\lLayoutPosition">
<polygon fill="none" stroke="#000000" points="177.5,-122.5 177.5,-152.5 316.5,-152.5 316.5,-122.5 177.5,-122.5"/>
<text text-anchor="start" x="185.5" y="-140.5" font-family="Helvetica,sans-Serif" font-size="10.00" fill="#000000">ene.views.AbstractView.set</text>
<text text-anchor="middle" x="247" y="-129.5" font-family="Helvetica,sans-Serif" font-size="10.00" fill="#000000">LayoutPosition</text>
</a>
</g>
</g>
<!-- Node0&#45;&gt;Node16 -->
<g id="edge17" class="edge">
<title>Node0&#45;&gt;Node16</title>
<path fill="none" stroke="#191970" d="M137.0023,-137.5C146.8831,-137.5 157.123,-137.5 167.2004,-137.5"/>
<polygon fill="#191970" stroke="#191970" points="167.2044,-141.0001 177.2043,-137.5 167.2043,-134.0001 167.2044,-141.0001"/>
</g>
<!-- Node17 -->
<g id="node18" class="node">
<title>Node17</title>
<g id="a_node18"><a xlink:href="classene_1_1views_1_1AbstractPartialView.html#a68e5b7c7280559531bad5eed28f711e4" target="_top" xlink:title="ene.views.AbstractPartial\lView.setModel">
<polygon fill="none" stroke="#000000" points="183,-73.5 183,-103.5 311,-103.5 311,-73.5 183,-73.5"/>
<text text-anchor="start" x="191" y="-91.5" font-family="Helvetica,sans-Serif" font-size="10.00" fill="#000000">ene.views.AbstractPartial</text>
<text text-anchor="middle" x="247" y="-80.5" font-family="Helvetica,sans-Serif" font-size="10.00" fill="#000000">View.setModel</text>
</a>
</g>
</g>
<!-- Node0&#45;&gt;Node17 -->
<g id="edge18" class="edge">
<title>Node0&#45;&gt;Node17</title>
<path fill="none" stroke="#191970" d="M123.5124,-122.3986C142.0926,-117.2981 163.0063,-111.5571 182.2682,-106.2695"/>
<polygon fill="#191970" stroke="#191970" points="183.4525,-109.574 192.1693,-103.5516 181.5995,-102.8237 183.4525,-109.574"/>
</g>
<!-- Node18 -->
<g id="node19" class="node">
<title>Node18</title>
<g id="a_node19"><a xlink:href="classene_1_1views_1_1gui_1_1partial_1_1PlayerView.html#af4c9cd0cd87bb0f2274266872c3ab2d4" target="_top" xlink:title="ene.views.gui.partial.Player\lView.setPlayerController">
<polygon fill="none" stroke="#000000" points="178.5,-24.5 178.5,-54.5 315.5,-54.5 315.5,-24.5 178.5,-24.5"/>
<text text-anchor="start" x="186.5" y="-42.5" font-family="Helvetica,sans-Serif" font-size="10.00" fill="#000000">ene.views.gui.partial.Player</text>
<text text-anchor="middle" x="247" y="-31.5" font-family="Helvetica,sans-Serif" font-size="10.00" fill="#000000">View.setPlayerController</text>
</a>
</g>
</g>
<!-- Node0&#45;&gt;Node18 -->
<g id="edge19" class="edge">
<title>Node0&#45;&gt;Node18</title>
<path fill="none" stroke="#191970" d="M86.7367,-122.3332C106.8291,-106.2218 140.6048,-80.8653 173,-64.5 177.312,-62.3217 181.8569,-60.2655 186.4864,-58.3397"/>
<polygon fill="#191970" stroke="#191970" points="188.0366,-61.491 196.0604,-54.5722 185.4733,-54.9771 188.0366,-61.491"/>
</g>
<!-- Node3 -->
<g id="node4" class="node">
<title>Node3</title>
<g id="a_node4"><a xlink:href="classene_1_1views_1_1AbstractView.html#aa9bee221c279bc8a9dbada91184d8181" target="_top" xlink:title="ene.views.AbstractView.set\lCoreComponent">
<polygon fill="none" stroke="#000000" points="381.5,-343.5 381.5,-373.5 520.5,-373.5 520.5,-343.5 381.5,-343.5"/>
<text text-anchor="start" x="389.5" y="-361.5" font-family="Helvetica,sans-Serif" font-size="10.00" fill="#000000">ene.views.AbstractView.set</text>
<text text-anchor="middle" x="451" y="-350.5" font-family="Helvetica,sans-Serif" font-size="10.00" fill="#000000">CoreComponent</text>
</a>
</g>
</g>
<!-- Node2&#45;&gt;Node3 -->
<g id="edge3" class="edge">
<title>Node2&#45;&gt;Node3</title>
<path fill="none" stroke="#191970" d="M308.1229,-201.5015C312.8552,-204.2857 317.2441,-207.5865 321,-211.5 360.4413,-252.5953 316.0294,-294.9291 357,-334.5 361.4238,-338.7727 366.4982,-342.3148 371.9474,-345.2478"/>
<polygon fill="#191970" stroke="#191970" points="370.8778,-348.6093 381.4234,-349.6302 373.8162,-342.2558 370.8778,-348.6093"/>
</g>
<!-- Node4 -->
<g id="node5" class="node">
<title>Node4</title>
<g id="a_node5"><a xlink:href="interfaceene_1_1interfaces_1_1Localization.html#ae7d5c65647a8bd1ca0c27b3279b0751c" target="_top" xlink:title="ene.interfaces.Localization.get\lString">
<polygon fill="none" stroke="#000000" points="376.5,-294.5 376.5,-324.5 525.5,-324.5 525.5,-294.5 376.5,-294.5"/>
<text text-anchor="start" x="384.5" y="-312.5" font-family="Helvetica,sans-Serif" font-size="10.00" fill="#000000">ene.interfaces.Localization.get</text>
<text text-anchor="middle" x="451" y="-301.5" font-family="Helvetica,sans-Serif" font-size="10.00" fill="#000000">String</text>
</a>
</g>
</g>
<!-- Node2&#45;&gt;Node4 -->
<g id="edge4" class="edge">
<title>Node2&#45;&gt;Node4</title>
<path fill="none" stroke="#191970" d="M306.3488,-201.6184C311.6295,-204.3826 316.6235,-207.6467 321,-211.5 348.4507,-235.669 328.653,-262.3888 357,-285.5 360.1412,-288.061 363.5223,-290.3526 367.0706,-292.4028"/>
<polygon fill="#191970" stroke="#191970" points="365.6901,-295.6267 376.1932,-297.0178 368.85,-289.3805 365.6901,-295.6267"/>
</g>
<!-- Node5 -->
<g id="node6" class="node">
<title>Node5</title>
<g id="a_node6"><a xlink:href="classene_1_1AbstractObject.html#aff9619cf289ec83735b6c6ca2c12e020" target="_top" xlink:title="ene.AbstractObject.debug\lInfoAbout">
<polygon fill="none" stroke="#000000" points="386,-245.5 386,-275.5 516,-275.5 516,-245.5 386,-245.5"/>
<text text-anchor="start" x="394" y="-263.5" font-family="Helvetica,sans-Serif" font-size="10.00" fill="#000000">ene.AbstractObject.debug</text>
<text text-anchor="middle" x="451" y="-252.5" font-family="Helvetica,sans-Serif" font-size="10.00" fill="#000000">InfoAbout</text>
</a>
</g>
</g>
<!-- Node2&#45;&gt;Node5 -->
<g id="edge5" class="edge">
<title>Node2&#45;&gt;Node5</title>
<path fill="none" stroke="#191970" d="M297.9307,-201.59C305.8069,-204.5244 313.7327,-207.8413 321,-211.5 338.3991,-220.2594 339.2814,-228.4064 357,-236.5 363.0731,-239.2741 369.5192,-241.7645 376.0773,-243.9926"/>
<polygon fill="#191970" stroke="#191970" points="375.1447,-247.3688 385.7353,-247.0719 377.271,-240.6996 375.1447,-247.3688"/>
</g>
<!-- Node8 -->
<g id="node9" class="node">
<title>Node8</title>
<g id="a_node9"><a xlink:href="classene_1_1views_1_1gui_1_1partial_1_1PlayerView.html#a4dc768b48e41f0ea98929d8069ef790a" target="_top" xlink:title="ene.views.gui.partial.Player\lView.getPlayerController">
<polygon fill="none" stroke="#000000" points="382.5,-196.5 382.5,-226.5 519.5,-226.5 519.5,-196.5 382.5,-196.5"/>
<text text-anchor="start" x="390.5" y="-214.5" font-family="Helvetica,sans-Serif" font-size="10.00" fill="#000000">ene.views.gui.partial.Player</text>
<text text-anchor="middle" x="451" y="-203.5" font-family="Helvetica,sans-Serif" font-size="10.00" fill="#000000">View.getPlayerController</text>
</a>
</g>
</g>
<!-- Node2&#45;&gt;Node8 -->
<g id="edge8" class="edge">
<title>Node2&#45;&gt;Node8</title>
<path fill="none" stroke="#191970" d="M315.7807,-194.929C333.8362,-197.1417 353.4506,-199.5454 371.9952,-201.818"/>
<polygon fill="#191970" stroke="#191970" points="371.8195,-205.3226 382.171,-203.0651 372.671,-198.3746 371.8195,-205.3226"/>
</g>
<!-- Node9 -->
<g id="node10" class="node">
<title>Node9</title>
<g id="a_node10"><a xlink:href="classene_1_1controllers_1_1PlayerController.html#acea0cc4709105881026516d468c4baf8" target="_top" xlink:title="ene.controllers.PlayerController.toggle\lPlayback">
<polygon fill="none" stroke="#000000" points="360,-147.5 360,-177.5 542,-177.5 542,-147.5 360,-147.5"/>
<text text-anchor="start" x="368" y="-165.5" font-family="Helvetica,sans-Serif" font-size="10.00" fill="#000000">ene.controllers.PlayerController.toggle</text>
<text text-anchor="middle" x="451" y="-154.5" font-family="Helvetica,sans-Serif" font-size="10.00" fill="#000000">Playback</text>
</a>
</g>
</g>
<!-- Node2&#45;&gt;Node9 -->
<g id="edge9" class="edge">
<title>Node2&#45;&gt;Node9</title>
<path fill="none" stroke="#191970" d="M315.7807,-178.4082C326.6953,-177.1241 338.1796,-175.773 349.6529,-174.4232"/>
<polygon fill="#191970" stroke="#191970" points="350.1955,-177.8836 359.718,-173.2391 349.3775,-170.9315 350.1955,-177.8836"/>
</g>
<!-- Node11 -->
<g id="node12" class="node">
<title>Node11</title>
<g id="a_node12"><a xlink:href="classene_1_1controllers_1_1PlayerController.html#a4431d7fb8789a039aba690fa30c7f76f" target="_top" xlink:title="ene.controllers.PlayerController.change\lTrackPosition">
<polygon fill="none" stroke="#000000" points="357,-98.5 357,-128.5 545,-128.5 545,-98.5 357,-98.5"/>
<text text-anchor="start" x="365" y="-116.5" font-family="Helvetica,sans-Serif" font-size="10.00" fill="#000000">ene.controllers.PlayerController.change</text>
<text text-anchor="middle" x="451" y="-105.5" font-family="Helvetica,sans-Serif" font-size="10.00" fill="#000000">TrackPosition</text>
</a>
</g>
</g>
<!-- Node2&#45;&gt;Node11 -->
<g id="edge11" class="edge">
<title>Node2&#45;&gt;Node11</title>
<path fill="none" stroke="#191970" d="M299.4608,-171.4768C306.8219,-168.7974 314.1923,-165.7953 321,-162.5 338.3084,-154.1217 339.4729,-146.4107 357,-138.5 362.3738,-136.0745 368.0303,-133.8457 373.7924,-131.8049"/>
<polygon fill="#191970" stroke="#191970" points="375.1799,-135.0317 383.5579,-128.5464 372.9642,-128.3915 375.1799,-135.0317"/>
</g>
<!-- Node12 -->
<g id="node13" class="node">
<title>Node12</title>
<g id="a_node13"><a xlink:href="classene_1_1views_1_1gui_1_1partial_1_1PlayerView.html#af324f1c0b5648dab2400b4c0ab33f3ca" target="_top" xlink:title="ene.views.gui.partial.Player\lView.updateProgress">
<polygon fill="none" stroke="#000000" points="382.5,-49.5 382.5,-79.5 519.5,-79.5 519.5,-49.5 382.5,-49.5"/>
<text text-anchor="start" x="390.5" y="-67.5" font-family="Helvetica,sans-Serif" font-size="10.00" fill="#000000">ene.views.gui.partial.Player</text>
<text text-anchor="middle" x="451" y="-56.5" font-family="Helvetica,sans-Serif" font-size="10.00" fill="#000000">View.updateProgress</text>
</a>
</g>
</g>
<!-- Node2&#45;&gt;Node12 -->
<g id="edge13" class="edge">
<title>Node2&#45;&gt;Node12</title>
<path fill="none" stroke="#191970" d="M307.7837,-171.4292C312.5288,-168.8989 317.0162,-165.9459 321,-162.5 348.3599,-138.834 329.0149,-112.4232 357,-89.5 361.8866,-85.4973 367.3521,-82.1305 373.123,-79.2994"/>
<polygon fill="#191970" stroke="#191970" points="374.6204,-82.4651 382.4037,-75.2768 371.8365,-76.0424 374.6204,-82.4651"/>
</g>
<!-- Node15 -->
<g id="node16" class="node">
<title>Node15</title>
<g id="a_node16"><a xlink:href="classene_1_1views_1_1gui_1_1partial_1_1PlayerView.html#a7126e270c8cc5956e79773eddc508655" target="_top" xlink:title="ene.views.gui.partial.Player\lView.disablePlayerControls">
<polygon fill="none" stroke="#000000" points="382.5,-.5 382.5,-30.5 519.5,-30.5 519.5,-.5 382.5,-.5"/>
<text text-anchor="start" x="390.5" y="-18.5" font-family="Helvetica,sans-Serif" font-size="10.00" fill="#000000">ene.views.gui.partial.Player</text>
<text text-anchor="middle" x="451" y="-7.5" font-family="Helvetica,sans-Serif" font-size="10.00" fill="#000000">View.disablePlayerControls</text>
</a>
</g>
</g>
<!-- Node2&#45;&gt;Node15 -->
<g id="edge16" class="edge">
<title>Node2&#45;&gt;Node15</title>
<path fill="none" stroke="#191970" d="M309.8558,-171.2954C313.9231,-168.7962 317.7023,-165.8869 321,-162.5 360.4385,-121.995 316.4887,-79.932 357,-40.5 361.6853,-35.9395 367.1036,-32.1867 372.926,-29.1015"/>
<polygon fill="#191970" stroke="#191970" points="374.7249,-32.1273 382.3608,-24.7827 371.8114,-25.7625 374.7249,-32.1273"/>
</g>
<!-- Node6 -->
<g id="node7" class="node">
<title>Node6</title>
<g id="a_node7"><a xlink:href="classene_1_1AbstractObject.html#a9ce30d3321c7ce794df2f07bdaf3e47c" target="_top" xlink:title="ene.AbstractObject.console\lOutput">
<polygon fill="none" stroke="#000000" points="582.5,-261.5 582.5,-291.5 719.5,-291.5 719.5,-261.5 582.5,-261.5"/>
<text text-anchor="start" x="590.5" y="-279.5" font-family="Helvetica,sans-Serif" font-size="10.00" fill="#000000">ene.AbstractObject.console</text>
<text text-anchor="middle" x="651" y="-268.5" font-family="Helvetica,sans-Serif" font-size="10.00" fill="#000000">Output</text>
</a>
</g>
</g>
<!-- Node5&#45;&gt;Node6 -->
<g id="edge6" class="edge">
<title>Node5&#45;&gt;Node6</title>
<path fill="none" stroke="#191970" d="M516.2107,-265.7169C534.1004,-267.148 553.6869,-268.715 572.2493,-270.1999"/>
<polygon fill="#191970" stroke="#191970" points="572.1918,-273.7064 582.4391,-271.0151 572.7501,-266.7287 572.1918,-273.7064"/>
</g>
<!-- Node7 -->
<g id="node8" class="node">
<title>Node7</title>
<g id="a_node8"><a xlink:href="classene_1_1AbstractObject.html#a6ee0b669069e0c3ee320a6cf41af24fe" target="_top" xlink:title="ene.AbstractObject.isDebug\lModeEnabled">
<polygon fill="none" stroke="#000000" points="581,-212.5 581,-242.5 721,-242.5 721,-212.5 581,-212.5"/>
<text text-anchor="start" x="589" y="-230.5" font-family="Helvetica,sans-Serif" font-size="10.00" fill="#000000">ene.AbstractObject.isDebug</text>
<text text-anchor="middle" x="651" y="-219.5" font-family="Helvetica,sans-Serif" font-size="10.00" fill="#000000">ModeEnabled</text>
</a>
</g>
</g>
<!-- Node5&#45;&gt;Node7 -->
<g id="edge7" class="edge">
<title>Node5&#45;&gt;Node7</title>
<path fill="none" stroke="#191970" d="M516.2107,-249.7402C533.6195,-246.8678 552.6351,-243.7302 570.7502,-240.7412"/>
<polygon fill="#191970" stroke="#191970" points="571.4088,-244.18 580.7056,-239.0986 570.2691,-237.2733 571.4088,-244.18"/>
</g>
<!-- Node10 -->
<g id="node11" class="node">
<title>Node10</title>
<g id="a_node11"><a xlink:href="classene_1_1controllers_1_1AbstractController.html#a9a5afba01d0004a64db4cb14c23e0bbd" target="_top" xlink:title="ene.controllers.Abstract\lController\&lt; PlayerModel\l \&gt;::getModel">
<polygon fill="none" stroke="#000000" points="590,-131 590,-172 712,-172 712,-131 590,-131"/>
<text text-anchor="start" x="598" y="-160" font-family="Helvetica,sans-Serif" font-size="10.00" fill="#000000">ene.controllers.Abstract</text>
<text text-anchor="start" x="598" y="-149" font-family="Helvetica,sans-Serif" font-size="10.00" fill="#000000">Controller&lt; PlayerModel</text>
<text text-anchor="middle" x="651" y="-138" font-family="Helvetica,sans-Serif" font-size="10.00" fill="#000000"> &gt;::getModel</text>
</a>
</g>
</g>
<!-- Node9&#45;&gt;Node10 -->
<g id="edge10" class="edge">
<title>Node9&#45;&gt;Node10</title>
<path fill="none" stroke="#191970" d="M542.221,-157.4828C554.8575,-156.7878 567.6823,-156.0825 579.8801,-155.4116"/>
<polygon fill="#191970" stroke="#191970" points="580.1682,-158.9011 589.9609,-154.8571 579.7838,-151.9117 580.1682,-158.9011"/>
</g>
<!-- Node11&#45;&gt;Node10 -->
<g id="edge12" class="edge">
<title>Node11&#45;&gt;Node10</title>
<path fill="none" stroke="#191970" d="M530.0453,-128.5186C546.5017,-131.6453 563.7509,-134.9227 579.9,-137.991"/>
<polygon fill="#191970" stroke="#191970" points="579.3184,-141.443 589.796,-139.8712 580.6251,-134.5661 579.3184,-141.443"/>
</g>
<!-- Node13 -->
<g id="node14" class="node">
<title>Node13</title>
<g id="a_node14"><a xlink:href="classene_1_1views_1_1AbstractPartialView.html#afb90f9e02eea94a2fb276d711a67ee36" target="_top" xlink:title="ene.views.AbstractPartial\lView.getModel">
<polygon fill="none" stroke="#000000" points="587,-60.5 587,-90.5 715,-90.5 715,-60.5 587,-60.5"/>
<text text-anchor="start" x="595" y="-78.5" font-family="Helvetica,sans-Serif" font-size="10.00" fill="#000000">ene.views.AbstractPartial</text>
<text text-anchor="middle" x="651" y="-67.5" font-family="Helvetica,sans-Serif" font-size="10.00" fill="#000000">View.getModel</text>
</a>
</g>
</g>
<!-- Node12&#45;&gt;Node13 -->
<g id="edge14" class="edge">
<title>Node12&#45;&gt;Node13</title>
<path fill="none" stroke="#191970" d="M519.5488,-68.2702C538.0482,-69.2876 558.1462,-70.393 576.9326,-71.4263"/>
<polygon fill="#191970" stroke="#191970" points="576.7406,-74.9209 586.9177,-71.9755 577.125,-67.9315 576.7406,-74.9209"/>
</g>
<!-- Node14 -->
<g id="node15" class="node">
<title>Node14</title>
<g id="a_node15"><a xlink:href="classene_1_1views_1_1gui_1_1partial_1_1PlayerView.html#a5214bb8084cfb78242868039e33f78ef" target="_top" xlink:title="ene.views.gui.partial.Player\lView.formatTimeToString">
<polygon fill="none" stroke="#000000" points="582.5,-11.5 582.5,-41.5 719.5,-41.5 719.5,-11.5 582.5,-11.5"/>
<text text-anchor="start" x="590.5" y="-29.5" font-family="Helvetica,sans-Serif" font-size="10.00" fill="#000000">ene.views.gui.partial.Player</text>
<text text-anchor="middle" x="651" y="-18.5" font-family="Helvetica,sans-Serif" font-size="10.00" fill="#000000">View.formatTimeToString</text>
</a>
</g>
</g>
<!-- Node12&#45;&gt;Node14 -->
<g id="edge15" class="edge">
<title>Node12&#45;&gt;Node14</title>
<path fill="none" stroke="#191970" d="M519.5488,-51.4757C536.469,-48.2609 554.7267,-44.7919 572.0949,-41.492"/>
<polygon fill="#191970" stroke="#191970" points="573.0305,-44.8769 582.2014,-39.5717 571.7238,-37.9999 573.0305,-44.8769"/>
</g>
</g>
</svg>
