<?xml version="1.0" encoding="UTF-8" standalone="no"?>
<!DOCTYPE svg PUBLIC "-//W3C//DTD SVG 1.1//EN"
 "http://www.w3.org/Graphics/SVG/1.1/DTD/svg11.dtd">
<!-- Generated by graphviz version 2.40.1 (20161225.0304)
 -->
<!-- Title: ene.Application Pages: 1 -->
<svg width="303pt" height="353pt"
 viewBox="0.00 0.00 302.50 353.00" xmlns="http://www.w3.org/2000/svg" xmlns:xlink="http://www.w3.org/1999/xlink">
<g id="graph0" class="graph" transform="scale(1 1) rotate(0) translate(4 349)">
<title>ene.Application</title>
<!-- Node2 -->
<g id="node1" class="node">
<title>Node2</title>
<polygon fill="#bfbfbf" stroke="#000000" points="70,-.5 70,-79.5 183,-79.5 183,-.5 70,-.5"/>
<text text-anchor="middle" x="126.5" y="-67.5" font-family="Helvetica,sans-Serif" font-size="10.00" fill="#000000">ene.Application</text>
<polyline fill="none" stroke="#000000" points="70,-60.5 183,-60.5 "/>
<text text-anchor="middle" x="126.5" y="-48.5" font-family="Helvetica,sans-Serif" font-size="10.00" fill="#000000"> </text>
<polyline fill="none" stroke="#000000" points="70,-41.5 183,-41.5 "/>
<text text-anchor="start" x="78" y="-29.5" font-family="Helvetica,sans-Serif" font-size="10.00" fill="#000000">+ main()</text>
<text text-anchor="start" x="78" y="-18.5" font-family="Helvetica,sans-Serif" font-size="10.00" fill="#000000"># processArguments()</text>
<text text-anchor="start" x="78" y="-7.5" font-family="Helvetica,sans-Serif" font-size="10.00" fill="#000000"># run()</text>
</g>
<!-- Node3 -->
<g id="node2" class="node">
<title>Node3</title>
<g id="a_node2"><a xlink:href="classene_1_1AbstractObject.html" target="_top" xlink:title="{ene.AbstractObject\n||+ enableDebugMode()\l+ disableDebugMode()\l+ isDebugModeEnabled()\l+ debugInfoAbout()\l+ consoleOutput()\l# delay()\l}">
<polygon fill="none" stroke="#000000" points="0,-127.5 0,-239.5 127,-239.5 127,-127.5 0,-127.5"/>
<text text-anchor="middle" x="63.5" y="-227.5" font-family="Helvetica,sans-Serif" font-size="10.00" fill="#000000">ene.AbstractObject</text>
<polyline fill="none" stroke="#000000" points="0,-220.5 127,-220.5 "/>
<text text-anchor="middle" x="63.5" y="-208.5" font-family="Helvetica,sans-Serif" font-size="10.00" fill="#000000"> </text>
<polyline fill="none" stroke="#000000" points="0,-201.5 127,-201.5 "/>
<text text-anchor="start" x="8" y="-189.5" font-family="Helvetica,sans-Serif" font-size="10.00" fill="#000000">+ enableDebugMode()</text>
<text text-anchor="start" x="8" y="-178.5" font-family="Helvetica,sans-Serif" font-size="10.00" fill="#000000">+ disableDebugMode()</text>
<text text-anchor="start" x="8" y="-167.5" font-family="Helvetica,sans-Serif" font-size="10.00" fill="#000000">+ isDebugModeEnabled()</text>
<text text-anchor="start" x="8" y="-156.5" font-family="Helvetica,sans-Serif" font-size="10.00" fill="#000000">+ debugInfoAbout()</text>
<text text-anchor="start" x="8" y="-145.5" font-family="Helvetica,sans-Serif" font-size="10.00" fill="#000000">+ consoleOutput()</text>
<text text-anchor="start" x="8" y="-134.5" font-family="Helvetica,sans-Serif" font-size="10.00" fill="#000000"># delay()</text>
</a>
</g>
</g>
<!-- Node3&#45;&gt;Node2 -->
<g id="edge1" class="edge">
<title>Node3&#45;&gt;Node2</title>
<path fill="none" stroke="#191970" d="M92.3409,-117.8069C98.0456,-104.8127 103.8675,-91.5517 109.051,-79.745"/>
<polygon fill="none" stroke="#191970" points="89.0337,-116.6334 88.2185,-127.1969 95.4432,-119.4474 89.0337,-116.6334"/>
</g>
<!-- Node4 -->
<g id="node3" class="node">
<title>Node4</title>
<polygon fill="none" stroke="#bfbfbf" points="25,-287.5 25,-344.5 102,-344.5 102,-287.5 25,-287.5"/>
<text text-anchor="middle" x="63.5" y="-332.5" font-family="Helvetica,sans-Serif" font-size="10.00" fill="#000000">static boolean</text>
<polyline fill="none" stroke="#bfbfbf" points="25,-325.5 102,-325.5 "/>
<text text-anchor="middle" x="63.5" y="-313.5" font-family="Helvetica,sans-Serif" font-size="10.00" fill="#000000"> </text>
<polyline fill="none" stroke="#bfbfbf" points="25,-306.5 102,-306.5 "/>
<text text-anchor="middle" x="63.5" y="-294.5" font-family="Helvetica,sans-Serif" font-size="10.00" fill="#000000"> </text>
</g>
<!-- Node4&#45;&gt;Node3 -->
<g id="edge2" class="edge">
<title>Node4&#45;&gt;Node3</title>
<path fill="none" stroke="#404040" d="M63.5,-287.2495C63.5,-276.8031 63.5,-264.502 63.5,-252.0912"/>
<polygon fill="none" stroke="#404040" points="63.5001,-251.7084 59.5,-245.7085 63.5,-239.7084 67.5,-245.7084 63.5001,-251.7084"/>
<text text-anchor="middle" x="110.5" y="-261" font-family="Helvetica,sans-Serif" font-size="10.00" fill="#000000"> #debugModeEnabled</text>
</g>
<!-- Node5 -->
<g id="node4" class="node">
<title>Node5</title>
<polygon fill="none" stroke="#bfbfbf" points="145.5,-155 145.5,-212 235.5,-212 235.5,-155 145.5,-155"/>
<text text-anchor="middle" x="190.5" y="-200" font-family="Helvetica,sans-Serif" font-size="10.00" fill="#000000">static final String</text>
<polyline fill="none" stroke="#bfbfbf" points="145.5,-193 235.5,-193 "/>
<text text-anchor="middle" x="190.5" y="-181" font-family="Helvetica,sans-Serif" font-size="10.00" fill="#000000"> </text>
<polyline fill="none" stroke="#bfbfbf" points="145.5,-174 235.5,-174 "/>
<text text-anchor="middle" x="190.5" y="-162" font-family="Helvetica,sans-Serif" font-size="10.00" fill="#000000"> </text>
</g>
<!-- Node5&#45;&gt;Node2 -->
<g id="edge3" class="edge">
<title>Node5&#45;&gt;Node2</title>
<path fill="none" stroke="#404040" d="M177.7025,-154.8055C169.5017,-136.4179 158.6309,-112.0436 149.016,-90.4851"/>
<polygon fill="none" stroke="#404040" points="149.0111,-90.4741 142.914,-86.6236 144.1232,-79.5146 150.2203,-83.3651 149.0111,-90.4741"/>
<text text-anchor="middle" x="225.5" y="-101" font-family="Helvetica,sans-Serif" font-size="10.00" fill="#000000"> #LIBRARY_DATABASE_FILE</text>
</g>
</g>
</svg>
