<?xml version="1.0" encoding="UTF-8" standalone="no"?>
<!DOCTYPE svg PUBLIC "-//W3C//DTD SVG 1.1//EN"
 "http://www.w3.org/Graphics/SVG/1.1/DTD/svg11.dtd">
<!-- Generated by graphviz version 2.40.1 (20161225.0304)
 -->
<!-- Title: ene.models.PlayerModel.setTrackPosition Pages: 1 -->
<svg width="518pt" height="61pt"
 viewBox="0.00 0.00 518.00 61.00" xmlns="http://www.w3.org/2000/svg" xmlns:xlink="http://www.w3.org/1999/xlink">
<g id="graph0" class="graph" transform="scale(1 1) rotate(0) translate(4 57)">
<title>ene.models.PlayerModel.setTrackPosition</title>
<!-- Node122 -->
<g id="node1" class="node">
<title>Node122</title>
<polygon fill="#bfbfbf" stroke="#000000" points="0,-22.5 0,-52.5 140,-52.5 140,-22.5 0,-22.5"/>
<text text-anchor="start" x="8" y="-40.5" font-family="Helvetica,sans-Serif" font-size="10.00" fill="#000000">ene.models.PlayerModel.set</text>
<text text-anchor="middle" x="70" y="-29.5" font-family="Helvetica,sans-Serif" font-size="10.00" fill="#000000">TrackPosition</text>
</g>
<!-- Node123 -->
<g id="node2" class="node">
<title>Node123</title>
<g id="a_node2"><a xlink:href="classene_1_1models_1_1PlayerModel.html#aa03431aa1bae96eacf2019c56fd18f45" target="_top" xlink:title="ene.models.PlayerModel.getClip">
<polygon fill="none" stroke="#000000" points="352,-28 352,-47 510,-47 510,-28 352,-28"/>
<text text-anchor="middle" x="431" y="-35" font-family="Helvetica,sans-Serif" font-size="10.00" fill="#000000">ene.models.PlayerModel.getClip</text>
</a>
</g>
</g>
<!-- Node122&#45;&gt;Node123 -->
<g id="edge1" class="edge">
<title>Node122&#45;&gt;Node123</title>
<path fill="none" stroke="#191970" d="M140.1262,-39.7646C152.094,-40.0709 164.4028,-40.3359 176,-40.5 238.216,-41.3802 253.7831,-41.3114 316,-40.5 324.3251,-40.3914 332.9884,-40.2387 341.659,-40.059"/>
<polygon fill="#191970" stroke="#191970" points="341.8999,-43.5546 351.821,-39.8367 341.7468,-36.5563 341.8999,-43.5546"/>
</g>
<!-- Node124 -->
<g id="node3" class="node">
<title>Node124</title>
<g id="a_node3"><a xlink:href="classene_1_1models_1_1PlayerModel.html#a3108500012be901007a2e809761ac136" target="_top" xlink:title="ene.models.PlayerModel.get\lTrackPosition">
<polygon fill="none" stroke="#000000" points="176,-.5 176,-30.5 316,-30.5 316,-.5 176,-.5"/>
<text text-anchor="start" x="184" y="-18.5" font-family="Helvetica,sans-Serif" font-size="10.00" fill="#000000">ene.models.PlayerModel.get</text>
<text text-anchor="middle" x="246" y="-7.5" font-family="Helvetica,sans-Serif" font-size="10.00" fill="#000000">TrackPosition</text>
</a>
</g>
</g>
<!-- Node122&#45;&gt;Node124 -->
<g id="edge2" class="edge">
<title>Node122&#45;&gt;Node124</title>
<path fill="none" stroke="#191970" d="M140.0656,-28.7418C148.5403,-27.6825 157.2467,-26.5942 165.8522,-25.5185"/>
<polygon fill="#191970" stroke="#191970" points="166.3994,-28.9774 175.888,-24.264 165.531,-22.0315 166.3994,-28.9774"/>
</g>
<!-- Node124&#45;&gt;Node123 -->
<g id="edge3" class="edge">
<title>Node124&#45;&gt;Node123</title>
<path fill="none" stroke="#191970" d="M316.2044,-23.8486C324.5798,-24.8446 333.2145,-25.8715 341.811,-26.8937"/>
<polygon fill="#191970" stroke="#191970" points="341.5239,-30.3842 351.8673,-28.0896 342.3506,-23.4332 341.5239,-30.3842"/>
</g>
</g>
</svg>
