<?xml version="1.0" encoding="UTF-8" standalone="no"?>
<!DOCTYPE svg PUBLIC "-//W3C//DTD SVG 1.1//EN"
 "http://www.w3.org/Graphics/SVG/1.1/DTD/svg11.dtd">
<!-- Generated by graphviz version 2.40.1 (20161225.0304)
 -->
<!-- Title: ene.models.PlayerModel.loadPlaylist Pages: 1 -->
<svg width="710pt" height="341pt"
 viewBox="0.00 0.00 710.00 341.00" xmlns="http://www.w3.org/2000/svg" xmlns:xlink="http://www.w3.org/1999/xlink">
<g id="graph0" class="graph" transform="scale(1 1) rotate(0) translate(4 337)">
<title>ene.models.PlayerModel.loadPlaylist</title>
<!-- Node48 -->
<g id="node1" class="node">
<title>Node48</title>
<polygon fill="#bfbfbf" stroke="#000000" points="0,-132.5 0,-162.5 145,-162.5 145,-132.5 0,-132.5"/>
<text text-anchor="start" x="8" y="-150.5" font-family="Helvetica,sans-Serif" font-size="10.00" fill="#000000">ene.models.PlayerModel.load</text>
<text text-anchor="middle" x="72.5" y="-139.5" font-family="Helvetica,sans-Serif" font-size="10.00" fill="#000000">Playlist</text>
</g>
<!-- Node49 -->
<g id="node2" class="node">
<title>Node49</title>
<g id="a_node2"><a xlink:href="classene_1_1models_1_1PlaylistModel.html#ad63fd499a74248dc9dadad29b9882fd2" target="_top" xlink:title="ene.models.PlaylistModel.get\lCurrentTrack">
<polygon fill="none" stroke="#000000" points="181,-258.5 181,-288.5 326,-288.5 326,-258.5 181,-258.5"/>
<text text-anchor="start" x="189" y="-276.5" font-family="Helvetica,sans-Serif" font-size="10.00" fill="#000000">ene.models.PlaylistModel.get</text>
<text text-anchor="middle" x="253.5" y="-265.5" font-family="Helvetica,sans-Serif" font-size="10.00" fill="#000000">CurrentTrack</text>
</a>
</g>
</g>
<!-- Node48&#45;&gt;Node49 -->
<g id="edge1" class="edge">
<title>Node48&#45;&gt;Node49</title>
<path fill="none" stroke="#191970" d="M94.3328,-162.6985C126.6269,-185.1795 187.2205,-227.3607 223.6126,-252.6944"/>
<polygon fill="#191970" stroke="#191970" points="221.6646,-255.6029 231.8715,-258.4437 225.6639,-249.8578 221.6646,-255.6029"/>
</g>
<!-- Node52 -->
<g id="node5" class="node">
<title>Node52</title>
<g id="a_node5"><a xlink:href="classene_1_1models_1_1PlayerModel.html#a2c4655428b658dee3203787415a516a5" target="_top" xlink:title="ene.models.PlayerModel.load">
<polygon fill="none" stroke="#000000" points="181,-138 181,-157 326,-157 326,-138 181,-138"/>
<text text-anchor="middle" x="253.5" y="-145" font-family="Helvetica,sans-Serif" font-size="10.00" fill="#000000">ene.models.PlayerModel.load</text>
</a>
</g>
</g>
<!-- Node48&#45;&gt;Node52 -->
<g id="edge4" class="edge">
<title>Node48&#45;&gt;Node52</title>
<path fill="none" stroke="#191970" d="M145.0767,-147.5C153.5595,-147.5 162.2611,-147.5 170.8671,-147.5"/>
<polygon fill="#191970" stroke="#191970" points="170.907,-151.0001 180.907,-147.5 170.907,-144.0001 170.907,-151.0001"/>
</g>
<!-- Node61 -->
<g id="node14" class="node">
<title>Node61</title>
<g id="a_node14"><a xlink:href="classene_1_1models_1_1PlayerModel.html#a65e4ceddca16c50f226118cf259cd8fb" target="_top" xlink:title="ene.models.PlayerModel.set\lPlaylist">
<polygon fill="none" stroke="#000000" points="183.5,-88.5 183.5,-118.5 323.5,-118.5 323.5,-88.5 183.5,-88.5"/>
<text text-anchor="start" x="191.5" y="-106.5" font-family="Helvetica,sans-Serif" font-size="10.00" fill="#000000">ene.models.PlayerModel.set</text>
<text text-anchor="middle" x="253.5" y="-95.5" font-family="Helvetica,sans-Serif" font-size="10.00" fill="#000000">Playlist</text>
</a>
</g>
</g>
<!-- Node48&#45;&gt;Node61 -->
<g id="edge13" class="edge">
<title>Node48&#45;&gt;Node61</title>
<path fill="none" stroke="#191970" d="M134.2837,-132.4808C149.4893,-128.7844 165.9015,-124.7947 181.5417,-120.9926"/>
<polygon fill="#191970" stroke="#191970" points="182.7974,-124.2894 191.6877,-118.5262 181.1439,-117.4875 182.7974,-124.2894"/>
</g>
<!-- Node50 -->
<g id="node3" class="node">
<title>Node50</title>
<g id="a_node3"><a xlink:href="classene_1_1models_1_1PlaylistModel.html#adf17aa2e0d9900d3c620035dbc9641bc" target="_top" xlink:title="ene.models.PlaylistModel.update\lLastAccess">
<polygon fill="none" stroke="#000000" points="363.5,-302.5 363.5,-332.5 524.5,-332.5 524.5,-302.5 363.5,-302.5"/>
<text text-anchor="start" x="371.5" y="-320.5" font-family="Helvetica,sans-Serif" font-size="10.00" fill="#000000">ene.models.PlaylistModel.update</text>
<text text-anchor="middle" x="444" y="-309.5" font-family="Helvetica,sans-Serif" font-size="10.00" fill="#000000">LastAccess</text>
</a>
</g>
</g>
<!-- Node49&#45;&gt;Node50 -->
<g id="edge2" class="edge">
<title>Node49&#45;&gt;Node50</title>
<path fill="none" stroke="#191970" d="M318.5265,-288.5192C334.6826,-292.2508 352.1329,-296.2814 368.735,-300.116"/>
<polygon fill="#191970" stroke="#191970" points="368.4122,-303.6335 378.9434,-302.4738 369.9876,-296.813 368.4122,-303.6335"/>
</g>
<!-- Node51 -->
<g id="node4" class="node">
<title>Node51</title>
<g id="a_node4"><a xlink:href="classene_1_1models_1_1TrackListModel.html#a77a78d6a93e67e544d83bf5f4856d121" target="_top" xlink:title="ene.models.TrackListModel.getAll">
<polygon fill="none" stroke="#000000" points="362,-264 362,-283 526,-283 526,-264 362,-264"/>
<text text-anchor="middle" x="444" y="-271" font-family="Helvetica,sans-Serif" font-size="10.00" fill="#000000">ene.models.TrackListModel.getAll</text>
</a>
</g>
</g>
<!-- Node49&#45;&gt;Node51 -->
<g id="edge3" class="edge">
<title>Node49&#45;&gt;Node51</title>
<path fill="none" stroke="#191970" d="M326.0633,-273.5C334.4521,-273.5 343.0901,-273.5 351.696,-273.5"/>
<polygon fill="#191970" stroke="#191970" points="351.7671,-277.0001 361.767,-273.5 351.767,-270.0001 351.7671,-277.0001"/>
</g>
<!-- Node53 -->
<g id="node6" class="node">
<title>Node53</title>
<g id="a_node6"><a xlink:href="classene_1_1AbstractObject.html#aff9619cf289ec83735b6c6ca2c12e020" target="_top" xlink:title="ene.AbstractObject.debug\lInfoAbout">
<polygon fill="none" stroke="#000000" points="379,-214.5 379,-244.5 509,-244.5 509,-214.5 379,-214.5"/>
<text text-anchor="start" x="387" y="-232.5" font-family="Helvetica,sans-Serif" font-size="10.00" fill="#000000">ene.AbstractObject.debug</text>
<text text-anchor="middle" x="444" y="-221.5" font-family="Helvetica,sans-Serif" font-size="10.00" fill="#000000">InfoAbout</text>
</a>
</g>
</g>
<!-- Node52&#45;&gt;Node53 -->
<g id="edge5" class="edge">
<title>Node52&#45;&gt;Node53</title>
<path fill="none" stroke="#191970" d="M269.5827,-157.1784C290.3714,-169.3982 327.9508,-190.511 362,-204.5 367.6916,-206.8384 373.6835,-209.0735 379.7303,-211.1777"/>
<polygon fill="#191970" stroke="#191970" points="378.6484,-214.5064 389.2424,-214.3727 380.8772,-207.8707 378.6484,-214.5064"/>
</g>
<!-- Node56 -->
<g id="node9" class="node">
<title>Node56</title>
<g id="a_node9"><a xlink:href="classene_1_1AbstractObject.html#a600f6bedef1dc48e610cdfa5f81b7667" target="_top" xlink:title="ene.AbstractObject.delay">
<polygon fill="none" stroke="#000000" points="380.5,-176 380.5,-195 507.5,-195 507.5,-176 380.5,-176"/>
<text text-anchor="middle" x="444" y="-183" font-family="Helvetica,sans-Serif" font-size="10.00" fill="#000000">ene.AbstractObject.delay</text>
</a>
</g>
</g>
<!-- Node52&#45;&gt;Node56 -->
<g id="edge8" class="edge">
<title>Node52&#45;&gt;Node56</title>
<path fill="none" stroke="#191970" d="M301.5712,-157.089C327.2759,-162.2165 359.1134,-168.5672 386.1642,-173.9632"/>
<polygon fill="#191970" stroke="#191970" points="385.783,-177.456 396.2745,-175.9799 387.1524,-170.5913 385.783,-177.456"/>
</g>
<!-- Node57 -->
<g id="node10" class="node">
<title>Node57</title>
<g id="a_node10"><a xlink:href="classene_1_1models_1_1PlayerModel.html#aa03431aa1bae96eacf2019c56fd18f45" target="_top" xlink:title="ene.models.PlayerModel.getClip">
<polygon fill="none" stroke="#000000" points="365,-138 365,-157 523,-157 523,-138 365,-138"/>
<text text-anchor="middle" x="444" y="-145" font-family="Helvetica,sans-Serif" font-size="10.00" fill="#000000">ene.models.PlayerModel.getClip</text>
</a>
</g>
</g>
<!-- Node52&#45;&gt;Node57 -->
<g id="edge9" class="edge">
<title>Node52&#45;&gt;Node57</title>
<path fill="none" stroke="#191970" d="M326.0633,-147.5C335.506,-147.5 345.2645,-147.5 354.9376,-147.5"/>
<polygon fill="#191970" stroke="#191970" points="354.9702,-151.0001 364.9702,-147.5 354.9702,-144.0001 354.9702,-151.0001"/>
</g>
<!-- Node58 -->
<g id="node11" class="node">
<title>Node58</title>
<g id="a_node11"><a xlink:href="classene_1_1models_1_1TrackModel.html#aab88fe151b093dba71ad9f9ab5c6959d" target="_top" xlink:title="ene.models.TrackModel.get\lFilename">
<polygon fill="none" stroke="#000000" points="375.5,-88.5 375.5,-118.5 512.5,-118.5 512.5,-88.5 375.5,-88.5"/>
<text text-anchor="start" x="383.5" y="-106.5" font-family="Helvetica,sans-Serif" font-size="10.00" fill="#000000">ene.models.TrackModel.get</text>
<text text-anchor="middle" x="444" y="-95.5" font-family="Helvetica,sans-Serif" font-size="10.00" fill="#000000">Filename</text>
</a>
</g>
</g>
<!-- Node52&#45;&gt;Node58 -->
<g id="edge10" class="edge">
<title>Node52&#45;&gt;Node58</title>
<path fill="none" stroke="#191970" d="M294.8357,-137.9527C316.4752,-132.9545 343.6505,-126.6778 368.8573,-120.8558"/>
<polygon fill="#191970" stroke="#191970" points="369.818,-124.2261 378.7738,-118.5654 368.2427,-117.4057 369.818,-124.2261"/>
</g>
<!-- Node59 -->
<g id="node12" class="node">
<title>Node59</title>
<g id="a_node12"><a xlink:href="classene_1_1models_1_1PlayerModel.html#a5617391131179365729686dc4eea1ea1" target="_top" xlink:title="ene.models.PlayerModel.setClip">
<polygon fill="none" stroke="#000000" points="365,-50 365,-69 523,-69 523,-50 365,-50"/>
<text text-anchor="middle" x="444" y="-57" font-family="Helvetica,sans-Serif" font-size="10.00" fill="#000000">ene.models.PlayerModel.setClip</text>
</a>
</g>
</g>
<!-- Node52&#45;&gt;Node59 -->
<g id="edge11" class="edge">
<title>Node52&#45;&gt;Node59</title>
<path fill="none" stroke="#191970" d="M304.9515,-137.9605C312.3849,-135.2878 319.6557,-131.8699 326,-127.5 348.2551,-112.1708 339.4318,-93.3643 362,-78.5 365.112,-76.4503 368.4177,-74.6204 371.8475,-72.9869"/>
<polygon fill="#191970" stroke="#191970" points="373.2827,-76.1807 381.1688,-69.1054 370.5917,-69.7185 373.2827,-76.1807"/>
</g>
<!-- Node60 -->
<g id="node13" class="node">
<title>Node60</title>
<g id="a_node13"><a xlink:href="classene_1_1models_1_1PlayerModel.html#a921a00136726aee3bcababbd6c9b2e3e" target="_top" xlink:title="ene.models.PlayerModel.set\lCurrentTrack">
<polygon fill="none" stroke="#000000" points="374,-.5 374,-30.5 514,-30.5 514,-.5 374,-.5"/>
<text text-anchor="start" x="382" y="-18.5" font-family="Helvetica,sans-Serif" font-size="10.00" fill="#000000">ene.models.PlayerModel.set</text>
<text text-anchor="middle" x="444" y="-7.5" font-family="Helvetica,sans-Serif" font-size="10.00" fill="#000000">CurrentTrack</text>
</a>
</g>
</g>
<!-- Node52&#45;&gt;Node60 -->
<g id="edge12" class="edge">
<title>Node52&#45;&gt;Node60</title>
<path fill="none" stroke="#191970" d="M309.2809,-137.8894C315.3618,-135.221 321.1083,-131.8235 326,-127.5 357.3549,-99.7875 331.0187,-68.6295 362,-40.5 363.7458,-38.9149 365.5896,-37.4303 367.5125,-36.0397"/>
<polygon fill="#191970" stroke="#191970" points="369.7435,-38.7743 376.3926,-30.5256 366.0509,-32.8275 369.7435,-38.7743"/>
</g>
<!-- Node54 -->
<g id="node7" class="node">
<title>Node54</title>
<g id="a_node7"><a xlink:href="classene_1_1AbstractObject.html#a9ce30d3321c7ce794df2f07bdaf3e47c" target="_top" xlink:title="ene.AbstractObject.console\lOutput">
<polygon fill="none" stroke="#000000" points="563.5,-238.5 563.5,-268.5 700.5,-268.5 700.5,-238.5 563.5,-238.5"/>
<text text-anchor="start" x="571.5" y="-256.5" font-family="Helvetica,sans-Serif" font-size="10.00" fill="#000000">ene.AbstractObject.console</text>
<text text-anchor="middle" x="632" y="-245.5" font-family="Helvetica,sans-Serif" font-size="10.00" fill="#000000">Output</text>
</a>
</g>
</g>
<!-- Node53&#45;&gt;Node54 -->
<g id="edge6" class="edge">
<title>Node53&#45;&gt;Node54</title>
<path fill="none" stroke="#191970" d="M509.2257,-237.8267C523.4433,-239.6417 538.6329,-241.5808 553.3108,-243.4546"/>
<polygon fill="#191970" stroke="#191970" points="553.0096,-246.9444 563.3723,-244.739 553.8961,-240.0008 553.0096,-246.9444"/>
</g>
<!-- Node55 -->
<g id="node8" class="node">
<title>Node55</title>
<g id="a_node8"><a xlink:href="classene_1_1AbstractObject.html#a6ee0b669069e0c3ee320a6cf41af24fe" target="_top" xlink:title="ene.AbstractObject.isDebug\lModeEnabled">
<polygon fill="none" stroke="#000000" points="562,-189.5 562,-219.5 702,-219.5 702,-189.5 562,-189.5"/>
<text text-anchor="start" x="570" y="-207.5" font-family="Helvetica,sans-Serif" font-size="10.00" fill="#000000">ene.AbstractObject.isDebug</text>
<text text-anchor="middle" x="632" y="-196.5" font-family="Helvetica,sans-Serif" font-size="10.00" fill="#000000">ModeEnabled</text>
</a>
</g>
</g>
<!-- Node53&#45;&gt;Node55 -->
<g id="edge7" class="edge">
<title>Node53&#45;&gt;Node55</title>
<path fill="none" stroke="#191970" d="M509.2257,-220.8264C522.8799,-219.0106 537.4306,-217.0757 551.5635,-215.1963"/>
<polygon fill="#191970" stroke="#191970" points="552.3105,-218.6279 561.7618,-213.8402 551.3877,-211.689 552.3105,-218.6279"/>
</g>
</g>
</svg>
