<?xml version="1.0" encoding="UTF-8" standalone="no"?>
<!DOCTYPE svg PUBLIC "-//W3C//DTD SVG 1.1//EN"
 "http://www.w3.org/Graphics/SVG/1.1/DTD/svg11.dtd">
<!-- Generated by graphviz version 2.40.1 (20161225.0304)
 -->
<!-- Title: ene.models.TrackModel.TrackModel Pages: 1 -->
<svg width="738pt" height="186pt"
 viewBox="0.00 0.00 738.00 186.00" xmlns="http://www.w3.org/2000/svg" xmlns:xlink="http://www.w3.org/1999/xlink">
<g id="graph0" class="graph" transform="scale(1 1) rotate(0) translate(4 182)">
<title>ene.models.TrackModel.TrackModel</title>
<!-- Node0 -->
<g id="node1" class="node">
<title>Node0</title>
<polygon fill="#bfbfbf" stroke="#000000" points="0,-73.5 0,-103.5 149,-103.5 149,-73.5 0,-73.5"/>
<text text-anchor="start" x="8" y="-91.5" font-family="Helvetica,sans-Serif" font-size="10.00" fill="#000000">ene.models.TrackModel.Track</text>
<text text-anchor="middle" x="74.5" y="-80.5" font-family="Helvetica,sans-Serif" font-size="10.00" fill="#000000">Model</text>
</g>
<!-- Node1 -->
<g id="node2" class="node">
<title>Node1</title>
<g id="a_node2"><a xlink:href="classene_1_1models_1_1TrackModel.html#a6e059ab76ba75be47de8d661e132f514" target="_top" xlink:title="ene.models.TrackModel.set\lArtist">
<polygon fill="none" stroke="#000000" points="185,-147.5 185,-177.5 322,-177.5 322,-147.5 185,-147.5"/>
<text text-anchor="start" x="193" y="-165.5" font-family="Helvetica,sans-Serif" font-size="10.00" fill="#000000">ene.models.TrackModel.set</text>
<text text-anchor="middle" x="253.5" y="-154.5" font-family="Helvetica,sans-Serif" font-size="10.00" fill="#000000">Artist</text>
</a>
</g>
</g>
<!-- Node0&#45;&gt;Node1 -->
<g id="edge1" class="edge">
<title>Node0&#45;&gt;Node1</title>
<path fill="none" stroke="#191970" d="M106.0951,-103.6898C128.0226,-114.0105 158.0252,-127.6958 185,-138.5 189.5146,-140.3082 194.2248,-142.1167 198.9691,-143.8843"/>
<polygon fill="#191970" stroke="#191970" points="198.1095,-147.2965 208.7034,-147.4418 200.5124,-140.7218 198.1095,-147.2965"/>
</g>
<!-- Node4 -->
<g id="node5" class="node">
<title>Node4</title>
<g id="a_node5"><a xlink:href="classene_1_1models_1_1TrackModel.html#adcb5ee61c35e73b04879409a43c4b753" target="_top" xlink:title="ene.models.TrackModel.set\lFilename">
<polygon fill="none" stroke="#000000" points="185,-98.5 185,-128.5 322,-128.5 322,-98.5 185,-98.5"/>
<text text-anchor="start" x="193" y="-116.5" font-family="Helvetica,sans-Serif" font-size="10.00" fill="#000000">ene.models.TrackModel.set</text>
<text text-anchor="middle" x="253.5" y="-105.5" font-family="Helvetica,sans-Serif" font-size="10.00" fill="#000000">Filename</text>
</a>
</g>
</g>
<!-- Node0&#45;&gt;Node4 -->
<g id="edge4" class="edge">
<title>Node0&#45;&gt;Node4</title>
<path fill="none" stroke="#191970" d="M149.1159,-98.9212C157.5967,-100.1057 166.2608,-101.3158 174.7922,-102.5073"/>
<polygon fill="#191970" stroke="#191970" points="174.3394,-105.9779 184.7274,-103.8949 175.3077,-99.0452 174.3394,-105.9779"/>
</g>
<!-- Node5 -->
<g id="node6" class="node">
<title>Node5</title>
<g id="a_node6"><a xlink:href="classene_1_1models_1_1TrackModel.html#acfe29ae2331320c5c60824a1bb4e1ba7" target="_top" xlink:title="ene.models.TrackModel.set\lGenre">
<polygon fill="none" stroke="#000000" points="185,-49.5 185,-79.5 322,-79.5 322,-49.5 185,-49.5"/>
<text text-anchor="start" x="193" y="-67.5" font-family="Helvetica,sans-Serif" font-size="10.00" fill="#000000">ene.models.TrackModel.set</text>
<text text-anchor="middle" x="253.5" y="-56.5" font-family="Helvetica,sans-Serif" font-size="10.00" fill="#000000">Genre</text>
</a>
</g>
</g>
<!-- Node0&#45;&gt;Node5 -->
<g id="edge6" class="edge">
<title>Node0&#45;&gt;Node5</title>
<path fill="none" stroke="#191970" d="M149.1159,-78.4956C157.5967,-77.3585 166.2608,-76.1969 174.7922,-75.053"/>
<polygon fill="#191970" stroke="#191970" points="175.2812,-78.5188 184.7274,-73.7209 174.351,-71.5809 175.2812,-78.5188"/>
</g>
<!-- Node6 -->
<g id="node7" class="node">
<title>Node6</title>
<g id="a_node7"><a xlink:href="classene_1_1models_1_1TrackModel.html#a1e8a6872b5dcf826ba463a663a8249f1" target="_top" xlink:title="ene.models.TrackModel.set\lTitle">
<polygon fill="none" stroke="#000000" points="185,-.5 185,-30.5 322,-30.5 322,-.5 185,-.5"/>
<text text-anchor="start" x="193" y="-18.5" font-family="Helvetica,sans-Serif" font-size="10.00" fill="#000000">ene.models.TrackModel.set</text>
<text text-anchor="middle" x="253.5" y="-7.5" font-family="Helvetica,sans-Serif" font-size="10.00" fill="#000000">Title</text>
</a>
</g>
</g>
<!-- Node0&#45;&gt;Node6 -->
<g id="edge8" class="edge">
<title>Node0&#45;&gt;Node6</title>
<path fill="none" stroke="#191970" d="M107.647,-73.4839C129.4815,-63.7458 158.7765,-50.97 185,-40.5 190.3477,-38.3649 195.9575,-36.1993 201.5674,-34.0814"/>
<polygon fill="#191970" stroke="#191970" points="202.8168,-37.351 210.9625,-30.5761 200.3698,-30.7926 202.8168,-37.351"/>
</g>
<!-- Node2 -->
<g id="node3" class="node">
<title>Node2</title>
<g id="a_node3"><a xlink:href="classene_1_1models_1_1AbstractModel.html#a970306ac2228cbcb599f65476d8c80dd" target="_top" xlink:title="ene.models.AbstractModel.changed">
<polygon fill="none" stroke="#000000" points="358,-79 358,-98 531,-98 531,-79 358,-79"/>
<text text-anchor="middle" x="444.5" y="-86" font-family="Helvetica,sans-Serif" font-size="10.00" fill="#000000">ene.models.AbstractModel.changed</text>
</a>
</g>
</g>
<!-- Node1&#45;&gt;Node2 -->
<g id="edge2" class="edge">
<title>Node1&#45;&gt;Node2</title>
<path fill="none" stroke="#191970" d="M297.4705,-147.4638C305.6508,-144.5619 314.1052,-141.492 322,-138.5 353.0988,-126.714 388.2031,-112.2667 412.8354,-101.9381"/>
<polygon fill="#191970" stroke="#191970" points="414.1969,-105.1625 422.0572,-98.0585 411.4825,-98.7102 414.1969,-105.1625"/>
</g>
<!-- Node3 -->
<g id="node4" class="node">
<title>Node3</title>
<g id="a_node4"><a xlink:href="interfaceene_1_1interfaces_1_1PartialView.html#aae781d286eda4cbf8c57fdb877dde265" target="_top" xlink:title="ene.interfaces.PartialView.update">
<polygon fill="none" stroke="#000000" points="567,-79 567,-98 730,-98 730,-79 567,-79"/>
<text text-anchor="middle" x="648.5" y="-86" font-family="Helvetica,sans-Serif" font-size="10.00" fill="#000000">ene.interfaces.PartialView.update</text>
</a>
</g>
</g>
<!-- Node2&#45;&gt;Node3 -->
<g id="edge3" class="edge">
<title>Node2&#45;&gt;Node3</title>
<path fill="none" stroke="#191970" d="M531.0144,-88.5C539.4296,-88.5 547.9887,-88.5 556.4555,-88.5"/>
<polygon fill="#191970" stroke="#191970" points="556.7215,-92.0001 566.7215,-88.5 556.7214,-85.0001 556.7215,-92.0001"/>
</g>
<!-- Node4&#45;&gt;Node2 -->
<g id="edge5" class="edge">
<title>Node4&#45;&gt;Node2</title>
<path fill="none" stroke="#191970" d="M322.1855,-104.5097C335.0545,-102.8253 348.6304,-101.0484 361.8701,-99.3154"/>
<polygon fill="#191970" stroke="#191970" points="362.4506,-102.7694 371.9118,-98.0011 361.5421,-95.8286 362.4506,-102.7694"/>
</g>
<!-- Node5&#45;&gt;Node2 -->
<g id="edge7" class="edge">
<title>Node5&#45;&gt;Node2</title>
<path fill="none" stroke="#191970" d="M322.1855,-73.1306C333.9666,-74.611 346.3402,-76.1658 358.5059,-77.6945"/>
<polygon fill="#191970" stroke="#191970" points="358.3003,-81.1961 368.6586,-78.9702 359.173,-74.2507 358.3003,-81.1961"/>
</g>
<!-- Node6&#45;&gt;Node2 -->
<g id="edge9" class="edge">
<title>Node6&#45;&gt;Node2</title>
<path fill="none" stroke="#191970" d="M295.2159,-30.5475C304.0724,-33.7918 313.3564,-37.2298 322,-40.5 352.2307,-51.9375 386.469,-65.3964 411.0482,-75.1475"/>
<polygon fill="#191970" stroke="#191970" points="410.036,-78.5115 420.6217,-78.9518 412.6211,-72.0063 410.036,-78.5115"/>
</g>
</g>
</svg>
