<?xml version="1.0" encoding="UTF-8" standalone="no"?>
<!DOCTYPE svg PUBLIC "-//W3C//DTD SVG 1.1//EN"
 "http://www.w3.org/Graphics/SVG/1.1/DTD/svg11.dtd">
<!-- Generated by graphviz version 2.40.1 (20161225.0304)
 -->
<!-- Title: ene.views.gui.partial.LibraryView.LibraryView Pages: 1 -->
<svg width="347pt" height="323pt"
 viewBox="0.00 0.00 347.00 322.50" xmlns="http://www.w3.org/2000/svg" xmlns:xlink="http://www.w3.org/1999/xlink">
<g id="graph0" class="graph" transform="scale(1 1) rotate(0) translate(4 318.5)">
<title>ene.views.gui.partial.LibraryView.LibraryView</title>
<!-- Node0 -->
<g id="node1" class="node">
<title>Node0</title>
<polygon fill="#bfbfbf" stroke="#000000" points="0,-147.5 0,-177.5 138,-177.5 138,-147.5 0,-147.5"/>
<text text-anchor="start" x="8" y="-165.5" font-family="Helvetica,sans-Serif" font-size="10.00" fill="#000000">ene.views.gui.partial.Library</text>
<text text-anchor="middle" x="69" y="-154.5" font-family="Helvetica,sans-Serif" font-size="10.00" fill="#000000">View.LibraryView</text>
</g>
<!-- Node1 -->
<g id="node2" class="node">
<title>Node1</title>
<g id="a_node2"><a xlink:href="interfaceene_1_1interfaces_1_1Model.html#a6b798cea60bb1fa4a366b22af566f3e8" target="_top" xlink:title="ene.interfaces.Model.addView">
<polygon fill="none" stroke="#000000" points="182.5,-295 182.5,-314 330.5,-314 330.5,-295 182.5,-295"/>
<text text-anchor="middle" x="256.5" y="-302" font-family="Helvetica,sans-Serif" font-size="10.00" fill="#000000">ene.interfaces.Model.addView</text>
</a>
</g>
</g>
<!-- Node0&#45;&gt;Node1 -->
<g id="edge1" class="edge">
<title>Node0&#45;&gt;Node1</title>
<path fill="none" stroke="#191970" d="M77.4887,-177.7098C93.0205,-204.0516 128.6301,-257.9779 174,-285.5 177.605,-287.6869 181.4381,-289.6222 185.4028,-291.3349"/>
<polygon fill="#191970" stroke="#191970" points="184.2567,-294.6437 194.8474,-294.9408 186.7535,-288.1041 184.2567,-294.6437"/>
</g>
<!-- Node2 -->
<g id="node3" class="node">
<title>Node2</title>
<g id="a_node3"><a xlink:href="interfaceene_1_1interfaces_1_1Localization.html#ae7d5c65647a8bd1ca0c27b3279b0751c" target="_top" xlink:title="ene.interfaces.Localization.get\lString">
<polygon fill="none" stroke="#000000" points="182,-245.5 182,-275.5 331,-275.5 331,-245.5 182,-245.5"/>
<text text-anchor="start" x="190" y="-263.5" font-family="Helvetica,sans-Serif" font-size="10.00" fill="#000000">ene.interfaces.Localization.get</text>
<text text-anchor="middle" x="256.5" y="-252.5" font-family="Helvetica,sans-Serif" font-size="10.00" fill="#000000">String</text>
</a>
</g>
</g>
<!-- Node0&#45;&gt;Node2 -->
<g id="edge2" class="edge">
<title>Node0&#45;&gt;Node2</title>
<path fill="none" stroke="#191970" d="M86.4388,-177.5553C106.395,-194.098 140.6411,-220.4473 174,-236.5 178.0408,-238.4445 182.2703,-240.2633 186.5884,-241.959"/>
<polygon fill="#191970" stroke="#191970" points="185.5507,-245.3066 196.1442,-245.4759 187.9684,-238.7373 185.5507,-245.3066"/>
</g>
<!-- Node3 -->
<g id="node4" class="node">
<title>Node3</title>
<g id="a_node4"><a xlink:href="classene_1_1views_1_1AbstractView.html#abdae9d407e6cc13b9004049e2327367b" target="_top" xlink:title="ene.views.AbstractView.set\lLayoutPosition">
<polygon fill="none" stroke="#000000" points="187,-196.5 187,-226.5 326,-226.5 326,-196.5 187,-196.5"/>
<text text-anchor="start" x="195" y="-214.5" font-family="Helvetica,sans-Serif" font-size="10.00" fill="#000000">ene.views.AbstractView.set</text>
<text text-anchor="middle" x="256.5" y="-203.5" font-family="Helvetica,sans-Serif" font-size="10.00" fill="#000000">LayoutPosition</text>
</a>
</g>
</g>
<!-- Node0&#45;&gt;Node3 -->
<g id="edge3" class="edge">
<title>Node0&#45;&gt;Node3</title>
<path fill="none" stroke="#191970" d="M126.5304,-177.5346C146.3278,-182.7083 168.6716,-188.5475 189.1782,-193.9066"/>
<polygon fill="#191970" stroke="#191970" points="188.5183,-197.3516 199.0784,-196.4938 190.2883,-190.579 188.5183,-197.3516"/>
</g>
<!-- Node4 -->
<g id="node5" class="node">
<title>Node4</title>
<g id="a_node5"><a xlink:href="classene_1_1views_1_1gui_1_1partial_1_1LibraryView.html#aa8eacdf3e3e96225e86c0da88ec431e8" target="_top" xlink:title="ene.views.gui.partial.Library\lView.setLibraryController">
<polygon fill="none" stroke="#000000" points="187.5,-147.5 187.5,-177.5 325.5,-177.5 325.5,-147.5 187.5,-147.5"/>
<text text-anchor="start" x="195.5" y="-165.5" font-family="Helvetica,sans-Serif" font-size="10.00" fill="#000000">ene.views.gui.partial.Library</text>
<text text-anchor="middle" x="256.5" y="-154.5" font-family="Helvetica,sans-Serif" font-size="10.00" fill="#000000">View.setLibraryController</text>
</a>
</g>
</g>
<!-- Node0&#45;&gt;Node4 -->
<g id="edge4" class="edge">
<title>Node0&#45;&gt;Node4</title>
<path fill="none" stroke="#191970" d="M138.0193,-162.5C150.7078,-162.5 164.0472,-162.5 177.0139,-162.5"/>
<polygon fill="#191970" stroke="#191970" points="177.3134,-166.0001 187.3134,-162.5 177.3134,-159.0001 177.3134,-166.0001"/>
</g>
<!-- Node5 -->
<g id="node6" class="node">
<title>Node5</title>
<g id="a_node6"><a xlink:href="classene_1_1views_1_1AbstractPartialView.html#a68e5b7c7280559531bad5eed28f711e4" target="_top" xlink:title="ene.views.AbstractPartial\lView.setModel">
<polygon fill="none" stroke="#000000" points="192.5,-98.5 192.5,-128.5 320.5,-128.5 320.5,-98.5 192.5,-98.5"/>
<text text-anchor="start" x="200.5" y="-116.5" font-family="Helvetica,sans-Serif" font-size="10.00" fill="#000000">ene.views.AbstractPartial</text>
<text text-anchor="middle" x="256.5" y="-105.5" font-family="Helvetica,sans-Serif" font-size="10.00" fill="#000000">View.setModel</text>
</a>
</g>
</g>
<!-- Node0&#45;&gt;Node5 -->
<g id="edge5" class="edge">
<title>Node0&#45;&gt;Node5</title>
<path fill="none" stroke="#191970" d="M126.5304,-147.4654C146.3278,-142.2917 168.6716,-136.4525 189.1782,-131.0934"/>
<polygon fill="#191970" stroke="#191970" points="190.2883,-134.421 199.0784,-128.5062 188.5183,-127.6484 190.2883,-134.421"/>
</g>
<!-- Node6 -->
<g id="node7" class="node">
<title>Node6</title>
<g id="a_node7"><a xlink:href="classene_1_1views_1_1gui_1_1partial_1_1AbstractTrackListView.html#ae113e108119ef9f8d6f8b32c308f31ab" target="_top" xlink:title="ene.views.gui.partial.Abstract\lTrackListView.setPlayerController">
<polygon fill="none" stroke="#000000" points="174,-49.5 174,-79.5 339,-79.5 339,-49.5 174,-49.5"/>
<text text-anchor="start" x="182" y="-67.5" font-family="Helvetica,sans-Serif" font-size="10.00" fill="#000000">ene.views.gui.partial.Abstract</text>
<text text-anchor="middle" x="256.5" y="-56.5" font-family="Helvetica,sans-Serif" font-size="10.00" fill="#000000">TrackListView.setPlayerController</text>
</a>
</g>
</g>
<!-- Node0&#45;&gt;Node6 -->
<g id="edge6" class="edge">
<title>Node0&#45;&gt;Node6</title>
<path fill="none" stroke="#191970" d="M86.8715,-147.4366C106.9397,-131.1745 141.0279,-105.4631 174,-89.5 178.6789,-87.2348 183.6069,-85.124 188.6302,-83.1675"/>
<polygon fill="#191970" stroke="#191970" points="190.185,-86.3253 198.3676,-79.5951 187.7739,-79.7536 190.185,-86.3253"/>
</g>
<!-- Node7 -->
<g id="node8" class="node">
<title>Node7</title>
<g id="a_node8"><a xlink:href="classene_1_1views_1_1AbstractView.html#a95a682cf88e2d16d42d56d84bb360e91" target="_top" xlink:title="ene.views.AbstractView.set\lTitle">
<polygon fill="none" stroke="#000000" points="187,-.5 187,-30.5 326,-30.5 326,-.5 187,-.5"/>
<text text-anchor="start" x="195" y="-18.5" font-family="Helvetica,sans-Serif" font-size="10.00" fill="#000000">ene.views.AbstractView.set</text>
<text text-anchor="middle" x="256.5" y="-7.5" font-family="Helvetica,sans-Serif" font-size="10.00" fill="#000000">Title</text>
</a>
</g>
</g>
<!-- Node0&#45;&gt;Node7 -->
<g id="edge7" class="edge">
<title>Node0&#45;&gt;Node7</title>
<path fill="none" stroke="#191970" d="M77.9707,-147.3173C93.9843,-121.5251 129.9745,-69.1677 174,-40.5 177.1315,-38.4609 180.4369,-36.5818 183.8526,-34.8507"/>
<polygon fill="#191970" stroke="#191970" points="185.4769,-37.9564 193.1078,-30.6065 182.559,-31.5935 185.4769,-37.9564"/>
</g>
</g>
</svg>
