<?xml version="1.0" encoding="UTF-8" standalone="no"?>
<!DOCTYPE svg PUBLIC "-//W3C//DTD SVG 1.1//EN"
 "http://www.w3.org/Graphics/SVG/1.1/DTD/svg11.dtd">
<!-- Generated by graphviz version 2.40.1 (20161225.0304)
 -->
<!-- Title: ene.views.gui.partial.AbstractTrackListView.setTableRowSorter Pages: 1 -->
<svg width="351pt" height="88pt"
 viewBox="0.00 0.00 351.00 88.00" xmlns="http://www.w3.org/2000/svg" xmlns:xlink="http://www.w3.org/1999/xlink">
<g id="graph0" class="graph" transform="scale(1 1) rotate(0) translate(4 84)">
<title>ene.views.gui.partial.AbstractTrackListView.setTableRowSorter</title>
<!-- Node81 -->
<g id="node1" class="node">
<title>Node81</title>
<polygon fill="#bfbfbf" stroke="#000000" points="0,-24.5 0,-54.5 166,-54.5 166,-24.5 0,-24.5"/>
<text text-anchor="start" x="8" y="-42.5" font-family="Helvetica,sans-Serif" font-size="10.00" fill="#000000">ene.views.gui.partial.Abstract</text>
<text text-anchor="middle" x="83" y="-31.5" font-family="Helvetica,sans-Serif" font-size="10.00" fill="#000000">TrackListView.setTableRowSorter</text>
</g>
<!-- Node82 -->
<g id="node2" class="node">
<title>Node82</title>
<g id="a_node2"><a xlink:href="classene_1_1views_1_1gui_1_1partial_1_1PlaylistView.html#a8d541ff3e91c1492b2e47cc7272ca56d" target="_top" xlink:title="ene.views.gui.partial.Playlist\lView.render">
<polygon fill="none" stroke="#000000" points="202,-49.5 202,-79.5 343,-79.5 343,-49.5 202,-49.5"/>
<text text-anchor="start" x="210" y="-67.5" font-family="Helvetica,sans-Serif" font-size="10.00" fill="#000000">ene.views.gui.partial.Playlist</text>
<text text-anchor="middle" x="272.5" y="-56.5" font-family="Helvetica,sans-Serif" font-size="10.00" fill="#000000">View.render</text>
</a>
</g>
</g>
<!-- Node81&#45;&gt;Node82 -->
<g id="edge1" class="edge">
<title>Node81&#45;&gt;Node82</title>
<path fill="none" stroke="#191970" d="M176.2285,-51.7993C184.8628,-52.9384 193.514,-54.0797 201.8951,-55.1854"/>
<polygon fill="#191970" stroke="#191970" points="176.4894,-48.3034 166.1175,-50.4654 175.5738,-55.2433 176.4894,-48.3034"/>
</g>
<!-- Node83 -->
<g id="node3" class="node">
<title>Node83</title>
<g id="a_node3"><a xlink:href="classene_1_1views_1_1gui_1_1partial_1_1LibraryView.html#a0bd6885fe06ebde4d3dffbcd888c0b41" target="_top" xlink:title="ene.views.gui.partial.Library\lView.render">
<polygon fill="none" stroke="#000000" points="203.5,-.5 203.5,-30.5 341.5,-30.5 341.5,-.5 203.5,-.5"/>
<text text-anchor="start" x="211.5" y="-18.5" font-family="Helvetica,sans-Serif" font-size="10.00" fill="#000000">ene.views.gui.partial.Library</text>
<text text-anchor="middle" x="272.5" y="-7.5" font-family="Helvetica,sans-Serif" font-size="10.00" fill="#000000">View.render</text>
</a>
</g>
</g>
<!-- Node81&#45;&gt;Node83 -->
<g id="edge2" class="edge">
<title>Node81&#45;&gt;Node83</title>
<path fill="none" stroke="#191970" d="M176.0642,-27.7135C185.2536,-26.5497 194.4641,-25.3832 203.3499,-24.2578"/>
<polygon fill="#191970" stroke="#191970" points="175.5984,-24.2444 166.1175,-28.9733 176.478,-31.189 175.5984,-24.2444"/>
</g>
</g>
</svg>
