<?xml version="1.0" encoding="UTF-8" standalone="no"?>
<!DOCTYPE svg PUBLIC "-//W3C//DTD SVG 1.1//EN"
 "http://www.w3.org/Graphics/SVG/1.1/DTD/svg11.dtd">
<!-- Generated by graphviz version 2.40.1 (20161225.0304)
 -->
<!-- Title: ene.views.gui.partial.LibraryView Pages: 1 -->
<svg width="863pt" height="1152pt"
 viewBox="0.00 0.00 862.50 1152.00" xmlns="http://www.w3.org/2000/svg" xmlns:xlink="http://www.w3.org/1999/xlink">
<g id="graph0" class="graph" transform="scale(1 1) rotate(0) translate(4 1148)">
<title>ene.views.gui.partial.LibraryView</title>
<!-- Node9 -->
<g id="node1" class="node">
<title>Node9</title>
<polygon fill="#bfbfbf" stroke="#000000" points="438,-.5 438,-112.5 598,-112.5 598,-.5 438,-.5"/>
<text text-anchor="middle" x="518" y="-100.5" font-family="Helvetica,sans-Serif" font-size="10.00" fill="#000000">ene.views.gui.partial.LibraryView</text>
<polyline fill="none" stroke="#000000" points="438,-93.5 598,-93.5 "/>
<text text-anchor="middle" x="518" y="-81.5" font-family="Helvetica,sans-Serif" font-size="10.00" fill="#000000"> </text>
<polyline fill="none" stroke="#000000" points="438,-74.5 598,-74.5 "/>
<text text-anchor="start" x="446" y="-62.5" font-family="Helvetica,sans-Serif" font-size="10.00" fill="#000000">+ LibraryView()</text>
<text text-anchor="start" x="446" y="-51.5" font-family="Helvetica,sans-Serif" font-size="10.00" fill="#000000">+ update()</text>
<text text-anchor="start" x="446" y="-40.5" font-family="Helvetica,sans-Serif" font-size="10.00" fill="#000000"># setLibraryController()</text>
<text text-anchor="start" x="446" y="-29.5" font-family="Helvetica,sans-Serif" font-size="10.00" fill="#000000"># getLibraryController()</text>
<text text-anchor="start" x="446" y="-18.5" font-family="Helvetica,sans-Serif" font-size="10.00" fill="#000000"># initialize()</text>
<text text-anchor="start" x="446" y="-7.5" font-family="Helvetica,sans-Serif" font-size="10.00" fill="#000000"># loadContent()</text>
</g>
<!-- Node10 -->
<g id="node2" class="node">
<title>Node10</title>
<g id="a_node2"><a xlink:href="classene_1_1views_1_1gui_1_1partial_1_1AbstractTrackListView.html" target="_top" xlink:title="{ene.views.gui.partial.Abstract\lTrackListView\n||+ valueChanged()\l+ render()\l# setTable()\l# getTable()\l# setTableContent()\l# getTableContent()\l# setPlayerController()\l# getPlayerController()\l# hideColumn()\l# getSelectedFilename()\l}">
<polygon fill="none" stroke="#000000" points="302,-150.5 302,-317.5 448,-317.5 448,-150.5 302,-150.5"/>
<text text-anchor="start" x="310" y="-305.5" font-family="Helvetica,sans-Serif" font-size="10.00" fill="#000000">ene.views.gui.partial.Abstract</text>
<text text-anchor="middle" x="375" y="-294.5" font-family="Helvetica,sans-Serif" font-size="10.00" fill="#000000">TrackListView</text>
<polyline fill="none" stroke="#000000" points="302,-287.5 448,-287.5 "/>
<text text-anchor="middle" x="375" y="-275.5" font-family="Helvetica,sans-Serif" font-size="10.00" fill="#000000"> </text>
<polyline fill="none" stroke="#000000" points="302,-268.5 448,-268.5 "/>
<text text-anchor="start" x="310" y="-256.5" font-family="Helvetica,sans-Serif" font-size="10.00" fill="#000000">+ valueChanged()</text>
<text text-anchor="start" x="310" y="-245.5" font-family="Helvetica,sans-Serif" font-size="10.00" fill="#000000">+ render()</text>
<text text-anchor="start" x="310" y="-234.5" font-family="Helvetica,sans-Serif" font-size="10.00" fill="#000000"># setTable()</text>
<text text-anchor="start" x="310" y="-223.5" font-family="Helvetica,sans-Serif" font-size="10.00" fill="#000000"># getTable()</text>
<text text-anchor="start" x="310" y="-212.5" font-family="Helvetica,sans-Serif" font-size="10.00" fill="#000000"># setTableContent()</text>
<text text-anchor="start" x="310" y="-201.5" font-family="Helvetica,sans-Serif" font-size="10.00" fill="#000000"># getTableContent()</text>
<text text-anchor="start" x="310" y="-190.5" font-family="Helvetica,sans-Serif" font-size="10.00" fill="#000000"># setPlayerController()</text>
<text text-anchor="start" x="310" y="-179.5" font-family="Helvetica,sans-Serif" font-size="10.00" fill="#000000"># getPlayerController()</text>
<text text-anchor="start" x="310" y="-168.5" font-family="Helvetica,sans-Serif" font-size="10.00" fill="#000000"># hideColumn()</text>
<text text-anchor="start" x="310" y="-157.5" font-family="Helvetica,sans-Serif" font-size="10.00" fill="#000000"># getSelectedFilename()</text>
</a>
</g>
</g>
<!-- Node10&#45;&gt;Node9 -->
<g id="edge1" class="edge">
<title>Node10&#45;&gt;Node9</title>
<path fill="none" stroke="#191970" d="M448.6325,-142.6031C456.8967,-132.345 465.1229,-122.1342 472.8689,-112.5193"/>
<polygon fill="none" stroke="#191970" points="445.8608,-140.4645 442.3127,-150.4476 451.3119,-144.8561 445.8608,-140.4645"/>
</g>
<!-- Node11 -->
<g id="node3" class="node">
<title>Node11</title>
<g id="a_node3"><a xlink:href="classene_1_1views_1_1AbstractPartialView.html" target="_top" xlink:title="{ene::views::AbstractPartial\lView\&lt; JPanel, TrackListModel \&gt;\n||+ setModel()\l+ getModel()\l}">
<polygon fill="none" stroke="#000000" points="241.5,-595.5 241.5,-674.5 400.5,-674.5 400.5,-595.5 241.5,-595.5"/>
<text text-anchor="start" x="249.5" y="-662.5" font-family="Helvetica,sans-Serif" font-size="10.00" fill="#000000">ene::views::AbstractPartial</text>
<text text-anchor="middle" x="321" y="-651.5" font-family="Helvetica,sans-Serif" font-size="10.00" fill="#000000">View&lt; JPanel, TrackListModel &gt;</text>
<polyline fill="none" stroke="#000000" points="241.5,-644.5 400.5,-644.5 "/>
<text text-anchor="middle" x="321" y="-632.5" font-family="Helvetica,sans-Serif" font-size="10.00" fill="#000000"> </text>
<polyline fill="none" stroke="#000000" points="241.5,-625.5 400.5,-625.5 "/>
<text text-anchor="start" x="249.5" y="-613.5" font-family="Helvetica,sans-Serif" font-size="10.00" fill="#000000">+ setModel()</text>
<text text-anchor="start" x="249.5" y="-602.5" font-family="Helvetica,sans-Serif" font-size="10.00" fill="#000000">+ getModel()</text>
</a>
</g>
</g>
<!-- Node11&#45;&gt;Node10 -->
<g id="edge2" class="edge">
<title>Node11&#45;&gt;Node10</title>
<path fill="none" stroke="#191970" d="M327.4267,-585.289C331.7708,-551.8443 337.6659,-506.7641 343,-467 349.6501,-417.4259 357.2631,-361.9441 363.3948,-317.5598"/>
<polygon fill="none" stroke="#191970" points="323.9467,-584.9087 326.1306,-595.2761 330.8885,-585.8097 323.9467,-584.9087"/>
</g>
<!-- Node12 -->
<g id="node4" class="node">
<title>Node12</title>
<g id="a_node4"><a xlink:href="classene_1_1views_1_1AbstractView.html" target="_top" xlink:title="{ene::views::AbstractView\l\&lt; CoreComponentType \&gt;\n||+ setTitle()\l+ getTitle()\l+ setCoreComponent()\l+ getCoreComponent()\l+ setLayoutPosition()\l+ getLayoutPosition()\l}">
<polygon fill="none" stroke="#000000" points="256,-722.5 256,-845.5 384,-845.5 384,-722.5 256,-722.5"/>
<text text-anchor="start" x="264" y="-833.5" font-family="Helvetica,sans-Serif" font-size="10.00" fill="#000000">ene::views::AbstractView</text>
<text text-anchor="middle" x="320" y="-822.5" font-family="Helvetica,sans-Serif" font-size="10.00" fill="#000000">&lt; CoreComponentType &gt;</text>
<polyline fill="none" stroke="#000000" points="256,-815.5 384,-815.5 "/>
<text text-anchor="middle" x="320" y="-803.5" font-family="Helvetica,sans-Serif" font-size="10.00" fill="#000000"> </text>
<polyline fill="none" stroke="#000000" points="256,-796.5 384,-796.5 "/>
<text text-anchor="start" x="264" y="-784.5" font-family="Helvetica,sans-Serif" font-size="10.00" fill="#000000">+ setTitle()</text>
<text text-anchor="start" x="264" y="-773.5" font-family="Helvetica,sans-Serif" font-size="10.00" fill="#000000">+ getTitle()</text>
<text text-anchor="start" x="264" y="-762.5" font-family="Helvetica,sans-Serif" font-size="10.00" fill="#000000">+ setCoreComponent()</text>
<text text-anchor="start" x="264" y="-751.5" font-family="Helvetica,sans-Serif" font-size="10.00" fill="#000000">+ getCoreComponent()</text>
<text text-anchor="start" x="264" y="-740.5" font-family="Helvetica,sans-Serif" font-size="10.00" fill="#000000">+ setLayoutPosition()</text>
<text text-anchor="start" x="264" y="-729.5" font-family="Helvetica,sans-Serif" font-size="10.00" fill="#000000">+ getLayoutPosition()</text>
</a>
</g>
</g>
<!-- Node12&#45;&gt;Node11 -->
<g id="edge3" class="edge">
<title>Node12&#45;&gt;Node11</title>
<path fill="none" stroke="#191970" d="M320.4838,-711.9078C320.5696,-699.1316 320.656,-686.2609 320.7329,-674.8008"/>
<polygon fill="none" stroke="#191970" points="316.9827,-712.0817 320.4154,-722.105 323.9825,-712.1288 316.9827,-712.0817"/>
</g>
<!-- Node13 -->
<g id="node5" class="node">
<title>Node13</title>
<g id="a_node5"><a xlink:href="classene_1_1AbstractObject.html" target="_top" xlink:title="{ene.AbstractObject\n||+ enableDebugMode()\l+ disableDebugMode()\l+ isDebugModeEnabled()\l+ debugInfoAbout()\l+ consoleOutput()\l# delay()\l}">
<polygon fill="none" stroke="#000000" points="580.5,-915.5 580.5,-1027.5 707.5,-1027.5 707.5,-915.5 580.5,-915.5"/>
<text text-anchor="middle" x="644" y="-1015.5" font-family="Helvetica,sans-Serif" font-size="10.00" fill="#000000">ene.AbstractObject</text>
<polyline fill="none" stroke="#000000" points="580.5,-1008.5 707.5,-1008.5 "/>
<text text-anchor="middle" x="644" y="-996.5" font-family="Helvetica,sans-Serif" font-size="10.00" fill="#000000"> </text>
<polyline fill="none" stroke="#000000" points="580.5,-989.5 707.5,-989.5 "/>
<text text-anchor="start" x="588.5" y="-977.5" font-family="Helvetica,sans-Serif" font-size="10.00" fill="#000000">+ enableDebugMode()</text>
<text text-anchor="start" x="588.5" y="-966.5" font-family="Helvetica,sans-Serif" font-size="10.00" fill="#000000">+ disableDebugMode()</text>
<text text-anchor="start" x="588.5" y="-955.5" font-family="Helvetica,sans-Serif" font-size="10.00" fill="#000000">+ isDebugModeEnabled()</text>
<text text-anchor="start" x="588.5" y="-944.5" font-family="Helvetica,sans-Serif" font-size="10.00" fill="#000000">+ debugInfoAbout()</text>
<text text-anchor="start" x="588.5" y="-933.5" font-family="Helvetica,sans-Serif" font-size="10.00" fill="#000000">+ consoleOutput()</text>
<text text-anchor="start" x="588.5" y="-922.5" font-family="Helvetica,sans-Serif" font-size="10.00" fill="#000000"># delay()</text>
</a>
</g>
</g>
<!-- Node13&#45;&gt;Node12 -->
<g id="edge4" class="edge">
<title>Node13&#45;&gt;Node12</title>
<path fill="none" stroke="#191970" d="M579.1489,-909.107C576.7747,-907.3378 574.3883,-905.6297 572,-904 512.3604,-863.3046 436.7774,-829.33 384.0137,-808.0387"/>
<polygon fill="none" stroke="#191970" points="577.1159,-911.9597 587.1597,-915.332 581.411,-906.4323 577.1159,-911.9597"/>
</g>
<!-- Node25 -->
<g id="node17" class="node">
<title>Node25</title>
<g id="a_node17"><a xlink:href="classene_1_1controllers_1_1AbstractController.html" target="_top" xlink:title="{ene.controllers.Abstract\lController\&lt; ModelType \&gt;\n||+ setModel()\l+ getModel()\l}">
<polygon fill="none" stroke="#000000" points="583.5,-744.5 583.5,-823.5 708.5,-823.5 708.5,-744.5 583.5,-744.5"/>
<text text-anchor="start" x="591.5" y="-811.5" font-family="Helvetica,sans-Serif" font-size="10.00" fill="#000000">ene.controllers.Abstract</text>
<text text-anchor="middle" x="646" y="-800.5" font-family="Helvetica,sans-Serif" font-size="10.00" fill="#000000">Controller&lt; ModelType &gt;</text>
<polyline fill="none" stroke="#000000" points="583.5,-793.5 708.5,-793.5 "/>
<text text-anchor="middle" x="646" y="-781.5" font-family="Helvetica,sans-Serif" font-size="10.00" fill="#000000"> </text>
<polyline fill="none" stroke="#000000" points="583.5,-774.5 708.5,-774.5 "/>
<text text-anchor="start" x="591.5" y="-762.5" font-family="Helvetica,sans-Serif" font-size="10.00" fill="#000000">+ setModel()</text>
<text text-anchor="start" x="591.5" y="-751.5" font-family="Helvetica,sans-Serif" font-size="10.00" fill="#000000">+ getModel()</text>
</a>
</g>
</g>
<!-- Node13&#45;&gt;Node25 -->
<g id="edge18" class="edge">
<title>Node13&#45;&gt;Node25</title>
<path fill="none" stroke="#191970" d="M644.7068,-905.2397C644.9975,-877.9832 645.3245,-847.326 645.577,-823.6592"/>
<polygon fill="none" stroke="#191970" points="641.2043,-905.461 644.5974,-915.4978 648.2039,-905.5357 641.2043,-905.461"/>
</g>
<!-- Node14 -->
<g id="node6" class="node">
<title>Node14</title>
<polygon fill="none" stroke="#bfbfbf" points="605.5,-1086.5 605.5,-1143.5 682.5,-1143.5 682.5,-1086.5 605.5,-1086.5"/>
<text text-anchor="middle" x="644" y="-1131.5" font-family="Helvetica,sans-Serif" font-size="10.00" fill="#000000">static boolean</text>
<polyline fill="none" stroke="#bfbfbf" points="605.5,-1124.5 682.5,-1124.5 "/>
<text text-anchor="middle" x="644" y="-1112.5" font-family="Helvetica,sans-Serif" font-size="10.00" fill="#000000"> </text>
<polyline fill="none" stroke="#bfbfbf" points="605.5,-1105.5 682.5,-1105.5 "/>
<text text-anchor="middle" x="644" y="-1093.5" font-family="Helvetica,sans-Serif" font-size="10.00" fill="#000000"> </text>
</g>
<!-- Node14&#45;&gt;Node13 -->
<g id="edge5" class="edge">
<title>Node14&#45;&gt;Node13</title>
<path fill="none" stroke="#404040" d="M644,-1086.3055C644,-1072.9442 644,-1056.4218 644,-1040.1157"/>
<polygon fill="none" stroke="#404040" points="644.0001,-1039.7445 640,-1033.7445 644,-1027.7445 648,-1033.7444 644.0001,-1039.7445"/>
<text text-anchor="middle" x="691" y="-1060" font-family="Helvetica,sans-Serif" font-size="10.00" fill="#000000"> #debugModeEnabled</text>
</g>
<!-- Node15 -->
<g id="node7" class="node">
<title>Node15</title>
<g id="a_node7"><a xlink:href="interfaceene_1_1interfaces_1_1View.html" target="_top" xlink:title="{ene::interfaces::View\l\&lt; CoreComponentType \&gt;\n||+ setTitle()\l+ getTitle()\l+ setCoreComponent()\l+ getCoreComponent()\l+ setLayoutPosition()\l+ getLayoutPosition()\l+ render()\l}">
<polygon fill="none" stroke="#000000" points="0,-904.5 0,-1038.5 128,-1038.5 128,-904.5 0,-904.5"/>
<text text-anchor="start" x="8" y="-1026.5" font-family="Helvetica,sans-Serif" font-size="10.00" fill="#000000">ene::interfaces::View</text>
<text text-anchor="middle" x="64" y="-1015.5" font-family="Helvetica,sans-Serif" font-size="10.00" fill="#000000">&lt; CoreComponentType &gt;</text>
<polyline fill="none" stroke="#000000" points="0,-1008.5 128,-1008.5 "/>
<text text-anchor="middle" x="64" y="-996.5" font-family="Helvetica,sans-Serif" font-size="10.00" fill="#000000"> </text>
<polyline fill="none" stroke="#000000" points="0,-989.5 128,-989.5 "/>
<text text-anchor="start" x="8" y="-977.5" font-family="Helvetica,sans-Serif" font-size="10.00" fill="#000000">+ setTitle()</text>
<text text-anchor="start" x="8" y="-966.5" font-family="Helvetica,sans-Serif" font-size="10.00" fill="#000000">+ getTitle()</text>
<text text-anchor="start" x="8" y="-955.5" font-family="Helvetica,sans-Serif" font-size="10.00" fill="#000000">+ setCoreComponent()</text>
<text text-anchor="start" x="8" y="-944.5" font-family="Helvetica,sans-Serif" font-size="10.00" fill="#000000">+ getCoreComponent()</text>
<text text-anchor="start" x="8" y="-933.5" font-family="Helvetica,sans-Serif" font-size="10.00" fill="#000000">+ setLayoutPosition()</text>
<text text-anchor="start" x="8" y="-922.5" font-family="Helvetica,sans-Serif" font-size="10.00" fill="#000000">+ getLayoutPosition()</text>
<text text-anchor="start" x="8" y="-911.5" font-family="Helvetica,sans-Serif" font-size="10.00" fill="#000000">+ render()</text>
</a>
</g>
</g>
<!-- Node15&#45;&gt;Node12 -->
<g id="edge6" class="edge">
<title>Node15&#45;&gt;Node12</title>
<path fill="none" stroke="#191970" d="M136.1961,-904.63C136.4643,-904.4193 136.7322,-904.2092 137,-904 158.1795,-887.449 211.8551,-852.5328 255.6326,-824.6101"/>
<polygon fill="none" stroke="#191970" points="133.9718,-901.9275 128.3865,-910.9306 138.3671,-907.3756 133.9718,-901.9275"/>
</g>
<!-- Node20 -->
<g id="node12" class="node">
<title>Node20</title>
<g id="a_node12"><a xlink:href="interfaceene_1_1interfaces_1_1PartialView.html" target="_top" xlink:title="{ene::interfaces::Partial\lView\&lt; CoreComponentType,\l ModelType \&gt;\n||+ setModel()\l+ getModel()\l+ update()\l}">
<polygon fill="none" stroke="#000000" points="68.5,-733.5 68.5,-834.5 211.5,-834.5 211.5,-733.5 68.5,-733.5"/>
<text text-anchor="start" x="76.5" y="-822.5" font-family="Helvetica,sans-Serif" font-size="10.00" fill="#000000">ene::interfaces::Partial</text>
<text text-anchor="start" x="76.5" y="-811.5" font-family="Helvetica,sans-Serif" font-size="10.00" fill="#000000">View&lt; CoreComponentType,</text>
<text text-anchor="middle" x="140" y="-800.5" font-family="Helvetica,sans-Serif" font-size="10.00" fill="#000000"> ModelType &gt;</text>
<polyline fill="none" stroke="#000000" points="68.5,-793.5 211.5,-793.5 "/>
<text text-anchor="middle" x="140" y="-781.5" font-family="Helvetica,sans-Serif" font-size="10.00" fill="#000000"> </text>
<polyline fill="none" stroke="#000000" points="68.5,-774.5 211.5,-774.5 "/>
<text text-anchor="start" x="76.5" y="-762.5" font-family="Helvetica,sans-Serif" font-size="10.00" fill="#000000">+ setModel()</text>
<text text-anchor="start" x="76.5" y="-751.5" font-family="Helvetica,sans-Serif" font-size="10.00" fill="#000000">+ getModel()</text>
<text text-anchor="start" x="76.5" y="-740.5" font-family="Helvetica,sans-Serif" font-size="10.00" fill="#000000">+ update()</text>
</a>
</g>
</g>
<!-- Node15&#45;&gt;Node20 -->
<g id="edge12" class="edge">
<title>Node15&#45;&gt;Node20</title>
<path fill="none" stroke="#191970" d="M94.9837,-895.0599C103.2517,-874.6619 111.9788,-853.1312 119.5252,-834.5135"/>
<polygon fill="none" stroke="#191970" points="91.7359,-893.7554 91.2231,-904.3378 98.2233,-896.385 91.7359,-893.7554"/>
</g>
<!-- Node16 -->
<g id="node8" class="node">
<title>Node16</title>
<g id="a_node8"><a xlink:href="interfaceene_1_1interfaces_1_1Localization.html" target="_top" xlink:title="{ene.interfaces.Localization\n||+ getString()\l}">
<polygon fill="none" stroke="#000000" points="146.5,-943 146.5,-1000 279.5,-1000 279.5,-943 146.5,-943"/>
<text text-anchor="middle" x="213" y="-988" font-family="Helvetica,sans-Serif" font-size="10.00" fill="#000000">ene.interfaces.Localization</text>
<polyline fill="none" stroke="#000000" points="146.5,-981 279.5,-981 "/>
<text text-anchor="middle" x="213" y="-969" font-family="Helvetica,sans-Serif" font-size="10.00" fill="#000000"> </text>
<polyline fill="none" stroke="#000000" points="146.5,-962 279.5,-962 "/>
<text text-anchor="start" x="154.5" y="-950" font-family="Helvetica,sans-Serif" font-size="10.00" fill="#000000">+ getString()</text>
</a>
</g>
</g>
<!-- Node16&#45;&gt;Node12 -->
<g id="edge7" class="edge">
<title>Node16&#45;&gt;Node12</title>
<path fill="none" stroke="#191970" d="M234.5612,-933.7175C248.9792,-908.4523 268.2789,-874.6327 284.8872,-845.5294"/>
<polygon fill="none" stroke="#191970" points="231.4009,-932.194 229.4843,-942.614 237.4806,-935.6635 231.4009,-932.194"/>
</g>
<!-- Node17 -->
<g id="node9" class="node">
<title>Node17</title>
<polygon fill="none" stroke="#bfbfbf" points="168,-1086.5 168,-1143.5 258,-1143.5 258,-1086.5 168,-1086.5"/>
<text text-anchor="middle" x="213" y="-1131.5" font-family="Helvetica,sans-Serif" font-size="10.00" fill="#000000">static final String</text>
<polyline fill="none" stroke="#bfbfbf" points="168,-1124.5 258,-1124.5 "/>
<text text-anchor="middle" x="213" y="-1112.5" font-family="Helvetica,sans-Serif" font-size="10.00" fill="#000000"> </text>
<polyline fill="none" stroke="#bfbfbf" points="168,-1105.5 258,-1105.5 "/>
<text text-anchor="middle" x="213" y="-1093.5" font-family="Helvetica,sans-Serif" font-size="10.00" fill="#000000"> </text>
</g>
<!-- Node17&#45;&gt;Node16 -->
<g id="edge8" class="edge">
<title>Node17&#45;&gt;Node16</title>
<path fill="none" stroke="#404040" d="M213,-1086.3055C213,-1065.0904 213,-1035.9058 213,-1012.2714"/>
<polygon fill="none" stroke="#404040" points="213.0001,-1012.1447 209,-1006.1448 213,-1000.1447 217,-1006.1447 213.0001,-1012.1447"/>
<text text-anchor="middle" x="263" y="-1060" font-family="Helvetica,sans-Serif" font-size="10.00" fill="#000000"> +DEFAULT_LOCALE</text>
</g>
<!-- Node18 -->
<g id="node10" class="node">
<title>Node18</title>
<polygon fill="none" stroke="#bfbfbf" points="298,-943 298,-1000 340,-1000 340,-943 298,-943"/>
<text text-anchor="middle" x="319" y="-988" font-family="Helvetica,sans-Serif" font-size="10.00" fill="#000000">String</text>
<polyline fill="none" stroke="#bfbfbf" points="298,-981 340,-981 "/>
<text text-anchor="middle" x="319" y="-969" font-family="Helvetica,sans-Serif" font-size="10.00" fill="#000000"> </text>
<polyline fill="none" stroke="#bfbfbf" points="298,-962 340,-962 "/>
<text text-anchor="middle" x="319" y="-950" font-family="Helvetica,sans-Serif" font-size="10.00" fill="#000000"> </text>
</g>
<!-- Node18&#45;&gt;Node12 -->
<g id="edge9" class="edge">
<title>Node18&#45;&gt;Node12</title>
<path fill="none" stroke="#404040" d="M319.1541,-942.614C319.2749,-919.9523 319.4487,-887.3726 319.6073,-857.6287"/>
<polygon fill="none" stroke="#404040" points="319.6077,-857.5292 315.6399,-851.508 319.6718,-845.5294 323.6397,-851.5507 319.6077,-857.5292"/>
<text text-anchor="middle" x="354" y="-878" font-family="Helvetica,sans-Serif" font-size="10.00" fill="#000000"> #layoutPosition</text>
<text text-anchor="middle" x="354" y="-867" font-family="Helvetica,sans-Serif" font-size="10.00" fill="#000000">#title</text>
</g>
<!-- Node19 -->
<g id="node11" class="node">
<title>Node19</title>
<polygon fill="none" stroke="#bfbfbf" points="358,-943 358,-1000 468,-1000 468,-943 358,-943"/>
<text text-anchor="middle" x="413" y="-988" font-family="Helvetica,sans-Serif" font-size="10.00" fill="#000000">CoreComponentType</text>
<polyline fill="none" stroke="#bfbfbf" points="358,-981 468,-981 "/>
<text text-anchor="middle" x="413" y="-969" font-family="Helvetica,sans-Serif" font-size="10.00" fill="#000000"> </text>
<polyline fill="none" stroke="#bfbfbf" points="358,-962 468,-962 "/>
<text text-anchor="middle" x="413" y="-950" font-family="Helvetica,sans-Serif" font-size="10.00" fill="#000000"> </text>
</g>
<!-- Node19&#45;&gt;Node12 -->
<g id="edge10" class="edge">
<title>Node19&#45;&gt;Node12</title>
<path fill="none" stroke="#404040" d="M410.8281,-942.81C408.2148,-920.371 402.4904,-888.9088 390,-864 388.6247,-861.2573 387.1328,-858.5335 385.5453,-855.8376"/>
<polygon fill="none" stroke="#404040" points="385.4604,-855.7049 378.8571,-852.8071 378.9921,-845.5973 385.5954,-848.495 385.4604,-855.7049"/>
<text text-anchor="middle" x="437" y="-872.5" font-family="Helvetica,sans-Serif" font-size="10.00" fill="#000000"> #coreComponent</text>
</g>
<!-- Node20&#45;&gt;Node11 -->
<g id="edge11" class="edge">
<title>Node20&#45;&gt;Node11</title>
<path fill="none" stroke="#191970" d="M209.2576,-726.9868C230.4577,-709.5349 253.3061,-690.726 272.7837,-674.6919"/>
<polygon fill="none" stroke="#191970" points="207.027,-724.2897 201.5309,-733.3475 211.4759,-729.6941 207.027,-724.2897"/>
</g>
<!-- Node21 -->
<g id="node13" class="node">
<title>Node21</title>
<polygon fill="none" stroke="#bfbfbf" points="497.5,-943 497.5,-1000 562.5,-1000 562.5,-943 497.5,-943"/>
<text text-anchor="middle" x="530" y="-988" font-family="Helvetica,sans-Serif" font-size="10.00" fill="#000000">ModelType</text>
<polyline fill="none" stroke="#bfbfbf" points="497.5,-981 562.5,-981 "/>
<text text-anchor="middle" x="530" y="-969" font-family="Helvetica,sans-Serif" font-size="10.00" fill="#000000"> </text>
<polyline fill="none" stroke="#bfbfbf" points="497.5,-962 562.5,-962 "/>
<text text-anchor="middle" x="530" y="-950" font-family="Helvetica,sans-Serif" font-size="10.00" fill="#000000"> </text>
</g>
<!-- Node21&#45;&gt;Node11 -->
<g id="edge13" class="edge">
<title>Node21&#45;&gt;Node11</title>
<path fill="none" stroke="#404040" d="M517.7108,-942.7724C508.0835,-920.866 494.0151,-890.1169 480,-864 445.0024,-798.7827 436.0358,-782.2166 393,-722 384.0048,-709.4138 373.7145,-696.321 363.7819,-684.2297"/>
<polygon fill="none" stroke="#404040" points="363.595,-684.0048 356.6836,-681.9474 355.9245,-674.7763 362.8359,-676.8337 363.595,-684.0048"/>
<text text-anchor="middle" x="487.5" y="-781.5" font-family="Helvetica,sans-Serif" font-size="10.00" fill="#000000"> #model</text>
</g>
<!-- Node21&#45;&gt;Node25 -->
<g id="edge20" class="edge">
<title>Node21&#45;&gt;Node25</title>
<path fill="none" stroke="#404040" d="M547.8708,-942.614C565.7251,-913.7547 593.5304,-868.8107 614.9909,-834.1225"/>
<polygon fill="none" stroke="#404040" points="615.1158,-833.9205 614.8709,-826.7135 621.4293,-823.7156 621.6742,-830.9225 615.1158,-833.9205"/>
<text text-anchor="middle" x="611.5" y="-872.5" font-family="Helvetica,sans-Serif" font-size="10.00" fill="#000000"> #model</text>
</g>
<!-- Node22 -->
<g id="node14" class="node">
<title>Node22</title>
<polygon fill="none" stroke="#bfbfbf" points="522.5,-484 522.5,-541 629.5,-541 629.5,-484 522.5,-484"/>
<text text-anchor="middle" x="576" y="-529" font-family="Helvetica,sans-Serif" font-size="10.00" fill="#000000">ListSelectionListener</text>
<polyline fill="none" stroke="#bfbfbf" points="522.5,-522 629.5,-522 "/>
<text text-anchor="middle" x="576" y="-510" font-family="Helvetica,sans-Serif" font-size="10.00" fill="#000000"> </text>
<polyline fill="none" stroke="#bfbfbf" points="522.5,-503 629.5,-503 "/>
<text text-anchor="middle" x="576" y="-491" font-family="Helvetica,sans-Serif" font-size="10.00" fill="#000000"> </text>
</g>
<!-- Node22&#45;&gt;Node10 -->
<g id="edge14" class="edge">
<title>Node22&#45;&gt;Node10</title>
<path fill="none" stroke="#191970" d="M564.218,-474.2424C551.4054,-436.6012 528.341,-378.7217 496,-336 482.4847,-318.1466 465.3111,-301.3228 448.1784,-286.6826"/>
<polygon fill="none" stroke="#191970" points="560.9278,-475.4402 567.4066,-483.8233 567.5697,-473.2297 560.9278,-475.4402"/>
</g>
<!-- Node23 -->
<g id="node15" class="node">
<title>Node23</title>
<g id="a_node15"><a xlink:href="classene_1_1controllers_1_1PlayerController.html" target="_top" xlink:title="{ene.controllers.PlayerController\n||+ PlayerController()\l+ changeTrackPosition()\l+ load()\l+ togglePlayback()\l}">
<polygon fill="none" stroke="#000000" points="351.5,-467.5 351.5,-557.5 504.5,-557.5 504.5,-467.5 351.5,-467.5"/>
<text text-anchor="middle" x="428" y="-545.5" font-family="Helvetica,sans-Serif" font-size="10.00" fill="#000000">ene.controllers.PlayerController</text>
<polyline fill="none" stroke="#000000" points="351.5,-538.5 504.5,-538.5 "/>
<text text-anchor="middle" x="428" y="-526.5" font-family="Helvetica,sans-Serif" font-size="10.00" fill="#000000"> </text>
<polyline fill="none" stroke="#000000" points="351.5,-519.5 504.5,-519.5 "/>
<text text-anchor="start" x="359.5" y="-507.5" font-family="Helvetica,sans-Serif" font-size="10.00" fill="#000000">+ PlayerController()</text>
<text text-anchor="start" x="359.5" y="-496.5" font-family="Helvetica,sans-Serif" font-size="10.00" fill="#000000">+ changeTrackPosition()</text>
<text text-anchor="start" x="359.5" y="-485.5" font-family="Helvetica,sans-Serif" font-size="10.00" fill="#000000">+ load()</text>
<text text-anchor="start" x="359.5" y="-474.5" font-family="Helvetica,sans-Serif" font-size="10.00" fill="#000000">+ togglePlayback()</text>
</a>
</g>
</g>
<!-- Node23&#45;&gt;Node10 -->
<g id="edge15" class="edge">
<title>Node23&#45;&gt;Node10</title>
<path fill="none" stroke="#404040" d="M419.4257,-467.4446C412.3645,-430.3401 402.1067,-376.4381 393.2266,-329.7755"/>
<polygon fill="none" stroke="#404040" points="393.1854,-329.5585 388.1341,-324.4121 390.9419,-317.7701 395.9931,-322.9165 393.1854,-329.5585"/>
<text text-anchor="middle" x="453.5" y="-390" font-family="Helvetica,sans-Serif" font-size="10.00" fill="#000000"> #playerController</text>
</g>
<!-- Node24 -->
<g id="node16" class="node">
<title>Node24</title>
<g id="a_node16"><a xlink:href="classene_1_1controllers_1_1AbstractController.html" target="_top" xlink:title="{ene.controllers.Abstract\lController\&lt; PlayerModel \&gt;\n|# model\l|+ setModel()\l+ getModel()\l}">
<polygon fill="none" stroke="#000000" points="432.5,-595.5 432.5,-674.5 563.5,-674.5 563.5,-595.5 432.5,-595.5"/>
<text text-anchor="start" x="440.5" y="-662.5" font-family="Helvetica,sans-Serif" font-size="10.00" fill="#000000">ene.controllers.Abstract</text>
<text text-anchor="middle" x="498" y="-651.5" font-family="Helvetica,sans-Serif" font-size="10.00" fill="#000000">Controller&lt; PlayerModel &gt;</text>
<polyline fill="none" stroke="#000000" points="432.5,-644.5 563.5,-644.5 "/>
<text text-anchor="start" x="440.5" y="-632.5" font-family="Helvetica,sans-Serif" font-size="10.00" fill="#000000"># model</text>
<polyline fill="none" stroke="#000000" points="432.5,-625.5 563.5,-625.5 "/>
<text text-anchor="start" x="440.5" y="-613.5" font-family="Helvetica,sans-Serif" font-size="10.00" fill="#000000">+ setModel()</text>
<text text-anchor="start" x="440.5" y="-602.5" font-family="Helvetica,sans-Serif" font-size="10.00" fill="#000000">+ getModel()</text>
</a>
</g>
</g>
<!-- Node24&#45;&gt;Node23 -->
<g id="edge16" class="edge">
<title>Node24&#45;&gt;Node23</title>
<path fill="none" stroke="#191970" d="M470.1751,-586.3063C464.7627,-576.8348 459.1112,-566.9446 453.7688,-557.5953"/>
<polygon fill="none" stroke="#191970" points="467.2727,-588.2818 475.273,-595.2278 473.3504,-584.8088 467.2727,-588.2818"/>
</g>
<!-- Node25&#45;&gt;Node24 -->
<g id="edge17" class="edge">
<title>Node25&#45;&gt;Node24</title>
<path fill="none" stroke="#ffa500" d="M599.5355,-737.2216C579.5976,-717.1489 556.5491,-693.9447 537.4562,-674.7228"/>
<polygon fill="#ffa500" stroke="#ffa500" points="597.1968,-739.8336 606.7273,-744.4619 602.1632,-734.9005 597.1968,-739.8336"/>
<text text-anchor="middle" x="601" y="-696" font-family="Helvetica,sans-Serif" font-size="10.00" fill="#000000"> &lt; PlayerModel &gt;</text>
</g>
<!-- Node30 -->
<g id="node22" class="node">
<title>Node30</title>
<g id="a_node22"><a xlink:href="classene_1_1controllers_1_1AbstractController.html" target="_top" xlink:title="{ene.controllers.Abstract\lController\&lt; LibraryModel \&gt;\n|# model\l|+ setModel()\l+ getModel()\l}">
<polygon fill="none" stroke="#000000" points="596,-595.5 596,-674.5 728,-674.5 728,-595.5 596,-595.5"/>
<text text-anchor="start" x="604" y="-662.5" font-family="Helvetica,sans-Serif" font-size="10.00" fill="#000000">ene.controllers.Abstract</text>
<text text-anchor="middle" x="662" y="-651.5" font-family="Helvetica,sans-Serif" font-size="10.00" fill="#000000">Controller&lt; LibraryModel &gt;</text>
<polyline fill="none" stroke="#000000" points="596,-644.5 728,-644.5 "/>
<text text-anchor="start" x="604" y="-632.5" font-family="Helvetica,sans-Serif" font-size="10.00" fill="#000000"># model</text>
<polyline fill="none" stroke="#000000" points="596,-625.5 728,-625.5 "/>
<text text-anchor="start" x="604" y="-613.5" font-family="Helvetica,sans-Serif" font-size="10.00" fill="#000000">+ setModel()</text>
<text text-anchor="start" x="604" y="-602.5" font-family="Helvetica,sans-Serif" font-size="10.00" fill="#000000">+ getModel()</text>
</a>
</g>
</g>
<!-- Node25&#45;&gt;Node30 -->
<g id="edge25" class="edge">
<title>Node25&#45;&gt;Node30</title>
<path fill="none" stroke="#ffa500" d="M651.3374,-734.2953C653.4181,-714.9192 655.7699,-693.0173 657.7345,-674.7228"/>
<polygon fill="#ffa500" stroke="#ffa500" points="647.8335,-734.1454 650.2457,-744.4619 654.7935,-734.8928 647.8335,-734.1454"/>
<text text-anchor="middle" x="693.5" y="-696" font-family="Helvetica,sans-Serif" font-size="10.00" fill="#000000"> &lt; LibraryModel &gt;</text>
</g>
<!-- Node26 -->
<g id="node18" class="node">
<title>Node26</title>
<g id="a_node18"><a xlink:href="interfaceene_1_1interfaces_1_1Controller.html" target="_top" xlink:title="{ene::interfaces::Controller\l\&lt; ModelType \&gt;\n||+ setModel()\l+ getModel()\l}">
<polygon fill="none" stroke="#000000" points="725.5,-932 725.5,-1011 854.5,-1011 854.5,-932 725.5,-932"/>
<text text-anchor="start" x="733.5" y="-999" font-family="Helvetica,sans-Serif" font-size="10.00" fill="#000000">ene::interfaces::Controller</text>
<text text-anchor="middle" x="790" y="-988" font-family="Helvetica,sans-Serif" font-size="10.00" fill="#000000">&lt; ModelType &gt;</text>
<polyline fill="none" stroke="#000000" points="725.5,-981 854.5,-981 "/>
<text text-anchor="middle" x="790" y="-969" font-family="Helvetica,sans-Serif" font-size="10.00" fill="#000000"> </text>
<polyline fill="none" stroke="#000000" points="725.5,-962 854.5,-962 "/>
<text text-anchor="start" x="733.5" y="-950" font-family="Helvetica,sans-Serif" font-size="10.00" fill="#000000">+ setModel()</text>
<text text-anchor="start" x="733.5" y="-939" font-family="Helvetica,sans-Serif" font-size="10.00" fill="#000000">+ getModel()</text>
</a>
</g>
</g>
<!-- Node26&#45;&gt;Node25 -->
<g id="edge19" class="edge">
<title>Node26&#45;&gt;Node25</title>
<path fill="none" stroke="#191970" d="M753.263,-923.6653C729.494,-892.7162 698.9167,-852.9019 676.4947,-823.7066"/>
<polygon fill="none" stroke="#191970" points="750.5945,-925.937 759.4613,-931.7361 756.1461,-921.6732 750.5945,-925.937"/>
</g>
<!-- Node27 -->
<g id="node19" class="node">
<title>Node27</title>
<polygon fill="none" stroke="#bfbfbf" points="133,-484 133,-541 231,-541 231,-484 133,-484"/>
<text text-anchor="middle" x="182" y="-529" font-family="Helvetica,sans-Serif" font-size="10.00" fill="#000000">DefaultTableModel</text>
<polyline fill="none" stroke="#bfbfbf" points="133,-522 231,-522 "/>
<text text-anchor="middle" x="182" y="-510" font-family="Helvetica,sans-Serif" font-size="10.00" fill="#000000"> </text>
<polyline fill="none" stroke="#bfbfbf" points="133,-503 231,-503 "/>
<text text-anchor="middle" x="182" y="-491" font-family="Helvetica,sans-Serif" font-size="10.00" fill="#000000"> </text>
</g>
<!-- Node27&#45;&gt;Node10 -->
<g id="edge21" class="edge">
<title>Node27&#45;&gt;Node10</title>
<path fill="none" stroke="#404040" d="M176.3938,-483.998C170.6994,-446.8518 166.3212,-381.3009 195,-336 216.844,-301.4954 254.7892,-277.5204 290.2252,-261.5279"/>
<polygon fill="none" stroke="#404040" points="290.6002,-261.3662 294.5249,-255.3167 301.6186,-256.6129 297.6939,-262.6624 290.6002,-261.3662"/>
<text text-anchor="middle" x="227" y="-390" font-family="Helvetica,sans-Serif" font-size="10.00" fill="#000000"> #tableContent</text>
</g>
<!-- Node28 -->
<g id="node20" class="node">
<title>Node28</title>
<polygon fill="none" stroke="#bfbfbf" points="249,-484 249,-541 295,-541 295,-484 249,-484"/>
<text text-anchor="middle" x="272" y="-529" font-family="Helvetica,sans-Serif" font-size="10.00" fill="#000000">JTable</text>
<polyline fill="none" stroke="#bfbfbf" points="249,-522 295,-522 "/>
<text text-anchor="middle" x="272" y="-510" font-family="Helvetica,sans-Serif" font-size="10.00" fill="#000000"> </text>
<polyline fill="none" stroke="#bfbfbf" points="249,-503 295,-503 "/>
<text text-anchor="middle" x="272" y="-491" font-family="Helvetica,sans-Serif" font-size="10.00" fill="#000000"> </text>
</g>
<!-- Node28&#45;&gt;Node10 -->
<g id="edge22" class="edge">
<title>Node28&#45;&gt;Node10</title>
<path fill="none" stroke="#404040" d="M267.2144,-483.985C262.4669,-447.9587 258.528,-384.7778 279,-336 283.0342,-326.3878 288.4092,-317.1348 294.5627,-308.39"/>
<polygon fill="none" stroke="#404040" points="294.6037,-308.3354 295.0093,-301.1357 301.8111,-298.7409 301.4056,-305.9406 294.6037,-308.3354"/>
<text text-anchor="middle" x="294" y="-390" font-family="Helvetica,sans-Serif" font-size="10.00" fill="#000000"> #table</text>
</g>
<!-- Node29 -->
<g id="node21" class="node">
<title>Node29</title>
<g id="a_node21"><a xlink:href="classene_1_1controllers_1_1LibraryController.html" target="_top" xlink:title="{ene.controllers.LibraryController\n||+ LibraryController()\l+ add()\l+ remove()\l# addFile()\l# addDirectoryContent()\l# scan()\l}">
<polygon fill="none" stroke="#000000" points="584.5,-336.5 584.5,-448.5 739.5,-448.5 739.5,-336.5 584.5,-336.5"/>
<text text-anchor="middle" x="662" y="-436.5" font-family="Helvetica,sans-Serif" font-size="10.00" fill="#000000">ene.controllers.LibraryController</text>
<polyline fill="none" stroke="#000000" points="584.5,-429.5 739.5,-429.5 "/>
<text text-anchor="middle" x="662" y="-417.5" font-family="Helvetica,sans-Serif" font-size="10.00" fill="#000000"> </text>
<polyline fill="none" stroke="#000000" points="584.5,-410.5 739.5,-410.5 "/>
<text text-anchor="start" x="592.5" y="-398.5" font-family="Helvetica,sans-Serif" font-size="10.00" fill="#000000">+ LibraryController()</text>
<text text-anchor="start" x="592.5" y="-387.5" font-family="Helvetica,sans-Serif" font-size="10.00" fill="#000000">+ add()</text>
<text text-anchor="start" x="592.5" y="-376.5" font-family="Helvetica,sans-Serif" font-size="10.00" fill="#000000">+ remove()</text>
<text text-anchor="start" x="592.5" y="-365.5" font-family="Helvetica,sans-Serif" font-size="10.00" fill="#000000"># addFile()</text>
<text text-anchor="start" x="592.5" y="-354.5" font-family="Helvetica,sans-Serif" font-size="10.00" fill="#000000"># addDirectoryContent()</text>
<text text-anchor="start" x="592.5" y="-343.5" font-family="Helvetica,sans-Serif" font-size="10.00" fill="#000000"># scan()</text>
</a>
</g>
</g>
<!-- Node29&#45;&gt;Node9 -->
<g id="edge23" class="edge">
<title>Node29&#45;&gt;Node9</title>
<path fill="none" stroke="#404040" d="M637.8976,-336.2612C612.8359,-277.7837 573.6043,-186.2434 546.8959,-123.9238"/>
<polygon fill="none" stroke="#404040" points="546.788,-123.6718 540.7478,-119.7326 542.0609,-112.642 548.101,-116.5812 546.788,-123.6718"/>
<text text-anchor="middle" x="667.5" y="-231.5" font-family="Helvetica,sans-Serif" font-size="10.00" fill="#000000"> #libraryController</text>
</g>
<!-- Node30&#45;&gt;Node29 -->
<g id="edge24" class="edge">
<title>Node30&#45;&gt;Node29</title>
<path fill="none" stroke="#191970" d="M662,-585.2653C662,-545.593 662,-490.0255 662,-448.7379"/>
<polygon fill="none" stroke="#191970" points="658.5001,-585.4984 662,-595.4985 665.5001,-585.4985 658.5001,-585.4984"/>
</g>
</g>
</svg>
