<?xml version="1.0" encoding="UTF-8" standalone="no"?>
<!DOCTYPE svg PUBLIC "-//W3C//DTD SVG 1.1//EN"
 "http://www.w3.org/Graphics/SVG/1.1/DTD/svg11.dtd">
<!-- Generated by graphviz version 2.40.1 (20161225.0304)
 -->
<!-- Title: ene.views.AbstractPartialView.getModel Pages: 1 -->
<svg width="673pt" height="396pt"
 viewBox="0.00 0.00 673.00 395.78" xmlns="http://www.w3.org/2000/svg" xmlns:xlink="http://www.w3.org/1999/xlink">
<g id="graph0" class="graph" transform="scale(1 1) rotate(0) translate(4 391.7828)">
<title>ene.views.AbstractPartialView.getModel</title>
<!-- Node1 -->
<g id="node1" class="node">
<title>Node1</title>
<polygon fill="#bfbfbf" stroke="#000000" points="0,-181.2828 0,-211.2828 128,-211.2828 128,-181.2828 0,-181.2828"/>
<text text-anchor="start" x="8" y="-199.2828" font-family="Helvetica,sans-Serif" font-size="10.00" fill="#000000">ene.views.AbstractPartial</text>
<text text-anchor="middle" x="64" y="-188.2828" font-family="Helvetica,sans-Serif" font-size="10.00" fill="#000000">View.getModel</text>
</g>
<!-- Node2 -->
<g id="node2" class="node">
<title>Node2</title>
<g id="a_node2"><a xlink:href="classene_1_1views_1_1gui_1_1partial_1_1PlayerView.html#a3098a851f88f8b9ce6d4e2fcacdf55c9" target="_top" xlink:title="ene.views.gui.partial.Player\lView.enablePlayerControls">
<polygon fill="none" stroke="#000000" points="349,-357.2828 349,-387.2828 486,-387.2828 486,-357.2828 349,-357.2828"/>
<text text-anchor="start" x="357" y="-375.2828" font-family="Helvetica,sans-Serif" font-size="10.00" fill="#000000">ene.views.gui.partial.Player</text>
<text text-anchor="middle" x="417.5" y="-364.2828" font-family="Helvetica,sans-Serif" font-size="10.00" fill="#000000">View.enablePlayerControls</text>
</a>
</g>
</g>
<!-- Node1&#45;&gt;Node2 -->
<g id="edge1" class="edge">
<title>Node1&#45;&gt;Node2</title>
<path fill="none" stroke="#191970" d="M73.2502,-221.0149C87.2672,-254.7001 117.307,-314.0375 164,-342.2828 219.6469,-375.9444 294.7973,-380.8717 348.8047,-378.9467"/>
<polygon fill="#191970" stroke="#191970" points="76.3841,-219.4263 69.4138,-211.4473 69.887,-222.0315 76.3841,-219.4263"/>
</g>
<!-- Node3 -->
<g id="node3" class="node">
<title>Node3</title>
<g id="a_node3"><a xlink:href="classene_1_1views_1_1gui_1_1partial_1_1PlayerView.html#a15d3f24a6e52ff6dedb86bb793bb8fa9" target="_top" xlink:title="ene.views.gui.partial.Player\lView.update">
<polygon fill="none" stroke="#000000" points="526,-313.2828 526,-343.2828 663,-343.2828 663,-313.2828 526,-313.2828"/>
<text text-anchor="start" x="534" y="-331.2828" font-family="Helvetica,sans-Serif" font-size="10.00" fill="#000000">ene.views.gui.partial.Player</text>
<text text-anchor="middle" x="594.5" y="-320.2828" font-family="Helvetica,sans-Serif" font-size="10.00" fill="#000000">View.update</text>
</a>
</g>
</g>
<!-- Node1&#45;&gt;Node3 -->
<g id="edge12" class="edge">
<title>Node1&#45;&gt;Node3</title>
<path fill="none" stroke="#191970" d="M77.1947,-220.3582C93.5632,-247.4994 124.2392,-290.3094 164,-309.2828 226.0331,-338.8841 420.8078,-335.7801 525.808,-331.6703"/>
<polygon fill="#191970" stroke="#191970" points="80.0741,-218.3482 72.0102,-211.4763 74.0287,-221.8771 80.0741,-218.3482"/>
</g>
<!-- Node4 -->
<g id="node4" class="node">
<title>Node4</title>
<g id="a_node4"><a xlink:href="classene_1_1views_1_1gui_1_1partial_1_1PlaylistView.html#aab891c82686652a49db41a3e1bc1f3b9" target="_top" xlink:title="ene.views.gui.partial.Playlist\lView.loadContent">
<polygon fill="none" stroke="#000000" points="167,-34.2828 167,-64.2828 308,-64.2828 308,-34.2828 167,-34.2828"/>
<text text-anchor="start" x="175" y="-52.2828" font-family="Helvetica,sans-Serif" font-size="10.00" fill="#000000">ene.views.gui.partial.Playlist</text>
<text text-anchor="middle" x="237.5" y="-41.2828" font-family="Helvetica,sans-Serif" font-size="10.00" fill="#000000">View.loadContent</text>
</a>
</g>
</g>
<!-- Node1&#45;&gt;Node4 -->
<g id="edge3" class="edge">
<title>Node1&#45;&gt;Node4</title>
<path fill="none" stroke="#191970" d="M77.5432,-172.3994C94.3969,-144.7361 125.6843,-99.6027 164,-73.2828 168.979,-69.8626 174.4787,-66.9032 180.1621,-64.3484"/>
<polygon fill="#191970" stroke="#191970" points="74.4965,-170.6751 72.3916,-181.0587 80.5124,-174.2541 74.4965,-170.6751"/>
</g>
<!-- Node5 -->
<g id="node5" class="node">
<title>Node5</title>
<g id="a_node5"><a xlink:href="classene_1_1views_1_1gui_1_1partial_1_1PlaylistView.html#ad2b87823589c6e8895d2d7b98438a2dc" target="_top" xlink:title="ene.views.gui.partial.Playlist\lView.update">
<polygon fill="none" stroke="#000000" points="347,-12.2828 347,-42.2828 488,-42.2828 488,-12.2828 347,-12.2828"/>
<text text-anchor="start" x="355" y="-30.2828" font-family="Helvetica,sans-Serif" font-size="10.00" fill="#000000">ene.views.gui.partial.Playlist</text>
<text text-anchor="middle" x="417.5" y="-19.2828" font-family="Helvetica,sans-Serif" font-size="10.00" fill="#000000">View.update</text>
</a>
</g>
</g>
<!-- Node1&#45;&gt;Node5 -->
<g id="edge9" class="edge">
<title>Node1&#45;&gt;Node5</title>
<path fill="none" stroke="#191970" d="M70.0216,-171.3069C81.0431,-131.8115 108.6011,-56.1556 164,-24.2828 226.1846,11.4941 311.9527,.4951 366.0618,-12.2179"/>
<polygon fill="#191970" stroke="#191970" points="66.5792,-170.6337 67.3984,-181.1968 73.3453,-172.4283 66.5792,-170.6337"/>
</g>
<!-- Node7 -->
<g id="node7" class="node">
<title>Node7</title>
<g id="a_node7"><a xlink:href="classene_1_1views_1_1gui_1_1partial_1_1PlaylistView.html#a108f11521a24d840a4aeb31190c0a34e" target="_top" xlink:title="ene.views.gui.partial.Playlist\lView.mousePressed">
<polygon fill="none" stroke="#000000" points="167,-181.2828 167,-211.2828 308,-211.2828 308,-181.2828 167,-181.2828"/>
<text text-anchor="start" x="175" y="-199.2828" font-family="Helvetica,sans-Serif" font-size="10.00" fill="#000000">ene.views.gui.partial.Playlist</text>
<text text-anchor="middle" x="237.5" y="-188.2828" font-family="Helvetica,sans-Serif" font-size="10.00" fill="#000000">View.mousePressed</text>
</a>
</g>
</g>
<!-- Node1&#45;&gt;Node7 -->
<g id="edge6" class="edge">
<title>Node1&#45;&gt;Node7</title>
<path fill="none" stroke="#191970" d="M138.3129,-196.2828C147.8074,-196.2828 157.505,-196.2828 166.9377,-196.2828"/>
<polygon fill="#191970" stroke="#191970" points="138.1121,-192.7829 128.1121,-196.2828 138.112,-199.7829 138.1121,-192.7829"/>
</g>
<!-- Node8 -->
<g id="node8" class="node">
<title>Node8</title>
<g id="a_node8"><a xlink:href="classene_1_1views_1_1gui_1_1partial_1_1AbstractTrackListView.html#ad66634518c60ff157ef83d7dd9d7b4c6" target="_top" xlink:title="ene.views.gui.partial.Abstract\lTrackListView.mousePressed">
<polygon fill="none" stroke="#000000" points="164,-132.2828 164,-162.2828 311,-162.2828 311,-132.2828 164,-132.2828"/>
<text text-anchor="start" x="172" y="-150.2828" font-family="Helvetica,sans-Serif" font-size="10.00" fill="#000000">ene.views.gui.partial.Abstract</text>
<text text-anchor="middle" x="237.5" y="-139.2828" font-family="Helvetica,sans-Serif" font-size="10.00" fill="#000000">TrackListView.mousePressed</text>
</a>
</g>
</g>
<!-- Node1&#45;&gt;Node8 -->
<g id="edge7" class="edge">
<title>Node1&#45;&gt;Node8</title>
<path fill="none" stroke="#191970" d="M127.1018,-178.4615C145.8345,-173.171 166.1602,-167.4306 184.2051,-162.3343"/>
<polygon fill="#191970" stroke="#191970" points="126.1437,-175.0951 117.4714,-181.1813 128.0463,-181.8316 126.1437,-175.0951"/>
</g>
<!-- Node9 -->
<g id="node9" class="node">
<title>Node9</title>
<g id="a_node9"><a xlink:href="classene_1_1views_1_1gui_1_1partial_1_1LibraryView.html#a0bd6885fe06ebde4d3dffbcd888c0b41" target="_top" xlink:title="ene.views.gui.partial.Library\lView.render">
<polygon fill="none" stroke="#000000" points="348.5,-247.2828 348.5,-277.2828 486.5,-277.2828 486.5,-247.2828 348.5,-247.2828"/>
<text text-anchor="start" x="356.5" y="-265.2828" font-family="Helvetica,sans-Serif" font-size="10.00" fill="#000000">ene.views.gui.partial.Library</text>
<text text-anchor="middle" x="417.5" y="-254.2828" font-family="Helvetica,sans-Serif" font-size="10.00" fill="#000000">View.render</text>
</a>
</g>
</g>
<!-- Node1&#45;&gt;Node9 -->
<g id="edge8" class="edge">
<title>Node1&#45;&gt;Node9</title>
<path fill="none" stroke="#191970" d="M133.3425,-213.6009C143.596,-215.965 154.0545,-218.2681 164,-220.2828 226.0857,-232.8596 297.2915,-244.4065 348.3974,-252.1964"/>
<polygon fill="#191970" stroke="#191970" points="134.1323,-210.1912 123.5981,-211.323 132.5389,-217.0075 134.1323,-210.1912"/>
</g>
<!-- Node10 -->
<g id="node10" class="node">
<title>Node10</title>
<g id="a_node10"><a xlink:href="classene_1_1views_1_1gui_1_1partial_1_1LibraryView.html#a363a0a2db7ab4295ef38bb667038a6f8" target="_top" xlink:title="ene.views.gui.partial.Library\lView.update">
<polygon fill="none" stroke="#000000" points="168.5,-269.2828 168.5,-299.2828 306.5,-299.2828 306.5,-269.2828 168.5,-269.2828"/>
<text text-anchor="start" x="176.5" y="-287.2828" font-family="Helvetica,sans-Serif" font-size="10.00" fill="#000000">ene.views.gui.partial.Library</text>
<text text-anchor="middle" x="237.5" y="-276.2828" font-family="Helvetica,sans-Serif" font-size="10.00" fill="#000000">View.update</text>
</a>
</g>
</g>
<!-- Node1&#45;&gt;Node10 -->
<g id="edge10" class="edge">
<title>Node1&#45;&gt;Node10</title>
<path fill="none" stroke="#191970" d="M96.4232,-216.6169C115.696,-228.3148 140.8284,-242.9017 164,-254.2828 174.7626,-259.569 186.6988,-264.727 197.7678,-269.2335"/>
<polygon fill="#191970" stroke="#191970" points="98.0946,-213.5364 87.7384,-211.3007 94.44,-219.5067 98.0946,-213.5364"/>
</g>
<!-- Node11 -->
<g id="node11" class="node">
<title>Node11</title>
<g id="a_node11"><a xlink:href="classene_1_1views_1_1gui_1_1partial_1_1PlayerView.html#af324f1c0b5648dab2400b4c0ab33f3ca" target="_top" xlink:title="ene.views.gui.partial.Player\lView.updateProgress">
<polygon fill="none" stroke="#000000" points="169,-83.2828 169,-113.2828 306,-113.2828 306,-83.2828 169,-83.2828"/>
<text text-anchor="start" x="177" y="-101.2828" font-family="Helvetica,sans-Serif" font-size="10.00" fill="#000000">ene.views.gui.partial.Player</text>
<text text-anchor="middle" x="237.5" y="-90.2828" font-family="Helvetica,sans-Serif" font-size="10.00" fill="#000000">View.updateProgress</text>
</a>
</g>
</g>
<!-- Node1&#45;&gt;Node11 -->
<g id="edge13" class="edge">
<title>Node1&#45;&gt;Node11</title>
<path fill="none" stroke="#191970" d="M88.6521,-174.4993C108.0289,-158.2876 136.2896,-136.5806 164,-122.2828 170.4417,-118.959 177.4362,-115.9696 184.4636,-113.3214"/>
<polygon fill="#191970" stroke="#191970" points="86.2713,-171.9295 80.9192,-181.0731 90.8052,-177.2628 86.2713,-171.9295"/>
</g>
<!-- Node2&#45;&gt;Node3 -->
<g id="edge2" class="edge">
<title>Node2&#45;&gt;Node3</title>
<path fill="none" stroke="#191970" d="M487.8392,-354.7973C503.1329,-350.9955 519.1826,-347.0057 534.0537,-343.309"/>
<polygon fill="#191970" stroke="#191970" points="486.7786,-351.4544 477.9183,-357.2635 488.4673,-358.2476 486.7786,-351.4544"/>
</g>
<!-- Node4&#45;&gt;Node5 -->
<g id="edge4" class="edge">
<title>Node4&#45;&gt;Node5</title>
<path fill="none" stroke="#191970" d="M318.3431,-39.402C327.8288,-38.2426 337.4516,-37.0665 346.7841,-35.9258"/>
<polygon fill="#191970" stroke="#191970" points="317.6256,-35.9635 308.1241,-40.6509 318.4749,-42.9118 317.6256,-35.9635"/>
</g>
<!-- Node6 -->
<g id="node6" class="node">
<title>Node6</title>
<g id="a_node6"><a xlink:href="classene_1_1views_1_1gui_1_1partial_1_1PlaylistView.html#a8d541ff3e91c1492b2e47cc7272ca56d" target="_top" xlink:title="ene.views.gui.partial.Playlist\lView.render">
<polygon fill="none" stroke="#000000" points="524,-12.2828 524,-42.2828 665,-42.2828 665,-12.2828 524,-12.2828"/>
<text text-anchor="start" x="532" y="-30.2828" font-family="Helvetica,sans-Serif" font-size="10.00" fill="#000000">ene.views.gui.partial.Playlist</text>
<text text-anchor="middle" x="594.5" y="-19.2828" font-family="Helvetica,sans-Serif" font-size="10.00" fill="#000000">View.render</text>
</a>
</g>
</g>
<!-- Node5&#45;&gt;Node6 -->
<g id="edge5" class="edge">
<title>Node5&#45;&gt;Node6</title>
<path fill="none" stroke="#191970" d="M498.4937,-27.2828C506.9728,-27.2828 515.5444,-27.2828 523.8942,-27.2828"/>
<polygon fill="#191970" stroke="#191970" points="498.2182,-23.7829 488.2182,-27.2828 498.2181,-30.7829 498.2182,-23.7829"/>
</g>
<!-- Node10&#45;&gt;Node9 -->
<g id="edge11" class="edge">
<title>Node10&#45;&gt;Node9</title>
<path fill="none" stroke="#191970" d="M316.6193,-274.6126C327.1776,-273.3222 337.9386,-272.0069 348.3095,-270.7394"/>
<polygon fill="#191970" stroke="#191970" points="316.0794,-271.1525 306.5779,-275.8399 316.9287,-278.1008 316.0794,-271.1525"/>
</g>
<!-- Node12 -->
<g id="node12" class="node">
<title>Node12</title>
<g id="a_node12"><a xlink:href="classene_1_1views_1_1gui_1_1partial_1_1PlayerView.html#af84e60915df5af5201e75e01a2f9a4a5" target="_top" xlink:title="ene.views.gui.partial.Player\lView.resetProgress">
<polygon fill="none" stroke="#000000" points="349,-176.2828 349,-206.2828 486,-206.2828 486,-176.2828 349,-176.2828"/>
<text text-anchor="start" x="357" y="-194.2828" font-family="Helvetica,sans-Serif" font-size="10.00" fill="#000000">ene.views.gui.partial.Player</text>
<text text-anchor="middle" x="417.5" y="-183.2828" font-family="Helvetica,sans-Serif" font-size="10.00" fill="#000000">View.resetProgress</text>
</a>
</g>
</g>
<!-- Node11&#45;&gt;Node12 -->
<g id="edge14" class="edge">
<title>Node11&#45;&gt;Node12</title>
<path fill="none" stroke="#191970" d="M299.131,-117.0805C303.194,-118.7254 307.1839,-120.4617 311,-122.2828 343.0117,-137.5591 376.8819,-160.9118 397.6116,-176.1401"/>
<polygon fill="#191970" stroke="#191970" points="300.1554,-113.7249 289.5652,-113.4118 297.6487,-120.2607 300.1554,-113.7249"/>
</g>
<!-- Node13 -->
<g id="node13" class="node">
<title>Node13</title>
<g id="a_node13"><a xlink:href="classene_1_1views_1_1gui_1_1partial_1_1PlayerView.html#a7e28fb299fee46d221d3224ffb87ea35" target="_top" xlink:title="ene.views.gui.partial.Player\lView.render">
<polygon fill="none" stroke="#000000" points="349,-83.2828 349,-113.2828 486,-113.2828 486,-83.2828 349,-83.2828"/>
<text text-anchor="start" x="357" y="-101.2828" font-family="Helvetica,sans-Serif" font-size="10.00" fill="#000000">ene.views.gui.partial.Player</text>
<text text-anchor="middle" x="417.5" y="-90.2828" font-family="Helvetica,sans-Serif" font-size="10.00" fill="#000000">View.render</text>
</a>
</g>
</g>
<!-- Node11&#45;&gt;Node13 -->
<g id="edge16" class="edge">
<title>Node11&#45;&gt;Node13</title>
<path fill="none" stroke="#191970" d="M316.3505,-98.2828C327.1711,-98.2828 338.2101,-98.2828 348.8288,-98.2828"/>
<polygon fill="#191970" stroke="#191970" points="316.0638,-94.7829 306.0638,-98.2828 316.0637,-101.7829 316.0638,-94.7829"/>
</g>
<!-- Node12&#45;&gt;Node3 -->
<g id="edge15" class="edge">
<title>Node12&#45;&gt;Node3</title>
<path fill="none" stroke="#191970" d="M450.9537,-211.8595C462.8755,-219.5171 476.2529,-228.489 488,-237.2828 521.2922,-262.205 557.6265,-294.4353 578.0845,-313.0906"/>
<polygon fill="#191970" stroke="#191970" points="452.4902,-208.6893 442.1718,-206.2847 448.7385,-214.5991 452.4902,-208.6893"/>
</g>
</g>
</svg>
