<?xml version="1.0" encoding="UTF-8" standalone="no"?>
<!DOCTYPE svg PUBLIC "-//W3C//DTD SVG 1.1//EN"
 "http://www.w3.org/Graphics/SVG/1.1/DTD/svg11.dtd">
<!-- Generated by graphviz version 2.40.1 (20161225.0304)
 -->
<!-- Title: ene.views.gui.partial.LibraryView Pages: 1 -->
<svg width="933pt" height="1170pt"
 viewBox="0.00 0.00 933.00 1170.00" xmlns="http://www.w3.org/2000/svg" xmlns:xlink="http://www.w3.org/1999/xlink">
<g id="graph0" class="graph" transform="scale(1 1) rotate(0) translate(4 1166)">
<title>ene.views.gui.partial.LibraryView</title>
<!-- Node9 -->
<g id="node1" class="node">
<title>Node9</title>
<polygon fill="#bfbfbf" stroke="#000000" points="511,-.5 511,-112.5 671,-112.5 671,-.5 511,-.5"/>
<text text-anchor="middle" x="591" y="-100.5" font-family="Helvetica,sans-Serif" font-size="10.00" fill="#000000">ene.views.gui.partial.LibraryView</text>
<polyline fill="none" stroke="#000000" points="511,-93.5 671,-93.5 "/>
<text text-anchor="middle" x="591" y="-81.5" font-family="Helvetica,sans-Serif" font-size="10.00" fill="#000000"> </text>
<polyline fill="none" stroke="#000000" points="511,-74.5 671,-74.5 "/>
<text text-anchor="start" x="519" y="-62.5" font-family="Helvetica,sans-Serif" font-size="10.00" fill="#000000">+ LibraryView()</text>
<text text-anchor="start" x="519" y="-51.5" font-family="Helvetica,sans-Serif" font-size="10.00" fill="#000000">+ update()</text>
<text text-anchor="start" x="519" y="-40.5" font-family="Helvetica,sans-Serif" font-size="10.00" fill="#000000">+ render()</text>
<text text-anchor="start" x="519" y="-29.5" font-family="Helvetica,sans-Serif" font-size="10.00" fill="#000000"># setLibraryController()</text>
<text text-anchor="start" x="519" y="-18.5" font-family="Helvetica,sans-Serif" font-size="10.00" fill="#000000"># getLibraryController()</text>
<text text-anchor="start" x="519" y="-7.5" font-family="Helvetica,sans-Serif" font-size="10.00" fill="#000000"># loadContent()</text>
</g>
<!-- Node10 -->
<g id="node2" class="node">
<title>Node10</title>
<g id="a_node2"><a xlink:href="classene_1_1views_1_1gui_1_1partial_1_1AbstractTrackListView.html" target="_top" xlink:title="{ene.views.gui.partial.Abstract\lTrackListView\n||+ valueChanged()\l# setTable()\l# getTable()\l# setTableContent()\l# getTableContent()\l# setTableRowSorter()\l# getTableRowSorter()\l# setPlayerController()\l# getPlayerController()\l# hideColumn()\l# getSelectedFilename()\l}">
<polygon fill="none" stroke="#000000" points="287,-150.5 287,-328.5 433,-328.5 433,-150.5 287,-150.5"/>
<text text-anchor="start" x="295" y="-316.5" font-family="Helvetica,sans-Serif" font-size="10.00" fill="#000000">ene.views.gui.partial.Abstract</text>
<text text-anchor="middle" x="360" y="-305.5" font-family="Helvetica,sans-Serif" font-size="10.00" fill="#000000">TrackListView</text>
<polyline fill="none" stroke="#000000" points="287,-298.5 433,-298.5 "/>
<text text-anchor="middle" x="360" y="-286.5" font-family="Helvetica,sans-Serif" font-size="10.00" fill="#000000"> </text>
<polyline fill="none" stroke="#000000" points="287,-279.5 433,-279.5 "/>
<text text-anchor="start" x="295" y="-267.5" font-family="Helvetica,sans-Serif" font-size="10.00" fill="#000000">+ valueChanged()</text>
<text text-anchor="start" x="295" y="-256.5" font-family="Helvetica,sans-Serif" font-size="10.00" fill="#000000"># setTable()</text>
<text text-anchor="start" x="295" y="-245.5" font-family="Helvetica,sans-Serif" font-size="10.00" fill="#000000"># getTable()</text>
<text text-anchor="start" x="295" y="-234.5" font-family="Helvetica,sans-Serif" font-size="10.00" fill="#000000"># setTableContent()</text>
<text text-anchor="start" x="295" y="-223.5" font-family="Helvetica,sans-Serif" font-size="10.00" fill="#000000"># getTableContent()</text>
<text text-anchor="start" x="295" y="-212.5" font-family="Helvetica,sans-Serif" font-size="10.00" fill="#000000"># setTableRowSorter()</text>
<text text-anchor="start" x="295" y="-201.5" font-family="Helvetica,sans-Serif" font-size="10.00" fill="#000000"># getTableRowSorter()</text>
<text text-anchor="start" x="295" y="-190.5" font-family="Helvetica,sans-Serif" font-size="10.00" fill="#000000"># setPlayerController()</text>
<text text-anchor="start" x="295" y="-179.5" font-family="Helvetica,sans-Serif" font-size="10.00" fill="#000000"># getPlayerController()</text>
<text text-anchor="start" x="295" y="-168.5" font-family="Helvetica,sans-Serif" font-size="10.00" fill="#000000"># hideColumn()</text>
<text text-anchor="start" x="295" y="-157.5" font-family="Helvetica,sans-Serif" font-size="10.00" fill="#000000"># getSelectedFilename()</text>
</a>
</g>
</g>
<!-- Node10&#45;&gt;Node9 -->
<g id="edge1" class="edge">
<title>Node10&#45;&gt;Node9</title>
<path fill="none" stroke="#191970" d="M440.9903,-175.3388C466.7286,-154.9488 494.9843,-132.5644 519.9651,-112.7744"/>
<polygon fill="none" stroke="#191970" points="438.7549,-172.6445 433.0898,-181.5977 443.1016,-178.1314 438.7549,-172.6445"/>
</g>
<!-- Node11 -->
<g id="node3" class="node">
<title>Node11</title>
<g id="a_node3"><a xlink:href="classene_1_1views_1_1AbstractPartialView.html" target="_top" xlink:title="{ene::views::AbstractPartial\lView\&lt; JPanel, TrackListModel \&gt;\n||+ setModel()\l+ getModel()\l}">
<polygon fill="none" stroke="#000000" points="282.5,-602.5 282.5,-681.5 441.5,-681.5 441.5,-602.5 282.5,-602.5"/>
<text text-anchor="start" x="290.5" y="-669.5" font-family="Helvetica,sans-Serif" font-size="10.00" fill="#000000">ene::views::AbstractPartial</text>
<text text-anchor="middle" x="362" y="-658.5" font-family="Helvetica,sans-Serif" font-size="10.00" fill="#000000">View&lt; JPanel, TrackListModel &gt;</text>
<polyline fill="none" stroke="#000000" points="282.5,-651.5 441.5,-651.5 "/>
<text text-anchor="middle" x="362" y="-639.5" font-family="Helvetica,sans-Serif" font-size="10.00" fill="#000000"> </text>
<polyline fill="none" stroke="#000000" points="282.5,-632.5 441.5,-632.5 "/>
<text text-anchor="start" x="290.5" y="-620.5" font-family="Helvetica,sans-Serif" font-size="10.00" fill="#000000">+ setModel()</text>
<text text-anchor="start" x="290.5" y="-609.5" font-family="Helvetica,sans-Serif" font-size="10.00" fill="#000000">+ getModel()</text>
</a>
</g>
</g>
<!-- Node11&#45;&gt;Node10 -->
<g id="edge2" class="edge">
<title>Node11&#45;&gt;Node10</title>
<path fill="none" stroke="#191970" d="M361.7526,-592.2171C361.4263,-526.5466 360.8463,-409.8251 360.4433,-328.7239"/>
<polygon fill="none" stroke="#191970" points="358.253,-592.3228 361.8028,-602.3052 365.2529,-592.2879 358.253,-592.3228"/>
</g>
<!-- Node12 -->
<g id="node4" class="node">
<title>Node12</title>
<g id="a_node4"><a xlink:href="classene_1_1views_1_1AbstractView.html" target="_top" xlink:title="{ene::views::AbstractView\l\&lt; CoreComponentType \&gt;\n||+ setTitle()\l+ getTitle()\l+ setCoreComponent()\l+ getCoreComponent()\l+ setLayoutPosition()\l+ getLayoutPosition()\l}">
<polygon fill="none" stroke="#000000" points="298,-740.5 298,-863.5 426,-863.5 426,-740.5 298,-740.5"/>
<text text-anchor="start" x="306" y="-851.5" font-family="Helvetica,sans-Serif" font-size="10.00" fill="#000000">ene::views::AbstractView</text>
<text text-anchor="middle" x="362" y="-840.5" font-family="Helvetica,sans-Serif" font-size="10.00" fill="#000000">&lt; CoreComponentType &gt;</text>
<polyline fill="none" stroke="#000000" points="298,-833.5 426,-833.5 "/>
<text text-anchor="middle" x="362" y="-821.5" font-family="Helvetica,sans-Serif" font-size="10.00" fill="#000000"> </text>
<polyline fill="none" stroke="#000000" points="298,-814.5 426,-814.5 "/>
<text text-anchor="start" x="306" y="-802.5" font-family="Helvetica,sans-Serif" font-size="10.00" fill="#000000">+ setTitle()</text>
<text text-anchor="start" x="306" y="-791.5" font-family="Helvetica,sans-Serif" font-size="10.00" fill="#000000">+ getTitle()</text>
<text text-anchor="start" x="306" y="-780.5" font-family="Helvetica,sans-Serif" font-size="10.00" fill="#000000">+ setCoreComponent()</text>
<text text-anchor="start" x="306" y="-769.5" font-family="Helvetica,sans-Serif" font-size="10.00" fill="#000000">+ getCoreComponent()</text>
<text text-anchor="start" x="306" y="-758.5" font-family="Helvetica,sans-Serif" font-size="10.00" fill="#000000">+ setLayoutPosition()</text>
<text text-anchor="start" x="306" y="-747.5" font-family="Helvetica,sans-Serif" font-size="10.00" fill="#000000">+ getLayoutPosition()</text>
</a>
</g>
</g>
<!-- Node12&#45;&gt;Node11 -->
<g id="edge3" class="edge">
<title>Node12&#45;&gt;Node11</title>
<path fill="none" stroke="#191970" d="M362,-729.8718C362,-713.2439 362,-696.158 362,-681.5249"/>
<polygon fill="none" stroke="#191970" points="358.5001,-730.1398 362,-740.1398 365.5001,-730.1399 358.5001,-730.1398"/>
</g>
<!-- Node13 -->
<g id="node5" class="node">
<title>Node13</title>
<g id="a_node5"><a xlink:href="classene_1_1AbstractObject.html" target="_top" xlink:title="{ene.AbstractObject\n||+ enableDebugMode()\l+ disableDebugMode()\l+ isDebugModeEnabled()\l+ debugInfoAbout()\l+ consoleOutput()\l# delay()\l}">
<polygon fill="none" stroke="#000000" points="435.5,-933.5 435.5,-1045.5 562.5,-1045.5 562.5,-933.5 435.5,-933.5"/>
<text text-anchor="middle" x="499" y="-1033.5" font-family="Helvetica,sans-Serif" font-size="10.00" fill="#000000">ene.AbstractObject</text>
<polyline fill="none" stroke="#000000" points="435.5,-1026.5 562.5,-1026.5 "/>
<text text-anchor="middle" x="499" y="-1014.5" font-family="Helvetica,sans-Serif" font-size="10.00" fill="#000000"> </text>
<polyline fill="none" stroke="#000000" points="435.5,-1007.5 562.5,-1007.5 "/>
<text text-anchor="start" x="443.5" y="-995.5" font-family="Helvetica,sans-Serif" font-size="10.00" fill="#000000">+ enableDebugMode()</text>
<text text-anchor="start" x="443.5" y="-984.5" font-family="Helvetica,sans-Serif" font-size="10.00" fill="#000000">+ disableDebugMode()</text>
<text text-anchor="start" x="443.5" y="-973.5" font-family="Helvetica,sans-Serif" font-size="10.00" fill="#000000">+ isDebugModeEnabled()</text>
<text text-anchor="start" x="443.5" y="-962.5" font-family="Helvetica,sans-Serif" font-size="10.00" fill="#000000">+ debugInfoAbout()</text>
<text text-anchor="start" x="443.5" y="-951.5" font-family="Helvetica,sans-Serif" font-size="10.00" fill="#000000">+ consoleOutput()</text>
<text text-anchor="start" x="443.5" y="-940.5" font-family="Helvetica,sans-Serif" font-size="10.00" fill="#000000"># delay()</text>
</a>
</g>
</g>
<!-- Node13&#45;&gt;Node12 -->
<g id="edge4" class="edge">
<title>Node13&#45;&gt;Node12</title>
<path fill="none" stroke="#191970" d="M469.9892,-924.3912C462.3757,-909.9008 453.5814,-894.9952 444,-882 438.5707,-874.6363 432.445,-867.3358 426.0484,-860.3138"/>
<polygon fill="none" stroke="#191970" points="466.8988,-926.0352 474.5736,-933.3391 473.1287,-922.8433 466.8988,-926.0352"/>
</g>
<!-- Node25 -->
<g id="node17" class="node">
<title>Node25</title>
<g id="a_node17"><a xlink:href="classene_1_1controllers_1_1AbstractController.html" target="_top" xlink:title="{ene.controllers.Abstract\lController\&lt; ModelType \&gt;\n||+ setModel()\l+ getModel()\l}">
<polygon fill="none" stroke="#000000" points="577.5,-762.5 577.5,-841.5 702.5,-841.5 702.5,-762.5 577.5,-762.5"/>
<text text-anchor="start" x="585.5" y="-829.5" font-family="Helvetica,sans-Serif" font-size="10.00" fill="#000000">ene.controllers.Abstract</text>
<text text-anchor="middle" x="640" y="-818.5" font-family="Helvetica,sans-Serif" font-size="10.00" fill="#000000">Controller&lt; ModelType &gt;</text>
<polyline fill="none" stroke="#000000" points="577.5,-811.5 702.5,-811.5 "/>
<text text-anchor="middle" x="640" y="-799.5" font-family="Helvetica,sans-Serif" font-size="10.00" fill="#000000"> </text>
<polyline fill="none" stroke="#000000" points="577.5,-792.5 702.5,-792.5 "/>
<text text-anchor="start" x="585.5" y="-780.5" font-family="Helvetica,sans-Serif" font-size="10.00" fill="#000000">+ setModel()</text>
<text text-anchor="start" x="585.5" y="-769.5" font-family="Helvetica,sans-Serif" font-size="10.00" fill="#000000">+ getModel()</text>
</a>
</g>
</g>
<!-- Node13&#45;&gt;Node25 -->
<g id="edge18" class="edge">
<title>Node13&#45;&gt;Node25</title>
<path fill="none" stroke="#191970" d="M547.208,-925.3937C568.1022,-897.6088 591.9085,-865.9515 610.1763,-841.6592"/>
<polygon fill="none" stroke="#191970" points="544.3266,-923.4019 541.1137,-933.4978 549.9212,-927.609 544.3266,-923.4019"/>
</g>
<!-- Node14 -->
<g id="node6" class="node">
<title>Node14</title>
<polygon fill="none" stroke="#bfbfbf" points="460.5,-1104.5 460.5,-1161.5 537.5,-1161.5 537.5,-1104.5 460.5,-1104.5"/>
<text text-anchor="middle" x="499" y="-1149.5" font-family="Helvetica,sans-Serif" font-size="10.00" fill="#000000">static boolean</text>
<polyline fill="none" stroke="#bfbfbf" points="460.5,-1142.5 537.5,-1142.5 "/>
<text text-anchor="middle" x="499" y="-1130.5" font-family="Helvetica,sans-Serif" font-size="10.00" fill="#000000"> </text>
<polyline fill="none" stroke="#bfbfbf" points="460.5,-1123.5 537.5,-1123.5 "/>
<text text-anchor="middle" x="499" y="-1111.5" font-family="Helvetica,sans-Serif" font-size="10.00" fill="#000000"> </text>
</g>
<!-- Node14&#45;&gt;Node13 -->
<g id="edge5" class="edge">
<title>Node14&#45;&gt;Node13</title>
<path fill="none" stroke="#404040" d="M499,-1104.3055C499,-1090.9442 499,-1074.4218 499,-1058.1157"/>
<polygon fill="none" stroke="#404040" points="499.0001,-1057.7445 495,-1051.7445 499,-1045.7445 503,-1051.7444 499.0001,-1057.7445"/>
<text text-anchor="middle" x="546" y="-1078" font-family="Helvetica,sans-Serif" font-size="10.00" fill="#000000"> #debugModeEnabled</text>
</g>
<!-- Node15 -->
<g id="node7" class="node">
<title>Node15</title>
<g id="a_node7"><a xlink:href="interfaceene_1_1interfaces_1_1View.html" target="_top" xlink:title="{ene::interfaces::View\l\&lt; CoreComponentType \&gt;\n||+ setTitle()\l+ getTitle()\l+ setCoreComponent()\l+ getCoreComponent()\l+ setLayoutPosition()\l+ getLayoutPosition()\l+ render()\l}">
<polygon fill="none" stroke="#000000" points="9,-922.5 9,-1056.5 137,-1056.5 137,-922.5 9,-922.5"/>
<text text-anchor="start" x="17" y="-1044.5" font-family="Helvetica,sans-Serif" font-size="10.00" fill="#000000">ene::interfaces::View</text>
<text text-anchor="middle" x="73" y="-1033.5" font-family="Helvetica,sans-Serif" font-size="10.00" fill="#000000">&lt; CoreComponentType &gt;</text>
<polyline fill="none" stroke="#000000" points="9,-1026.5 137,-1026.5 "/>
<text text-anchor="middle" x="73" y="-1014.5" font-family="Helvetica,sans-Serif" font-size="10.00" fill="#000000"> </text>
<polyline fill="none" stroke="#000000" points="9,-1007.5 137,-1007.5 "/>
<text text-anchor="start" x="17" y="-995.5" font-family="Helvetica,sans-Serif" font-size="10.00" fill="#000000">+ setTitle()</text>
<text text-anchor="start" x="17" y="-984.5" font-family="Helvetica,sans-Serif" font-size="10.00" fill="#000000">+ getTitle()</text>
<text text-anchor="start" x="17" y="-973.5" font-family="Helvetica,sans-Serif" font-size="10.00" fill="#000000">+ setCoreComponent()</text>
<text text-anchor="start" x="17" y="-962.5" font-family="Helvetica,sans-Serif" font-size="10.00" fill="#000000">+ getCoreComponent()</text>
<text text-anchor="start" x="17" y="-951.5" font-family="Helvetica,sans-Serif" font-size="10.00" fill="#000000">+ setLayoutPosition()</text>
<text text-anchor="start" x="17" y="-940.5" font-family="Helvetica,sans-Serif" font-size="10.00" fill="#000000">+ getLayoutPosition()</text>
<text text-anchor="start" x="17" y="-929.5" font-family="Helvetica,sans-Serif" font-size="10.00" fill="#000000">+ render()</text>
</a>
</g>
</g>
<!-- Node15&#45;&gt;Node12 -->
<g id="edge6" class="edge">
<title>Node15&#45;&gt;Node12</title>
<path fill="none" stroke="#191970" d="M145.1687,-922.5933C145.4459,-922.3946 145.723,-922.1968 146,-922 190.7374,-890.2208 207.0295,-890.6494 255,-864 268.9821,-856.2324 283.8881,-847.735 297.996,-839.5904"/>
<polygon fill="none" stroke="#191970" points="143.0522,-919.8055 137.1363,-928.5949 147.2421,-925.4132 143.0522,-919.8055"/>
</g>
<!-- Node20 -->
<g id="node12" class="node">
<title>Node20</title>
<g id="a_node12"><a xlink:href="interfaceene_1_1interfaces_1_1PartialView.html" target="_top" xlink:title="{ene::interfaces::Partial\lView\&lt; CoreComponentType,\l ModelType \&gt;\n||+ setModel()\l+ getModel()\l+ update()\l}">
<polygon fill="none" stroke="#000000" points="102.5,-751.5 102.5,-852.5 245.5,-852.5 245.5,-751.5 102.5,-751.5"/>
<text text-anchor="start" x="110.5" y="-840.5" font-family="Helvetica,sans-Serif" font-size="10.00" fill="#000000">ene::interfaces::Partial</text>
<text text-anchor="start" x="110.5" y="-829.5" font-family="Helvetica,sans-Serif" font-size="10.00" fill="#000000">View&lt; CoreComponentType,</text>
<text text-anchor="middle" x="174" y="-818.5" font-family="Helvetica,sans-Serif" font-size="10.00" fill="#000000"> ModelType &gt;</text>
<polyline fill="none" stroke="#000000" points="102.5,-811.5 245.5,-811.5 "/>
<text text-anchor="middle" x="174" y="-799.5" font-family="Helvetica,sans-Serif" font-size="10.00" fill="#000000"> </text>
<polyline fill="none" stroke="#000000" points="102.5,-792.5 245.5,-792.5 "/>
<text text-anchor="start" x="110.5" y="-780.5" font-family="Helvetica,sans-Serif" font-size="10.00" fill="#000000">+ setModel()</text>
<text text-anchor="start" x="110.5" y="-769.5" font-family="Helvetica,sans-Serif" font-size="10.00" fill="#000000">+ getModel()</text>
<text text-anchor="start" x="110.5" y="-758.5" font-family="Helvetica,sans-Serif" font-size="10.00" fill="#000000">+ update()</text>
</a>
</g>
</g>
<!-- Node15&#45;&gt;Node20 -->
<g id="edge12" class="edge">
<title>Node15&#45;&gt;Node20</title>
<path fill="none" stroke="#191970" d="M114.0273,-913.3355C125.0589,-892.8559 136.7162,-871.2151 146.7901,-852.5135"/>
<polygon fill="none" stroke="#191970" points="110.8391,-911.874 109.178,-922.3378 117.0019,-915.1937 110.8391,-911.874"/>
</g>
<!-- Node16 -->
<g id="node8" class="node">
<title>Node16</title>
<g id="a_node8"><a xlink:href="interfaceene_1_1interfaces_1_1Localization.html" target="_top" xlink:title="{ene.interfaces.Localization\n||+ getString()\l}">
<polygon fill="none" stroke="#000000" points="155.5,-961 155.5,-1018 288.5,-1018 288.5,-961 155.5,-961"/>
<text text-anchor="middle" x="222" y="-1006" font-family="Helvetica,sans-Serif" font-size="10.00" fill="#000000">ene.interfaces.Localization</text>
<polyline fill="none" stroke="#000000" points="155.5,-999 288.5,-999 "/>
<text text-anchor="middle" x="222" y="-987" font-family="Helvetica,sans-Serif" font-size="10.00" fill="#000000"> </text>
<polyline fill="none" stroke="#000000" points="155.5,-980 288.5,-980 "/>
<text text-anchor="start" x="163.5" y="-968" font-family="Helvetica,sans-Serif" font-size="10.00" fill="#000000">+ getString()</text>
</a>
</g>
</g>
<!-- Node16&#45;&gt;Node12 -->
<g id="edge7" class="edge">
<title>Node16&#45;&gt;Node12</title>
<path fill="none" stroke="#191970" d="M249.716,-952.3803C268.6323,-927.046 294.137,-892.888 316.058,-863.5294"/>
<polygon fill="none" stroke="#191970" points="246.7466,-950.5072 243.5682,-960.614 252.3556,-954.6952 246.7466,-950.5072"/>
</g>
<!-- Node17 -->
<g id="node9" class="node">
<title>Node17</title>
<polygon fill="none" stroke="#bfbfbf" points="177,-1104.5 177,-1161.5 267,-1161.5 267,-1104.5 177,-1104.5"/>
<text text-anchor="middle" x="222" y="-1149.5" font-family="Helvetica,sans-Serif" font-size="10.00" fill="#000000">static final String</text>
<polyline fill="none" stroke="#bfbfbf" points="177,-1142.5 267,-1142.5 "/>
<text text-anchor="middle" x="222" y="-1130.5" font-family="Helvetica,sans-Serif" font-size="10.00" fill="#000000"> </text>
<polyline fill="none" stroke="#bfbfbf" points="177,-1123.5 267,-1123.5 "/>
<text text-anchor="middle" x="222" y="-1111.5" font-family="Helvetica,sans-Serif" font-size="10.00" fill="#000000"> </text>
</g>
<!-- Node17&#45;&gt;Node16 -->
<g id="edge8" class="edge">
<title>Node17&#45;&gt;Node16</title>
<path fill="none" stroke="#404040" d="M222,-1104.3055C222,-1083.0904 222,-1053.9058 222,-1030.2714"/>
<polygon fill="none" stroke="#404040" points="222.0001,-1030.1447 218,-1024.1448 222,-1018.1447 226,-1024.1447 222.0001,-1030.1447"/>
<text text-anchor="middle" x="272" y="-1078" font-family="Helvetica,sans-Serif" font-size="10.00" fill="#000000"> +DEFAULT_LOCALE</text>
</g>
<!-- Node18 -->
<g id="node10" class="node">
<title>Node18</title>
<polygon fill="none" stroke="#bfbfbf" points="664,-961 664,-1018 706,-1018 706,-961 664,-961"/>
<text text-anchor="middle" x="685" y="-1006" font-family="Helvetica,sans-Serif" font-size="10.00" fill="#000000">String</text>
<polyline fill="none" stroke="#bfbfbf" points="664,-999 706,-999 "/>
<text text-anchor="middle" x="685" y="-987" font-family="Helvetica,sans-Serif" font-size="10.00" fill="#000000"> </text>
<polyline fill="none" stroke="#bfbfbf" points="664,-980 706,-980 "/>
<text text-anchor="middle" x="685" y="-968" font-family="Helvetica,sans-Serif" font-size="10.00" fill="#000000"> </text>
</g>
<!-- Node18&#45;&gt;Node12 -->
<g id="edge9" class="edge">
<title>Node18&#45;&gt;Node12</title>
<path fill="none" stroke="#404040" d="M685.8624,-960.7005C684.918,-935.9798 679.2653,-901.3634 657,-882 630.8347,-859.2449 535.4541,-873.1239 502,-864 480.3615,-858.0985 457.7785,-849.3522 437.2242,-840.2773"/>
<polygon fill="none" stroke="#404040" points="436.9673,-840.1612 429.8522,-841.3343 426.0328,-835.2178 433.1478,-834.0447 436.9673,-840.1612"/>
<text text-anchor="middle" x="707" y="-896" font-family="Helvetica,sans-Serif" font-size="10.00" fill="#000000"> #layoutPosition</text>
<text text-anchor="middle" x="707" y="-885" font-family="Helvetica,sans-Serif" font-size="10.00" fill="#000000">#title</text>
</g>
<!-- Node31 -->
<g id="node23" class="node">
<title>Node31</title>
<g id="a_node23"><a xlink:href="classene_1_1controllers_1_1LibraryController.html" target="_top" xlink:title="{ene.controllers.LibraryController\n||+ LibraryController()\l+ LibraryController()\l+ loadFromFile()\l+ saveToFile()\l+ add()\l+ remove()\l+ edit()\l# setDatabaseFilename()\l# getDatabaseFilename()\l# addFile()\l# addDirectoryContent()\l# scan()\l}">
<polygon fill="none" stroke="#000000" points="688.5,-376.5 688.5,-554.5 843.5,-554.5 843.5,-376.5 688.5,-376.5"/>
<text text-anchor="middle" x="766" y="-542.5" font-family="Helvetica,sans-Serif" font-size="10.00" fill="#000000">ene.controllers.LibraryController</text>
<polyline fill="none" stroke="#000000" points="688.5,-535.5 843.5,-535.5 "/>
<text text-anchor="middle" x="766" y="-523.5" font-family="Helvetica,sans-Serif" font-size="10.00" fill="#000000"> </text>
<polyline fill="none" stroke="#000000" points="688.5,-516.5 843.5,-516.5 "/>
<text text-anchor="start" x="696.5" y="-504.5" font-family="Helvetica,sans-Serif" font-size="10.00" fill="#000000">+ LibraryController()</text>
<text text-anchor="start" x="696.5" y="-493.5" font-family="Helvetica,sans-Serif" font-size="10.00" fill="#000000">+ LibraryController()</text>
<text text-anchor="start" x="696.5" y="-482.5" font-family="Helvetica,sans-Serif" font-size="10.00" fill="#000000">+ loadFromFile()</text>
<text text-anchor="start" x="696.5" y="-471.5" font-family="Helvetica,sans-Serif" font-size="10.00" fill="#000000">+ saveToFile()</text>
<text text-anchor="start" x="696.5" y="-460.5" font-family="Helvetica,sans-Serif" font-size="10.00" fill="#000000">+ add()</text>
<text text-anchor="start" x="696.5" y="-449.5" font-family="Helvetica,sans-Serif" font-size="10.00" fill="#000000">+ remove()</text>
<text text-anchor="start" x="696.5" y="-438.5" font-family="Helvetica,sans-Serif" font-size="10.00" fill="#000000">+ edit()</text>
<text text-anchor="start" x="696.5" y="-427.5" font-family="Helvetica,sans-Serif" font-size="10.00" fill="#000000"># setDatabaseFilename()</text>
<text text-anchor="start" x="696.5" y="-416.5" font-family="Helvetica,sans-Serif" font-size="10.00" fill="#000000"># getDatabaseFilename()</text>
<text text-anchor="start" x="696.5" y="-405.5" font-family="Helvetica,sans-Serif" font-size="10.00" fill="#000000"># addFile()</text>
<text text-anchor="start" x="696.5" y="-394.5" font-family="Helvetica,sans-Serif" font-size="10.00" fill="#000000"># addDirectoryContent()</text>
<text text-anchor="start" x="696.5" y="-383.5" font-family="Helvetica,sans-Serif" font-size="10.00" fill="#000000"># scan()</text>
</a>
</g>
</g>
<!-- Node18&#45;&gt;Node31 -->
<g id="edge28" class="edge">
<title>Node18&#45;&gt;Node31</title>
<path fill="none" stroke="#404040" d="M693.8484,-960.6791C698.8448,-947.7896 706.1054,-933.0464 716,-922 726.3745,-910.4178 737.4481,-916.9863 746,-904 811.8179,-804.0535 804.4142,-661.7272 788.8534,-566.6211"/>
<polygon fill="none" stroke="#404040" points="788.8351,-566.5134 783.8831,-561.2715 786.8171,-554.6843 791.7692,-559.9262 788.8351,-566.5134"/>
<text text-anchor="middle" x="849" y="-714" font-family="Helvetica,sans-Serif" font-size="10.00" fill="#000000"> #DATABASE_TABLE</text>
<text text-anchor="middle" x="849" y="-703" font-family="Helvetica,sans-Serif" font-size="10.00" fill="#000000">#databaseFilename</text>
</g>
<!-- Node19 -->
<g id="node11" class="node">
<title>Node19</title>
<polygon fill="none" stroke="#bfbfbf" points="307,-961 307,-1018 417,-1018 417,-961 307,-961"/>
<text text-anchor="middle" x="362" y="-1006" font-family="Helvetica,sans-Serif" font-size="10.00" fill="#000000">CoreComponentType</text>
<polyline fill="none" stroke="#bfbfbf" points="307,-999 417,-999 "/>
<text text-anchor="middle" x="362" y="-987" font-family="Helvetica,sans-Serif" font-size="10.00" fill="#000000"> </text>
<polyline fill="none" stroke="#bfbfbf" points="307,-980 417,-980 "/>
<text text-anchor="middle" x="362" y="-968" font-family="Helvetica,sans-Serif" font-size="10.00" fill="#000000"> </text>
</g>
<!-- Node19&#45;&gt;Node12 -->
<g id="edge10" class="edge">
<title>Node19&#45;&gt;Node12</title>
<path fill="none" stroke="#404040" d="M362,-960.614C362,-937.9523 362,-905.3726 362,-875.6287"/>
<polygon fill="none" stroke="#404040" points="362.0001,-875.5294 358,-869.5294 362,-863.5294 366,-869.5294 362.0001,-875.5294"/>
<text text-anchor="middle" x="401" y="-890.5" font-family="Helvetica,sans-Serif" font-size="10.00" fill="#000000"> #coreComponent</text>
</g>
<!-- Node20&#45;&gt;Node11 -->
<g id="edge11" class="edge">
<title>Node20&#45;&gt;Node11</title>
<path fill="none" stroke="#191970" d="M241.3491,-744.6816C265.8874,-723.7979 293.0671,-700.6663 315.4074,-681.6533"/>
<polygon fill="none" stroke="#191970" points="238.8314,-742.2284 233.4844,-751.375 243.3682,-747.5592 238.8314,-742.2284"/>
</g>
<!-- Node21 -->
<g id="node13" class="node">
<title>Node21</title>
<polygon fill="none" stroke="#bfbfbf" points="580.5,-961 580.5,-1018 645.5,-1018 645.5,-961 580.5,-961"/>
<text text-anchor="middle" x="613" y="-1006" font-family="Helvetica,sans-Serif" font-size="10.00" fill="#000000">ModelType</text>
<polyline fill="none" stroke="#bfbfbf" points="580.5,-999 645.5,-999 "/>
<text text-anchor="middle" x="613" y="-987" font-family="Helvetica,sans-Serif" font-size="10.00" fill="#000000"> </text>
<polyline fill="none" stroke="#bfbfbf" points="580.5,-980 645.5,-980 "/>
<text text-anchor="middle" x="613" y="-968" font-family="Helvetica,sans-Serif" font-size="10.00" fill="#000000"> </text>
</g>
<!-- Node21&#45;&gt;Node11 -->
<g id="edge13" class="edge">
<title>Node21&#45;&gt;Node11</title>
<path fill="none" stroke="#404040" d="M596.4492,-960.8682C589.2078,-948.7126 580.4497,-934.4931 572,-922 515.8002,-838.907 444.7528,-746.5414 401.3789,-691.4179"/>
<polygon fill="none" stroke="#404040" points="401.3052,-691.3244 394.449,-689.0899 393.8747,-681.9016 400.7308,-684.1362 401.3052,-691.3244"/>
<text text-anchor="middle" x="546.5" y="-799.5" font-family="Helvetica,sans-Serif" font-size="10.00" fill="#000000"> #model</text>
</g>
<!-- Node21&#45;&gt;Node25 -->
<g id="edge20" class="edge">
<title>Node21&#45;&gt;Node25</title>
<path fill="none" stroke="#404040" d="M614.3358,-960.6279C615.602,-938.912 617.9337,-908.4712 622,-882 623.4286,-872.6999 625.3193,-862.8695 627.3384,-853.4025"/>
<polygon fill="none" stroke="#404040" points="627.3415,-853.388 624.7353,-846.6644 629.9393,-841.6726 632.5456,-848.3962 627.3415,-853.388"/>
<text text-anchor="middle" x="639.5" y="-890.5" font-family="Helvetica,sans-Serif" font-size="10.00" fill="#000000"> #model</text>
</g>
<!-- Node22 -->
<g id="node14" class="node">
<title>Node22</title>
<polygon fill="none" stroke="#bfbfbf" points="388.5,-437 388.5,-494 495.5,-494 495.5,-437 388.5,-437"/>
<text text-anchor="middle" x="442" y="-482" font-family="Helvetica,sans-Serif" font-size="10.00" fill="#000000">ListSelectionListener</text>
<polyline fill="none" stroke="#bfbfbf" points="388.5,-475 495.5,-475 "/>
<text text-anchor="middle" x="442" y="-463" font-family="Helvetica,sans-Serif" font-size="10.00" fill="#000000"> </text>
<polyline fill="none" stroke="#bfbfbf" points="388.5,-456 495.5,-456 "/>
<text text-anchor="middle" x="442" y="-444" font-family="Helvetica,sans-Serif" font-size="10.00" fill="#000000"> </text>
</g>
<!-- Node22&#45;&gt;Node10 -->
<g id="edge14" class="edge">
<title>Node22&#45;&gt;Node10</title>
<path fill="none" stroke="#191970" d="M428.1802,-427.4113C418.3696,-400.3722 404.7805,-362.9195 392.3143,-328.5614"/>
<polygon fill="none" stroke="#191970" points="424.9137,-428.6704 431.6146,-436.8769 431.494,-426.2828 424.9137,-428.6704"/>
</g>
<!-- Node23 -->
<g id="node15" class="node">
<title>Node23</title>
<g id="a_node15"><a xlink:href="classene_1_1controllers_1_1PlayerController.html" target="_top" xlink:title="{ene.controllers.PlayerController\n||+ PlayerController()\l+ changeTrackPosition()\l+ load()\l+ togglePlayback()\l}">
<polygon fill="none" stroke="#000000" points="513.5,-420.5 513.5,-510.5 666.5,-510.5 666.5,-420.5 513.5,-420.5"/>
<text text-anchor="middle" x="590" y="-498.5" font-family="Helvetica,sans-Serif" font-size="10.00" fill="#000000">ene.controllers.PlayerController</text>
<polyline fill="none" stroke="#000000" points="513.5,-491.5 666.5,-491.5 "/>
<text text-anchor="middle" x="590" y="-479.5" font-family="Helvetica,sans-Serif" font-size="10.00" fill="#000000"> </text>
<polyline fill="none" stroke="#000000" points="513.5,-472.5 666.5,-472.5 "/>
<text text-anchor="start" x="521.5" y="-460.5" font-family="Helvetica,sans-Serif" font-size="10.00" fill="#000000">+ PlayerController()</text>
<text text-anchor="start" x="521.5" y="-449.5" font-family="Helvetica,sans-Serif" font-size="10.00" fill="#000000">+ changeTrackPosition()</text>
<text text-anchor="start" x="521.5" y="-438.5" font-family="Helvetica,sans-Serif" font-size="10.00" fill="#000000">+ load()</text>
<text text-anchor="start" x="521.5" y="-427.5" font-family="Helvetica,sans-Serif" font-size="10.00" fill="#000000">+ togglePlayback()</text>
</a>
</g>
</g>
<!-- Node23&#45;&gt;Node10 -->
<g id="edge15" class="edge">
<title>Node23&#45;&gt;Node10</title>
<path fill="none" stroke="#404040" d="M548.1137,-420.413C534.5268,-406.0541 519.2748,-390.2121 505,-376 484.8482,-355.9367 462.6776,-334.6753 441.8657,-315.0566"/>
<polygon fill="none" stroke="#404040" points="441.7818,-314.9776 434.6705,-313.7816 433.0394,-306.7574 440.1506,-307.9534 441.7818,-314.9776"/>
<text text-anchor="middle" x="523.5" y="-350" font-family="Helvetica,sans-Serif" font-size="10.00" fill="#000000"> #playerController</text>
</g>
<!-- Node24 -->
<g id="node16" class="node">
<title>Node24</title>
<g id="a_node16"><a xlink:href="classene_1_1controllers_1_1AbstractController.html" target="_top" xlink:title="{ene.controllers.Abstract\lController\&lt; PlayerModel \&gt;\n|# model\l|+ setModel()\l+ getModel()\l}">
<polygon fill="none" stroke="#000000" points="485.5,-602.5 485.5,-681.5 616.5,-681.5 616.5,-602.5 485.5,-602.5"/>
<text text-anchor="start" x="493.5" y="-669.5" font-family="Helvetica,sans-Serif" font-size="10.00" fill="#000000">ene.controllers.Abstract</text>
<text text-anchor="middle" x="551" y="-658.5" font-family="Helvetica,sans-Serif" font-size="10.00" fill="#000000">Controller&lt; PlayerModel &gt;</text>
<polyline fill="none" stroke="#000000" points="485.5,-651.5 616.5,-651.5 "/>
<text text-anchor="start" x="493.5" y="-639.5" font-family="Helvetica,sans-Serif" font-size="10.00" fill="#000000"># model</text>
<polyline fill="none" stroke="#000000" points="485.5,-632.5 616.5,-632.5 "/>
<text text-anchor="start" x="493.5" y="-620.5" font-family="Helvetica,sans-Serif" font-size="10.00" fill="#000000">+ setModel()</text>
<text text-anchor="start" x="493.5" y="-609.5" font-family="Helvetica,sans-Serif" font-size="10.00" fill="#000000">+ getModel()</text>
</a>
</g>
</g>
<!-- Node24&#45;&gt;Node23 -->
<g id="edge16" class="edge">
<title>Node24&#45;&gt;Node23</title>
<path fill="none" stroke="#191970" d="M561.9442,-592.4706C567.6234,-566.7683 574.5104,-535.6004 580.0396,-510.5773"/>
<polygon fill="none" stroke="#191970" points="558.4925,-591.8703 559.7524,-602.39 565.3276,-593.3807 558.4925,-591.8703"/>
</g>
<!-- Node25&#45;&gt;Node24 -->
<g id="edge17" class="edge">
<title>Node25&#45;&gt;Node24</title>
<path fill="none" stroke="#ffa500" d="M608.6731,-753.6901C602.2905,-743.3524 595.7687,-732.4082 590,-722 582.8842,-709.1613 575.6789,-694.8345 569.4305,-681.892"/>
<polygon fill="#ffa500" stroke="#ffa500" points="605.7217,-755.5717 613.9823,-762.2059 611.6618,-751.8683 605.7217,-755.5717"/>
<text text-anchor="middle" x="628" y="-708.5" font-family="Helvetica,sans-Serif" font-size="10.00" fill="#000000"> &lt; PlayerModel &gt;</text>
</g>
<!-- Node32 -->
<g id="node24" class="node">
<title>Node32</title>
<g id="a_node24"><a xlink:href="classene_1_1controllers_1_1AbstractController.html" target="_top" xlink:title="{ene.controllers.Abstract\lController\&lt; LibraryModel \&gt;\n|# model\l|+ setModel()\l+ getModel()\l}">
<polygon fill="none" stroke="#000000" points="635,-602.5 635,-681.5 767,-681.5 767,-602.5 635,-602.5"/>
<text text-anchor="start" x="643" y="-669.5" font-family="Helvetica,sans-Serif" font-size="10.00" fill="#000000">ene.controllers.Abstract</text>
<text text-anchor="middle" x="701" y="-658.5" font-family="Helvetica,sans-Serif" font-size="10.00" fill="#000000">Controller&lt; LibraryModel &gt;</text>
<polyline fill="none" stroke="#000000" points="635,-651.5 767,-651.5 "/>
<text text-anchor="start" x="643" y="-639.5" font-family="Helvetica,sans-Serif" font-size="10.00" fill="#000000"># model</text>
<polyline fill="none" stroke="#000000" points="635,-632.5 767,-632.5 "/>
<text text-anchor="start" x="643" y="-620.5" font-family="Helvetica,sans-Serif" font-size="10.00" fill="#000000">+ setModel()</text>
<text text-anchor="start" x="643" y="-609.5" font-family="Helvetica,sans-Serif" font-size="10.00" fill="#000000">+ getModel()</text>
</a>
</g>
</g>
<!-- Node25&#45;&gt;Node32 -->
<g id="edge27" class="edge">
<title>Node25&#45;&gt;Node32</title>
<path fill="none" stroke="#ffa500" d="M658.7115,-752.9206C667.4292,-730.0545 677.6655,-703.2052 685.8834,-681.6501"/>
<polygon fill="#ffa500" stroke="#ffa500" points="655.3707,-751.8586 655.0787,-762.4494 661.9115,-754.3523 655.3707,-751.8586"/>
<text text-anchor="middle" x="715.5" y="-708.5" font-family="Helvetica,sans-Serif" font-size="10.00" fill="#000000"> &lt; LibraryModel &gt;</text>
</g>
<!-- Node26 -->
<g id="node18" class="node">
<title>Node26</title>
<g id="a_node18"><a xlink:href="interfaceene_1_1interfaces_1_1Controller.html" target="_top" xlink:title="{ene::interfaces::Controller\l\&lt; ModelType \&gt;\n||+ setModel()\l+ getModel()\l}">
<polygon fill="none" stroke="#000000" points="724.5,-950 724.5,-1029 853.5,-1029 853.5,-950 724.5,-950"/>
<text text-anchor="start" x="732.5" y="-1017" font-family="Helvetica,sans-Serif" font-size="10.00" fill="#000000">ene::interfaces::Controller</text>
<text text-anchor="middle" x="789" y="-1006" font-family="Helvetica,sans-Serif" font-size="10.00" fill="#000000">&lt; ModelType &gt;</text>
<polyline fill="none" stroke="#000000" points="724.5,-999 853.5,-999 "/>
<text text-anchor="middle" x="789" y="-987" font-family="Helvetica,sans-Serif" font-size="10.00" fill="#000000"> </text>
<polyline fill="none" stroke="#000000" points="724.5,-980 853.5,-980 "/>
<text text-anchor="start" x="732.5" y="-968" font-family="Helvetica,sans-Serif" font-size="10.00" fill="#000000">+ setModel()</text>
<text text-anchor="start" x="732.5" y="-957" font-family="Helvetica,sans-Serif" font-size="10.00" fill="#000000">+ getModel()</text>
</a>
</g>
</g>
<!-- Node26&#45;&gt;Node25 -->
<g id="edge19" class="edge">
<title>Node26&#45;&gt;Node25</title>
<path fill="none" stroke="#191970" d="M779.4188,-939.9826C773.9548,-920.5783 765.5937,-898.952 753,-882 739.5974,-863.9592 720.9112,-848.4249 702.5888,-835.9729"/>
<polygon fill="none" stroke="#191970" points="776.0953,-941.1068 782.0192,-949.8908 782.866,-939.3298 776.0953,-941.1068"/>
</g>
<!-- Node27 -->
<g id="node19" class="node">
<title>Node27</title>
<polygon fill="none" stroke="#bfbfbf" points="0,-437 0,-494 98,-494 98,-437 0,-437"/>
<text text-anchor="middle" x="49" y="-482" font-family="Helvetica,sans-Serif" font-size="10.00" fill="#000000">DefaultTableModel</text>
<polyline fill="none" stroke="#bfbfbf" points="0,-475 98,-475 "/>
<text text-anchor="middle" x="49" y="-463" font-family="Helvetica,sans-Serif" font-size="10.00" fill="#000000"> </text>
<polyline fill="none" stroke="#bfbfbf" points="0,-456 98,-456 "/>
<text text-anchor="middle" x="49" y="-444" font-family="Helvetica,sans-Serif" font-size="10.00" fill="#000000"> </text>
</g>
<!-- Node27&#45;&gt;Node10 -->
<g id="edge21" class="edge">
<title>Node27&#45;&gt;Node10</title>
<path fill="none" stroke="#404040" d="M59.8571,-436.9929C71.1475,-410.6362 91.0947,-371.8927 119,-347 163.7218,-307.1063 225.6648,-279.9141 275.5527,-262.8592"/>
<polygon fill="none" stroke="#404040" points="275.5915,-262.8464 280.0214,-257.1564 286.9775,-259.0571 282.5476,-264.7471 275.5915,-262.8464"/>
<text text-anchor="middle" x="151" y="-350" font-family="Helvetica,sans-Serif" font-size="10.00" fill="#000000"> #tableContent</text>
</g>
<!-- Node28 -->
<g id="node20" class="node">
<title>Node28</title>
<polygon fill="none" stroke="#bfbfbf" points="116,-437 116,-494 162,-494 162,-437 116,-437"/>
<text text-anchor="middle" x="139" y="-482" font-family="Helvetica,sans-Serif" font-size="10.00" fill="#000000">JTable</text>
<polyline fill="none" stroke="#bfbfbf" points="116,-475 162,-475 "/>
<text text-anchor="middle" x="139" y="-463" font-family="Helvetica,sans-Serif" font-size="10.00" fill="#000000"> </text>
<polyline fill="none" stroke="#bfbfbf" points="116,-456 162,-456 "/>
<text text-anchor="middle" x="139" y="-444" font-family="Helvetica,sans-Serif" font-size="10.00" fill="#000000"> </text>
</g>
<!-- Node28&#45;&gt;Node10 -->
<g id="edge22" class="edge">
<title>Node28&#45;&gt;Node10</title>
<path fill="none" stroke="#404040" d="M144.616,-436.767C149.3309,-418.0802 157.5196,-393.9423 171,-376 199.0012,-338.7307 240.0612,-307.3678 276.7626,-284.1402"/>
<polygon fill="none" stroke="#404040" points="276.7838,-284.1271 279.7771,-277.5666 286.9842,-277.8064 283.9909,-284.3669 276.7838,-284.1271"/>
<text text-anchor="middle" x="210" y="-350" font-family="Helvetica,sans-Serif" font-size="10.00" fill="#000000"> #table</text>
</g>
<!-- Node29 -->
<g id="node21" class="node">
<title>Node29</title>
<polygon fill="none" stroke="#bfbfbf" points="180,-431.5 180,-499.5 332,-499.5 332,-431.5 180,-431.5"/>
<text text-anchor="start" x="188" y="-487.5" font-family="Helvetica,sans-Serif" font-size="10.00" fill="#000000">TableRowSorter&lt; DefaultTable</text>
<text text-anchor="middle" x="256" y="-476.5" font-family="Helvetica,sans-Serif" font-size="10.00" fill="#000000">Model &gt;</text>
<polyline fill="none" stroke="#bfbfbf" points="180,-469.5 332,-469.5 "/>
<text text-anchor="middle" x="256" y="-457.5" font-family="Helvetica,sans-Serif" font-size="10.00" fill="#000000"> </text>
<polyline fill="none" stroke="#bfbfbf" points="180,-450.5 332,-450.5 "/>
<text text-anchor="middle" x="256" y="-438.5" font-family="Helvetica,sans-Serif" font-size="10.00" fill="#000000"> </text>
</g>
<!-- Node29&#45;&gt;Node10 -->
<g id="edge23" class="edge">
<title>Node29&#45;&gt;Node10</title>
<path fill="none" stroke="#404040" d="M254.9322,-431.4819C255.3571,-407.0442 258.4289,-373.8199 270,-347 272.9424,-340.18 276.4621,-333.4585 280.3797,-326.9088"/>
<polygon fill="none" stroke="#404040" points="280.3916,-326.8902 280.2407,-319.6806 286.8377,-316.7685 286.9885,-323.9781 280.3916,-326.8902"/>
<text text-anchor="middle" x="308" y="-350" font-family="Helvetica,sans-Serif" font-size="10.00" fill="#000000"> #tableRowSorter</text>
</g>
<!-- Node30 -->
<g id="node22" class="node">
<title>Node30</title>
<polygon fill="none" stroke="#bfbfbf" points="177.5,-613.5 177.5,-670.5 264.5,-670.5 264.5,-613.5 177.5,-613.5"/>
<text text-anchor="middle" x="221" y="-658.5" font-family="Helvetica,sans-Serif" font-size="10.00" fill="#000000">TableRowSorter</text>
<polyline fill="none" stroke="#bfbfbf" points="177.5,-651.5 264.5,-651.5 "/>
<text text-anchor="middle" x="221" y="-639.5" font-family="Helvetica,sans-Serif" font-size="10.00" fill="#000000"> </text>
<polyline fill="none" stroke="#bfbfbf" points="177.5,-632.5 264.5,-632.5 "/>
<text text-anchor="middle" x="221" y="-620.5" font-family="Helvetica,sans-Serif" font-size="10.00" fill="#000000"> </text>
</g>
<!-- Node30&#45;&gt;Node29 -->
<g id="edge24" class="edge">
<title>Node30&#45;&gt;Node29</title>
<path fill="none" stroke="#ffa500" d="M228.6838,-603.2517C234.8202,-572.3069 243.3367,-529.3593 249.2215,-499.683"/>
<polygon fill="#ffa500" stroke="#ffa500" points="225.2133,-602.7596 226.7013,-613.2494 232.0796,-604.1212 225.2133,-602.7596"/>
<text text-anchor="middle" x="285.5" y="-576" font-family="Helvetica,sans-Serif" font-size="10.00" fill="#000000"> &lt; DefaultTableModel &gt;</text>
</g>
<!-- Node31&#45;&gt;Node9 -->
<g id="edge25" class="edge">
<title>Node31&#45;&gt;Node9</title>
<path fill="none" stroke="#404040" d="M727.8118,-376.2486C695.2782,-300.2131 649.2407,-192.6169 619.7506,-123.6942"/>
<polygon fill="none" stroke="#404040" points="619.7051,-123.5877 613.6672,-119.6449 614.9845,-112.5551 621.0223,-116.4979 619.7051,-123.5877"/>
<text text-anchor="middle" x="745.5" y="-237" font-family="Helvetica,sans-Serif" font-size="10.00" fill="#000000"> #libraryController</text>
</g>
<!-- Node32&#45;&gt;Node31 -->
<g id="edge26" class="edge">
<title>Node32&#45;&gt;Node31</title>
<path fill="none" stroke="#191970" d="M719.1466,-592.725C723.5162,-580.8599 728.319,-567.8184 733.1325,-554.7478"/>
<polygon fill="none" stroke="#191970" points="715.7588,-591.7965 715.5873,-602.39 722.3275,-594.2156 715.7588,-591.7965"/>
</g>
<!-- Node33 -->
<g id="node25" class="node">
<title>Node33</title>
<polygon fill="none" stroke="#bfbfbf" points="823.5,-613.5 823.5,-670.5 852.5,-670.5 852.5,-613.5 823.5,-613.5"/>
<text text-anchor="middle" x="838" y="-658.5" font-family="Helvetica,sans-Serif" font-size="10.00" fill="#000000">int</text>
<polyline fill="none" stroke="#bfbfbf" points="823.5,-651.5 852.5,-651.5 "/>
<text text-anchor="middle" x="838" y="-639.5" font-family="Helvetica,sans-Serif" font-size="10.00" fill="#000000"> </text>
<polyline fill="none" stroke="#bfbfbf" points="823.5,-632.5 852.5,-632.5 "/>
<text text-anchor="middle" x="838" y="-620.5" font-family="Helvetica,sans-Serif" font-size="10.00" fill="#000000"> </text>
</g>
<!-- Node33&#45;&gt;Node31 -->
<g id="edge29" class="edge">
<title>Node33&#45;&gt;Node31</title>
<path fill="none" stroke="#404040" d="M826.2717,-613.2494C820.8456,-599.9478 814.0424,-583.2706 806.9784,-565.9541"/>
<polygon fill="none" stroke="#404040" points="806.8433,-565.6226 800.8733,-561.5779 802.3106,-554.5115 808.2806,-558.5562 806.8433,-565.6226"/>
<text text-anchor="middle" x="868.5" y="-576" font-family="Helvetica,sans-Serif" font-size="10.00" fill="#000000"> #DATABASE_TIMEOUT</text>
</g>
</g>
</svg>
