<?xml version="1.0" encoding="UTF-8" standalone="no"?>
<!DOCTYPE svg PUBLIC "-//W3C//DTD SVG 1.1//EN"
 "http://www.w3.org/Graphics/SVG/1.1/DTD/svg11.dtd">
<!-- Generated by graphviz version 2.40.1 (20161225.0304)
 -->
<!-- Title: ene.views.gui.partial.PlayerView Pages: 1 -->
<svg width="952pt" height="889pt"
 viewBox="0.00 0.00 952.00 889.00" xmlns="http://www.w3.org/2000/svg" xmlns:xlink="http://www.w3.org/1999/xlink">
<g id="graph0" class="graph" transform="scale(1 1) rotate(0) translate(4 885)">
<title>ene.views.gui.partial.PlayerView</title>
<!-- Node7 -->
<g id="node1" class="node">
<title>Node7</title>
<polygon fill="#bfbfbf" stroke="#000000" points="527,-.5 527,-156.5 685,-156.5 685,-.5 527,-.5"/>
<text text-anchor="middle" x="606" y="-144.5" font-family="Helvetica,sans-Serif" font-size="10.00" fill="#000000">ene.views.gui.partial.PlayerView</text>
<polyline fill="none" stroke="#000000" points="527,-137.5 685,-137.5 "/>
<text text-anchor="middle" x="606" y="-125.5" font-family="Helvetica,sans-Serif" font-size="10.00" fill="#000000"> </text>
<polyline fill="none" stroke="#000000" points="527,-118.5 685,-118.5 "/>
<text text-anchor="start" x="535" y="-106.5" font-family="Helvetica,sans-Serif" font-size="10.00" fill="#000000">+ PlayerView()</text>
<text text-anchor="start" x="535" y="-95.5" font-family="Helvetica,sans-Serif" font-size="10.00" fill="#000000">+ update()</text>
<text text-anchor="start" x="535" y="-84.5" font-family="Helvetica,sans-Serif" font-size="10.00" fill="#000000">+ render()</text>
<text text-anchor="start" x="535" y="-73.5" font-family="Helvetica,sans-Serif" font-size="10.00" fill="#000000"># setPlayerController()</text>
<text text-anchor="start" x="535" y="-62.5" font-family="Helvetica,sans-Serif" font-size="10.00" fill="#000000"># getPlayerController()</text>
<text text-anchor="start" x="535" y="-51.5" font-family="Helvetica,sans-Serif" font-size="10.00" fill="#000000"># enablePlayerControls()</text>
<text text-anchor="start" x="535" y="-40.5" font-family="Helvetica,sans-Serif" font-size="10.00" fill="#000000"># disablePlayerControls()</text>
<text text-anchor="start" x="535" y="-29.5" font-family="Helvetica,sans-Serif" font-size="10.00" fill="#000000"># updateProgress()</text>
<text text-anchor="start" x="535" y="-18.5" font-family="Helvetica,sans-Serif" font-size="10.00" fill="#000000"># resetProgress()</text>
<text text-anchor="start" x="535" y="-7.5" font-family="Helvetica,sans-Serif" font-size="10.00" fill="#000000"># formatTimeToString()</text>
</g>
<!-- Node8 -->
<g id="node2" class="node">
<title>Node8</title>
<g id="a_node2"><a xlink:href="classene_1_1views_1_1AbstractPartialView.html" target="_top" xlink:title="{ene::views::AbstractPartial\lView\&lt; JPanel, PlayerModel \&gt;\n||+ setModel()\l+ getModel()\l}">
<polygon fill="none" stroke="#000000" points="231,-332.5 231,-411.5 377,-411.5 377,-332.5 231,-332.5"/>
<text text-anchor="start" x="239" y="-399.5" font-family="Helvetica,sans-Serif" font-size="10.00" fill="#000000">ene::views::AbstractPartial</text>
<text text-anchor="middle" x="304" y="-388.5" font-family="Helvetica,sans-Serif" font-size="10.00" fill="#000000">View&lt; JPanel, PlayerModel &gt;</text>
<polyline fill="none" stroke="#000000" points="231,-381.5 377,-381.5 "/>
<text text-anchor="middle" x="304" y="-369.5" font-family="Helvetica,sans-Serif" font-size="10.00" fill="#000000"> </text>
<polyline fill="none" stroke="#000000" points="231,-362.5 377,-362.5 "/>
<text text-anchor="start" x="239" y="-350.5" font-family="Helvetica,sans-Serif" font-size="10.00" fill="#000000">+ setModel()</text>
<text text-anchor="start" x="239" y="-339.5" font-family="Helvetica,sans-Serif" font-size="10.00" fill="#000000">+ getModel()</text>
</a>
</g>
</g>
<!-- Node8&#45;&gt;Node7 -->
<g id="edge1" class="edge">
<title>Node8&#45;&gt;Node7</title>
<path fill="none" stroke="#191970" d="M316.5264,-322.3864C327.7292,-286.1325 347.2159,-237.629 378,-204 418.5768,-159.6734 478.5319,-127.5308 526.7778,-106.8767"/>
<polygon fill="none" stroke="#191970" points="313.0845,-321.6815 313.5838,-332.2645 319.7932,-323.68 313.0845,-321.6815"/>
</g>
<!-- Node9 -->
<g id="node3" class="node">
<title>Node9</title>
<g id="a_node3"><a xlink:href="classene_1_1views_1_1AbstractView.html" target="_top" xlink:title="{ene::views::AbstractView\l\&lt; CoreComponentType \&gt;\n||+ setTitle()\l+ getTitle()\l+ setCoreComponent()\l+ getCoreComponent()\l+ setLayoutPosition()\l+ getLayoutPosition()\l}">
<polygon fill="none" stroke="#000000" points="227,-459.5 227,-582.5 355,-582.5 355,-459.5 227,-459.5"/>
<text text-anchor="start" x="235" y="-570.5" font-family="Helvetica,sans-Serif" font-size="10.00" fill="#000000">ene::views::AbstractView</text>
<text text-anchor="middle" x="291" y="-559.5" font-family="Helvetica,sans-Serif" font-size="10.00" fill="#000000">&lt; CoreComponentType &gt;</text>
<polyline fill="none" stroke="#000000" points="227,-552.5 355,-552.5 "/>
<text text-anchor="middle" x="291" y="-540.5" font-family="Helvetica,sans-Serif" font-size="10.00" fill="#000000"> </text>
<polyline fill="none" stroke="#000000" points="227,-533.5 355,-533.5 "/>
<text text-anchor="start" x="235" y="-521.5" font-family="Helvetica,sans-Serif" font-size="10.00" fill="#000000">+ setTitle()</text>
<text text-anchor="start" x="235" y="-510.5" font-family="Helvetica,sans-Serif" font-size="10.00" fill="#000000">+ getTitle()</text>
<text text-anchor="start" x="235" y="-499.5" font-family="Helvetica,sans-Serif" font-size="10.00" fill="#000000">+ setCoreComponent()</text>
<text text-anchor="start" x="235" y="-488.5" font-family="Helvetica,sans-Serif" font-size="10.00" fill="#000000">+ getCoreComponent()</text>
<text text-anchor="start" x="235" y="-477.5" font-family="Helvetica,sans-Serif" font-size="10.00" fill="#000000">+ setLayoutPosition()</text>
<text text-anchor="start" x="235" y="-466.5" font-family="Helvetica,sans-Serif" font-size="10.00" fill="#000000">+ getLayoutPosition()</text>
</a>
</g>
</g>
<!-- Node9&#45;&gt;Node8 -->
<g id="edge2" class="edge">
<title>Node9&#45;&gt;Node8</title>
<path fill="none" stroke="#191970" d="M297.2899,-448.9078C298.4046,-436.1316 299.5276,-423.2609 300.5274,-411.8008"/>
<polygon fill="none" stroke="#191970" points="293.7827,-448.8386 296.4002,-459.105 300.7563,-449.4471 293.7827,-448.8386"/>
</g>
<!-- Node10 -->
<g id="node4" class="node">
<title>Node10</title>
<g id="a_node4"><a xlink:href="classene_1_1AbstractObject.html" target="_top" xlink:title="{ene.AbstractObject\n||+ enableDebugMode()\l+ disableDebugMode()\l+ isDebugModeEnabled()\l+ debugInfoAbout()\l+ consoleOutput()\l# delay()\l}">
<polygon fill="none" stroke="#000000" points="485.5,-652.5 485.5,-764.5 612.5,-764.5 612.5,-652.5 485.5,-652.5"/>
<text text-anchor="middle" x="549" y="-752.5" font-family="Helvetica,sans-Serif" font-size="10.00" fill="#000000">ene.AbstractObject</text>
<polyline fill="none" stroke="#000000" points="485.5,-745.5 612.5,-745.5 "/>
<text text-anchor="middle" x="549" y="-733.5" font-family="Helvetica,sans-Serif" font-size="10.00" fill="#000000"> </text>
<polyline fill="none" stroke="#000000" points="485.5,-726.5 612.5,-726.5 "/>
<text text-anchor="start" x="493.5" y="-714.5" font-family="Helvetica,sans-Serif" font-size="10.00" fill="#000000">+ enableDebugMode()</text>
<text text-anchor="start" x="493.5" y="-703.5" font-family="Helvetica,sans-Serif" font-size="10.00" fill="#000000">+ disableDebugMode()</text>
<text text-anchor="start" x="493.5" y="-692.5" font-family="Helvetica,sans-Serif" font-size="10.00" fill="#000000">+ isDebugModeEnabled()</text>
<text text-anchor="start" x="493.5" y="-681.5" font-family="Helvetica,sans-Serif" font-size="10.00" fill="#000000">+ debugInfoAbout()</text>
<text text-anchor="start" x="493.5" y="-670.5" font-family="Helvetica,sans-Serif" font-size="10.00" fill="#000000">+ consoleOutput()</text>
<text text-anchor="start" x="493.5" y="-659.5" font-family="Helvetica,sans-Serif" font-size="10.00" fill="#000000"># delay()</text>
</a>
</g>
</g>
<!-- Node10&#45;&gt;Node9 -->
<g id="edge3" class="edge">
<title>Node10&#45;&gt;Node9</title>
<path fill="none" stroke="#191970" d="M483.0471,-645.8326C481.027,-644.1832 479.0087,-642.5688 477,-641 438.3849,-610.841 392.0967,-580.9571 355.3569,-558.5552"/>
<polygon fill="none" stroke="#191970" points="480.9153,-648.6125 490.8307,-652.3455 485.4074,-643.2439 480.9153,-648.6125"/>
</g>
<!-- Node23 -->
<g id="node17" class="node">
<title>Node23</title>
<g id="a_node17"><a xlink:href="classene_1_1controllers_1_1AbstractController.html" target="_top" xlink:title="{ene.controllers.Abstract\lController\&lt; ModelType \&gt;\n||+ setModel()\l+ getModel()\l}">
<polygon fill="none" stroke="#000000" points="620.5,-481.5 620.5,-560.5 745.5,-560.5 745.5,-481.5 620.5,-481.5"/>
<text text-anchor="start" x="628.5" y="-548.5" font-family="Helvetica,sans-Serif" font-size="10.00" fill="#000000">ene.controllers.Abstract</text>
<text text-anchor="middle" x="683" y="-537.5" font-family="Helvetica,sans-Serif" font-size="10.00" fill="#000000">Controller&lt; ModelType &gt;</text>
<polyline fill="none" stroke="#000000" points="620.5,-530.5 745.5,-530.5 "/>
<text text-anchor="middle" x="683" y="-518.5" font-family="Helvetica,sans-Serif" font-size="10.00" fill="#000000"> </text>
<polyline fill="none" stroke="#000000" points="620.5,-511.5 745.5,-511.5 "/>
<text text-anchor="start" x="628.5" y="-499.5" font-family="Helvetica,sans-Serif" font-size="10.00" fill="#000000">+ setModel()</text>
<text text-anchor="start" x="628.5" y="-488.5" font-family="Helvetica,sans-Serif" font-size="10.00" fill="#000000">+ getModel()</text>
</a>
</g>
</g>
<!-- Node10&#45;&gt;Node23 -->
<g id="edge18" class="edge">
<title>Node10&#45;&gt;Node23</title>
<path fill="none" stroke="#191970" d="M595.0705,-644.0357C614.8657,-616.3372 637.3705,-584.8472 654.6569,-560.6592"/>
<polygon fill="none" stroke="#191970" points="591.9898,-642.3268 589.0229,-652.4978 597.6849,-646.397 591.9898,-642.3268"/>
</g>
<!-- Node11 -->
<g id="node5" class="node">
<title>Node11</title>
<polygon fill="none" stroke="#bfbfbf" points="510.5,-823.5 510.5,-880.5 587.5,-880.5 587.5,-823.5 510.5,-823.5"/>
<text text-anchor="middle" x="549" y="-868.5" font-family="Helvetica,sans-Serif" font-size="10.00" fill="#000000">static boolean</text>
<polyline fill="none" stroke="#bfbfbf" points="510.5,-861.5 587.5,-861.5 "/>
<text text-anchor="middle" x="549" y="-849.5" font-family="Helvetica,sans-Serif" font-size="10.00" fill="#000000"> </text>
<polyline fill="none" stroke="#bfbfbf" points="510.5,-842.5 587.5,-842.5 "/>
<text text-anchor="middle" x="549" y="-830.5" font-family="Helvetica,sans-Serif" font-size="10.00" fill="#000000"> </text>
</g>
<!-- Node11&#45;&gt;Node10 -->
<g id="edge4" class="edge">
<title>Node11&#45;&gt;Node10</title>
<path fill="none" stroke="#404040" d="M549,-823.3055C549,-809.9442 549,-793.4218 549,-777.1157"/>
<polygon fill="none" stroke="#404040" points="549.0001,-776.7445 545,-770.7445 549,-764.7445 553,-770.7444 549.0001,-776.7445"/>
<text text-anchor="middle" x="596" y="-797" font-family="Helvetica,sans-Serif" font-size="10.00" fill="#000000"> #debugModeEnabled</text>
</g>
<!-- Node12 -->
<g id="node6" class="node">
<title>Node12</title>
<g id="a_node6"><a xlink:href="interfaceene_1_1interfaces_1_1View.html" target="_top" xlink:title="{ene::interfaces::View\l\&lt; CoreComponentType \&gt;\n||+ setTitle()\l+ getTitle()\l+ setCoreComponent()\l+ getCoreComponent()\l+ setLayoutPosition()\l+ getLayoutPosition()\l+ render()\l}">
<polygon fill="none" stroke="#000000" points="0,-641.5 0,-775.5 128,-775.5 128,-641.5 0,-641.5"/>
<text text-anchor="start" x="8" y="-763.5" font-family="Helvetica,sans-Serif" font-size="10.00" fill="#000000">ene::interfaces::View</text>
<text text-anchor="middle" x="64" y="-752.5" font-family="Helvetica,sans-Serif" font-size="10.00" fill="#000000">&lt; CoreComponentType &gt;</text>
<polyline fill="none" stroke="#000000" points="0,-745.5 128,-745.5 "/>
<text text-anchor="middle" x="64" y="-733.5" font-family="Helvetica,sans-Serif" font-size="10.00" fill="#000000"> </text>
<polyline fill="none" stroke="#000000" points="0,-726.5 128,-726.5 "/>
<text text-anchor="start" x="8" y="-714.5" font-family="Helvetica,sans-Serif" font-size="10.00" fill="#000000">+ setTitle()</text>
<text text-anchor="start" x="8" y="-703.5" font-family="Helvetica,sans-Serif" font-size="10.00" fill="#000000">+ getTitle()</text>
<text text-anchor="start" x="8" y="-692.5" font-family="Helvetica,sans-Serif" font-size="10.00" fill="#000000">+ setCoreComponent()</text>
<text text-anchor="start" x="8" y="-681.5" font-family="Helvetica,sans-Serif" font-size="10.00" fill="#000000">+ getCoreComponent()</text>
<text text-anchor="start" x="8" y="-670.5" font-family="Helvetica,sans-Serif" font-size="10.00" fill="#000000">+ setLayoutPosition()</text>
<text text-anchor="start" x="8" y="-659.5" font-family="Helvetica,sans-Serif" font-size="10.00" fill="#000000">+ getLayoutPosition()</text>
<text text-anchor="start" x="8" y="-648.5" font-family="Helvetica,sans-Serif" font-size="10.00" fill="#000000">+ render()</text>
</a>
</g>
</g>
<!-- Node12&#45;&gt;Node9 -->
<g id="edge5" class="edge">
<title>Node12&#45;&gt;Node9</title>
<path fill="none" stroke="#191970" d="M135.9185,-641.9321C136.2797,-641.6203 136.6402,-641.3096 137,-641 165.7764,-616.2405 198.85,-590.1768 226.9528,-568.6892"/>
<polygon fill="none" stroke="#191970" points="133.4915,-639.4048 128.26,-648.6179 138.0951,-644.6781 133.4915,-639.4048"/>
</g>
<!-- Node17 -->
<g id="node11" class="node">
<title>Node17</title>
<g id="a_node11"><a xlink:href="interfaceene_1_1interfaces_1_1PartialView.html" target="_top" xlink:title="{ene::interfaces::Partial\lView\&lt; CoreComponentType,\l ModelType \&gt;\n||+ setModel()\l+ getModel()\l+ update()\l}">
<polygon fill="none" stroke="#000000" points="41.5,-470.5 41.5,-571.5 184.5,-571.5 184.5,-470.5 41.5,-470.5"/>
<text text-anchor="start" x="49.5" y="-559.5" font-family="Helvetica,sans-Serif" font-size="10.00" fill="#000000">ene::interfaces::Partial</text>
<text text-anchor="start" x="49.5" y="-548.5" font-family="Helvetica,sans-Serif" font-size="10.00" fill="#000000">View&lt; CoreComponentType,</text>
<text text-anchor="middle" x="113" y="-537.5" font-family="Helvetica,sans-Serif" font-size="10.00" fill="#000000"> ModelType &gt;</text>
<polyline fill="none" stroke="#000000" points="41.5,-530.5 184.5,-530.5 "/>
<text text-anchor="middle" x="113" y="-518.5" font-family="Helvetica,sans-Serif" font-size="10.00" fill="#000000"> </text>
<polyline fill="none" stroke="#000000" points="41.5,-511.5 184.5,-511.5 "/>
<text text-anchor="start" x="49.5" y="-499.5" font-family="Helvetica,sans-Serif" font-size="10.00" fill="#000000">+ setModel()</text>
<text text-anchor="start" x="49.5" y="-488.5" font-family="Helvetica,sans-Serif" font-size="10.00" fill="#000000">+ getModel()</text>
<text text-anchor="start" x="49.5" y="-477.5" font-family="Helvetica,sans-Serif" font-size="10.00" fill="#000000">+ update()</text>
</a>
</g>
</g>
<!-- Node12&#45;&gt;Node17 -->
<g id="edge11" class="edge">
<title>Node12&#45;&gt;Node17</title>
<path fill="none" stroke="#191970" d="M84.1205,-631.5084C89.4083,-611.2742 94.9775,-589.9635 99.7991,-571.5135"/>
<polygon fill="none" stroke="#191970" points="80.6939,-630.7777 81.5517,-641.3378 87.4665,-632.5477 80.6939,-630.7777"/>
</g>
<!-- Node13 -->
<g id="node7" class="node">
<title>Node13</title>
<g id="a_node7"><a xlink:href="interfaceene_1_1interfaces_1_1Localization.html" target="_top" xlink:title="{ene.interfaces.Localization\n||+ getString()\l}">
<polygon fill="none" stroke="#000000" points="334.5,-680 334.5,-737 467.5,-737 467.5,-680 334.5,-680"/>
<text text-anchor="middle" x="401" y="-725" font-family="Helvetica,sans-Serif" font-size="10.00" fill="#000000">ene.interfaces.Localization</text>
<polyline fill="none" stroke="#000000" points="334.5,-718 467.5,-718 "/>
<text text-anchor="middle" x="401" y="-706" font-family="Helvetica,sans-Serif" font-size="10.00" fill="#000000"> </text>
<polyline fill="none" stroke="#000000" points="334.5,-699 467.5,-699 "/>
<text text-anchor="start" x="342.5" y="-687" font-family="Helvetica,sans-Serif" font-size="10.00" fill="#000000">+ getString()</text>
</a>
</g>
</g>
<!-- Node13&#45;&gt;Node9 -->
<g id="edge6" class="edge">
<title>Node13&#45;&gt;Node9</title>
<path fill="none" stroke="#191970" d="M390.0037,-670.2296C383.0373,-649.0079 372.9013,-622.6188 360,-601 356.3344,-594.8575 352.1843,-588.7299 347.7823,-582.7551"/>
<polygon fill="none" stroke="#191970" points="386.7078,-671.4148 393.0734,-679.8841 393.3787,-669.2937 386.7078,-671.4148"/>
</g>
<!-- Node14 -->
<g id="node8" class="node">
<title>Node14</title>
<polygon fill="none" stroke="#bfbfbf" points="356,-823.5 356,-880.5 446,-880.5 446,-823.5 356,-823.5"/>
<text text-anchor="middle" x="401" y="-868.5" font-family="Helvetica,sans-Serif" font-size="10.00" fill="#000000">static final String</text>
<polyline fill="none" stroke="#bfbfbf" points="356,-861.5 446,-861.5 "/>
<text text-anchor="middle" x="401" y="-849.5" font-family="Helvetica,sans-Serif" font-size="10.00" fill="#000000"> </text>
<polyline fill="none" stroke="#bfbfbf" points="356,-842.5 446,-842.5 "/>
<text text-anchor="middle" x="401" y="-830.5" font-family="Helvetica,sans-Serif" font-size="10.00" fill="#000000"> </text>
</g>
<!-- Node14&#45;&gt;Node13 -->
<g id="edge7" class="edge">
<title>Node14&#45;&gt;Node13</title>
<path fill="none" stroke="#404040" d="M401,-823.3055C401,-802.0904 401,-772.9058 401,-749.2714"/>
<polygon fill="none" stroke="#404040" points="401.0001,-749.1447 397,-743.1448 401,-737.1447 405,-743.1447 401.0001,-749.1447"/>
<text text-anchor="middle" x="451" y="-797" font-family="Helvetica,sans-Serif" font-size="10.00" fill="#000000"> +DEFAULT_LOCALE</text>
</g>
<!-- Node15 -->
<g id="node9" class="node">
<title>Node15</title>
<polygon fill="none" stroke="#bfbfbf" points="146,-680 146,-737 188,-737 188,-680 146,-680"/>
<text text-anchor="middle" x="167" y="-725" font-family="Helvetica,sans-Serif" font-size="10.00" fill="#000000">String</text>
<polyline fill="none" stroke="#bfbfbf" points="146,-718 188,-718 "/>
<text text-anchor="middle" x="167" y="-706" font-family="Helvetica,sans-Serif" font-size="10.00" fill="#000000"> </text>
<polyline fill="none" stroke="#bfbfbf" points="146,-699 188,-699 "/>
<text text-anchor="middle" x="167" y="-687" font-family="Helvetica,sans-Serif" font-size="10.00" fill="#000000"> </text>
</g>
<!-- Node15&#45;&gt;Node9 -->
<g id="edge8" class="edge">
<title>Node15&#45;&gt;Node9</title>
<path fill="none" stroke="#404040" d="M172.0762,-679.7841C177.0631,-657.0418 186.2684,-625.1863 202,-601 206.7507,-593.6961 212.3333,-586.6383 218.3479,-579.942"/>
<polygon fill="none" stroke="#404040" points="218.5248,-579.7553 219.7489,-572.6489 226.7796,-571.0456 225.5554,-578.1521 218.5248,-579.7553"/>
<text text-anchor="middle" x="237" y="-615" font-family="Helvetica,sans-Serif" font-size="10.00" fill="#000000"> #layoutPosition</text>
<text text-anchor="middle" x="237" y="-604" font-family="Helvetica,sans-Serif" font-size="10.00" fill="#000000">#title</text>
</g>
<!-- Node16 -->
<g id="node10" class="node">
<title>Node16</title>
<polygon fill="none" stroke="#bfbfbf" points="206,-680 206,-737 316,-737 316,-680 206,-680"/>
<text text-anchor="middle" x="261" y="-725" font-family="Helvetica,sans-Serif" font-size="10.00" fill="#000000">CoreComponentType</text>
<polyline fill="none" stroke="#bfbfbf" points="206,-718 316,-718 "/>
<text text-anchor="middle" x="261" y="-706" font-family="Helvetica,sans-Serif" font-size="10.00" fill="#000000"> </text>
<polyline fill="none" stroke="#bfbfbf" points="206,-699 316,-699 "/>
<text text-anchor="middle" x="261" y="-687" font-family="Helvetica,sans-Serif" font-size="10.00" fill="#000000"> </text>
</g>
<!-- Node16&#45;&gt;Node9 -->
<g id="edge9" class="edge">
<title>Node16&#45;&gt;Node9</title>
<path fill="none" stroke="#404040" d="M265.6218,-679.614C269.2476,-656.9523 274.4604,-624.3726 279.2194,-594.6287"/>
<polygon fill="none" stroke="#404040" points="279.2593,-594.3787 276.2575,-587.8221 281.1553,-582.5294 284.1571,-589.086 279.2593,-594.3787"/>
<text text-anchor="middle" x="317" y="-609.5" font-family="Helvetica,sans-Serif" font-size="10.00" fill="#000000"> #coreComponent</text>
</g>
<!-- Node17&#45;&gt;Node8 -->
<g id="edge10" class="edge">
<title>Node17&#45;&gt;Node8</title>
<path fill="none" stroke="#191970" d="M186.084,-463.9868C208.4553,-446.5349 232.5661,-427.726 253.1198,-411.6919"/>
<polygon fill="none" stroke="#191970" points="183.6622,-461.437 177.9304,-470.3475 187.9679,-466.9562 183.6622,-461.437"/>
</g>
<!-- Node18 -->
<g id="node12" class="node">
<title>Node18</title>
<polygon fill="none" stroke="#bfbfbf" points="630.5,-680 630.5,-737 695.5,-737 695.5,-680 630.5,-680"/>
<text text-anchor="middle" x="663" y="-725" font-family="Helvetica,sans-Serif" font-size="10.00" fill="#000000">ModelType</text>
<polyline fill="none" stroke="#bfbfbf" points="630.5,-718 695.5,-718 "/>
<text text-anchor="middle" x="663" y="-706" font-family="Helvetica,sans-Serif" font-size="10.00" fill="#000000"> </text>
<polyline fill="none" stroke="#bfbfbf" points="630.5,-699 695.5,-699 "/>
<text text-anchor="middle" x="663" y="-687" font-family="Helvetica,sans-Serif" font-size="10.00" fill="#000000"> </text>
</g>
<!-- Node18&#45;&gt;Node8 -->
<g id="edge12" class="edge">
<title>Node18&#45;&gt;Node8</title>
<path fill="none" stroke="#404040" d="M648.3366,-679.8691C641.2352,-667.3092 632.0671,-652.7773 622,-641 546.2055,-552.3289 439.6624,-468.5943 371.2192,-418.7843"/>
<polygon fill="none" stroke="#404040" points="371.1282,-418.7185 363.9224,-418.4425 361.4056,-411.6849 368.6115,-411.9608 371.1282,-418.7185"/>
<text text-anchor="middle" x="582.5" y="-518.5" font-family="Helvetica,sans-Serif" font-size="10.00" fill="#000000"> #model</text>
</g>
<!-- Node18&#45;&gt;Node23 -->
<g id="edge20" class="edge">
<title>Node18&#45;&gt;Node23</title>
<path fill="none" stroke="#404040" d="M666.0812,-679.614C669.1064,-651.2523 673.7887,-607.3557 677.4613,-572.9257"/>
<polygon fill="none" stroke="#404040" points="677.4908,-572.6479 674.1498,-566.2574 678.7637,-560.7156 682.1047,-567.106 677.4908,-572.6479"/>
<text text-anchor="middle" x="691.5" y="-609.5" font-family="Helvetica,sans-Serif" font-size="10.00" fill="#000000"> #model</text>
</g>
<!-- Node19 -->
<g id="node13" class="node">
<title>Node19</title>
<polygon fill="none" stroke="#bfbfbf" points="387.5,-221 387.5,-278 434.5,-278 434.5,-221 387.5,-221"/>
<text text-anchor="middle" x="411" y="-266" font-family="Helvetica,sans-Serif" font-size="10.00" fill="#000000">JSlider</text>
<polyline fill="none" stroke="#bfbfbf" points="387.5,-259 434.5,-259 "/>
<text text-anchor="middle" x="411" y="-247" font-family="Helvetica,sans-Serif" font-size="10.00" fill="#000000"> </text>
<polyline fill="none" stroke="#bfbfbf" points="387.5,-240 434.5,-240 "/>
<text text-anchor="middle" x="411" y="-228" font-family="Helvetica,sans-Serif" font-size="10.00" fill="#000000"> </text>
</g>
<!-- Node19&#45;&gt;Node7 -->
<g id="edge13" class="edge">
<title>Node19&#45;&gt;Node7</title>
<path fill="none" stroke="#404040" d="M424.3276,-220.8597C432.1508,-206.0457 443.0451,-188.3268 456,-175 473.6211,-156.873 495.2586,-140.4935 516.5586,-126.5903"/>
<polygon fill="none" stroke="#404040" points="516.8441,-126.4087 519.7593,-119.8131 526.9688,-119.9672 524.0536,-126.5628 516.8441,-126.4087"/>
<text text-anchor="middle" x="491.5" y="-178" font-family="Helvetica,sans-Serif" font-size="10.00" fill="#000000"> #progressSlider</text>
</g>
<!-- Node20 -->
<g id="node14" class="node">
<title>Node20</title>
<polygon fill="none" stroke="#bfbfbf" points="461,-221 461,-278 511,-278 511,-221 461,-221"/>
<text text-anchor="middle" x="486" y="-266" font-family="Helvetica,sans-Serif" font-size="10.00" fill="#000000">JButton</text>
<polyline fill="none" stroke="#bfbfbf" points="461,-259 511,-259 "/>
<text text-anchor="middle" x="486" y="-247" font-family="Helvetica,sans-Serif" font-size="10.00" fill="#000000"> </text>
<polyline fill="none" stroke="#bfbfbf" points="461,-240 511,-240 "/>
<text text-anchor="middle" x="486" y="-228" font-family="Helvetica,sans-Serif" font-size="10.00" fill="#000000"> </text>
</g>
<!-- Node20&#45;&gt;Node7 -->
<g id="edge14" class="edge">
<title>Node20&#45;&gt;Node7</title>
<path fill="none" stroke="#404040" d="M506.0853,-220.8784C516.7017,-205.75 530.3694,-186.2736 544.1665,-166.6127"/>
<polygon fill="none" stroke="#404040" points="544.2634,-166.4746 544.4357,-159.2656 551.1565,-156.6519 550.9842,-163.861 544.2634,-166.4746"/>
<text text-anchor="middle" x="562.5" y="-178" font-family="Helvetica,sans-Serif" font-size="10.00" fill="#000000"> #playButton</text>
</g>
<!-- Node21 -->
<g id="node15" class="node">
<title>Node21</title>
<g id="a_node15"><a xlink:href="classene_1_1controllers_1_1PlayerController.html" target="_top" xlink:title="{ene.controllers.PlayerController\n||+ PlayerController()\l+ changeTrackPosition()\l+ load()\l+ togglePlayback()\l}">
<polygon fill="none" stroke="#000000" points="529.5,-204.5 529.5,-294.5 682.5,-294.5 682.5,-204.5 529.5,-204.5"/>
<text text-anchor="middle" x="606" y="-282.5" font-family="Helvetica,sans-Serif" font-size="10.00" fill="#000000">ene.controllers.PlayerController</text>
<polyline fill="none" stroke="#000000" points="529.5,-275.5 682.5,-275.5 "/>
<text text-anchor="middle" x="606" y="-263.5" font-family="Helvetica,sans-Serif" font-size="10.00" fill="#000000"> </text>
<polyline fill="none" stroke="#000000" points="529.5,-256.5 682.5,-256.5 "/>
<text text-anchor="start" x="537.5" y="-244.5" font-family="Helvetica,sans-Serif" font-size="10.00" fill="#000000">+ PlayerController()</text>
<text text-anchor="start" x="537.5" y="-233.5" font-family="Helvetica,sans-Serif" font-size="10.00" fill="#000000">+ changeTrackPosition()</text>
<text text-anchor="start" x="537.5" y="-222.5" font-family="Helvetica,sans-Serif" font-size="10.00" fill="#000000">+ load()</text>
<text text-anchor="start" x="537.5" y="-211.5" font-family="Helvetica,sans-Serif" font-size="10.00" fill="#000000">+ togglePlayback()</text>
</a>
</g>
</g>
<!-- Node21&#45;&gt;Node7 -->
<g id="edge15" class="edge">
<title>Node21&#45;&gt;Node7</title>
<path fill="none" stroke="#404040" d="M606,-204.1241C606,-193.2155 606,-181.1799 606,-169.0084"/>
<polygon fill="none" stroke="#404040" points="606.0001,-168.8285 602,-162.8285 606,-156.8285 610,-162.8284 606.0001,-168.8285"/>
<text text-anchor="middle" x="644.5" y="-178" font-family="Helvetica,sans-Serif" font-size="10.00" fill="#000000"> #playerController</text>
</g>
<!-- Node22 -->
<g id="node16" class="node">
<title>Node22</title>
<g id="a_node16"><a xlink:href="classene_1_1controllers_1_1AbstractController.html" target="_top" xlink:title="{ene.controllers.Abstract\lController\&lt; PlayerModel \&gt;\n|# model\l|+ setModel()\l+ getModel()\l}">
<polygon fill="none" stroke="#000000" points="573.5,-332.5 573.5,-411.5 704.5,-411.5 704.5,-332.5 573.5,-332.5"/>
<text text-anchor="start" x="581.5" y="-399.5" font-family="Helvetica,sans-Serif" font-size="10.00" fill="#000000">ene.controllers.Abstract</text>
<text text-anchor="middle" x="639" y="-388.5" font-family="Helvetica,sans-Serif" font-size="10.00" fill="#000000">Controller&lt; PlayerModel &gt;</text>
<polyline fill="none" stroke="#000000" points="573.5,-381.5 704.5,-381.5 "/>
<text text-anchor="start" x="581.5" y="-369.5" font-family="Helvetica,sans-Serif" font-size="10.00" fill="#000000"># model</text>
<polyline fill="none" stroke="#000000" points="573.5,-362.5 704.5,-362.5 "/>
<text text-anchor="start" x="581.5" y="-350.5" font-family="Helvetica,sans-Serif" font-size="10.00" fill="#000000">+ setModel()</text>
<text text-anchor="start" x="581.5" y="-339.5" font-family="Helvetica,sans-Serif" font-size="10.00" fill="#000000">+ getModel()</text>
</a>
</g>
</g>
<!-- Node22&#45;&gt;Node21 -->
<g id="edge16" class="edge">
<title>Node22&#45;&gt;Node21</title>
<path fill="none" stroke="#191970" d="M625.6455,-322.4264C623.1663,-313.2235 620.5888,-303.6555 618.1481,-294.5953"/>
<polygon fill="none" stroke="#191970" points="622.3051,-323.4824 628.2858,-332.2278 629.0641,-321.6616 622.3051,-323.4824"/>
</g>
<!-- Node23&#45;&gt;Node22 -->
<g id="edge17" class="edge">
<title>Node23&#45;&gt;Node22</title>
<path fill="none" stroke="#ffa500" d="M668.4801,-471.8303C662.7196,-452.3232 656.1824,-430.186 650.7302,-411.7228"/>
<polygon fill="#ffa500" stroke="#ffa500" points="665.1354,-472.8626 671.3243,-481.4619 671.8488,-470.8801 665.1354,-472.8626"/>
<text text-anchor="middle" x="696" y="-433" font-family="Helvetica,sans-Serif" font-size="10.00" fill="#000000"> &lt; PlayerModel &gt;</text>
</g>
<!-- Node24 -->
<g id="node18" class="node">
<title>Node24</title>
<g id="a_node18"><a xlink:href="interfaceene_1_1interfaces_1_1Controller.html" target="_top" xlink:title="{ene::interfaces::Controller\l\&lt; ModelType \&gt;\n||+ setModel()\l+ getModel()\l}">
<polygon fill="none" stroke="#000000" points="713.5,-669 713.5,-748 842.5,-748 842.5,-669 713.5,-669"/>
<text text-anchor="start" x="721.5" y="-736" font-family="Helvetica,sans-Serif" font-size="10.00" fill="#000000">ene::interfaces::Controller</text>
<text text-anchor="middle" x="778" y="-725" font-family="Helvetica,sans-Serif" font-size="10.00" fill="#000000">&lt; ModelType &gt;</text>
<polyline fill="none" stroke="#000000" points="713.5,-718 842.5,-718 "/>
<text text-anchor="middle" x="778" y="-706" font-family="Helvetica,sans-Serif" font-size="10.00" fill="#000000"> </text>
<polyline fill="none" stroke="#000000" points="713.5,-699 842.5,-699 "/>
<text text-anchor="start" x="721.5" y="-687" font-family="Helvetica,sans-Serif" font-size="10.00" fill="#000000">+ setModel()</text>
<text text-anchor="start" x="721.5" y="-676" font-family="Helvetica,sans-Serif" font-size="10.00" fill="#000000">+ getModel()</text>
</a>
</g>
</g>
<!-- Node24&#45;&gt;Node23 -->
<g id="edge19" class="edge">
<title>Node24&#45;&gt;Node23</title>
<path fill="none" stroke="#191970" d="M753.1611,-659.4758C737.5687,-628.7014 717.7215,-589.5292 703.118,-560.7066"/>
<polygon fill="none" stroke="#191970" points="750.2111,-661.3976 757.8529,-668.7361 756.4554,-658.2338 750.2111,-661.3976"/>
</g>
<!-- Node25 -->
<g id="node19" class="node">
<title>Node25</title>
<polygon fill="none" stroke="#bfbfbf" points="700.5,-221 700.5,-278 741.5,-278 741.5,-221 700.5,-221"/>
<text text-anchor="middle" x="721" y="-266" font-family="Helvetica,sans-Serif" font-size="10.00" fill="#000000">Timer</text>
<polyline fill="none" stroke="#bfbfbf" points="700.5,-259 741.5,-259 "/>
<text text-anchor="middle" x="721" y="-247" font-family="Helvetica,sans-Serif" font-size="10.00" fill="#000000"> </text>
<polyline fill="none" stroke="#bfbfbf" points="700.5,-240 741.5,-240 "/>
<text text-anchor="middle" x="721" y="-228" font-family="Helvetica,sans-Serif" font-size="10.00" fill="#000000"> </text>
</g>
<!-- Node25&#45;&gt;Node7 -->
<g id="edge21" class="edge">
<title>Node25&#45;&gt;Node7</title>
<path fill="none" stroke="#404040" d="M710.1207,-220.9762C704.1489,-206.6968 696.1089,-189.4256 687,-175 685.2537,-172.2345 683.4351,-169.4628 681.5585,-166.6951"/>
<polygon fill="none" stroke="#404040" points="681.4391,-166.5252 674.7157,-163.9183 674.5362,-156.7094 681.2596,-159.3163 681.4391,-166.5252"/>
<text text-anchor="middle" x="728" y="-178" font-family="Helvetica,sans-Serif" font-size="10.00" fill="#000000"> ~progressTimer</text>
</g>
<!-- Node26 -->
<g id="node20" class="node">
<title>Node26</title>
<polygon fill="none" stroke="#bfbfbf" points="760,-221 760,-278 858,-278 858,-221 760,-221"/>
<text text-anchor="middle" x="809" y="-266" font-family="Helvetica,sans-Serif" font-size="10.00" fill="#000000">SimpleDateFormat</text>
<polyline fill="none" stroke="#bfbfbf" points="760,-259 858,-259 "/>
<text text-anchor="middle" x="809" y="-247" font-family="Helvetica,sans-Serif" font-size="10.00" fill="#000000"> </text>
<polyline fill="none" stroke="#bfbfbf" points="760,-240 858,-240 "/>
<text text-anchor="middle" x="809" y="-228" font-family="Helvetica,sans-Serif" font-size="10.00" fill="#000000"> </text>
</g>
<!-- Node26&#45;&gt;Node7 -->
<g id="edge22" class="edge">
<title>Node26&#45;&gt;Node7</title>
<path fill="none" stroke="#404040" d="M797.5177,-220.6417C790.5771,-205.766 780.6193,-188.0575 768,-175 747.4966,-153.7845 721.3515,-135.5467 696.0781,-120.8194"/>
<polygon fill="none" stroke="#404040" points="695.76,-120.6392 688.5678,-121.162 685.319,-114.7242 692.5112,-114.2014 695.76,-120.6392"/>
<text text-anchor="middle" x="818" y="-178" font-family="Helvetica,sans-Serif" font-size="10.00" fill="#000000"> ~trackTimeFormat</text>
</g>
<!-- Node27 -->
<g id="node21" class="node">
<title>Node27</title>
<polygon fill="none" stroke="#bfbfbf" points="893.5,-221 893.5,-278 938.5,-278 938.5,-221 893.5,-221"/>
<text text-anchor="middle" x="916" y="-266" font-family="Helvetica,sans-Serif" font-size="10.00" fill="#000000">JLabel</text>
<polyline fill="none" stroke="#bfbfbf" points="893.5,-259 938.5,-259 "/>
<text text-anchor="middle" x="916" y="-247" font-family="Helvetica,sans-Serif" font-size="10.00" fill="#000000"> </text>
<polyline fill="none" stroke="#bfbfbf" points="893.5,-240 938.5,-240 "/>
<text text-anchor="middle" x="916" y="-228" font-family="Helvetica,sans-Serif" font-size="10.00" fill="#000000"> </text>
</g>
<!-- Node27&#45;&gt;Node7 -->
<g id="edge23" class="edge">
<title>Node27&#45;&gt;Node7</title>
<path fill="none" stroke="#404040" d="M901.5399,-220.7997C892.5467,-205.4178 879.7044,-187.18 864,-175 815.0789,-137.0578 749.6578,-112.8122 696.9354,-98.1135"/>
<polygon fill="none" stroke="#404040" points="696.7875,-98.0735 689.9512,-100.3683 685.2037,-94.9405 692.0399,-92.6457 696.7875,-98.0735"/>
<text text-anchor="middle" x="909" y="-178" font-family="Helvetica,sans-Serif" font-size="10.00" fill="#000000"> #progressLabel</text>
</g>
</g>
</svg>
