<?xml version="1.0" encoding="UTF-8" standalone="no"?>
<!DOCTYPE svg PUBLIC "-//W3C//DTD SVG 1.1//EN"
 "http://www.w3.org/Graphics/SVG/1.1/DTD/svg11.dtd">
<!-- Generated by graphviz version 2.40.1 (20161225.0304)
 -->
<!-- Title: ene.models.TrackModel Pages: 1 -->
<svg width="260pt" height="474pt"
 viewBox="0.00 0.00 260.00 474.00" xmlns="http://www.w3.org/2000/svg" xmlns:xlink="http://www.w3.org/1999/xlink">
<g id="graph0" class="graph" transform="scale(1 1) rotate(0) translate(4 470)">
<title>ene.models.TrackModel</title>
<!-- Node0 -->
<g id="node1" class="node">
<title>Node0</title>
<polygon fill="#bfbfbf" stroke="#000000" points="70,-.5 70,-211.5 191,-211.5 191,-.5 70,-.5"/>
<text text-anchor="middle" x="130.5" y="-199.5" font-family="Helvetica,sans-Serif" font-size="10.00" fill="#000000">ene.models.TrackModel</text>
<polyline fill="none" stroke="#000000" points="70,-192.5 191,-192.5 "/>
<text text-anchor="start" x="78" y="-180.5" font-family="Helvetica,sans-Serif" font-size="10.00" fill="#000000"># filename</text>
<text text-anchor="start" x="78" y="-169.5" font-family="Helvetica,sans-Serif" font-size="10.00" fill="#000000"># artist</text>
<text text-anchor="start" x="78" y="-158.5" font-family="Helvetica,sans-Serif" font-size="10.00" fill="#000000"># title</text>
<text text-anchor="start" x="78" y="-147.5" font-family="Helvetica,sans-Serif" font-size="10.00" fill="#000000"># genre</text>
<polyline fill="none" stroke="#000000" points="70,-140.5 191,-140.5 "/>
<text text-anchor="start" x="78" y="-128.5" font-family="Helvetica,sans-Serif" font-size="10.00" fill="#000000">+ getFilename()</text>
<text text-anchor="start" x="78" y="-117.5" font-family="Helvetica,sans-Serif" font-size="10.00" fill="#000000">+ setFilename()</text>
<text text-anchor="start" x="78" y="-106.5" font-family="Helvetica,sans-Serif" font-size="10.00" fill="#000000">+ getArtist()</text>
<text text-anchor="start" x="78" y="-95.5" font-family="Helvetica,sans-Serif" font-size="10.00" fill="#000000">+ setArtist()</text>
<text text-anchor="start" x="78" y="-84.5" font-family="Helvetica,sans-Serif" font-size="10.00" fill="#000000">+ getTitle()</text>
<text text-anchor="start" x="78" y="-73.5" font-family="Helvetica,sans-Serif" font-size="10.00" fill="#000000">+ setTitle()</text>
<text text-anchor="start" x="78" y="-62.5" font-family="Helvetica,sans-Serif" font-size="10.00" fill="#000000">+ getGenre()</text>
<text text-anchor="start" x="78" y="-51.5" font-family="Helvetica,sans-Serif" font-size="10.00" fill="#000000">+ setGenre()</text>
<text text-anchor="start" x="78" y="-40.5" font-family="Helvetica,sans-Serif" font-size="10.00" fill="#000000">+ TrackModel()</text>
<text text-anchor="start" x="78" y="-29.5" font-family="Helvetica,sans-Serif" font-size="10.00" fill="#000000">+ toString()</text>
<text text-anchor="start" x="78" y="-18.5" font-family="Helvetica,sans-Serif" font-size="10.00" fill="#000000">+ detectArtist()</text>
<text text-anchor="start" x="78" y="-7.5" font-family="Helvetica,sans-Serif" font-size="10.00" fill="#000000">+ detectTitle()</text>
</g>
<!-- Node1 -->
<g id="node2" class="node">
<title>Node1</title>
<g id="a_node2"><a xlink:href="classene_1_1models_1_1AbstractModel.html" target="_top" xlink:title="{ene.models.AbstractModel\n|# views\l|+ addView()\l# changed()\l}">
<polygon fill="none" stroke="#000000" points="64,-248.5 64,-316.5 197,-316.5 197,-248.5 64,-248.5"/>
<text text-anchor="middle" x="130.5" y="-304.5" font-family="Helvetica,sans-Serif" font-size="10.00" fill="#000000">ene.models.AbstractModel</text>
<polyline fill="none" stroke="#000000" points="64,-297.5 197,-297.5 "/>
<text text-anchor="start" x="72" y="-285.5" font-family="Helvetica,sans-Serif" font-size="10.00" fill="#000000"># views</text>
<polyline fill="none" stroke="#000000" points="64,-278.5 197,-278.5 "/>
<text text-anchor="start" x="72" y="-266.5" font-family="Helvetica,sans-Serif" font-size="10.00" fill="#000000">+ addView()</text>
<text text-anchor="start" x="72" y="-255.5" font-family="Helvetica,sans-Serif" font-size="10.00" fill="#000000"># changed()</text>
</a>
</g>
</g>
<!-- Node1&#45;&gt;Node0 -->
<g id="edge1" class="edge">
<title>Node1&#45;&gt;Node0</title>
<path fill="none" stroke="#191970" d="M130.5,-238.2994C130.5,-229.9456 130.5,-220.8836 130.5,-211.553"/>
<polygon fill="none" stroke="#191970" points="127.0001,-238.469 130.5,-248.469 134.0001,-238.4691 127.0001,-238.469"/>
</g>
<!-- Node2 -->
<g id="node3" class="node">
<title>Node2</title>
<g id="a_node3"><a xlink:href="classene_1_1AbstractObject.html" target="_top" xlink:title="{ene.AbstractObject\n|# debugModeEnabled\l|+ enableDebugMode()\l+ disableDebugMode()\l+ isDebugModeEnabled()\l+ debugInfoAbout()\l+ consoleOutput()\l# delay()\l}">
<polygon fill="none" stroke="#000000" points="0,-353.5 0,-465.5 127,-465.5 127,-353.5 0,-353.5"/>
<text text-anchor="middle" x="63.5" y="-453.5" font-family="Helvetica,sans-Serif" font-size="10.00" fill="#000000">ene.AbstractObject</text>
<polyline fill="none" stroke="#000000" points="0,-446.5 127,-446.5 "/>
<text text-anchor="start" x="8" y="-434.5" font-family="Helvetica,sans-Serif" font-size="10.00" fill="#000000"># debugModeEnabled</text>
<polyline fill="none" stroke="#000000" points="0,-427.5 127,-427.5 "/>
<text text-anchor="start" x="8" y="-415.5" font-family="Helvetica,sans-Serif" font-size="10.00" fill="#000000">+ enableDebugMode()</text>
<text text-anchor="start" x="8" y="-404.5" font-family="Helvetica,sans-Serif" font-size="10.00" fill="#000000">+ disableDebugMode()</text>
<text text-anchor="start" x="8" y="-393.5" font-family="Helvetica,sans-Serif" font-size="10.00" fill="#000000">+ isDebugModeEnabled()</text>
<text text-anchor="start" x="8" y="-382.5" font-family="Helvetica,sans-Serif" font-size="10.00" fill="#000000">+ debugInfoAbout()</text>
<text text-anchor="start" x="8" y="-371.5" font-family="Helvetica,sans-Serif" font-size="10.00" fill="#000000">+ consoleOutput()</text>
<text text-anchor="start" x="8" y="-360.5" font-family="Helvetica,sans-Serif" font-size="10.00" fill="#000000"># delay()</text>
</a>
</g>
</g>
<!-- Node2&#45;&gt;Node1 -->
<g id="edge2" class="edge">
<title>Node2&#45;&gt;Node1</title>
<path fill="none" stroke="#191970" d="M97.8919,-344.3094C102.9153,-334.7875 107.9119,-325.3163 112.4295,-316.753"/>
<polygon fill="none" stroke="#191970" points="94.6527,-342.9485 93.0822,-353.4263 100.844,-346.2148 94.6527,-342.9485"/>
</g>
<!-- Node3 -->
<g id="node4" class="node">
<title>Node3</title>
<g id="a_node4"><a xlink:href="interfaceene_1_1interfaces_1_1Model.html" target="_top" xlink:title="{ene.interfaces.Model\n||+ addView()\l}">
<polygon fill="none" stroke="#000000" points="145,-381 145,-438 252,-438 252,-381 145,-381"/>
<text text-anchor="middle" x="198.5" y="-426" font-family="Helvetica,sans-Serif" font-size="10.00" fill="#000000">ene.interfaces.Model</text>
<polyline fill="none" stroke="#000000" points="145,-419 252,-419 "/>
<text text-anchor="middle" x="198.5" y="-407" font-family="Helvetica,sans-Serif" font-size="10.00" fill="#000000"> </text>
<polyline fill="none" stroke="#000000" points="145,-400 252,-400 "/>
<text text-anchor="start" x="153" y="-388" font-family="Helvetica,sans-Serif" font-size="10.00" fill="#000000">+ addView()</text>
</a>
</g>
</g>
<!-- Node3&#45;&gt;Node1 -->
<g id="edge3" class="edge">
<title>Node3&#45;&gt;Node1</title>
<path fill="none" stroke="#191970" d="M178.5097,-372.1651C169.1272,-354.6419 158.0196,-333.8969 148.8528,-316.7765"/>
<polygon fill="none" stroke="#191970" points="175.4336,-373.835 183.2395,-380.9987 181.6047,-370.5308 175.4336,-373.835"/>
</g>
</g>
</svg>
