<?xml version="1.0" encoding="UTF-8" standalone="no"?>
<!DOCTYPE svg PUBLIC "-//W3C//DTD SVG 1.1//EN"
 "http://www.w3.org/Graphics/SVG/1.1/DTD/svg11.dtd">
<!-- Generated by graphviz version 2.40.1 (20161225.0304)
 -->
<!-- Title: ene.views.gui.WindowView Pages: 1 -->
<svg width="440pt" height="579pt"
 viewBox="0.00 0.00 440.00 579.00" xmlns="http://www.w3.org/2000/svg" xmlns:xlink="http://www.w3.org/1999/xlink">
<g id="graph0" class="graph" transform="scale(1 1) rotate(0) translate(4 575)">
<title>ene.views.gui.WindowView</title>
<!-- Node0 -->
<g id="node1" class="node">
<title>Node0</title>
<polygon fill="#bfbfbf" stroke="#000000" points="218,-.5 218,-90.5 355,-90.5 355,-.5 218,-.5"/>
<text text-anchor="middle" x="286.5" y="-78.5" font-family="Helvetica,sans-Serif" font-size="10.00" fill="#000000">ene.views.gui.WindowView</text>
<polyline fill="none" stroke="#000000" points="218,-71.5 355,-71.5 "/>
<text text-anchor="middle" x="286.5" y="-59.5" font-family="Helvetica,sans-Serif" font-size="10.00" fill="#000000"> </text>
<polyline fill="none" stroke="#000000" points="218,-52.5 355,-52.5 "/>
<text text-anchor="start" x="226" y="-40.5" font-family="Helvetica,sans-Serif" font-size="10.00" fill="#000000">+ setTitle()</text>
<text text-anchor="start" x="226" y="-29.5" font-family="Helvetica,sans-Serif" font-size="10.00" fill="#000000">+ getTitle()</text>
<text text-anchor="start" x="226" y="-18.5" font-family="Helvetica,sans-Serif" font-size="10.00" fill="#000000">+ WindowView()</text>
<text text-anchor="start" x="226" y="-7.5" font-family="Helvetica,sans-Serif" font-size="10.00" fill="#000000">+ render()</text>
</g>
<!-- Node1 -->
<g id="node2" class="node">
<title>Node1</title>
<g id="a_node2"><a xlink:href="classene_1_1views_1_1AbstractMasterView.html" target="_top" xlink:title="{ene::views::AbstractMaster\lView\&lt; JFrame \&gt;\n|# views\l|+ addView()\l+ setAllViews()\l+ getAllViews()\l}">
<polygon fill="none" stroke="#000000" points="218,-127.5 218,-217.5 355,-217.5 355,-127.5 218,-127.5"/>
<text text-anchor="start" x="226" y="-205.5" font-family="Helvetica,sans-Serif" font-size="10.00" fill="#000000">ene::views::AbstractMaster</text>
<text text-anchor="middle" x="286.5" y="-194.5" font-family="Helvetica,sans-Serif" font-size="10.00" fill="#000000">View&lt; JFrame &gt;</text>
<polyline fill="none" stroke="#000000" points="218,-187.5 355,-187.5 "/>
<text text-anchor="start" x="226" y="-175.5" font-family="Helvetica,sans-Serif" font-size="10.00" fill="#000000"># views</text>
<polyline fill="none" stroke="#000000" points="218,-168.5 355,-168.5 "/>
<text text-anchor="start" x="226" y="-156.5" font-family="Helvetica,sans-Serif" font-size="10.00" fill="#000000">+ addView()</text>
<text text-anchor="start" x="226" y="-145.5" font-family="Helvetica,sans-Serif" font-size="10.00" fill="#000000">+ setAllViews()</text>
<text text-anchor="start" x="226" y="-134.5" font-family="Helvetica,sans-Serif" font-size="10.00" fill="#000000">+ getAllViews()</text>
</a>
</g>
</g>
<!-- Node1&#45;&gt;Node0 -->
<g id="edge1" class="edge">
<title>Node1&#45;&gt;Node0</title>
<path fill="none" stroke="#191970" d="M286.5,-117.2012C286.5,-108.4232 286.5,-99.4326 286.5,-90.9156"/>
<polygon fill="none" stroke="#191970" points="283.0001,-117.3669 286.5,-127.367 290.0001,-117.367 283.0001,-117.3669"/>
</g>
<!-- Node2 -->
<g id="node3" class="node">
<title>Node2</title>
<g id="a_node3"><a xlink:href="classene_1_1views_1_1AbstractView.html" target="_top" xlink:title="{ene::views::AbstractView\l\&lt; CoreComponentType \&gt;\n|# title\l# coreComponent\l# layoutPosition\l|+ setTitle()\l+ getTitle()\l+ setCoreComponent()\l+ getCoreComponent()\l+ setLayoutPosition()\l+ getLayoutPosition()\l}">
<polygon fill="none" stroke="#000000" points="146.5,-254.5 146.5,-399.5 274.5,-399.5 274.5,-254.5 146.5,-254.5"/>
<text text-anchor="start" x="154.5" y="-387.5" font-family="Helvetica,sans-Serif" font-size="10.00" fill="#000000">ene::views::AbstractView</text>
<text text-anchor="middle" x="210.5" y="-376.5" font-family="Helvetica,sans-Serif" font-size="10.00" fill="#000000">&lt; CoreComponentType &gt;</text>
<polyline fill="none" stroke="#000000" points="146.5,-369.5 274.5,-369.5 "/>
<text text-anchor="start" x="154.5" y="-357.5" font-family="Helvetica,sans-Serif" font-size="10.00" fill="#000000"># title</text>
<text text-anchor="start" x="154.5" y="-346.5" font-family="Helvetica,sans-Serif" font-size="10.00" fill="#000000"># coreComponent</text>
<text text-anchor="start" x="154.5" y="-335.5" font-family="Helvetica,sans-Serif" font-size="10.00" fill="#000000"># layoutPosition</text>
<polyline fill="none" stroke="#000000" points="146.5,-328.5 274.5,-328.5 "/>
<text text-anchor="start" x="154.5" y="-316.5" font-family="Helvetica,sans-Serif" font-size="10.00" fill="#000000">+ setTitle()</text>
<text text-anchor="start" x="154.5" y="-305.5" font-family="Helvetica,sans-Serif" font-size="10.00" fill="#000000">+ getTitle()</text>
<text text-anchor="start" x="154.5" y="-294.5" font-family="Helvetica,sans-Serif" font-size="10.00" fill="#000000">+ setCoreComponent()</text>
<text text-anchor="start" x="154.5" y="-283.5" font-family="Helvetica,sans-Serif" font-size="10.00" fill="#000000">+ getCoreComponent()</text>
<text text-anchor="start" x="154.5" y="-272.5" font-family="Helvetica,sans-Serif" font-size="10.00" fill="#000000">+ setLayoutPosition()</text>
<text text-anchor="start" x="154.5" y="-261.5" font-family="Helvetica,sans-Serif" font-size="10.00" fill="#000000">+ getLayoutPosition()</text>
</a>
</g>
</g>
<!-- Node2&#45;&gt;Node1 -->
<g id="edge2" class="edge">
<title>Node2&#45;&gt;Node1</title>
<path fill="none" stroke="#191970" d="M250.7547,-245.1664C255.4227,-235.6769 260.0451,-226.28 264.3389,-217.5512"/>
<polygon fill="none" stroke="#191970" points="247.548,-243.756 246.2746,-254.2741 253.8292,-246.8458 247.548,-243.756"/>
</g>
<!-- Node3 -->
<g id="node4" class="node">
<title>Node3</title>
<g id="a_node4"><a xlink:href="classene_1_1AbstractObject.html" target="_top" xlink:title="{ene.AbstractObject\n|# debugModeEnabled\l|+ enableDebugMode()\l+ disableDebugMode()\l+ isDebugModeEnabled()\l+ debugInfoAbout()\l+ consoleOutput()\l# delay()\l}">
<polygon fill="none" stroke="#000000" points="0,-447.5 0,-559.5 127,-559.5 127,-447.5 0,-447.5"/>
<text text-anchor="middle" x="63.5" y="-547.5" font-family="Helvetica,sans-Serif" font-size="10.00" fill="#000000">ene.AbstractObject</text>
<polyline fill="none" stroke="#000000" points="0,-540.5 127,-540.5 "/>
<text text-anchor="start" x="8" y="-528.5" font-family="Helvetica,sans-Serif" font-size="10.00" fill="#000000"># debugModeEnabled</text>
<polyline fill="none" stroke="#000000" points="0,-521.5 127,-521.5 "/>
<text text-anchor="start" x="8" y="-509.5" font-family="Helvetica,sans-Serif" font-size="10.00" fill="#000000">+ enableDebugMode()</text>
<text text-anchor="start" x="8" y="-498.5" font-family="Helvetica,sans-Serif" font-size="10.00" fill="#000000">+ disableDebugMode()</text>
<text text-anchor="start" x="8" y="-487.5" font-family="Helvetica,sans-Serif" font-size="10.00" fill="#000000">+ isDebugModeEnabled()</text>
<text text-anchor="start" x="8" y="-476.5" font-family="Helvetica,sans-Serif" font-size="10.00" fill="#000000">+ debugInfoAbout()</text>
<text text-anchor="start" x="8" y="-465.5" font-family="Helvetica,sans-Serif" font-size="10.00" fill="#000000">+ consoleOutput()</text>
<text text-anchor="start" x="8" y="-454.5" font-family="Helvetica,sans-Serif" font-size="10.00" fill="#000000"># delay()</text>
</a>
</g>
</g>
<!-- Node3&#45;&gt;Node2 -->
<g id="edge3" class="edge">
<title>Node3&#45;&gt;Node2</title>
<path fill="none" stroke="#191970" d="M117.0124,-439.2487C127.7492,-426.3573 139.1018,-412.7264 150.0549,-399.5753"/>
<polygon fill="none" stroke="#191970" points="114.1262,-437.2451 110.4159,-447.169 119.505,-441.7249 114.1262,-437.2451"/>
</g>
<!-- Node4 -->
<g id="node5" class="node">
<title>Node4</title>
<g id="a_node5"><a xlink:href="interfaceene_1_1interfaces_1_1View.html" target="_top" xlink:title="{ene::interfaces::View\l\&lt; CoreComponentType \&gt;\n||+ setTitle()\l+ getTitle()\l+ setCoreComponent()\l+ getCoreComponent()\l+ setLayoutPosition()\l+ getLayoutPosition()\l+ render()\l}">
<polygon fill="none" stroke="#000000" points="297.5,-436.5 297.5,-570.5 425.5,-570.5 425.5,-436.5 297.5,-436.5"/>
<text text-anchor="start" x="305.5" y="-558.5" font-family="Helvetica,sans-Serif" font-size="10.00" fill="#000000">ene::interfaces::View</text>
<text text-anchor="middle" x="361.5" y="-547.5" font-family="Helvetica,sans-Serif" font-size="10.00" fill="#000000">&lt; CoreComponentType &gt;</text>
<polyline fill="none" stroke="#000000" points="297.5,-540.5 425.5,-540.5 "/>
<text text-anchor="middle" x="361.5" y="-528.5" font-family="Helvetica,sans-Serif" font-size="10.00" fill="#000000"> </text>
<polyline fill="none" stroke="#000000" points="297.5,-521.5 425.5,-521.5 "/>
<text text-anchor="start" x="305.5" y="-509.5" font-family="Helvetica,sans-Serif" font-size="10.00" fill="#000000">+ setTitle()</text>
<text text-anchor="start" x="305.5" y="-498.5" font-family="Helvetica,sans-Serif" font-size="10.00" fill="#000000">+ getTitle()</text>
<text text-anchor="start" x="305.5" y="-487.5" font-family="Helvetica,sans-Serif" font-size="10.00" fill="#000000">+ setCoreComponent()</text>
<text text-anchor="start" x="305.5" y="-476.5" font-family="Helvetica,sans-Serif" font-size="10.00" fill="#000000">+ getCoreComponent()</text>
<text text-anchor="start" x="305.5" y="-465.5" font-family="Helvetica,sans-Serif" font-size="10.00" fill="#000000">+ setLayoutPosition()</text>
<text text-anchor="start" x="305.5" y="-454.5" font-family="Helvetica,sans-Serif" font-size="10.00" fill="#000000">+ getLayoutPosition()</text>
<text text-anchor="start" x="305.5" y="-443.5" font-family="Helvetica,sans-Serif" font-size="10.00" fill="#000000">+ render()</text>
</a>
</g>
</g>
<!-- Node4&#45;&gt;Node2 -->
<g id="edge4" class="edge">
<title>Node4&#45;&gt;Node2</title>
<path fill="none" stroke="#191970" d="M297.4404,-428.6224C289.2237,-419.0181 280.822,-409.1976 272.6368,-399.63"/>
<polygon fill="none" stroke="#191970" points="294.8222,-430.9461 303.9826,-436.2694 300.1413,-426.3955 294.8222,-430.9461"/>
</g>
<!-- Node6 -->
<g id="node7" class="node">
<title>Node6</title>
<g id="a_node7"><a xlink:href="interfaceene_1_1interfaces_1_1MasterView.html" target="_top" xlink:title="{ene::interfaces::MasterView\l\&lt; CoreComponentType \&gt;\n||+ addView()\l+ setAllViews()\l+ getAllViews()\l}">
<polygon fill="none" stroke="#000000" points="293,-282 293,-372 432,-372 432,-282 293,-282"/>
<text text-anchor="start" x="301" y="-360" font-family="Helvetica,sans-Serif" font-size="10.00" fill="#000000">ene::interfaces::MasterView</text>
<text text-anchor="middle" x="362.5" y="-349" font-family="Helvetica,sans-Serif" font-size="10.00" fill="#000000">&lt; CoreComponentType &gt;</text>
<polyline fill="none" stroke="#000000" points="293,-342 432,-342 "/>
<text text-anchor="middle" x="362.5" y="-330" font-family="Helvetica,sans-Serif" font-size="10.00" fill="#000000"> </text>
<polyline fill="none" stroke="#000000" points="293,-323 432,-323 "/>
<text text-anchor="start" x="301" y="-311" font-family="Helvetica,sans-Serif" font-size="10.00" fill="#000000">+ addView()</text>
<text text-anchor="start" x="301" y="-300" font-family="Helvetica,sans-Serif" font-size="10.00" fill="#000000">+ setAllViews()</text>
<text text-anchor="start" x="301" y="-289" font-family="Helvetica,sans-Serif" font-size="10.00" fill="#000000">+ getAllViews()</text>
</a>
</g>
</g>
<!-- Node4&#45;&gt;Node6 -->
<g id="edge7" class="edge">
<title>Node4&#45;&gt;Node6</title>
<path fill="none" stroke="#191970" d="M361.9384,-426.1153C362.0429,-407.6813 362.151,-388.6051 362.2441,-372.1703"/>
<polygon fill="none" stroke="#191970" points="358.4377,-426.2497 361.8809,-436.2694 365.4376,-426.2894 358.4377,-426.2497"/>
</g>
<!-- Node5 -->
<g id="node6" class="node">
<title>Node5</title>
<g id="a_node6"><a xlink:href="interfaceene_1_1interfaces_1_1Localization.html" target="_top" xlink:title="{ene.interfaces.Localization\n|+ DEFAULT_LOCALE\l|+ getString()\l}">
<polygon fill="none" stroke="#000000" points="145,-475 145,-532 278,-532 278,-475 145,-475"/>
<text text-anchor="middle" x="211.5" y="-520" font-family="Helvetica,sans-Serif" font-size="10.00" fill="#000000">ene.interfaces.Localization</text>
<polyline fill="none" stroke="#000000" points="145,-513 278,-513 "/>
<text text-anchor="start" x="153" y="-501" font-family="Helvetica,sans-Serif" font-size="10.00" fill="#000000">+ DEFAULT_LOCALE</text>
<polyline fill="none" stroke="#000000" points="145,-494 278,-494 "/>
<text text-anchor="start" x="153" y="-482" font-family="Helvetica,sans-Serif" font-size="10.00" fill="#000000">+ getString()</text>
</a>
</g>
</g>
<!-- Node5&#45;&gt;Node2 -->
<g id="edge5" class="edge">
<title>Node5&#45;&gt;Node2</title>
<path fill="none" stroke="#191970" d="M211.2798,-464.6349C211.1715,-445.5163 211.0373,-421.8371 210.911,-399.5404"/>
<polygon fill="none" stroke="#191970" points="207.7804,-464.7694 211.3371,-474.7494 214.7803,-464.7297 207.7804,-464.7694"/>
</g>
<!-- Node6&#45;&gt;Node1 -->
<g id="edge6" class="edge">
<title>Node6&#45;&gt;Node1</title>
<path fill="none" stroke="#191970" d="M335.7797,-272.6804C326.9316,-254.6932 317.1863,-234.8821 308.7142,-217.6592"/>
<polygon fill="none" stroke="#191970" points="332.7587,-274.4686 340.3133,-281.8969 339.0399,-271.3788 332.7587,-274.4686"/>
</g>
</g>
</svg>
