<?xml version="1.0" encoding="UTF-8" standalone="no"?>
<!DOCTYPE svg PUBLIC "-//W3C//DTD SVG 1.1//EN"
 "http://www.w3.org/Graphics/SVG/1.1/DTD/svg11.dtd">
<!-- Generated by graphviz version 2.40.1 (20161225.0304)
 -->
<!-- Title: ene.views.AbstractMasterView.addView Pages: 1 -->
<svg width="318pt" height="88pt"
 viewBox="0.00 0.00 318.00 88.00" xmlns="http://www.w3.org/2000/svg" xmlns:xlink="http://www.w3.org/1999/xlink">
<g id="graph0" class="graph" transform="scale(1 1) rotate(0) translate(4 84)">
<title>ene.views.AbstractMasterView.addView</title>
<!-- Node1 -->
<g id="node1" class="node">
<title>Node1</title>
<polygon fill="#bfbfbf" stroke="#000000" points="0,-24.5 0,-54.5 131,-54.5 131,-24.5 0,-24.5"/>
<text text-anchor="start" x="8" y="-42.5" font-family="Helvetica,sans-Serif" font-size="10.00" fill="#000000">ene.views.AbstractMaster</text>
<text text-anchor="middle" x="65.5" y="-31.5" font-family="Helvetica,sans-Serif" font-size="10.00" fill="#000000">View.addView</text>
</g>
<!-- Node2 -->
<g id="node2" class="node">
<title>Node2</title>
<g id="a_node2"><a xlink:href="classene_1_1views_1_1gui_1_1partial_1_1ContentView.html#a50540950a28b015026c3361226a66c40" target="_top" xlink:title="ene.views.gui.partial.Content\lView.ContentView">
<polygon fill="none" stroke="#000000" points="167,-49.5 167,-79.5 310,-79.5 310,-49.5 167,-49.5"/>
<text text-anchor="start" x="175" y="-67.5" font-family="Helvetica,sans-Serif" font-size="10.00" fill="#000000">ene.views.gui.partial.Content</text>
<text text-anchor="middle" x="238.5" y="-56.5" font-family="Helvetica,sans-Serif" font-size="10.00" fill="#000000">View.ContentView</text>
</a>
</g>
</g>
<!-- Node1&#45;&gt;Node2 -->
<g id="edge1" class="edge">
<title>Node1&#45;&gt;Node2</title>
<path fill="none" stroke="#191970" d="M141.5259,-50.4864C149.9011,-51.6967 158.4093,-52.9262 166.7302,-54.1286"/>
<polygon fill="#191970" stroke="#191970" points="141.7952,-46.989 131.3974,-49.0227 140.794,-53.9171 141.7952,-46.989"/>
</g>
<!-- Node3 -->
<g id="node3" class="node">
<title>Node3</title>
<g id="a_node3"><a xlink:href="classene_1_1views_1_1gui_1_1WindowView.html#ae5b8fe5e46eaca32f8aba4a684a586b5" target="_top" xlink:title="ene.views.gui.WindowView.\lWindowView">
<polygon fill="none" stroke="#000000" points="168.5,-.5 168.5,-30.5 308.5,-30.5 308.5,-.5 168.5,-.5"/>
<text text-anchor="start" x="176.5" y="-18.5" font-family="Helvetica,sans-Serif" font-size="10.00" fill="#000000">ene.views.gui.WindowView.</text>
<text text-anchor="middle" x="238.5" y="-7.5" font-family="Helvetica,sans-Serif" font-size="10.00" fill="#000000">WindowView</text>
</a>
</g>
</g>
<!-- Node1&#45;&gt;Node3 -->
<g id="edge2" class="edge">
<title>Node1&#45;&gt;Node3</title>
<path fill="none" stroke="#191970" d="M141.4529,-28.9632C150.4358,-27.717 159.5727,-26.4494 168.4684,-25.2154"/>
<polygon fill="#191970" stroke="#191970" points="140.8216,-25.5172 131.3974,-30.3582 141.7835,-32.4508 140.8216,-25.5172"/>
</g>
</g>
</svg>
