<?xml version="1.0" encoding="UTF-8" standalone="no"?>
<!DOCTYPE svg PUBLIC "-//W3C//DTD SVG 1.1//EN"
 "http://www.w3.org/Graphics/SVG/1.1/DTD/svg11.dtd">
<!-- Generated by graphviz version 2.40.1 (20161225.0304)
 -->
<!-- Title: ene.models.PlayerModel Pages: 1 -->
<svg width="705pt" height="1086pt"
 viewBox="0.00 0.00 705.00 1086.00" xmlns="http://www.w3.org/2000/svg" xmlns:xlink="http://www.w3.org/1999/xlink">
<g id="graph0" class="graph" transform="scale(1 1) rotate(0) translate(4 1082)">
<title>ene.models.PlayerModel</title>
<!-- Node5 -->
<g id="node1" class="node">
<title>Node5</title>
<polygon fill="#bfbfbf" stroke="#000000" points="311,-.5 311,-244.5 435,-244.5 435,-.5 311,-.5"/>
<text text-anchor="middle" x="373" y="-232.5" font-family="Helvetica,sans-Serif" font-size="10.00" fill="#000000">ene.models.PlayerModel</text>
<polyline fill="none" stroke="#000000" points="311,-225.5 435,-225.5 "/>
<text text-anchor="middle" x="373" y="-213.5" font-family="Helvetica,sans-Serif" font-size="10.00" fill="#000000"> </text>
<polyline fill="none" stroke="#000000" points="311,-206.5 435,-206.5 "/>
<text text-anchor="start" x="319" y="-194.5" font-family="Helvetica,sans-Serif" font-size="10.00" fill="#000000">+ getCurrentTrack()</text>
<text text-anchor="start" x="319" y="-183.5" font-family="Helvetica,sans-Serif" font-size="10.00" fill="#000000">+ getPlaylist()</text>
<text text-anchor="start" x="319" y="-172.5" font-family="Helvetica,sans-Serif" font-size="10.00" fill="#000000">+ getClip()</text>
<text text-anchor="start" x="319" y="-161.5" font-family="Helvetica,sans-Serif" font-size="10.00" fill="#000000">+ getLastEvent()</text>
<text text-anchor="start" x="319" y="-150.5" font-family="Helvetica,sans-Serif" font-size="10.00" fill="#000000">+ getTrackLength()</text>
<text text-anchor="start" x="319" y="-139.5" font-family="Helvetica,sans-Serif" font-size="10.00" fill="#000000">+ setTrackPosition()</text>
<text text-anchor="start" x="319" y="-128.5" font-family="Helvetica,sans-Serif" font-size="10.00" fill="#000000">+ getTrackPosition()</text>
<text text-anchor="start" x="319" y="-117.5" font-family="Helvetica,sans-Serif" font-size="10.00" fill="#000000">+ loadPlaylist()</text>
<text text-anchor="start" x="319" y="-106.5" font-family="Helvetica,sans-Serif" font-size="10.00" fill="#000000">+ load()</text>
<text text-anchor="start" x="319" y="-95.5" font-family="Helvetica,sans-Serif" font-size="10.00" fill="#000000">+ start()</text>
<text text-anchor="start" x="319" y="-84.5" font-family="Helvetica,sans-Serif" font-size="10.00" fill="#000000">+ previous()</text>
<text text-anchor="start" x="319" y="-73.5" font-family="Helvetica,sans-Serif" font-size="10.00" fill="#000000">+ next()</text>
<text text-anchor="start" x="319" y="-62.5" font-family="Helvetica,sans-Serif" font-size="10.00" fill="#000000">+ pause()</text>
<text text-anchor="start" x="319" y="-51.5" font-family="Helvetica,sans-Serif" font-size="10.00" fill="#000000">+ update()</text>
<text text-anchor="start" x="319" y="-40.5" font-family="Helvetica,sans-Serif" font-size="10.00" fill="#000000"># setCurrentTrack()</text>
<text text-anchor="start" x="319" y="-29.5" font-family="Helvetica,sans-Serif" font-size="10.00" fill="#000000"># setPlaylist()</text>
<text text-anchor="start" x="319" y="-18.5" font-family="Helvetica,sans-Serif" font-size="10.00" fill="#000000"># setClip()</text>
<text text-anchor="start" x="319" y="-7.5" font-family="Helvetica,sans-Serif" font-size="10.00" fill="#000000"># setLastEvent()</text>
</g>
<!-- Node6 -->
<g id="node2" class="node">
<title>Node6</title>
<g id="a_node2"><a xlink:href="classene_1_1models_1_1AbstractModel.html" target="_top" xlink:title="{ene.models.AbstractModel\n||+ addView()\l# changed()\l}">
<polygon fill="none" stroke="#000000" points="184.5,-722.5 184.5,-790.5 317.5,-790.5 317.5,-722.5 184.5,-722.5"/>
<text text-anchor="middle" x="251" y="-778.5" font-family="Helvetica,sans-Serif" font-size="10.00" fill="#000000">ene.models.AbstractModel</text>
<polyline fill="none" stroke="#000000" points="184.5,-771.5 317.5,-771.5 "/>
<text text-anchor="middle" x="251" y="-759.5" font-family="Helvetica,sans-Serif" font-size="10.00" fill="#000000"> </text>
<polyline fill="none" stroke="#000000" points="184.5,-752.5 317.5,-752.5 "/>
<text text-anchor="start" x="192.5" y="-740.5" font-family="Helvetica,sans-Serif" font-size="10.00" fill="#000000">+ addView()</text>
<text text-anchor="start" x="192.5" y="-729.5" font-family="Helvetica,sans-Serif" font-size="10.00" fill="#000000"># changed()</text>
</a>
</g>
</g>
<!-- Node6&#45;&gt;Node5 -->
<g id="edge1" class="edge">
<title>Node6&#45;&gt;Node5</title>
<path fill="none" stroke="#191970" d="M237.5532,-712.692C214.0043,-628.2112 172.7105,-438.2136 227,-292 243.8988,-246.4878 279.104,-205.0092 310.7092,-174.476"/>
<polygon fill="none" stroke="#191970" points="234.2291,-713.7991 240.3294,-722.4614 240.9625,-711.8855 234.2291,-713.7991"/>
</g>
<!-- Node15 -->
<g id="node11" class="node">
<title>Node15</title>
<g id="a_node11"><a xlink:href="classene_1_1models_1_1TrackModel.html" target="_top" xlink:title="{ene.models.TrackModel\n||+ getFilename()\l+ setFilename()\l+ getArtist()\l+ setArtist()\l+ getTitle()\l+ setTitle()\l+ getGenre()\l+ setGenre()\l+ TrackModel()\l+ toString()\l+ detectArtist()\l+ detectTitle()\l# cutFilenameFromPath()\l}">
<polygon fill="none" stroke="#000000" points="495.5,-452.5 495.5,-641.5 622.5,-641.5 622.5,-452.5 495.5,-452.5"/>
<text text-anchor="middle" x="559" y="-629.5" font-family="Helvetica,sans-Serif" font-size="10.00" fill="#000000">ene.models.TrackModel</text>
<polyline fill="none" stroke="#000000" points="495.5,-622.5 622.5,-622.5 "/>
<text text-anchor="middle" x="559" y="-610.5" font-family="Helvetica,sans-Serif" font-size="10.00" fill="#000000"> </text>
<polyline fill="none" stroke="#000000" points="495.5,-603.5 622.5,-603.5 "/>
<text text-anchor="start" x="503.5" y="-591.5" font-family="Helvetica,sans-Serif" font-size="10.00" fill="#000000">+ getFilename()</text>
<text text-anchor="start" x="503.5" y="-580.5" font-family="Helvetica,sans-Serif" font-size="10.00" fill="#000000">+ setFilename()</text>
<text text-anchor="start" x="503.5" y="-569.5" font-family="Helvetica,sans-Serif" font-size="10.00" fill="#000000">+ getArtist()</text>
<text text-anchor="start" x="503.5" y="-558.5" font-family="Helvetica,sans-Serif" font-size="10.00" fill="#000000">+ setArtist()</text>
<text text-anchor="start" x="503.5" y="-547.5" font-family="Helvetica,sans-Serif" font-size="10.00" fill="#000000">+ getTitle()</text>
<text text-anchor="start" x="503.5" y="-536.5" font-family="Helvetica,sans-Serif" font-size="10.00" fill="#000000">+ setTitle()</text>
<text text-anchor="start" x="503.5" y="-525.5" font-family="Helvetica,sans-Serif" font-size="10.00" fill="#000000">+ getGenre()</text>
<text text-anchor="start" x="503.5" y="-514.5" font-family="Helvetica,sans-Serif" font-size="10.00" fill="#000000">+ setGenre()</text>
<text text-anchor="start" x="503.5" y="-503.5" font-family="Helvetica,sans-Serif" font-size="10.00" fill="#000000">+ TrackModel()</text>
<text text-anchor="start" x="503.5" y="-492.5" font-family="Helvetica,sans-Serif" font-size="10.00" fill="#000000">+ toString()</text>
<text text-anchor="start" x="503.5" y="-481.5" font-family="Helvetica,sans-Serif" font-size="10.00" fill="#000000">+ detectArtist()</text>
<text text-anchor="start" x="503.5" y="-470.5" font-family="Helvetica,sans-Serif" font-size="10.00" fill="#000000">+ detectTitle()</text>
<text text-anchor="start" x="503.5" y="-459.5" font-family="Helvetica,sans-Serif" font-size="10.00" fill="#000000"># cutFilenameFromPath()</text>
</a>
</g>
</g>
<!-- Node6&#45;&gt;Node15 -->
<g id="edge11" class="edge">
<title>Node6&#45;&gt;Node15</title>
<path fill="none" stroke="#191970" d="M298.3204,-716.1365C323.9158,-696.3247 356.9844,-673.8073 390,-660 430.049,-643.2513 449.0026,-664.7077 486,-642 489.1909,-640.0415 492.294,-637.8888 495.3059,-635.5788"/>
<polygon fill="none" stroke="#191970" points="295.9782,-713.5258 290.2823,-722.4593 300.306,-719.0276 295.9782,-713.5258"/>
</g>
<!-- Node18 -->
<g id="node14" class="node">
<title>Node18</title>
<g id="a_node14"><a xlink:href="classene_1_1models_1_1TrackListModel.html" target="_top" xlink:title="{ene.models.TrackListModel\n||+ add()\l+ remove()\l+ get()\l+ has()\l+ getAll()\l}">
<polygon fill="none" stroke="#000000" points="283.5,-496.5 283.5,-597.5 420.5,-597.5 420.5,-496.5 283.5,-496.5"/>
<text text-anchor="middle" x="352" y="-585.5" font-family="Helvetica,sans-Serif" font-size="10.00" fill="#000000">ene.models.TrackListModel</text>
<polyline fill="none" stroke="#000000" points="283.5,-578.5 420.5,-578.5 "/>
<text text-anchor="middle" x="352" y="-566.5" font-family="Helvetica,sans-Serif" font-size="10.00" fill="#000000"> </text>
<polyline fill="none" stroke="#000000" points="283.5,-559.5 420.5,-559.5 "/>
<text text-anchor="start" x="291.5" y="-547.5" font-family="Helvetica,sans-Serif" font-size="10.00" fill="#000000">+ add()</text>
<text text-anchor="start" x="291.5" y="-536.5" font-family="Helvetica,sans-Serif" font-size="10.00" fill="#000000">+ remove()</text>
<text text-anchor="start" x="291.5" y="-525.5" font-family="Helvetica,sans-Serif" font-size="10.00" fill="#000000">+ get()</text>
<text text-anchor="start" x="291.5" y="-514.5" font-family="Helvetica,sans-Serif" font-size="10.00" fill="#000000">+ has()</text>
<text text-anchor="start" x="291.5" y="-503.5" font-family="Helvetica,sans-Serif" font-size="10.00" fill="#000000">+ getAll()</text>
</a>
</g>
</g>
<!-- Node6&#45;&gt;Node18 -->
<g id="edge15" class="edge">
<title>Node6&#45;&gt;Node18</title>
<path fill="none" stroke="#191970" d="M271.8472,-713.2575C288.0578,-679.6325 310.5811,-632.9134 327.6252,-597.5597"/>
<polygon fill="none" stroke="#191970" points="268.6422,-711.8461 267.4522,-722.3739 274.9477,-714.886 268.6422,-711.8461"/>
</g>
<!-- Node7 -->
<g id="node3" class="node">
<title>Node7</title>
<g id="a_node3"><a xlink:href="classene_1_1AbstractObject.html" target="_top" xlink:title="{ene.AbstractObject\n||+ enableDebugMode()\l+ disableDebugMode()\l+ isDebugModeEnabled()\l+ debugInfoAbout()\l+ consoleOutput()\l# delay()\l}">
<polygon fill="none" stroke="#000000" points="152.5,-849.5 152.5,-961.5 279.5,-961.5 279.5,-849.5 152.5,-849.5"/>
<text text-anchor="middle" x="216" y="-949.5" font-family="Helvetica,sans-Serif" font-size="10.00" fill="#000000">ene.AbstractObject</text>
<polyline fill="none" stroke="#000000" points="152.5,-942.5 279.5,-942.5 "/>
<text text-anchor="middle" x="216" y="-930.5" font-family="Helvetica,sans-Serif" font-size="10.00" fill="#000000"> </text>
<polyline fill="none" stroke="#000000" points="152.5,-923.5 279.5,-923.5 "/>
<text text-anchor="start" x="160.5" y="-911.5" font-family="Helvetica,sans-Serif" font-size="10.00" fill="#000000">+ enableDebugMode()</text>
<text text-anchor="start" x="160.5" y="-900.5" font-family="Helvetica,sans-Serif" font-size="10.00" fill="#000000">+ disableDebugMode()</text>
<text text-anchor="start" x="160.5" y="-889.5" font-family="Helvetica,sans-Serif" font-size="10.00" fill="#000000">+ isDebugModeEnabled()</text>
<text text-anchor="start" x="160.5" y="-878.5" font-family="Helvetica,sans-Serif" font-size="10.00" fill="#000000">+ debugInfoAbout()</text>
<text text-anchor="start" x="160.5" y="-867.5" font-family="Helvetica,sans-Serif" font-size="10.00" fill="#000000">+ consoleOutput()</text>
<text text-anchor="start" x="160.5" y="-856.5" font-family="Helvetica,sans-Serif" font-size="10.00" fill="#000000"># delay()</text>
</a>
</g>
</g>
<!-- Node7&#45;&gt;Node6 -->
<g id="edge2" class="edge">
<title>Node7&#45;&gt;Node6</title>
<path fill="none" stroke="#191970" d="M231.5274,-839.3974C235.4629,-822.6436 239.5332,-805.3159 242.9284,-790.8619"/>
<polygon fill="none" stroke="#191970" points="228.1116,-838.6341 229.232,-849.1695 234.9261,-840.2348 228.1116,-838.6341"/>
</g>
<!-- Node8 -->
<g id="node4" class="node">
<title>Node8</title>
<polygon fill="none" stroke="#bfbfbf" points="177.5,-1020.5 177.5,-1077.5 254.5,-1077.5 254.5,-1020.5 177.5,-1020.5"/>
<text text-anchor="middle" x="216" y="-1065.5" font-family="Helvetica,sans-Serif" font-size="10.00" fill="#000000">static boolean</text>
<polyline fill="none" stroke="#bfbfbf" points="177.5,-1058.5 254.5,-1058.5 "/>
<text text-anchor="middle" x="216" y="-1046.5" font-family="Helvetica,sans-Serif" font-size="10.00" fill="#000000"> </text>
<polyline fill="none" stroke="#bfbfbf" points="177.5,-1039.5 254.5,-1039.5 "/>
<text text-anchor="middle" x="216" y="-1027.5" font-family="Helvetica,sans-Serif" font-size="10.00" fill="#000000"> </text>
</g>
<!-- Node8&#45;&gt;Node7 -->
<g id="edge3" class="edge">
<title>Node8&#45;&gt;Node7</title>
<path fill="none" stroke="#404040" d="M216,-1020.3055C216,-1006.9442 216,-990.4218 216,-974.1157"/>
<polygon fill="none" stroke="#404040" points="216.0001,-973.7445 212,-967.7445 216,-961.7445 220,-967.7444 216.0001,-973.7445"/>
<text text-anchor="middle" x="263" y="-988.5" font-family="Helvetica,sans-Serif" font-size="10.00" fill="#000000"> #debugModeEnabled</text>
</g>
<!-- Node9 -->
<g id="node5" class="node">
<title>Node9</title>
<g id="a_node5"><a xlink:href="interfaceene_1_1interfaces_1_1Model.html" target="_top" xlink:title="{ene.interfaces.Model\n||+ addView()\l}">
<polygon fill="none" stroke="#000000" points="297.5,-877 297.5,-934 404.5,-934 404.5,-877 297.5,-877"/>
<text text-anchor="middle" x="351" y="-922" font-family="Helvetica,sans-Serif" font-size="10.00" fill="#000000">ene.interfaces.Model</text>
<polyline fill="none" stroke="#000000" points="297.5,-915 404.5,-915 "/>
<text text-anchor="middle" x="351" y="-903" font-family="Helvetica,sans-Serif" font-size="10.00" fill="#000000"> </text>
<polyline fill="none" stroke="#000000" points="297.5,-896 404.5,-896 "/>
<text text-anchor="start" x="305.5" y="-884" font-family="Helvetica,sans-Serif" font-size="10.00" fill="#000000">+ addView()</text>
</a>
</g>
</g>
<!-- Node9&#45;&gt;Node6 -->
<g id="edge4" class="edge">
<title>Node9&#45;&gt;Node6</title>
<path fill="none" stroke="#191970" d="M326.0555,-868.3328C310.069,-844.5128 289.4741,-813.8263 273.9028,-790.6252"/>
<polygon fill="none" stroke="#191970" points="323.2401,-870.4184 331.719,-876.7713 329.0524,-866.5175 323.2401,-870.4184"/>
</g>
<!-- Node10 -->
<g id="node6" class="node">
<title>Node10</title>
<polygon fill="none" stroke="#bfbfbf" points="0,-871.5 0,-939.5 134,-939.5 134,-871.5 0,-871.5"/>
<text text-anchor="start" x="8" y="-927.5" font-family="Helvetica,sans-Serif" font-size="10.00" fill="#000000">List&lt; ene.interfaces.Partial</text>
<text text-anchor="middle" x="67" y="-916.5" font-family="Helvetica,sans-Serif" font-size="10.00" fill="#000000">View&lt;?, ?&gt; &gt;</text>
<polyline fill="none" stroke="#bfbfbf" points="0,-909.5 134,-909.5 "/>
<text text-anchor="middle" x="67" y="-897.5" font-family="Helvetica,sans-Serif" font-size="10.00" fill="#000000"> </text>
<polyline fill="none" stroke="#bfbfbf" points="0,-890.5 134,-890.5 "/>
<text text-anchor="middle" x="67" y="-878.5" font-family="Helvetica,sans-Serif" font-size="10.00" fill="#000000"> </text>
</g>
<!-- Node10&#45;&gt;Node6 -->
<g id="edge5" class="edge">
<title>Node10&#45;&gt;Node6</title>
<path fill="none" stroke="#404040" d="M109.2133,-871.3164C136.0947,-849.5483 171.0912,-821.2088 199.5889,-798.1318"/>
<polygon fill="none" stroke="#404040" points="199.6573,-798.0764 201.8029,-791.1919 208.9831,-790.5245 206.8375,-797.4091 199.6573,-798.0764"/>
<text text-anchor="middle" x="198" y="-817.5" font-family="Helvetica,sans-Serif" font-size="10.00" fill="#000000"> #views</text>
</g>
<!-- Node11 -->
<g id="node7" class="node">
<title>Node11</title>
<polygon fill="none" stroke="#bfbfbf" points="51,-1020.5 51,-1077.5 83,-1077.5 83,-1020.5 51,-1020.5"/>
<text text-anchor="middle" x="67" y="-1065.5" font-family="Helvetica,sans-Serif" font-size="10.00" fill="#000000">List</text>
<polyline fill="none" stroke="#bfbfbf" points="51,-1058.5 83,-1058.5 "/>
<text text-anchor="middle" x="67" y="-1046.5" font-family="Helvetica,sans-Serif" font-size="10.00" fill="#000000"> </text>
<polyline fill="none" stroke="#bfbfbf" points="51,-1039.5 83,-1039.5 "/>
<text text-anchor="middle" x="67" y="-1027.5" font-family="Helvetica,sans-Serif" font-size="10.00" fill="#000000"> </text>
</g>
<!-- Node11&#45;&gt;Node10 -->
<g id="edge6" class="edge">
<title>Node11&#45;&gt;Node10</title>
<path fill="none" stroke="#ffa500" d="M67,-1010.2878C67,-988.2661 67,-960.9324 67,-939.7037"/>
<polygon fill="#ffa500" stroke="#ffa500" points="63.5001,-1010.3055 67,-1020.3055 70.5001,-1010.3056 63.5001,-1010.3055"/>
<text text-anchor="start" x="67" y="-994" font-family="Helvetica,sans-Serif" font-size="10.00" fill="#000000"> &lt; ene::interfaces::</text>
<text text-anchor="middle" x="111" y="-983" font-family="Helvetica,sans-Serif" font-size="10.00" fill="#000000">PartialView&lt;?, ?&gt; &gt;</text>
</g>
<!-- Node12 -->
<g id="node8" class="node">
<title>Node12</title>
<polygon fill="none" stroke="#bfbfbf" points="236.5,-320 236.5,-377 305.5,-377 305.5,-320 236.5,-320"/>
<text text-anchor="middle" x="271" y="-365" font-family="Helvetica,sans-Serif" font-size="10.00" fill="#000000">LineListener</text>
<polyline fill="none" stroke="#bfbfbf" points="236.5,-358 305.5,-358 "/>
<text text-anchor="middle" x="271" y="-346" font-family="Helvetica,sans-Serif" font-size="10.00" fill="#000000"> </text>
<polyline fill="none" stroke="#bfbfbf" points="236.5,-339 305.5,-339 "/>
<text text-anchor="middle" x="271" y="-327" font-family="Helvetica,sans-Serif" font-size="10.00" fill="#000000"> </text>
</g>
<!-- Node12&#45;&gt;Node5 -->
<g id="edge7" class="edge">
<title>Node12&#45;&gt;Node5</title>
<path fill="none" stroke="#191970" d="M288.0814,-310.6529C296.4511,-292.1084 307.0503,-268.6239 317.8986,-244.5875"/>
<polygon fill="none" stroke="#191970" points="284.842,-309.3224 283.9184,-319.8769 291.2223,-312.2021 284.842,-309.3224"/>
</g>
<!-- Node13 -->
<g id="node9" class="node">
<title>Node13</title>
<polygon fill="none" stroke="#bfbfbf" points="324,-320 324,-377 358,-377 358,-320 324,-320"/>
<text text-anchor="middle" x="341" y="-365" font-family="Helvetica,sans-Serif" font-size="10.00" fill="#000000">Clip</text>
<polyline fill="none" stroke="#bfbfbf" points="324,-358 358,-358 "/>
<text text-anchor="middle" x="341" y="-346" font-family="Helvetica,sans-Serif" font-size="10.00" fill="#000000"> </text>
<polyline fill="none" stroke="#bfbfbf" points="324,-339 358,-339 "/>
<text text-anchor="middle" x="341" y="-327" font-family="Helvetica,sans-Serif" font-size="10.00" fill="#000000"> </text>
</g>
<!-- Node13&#45;&gt;Node5 -->
<g id="edge8" class="edge">
<title>Node13&#45;&gt;Node5</title>
<path fill="none" stroke="#404040" d="M345.0528,-319.8769C347.4267,-303.1114 350.6158,-280.5885 353.9901,-256.7571"/>
<polygon fill="none" stroke="#404040" points="354.0309,-256.469 350.9116,-249.9675 355.7133,-244.5875 358.8326,-251.0891 354.0309,-256.469"/>
<text text-anchor="middle" x="364.5" y="-266" font-family="Helvetica,sans-Serif" font-size="10.00" fill="#000000"> ~clip</text>
</g>
<!-- Node14 -->
<g id="node10" class="node">
<title>Node14</title>
<polygon fill="none" stroke="#bfbfbf" points="376,-320 376,-377 436,-377 436,-320 376,-320"/>
<text text-anchor="middle" x="406" y="-365" font-family="Helvetica,sans-Serif" font-size="10.00" fill="#000000">LineEvent</text>
<polyline fill="none" stroke="#bfbfbf" points="376,-358 436,-358 "/>
<text text-anchor="middle" x="406" y="-346" font-family="Helvetica,sans-Serif" font-size="10.00" fill="#000000"> </text>
<polyline fill="none" stroke="#bfbfbf" points="376,-339 436,-339 "/>
<text text-anchor="middle" x="406" y="-327" font-family="Helvetica,sans-Serif" font-size="10.00" fill="#000000"> </text>
</g>
<!-- Node14&#45;&gt;Node5 -->
<g id="edge9" class="edge">
<title>Node14&#45;&gt;Node5</title>
<path fill="none" stroke="#404040" d="M401.8205,-319.8769C399.3725,-303.1114 396.0837,-280.5885 392.6039,-256.7571"/>
<polygon fill="none" stroke="#404040" points="392.5608,-256.4616 387.7359,-251.1025 390.8269,-244.5875 395.6519,-249.9466 392.5608,-256.4616"/>
<text text-anchor="middle" x="419.5" y="-266" font-family="Helvetica,sans-Serif" font-size="10.00" fill="#000000"> ~lastEvent</text>
</g>
<!-- Node15&#45;&gt;Node5 -->
<g id="edge10" class="edge">
<title>Node15&#45;&gt;Node5</title>
<path fill="none" stroke="#404040" d="M597.7894,-452.458C599.4479,-446.2772 600.8804,-440.0901 602,-434 610.2918,-388.8953 675.0201,-446.9588 591,-292 558.6792,-232.3906 495.5274,-186.9088 445.4788,-158.1397"/>
<polygon fill="none" stroke="#404040" points="445.4735,-158.1368 438.2831,-158.6826 435.0136,-152.2553 442.2041,-151.7094 445.4735,-158.1368"/>
<text text-anchor="middle" x="665" y="-346" font-family="Helvetica,sans-Serif" font-size="10.00" fill="#000000"> ~currentTrack</text>
</g>
<!-- Node17 -->
<g id="node13" class="node">
<title>Node17</title>
<g id="a_node13"><a xlink:href="classene_1_1models_1_1PlaylistModel.html" target="_top" xlink:title="{ene.models.PlaylistModel\n||+ getLastAccess()\l+ setCurrentTrack()\l+ getCurrentTrack()\l+ previousTrack()\l+ nextTrack()\l# updateLastAccess()\l}">
<polygon fill="none" stroke="#000000" points="454,-292.5 454,-404.5 582,-404.5 582,-292.5 454,-292.5"/>
<text text-anchor="middle" x="518" y="-392.5" font-family="Helvetica,sans-Serif" font-size="10.00" fill="#000000">ene.models.PlaylistModel</text>
<polyline fill="none" stroke="#000000" points="454,-385.5 582,-385.5 "/>
<text text-anchor="middle" x="518" y="-373.5" font-family="Helvetica,sans-Serif" font-size="10.00" fill="#000000"> </text>
<polyline fill="none" stroke="#000000" points="454,-366.5 582,-366.5 "/>
<text text-anchor="start" x="462" y="-354.5" font-family="Helvetica,sans-Serif" font-size="10.00" fill="#000000">+ getLastAccess()</text>
<text text-anchor="start" x="462" y="-343.5" font-family="Helvetica,sans-Serif" font-size="10.00" fill="#000000">+ setCurrentTrack()</text>
<text text-anchor="start" x="462" y="-332.5" font-family="Helvetica,sans-Serif" font-size="10.00" fill="#000000">+ getCurrentTrack()</text>
<text text-anchor="start" x="462" y="-321.5" font-family="Helvetica,sans-Serif" font-size="10.00" fill="#000000">+ previousTrack()</text>
<text text-anchor="start" x="462" y="-310.5" font-family="Helvetica,sans-Serif" font-size="10.00" fill="#000000">+ nextTrack()</text>
<text text-anchor="start" x="462" y="-299.5" font-family="Helvetica,sans-Serif" font-size="10.00" fill="#000000"># updateLastAccess()</text>
</a>
</g>
</g>
<!-- Node15&#45;&gt;Node17 -->
<g id="edge18" class="edge">
<title>Node15&#45;&gt;Node17</title>
<path fill="none" stroke="#404040" d="M539.4606,-452.4008C536.9502,-440.2466 534.4205,-427.9991 532.0226,-416.3897"/>
<polygon fill="none" stroke="#404040" points="532.0051,-416.305 526.8741,-411.2382 529.5777,-404.5531 534.7087,-409.6199 532.0051,-416.305"/>
<text text-anchor="middle" x="566" y="-426" font-family="Helvetica,sans-Serif" font-size="10.00" fill="#000000"> #currentTrack</text>
</g>
<!-- Node16 -->
<g id="node12" class="node">
<title>Node16</title>
<polygon fill="none" stroke="#bfbfbf" points="538,-728 538,-785 580,-785 580,-728 538,-728"/>
<text text-anchor="middle" x="559" y="-773" font-family="Helvetica,sans-Serif" font-size="10.00" fill="#000000">String</text>
<polyline fill="none" stroke="#bfbfbf" points="538,-766 580,-766 "/>
<text text-anchor="middle" x="559" y="-754" font-family="Helvetica,sans-Serif" font-size="10.00" fill="#000000"> </text>
<polyline fill="none" stroke="#bfbfbf" points="538,-747 580,-747 "/>
<text text-anchor="middle" x="559" y="-735" font-family="Helvetica,sans-Serif" font-size="10.00" fill="#000000"> </text>
</g>
<!-- Node16&#45;&gt;Node15 -->
<g id="edge12" class="edge">
<title>Node16&#45;&gt;Node15</title>
<path fill="none" stroke="#404040" d="M559,-727.8092C559,-708.2855 559,-681.1137 559,-653.7591"/>
<polygon fill="none" stroke="#404040" points="559.0001,-653.6273 555,-647.6273 559,-641.6273 563,-647.6272 559.0001,-653.6273"/>
<text text-anchor="middle" x="580.5" y="-696" font-family="Helvetica,sans-Serif" font-size="10.00" fill="#000000"> #title</text>
<text text-anchor="middle" x="580.5" y="-685" font-family="Helvetica,sans-Serif" font-size="10.00" fill="#000000">#filename</text>
<text text-anchor="middle" x="580.5" y="-674" font-family="Helvetica,sans-Serif" font-size="10.00" fill="#000000">#artist</text>
<text text-anchor="middle" x="580.5" y="-663" font-family="Helvetica,sans-Serif" font-size="10.00" fill="#000000">#genre</text>
</g>
<!-- Node17&#45;&gt;Node5 -->
<g id="edge13" class="edge">
<title>Node17&#45;&gt;Node5</title>
<path fill="none" stroke="#404040" d="M481.971,-292.3445C469.7342,-273.2719 455.6231,-251.2781 441.6994,-229.5763"/>
<polygon fill="none" stroke="#404040" points="441.5865,-229.4003 434.9798,-226.5103 435.1064,-219.3003 441.7131,-222.1902 441.5865,-229.4003"/>
<text text-anchor="middle" x="486" y="-266" font-family="Helvetica,sans-Serif" font-size="10.00" fill="#000000"> ~playlist</text>
</g>
<!-- Node18&#45;&gt;Node17 -->
<g id="edge14" class="edge">
<title>Node18&#45;&gt;Node17</title>
<path fill="none" stroke="#191970" d="M399.9558,-488.2705C409.8524,-476.2412 420.2349,-463.6871 430,-452 442.8544,-436.6155 456.8742,-420.037 469.8684,-404.7533"/>
<polygon fill="none" stroke="#191970" points="397.1787,-486.1372 393.5338,-496.0853 402.5869,-490.5815 397.1787,-486.1372"/>
</g>
<!-- Node19 -->
<g id="node15" class="node">
<title>Node19</title>
<polygon fill="none" stroke="#bfbfbf" points="361.5,-722.5 361.5,-790.5 494.5,-790.5 494.5,-722.5 361.5,-722.5"/>
<text text-anchor="start" x="369.5" y="-778.5" font-family="Helvetica,sans-Serif" font-size="10.00" fill="#000000">NavigableMap&lt; String,</text>
<text text-anchor="middle" x="428" y="-767.5" font-family="Helvetica,sans-Serif" font-size="10.00" fill="#000000"> ene.models.TrackModel &gt;</text>
<polyline fill="none" stroke="#bfbfbf" points="361.5,-760.5 494.5,-760.5 "/>
<text text-anchor="middle" x="428" y="-748.5" font-family="Helvetica,sans-Serif" font-size="10.00" fill="#000000"> </text>
<polyline fill="none" stroke="#bfbfbf" points="361.5,-741.5 494.5,-741.5 "/>
<text text-anchor="middle" x="428" y="-729.5" font-family="Helvetica,sans-Serif" font-size="10.00" fill="#000000"> </text>
</g>
<!-- Node19&#45;&gt;Node18 -->
<g id="edge16" class="edge">
<title>Node19&#45;&gt;Node18</title>
<path fill="none" stroke="#404040" d="M415.6201,-722.3739C404.5376,-691.824 388.013,-646.2726 374.5825,-609.2504"/>
<polygon fill="none" stroke="#404040" points="374.4338,-608.8403 368.6274,-604.5641 370.3415,-597.5597 376.1478,-601.8359 374.4338,-608.8403"/>
<text text-anchor="middle" x="425" y="-679.5" font-family="Helvetica,sans-Serif" font-size="10.00" fill="#000000"> #tracks</text>
</g>
<!-- Node20 -->
<g id="node16" class="node">
<title>Node20</title>
<polygon fill="none" stroke="#bfbfbf" points="422.5,-877 422.5,-934 501.5,-934 501.5,-877 422.5,-877"/>
<text text-anchor="middle" x="462" y="-922" font-family="Helvetica,sans-Serif" font-size="10.00" fill="#000000">NavigableMap</text>
<polyline fill="none" stroke="#bfbfbf" points="422.5,-915 501.5,-915 "/>
<text text-anchor="middle" x="462" y="-903" font-family="Helvetica,sans-Serif" font-size="10.00" fill="#000000"> </text>
<polyline fill="none" stroke="#bfbfbf" points="422.5,-896 501.5,-896 "/>
<text text-anchor="middle" x="462" y="-884" font-family="Helvetica,sans-Serif" font-size="10.00" fill="#000000"> </text>
</g>
<!-- Node20&#45;&gt;Node19 -->
<g id="edge17" class="edge">
<title>Node20&#45;&gt;Node19</title>
<path fill="none" stroke="#ffa500" d="M453.1591,-866.7559C447.7772,-843.1705 440.9651,-813.3175 435.787,-790.6252"/>
<polygon fill="#ffa500" stroke="#ffa500" points="449.8074,-867.8006 455.4445,-876.7713 456.632,-866.2432 449.8074,-867.8006"/>
<text text-anchor="start" x="445" y="-823" font-family="Helvetica,sans-Serif" font-size="10.00" fill="#000000"> &lt; String, ene::models</text>
<text text-anchor="middle" x="493.5" y="-812" font-family="Helvetica,sans-Serif" font-size="10.00" fill="#000000">::TrackModel &gt;</text>
</g>
<!-- Node21 -->
<g id="node17" class="node">
<title>Node21</title>
<polygon fill="none" stroke="#bfbfbf" points="439,-518.5 439,-575.5 477,-575.5 477,-518.5 439,-518.5"/>
<text text-anchor="middle" x="458" y="-563.5" font-family="Helvetica,sans-Serif" font-size="10.00" fill="#000000">Date</text>
<polyline fill="none" stroke="#bfbfbf" points="439,-556.5 477,-556.5 "/>
<text text-anchor="middle" x="458" y="-544.5" font-family="Helvetica,sans-Serif" font-size="10.00" fill="#000000"> </text>
<polyline fill="none" stroke="#bfbfbf" points="439,-537.5 477,-537.5 "/>
<text text-anchor="middle" x="458" y="-525.5" font-family="Helvetica,sans-Serif" font-size="10.00" fill="#000000"> </text>
</g>
<!-- Node21&#45;&gt;Node17 -->
<g id="edge19" class="edge">
<title>Node21&#45;&gt;Node17</title>
<path fill="none" stroke="#404040" d="M457.3503,-518.3809C457.6129,-492.7217 460.1191,-454.3941 471,-423 471.8216,-420.6294 472.731,-418.2566 473.7135,-415.8917"/>
<polygon fill="none" stroke="#404040" points="473.751,-415.8106 472.64,-408.6856 478.7896,-404.9196 479.9006,-412.0447 473.751,-415.8106"/>
<text text-anchor="middle" x="500" y="-426" font-family="Helvetica,sans-Serif" font-size="10.00" fill="#000000"> #lastAccess</text>
</g>
</g>
</svg>
