<?xml version="1.0" encoding="UTF-8" standalone="no"?>
<!DOCTYPE svg PUBLIC "-//W3C//DTD SVG 1.1//EN"
 "http://www.w3.org/Graphics/SVG/1.1/DTD/svg11.dtd">
<!-- Generated by graphviz version 2.40.1 (20161225.0304)
 -->
<!-- Title: ene.views.gui.WindowView.render Pages: 1 -->
<svg width="539pt" height="186pt"
 viewBox="0.00 0.00 539.00 186.00" xmlns="http://www.w3.org/2000/svg" xmlns:xlink="http://www.w3.org/1999/xlink">
<g id="graph0" class="graph" transform="scale(1 1) rotate(0) translate(4 182)">
<title>ene.views.gui.WindowView.render</title>
<!-- Node6 -->
<g id="node1" class="node">
<title>Node6</title>
<polygon fill="#bfbfbf" stroke="#000000" points="0,-79 0,-98 167,-98 167,-79 0,-79"/>
<text text-anchor="middle" x="83.5" y="-86" font-family="Helvetica,sans-Serif" font-size="10.00" fill="#000000">ene.views.gui.WindowView.render</text>
</g>
<!-- Node7 -->
<g id="node2" class="node">
<title>Node7</title>
<g id="a_node2"><a xlink:href="classene_1_1views_1_1AbstractMasterView.html#ad700dd9e7c9e05c4a04fa392b138ce90" target="_top" xlink:title="ene.views.AbstractMaster\lView.getAllViews">
<polygon fill="none" stroke="#000000" points="214,-147.5 214,-177.5 345,-177.5 345,-147.5 214,-147.5"/>
<text text-anchor="start" x="222" y="-165.5" font-family="Helvetica,sans-Serif" font-size="10.00" fill="#000000">ene.views.AbstractMaster</text>
<text text-anchor="middle" x="279.5" y="-154.5" font-family="Helvetica,sans-Serif" font-size="10.00" fill="#000000">View.getAllViews</text>
</a>
</g>
</g>
<!-- Node6&#45;&gt;Node7 -->
<g id="edge1" class="edge">
<title>Node6&#45;&gt;Node7</title>
<path fill="none" stroke="#191970" d="M104.8514,-98.1369C128.5769,-108.6795 168.1441,-125.7711 203,-138.5 208.23,-140.4099 213.6933,-142.3089 219.1893,-144.1538"/>
<polygon fill="#191970" stroke="#191970" points="218.4811,-147.6053 229.0741,-147.4068 220.6693,-140.9561 218.4811,-147.6053"/>
</g>
<!-- Node8 -->
<g id="node3" class="node">
<title>Node8</title>
<g id="a_node3"><a xlink:href="interfaceene_1_1interfaces_1_1Localization.html#ae7d5c65647a8bd1ca0c27b3279b0751c" target="_top" xlink:title="ene.interfaces.Localization.get\lString">
<polygon fill="none" stroke="#000000" points="205,-98.5 205,-128.5 354,-128.5 354,-98.5 205,-98.5"/>
<text text-anchor="start" x="213" y="-116.5" font-family="Helvetica,sans-Serif" font-size="10.00" fill="#000000">ene.interfaces.Localization.get</text>
<text text-anchor="middle" x="279.5" y="-105.5" font-family="Helvetica,sans-Serif" font-size="10.00" fill="#000000">String</text>
</a>
</g>
</g>
<!-- Node6&#45;&gt;Node8 -->
<g id="edge2" class="edge">
<title>Node6&#45;&gt;Node8</title>
<path fill="none" stroke="#191970" d="M158.1583,-98.0227C170.0753,-99.5428 182.4812,-101.1252 194.6141,-102.6727"/>
<polygon fill="#191970" stroke="#191970" points="194.3622,-106.1689 204.7247,-103.9623 195.248,-99.2251 194.3622,-106.1689"/>
</g>
<!-- Node9 -->
<g id="node4" class="node">
<title>Node9</title>
<g id="a_node4"><a xlink:href="classene_1_1views_1_1AbstractView.html#aa9bee221c279bc8a9dbada91184d8181" target="_top" xlink:title="ene.views.AbstractView.set\lCoreComponent">
<polygon fill="none" stroke="#000000" points="210,-49.5 210,-79.5 349,-79.5 349,-49.5 210,-49.5"/>
<text text-anchor="start" x="218" y="-67.5" font-family="Helvetica,sans-Serif" font-size="10.00" fill="#000000">ene.views.AbstractView.set</text>
<text text-anchor="middle" x="279.5" y="-56.5" font-family="Helvetica,sans-Serif" font-size="10.00" fill="#000000">CoreComponent</text>
</a>
</g>
</g>
<!-- Node6&#45;&gt;Node9 -->
<g id="edge3" class="edge">
<title>Node6&#45;&gt;Node9</title>
<path fill="none" stroke="#191970" d="M161.2459,-78.9801C173.896,-77.4311 187.0169,-75.8245 199.715,-74.2696"/>
<polygon fill="#191970" stroke="#191970" points="200.2904,-77.7254 209.7908,-73.0358 199.4395,-70.7773 200.2904,-77.7254"/>
</g>
<!-- Node10 -->
<g id="node5" class="node">
<title>Node10</title>
<g id="a_node5"><a xlink:href="classene_1_1views_1_1gui_1_1WindowView.html#ab0f6dcadbede5ac1c47e346bf2df3593" target="_top" xlink:title="ene.views.gui.WindowView.set\lTitle">
<polygon fill="none" stroke="#000000" points="203,-.5 203,-30.5 356,-30.5 356,-.5 203,-.5"/>
<text text-anchor="start" x="211" y="-18.5" font-family="Helvetica,sans-Serif" font-size="10.00" fill="#000000">ene.views.gui.WindowView.set</text>
<text text-anchor="middle" x="279.5" y="-7.5" font-family="Helvetica,sans-Serif" font-size="10.00" fill="#000000">Title</text>
</a>
</g>
</g>
<!-- Node6&#45;&gt;Node10 -->
<g id="edge4" class="edge">
<title>Node6&#45;&gt;Node10</title>
<path fill="none" stroke="#191970" d="M106.236,-78.8459C130.1501,-68.8148 168.9629,-52.8822 203,-40.5 209.0319,-38.3057 215.3623,-36.0939 221.6898,-33.9415"/>
<polygon fill="#191970" stroke="#191970" points="223.2211,-37.1195 231.5875,-30.6193 220.9936,-30.4834 223.2211,-37.1195"/>
</g>
<!-- Node11 -->
<g id="node6" class="node">
<title>Node11</title>
<g id="a_node6"><a xlink:href="classene_1_1views_1_1AbstractView.html#a8b774594825c8749280b5b17013ad7dc" target="_top" xlink:title="ene.views.AbstractView.get\lCoreComponent">
<polygon fill="none" stroke="#000000" points="392,-.5 392,-30.5 531,-30.5 531,-.5 392,-.5"/>
<text text-anchor="start" x="400" y="-18.5" font-family="Helvetica,sans-Serif" font-size="10.00" fill="#000000">ene.views.AbstractView.get</text>
<text text-anchor="middle" x="461.5" y="-7.5" font-family="Helvetica,sans-Serif" font-size="10.00" fill="#000000">CoreComponent</text>
</a>
</g>
</g>
<!-- Node10&#45;&gt;Node11 -->
<g id="edge5" class="edge">
<title>Node10&#45;&gt;Node11</title>
<path fill="none" stroke="#191970" d="M356.1569,-15.5C364.5829,-15.5 373.1772,-15.5 381.6409,-15.5"/>
<polygon fill="#191970" stroke="#191970" points="381.8801,-19.0001 391.88,-15.5 381.88,-12.0001 381.8801,-19.0001"/>
</g>
</g>
</svg>
