<?xml version="1.0" encoding="UTF-8" standalone="no"?>
<!DOCTYPE svg PUBLIC "-//W3C//DTD SVG 1.1//EN"
 "http://www.w3.org/Graphics/SVG/1.1/DTD/svg11.dtd">
<!-- Generated by graphviz version 2.40.1 (20161225.0304)
 -->
<!-- Title: ene.views.gui.partial.PlayerView Pages: 1 -->
<svg width="952pt" height="900pt"
 viewBox="0.00 0.00 952.00 900.00" xmlns="http://www.w3.org/2000/svg" xmlns:xlink="http://www.w3.org/1999/xlink">
<g id="graph0" class="graph" transform="scale(1 1) rotate(0) translate(4 896)">
<title>ene.views.gui.partial.PlayerView</title>
<!-- Node7 -->
<g id="node1" class="node">
<title>Node7</title>
<polygon fill="#bfbfbf" stroke="#000000" points="527,-.5 527,-167.5 685,-167.5 685,-.5 527,-.5"/>
<text text-anchor="middle" x="606" y="-155.5" font-family="Helvetica,sans-Serif" font-size="10.00" fill="#000000">ene.views.gui.partial.PlayerView</text>
<polyline fill="none" stroke="#000000" points="527,-148.5 685,-148.5 "/>
<text text-anchor="middle" x="606" y="-136.5" font-family="Helvetica,sans-Serif" font-size="10.00" fill="#000000"> </text>
<polyline fill="none" stroke="#000000" points="527,-129.5 685,-129.5 "/>
<text text-anchor="start" x="535" y="-117.5" font-family="Helvetica,sans-Serif" font-size="10.00" fill="#000000">+ PlayerView()</text>
<text text-anchor="start" x="535" y="-106.5" font-family="Helvetica,sans-Serif" font-size="10.00" fill="#000000">+ update()</text>
<text text-anchor="start" x="535" y="-95.5" font-family="Helvetica,sans-Serif" font-size="10.00" fill="#000000">+ render()</text>
<text text-anchor="start" x="535" y="-84.5" font-family="Helvetica,sans-Serif" font-size="10.00" fill="#000000"># setPlayerController()</text>
<text text-anchor="start" x="535" y="-73.5" font-family="Helvetica,sans-Serif" font-size="10.00" fill="#000000"># getPlayerController()</text>
<text text-anchor="start" x="535" y="-62.5" font-family="Helvetica,sans-Serif" font-size="10.00" fill="#000000"># initialize()</text>
<text text-anchor="start" x="535" y="-51.5" font-family="Helvetica,sans-Serif" font-size="10.00" fill="#000000"># enablePlayerControls()</text>
<text text-anchor="start" x="535" y="-40.5" font-family="Helvetica,sans-Serif" font-size="10.00" fill="#000000"># disablePlayerControls()</text>
<text text-anchor="start" x="535" y="-29.5" font-family="Helvetica,sans-Serif" font-size="10.00" fill="#000000"># updateProgress()</text>
<text text-anchor="start" x="535" y="-18.5" font-family="Helvetica,sans-Serif" font-size="10.00" fill="#000000"># resetProgress()</text>
<text text-anchor="start" x="535" y="-7.5" font-family="Helvetica,sans-Serif" font-size="10.00" fill="#000000"># formatTimeToString()</text>
</g>
<!-- Node8 -->
<g id="node2" class="node">
<title>Node8</title>
<g id="a_node2"><a xlink:href="classene_1_1views_1_1AbstractPartialView.html" target="_top" xlink:title="{ene::views::AbstractPartial\lView\&lt; JPanel, PlayerModel \&gt;\n||+ setModel()\l+ getModel()\l}">
<polygon fill="none" stroke="#000000" points="231,-343.5 231,-422.5 377,-422.5 377,-343.5 231,-343.5"/>
<text text-anchor="start" x="239" y="-410.5" font-family="Helvetica,sans-Serif" font-size="10.00" fill="#000000">ene::views::AbstractPartial</text>
<text text-anchor="middle" x="304" y="-399.5" font-family="Helvetica,sans-Serif" font-size="10.00" fill="#000000">View&lt; JPanel, PlayerModel &gt;</text>
<polyline fill="none" stroke="#000000" points="231,-392.5 377,-392.5 "/>
<text text-anchor="middle" x="304" y="-380.5" font-family="Helvetica,sans-Serif" font-size="10.00" fill="#000000"> </text>
<polyline fill="none" stroke="#000000" points="231,-373.5 377,-373.5 "/>
<text text-anchor="start" x="239" y="-361.5" font-family="Helvetica,sans-Serif" font-size="10.00" fill="#000000">+ setModel()</text>
<text text-anchor="start" x="239" y="-350.5" font-family="Helvetica,sans-Serif" font-size="10.00" fill="#000000">+ getModel()</text>
</a>
</g>
</g>
<!-- Node8&#45;&gt;Node7 -->
<g id="edge1" class="edge">
<title>Node8&#45;&gt;Node7</title>
<path fill="none" stroke="#191970" d="M316.7071,-333.5503C328.0022,-297.3802 347.5253,-248.9096 378,-215 418.5851,-169.8404 478.5399,-136.2459 526.7835,-114.3888"/>
<polygon fill="none" stroke="#191970" points="313.2721,-332.8191 313.7372,-343.4037 319.9742,-334.8392 313.2721,-332.8191"/>
</g>
<!-- Node9 -->
<g id="node3" class="node">
<title>Node9</title>
<g id="a_node3"><a xlink:href="classene_1_1views_1_1AbstractView.html" target="_top" xlink:title="{ene::views::AbstractView\l\&lt; CoreComponentType \&gt;\n||+ setTitle()\l+ getTitle()\l+ setCoreComponent()\l+ getCoreComponent()\l+ setLayoutPosition()\l+ getLayoutPosition()\l}">
<polygon fill="none" stroke="#000000" points="227,-470.5 227,-593.5 355,-593.5 355,-470.5 227,-470.5"/>
<text text-anchor="start" x="235" y="-581.5" font-family="Helvetica,sans-Serif" font-size="10.00" fill="#000000">ene::views::AbstractView</text>
<text text-anchor="middle" x="291" y="-570.5" font-family="Helvetica,sans-Serif" font-size="10.00" fill="#000000">&lt; CoreComponentType &gt;</text>
<polyline fill="none" stroke="#000000" points="227,-563.5 355,-563.5 "/>
<text text-anchor="middle" x="291" y="-551.5" font-family="Helvetica,sans-Serif" font-size="10.00" fill="#000000"> </text>
<polyline fill="none" stroke="#000000" points="227,-544.5 355,-544.5 "/>
<text text-anchor="start" x="235" y="-532.5" font-family="Helvetica,sans-Serif" font-size="10.00" fill="#000000">+ setTitle()</text>
<text text-anchor="start" x="235" y="-521.5" font-family="Helvetica,sans-Serif" font-size="10.00" fill="#000000">+ getTitle()</text>
<text text-anchor="start" x="235" y="-510.5" font-family="Helvetica,sans-Serif" font-size="10.00" fill="#000000">+ setCoreComponent()</text>
<text text-anchor="start" x="235" y="-499.5" font-family="Helvetica,sans-Serif" font-size="10.00" fill="#000000">+ getCoreComponent()</text>
<text text-anchor="start" x="235" y="-488.5" font-family="Helvetica,sans-Serif" font-size="10.00" fill="#000000">+ setLayoutPosition()</text>
<text text-anchor="start" x="235" y="-477.5" font-family="Helvetica,sans-Serif" font-size="10.00" fill="#000000">+ getLayoutPosition()</text>
</a>
</g>
</g>
<!-- Node9&#45;&gt;Node8 -->
<g id="edge2" class="edge">
<title>Node9&#45;&gt;Node8</title>
<path fill="none" stroke="#191970" d="M297.2899,-459.9078C298.4046,-447.1316 299.5276,-434.2609 300.5274,-422.8008"/>
<polygon fill="none" stroke="#191970" points="293.7827,-459.8386 296.4002,-470.105 300.7563,-460.4471 293.7827,-459.8386"/>
</g>
<!-- Node10 -->
<g id="node4" class="node">
<title>Node10</title>
<g id="a_node4"><a xlink:href="classene_1_1AbstractObject.html" target="_top" xlink:title="{ene.AbstractObject\n||+ enableDebugMode()\l+ disableDebugMode()\l+ isDebugModeEnabled()\l+ debugInfoAbout()\l+ consoleOutput()\l# delay()\l}">
<polygon fill="none" stroke="#000000" points="485.5,-663.5 485.5,-775.5 612.5,-775.5 612.5,-663.5 485.5,-663.5"/>
<text text-anchor="middle" x="549" y="-763.5" font-family="Helvetica,sans-Serif" font-size="10.00" fill="#000000">ene.AbstractObject</text>
<polyline fill="none" stroke="#000000" points="485.5,-756.5 612.5,-756.5 "/>
<text text-anchor="middle" x="549" y="-744.5" font-family="Helvetica,sans-Serif" font-size="10.00" fill="#000000"> </text>
<polyline fill="none" stroke="#000000" points="485.5,-737.5 612.5,-737.5 "/>
<text text-anchor="start" x="493.5" y="-725.5" font-family="Helvetica,sans-Serif" font-size="10.00" fill="#000000">+ enableDebugMode()</text>
<text text-anchor="start" x="493.5" y="-714.5" font-family="Helvetica,sans-Serif" font-size="10.00" fill="#000000">+ disableDebugMode()</text>
<text text-anchor="start" x="493.5" y="-703.5" font-family="Helvetica,sans-Serif" font-size="10.00" fill="#000000">+ isDebugModeEnabled()</text>
<text text-anchor="start" x="493.5" y="-692.5" font-family="Helvetica,sans-Serif" font-size="10.00" fill="#000000">+ debugInfoAbout()</text>
<text text-anchor="start" x="493.5" y="-681.5" font-family="Helvetica,sans-Serif" font-size="10.00" fill="#000000">+ consoleOutput()</text>
<text text-anchor="start" x="493.5" y="-670.5" font-family="Helvetica,sans-Serif" font-size="10.00" fill="#000000"># delay()</text>
</a>
</g>
</g>
<!-- Node10&#45;&gt;Node9 -->
<g id="edge3" class="edge">
<title>Node10&#45;&gt;Node9</title>
<path fill="none" stroke="#191970" d="M483.0471,-656.8326C481.027,-655.1832 479.0087,-653.5688 477,-652 438.3849,-621.841 392.0967,-591.9571 355.3569,-569.5552"/>
<polygon fill="none" stroke="#191970" points="480.9153,-659.6125 490.8307,-663.3455 485.4074,-654.2439 480.9153,-659.6125"/>
</g>
<!-- Node23 -->
<g id="node17" class="node">
<title>Node23</title>
<g id="a_node17"><a xlink:href="classene_1_1controllers_1_1AbstractController.html" target="_top" xlink:title="{ene.controllers.Abstract\lController\&lt; ModelType \&gt;\n||+ setModel()\l+ getModel()\l}">
<polygon fill="none" stroke="#000000" points="620.5,-492.5 620.5,-571.5 745.5,-571.5 745.5,-492.5 620.5,-492.5"/>
<text text-anchor="start" x="628.5" y="-559.5" font-family="Helvetica,sans-Serif" font-size="10.00" fill="#000000">ene.controllers.Abstract</text>
<text text-anchor="middle" x="683" y="-548.5" font-family="Helvetica,sans-Serif" font-size="10.00" fill="#000000">Controller&lt; ModelType &gt;</text>
<polyline fill="none" stroke="#000000" points="620.5,-541.5 745.5,-541.5 "/>
<text text-anchor="middle" x="683" y="-529.5" font-family="Helvetica,sans-Serif" font-size="10.00" fill="#000000"> </text>
<polyline fill="none" stroke="#000000" points="620.5,-522.5 745.5,-522.5 "/>
<text text-anchor="start" x="628.5" y="-510.5" font-family="Helvetica,sans-Serif" font-size="10.00" fill="#000000">+ setModel()</text>
<text text-anchor="start" x="628.5" y="-499.5" font-family="Helvetica,sans-Serif" font-size="10.00" fill="#000000">+ getModel()</text>
</a>
</g>
</g>
<!-- Node10&#45;&gt;Node23 -->
<g id="edge18" class="edge">
<title>Node10&#45;&gt;Node23</title>
<path fill="none" stroke="#191970" d="M595.0705,-655.0357C614.8657,-627.3372 637.3705,-595.8472 654.6569,-571.6592"/>
<polygon fill="none" stroke="#191970" points="591.9898,-653.3268 589.0229,-663.4978 597.6849,-657.397 591.9898,-653.3268"/>
</g>
<!-- Node11 -->
<g id="node5" class="node">
<title>Node11</title>
<polygon fill="none" stroke="#bfbfbf" points="510.5,-834.5 510.5,-891.5 587.5,-891.5 587.5,-834.5 510.5,-834.5"/>
<text text-anchor="middle" x="549" y="-879.5" font-family="Helvetica,sans-Serif" font-size="10.00" fill="#000000">static boolean</text>
<polyline fill="none" stroke="#bfbfbf" points="510.5,-872.5 587.5,-872.5 "/>
<text text-anchor="middle" x="549" y="-860.5" font-family="Helvetica,sans-Serif" font-size="10.00" fill="#000000"> </text>
<polyline fill="none" stroke="#bfbfbf" points="510.5,-853.5 587.5,-853.5 "/>
<text text-anchor="middle" x="549" y="-841.5" font-family="Helvetica,sans-Serif" font-size="10.00" fill="#000000"> </text>
</g>
<!-- Node11&#45;&gt;Node10 -->
<g id="edge4" class="edge">
<title>Node11&#45;&gt;Node10</title>
<path fill="none" stroke="#404040" d="M549,-834.3055C549,-820.9442 549,-804.4218 549,-788.1157"/>
<polygon fill="none" stroke="#404040" points="549.0001,-787.7445 545,-781.7445 549,-775.7445 553,-781.7444 549.0001,-787.7445"/>
<text text-anchor="middle" x="596" y="-808" font-family="Helvetica,sans-Serif" font-size="10.00" fill="#000000"> #debugModeEnabled</text>
</g>
<!-- Node12 -->
<g id="node6" class="node">
<title>Node12</title>
<g id="a_node6"><a xlink:href="interfaceene_1_1interfaces_1_1View.html" target="_top" xlink:title="{ene::interfaces::View\l\&lt; CoreComponentType \&gt;\n||+ setTitle()\l+ getTitle()\l+ setCoreComponent()\l+ getCoreComponent()\l+ setLayoutPosition()\l+ getLayoutPosition()\l+ render()\l}">
<polygon fill="none" stroke="#000000" points="0,-652.5 0,-786.5 128,-786.5 128,-652.5 0,-652.5"/>
<text text-anchor="start" x="8" y="-774.5" font-family="Helvetica,sans-Serif" font-size="10.00" fill="#000000">ene::interfaces::View</text>
<text text-anchor="middle" x="64" y="-763.5" font-family="Helvetica,sans-Serif" font-size="10.00" fill="#000000">&lt; CoreComponentType &gt;</text>
<polyline fill="none" stroke="#000000" points="0,-756.5 128,-756.5 "/>
<text text-anchor="middle" x="64" y="-744.5" font-family="Helvetica,sans-Serif" font-size="10.00" fill="#000000"> </text>
<polyline fill="none" stroke="#000000" points="0,-737.5 128,-737.5 "/>
<text text-anchor="start" x="8" y="-725.5" font-family="Helvetica,sans-Serif" font-size="10.00" fill="#000000">+ setTitle()</text>
<text text-anchor="start" x="8" y="-714.5" font-family="Helvetica,sans-Serif" font-size="10.00" fill="#000000">+ getTitle()</text>
<text text-anchor="start" x="8" y="-703.5" font-family="Helvetica,sans-Serif" font-size="10.00" fill="#000000">+ setCoreComponent()</text>
<text text-anchor="start" x="8" y="-692.5" font-family="Helvetica,sans-Serif" font-size="10.00" fill="#000000">+ getCoreComponent()</text>
<text text-anchor="start" x="8" y="-681.5" font-family="Helvetica,sans-Serif" font-size="10.00" fill="#000000">+ setLayoutPosition()</text>
<text text-anchor="start" x="8" y="-670.5" font-family="Helvetica,sans-Serif" font-size="10.00" fill="#000000">+ getLayoutPosition()</text>
<text text-anchor="start" x="8" y="-659.5" font-family="Helvetica,sans-Serif" font-size="10.00" fill="#000000">+ render()</text>
</a>
</g>
</g>
<!-- Node12&#45;&gt;Node9 -->
<g id="edge5" class="edge">
<title>Node12&#45;&gt;Node9</title>
<path fill="none" stroke="#191970" d="M135.9185,-652.9321C136.2797,-652.6203 136.6402,-652.3096 137,-652 165.7764,-627.2405 198.85,-601.1768 226.9528,-579.6892"/>
<polygon fill="none" stroke="#191970" points="133.4915,-650.4048 128.26,-659.6179 138.0951,-655.6781 133.4915,-650.4048"/>
</g>
<!-- Node17 -->
<g id="node11" class="node">
<title>Node17</title>
<g id="a_node11"><a xlink:href="interfaceene_1_1interfaces_1_1PartialView.html" target="_top" xlink:title="{ene::interfaces::Partial\lView\&lt; CoreComponentType,\l ModelType \&gt;\n||+ setModel()\l+ getModel()\l+ update()\l}">
<polygon fill="none" stroke="#000000" points="41.5,-481.5 41.5,-582.5 184.5,-582.5 184.5,-481.5 41.5,-481.5"/>
<text text-anchor="start" x="49.5" y="-570.5" font-family="Helvetica,sans-Serif" font-size="10.00" fill="#000000">ene::interfaces::Partial</text>
<text text-anchor="start" x="49.5" y="-559.5" font-family="Helvetica,sans-Serif" font-size="10.00" fill="#000000">View&lt; CoreComponentType,</text>
<text text-anchor="middle" x="113" y="-548.5" font-family="Helvetica,sans-Serif" font-size="10.00" fill="#000000"> ModelType &gt;</text>
<polyline fill="none" stroke="#000000" points="41.5,-541.5 184.5,-541.5 "/>
<text text-anchor="middle" x="113" y="-529.5" font-family="Helvetica,sans-Serif" font-size="10.00" fill="#000000"> </text>
<polyline fill="none" stroke="#000000" points="41.5,-522.5 184.5,-522.5 "/>
<text text-anchor="start" x="49.5" y="-510.5" font-family="Helvetica,sans-Serif" font-size="10.00" fill="#000000">+ setModel()</text>
<text text-anchor="start" x="49.5" y="-499.5" font-family="Helvetica,sans-Serif" font-size="10.00" fill="#000000">+ getModel()</text>
<text text-anchor="start" x="49.5" y="-488.5" font-family="Helvetica,sans-Serif" font-size="10.00" fill="#000000">+ update()</text>
</a>
</g>
</g>
<!-- Node12&#45;&gt;Node17 -->
<g id="edge11" class="edge">
<title>Node12&#45;&gt;Node17</title>
<path fill="none" stroke="#191970" d="M84.1205,-642.5084C89.4083,-622.2742 94.9775,-600.9635 99.7991,-582.5135"/>
<polygon fill="none" stroke="#191970" points="80.6939,-641.7777 81.5517,-652.3378 87.4665,-643.5477 80.6939,-641.7777"/>
</g>
<!-- Node13 -->
<g id="node7" class="node">
<title>Node13</title>
<g id="a_node7"><a xlink:href="interfaceene_1_1interfaces_1_1Localization.html" target="_top" xlink:title="{ene.interfaces.Localization\n||+ getString()\l}">
<polygon fill="none" stroke="#000000" points="334.5,-691 334.5,-748 467.5,-748 467.5,-691 334.5,-691"/>
<text text-anchor="middle" x="401" y="-736" font-family="Helvetica,sans-Serif" font-size="10.00" fill="#000000">ene.interfaces.Localization</text>
<polyline fill="none" stroke="#000000" points="334.5,-729 467.5,-729 "/>
<text text-anchor="middle" x="401" y="-717" font-family="Helvetica,sans-Serif" font-size="10.00" fill="#000000"> </text>
<polyline fill="none" stroke="#000000" points="334.5,-710 467.5,-710 "/>
<text text-anchor="start" x="342.5" y="-698" font-family="Helvetica,sans-Serif" font-size="10.00" fill="#000000">+ getString()</text>
</a>
</g>
</g>
<!-- Node13&#45;&gt;Node9 -->
<g id="edge6" class="edge">
<title>Node13&#45;&gt;Node9</title>
<path fill="none" stroke="#191970" d="M390.0037,-681.2296C383.0373,-660.0079 372.9013,-633.6188 360,-612 356.3344,-605.8575 352.1843,-599.7299 347.7823,-593.7551"/>
<polygon fill="none" stroke="#191970" points="386.7078,-682.4148 393.0734,-690.8841 393.3787,-680.2937 386.7078,-682.4148"/>
</g>
<!-- Node14 -->
<g id="node8" class="node">
<title>Node14</title>
<polygon fill="none" stroke="#bfbfbf" points="356,-834.5 356,-891.5 446,-891.5 446,-834.5 356,-834.5"/>
<text text-anchor="middle" x="401" y="-879.5" font-family="Helvetica,sans-Serif" font-size="10.00" fill="#000000">static final String</text>
<polyline fill="none" stroke="#bfbfbf" points="356,-872.5 446,-872.5 "/>
<text text-anchor="middle" x="401" y="-860.5" font-family="Helvetica,sans-Serif" font-size="10.00" fill="#000000"> </text>
<polyline fill="none" stroke="#bfbfbf" points="356,-853.5 446,-853.5 "/>
<text text-anchor="middle" x="401" y="-841.5" font-family="Helvetica,sans-Serif" font-size="10.00" fill="#000000"> </text>
</g>
<!-- Node14&#45;&gt;Node13 -->
<g id="edge7" class="edge">
<title>Node14&#45;&gt;Node13</title>
<path fill="none" stroke="#404040" d="M401,-834.3055C401,-813.0904 401,-783.9058 401,-760.2714"/>
<polygon fill="none" stroke="#404040" points="401.0001,-760.1447 397,-754.1448 401,-748.1447 405,-754.1447 401.0001,-760.1447"/>
<text text-anchor="middle" x="451" y="-808" font-family="Helvetica,sans-Serif" font-size="10.00" fill="#000000"> +DEFAULT_LOCALE</text>
</g>
<!-- Node15 -->
<g id="node9" class="node">
<title>Node15</title>
<polygon fill="none" stroke="#bfbfbf" points="146,-691 146,-748 188,-748 188,-691 146,-691"/>
<text text-anchor="middle" x="167" y="-736" font-family="Helvetica,sans-Serif" font-size="10.00" fill="#000000">String</text>
<polyline fill="none" stroke="#bfbfbf" points="146,-729 188,-729 "/>
<text text-anchor="middle" x="167" y="-717" font-family="Helvetica,sans-Serif" font-size="10.00" fill="#000000"> </text>
<polyline fill="none" stroke="#bfbfbf" points="146,-710 188,-710 "/>
<text text-anchor="middle" x="167" y="-698" font-family="Helvetica,sans-Serif" font-size="10.00" fill="#000000"> </text>
</g>
<!-- Node15&#45;&gt;Node9 -->
<g id="edge8" class="edge">
<title>Node15&#45;&gt;Node9</title>
<path fill="none" stroke="#404040" d="M172.0762,-690.7841C177.0631,-668.0418 186.2684,-636.1863 202,-612 206.7507,-604.6961 212.3333,-597.6383 218.3479,-590.942"/>
<polygon fill="none" stroke="#404040" points="218.5248,-590.7553 219.7489,-583.6489 226.7796,-582.0456 225.5554,-589.1521 218.5248,-590.7553"/>
<text text-anchor="middle" x="237" y="-626" font-family="Helvetica,sans-Serif" font-size="10.00" fill="#000000"> #layoutPosition</text>
<text text-anchor="middle" x="237" y="-615" font-family="Helvetica,sans-Serif" font-size="10.00" fill="#000000">#title</text>
</g>
<!-- Node16 -->
<g id="node10" class="node">
<title>Node16</title>
<polygon fill="none" stroke="#bfbfbf" points="206,-691 206,-748 316,-748 316,-691 206,-691"/>
<text text-anchor="middle" x="261" y="-736" font-family="Helvetica,sans-Serif" font-size="10.00" fill="#000000">CoreComponentType</text>
<polyline fill="none" stroke="#bfbfbf" points="206,-729 316,-729 "/>
<text text-anchor="middle" x="261" y="-717" font-family="Helvetica,sans-Serif" font-size="10.00" fill="#000000"> </text>
<polyline fill="none" stroke="#bfbfbf" points="206,-710 316,-710 "/>
<text text-anchor="middle" x="261" y="-698" font-family="Helvetica,sans-Serif" font-size="10.00" fill="#000000"> </text>
</g>
<!-- Node16&#45;&gt;Node9 -->
<g id="edge9" class="edge">
<title>Node16&#45;&gt;Node9</title>
<path fill="none" stroke="#404040" d="M265.6218,-690.614C269.2476,-667.9523 274.4604,-635.3726 279.2194,-605.6287"/>
<polygon fill="none" stroke="#404040" points="279.2593,-605.3787 276.2575,-598.8221 281.1553,-593.5294 284.1571,-600.086 279.2593,-605.3787"/>
<text text-anchor="middle" x="317" y="-620.5" font-family="Helvetica,sans-Serif" font-size="10.00" fill="#000000"> #coreComponent</text>
</g>
<!-- Node17&#45;&gt;Node8 -->
<g id="edge10" class="edge">
<title>Node17&#45;&gt;Node8</title>
<path fill="none" stroke="#191970" d="M186.084,-474.9868C208.4553,-457.5349 232.5661,-438.726 253.1198,-422.6919"/>
<polygon fill="none" stroke="#191970" points="183.6622,-472.437 177.9304,-481.3475 187.9679,-477.9562 183.6622,-472.437"/>
</g>
<!-- Node18 -->
<g id="node12" class="node">
<title>Node18</title>
<polygon fill="none" stroke="#bfbfbf" points="630.5,-691 630.5,-748 695.5,-748 695.5,-691 630.5,-691"/>
<text text-anchor="middle" x="663" y="-736" font-family="Helvetica,sans-Serif" font-size="10.00" fill="#000000">ModelType</text>
<polyline fill="none" stroke="#bfbfbf" points="630.5,-729 695.5,-729 "/>
<text text-anchor="middle" x="663" y="-717" font-family="Helvetica,sans-Serif" font-size="10.00" fill="#000000"> </text>
<polyline fill="none" stroke="#bfbfbf" points="630.5,-710 695.5,-710 "/>
<text text-anchor="middle" x="663" y="-698" font-family="Helvetica,sans-Serif" font-size="10.00" fill="#000000"> </text>
</g>
<!-- Node18&#45;&gt;Node8 -->
<g id="edge12" class="edge">
<title>Node18&#45;&gt;Node8</title>
<path fill="none" stroke="#404040" d="M648.3366,-690.8691C641.2352,-678.3092 632.0671,-663.7773 622,-652 546.2055,-563.3289 439.6624,-479.5943 371.2192,-429.7843"/>
<polygon fill="none" stroke="#404040" points="371.1282,-429.7185 363.9224,-429.4425 361.4056,-422.6849 368.6115,-422.9608 371.1282,-429.7185"/>
<text text-anchor="middle" x="582.5" y="-529.5" font-family="Helvetica,sans-Serif" font-size="10.00" fill="#000000"> #model</text>
</g>
<!-- Node18&#45;&gt;Node23 -->
<g id="edge20" class="edge">
<title>Node18&#45;&gt;Node23</title>
<path fill="none" stroke="#404040" d="M666.0812,-690.614C669.1064,-662.2523 673.7887,-618.3557 677.4613,-583.9257"/>
<polygon fill="none" stroke="#404040" points="677.4908,-583.6479 674.1498,-577.2574 678.7637,-571.7156 682.1047,-578.106 677.4908,-583.6479"/>
<text text-anchor="middle" x="691.5" y="-620.5" font-family="Helvetica,sans-Serif" font-size="10.00" fill="#000000"> #model</text>
</g>
<!-- Node19 -->
<g id="node13" class="node">
<title>Node19</title>
<polygon fill="none" stroke="#bfbfbf" points="387.5,-232 387.5,-289 434.5,-289 434.5,-232 387.5,-232"/>
<text text-anchor="middle" x="411" y="-277" font-family="Helvetica,sans-Serif" font-size="10.00" fill="#000000">JSlider</text>
<polyline fill="none" stroke="#bfbfbf" points="387.5,-270 434.5,-270 "/>
<text text-anchor="middle" x="411" y="-258" font-family="Helvetica,sans-Serif" font-size="10.00" fill="#000000"> </text>
<polyline fill="none" stroke="#bfbfbf" points="387.5,-251 434.5,-251 "/>
<text text-anchor="middle" x="411" y="-239" font-family="Helvetica,sans-Serif" font-size="10.00" fill="#000000"> </text>
</g>
<!-- Node19&#45;&gt;Node7 -->
<g id="edge13" class="edge">
<title>Node19&#45;&gt;Node7</title>
<path fill="none" stroke="#404040" d="M424.4661,-231.9926C432.3285,-217.2162 443.2161,-199.4909 456,-186 473.6713,-167.3515 495.3127,-150.2301 516.5993,-135.5565"/>
<polygon fill="none" stroke="#404040" points="516.7167,-135.4774 519.4579,-128.8077 526.669,-128.7727 523.9277,-135.4425 516.7167,-135.4774"/>
<text text-anchor="middle" x="491.5" y="-189" font-family="Helvetica,sans-Serif" font-size="10.00" fill="#000000"> #progressSlider</text>
</g>
<!-- Node20 -->
<g id="node14" class="node">
<title>Node20</title>
<polygon fill="none" stroke="#bfbfbf" points="461,-232 461,-289 511,-289 511,-232 461,-232"/>
<text text-anchor="middle" x="486" y="-277" font-family="Helvetica,sans-Serif" font-size="10.00" fill="#000000">JButton</text>
<polyline fill="none" stroke="#bfbfbf" points="461,-270 511,-270 "/>
<text text-anchor="middle" x="486" y="-258" font-family="Helvetica,sans-Serif" font-size="10.00" fill="#000000"> </text>
<polyline fill="none" stroke="#bfbfbf" points="461,-251 511,-251 "/>
<text text-anchor="middle" x="486" y="-239" font-family="Helvetica,sans-Serif" font-size="10.00" fill="#000000"> </text>
</g>
<!-- Node20&#45;&gt;Node7 -->
<g id="edge14" class="edge">
<title>Node20&#45;&gt;Node7</title>
<path fill="none" stroke="#404040" d="M505.5471,-231.7494C515.7737,-216.7078 528.935,-197.3497 542.3409,-177.632"/>
<polygon fill="none" stroke="#404040" points="542.3966,-177.55 542.4622,-170.3392 549.1436,-167.6264 549.0779,-174.8372 542.3966,-177.55"/>
<text text-anchor="middle" x="562.5" y="-189" font-family="Helvetica,sans-Serif" font-size="10.00" fill="#000000"> #playButton</text>
</g>
<!-- Node21 -->
<g id="node15" class="node">
<title>Node21</title>
<g id="a_node15"><a xlink:href="classene_1_1controllers_1_1PlayerController.html" target="_top" xlink:title="{ene.controllers.PlayerController\n||+ PlayerController()\l+ changeTrackPosition()\l+ load()\l+ togglePlayback()\l}">
<polygon fill="none" stroke="#000000" points="529.5,-215.5 529.5,-305.5 682.5,-305.5 682.5,-215.5 529.5,-215.5"/>
<text text-anchor="middle" x="606" y="-293.5" font-family="Helvetica,sans-Serif" font-size="10.00" fill="#000000">ene.controllers.PlayerController</text>
<polyline fill="none" stroke="#000000" points="529.5,-286.5 682.5,-286.5 "/>
<text text-anchor="middle" x="606" y="-274.5" font-family="Helvetica,sans-Serif" font-size="10.00" fill="#000000"> </text>
<polyline fill="none" stroke="#000000" points="529.5,-267.5 682.5,-267.5 "/>
<text text-anchor="start" x="537.5" y="-255.5" font-family="Helvetica,sans-Serif" font-size="10.00" fill="#000000">+ PlayerController()</text>
<text text-anchor="start" x="537.5" y="-244.5" font-family="Helvetica,sans-Serif" font-size="10.00" fill="#000000">+ changeTrackPosition()</text>
<text text-anchor="start" x="537.5" y="-233.5" font-family="Helvetica,sans-Serif" font-size="10.00" fill="#000000">+ load()</text>
<text text-anchor="start" x="537.5" y="-222.5" font-family="Helvetica,sans-Serif" font-size="10.00" fill="#000000">+ togglePlayback()</text>
</a>
</g>
</g>
<!-- Node21&#45;&gt;Node7 -->
<g id="edge15" class="edge">
<title>Node21&#45;&gt;Node7</title>
<path fill="none" stroke="#404040" d="M606,-215.0469C606,-204.169 606,-192.1464 606,-179.926"/>
<polygon fill="none" stroke="#404040" points="606.0001,-179.6748 602,-173.6748 606,-167.6748 610,-173.6747 606.0001,-179.6748"/>
<text text-anchor="middle" x="644.5" y="-189" font-family="Helvetica,sans-Serif" font-size="10.00" fill="#000000"> #playerController</text>
</g>
<!-- Node22 -->
<g id="node16" class="node">
<title>Node22</title>
<g id="a_node16"><a xlink:href="classene_1_1controllers_1_1AbstractController.html" target="_top" xlink:title="{ene.controllers.Abstract\lController\&lt; PlayerModel \&gt;\n|# model\l|+ setModel()\l+ getModel()\l}">
<polygon fill="none" stroke="#000000" points="573.5,-343.5 573.5,-422.5 704.5,-422.5 704.5,-343.5 573.5,-343.5"/>
<text text-anchor="start" x="581.5" y="-410.5" font-family="Helvetica,sans-Serif" font-size="10.00" fill="#000000">ene.controllers.Abstract</text>
<text text-anchor="middle" x="639" y="-399.5" font-family="Helvetica,sans-Serif" font-size="10.00" fill="#000000">Controller&lt; PlayerModel &gt;</text>
<polyline fill="none" stroke="#000000" points="573.5,-392.5 704.5,-392.5 "/>
<text text-anchor="start" x="581.5" y="-380.5" font-family="Helvetica,sans-Serif" font-size="10.00" fill="#000000"># model</text>
<polyline fill="none" stroke="#000000" points="573.5,-373.5 704.5,-373.5 "/>
<text text-anchor="start" x="581.5" y="-361.5" font-family="Helvetica,sans-Serif" font-size="10.00" fill="#000000">+ setModel()</text>
<text text-anchor="start" x="581.5" y="-350.5" font-family="Helvetica,sans-Serif" font-size="10.00" fill="#000000">+ getModel()</text>
</a>
</g>
</g>
<!-- Node22&#45;&gt;Node21 -->
<g id="edge16" class="edge">
<title>Node22&#45;&gt;Node21</title>
<path fill="none" stroke="#191970" d="M625.6455,-333.4264C623.1663,-324.2235 620.5888,-314.6555 618.1481,-305.5953"/>
<polygon fill="none" stroke="#191970" points="622.3051,-334.4824 628.2858,-343.2278 629.0641,-332.6616 622.3051,-334.4824"/>
</g>
<!-- Node23&#45;&gt;Node22 -->
<g id="edge17" class="edge">
<title>Node23&#45;&gt;Node22</title>
<path fill="none" stroke="#ffa500" d="M668.4801,-482.8303C662.7196,-463.3232 656.1824,-441.186 650.7302,-422.7228"/>
<polygon fill="#ffa500" stroke="#ffa500" points="665.1354,-483.8626 671.3243,-492.4619 671.8488,-481.8801 665.1354,-483.8626"/>
<text text-anchor="middle" x="696" y="-444" font-family="Helvetica,sans-Serif" font-size="10.00" fill="#000000"> &lt; PlayerModel &gt;</text>
</g>
<!-- Node24 -->
<g id="node18" class="node">
<title>Node24</title>
<g id="a_node18"><a xlink:href="interfaceene_1_1interfaces_1_1Controller.html" target="_top" xlink:title="{ene::interfaces::Controller\l\&lt; ModelType \&gt;\n||+ setModel()\l+ getModel()\l}">
<polygon fill="none" stroke="#000000" points="713.5,-680 713.5,-759 842.5,-759 842.5,-680 713.5,-680"/>
<text text-anchor="start" x="721.5" y="-747" font-family="Helvetica,sans-Serif" font-size="10.00" fill="#000000">ene::interfaces::Controller</text>
<text text-anchor="middle" x="778" y="-736" font-family="Helvetica,sans-Serif" font-size="10.00" fill="#000000">&lt; ModelType &gt;</text>
<polyline fill="none" stroke="#000000" points="713.5,-729 842.5,-729 "/>
<text text-anchor="middle" x="778" y="-717" font-family="Helvetica,sans-Serif" font-size="10.00" fill="#000000"> </text>
<polyline fill="none" stroke="#000000" points="713.5,-710 842.5,-710 "/>
<text text-anchor="start" x="721.5" y="-698" font-family="Helvetica,sans-Serif" font-size="10.00" fill="#000000">+ setModel()</text>
<text text-anchor="start" x="721.5" y="-687" font-family="Helvetica,sans-Serif" font-size="10.00" fill="#000000">+ getModel()</text>
</a>
</g>
</g>
<!-- Node24&#45;&gt;Node23 -->
<g id="edge19" class="edge">
<title>Node24&#45;&gt;Node23</title>
<path fill="none" stroke="#191970" d="M753.1611,-670.4758C737.5687,-639.7014 717.7215,-600.5292 703.118,-571.7066"/>
<polygon fill="none" stroke="#191970" points="750.2111,-672.3976 757.8529,-679.7361 756.4554,-669.2338 750.2111,-672.3976"/>
</g>
<!-- Node25 -->
<g id="node19" class="node">
<title>Node25</title>
<polygon fill="none" stroke="#bfbfbf" points="700.5,-232 700.5,-289 741.5,-289 741.5,-232 700.5,-232"/>
<text text-anchor="middle" x="721" y="-277" font-family="Helvetica,sans-Serif" font-size="10.00" fill="#000000">Timer</text>
<polyline fill="none" stroke="#bfbfbf" points="700.5,-270 741.5,-270 "/>
<text text-anchor="middle" x="721" y="-258" font-family="Helvetica,sans-Serif" font-size="10.00" fill="#000000"> </text>
<polyline fill="none" stroke="#bfbfbf" points="700.5,-251 741.5,-251 "/>
<text text-anchor="middle" x="721" y="-239" font-family="Helvetica,sans-Serif" font-size="10.00" fill="#000000"> </text>
</g>
<!-- Node25&#45;&gt;Node7 -->
<g id="edge21" class="edge">
<title>Node25&#45;&gt;Node7</title>
<path fill="none" stroke="#404040" d="M709.8034,-231.7228C703.8061,-217.539 695.838,-200.4267 687,-186 685.3139,-183.2478 683.5641,-180.4854 681.7628,-177.7225"/>
<polygon fill="none" stroke="#404040" points="681.7396,-177.688 675.0707,-174.9448 675.0379,-167.7337 681.7069,-170.4769 681.7396,-177.688"/>
<text text-anchor="middle" x="728" y="-189" font-family="Helvetica,sans-Serif" font-size="10.00" fill="#000000"> ~progressTimer</text>
</g>
<!-- Node26 -->
<g id="node20" class="node">
<title>Node26</title>
<polygon fill="none" stroke="#bfbfbf" points="760,-232 760,-289 858,-289 858,-232 760,-232"/>
<text text-anchor="middle" x="809" y="-277" font-family="Helvetica,sans-Serif" font-size="10.00" fill="#000000">SimpleDateFormat</text>
<polyline fill="none" stroke="#bfbfbf" points="760,-270 858,-270 "/>
<text text-anchor="middle" x="809" y="-258" font-family="Helvetica,sans-Serif" font-size="10.00" fill="#000000"> </text>
<polyline fill="none" stroke="#bfbfbf" points="760,-251 858,-251 "/>
<text text-anchor="middle" x="809" y="-239" font-family="Helvetica,sans-Serif" font-size="10.00" fill="#000000"> </text>
</g>
<!-- Node26&#45;&gt;Node7 -->
<g id="edge22" class="edge">
<title>Node26&#45;&gt;Node7</title>
<path fill="none" stroke="#404040" d="M797.3865,-231.767C790.4086,-216.9268 780.4571,-199.2123 768,-186 747.3599,-164.1087 721.0595,-144.9449 695.683,-129.3171"/>
<polygon fill="none" stroke="#404040" points="695.5519,-129.2384 688.3488,-129.5791 685.2639,-123.0611 692.467,-122.7205 695.5519,-129.2384"/>
<text text-anchor="middle" x="818" y="-189" font-family="Helvetica,sans-Serif" font-size="10.00" fill="#000000"> ~trackTimeFormat</text>
</g>
<!-- Node27 -->
<g id="node21" class="node">
<title>Node27</title>
<polygon fill="none" stroke="#bfbfbf" points="893.5,-232 893.5,-289 938.5,-289 938.5,-232 893.5,-232"/>
<text text-anchor="middle" x="916" y="-277" font-family="Helvetica,sans-Serif" font-size="10.00" fill="#000000">JLabel</text>
<polyline fill="none" stroke="#bfbfbf" points="893.5,-270 938.5,-270 "/>
<text text-anchor="middle" x="916" y="-258" font-family="Helvetica,sans-Serif" font-size="10.00" fill="#000000"> </text>
<polyline fill="none" stroke="#bfbfbf" points="893.5,-251 938.5,-251 "/>
<text text-anchor="middle" x="916" y="-239" font-family="Helvetica,sans-Serif" font-size="10.00" fill="#000000"> </text>
</g>
<!-- Node27&#45;&gt;Node7 -->
<g id="edge23" class="edge">
<title>Node27&#45;&gt;Node7</title>
<path fill="none" stroke="#404040" d="M901.4519,-231.9121C892.4311,-216.5654 879.5906,-198.3253 864,-186 815.0852,-147.33 749.6639,-121.6862 696.9399,-105.783"/>
<polygon fill="none" stroke="#404040" points="696.7224,-105.7192 689.8389,-107.868 685.2079,-102.3404 692.0914,-100.1916 696.7224,-105.7192"/>
<text text-anchor="middle" x="909" y="-189" font-family="Helvetica,sans-Serif" font-size="10.00" fill="#000000"> #progressLabel</text>
</g>
</g>
</svg>
