<?xml version="1.0" encoding="UTF-8" standalone="no"?>
<!DOCTYPE svg PUBLIC "-//W3C//DTD SVG 1.1//EN"
 "http://www.w3.org/Graphics/SVG/1.1/DTD/svg11.dtd">
<!-- Generated by graphviz version 2.40.1 (20161225.0304)
 -->
<!-- Title: ene.controllers.PlaylistController.PlaylistController Pages: 1 -->
<svg width="870pt" height="259pt"
 viewBox="0.00 0.00 870.00 258.50" xmlns="http://www.w3.org/2000/svg" xmlns:xlink="http://www.w3.org/1999/xlink">
<g id="graph0" class="graph" transform="scale(1 1) rotate(0) translate(4 254.5)">
<title>ene.controllers.PlaylistController.PlaylistController</title>
<!-- Node3 -->
<g id="node1" class="node">
<title>Node3</title>
<polygon fill="#bfbfbf" stroke="#000000" points="0,-55.5 0,-85.5 136,-85.5 136,-55.5 0,-55.5"/>
<text text-anchor="start" x="8" y="-73.5" font-family="Helvetica,sans-Serif" font-size="10.00" fill="#000000">ene.controllers.Playlist</text>
<text text-anchor="middle" x="68" y="-62.5" font-family="Helvetica,sans-Serif" font-size="10.00" fill="#000000">Controller.PlaylistController</text>
</g>
<!-- Node4 -->
<g id="node2" class="node">
<title>Node4</title>
<g id="a_node2"><a xlink:href="classene_1_1controllers_1_1PlaylistController.html#a67b252ccabbac520eaafe9f90e8f0d43" target="_top" xlink:title="ene.controllers.Playlist\lController.loadFromFile">
<polygon fill="none" stroke="#000000" points="186.5,-110.5 186.5,-140.5 304.5,-140.5 304.5,-110.5 186.5,-110.5"/>
<text text-anchor="start" x="194.5" y="-128.5" font-family="Helvetica,sans-Serif" font-size="10.00" fill="#000000">ene.controllers.Playlist</text>
<text text-anchor="middle" x="245.5" y="-117.5" font-family="Helvetica,sans-Serif" font-size="10.00" fill="#000000">Controller.loadFromFile</text>
</a>
</g>
</g>
<!-- Node3&#45;&gt;Node4 -->
<g id="edge1" class="edge">
<title>Node3&#45;&gt;Node4</title>
<path fill="none" stroke="#191970" d="M116.5027,-85.529C138.4175,-92.3195 164.486,-100.3971 187.4336,-107.5076"/>
<polygon fill="#191970" stroke="#191970" points="186.4681,-110.8725 197.056,-110.4892 188.54,-104.1862 186.4681,-110.8725"/>
</g>
<!-- Node15 -->
<g id="node13" class="node">
<title>Node15</title>
<g id="a_node13"><a xlink:href="classene_1_1controllers_1_1AbstractController.html#aeb538130c72b3c48f6574443db04eed5" target="_top" xlink:title="ene.controllers.Abstract\lController\&lt; PlaylistModel\l \&gt;::setModel">
<polygon fill="none" stroke="#000000" points="182.5,-50 182.5,-91 308.5,-91 308.5,-50 182.5,-50"/>
<text text-anchor="start" x="190.5" y="-79" font-family="Helvetica,sans-Serif" font-size="10.00" fill="#000000">ene.controllers.Abstract</text>
<text text-anchor="start" x="190.5" y="-68" font-family="Helvetica,sans-Serif" font-size="10.00" fill="#000000">Controller&lt; PlaylistModel</text>
<text text-anchor="middle" x="245.5" y="-57" font-family="Helvetica,sans-Serif" font-size="10.00" fill="#000000"> &gt;::setModel</text>
</a>
</g>
</g>
<!-- Node3&#45;&gt;Node15 -->
<g id="edge13" class="edge">
<title>Node3&#45;&gt;Node15</title>
<path fill="none" stroke="#191970" d="M136.1185,-70.5C147.8389,-70.5 160.0675,-70.5 171.9238,-70.5"/>
<polygon fill="#191970" stroke="#191970" points="172.2249,-74.0001 182.2249,-70.5 172.2249,-67.0001 172.2249,-74.0001"/>
</g>
<!-- Node16 -->
<g id="node14" class="node">
<title>Node16</title>
<g id="a_node14"><a xlink:href="classene_1_1controllers_1_1PlaylistController.html#aae69f5349dbd5cd78e356844adb8d6bc" target="_top" xlink:title="ene.controllers.Playlist\lController.setPlaylistFilename">
<polygon fill="none" stroke="#000000" points="172,-.5 172,-30.5 319,-30.5 319,-.5 172,-.5"/>
<text text-anchor="start" x="180" y="-18.5" font-family="Helvetica,sans-Serif" font-size="10.00" fill="#000000">ene.controllers.Playlist</text>
<text text-anchor="middle" x="245.5" y="-7.5" font-family="Helvetica,sans-Serif" font-size="10.00" fill="#000000">Controller.setPlaylistFilename</text>
</a>
</g>
</g>
<!-- Node3&#45;&gt;Node16 -->
<g id="edge14" class="edge">
<title>Node3&#45;&gt;Node16</title>
<path fill="none" stroke="#191970" d="M116.5027,-55.471C138.4175,-48.6805 164.486,-40.6029 187.4336,-33.4924"/>
<polygon fill="#191970" stroke="#191970" points="188.54,-36.8138 197.056,-30.5108 186.4681,-30.1275 188.54,-36.8138"/>
</g>
<!-- Node5 -->
<g id="node3" class="node">
<title>Node5</title>
<g id="a_node3"><a xlink:href="classene_1_1controllers_1_1PlaylistController.html#ad5e0bbbd2de4359b178fdf0458447d77" target="_top" xlink:title="ene.controllers.Playlist\lController.add">
<polygon fill="none" stroke="#000000" points="372.5,-159.5 372.5,-189.5 488.5,-189.5 488.5,-159.5 372.5,-159.5"/>
<text text-anchor="start" x="380.5" y="-177.5" font-family="Helvetica,sans-Serif" font-size="10.00" fill="#000000">ene.controllers.Playlist</text>
<text text-anchor="middle" x="430.5" y="-166.5" font-family="Helvetica,sans-Serif" font-size="10.00" fill="#000000">Controller.add</text>
</a>
</g>
</g>
<!-- Node4&#45;&gt;Node5 -->
<g id="edge2" class="edge">
<title>Node4&#45;&gt;Node5</title>
<path fill="none" stroke="#191970" d="M302.2633,-140.5346C321.7968,-145.7083 343.8426,-151.5475 364.0759,-156.9066"/>
<polygon fill="#191970" stroke="#191970" points="363.2812,-160.3167 373.844,-159.4938 365.0735,-153.55 363.2812,-160.3167"/>
</g>
<!-- Node12 -->
<g id="node10" class="node">
<title>Node12</title>
<g id="a_node10"><a xlink:href="classene_1_1models_1_1TrackModel.html#ab0db9bf0054a77ed2879695a379e3bd9" target="_top" xlink:title="ene.models.TrackModel.detect\lArtist">
<polygon fill="none" stroke="#000000" points="355,-110.5 355,-140.5 506,-140.5 506,-110.5 355,-110.5"/>
<text text-anchor="start" x="363" y="-128.5" font-family="Helvetica,sans-Serif" font-size="10.00" fill="#000000">ene.models.TrackModel.detect</text>
<text text-anchor="middle" x="430.5" y="-117.5" font-family="Helvetica,sans-Serif" font-size="10.00" fill="#000000">Artist</text>
</a>
</g>
</g>
<!-- Node4&#45;&gt;Node12 -->
<g id="edge9" class="edge">
<title>Node4&#45;&gt;Node12</title>
<path fill="none" stroke="#191970" d="M304.5438,-125.5C317.2679,-125.5 330.9682,-125.5 344.483,-125.5"/>
<polygon fill="#191970" stroke="#191970" points="344.7624,-129.0001 354.7624,-125.5 344.7624,-122.0001 344.7624,-129.0001"/>
</g>
<!-- Node14 -->
<g id="node12" class="node">
<title>Node14</title>
<g id="a_node12"><a xlink:href="classene_1_1models_1_1TrackModel.html#a860b368d4cb6d81e7504cbf979c0cad7" target="_top" xlink:title="ene.models.TrackModel.detect\lTitle">
<polygon fill="none" stroke="#000000" points="355,-61.5 355,-91.5 506,-91.5 506,-61.5 355,-61.5"/>
<text text-anchor="start" x="363" y="-79.5" font-family="Helvetica,sans-Serif" font-size="10.00" fill="#000000">ene.models.TrackModel.detect</text>
<text text-anchor="middle" x="430.5" y="-68.5" font-family="Helvetica,sans-Serif" font-size="10.00" fill="#000000">Title</text>
</a>
</g>
</g>
<!-- Node4&#45;&gt;Node14 -->
<g id="edge11" class="edge">
<title>Node4&#45;&gt;Node14</title>
<path fill="none" stroke="#191970" d="M302.2633,-110.4654C321.7968,-105.2917 343.8426,-99.4525 364.0759,-94.0934"/>
<polygon fill="#191970" stroke="#191970" points="365.0735,-97.45 373.844,-91.5062 363.2812,-90.6833 365.0735,-97.45"/>
</g>
<!-- Node6 -->
<g id="node4" class="node">
<title>Node6</title>
<g id="a_node4"><a xlink:href="classene_1_1controllers_1_1AbstractController.html#a9a5afba01d0004a64db4cb14c23e0bbd" target="_top" xlink:title="ene.controllers.Abstract\lController\&lt; PlaylistModel\l \&gt;::getModel">
<polygon fill="none" stroke="#000000" points="552.5,-209 552.5,-250 678.5,-250 678.5,-209 552.5,-209"/>
<text text-anchor="start" x="560.5" y="-238" font-family="Helvetica,sans-Serif" font-size="10.00" fill="#000000">ene.controllers.Abstract</text>
<text text-anchor="start" x="560.5" y="-227" font-family="Helvetica,sans-Serif" font-size="10.00" fill="#000000">Controller&lt; PlaylistModel</text>
<text text-anchor="middle" x="615.5" y="-216" font-family="Helvetica,sans-Serif" font-size="10.00" fill="#000000"> &gt;::getModel</text>
</a>
</g>
</g>
<!-- Node5&#45;&gt;Node6 -->
<g id="edge3" class="edge">
<title>Node5&#45;&gt;Node6</title>
<path fill="none" stroke="#191970" d="M481.0521,-189.529C500.0774,-195.1852 522.1065,-201.7344 542.7574,-207.8738"/>
<polygon fill="#191970" stroke="#191970" points="541.8651,-211.2599 552.4478,-210.7548 543.8599,-204.5501 541.8651,-211.2599"/>
</g>
<!-- Node7 -->
<g id="node5" class="node">
<title>Node7</title>
<g id="a_node5"><a xlink:href="classene_1_1controllers_1_1PlaylistController.html#ab949ed1ee47aec9ba039d92a36435809" target="_top" xlink:title="ene.controllers.Playlist\lController.saveToFile">
<polygon fill="none" stroke="#000000" points="557.5,-159.5 557.5,-189.5 673.5,-189.5 673.5,-159.5 557.5,-159.5"/>
<text text-anchor="start" x="565.5" y="-177.5" font-family="Helvetica,sans-Serif" font-size="10.00" fill="#000000">ene.controllers.Playlist</text>
<text text-anchor="middle" x="615.5" y="-166.5" font-family="Helvetica,sans-Serif" font-size="10.00" fill="#000000">Controller.saveToFile</text>
</a>
</g>
</g>
<!-- Node5&#45;&gt;Node7 -->
<g id="edge4" class="edge">
<title>Node5&#45;&gt;Node7</title>
<path fill="none" stroke="#191970" d="M488.5276,-174.5C507.1208,-174.5 527.8826,-174.5 547.1428,-174.5"/>
<polygon fill="#191970" stroke="#191970" points="547.3605,-178.0001 557.3605,-174.5 547.3605,-171.0001 547.3605,-178.0001"/>
</g>
<!-- Node11 -->
<g id="node9" class="node">
<title>Node11</title>
<g id="a_node9"><a xlink:href="classene_1_1controllers_1_1PlaylistController.html#ad1d7aec30633c29764592d730354cb83" target="_top" xlink:title="ene.controllers.Playlist\lController.getPlaylistFilename">
<polygon fill="none" stroke="#000000" points="542,-110.5 542,-140.5 689,-140.5 689,-110.5 542,-110.5"/>
<text text-anchor="start" x="550" y="-128.5" font-family="Helvetica,sans-Serif" font-size="10.00" fill="#000000">ene.controllers.Playlist</text>
<text text-anchor="middle" x="615.5" y="-117.5" font-family="Helvetica,sans-Serif" font-size="10.00" fill="#000000">Controller.getPlaylistFilename</text>
</a>
</g>
</g>
<!-- Node5&#45;&gt;Node11 -->
<g id="edge8" class="edge">
<title>Node5&#45;&gt;Node11</title>
<path fill="none" stroke="#191970" d="M487.2633,-159.4654C506.7968,-154.2917 528.8426,-148.4525 549.0759,-143.0934"/>
<polygon fill="#191970" stroke="#191970" points="550.0735,-146.45 558.844,-140.5062 548.2812,-139.6833 550.0735,-146.45"/>
</g>
<!-- Node8 -->
<g id="node6" class="node">
<title>Node8</title>
<g id="a_node6"><a xlink:href="classene_1_1models_1_1TrackModel.html#a04afba3cc5098c28ebd394fb7ac920ba" target="_top" xlink:title="ene.models.TrackModel.get\lArtist">
<polygon fill="none" stroke="#000000" points="725,-208.5 725,-238.5 862,-238.5 862,-208.5 725,-208.5"/>
<text text-anchor="start" x="733" y="-226.5" font-family="Helvetica,sans-Serif" font-size="10.00" fill="#000000">ene.models.TrackModel.get</text>
<text text-anchor="middle" x="793.5" y="-215.5" font-family="Helvetica,sans-Serif" font-size="10.00" fill="#000000">Artist</text>
</a>
</g>
</g>
<!-- Node7&#45;&gt;Node8 -->
<g id="edge5" class="edge">
<title>Node7&#45;&gt;Node8</title>
<path fill="none" stroke="#191970" d="M670.3583,-189.6014C688.8865,-194.7019 709.7416,-200.4429 728.9495,-205.7305"/>
<polygon fill="#191970" stroke="#191970" points="728.2525,-209.1687 738.8228,-208.4484 730.1104,-202.4198 728.2525,-209.1687"/>
</g>
<!-- Node9 -->
<g id="node7" class="node">
<title>Node9</title>
<g id="a_node7"><a xlink:href="classene_1_1models_1_1TrackModel.html#a5bac0e2b6c87c93eef2802d9d10bf3c1" target="_top" xlink:title="ene.models.TrackModel.get\lTitle">
<polygon fill="none" stroke="#000000" points="725,-159.5 725,-189.5 862,-189.5 862,-159.5 725,-159.5"/>
<text text-anchor="start" x="733" y="-177.5" font-family="Helvetica,sans-Serif" font-size="10.00" fill="#000000">ene.models.TrackModel.get</text>
<text text-anchor="middle" x="793.5" y="-166.5" font-family="Helvetica,sans-Serif" font-size="10.00" fill="#000000">Title</text>
</a>
</g>
</g>
<!-- Node7&#45;&gt;Node9 -->
<g id="edge6" class="edge">
<title>Node7&#45;&gt;Node9</title>
<path fill="none" stroke="#191970" d="M673.7839,-174.5C686.792,-174.5 700.798,-174.5 714.485,-174.5"/>
<polygon fill="#191970" stroke="#191970" points="714.8676,-178.0001 724.8675,-174.5 714.8675,-171.0001 714.8676,-178.0001"/>
</g>
<!-- Node10 -->
<g id="node8" class="node">
<title>Node10</title>
<g id="a_node8"><a xlink:href="classene_1_1models_1_1TrackModel.html#aab88fe151b093dba71ad9f9ab5c6959d" target="_top" xlink:title="ene.models.TrackModel.get\lFilename">
<polygon fill="none" stroke="#000000" points="725,-110.5 725,-140.5 862,-140.5 862,-110.5 725,-110.5"/>
<text text-anchor="start" x="733" y="-128.5" font-family="Helvetica,sans-Serif" font-size="10.00" fill="#000000">ene.models.TrackModel.get</text>
<text text-anchor="middle" x="793.5" y="-117.5" font-family="Helvetica,sans-Serif" font-size="10.00" fill="#000000">Filename</text>
</a>
</g>
</g>
<!-- Node7&#45;&gt;Node10 -->
<g id="edge7" class="edge">
<title>Node7&#45;&gt;Node10</title>
<path fill="none" stroke="#191970" d="M670.3583,-159.3986C688.8865,-154.2981 709.7416,-148.5571 728.9495,-143.2695"/>
<polygon fill="#191970" stroke="#191970" points="730.1104,-146.5802 738.8228,-140.5516 728.2525,-139.8313 730.1104,-146.5802"/>
</g>
<!-- Node13 -->
<g id="node11" class="node">
<title>Node13</title>
<g id="a_node11"><a xlink:href="classene_1_1models_1_1TrackModel.html#a3bd9746678863a59cb9b7ec404f1f05e" target="_top" xlink:title="ene.models.TrackModel.cut\lFilenameFromPath">
<polygon fill="none" stroke="#000000" points="547,-61.5 547,-91.5 684,-91.5 684,-61.5 547,-61.5"/>
<text text-anchor="start" x="555" y="-79.5" font-family="Helvetica,sans-Serif" font-size="10.00" fill="#000000">ene.models.TrackModel.cut</text>
<text text-anchor="middle" x="615.5" y="-68.5" font-family="Helvetica,sans-Serif" font-size="10.00" fill="#000000">FilenameFromPath</text>
</a>
</g>
</g>
<!-- Node12&#45;&gt;Node13 -->
<g id="edge10" class="edge">
<title>Node12&#45;&gt;Node13</title>
<path fill="none" stroke="#191970" d="M487.2633,-110.4654C506.7968,-105.2917 528.8426,-99.4525 549.0759,-94.0934"/>
<polygon fill="#191970" stroke="#191970" points="550.0735,-97.45 558.844,-91.5062 548.2812,-90.6833 550.0735,-97.45"/>
</g>
<!-- Node14&#45;&gt;Node13 -->
<g id="edge12" class="edge">
<title>Node14&#45;&gt;Node13</title>
<path fill="none" stroke="#191970" d="M506.0134,-76.5C516.1294,-76.5 526.5261,-76.5 536.6969,-76.5"/>
<polygon fill="#191970" stroke="#191970" points="536.7736,-80.0001 546.7736,-76.5 536.7735,-73.0001 536.7736,-80.0001"/>
</g>
</g>
</svg>
