<?xml version="1.0" encoding="UTF-8" standalone="no"?>
<!DOCTYPE svg PUBLIC "-//W3C//DTD SVG 1.1//EN"
 "http://www.w3.org/Graphics/SVG/1.1/DTD/svg11.dtd">
<!-- Generated by graphviz version 2.40.1 (20161225.0304)
 -->
<!-- Title: ene.controllers.LibraryController.edit Pages: 1 -->
<svg width="642pt" height="225pt"
 viewBox="0.00 0.00 642.00 224.50" xmlns="http://www.w3.org/2000/svg" xmlns:xlink="http://www.w3.org/1999/xlink">
<g id="graph0" class="graph" transform="scale(1 1) rotate(0) translate(4 220.5)">
<title>ene.controllers.LibraryController.edit</title>
<!-- Node44 -->
<g id="node1" class="node">
<title>Node44</title>
<polygon fill="#bfbfbf" stroke="#000000" points="0,-131 0,-150 173,-150 173,-131 0,-131"/>
<text text-anchor="middle" x="86.5" y="-138" font-family="Helvetica,sans-Serif" font-size="10.00" fill="#000000">ene.controllers.LibraryController.edit</text>
</g>
<!-- Node45 -->
<g id="node2" class="node">
<title>Node45</title>
<g id="a_node2"><a xlink:href="classene_1_1controllers_1_1AbstractController.html#a9a5afba01d0004a64db4cb14c23e0bbd" target="_top" xlink:title="ene.controllers.Abstract\lController\&lt; LibraryModel\l \&gt;::getModel">
<polygon fill="none" stroke="#000000" points="237,-148 237,-189 360,-189 360,-148 237,-148"/>
<text text-anchor="start" x="245" y="-177" font-family="Helvetica,sans-Serif" font-size="10.00" fill="#000000">ene.controllers.Abstract</text>
<text text-anchor="start" x="245" y="-166" font-family="Helvetica,sans-Serif" font-size="10.00" fill="#000000">Controller&lt; LibraryModel</text>
<text text-anchor="middle" x="298.5" y="-155" font-family="Helvetica,sans-Serif" font-size="10.00" fill="#000000"> &gt;::getModel</text>
</a>
</g>
</g>
<!-- Node44&#45;&gt;Node45 -->
<g id="edge1" class="edge">
<title>Node44&#45;&gt;Node45</title>
<path fill="none" stroke="#191970" d="M158.5693,-150.0186C180.6375,-152.9333 204.899,-156.1376 226.9335,-159.0478"/>
<polygon fill="#191970" stroke="#191970" points="226.5127,-162.5226 236.8849,-160.3622 227.4293,-155.5828 226.5127,-162.5226"/>
</g>
<!-- Node46 -->
<g id="node3" class="node">
<title>Node46</title>
<g id="a_node3"><a xlink:href="classene_1_1controllers_1_1LibraryController.html#aa40dceee9b0024082b71ab641a087c2e" target="_top" xlink:title="ene.controllers.LibraryController.save\lToFile">
<polygon fill="none" stroke="#000000" points="209,-98.5 209,-128.5 388,-128.5 388,-98.5 209,-98.5"/>
<text text-anchor="start" x="217" y="-116.5" font-family="Helvetica,sans-Serif" font-size="10.00" fill="#000000">ene.controllers.LibraryController.save</text>
<text text-anchor="middle" x="298.5" y="-105.5" font-family="Helvetica,sans-Serif" font-size="10.00" fill="#000000">ToFile</text>
</a>
</g>
</g>
<!-- Node44&#45;&gt;Node46 -->
<g id="edge2" class="edge">
<title>Node44&#45;&gt;Node46</title>
<path fill="none" stroke="#191970" d="M161.2433,-130.9808C173.3777,-129.4354 186.1122,-127.8135 198.7287,-126.2067"/>
<polygon fill="#191970" stroke="#191970" points="199.3301,-129.6585 208.8078,-124.9231 198.4457,-122.7146 199.3301,-129.6585"/>
</g>
<!-- Node47 -->
<g id="node4" class="node">
<title>Node47</title>
<g id="a_node4"><a xlink:href="interfaceene_1_1interfaces_1_1DatabaseConnection.html#aabff21f4c6d43139690fc93cae679e46" target="_top" xlink:title="ene.interfaces.DatabaseConnection.execute">
<polygon fill="none" stroke="#000000" points="424,-197 424,-216 634,-216 634,-197 424,-197"/>
<text text-anchor="middle" x="529" y="-204" font-family="Helvetica,sans-Serif" font-size="10.00" fill="#000000">ene.interfaces.DatabaseConnection.execute</text>
</a>
</g>
</g>
<!-- Node46&#45;&gt;Node47 -->
<g id="edge3" class="edge">
<title>Node46&#45;&gt;Node47</title>
<path fill="none" stroke="#191970" d="M369.8781,-128.6256C376.2719,-131.386 382.426,-134.6474 388,-138.5 410.2304,-153.865 401.0768,-173.1892 424,-187.5 427.3516,-189.5924 430.8735,-191.468 434.5141,-193.1484"/>
<polygon fill="#191970" stroke="#191970" points="433.1979,-196.3914 443.7788,-196.9358 435.8468,-189.912 433.1979,-196.3914"/>
</g>
<!-- Node48 -->
<g id="node5" class="node">
<title>Node48</title>
<g id="a_node5"><a xlink:href="classene_1_1models_1_1TrackModel.html#aab88fe151b093dba71ad9f9ab5c6959d" target="_top" xlink:title="ene.models.TrackModel.get\lFilename">
<polygon fill="none" stroke="#000000" points="460.5,-147.5 460.5,-177.5 597.5,-177.5 597.5,-147.5 460.5,-147.5"/>
<text text-anchor="start" x="468.5" y="-165.5" font-family="Helvetica,sans-Serif" font-size="10.00" fill="#000000">ene.models.TrackModel.get</text>
<text text-anchor="middle" x="529" y="-154.5" font-family="Helvetica,sans-Serif" font-size="10.00" fill="#000000">Filename</text>
</a>
</g>
</g>
<!-- Node46&#45;&gt;Node48 -->
<g id="edge4" class="edge">
<title>Node46&#45;&gt;Node48</title>
<path fill="none" stroke="#191970" d="M369.2241,-128.5346C394.9228,-133.9977 424.1118,-140.2027 450.4466,-145.801"/>
<polygon fill="#191970" stroke="#191970" points="449.8775,-149.2582 460.3867,-147.9141 451.3331,-142.4112 449.8775,-149.2582"/>
</g>
<!-- Node49 -->
<g id="node6" class="node">
<title>Node49</title>
<g id="a_node6"><a xlink:href="classene_1_1models_1_1TrackModel.html#a04afba3cc5098c28ebd394fb7ac920ba" target="_top" xlink:title="ene.models.TrackModel.get\lArtist">
<polygon fill="none" stroke="#000000" points="460.5,-98.5 460.5,-128.5 597.5,-128.5 597.5,-98.5 460.5,-98.5"/>
<text text-anchor="start" x="468.5" y="-116.5" font-family="Helvetica,sans-Serif" font-size="10.00" fill="#000000">ene.models.TrackModel.get</text>
<text text-anchor="middle" x="529" y="-105.5" font-family="Helvetica,sans-Serif" font-size="10.00" fill="#000000">Artist</text>
</a>
</g>
</g>
<!-- Node46&#45;&gt;Node49 -->
<g id="edge5" class="edge">
<title>Node46&#45;&gt;Node49</title>
<path fill="none" stroke="#191970" d="M388.2773,-113.5C408.622,-113.5 430.0814,-113.5 449.9445,-113.5"/>
<polygon fill="#191970" stroke="#191970" points="450.1717,-117.0001 460.1717,-113.5 450.1717,-110.0001 450.1717,-117.0001"/>
</g>
<!-- Node50 -->
<g id="node7" class="node">
<title>Node50</title>
<g id="a_node7"><a xlink:href="classene_1_1models_1_1TrackModel.html#a5bac0e2b6c87c93eef2802d9d10bf3c1" target="_top" xlink:title="ene.models.TrackModel.get\lTitle">
<polygon fill="none" stroke="#000000" points="460.5,-49.5 460.5,-79.5 597.5,-79.5 597.5,-49.5 460.5,-49.5"/>
<text text-anchor="start" x="468.5" y="-67.5" font-family="Helvetica,sans-Serif" font-size="10.00" fill="#000000">ene.models.TrackModel.get</text>
<text text-anchor="middle" x="529" y="-56.5" font-family="Helvetica,sans-Serif" font-size="10.00" fill="#000000">Title</text>
</a>
</g>
</g>
<!-- Node46&#45;&gt;Node50 -->
<g id="edge6" class="edge">
<title>Node46&#45;&gt;Node50</title>
<path fill="none" stroke="#191970" d="M369.2241,-98.4654C394.9228,-93.0023 424.1118,-86.7973 450.4466,-81.199"/>
<polygon fill="#191970" stroke="#191970" points="451.3331,-84.5888 460.3867,-79.0859 449.8775,-77.7418 451.3331,-84.5888"/>
</g>
<!-- Node51 -->
<g id="node8" class="node">
<title>Node51</title>
<g id="a_node8"><a xlink:href="classene_1_1models_1_1TrackModel.html#a2c57f7fe3f410c0e914af9a79de57346" target="_top" xlink:title="ene.models.TrackModel.get\lGenre">
<polygon fill="none" stroke="#000000" points="460.5,-.5 460.5,-30.5 597.5,-30.5 597.5,-.5 460.5,-.5"/>
<text text-anchor="start" x="468.5" y="-18.5" font-family="Helvetica,sans-Serif" font-size="10.00" fill="#000000">ene.models.TrackModel.get</text>
<text text-anchor="middle" x="529" y="-7.5" font-family="Helvetica,sans-Serif" font-size="10.00" fill="#000000">Genre</text>
</a>
</g>
</g>
<!-- Node46&#45;&gt;Node51 -->
<g id="edge7" class="edge">
<title>Node46&#45;&gt;Node51</title>
<path fill="none" stroke="#191970" d="M320.1604,-98.2374C344.4092,-81.801 385.3813,-55.9378 424,-40.5 432.4336,-37.1287 441.4375,-34.1378 450.4935,-31.5042"/>
<polygon fill="#191970" stroke="#191970" points="451.6122,-34.8262 460.3162,-28.7855 449.7449,-28.0799 451.6122,-34.8262"/>
</g>
</g>
</svg>
