<?xml version="1.0" encoding="UTF-8" standalone="no"?>
<!DOCTYPE svg PUBLIC "-//W3C//DTD SVG 1.1//EN"
 "http://www.w3.org/Graphics/SVG/1.1/DTD/svg11.dtd">
<!-- Generated by graphviz version 2.40.1 (20161225.0304)
 -->
<!-- Title: ene.models.PlaylistModel.getLastAccess Pages: 1 -->
<svg width="684pt" height="39pt"
 viewBox="0.00 0.00 684.00 39.00" xmlns="http://www.w3.org/2000/svg" xmlns:xlink="http://www.w3.org/1999/xlink">
<g id="graph0" class="graph" transform="scale(1 1) rotate(0) translate(4 35)">
<title>ene.models.PlaylistModel.getLastAccess</title>
<!-- Node13 -->
<g id="node1" class="node">
<title>Node13</title>
<polygon fill="#bfbfbf" stroke="#000000" points="0,-.5 0,-30.5 145,-30.5 145,-.5 0,-.5"/>
<text text-anchor="start" x="8" y="-18.5" font-family="Helvetica,sans-Serif" font-size="10.00" fill="#000000">ene.models.PlaylistModel.get</text>
<text text-anchor="middle" x="72.5" y="-7.5" font-family="Helvetica,sans-Serif" font-size="10.00" fill="#000000">LastAccess</text>
</g>
<!-- Node14 -->
<g id="node2" class="node">
<title>Node14</title>
<g id="a_node2"><a xlink:href="classene_1_1views_1_1gui_1_1partial_1_1PlaylistView.html#aab891c82686652a49db41a3e1bc1f3b9" target="_top" xlink:title="ene.views.gui.partial.Playlist\lView.loadContent">
<polygon fill="none" stroke="#000000" points="181,-.5 181,-30.5 322,-30.5 322,-.5 181,-.5"/>
<text text-anchor="start" x="189" y="-18.5" font-family="Helvetica,sans-Serif" font-size="10.00" fill="#000000">ene.views.gui.partial.Playlist</text>
<text text-anchor="middle" x="251.5" y="-7.5" font-family="Helvetica,sans-Serif" font-size="10.00" fill="#000000">View.loadContent</text>
</a>
</g>
</g>
<!-- Node13&#45;&gt;Node14 -->
<g id="edge1" class="edge">
<title>Node13&#45;&gt;Node14</title>
<path fill="none" stroke="#191970" d="M155.1018,-15.5C163.716,-15.5 172.416,-15.5 180.8799,-15.5"/>
<polygon fill="#191970" stroke="#191970" points="155.0481,-12.0001 145.0481,-15.5 155.0481,-19.0001 155.0481,-12.0001"/>
</g>
<!-- Node15 -->
<g id="node3" class="node">
<title>Node15</title>
<g id="a_node3"><a xlink:href="classene_1_1views_1_1gui_1_1partial_1_1PlaylistView.html#ad2b87823589c6e8895d2d7b98438a2dc" target="_top" xlink:title="ene.views.gui.partial.Playlist\lView.update">
<polygon fill="none" stroke="#000000" points="358,-.5 358,-30.5 499,-30.5 499,-.5 358,-.5"/>
<text text-anchor="start" x="366" y="-18.5" font-family="Helvetica,sans-Serif" font-size="10.00" fill="#000000">ene.views.gui.partial.Playlist</text>
<text text-anchor="middle" x="428.5" y="-7.5" font-family="Helvetica,sans-Serif" font-size="10.00" fill="#000000">View.update</text>
</a>
</g>
</g>
<!-- Node14&#45;&gt;Node15 -->
<g id="edge2" class="edge">
<title>Node14&#45;&gt;Node15</title>
<path fill="none" stroke="#191970" d="M332.4937,-15.5C340.9728,-15.5 349.5444,-15.5 357.8942,-15.5"/>
<polygon fill="#191970" stroke="#191970" points="332.2182,-12.0001 322.2182,-15.5 332.2181,-19.0001 332.2182,-12.0001"/>
</g>
<!-- Node16 -->
<g id="node4" class="node">
<title>Node16</title>
<g id="a_node4"><a xlink:href="classene_1_1views_1_1gui_1_1partial_1_1PlaylistView.html#a8d541ff3e91c1492b2e47cc7272ca56d" target="_top" xlink:title="ene.views.gui.partial.Playlist\lView.render">
<polygon fill="none" stroke="#000000" points="535,-.5 535,-30.5 676,-30.5 676,-.5 535,-.5"/>
<text text-anchor="start" x="543" y="-18.5" font-family="Helvetica,sans-Serif" font-size="10.00" fill="#000000">ene.views.gui.partial.Playlist</text>
<text text-anchor="middle" x="605.5" y="-7.5" font-family="Helvetica,sans-Serif" font-size="10.00" fill="#000000">View.render</text>
</a>
</g>
</g>
<!-- Node15&#45;&gt;Node16 -->
<g id="edge3" class="edge">
<title>Node15&#45;&gt;Node16</title>
<path fill="none" stroke="#191970" d="M509.4937,-15.5C517.9728,-15.5 526.5444,-15.5 534.8942,-15.5"/>
<polygon fill="#191970" stroke="#191970" points="509.2182,-12.0001 499.2182,-15.5 509.2181,-19.0001 509.2182,-12.0001"/>
</g>
</g>
</svg>
