<?xml version="1.0" encoding="UTF-8" standalone="no"?>
<!DOCTYPE svg PUBLIC "-//W3C//DTD SVG 1.1//EN"
 "http://www.w3.org/Graphics/SVG/1.1/DTD/svg11.dtd">
<!-- Generated by graphviz version 2.40.1 (20161225.0304)
 -->
<!-- Title: ene.models.PlaylistModel.previousTrack Pages: 1 -->
<svg width="765pt" height="199pt"
 viewBox="0.00 0.00 765.00 198.58" xmlns="http://www.w3.org/2000/svg" xmlns:xlink="http://www.w3.org/1999/xlink">
<g id="graph0" class="graph" transform="scale(1 1) rotate(0) translate(4 194.5824)">
<title>ene.models.PlaylistModel.previousTrack</title>
<!-- Node17 -->
<g id="node1" class="node">
<title>Node17</title>
<polygon fill="#bfbfbf" stroke="#000000" points="0,-93.5 0,-123.5 168,-123.5 168,-93.5 0,-93.5"/>
<text text-anchor="start" x="8" y="-111.5" font-family="Helvetica,sans-Serif" font-size="10.00" fill="#000000">ene.models.PlaylistModel.previous</text>
<text text-anchor="middle" x="84" y="-100.5" font-family="Helvetica,sans-Serif" font-size="10.00" fill="#000000">Track</text>
</g>
<!-- Node18 -->
<g id="node2" class="node">
<title>Node18</title>
<g id="a_node2"><a xlink:href="classene_1_1models_1_1AbstractModel.html#a970306ac2228cbcb599f65476d8c80dd" target="_top" xlink:title="ene.models.AbstractModel.changed">
<polygon fill="none" stroke="#000000" points="385,-53 385,-72 558,-72 558,-53 385,-53"/>
<text text-anchor="middle" x="471.5" y="-60" font-family="Helvetica,sans-Serif" font-size="10.00" fill="#000000">ene.models.AbstractModel.changed</text>
</a>
</g>
</g>
<!-- Node17&#45;&gt;Node18 -->
<g id="edge1" class="edge">
<title>Node17&#45;&gt;Node18</title>
<path fill="none" stroke="#191970" d="M168.155,-105.0288C220.4015,-102.1617 288.8273,-97.1169 349,-88.5 373.6355,-84.9722 400.7321,-79.4008 423.1633,-74.3189"/>
<polygon fill="#191970" stroke="#191970" points="424.1559,-77.682 433.1157,-72.0274 422.5853,-70.8604 424.1559,-77.682"/>
</g>
<!-- Node20 -->
<g id="node4" class="node">
<title>Node20</title>
<g id="a_node4"><a xlink:href="classene_1_1models_1_1TrackListModel.html#a77a78d6a93e67e544d83bf5f4856d121" target="_top" xlink:title="ene.models.TrackListModel.getAll">
<polygon fill="none" stroke="#000000" points="389.5,-165 389.5,-184 553.5,-184 553.5,-165 389.5,-165"/>
<text text-anchor="middle" x="471.5" y="-172" font-family="Helvetica,sans-Serif" font-size="10.00" fill="#000000">ene.models.TrackListModel.getAll</text>
</a>
</g>
</g>
<!-- Node17&#45;&gt;Node20 -->
<g id="edge3" class="edge">
<title>Node17&#45;&gt;Node20</title>
<path fill="none" stroke="#191970" d="M102.9629,-123.6625C125.503,-140.6239 164.993,-167.085 204,-177.5 270.1099,-195.1516 348.7248,-191.4923 403.555,-185.2049"/>
<polygon fill="#191970" stroke="#191970" points="403.9987,-188.6768 413.5078,-184.0049 403.1607,-181.7272 403.9987,-188.6768"/>
</g>
<!-- Node21 -->
<g id="node5" class="node">
<title>Node21</title>
<g id="a_node5"><a xlink:href="classene_1_1models_1_1PlaylistModel.html#ad63fd499a74248dc9dadad29b9882fd2" target="_top" xlink:title="ene.models.PlaylistModel.get\lCurrentTrack">
<polygon fill="none" stroke="#000000" points="204,-137.5 204,-167.5 349,-167.5 349,-137.5 204,-137.5"/>
<text text-anchor="start" x="212" y="-155.5" font-family="Helvetica,sans-Serif" font-size="10.00" fill="#000000">ene.models.PlaylistModel.get</text>
<text text-anchor="middle" x="276.5" y="-144.5" font-family="Helvetica,sans-Serif" font-size="10.00" fill="#000000">CurrentTrack</text>
</a>
</g>
</g>
<!-- Node17&#45;&gt;Node21 -->
<g id="edge4" class="edge">
<title>Node17&#45;&gt;Node21</title>
<path fill="none" stroke="#191970" d="M149.7092,-123.5192C166.1889,-127.286 184.0012,-131.3574 200.9194,-135.2244"/>
<polygon fill="#191970" stroke="#191970" points="200.2319,-138.6575 210.7604,-137.4738 201.7917,-131.8335 200.2319,-138.6575"/>
</g>
<!-- Node22 -->
<g id="node6" class="node">
<title>Node22</title>
<g id="a_node6"><a xlink:href="classene_1_1models_1_1TrackModel.html#aab88fe151b093dba71ad9f9ab5c6959d" target="_top" xlink:title="ene.models.TrackModel.get\lFilename">
<polygon fill="none" stroke="#000000" points="208,-49.5 208,-79.5 345,-79.5 345,-49.5 208,-49.5"/>
<text text-anchor="start" x="216" y="-67.5" font-family="Helvetica,sans-Serif" font-size="10.00" fill="#000000">ene.models.TrackModel.get</text>
<text text-anchor="middle" x="276.5" y="-56.5" font-family="Helvetica,sans-Serif" font-size="10.00" fill="#000000">Filename</text>
</a>
</g>
</g>
<!-- Node17&#45;&gt;Node22 -->
<g id="edge6" class="edge">
<title>Node17&#45;&gt;Node22</title>
<path fill="none" stroke="#191970" d="M149.7092,-93.4808C166.1889,-89.714 184.0012,-85.6426 200.9194,-81.7756"/>
<polygon fill="#191970" stroke="#191970" points="201.7917,-85.1665 210.7604,-79.5262 200.2319,-78.3425 201.7917,-85.1665"/>
</g>
<!-- Node23 -->
<g id="node7" class="node">
<title>Node23</title>
<g id="a_node7"><a xlink:href="classene_1_1models_1_1PlaylistModel.html#a7150506b3801f97a2e38955a585bbd07" target="_top" xlink:title="ene.models.PlaylistModel.set\lCurrentTrack">
<polygon fill="none" stroke="#000000" points="204,-.5 204,-30.5 349,-30.5 349,-.5 204,-.5"/>
<text text-anchor="start" x="212" y="-18.5" font-family="Helvetica,sans-Serif" font-size="10.00" fill="#000000">ene.models.PlaylistModel.set</text>
<text text-anchor="middle" x="276.5" y="-7.5" font-family="Helvetica,sans-Serif" font-size="10.00" fill="#000000">CurrentTrack</text>
</a>
</g>
</g>
<!-- Node17&#45;&gt;Node23 -->
<g id="edge7" class="edge">
<title>Node17&#45;&gt;Node23</title>
<path fill="none" stroke="#191970" d="M107.1621,-93.2937C130.8021,-78.2321 168.9028,-55.2053 204,-39.5 208.128,-37.6528 212.443,-35.8718 216.8219,-34.1721"/>
<polygon fill="#191970" stroke="#191970" points="218.3097,-37.3531 226.4626,-30.587 215.8697,-30.7921 218.3097,-37.3531"/>
</g>
<!-- Node19 -->
<g id="node3" class="node">
<title>Node19</title>
<g id="a_node3"><a xlink:href="interfaceene_1_1interfaces_1_1PartialView.html#aae781d286eda4cbf8c57fdb877dde265" target="_top" xlink:title="ene.interfaces.PartialView.update">
<polygon fill="none" stroke="#000000" points="594,-53 594,-72 757,-72 757,-53 594,-53"/>
<text text-anchor="middle" x="675.5" y="-60" font-family="Helvetica,sans-Serif" font-size="10.00" fill="#000000">ene.interfaces.PartialView.update</text>
</a>
</g>
</g>
<!-- Node18&#45;&gt;Node19 -->
<g id="edge2" class="edge">
<title>Node18&#45;&gt;Node19</title>
<path fill="none" stroke="#191970" d="M558.0144,-62.5C566.4296,-62.5 574.9887,-62.5 583.4555,-62.5"/>
<polygon fill="#191970" stroke="#191970" points="583.7215,-66.0001 593.7215,-62.5 583.7214,-59.0001 583.7215,-66.0001"/>
</g>
<!-- Node21&#45;&gt;Node20 -->
<g id="edge5" class="edge">
<title>Node21&#45;&gt;Node20</title>
<path fill="none" stroke="#191970" d="M349.1108,-160.692C358.9375,-161.8006 369.1258,-162.9501 379.2387,-164.091"/>
<polygon fill="#191970" stroke="#191970" points="378.9809,-167.5841 389.3102,-165.2273 379.7657,-160.6282 378.9809,-167.5841"/>
</g>
<!-- Node23&#45;&gt;Node18 -->
<g id="edge8" class="edge">
<title>Node23&#45;&gt;Node18</title>
<path fill="none" stroke="#191970" d="M338.7354,-30.5003C365.6968,-36.9987 396.8161,-44.4993 422.1467,-50.6046"/>
<polygon fill="#191970" stroke="#191970" points="421.3631,-54.0159 431.9049,-52.9566 423.0034,-47.2108 421.3631,-54.0159"/>
</g>
</g>
</svg>
