<?xml version="1.0" encoding="UTF-8" standalone="no"?>
<!DOCTYPE svg PUBLIC "-//W3C//DTD SVG 1.1//EN"
 "http://www.w3.org/Graphics/SVG/1.1/DTD/svg11.dtd">
<!-- Generated by graphviz version 2.40.1 (20161225.0304)
 -->
<!-- Title: ene.models.PlayerModel.next Pages: 1 -->
<svg width="942pt" height="414pt"
 viewBox="0.00 0.00 942.00 414.00" xmlns="http://www.w3.org/2000/svg" xmlns:xlink="http://www.w3.org/1999/xlink">
<g id="graph0" class="graph" transform="scale(1 1) rotate(0) translate(4 410)">
<title>ene.models.PlayerModel.next</title>
<!-- Node62 -->
<g id="node1" class="node">
<title>Node62</title>
<polygon fill="#bfbfbf" stroke="#000000" points="0,-208 0,-227 146,-227 146,-208 0,-208"/>
<text text-anchor="middle" x="73" y="-215" font-family="Helvetica,sans-Serif" font-size="10.00" fill="#000000">ene.models.PlayerModel.next</text>
</g>
<!-- Node63 -->
<g id="node2" class="node">
<title>Node63</title>
<g id="a_node2"><a xlink:href="classene_1_1models_1_1PlaylistModel.html#ad63fd499a74248dc9dadad29b9882fd2" target="_top" xlink:title="ene.models.PlaylistModel.get\lCurrentTrack">
<polygon fill="none" stroke="#000000" points="374.5,-375.5 374.5,-405.5 519.5,-405.5 519.5,-375.5 374.5,-375.5"/>
<text text-anchor="start" x="382.5" y="-393.5" font-family="Helvetica,sans-Serif" font-size="10.00" fill="#000000">ene.models.PlaylistModel.get</text>
<text text-anchor="middle" x="447" y="-382.5" font-family="Helvetica,sans-Serif" font-size="10.00" fill="#000000">CurrentTrack</text>
</a>
</g>
</g>
<!-- Node62&#45;&gt;Node63 -->
<g id="edge1" class="edge">
<title>Node62&#45;&gt;Node63</title>
<path fill="none" stroke="#191970" d="M81.66,-227.0308C98.9694,-245.5341 139.8136,-286.5174 182,-309.5 239.3689,-340.7538 310.4418,-361.6422 364.5369,-374.3677"/>
<polygon fill="#191970" stroke="#191970" points="363.9022,-377.8131 374.433,-376.6495 365.475,-370.9921 363.9022,-377.8131"/>
</g>
<!-- Node65 -->
<g id="node4" class="node">
<title>Node65</title>
<g id="a_node4"><a xlink:href="classene_1_1models_1_1PlayerModel.html#a85b0de48a8e962642825c254f9c47fb0" target="_top" xlink:title="ene.models.PlayerModel.get\lPlaylist">
<polygon fill="none" stroke="#000000" points="187,-112.5 187,-142.5 327,-142.5 327,-112.5 187,-112.5"/>
<text text-anchor="start" x="195" y="-130.5" font-family="Helvetica,sans-Serif" font-size="10.00" fill="#000000">ene.models.PlayerModel.get</text>
<text text-anchor="middle" x="257" y="-119.5" font-family="Helvetica,sans-Serif" font-size="10.00" fill="#000000">Playlist</text>
</a>
</g>
</g>
<!-- Node62&#45;&gt;Node65 -->
<g id="edge3" class="edge">
<title>Node62&#45;&gt;Node65</title>
<path fill="none" stroke="#191970" d="M86.9206,-207.8556C107.1414,-194.1634 146.147,-168.9314 182,-152.5 186.9129,-150.2484 192.0888,-148.098 197.3306,-146.071"/>
<polygon fill="#191970" stroke="#191970" points="198.6359,-149.3199 206.7943,-142.5603 196.2013,-142.7569 198.6359,-149.3199"/>
</g>
<!-- Node66 -->
<g id="node5" class="node">
<title>Node66</title>
<g id="a_node5"><a xlink:href="classene_1_1models_1_1PlayerModel.html#a2c4655428b658dee3203787415a516a5" target="_top" xlink:title="ene.models.PlayerModel.load">
<polygon fill="none" stroke="#000000" points="184.5,-162 184.5,-181 329.5,-181 329.5,-162 184.5,-162"/>
<text text-anchor="middle" x="257" y="-169" font-family="Helvetica,sans-Serif" font-size="10.00" fill="#000000">ene.models.PlayerModel.load</text>
</a>
</g>
</g>
<!-- Node62&#45;&gt;Node66 -->
<g id="edge4" class="edge">
<title>Node62&#45;&gt;Node66</title>
<path fill="none" stroke="#191970" d="M111.1249,-207.9688C139.4966,-200.8758 178.4229,-191.1443 208.9287,-183.5178"/>
<polygon fill="#191970" stroke="#191970" points="210.0714,-186.8399 218.9239,-181.019 208.3736,-180.0489 210.0714,-186.8399"/>
</g>
<!-- Node74 -->
<g id="node13" class="node">
<title>Node74</title>
<g id="a_node13"><a xlink:href="classene_1_1models_1_1PlaylistModel.html#afba0932567d4d21976e3c37c8d80b634" target="_top" xlink:title="ene.models.PlaylistModel.next\lTrack">
<polygon fill="none" stroke="#000000" points="182,-269.5 182,-299.5 332,-299.5 332,-269.5 182,-269.5"/>
<text text-anchor="start" x="190" y="-287.5" font-family="Helvetica,sans-Serif" font-size="10.00" fill="#000000">ene.models.PlaylistModel.next</text>
<text text-anchor="middle" x="257" y="-276.5" font-family="Helvetica,sans-Serif" font-size="10.00" fill="#000000">Track</text>
</a>
</g>
</g>
<!-- Node62&#45;&gt;Node74 -->
<g id="edge12" class="edge">
<title>Node62&#45;&gt;Node74</title>
<path fill="none" stroke="#191970" d="M99.3627,-227.0995C127.1569,-237.2202 171.6285,-253.4136 206.261,-266.0244"/>
<polygon fill="#191970" stroke="#191970" points="205.1522,-269.3454 215.7462,-269.4782 207.5473,-262.7679 205.1522,-269.3454"/>
</g>
<!-- Node64 -->
<g id="node3" class="node">
<title>Node64</title>
<g id="a_node3"><a xlink:href="classene_1_1models_1_1TrackListModel.html#a77a78d6a93e67e544d83bf5f4856d121" target="_top" xlink:title="ene.models.TrackListModel.getAll">
<polygon fill="none" stroke="#000000" points="566.5,-359 566.5,-378 730.5,-378 730.5,-359 566.5,-359"/>
<text text-anchor="middle" x="648.5" y="-366" font-family="Helvetica,sans-Serif" font-size="10.00" fill="#000000">ene.models.TrackListModel.getAll</text>
</a>
</g>
</g>
<!-- Node63&#45;&gt;Node64 -->
<g id="edge2" class="edge">
<title>Node63&#45;&gt;Node64</title>
<path fill="none" stroke="#191970" d="M519.7461,-382.5575C531.5474,-381.269 543.9056,-379.9197 556.0995,-378.5884"/>
<polygon fill="#191970" stroke="#191970" points="556.7269,-382.0408 566.2879,-377.476 555.9671,-375.0821 556.7269,-382.0408"/>
</g>
<!-- Node67 -->
<g id="node6" class="node">
<title>Node67</title>
<g id="a_node6"><a xlink:href="classene_1_1AbstractObject.html#aff9619cf289ec83735b6c6ca2c12e020" target="_top" xlink:title="ene.AbstractObject.debug\lInfoAbout">
<polygon fill="none" stroke="#000000" points="382,-24.5 382,-54.5 512,-54.5 512,-24.5 382,-24.5"/>
<text text-anchor="start" x="390" y="-42.5" font-family="Helvetica,sans-Serif" font-size="10.00" fill="#000000">ene.AbstractObject.debug</text>
<text text-anchor="middle" x="447" y="-31.5" font-family="Helvetica,sans-Serif" font-size="10.00" fill="#000000">InfoAbout</text>
</a>
</g>
</g>
<!-- Node66&#45;&gt;Node67 -->
<g id="edge5" class="edge">
<title>Node66&#45;&gt;Node67</title>
<path fill="none" stroke="#191970" d="M315.0673,-161.9534C321.2208,-159.2702 327.0337,-155.8517 332,-151.5 363.4733,-123.922 337.1676,-92.7927 368,-64.5 369.7224,-62.9195 371.5444,-61.4389 373.4465,-60.0519"/>
<polygon fill="#191970" stroke="#191970" points="375.6178,-62.8221 382.2384,-54.5505 371.9046,-56.888 375.6178,-62.8221"/>
</g>
<!-- Node70 -->
<g id="node9" class="node">
<title>Node70</title>
<g id="a_node9"><a xlink:href="classene_1_1models_1_1PlayerModel.html#aa03431aa1bae96eacf2019c56fd18f45" target="_top" xlink:title="ene.models.PlayerModel.getClip">
<polygon fill="none" stroke="#000000" points="368,-74 368,-93 526,-93 526,-74 368,-74"/>
<text text-anchor="middle" x="447" y="-81" font-family="Helvetica,sans-Serif" font-size="10.00" fill="#000000">ene.models.PlayerModel.getClip</text>
</a>
</g>
</g>
<!-- Node66&#45;&gt;Node70 -->
<g id="edge8" class="edge">
<title>Node66&#45;&gt;Node70</title>
<path fill="none" stroke="#191970" d="M311.0001,-161.8825C318.4182,-159.2234 325.6556,-155.8301 332,-151.5 354.3205,-136.2663 345.494,-117.4583 368,-102.5 371.1206,-100.4259 374.4442,-98.5777 377.8949,-96.9308"/>
<polygon fill="#191970" stroke="#191970" points="379.3886,-100.1002 387.2745,-93.0247 376.6974,-93.6382 379.3886,-100.1002"/>
</g>
<!-- Node71 -->
<g id="node10" class="node">
<title>Node71</title>
<g id="a_node10"><a xlink:href="classene_1_1models_1_1TrackModel.html#aab88fe151b093dba71ad9f9ab5c6959d" target="_top" xlink:title="ene.models.TrackModel.get\lFilename">
<polygon fill="none" stroke="#000000" points="378.5,-200.5 378.5,-230.5 515.5,-230.5 515.5,-200.5 378.5,-200.5"/>
<text text-anchor="start" x="386.5" y="-218.5" font-family="Helvetica,sans-Serif" font-size="10.00" fill="#000000">ene.models.TrackModel.get</text>
<text text-anchor="middle" x="447" y="-207.5" font-family="Helvetica,sans-Serif" font-size="10.00" fill="#000000">Filename</text>
</a>
</g>
</g>
<!-- Node66&#45;&gt;Node71 -->
<g id="edge9" class="edge">
<title>Node66&#45;&gt;Node71</title>
<path fill="none" stroke="#191970" d="M298.2272,-181.0473C319.8099,-186.0455 346.9139,-192.3222 372.0545,-198.1442"/>
<polygon fill="#191970" stroke="#191970" points="371.4132,-201.5882 381.945,-200.4346 372.9925,-194.7687 371.4132,-201.5882"/>
</g>
<!-- Node72 -->
<g id="node11" class="node">
<title>Node72</title>
<g id="a_node11"><a xlink:href="classene_1_1models_1_1PlayerModel.html#a5617391131179365729686dc4eea1ea1" target="_top" xlink:title="ene.models.PlayerModel.setClip">
<polygon fill="none" stroke="#000000" points="368,-162 368,-181 526,-181 526,-162 368,-162"/>
<text text-anchor="middle" x="447" y="-169" font-family="Helvetica,sans-Serif" font-size="10.00" fill="#000000">ene.models.PlayerModel.setClip</text>
</a>
</g>
</g>
<!-- Node66&#45;&gt;Node72 -->
<g id="edge10" class="edge">
<title>Node66&#45;&gt;Node72</title>
<path fill="none" stroke="#191970" d="M329.6441,-171.5C338.7993,-171.5 348.2481,-171.5 357.6236,-171.5"/>
<polygon fill="#191970" stroke="#191970" points="357.751,-175.0001 367.7509,-171.5 357.7509,-168.0001 357.751,-175.0001"/>
</g>
<!-- Node73 -->
<g id="node12" class="node">
<title>Node73</title>
<g id="a_node12"><a xlink:href="classene_1_1models_1_1PlayerModel.html#a921a00136726aee3bcababbd6c9b2e3e" target="_top" xlink:title="ene.models.PlayerModel.set\lCurrentTrack">
<polygon fill="none" stroke="#000000" points="377,-112.5 377,-142.5 517,-142.5 517,-112.5 377,-112.5"/>
<text text-anchor="start" x="385" y="-130.5" font-family="Helvetica,sans-Serif" font-size="10.00" fill="#000000">ene.models.PlayerModel.set</text>
<text text-anchor="middle" x="447" y="-119.5" font-family="Helvetica,sans-Serif" font-size="10.00" fill="#000000">CurrentTrack</text>
</a>
</g>
</g>
<!-- Node66&#45;&gt;Node73 -->
<g id="edge11" class="edge">
<title>Node66&#45;&gt;Node73</title>
<path fill="none" stroke="#191970" d="M298.2272,-161.9527C319.8099,-156.9545 346.9139,-150.6778 372.0545,-144.8558"/>
<polygon fill="#191970" stroke="#191970" points="372.9925,-148.2313 381.945,-142.5654 371.4132,-141.4118 372.9925,-148.2313"/>
</g>
<!-- Node68 -->
<g id="node7" class="node">
<title>Node68</title>
<g id="a_node7"><a xlink:href="classene_1_1AbstractObject.html#a9ce30d3321c7ce794df2f07bdaf3e47c" target="_top" xlink:title="ene.AbstractObject.console\lOutput">
<polygon fill="none" stroke="#000000" points="580,-.5 580,-30.5 717,-30.5 717,-.5 580,-.5"/>
<text text-anchor="start" x="588" y="-18.5" font-family="Helvetica,sans-Serif" font-size="10.00" fill="#000000">ene.AbstractObject.console</text>
<text text-anchor="middle" x="648.5" y="-7.5" font-family="Helvetica,sans-Serif" font-size="10.00" fill="#000000">Output</text>
</a>
</g>
</g>
<!-- Node67&#45;&gt;Node68 -->
<g id="edge6" class="edge">
<title>Node67&#45;&gt;Node68</title>
<path fill="none" stroke="#191970" d="M512.143,-31.741C530.4666,-29.5586 550.5934,-27.1613 569.626,-24.8944"/>
<polygon fill="#191970" stroke="#191970" points="570.2491,-28.345 579.7649,-23.6868 569.4211,-21.3942 570.2491,-28.345"/>
</g>
<!-- Node69 -->
<g id="node8" class="node">
<title>Node69</title>
<g id="a_node8"><a xlink:href="classene_1_1AbstractObject.html#a6ee0b669069e0c3ee320a6cf41af24fe" target="_top" xlink:title="ene.AbstractObject.isDebug\lModeEnabled">
<polygon fill="none" stroke="#000000" points="578.5,-49.5 578.5,-79.5 718.5,-79.5 718.5,-49.5 578.5,-49.5"/>
<text text-anchor="start" x="586.5" y="-67.5" font-family="Helvetica,sans-Serif" font-size="10.00" fill="#000000">ene.AbstractObject.isDebug</text>
<text text-anchor="middle" x="648.5" y="-56.5" font-family="Helvetica,sans-Serif" font-size="10.00" fill="#000000">ModeEnabled</text>
</a>
</g>
</g>
<!-- Node67&#45;&gt;Node69 -->
<g id="edge7" class="edge">
<title>Node67&#45;&gt;Node69</title>
<path fill="none" stroke="#191970" d="M512.143,-47.5823C530.0767,-49.8073 549.7378,-52.2466 568.4097,-54.5632"/>
<polygon fill="#191970" stroke="#191970" points="568.0105,-58.0405 578.3654,-55.7984 568.8724,-51.0937 568.0105,-58.0405"/>
</g>
<!-- Node74&#45;&gt;Node63 -->
<g id="edge13" class="edge">
<title>Node74&#45;&gt;Node63</title>
<path fill="none" stroke="#191970" d="M276.1598,-299.7153C297.6086,-316.2368 333.8483,-342.6486 368,-360.5 375.7462,-364.549 384.1658,-368.3383 392.5256,-371.7694"/>
<polygon fill="#191970" stroke="#191970" points="391.3137,-375.0539 401.8997,-375.4857 393.8936,-368.5466 391.3137,-375.0539"/>
</g>
<!-- Node74&#45;&gt;Node64 -->
<g id="edge15" class="edge">
<title>Node74&#45;&gt;Node64</title>
<path fill="none" stroke="#191970" d="M326.9924,-299.5175C403.5074,-315.9345 524.4777,-341.8898 594.165,-356.8419"/>
<polygon fill="#191970" stroke="#191970" points="593.5515,-360.2899 604.0633,-358.9657 595.02,-353.4456 593.5515,-360.2899"/>
</g>
<!-- Node74&#45;&gt;Node71 -->
<g id="edge14" class="edge">
<title>Node74&#45;&gt;Node71</title>
<path fill="none" stroke="#191970" d="M292.9984,-269.4805C314.6015,-260.6553 342.7093,-249.5015 368,-240.5 374.3741,-238.2313 381.0724,-235.9525 387.7609,-233.7437"/>
<polygon fill="#191970" stroke="#191970" points="389.0896,-236.992 397.5141,-230.5671 386.9218,-230.3361 389.0896,-236.992"/>
</g>
<!-- Node75 -->
<g id="node14" class="node">
<title>Node75</title>
<g id="a_node14"><a xlink:href="classene_1_1models_1_1PlaylistModel.html#a7150506b3801f97a2e38955a585bbd07" target="_top" xlink:title="ene.models.PlaylistModel.set\lCurrentTrack">
<polygon fill="none" stroke="#000000" points="374.5,-249.5 374.5,-279.5 519.5,-279.5 519.5,-249.5 374.5,-249.5"/>
<text text-anchor="start" x="382.5" y="-267.5" font-family="Helvetica,sans-Serif" font-size="10.00" fill="#000000">ene.models.PlaylistModel.set</text>
<text text-anchor="middle" x="447" y="-256.5" font-family="Helvetica,sans-Serif" font-size="10.00" fill="#000000">CurrentTrack</text>
</a>
</g>
</g>
<!-- Node74&#45;&gt;Node75 -->
<g id="edge16" class="edge">
<title>Node74&#45;&gt;Node75</title>
<path fill="none" stroke="#191970" d="M332.093,-276.5955C342.6262,-275.4867 353.5012,-274.342 364.1681,-273.2191"/>
<polygon fill="#191970" stroke="#191970" points="364.7348,-276.6789 374.3135,-272.1512 364.002,-269.7174 364.7348,-276.6789"/>
</g>
<!-- Node76 -->
<g id="node15" class="node">
<title>Node76</title>
<g id="a_node15"><a xlink:href="classene_1_1models_1_1AbstractModel.html#a970306ac2228cbcb599f65476d8c80dd" target="_top" xlink:title="ene.models.AbstractModel.changed">
<polygon fill="none" stroke="#000000" points="562,-277 562,-296 735,-296 735,-277 562,-277"/>
<text text-anchor="middle" x="648.5" y="-284" font-family="Helvetica,sans-Serif" font-size="10.00" fill="#000000">ene.models.AbstractModel.changed</text>
</a>
</g>
</g>
<!-- Node74&#45;&gt;Node76 -->
<g id="edge19" class="edge">
<title>Node74&#45;&gt;Node76</title>
<path fill="none" stroke="#191970" d="M332.2173,-288.3467C344.184,-288.8265 356.4287,-289.2395 368,-289.5 429.0635,-290.8746 497.6191,-290.1823 551.6699,-289.1184"/>
<polygon fill="#191970" stroke="#191970" points="552.0075,-292.6123 561.9338,-288.9085 551.8643,-285.6138 552.0075,-292.6123"/>
</g>
<!-- Node75&#45;&gt;Node76 -->
<g id="edge17" class="edge">
<title>Node75&#45;&gt;Node76</title>
<path fill="none" stroke="#191970" d="M519.7461,-272.4425C530.0828,-273.5711 540.8468,-274.7463 551.5534,-275.9153"/>
<polygon fill="#191970" stroke="#191970" points="551.4642,-279.4262 561.785,-277.0324 552.224,-272.4676 551.4642,-279.4262"/>
</g>
<!-- Node77 -->
<g id="node16" class="node">
<title>Node77</title>
<g id="a_node16"><a xlink:href="interfaceene_1_1interfaces_1_1PartialView.html#aae781d286eda4cbf8c57fdb877dde265" target="_top" xlink:title="ene.interfaces.PartialView.update">
<polygon fill="none" stroke="#000000" points="771,-277 771,-296 934,-296 934,-277 771,-277"/>
<text text-anchor="middle" x="852.5" y="-284" font-family="Helvetica,sans-Serif" font-size="10.00" fill="#000000">ene.interfaces.PartialView.update</text>
</a>
</g>
</g>
<!-- Node76&#45;&gt;Node77 -->
<g id="edge18" class="edge">
<title>Node76&#45;&gt;Node77</title>
<path fill="none" stroke="#191970" d="M735.0144,-286.5C743.4296,-286.5 751.9887,-286.5 760.4555,-286.5"/>
<polygon fill="#191970" stroke="#191970" points="760.7215,-290.0001 770.7215,-286.5 760.7214,-283.0001 760.7215,-290.0001"/>
</g>
</g>
</svg>
