<?xml version="1.0" encoding="UTF-8" standalone="no"?>
<!DOCTYPE svg PUBLIC "-//W3C//DTD SVG 1.1//EN"
 "http://www.w3.org/Graphics/SVG/1.1/DTD/svg11.dtd">
<!-- Generated by graphviz version 2.40.1 (20161225.0304)
 -->
<!-- Title: ene.models.PlayerModel.getClip Pages: 1 -->
<svg width="555pt" height="241pt"
 viewBox="0.00 0.00 555.00 240.50" xmlns="http://www.w3.org/2000/svg" xmlns:xlink="http://www.w3.org/1999/xlink">
<g id="graph0" class="graph" transform="scale(1 1) rotate(0) translate(4 236.5)">
<title>ene.models.PlayerModel.getClip</title>
<!-- Node1 -->
<g id="node1" class="node">
<title>Node1</title>
<polygon fill="#bfbfbf" stroke="#000000" points="0,-95.5 0,-114.5 158,-114.5 158,-95.5 0,-95.5"/>
<text text-anchor="middle" x="79" y="-102.5" font-family="Helvetica,sans-Serif" font-size="10.00" fill="#000000">ene.models.PlayerModel.getClip</text>
</g>
<!-- Node2 -->
<g id="node2" class="node">
<title>Node2</title>
<g id="a_node2"><a xlink:href="classene_1_1models_1_1PlayerModel.html#ac32610c7511e6187ae364f64e1cf290b" target="_top" xlink:title="ene.models.PlayerModel.get\lTrackLength">
<polygon fill="none" stroke="#000000" points="200.5,-202 200.5,-232 340.5,-232 340.5,-202 200.5,-202"/>
<text text-anchor="start" x="208.5" y="-220" font-family="Helvetica,sans-Serif" font-size="10.00" fill="#000000">ene.models.PlayerModel.get</text>
<text text-anchor="middle" x="270.5" y="-209" font-family="Helvetica,sans-Serif" font-size="10.00" fill="#000000">TrackLength</text>
</a>
</g>
</g>
<!-- Node1&#45;&gt;Node2 -->
<g id="edge1" class="edge">
<title>Node1&#45;&gt;Node2</title>
<path fill="none" stroke="#191970" d="M96.5606,-121.6299C118.024,-141.1602 156.1752,-173.376 194,-193 200.4249,-196.3333 207.3961,-199.3027 214.4265,-201.9185"/>
<polygon fill="#191970" stroke="#191970" points="98.6545,-118.7993 88.9352,-114.5821 93.9033,-123.9399 98.6545,-118.7993"/>
</g>
<!-- Node4 -->
<g id="node4" class="node">
<title>Node4</title>
<g id="a_node4"><a xlink:href="classene_1_1models_1_1PlayerModel.html#a3108500012be901007a2e809761ac136" target="_top" xlink:title="ene.models.PlayerModel.get\lTrackPosition">
<polygon fill="none" stroke="#000000" points="200.5,-153 200.5,-183 340.5,-183 340.5,-153 200.5,-153"/>
<text text-anchor="start" x="208.5" y="-171" font-family="Helvetica,sans-Serif" font-size="10.00" fill="#000000">ene.models.PlayerModel.get</text>
<text text-anchor="middle" x="270.5" y="-160" font-family="Helvetica,sans-Serif" font-size="10.00" fill="#000000">TrackPosition</text>
</a>
</g>
</g>
<!-- Node1&#45;&gt;Node4 -->
<g id="edge3" class="edge">
<title>Node1&#45;&gt;Node4</title>
<path fill="none" stroke="#191970" d="M117.6573,-117.7175C148.5867,-127.8927 192.0362,-142.1868 224.7071,-152.935"/>
<polygon fill="#191970" stroke="#191970" points="118.6777,-114.3688 108.0847,-114.5683 116.4901,-121.0182 118.6777,-114.3688"/>
</g>
<!-- Node5 -->
<g id="node5" class="node">
<title>Node5</title>
<g id="a_node5"><a xlink:href="classene_1_1models_1_1PlayerModel.html#ae58085790604570d46621f019a8e0e78" target="_top" xlink:title="ene.models.PlayerModel.set\lTrackPosition">
<polygon fill="none" stroke="#000000" points="395,-153 395,-183 535,-183 535,-153 395,-153"/>
<text text-anchor="start" x="403" y="-171" font-family="Helvetica,sans-Serif" font-size="10.00" fill="#000000">ene.models.PlayerModel.set</text>
<text text-anchor="middle" x="465" y="-160" font-family="Helvetica,sans-Serif" font-size="10.00" fill="#000000">TrackPosition</text>
</a>
</g>
</g>
<!-- Node1&#45;&gt;Node5 -->
<g id="edge11" class="edge">
<title>Node1&#45;&gt;Node5</title>
<path fill="none" stroke="#191970" d="M162.2879,-115.8937C215.2889,-123.1288 285.3176,-133.2479 347,-144 362.5492,-146.7105 379.1903,-149.9097 394.9269,-153.0736"/>
<polygon fill="#191970" stroke="#191970" points="162.6395,-112.4093 152.2593,-114.5313 161.6971,-119.3456 162.6395,-112.4093"/>
</g>
<!-- Node6 -->
<g id="node6" class="node">
<title>Node6</title>
<g id="a_node6"><a xlink:href="classene_1_1models_1_1PlayerModel.html#a2c4655428b658dee3203787415a516a5" target="_top" xlink:title="ene.models.PlayerModel.load">
<polygon fill="none" stroke="#000000" points="198,-76.5 198,-95.5 343,-95.5 343,-76.5 198,-76.5"/>
<text text-anchor="middle" x="270.5" y="-83.5" font-family="Helvetica,sans-Serif" font-size="10.00" fill="#000000">ene.models.PlayerModel.load</text>
</a>
</g>
</g>
<!-- Node1&#45;&gt;Node6 -->
<g id="edge6" class="edge">
<title>Node1&#45;&gt;Node6</title>
<path fill="none" stroke="#191970" d="M168.4467,-96.1254C178.257,-95.152 188.156,-94.1699 197.7292,-93.2201"/>
<polygon fill="#191970" stroke="#191970" points="167.8783,-92.6645 158.2727,-97.1348 168.5695,-99.6303 167.8783,-92.6645"/>
</g>
<!-- Node10 -->
<g id="node10" class="node">
<title>Node10</title>
<g id="a_node10"><a xlink:href="classene_1_1models_1_1PlayerModel.html#afdcaa5e17ecdfbccad3ac8e702914e00" target="_top" xlink:title="ene.models.PlayerModel.pause">
<polygon fill="none" stroke="#000000" points="194,-38.5 194,-57.5 347,-57.5 347,-38.5 194,-38.5"/>
<text text-anchor="middle" x="270.5" y="-45.5" font-family="Helvetica,sans-Serif" font-size="10.00" fill="#000000">ene.models.PlayerModel.pause</text>
</a>
</g>
</g>
<!-- Node1&#45;&gt;Node10 -->
<g id="edge10" class="edge">
<title>Node1&#45;&gt;Node10</title>
<path fill="none" stroke="#191970" d="M115.7244,-92.0776C138.1952,-84.3677 167.605,-74.6269 194,-67 205.4378,-63.695 217.9368,-60.442 229.4546,-57.5874"/>
<polygon fill="#191970" stroke="#191970" points="114.5468,-88.7814 106.2367,-95.3535 116.8314,-95.3981 114.5468,-88.7814"/>
</g>
<!-- Node11 -->
<g id="node11" class="node">
<title>Node11</title>
<g id="a_node11"><a xlink:href="classene_1_1models_1_1PlayerModel.html#a7d0471082171de01773a1da88cb3652d" target="_top" xlink:title="ene.models.PlayerModel.start">
<polygon fill="none" stroke="#000000" points="197.5,-.5 197.5,-19.5 343.5,-19.5 343.5,-.5 197.5,-.5"/>
<text text-anchor="middle" x="270.5" y="-7.5" font-family="Helvetica,sans-Serif" font-size="10.00" fill="#000000">ene.models.PlayerModel.start</text>
</a>
</g>
</g>
<!-- Node1&#45;&gt;Node11 -->
<g id="edge12" class="edge">
<title>Node1&#45;&gt;Node11</title>
<path fill="none" stroke="#191970" d="M98.5229,-89.0619C120.4836,-71.8855 157.8258,-44.8822 194,-29 202.6459,-25.204 212.1886,-22.074 221.5166,-19.5268"/>
<polygon fill="#191970" stroke="#191970" points="96.2816,-86.3724 90.6293,-95.3336 100.6362,-91.8531 96.2816,-86.3724"/>
</g>
<!-- Node3 -->
<g id="node3" class="node">
<title>Node3</title>
<g id="a_node3"><a xlink:href="classene_1_1views_1_1gui_1_1partial_1_1PlayerView.html#a15d3f24a6e52ff6dedb86bb793bb8fa9" target="_top" xlink:title="ene.views.gui.partial.Player\lView.update">
<polygon fill="none" stroke="#000000" points="396.5,-202 396.5,-232 533.5,-232 533.5,-202 396.5,-202"/>
<text text-anchor="start" x="404.5" y="-220" font-family="Helvetica,sans-Serif" font-size="10.00" fill="#000000">ene.views.gui.partial.Player</text>
<text text-anchor="middle" x="465" y="-209" font-family="Helvetica,sans-Serif" font-size="10.00" fill="#000000">View.update</text>
</a>
</g>
</g>
<!-- Node2&#45;&gt;Node3 -->
<g id="edge2" class="edge">
<title>Node2&#45;&gt;Node3</title>
<path fill="none" stroke="#191970" d="M351.0036,-217C366.0123,-217 381.5696,-217 396.1871,-217"/>
<polygon fill="#191970" stroke="#191970" points="350.719,-213.5001 340.719,-217 350.7189,-220.5001 350.719,-213.5001"/>
</g>
<!-- Node4&#45;&gt;Node3 -->
<g id="edge5" class="edge">
<title>Node4&#45;&gt;Node3</title>
<path fill="none" stroke="#191970" d="M340.162,-185.5498C361.5205,-190.9306 384.8145,-196.799 405.4346,-201.9938"/>
<polygon fill="#191970" stroke="#191970" points="340.7303,-182.0837 330.1782,-183.0346 339.0202,-188.8716 340.7303,-182.0837"/>
</g>
<!-- Node4&#45;&gt;Node5 -->
<g id="edge4" class="edge">
<title>Node4&#45;&gt;Node5</title>
<path fill="none" stroke="#191970" d="M350.7533,-168C365.3943,-168 380.5657,-168 394.8841,-168"/>
<polygon fill="#191970" stroke="#191970" points="350.719,-164.5001 340.719,-168 350.7189,-171.5001 350.719,-164.5001"/>
</g>
<!-- Node7 -->
<g id="node7" class="node">
<title>Node7</title>
<g id="a_node7"><a xlink:href="classene_1_1models_1_1PlayerModel.html#acfe1fde39cea80b94ae65ed401706d70" target="_top" xlink:title="ene.models.PlayerModel.load\lPlaylist">
<polygon fill="none" stroke="#000000" points="392.5,-104 392.5,-134 537.5,-134 537.5,-104 392.5,-104"/>
<text text-anchor="start" x="400.5" y="-122" font-family="Helvetica,sans-Serif" font-size="10.00" fill="#000000">ene.models.PlayerModel.load</text>
<text text-anchor="middle" x="465" y="-111" font-family="Helvetica,sans-Serif" font-size="10.00" fill="#000000">Playlist</text>
</a>
</g>
</g>
<!-- Node6&#45;&gt;Node7 -->
<g id="edge7" class="edge">
<title>Node6&#45;&gt;Node7</title>
<path fill="none" stroke="#191970" d="M336.5762,-97.2109C354.5318,-100.2573 374.073,-103.5728 392.3696,-106.6771"/>
<polygon fill="#191970" stroke="#191970" points="336.9411,-93.7228 326.4965,-95.5007 335.7701,-100.6242 336.9411,-93.7228"/>
</g>
<!-- Node8 -->
<g id="node8" class="node">
<title>Node8</title>
<g id="a_node8"><a xlink:href="classene_1_1models_1_1PlayerModel.html#a7242e20d537405f031ec8d18e7faf8fc" target="_top" xlink:title="ene.models.PlayerModel.previous">
<polygon fill="none" stroke="#000000" points="383,-65.5 383,-84.5 547,-84.5 547,-65.5 383,-65.5"/>
<text text-anchor="middle" x="465" y="-72.5" font-family="Helvetica,sans-Serif" font-size="10.00" fill="#000000">ene.models.PlayerModel.previous</text>
</a>
</g>
</g>
<!-- Node6&#45;&gt;Node8 -->
<g id="edge8" class="edge">
<title>Node6&#45;&gt;Node8</title>
<path fill="none" stroke="#191970" d="M353.3224,-81.316C363.1205,-80.7618 373.1185,-80.1964 382.9065,-79.6428"/>
<polygon fill="#191970" stroke="#191970" points="352.9876,-77.8292 343.2012,-81.8884 353.3829,-84.818 352.9876,-77.8292"/>
</g>
<!-- Node9 -->
<g id="node9" class="node">
<title>Node9</title>
<g id="a_node9"><a xlink:href="classene_1_1models_1_1PlayerModel.html#a384fd9a2e98fc581e8221659257a8dd4" target="_top" xlink:title="ene.models.PlayerModel.next">
<polygon fill="none" stroke="#000000" points="392,-27.5 392,-46.5 538,-46.5 538,-27.5 392,-27.5"/>
<text text-anchor="middle" x="465" y="-34.5" font-family="Helvetica,sans-Serif" font-size="10.00" fill="#000000">ene.models.PlayerModel.next</text>
</a>
</g>
</g>
<!-- Node6&#45;&gt;Node9 -->
<g id="edge9" class="edge">
<title>Node6&#45;&gt;Node9</title>
<path fill="none" stroke="#191970" d="M320.5303,-73.9799C329.3705,-71.7404 338.4715,-69.3603 347,-67 363.1242,-62.5376 366.8412,-60.3352 383,-56 395.4204,-52.6677 408.9913,-49.3813 421.454,-46.5029"/>
<polygon fill="#191970" stroke="#191970" points="319.5553,-70.6159 310.7048,-76.4398 321.2555,-77.4063 319.5553,-70.6159"/>
</g>
</g>
</svg>
