<?xml version="1.0" encoding="UTF-8" standalone="no"?>
<!DOCTYPE svg PUBLIC "-//W3C//DTD SVG 1.1//EN"
 "http://www.w3.org/Graphics/SVG/1.1/DTD/svg11.dtd">
<!-- Generated by graphviz version 2.40.1 (20161225.0304)
 -->
<!-- Title: ene.views.gui.WindowView Pages: 1 -->
<svg width="744pt" height="707pt"
 viewBox="0.00 0.00 744.00 707.00" xmlns="http://www.w3.org/2000/svg" xmlns:xlink="http://www.w3.org/1999/xlink">
<g id="graph0" class="graph" transform="scale(1 1) rotate(0) translate(4 703)">
<title>ene.views.gui.WindowView</title>
<!-- Node7 -->
<g id="node1" class="node">
<title>Node7</title>
<polygon fill="#bfbfbf" stroke="#000000" points="275.5,-.5 275.5,-101.5 412.5,-101.5 412.5,-.5 275.5,-.5"/>
<text text-anchor="middle" x="344" y="-89.5" font-family="Helvetica,sans-Serif" font-size="10.00" fill="#000000">ene.views.gui.WindowView</text>
<polyline fill="none" stroke="#000000" points="275.5,-82.5 412.5,-82.5 "/>
<text text-anchor="middle" x="344" y="-70.5" font-family="Helvetica,sans-Serif" font-size="10.00" fill="#000000"> </text>
<polyline fill="none" stroke="#000000" points="275.5,-63.5 412.5,-63.5 "/>
<text text-anchor="start" x="283.5" y="-51.5" font-family="Helvetica,sans-Serif" font-size="10.00" fill="#000000">+ setTitle()</text>
<text text-anchor="start" x="283.5" y="-40.5" font-family="Helvetica,sans-Serif" font-size="10.00" fill="#000000">+ getTitle()</text>
<text text-anchor="start" x="283.5" y="-29.5" font-family="Helvetica,sans-Serif" font-size="10.00" fill="#000000">+ WindowView()</text>
<text text-anchor="start" x="283.5" y="-18.5" font-family="Helvetica,sans-Serif" font-size="10.00" fill="#000000">+ render()</text>
<text text-anchor="start" x="283.5" y="-7.5" font-family="Helvetica,sans-Serif" font-size="10.00" fill="#000000"># initialize()</text>
</g>
<!-- Node8 -->
<g id="node2" class="node">
<title>Node8</title>
<g id="a_node2"><a xlink:href="classene_1_1views_1_1AbstractMasterView.html" target="_top" xlink:title="{ene::views::AbstractMaster\lView\&lt; JFrame \&gt;\n||+ addView()\l+ setAllViews()\l+ getAllViews()\l}">
<polygon fill="none" stroke="#000000" points="275.5,-139.5 275.5,-229.5 412.5,-229.5 412.5,-139.5 275.5,-139.5"/>
<text text-anchor="start" x="283.5" y="-217.5" font-family="Helvetica,sans-Serif" font-size="10.00" fill="#000000">ene::views::AbstractMaster</text>
<text text-anchor="middle" x="344" y="-206.5" font-family="Helvetica,sans-Serif" font-size="10.00" fill="#000000">View&lt; JFrame &gt;</text>
<polyline fill="none" stroke="#000000" points="275.5,-199.5 412.5,-199.5 "/>
<text text-anchor="middle" x="344" y="-187.5" font-family="Helvetica,sans-Serif" font-size="10.00" fill="#000000"> </text>
<polyline fill="none" stroke="#000000" points="275.5,-180.5 412.5,-180.5 "/>
<text text-anchor="start" x="283.5" y="-168.5" font-family="Helvetica,sans-Serif" font-size="10.00" fill="#000000">+ addView()</text>
<text text-anchor="start" x="283.5" y="-157.5" font-family="Helvetica,sans-Serif" font-size="10.00" fill="#000000">+ setAllViews()</text>
<text text-anchor="start" x="283.5" y="-146.5" font-family="Helvetica,sans-Serif" font-size="10.00" fill="#000000">+ getAllViews()</text>
</a>
</g>
</g>
<!-- Node8&#45;&gt;Node7 -->
<g id="edge1" class="edge">
<title>Node8&#45;&gt;Node7</title>
<path fill="none" stroke="#191970" d="M344,-129.175C344,-120.0608 344,-110.6537 344,-101.661"/>
<polygon fill="none" stroke="#191970" points="340.5001,-129.303 344,-139.303 347.5001,-129.303 340.5001,-129.303"/>
</g>
<!-- Node9 -->
<g id="node3" class="node">
<title>Node9</title>
<g id="a_node3"><a xlink:href="classene_1_1views_1_1AbstractView.html" target="_top" xlink:title="{ene::views::AbstractView\l\&lt; CoreComponentType \&gt;\n||+ setTitle()\l+ getTitle()\l+ setCoreComponent()\l+ getCoreComponent()\l+ setLayoutPosition()\l+ getLayoutPosition()\l}">
<polygon fill="none" stroke="#000000" points="280,-277.5 280,-400.5 408,-400.5 408,-277.5 280,-277.5"/>
<text text-anchor="start" x="288" y="-388.5" font-family="Helvetica,sans-Serif" font-size="10.00" fill="#000000">ene::views::AbstractView</text>
<text text-anchor="middle" x="344" y="-377.5" font-family="Helvetica,sans-Serif" font-size="10.00" fill="#000000">&lt; CoreComponentType &gt;</text>
<polyline fill="none" stroke="#000000" points="280,-370.5 408,-370.5 "/>
<text text-anchor="middle" x="344" y="-358.5" font-family="Helvetica,sans-Serif" font-size="10.00" fill="#000000"> </text>
<polyline fill="none" stroke="#000000" points="280,-351.5 408,-351.5 "/>
<text text-anchor="start" x="288" y="-339.5" font-family="Helvetica,sans-Serif" font-size="10.00" fill="#000000">+ setTitle()</text>
<text text-anchor="start" x="288" y="-328.5" font-family="Helvetica,sans-Serif" font-size="10.00" fill="#000000">+ getTitle()</text>
<text text-anchor="start" x="288" y="-317.5" font-family="Helvetica,sans-Serif" font-size="10.00" fill="#000000">+ setCoreComponent()</text>
<text text-anchor="start" x="288" y="-306.5" font-family="Helvetica,sans-Serif" font-size="10.00" fill="#000000">+ getCoreComponent()</text>
<text text-anchor="start" x="288" y="-295.5" font-family="Helvetica,sans-Serif" font-size="10.00" fill="#000000">+ setLayoutPosition()</text>
<text text-anchor="start" x="288" y="-284.5" font-family="Helvetica,sans-Serif" font-size="10.00" fill="#000000">+ getLayoutPosition()</text>
</a>
</g>
</g>
<!-- Node9&#45;&gt;Node8 -->
<g id="edge2" class="edge">
<title>Node9&#45;&gt;Node8</title>
<path fill="none" stroke="#191970" d="M344,-267.2776C344,-254.4506 344,-241.4193 344,-229.608"/>
<polygon fill="none" stroke="#191970" points="340.5001,-267.4935 344,-277.4936 347.5001,-267.4936 340.5001,-267.4935"/>
</g>
<!-- Node10 -->
<g id="node4" class="node">
<title>Node10</title>
<g id="a_node4"><a xlink:href="classene_1_1AbstractObject.html" target="_top" xlink:title="{ene.AbstractObject\n||+ enableDebugMode()\l+ disableDebugMode()\l+ isDebugModeEnabled()\l+ debugInfoAbout()\l+ consoleOutput()\l# delay()\l}">
<polygon fill="none" stroke="#000000" points="274.5,-470.5 274.5,-582.5 401.5,-582.5 401.5,-470.5 274.5,-470.5"/>
<text text-anchor="middle" x="338" y="-570.5" font-family="Helvetica,sans-Serif" font-size="10.00" fill="#000000">ene.AbstractObject</text>
<polyline fill="none" stroke="#000000" points="274.5,-563.5 401.5,-563.5 "/>
<text text-anchor="middle" x="338" y="-551.5" font-family="Helvetica,sans-Serif" font-size="10.00" fill="#000000"> </text>
<polyline fill="none" stroke="#000000" points="274.5,-544.5 401.5,-544.5 "/>
<text text-anchor="start" x="282.5" y="-532.5" font-family="Helvetica,sans-Serif" font-size="10.00" fill="#000000">+ enableDebugMode()</text>
<text text-anchor="start" x="282.5" y="-521.5" font-family="Helvetica,sans-Serif" font-size="10.00" fill="#000000">+ disableDebugMode()</text>
<text text-anchor="start" x="282.5" y="-510.5" font-family="Helvetica,sans-Serif" font-size="10.00" fill="#000000">+ isDebugModeEnabled()</text>
<text text-anchor="start" x="282.5" y="-499.5" font-family="Helvetica,sans-Serif" font-size="10.00" fill="#000000">+ debugInfoAbout()</text>
<text text-anchor="start" x="282.5" y="-488.5" font-family="Helvetica,sans-Serif" font-size="10.00" fill="#000000">+ consoleOutput()</text>
<text text-anchor="start" x="282.5" y="-477.5" font-family="Helvetica,sans-Serif" font-size="10.00" fill="#000000"># delay()</text>
</a>
</g>
</g>
<!-- Node10&#45;&gt;Node9 -->
<g id="edge3" class="edge">
<title>Node10&#45;&gt;Node9</title>
<path fill="none" stroke="#191970" d="M340.1122,-460.4946C340.7353,-441.0213 341.4146,-419.7928 342.0286,-400.6075"/>
<polygon fill="none" stroke="#191970" points="336.6138,-460.3909 339.7921,-470.4978 343.6102,-460.6149 336.6138,-460.3909"/>
</g>
<!-- Node11 -->
<g id="node5" class="node">
<title>Node11</title>
<polygon fill="none" stroke="#bfbfbf" points="299.5,-641.5 299.5,-698.5 376.5,-698.5 376.5,-641.5 299.5,-641.5"/>
<text text-anchor="middle" x="338" y="-686.5" font-family="Helvetica,sans-Serif" font-size="10.00" fill="#000000">static boolean</text>
<polyline fill="none" stroke="#bfbfbf" points="299.5,-679.5 376.5,-679.5 "/>
<text text-anchor="middle" x="338" y="-667.5" font-family="Helvetica,sans-Serif" font-size="10.00" fill="#000000"> </text>
<polyline fill="none" stroke="#bfbfbf" points="299.5,-660.5 376.5,-660.5 "/>
<text text-anchor="middle" x="338" y="-648.5" font-family="Helvetica,sans-Serif" font-size="10.00" fill="#000000"> </text>
</g>
<!-- Node11&#45;&gt;Node10 -->
<g id="edge4" class="edge">
<title>Node11&#45;&gt;Node10</title>
<path fill="none" stroke="#404040" d="M338,-641.3055C338,-627.9442 338,-611.4218 338,-595.1157"/>
<polygon fill="none" stroke="#404040" points="338.0001,-594.7445 334,-588.7445 338,-582.7445 342,-588.7444 338.0001,-594.7445"/>
<text text-anchor="middle" x="385" y="-615" font-family="Helvetica,sans-Serif" font-size="10.00" fill="#000000"> #debugModeEnabled</text>
</g>
<!-- Node12 -->
<g id="node6" class="node">
<title>Node12</title>
<g id="a_node6"><a xlink:href="interfaceene_1_1interfaces_1_1View.html" target="_top" xlink:title="{ene::interfaces::View\l\&lt; CoreComponentType \&gt;\n||+ setTitle()\l+ getTitle()\l+ setCoreComponent()\l+ getCoreComponent()\l+ setLayoutPosition()\l+ getLayoutPosition()\l+ render()\l}">
<polygon fill="none" stroke="#000000" points="128,-459.5 128,-593.5 256,-593.5 256,-459.5 128,-459.5"/>
<text text-anchor="start" x="136" y="-581.5" font-family="Helvetica,sans-Serif" font-size="10.00" fill="#000000">ene::interfaces::View</text>
<text text-anchor="middle" x="192" y="-570.5" font-family="Helvetica,sans-Serif" font-size="10.00" fill="#000000">&lt; CoreComponentType &gt;</text>
<polyline fill="none" stroke="#000000" points="128,-563.5 256,-563.5 "/>
<text text-anchor="middle" x="192" y="-551.5" font-family="Helvetica,sans-Serif" font-size="10.00" fill="#000000"> </text>
<polyline fill="none" stroke="#000000" points="128,-544.5 256,-544.5 "/>
<text text-anchor="start" x="136" y="-532.5" font-family="Helvetica,sans-Serif" font-size="10.00" fill="#000000">+ setTitle()</text>
<text text-anchor="start" x="136" y="-521.5" font-family="Helvetica,sans-Serif" font-size="10.00" fill="#000000">+ getTitle()</text>
<text text-anchor="start" x="136" y="-510.5" font-family="Helvetica,sans-Serif" font-size="10.00" fill="#000000">+ setCoreComponent()</text>
<text text-anchor="start" x="136" y="-499.5" font-family="Helvetica,sans-Serif" font-size="10.00" fill="#000000">+ getCoreComponent()</text>
<text text-anchor="start" x="136" y="-488.5" font-family="Helvetica,sans-Serif" font-size="10.00" fill="#000000">+ setLayoutPosition()</text>
<text text-anchor="start" x="136" y="-477.5" font-family="Helvetica,sans-Serif" font-size="10.00" fill="#000000">+ getLayoutPosition()</text>
<text text-anchor="start" x="136" y="-466.5" font-family="Helvetica,sans-Serif" font-size="10.00" fill="#000000">+ render()</text>
</a>
</g>
</g>
<!-- Node12&#45;&gt;Node9 -->
<g id="edge5" class="edge">
<title>Node12&#45;&gt;Node9</title>
<path fill="none" stroke="#191970" d="M253.0561,-451.184C266.6459,-434.4204 280.8993,-416.838 293.9844,-400.6968"/>
<polygon fill="none" stroke="#191970" points="250.0247,-449.3656 246.4462,-459.3378 255.4624,-453.7738 250.0247,-449.3656"/>
</g>
<!-- Node17 -->
<g id="node11" class="node">
<title>Node17</title>
<g id="a_node11"><a xlink:href="interfaceene_1_1interfaces_1_1MasterView.html" target="_top" xlink:title="{ene::interfaces::MasterView\l\&lt; CoreComponentType \&gt;\n||+ addView()\l+ setAllViews()\l+ getAllViews()\l}">
<polygon fill="none" stroke="#000000" points="122.5,-294 122.5,-384 261.5,-384 261.5,-294 122.5,-294"/>
<text text-anchor="start" x="130.5" y="-372" font-family="Helvetica,sans-Serif" font-size="10.00" fill="#000000">ene::interfaces::MasterView</text>
<text text-anchor="middle" x="192" y="-361" font-family="Helvetica,sans-Serif" font-size="10.00" fill="#000000">&lt; CoreComponentType &gt;</text>
<polyline fill="none" stroke="#000000" points="122.5,-354 261.5,-354 "/>
<text text-anchor="middle" x="192" y="-342" font-family="Helvetica,sans-Serif" font-size="10.00" fill="#000000"> </text>
<polyline fill="none" stroke="#000000" points="122.5,-335 261.5,-335 "/>
<text text-anchor="start" x="130.5" y="-323" font-family="Helvetica,sans-Serif" font-size="10.00" fill="#000000">+ addView()</text>
<text text-anchor="start" x="130.5" y="-312" font-family="Helvetica,sans-Serif" font-size="10.00" fill="#000000">+ setAllViews()</text>
<text text-anchor="start" x="130.5" y="-301" font-family="Helvetica,sans-Serif" font-size="10.00" fill="#000000">+ getAllViews()</text>
</a>
</g>
</g>
<!-- Node12&#45;&gt;Node17 -->
<g id="edge11" class="edge">
<title>Node12&#45;&gt;Node17</title>
<path fill="none" stroke="#191970" d="M192,-449.2463C192,-427.0466 192,-403.5727 192,-384.0171"/>
<polygon fill="none" stroke="#191970" points="188.5001,-449.3378 192,-459.3378 195.5001,-449.3378 188.5001,-449.3378"/>
</g>
<!-- Node13 -->
<g id="node7" class="node">
<title>Node13</title>
<g id="a_node7"><a xlink:href="interfaceene_1_1interfaces_1_1Localization.html" target="_top" xlink:title="{ene.interfaces.Localization\n||+ getString()\l}">
<polygon fill="none" stroke="#000000" points="419.5,-498 419.5,-555 552.5,-555 552.5,-498 419.5,-498"/>
<text text-anchor="middle" x="486" y="-543" font-family="Helvetica,sans-Serif" font-size="10.00" fill="#000000">ene.interfaces.Localization</text>
<polyline fill="none" stroke="#000000" points="419.5,-536 552.5,-536 "/>
<text text-anchor="middle" x="486" y="-524" font-family="Helvetica,sans-Serif" font-size="10.00" fill="#000000"> </text>
<polyline fill="none" stroke="#000000" points="419.5,-517 552.5,-517 "/>
<text text-anchor="start" x="427.5" y="-505" font-family="Helvetica,sans-Serif" font-size="10.00" fill="#000000">+ getString()</text>
</a>
</g>
</g>
<!-- Node13&#45;&gt;Node9 -->
<g id="edge6" class="edge">
<title>Node13&#45;&gt;Node9</title>
<path fill="none" stroke="#191970" d="M457.888,-489.3803C438.7015,-464.046 412.8325,-429.888 390.5983,-400.5294"/>
<polygon fill="none" stroke="#191970" points="455.2962,-491.7553 464.1237,-497.614 460.8765,-487.5291 455.2962,-491.7553"/>
</g>
<!-- Node14 -->
<g id="node8" class="node">
<title>Node14</title>
<polygon fill="none" stroke="#bfbfbf" points="441,-641.5 441,-698.5 531,-698.5 531,-641.5 441,-641.5"/>
<text text-anchor="middle" x="486" y="-686.5" font-family="Helvetica,sans-Serif" font-size="10.00" fill="#000000">static final String</text>
<polyline fill="none" stroke="#bfbfbf" points="441,-679.5 531,-679.5 "/>
<text text-anchor="middle" x="486" y="-667.5" font-family="Helvetica,sans-Serif" font-size="10.00" fill="#000000"> </text>
<polyline fill="none" stroke="#bfbfbf" points="441,-660.5 531,-660.5 "/>
<text text-anchor="middle" x="486" y="-648.5" font-family="Helvetica,sans-Serif" font-size="10.00" fill="#000000"> </text>
</g>
<!-- Node14&#45;&gt;Node13 -->
<g id="edge7" class="edge">
<title>Node14&#45;&gt;Node13</title>
<path fill="none" stroke="#404040" d="M486,-641.3055C486,-620.0904 486,-590.9058 486,-567.2714"/>
<polygon fill="none" stroke="#404040" points="486.0001,-567.1447 482,-561.1448 486,-555.1447 490,-561.1447 486.0001,-567.1447"/>
<text text-anchor="middle" x="536" y="-615" font-family="Helvetica,sans-Serif" font-size="10.00" fill="#000000"> +DEFAULT_LOCALE</text>
</g>
<!-- Node15 -->
<g id="node9" class="node">
<title>Node15</title>
<polygon fill="none" stroke="#bfbfbf" points="571,-498 571,-555 613,-555 613,-498 571,-498"/>
<text text-anchor="middle" x="592" y="-543" font-family="Helvetica,sans-Serif" font-size="10.00" fill="#000000">String</text>
<polyline fill="none" stroke="#bfbfbf" points="571,-536 613,-536 "/>
<text text-anchor="middle" x="592" y="-524" font-family="Helvetica,sans-Serif" font-size="10.00" fill="#000000"> </text>
<polyline fill="none" stroke="#bfbfbf" points="571,-517 613,-517 "/>
<text text-anchor="middle" x="592" y="-505" font-family="Helvetica,sans-Serif" font-size="10.00" fill="#000000"> </text>
</g>
<!-- Node15&#45;&gt;Node9 -->
<g id="edge8" class="edge">
<title>Node15&#45;&gt;Node9</title>
<path fill="none" stroke="#404040" d="M583.4564,-497.8555C578.4945,-484.8518 571.1756,-469.9646 561,-459 522.0423,-417.0215 464.975,-386.2668 419.1397,-366.4068"/>
<polygon fill="none" stroke="#404040" points="419.1,-366.39 412.0158,-367.7373 408.0475,-361.7162 415.1317,-360.369 419.1,-366.39"/>
<text text-anchor="middle" x="577" y="-433" font-family="Helvetica,sans-Serif" font-size="10.00" fill="#000000"> #layoutPosition</text>
<text text-anchor="middle" x="577" y="-422" font-family="Helvetica,sans-Serif" font-size="10.00" fill="#000000">#title</text>
</g>
<!-- Node16 -->
<g id="node10" class="node">
<title>Node16</title>
<polygon fill="none" stroke="#bfbfbf" points="0,-498 0,-555 110,-555 110,-498 0,-498"/>
<text text-anchor="middle" x="55" y="-543" font-family="Helvetica,sans-Serif" font-size="10.00" fill="#000000">CoreComponentType</text>
<polyline fill="none" stroke="#bfbfbf" points="0,-536 110,-536 "/>
<text text-anchor="middle" x="55" y="-524" font-family="Helvetica,sans-Serif" font-size="10.00" fill="#000000"> </text>
<polyline fill="none" stroke="#bfbfbf" points="0,-517 110,-517 "/>
<text text-anchor="middle" x="55" y="-505" font-family="Helvetica,sans-Serif" font-size="10.00" fill="#000000"> </text>
</g>
<!-- Node16&#45;&gt;Node9 -->
<g id="edge9" class="edge">
<title>Node16&#45;&gt;Node9</title>
<path fill="none" stroke="#404040" d="M79.4125,-497.7027C90.7923,-485.1105 104.9128,-470.5995 119,-459 144.6041,-437.9173 151.2451,-431.4172 182,-419 215.8364,-405.3387 231.3006,-416.108 268.7044,-400.7539"/>
<polygon fill="none" stroke="#404040" points="268.9416,-400.6464 272.7529,-394.5248 279.8695,-395.6885 276.0582,-401.8101 268.9416,-400.6464"/>
<text text-anchor="middle" x="221" y="-427.5" font-family="Helvetica,sans-Serif" font-size="10.00" fill="#000000"> #coreComponent</text>
</g>
<!-- Node17&#45;&gt;Node8 -->
<g id="edge10" class="edge">
<title>Node17&#45;&gt;Node8</title>
<path fill="none" stroke="#191970" d="M243.4999,-286.653C261.7029,-268.1507 282.0056,-247.5141 299.5716,-229.6592"/>
<polygon fill="none" stroke="#191970" points="240.8915,-284.3137 236.3733,-293.8969 245.8815,-289.223 240.8915,-284.3137"/>
</g>
<!-- Node18 -->
<g id="node12" class="node">
<title>Node18</title>
<polygon fill="none" stroke="#bfbfbf" points="502.5,-310.5 502.5,-367.5 639.5,-367.5 639.5,-310.5 502.5,-310.5"/>
<text text-anchor="middle" x="571" y="-355.5" font-family="Helvetica,sans-Serif" font-size="10.00" fill="#000000">List&lt; ene.interfaces.View &gt;</text>
<polyline fill="none" stroke="#bfbfbf" points="502.5,-348.5 639.5,-348.5 "/>
<text text-anchor="middle" x="571" y="-336.5" font-family="Helvetica,sans-Serif" font-size="10.00" fill="#000000"> </text>
<polyline fill="none" stroke="#bfbfbf" points="502.5,-329.5 639.5,-329.5 "/>
<text text-anchor="middle" x="571" y="-317.5" font-family="Helvetica,sans-Serif" font-size="10.00" fill="#000000"> </text>
</g>
<!-- Node18&#45;&gt;Node8 -->
<g id="edge12" class="edge">
<title>Node18&#45;&gt;Node8</title>
<path fill="none" stroke="#404040" d="M529.1002,-310.4823C498.6549,-289.7607 456.5924,-261.1323 420.2571,-236.4019"/>
<polygon fill="none" stroke="#404040" points="420.0953,-236.2917 412.8845,-236.2225 410.175,-229.5398 417.3858,-229.609 420.0953,-236.2917"/>
<text text-anchor="middle" x="468" y="-251" font-family="Helvetica,sans-Serif" font-size="10.00" fill="#000000"> #views</text>
</g>
<!-- Node19 -->
<g id="node13" class="node">
<title>Node19</title>
<polygon fill="none" stroke="#bfbfbf" points="650,-498 650,-555 682,-555 682,-498 650,-498"/>
<text text-anchor="middle" x="666" y="-543" font-family="Helvetica,sans-Serif" font-size="10.00" fill="#000000">List</text>
<polyline fill="none" stroke="#bfbfbf" points="650,-536 682,-536 "/>
<text text-anchor="middle" x="666" y="-524" font-family="Helvetica,sans-Serif" font-size="10.00" fill="#000000"> </text>
<polyline fill="none" stroke="#bfbfbf" points="650,-517 682,-517 "/>
<text text-anchor="middle" x="666" y="-505" font-family="Helvetica,sans-Serif" font-size="10.00" fill="#000000"> </text>
</g>
<!-- Node19&#45;&gt;Node18 -->
<g id="edge13" class="edge">
<title>Node19&#45;&gt;Node18</title>
<path fill="none" stroke="#ffa500" d="M663.1294,-487.7702C660.3402,-466.5456 654.8412,-440.3017 644,-419 634.1926,-399.7296 618.4653,-381.6287 604.1159,-367.5352"/>
<polygon fill="#ffa500" stroke="#ffa500" points="659.6576,-488.2156 664.2925,-497.7428 666.6104,-487.4046 659.6576,-488.2156"/>
<text text-anchor="start" x="653" y="-433" font-family="Helvetica,sans-Serif" font-size="10.00" fill="#000000"> &lt; ene::interfaces::</text>
<text text-anchor="middle" x="694.5" y="-422" font-family="Helvetica,sans-Serif" font-size="10.00" fill="#000000">View &gt;</text>
</g>
</g>
</svg>
