<?xml version="1.0" encoding="UTF-8" standalone="no"?>
<!DOCTYPE svg PUBLIC "-//W3C//DTD SVG 1.1//EN"
 "http://www.w3.org/Graphics/SVG/1.1/DTD/svg11.dtd">
<!-- Generated by graphviz version 2.40.1 (20161225.0304)
 -->
<!-- Title: ene.models.TrackModel Pages: 1 -->
<svg width="429pt" height="612pt"
 viewBox="0.00 0.00 428.50 612.00" xmlns="http://www.w3.org/2000/svg" xmlns:xlink="http://www.w3.org/1999/xlink">
<g id="graph0" class="graph" transform="scale(1 1) rotate(0) translate(4 608)">
<title>ene.models.TrackModel</title>
<!-- Node4 -->
<g id="node1" class="node">
<title>Node4</title>
<polygon fill="#bfbfbf" stroke="#000000" points="191,-.5 191,-178.5 312,-178.5 312,-.5 191,-.5"/>
<text text-anchor="middle" x="251.5" y="-166.5" font-family="Helvetica,sans-Serif" font-size="10.00" fill="#000000">ene.models.TrackModel</text>
<polyline fill="none" stroke="#000000" points="191,-159.5 312,-159.5 "/>
<text text-anchor="middle" x="251.5" y="-147.5" font-family="Helvetica,sans-Serif" font-size="10.00" fill="#000000"> </text>
<polyline fill="none" stroke="#000000" points="191,-140.5 312,-140.5 "/>
<text text-anchor="start" x="199" y="-128.5" font-family="Helvetica,sans-Serif" font-size="10.00" fill="#000000">+ getFilename()</text>
<text text-anchor="start" x="199" y="-117.5" font-family="Helvetica,sans-Serif" font-size="10.00" fill="#000000">+ setFilename()</text>
<text text-anchor="start" x="199" y="-106.5" font-family="Helvetica,sans-Serif" font-size="10.00" fill="#000000">+ getArtist()</text>
<text text-anchor="start" x="199" y="-95.5" font-family="Helvetica,sans-Serif" font-size="10.00" fill="#000000">+ setArtist()</text>
<text text-anchor="start" x="199" y="-84.5" font-family="Helvetica,sans-Serif" font-size="10.00" fill="#000000">+ getTitle()</text>
<text text-anchor="start" x="199" y="-73.5" font-family="Helvetica,sans-Serif" font-size="10.00" fill="#000000">+ setTitle()</text>
<text text-anchor="start" x="199" y="-62.5" font-family="Helvetica,sans-Serif" font-size="10.00" fill="#000000">+ getGenre()</text>
<text text-anchor="start" x="199" y="-51.5" font-family="Helvetica,sans-Serif" font-size="10.00" fill="#000000">+ setGenre()</text>
<text text-anchor="start" x="199" y="-40.5" font-family="Helvetica,sans-Serif" font-size="10.00" fill="#000000">+ TrackModel()</text>
<text text-anchor="start" x="199" y="-29.5" font-family="Helvetica,sans-Serif" font-size="10.00" fill="#000000">+ toString()</text>
<text text-anchor="start" x="199" y="-18.5" font-family="Helvetica,sans-Serif" font-size="10.00" fill="#000000">+ detectArtist()</text>
<text text-anchor="start" x="199" y="-7.5" font-family="Helvetica,sans-Serif" font-size="10.00" fill="#000000">+ detectTitle()</text>
</g>
<!-- Node5 -->
<g id="node2" class="node">
<title>Node5</title>
<g id="a_node2"><a xlink:href="classene_1_1models_1_1AbstractModel.html" target="_top" xlink:title="{ene.models.AbstractModel\n||+ addView()\l# changed()\l}">
<polygon fill="none" stroke="#000000" points="132,-259.5 132,-327.5 265,-327.5 265,-259.5 132,-259.5"/>
<text text-anchor="middle" x="198.5" y="-315.5" font-family="Helvetica,sans-Serif" font-size="10.00" fill="#000000">ene.models.AbstractModel</text>
<polyline fill="none" stroke="#000000" points="132,-308.5 265,-308.5 "/>
<text text-anchor="middle" x="198.5" y="-296.5" font-family="Helvetica,sans-Serif" font-size="10.00" fill="#000000"> </text>
<polyline fill="none" stroke="#000000" points="132,-289.5 265,-289.5 "/>
<text text-anchor="start" x="140" y="-277.5" font-family="Helvetica,sans-Serif" font-size="10.00" fill="#000000">+ addView()</text>
<text text-anchor="start" x="140" y="-266.5" font-family="Helvetica,sans-Serif" font-size="10.00" fill="#000000"># changed()</text>
</a>
</g>
</g>
<!-- Node5&#45;&gt;Node4 -->
<g id="edge1" class="edge">
<title>Node5&#45;&gt;Node4</title>
<path fill="none" stroke="#191970" d="M209.9087,-249.5872C215.2958,-228.852 221.931,-203.3129 228.3067,-178.7722"/>
<polygon fill="none" stroke="#191970" points="206.4981,-248.7962 207.371,-259.355 213.2732,-250.5564 206.4981,-248.7962"/>
</g>
<!-- Node6 -->
<g id="node3" class="node">
<title>Node6</title>
<g id="a_node3"><a xlink:href="classene_1_1AbstractObject.html" target="_top" xlink:title="{ene.AbstractObject\n||+ enableDebugMode()\l+ disableDebugMode()\l+ isDebugModeEnabled()\l+ debugInfoAbout()\l+ consoleOutput()\l# delay()\l}">
<polygon fill="none" stroke="#000000" points="0,-375.5 0,-487.5 127,-487.5 127,-375.5 0,-375.5"/>
<text text-anchor="middle" x="63.5" y="-475.5" font-family="Helvetica,sans-Serif" font-size="10.00" fill="#000000">ene.AbstractObject</text>
<polyline fill="none" stroke="#000000" points="0,-468.5 127,-468.5 "/>
<text text-anchor="middle" x="63.5" y="-456.5" font-family="Helvetica,sans-Serif" font-size="10.00" fill="#000000"> </text>
<polyline fill="none" stroke="#000000" points="0,-449.5 127,-449.5 "/>
<text text-anchor="start" x="8" y="-437.5" font-family="Helvetica,sans-Serif" font-size="10.00" fill="#000000">+ enableDebugMode()</text>
<text text-anchor="start" x="8" y="-426.5" font-family="Helvetica,sans-Serif" font-size="10.00" fill="#000000">+ disableDebugMode()</text>
<text text-anchor="start" x="8" y="-415.5" font-family="Helvetica,sans-Serif" font-size="10.00" fill="#000000">+ isDebugModeEnabled()</text>
<text text-anchor="start" x="8" y="-404.5" font-family="Helvetica,sans-Serif" font-size="10.00" fill="#000000">+ debugInfoAbout()</text>
<text text-anchor="start" x="8" y="-393.5" font-family="Helvetica,sans-Serif" font-size="10.00" fill="#000000">+ consoleOutput()</text>
<text text-anchor="start" x="8" y="-382.5" font-family="Helvetica,sans-Serif" font-size="10.00" fill="#000000"># delay()</text>
</a>
</g>
</g>
<!-- Node6&#45;&gt;Node5 -->
<g id="edge2" class="edge">
<title>Node6&#45;&gt;Node5</title>
<path fill="none" stroke="#191970" d="M125.4823,-368.1403C139.0821,-354.2383 152.9826,-340.0289 164.9558,-327.7897"/>
<polygon fill="none" stroke="#191970" points="122.9007,-365.7742 118.4097,-375.3701 127.9046,-370.6693 122.9007,-365.7742"/>
</g>
<!-- Node7 -->
<g id="node4" class="node">
<title>Node7</title>
<polygon fill="none" stroke="#bfbfbf" points="25,-546.5 25,-603.5 102,-603.5 102,-546.5 25,-546.5"/>
<text text-anchor="middle" x="63.5" y="-591.5" font-family="Helvetica,sans-Serif" font-size="10.00" fill="#000000">static boolean</text>
<polyline fill="none" stroke="#bfbfbf" points="25,-584.5 102,-584.5 "/>
<text text-anchor="middle" x="63.5" y="-572.5" font-family="Helvetica,sans-Serif" font-size="10.00" fill="#000000"> </text>
<polyline fill="none" stroke="#bfbfbf" points="25,-565.5 102,-565.5 "/>
<text text-anchor="middle" x="63.5" y="-553.5" font-family="Helvetica,sans-Serif" font-size="10.00" fill="#000000"> </text>
</g>
<!-- Node7&#45;&gt;Node6 -->
<g id="edge3" class="edge">
<title>Node7&#45;&gt;Node6</title>
<path fill="none" stroke="#404040" d="M63.5,-546.3055C63.5,-532.9442 63.5,-516.4218 63.5,-500.1157"/>
<polygon fill="none" stroke="#404040" points="63.5001,-499.7445 59.5,-493.7445 63.5,-487.7445 67.5,-493.7444 63.5001,-499.7445"/>
<text text-anchor="middle" x="110.5" y="-514.5" font-family="Helvetica,sans-Serif" font-size="10.00" fill="#000000"> #debugModeEnabled</text>
</g>
<!-- Node8 -->
<g id="node5" class="node">
<title>Node8</title>
<g id="a_node5"><a xlink:href="interfaceene_1_1interfaces_1_1Model.html" target="_top" xlink:title="{ene.interfaces.Model\n||+ addView()\l}">
<polygon fill="none" stroke="#000000" points="145,-403 145,-460 252,-460 252,-403 145,-403"/>
<text text-anchor="middle" x="198.5" y="-448" font-family="Helvetica,sans-Serif" font-size="10.00" fill="#000000">ene.interfaces.Model</text>
<polyline fill="none" stroke="#000000" points="145,-441 252,-441 "/>
<text text-anchor="middle" x="198.5" y="-429" font-family="Helvetica,sans-Serif" font-size="10.00" fill="#000000"> </text>
<polyline fill="none" stroke="#000000" points="145,-422 252,-422 "/>
<text text-anchor="start" x="153" y="-410" font-family="Helvetica,sans-Serif" font-size="10.00" fill="#000000">+ addView()</text>
</a>
</g>
</g>
<!-- Node8&#45;&gt;Node5 -->
<g id="edge4" class="edge">
<title>Node8&#45;&gt;Node5</title>
<path fill="none" stroke="#191970" d="M198.5,-392.6659C198.5,-372.2198 198.5,-347.3736 198.5,-327.6664"/>
<polygon fill="none" stroke="#191970" points="195.0001,-392.9063 198.5,-402.9063 202.0001,-392.9063 195.0001,-392.9063"/>
</g>
<!-- Node9 -->
<g id="node6" class="node">
<title>Node9</title>
<polygon fill="none" stroke="#bfbfbf" points="270.5,-397.5 270.5,-465.5 404.5,-465.5 404.5,-397.5 270.5,-397.5"/>
<text text-anchor="start" x="278.5" y="-453.5" font-family="Helvetica,sans-Serif" font-size="10.00" fill="#000000">List&lt; ene.interfaces.Partial</text>
<text text-anchor="middle" x="337.5" y="-442.5" font-family="Helvetica,sans-Serif" font-size="10.00" fill="#000000">View &gt;</text>
<polyline fill="none" stroke="#bfbfbf" points="270.5,-435.5 404.5,-435.5 "/>
<text text-anchor="middle" x="337.5" y="-423.5" font-family="Helvetica,sans-Serif" font-size="10.00" fill="#000000"> </text>
<polyline fill="none" stroke="#bfbfbf" points="270.5,-416.5 404.5,-416.5 "/>
<text text-anchor="middle" x="337.5" y="-404.5" font-family="Helvetica,sans-Serif" font-size="10.00" fill="#000000"> </text>
</g>
<!-- Node9&#45;&gt;Node5 -->
<g id="edge5" class="edge">
<title>Node9&#45;&gt;Node5</title>
<path fill="none" stroke="#404040" d="M303.1404,-397.3876C284.5122,-378.8934 261.3133,-355.8614 241.4959,-336.1866"/>
<polygon fill="none" stroke="#404040" points="241.4619,-336.1528 234.3858,-334.7642 232.946,-327.6982 240.0222,-329.0869 241.4619,-336.1528"/>
<text text-anchor="middle" x="277.5" y="-349" font-family="Helvetica,sans-Serif" font-size="10.00" fill="#000000"> #views</text>
</g>
<!-- Node10 -->
<g id="node7" class="node">
<title>Node10</title>
<polygon fill="none" stroke="#bfbfbf" points="321.5,-546.5 321.5,-603.5 353.5,-603.5 353.5,-546.5 321.5,-546.5"/>
<text text-anchor="middle" x="337.5" y="-591.5" font-family="Helvetica,sans-Serif" font-size="10.00" fill="#000000">List</text>
<polyline fill="none" stroke="#bfbfbf" points="321.5,-584.5 353.5,-584.5 "/>
<text text-anchor="middle" x="337.5" y="-572.5" font-family="Helvetica,sans-Serif" font-size="10.00" fill="#000000"> </text>
<polyline fill="none" stroke="#bfbfbf" points="321.5,-565.5 353.5,-565.5 "/>
<text text-anchor="middle" x="337.5" y="-553.5" font-family="Helvetica,sans-Serif" font-size="10.00" fill="#000000"> </text>
</g>
<!-- Node10&#45;&gt;Node9 -->
<g id="edge6" class="edge">
<title>Node10&#45;&gt;Node9</title>
<path fill="none" stroke="#ffa500" d="M337.5,-536.2878C337.5,-514.2661 337.5,-486.9324 337.5,-465.7037"/>
<polygon fill="#ffa500" stroke="#ffa500" points="334.0001,-536.3055 337.5,-546.3055 341.0001,-536.3056 334.0001,-536.3055"/>
<text text-anchor="start" x="337.5" y="-520" font-family="Helvetica,sans-Serif" font-size="10.00" fill="#000000"> &lt; ene::interfaces::</text>
<text text-anchor="middle" x="379" y="-509" font-family="Helvetica,sans-Serif" font-size="10.00" fill="#000000">PartialView &gt;</text>
</g>
<!-- Node11 -->
<g id="node8" class="node">
<title>Node11</title>
<polygon fill="none" stroke="#bfbfbf" points="283.5,-265 283.5,-322 325.5,-322 325.5,-265 283.5,-265"/>
<text text-anchor="middle" x="304.5" y="-310" font-family="Helvetica,sans-Serif" font-size="10.00" fill="#000000">String</text>
<polyline fill="none" stroke="#bfbfbf" points="283.5,-303 325.5,-303 "/>
<text text-anchor="middle" x="304.5" y="-291" font-family="Helvetica,sans-Serif" font-size="10.00" fill="#000000"> </text>
<polyline fill="none" stroke="#bfbfbf" points="283.5,-284 325.5,-284 "/>
<text text-anchor="middle" x="304.5" y="-272" font-family="Helvetica,sans-Serif" font-size="10.00" fill="#000000"> </text>
</g>
<!-- Node11&#45;&gt;Node4 -->
<g id="edge7" class="edge">
<title>Node11&#45;&gt;Node4</title>
<path fill="none" stroke="#404040" d="M297.0188,-264.7045C291.9005,-245.0038 284.7815,-217.6026 277.692,-190.3145"/>
<polygon fill="none" stroke="#404040" points="277.6789,-190.2637 272.2986,-185.4624 274.6613,-178.6493 280.0416,-183.4507 277.6789,-190.2637"/>
<text text-anchor="middle" x="311" y="-233" font-family="Helvetica,sans-Serif" font-size="10.00" fill="#000000"> #title</text>
<text text-anchor="middle" x="311" y="-222" font-family="Helvetica,sans-Serif" font-size="10.00" fill="#000000">#filename</text>
<text text-anchor="middle" x="311" y="-211" font-family="Helvetica,sans-Serif" font-size="10.00" fill="#000000">#artist</text>
<text text-anchor="middle" x="311" y="-200" font-family="Helvetica,sans-Serif" font-size="10.00" fill="#000000">#genre</text>
</g>
</g>
</svg>
