<?xml version="1.0" encoding="UTF-8" standalone="no"?>
<!DOCTYPE svg PUBLIC "-//W3C//DTD SVG 1.1//EN"
 "http://www.w3.org/Graphics/SVG/1.1/DTD/svg11.dtd">
<!-- Generated by graphviz version 2.40.1 (20161225.0304)
 -->
<!-- Title: ene.views.AbstractView.getCoreComponent Pages: 1 -->
<svg width="539pt" height="137pt"
 viewBox="0.00 0.00 539.00 137.00" xmlns="http://www.w3.org/2000/svg" xmlns:xlink="http://www.w3.org/1999/xlink">
<g id="graph0" class="graph" transform="scale(1 1) rotate(0) translate(4 133)">
<title>ene.views.AbstractView.getCoreComponent</title>
<!-- Node1 -->
<g id="node1" class="node">
<title>Node1</title>
<polygon fill="#bfbfbf" stroke="#000000" points="0,-49.5 0,-79.5 139,-79.5 139,-49.5 0,-49.5"/>
<text text-anchor="start" x="8" y="-67.5" font-family="Helvetica,sans-Serif" font-size="10.00" fill="#000000">ene.views.AbstractView.get</text>
<text text-anchor="middle" x="69.5" y="-56.5" font-family="Helvetica,sans-Serif" font-size="10.00" fill="#000000">CoreComponent</text>
</g>
<!-- Node2 -->
<g id="node2" class="node">
<title>Node2</title>
<g id="a_node2"><a xlink:href="classene_1_1views_1_1gui_1_1WindowView.html#a2f281419aedc07356781392658155ad9" target="_top" xlink:title="ene.views.gui.WindowView.get\lTitle">
<polygon fill="none" stroke="#000000" points="175,-98.5 175,-128.5 328,-128.5 328,-98.5 175,-98.5"/>
<text text-anchor="start" x="183" y="-116.5" font-family="Helvetica,sans-Serif" font-size="10.00" fill="#000000">ene.views.gui.WindowView.get</text>
<text text-anchor="middle" x="251.5" y="-105.5" font-family="Helvetica,sans-Serif" font-size="10.00" fill="#000000">Title</text>
</a>
</g>
</g>
<!-- Node1&#45;&gt;Node2 -->
<g id="edge1" class="edge">
<title>Node1&#45;&gt;Node2</title>
<path fill="none" stroke="#191970" d="M135.4229,-82.2485C155.1481,-87.5591 176.5783,-93.3288 195.5941,-98.4484"/>
<polygon fill="#191970" stroke="#191970" points="136.1572,-78.8216 125.5911,-79.6014 134.3373,-85.5809 136.1572,-78.8216"/>
</g>
<!-- Node3 -->
<g id="node3" class="node">
<title>Node3</title>
<g id="a_node3"><a xlink:href="classene_1_1views_1_1gui_1_1partial_1_1LibraryView.html#a0bd6885fe06ebde4d3dffbcd888c0b41" target="_top" xlink:title="ene.views.gui.partial.Library\lView.render">
<polygon fill="none" stroke="#000000" points="182.5,-49.5 182.5,-79.5 320.5,-79.5 320.5,-49.5 182.5,-49.5"/>
<text text-anchor="start" x="190.5" y="-67.5" font-family="Helvetica,sans-Serif" font-size="10.00" fill="#000000">ene.views.gui.partial.Library</text>
<text text-anchor="middle" x="251.5" y="-56.5" font-family="Helvetica,sans-Serif" font-size="10.00" fill="#000000">View.render</text>
</a>
</g>
</g>
<!-- Node1&#45;&gt;Node3 -->
<g id="edge2" class="edge">
<title>Node1&#45;&gt;Node3</title>
<path fill="none" stroke="#191970" d="M149.1359,-64.5C160.1697,-64.5 171.43,-64.5 182.2541,-64.5"/>
<polygon fill="#191970" stroke="#191970" points="149.0855,-61.0001 139.0854,-64.5 149.0854,-68.0001 149.0855,-61.0001"/>
</g>
<!-- Node4 -->
<g id="node4" class="node">
<title>Node4</title>
<g id="a_node4"><a xlink:href="classene_1_1views_1_1gui_1_1WindowView.html#ab0f6dcadbede5ac1c47e346bf2df3593" target="_top" xlink:title="ene.views.gui.WindowView.set\lTitle">
<polygon fill="none" stroke="#000000" points="175,-.5 175,-30.5 328,-30.5 328,-.5 175,-.5"/>
<text text-anchor="start" x="183" y="-18.5" font-family="Helvetica,sans-Serif" font-size="10.00" fill="#000000">ene.views.gui.WindowView.set</text>
<text text-anchor="middle" x="251.5" y="-7.5" font-family="Helvetica,sans-Serif" font-size="10.00" fill="#000000">Title</text>
</a>
</g>
</g>
<!-- Node1&#45;&gt;Node4 -->
<g id="edge3" class="edge">
<title>Node1&#45;&gt;Node4</title>
<path fill="none" stroke="#191970" d="M135.4229,-46.7515C155.1481,-41.4409 176.5783,-35.6712 195.5941,-30.5516"/>
<polygon fill="#191970" stroke="#191970" points="134.3373,-43.4191 125.5911,-49.3986 136.1572,-50.1784 134.3373,-43.4191"/>
</g>
<!-- Node5 -->
<g id="node5" class="node">
<title>Node5</title>
<g id="a_node5"><a xlink:href="classene_1_1views_1_1gui_1_1WindowView.html#a2ce6d135f47d21b01c91eeeac2e5c52a" target="_top" xlink:title="ene.views.gui.WindowView.render">
<polygon fill="none" stroke="#000000" points="364,-6 364,-25 531,-25 531,-6 364,-6"/>
<text text-anchor="middle" x="447.5" y="-13" font-family="Helvetica,sans-Serif" font-size="10.00" fill="#000000">ene.views.gui.WindowView.render</text>
</a>
</g>
</g>
<!-- Node4&#45;&gt;Node5 -->
<g id="edge4" class="edge">
<title>Node4&#45;&gt;Node5</title>
<path fill="none" stroke="#191970" d="M338.3596,-15.5C346.8131,-15.5 355.3788,-15.5 363.8004,-15.5"/>
<polygon fill="#191970" stroke="#191970" points="338.1208,-12.0001 328.1208,-15.5 338.1208,-19.0001 338.1208,-12.0001"/>
</g>
</g>
</svg>
