<?xml version="1.0" encoding="UTF-8" standalone="no"?>
<!DOCTYPE svg PUBLIC "-//W3C//DTD SVG 1.1//EN"
 "http://www.w3.org/Graphics/SVG/1.1/DTD/svg11.dtd">
<!-- Generated by graphviz version 2.40.1 (20161225.0304)
 -->
<!-- Title: ene.views.gui.WindowView Pages: 1 -->
<svg width="440pt" height="590pt"
 viewBox="0.00 0.00 440.00 590.00" xmlns="http://www.w3.org/2000/svg" xmlns:xlink="http://www.w3.org/1999/xlink">
<g id="graph0" class="graph" transform="scale(1 1) rotate(0) translate(4 586)">
<title>ene.views.gui.WindowView</title>
<!-- Node0 -->
<g id="node1" class="node">
<title>Node0</title>
<polygon fill="#bfbfbf" stroke="#000000" points="218,-.5 218,-101.5 355,-101.5 355,-.5 218,-.5"/>
<text text-anchor="middle" x="286.5" y="-89.5" font-family="Helvetica,sans-Serif" font-size="10.00" fill="#000000">ene.views.gui.WindowView</text>
<polyline fill="none" stroke="#000000" points="218,-82.5 355,-82.5 "/>
<text text-anchor="middle" x="286.5" y="-70.5" font-family="Helvetica,sans-Serif" font-size="10.00" fill="#000000"> </text>
<polyline fill="none" stroke="#000000" points="218,-63.5 355,-63.5 "/>
<text text-anchor="start" x="226" y="-51.5" font-family="Helvetica,sans-Serif" font-size="10.00" fill="#000000">+ setTitle()</text>
<text text-anchor="start" x="226" y="-40.5" font-family="Helvetica,sans-Serif" font-size="10.00" fill="#000000">+ getTitle()</text>
<text text-anchor="start" x="226" y="-29.5" font-family="Helvetica,sans-Serif" font-size="10.00" fill="#000000">+ WindowView()</text>
<text text-anchor="start" x="226" y="-18.5" font-family="Helvetica,sans-Serif" font-size="10.00" fill="#000000">+ render()</text>
<text text-anchor="start" x="226" y="-7.5" font-family="Helvetica,sans-Serif" font-size="10.00" fill="#000000"># initialize()</text>
</g>
<!-- Node1 -->
<g id="node2" class="node">
<title>Node1</title>
<g id="a_node2"><a xlink:href="classene_1_1views_1_1AbstractMasterView.html" target="_top" xlink:title="{ene::views::AbstractMaster\lView\&lt; JFrame \&gt;\n|# views\l|+ addView()\l+ setAllViews()\l+ getAllViews()\l}">
<polygon fill="none" stroke="#000000" points="218,-138.5 218,-228.5 355,-228.5 355,-138.5 218,-138.5"/>
<text text-anchor="start" x="226" y="-216.5" font-family="Helvetica,sans-Serif" font-size="10.00" fill="#000000">ene::views::AbstractMaster</text>
<text text-anchor="middle" x="286.5" y="-205.5" font-family="Helvetica,sans-Serif" font-size="10.00" fill="#000000">View&lt; JFrame &gt;</text>
<polyline fill="none" stroke="#000000" points="218,-198.5 355,-198.5 "/>
<text text-anchor="start" x="226" y="-186.5" font-family="Helvetica,sans-Serif" font-size="10.00" fill="#000000"># views</text>
<polyline fill="none" stroke="#000000" points="218,-179.5 355,-179.5 "/>
<text text-anchor="start" x="226" y="-167.5" font-family="Helvetica,sans-Serif" font-size="10.00" fill="#000000">+ addView()</text>
<text text-anchor="start" x="226" y="-156.5" font-family="Helvetica,sans-Serif" font-size="10.00" fill="#000000">+ setAllViews()</text>
<text text-anchor="start" x="226" y="-145.5" font-family="Helvetica,sans-Serif" font-size="10.00" fill="#000000">+ getAllViews()</text>
</a>
</g>
</g>
<!-- Node1&#45;&gt;Node0 -->
<g id="edge1" class="edge">
<title>Node1&#45;&gt;Node0</title>
<path fill="none" stroke="#191970" d="M286.5,-128.2098C286.5,-119.5051 286.5,-110.5409 286.5,-101.9407"/>
<polygon fill="none" stroke="#191970" points="283.0001,-128.2716 286.5,-138.2716 290.0001,-128.2716 283.0001,-128.2716"/>
</g>
<!-- Node2 -->
<g id="node3" class="node">
<title>Node2</title>
<g id="a_node3"><a xlink:href="classene_1_1views_1_1AbstractView.html" target="_top" xlink:title="{ene::views::AbstractView\l\&lt; CoreComponentType \&gt;\n|# title\l# coreComponent\l# layoutPosition\l|+ setTitle()\l+ getTitle()\l+ setCoreComponent()\l+ getCoreComponent()\l+ setLayoutPosition()\l+ getLayoutPosition()\l}">
<polygon fill="none" stroke="#000000" points="146.5,-265.5 146.5,-410.5 274.5,-410.5 274.5,-265.5 146.5,-265.5"/>
<text text-anchor="start" x="154.5" y="-398.5" font-family="Helvetica,sans-Serif" font-size="10.00" fill="#000000">ene::views::AbstractView</text>
<text text-anchor="middle" x="210.5" y="-387.5" font-family="Helvetica,sans-Serif" font-size="10.00" fill="#000000">&lt; CoreComponentType &gt;</text>
<polyline fill="none" stroke="#000000" points="146.5,-380.5 274.5,-380.5 "/>
<text text-anchor="start" x="154.5" y="-368.5" font-family="Helvetica,sans-Serif" font-size="10.00" fill="#000000"># title</text>
<text text-anchor="start" x="154.5" y="-357.5" font-family="Helvetica,sans-Serif" font-size="10.00" fill="#000000"># coreComponent</text>
<text text-anchor="start" x="154.5" y="-346.5" font-family="Helvetica,sans-Serif" font-size="10.00" fill="#000000"># layoutPosition</text>
<polyline fill="none" stroke="#000000" points="146.5,-339.5 274.5,-339.5 "/>
<text text-anchor="start" x="154.5" y="-327.5" font-family="Helvetica,sans-Serif" font-size="10.00" fill="#000000">+ setTitle()</text>
<text text-anchor="start" x="154.5" y="-316.5" font-family="Helvetica,sans-Serif" font-size="10.00" fill="#000000">+ getTitle()</text>
<text text-anchor="start" x="154.5" y="-305.5" font-family="Helvetica,sans-Serif" font-size="10.00" fill="#000000">+ setCoreComponent()</text>
<text text-anchor="start" x="154.5" y="-294.5" font-family="Helvetica,sans-Serif" font-size="10.00" fill="#000000">+ getCoreComponent()</text>
<text text-anchor="start" x="154.5" y="-283.5" font-family="Helvetica,sans-Serif" font-size="10.00" fill="#000000">+ setLayoutPosition()</text>
<text text-anchor="start" x="154.5" y="-272.5" font-family="Helvetica,sans-Serif" font-size="10.00" fill="#000000">+ getLayoutPosition()</text>
</a>
</g>
</g>
<!-- Node2&#45;&gt;Node1 -->
<g id="edge2" class="edge">
<title>Node2&#45;&gt;Node1</title>
<path fill="none" stroke="#191970" d="M250.7547,-256.1664C255.4227,-246.6769 260.0451,-237.28 264.3389,-228.5512"/>
<polygon fill="none" stroke="#191970" points="247.548,-254.756 246.2746,-265.2741 253.8292,-257.8458 247.548,-254.756"/>
</g>
<!-- Node3 -->
<g id="node4" class="node">
<title>Node3</title>
<g id="a_node4"><a xlink:href="classene_1_1AbstractObject.html" target="_top" xlink:title="{ene.AbstractObject\n|# debugModeEnabled\l|+ enableDebugMode()\l+ disableDebugMode()\l+ isDebugModeEnabled()\l+ debugInfoAbout()\l+ consoleOutput()\l# delay()\l}">
<polygon fill="none" stroke="#000000" points="0,-458.5 0,-570.5 127,-570.5 127,-458.5 0,-458.5"/>
<text text-anchor="middle" x="63.5" y="-558.5" font-family="Helvetica,sans-Serif" font-size="10.00" fill="#000000">ene.AbstractObject</text>
<polyline fill="none" stroke="#000000" points="0,-551.5 127,-551.5 "/>
<text text-anchor="start" x="8" y="-539.5" font-family="Helvetica,sans-Serif" font-size="10.00" fill="#000000"># debugModeEnabled</text>
<polyline fill="none" stroke="#000000" points="0,-532.5 127,-532.5 "/>
<text text-anchor="start" x="8" y="-520.5" font-family="Helvetica,sans-Serif" font-size="10.00" fill="#000000">+ enableDebugMode()</text>
<text text-anchor="start" x="8" y="-509.5" font-family="Helvetica,sans-Serif" font-size="10.00" fill="#000000">+ disableDebugMode()</text>
<text text-anchor="start" x="8" y="-498.5" font-family="Helvetica,sans-Serif" font-size="10.00" fill="#000000">+ isDebugModeEnabled()</text>
<text text-anchor="start" x="8" y="-487.5" font-family="Helvetica,sans-Serif" font-size="10.00" fill="#000000">+ debugInfoAbout()</text>
<text text-anchor="start" x="8" y="-476.5" font-family="Helvetica,sans-Serif" font-size="10.00" fill="#000000">+ consoleOutput()</text>
<text text-anchor="start" x="8" y="-465.5" font-family="Helvetica,sans-Serif" font-size="10.00" fill="#000000"># delay()</text>
</a>
</g>
</g>
<!-- Node3&#45;&gt;Node2 -->
<g id="edge3" class="edge">
<title>Node3&#45;&gt;Node2</title>
<path fill="none" stroke="#191970" d="M117.0124,-450.2487C127.7492,-437.3573 139.1018,-423.7264 150.0549,-410.5753"/>
<polygon fill="none" stroke="#191970" points="114.1262,-448.2451 110.4159,-458.169 119.505,-452.7249 114.1262,-448.2451"/>
</g>
<!-- Node4 -->
<g id="node5" class="node">
<title>Node4</title>
<g id="a_node5"><a xlink:href="interfaceene_1_1interfaces_1_1View.html" target="_top" xlink:title="{ene::interfaces::View\l\&lt; CoreComponentType \&gt;\n||+ setTitle()\l+ getTitle()\l+ setCoreComponent()\l+ getCoreComponent()\l+ setLayoutPosition()\l+ getLayoutPosition()\l+ render()\l}">
<polygon fill="none" stroke="#000000" points="297.5,-447.5 297.5,-581.5 425.5,-581.5 425.5,-447.5 297.5,-447.5"/>
<text text-anchor="start" x="305.5" y="-569.5" font-family="Helvetica,sans-Serif" font-size="10.00" fill="#000000">ene::interfaces::View</text>
<text text-anchor="middle" x="361.5" y="-558.5" font-family="Helvetica,sans-Serif" font-size="10.00" fill="#000000">&lt; CoreComponentType &gt;</text>
<polyline fill="none" stroke="#000000" points="297.5,-551.5 425.5,-551.5 "/>
<text text-anchor="middle" x="361.5" y="-539.5" font-family="Helvetica,sans-Serif" font-size="10.00" fill="#000000"> </text>
<polyline fill="none" stroke="#000000" points="297.5,-532.5 425.5,-532.5 "/>
<text text-anchor="start" x="305.5" y="-520.5" font-family="Helvetica,sans-Serif" font-size="10.00" fill="#000000">+ setTitle()</text>
<text text-anchor="start" x="305.5" y="-509.5" font-family="Helvetica,sans-Serif" font-size="10.00" fill="#000000">+ getTitle()</text>
<text text-anchor="start" x="305.5" y="-498.5" font-family="Helvetica,sans-Serif" font-size="10.00" fill="#000000">+ setCoreComponent()</text>
<text text-anchor="start" x="305.5" y="-487.5" font-family="Helvetica,sans-Serif" font-size="10.00" fill="#000000">+ getCoreComponent()</text>
<text text-anchor="start" x="305.5" y="-476.5" font-family="Helvetica,sans-Serif" font-size="10.00" fill="#000000">+ setLayoutPosition()</text>
<text text-anchor="start" x="305.5" y="-465.5" font-family="Helvetica,sans-Serif" font-size="10.00" fill="#000000">+ getLayoutPosition()</text>
<text text-anchor="start" x="305.5" y="-454.5" font-family="Helvetica,sans-Serif" font-size="10.00" fill="#000000">+ render()</text>
</a>
</g>
</g>
<!-- Node4&#45;&gt;Node2 -->
<g id="edge4" class="edge">
<title>Node4&#45;&gt;Node2</title>
<path fill="none" stroke="#191970" d="M297.4404,-439.6224C289.2237,-430.0181 280.822,-420.1976 272.6368,-410.63"/>
<polygon fill="none" stroke="#191970" points="294.8222,-441.9461 303.9826,-447.2694 300.1413,-437.3955 294.8222,-441.9461"/>
</g>
<!-- Node6 -->
<g id="node7" class="node">
<title>Node6</title>
<g id="a_node7"><a xlink:href="interfaceene_1_1interfaces_1_1MasterView.html" target="_top" xlink:title="{ene::interfaces::MasterView\l\&lt; CoreComponentType \&gt;\n||+ addView()\l+ setAllViews()\l+ getAllViews()\l}">
<polygon fill="none" stroke="#000000" points="293,-293 293,-383 432,-383 432,-293 293,-293"/>
<text text-anchor="start" x="301" y="-371" font-family="Helvetica,sans-Serif" font-size="10.00" fill="#000000">ene::interfaces::MasterView</text>
<text text-anchor="middle" x="362.5" y="-360" font-family="Helvetica,sans-Serif" font-size="10.00" fill="#000000">&lt; CoreComponentType &gt;</text>
<polyline fill="none" stroke="#000000" points="293,-353 432,-353 "/>
<text text-anchor="middle" x="362.5" y="-341" font-family="Helvetica,sans-Serif" font-size="10.00" fill="#000000"> </text>
<polyline fill="none" stroke="#000000" points="293,-334 432,-334 "/>
<text text-anchor="start" x="301" y="-322" font-family="Helvetica,sans-Serif" font-size="10.00" fill="#000000">+ addView()</text>
<text text-anchor="start" x="301" y="-311" font-family="Helvetica,sans-Serif" font-size="10.00" fill="#000000">+ setAllViews()</text>
<text text-anchor="start" x="301" y="-300" font-family="Helvetica,sans-Serif" font-size="10.00" fill="#000000">+ getAllViews()</text>
</a>
</g>
</g>
<!-- Node4&#45;&gt;Node6 -->
<g id="edge7" class="edge">
<title>Node4&#45;&gt;Node6</title>
<path fill="none" stroke="#191970" d="M361.9384,-437.1153C362.0429,-418.6813 362.151,-399.6051 362.2441,-383.1703"/>
<polygon fill="none" stroke="#191970" points="358.4377,-437.2497 361.8809,-447.2694 365.4376,-437.2894 358.4377,-437.2497"/>
</g>
<!-- Node5 -->
<g id="node6" class="node">
<title>Node5</title>
<g id="a_node6"><a xlink:href="interfaceene_1_1interfaces_1_1Localization.html" target="_top" xlink:title="{ene.interfaces.Localization\n|+ DEFAULT_LOCALE\l|+ getString()\l}">
<polygon fill="none" stroke="#000000" points="145,-486 145,-543 278,-543 278,-486 145,-486"/>
<text text-anchor="middle" x="211.5" y="-531" font-family="Helvetica,sans-Serif" font-size="10.00" fill="#000000">ene.interfaces.Localization</text>
<polyline fill="none" stroke="#000000" points="145,-524 278,-524 "/>
<text text-anchor="start" x="153" y="-512" font-family="Helvetica,sans-Serif" font-size="10.00" fill="#000000">+ DEFAULT_LOCALE</text>
<polyline fill="none" stroke="#000000" points="145,-505 278,-505 "/>
<text text-anchor="start" x="153" y="-493" font-family="Helvetica,sans-Serif" font-size="10.00" fill="#000000">+ getString()</text>
</a>
</g>
</g>
<!-- Node5&#45;&gt;Node2 -->
<g id="edge5" class="edge">
<title>Node5&#45;&gt;Node2</title>
<path fill="none" stroke="#191970" d="M211.2798,-475.6349C211.1715,-456.5163 211.0373,-432.8371 210.911,-410.5404"/>
<polygon fill="none" stroke="#191970" points="207.7804,-475.7694 211.3371,-485.7494 214.7803,-475.7297 207.7804,-475.7694"/>
</g>
<!-- Node6&#45;&gt;Node1 -->
<g id="edge6" class="edge">
<title>Node6&#45;&gt;Node1</title>
<path fill="none" stroke="#191970" d="M335.7797,-283.6804C326.9316,-265.6932 317.1863,-245.8821 308.7142,-228.6592"/>
<polygon fill="none" stroke="#191970" points="332.7587,-285.4686 340.3133,-292.8969 339.0399,-282.3788 332.7587,-285.4686"/>
</g>
</g>
</svg>
