<?xml version="1.0" encoding="UTF-8" standalone="no"?>
<!DOCTYPE svg PUBLIC "-//W3C//DTD SVG 1.1//EN"
 "http://www.w3.org/Graphics/SVG/1.1/DTD/svg11.dtd">
<!-- Generated by graphviz version 2.40.1 (20161225.0304)
 -->
<!-- Title: ene.controllers.LibraryController.scan Pages: 1 -->
<svg width="772pt" height="149pt"
 viewBox="0.00 0.00 772.00 148.50" xmlns="http://www.w3.org/2000/svg" xmlns:xlink="http://www.w3.org/1999/xlink">
<g id="graph0" class="graph" transform="scale(1 1) rotate(0) translate(4 144.5)">
<title>ene.controllers.LibraryController.scan</title>
<!-- Node90 -->
<g id="node1" class="node">
<title>Node90</title>
<polygon fill="#bfbfbf" stroke="#000000" points="0,-66.5 0,-85.5 179,-85.5 179,-66.5 0,-66.5"/>
<text text-anchor="middle" x="89.5" y="-73.5" font-family="Helvetica,sans-Serif" font-size="10.00" fill="#000000">ene.controllers.LibraryController.scan</text>
</g>
<!-- Node91 -->
<g id="node2" class="node">
<title>Node91</title>
<g id="a_node2"><a xlink:href="classene_1_1controllers_1_1LibraryController.html#a8ebea67eb61c84ee6a4825fa98fe870b" target="_top" xlink:title="ene.controllers.LibraryController.addFile">
<polygon fill="none" stroke="#000000" points="215,-66.5 215,-85.5 404,-85.5 404,-66.5 215,-66.5"/>
<text text-anchor="middle" x="309.5" y="-73.5" font-family="Helvetica,sans-Serif" font-size="10.00" fill="#000000">ene.controllers.LibraryController.addFile</text>
</a>
</g>
</g>
<!-- Node90&#45;&gt;Node91 -->
<g id="edge1" class="edge">
<title>Node90&#45;&gt;Node91</title>
<path fill="none" stroke="#191970" d="M179.2997,-76C187.754,-76 196.3732,-76 204.9481,-76"/>
<polygon fill="#191970" stroke="#191970" points="204.9815,-79.5001 214.9815,-76 204.9814,-72.5001 204.9815,-79.5001"/>
</g>
<!-- Node92 -->
<g id="node3" class="node">
<title>Node92</title>
<g id="a_node3"><a xlink:href="classene_1_1models_1_1TrackModel.html#ab0db9bf0054a77ed2879695a379e3bd9" target="_top" xlink:title="ene.models.TrackModel.detect\lArtist">
<polygon fill="none" stroke="#000000" points="440,-110 440,-140 591,-140 591,-110 440,-110"/>
<text text-anchor="start" x="448" y="-128" font-family="Helvetica,sans-Serif" font-size="10.00" fill="#000000">ene.models.TrackModel.detect</text>
<text text-anchor="middle" x="515.5" y="-117" font-family="Helvetica,sans-Serif" font-size="10.00" fill="#000000">Artist</text>
</a>
</g>
</g>
<!-- Node91&#45;&gt;Node92 -->
<g id="edge2" class="edge">
<title>Node91&#45;&gt;Node92</title>
<path fill="none" stroke="#191970" d="M349.7079,-85.564C376.016,-91.8218 411.1618,-100.1817 442.3225,-107.5937"/>
<polygon fill="#191970" stroke="#191970" points="441.7449,-111.0539 452.2834,-109.963 443.3648,-104.2439 441.7449,-111.0539"/>
</g>
<!-- Node94 -->
<g id="node5" class="node">
<title>Node94</title>
<g id="a_node5"><a xlink:href="classene_1_1models_1_1TrackModel.html#a860b368d4cb6d81e7504cbf979c0cad7" target="_top" xlink:title="ene.models.TrackModel.detect\lTitle">
<polygon fill="none" stroke="#000000" points="440,-61 440,-91 591,-91 591,-61 440,-61"/>
<text text-anchor="start" x="448" y="-79" font-family="Helvetica,sans-Serif" font-size="10.00" fill="#000000">ene.models.TrackModel.detect</text>
<text text-anchor="middle" x="515.5" y="-68" font-family="Helvetica,sans-Serif" font-size="10.00" fill="#000000">Title</text>
</a>
</g>
</g>
<!-- Node91&#45;&gt;Node94 -->
<g id="edge4" class="edge">
<title>Node91&#45;&gt;Node94</title>
<path fill="none" stroke="#191970" d="M404.0592,-76C412.5563,-76 421.1305,-76 429.5485,-76"/>
<polygon fill="#191970" stroke="#191970" points="429.7234,-79.5001 439.7233,-76 429.7233,-72.5001 429.7234,-79.5001"/>
</g>
<!-- Node95 -->
<g id="node6" class="node">
<title>Node95</title>
<g id="a_node6"><a xlink:href="classene_1_1controllers_1_1AbstractController.html#a9a5afba01d0004a64db4cb14c23e0bbd" target="_top" xlink:title="ene.controllers.Abstract\lController\&lt; LibraryModel\l \&gt;::getModel">
<polygon fill="none" stroke="#000000" points="454,-.5 454,-41.5 577,-41.5 577,-.5 454,-.5"/>
<text text-anchor="start" x="462" y="-29.5" font-family="Helvetica,sans-Serif" font-size="10.00" fill="#000000">ene.controllers.Abstract</text>
<text text-anchor="start" x="462" y="-18.5" font-family="Helvetica,sans-Serif" font-size="10.00" fill="#000000">Controller&lt; LibraryModel</text>
<text text-anchor="middle" x="515.5" y="-7.5" font-family="Helvetica,sans-Serif" font-size="10.00" fill="#000000"> &gt;::getModel</text>
</a>
</g>
</g>
<!-- Node91&#45;&gt;Node95 -->
<g id="edge6" class="edge">
<title>Node91&#45;&gt;Node95</title>
<path fill="none" stroke="#191970" d="M345.3825,-66.4197C372.5561,-59.1646 410.7689,-48.9622 444.0955,-40.0643"/>
<polygon fill="#191970" stroke="#191970" points="445.0479,-43.4327 453.8066,-37.4715 443.2422,-36.6696 445.0479,-43.4327"/>
</g>
<!-- Node93 -->
<g id="node4" class="node">
<title>Node93</title>
<g id="a_node4"><a xlink:href="classene_1_1models_1_1TrackModel.html#a3bd9746678863a59cb9b7ec404f1f05e" target="_top" xlink:title="ene.models.TrackModel.cut\lFilenameFromPath">
<polygon fill="none" stroke="#000000" points="627,-85 627,-115 764,-115 764,-85 627,-85"/>
<text text-anchor="start" x="635" y="-103" font-family="Helvetica,sans-Serif" font-size="10.00" fill="#000000">ene.models.TrackModel.cut</text>
<text text-anchor="middle" x="695.5" y="-92" font-family="Helvetica,sans-Serif" font-size="10.00" fill="#000000">FilenameFromPath</text>
</a>
</g>
</g>
<!-- Node92&#45;&gt;Node93 -->
<g id="edge3" class="edge">
<title>Node92&#45;&gt;Node93</title>
<path fill="none" stroke="#191970" d="M591.0538,-114.5064C599.5593,-113.3251 608.2415,-112.1192 616.7858,-110.9325"/>
<polygon fill="#191970" stroke="#191970" points="617.3106,-114.3933 626.734,-109.5508 616.3475,-107.4599 617.3106,-114.3933"/>
</g>
<!-- Node94&#45;&gt;Node93 -->
<g id="edge5" class="edge">
<title>Node94&#45;&gt;Node93</title>
<path fill="none" stroke="#191970" d="M591.0538,-86.0738C599.5593,-87.2079 608.2415,-88.3655 616.7858,-89.5048"/>
<polygon fill="#191970" stroke="#191970" points="616.3591,-92.9788 626.734,-90.8312 617.2843,-86.0402 616.3591,-92.9788"/>
</g>
</g>
</svg>
