<?xml version="1.0" encoding="UTF-8" standalone="no"?>
<!DOCTYPE svg PUBLIC "-//W3C//DTD SVG 1.1//EN"
 "http://www.w3.org/Graphics/SVG/1.1/DTD/svg11.dtd">
<!-- Generated by graphviz version 2.40.1 (20161225.0304)
 -->
<!-- Title: ene.views.gui.partial.LibraryView.initialize Pages: 1 -->
<svg width="1191pt" height="562pt"
 viewBox="0.00 0.00 1191.00 562.00" xmlns="http://www.w3.org/2000/svg" xmlns:xlink="http://www.w3.org/1999/xlink">
<g id="graph0" class="graph" transform="scale(1 1) rotate(0) translate(4 558)">
<title>ene.views.gui.partial.LibraryView.initialize</title>
<!-- Node35 -->
<g id="node1" class="node">
<title>Node35</title>
<polygon fill="#bfbfbf" stroke="#000000" points="0,-237.5 0,-267.5 138,-267.5 138,-237.5 0,-237.5"/>
<text text-anchor="start" x="8" y="-255.5" font-family="Helvetica,sans-Serif" font-size="10.00" fill="#000000">ene.views.gui.partial.Library</text>
<text text-anchor="middle" x="69" y="-244.5" font-family="Helvetica,sans-Serif" font-size="10.00" fill="#000000">View.initialize</text>
</g>
<!-- Node36 -->
<g id="node2" class="node">
<title>Node36</title>
<g id="a_node2"><a xlink:href="classene_1_1controllers_1_1LibraryController.html#aa0d66e53872a376fe6d456eb070de8d4" target="_top" xlink:title="ene.controllers.LibraryController.add">
<polygon fill="none" stroke="#000000" points="174,-483 174,-502 347,-502 347,-483 174,-483"/>
<text text-anchor="middle" x="260.5" y="-490" font-family="Helvetica,sans-Serif" font-size="10.00" fill="#000000">ene.controllers.LibraryController.add</text>
</a>
</g>
</g>
<!-- Node35&#45;&gt;Node36 -->
<g id="edge1" class="edge">
<title>Node35&#45;&gt;Node36</title>
<path fill="none" stroke="#191970" d="M71.5032,-267.6758C79.0008,-308.0562 105.1734,-418.7769 174,-473.5 176.1061,-475.1745 178.3285,-476.7089 180.6414,-478.1145"/>
<polygon fill="#191970" stroke="#191970" points="179.4653,-481.4461 189.9569,-482.9213 182.6752,-475.2254 179.4653,-481.4461"/>
</g>
<!-- Node43 -->
<g id="node9" class="node">
<title>Node43</title>
<g id="a_node9"><a xlink:href="classene_1_1views_1_1AbstractView.html#a8b774594825c8749280b5b17013ad7dc" target="_top" xlink:title="ene.views.AbstractView.get\lCoreComponent">
<polygon fill="none" stroke="#000000" points="191,-433.5 191,-463.5 330,-463.5 330,-433.5 191,-433.5"/>
<text text-anchor="start" x="199" y="-451.5" font-family="Helvetica,sans-Serif" font-size="10.00" fill="#000000">ene.views.AbstractView.get</text>
<text text-anchor="middle" x="260.5" y="-440.5" font-family="Helvetica,sans-Serif" font-size="10.00" fill="#000000">CoreComponent</text>
</a>
</g>
</g>
<!-- Node35&#45;&gt;Node43 -->
<g id="edge9" class="edge">
<title>Node35&#45;&gt;Node43</title>
<path fill="none" stroke="#191970" d="M73.8585,-267.5382C85.4818,-301.0743 118.157,-382.3394 174,-424.5 176.4701,-426.3649 179.0775,-428.0849 181.7861,-429.6712"/>
<polygon fill="#191970" stroke="#191970" points="180.2455,-432.8147 190.7362,-434.2964 183.4592,-426.596 180.2455,-432.8147"/>
</g>
<!-- Node44 -->
<g id="node10" class="node">
<title>Node44</title>
<g id="a_node10"><a xlink:href="classene_1_1views_1_1gui_1_1partial_1_1LibraryView.html#a54aebe6234a85e8ec433d9836ad02bb4" target="_top" xlink:title="ene.views.gui.partial.Library\lView.getLibraryController">
<polygon fill="none" stroke="#000000" points="191.5,-384.5 191.5,-414.5 329.5,-414.5 329.5,-384.5 191.5,-384.5"/>
<text text-anchor="start" x="199.5" y="-402.5" font-family="Helvetica,sans-Serif" font-size="10.00" fill="#000000">ene.views.gui.partial.Library</text>
<text text-anchor="middle" x="260.5" y="-391.5" font-family="Helvetica,sans-Serif" font-size="10.00" fill="#000000">View.getLibraryController</text>
</a>
</g>
</g>
<!-- Node35&#45;&gt;Node44 -->
<g id="edge10" class="edge">
<title>Node35&#45;&gt;Node44</title>
<path fill="none" stroke="#191970" d="M77.6163,-267.5047C93.3453,-293.5293 129.2506,-346.98 174,-375.5 176.61,-377.1634 179.3356,-378.7132 182.1432,-380.157"/>
<polygon fill="#191970" stroke="#191970" points="180.8021,-383.3929 191.3474,-384.4164 183.742,-377.0402 180.8021,-383.3929"/>
</g>
<!-- Node45 -->
<g id="node11" class="node">
<title>Node45</title>
<g id="a_node11"><a xlink:href="classene_1_1views_1_1AbstractPartialView.html#afb90f9e02eea94a2fb276d711a67ee36" target="_top" xlink:title="ene.views.AbstractPartial\lView.getModel">
<polygon fill="none" stroke="#000000" points="196.5,-335.5 196.5,-365.5 324.5,-365.5 324.5,-335.5 196.5,-335.5"/>
<text text-anchor="start" x="204.5" y="-353.5" font-family="Helvetica,sans-Serif" font-size="10.00" fill="#000000">ene.views.AbstractPartial</text>
<text text-anchor="middle" x="260.5" y="-342.5" font-family="Helvetica,sans-Serif" font-size="10.00" fill="#000000">View.getModel</text>
</a>
</g>
</g>
<!-- Node35&#45;&gt;Node45 -->
<g id="edge11" class="edge">
<title>Node35&#45;&gt;Node45</title>
<path fill="none" stroke="#191970" d="M86.402,-267.6324C106.3252,-284.2442 140.5418,-310.6552 174,-326.5 178.0715,-328.4281 182.3263,-330.2268 186.6713,-331.9007"/>
<polygon fill="#191970" stroke="#191970" points="185.6964,-335.2697 196.2908,-335.3677 188.0699,-328.6843 185.6964,-335.2697"/>
</g>
<!-- Node46 -->
<g id="node12" class="node">
<title>Node46</title>
<g id="a_node12"><a xlink:href="classene_1_1views_1_1gui_1_1partial_1_1AbstractTrackListView.html#a35a32113ecdb8bc210fa6b4e9c57c782" target="_top" xlink:title="ene.views.gui.partial.Abstract\lTrackListView.getSelectedFilename">
<polygon fill="none" stroke="#000000" points="174,-286.5 174,-316.5 347,-316.5 347,-286.5 174,-286.5"/>
<text text-anchor="start" x="182" y="-304.5" font-family="Helvetica,sans-Serif" font-size="10.00" fill="#000000">ene.views.gui.partial.Abstract</text>
<text text-anchor="middle" x="260.5" y="-293.5" font-family="Helvetica,sans-Serif" font-size="10.00" fill="#000000">TrackListView.getSelectedFilename</text>
</a>
</g>
</g>
<!-- Node35&#45;&gt;Node46 -->
<g id="edge12" class="edge">
<title>Node35&#45;&gt;Node46</title>
<path fill="none" stroke="#191970" d="M127.7577,-267.5346C148.0694,-272.7318 171.0054,-278.6006 192.0275,-283.9796"/>
<polygon fill="#191970" stroke="#191970" points="191.2979,-287.4056 201.8534,-286.4938 193.0331,-280.6241 191.2979,-287.4056"/>
</g>
<!-- Node48 -->
<g id="node14" class="node">
<title>Node48</title>
<g id="a_node14"><a xlink:href="interfaceene_1_1interfaces_1_1Localization.html#ae7d5c65647a8bd1ca0c27b3279b0751c" target="_top" xlink:title="ene.interfaces.Localization.get\lString">
<polygon fill="none" stroke="#000000" points="186,-237.5 186,-267.5 335,-267.5 335,-237.5 186,-237.5"/>
<text text-anchor="start" x="194" y="-255.5" font-family="Helvetica,sans-Serif" font-size="10.00" fill="#000000">ene.interfaces.Localization.get</text>
<text text-anchor="middle" x="260.5" y="-244.5" font-family="Helvetica,sans-Serif" font-size="10.00" fill="#000000">String</text>
</a>
</g>
</g>
<!-- Node35&#45;&gt;Node48 -->
<g id="edge14" class="edge">
<title>Node35&#45;&gt;Node48</title>
<path fill="none" stroke="#191970" d="M138.1359,-252.5C150.3936,-252.5 163.2834,-252.5 175.9107,-252.5"/>
<polygon fill="#191970" stroke="#191970" points="175.9642,-256.0001 185.9642,-252.5 175.9642,-249.0001 175.9642,-256.0001"/>
</g>
<!-- Node49 -->
<g id="node15" class="node">
<title>Node49</title>
<g id="a_node15"><a xlink:href="classene_1_1views_1_1gui_1_1partial_1_1AbstractTrackListView.html#a709dd0b919d5e537076fe18ad992f25f" target="_top" xlink:title="ene.views.gui.partial.Abstract\lTrackListView.getTableContent">
<polygon fill="none" stroke="#000000" points="392.5,-196.5 392.5,-226.5 546.5,-226.5 546.5,-196.5 392.5,-196.5"/>
<text text-anchor="start" x="400.5" y="-214.5" font-family="Helvetica,sans-Serif" font-size="10.00" fill="#000000">ene.views.gui.partial.Abstract</text>
<text text-anchor="middle" x="469.5" y="-203.5" font-family="Helvetica,sans-Serif" font-size="10.00" fill="#000000">TrackListView.getTableContent</text>
</a>
</g>
</g>
<!-- Node35&#45;&gt;Node49 -->
<g id="edge15" class="edge">
<title>Node35&#45;&gt;Node49</title>
<path fill="none" stroke="#191970" d="M126.718,-237.4851C141.9962,-234.0123 158.5412,-230.6956 174,-228.5 243.6161,-218.6123 323.2354,-214.4378 382.2751,-212.6939"/>
<polygon fill="#191970" stroke="#191970" points="382.4103,-216.1916 392.3092,-212.415 382.2157,-209.1943 382.4103,-216.1916"/>
</g>
<!-- Node50 -->
<g id="node16" class="node">
<title>Node50</title>
<g id="a_node16"><a xlink:href="classene_1_1views_1_1gui_1_1partial_1_1AbstractTrackListView.html#a2b9e7e6496c9675f9094dea99e1e469d" target="_top" xlink:title="ene.views.gui.partial.Abstract\lTrackListView.hideColumn">
<polygon fill="none" stroke="#000000" points="187.5,-149.5 187.5,-179.5 333.5,-179.5 333.5,-149.5 187.5,-149.5"/>
<text text-anchor="start" x="195.5" y="-167.5" font-family="Helvetica,sans-Serif" font-size="10.00" fill="#000000">ene.views.gui.partial.Abstract</text>
<text text-anchor="middle" x="260.5" y="-156.5" font-family="Helvetica,sans-Serif" font-size="10.00" fill="#000000">TrackListView.hideColumn</text>
</a>
</g>
</g>
<!-- Node35&#45;&gt;Node50 -->
<g id="edge16" class="edge">
<title>Node35&#45;&gt;Node50</title>
<path fill="none" stroke="#191970" d="M93.4226,-237.4435C114.3225,-224.9435 145.4674,-207.2164 174,-194.5 183.1465,-190.4236 193.0299,-186.5367 202.7334,-182.9929"/>
<polygon fill="#191970" stroke="#191970" points="204.0978,-186.2223 212.3431,-179.5691 201.7485,-179.6283 204.0978,-186.2223"/>
</g>
<!-- Node51 -->
<g id="node17" class="node">
<title>Node51</title>
<g id="a_node17"><a xlink:href="classene_1_1views_1_1gui_1_1partial_1_1LibraryView.html#a734cbc08cf36ed3d48cb106b77ecf28b" target="_top" xlink:title="ene.views.gui.partial.Library\lView.loadContent">
<polygon fill="none" stroke="#000000" points="191.5,-100.5 191.5,-130.5 329.5,-130.5 329.5,-100.5 191.5,-100.5"/>
<text text-anchor="start" x="199.5" y="-118.5" font-family="Helvetica,sans-Serif" font-size="10.00" fill="#000000">ene.views.gui.partial.Library</text>
<text text-anchor="middle" x="260.5" y="-107.5" font-family="Helvetica,sans-Serif" font-size="10.00" fill="#000000">View.loadContent</text>
</a>
</g>
</g>
<!-- Node35&#45;&gt;Node51 -->
<g id="edge17" class="edge">
<title>Node35&#45;&gt;Node51</title>
<path fill="none" stroke="#191970" d="M79.0464,-237.3761C95.8413,-213.2741 131.9505,-166.2517 174,-140.5 177.4264,-138.4016 181.0368,-136.4726 184.7596,-134.7"/>
<polygon fill="#191970" stroke="#191970" points="186.4194,-137.7954 194.2044,-130.609 183.6371,-131.3721 186.4194,-137.7954"/>
</g>
<!-- Node56 -->
<g id="node22" class="node">
<title>Node56</title>
<g id="a_node22"><a xlink:href="classene_1_1views_1_1AbstractView.html#aa9bee221c279bc8a9dbada91184d8181" target="_top" xlink:title="ene.views.AbstractView.set\lCoreComponent">
<polygon fill="none" stroke="#000000" points="191,-51.5 191,-81.5 330,-81.5 330,-51.5 191,-51.5"/>
<text text-anchor="start" x="199" y="-69.5" font-family="Helvetica,sans-Serif" font-size="10.00" fill="#000000">ene.views.AbstractView.set</text>
<text text-anchor="middle" x="260.5" y="-58.5" font-family="Helvetica,sans-Serif" font-size="10.00" fill="#000000">CoreComponent</text>
</a>
</g>
</g>
<!-- Node35&#45;&gt;Node56 -->
<g id="edge23" class="edge">
<title>Node35&#45;&gt;Node56</title>
<path fill="none" stroke="#191970" d="M74.7405,-237.0185C87.4643,-204.8668 121.1577,-130.6075 174,-91.5 176.6387,-89.5472 179.4265,-87.7465 182.3213,-86.0861"/>
<polygon fill="#191970" stroke="#191970" points="183.9665,-89.176 191.2842,-81.5143 180.7858,-82.9404 183.9665,-89.176"/>
</g>
<!-- Node57 -->
<g id="node23" class="node">
<title>Node57</title>
<g id="a_node23"><a xlink:href="classene_1_1views_1_1gui_1_1partial_1_1AbstractTrackListView.html#a597363a2069558d6801c75be622b1988" target="_top" xlink:title="ene.views.gui.partial.Abstract\lTrackListView.setTable">
<polygon fill="none" stroke="#000000" points="187.5,-2.5 187.5,-32.5 333.5,-32.5 333.5,-2.5 187.5,-2.5"/>
<text text-anchor="start" x="195.5" y="-20.5" font-family="Helvetica,sans-Serif" font-size="10.00" fill="#000000">ene.views.gui.partial.Abstract</text>
<text text-anchor="middle" x="260.5" y="-9.5" font-family="Helvetica,sans-Serif" font-size="10.00" fill="#000000">TrackListView.setTable</text>
</a>
</g>
</g>
<!-- Node35&#45;&gt;Node57 -->
<g id="edge24" class="edge">
<title>Node35&#45;&gt;Node57</title>
<path fill="none" stroke="#191970" d="M72.0742,-237.3542C80.7513,-198.5773 109.142,-95.013 174,-41.5 175.5778,-40.1982 177.2211,-38.9668 178.9192,-37.802"/>
<polygon fill="#191970" stroke="#191970" points="181.0066,-40.633 187.8152,-32.5155 177.4305,-34.6154 181.0066,-40.633"/>
</g>
<!-- Node37 -->
<g id="node3" class="node">
<title>Node37</title>
<g id="a_node3"><a xlink:href="classene_1_1controllers_1_1LibraryController.html#a6bc70daa48b96db79d5524113a49cd3e" target="_top" xlink:title="ene.controllers.LibraryController.add\lDirectoryContent">
<polygon fill="none" stroke="#000000" points="383,-499.5 383,-529.5 556,-529.5 556,-499.5 383,-499.5"/>
<text text-anchor="start" x="391" y="-517.5" font-family="Helvetica,sans-Serif" font-size="10.00" fill="#000000">ene.controllers.LibraryController.add</text>
<text text-anchor="middle" x="469.5" y="-506.5" font-family="Helvetica,sans-Serif" font-size="10.00" fill="#000000">DirectoryContent</text>
</a>
</g>
</g>
<!-- Node36&#45;&gt;Node37 -->
<g id="edge2" class="edge">
<title>Node36&#45;&gt;Node37</title>
<path fill="none" stroke="#191970" d="M347.017,-501.607C355.492,-502.4992 364.1298,-503.4084 372.6982,-504.3103"/>
<polygon fill="#191970" stroke="#191970" points="372.3995,-507.7981 382.711,-505.3643 373.1324,-500.8366 372.3995,-507.7981"/>
</g>
<!-- Node39 -->
<g id="node5" class="node">
<title>Node39</title>
<g id="a_node5"><a xlink:href="classene_1_1controllers_1_1LibraryController.html#a8ebea67eb61c84ee6a4825fa98fe870b" target="_top" xlink:title="ene.controllers.LibraryController.addFile">
<polygon fill="none" stroke="#000000" points="807,-480 807,-499 996,-499 996,-480 807,-480"/>
<text text-anchor="middle" x="901.5" y="-487" font-family="Helvetica,sans-Serif" font-size="10.00" fill="#000000">ene.controllers.LibraryController.addFile</text>
</a>
</g>
</g>
<!-- Node36&#45;&gt;Node39 -->
<g id="edge8" class="edge">
<title>Node36&#45;&gt;Node39</title>
<path fill="none" stroke="#191970" d="M347.1632,-490.93C359.2,-490.7572 371.4082,-490.6058 383,-490.5 526.3008,-489.1921 691.8882,-489.1241 796.6258,-489.2598"/>
<polygon fill="#191970" stroke="#191970" points="796.8787,-492.76 806.8835,-489.274 796.8884,-485.76 796.8787,-492.76"/>
</g>
<!-- Node38 -->
<g id="node4" class="node">
<title>Node38</title>
<g id="a_node4"><a xlink:href="classene_1_1controllers_1_1LibraryController.html#a3a8b922c846a9b770b67f478ea0e5352" target="_top" xlink:title="ene.controllers.LibraryController.scan">
<polygon fill="none" stroke="#000000" points="592,-502 592,-521 771,-521 771,-502 592,-502"/>
<text text-anchor="middle" x="681.5" y="-509" font-family="Helvetica,sans-Serif" font-size="10.00" fill="#000000">ene.controllers.LibraryController.scan</text>
</a>
</g>
</g>
<!-- Node37&#45;&gt;Node38 -->
<g id="edge3" class="edge">
<title>Node37&#45;&gt;Node38</title>
<path fill="none" stroke="#191970" d="M556.0343,-513.2755C564.5103,-513.1555 573.1583,-513.0331 581.7514,-512.9115"/>
<polygon fill="#191970" stroke="#191970" points="581.8505,-516.4106 591.8,-512.7693 581.7514,-509.4113 581.8505,-516.4106"/>
</g>
<!-- Node38&#45;&gt;Node39 -->
<g id="edge4" class="edge">
<title>Node38&#45;&gt;Node39</title>
<path fill="none" stroke="#191970" d="M771.2997,-502.52C779.754,-501.6746 788.3732,-500.8127 796.9481,-499.9552"/>
<polygon fill="#191970" stroke="#191970" points="797.3794,-503.4296 806.9815,-498.9519 796.6828,-496.4644 797.3794,-503.4296"/>
</g>
<!-- Node40 -->
<g id="node6" class="node">
<title>Node40</title>
<g id="a_node6"><a xlink:href="classene_1_1models_1_1TrackModel.html#ab0db9bf0054a77ed2879695a379e3bd9" target="_top" xlink:title="ene.models.TrackModel.detect\lArtist">
<polygon fill="none" stroke="#000000" points="1032,-523.5 1032,-553.5 1183,-553.5 1183,-523.5 1032,-523.5"/>
<text text-anchor="start" x="1040" y="-541.5" font-family="Helvetica,sans-Serif" font-size="10.00" fill="#000000">ene.models.TrackModel.detect</text>
<text text-anchor="middle" x="1107.5" y="-530.5" font-family="Helvetica,sans-Serif" font-size="10.00" fill="#000000">Artist</text>
</a>
</g>
</g>
<!-- Node39&#45;&gt;Node40 -->
<g id="edge5" class="edge">
<title>Node39&#45;&gt;Node40</title>
<path fill="none" stroke="#191970" d="M941.7079,-499.064C968.016,-505.3218 1003.1618,-513.6817 1034.3225,-521.0937"/>
<polygon fill="#191970" stroke="#191970" points="1033.7449,-524.5539 1044.2834,-523.463 1035.3648,-517.7439 1033.7449,-524.5539"/>
</g>
<!-- Node41 -->
<g id="node7" class="node">
<title>Node41</title>
<g id="a_node7"><a xlink:href="classene_1_1models_1_1TrackModel.html#a860b368d4cb6d81e7504cbf979c0cad7" target="_top" xlink:title="ene.models.TrackModel.detect\lTitle">
<polygon fill="none" stroke="#000000" points="1032,-474.5 1032,-504.5 1183,-504.5 1183,-474.5 1032,-474.5"/>
<text text-anchor="start" x="1040" y="-492.5" font-family="Helvetica,sans-Serif" font-size="10.00" fill="#000000">ene.models.TrackModel.detect</text>
<text text-anchor="middle" x="1107.5" y="-481.5" font-family="Helvetica,sans-Serif" font-size="10.00" fill="#000000">Title</text>
</a>
</g>
</g>
<!-- Node39&#45;&gt;Node41 -->
<g id="edge6" class="edge">
<title>Node39&#45;&gt;Node41</title>
<path fill="none" stroke="#191970" d="M996.0592,-489.5C1004.5563,-489.5 1013.1305,-489.5 1021.5485,-489.5"/>
<polygon fill="#191970" stroke="#191970" points="1021.7234,-493.0001 1031.7233,-489.5 1021.7233,-486.0001 1021.7234,-493.0001"/>
</g>
<!-- Node42 -->
<g id="node8" class="node">
<title>Node42</title>
<g id="a_node8"><a xlink:href="classene_1_1controllers_1_1AbstractController.html#a9a5afba01d0004a64db4cb14c23e0bbd" target="_top" xlink:title="ene.controllers.Abstract\lController\&lt; LibraryModel\l \&gt;::getModel">
<polygon fill="none" stroke="#000000" points="1046,-414 1046,-455 1169,-455 1169,-414 1046,-414"/>
<text text-anchor="start" x="1054" y="-443" font-family="Helvetica,sans-Serif" font-size="10.00" fill="#000000">ene.controllers.Abstract</text>
<text text-anchor="start" x="1054" y="-432" font-family="Helvetica,sans-Serif" font-size="10.00" fill="#000000">Controller&lt; LibraryModel</text>
<text text-anchor="middle" x="1107.5" y="-421" font-family="Helvetica,sans-Serif" font-size="10.00" fill="#000000"> &gt;::getModel</text>
</a>
</g>
</g>
<!-- Node39&#45;&gt;Node42 -->
<g id="edge7" class="edge">
<title>Node39&#45;&gt;Node42</title>
<path fill="none" stroke="#191970" d="M937.3825,-479.9197C964.5561,-472.6646 1002.7689,-462.4622 1036.0955,-453.5643"/>
<polygon fill="#191970" stroke="#191970" points="1037.0479,-456.9327 1045.8066,-450.9715 1035.2422,-450.1696 1037.0479,-456.9327"/>
</g>
<!-- Node47 -->
<g id="node13" class="node">
<title>Node47</title>
<g id="a_node13"><a xlink:href="classene_1_1views_1_1gui_1_1partial_1_1AbstractTrackListView.html#aeea3d90287745704cda06893c94b9666" target="_top" xlink:title="ene.views.gui.partial.Abstract\lTrackListView.getTable">
<polygon fill="none" stroke="#000000" points="396.5,-286.5 396.5,-316.5 542.5,-316.5 542.5,-286.5 396.5,-286.5"/>
<text text-anchor="start" x="404.5" y="-304.5" font-family="Helvetica,sans-Serif" font-size="10.00" fill="#000000">ene.views.gui.partial.Abstract</text>
<text text-anchor="middle" x="469.5" y="-293.5" font-family="Helvetica,sans-Serif" font-size="10.00" fill="#000000">TrackListView.getTable</text>
</a>
</g>
</g>
<!-- Node46&#45;&gt;Node47 -->
<g id="edge13" class="edge">
<title>Node46&#45;&gt;Node47</title>
<path fill="none" stroke="#191970" d="M347.017,-301.5C359.9542,-301.5 373.2705,-301.5 386.1404,-301.5"/>
<polygon fill="#191970" stroke="#191970" points="386.3504,-305.0001 396.3503,-301.5 386.3503,-298.0001 386.3504,-305.0001"/>
</g>
<!-- Node51&#45;&gt;Node49 -->
<g id="edge18" class="edge">
<title>Node51&#45;&gt;Node49</title>
<path fill="none" stroke="#191970" d="M328.5274,-130.5569C335.0378,-133.3362 341.3204,-136.6206 347,-140.5 368.7277,-155.341 361.1932,-172.7755 383,-187.5 385.2825,-189.0412 387.6621,-190.484 390.1144,-191.8346"/>
<polygon fill="#191970" stroke="#191970" points="388.7505,-195.0641 399.269,-196.333 391.8376,-188.7815 388.7505,-195.0641"/>
</g>
<!-- Node52 -->
<g id="node18" class="node">
<title>Node52</title>
<g id="a_node18"><a xlink:href="classene_1_1models_1_1TrackModel.html#a04afba3cc5098c28ebd394fb7ac920ba" target="_top" xlink:title="ene.models.TrackModel.get\lArtist">
<polygon fill="none" stroke="#000000" points="401,-147.5 401,-177.5 538,-177.5 538,-147.5 401,-147.5"/>
<text text-anchor="start" x="409" y="-165.5" font-family="Helvetica,sans-Serif" font-size="10.00" fill="#000000">ene.models.TrackModel.get</text>
<text text-anchor="middle" x="469.5" y="-154.5" font-family="Helvetica,sans-Serif" font-size="10.00" fill="#000000">Artist</text>
</a>
</g>
</g>
<!-- Node51&#45;&gt;Node52 -->
<g id="edge19" class="edge">
<title>Node51&#45;&gt;Node52</title>
<path fill="none" stroke="#191970" d="M327.2035,-130.5003C348.1302,-135.2063 371.3939,-140.4379 392.946,-145.2845"/>
<polygon fill="#191970" stroke="#191970" points="392.189,-148.7016 402.7133,-147.481 393.7249,-141.8722 392.189,-148.7016"/>
</g>
<!-- Node53 -->
<g id="node19" class="node">
<title>Node53</title>
<g id="a_node19"><a xlink:href="classene_1_1models_1_1TrackModel.html#a5bac0e2b6c87c93eef2802d9d10bf3c1" target="_top" xlink:title="ene.models.TrackModel.get\lTitle">
<polygon fill="none" stroke="#000000" points="401,-98.5 401,-128.5 538,-128.5 538,-98.5 401,-98.5"/>
<text text-anchor="start" x="409" y="-116.5" font-family="Helvetica,sans-Serif" font-size="10.00" fill="#000000">ene.models.TrackModel.get</text>
<text text-anchor="middle" x="469.5" y="-105.5" font-family="Helvetica,sans-Serif" font-size="10.00" fill="#000000">Title</text>
</a>
</g>
</g>
<!-- Node51&#45;&gt;Node53 -->
<g id="edge20" class="edge">
<title>Node51&#45;&gt;Node53</title>
<path fill="none" stroke="#191970" d="M329.5136,-114.8396C349.1448,-114.6517 370.6718,-114.4457 390.8306,-114.2528"/>
<polygon fill="#191970" stroke="#191970" points="390.9492,-117.7519 400.9152,-114.1563 390.8822,-110.7523 390.9492,-117.7519"/>
</g>
<!-- Node54 -->
<g id="node20" class="node">
<title>Node54</title>
<g id="a_node20"><a xlink:href="classene_1_1models_1_1TrackModel.html#a2c57f7fe3f410c0e914af9a79de57346" target="_top" xlink:title="ene.models.TrackModel.get\lGenre">
<polygon fill="none" stroke="#000000" points="401,-49.5 401,-79.5 538,-79.5 538,-49.5 401,-49.5"/>
<text text-anchor="start" x="409" y="-67.5" font-family="Helvetica,sans-Serif" font-size="10.00" fill="#000000">ene.models.TrackModel.get</text>
<text text-anchor="middle" x="469.5" y="-56.5" font-family="Helvetica,sans-Serif" font-size="10.00" fill="#000000">Genre</text>
</a>
</g>
</g>
<!-- Node51&#45;&gt;Node54 -->
<g id="edge21" class="edge">
<title>Node51&#45;&gt;Node54</title>
<path fill="none" stroke="#191970" d="M322.0765,-100.4742C345.888,-94.6637 373.2983,-87.9751 397.9752,-81.9534"/>
<polygon fill="#191970" stroke="#191970" points="399.1176,-85.2774 408.0028,-79.5065 397.4581,-78.477 399.1176,-85.2774"/>
</g>
<!-- Node55 -->
<g id="node21" class="node">
<title>Node55</title>
<g id="a_node21"><a xlink:href="classene_1_1models_1_1TrackModel.html#aab88fe151b093dba71ad9f9ab5c6959d" target="_top" xlink:title="ene.models.TrackModel.get\lFilename">
<polygon fill="none" stroke="#000000" points="401,-.5 401,-30.5 538,-30.5 538,-.5 401,-.5"/>
<text text-anchor="start" x="409" y="-18.5" font-family="Helvetica,sans-Serif" font-size="10.00" fill="#000000">ene.models.TrackModel.get</text>
<text text-anchor="middle" x="469.5" y="-7.5" font-family="Helvetica,sans-Serif" font-size="10.00" fill="#000000">Filename</text>
</a>
</g>
</g>
<!-- Node51&#45;&gt;Node55 -->
<g id="edge22" class="edge">
<title>Node51&#45;&gt;Node55</title>
<path fill="none" stroke="#191970" d="M329.5948,-101.1761C335.7521,-98.4862 341.6649,-95.2923 347,-91.5 369.9108,-75.2145 360.0892,-55.7855 383,-39.5 385.7311,-37.5587 388.6135,-35.7742 391.6026,-34.1339"/>
<polygon fill="#191970" stroke="#191970" points="393.3873,-37.1578 400.8454,-29.6327 390.3224,-30.8644 393.3873,-37.1578"/>
</g>
</g>
</svg>
