<?xml version="1.0" encoding="UTF-8" standalone="no"?>
<!DOCTYPE svg PUBLIC "-//W3C//DTD SVG 1.1//EN"
 "http://www.w3.org/Graphics/SVG/1.1/DTD/svg11.dtd">
<!-- Generated by graphviz version 2.40.1 (20161225.0304)
 -->
<!-- Title: ene.models.PlaylistModel Pages: 1 -->
<svg width="550pt" height="794pt"
 viewBox="0.00 0.00 549.50 794.00" xmlns="http://www.w3.org/2000/svg" xmlns:xlink="http://www.w3.org/1999/xlink">
<g id="graph0" class="graph" transform="scale(1 1) rotate(0) translate(4 790)">
<title>ene.models.PlaylistModel</title>
<!-- Node5 -->
<g id="node1" class="node">
<title>Node5</title>
<polygon fill="#bfbfbf" stroke="#000000" points="255.5,-.5 255.5,-112.5 383.5,-112.5 383.5,-.5 255.5,-.5"/>
<text text-anchor="middle" x="319.5" y="-100.5" font-family="Helvetica,sans-Serif" font-size="10.00" fill="#000000">ene.models.PlaylistModel</text>
<polyline fill="none" stroke="#000000" points="255.5,-93.5 383.5,-93.5 "/>
<text text-anchor="middle" x="319.5" y="-81.5" font-family="Helvetica,sans-Serif" font-size="10.00" fill="#000000"> </text>
<polyline fill="none" stroke="#000000" points="255.5,-74.5 383.5,-74.5 "/>
<text text-anchor="start" x="263.5" y="-62.5" font-family="Helvetica,sans-Serif" font-size="10.00" fill="#000000">+ getLastAccess()</text>
<text text-anchor="start" x="263.5" y="-51.5" font-family="Helvetica,sans-Serif" font-size="10.00" fill="#000000">+ setCurrentTrack()</text>
<text text-anchor="start" x="263.5" y="-40.5" font-family="Helvetica,sans-Serif" font-size="10.00" fill="#000000">+ getCurrentTrack()</text>
<text text-anchor="start" x="263.5" y="-29.5" font-family="Helvetica,sans-Serif" font-size="10.00" fill="#000000">+ previousTrack()</text>
<text text-anchor="start" x="263.5" y="-18.5" font-family="Helvetica,sans-Serif" font-size="10.00" fill="#000000">+ nextTrack()</text>
<text text-anchor="start" x="263.5" y="-7.5" font-family="Helvetica,sans-Serif" font-size="10.00" fill="#000000"># updateLastAccess()</text>
</g>
<!-- Node6 -->
<g id="node2" class="node">
<title>Node6</title>
<g id="a_node2"><a xlink:href="classene_1_1models_1_1TrackListModel.html" target="_top" xlink:title="{ene.models.TrackListModel\n||+ add()\l+ remove()\l+ get()\l+ has()\l+ getAll()\l}">
<polygon fill="none" stroke="#000000" points="251,-204.5 251,-305.5 388,-305.5 388,-204.5 251,-204.5"/>
<text text-anchor="middle" x="319.5" y="-293.5" font-family="Helvetica,sans-Serif" font-size="10.00" fill="#000000">ene.models.TrackListModel</text>
<polyline fill="none" stroke="#000000" points="251,-286.5 388,-286.5 "/>
<text text-anchor="middle" x="319.5" y="-274.5" font-family="Helvetica,sans-Serif" font-size="10.00" fill="#000000"> </text>
<polyline fill="none" stroke="#000000" points="251,-267.5 388,-267.5 "/>
<text text-anchor="start" x="259" y="-255.5" font-family="Helvetica,sans-Serif" font-size="10.00" fill="#000000">+ add()</text>
<text text-anchor="start" x="259" y="-244.5" font-family="Helvetica,sans-Serif" font-size="10.00" fill="#000000">+ remove()</text>
<text text-anchor="start" x="259" y="-233.5" font-family="Helvetica,sans-Serif" font-size="10.00" fill="#000000">+ get()</text>
<text text-anchor="start" x="259" y="-222.5" font-family="Helvetica,sans-Serif" font-size="10.00" fill="#000000">+ has()</text>
<text text-anchor="start" x="259" y="-211.5" font-family="Helvetica,sans-Serif" font-size="10.00" fill="#000000">+ getAll()</text>
</a>
</g>
</g>
<!-- Node6&#45;&gt;Node5 -->
<g id="edge1" class="edge">
<title>Node6&#45;&gt;Node5</title>
<path fill="none" stroke="#191970" d="M319.5,-194.2808C319.5,-168.2722 319.5,-138.0847 319.5,-112.6069"/>
<polygon fill="none" stroke="#191970" points="316.0001,-194.3964 319.5,-204.3965 323.0001,-194.3965 316.0001,-194.3964"/>
</g>
<!-- Node7 -->
<g id="node3" class="node">
<title>Node7</title>
<g id="a_node3"><a xlink:href="classene_1_1models_1_1AbstractModel.html" target="_top" xlink:title="{ene.models.AbstractModel\n||+ addView()\l# changed()\l}">
<polygon fill="none" stroke="#000000" points="169,-430.5 169,-498.5 302,-498.5 302,-430.5 169,-430.5"/>
<text text-anchor="middle" x="235.5" y="-486.5" font-family="Helvetica,sans-Serif" font-size="10.00" fill="#000000">ene.models.AbstractModel</text>
<polyline fill="none" stroke="#000000" points="169,-479.5 302,-479.5 "/>
<text text-anchor="middle" x="235.5" y="-467.5" font-family="Helvetica,sans-Serif" font-size="10.00" fill="#000000"> </text>
<polyline fill="none" stroke="#000000" points="169,-460.5 302,-460.5 "/>
<text text-anchor="start" x="177" y="-448.5" font-family="Helvetica,sans-Serif" font-size="10.00" fill="#000000">+ addView()</text>
<text text-anchor="start" x="177" y="-437.5" font-family="Helvetica,sans-Serif" font-size="10.00" fill="#000000"># changed()</text>
</a>
</g>
</g>
<!-- Node7&#45;&gt;Node6 -->
<g id="edge2" class="edge">
<title>Node7&#45;&gt;Node6</title>
<path fill="none" stroke="#191970" d="M253.0114,-420.8257C266.4804,-387.2334 285.1132,-340.7623 299.2279,-305.5597"/>
<polygon fill="none" stroke="#191970" points="249.656,-419.7897 249.183,-430.3739 256.1532,-422.3948 249.656,-419.7897"/>
</g>
<!-- Node15 -->
<g id="node11" class="node">
<title>Node15</title>
<g id="a_node11"><a xlink:href="classene_1_1models_1_1TrackModel.html" target="_top" xlink:title="{ene.models.TrackModel\n||+ getFilename()\l+ setFilename()\l+ getArtist()\l+ setArtist()\l+ getTitle()\l+ setTitle()\l+ getGenre()\l+ setGenre()\l+ TrackModel()\l+ toString()\l+ detectArtist()\l+ detectTitle()\l# cutFilenameFromPath()\l}">
<polygon fill="none" stroke="#000000" points="106,-160.5 106,-349.5 233,-349.5 233,-160.5 106,-160.5"/>
<text text-anchor="middle" x="169.5" y="-337.5" font-family="Helvetica,sans-Serif" font-size="10.00" fill="#000000">ene.models.TrackModel</text>
<polyline fill="none" stroke="#000000" points="106,-330.5 233,-330.5 "/>
<text text-anchor="middle" x="169.5" y="-318.5" font-family="Helvetica,sans-Serif" font-size="10.00" fill="#000000"> </text>
<polyline fill="none" stroke="#000000" points="106,-311.5 233,-311.5 "/>
<text text-anchor="start" x="114" y="-299.5" font-family="Helvetica,sans-Serif" font-size="10.00" fill="#000000">+ getFilename()</text>
<text text-anchor="start" x="114" y="-288.5" font-family="Helvetica,sans-Serif" font-size="10.00" fill="#000000">+ setFilename()</text>
<text text-anchor="start" x="114" y="-277.5" font-family="Helvetica,sans-Serif" font-size="10.00" fill="#000000">+ getArtist()</text>
<text text-anchor="start" x="114" y="-266.5" font-family="Helvetica,sans-Serif" font-size="10.00" fill="#000000">+ setArtist()</text>
<text text-anchor="start" x="114" y="-255.5" font-family="Helvetica,sans-Serif" font-size="10.00" fill="#000000">+ getTitle()</text>
<text text-anchor="start" x="114" y="-244.5" font-family="Helvetica,sans-Serif" font-size="10.00" fill="#000000">+ setTitle()</text>
<text text-anchor="start" x="114" y="-233.5" font-family="Helvetica,sans-Serif" font-size="10.00" fill="#000000">+ getGenre()</text>
<text text-anchor="start" x="114" y="-222.5" font-family="Helvetica,sans-Serif" font-size="10.00" fill="#000000">+ setGenre()</text>
<text text-anchor="start" x="114" y="-211.5" font-family="Helvetica,sans-Serif" font-size="10.00" fill="#000000">+ TrackModel()</text>
<text text-anchor="start" x="114" y="-200.5" font-family="Helvetica,sans-Serif" font-size="10.00" fill="#000000">+ toString()</text>
<text text-anchor="start" x="114" y="-189.5" font-family="Helvetica,sans-Serif" font-size="10.00" fill="#000000">+ detectArtist()</text>
<text text-anchor="start" x="114" y="-178.5" font-family="Helvetica,sans-Serif" font-size="10.00" fill="#000000">+ detectTitle()</text>
<text text-anchor="start" x="114" y="-167.5" font-family="Helvetica,sans-Serif" font-size="10.00" fill="#000000"># cutFilenameFromPath()</text>
</a>
</g>
</g>
<!-- Node7&#45;&gt;Node15 -->
<g id="edge11" class="edge">
<title>Node7&#45;&gt;Node15</title>
<path fill="none" stroke="#191970" d="M221.6831,-420.6419C215.1722,-399.9746 207.135,-374.4627 199.3358,-349.7061"/>
<polygon fill="none" stroke="#191970" points="218.406,-421.8877 224.7491,-430.3739 225.0825,-419.7844 218.406,-421.8877"/>
</g>
<!-- Node8 -->
<g id="node4" class="node">
<title>Node8</title>
<g id="a_node4"><a xlink:href="classene_1_1AbstractObject.html" target="_top" xlink:title="{ene.AbstractObject\n||+ enableDebugMode()\l+ disableDebugMode()\l+ isDebugModeEnabled()\l+ debugInfoAbout()\l+ consoleOutput()\l# delay()\l}">
<polygon fill="none" stroke="#000000" points="0,-557.5 0,-669.5 127,-669.5 127,-557.5 0,-557.5"/>
<text text-anchor="middle" x="63.5" y="-657.5" font-family="Helvetica,sans-Serif" font-size="10.00" fill="#000000">ene.AbstractObject</text>
<polyline fill="none" stroke="#000000" points="0,-650.5 127,-650.5 "/>
<text text-anchor="middle" x="63.5" y="-638.5" font-family="Helvetica,sans-Serif" font-size="10.00" fill="#000000"> </text>
<polyline fill="none" stroke="#000000" points="0,-631.5 127,-631.5 "/>
<text text-anchor="start" x="8" y="-619.5" font-family="Helvetica,sans-Serif" font-size="10.00" fill="#000000">+ enableDebugMode()</text>
<text text-anchor="start" x="8" y="-608.5" font-family="Helvetica,sans-Serif" font-size="10.00" fill="#000000">+ disableDebugMode()</text>
<text text-anchor="start" x="8" y="-597.5" font-family="Helvetica,sans-Serif" font-size="10.00" fill="#000000">+ isDebugModeEnabled()</text>
<text text-anchor="start" x="8" y="-586.5" font-family="Helvetica,sans-Serif" font-size="10.00" fill="#000000">+ debugInfoAbout()</text>
<text text-anchor="start" x="8" y="-575.5" font-family="Helvetica,sans-Serif" font-size="10.00" fill="#000000">+ consoleOutput()</text>
<text text-anchor="start" x="8" y="-564.5" font-family="Helvetica,sans-Serif" font-size="10.00" fill="#000000"># delay()</text>
</a>
</g>
</g>
<!-- Node8&#45;&gt;Node7 -->
<g id="edge3" class="edge">
<title>Node8&#45;&gt;Node7</title>
<path fill="none" stroke="#191970" d="M134.7308,-551.7943C155.7324,-533.601 177.9455,-514.3583 196.156,-498.5829"/>
<polygon fill="none" stroke="#191970" points="132.3245,-549.2481 127.0578,-558.4412 136.9078,-554.539 132.3245,-549.2481"/>
</g>
<!-- Node9 -->
<g id="node5" class="node">
<title>Node9</title>
<polygon fill="none" stroke="#bfbfbf" points="25,-728.5 25,-785.5 102,-785.5 102,-728.5 25,-728.5"/>
<text text-anchor="middle" x="63.5" y="-773.5" font-family="Helvetica,sans-Serif" font-size="10.00" fill="#000000">static boolean</text>
<polyline fill="none" stroke="#bfbfbf" points="25,-766.5 102,-766.5 "/>
<text text-anchor="middle" x="63.5" y="-754.5" font-family="Helvetica,sans-Serif" font-size="10.00" fill="#000000"> </text>
<polyline fill="none" stroke="#bfbfbf" points="25,-747.5 102,-747.5 "/>
<text text-anchor="middle" x="63.5" y="-735.5" font-family="Helvetica,sans-Serif" font-size="10.00" fill="#000000"> </text>
</g>
<!-- Node9&#45;&gt;Node8 -->
<g id="edge4" class="edge">
<title>Node9&#45;&gt;Node8</title>
<path fill="none" stroke="#404040" d="M63.5,-728.3055C63.5,-714.9442 63.5,-698.4218 63.5,-682.1157"/>
<polygon fill="none" stroke="#404040" points="63.5001,-681.7445 59.5,-675.7445 63.5,-669.7445 67.5,-675.7444 63.5001,-681.7445"/>
<text text-anchor="middle" x="110.5" y="-696.5" font-family="Helvetica,sans-Serif" font-size="10.00" fill="#000000"> #debugModeEnabled</text>
</g>
<!-- Node10 -->
<g id="node6" class="node">
<title>Node10</title>
<g id="a_node6"><a xlink:href="interfaceene_1_1interfaces_1_1Model.html" target="_top" xlink:title="{ene.interfaces.Model\n||+ addView()\l}">
<polygon fill="none" stroke="#000000" points="145,-585 145,-642 252,-642 252,-585 145,-585"/>
<text text-anchor="middle" x="198.5" y="-630" font-family="Helvetica,sans-Serif" font-size="10.00" fill="#000000">ene.interfaces.Model</text>
<polyline fill="none" stroke="#000000" points="145,-623 252,-623 "/>
<text text-anchor="middle" x="198.5" y="-611" font-family="Helvetica,sans-Serif" font-size="10.00" fill="#000000"> </text>
<polyline fill="none" stroke="#000000" points="145,-604 252,-604 "/>
<text text-anchor="start" x="153" y="-592" font-family="Helvetica,sans-Serif" font-size="10.00" fill="#000000">+ addView()</text>
</a>
</g>
</g>
<!-- Node10&#45;&gt;Node7 -->
<g id="edge5" class="edge">
<title>Node10&#45;&gt;Node7</title>
<path fill="none" stroke="#191970" d="M208.121,-574.7559C213.9778,-551.1705 221.3909,-521.3175 227.026,-498.6252"/>
<polygon fill="none" stroke="#191970" points="204.6472,-574.2225 205.634,-584.7713 211.4409,-575.9096 204.6472,-574.2225"/>
</g>
<!-- Node11 -->
<g id="node7" class="node">
<title>Node11</title>
<polygon fill="none" stroke="#bfbfbf" points="270.5,-579.5 270.5,-647.5 404.5,-647.5 404.5,-579.5 270.5,-579.5"/>
<text text-anchor="start" x="278.5" y="-635.5" font-family="Helvetica,sans-Serif" font-size="10.00" fill="#000000">List&lt; ene.interfaces.Partial</text>
<text text-anchor="middle" x="337.5" y="-624.5" font-family="Helvetica,sans-Serif" font-size="10.00" fill="#000000">View&lt;?, ?&gt; &gt;</text>
<polyline fill="none" stroke="#bfbfbf" points="270.5,-617.5 404.5,-617.5 "/>
<text text-anchor="middle" x="337.5" y="-605.5" font-family="Helvetica,sans-Serif" font-size="10.00" fill="#000000"> </text>
<polyline fill="none" stroke="#bfbfbf" points="270.5,-598.5 404.5,-598.5 "/>
<text text-anchor="middle" x="337.5" y="-586.5" font-family="Helvetica,sans-Serif" font-size="10.00" fill="#000000"> </text>
</g>
<!-- Node11&#45;&gt;Node7 -->
<g id="edge6" class="edge">
<title>Node11&#45;&gt;Node7</title>
<path fill="none" stroke="#404040" d="M314.0991,-579.3164C299.7158,-558.3055 281.1414,-531.1723 265.6608,-508.5584"/>
<polygon fill="none" stroke="#404040" points="265.5706,-508.4266 258.8806,-505.7351 258.792,-498.5245 265.482,-501.216 265.5706,-508.4266"/>
<text text-anchor="middle" x="303.5" y="-525.5" font-family="Helvetica,sans-Serif" font-size="10.00" fill="#000000"> #views</text>
</g>
<!-- Node12 -->
<g id="node8" class="node">
<title>Node12</title>
<polygon fill="none" stroke="#bfbfbf" points="321.5,-728.5 321.5,-785.5 353.5,-785.5 353.5,-728.5 321.5,-728.5"/>
<text text-anchor="middle" x="337.5" y="-773.5" font-family="Helvetica,sans-Serif" font-size="10.00" fill="#000000">List</text>
<polyline fill="none" stroke="#bfbfbf" points="321.5,-766.5 353.5,-766.5 "/>
<text text-anchor="middle" x="337.5" y="-754.5" font-family="Helvetica,sans-Serif" font-size="10.00" fill="#000000"> </text>
<polyline fill="none" stroke="#bfbfbf" points="321.5,-747.5 353.5,-747.5 "/>
<text text-anchor="middle" x="337.5" y="-735.5" font-family="Helvetica,sans-Serif" font-size="10.00" fill="#000000"> </text>
</g>
<!-- Node12&#45;&gt;Node11 -->
<g id="edge7" class="edge">
<title>Node12&#45;&gt;Node11</title>
<path fill="none" stroke="#ffa500" d="M337.5,-718.2878C337.5,-696.2661 337.5,-668.9324 337.5,-647.7037"/>
<polygon fill="#ffa500" stroke="#ffa500" points="334.0001,-718.3055 337.5,-728.3055 341.0001,-718.3056 334.0001,-718.3055"/>
<text text-anchor="start" x="337.5" y="-702" font-family="Helvetica,sans-Serif" font-size="10.00" fill="#000000"> &lt; ene::interfaces::</text>
<text text-anchor="middle" x="381.5" y="-691" font-family="Helvetica,sans-Serif" font-size="10.00" fill="#000000">PartialView&lt;?, ?&gt; &gt;</text>
</g>
<!-- Node13 -->
<g id="node9" class="node">
<title>Node13</title>
<polygon fill="none" stroke="#bfbfbf" points="360,-430.5 360,-498.5 493,-498.5 493,-430.5 360,-430.5"/>
<text text-anchor="start" x="368" y="-486.5" font-family="Helvetica,sans-Serif" font-size="10.00" fill="#000000">NavigableMap&lt; String,</text>
<text text-anchor="middle" x="426.5" y="-475.5" font-family="Helvetica,sans-Serif" font-size="10.00" fill="#000000"> ene.models.TrackModel &gt;</text>
<polyline fill="none" stroke="#bfbfbf" points="360,-468.5 493,-468.5 "/>
<text text-anchor="middle" x="426.5" y="-456.5" font-family="Helvetica,sans-Serif" font-size="10.00" fill="#000000"> </text>
<polyline fill="none" stroke="#bfbfbf" points="360,-449.5 493,-449.5 "/>
<text text-anchor="middle" x="426.5" y="-437.5" font-family="Helvetica,sans-Serif" font-size="10.00" fill="#000000"> </text>
</g>
<!-- Node13&#45;&gt;Node6 -->
<g id="edge8" class="edge">
<title>Node13&#45;&gt;Node6</title>
<path fill="none" stroke="#404040" d="M409.0705,-430.3739C393.3323,-399.5595 369.799,-353.4827 350.8036,-316.2907"/>
<polygon fill="none" stroke="#404040" points="350.7811,-316.2465 344.4897,-312.7225 345.3228,-305.5597 351.6142,-309.0837 350.7811,-316.2465"/>
<text text-anchor="middle" x="415.5" y="-387.5" font-family="Helvetica,sans-Serif" font-size="10.00" fill="#000000"> #tracks</text>
</g>
<!-- Node14 -->
<g id="node10" class="node">
<title>Node14</title>
<polygon fill="none" stroke="#bfbfbf" points="423,-585 423,-642 502,-642 502,-585 423,-585"/>
<text text-anchor="middle" x="462.5" y="-630" font-family="Helvetica,sans-Serif" font-size="10.00" fill="#000000">NavigableMap</text>
<polyline fill="none" stroke="#bfbfbf" points="423,-623 502,-623 "/>
<text text-anchor="middle" x="462.5" y="-611" font-family="Helvetica,sans-Serif" font-size="10.00" fill="#000000"> </text>
<polyline fill="none" stroke="#bfbfbf" points="423,-604 502,-604 "/>
<text text-anchor="middle" x="462.5" y="-592" font-family="Helvetica,sans-Serif" font-size="10.00" fill="#000000"> </text>
</g>
<!-- Node14&#45;&gt;Node13 -->
<g id="edge9" class="edge">
<title>Node14&#45;&gt;Node13</title>
<path fill="none" stroke="#ffa500" d="M453.139,-574.7559C447.4405,-551.1705 440.2277,-521.3175 434.745,-498.6252"/>
<polygon fill="#ffa500" stroke="#ffa500" points="449.8081,-575.873 455.5588,-584.7713 456.6123,-574.229 449.8081,-575.873"/>
<text text-anchor="start" x="444.5" y="-531" font-family="Helvetica,sans-Serif" font-size="10.00" fill="#000000"> &lt; String, ene::models</text>
<text text-anchor="middle" x="493" y="-520" font-family="Helvetica,sans-Serif" font-size="10.00" fill="#000000">::TrackModel &gt;</text>
</g>
<!-- Node15&#45;&gt;Node5 -->
<g id="edge10" class="edge">
<title>Node15&#45;&gt;Node5</title>
<path fill="none" stroke="#404040" d="M229.7756,-160.4757C236.8788,-150.3666 244.2018,-140.3641 251.5,-131 253.7943,-128.0563 256.1779,-125.0864 258.62,-122.115"/>
<polygon fill="none" stroke="#404040" points="258.8563,-121.834 259.6574,-114.6676 266.5808,-112.6507 265.7796,-119.8172 258.8563,-121.834"/>
<text text-anchor="middle" x="283.5" y="-134" font-family="Helvetica,sans-Serif" font-size="10.00" fill="#000000"> #currentTrack</text>
</g>
<!-- Node16 -->
<g id="node12" class="node">
<title>Node16</title>
<polygon fill="none" stroke="#bfbfbf" points="108.5,-436 108.5,-493 150.5,-493 150.5,-436 108.5,-436"/>
<text text-anchor="middle" x="129.5" y="-481" font-family="Helvetica,sans-Serif" font-size="10.00" fill="#000000">String</text>
<polyline fill="none" stroke="#bfbfbf" points="108.5,-474 150.5,-474 "/>
<text text-anchor="middle" x="129.5" y="-462" font-family="Helvetica,sans-Serif" font-size="10.00" fill="#000000"> </text>
<polyline fill="none" stroke="#bfbfbf" points="108.5,-455 150.5,-455 "/>
<text text-anchor="middle" x="129.5" y="-443" font-family="Helvetica,sans-Serif" font-size="10.00" fill="#000000"> </text>
</g>
<!-- Node16&#45;&gt;Node15 -->
<g id="edge12" class="edge">
<title>Node16&#45;&gt;Node15</title>
<path fill="none" stroke="#404040" d="M134.978,-435.8092C138.7056,-416.2855 143.8936,-389.1137 149.1164,-361.7591"/>
<polygon fill="none" stroke="#404040" points="149.1821,-361.4144 146.3784,-354.7706 151.4327,-349.6273 154.2365,-356.271 149.1821,-361.4144"/>
<text text-anchor="middle" x="169" y="-404" font-family="Helvetica,sans-Serif" font-size="10.00" fill="#000000"> #title</text>
<text text-anchor="middle" x="169" y="-393" font-family="Helvetica,sans-Serif" font-size="10.00" fill="#000000">#filename</text>
<text text-anchor="middle" x="169" y="-382" font-family="Helvetica,sans-Serif" font-size="10.00" fill="#000000">#artist</text>
<text text-anchor="middle" x="169" y="-371" font-family="Helvetica,sans-Serif" font-size="10.00" fill="#000000">#genre</text>
</g>
<!-- Node17 -->
<g id="node13" class="node">
<title>Node17</title>
<polygon fill="none" stroke="#bfbfbf" points="406.5,-226.5 406.5,-283.5 444.5,-283.5 444.5,-226.5 406.5,-226.5"/>
<text text-anchor="middle" x="425.5" y="-271.5" font-family="Helvetica,sans-Serif" font-size="10.00" fill="#000000">Date</text>
<polyline fill="none" stroke="#bfbfbf" points="406.5,-264.5 444.5,-264.5 "/>
<text text-anchor="middle" x="425.5" y="-252.5" font-family="Helvetica,sans-Serif" font-size="10.00" fill="#000000"> </text>
<polyline fill="none" stroke="#bfbfbf" points="406.5,-245.5 444.5,-245.5 "/>
<text text-anchor="middle" x="425.5" y="-233.5" font-family="Helvetica,sans-Serif" font-size="10.00" fill="#000000"> </text>
</g>
<!-- Node17&#45;&gt;Node5 -->
<g id="edge13" class="edge">
<title>Node17&#45;&gt;Node5</title>
<path fill="none" stroke="#404040" d="M419.8383,-226.142C415.3634,-206.7701 408.0889,-181.0424 397.5,-160 391.0997,-147.2813 383.0975,-134.5262 374.6764,-122.53"/>
<polygon fill="none" stroke="#404040" points="374.5626,-122.3725 367.8052,-119.8549 367.5302,-112.649 374.2876,-115.1666 374.5626,-122.3725"/>
<text text-anchor="middle" x="415.5" y="-134" font-family="Helvetica,sans-Serif" font-size="10.00" fill="#000000"> #lastAccess</text>
</g>
</g>
</svg>
