<?xml version="1.0" encoding="UTF-8" standalone="no"?>
<!DOCTYPE svg PUBLIC "-//W3C//DTD SVG 1.1//EN"
 "http://www.w3.org/Graphics/SVG/1.1/DTD/svg11.dtd">
<!-- Generated by graphviz version 2.40.1 (20161225.0304)
 -->
<!-- Title: ene.models.AbstractModel Pages: 1 -->
<svg width="434pt" height="353pt"
 viewBox="0.00 0.00 433.50 353.00" xmlns="http://www.w3.org/2000/svg" xmlns:xlink="http://www.w3.org/1999/xlink">
<g id="graph0" class="graph" transform="scale(1 1) rotate(0) translate(4 349)">
<title>ene.models.AbstractModel</title>
<!-- Node8 -->
<g id="node1" class="node">
<title>Node8</title>
<polygon fill="#bfbfbf" stroke="#000000" points="132,-.5 132,-68.5 265,-68.5 265,-.5 132,-.5"/>
<text text-anchor="middle" x="198.5" y="-56.5" font-family="Helvetica,sans-Serif" font-size="10.00" fill="#000000">ene.models.AbstractModel</text>
<polyline fill="none" stroke="#000000" points="132,-49.5 265,-49.5 "/>
<text text-anchor="middle" x="198.5" y="-37.5" font-family="Helvetica,sans-Serif" font-size="10.00" fill="#000000"> </text>
<polyline fill="none" stroke="#000000" points="132,-30.5 265,-30.5 "/>
<text text-anchor="start" x="140" y="-18.5" font-family="Helvetica,sans-Serif" font-size="10.00" fill="#000000">+ addView()</text>
<text text-anchor="start" x="140" y="-7.5" font-family="Helvetica,sans-Serif" font-size="10.00" fill="#000000"># changed()</text>
</g>
<!-- Node9 -->
<g id="node2" class="node">
<title>Node9</title>
<g id="a_node2"><a xlink:href="classene_1_1AbstractObject.html" target="_top" xlink:title="{ene.AbstractObject\n||+ enableDebugMode()\l+ disableDebugMode()\l+ isDebugModeEnabled()\l+ debugInfoAbout()\l+ consoleOutput()\l# delay()\l}">
<polygon fill="none" stroke="#000000" points="0,-116.5 0,-228.5 127,-228.5 127,-116.5 0,-116.5"/>
<text text-anchor="middle" x="63.5" y="-216.5" font-family="Helvetica,sans-Serif" font-size="10.00" fill="#000000">ene.AbstractObject</text>
<polyline fill="none" stroke="#000000" points="0,-209.5 127,-209.5 "/>
<text text-anchor="middle" x="63.5" y="-197.5" font-family="Helvetica,sans-Serif" font-size="10.00" fill="#000000"> </text>
<polyline fill="none" stroke="#000000" points="0,-190.5 127,-190.5 "/>
<text text-anchor="start" x="8" y="-178.5" font-family="Helvetica,sans-Serif" font-size="10.00" fill="#000000">+ enableDebugMode()</text>
<text text-anchor="start" x="8" y="-167.5" font-family="Helvetica,sans-Serif" font-size="10.00" fill="#000000">+ disableDebugMode()</text>
<text text-anchor="start" x="8" y="-156.5" font-family="Helvetica,sans-Serif" font-size="10.00" fill="#000000">+ isDebugModeEnabled()</text>
<text text-anchor="start" x="8" y="-145.5" font-family="Helvetica,sans-Serif" font-size="10.00" fill="#000000">+ debugInfoAbout()</text>
<text text-anchor="start" x="8" y="-134.5" font-family="Helvetica,sans-Serif" font-size="10.00" fill="#000000">+ consoleOutput()</text>
<text text-anchor="start" x="8" y="-123.5" font-family="Helvetica,sans-Serif" font-size="10.00" fill="#000000"># delay()</text>
</a>
</g>
</g>
<!-- Node9&#45;&gt;Node8 -->
<g id="edge1" class="edge">
<title>Node9&#45;&gt;Node8</title>
<path fill="none" stroke="#191970" d="M125.4823,-109.1403C139.0821,-95.2383 152.9826,-81.0289 164.9558,-68.7897"/>
<polygon fill="none" stroke="#191970" points="122.9007,-106.7742 118.4097,-116.3701 127.9046,-111.6693 122.9007,-106.7742"/>
</g>
<!-- Node10 -->
<g id="node3" class="node">
<title>Node10</title>
<polygon fill="none" stroke="#bfbfbf" points="25,-287.5 25,-344.5 102,-344.5 102,-287.5 25,-287.5"/>
<text text-anchor="middle" x="63.5" y="-332.5" font-family="Helvetica,sans-Serif" font-size="10.00" fill="#000000">static boolean</text>
<polyline fill="none" stroke="#bfbfbf" points="25,-325.5 102,-325.5 "/>
<text text-anchor="middle" x="63.5" y="-313.5" font-family="Helvetica,sans-Serif" font-size="10.00" fill="#000000"> </text>
<polyline fill="none" stroke="#bfbfbf" points="25,-306.5 102,-306.5 "/>
<text text-anchor="middle" x="63.5" y="-294.5" font-family="Helvetica,sans-Serif" font-size="10.00" fill="#000000"> </text>
</g>
<!-- Node10&#45;&gt;Node9 -->
<g id="edge2" class="edge">
<title>Node10&#45;&gt;Node9</title>
<path fill="none" stroke="#404040" d="M63.5,-287.3055C63.5,-273.9442 63.5,-257.4218 63.5,-241.1157"/>
<polygon fill="none" stroke="#404040" points="63.5001,-240.7445 59.5,-234.7445 63.5,-228.7445 67.5,-234.7444 63.5001,-240.7445"/>
<text text-anchor="middle" x="110.5" y="-255.5" font-family="Helvetica,sans-Serif" font-size="10.00" fill="#000000"> #debugModeEnabled</text>
</g>
<!-- Node11 -->
<g id="node4" class="node">
<title>Node11</title>
<g id="a_node4"><a xlink:href="interfaceene_1_1interfaces_1_1Model.html" target="_top" xlink:title="{ene.interfaces.Model\n||+ addView()\l}">
<polygon fill="none" stroke="#000000" points="145,-144 145,-201 252,-201 252,-144 145,-144"/>
<text text-anchor="middle" x="198.5" y="-189" font-family="Helvetica,sans-Serif" font-size="10.00" fill="#000000">ene.interfaces.Model</text>
<polyline fill="none" stroke="#000000" points="145,-182 252,-182 "/>
<text text-anchor="middle" x="198.5" y="-170" font-family="Helvetica,sans-Serif" font-size="10.00" fill="#000000"> </text>
<polyline fill="none" stroke="#000000" points="145,-163 252,-163 "/>
<text text-anchor="start" x="153" y="-151" font-family="Helvetica,sans-Serif" font-size="10.00" fill="#000000">+ addView()</text>
</a>
</g>
</g>
<!-- Node11&#45;&gt;Node8 -->
<g id="edge3" class="edge">
<title>Node11&#45;&gt;Node8</title>
<path fill="none" stroke="#191970" d="M198.5,-133.6659C198.5,-113.2198 198.5,-88.3736 198.5,-68.6664"/>
<polygon fill="none" stroke="#191970" points="195.0001,-133.9063 198.5,-143.9063 202.0001,-133.9063 195.0001,-133.9063"/>
</g>
<!-- Node12 -->
<g id="node5" class="node">
<title>Node12</title>
<polygon fill="none" stroke="#bfbfbf" points="270.5,-138.5 270.5,-206.5 404.5,-206.5 404.5,-138.5 270.5,-138.5"/>
<text text-anchor="start" x="278.5" y="-194.5" font-family="Helvetica,sans-Serif" font-size="10.00" fill="#000000">List&lt; ene.interfaces.Partial</text>
<text text-anchor="middle" x="337.5" y="-183.5" font-family="Helvetica,sans-Serif" font-size="10.00" fill="#000000">View&lt;?, ?&gt; &gt;</text>
<polyline fill="none" stroke="#bfbfbf" points="270.5,-176.5 404.5,-176.5 "/>
<text text-anchor="middle" x="337.5" y="-164.5" font-family="Helvetica,sans-Serif" font-size="10.00" fill="#000000"> </text>
<polyline fill="none" stroke="#bfbfbf" points="270.5,-157.5 404.5,-157.5 "/>
<text text-anchor="middle" x="337.5" y="-145.5" font-family="Helvetica,sans-Serif" font-size="10.00" fill="#000000"> </text>
</g>
<!-- Node12&#45;&gt;Node8 -->
<g id="edge4" class="edge">
<title>Node12&#45;&gt;Node8</title>
<path fill="none" stroke="#404040" d="M303.1404,-138.3876C284.5122,-119.8934 261.3133,-96.8614 241.4959,-77.1866"/>
<polygon fill="none" stroke="#404040" points="241.4619,-77.1528 234.3858,-75.7642 232.946,-68.6982 240.0222,-70.0869 241.4619,-77.1528"/>
<text text-anchor="middle" x="277.5" y="-90" font-family="Helvetica,sans-Serif" font-size="10.00" fill="#000000"> #views</text>
</g>
<!-- Node13 -->
<g id="node6" class="node">
<title>Node13</title>
<polygon fill="none" stroke="#bfbfbf" points="321.5,-287.5 321.5,-344.5 353.5,-344.5 353.5,-287.5 321.5,-287.5"/>
<text text-anchor="middle" x="337.5" y="-332.5" font-family="Helvetica,sans-Serif" font-size="10.00" fill="#000000">List</text>
<polyline fill="none" stroke="#bfbfbf" points="321.5,-325.5 353.5,-325.5 "/>
<text text-anchor="middle" x="337.5" y="-313.5" font-family="Helvetica,sans-Serif" font-size="10.00" fill="#000000"> </text>
<polyline fill="none" stroke="#bfbfbf" points="321.5,-306.5 353.5,-306.5 "/>
<text text-anchor="middle" x="337.5" y="-294.5" font-family="Helvetica,sans-Serif" font-size="10.00" fill="#000000"> </text>
</g>
<!-- Node13&#45;&gt;Node12 -->
<g id="edge5" class="edge">
<title>Node13&#45;&gt;Node12</title>
<path fill="none" stroke="#ffa500" d="M337.5,-277.2878C337.5,-255.2661 337.5,-227.9324 337.5,-206.7037"/>
<polygon fill="#ffa500" stroke="#ffa500" points="334.0001,-277.3055 337.5,-287.3055 341.0001,-277.3056 334.0001,-277.3055"/>
<text text-anchor="start" x="337.5" y="-261" font-family="Helvetica,sans-Serif" font-size="10.00" fill="#000000"> &lt; ene::interfaces::</text>
<text text-anchor="middle" x="381.5" y="-250" font-family="Helvetica,sans-Serif" font-size="10.00" fill="#000000">PartialView&lt;?, ?&gt; &gt;</text>
</g>
</g>
</svg>
