<?xml version="1.0" encoding="UTF-8" standalone="no"?>
<!DOCTYPE svg PUBLIC "-//W3C//DTD SVG 1.1//EN"
 "http://www.w3.org/Graphics/SVG/1.1/DTD/svg11.dtd">
<!-- Generated by graphviz version 2.40.1 (20161225.0304)
 -->
<!-- Title: ene.controllers.PlaylistController.remove Pages: 1 -->
<svg width="480pt" height="198pt"
 viewBox="0.00 0.00 480.00 197.50" xmlns="http://www.w3.org/2000/svg" xmlns:xlink="http://www.w3.org/1999/xlink">
<g id="graph0" class="graph" transform="scale(1 1) rotate(0) translate(4 193.5)">
<title>ene.controllers.PlaylistController.remove</title>
<!-- Node49 -->
<g id="node1" class="node">
<title>Node49</title>
<polygon fill="#bfbfbf" stroke="#000000" points="0,-98.5 0,-128.5 116,-128.5 116,-98.5 0,-98.5"/>
<text text-anchor="start" x="8" y="-116.5" font-family="Helvetica,sans-Serif" font-size="10.00" fill="#000000">ene.controllers.Playlist</text>
<text text-anchor="middle" x="58" y="-105.5" font-family="Helvetica,sans-Serif" font-size="10.00" fill="#000000">Controller.remove</text>
</g>
<!-- Node50 -->
<g id="node2" class="node">
<title>Node50</title>
<g id="a_node2"><a xlink:href="classene_1_1controllers_1_1AbstractController.html#a9a5afba01d0004a64db4cb14c23e0bbd" target="_top" xlink:title="ene.controllers.Abstract\lController\&lt; PlaylistModel\l \&gt;::getModel">
<polygon fill="none" stroke="#000000" points="162.5,-148 162.5,-189 288.5,-189 288.5,-148 162.5,-148"/>
<text text-anchor="start" x="170.5" y="-177" font-family="Helvetica,sans-Serif" font-size="10.00" fill="#000000">ene.controllers.Abstract</text>
<text text-anchor="start" x="170.5" y="-166" font-family="Helvetica,sans-Serif" font-size="10.00" fill="#000000">Controller&lt; PlaylistModel</text>
<text text-anchor="middle" x="225.5" y="-155" font-family="Helvetica,sans-Serif" font-size="10.00" fill="#000000"> &gt;::getModel</text>
</a>
</g>
</g>
<!-- Node49&#45;&gt;Node50 -->
<g id="edge1" class="edge">
<title>Node49&#45;&gt;Node50</title>
<path fill="none" stroke="#191970" d="M103.7701,-128.529C118.9927,-133.5274 136.3391,-139.2233 153.0714,-144.7175"/>
<polygon fill="#191970" stroke="#191970" points="152.2386,-148.1278 162.8314,-147.9223 154.4224,-141.4772 152.2386,-148.1278"/>
</g>
<!-- Node51 -->
<g id="node3" class="node">
<title>Node51</title>
<g id="a_node3"><a xlink:href="classene_1_1controllers_1_1PlaylistController.html#ad1d7aec30633c29764592d730354cb83" target="_top" xlink:title="ene.controllers.Playlist\lController.getPlaylistFilename">
<polygon fill="none" stroke="#000000" points="152,-98.5 152,-128.5 299,-128.5 299,-98.5 152,-98.5"/>
<text text-anchor="start" x="160" y="-116.5" font-family="Helvetica,sans-Serif" font-size="10.00" fill="#000000">ene.controllers.Playlist</text>
<text text-anchor="middle" x="225.5" y="-105.5" font-family="Helvetica,sans-Serif" font-size="10.00" fill="#000000">Controller.getPlaylistFilename</text>
</a>
</g>
</g>
<!-- Node49&#45;&gt;Node51 -->
<g id="edge2" class="edge">
<title>Node49&#45;&gt;Node51</title>
<path fill="none" stroke="#191970" d="M116.1133,-113.5C124.3987,-113.5 133.0546,-113.5 141.7111,-113.5"/>
<polygon fill="#191970" stroke="#191970" points="141.8512,-117.0001 151.8512,-113.5 141.8511,-110.0001 141.8512,-117.0001"/>
</g>
<!-- Node52 -->
<g id="node4" class="node">
<title>Node52</title>
<g id="a_node4"><a xlink:href="classene_1_1controllers_1_1PlaylistController.html#ab949ed1ee47aec9ba039d92a36435809" target="_top" xlink:title="ene.controllers.Playlist\lController.saveToFile">
<polygon fill="none" stroke="#000000" points="167.5,-49.5 167.5,-79.5 283.5,-79.5 283.5,-49.5 167.5,-49.5"/>
<text text-anchor="start" x="175.5" y="-67.5" font-family="Helvetica,sans-Serif" font-size="10.00" fill="#000000">ene.controllers.Playlist</text>
<text text-anchor="middle" x="225.5" y="-56.5" font-family="Helvetica,sans-Serif" font-size="10.00" fill="#000000">Controller.saveToFile</text>
</a>
</g>
</g>
<!-- Node49&#45;&gt;Node52 -->
<g id="edge3" class="edge">
<title>Node49&#45;&gt;Node52</title>
<path fill="none" stroke="#191970" d="M109.6223,-98.3986C126.8976,-93.3449 146.3225,-87.6624 164.2594,-82.4152"/>
<polygon fill="#191970" stroke="#191970" points="165.4331,-85.7186 174.0482,-79.5516 163.4677,-79.0001 165.4331,-85.7186"/>
</g>
<!-- Node53 -->
<g id="node5" class="node">
<title>Node53</title>
<g id="a_node5"><a xlink:href="classene_1_1models_1_1TrackModel.html#a04afba3cc5098c28ebd394fb7ac920ba" target="_top" xlink:title="ene.models.TrackModel.get\lArtist">
<polygon fill="none" stroke="#000000" points="335,-98.5 335,-128.5 472,-128.5 472,-98.5 335,-98.5"/>
<text text-anchor="start" x="343" y="-116.5" font-family="Helvetica,sans-Serif" font-size="10.00" fill="#000000">ene.models.TrackModel.get</text>
<text text-anchor="middle" x="403.5" y="-105.5" font-family="Helvetica,sans-Serif" font-size="10.00" fill="#000000">Artist</text>
</a>
</g>
</g>
<!-- Node52&#45;&gt;Node53 -->
<g id="edge4" class="edge">
<title>Node52&#45;&gt;Node53</title>
<path fill="none" stroke="#191970" d="M280.3583,-79.6014C298.8865,-84.7019 319.7416,-90.4429 338.9495,-95.7305"/>
<polygon fill="#191970" stroke="#191970" points="338.2525,-99.1687 348.8228,-98.4484 340.1104,-92.4198 338.2525,-99.1687"/>
</g>
<!-- Node54 -->
<g id="node6" class="node">
<title>Node54</title>
<g id="a_node6"><a xlink:href="classene_1_1models_1_1TrackModel.html#a5bac0e2b6c87c93eef2802d9d10bf3c1" target="_top" xlink:title="ene.models.TrackModel.get\lTitle">
<polygon fill="none" stroke="#000000" points="335,-49.5 335,-79.5 472,-79.5 472,-49.5 335,-49.5"/>
<text text-anchor="start" x="343" y="-67.5" font-family="Helvetica,sans-Serif" font-size="10.00" fill="#000000">ene.models.TrackModel.get</text>
<text text-anchor="middle" x="403.5" y="-56.5" font-family="Helvetica,sans-Serif" font-size="10.00" fill="#000000">Title</text>
</a>
</g>
</g>
<!-- Node52&#45;&gt;Node54 -->
<g id="edge5" class="edge">
<title>Node52&#45;&gt;Node54</title>
<path fill="none" stroke="#191970" d="M283.7839,-64.5C296.792,-64.5 310.798,-64.5 324.485,-64.5"/>
<polygon fill="#191970" stroke="#191970" points="324.8676,-68.0001 334.8675,-64.5 324.8675,-61.0001 324.8676,-68.0001"/>
</g>
<!-- Node55 -->
<g id="node7" class="node">
<title>Node55</title>
<g id="a_node7"><a xlink:href="classene_1_1models_1_1TrackModel.html#aab88fe151b093dba71ad9f9ab5c6959d" target="_top" xlink:title="ene.models.TrackModel.get\lFilename">
<polygon fill="none" stroke="#000000" points="335,-.5 335,-30.5 472,-30.5 472,-.5 335,-.5"/>
<text text-anchor="start" x="343" y="-18.5" font-family="Helvetica,sans-Serif" font-size="10.00" fill="#000000">ene.models.TrackModel.get</text>
<text text-anchor="middle" x="403.5" y="-7.5" font-family="Helvetica,sans-Serif" font-size="10.00" fill="#000000">Filename</text>
</a>
</g>
</g>
<!-- Node52&#45;&gt;Node55 -->
<g id="edge6" class="edge">
<title>Node52&#45;&gt;Node55</title>
<path fill="none" stroke="#191970" d="M280.3583,-49.3986C298.8865,-44.2981 319.7416,-38.5571 338.9495,-33.2695"/>
<polygon fill="#191970" stroke="#191970" points="340.1104,-36.5802 348.8228,-30.5516 338.2525,-29.8313 340.1104,-36.5802"/>
</g>
</g>
</svg>
