<?xml version="1.0" encoding="UTF-8" standalone="no"?>
<!DOCTYPE svg PUBLIC "-//W3C//DTD SVG 1.1//EN"
 "http://www.w3.org/Graphics/SVG/1.1/DTD/svg11.dtd">
<!-- Generated by graphviz version 2.40.1 (20161225.0304)
 -->
<!-- Title: ene.models.LibraryModel Pages: 1 -->
<svg width="535pt" height="630pt"
 viewBox="0.00 0.00 534.50 630.00" xmlns="http://www.w3.org/2000/svg" xmlns:xlink="http://www.w3.org/1999/xlink">
<g id="graph0" class="graph" transform="scale(1 1) rotate(0) translate(4 626)">
<title>ene.models.LibraryModel</title>
<!-- Node5 -->
<g id="node1" class="node">
<title>Node5</title>
<polygon fill="#bfbfbf" stroke="#000000" points="234,-.5 234,-90.5 359,-90.5 359,-.5 234,-.5"/>
<text text-anchor="middle" x="296.5" y="-78.5" font-family="Helvetica,sans-Serif" font-size="10.00" fill="#000000">ene.models.LibraryModel</text>
<polyline fill="none" stroke="#000000" points="234,-71.5 359,-71.5 "/>
<text text-anchor="middle" x="296.5" y="-59.5" font-family="Helvetica,sans-Serif" font-size="10.00" fill="#000000"> </text>
<polyline fill="none" stroke="#000000" points="234,-52.5 359,-52.5 "/>
<text text-anchor="start" x="242" y="-40.5" font-family="Helvetica,sans-Serif" font-size="10.00" fill="#000000">+ getByArtist()</text>
<text text-anchor="start" x="242" y="-29.5" font-family="Helvetica,sans-Serif" font-size="10.00" fill="#000000">+ getByTitle()</text>
<text text-anchor="start" x="242" y="-18.5" font-family="Helvetica,sans-Serif" font-size="10.00" fill="#000000">+ getByGenre()</text>
<text text-anchor="start" x="242" y="-7.5" font-family="Helvetica,sans-Serif" font-size="10.00" fill="#000000">+ search()</text>
</g>
<!-- Node6 -->
<g id="node2" class="node">
<title>Node6</title>
<g id="a_node2"><a xlink:href="classene_1_1models_1_1TrackListModel.html" target="_top" xlink:title="{ene.models.TrackListModel\n||+ add()\l+ remove()\l+ get()\l+ getAll()\l}">
<polygon fill="none" stroke="#000000" points="228,-128.5 228,-218.5 365,-218.5 365,-128.5 228,-128.5"/>
<text text-anchor="middle" x="296.5" y="-206.5" font-family="Helvetica,sans-Serif" font-size="10.00" fill="#000000">ene.models.TrackListModel</text>
<polyline fill="none" stroke="#000000" points="228,-199.5 365,-199.5 "/>
<text text-anchor="middle" x="296.5" y="-187.5" font-family="Helvetica,sans-Serif" font-size="10.00" fill="#000000"> </text>
<polyline fill="none" stroke="#000000" points="228,-180.5 365,-180.5 "/>
<text text-anchor="start" x="236" y="-168.5" font-family="Helvetica,sans-Serif" font-size="10.00" fill="#000000">+ add()</text>
<text text-anchor="start" x="236" y="-157.5" font-family="Helvetica,sans-Serif" font-size="10.00" fill="#000000">+ remove()</text>
<text text-anchor="start" x="236" y="-146.5" font-family="Helvetica,sans-Serif" font-size="10.00" fill="#000000">+ get()</text>
<text text-anchor="start" x="236" y="-135.5" font-family="Helvetica,sans-Serif" font-size="10.00" fill="#000000">+ getAll()</text>
</a>
</g>
</g>
<!-- Node6&#45;&gt;Node5 -->
<g id="edge1" class="edge">
<title>Node6&#45;&gt;Node5</title>
<path fill="none" stroke="#191970" d="M296.5,-118.1492C296.5,-108.9671 296.5,-99.5431 296.5,-90.6519"/>
<polygon fill="none" stroke="#191970" points="293.0001,-118.372 296.5,-128.372 300.0001,-118.372 293.0001,-118.372"/>
</g>
<!-- Node7 -->
<g id="node3" class="node">
<title>Node7</title>
<g id="a_node3"><a xlink:href="classene_1_1models_1_1AbstractModel.html" target="_top" xlink:title="{ene.models.AbstractModel\n||+ addView()\l# changed()\l}">
<polygon fill="none" stroke="#000000" points="156,-266.5 156,-334.5 289,-334.5 289,-266.5 156,-266.5"/>
<text text-anchor="middle" x="222.5" y="-322.5" font-family="Helvetica,sans-Serif" font-size="10.00" fill="#000000">ene.models.AbstractModel</text>
<polyline fill="none" stroke="#000000" points="156,-315.5 289,-315.5 "/>
<text text-anchor="middle" x="222.5" y="-303.5" font-family="Helvetica,sans-Serif" font-size="10.00" fill="#000000"> </text>
<polyline fill="none" stroke="#000000" points="156,-296.5 289,-296.5 "/>
<text text-anchor="start" x="164" y="-284.5" font-family="Helvetica,sans-Serif" font-size="10.00" fill="#000000">+ addView()</text>
<text text-anchor="start" x="164" y="-273.5" font-family="Helvetica,sans-Serif" font-size="10.00" fill="#000000"># changed()</text>
</a>
</g>
</g>
<!-- Node7&#45;&gt;Node6 -->
<g id="edge2" class="edge">
<title>Node7&#45;&gt;Node6</title>
<path fill="none" stroke="#191970" d="M247.5091,-257.5789C254.8167,-245.0375 262.824,-231.2953 270.2085,-218.6219"/>
<polygon fill="none" stroke="#191970" points="244.3411,-256.064 242.3306,-266.4663 250.3893,-259.5881 244.3411,-256.064"/>
</g>
<!-- Node8 -->
<g id="node4" class="node">
<title>Node8</title>
<g id="a_node4"><a xlink:href="classene_1_1AbstractObject.html" target="_top" xlink:title="{ene.AbstractObject\n||+ enableDebugMode()\l+ disableDebugMode()\l+ isDebugModeEnabled()\l+ debugInfoAbout()\l+ consoleOutput()\l# delay()\l}">
<polygon fill="none" stroke="#000000" points="0,-393.5 0,-505.5 127,-505.5 127,-393.5 0,-393.5"/>
<text text-anchor="middle" x="63.5" y="-493.5" font-family="Helvetica,sans-Serif" font-size="10.00" fill="#000000">ene.AbstractObject</text>
<polyline fill="none" stroke="#000000" points="0,-486.5 127,-486.5 "/>
<text text-anchor="middle" x="63.5" y="-474.5" font-family="Helvetica,sans-Serif" font-size="10.00" fill="#000000"> </text>
<polyline fill="none" stroke="#000000" points="0,-467.5 127,-467.5 "/>
<text text-anchor="start" x="8" y="-455.5" font-family="Helvetica,sans-Serif" font-size="10.00" fill="#000000">+ enableDebugMode()</text>
<text text-anchor="start" x="8" y="-444.5" font-family="Helvetica,sans-Serif" font-size="10.00" fill="#000000">+ disableDebugMode()</text>
<text text-anchor="start" x="8" y="-433.5" font-family="Helvetica,sans-Serif" font-size="10.00" fill="#000000">+ isDebugModeEnabled()</text>
<text text-anchor="start" x="8" y="-422.5" font-family="Helvetica,sans-Serif" font-size="10.00" fill="#000000">+ debugInfoAbout()</text>
<text text-anchor="start" x="8" y="-411.5" font-family="Helvetica,sans-Serif" font-size="10.00" fill="#000000">+ consoleOutput()</text>
<text text-anchor="start" x="8" y="-400.5" font-family="Helvetica,sans-Serif" font-size="10.00" fill="#000000"># delay()</text>
</a>
</g>
</g>
<!-- Node8&#45;&gt;Node7 -->
<g id="edge3" class="edge">
<title>Node8&#45;&gt;Node7</title>
<path fill="none" stroke="#191970" d="M131.0378,-386.2098C149.8339,-368.5959 169.5429,-350.1264 185.8319,-334.8619"/>
<polygon fill="none" stroke="#191970" points="128.5146,-383.7777 123.6111,-393.1695 133.3012,-388.8855 128.5146,-383.7777"/>
</g>
<!-- Node9 -->
<g id="node5" class="node">
<title>Node9</title>
<polygon fill="none" stroke="#bfbfbf" points="25,-564.5 25,-621.5 102,-621.5 102,-564.5 25,-564.5"/>
<text text-anchor="middle" x="63.5" y="-609.5" font-family="Helvetica,sans-Serif" font-size="10.00" fill="#000000">static boolean</text>
<polyline fill="none" stroke="#bfbfbf" points="25,-602.5 102,-602.5 "/>
<text text-anchor="middle" x="63.5" y="-590.5" font-family="Helvetica,sans-Serif" font-size="10.00" fill="#000000"> </text>
<polyline fill="none" stroke="#bfbfbf" points="25,-583.5 102,-583.5 "/>
<text text-anchor="middle" x="63.5" y="-571.5" font-family="Helvetica,sans-Serif" font-size="10.00" fill="#000000"> </text>
</g>
<!-- Node9&#45;&gt;Node8 -->
<g id="edge4" class="edge">
<title>Node9&#45;&gt;Node8</title>
<path fill="none" stroke="#404040" d="M63.5,-564.3055C63.5,-550.9442 63.5,-534.4218 63.5,-518.1157"/>
<polygon fill="none" stroke="#404040" points="63.5001,-517.7445 59.5,-511.7445 63.5,-505.7445 67.5,-511.7444 63.5001,-517.7445"/>
<text text-anchor="middle" x="110.5" y="-532.5" font-family="Helvetica,sans-Serif" font-size="10.00" fill="#000000"> #debugModeEnabled</text>
</g>
<!-- Node10 -->
<g id="node6" class="node">
<title>Node10</title>
<g id="a_node6"><a xlink:href="interfaceene_1_1interfaces_1_1Model.html" target="_top" xlink:title="{ene.interfaces.Model\n||+ addView()\l}">
<polygon fill="none" stroke="#000000" points="145,-421 145,-478 252,-478 252,-421 145,-421"/>
<text text-anchor="middle" x="198.5" y="-466" font-family="Helvetica,sans-Serif" font-size="10.00" fill="#000000">ene.interfaces.Model</text>
<polyline fill="none" stroke="#000000" points="145,-459 252,-459 "/>
<text text-anchor="middle" x="198.5" y="-447" font-family="Helvetica,sans-Serif" font-size="10.00" fill="#000000"> </text>
<polyline fill="none" stroke="#000000" points="145,-440 252,-440 "/>
<text text-anchor="start" x="153" y="-428" font-family="Helvetica,sans-Serif" font-size="10.00" fill="#000000">+ addView()</text>
</a>
</g>
</g>
<!-- Node10&#45;&gt;Node7 -->
<g id="edge5" class="edge">
<title>Node10&#45;&gt;Node7</title>
<path fill="none" stroke="#191970" d="M204.7407,-410.7559C208.5397,-387.1705 213.3482,-357.3175 217.0033,-334.6252"/>
<polygon fill="none" stroke="#191970" points="201.2623,-410.3419 203.1274,-420.7713 208.1732,-411.4552 201.2623,-410.3419"/>
</g>
<!-- Node11 -->
<g id="node7" class="node">
<title>Node11</title>
<polygon fill="none" stroke="#bfbfbf" points="270.5,-415.5 270.5,-483.5 404.5,-483.5 404.5,-415.5 270.5,-415.5"/>
<text text-anchor="start" x="278.5" y="-471.5" font-family="Helvetica,sans-Serif" font-size="10.00" fill="#000000">List&lt; ene.interfaces.Partial</text>
<text text-anchor="middle" x="337.5" y="-460.5" font-family="Helvetica,sans-Serif" font-size="10.00" fill="#000000">View &gt;</text>
<polyline fill="none" stroke="#bfbfbf" points="270.5,-453.5 404.5,-453.5 "/>
<text text-anchor="middle" x="337.5" y="-441.5" font-family="Helvetica,sans-Serif" font-size="10.00" fill="#000000"> </text>
<polyline fill="none" stroke="#bfbfbf" points="270.5,-434.5 404.5,-434.5 "/>
<text text-anchor="middle" x="337.5" y="-422.5" font-family="Helvetica,sans-Serif" font-size="10.00" fill="#000000"> </text>
</g>
<!-- Node11&#45;&gt;Node7 -->
<g id="edge6" class="edge">
<title>Node11&#45;&gt;Node7</title>
<path fill="none" stroke="#404040" d="M311.1167,-415.3164C294.8271,-394.2108 273.7697,-366.9277 256.2692,-344.2531"/>
<polygon fill="none" stroke="#404040" points="256.0925,-344.0242 249.26,-341.7184 248.7606,-334.5245 255.5931,-336.8304 256.0925,-344.0242"/>
<text text-anchor="middle" x="297.5" y="-361.5" font-family="Helvetica,sans-Serif" font-size="10.00" fill="#000000"> #views</text>
</g>
<!-- Node12 -->
<g id="node8" class="node">
<title>Node12</title>
<polygon fill="none" stroke="#bfbfbf" points="321.5,-564.5 321.5,-621.5 353.5,-621.5 353.5,-564.5 321.5,-564.5"/>
<text text-anchor="middle" x="337.5" y="-609.5" font-family="Helvetica,sans-Serif" font-size="10.00" fill="#000000">List</text>
<polyline fill="none" stroke="#bfbfbf" points="321.5,-602.5 353.5,-602.5 "/>
<text text-anchor="middle" x="337.5" y="-590.5" font-family="Helvetica,sans-Serif" font-size="10.00" fill="#000000"> </text>
<polyline fill="none" stroke="#bfbfbf" points="321.5,-583.5 353.5,-583.5 "/>
<text text-anchor="middle" x="337.5" y="-571.5" font-family="Helvetica,sans-Serif" font-size="10.00" fill="#000000"> </text>
</g>
<!-- Node12&#45;&gt;Node11 -->
<g id="edge7" class="edge">
<title>Node12&#45;&gt;Node11</title>
<path fill="none" stroke="#ffa500" d="M337.5,-554.2878C337.5,-532.2661 337.5,-504.9324 337.5,-483.7037"/>
<polygon fill="#ffa500" stroke="#ffa500" points="334.0001,-554.3055 337.5,-564.3055 341.0001,-554.3056 334.0001,-554.3055"/>
<text text-anchor="start" x="337.5" y="-538" font-family="Helvetica,sans-Serif" font-size="10.00" fill="#000000"> &lt; ene::interfaces::</text>
<text text-anchor="middle" x="379" y="-527" font-family="Helvetica,sans-Serif" font-size="10.00" fill="#000000">PartialView &gt;</text>
</g>
<!-- Node13 -->
<g id="node9" class="node">
<title>Node13</title>
<polygon fill="none" stroke="#bfbfbf" points="353,-266.5 353,-334.5 482,-334.5 482,-266.5 353,-266.5"/>
<text text-anchor="start" x="361" y="-322.5" font-family="Helvetica,sans-Serif" font-size="10.00" fill="#000000">Map&lt; String, ene.models.</text>
<text text-anchor="middle" x="417.5" y="-311.5" font-family="Helvetica,sans-Serif" font-size="10.00" fill="#000000">TrackModel &gt;</text>
<polyline fill="none" stroke="#bfbfbf" points="353,-304.5 482,-304.5 "/>
<text text-anchor="middle" x="417.5" y="-292.5" font-family="Helvetica,sans-Serif" font-size="10.00" fill="#000000"> </text>
<polyline fill="none" stroke="#bfbfbf" points="353,-285.5 482,-285.5 "/>
<text text-anchor="middle" x="417.5" y="-273.5" font-family="Helvetica,sans-Serif" font-size="10.00" fill="#000000"> </text>
</g>
<!-- Node13&#45;&gt;Node6 -->
<g id="edge8" class="edge">
<title>Node13&#45;&gt;Node6</title>
<path fill="none" stroke="#404040" d="M385.0742,-266.4663C373.6987,-254.5267 360.6217,-240.8013 348.0692,-227.6263"/>
<polygon fill="none" stroke="#404040" points="347.7677,-227.3099 340.7329,-225.7251 339.4901,-218.6219 346.5249,-220.2067 347.7677,-227.3099"/>
<text text-anchor="middle" x="382.5" y="-240" font-family="Helvetica,sans-Serif" font-size="10.00" fill="#000000"> #tracks</text>
</g>
<!-- Node14 -->
<g id="node10" class="node">
<title>Node14</title>
<polygon fill="none" stroke="#bfbfbf" points="423,-421 423,-478 458,-478 458,-421 423,-421"/>
<text text-anchor="middle" x="440.5" y="-466" font-family="Helvetica,sans-Serif" font-size="10.00" fill="#000000">Map</text>
<polyline fill="none" stroke="#bfbfbf" points="423,-459 458,-459 "/>
<text text-anchor="middle" x="440.5" y="-447" font-family="Helvetica,sans-Serif" font-size="10.00" fill="#000000"> </text>
<polyline fill="none" stroke="#bfbfbf" points="423,-440 458,-440 "/>
<text text-anchor="middle" x="440.5" y="-428" font-family="Helvetica,sans-Serif" font-size="10.00" fill="#000000"> </text>
</g>
<!-- Node14&#45;&gt;Node13 -->
<g id="edge9" class="edge">
<title>Node14&#45;&gt;Node13</title>
<path fill="none" stroke="#ffa500" d="M434.5194,-410.7559C430.8787,-387.1705 426.2705,-357.3175 422.7677,-334.6252"/>
<polygon fill="#ffa500" stroke="#ffa500" points="431.0807,-411.4223 436.0654,-420.7713 437.9988,-410.3544 431.0807,-411.4223"/>
<text text-anchor="start" x="429.5" y="-367" font-family="Helvetica,sans-Serif" font-size="10.00" fill="#000000"> &lt; String, ene::models</text>
<text text-anchor="middle" x="478" y="-356" font-family="Helvetica,sans-Serif" font-size="10.00" fill="#000000">::TrackModel &gt;</text>
</g>
</g>
</svg>
