<?xml version="1.0" encoding="UTF-8" standalone="no"?>
<!DOCTYPE svg PUBLIC "-//W3C//DTD SVG 1.1//EN"
 "http://www.w3.org/Graphics/SVG/1.1/DTD/svg11.dtd">
<!-- Generated by graphviz version 2.40.1 (20161225.0304)
 -->
<!-- Title: ene.views.gui.partial.PlayerView Pages: 1 -->
<svg width="978pt" height="966pt"
 viewBox="0.00 0.00 978.00 966.00" xmlns="http://www.w3.org/2000/svg" xmlns:xlink="http://www.w3.org/1999/xlink">
<g id="graph0" class="graph" transform="scale(1 1) rotate(0) translate(4 962)">
<title>ene.views.gui.partial.PlayerView</title>
<!-- Node7 -->
<g id="node1" class="node">
<title>Node7</title>
<polygon fill="#bfbfbf" stroke="#000000" points="527,-.5 527,-178.5 685,-178.5 685,-.5 527,-.5"/>
<text text-anchor="middle" x="606" y="-166.5" font-family="Helvetica,sans-Serif" font-size="10.00" fill="#000000">ene.views.gui.partial.PlayerView</text>
<polyline fill="none" stroke="#000000" points="527,-159.5 685,-159.5 "/>
<text text-anchor="middle" x="606" y="-147.5" font-family="Helvetica,sans-Serif" font-size="10.00" fill="#000000"> </text>
<polyline fill="none" stroke="#000000" points="527,-140.5 685,-140.5 "/>
<text text-anchor="start" x="535" y="-128.5" font-family="Helvetica,sans-Serif" font-size="10.00" fill="#000000">+ PlayerView()</text>
<text text-anchor="start" x="535" y="-117.5" font-family="Helvetica,sans-Serif" font-size="10.00" fill="#000000">+ update()</text>
<text text-anchor="start" x="535" y="-106.5" font-family="Helvetica,sans-Serif" font-size="10.00" fill="#000000">+ render()</text>
<text text-anchor="start" x="535" y="-95.5" font-family="Helvetica,sans-Serif" font-size="10.00" fill="#000000"># setPlayerController()</text>
<text text-anchor="start" x="535" y="-84.5" font-family="Helvetica,sans-Serif" font-size="10.00" fill="#000000"># getPlayerController()</text>
<text text-anchor="start" x="535" y="-73.5" font-family="Helvetica,sans-Serif" font-size="10.00" fill="#000000"># enablePlayerControls()</text>
<text text-anchor="start" x="535" y="-62.5" font-family="Helvetica,sans-Serif" font-size="10.00" fill="#000000"># disablePlayerControls()</text>
<text text-anchor="start" x="535" y="-51.5" font-family="Helvetica,sans-Serif" font-size="10.00" fill="#000000"># updateProgress()</text>
<text text-anchor="start" x="535" y="-40.5" font-family="Helvetica,sans-Serif" font-size="10.00" fill="#000000"># resetProgress()</text>
<text text-anchor="start" x="535" y="-29.5" font-family="Helvetica,sans-Serif" font-size="10.00" fill="#000000"># formatTimeToString()</text>
<text text-anchor="start" x="535" y="-18.5" font-family="Helvetica,sans-Serif" font-size="10.00" fill="#000000"># isCurrentTrackPartOfCurrent</text>
<text text-anchor="start" x="535" y="-7.5" font-family="Helvetica,sans-Serif" font-size="10.00" fill="#000000">Playlist()</text>
</g>
<!-- Node8 -->
<g id="node2" class="node">
<title>Node8</title>
<g id="a_node2"><a xlink:href="classene_1_1views_1_1AbstractPartialView.html" target="_top" xlink:title="{ene::views::AbstractPartial\lView\&lt; JPanel, PlayerModel \&gt;\n||+ setModel()\l+ getModel()\l}">
<polygon fill="none" stroke="#000000" points="231,-409.5 231,-488.5 377,-488.5 377,-409.5 231,-409.5"/>
<text text-anchor="start" x="239" y="-476.5" font-family="Helvetica,sans-Serif" font-size="10.00" fill="#000000">ene::views::AbstractPartial</text>
<text text-anchor="middle" x="304" y="-465.5" font-family="Helvetica,sans-Serif" font-size="10.00" fill="#000000">View&lt; JPanel, PlayerModel &gt;</text>
<polyline fill="none" stroke="#000000" points="231,-458.5 377,-458.5 "/>
<text text-anchor="middle" x="304" y="-446.5" font-family="Helvetica,sans-Serif" font-size="10.00" fill="#000000"> </text>
<polyline fill="none" stroke="#000000" points="231,-439.5 377,-439.5 "/>
<text text-anchor="start" x="239" y="-427.5" font-family="Helvetica,sans-Serif" font-size="10.00" fill="#000000">+ setModel()</text>
<text text-anchor="start" x="239" y="-416.5" font-family="Helvetica,sans-Serif" font-size="10.00" fill="#000000">+ getModel()</text>
</a>
</g>
</g>
<!-- Node8&#45;&gt;Node7 -->
<g id="edge1" class="edge">
<title>Node8&#45;&gt;Node7</title>
<path fill="none" stroke="#191970" d="M316.6244,-399.7052C328.6018,-357.6585 348.9475,-296.4948 377,-248 410.5315,-190.0336 474.8087,-148.396 526.7492,-122.3856"/>
<polygon fill="none" stroke="#191970" points="313.2267,-398.8596 313.9055,-409.4327 319.9683,-400.744 313.2267,-398.8596"/>
</g>
<!-- Node9 -->
<g id="node3" class="node">
<title>Node9</title>
<g id="a_node3"><a xlink:href="classene_1_1views_1_1AbstractView.html" target="_top" xlink:title="{ene::views::AbstractView\l\&lt; CoreComponentType \&gt;\n||+ setTitle()\l+ getTitle()\l+ setCoreComponent()\l+ getCoreComponent()\l+ setLayoutPosition()\l+ getLayoutPosition()\l}">
<polygon fill="none" stroke="#000000" points="227,-536.5 227,-659.5 355,-659.5 355,-536.5 227,-536.5"/>
<text text-anchor="start" x="235" y="-647.5" font-family="Helvetica,sans-Serif" font-size="10.00" fill="#000000">ene::views::AbstractView</text>
<text text-anchor="middle" x="291" y="-636.5" font-family="Helvetica,sans-Serif" font-size="10.00" fill="#000000">&lt; CoreComponentType &gt;</text>
<polyline fill="none" stroke="#000000" points="227,-629.5 355,-629.5 "/>
<text text-anchor="middle" x="291" y="-617.5" font-family="Helvetica,sans-Serif" font-size="10.00" fill="#000000"> </text>
<polyline fill="none" stroke="#000000" points="227,-610.5 355,-610.5 "/>
<text text-anchor="start" x="235" y="-598.5" font-family="Helvetica,sans-Serif" font-size="10.00" fill="#000000">+ setTitle()</text>
<text text-anchor="start" x="235" y="-587.5" font-family="Helvetica,sans-Serif" font-size="10.00" fill="#000000">+ getTitle()</text>
<text text-anchor="start" x="235" y="-576.5" font-family="Helvetica,sans-Serif" font-size="10.00" fill="#000000">+ setCoreComponent()</text>
<text text-anchor="start" x="235" y="-565.5" font-family="Helvetica,sans-Serif" font-size="10.00" fill="#000000">+ getCoreComponent()</text>
<text text-anchor="start" x="235" y="-554.5" font-family="Helvetica,sans-Serif" font-size="10.00" fill="#000000">+ setLayoutPosition()</text>
<text text-anchor="start" x="235" y="-543.5" font-family="Helvetica,sans-Serif" font-size="10.00" fill="#000000">+ getLayoutPosition()</text>
</a>
</g>
</g>
<!-- Node9&#45;&gt;Node8 -->
<g id="edge2" class="edge">
<title>Node9&#45;&gt;Node8</title>
<path fill="none" stroke="#191970" d="M297.2899,-525.9078C298.4046,-513.1316 299.5276,-500.2609 300.5274,-488.8008"/>
<polygon fill="none" stroke="#191970" points="293.7827,-525.8386 296.4002,-536.105 300.7563,-526.4471 293.7827,-525.8386"/>
</g>
<!-- Node10 -->
<g id="node4" class="node">
<title>Node10</title>
<g id="a_node4"><a xlink:href="classene_1_1AbstractObject.html" target="_top" xlink:title="{ene.AbstractObject\n||+ enableDebugMode()\l+ disableDebugMode()\l+ isDebugModeEnabled()\l+ debugInfoAbout()\l+ consoleOutput()\l# delay()\l}">
<polygon fill="none" stroke="#000000" points="485.5,-729.5 485.5,-841.5 612.5,-841.5 612.5,-729.5 485.5,-729.5"/>
<text text-anchor="middle" x="549" y="-829.5" font-family="Helvetica,sans-Serif" font-size="10.00" fill="#000000">ene.AbstractObject</text>
<polyline fill="none" stroke="#000000" points="485.5,-822.5 612.5,-822.5 "/>
<text text-anchor="middle" x="549" y="-810.5" font-family="Helvetica,sans-Serif" font-size="10.00" fill="#000000"> </text>
<polyline fill="none" stroke="#000000" points="485.5,-803.5 612.5,-803.5 "/>
<text text-anchor="start" x="493.5" y="-791.5" font-family="Helvetica,sans-Serif" font-size="10.00" fill="#000000">+ enableDebugMode()</text>
<text text-anchor="start" x="493.5" y="-780.5" font-family="Helvetica,sans-Serif" font-size="10.00" fill="#000000">+ disableDebugMode()</text>
<text text-anchor="start" x="493.5" y="-769.5" font-family="Helvetica,sans-Serif" font-size="10.00" fill="#000000">+ isDebugModeEnabled()</text>
<text text-anchor="start" x="493.5" y="-758.5" font-family="Helvetica,sans-Serif" font-size="10.00" fill="#000000">+ debugInfoAbout()</text>
<text text-anchor="start" x="493.5" y="-747.5" font-family="Helvetica,sans-Serif" font-size="10.00" fill="#000000">+ consoleOutput()</text>
<text text-anchor="start" x="493.5" y="-736.5" font-family="Helvetica,sans-Serif" font-size="10.00" fill="#000000"># delay()</text>
</a>
</g>
</g>
<!-- Node10&#45;&gt;Node9 -->
<g id="edge3" class="edge">
<title>Node10&#45;&gt;Node9</title>
<path fill="none" stroke="#191970" d="M483.0471,-722.8326C481.027,-721.1832 479.0087,-719.5688 477,-718 438.3849,-687.841 392.0967,-657.9571 355.3569,-635.5552"/>
<polygon fill="none" stroke="#191970" points="480.9153,-725.6125 490.8307,-729.3455 485.4074,-720.2439 480.9153,-725.6125"/>
</g>
<!-- Node23 -->
<g id="node17" class="node">
<title>Node23</title>
<g id="a_node17"><a xlink:href="classene_1_1controllers_1_1AbstractController.html" target="_top" xlink:title="{ene.controllers.Abstract\lController\&lt; ModelType \&gt;\n||+ setModel()\l+ getModel()\l}">
<polygon fill="none" stroke="#000000" points="620.5,-558.5 620.5,-637.5 745.5,-637.5 745.5,-558.5 620.5,-558.5"/>
<text text-anchor="start" x="628.5" y="-625.5" font-family="Helvetica,sans-Serif" font-size="10.00" fill="#000000">ene.controllers.Abstract</text>
<text text-anchor="middle" x="683" y="-614.5" font-family="Helvetica,sans-Serif" font-size="10.00" fill="#000000">Controller&lt; ModelType &gt;</text>
<polyline fill="none" stroke="#000000" points="620.5,-607.5 745.5,-607.5 "/>
<text text-anchor="middle" x="683" y="-595.5" font-family="Helvetica,sans-Serif" font-size="10.00" fill="#000000"> </text>
<polyline fill="none" stroke="#000000" points="620.5,-588.5 745.5,-588.5 "/>
<text text-anchor="start" x="628.5" y="-576.5" font-family="Helvetica,sans-Serif" font-size="10.00" fill="#000000">+ setModel()</text>
<text text-anchor="start" x="628.5" y="-565.5" font-family="Helvetica,sans-Serif" font-size="10.00" fill="#000000">+ getModel()</text>
</a>
</g>
</g>
<!-- Node10&#45;&gt;Node23 -->
<g id="edge18" class="edge">
<title>Node10&#45;&gt;Node23</title>
<path fill="none" stroke="#191970" d="M595.0705,-721.0357C614.8657,-693.3372 637.3705,-661.8472 654.6569,-637.6592"/>
<polygon fill="none" stroke="#191970" points="591.9898,-719.3268 589.0229,-729.4978 597.6849,-723.397 591.9898,-719.3268"/>
</g>
<!-- Node11 -->
<g id="node5" class="node">
<title>Node11</title>
<polygon fill="none" stroke="#bfbfbf" points="510.5,-900.5 510.5,-957.5 587.5,-957.5 587.5,-900.5 510.5,-900.5"/>
<text text-anchor="middle" x="549" y="-945.5" font-family="Helvetica,sans-Serif" font-size="10.00" fill="#000000">static boolean</text>
<polyline fill="none" stroke="#bfbfbf" points="510.5,-938.5 587.5,-938.5 "/>
<text text-anchor="middle" x="549" y="-926.5" font-family="Helvetica,sans-Serif" font-size="10.00" fill="#000000"> </text>
<polyline fill="none" stroke="#bfbfbf" points="510.5,-919.5 587.5,-919.5 "/>
<text text-anchor="middle" x="549" y="-907.5" font-family="Helvetica,sans-Serif" font-size="10.00" fill="#000000"> </text>
</g>
<!-- Node11&#45;&gt;Node10 -->
<g id="edge4" class="edge">
<title>Node11&#45;&gt;Node10</title>
<path fill="none" stroke="#404040" d="M549,-900.3055C549,-886.9442 549,-870.4218 549,-854.1157"/>
<polygon fill="none" stroke="#404040" points="549.0001,-853.7445 545,-847.7445 549,-841.7445 553,-847.7444 549.0001,-853.7445"/>
<text text-anchor="middle" x="596" y="-874" font-family="Helvetica,sans-Serif" font-size="10.00" fill="#000000"> #debugModeEnabled</text>
</g>
<!-- Node12 -->
<g id="node6" class="node">
<title>Node12</title>
<g id="a_node6"><a xlink:href="interfaceene_1_1interfaces_1_1View.html" target="_top" xlink:title="{ene::interfaces::View\l\&lt; CoreComponentType \&gt;\n||+ setTitle()\l+ getTitle()\l+ setCoreComponent()\l+ getCoreComponent()\l+ setLayoutPosition()\l+ getLayoutPosition()\l+ render()\l}">
<polygon fill="none" stroke="#000000" points="0,-718.5 0,-852.5 128,-852.5 128,-718.5 0,-718.5"/>
<text text-anchor="start" x="8" y="-840.5" font-family="Helvetica,sans-Serif" font-size="10.00" fill="#000000">ene::interfaces::View</text>
<text text-anchor="middle" x="64" y="-829.5" font-family="Helvetica,sans-Serif" font-size="10.00" fill="#000000">&lt; CoreComponentType &gt;</text>
<polyline fill="none" stroke="#000000" points="0,-822.5 128,-822.5 "/>
<text text-anchor="middle" x="64" y="-810.5" font-family="Helvetica,sans-Serif" font-size="10.00" fill="#000000"> </text>
<polyline fill="none" stroke="#000000" points="0,-803.5 128,-803.5 "/>
<text text-anchor="start" x="8" y="-791.5" font-family="Helvetica,sans-Serif" font-size="10.00" fill="#000000">+ setTitle()</text>
<text text-anchor="start" x="8" y="-780.5" font-family="Helvetica,sans-Serif" font-size="10.00" fill="#000000">+ getTitle()</text>
<text text-anchor="start" x="8" y="-769.5" font-family="Helvetica,sans-Serif" font-size="10.00" fill="#000000">+ setCoreComponent()</text>
<text text-anchor="start" x="8" y="-758.5" font-family="Helvetica,sans-Serif" font-size="10.00" fill="#000000">+ getCoreComponent()</text>
<text text-anchor="start" x="8" y="-747.5" font-family="Helvetica,sans-Serif" font-size="10.00" fill="#000000">+ setLayoutPosition()</text>
<text text-anchor="start" x="8" y="-736.5" font-family="Helvetica,sans-Serif" font-size="10.00" fill="#000000">+ getLayoutPosition()</text>
<text text-anchor="start" x="8" y="-725.5" font-family="Helvetica,sans-Serif" font-size="10.00" fill="#000000">+ render()</text>
</a>
</g>
</g>
<!-- Node12&#45;&gt;Node9 -->
<g id="edge5" class="edge">
<title>Node12&#45;&gt;Node9</title>
<path fill="none" stroke="#191970" d="M135.9185,-718.9321C136.2797,-718.6203 136.6402,-718.3096 137,-718 165.7764,-693.2405 198.85,-667.1768 226.9528,-645.6892"/>
<polygon fill="none" stroke="#191970" points="133.4915,-716.4048 128.26,-725.6179 138.0951,-721.6781 133.4915,-716.4048"/>
</g>
<!-- Node17 -->
<g id="node11" class="node">
<title>Node17</title>
<g id="a_node11"><a xlink:href="interfaceene_1_1interfaces_1_1PartialView.html" target="_top" xlink:title="{ene::interfaces::Partial\lView\&lt; CoreComponentType,\l ModelType \&gt;\n||+ setModel()\l+ getModel()\l+ update()\l}">
<polygon fill="none" stroke="#000000" points="41.5,-547.5 41.5,-648.5 184.5,-648.5 184.5,-547.5 41.5,-547.5"/>
<text text-anchor="start" x="49.5" y="-636.5" font-family="Helvetica,sans-Serif" font-size="10.00" fill="#000000">ene::interfaces::Partial</text>
<text text-anchor="start" x="49.5" y="-625.5" font-family="Helvetica,sans-Serif" font-size="10.00" fill="#000000">View&lt; CoreComponentType,</text>
<text text-anchor="middle" x="113" y="-614.5" font-family="Helvetica,sans-Serif" font-size="10.00" fill="#000000"> ModelType &gt;</text>
<polyline fill="none" stroke="#000000" points="41.5,-607.5 184.5,-607.5 "/>
<text text-anchor="middle" x="113" y="-595.5" font-family="Helvetica,sans-Serif" font-size="10.00" fill="#000000"> </text>
<polyline fill="none" stroke="#000000" points="41.5,-588.5 184.5,-588.5 "/>
<text text-anchor="start" x="49.5" y="-576.5" font-family="Helvetica,sans-Serif" font-size="10.00" fill="#000000">+ setModel()</text>
<text text-anchor="start" x="49.5" y="-565.5" font-family="Helvetica,sans-Serif" font-size="10.00" fill="#000000">+ getModel()</text>
<text text-anchor="start" x="49.5" y="-554.5" font-family="Helvetica,sans-Serif" font-size="10.00" fill="#000000">+ update()</text>
</a>
</g>
</g>
<!-- Node12&#45;&gt;Node17 -->
<g id="edge11" class="edge">
<title>Node12&#45;&gt;Node17</title>
<path fill="none" stroke="#191970" d="M84.1205,-708.5084C89.4083,-688.2742 94.9775,-666.9635 99.7991,-648.5135"/>
<polygon fill="none" stroke="#191970" points="80.6939,-707.7777 81.5517,-718.3378 87.4665,-709.5477 80.6939,-707.7777"/>
</g>
<!-- Node13 -->
<g id="node7" class="node">
<title>Node13</title>
<g id="a_node7"><a xlink:href="interfaceene_1_1interfaces_1_1Localization.html" target="_top" xlink:title="{ene.interfaces.Localization\n||+ getString()\l}">
<polygon fill="none" stroke="#000000" points="334.5,-757 334.5,-814 467.5,-814 467.5,-757 334.5,-757"/>
<text text-anchor="middle" x="401" y="-802" font-family="Helvetica,sans-Serif" font-size="10.00" fill="#000000">ene.interfaces.Localization</text>
<polyline fill="none" stroke="#000000" points="334.5,-795 467.5,-795 "/>
<text text-anchor="middle" x="401" y="-783" font-family="Helvetica,sans-Serif" font-size="10.00" fill="#000000"> </text>
<polyline fill="none" stroke="#000000" points="334.5,-776 467.5,-776 "/>
<text text-anchor="start" x="342.5" y="-764" font-family="Helvetica,sans-Serif" font-size="10.00" fill="#000000">+ getString()</text>
</a>
</g>
</g>
<!-- Node13&#45;&gt;Node9 -->
<g id="edge6" class="edge">
<title>Node13&#45;&gt;Node9</title>
<path fill="none" stroke="#191970" d="M390.0037,-747.2296C383.0373,-726.0079 372.9013,-699.6188 360,-678 356.3344,-671.8575 352.1843,-665.7299 347.7823,-659.7551"/>
<polygon fill="none" stroke="#191970" points="386.7078,-748.4148 393.0734,-756.8841 393.3787,-746.2937 386.7078,-748.4148"/>
</g>
<!-- Node14 -->
<g id="node8" class="node">
<title>Node14</title>
<polygon fill="none" stroke="#bfbfbf" points="356,-900.5 356,-957.5 446,-957.5 446,-900.5 356,-900.5"/>
<text text-anchor="middle" x="401" y="-945.5" font-family="Helvetica,sans-Serif" font-size="10.00" fill="#000000">static final String</text>
<polyline fill="none" stroke="#bfbfbf" points="356,-938.5 446,-938.5 "/>
<text text-anchor="middle" x="401" y="-926.5" font-family="Helvetica,sans-Serif" font-size="10.00" fill="#000000"> </text>
<polyline fill="none" stroke="#bfbfbf" points="356,-919.5 446,-919.5 "/>
<text text-anchor="middle" x="401" y="-907.5" font-family="Helvetica,sans-Serif" font-size="10.00" fill="#000000"> </text>
</g>
<!-- Node14&#45;&gt;Node13 -->
<g id="edge7" class="edge">
<title>Node14&#45;&gt;Node13</title>
<path fill="none" stroke="#404040" d="M401,-900.3055C401,-879.0904 401,-849.9058 401,-826.2714"/>
<polygon fill="none" stroke="#404040" points="401.0001,-826.1447 397,-820.1448 401,-814.1447 405,-820.1447 401.0001,-826.1447"/>
<text text-anchor="middle" x="451" y="-874" font-family="Helvetica,sans-Serif" font-size="10.00" fill="#000000"> +DEFAULT_LOCALE</text>
</g>
<!-- Node15 -->
<g id="node9" class="node">
<title>Node15</title>
<polygon fill="none" stroke="#bfbfbf" points="146,-757 146,-814 188,-814 188,-757 146,-757"/>
<text text-anchor="middle" x="167" y="-802" font-family="Helvetica,sans-Serif" font-size="10.00" fill="#000000">String</text>
<polyline fill="none" stroke="#bfbfbf" points="146,-795 188,-795 "/>
<text text-anchor="middle" x="167" y="-783" font-family="Helvetica,sans-Serif" font-size="10.00" fill="#000000"> </text>
<polyline fill="none" stroke="#bfbfbf" points="146,-776 188,-776 "/>
<text text-anchor="middle" x="167" y="-764" font-family="Helvetica,sans-Serif" font-size="10.00" fill="#000000"> </text>
</g>
<!-- Node15&#45;&gt;Node9 -->
<g id="edge8" class="edge">
<title>Node15&#45;&gt;Node9</title>
<path fill="none" stroke="#404040" d="M172.0762,-756.7841C177.0631,-734.0418 186.2684,-702.1863 202,-678 206.7507,-670.6961 212.3333,-663.6383 218.3479,-656.942"/>
<polygon fill="none" stroke="#404040" points="218.5248,-656.7553 219.7489,-649.6489 226.7796,-648.0456 225.5554,-655.1521 218.5248,-656.7553"/>
<text text-anchor="middle" x="237" y="-692" font-family="Helvetica,sans-Serif" font-size="10.00" fill="#000000"> #layoutPosition</text>
<text text-anchor="middle" x="237" y="-681" font-family="Helvetica,sans-Serif" font-size="10.00" fill="#000000">#title</text>
</g>
<!-- Node16 -->
<g id="node10" class="node">
<title>Node16</title>
<polygon fill="none" stroke="#bfbfbf" points="206,-757 206,-814 316,-814 316,-757 206,-757"/>
<text text-anchor="middle" x="261" y="-802" font-family="Helvetica,sans-Serif" font-size="10.00" fill="#000000">CoreComponentType</text>
<polyline fill="none" stroke="#bfbfbf" points="206,-795 316,-795 "/>
<text text-anchor="middle" x="261" y="-783" font-family="Helvetica,sans-Serif" font-size="10.00" fill="#000000"> </text>
<polyline fill="none" stroke="#bfbfbf" points="206,-776 316,-776 "/>
<text text-anchor="middle" x="261" y="-764" font-family="Helvetica,sans-Serif" font-size="10.00" fill="#000000"> </text>
</g>
<!-- Node16&#45;&gt;Node9 -->
<g id="edge9" class="edge">
<title>Node16&#45;&gt;Node9</title>
<path fill="none" stroke="#404040" d="M265.6218,-756.614C269.2476,-733.9523 274.4604,-701.3726 279.2194,-671.6287"/>
<polygon fill="none" stroke="#404040" points="279.2593,-671.3787 276.2575,-664.8221 281.1553,-659.5294 284.1571,-666.086 279.2593,-671.3787"/>
<text text-anchor="middle" x="317" y="-686.5" font-family="Helvetica,sans-Serif" font-size="10.00" fill="#000000"> #coreComponent</text>
</g>
<!-- Node17&#45;&gt;Node8 -->
<g id="edge10" class="edge">
<title>Node17&#45;&gt;Node8</title>
<path fill="none" stroke="#191970" d="M186.084,-540.9868C208.4553,-523.5349 232.5661,-504.726 253.1198,-488.6919"/>
<polygon fill="none" stroke="#191970" points="183.6622,-538.437 177.9304,-547.3475 187.9679,-543.9562 183.6622,-538.437"/>
</g>
<!-- Node18 -->
<g id="node12" class="node">
<title>Node18</title>
<polygon fill="none" stroke="#bfbfbf" points="630.5,-757 630.5,-814 695.5,-814 695.5,-757 630.5,-757"/>
<text text-anchor="middle" x="663" y="-802" font-family="Helvetica,sans-Serif" font-size="10.00" fill="#000000">ModelType</text>
<polyline fill="none" stroke="#bfbfbf" points="630.5,-795 695.5,-795 "/>
<text text-anchor="middle" x="663" y="-783" font-family="Helvetica,sans-Serif" font-size="10.00" fill="#000000"> </text>
<polyline fill="none" stroke="#bfbfbf" points="630.5,-776 695.5,-776 "/>
<text text-anchor="middle" x="663" y="-764" font-family="Helvetica,sans-Serif" font-size="10.00" fill="#000000"> </text>
</g>
<!-- Node18&#45;&gt;Node8 -->
<g id="edge12" class="edge">
<title>Node18&#45;&gt;Node8</title>
<path fill="none" stroke="#404040" d="M648.3366,-756.8691C641.2352,-744.3092 632.0671,-729.7773 622,-718 546.2055,-629.3289 439.6624,-545.5943 371.2192,-495.7843"/>
<polygon fill="none" stroke="#404040" points="371.1282,-495.7185 363.9224,-495.4425 361.4056,-488.6849 368.6115,-488.9608 371.1282,-495.7185"/>
<text text-anchor="middle" x="582.5" y="-595.5" font-family="Helvetica,sans-Serif" font-size="10.00" fill="#000000"> #model</text>
</g>
<!-- Node18&#45;&gt;Node23 -->
<g id="edge20" class="edge">
<title>Node18&#45;&gt;Node23</title>
<path fill="none" stroke="#404040" d="M666.0812,-756.614C669.1064,-728.2523 673.7887,-684.3557 677.4613,-649.9257"/>
<polygon fill="none" stroke="#404040" points="677.4908,-649.6479 674.1498,-643.2574 678.7637,-637.7156 682.1047,-644.106 677.4908,-649.6479"/>
<text text-anchor="middle" x="691.5" y="-686.5" font-family="Helvetica,sans-Serif" font-size="10.00" fill="#000000"> #model</text>
</g>
<!-- Node19 -->
<g id="node13" class="node">
<title>Node19</title>
<polygon fill="none" stroke="#bfbfbf" points="386.5,-281.5 386.5,-338.5 433.5,-338.5 433.5,-281.5 386.5,-281.5"/>
<text text-anchor="middle" x="410" y="-326.5" font-family="Helvetica,sans-Serif" font-size="10.00" fill="#000000">JSlider</text>
<polyline fill="none" stroke="#bfbfbf" points="386.5,-319.5 433.5,-319.5 "/>
<text text-anchor="middle" x="410" y="-307.5" font-family="Helvetica,sans-Serif" font-size="10.00" fill="#000000"> </text>
<polyline fill="none" stroke="#bfbfbf" points="386.5,-300.5 433.5,-300.5 "/>
<text text-anchor="middle" x="410" y="-288.5" font-family="Helvetica,sans-Serif" font-size="10.00" fill="#000000"> </text>
</g>
<!-- Node19&#45;&gt;Node7 -->
<g id="edge13" class="edge">
<title>Node19&#45;&gt;Node7</title>
<path fill="none" stroke="#404040" d="M412.2269,-281.0862C415.358,-256.6671 422.8891,-221.8108 441,-197 460.4828,-170.3098 488.7738,-148.4499 516.4447,-131.5775"/>
<polygon fill="none" stroke="#404040" points="516.6623,-131.4494 519.7998,-124.9566 526.9999,-125.3556 523.8623,-131.8483 516.6623,-131.4494"/>
<text text-anchor="middle" x="476.5" y="-211" font-family="Helvetica,sans-Serif" font-size="10.00" fill="#000000"> #progressSlider</text>
</g>
<!-- Node20 -->
<g id="node14" class="node">
<title>Node20</title>
<polygon fill="none" stroke="#bfbfbf" points="461,-281.5 461,-338.5 511,-338.5 511,-281.5 461,-281.5"/>
<text text-anchor="middle" x="486" y="-326.5" font-family="Helvetica,sans-Serif" font-size="10.00" fill="#000000">JButton</text>
<polyline fill="none" stroke="#bfbfbf" points="461,-319.5 511,-319.5 "/>
<text text-anchor="middle" x="486" y="-307.5" font-family="Helvetica,sans-Serif" font-size="10.00" fill="#000000"> </text>
<polyline fill="none" stroke="#bfbfbf" points="461,-300.5 511,-300.5 "/>
<text text-anchor="middle" x="486" y="-288.5" font-family="Helvetica,sans-Serif" font-size="10.00" fill="#000000"> </text>
</g>
<!-- Node20&#45;&gt;Node7 -->
<g id="edge14" class="edge">
<title>Node20&#45;&gt;Node7</title>
<path fill="none" stroke="#404040" d="M495.3564,-281.3256C503.4551,-257.9835 516.1797,-224.5148 531,-197 532.44,-194.3266 533.9336,-191.6398 535.4714,-188.9483"/>
<polygon fill="none" stroke="#404040" points="535.5022,-188.8961 535.1071,-181.6958 541.6016,-178.5618 541.9966,-185.7621 535.5022,-188.8961"/>
<text text-anchor="middle" x="566.5" y="-222" font-family="Helvetica,sans-Serif" font-size="10.00" fill="#000000"> #playButton</text>
<text text-anchor="middle" x="566.5" y="-211" font-family="Helvetica,sans-Serif" font-size="10.00" fill="#000000">#previousButton</text>
<text text-anchor="middle" x="566.5" y="-200" font-family="Helvetica,sans-Serif" font-size="10.00" fill="#000000">#nextButton</text>
</g>
<!-- Node21 -->
<g id="node15" class="node">
<title>Node21</title>
<g id="a_node15"><a xlink:href="classene_1_1controllers_1_1PlayerController.html" target="_top" xlink:title="{ene.controllers.PlayerController\n||+ PlayerController()\l+ changeTrackPosition()\l+ loadPlaylist()\l+ load()\l+ previous()\l+ next()\l+ togglePlayback()\l}">
<polygon fill="none" stroke="#000000" points="529.5,-248.5 529.5,-371.5 682.5,-371.5 682.5,-248.5 529.5,-248.5"/>
<text text-anchor="middle" x="606" y="-359.5" font-family="Helvetica,sans-Serif" font-size="10.00" fill="#000000">ene.controllers.PlayerController</text>
<polyline fill="none" stroke="#000000" points="529.5,-352.5 682.5,-352.5 "/>
<text text-anchor="middle" x="606" y="-340.5" font-family="Helvetica,sans-Serif" font-size="10.00" fill="#000000"> </text>
<polyline fill="none" stroke="#000000" points="529.5,-333.5 682.5,-333.5 "/>
<text text-anchor="start" x="537.5" y="-321.5" font-family="Helvetica,sans-Serif" font-size="10.00" fill="#000000">+ PlayerController()</text>
<text text-anchor="start" x="537.5" y="-310.5" font-family="Helvetica,sans-Serif" font-size="10.00" fill="#000000">+ changeTrackPosition()</text>
<text text-anchor="start" x="537.5" y="-299.5" font-family="Helvetica,sans-Serif" font-size="10.00" fill="#000000">+ loadPlaylist()</text>
<text text-anchor="start" x="537.5" y="-288.5" font-family="Helvetica,sans-Serif" font-size="10.00" fill="#000000">+ load()</text>
<text text-anchor="start" x="537.5" y="-277.5" font-family="Helvetica,sans-Serif" font-size="10.00" fill="#000000">+ previous()</text>
<text text-anchor="start" x="537.5" y="-266.5" font-family="Helvetica,sans-Serif" font-size="10.00" fill="#000000">+ next()</text>
<text text-anchor="start" x="537.5" y="-255.5" font-family="Helvetica,sans-Serif" font-size="10.00" fill="#000000">+ togglePlayback()</text>
</a>
</g>
</g>
<!-- Node21&#45;&gt;Node7 -->
<g id="edge15" class="edge">
<title>Node21&#45;&gt;Node7</title>
<path fill="none" stroke="#404040" d="M606,-248.2853C606,-230.4544 606,-210.5075 606,-190.9335"/>
<polygon fill="none" stroke="#404040" points="606.0001,-190.8164 602,-184.8164 606,-178.8164 610,-184.8164 606.0001,-190.8164"/>
<text text-anchor="middle" x="644.5" y="-211" font-family="Helvetica,sans-Serif" font-size="10.00" fill="#000000"> #playerController</text>
</g>
<!-- Node22 -->
<g id="node16" class="node">
<title>Node22</title>
<g id="a_node16"><a xlink:href="classene_1_1controllers_1_1AbstractController.html" target="_top" xlink:title="{ene.controllers.Abstract\lController\&lt; PlayerModel \&gt;\n|# model\l|+ setModel()\l+ getModel()\l}">
<polygon fill="none" stroke="#000000" points="573.5,-409.5 573.5,-488.5 704.5,-488.5 704.5,-409.5 573.5,-409.5"/>
<text text-anchor="start" x="581.5" y="-476.5" font-family="Helvetica,sans-Serif" font-size="10.00" fill="#000000">ene.controllers.Abstract</text>
<text text-anchor="middle" x="639" y="-465.5" font-family="Helvetica,sans-Serif" font-size="10.00" fill="#000000">Controller&lt; PlayerModel &gt;</text>
<polyline fill="none" stroke="#000000" points="573.5,-458.5 704.5,-458.5 "/>
<text text-anchor="start" x="581.5" y="-446.5" font-family="Helvetica,sans-Serif" font-size="10.00" fill="#000000"># model</text>
<polyline fill="none" stroke="#000000" points="573.5,-439.5 704.5,-439.5 "/>
<text text-anchor="start" x="581.5" y="-427.5" font-family="Helvetica,sans-Serif" font-size="10.00" fill="#000000">+ setModel()</text>
<text text-anchor="start" x="581.5" y="-416.5" font-family="Helvetica,sans-Serif" font-size="10.00" fill="#000000">+ getModel()</text>
</a>
</g>
</g>
<!-- Node22&#45;&gt;Node21 -->
<g id="edge16" class="edge">
<title>Node22&#45;&gt;Node21</title>
<path fill="none" stroke="#191970" d="M627.1973,-399.2854C625.0688,-390.3202 622.8266,-380.8758 620.6293,-371.6203"/>
<polygon fill="none" stroke="#191970" points="623.8282,-400.2471 629.5435,-409.1682 630.6389,-398.6301 623.8282,-400.2471"/>
</g>
<!-- Node23&#45;&gt;Node22 -->
<g id="edge17" class="edge">
<title>Node23&#45;&gt;Node22</title>
<path fill="none" stroke="#ffa500" d="M668.4801,-548.8303C662.7196,-529.3232 656.1824,-507.186 650.7302,-488.7228"/>
<polygon fill="#ffa500" stroke="#ffa500" points="665.1354,-549.8626 671.3243,-558.4619 671.8488,-547.8801 665.1354,-549.8626"/>
<text text-anchor="middle" x="696" y="-510" font-family="Helvetica,sans-Serif" font-size="10.00" fill="#000000"> &lt; PlayerModel &gt;</text>
</g>
<!-- Node24 -->
<g id="node18" class="node">
<title>Node24</title>
<g id="a_node18"><a xlink:href="interfaceene_1_1interfaces_1_1Controller.html" target="_top" xlink:title="{ene::interfaces::Controller\l\&lt; ModelType \&gt;\n||+ setModel()\l+ getModel()\l}">
<polygon fill="none" stroke="#000000" points="713.5,-746 713.5,-825 842.5,-825 842.5,-746 713.5,-746"/>
<text text-anchor="start" x="721.5" y="-813" font-family="Helvetica,sans-Serif" font-size="10.00" fill="#000000">ene::interfaces::Controller</text>
<text text-anchor="middle" x="778" y="-802" font-family="Helvetica,sans-Serif" font-size="10.00" fill="#000000">&lt; ModelType &gt;</text>
<polyline fill="none" stroke="#000000" points="713.5,-795 842.5,-795 "/>
<text text-anchor="middle" x="778" y="-783" font-family="Helvetica,sans-Serif" font-size="10.00" fill="#000000"> </text>
<polyline fill="none" stroke="#000000" points="713.5,-776 842.5,-776 "/>
<text text-anchor="start" x="721.5" y="-764" font-family="Helvetica,sans-Serif" font-size="10.00" fill="#000000">+ setModel()</text>
<text text-anchor="start" x="721.5" y="-753" font-family="Helvetica,sans-Serif" font-size="10.00" fill="#000000">+ getModel()</text>
</a>
</g>
</g>
<!-- Node24&#45;&gt;Node23 -->
<g id="edge19" class="edge">
<title>Node24&#45;&gt;Node23</title>
<path fill="none" stroke="#191970" d="M753.1611,-736.4758C737.5687,-705.7014 717.7215,-666.5292 703.118,-637.7066"/>
<polygon fill="none" stroke="#191970" points="750.2111,-738.3976 757.8529,-745.7361 756.4554,-735.2338 750.2111,-738.3976"/>
</g>
<!-- Node25 -->
<g id="node19" class="node">
<title>Node25</title>
<polygon fill="none" stroke="#bfbfbf" points="700.5,-281.5 700.5,-338.5 741.5,-338.5 741.5,-281.5 700.5,-281.5"/>
<text text-anchor="middle" x="721" y="-326.5" font-family="Helvetica,sans-Serif" font-size="10.00" fill="#000000">Timer</text>
<polyline fill="none" stroke="#bfbfbf" points="700.5,-319.5 741.5,-319.5 "/>
<text text-anchor="middle" x="721" y="-307.5" font-family="Helvetica,sans-Serif" font-size="10.00" fill="#000000"> </text>
<polyline fill="none" stroke="#bfbfbf" points="700.5,-300.5 741.5,-300.5 "/>
<text text-anchor="middle" x="721" y="-288.5" font-family="Helvetica,sans-Serif" font-size="10.00" fill="#000000"> </text>
</g>
<!-- Node25&#45;&gt;Node7 -->
<g id="edge21" class="edge">
<title>Node25&#45;&gt;Node7</title>
<path fill="none" stroke="#404040" d="M715.2694,-281.0755C709.9271,-257.5884 700.7047,-224.0466 687,-197 685.6855,-194.4058 684.3074,-191.8098 682.8749,-189.2182"/>
<polygon fill="none" stroke="#404040" points="682.7359,-188.9792 676.2619,-185.8031 676.7037,-178.6055 683.1777,-181.7816 682.7359,-188.9792"/>
<text text-anchor="middle" x="736" y="-211" font-family="Helvetica,sans-Serif" font-size="10.00" fill="#000000"> ~progressTimer</text>
</g>
<!-- Node26 -->
<g id="node20" class="node">
<title>Node26</title>
<polygon fill="none" stroke="#bfbfbf" points="760,-281.5 760,-338.5 858,-338.5 858,-281.5 760,-281.5"/>
<text text-anchor="middle" x="809" y="-326.5" font-family="Helvetica,sans-Serif" font-size="10.00" fill="#000000">SimpleDateFormat</text>
<polyline fill="none" stroke="#bfbfbf" points="760,-319.5 858,-319.5 "/>
<text text-anchor="middle" x="809" y="-307.5" font-family="Helvetica,sans-Serif" font-size="10.00" fill="#000000"> </text>
<polyline fill="none" stroke="#bfbfbf" points="760,-300.5 858,-300.5 "/>
<text text-anchor="middle" x="809" y="-288.5" font-family="Helvetica,sans-Serif" font-size="10.00" fill="#000000"> </text>
</g>
<!-- Node26&#45;&gt;Node7 -->
<g id="edge22" class="edge">
<title>Node26&#45;&gt;Node7</title>
<path fill="none" stroke="#404040" d="M806.3397,-281.4903C802.8189,-256.9984 794.6894,-221.8141 776,-197 755.2312,-169.425 725.1514,-147.1161 696.049,-130.1183"/>
<polygon fill="none" stroke="#404040" points="695.8381,-129.9992 688.6466,-130.5303 685.3903,-124.0963 692.5819,-123.5651 695.8381,-129.9992"/>
<text text-anchor="middle" x="834" y="-211" font-family="Helvetica,sans-Serif" font-size="10.00" fill="#000000"> ~trackTimeFormat</text>
</g>
<!-- Node27 -->
<g id="node21" class="node">
<title>Node27</title>
<polygon fill="none" stroke="#bfbfbf" points="893.5,-281.5 893.5,-338.5 938.5,-338.5 938.5,-281.5 893.5,-281.5"/>
<text text-anchor="middle" x="916" y="-326.5" font-family="Helvetica,sans-Serif" font-size="10.00" fill="#000000">JLabel</text>
<polyline fill="none" stroke="#bfbfbf" points="893.5,-319.5 938.5,-319.5 "/>
<text text-anchor="middle" x="916" y="-307.5" font-family="Helvetica,sans-Serif" font-size="10.00" fill="#000000"> </text>
<polyline fill="none" stroke="#bfbfbf" points="893.5,-300.5 938.5,-300.5 "/>
<text text-anchor="middle" x="916" y="-288.5" font-family="Helvetica,sans-Serif" font-size="10.00" fill="#000000"> </text>
</g>
<!-- Node27&#45;&gt;Node7 -->
<g id="edge23" class="edge">
<title>Node27&#45;&gt;Node7</title>
<path fill="none" stroke="#404040" d="M913.7319,-281.4999C910.3,-256.3339 901.6751,-220.1426 880,-197 832.0427,-145.7958 756.7181,-118.5944 697.1733,-104.3776"/>
<polygon fill="none" stroke="#404040" points="696.8039,-104.2932 690.0637,-106.8564 685.1053,-101.6205 691.8455,-99.0573 696.8039,-104.2932"/>
<text text-anchor="middle" x="935" y="-211" font-family="Helvetica,sans-Serif" font-size="10.00" fill="#000000"> #progressLabel</text>
</g>
</g>
</svg>
