<?xml version="1.0" encoding="UTF-8" standalone="no"?>
<!DOCTYPE svg PUBLIC "-//W3C//DTD SVG 1.1//EN"
 "http://www.w3.org/Graphics/SVG/1.1/DTD/svg11.dtd">
<!-- Generated by graphviz version 2.40.1 (20161225.0304)
 -->
<!-- Title: ene.views.gui.partial.LibraryView.render Pages: 1 -->
<svg width="1228pt" height="768pt"
 viewBox="0.00 0.00 1228.00 768.00" xmlns="http://www.w3.org/2000/svg" xmlns:xlink="http://www.w3.org/1999/xlink">
<g id="graph0" class="graph" transform="scale(1 1) rotate(0) translate(4 764)">
<title>ene.views.gui.partial.LibraryView.render</title>
<!-- Node21 -->
<g id="node1" class="node">
<title>Node21</title>
<polygon fill="#bfbfbf" stroke="#000000" points="0,-294.5 0,-324.5 138,-324.5 138,-294.5 0,-294.5"/>
<text text-anchor="start" x="8" y="-312.5" font-family="Helvetica,sans-Serif" font-size="10.00" fill="#000000">ene.views.gui.partial.Library</text>
<text text-anchor="middle" x="69" y="-301.5" font-family="Helvetica,sans-Serif" font-size="10.00" fill="#000000">View.render</text>
</g>
<!-- Node22 -->
<g id="node2" class="node">
<title>Node22</title>
<g id="a_node2"><a xlink:href="classene_1_1controllers_1_1LibraryController.html#aa0d66e53872a376fe6d456eb070de8d4" target="_top" xlink:title="ene.controllers.LibraryController.add">
<polygon fill="none" stroke="#000000" points="174,-647 174,-666 347,-666 347,-647 174,-647"/>
<text text-anchor="middle" x="260.5" y="-654" font-family="Helvetica,sans-Serif" font-size="10.00" fill="#000000">ene.controllers.LibraryController.add</text>
</a>
</g>
</g>
<!-- Node21&#45;&gt;Node22 -->
<g id="edge1" class="edge">
<title>Node21&#45;&gt;Node22</title>
<path fill="none" stroke="#191970" d="M74.4101,-324.5248C88.3452,-362.4342 127.6429,-464.5011 174,-542.5 195.7389,-579.077 227.1056,-617.7365 245.4884,-639.3212"/>
<polygon fill="#191970" stroke="#191970" points="242.8941,-641.6724 252.0697,-646.9695 248.2001,-637.1066 242.8941,-641.6724"/>
</g>
<!-- Node36 -->
<g id="node16" class="node">
<title>Node36</title>
<g id="a_node16"><a xlink:href="classene_1_1views_1_1AbstractView.html#a8b774594825c8749280b5b17013ad7dc" target="_top" xlink:title="ene.views.AbstractView.get\lCoreComponent">
<polygon fill="none" stroke="#000000" points="191,-294.5 191,-324.5 330,-324.5 330,-294.5 191,-294.5"/>
<text text-anchor="start" x="199" y="-312.5" font-family="Helvetica,sans-Serif" font-size="10.00" fill="#000000">ene.views.AbstractView.get</text>
<text text-anchor="middle" x="260.5" y="-301.5" font-family="Helvetica,sans-Serif" font-size="10.00" fill="#000000">CoreComponent</text>
</a>
</g>
</g>
<!-- Node21&#45;&gt;Node36 -->
<g id="edge16" class="edge">
<title>Node21&#45;&gt;Node36</title>
<path fill="none" stroke="#191970" d="M138.1359,-309.5C151.9295,-309.5 166.5235,-309.5 180.6431,-309.5"/>
<polygon fill="#191970" stroke="#191970" points="180.8224,-313.0001 190.8224,-309.5 180.8224,-306.0001 180.8224,-313.0001"/>
</g>
<!-- Node37 -->
<g id="node17" class="node">
<title>Node37</title>
<g id="a_node17"><a xlink:href="classene_1_1views_1_1gui_1_1partial_1_1LibraryView.html#a54aebe6234a85e8ec433d9836ad02bb4" target="_top" xlink:title="ene.views.gui.partial.Library\lView.getLibraryController">
<polygon fill="none" stroke="#000000" points="191.5,-245.5 191.5,-275.5 329.5,-275.5 329.5,-245.5 191.5,-245.5"/>
<text text-anchor="start" x="199.5" y="-263.5" font-family="Helvetica,sans-Serif" font-size="10.00" fill="#000000">ene.views.gui.partial.Library</text>
<text text-anchor="middle" x="260.5" y="-252.5" font-family="Helvetica,sans-Serif" font-size="10.00" fill="#000000">View.getLibraryController</text>
</a>
</g>
</g>
<!-- Node21&#45;&gt;Node37 -->
<g id="edge17" class="edge">
<title>Node21&#45;&gt;Node37</title>
<path fill="none" stroke="#191970" d="M127.7577,-294.4654C148.0694,-289.2682 171.0054,-283.3994 192.0275,-278.0204"/>
<polygon fill="#191970" stroke="#191970" points="193.0331,-281.3759 201.8534,-275.5062 191.2979,-274.5944 193.0331,-281.3759"/>
</g>
<!-- Node38 -->
<g id="node18" class="node">
<title>Node38</title>
<g id="a_node18"><a xlink:href="classene_1_1views_1_1AbstractPartialView.html#afb90f9e02eea94a2fb276d711a67ee36" target="_top" xlink:title="ene.views.AbstractPartial\lView.getModel">
<polygon fill="none" stroke="#000000" points="408.5,-431.5 408.5,-461.5 536.5,-461.5 536.5,-431.5 408.5,-431.5"/>
<text text-anchor="start" x="416.5" y="-449.5" font-family="Helvetica,sans-Serif" font-size="10.00" fill="#000000">ene.views.AbstractPartial</text>
<text text-anchor="middle" x="472.5" y="-438.5" font-family="Helvetica,sans-Serif" font-size="10.00" fill="#000000">View.getModel</text>
</a>
</g>
</g>
<!-- Node21&#45;&gt;Node38 -->
<g id="edge18" class="edge">
<title>Node21&#45;&gt;Node38</title>
<path fill="none" stroke="#191970" d="M78.7329,-324.8181C95.0877,-349.0644 130.5919,-395.6652 174,-416.5 244.6108,-450.3913 335.2654,-454.8178 398.0509,-452.7012"/>
<polygon fill="#191970" stroke="#191970" points="398.4179,-456.1894 408.2694,-452.2908 398.1369,-449.195 398.4179,-456.1894"/>
</g>
<!-- Node39 -->
<g id="node19" class="node">
<title>Node39</title>
<g id="a_node19"><a xlink:href="classene_1_1views_1_1gui_1_1partial_1_1AbstractTrackListView.html#a35a32113ecdb8bc210fa6b4e9c57c782" target="_top" xlink:title="ene.views.gui.partial.Abstract\lTrackListView.getSelectedFilename">
<polygon fill="none" stroke="#000000" points="174,-343.5 174,-373.5 347,-373.5 347,-343.5 174,-343.5"/>
<text text-anchor="start" x="182" y="-361.5" font-family="Helvetica,sans-Serif" font-size="10.00" fill="#000000">ene.views.gui.partial.Abstract</text>
<text text-anchor="middle" x="260.5" y="-350.5" font-family="Helvetica,sans-Serif" font-size="10.00" fill="#000000">TrackListView.getSelectedFilename</text>
</a>
</g>
</g>
<!-- Node21&#45;&gt;Node39 -->
<g id="edge19" class="edge">
<title>Node21&#45;&gt;Node39</title>
<path fill="none" stroke="#191970" d="M127.7577,-324.5346C148.0694,-329.7318 171.0054,-335.6006 192.0275,-340.9796"/>
<polygon fill="#191970" stroke="#191970" points="191.2979,-344.4056 201.8534,-343.4938 193.0331,-337.6241 191.2979,-344.4056"/>
</g>
<!-- Node41 -->
<g id="node21" class="node">
<title>Node41</title>
<g id="a_node21"><a xlink:href="classene_1_1views_1_1gui_1_1partial_1_1AbstractTrackListView.html#a709dd0b919d5e537076fe18ad992f25f" target="_top" xlink:title="ene.views.gui.partial.Abstract\lTrackListView.getTableContent">
<polygon fill="none" stroke="#000000" points="626,-369.5 626,-399.5 780,-399.5 780,-369.5 626,-369.5"/>
<text text-anchor="start" x="634" y="-387.5" font-family="Helvetica,sans-Serif" font-size="10.00" fill="#000000">ene.views.gui.partial.Abstract</text>
<text text-anchor="middle" x="703" y="-376.5" font-family="Helvetica,sans-Serif" font-size="10.00" fill="#000000">TrackListView.getTableContent</text>
</a>
</g>
</g>
<!-- Node21&#45;&gt;Node41 -->
<g id="edge24" class="edge">
<title>Node21&#45;&gt;Node41</title>
<path fill="none" stroke="#191970" d="M84.0657,-324.5209C103.1081,-342.3423 137.7945,-371.0757 174,-382.5 323.5432,-429.6868 508.9265,-414.8197 615.8194,-399.6834"/>
<polygon fill="#191970" stroke="#191970" points="616.5207,-403.1184 625.915,-398.2198 615.5163,-396.1908 616.5207,-403.1184"/>
</g>
<!-- Node43 -->
<g id="node23" class="node">
<title>Node43</title>
<g id="a_node23"><a xlink:href="interfaceene_1_1interfaces_1_1Localization.html#ae7d5c65647a8bd1ca0c27b3279b0751c" target="_top" xlink:title="ene.interfaces.Localization.get\lString">
<polygon fill="none" stroke="#000000" points="186,-196.5 186,-226.5 335,-226.5 335,-196.5 186,-196.5"/>
<text text-anchor="start" x="194" y="-214.5" font-family="Helvetica,sans-Serif" font-size="10.00" fill="#000000">ene.interfaces.Localization.get</text>
<text text-anchor="middle" x="260.5" y="-203.5" font-family="Helvetica,sans-Serif" font-size="10.00" fill="#000000">String</text>
</a>
</g>
</g>
<!-- Node21&#45;&gt;Node43 -->
<g id="edge23" class="edge">
<title>Node21&#45;&gt;Node43</title>
<path fill="none" stroke="#191970" d="M86.402,-294.3676C106.3252,-277.7558 140.5418,-251.3448 174,-235.5 178.0715,-233.5719 182.3263,-231.7732 186.6713,-230.0993"/>
<polygon fill="#191970" stroke="#191970" points="188.0699,-233.3157 196.2908,-226.6323 185.6964,-226.7303 188.0699,-233.3157"/>
</g>
<!-- Node44 -->
<g id="node24" class="node">
<title>Node44</title>
<g id="a_node24"><a xlink:href="classene_1_1views_1_1gui_1_1partial_1_1AbstractTrackListView.html#a2b9e7e6496c9675f9094dea99e1e469d" target="_top" xlink:title="ene.views.gui.partial.Abstract\lTrackListView.hideColumn">
<polygon fill="none" stroke="#000000" points="187.5,-147.5 187.5,-177.5 333.5,-177.5 333.5,-147.5 187.5,-147.5"/>
<text text-anchor="start" x="195.5" y="-165.5" font-family="Helvetica,sans-Serif" font-size="10.00" fill="#000000">ene.views.gui.partial.Abstract</text>
<text text-anchor="middle" x="260.5" y="-154.5" font-family="Helvetica,sans-Serif" font-size="10.00" fill="#000000">TrackListView.hideColumn</text>
</a>
</g>
</g>
<!-- Node21&#45;&gt;Node44 -->
<g id="edge25" class="edge">
<title>Node21&#45;&gt;Node44</title>
<path fill="none" stroke="#191970" d="M77.6163,-294.4953C93.3453,-268.4707 129.2506,-215.02 174,-186.5 176.61,-184.8366 179.3356,-183.2868 182.1432,-181.843"/>
<polygon fill="#191970" stroke="#191970" points="183.742,-184.9598 191.3474,-177.5836 180.8021,-178.6071 183.742,-184.9598"/>
</g>
<!-- Node45 -->
<g id="node25" class="node">
<title>Node45</title>
<g id="a_node25"><a xlink:href="classene_1_1views_1_1gui_1_1partial_1_1LibraryView.html#a734cbc08cf36ed3d48cb106b77ecf28b" target="_top" xlink:title="ene.views.gui.partial.Library\lView.loadContent">
<polygon fill="none" stroke="#000000" points="403.5,-480.5 403.5,-510.5 541.5,-510.5 541.5,-480.5 403.5,-480.5"/>
<text text-anchor="start" x="411.5" y="-498.5" font-family="Helvetica,sans-Serif" font-size="10.00" fill="#000000">ene.views.gui.partial.Library</text>
<text text-anchor="middle" x="472.5" y="-487.5" font-family="Helvetica,sans-Serif" font-size="10.00" fill="#000000">View.loadContent</text>
</a>
</g>
</g>
<!-- Node21&#45;&gt;Node45 -->
<g id="edge26" class="edge">
<title>Node21&#45;&gt;Node45</title>
<path fill="none" stroke="#191970" d="M71.5395,-324.6255C79.0032,-363.6716 104.8622,-467.7107 174,-509.5 250.7036,-555.8624 359.8203,-533.2752 422.6721,-513.6841"/>
<polygon fill="#191970" stroke="#191970" points="423.8989,-516.9662 432.3501,-510.5766 421.7588,-510.3014 423.8989,-516.9662"/>
</g>
<!-- Node46 -->
<g id="node26" class="node">
<title>Node46</title>
<g id="a_node26"><a xlink:href="classene_1_1views_1_1AbstractView.html#aa9bee221c279bc8a9dbada91184d8181" target="_top" xlink:title="ene.views.AbstractView.set\lCoreComponent">
<polygon fill="none" stroke="#000000" points="191,-98.5 191,-128.5 330,-128.5 330,-98.5 191,-98.5"/>
<text text-anchor="start" x="199" y="-116.5" font-family="Helvetica,sans-Serif" font-size="10.00" fill="#000000">ene.views.AbstractView.set</text>
<text text-anchor="middle" x="260.5" y="-105.5" font-family="Helvetica,sans-Serif" font-size="10.00" fill="#000000">CoreComponent</text>
</a>
</g>
</g>
<!-- Node21&#45;&gt;Node46 -->
<g id="edge32" class="edge">
<title>Node21&#45;&gt;Node46</title>
<path fill="none" stroke="#191970" d="M73.8585,-294.4618C85.4818,-260.9257 118.157,-179.6606 174,-137.5 176.4701,-135.6351 179.0775,-133.9151 181.7861,-132.3288"/>
<polygon fill="#191970" stroke="#191970" points="183.4592,-135.404 190.7362,-127.7036 180.2455,-129.1853 183.4592,-135.404"/>
</g>
<!-- Node47 -->
<g id="node27" class="node">
<title>Node47</title>
<g id="a_node27"><a xlink:href="classene_1_1views_1_1gui_1_1partial_1_1AbstractTrackListView.html#a597363a2069558d6801c75be622b1988" target="_top" xlink:title="ene.views.gui.partial.Abstract\lTrackListView.setTable">
<polygon fill="none" stroke="#000000" points="187.5,-49.5 187.5,-79.5 333.5,-79.5 333.5,-49.5 187.5,-49.5"/>
<text text-anchor="start" x="195.5" y="-67.5" font-family="Helvetica,sans-Serif" font-size="10.00" fill="#000000">ene.views.gui.partial.Abstract</text>
<text text-anchor="middle" x="260.5" y="-56.5" font-family="Helvetica,sans-Serif" font-size="10.00" fill="#000000">TrackListView.setTable</text>
</a>
</g>
</g>
<!-- Node21&#45;&gt;Node47 -->
<g id="edge33" class="edge">
<title>Node21&#45;&gt;Node47</title>
<path fill="none" stroke="#191970" d="M71.7273,-294.2376C79.7118,-254.1239 106.8506,-144.939 174,-88.5 175.5211,-87.2215 177.1053,-86.0108 178.7424,-84.8644"/>
<polygon fill="#191970" stroke="#191970" points="180.5944,-87.8346 187.3233,-79.6508 176.9597,-81.8522 180.5944,-87.8346"/>
</g>
<!-- Node48 -->
<g id="node28" class="node">
<title>Node48</title>
<g id="a_node28"><a xlink:href="classene_1_1views_1_1gui_1_1partial_1_1AbstractTrackListView.html#a7ba0c6e862c2ef6d4e999650b61ec695" target="_top" xlink:title="ene.views.gui.partial.Abstract\lTrackListView.setTableRowSorter">
<polygon fill="none" stroke="#000000" points="177.5,-.5 177.5,-30.5 343.5,-30.5 343.5,-.5 177.5,-.5"/>
<text text-anchor="start" x="185.5" y="-18.5" font-family="Helvetica,sans-Serif" font-size="10.00" fill="#000000">ene.views.gui.partial.Abstract</text>
<text text-anchor="middle" x="260.5" y="-7.5" font-family="Helvetica,sans-Serif" font-size="10.00" fill="#000000">TrackListView.setTableRowSorter</text>
</a>
</g>
</g>
<!-- Node21&#45;&gt;Node48 -->
<g id="edge34" class="edge">
<title>Node21&#45;&gt;Node48</title>
<path fill="none" stroke="#191970" d="M70.2637,-294.3294C74.9041,-248.5981 95.1086,-110.8546 174,-39.5 175.3111,-38.3141 176.6759,-37.1862 178.087,-36.1135"/>
<polygon fill="#191970" stroke="#191970" points="180.155,-38.9435 186.6243,-30.5531 176.3347,-33.0779 180.155,-38.9435"/>
</g>
<!-- Node49 -->
<g id="node29" class="node">
<title>Node49</title>
<g id="a_node29"><a xlink:href="classene_1_1views_1_1gui_1_1partial_1_1LibraryView.html#a363a0a2db7ab4295ef38bb667038a6f8" target="_top" xlink:title="ene.views.gui.partial.Library\lView.update">
<polygon fill="none" stroke="#000000" points="191.5,-469.5 191.5,-499.5 329.5,-499.5 329.5,-469.5 191.5,-469.5"/>
<text text-anchor="start" x="199.5" y="-487.5" font-family="Helvetica,sans-Serif" font-size="10.00" fill="#000000">ene.views.gui.partial.Library</text>
<text text-anchor="middle" x="260.5" y="-476.5" font-family="Helvetica,sans-Serif" font-size="10.00" fill="#000000">View.update</text>
</a>
</g>
</g>
<!-- Node21&#45;&gt;Node49 -->
<g id="edge35" class="edge">
<title>Node21&#45;&gt;Node49</title>
<path fill="none" stroke="#191970" d="M75.9762,-324.5679C90.2561,-353.8123 125.5984,-418.5421 174,-454.5 179.4865,-458.5759 185.5703,-462.129 191.896,-465.2199"/>
<polygon fill="#191970" stroke="#191970" points="190.7381,-468.5361 201.2956,-469.4247 193.5965,-462.1463 190.7381,-468.5361"/>
</g>
<!-- Node23 -->
<g id="node3" class="node">
<title>Node23</title>
<g id="a_node3"><a xlink:href="classene_1_1controllers_1_1LibraryController.html#a6bc70daa48b96db79d5524113a49cd3e" target="_top" xlink:title="ene.controllers.LibraryController.add\lDirectoryContent">
<polygon fill="none" stroke="#000000" points="386,-641.5 386,-671.5 559,-671.5 559,-641.5 386,-641.5"/>
<text text-anchor="start" x="394" y="-659.5" font-family="Helvetica,sans-Serif" font-size="10.00" fill="#000000">ene.controllers.LibraryController.add</text>
<text text-anchor="middle" x="472.5" y="-648.5" font-family="Helvetica,sans-Serif" font-size="10.00" fill="#000000">DirectoryContent</text>
</a>
</g>
</g>
<!-- Node22&#45;&gt;Node23 -->
<g id="edge2" class="edge">
<title>Node22&#45;&gt;Node23</title>
<path fill="none" stroke="#191970" d="M347.0343,-656.5C356.4513,-656.5 366.0806,-656.5 375.6109,-656.5"/>
<polygon fill="#191970" stroke="#191970" points="375.8988,-660.0001 385.8988,-656.5 375.8988,-653.0001 375.8988,-660.0001"/>
</g>
<!-- Node25 -->
<g id="node5" class="node">
<title>Node25</title>
<g id="a_node5"><a xlink:href="classene_1_1controllers_1_1LibraryController.html#a8ebea67eb61c84ee6a4825fa98fe870b" target="_top" xlink:title="ene.controllers.LibraryController.addFile">
<polygon fill="none" stroke="#000000" points="844,-672 844,-691 1033,-691 1033,-672 844,-672"/>
<text text-anchor="middle" x="938.5" y="-679" font-family="Helvetica,sans-Serif" font-size="10.00" fill="#000000">ene.controllers.LibraryController.addFile</text>
</a>
</g>
</g>
<!-- Node22&#45;&gt;Node25 -->
<g id="edge8" class="edge">
<title>Node22&#45;&gt;Node25</title>
<path fill="none" stroke="#191970" d="M297.191,-666.0021C321.3738,-671.7642 353.8456,-678.5554 383,-681.5 539.3206,-697.2884 721.6499,-692.9818 833.5777,-687.7625"/>
<polygon fill="#191970" stroke="#191970" points="834.0301,-691.245 843.8516,-687.2716 833.6959,-684.2529 834.0301,-691.245"/>
</g>
<!-- Node29 -->
<g id="node9" class="node">
<title>Node29</title>
<g id="a_node9"><a xlink:href="classene_1_1controllers_1_1LibraryController.html#a510cf010821311fd17a441739179e99f" target="_top" xlink:title="ene.controllers.LibraryController.get\lDatabaseFilename">
<polygon fill="none" stroke="#000000" points="387,-729.5 387,-759.5 558,-759.5 558,-729.5 387,-729.5"/>
<text text-anchor="start" x="395" y="-747.5" font-family="Helvetica,sans-Serif" font-size="10.00" fill="#000000">ene.controllers.LibraryController.get</text>
<text text-anchor="middle" x="472.5" y="-736.5" font-family="Helvetica,sans-Serif" font-size="10.00" fill="#000000">DatabaseFilename</text>
</a>
</g>
</g>
<!-- Node22&#45;&gt;Node29 -->
<g id="edge9" class="edge">
<title>Node22&#45;&gt;Node29</title>
<path fill="none" stroke="#191970" d="M278.8727,-666.0419C302.5706,-678.1526 345.2384,-699.2943 383,-714.5 393.0094,-718.5305 403.7905,-722.4723 414.2844,-726.1044"/>
<polygon fill="#191970" stroke="#191970" points="413.216,-729.4379 423.8104,-729.3466 415.4714,-722.8112 413.216,-729.4379"/>
</g>
<!-- Node30 -->
<g id="node10" class="node">
<title>Node30</title>
<g id="a_node10"><a xlink:href="classene_1_1controllers_1_1LibraryController.html#aa40dceee9b0024082b71ab641a087c2e" target="_top" xlink:title="ene.controllers.LibraryController.save\lToFile">
<polygon fill="none" stroke="#000000" points="383,-553.5 383,-583.5 562,-583.5 562,-553.5 383,-553.5"/>
<text text-anchor="start" x="391" y="-571.5" font-family="Helvetica,sans-Serif" font-size="10.00" fill="#000000">ene.controllers.LibraryController.save</text>
<text text-anchor="middle" x="472.5" y="-560.5" font-family="Helvetica,sans-Serif" font-size="10.00" fill="#000000">ToFile</text>
</a>
</g>
</g>
<!-- Node22&#45;&gt;Node30 -->
<g id="edge10" class="edge">
<title>Node22&#45;&gt;Node30</title>
<path fill="none" stroke="#191970" d="M283.5913,-646.9149C317.7844,-632.7216 382.5782,-605.826 426.6448,-587.5342"/>
<polygon fill="#191970" stroke="#191970" points="428.0959,-590.7215 435.9899,-583.6551 425.4122,-584.2564 428.0959,-590.7215"/>
</g>
<!-- Node24 -->
<g id="node4" class="node">
<title>Node24</title>
<g id="a_node4"><a xlink:href="classene_1_1controllers_1_1LibraryController.html#a3a8b922c846a9b770b67f478ea0e5352" target="_top" xlink:title="ene.controllers.LibraryController.scan">
<polygon fill="none" stroke="#000000" points="613.5,-653 613.5,-672 792.5,-672 792.5,-653 613.5,-653"/>
<text text-anchor="middle" x="703" y="-660" font-family="Helvetica,sans-Serif" font-size="10.00" fill="#000000">ene.controllers.LibraryController.scan</text>
</a>
</g>
</g>
<!-- Node23&#45;&gt;Node24 -->
<g id="edge3" class="edge">
<title>Node23&#45;&gt;Node24</title>
<path fill="none" stroke="#191970" d="M559.3137,-658.7598C573.6227,-659.1323 588.5556,-659.521 603.1527,-659.9009"/>
<polygon fill="#191970" stroke="#191970" points="603.1053,-663.4008 613.193,-660.1623 603.2875,-656.4032 603.1053,-663.4008"/>
</g>
<!-- Node24&#45;&gt;Node25 -->
<g id="edge4" class="edge">
<title>Node24&#45;&gt;Node25</title>
<path fill="none" stroke="#191970" d="M792.7043,-669.7373C806.1973,-670.8259 820.212,-671.9566 833.9822,-673.0676"/>
<polygon fill="#191970" stroke="#191970" points="833.7058,-676.5565 843.9549,-673.8722 834.2688,-669.5792 833.7058,-676.5565"/>
</g>
<!-- Node26 -->
<g id="node6" class="node">
<title>Node26</title>
<g id="a_node6"><a xlink:href="classene_1_1models_1_1TrackModel.html#ab0db9bf0054a77ed2879695a379e3bd9" target="_top" xlink:title="ene.models.TrackModel.detect\lArtist">
<polygon fill="none" stroke="#000000" points="1069,-715.5 1069,-745.5 1220,-745.5 1220,-715.5 1069,-715.5"/>
<text text-anchor="start" x="1077" y="-733.5" font-family="Helvetica,sans-Serif" font-size="10.00" fill="#000000">ene.models.TrackModel.detect</text>
<text text-anchor="middle" x="1144.5" y="-722.5" font-family="Helvetica,sans-Serif" font-size="10.00" fill="#000000">Artist</text>
</a>
</g>
</g>
<!-- Node25&#45;&gt;Node26 -->
<g id="edge5" class="edge">
<title>Node25&#45;&gt;Node26</title>
<path fill="none" stroke="#191970" d="M978.7079,-691.064C1005.016,-697.3218 1040.1618,-705.6817 1071.3225,-713.0937"/>
<polygon fill="#191970" stroke="#191970" points="1070.7449,-716.5539 1081.2834,-715.463 1072.3648,-709.7439 1070.7449,-716.5539"/>
</g>
<!-- Node27 -->
<g id="node7" class="node">
<title>Node27</title>
<g id="a_node7"><a xlink:href="classene_1_1models_1_1TrackModel.html#a860b368d4cb6d81e7504cbf979c0cad7" target="_top" xlink:title="ene.models.TrackModel.detect\lTitle">
<polygon fill="none" stroke="#000000" points="1069,-666.5 1069,-696.5 1220,-696.5 1220,-666.5 1069,-666.5"/>
<text text-anchor="start" x="1077" y="-684.5" font-family="Helvetica,sans-Serif" font-size="10.00" fill="#000000">ene.models.TrackModel.detect</text>
<text text-anchor="middle" x="1144.5" y="-673.5" font-family="Helvetica,sans-Serif" font-size="10.00" fill="#000000">Title</text>
</a>
</g>
</g>
<!-- Node25&#45;&gt;Node27 -->
<g id="edge6" class="edge">
<title>Node25&#45;&gt;Node27</title>
<path fill="none" stroke="#191970" d="M1033.0592,-681.5C1041.5563,-681.5 1050.1305,-681.5 1058.5485,-681.5"/>
<polygon fill="#191970" stroke="#191970" points="1058.7234,-685.0001 1068.7233,-681.5 1058.7233,-678.0001 1058.7234,-685.0001"/>
</g>
<!-- Node28 -->
<g id="node8" class="node">
<title>Node28</title>
<g id="a_node8"><a xlink:href="classene_1_1controllers_1_1AbstractController.html#a9a5afba01d0004a64db4cb14c23e0bbd" target="_top" xlink:title="ene.controllers.Abstract\lController\&lt; LibraryModel\l \&gt;::getModel">
<polygon fill="none" stroke="#000000" points="1083,-606 1083,-647 1206,-647 1206,-606 1083,-606"/>
<text text-anchor="start" x="1091" y="-635" font-family="Helvetica,sans-Serif" font-size="10.00" fill="#000000">ene.controllers.Abstract</text>
<text text-anchor="start" x="1091" y="-624" font-family="Helvetica,sans-Serif" font-size="10.00" fill="#000000">Controller&lt; LibraryModel</text>
<text text-anchor="middle" x="1144.5" y="-613" font-family="Helvetica,sans-Serif" font-size="10.00" fill="#000000"> &gt;::getModel</text>
</a>
</g>
</g>
<!-- Node25&#45;&gt;Node28 -->
<g id="edge7" class="edge">
<title>Node25&#45;&gt;Node28</title>
<path fill="none" stroke="#191970" d="M974.3825,-671.9197C1001.5561,-664.6646 1039.7689,-654.4622 1073.0955,-645.5643"/>
<polygon fill="#191970" stroke="#191970" points="1074.0479,-648.9327 1082.8066,-642.9715 1072.2422,-642.1696 1074.0479,-648.9327"/>
</g>
<!-- Node31 -->
<g id="node11" class="node">
<title>Node31</title>
<g id="a_node11"><a xlink:href="interfaceene_1_1interfaces_1_1DatabaseConnection.html#aabff21f4c6d43139690fc93cae679e46" target="_top" xlink:title="ene.interfaces.DatabaseConnection.execute">
<polygon fill="none" stroke="#000000" points="598,-615 598,-634 808,-634 808,-615 598,-615"/>
<text text-anchor="middle" x="703" y="-622" font-family="Helvetica,sans-Serif" font-size="10.00" fill="#000000">ene.interfaces.DatabaseConnection.execute</text>
</a>
</g>
</g>
<!-- Node30&#45;&gt;Node31 -->
<g id="edge11" class="edge">
<title>Node30&#45;&gt;Node31</title>
<path fill="none" stroke="#191970" d="M519.2594,-583.5887C542.7309,-590.8288 571.6982,-599.2623 598,-605.5 609.5474,-608.2386 621.8908,-610.7963 633.9087,-613.0923"/>
<polygon fill="#191970" stroke="#191970" points="633.4301,-616.5633 643.9025,-614.9576 634.7144,-609.6822 633.4301,-616.5633"/>
</g>
<!-- Node32 -->
<g id="node12" class="node">
<title>Node32</title>
<g id="a_node12"><a xlink:href="classene_1_1models_1_1TrackModel.html#a04afba3cc5098c28ebd394fb7ac920ba" target="_top" xlink:title="ene.models.TrackModel.get\lArtist">
<polygon fill="none" stroke="#000000" points="634.5,-565.5 634.5,-595.5 771.5,-595.5 771.5,-565.5 634.5,-565.5"/>
<text text-anchor="start" x="642.5" y="-583.5" font-family="Helvetica,sans-Serif" font-size="10.00" fill="#000000">ene.models.TrackModel.get</text>
<text text-anchor="middle" x="703" y="-572.5" font-family="Helvetica,sans-Serif" font-size="10.00" fill="#000000">Artist</text>
</a>
</g>
</g>
<!-- Node30&#45;&gt;Node32 -->
<g id="edge12" class="edge">
<title>Node30&#45;&gt;Node32</title>
<path fill="none" stroke="#191970" d="M562.2773,-573.1739C582.622,-574.233 604.0814,-575.3502 623.9445,-576.3843"/>
<polygon fill="#191970" stroke="#191970" points="624.0032,-579.892 634.1717,-576.9167 624.3672,-572.9015 624.0032,-579.892"/>
</g>
<!-- Node33 -->
<g id="node13" class="node">
<title>Node33</title>
<g id="a_node13"><a xlink:href="classene_1_1models_1_1TrackModel.html#aab88fe151b093dba71ad9f9ab5c6959d" target="_top" xlink:title="ene.models.TrackModel.get\lFilename">
<polygon fill="none" stroke="#000000" points="634.5,-516.5 634.5,-546.5 771.5,-546.5 771.5,-516.5 634.5,-516.5"/>
<text text-anchor="start" x="642.5" y="-534.5" font-family="Helvetica,sans-Serif" font-size="10.00" fill="#000000">ene.models.TrackModel.get</text>
<text text-anchor="middle" x="703" y="-523.5" font-family="Helvetica,sans-Serif" font-size="10.00" fill="#000000">Filename</text>
</a>
</g>
</g>
<!-- Node30&#45;&gt;Node33 -->
<g id="edge13" class="edge">
<title>Node30&#45;&gt;Node33</title>
<path fill="none" stroke="#191970" d="M562.2773,-554.0889C582.7153,-550.8082 604.2783,-547.3469 624.2177,-544.1462"/>
<polygon fill="#191970" stroke="#191970" points="624.8528,-547.5891 634.1717,-542.5484 623.7433,-540.6776 624.8528,-547.5891"/>
</g>
<!-- Node34 -->
<g id="node14" class="node">
<title>Node34</title>
<g id="a_node14"><a xlink:href="classene_1_1models_1_1TrackModel.html#a2c57f7fe3f410c0e914af9a79de57346" target="_top" xlink:title="ene.models.TrackModel.get\lGenre">
<polygon fill="none" stroke="#000000" points="634.5,-467.5 634.5,-497.5 771.5,-497.5 771.5,-467.5 634.5,-467.5"/>
<text text-anchor="start" x="642.5" y="-485.5" font-family="Helvetica,sans-Serif" font-size="10.00" fill="#000000">ene.models.TrackModel.get</text>
<text text-anchor="middle" x="703" y="-474.5" font-family="Helvetica,sans-Serif" font-size="10.00" fill="#000000">Genre</text>
</a>
</g>
</g>
<!-- Node30&#45;&gt;Node34 -->
<g id="edge14" class="edge">
<title>Node30&#45;&gt;Node34</title>
<path fill="none" stroke="#191970" d="M499.1775,-553.4057C524.0904,-539.8292 562.6387,-520.1315 598,-507.5 606.4883,-504.4679 615.4938,-501.6925 624.5225,-499.1846"/>
<polygon fill="#191970" stroke="#191970" points="625.5489,-502.5332 634.3053,-496.5686 623.7405,-495.7708 625.5489,-502.5332"/>
</g>
<!-- Node35 -->
<g id="node15" class="node">
<title>Node35</title>
<g id="a_node15"><a xlink:href="classene_1_1models_1_1TrackModel.html#a5bac0e2b6c87c93eef2802d9d10bf3c1" target="_top" xlink:title="ene.models.TrackModel.get\lTitle">
<polygon fill="none" stroke="#000000" points="634.5,-418.5 634.5,-448.5 771.5,-448.5 771.5,-418.5 634.5,-418.5"/>
<text text-anchor="start" x="642.5" y="-436.5" font-family="Helvetica,sans-Serif" font-size="10.00" fill="#000000">ene.models.TrackModel.get</text>
<text text-anchor="middle" x="703" y="-425.5" font-family="Helvetica,sans-Serif" font-size="10.00" fill="#000000">Title</text>
</a>
</g>
</g>
<!-- Node30&#45;&gt;Node35 -->
<g id="edge15" class="edge">
<title>Node30&#45;&gt;Node35</title>
<path fill="none" stroke="#191970" d="M511.7164,-553.31C528.6125,-545.3787 547.7236,-534.3978 562,-520.5 585.1078,-498.0049 572.0982,-476.7119 598,-457.5 605.9976,-451.568 615.2111,-447.0655 624.7887,-443.6543"/>
<polygon fill="#191970" stroke="#191970" points="625.9784,-446.9489 634.4561,-440.5943 623.866,-440.2752 625.9784,-446.9489"/>
</g>
<!-- Node40 -->
<g id="node20" class="node">
<title>Node40</title>
<g id="a_node20"><a xlink:href="classene_1_1views_1_1gui_1_1partial_1_1AbstractTrackListView.html#aeea3d90287745704cda06893c94b9666" target="_top" xlink:title="ene.views.gui.partial.Abstract\lTrackListView.getTable">
<polygon fill="none" stroke="#000000" points="399.5,-255.5 399.5,-285.5 545.5,-285.5 545.5,-255.5 399.5,-255.5"/>
<text text-anchor="start" x="407.5" y="-273.5" font-family="Helvetica,sans-Serif" font-size="10.00" fill="#000000">ene.views.gui.partial.Abstract</text>
<text text-anchor="middle" x="472.5" y="-262.5" font-family="Helvetica,sans-Serif" font-size="10.00" fill="#000000">TrackListView.getTable</text>
</a>
</g>
</g>
<!-- Node39&#45;&gt;Node40 -->
<g id="edge20" class="edge">
<title>Node39&#45;&gt;Node40</title>
<path fill="none" stroke="#191970" d="M325.1511,-343.4224C332.7323,-340.6125 340.1849,-337.3268 347,-333.5 365.9255,-322.8728 364.3022,-311.5229 383,-300.5 390.2042,-296.2529 398.0927,-292.5069 406.1063,-289.2311"/>
<polygon fill="#191970" stroke="#191970" points="407.4632,-292.4592 415.5377,-285.5996 404.9479,-285.9267 407.4632,-292.4592"/>
</g>
<!-- Node39&#45;&gt;Node41 -->
<g id="edge21" class="edge">
<title>Node39&#45;&gt;Node41</title>
<path fill="none" stroke="#191970" d="M321.819,-343.4679C341.2574,-339.3825 362.9159,-335.5285 383,-333.5 462.1529,-325.5056 483.6393,-319.7638 562,-333.5 596.8628,-339.6112 634.468,-353.6177 662.0679,-365.4087"/>
<polygon fill="#191970" stroke="#191970" points="660.8264,-368.6855 671.3921,-369.4704 663.6219,-362.2679 660.8264,-368.6855"/>
</g>
<!-- Node42 -->
<g id="node22" class="node">
<title>Node42</title>
<g id="a_node22"><a xlink:href="classene_1_1views_1_1gui_1_1partial_1_1AbstractTrackListView.html#abb6fc383a050c8c908502156536ce518" target="_top" xlink:title="ene.views.gui.partial.Abstract\lTrackListView.getTableRowSorter">
<polygon fill="none" stroke="#000000" points="389.5,-343.5 389.5,-373.5 555.5,-373.5 555.5,-343.5 389.5,-343.5"/>
<text text-anchor="start" x="397.5" y="-361.5" font-family="Helvetica,sans-Serif" font-size="10.00" fill="#000000">ene.views.gui.partial.Abstract</text>
<text text-anchor="middle" x="472.5" y="-350.5" font-family="Helvetica,sans-Serif" font-size="10.00" fill="#000000">TrackListView.getTableRowSorter</text>
</a>
</g>
</g>
<!-- Node39&#45;&gt;Node42 -->
<g id="edge22" class="edge">
<title>Node39&#45;&gt;Node42</title>
<path fill="none" stroke="#191970" d="M347.0343,-358.5C357.6195,-358.5 368.4729,-358.5 379.1525,-358.5"/>
<polygon fill="#191970" stroke="#191970" points="379.3241,-362.0001 389.324,-358.5 379.324,-355.0001 379.3241,-362.0001"/>
</g>
<!-- Node45&#45;&gt;Node32 -->
<g id="edge27" class="edge">
<title>Node45&#45;&gt;Node32</title>
<path fill="none" stroke="#191970" d="M499.151,-510.6689C524.0456,-524.2969 562.582,-544.0283 598,-556.5 606.484,-559.4875 615.4869,-562.1996 624.514,-564.6344"/>
<polygon fill="#191970" stroke="#191970" points="623.7374,-568.0487 634.2955,-567.1674 625.4923,-561.2722 623.7374,-568.0487"/>
</g>
<!-- Node45&#45;&gt;Node33 -->
<g id="edge28" class="edge">
<title>Node45&#45;&gt;Node33</title>
<path fill="none" stroke="#191970" d="M541.6576,-506.3012C567.6441,-510.3598 597.3737,-515.0031 624.1744,-519.1888"/>
<polygon fill="#191970" stroke="#191970" points="623.8683,-522.6834 634.2887,-520.7685 624.9486,-515.7672 623.8683,-522.6834"/>
</g>
<!-- Node45&#45;&gt;Node34 -->
<g id="edge29" class="edge">
<title>Node45&#45;&gt;Node34</title>
<path fill="none" stroke="#191970" d="M541.6576,-491.5996C567.6441,-490.134 597.3737,-488.4572 624.1744,-486.9457"/>
<polygon fill="#191970" stroke="#191970" points="624.5016,-490.4329 634.2887,-486.3753 624.1074,-483.444 624.5016,-490.4329"/>
</g>
<!-- Node45&#45;&gt;Node35 -->
<g id="edge31" class="edge">
<title>Node45&#45;&gt;Node35</title>
<path fill="none" stroke="#191970" d="M529.0264,-480.3963C540.0078,-477.269 551.397,-473.8901 562,-470.5 578.2032,-465.3193 581.6779,-462.293 598,-457.5 606.5644,-454.985 615.5855,-452.5735 624.5954,-450.3143"/>
<polygon fill="#191970" stroke="#191970" points="625.4659,-453.7046 634.3454,-447.925 623.7997,-446.9058 625.4659,-453.7046"/>
</g>
<!-- Node45&#45;&gt;Node41 -->
<g id="edge30" class="edge">
<title>Node45&#45;&gt;Node41</title>
<path fill="none" stroke="#191970" d="M541.6113,-482.1927C548.9014,-479.0799 555.8756,-475.2391 562,-470.5 587.2004,-451 572.342,-427.3938 598,-408.5 603.5642,-404.4027 609.7098,-400.9882 616.1531,-398.1448"/>
<polygon fill="#191970" stroke="#191970" points="617.7399,-401.2822 625.7732,-394.3744 615.1856,-394.7648 617.7399,-401.2822"/>
</g>
<!-- Node49&#45;&gt;Node38 -->
<g id="edge37" class="edge">
<title>Node49&#45;&gt;Node38</title>
<path fill="none" stroke="#191970" d="M329.6234,-472.11C351.6279,-468.1657 376.0545,-463.7874 398.3964,-459.7827"/>
<polygon fill="#191970" stroke="#191970" points="399.2732,-463.1814 408.4987,-457.9719 398.0381,-456.2912 399.2732,-463.1814"/>
</g>
<!-- Node49&#45;&gt;Node45 -->
<g id="edge36" class="edge">
<title>Node49&#45;&gt;Node45</title>
<path fill="none" stroke="#191970" d="M329.6234,-488.0866C349.9759,-489.1426 372.4005,-490.3062 393.3311,-491.3922"/>
<polygon fill="#191970" stroke="#191970" points="393.3026,-494.8953 403.4705,-491.9183 393.6653,-487.9047 393.3026,-494.8953"/>
</g>
</g>
</svg>
