<?xml version="1.0" encoding="UTF-8" standalone="no"?>
<!DOCTYPE svg PUBLIC "-//W3C//DTD SVG 1.1//EN"
 "http://www.w3.org/Graphics/SVG/1.1/DTD/svg11.dtd">
<!-- Generated by graphviz version 2.40.1 (20161225.0304)
 -->
<!-- Title: ene.views.gui.partial.ContentView Pages: 1 -->
<svg width="744pt" height="685pt"
 viewBox="0.00 0.00 744.00 685.00" xmlns="http://www.w3.org/2000/svg" xmlns:xlink="http://www.w3.org/1999/xlink">
<g id="graph0" class="graph" transform="scale(1 1) rotate(0) translate(4 681)">
<title>ene.views.gui.partial.ContentView</title>
<!-- Node7 -->
<g id="node1" class="node">
<title>Node7</title>
<polygon fill="#bfbfbf" stroke="#000000" points="261.5,-.5 261.5,-79.5 426.5,-79.5 426.5,-.5 261.5,-.5"/>
<text text-anchor="middle" x="344" y="-67.5" font-family="Helvetica,sans-Serif" font-size="10.00" fill="#000000">ene.views.gui.partial.ContentView</text>
<polyline fill="none" stroke="#000000" points="261.5,-60.5 426.5,-60.5 "/>
<text text-anchor="middle" x="344" y="-48.5" font-family="Helvetica,sans-Serif" font-size="10.00" fill="#000000"> </text>
<polyline fill="none" stroke="#000000" points="261.5,-41.5 426.5,-41.5 "/>
<text text-anchor="start" x="269.5" y="-29.5" font-family="Helvetica,sans-Serif" font-size="10.00" fill="#000000">+ ContentView()</text>
<text text-anchor="start" x="269.5" y="-18.5" font-family="Helvetica,sans-Serif" font-size="10.00" fill="#000000">+ render()</text>
<text text-anchor="start" x="269.5" y="-7.5" font-family="Helvetica,sans-Serif" font-size="10.00" fill="#000000"># initialize()</text>
</g>
<!-- Node8 -->
<g id="node2" class="node">
<title>Node8</title>
<g id="a_node2"><a xlink:href="classene_1_1views_1_1AbstractMasterView.html" target="_top" xlink:title="{ene::views::AbstractMaster\lView\&lt; JTabbedPane \&gt;\n||+ addView()\l+ setAllViews()\l+ getAllViews()\l}">
<polygon fill="none" stroke="#000000" points="275.5,-117.5 275.5,-207.5 412.5,-207.5 412.5,-117.5 275.5,-117.5"/>
<text text-anchor="start" x="283.5" y="-195.5" font-family="Helvetica,sans-Serif" font-size="10.00" fill="#000000">ene::views::AbstractMaster</text>
<text text-anchor="middle" x="344" y="-184.5" font-family="Helvetica,sans-Serif" font-size="10.00" fill="#000000">View&lt; JTabbedPane &gt;</text>
<polyline fill="none" stroke="#000000" points="275.5,-177.5 412.5,-177.5 "/>
<text text-anchor="middle" x="344" y="-165.5" font-family="Helvetica,sans-Serif" font-size="10.00" fill="#000000"> </text>
<polyline fill="none" stroke="#000000" points="275.5,-158.5 412.5,-158.5 "/>
<text text-anchor="start" x="283.5" y="-146.5" font-family="Helvetica,sans-Serif" font-size="10.00" fill="#000000">+ addView()</text>
<text text-anchor="start" x="283.5" y="-135.5" font-family="Helvetica,sans-Serif" font-size="10.00" fill="#000000">+ setAllViews()</text>
<text text-anchor="start" x="283.5" y="-124.5" font-family="Helvetica,sans-Serif" font-size="10.00" fill="#000000">+ getAllViews()</text>
</a>
</g>
</g>
<!-- Node8&#45;&gt;Node7 -->
<g id="edge1" class="edge">
<title>Node8&#45;&gt;Node7</title>
<path fill="none" stroke="#191970" d="M344,-107.0079C344,-97.8464 344,-88.5116 344,-79.8331"/>
<polygon fill="none" stroke="#191970" points="340.5001,-107.2335 344,-117.2336 347.5001,-107.2336 340.5001,-107.2335"/>
</g>
<!-- Node9 -->
<g id="node3" class="node">
<title>Node9</title>
<g id="a_node3"><a xlink:href="classene_1_1views_1_1AbstractView.html" target="_top" xlink:title="{ene::views::AbstractView\l\&lt; CoreComponentType \&gt;\n||+ setTitle()\l+ getTitle()\l+ setCoreComponent()\l+ getCoreComponent()\l+ setLayoutPosition()\l+ getLayoutPosition()\l}">
<polygon fill="none" stroke="#000000" points="280,-255.5 280,-378.5 408,-378.5 408,-255.5 280,-255.5"/>
<text text-anchor="start" x="288" y="-366.5" font-family="Helvetica,sans-Serif" font-size="10.00" fill="#000000">ene::views::AbstractView</text>
<text text-anchor="middle" x="344" y="-355.5" font-family="Helvetica,sans-Serif" font-size="10.00" fill="#000000">&lt; CoreComponentType &gt;</text>
<polyline fill="none" stroke="#000000" points="280,-348.5 408,-348.5 "/>
<text text-anchor="middle" x="344" y="-336.5" font-family="Helvetica,sans-Serif" font-size="10.00" fill="#000000"> </text>
<polyline fill="none" stroke="#000000" points="280,-329.5 408,-329.5 "/>
<text text-anchor="start" x="288" y="-317.5" font-family="Helvetica,sans-Serif" font-size="10.00" fill="#000000">+ setTitle()</text>
<text text-anchor="start" x="288" y="-306.5" font-family="Helvetica,sans-Serif" font-size="10.00" fill="#000000">+ getTitle()</text>
<text text-anchor="start" x="288" y="-295.5" font-family="Helvetica,sans-Serif" font-size="10.00" fill="#000000">+ setCoreComponent()</text>
<text text-anchor="start" x="288" y="-284.5" font-family="Helvetica,sans-Serif" font-size="10.00" fill="#000000">+ getCoreComponent()</text>
<text text-anchor="start" x="288" y="-273.5" font-family="Helvetica,sans-Serif" font-size="10.00" fill="#000000">+ setLayoutPosition()</text>
<text text-anchor="start" x="288" y="-262.5" font-family="Helvetica,sans-Serif" font-size="10.00" fill="#000000">+ getLayoutPosition()</text>
</a>
</g>
</g>
<!-- Node9&#45;&gt;Node8 -->
<g id="edge2" class="edge">
<title>Node9&#45;&gt;Node8</title>
<path fill="none" stroke="#191970" d="M344,-245.2776C344,-232.4506 344,-219.4193 344,-207.608"/>
<polygon fill="none" stroke="#191970" points="340.5001,-245.4935 344,-255.4936 347.5001,-245.4936 340.5001,-245.4935"/>
</g>
<!-- Node10 -->
<g id="node4" class="node">
<title>Node10</title>
<g id="a_node4"><a xlink:href="classene_1_1AbstractObject.html" target="_top" xlink:title="{ene.AbstractObject\n||+ enableDebugMode()\l+ disableDebugMode()\l+ isDebugModeEnabled()\l+ debugInfoAbout()\l+ consoleOutput()\l# delay()\l}">
<polygon fill="none" stroke="#000000" points="274.5,-448.5 274.5,-560.5 401.5,-560.5 401.5,-448.5 274.5,-448.5"/>
<text text-anchor="middle" x="338" y="-548.5" font-family="Helvetica,sans-Serif" font-size="10.00" fill="#000000">ene.AbstractObject</text>
<polyline fill="none" stroke="#000000" points="274.5,-541.5 401.5,-541.5 "/>
<text text-anchor="middle" x="338" y="-529.5" font-family="Helvetica,sans-Serif" font-size="10.00" fill="#000000"> </text>
<polyline fill="none" stroke="#000000" points="274.5,-522.5 401.5,-522.5 "/>
<text text-anchor="start" x="282.5" y="-510.5" font-family="Helvetica,sans-Serif" font-size="10.00" fill="#000000">+ enableDebugMode()</text>
<text text-anchor="start" x="282.5" y="-499.5" font-family="Helvetica,sans-Serif" font-size="10.00" fill="#000000">+ disableDebugMode()</text>
<text text-anchor="start" x="282.5" y="-488.5" font-family="Helvetica,sans-Serif" font-size="10.00" fill="#000000">+ isDebugModeEnabled()</text>
<text text-anchor="start" x="282.5" y="-477.5" font-family="Helvetica,sans-Serif" font-size="10.00" fill="#000000">+ debugInfoAbout()</text>
<text text-anchor="start" x="282.5" y="-466.5" font-family="Helvetica,sans-Serif" font-size="10.00" fill="#000000">+ consoleOutput()</text>
<text text-anchor="start" x="282.5" y="-455.5" font-family="Helvetica,sans-Serif" font-size="10.00" fill="#000000"># delay()</text>
</a>
</g>
</g>
<!-- Node10&#45;&gt;Node9 -->
<g id="edge3" class="edge">
<title>Node10&#45;&gt;Node9</title>
<path fill="none" stroke="#191970" d="M340.1122,-438.4946C340.7353,-419.0213 341.4146,-397.7928 342.0286,-378.6075"/>
<polygon fill="none" stroke="#191970" points="336.6138,-438.3909 339.7921,-448.4978 343.6102,-438.6149 336.6138,-438.3909"/>
</g>
<!-- Node11 -->
<g id="node5" class="node">
<title>Node11</title>
<polygon fill="none" stroke="#bfbfbf" points="299.5,-619.5 299.5,-676.5 376.5,-676.5 376.5,-619.5 299.5,-619.5"/>
<text text-anchor="middle" x="338" y="-664.5" font-family="Helvetica,sans-Serif" font-size="10.00" fill="#000000">static boolean</text>
<polyline fill="none" stroke="#bfbfbf" points="299.5,-657.5 376.5,-657.5 "/>
<text text-anchor="middle" x="338" y="-645.5" font-family="Helvetica,sans-Serif" font-size="10.00" fill="#000000"> </text>
<polyline fill="none" stroke="#bfbfbf" points="299.5,-638.5 376.5,-638.5 "/>
<text text-anchor="middle" x="338" y="-626.5" font-family="Helvetica,sans-Serif" font-size="10.00" fill="#000000"> </text>
</g>
<!-- Node11&#45;&gt;Node10 -->
<g id="edge4" class="edge">
<title>Node11&#45;&gt;Node10</title>
<path fill="none" stroke="#404040" d="M338,-619.3055C338,-605.9442 338,-589.4218 338,-573.1157"/>
<polygon fill="none" stroke="#404040" points="338.0001,-572.7445 334,-566.7445 338,-560.7445 342,-566.7444 338.0001,-572.7445"/>
<text text-anchor="middle" x="385" y="-593" font-family="Helvetica,sans-Serif" font-size="10.00" fill="#000000"> #debugModeEnabled</text>
</g>
<!-- Node12 -->
<g id="node6" class="node">
<title>Node12</title>
<g id="a_node6"><a xlink:href="interfaceene_1_1interfaces_1_1View.html" target="_top" xlink:title="{ene::interfaces::View\l\&lt; CoreComponentType \&gt;\n||+ setTitle()\l+ getTitle()\l+ setCoreComponent()\l+ getCoreComponent()\l+ setLayoutPosition()\l+ getLayoutPosition()\l+ render()\l}">
<polygon fill="none" stroke="#000000" points="128,-437.5 128,-571.5 256,-571.5 256,-437.5 128,-437.5"/>
<text text-anchor="start" x="136" y="-559.5" font-family="Helvetica,sans-Serif" font-size="10.00" fill="#000000">ene::interfaces::View</text>
<text text-anchor="middle" x="192" y="-548.5" font-family="Helvetica,sans-Serif" font-size="10.00" fill="#000000">&lt; CoreComponentType &gt;</text>
<polyline fill="none" stroke="#000000" points="128,-541.5 256,-541.5 "/>
<text text-anchor="middle" x="192" y="-529.5" font-family="Helvetica,sans-Serif" font-size="10.00" fill="#000000"> </text>
<polyline fill="none" stroke="#000000" points="128,-522.5 256,-522.5 "/>
<text text-anchor="start" x="136" y="-510.5" font-family="Helvetica,sans-Serif" font-size="10.00" fill="#000000">+ setTitle()</text>
<text text-anchor="start" x="136" y="-499.5" font-family="Helvetica,sans-Serif" font-size="10.00" fill="#000000">+ getTitle()</text>
<text text-anchor="start" x="136" y="-488.5" font-family="Helvetica,sans-Serif" font-size="10.00" fill="#000000">+ setCoreComponent()</text>
<text text-anchor="start" x="136" y="-477.5" font-family="Helvetica,sans-Serif" font-size="10.00" fill="#000000">+ getCoreComponent()</text>
<text text-anchor="start" x="136" y="-466.5" font-family="Helvetica,sans-Serif" font-size="10.00" fill="#000000">+ setLayoutPosition()</text>
<text text-anchor="start" x="136" y="-455.5" font-family="Helvetica,sans-Serif" font-size="10.00" fill="#000000">+ getLayoutPosition()</text>
<text text-anchor="start" x="136" y="-444.5" font-family="Helvetica,sans-Serif" font-size="10.00" fill="#000000">+ render()</text>
</a>
</g>
</g>
<!-- Node12&#45;&gt;Node9 -->
<g id="edge5" class="edge">
<title>Node12&#45;&gt;Node9</title>
<path fill="none" stroke="#191970" d="M253.0561,-429.184C266.6459,-412.4204 280.8993,-394.838 293.9844,-378.6968"/>
<polygon fill="none" stroke="#191970" points="250.0247,-427.3656 246.4462,-437.3378 255.4624,-431.7738 250.0247,-427.3656"/>
</g>
<!-- Node17 -->
<g id="node11" class="node">
<title>Node17</title>
<g id="a_node11"><a xlink:href="interfaceene_1_1interfaces_1_1MasterView.html" target="_top" xlink:title="{ene::interfaces::MasterView\l\&lt; CoreComponentType \&gt;\n||+ addView()\l+ setAllViews()\l+ getAllViews()\l}">
<polygon fill="none" stroke="#000000" points="122.5,-272 122.5,-362 261.5,-362 261.5,-272 122.5,-272"/>
<text text-anchor="start" x="130.5" y="-350" font-family="Helvetica,sans-Serif" font-size="10.00" fill="#000000">ene::interfaces::MasterView</text>
<text text-anchor="middle" x="192" y="-339" font-family="Helvetica,sans-Serif" font-size="10.00" fill="#000000">&lt; CoreComponentType &gt;</text>
<polyline fill="none" stroke="#000000" points="122.5,-332 261.5,-332 "/>
<text text-anchor="middle" x="192" y="-320" font-family="Helvetica,sans-Serif" font-size="10.00" fill="#000000"> </text>
<polyline fill="none" stroke="#000000" points="122.5,-313 261.5,-313 "/>
<text text-anchor="start" x="130.5" y="-301" font-family="Helvetica,sans-Serif" font-size="10.00" fill="#000000">+ addView()</text>
<text text-anchor="start" x="130.5" y="-290" font-family="Helvetica,sans-Serif" font-size="10.00" fill="#000000">+ setAllViews()</text>
<text text-anchor="start" x="130.5" y="-279" font-family="Helvetica,sans-Serif" font-size="10.00" fill="#000000">+ getAllViews()</text>
</a>
</g>
</g>
<!-- Node12&#45;&gt;Node17 -->
<g id="edge11" class="edge">
<title>Node12&#45;&gt;Node17</title>
<path fill="none" stroke="#191970" d="M192,-427.2463C192,-405.0466 192,-381.5727 192,-362.0171"/>
<polygon fill="none" stroke="#191970" points="188.5001,-427.3378 192,-437.3378 195.5001,-427.3378 188.5001,-427.3378"/>
</g>
<!-- Node13 -->
<g id="node7" class="node">
<title>Node13</title>
<g id="a_node7"><a xlink:href="interfaceene_1_1interfaces_1_1Localization.html" target="_top" xlink:title="{ene.interfaces.Localization\n||+ getString()\l}">
<polygon fill="none" stroke="#000000" points="419.5,-476 419.5,-533 552.5,-533 552.5,-476 419.5,-476"/>
<text text-anchor="middle" x="486" y="-521" font-family="Helvetica,sans-Serif" font-size="10.00" fill="#000000">ene.interfaces.Localization</text>
<polyline fill="none" stroke="#000000" points="419.5,-514 552.5,-514 "/>
<text text-anchor="middle" x="486" y="-502" font-family="Helvetica,sans-Serif" font-size="10.00" fill="#000000"> </text>
<polyline fill="none" stroke="#000000" points="419.5,-495 552.5,-495 "/>
<text text-anchor="start" x="427.5" y="-483" font-family="Helvetica,sans-Serif" font-size="10.00" fill="#000000">+ getString()</text>
</a>
</g>
</g>
<!-- Node13&#45;&gt;Node9 -->
<g id="edge6" class="edge">
<title>Node13&#45;&gt;Node9</title>
<path fill="none" stroke="#191970" d="M457.888,-467.3803C438.7015,-442.046 412.8325,-407.888 390.5983,-378.5294"/>
<polygon fill="none" stroke="#191970" points="455.2962,-469.7553 464.1237,-475.614 460.8765,-465.5291 455.2962,-469.7553"/>
</g>
<!-- Node14 -->
<g id="node8" class="node">
<title>Node14</title>
<polygon fill="none" stroke="#bfbfbf" points="441,-619.5 441,-676.5 531,-676.5 531,-619.5 441,-619.5"/>
<text text-anchor="middle" x="486" y="-664.5" font-family="Helvetica,sans-Serif" font-size="10.00" fill="#000000">static final String</text>
<polyline fill="none" stroke="#bfbfbf" points="441,-657.5 531,-657.5 "/>
<text text-anchor="middle" x="486" y="-645.5" font-family="Helvetica,sans-Serif" font-size="10.00" fill="#000000"> </text>
<polyline fill="none" stroke="#bfbfbf" points="441,-638.5 531,-638.5 "/>
<text text-anchor="middle" x="486" y="-626.5" font-family="Helvetica,sans-Serif" font-size="10.00" fill="#000000"> </text>
</g>
<!-- Node14&#45;&gt;Node13 -->
<g id="edge7" class="edge">
<title>Node14&#45;&gt;Node13</title>
<path fill="none" stroke="#404040" d="M486,-619.3055C486,-598.0904 486,-568.9058 486,-545.2714"/>
<polygon fill="none" stroke="#404040" points="486.0001,-545.1447 482,-539.1448 486,-533.1447 490,-539.1447 486.0001,-545.1447"/>
<text text-anchor="middle" x="536" y="-593" font-family="Helvetica,sans-Serif" font-size="10.00" fill="#000000"> +DEFAULT_LOCALE</text>
</g>
<!-- Node15 -->
<g id="node9" class="node">
<title>Node15</title>
<polygon fill="none" stroke="#bfbfbf" points="571,-476 571,-533 613,-533 613,-476 571,-476"/>
<text text-anchor="middle" x="592" y="-521" font-family="Helvetica,sans-Serif" font-size="10.00" fill="#000000">String</text>
<polyline fill="none" stroke="#bfbfbf" points="571,-514 613,-514 "/>
<text text-anchor="middle" x="592" y="-502" font-family="Helvetica,sans-Serif" font-size="10.00" fill="#000000"> </text>
<polyline fill="none" stroke="#bfbfbf" points="571,-495 613,-495 "/>
<text text-anchor="middle" x="592" y="-483" font-family="Helvetica,sans-Serif" font-size="10.00" fill="#000000"> </text>
</g>
<!-- Node15&#45;&gt;Node9 -->
<g id="edge8" class="edge">
<title>Node15&#45;&gt;Node9</title>
<path fill="none" stroke="#404040" d="M583.4564,-475.8555C578.4945,-462.8518 571.1756,-447.9646 561,-437 522.0423,-395.0215 464.975,-364.2668 419.1397,-344.4068"/>
<polygon fill="none" stroke="#404040" points="419.1,-344.39 412.0158,-345.7373 408.0475,-339.7162 415.1317,-338.369 419.1,-344.39"/>
<text text-anchor="middle" x="577" y="-411" font-family="Helvetica,sans-Serif" font-size="10.00" fill="#000000"> #layoutPosition</text>
<text text-anchor="middle" x="577" y="-400" font-family="Helvetica,sans-Serif" font-size="10.00" fill="#000000">#title</text>
</g>
<!-- Node16 -->
<g id="node10" class="node">
<title>Node16</title>
<polygon fill="none" stroke="#bfbfbf" points="0,-476 0,-533 110,-533 110,-476 0,-476"/>
<text text-anchor="middle" x="55" y="-521" font-family="Helvetica,sans-Serif" font-size="10.00" fill="#000000">CoreComponentType</text>
<polyline fill="none" stroke="#bfbfbf" points="0,-514 110,-514 "/>
<text text-anchor="middle" x="55" y="-502" font-family="Helvetica,sans-Serif" font-size="10.00" fill="#000000"> </text>
<polyline fill="none" stroke="#bfbfbf" points="0,-495 110,-495 "/>
<text text-anchor="middle" x="55" y="-483" font-family="Helvetica,sans-Serif" font-size="10.00" fill="#000000"> </text>
</g>
<!-- Node16&#45;&gt;Node9 -->
<g id="edge9" class="edge">
<title>Node16&#45;&gt;Node9</title>
<path fill="none" stroke="#404040" d="M79.4125,-475.7027C90.7923,-463.1105 104.9128,-448.5995 119,-437 144.6041,-415.9173 151.2451,-409.4172 182,-397 215.8364,-383.3387 231.3006,-394.108 268.7044,-378.7539"/>
<polygon fill="none" stroke="#404040" points="268.9416,-378.6464 272.7529,-372.5248 279.8695,-373.6885 276.0582,-379.8101 268.9416,-378.6464"/>
<text text-anchor="middle" x="221" y="-405.5" font-family="Helvetica,sans-Serif" font-size="10.00" fill="#000000"> #coreComponent</text>
</g>
<!-- Node17&#45;&gt;Node8 -->
<g id="edge10" class="edge">
<title>Node17&#45;&gt;Node8</title>
<path fill="none" stroke="#191970" d="M243.4999,-264.653C261.7029,-246.1507 282.0056,-225.5141 299.5716,-207.6592"/>
<polygon fill="none" stroke="#191970" points="240.8915,-262.3137 236.3733,-271.8969 245.8815,-267.223 240.8915,-262.3137"/>
</g>
<!-- Node18 -->
<g id="node12" class="node">
<title>Node18</title>
<polygon fill="none" stroke="#bfbfbf" points="502.5,-288.5 502.5,-345.5 639.5,-345.5 639.5,-288.5 502.5,-288.5"/>
<text text-anchor="middle" x="571" y="-333.5" font-family="Helvetica,sans-Serif" font-size="10.00" fill="#000000">List&lt; ene.interfaces.View &gt;</text>
<polyline fill="none" stroke="#bfbfbf" points="502.5,-326.5 639.5,-326.5 "/>
<text text-anchor="middle" x="571" y="-314.5" font-family="Helvetica,sans-Serif" font-size="10.00" fill="#000000"> </text>
<polyline fill="none" stroke="#bfbfbf" points="502.5,-307.5 639.5,-307.5 "/>
<text text-anchor="middle" x="571" y="-295.5" font-family="Helvetica,sans-Serif" font-size="10.00" fill="#000000"> </text>
</g>
<!-- Node18&#45;&gt;Node8 -->
<g id="edge12" class="edge">
<title>Node18&#45;&gt;Node8</title>
<path fill="none" stroke="#404040" d="M529.1002,-288.4823C498.6549,-267.7607 456.5924,-239.1323 420.2571,-214.4019"/>
<polygon fill="none" stroke="#404040" points="420.0953,-214.2917 412.8845,-214.2225 410.175,-207.5398 417.3858,-207.609 420.0953,-214.2917"/>
<text text-anchor="middle" x="468" y="-229" font-family="Helvetica,sans-Serif" font-size="10.00" fill="#000000"> #views</text>
</g>
<!-- Node19 -->
<g id="node13" class="node">
<title>Node19</title>
<polygon fill="none" stroke="#bfbfbf" points="650,-476 650,-533 682,-533 682,-476 650,-476"/>
<text text-anchor="middle" x="666" y="-521" font-family="Helvetica,sans-Serif" font-size="10.00" fill="#000000">List</text>
<polyline fill="none" stroke="#bfbfbf" points="650,-514 682,-514 "/>
<text text-anchor="middle" x="666" y="-502" font-family="Helvetica,sans-Serif" font-size="10.00" fill="#000000"> </text>
<polyline fill="none" stroke="#bfbfbf" points="650,-495 682,-495 "/>
<text text-anchor="middle" x="666" y="-483" font-family="Helvetica,sans-Serif" font-size="10.00" fill="#000000"> </text>
</g>
<!-- Node19&#45;&gt;Node18 -->
<g id="edge13" class="edge">
<title>Node19&#45;&gt;Node18</title>
<path fill="none" stroke="#ffa500" d="M663.1294,-465.7702C660.3402,-444.5456 654.8412,-418.3017 644,-397 634.1926,-377.7296 618.4653,-359.6287 604.1159,-345.5352"/>
<polygon fill="#ffa500" stroke="#ffa500" points="659.6576,-466.2156 664.2925,-475.7428 666.6104,-465.4046 659.6576,-466.2156"/>
<text text-anchor="start" x="653" y="-411" font-family="Helvetica,sans-Serif" font-size="10.00" fill="#000000"> &lt; ene::interfaces::</text>
<text text-anchor="middle" x="694.5" y="-400" font-family="Helvetica,sans-Serif" font-size="10.00" fill="#000000">View &gt;</text>
</g>
</g>
</svg>
