<?xml version="1.0" encoding="UTF-8" standalone="no"?>
<!DOCTYPE svg PUBLIC "-//W3C//DTD SVG 1.1//EN"
 "http://www.w3.org/Graphics/SVG/1.1/DTD/svg11.dtd">
<!-- Generated by graphviz version 2.40.1 (20161225.0304)
 -->
<!-- Title: ene.views.gui.partial.LibraryView.loadContent Pages: 1 -->
<svg width="336pt" height="235pt"
 viewBox="0.00 0.00 336.00 235.00" xmlns="http://www.w3.org/2000/svg" xmlns:xlink="http://www.w3.org/1999/xlink">
<g id="graph0" class="graph" transform="scale(1 1) rotate(0) translate(4 231)">
<title>ene.views.gui.partial.LibraryView.loadContent</title>
<!-- Node60 -->
<g id="node1" class="node">
<title>Node60</title>
<polygon fill="#bfbfbf" stroke="#000000" points="0,-98.5 0,-128.5 138,-128.5 138,-98.5 0,-98.5"/>
<text text-anchor="start" x="8" y="-116.5" font-family="Helvetica,sans-Serif" font-size="10.00" fill="#000000">ene.views.gui.partial.Library</text>
<text text-anchor="middle" x="69" y="-105.5" font-family="Helvetica,sans-Serif" font-size="10.00" fill="#000000">View.loadContent</text>
</g>
<!-- Node61 -->
<g id="node2" class="node">
<title>Node61</title>
<g id="a_node2"><a xlink:href="classene_1_1models_1_1TrackModel.html#a04afba3cc5098c28ebd394fb7ac920ba" target="_top" xlink:title="ene.models.TrackModel.get\lArtist">
<polygon fill="none" stroke="#000000" points="182.5,-196.5 182.5,-226.5 319.5,-226.5 319.5,-196.5 182.5,-196.5"/>
<text text-anchor="start" x="190.5" y="-214.5" font-family="Helvetica,sans-Serif" font-size="10.00" fill="#000000">ene.models.TrackModel.get</text>
<text text-anchor="middle" x="251" y="-203.5" font-family="Helvetica,sans-Serif" font-size="10.00" fill="#000000">Artist</text>
</a>
</g>
</g>
<!-- Node60&#45;&gt;Node61 -->
<g id="edge1" class="edge">
<title>Node60&#45;&gt;Node61</title>
<path fill="none" stroke="#191970" d="M86.8592,-128.7359C106.9167,-145.1911 140.9955,-171.2289 174,-187.5 177.8148,-189.3807 181.8084,-191.153 185.8846,-192.8161"/>
<polygon fill="#191970" stroke="#191970" points="184.9101,-196.1907 195.5005,-196.4982 187.4134,-189.6536 184.9101,-196.1907"/>
</g>
<!-- Node62 -->
<g id="node3" class="node">
<title>Node62</title>
<g id="a_node3"><a xlink:href="classene_1_1models_1_1TrackModel.html#aab88fe151b093dba71ad9f9ab5c6959d" target="_top" xlink:title="ene.models.TrackModel.get\lFilename">
<polygon fill="none" stroke="#000000" points="182.5,-147.5 182.5,-177.5 319.5,-177.5 319.5,-147.5 182.5,-147.5"/>
<text text-anchor="start" x="190.5" y="-165.5" font-family="Helvetica,sans-Serif" font-size="10.00" fill="#000000">ene.models.TrackModel.get</text>
<text text-anchor="middle" x="251" y="-154.5" font-family="Helvetica,sans-Serif" font-size="10.00" fill="#000000">Filename</text>
</a>
</g>
</g>
<!-- Node60&#45;&gt;Node62 -->
<g id="edge2" class="edge">
<title>Node60&#45;&gt;Node62</title>
<path fill="none" stroke="#191970" d="M125.0911,-128.6014C144.1225,-133.7253 165.555,-139.4956 185.2691,-144.8032"/>
<polygon fill="#191970" stroke="#191970" points="184.5281,-148.2283 195.0941,-147.4484 186.3479,-141.469 184.5281,-148.2283"/>
</g>
<!-- Node63 -->
<g id="node4" class="node">
<title>Node63</title>
<g id="a_node4"><a xlink:href="classene_1_1models_1_1TrackModel.html#a2c57f7fe3f410c0e914af9a79de57346" target="_top" xlink:title="ene.models.TrackModel.get\lGenre">
<polygon fill="none" stroke="#000000" points="182.5,-98.5 182.5,-128.5 319.5,-128.5 319.5,-98.5 182.5,-98.5"/>
<text text-anchor="start" x="190.5" y="-116.5" font-family="Helvetica,sans-Serif" font-size="10.00" fill="#000000">ene.models.TrackModel.get</text>
<text text-anchor="middle" x="251" y="-105.5" font-family="Helvetica,sans-Serif" font-size="10.00" fill="#000000">Genre</text>
</a>
</g>
</g>
<!-- Node60&#45;&gt;Node63 -->
<g id="edge3" class="edge">
<title>Node60&#45;&gt;Node63</title>
<path fill="none" stroke="#191970" d="M138.0659,-113.5C149.1526,-113.5 160.7011,-113.5 171.9986,-113.5"/>
<polygon fill="#191970" stroke="#191970" points="172.2828,-117.0001 182.2828,-113.5 172.2827,-110.0001 172.2828,-117.0001"/>
</g>
<!-- Node64 -->
<g id="node5" class="node">
<title>Node64</title>
<g id="a_node5"><a xlink:href="classene_1_1views_1_1gui_1_1partial_1_1AbstractTrackListView.html#a709dd0b919d5e537076fe18ad992f25f" target="_top" xlink:title="ene.views.gui.partial.Abstract\lTrackListView.getTableContent">
<polygon fill="none" stroke="#000000" points="174,-49.5 174,-79.5 328,-79.5 328,-49.5 174,-49.5"/>
<text text-anchor="start" x="182" y="-67.5" font-family="Helvetica,sans-Serif" font-size="10.00" fill="#000000">ene.views.gui.partial.Abstract</text>
<text text-anchor="middle" x="251" y="-56.5" font-family="Helvetica,sans-Serif" font-size="10.00" fill="#000000">TrackListView.getTableContent</text>
</a>
</g>
</g>
<!-- Node60&#45;&gt;Node64 -->
<g id="edge4" class="edge">
<title>Node60&#45;&gt;Node64</title>
<path fill="none" stroke="#191970" d="M125.0911,-98.3986C144.1225,-93.2747 165.555,-87.5044 185.2691,-82.1968"/>
<polygon fill="#191970" stroke="#191970" points="186.3479,-85.531 195.0941,-79.5516 184.5281,-78.7717 186.3479,-85.531"/>
</g>
<!-- Node65 -->
<g id="node6" class="node">
<title>Node65</title>
<g id="a_node6"><a xlink:href="classene_1_1models_1_1TrackModel.html#a5bac0e2b6c87c93eef2802d9d10bf3c1" target="_top" xlink:title="ene.models.TrackModel.get\lTitle">
<polygon fill="none" stroke="#000000" points="182.5,-.5 182.5,-30.5 319.5,-30.5 319.5,-.5 182.5,-.5"/>
<text text-anchor="start" x="190.5" y="-18.5" font-family="Helvetica,sans-Serif" font-size="10.00" fill="#000000">ene.models.TrackModel.get</text>
<text text-anchor="middle" x="251" y="-7.5" font-family="Helvetica,sans-Serif" font-size="10.00" fill="#000000">Title</text>
</a>
</g>
</g>
<!-- Node60&#45;&gt;Node65 -->
<g id="edge5" class="edge">
<title>Node60&#45;&gt;Node65</title>
<path fill="none" stroke="#191970" d="M87.2991,-98.2647C107.4664,-82.0947 141.3856,-56.6885 174,-40.5 178.5263,-38.2533 183.3,-36.1446 188.1623,-34.1794"/>
<polygon fill="#191970" stroke="#191970" points="189.4896,-37.4191 197.5803,-30.5786 186.9897,-30.8807 189.4896,-37.4191"/>
</g>
</g>
</svg>
