<?xml version="1.0" encoding="UTF-8" standalone="no"?>
<!DOCTYPE svg PUBLIC "-//W3C//DTD SVG 1.1//EN"
 "http://www.w3.org/Graphics/SVG/1.1/DTD/svg11.dtd">
<!-- Generated by graphviz version 2.40.1 (20161225.0304)
 -->
<!-- Title: ene.models.TrackListModel.remove Pages: 1 -->
<svg width="588pt" height="28pt"
 viewBox="0.00 0.00 588.00 28.00" xmlns="http://www.w3.org/2000/svg" xmlns:xlink="http://www.w3.org/1999/xlink">
<g id="graph0" class="graph" transform="scale(1 1) rotate(0) translate(4 24)">
<title>ene.models.TrackListModel.remove</title>
<!-- Node25 -->
<g id="node1" class="node">
<title>Node25</title>
<polygon fill="#bfbfbf" stroke="#000000" points="0,-.5 0,-19.5 172,-19.5 172,-.5 0,-.5"/>
<text text-anchor="middle" x="86" y="-7.5" font-family="Helvetica,sans-Serif" font-size="10.00" fill="#000000">ene.models.TrackListModel.remove</text>
</g>
<!-- Node26 -->
<g id="node2" class="node">
<title>Node26</title>
<g id="a_node2"><a xlink:href="classene_1_1models_1_1AbstractModel.html#a970306ac2228cbcb599f65476d8c80dd" target="_top" xlink:title="ene.models.AbstractModel.changed">
<polygon fill="none" stroke="#000000" points="208,-.5 208,-19.5 381,-19.5 381,-.5 208,-.5"/>
<text text-anchor="middle" x="294.5" y="-7.5" font-family="Helvetica,sans-Serif" font-size="10.00" fill="#000000">ene.models.AbstractModel.changed</text>
</a>
</g>
</g>
<!-- Node25&#45;&gt;Node26 -->
<g id="edge1" class="edge">
<title>Node25&#45;&gt;Node26</title>
<path fill="none" stroke="#191970" d="M172.0087,-10C180.4744,-10 189.1058,-10 197.67,-10"/>
<polygon fill="#191970" stroke="#191970" points="197.6789,-13.5001 207.6789,-10 197.6789,-6.5001 197.6789,-13.5001"/>
</g>
<!-- Node27 -->
<g id="node3" class="node">
<title>Node27</title>
<g id="a_node3"><a xlink:href="interfaceene_1_1interfaces_1_1PartialView.html#aae781d286eda4cbf8c57fdb877dde265" target="_top" xlink:title="ene.interfaces.PartialView.update">
<polygon fill="none" stroke="#000000" points="417,-.5 417,-19.5 580,-19.5 580,-.5 417,-.5"/>
<text text-anchor="middle" x="498.5" y="-7.5" font-family="Helvetica,sans-Serif" font-size="10.00" fill="#000000">ene.interfaces.PartialView.update</text>
</a>
</g>
</g>
<!-- Node26&#45;&gt;Node27 -->
<g id="edge2" class="edge">
<title>Node26&#45;&gt;Node27</title>
<path fill="none" stroke="#191970" d="M381.0144,-10C389.4296,-10 397.9887,-10 406.4555,-10"/>
<polygon fill="#191970" stroke="#191970" points="406.7215,-13.5001 416.7215,-10 406.7214,-6.5001 406.7215,-13.5001"/>
</g>
</g>
</svg>
