<?xml version="1.0" encoding="UTF-8" standalone="no"?>
<!DOCTYPE svg PUBLIC "-//W3C//DTD SVG 1.1//EN"
 "http://www.w3.org/Graphics/SVG/1.1/DTD/svg11.dtd">
<!-- Generated by graphviz version 2.40.1 (20161225.0304)
 -->
<!-- Title: ene.models.PlayerModel.getTrackPosition Pages: 1 -->
<svg width="342pt" height="66pt"
 viewBox="0.00 0.00 342.00 66.00" xmlns="http://www.w3.org/2000/svg" xmlns:xlink="http://www.w3.org/1999/xlink">
<g id="graph0" class="graph" transform="scale(1 1) rotate(0) translate(4 62)">
<title>ene.models.PlayerModel.getTrackPosition</title>
<!-- Node31 -->
<g id="node1" class="node">
<title>Node31</title>
<polygon fill="#bfbfbf" stroke="#000000" points="0,-14 0,-44 140,-44 140,-14 0,-14"/>
<text text-anchor="start" x="8" y="-32" font-family="Helvetica,sans-Serif" font-size="10.00" fill="#000000">ene.models.PlayerModel.get</text>
<text text-anchor="middle" x="70" y="-21" font-family="Helvetica,sans-Serif" font-size="10.00" fill="#000000">TrackPosition</text>
</g>
<!-- Node32 -->
<g id="node2" class="node">
<title>Node32</title>
<g id="a_node2"><a xlink:href="classene_1_1AbstractObject.html#a600f6bedef1dc48e610cdfa5f81b7667" target="_top" xlink:title="ene.AbstractObject.delay">
<polygon fill="none" stroke="#000000" points="191.5,-38.5 191.5,-57.5 318.5,-57.5 318.5,-38.5 191.5,-38.5"/>
<text text-anchor="middle" x="255" y="-45.5" font-family="Helvetica,sans-Serif" font-size="10.00" fill="#000000">ene.AbstractObject.delay</text>
</a>
</g>
</g>
<!-- Node31&#45;&gt;Node32 -->
<g id="edge1" class="edge">
<title>Node31&#45;&gt;Node32</title>
<path fill="none" stroke="#191970" d="M140.2044,-36.2102C153.5628,-37.5821 167.581,-39.0218 181.0518,-40.4053"/>
<polygon fill="#191970" stroke="#191970" points="180.921,-43.9102 191.2263,-41.4503 181.6362,-36.9468 180.921,-43.9102"/>
</g>
<!-- Node33 -->
<g id="node3" class="node">
<title>Node33</title>
<g id="a_node3"><a xlink:href="classene_1_1models_1_1PlayerModel.html#aa03431aa1bae96eacf2019c56fd18f45" target="_top" xlink:title="ene.models.PlayerModel.getClip">
<polygon fill="none" stroke="#000000" points="176,-.5 176,-19.5 334,-19.5 334,-.5 176,-.5"/>
<text text-anchor="middle" x="255" y="-7.5" font-family="Helvetica,sans-Serif" font-size="10.00" fill="#000000">ene.models.PlayerModel.getClip</text>
</a>
</g>
</g>
<!-- Node31&#45;&gt;Node33 -->
<g id="edge2" class="edge">
<title>Node31&#45;&gt;Node33</title>
<path fill="none" stroke="#191970" d="M140.2044,-21.7898C148.5798,-20.9296 157.2145,-20.0428 165.811,-19.1599"/>
<polygon fill="#191970" stroke="#191970" points="166.2772,-22.6306 175.8673,-18.1271 165.562,-15.6672 166.2772,-22.6306"/>
</g>
</g>
</svg>
