<?xml version="1.0" encoding="UTF-8" standalone="no"?>
<!DOCTYPE svg PUBLIC "-//W3C//DTD SVG 1.1//EN"
 "http://www.w3.org/Graphics/SVG/1.1/DTD/svg11.dtd">
<!-- Generated by graphviz version 2.40.1 (20161225.0304)
 -->
<!-- Title: ene.models.PlayerModel.load Pages: 1 -->
<svg width="523pt" height="239pt"
 viewBox="0.00 0.00 523.00 239.00" xmlns="http://www.w3.org/2000/svg" xmlns:xlink="http://www.w3.org/1999/xlink">
<g id="graph0" class="graph" transform="scale(1 1) rotate(0) translate(4 235)">
<title>ene.models.PlayerModel.load</title>
<!-- Node37 -->
<g id="node1" class="node">
<title>Node37</title>
<polygon fill="#bfbfbf" stroke="#000000" points="0,-94 0,-113 145,-113 145,-94 0,-94"/>
<text text-anchor="middle" x="72.5" y="-101" font-family="Helvetica,sans-Serif" font-size="10.00" fill="#000000">ene.models.PlayerModel.load</text>
</g>
<!-- Node38 -->
<g id="node2" class="node">
<title>Node38</title>
<g id="a_node2"><a xlink:href="classene_1_1AbstractObject.html#aff9619cf289ec83735b6c6ca2c12e020" target="_top" xlink:title="ene.AbstractObject.debug\lInfoAbout">
<polygon fill="none" stroke="#000000" points="195,-176.5 195,-206.5 325,-206.5 325,-176.5 195,-176.5"/>
<text text-anchor="start" x="203" y="-194.5" font-family="Helvetica,sans-Serif" font-size="10.00" fill="#000000">ene.AbstractObject.debug</text>
<text text-anchor="middle" x="260" y="-183.5" font-family="Helvetica,sans-Serif" font-size="10.00" fill="#000000">InfoAbout</text>
</a>
</g>
</g>
<!-- Node37&#45;&gt;Node38 -->
<g id="edge1" class="edge">
<title>Node37&#45;&gt;Node38</title>
<path fill="none" stroke="#191970" d="M86.7037,-113.1155C106.9357,-126.4885 145.5392,-150.8223 181,-166.5 186.0984,-168.7541 191.4634,-170.8985 196.8974,-172.915"/>
<polygon fill="#191970" stroke="#191970" points="196.1159,-176.3516 206.7106,-176.4023 198.4599,-169.7557 196.1159,-176.3516"/>
</g>
<!-- Node41 -->
<g id="node5" class="node">
<title>Node41</title>
<g id="a_node5"><a xlink:href="classene_1_1models_1_1PlayerModel.html#aa03431aa1bae96eacf2019c56fd18f45" target="_top" xlink:title="ene.models.PlayerModel.getClip">
<polygon fill="none" stroke="#000000" points="181,-138 181,-157 339,-157 339,-138 181,-138"/>
<text text-anchor="middle" x="260" y="-145" font-family="Helvetica,sans-Serif" font-size="10.00" fill="#000000">ene.models.PlayerModel.getClip</text>
</a>
</g>
</g>
<!-- Node37&#45;&gt;Node41 -->
<g id="edge4" class="edge">
<title>Node37&#45;&gt;Node41</title>
<path fill="none" stroke="#191970" d="M113.1847,-113.0473C141.4406,-119.6781 179.2858,-128.5591 209.475,-135.6435"/>
<polygon fill="#191970" stroke="#191970" points="208.8595,-139.094 219.3947,-137.9713 210.4588,-132.2792 208.8595,-139.094"/>
</g>
<!-- Node42 -->
<g id="node6" class="node">
<title>Node42</title>
<g id="a_node6"><a xlink:href="classene_1_1models_1_1TrackModel.html#aab88fe151b093dba71ad9f9ab5c6959d" target="_top" xlink:title="ene.models.TrackModel.get\lFilename">
<polygon fill="none" stroke="#000000" points="191.5,-88.5 191.5,-118.5 328.5,-118.5 328.5,-88.5 191.5,-88.5"/>
<text text-anchor="start" x="199.5" y="-106.5" font-family="Helvetica,sans-Serif" font-size="10.00" fill="#000000">ene.models.TrackModel.get</text>
<text text-anchor="middle" x="260" y="-95.5" font-family="Helvetica,sans-Serif" font-size="10.00" fill="#000000">Filename</text>
</a>
</g>
</g>
<!-- Node37&#45;&gt;Node42 -->
<g id="edge5" class="edge">
<title>Node37&#45;&gt;Node42</title>
<path fill="none" stroke="#191970" d="M145.2608,-103.5C156.9645,-103.5 169.1282,-103.5 180.9706,-103.5"/>
<polygon fill="#191970" stroke="#191970" points="181.2752,-107.0001 191.2752,-103.5 181.2751,-100.0001 181.2752,-107.0001"/>
</g>
<!-- Node43 -->
<g id="node7" class="node">
<title>Node43</title>
<g id="a_node7"><a xlink:href="classene_1_1models_1_1PlayerModel.html#a5617391131179365729686dc4eea1ea1" target="_top" xlink:title="ene.models.PlayerModel.setClip">
<polygon fill="none" stroke="#000000" points="181,-50 181,-69 339,-69 339,-50 181,-50"/>
<text text-anchor="middle" x="260" y="-57" font-family="Helvetica,sans-Serif" font-size="10.00" fill="#000000">ene.models.PlayerModel.setClip</text>
</a>
</g>
</g>
<!-- Node37&#45;&gt;Node43 -->
<g id="edge6" class="edge">
<title>Node37&#45;&gt;Node43</title>
<path fill="none" stroke="#191970" d="M113.1847,-93.9527C141.4406,-87.3219 179.2858,-78.4409 209.475,-71.3565"/>
<polygon fill="#191970" stroke="#191970" points="210.4588,-74.7208 219.3947,-69.0287 208.8595,-67.906 210.4588,-74.7208"/>
</g>
<!-- Node44 -->
<g id="node8" class="node">
<title>Node44</title>
<g id="a_node8"><a xlink:href="classene_1_1models_1_1PlayerModel.html#a921a00136726aee3bcababbd6c9b2e3e" target="_top" xlink:title="ene.models.PlayerModel.set\lCurrentTrack">
<polygon fill="none" stroke="#000000" points="190,-.5 190,-30.5 330,-30.5 330,-.5 190,-.5"/>
<text text-anchor="start" x="198" y="-18.5" font-family="Helvetica,sans-Serif" font-size="10.00" fill="#000000">ene.models.PlayerModel.set</text>
<text text-anchor="middle" x="260" y="-7.5" font-family="Helvetica,sans-Serif" font-size="10.00" fill="#000000">CurrentTrack</text>
</a>
</g>
</g>
<!-- Node37&#45;&gt;Node44 -->
<g id="edge7" class="edge">
<title>Node37&#45;&gt;Node44</title>
<path fill="none" stroke="#191970" d="M86.7037,-93.8845C106.9357,-80.5115 145.5392,-56.1777 181,-40.5 186.0984,-38.2459 191.4634,-36.1015 196.8974,-34.085"/>
<polygon fill="#191970" stroke="#191970" points="198.4599,-37.2443 206.7106,-30.5977 196.1159,-30.6484 198.4599,-37.2443"/>
</g>
<!-- Node39 -->
<g id="node3" class="node">
<title>Node39</title>
<g id="a_node3"><a xlink:href="classene_1_1AbstractObject.html#a9ce30d3321c7ce794df2f07bdaf3e47c" target="_top" xlink:title="ene.AbstractObject.console\lOutput">
<polygon fill="none" stroke="#000000" points="376.5,-200.5 376.5,-230.5 513.5,-230.5 513.5,-200.5 376.5,-200.5"/>
<text text-anchor="start" x="384.5" y="-218.5" font-family="Helvetica,sans-Serif" font-size="10.00" fill="#000000">ene.AbstractObject.console</text>
<text text-anchor="middle" x="445" y="-207.5" font-family="Helvetica,sans-Serif" font-size="10.00" fill="#000000">Output</text>
</a>
</g>
</g>
<!-- Node38&#45;&gt;Node39 -->
<g id="edge2" class="edge">
<title>Node38&#45;&gt;Node39</title>
<path fill="none" stroke="#191970" d="M325.2241,-199.9615C338.4048,-201.6714 352.397,-203.4866 365.9919,-205.2503"/>
<polygon fill="#191970" stroke="#191970" points="365.9233,-208.7707 376.2905,-206.5863 366.8239,-201.8288 365.9233,-208.7707"/>
</g>
<!-- Node40 -->
<g id="node4" class="node">
<title>Node40</title>
<g id="a_node4"><a xlink:href="classene_1_1AbstractObject.html#a6ee0b669069e0c3ee320a6cf41af24fe" target="_top" xlink:title="ene.AbstractObject.isDebug\lModeEnabled">
<polygon fill="none" stroke="#000000" points="375,-151.5 375,-181.5 515,-181.5 515,-151.5 375,-151.5"/>
<text text-anchor="start" x="383" y="-169.5" font-family="Helvetica,sans-Serif" font-size="10.00" fill="#000000">ene.AbstractObject.isDebug</text>
<text text-anchor="middle" x="445" y="-158.5" font-family="Helvetica,sans-Serif" font-size="10.00" fill="#000000">ModeEnabled</text>
</a>
</g>
</g>
<!-- Node38&#45;&gt;Node40 -->
<g id="edge3" class="edge">
<title>Node38&#45;&gt;Node40</title>
<path fill="none" stroke="#191970" d="M325.2241,-182.6859C337.9903,-180.9608 351.5178,-179.1327 364.7082,-177.3502"/>
<polygon fill="#191970" stroke="#191970" points="365.2699,-180.8062 374.7111,-175.9985 364.3324,-173.8693 365.2699,-180.8062"/>
</g>
</g>
</svg>
