<?xml version="1.0" encoding="UTF-8" standalone="no"?>
<!DOCTYPE svg PUBLIC "-//W3C//DTD SVG 1.1//EN"
 "http://www.w3.org/Graphics/SVG/1.1/DTD/svg11.dtd">
<!-- Generated by graphviz version 2.40.1 (20161225.0304)
 -->
<!-- Title: ene.views.gui.partial.LibraryView.loadContent Pages: 1 -->
<svg width="494pt" height="88pt"
 viewBox="0.00 0.00 494.00 88.00" xmlns="http://www.w3.org/2000/svg" xmlns:xlink="http://www.w3.org/1999/xlink">
<g id="graph0" class="graph" transform="scale(1 1) rotate(0) translate(4 84)">
<title>ene.views.gui.partial.LibraryView.loadContent</title>
<!-- Node66 -->
<g id="node1" class="node">
<title>Node66</title>
<polygon fill="#bfbfbf" stroke="#000000" points="0,-24.5 0,-54.5 138,-54.5 138,-24.5 0,-24.5"/>
<text text-anchor="start" x="8" y="-42.5" font-family="Helvetica,sans-Serif" font-size="10.00" fill="#000000">ene.views.gui.partial.Library</text>
<text text-anchor="middle" x="69" y="-31.5" font-family="Helvetica,sans-Serif" font-size="10.00" fill="#000000">View.loadContent</text>
</g>
<!-- Node67 -->
<g id="node2" class="node">
<title>Node67</title>
<g id="a_node2"><a xlink:href="classene_1_1views_1_1gui_1_1partial_1_1LibraryView.html#a6e6e521f258ad6e3f2e06ed96180efb6" target="_top" xlink:title="ene.views.gui.partial.Library\lView.initialize">
<polygon fill="none" stroke="#000000" points="174,-49.5 174,-79.5 312,-79.5 312,-49.5 174,-49.5"/>
<text text-anchor="start" x="182" y="-67.5" font-family="Helvetica,sans-Serif" font-size="10.00" fill="#000000">ene.views.gui.partial.Library</text>
<text text-anchor="middle" x="243" y="-56.5" font-family="Helvetica,sans-Serif" font-size="10.00" fill="#000000">View.initialize</text>
</a>
</g>
</g>
<!-- Node66&#45;&gt;Node67 -->
<g id="edge1" class="edge">
<title>Node66&#45;&gt;Node67</title>
<path fill="none" stroke="#191970" d="M148.0349,-50.8556C156.6249,-52.0898 165.3194,-53.339 173.7795,-54.5545"/>
<polygon fill="#191970" stroke="#191970" points="148.4155,-47.3744 138.0193,-49.4166 147.4199,-54.3033 148.4155,-47.3744"/>
</g>
<!-- Node69 -->
<g id="node4" class="node">
<title>Node69</title>
<g id="a_node4"><a xlink:href="classene_1_1views_1_1gui_1_1partial_1_1LibraryView.html#a363a0a2db7ab4295ef38bb667038a6f8" target="_top" xlink:title="ene.views.gui.partial.Library\lView.update">
<polygon fill="none" stroke="#000000" points="174,-.5 174,-30.5 312,-30.5 312,-.5 174,-.5"/>
<text text-anchor="start" x="182" y="-18.5" font-family="Helvetica,sans-Serif" font-size="10.00" fill="#000000">ene.views.gui.partial.Library</text>
<text text-anchor="middle" x="243" y="-7.5" font-family="Helvetica,sans-Serif" font-size="10.00" fill="#000000">View.update</text>
</a>
</g>
</g>
<!-- Node66&#45;&gt;Node69 -->
<g id="edge3" class="edge">
<title>Node66&#45;&gt;Node69</title>
<path fill="none" stroke="#191970" d="M148.0349,-28.5986C156.6249,-27.4138 165.3194,-26.2146 173.7795,-25.0477"/>
<polygon fill="#191970" stroke="#191970" points="147.4473,-25.1465 138.0193,-29.9801 148.4038,-32.0808 147.4473,-25.1465"/>
</g>
<!-- Node68 -->
<g id="node3" class="node">
<title>Node68</title>
<g id="a_node3"><a xlink:href="classene_1_1views_1_1gui_1_1partial_1_1LibraryView.html#a23af39410ef7be2c3253b41ca96cdc4e" target="_top" xlink:title="ene.views.gui.partial.Library\lView.LibraryView">
<polygon fill="none" stroke="#000000" points="348,-49.5 348,-79.5 486,-79.5 486,-49.5 348,-49.5"/>
<text text-anchor="start" x="356" y="-67.5" font-family="Helvetica,sans-Serif" font-size="10.00" fill="#000000">ene.views.gui.partial.Library</text>
<text text-anchor="middle" x="417" y="-56.5" font-family="Helvetica,sans-Serif" font-size="10.00" fill="#000000">View.LibraryView</text>
</a>
</g>
</g>
<!-- Node67&#45;&gt;Node68 -->
<g id="edge2" class="edge">
<title>Node67&#45;&gt;Node68</title>
<path fill="none" stroke="#191970" d="M322.0349,-64.5C330.6249,-64.5 339.3194,-64.5 347.7795,-64.5"/>
<polygon fill="#191970" stroke="#191970" points="322.0194,-61.0001 312.0193,-64.5 322.0193,-68.0001 322.0194,-61.0001"/>
</g>
</g>
</svg>
