<?xml version="1.0" encoding="UTF-8" standalone="no"?>
<!DOCTYPE svg PUBLIC "-//W3C//DTD SVG 1.1//EN"
 "http://www.w3.org/Graphics/SVG/1.1/DTD/svg11.dtd">
<!-- Generated by graphviz version 2.40.1 (20161225.0304)
 -->
<!-- Title: ene.controllers.LibraryController.getDatabaseFilename Pages: 1 -->
<svg width="579pt" height="104pt"
 viewBox="0.00 0.00 579.00 104.00" xmlns="http://www.w3.org/2000/svg" xmlns:xlink="http://www.w3.org/1999/xlink">
<g id="graph0" class="graph" transform="scale(1 1) rotate(0) translate(4 100)">
<title>ene.controllers.LibraryController.getDatabaseFilename</title>
<!-- Node59 -->
<g id="node1" class="node">
<title>Node59</title>
<polygon fill="#bfbfbf" stroke="#000000" points="0,-33 0,-63 171,-63 171,-33 0,-33"/>
<text text-anchor="start" x="8" y="-51" font-family="Helvetica,sans-Serif" font-size="10.00" fill="#000000">ene.controllers.LibraryController.get</text>
<text text-anchor="middle" x="85.5" y="-40" font-family="Helvetica,sans-Serif" font-size="10.00" fill="#000000">DatabaseFilename</text>
</g>
<!-- Node60 -->
<g id="node2" class="node">
<title>Node60</title>
<g id="a_node2"><a xlink:href="classene_1_1controllers_1_1LibraryController.html#aa0d66e53872a376fe6d456eb070de8d4" target="_top" xlink:title="ene.controllers.LibraryController.add">
<polygon fill="none" stroke="#000000" points="215.5,-76.5 215.5,-95.5 388.5,-95.5 388.5,-76.5 215.5,-76.5"/>
<text text-anchor="middle" x="302" y="-83.5" font-family="Helvetica,sans-Serif" font-size="10.00" fill="#000000">ene.controllers.LibraryController.add</text>
</a>
</g>
</g>
<!-- Node59&#45;&gt;Node60 -->
<g id="edge1" class="edge">
<title>Node59&#45;&gt;Node60</title>
<path fill="none" stroke="#191970" d="M181.1534,-64.7891C204.0172,-68.8021 227.6409,-72.9485 247.8697,-76.4991"/>
<polygon fill="#191970" stroke="#191970" points="181.5211,-61.3002 171.0665,-63.0186 180.3109,-68.1948 181.5211,-61.3002"/>
</g>
<!-- Node62 -->
<g id="node4" class="node">
<title>Node62</title>
<g id="a_node4"><a xlink:href="classene_1_1controllers_1_1LibraryController.html#a9e4da87d9fab61b162c2f57e97852be5" target="_top" xlink:title="ene.controllers.LibraryController.edit">
<polygon fill="none" stroke="#000000" points="215.5,-38.5 215.5,-57.5 388.5,-57.5 388.5,-38.5 215.5,-38.5"/>
<text text-anchor="middle" x="302" y="-45.5" font-family="Helvetica,sans-Serif" font-size="10.00" fill="#000000">ene.controllers.LibraryController.edit</text>
</a>
</g>
</g>
<!-- Node59&#45;&gt;Node62 -->
<g id="edge3" class="edge">
<title>Node59&#45;&gt;Node62</title>
<path fill="none" stroke="#191970" d="M181.3683,-48C192.6572,-48 204.128,-48 215.2811,-48"/>
<polygon fill="#191970" stroke="#191970" points="181.0666,-44.5001 171.0665,-48 181.0665,-51.5001 181.0666,-44.5001"/>
</g>
<!-- Node63 -->
<g id="node5" class="node">
<title>Node63</title>
<g id="a_node5"><a xlink:href="classene_1_1controllers_1_1LibraryController.html#aac7853b4f42ee8c4d8704e036eca61a0" target="_top" xlink:title="ene.controllers.LibraryController.remove">
<polygon fill="none" stroke="#000000" points="207,-.5 207,-19.5 397,-19.5 397,-.5 207,-.5"/>
<text text-anchor="middle" x="302" y="-7.5" font-family="Helvetica,sans-Serif" font-size="10.00" fill="#000000">ene.controllers.LibraryController.remove</text>
</a>
</g>
</g>
<!-- Node59&#45;&gt;Node63 -->
<g id="edge5" class="edge">
<title>Node59&#45;&gt;Node63</title>
<path fill="none" stroke="#191970" d="M181.1534,-31.2109C204.0172,-27.1979 227.6409,-23.0515 247.8697,-19.5009"/>
<polygon fill="#191970" stroke="#191970" points="180.3109,-27.8052 171.0665,-32.9814 181.5211,-34.6998 180.3109,-27.8052"/>
</g>
<!-- Node61 -->
<g id="node3" class="node">
<title>Node61</title>
<g id="a_node3"><a xlink:href="classene_1_1views_1_1gui_1_1partial_1_1LibraryView.html#a0bd6885fe06ebde4d3dffbcd888c0b41" target="_top" xlink:title="ene.views.gui.partial.Library\lView.render">
<polygon fill="none" stroke="#000000" points="433,-52 433,-82 571,-82 571,-52 433,-52"/>
<text text-anchor="start" x="441" y="-70" font-family="Helvetica,sans-Serif" font-size="10.00" fill="#000000">ene.views.gui.partial.Library</text>
<text text-anchor="middle" x="502" y="-59" font-family="Helvetica,sans-Serif" font-size="10.00" fill="#000000">View.render</text>
</a>
</g>
</g>
<!-- Node60&#45;&gt;Node61 -->
<g id="edge2" class="edge">
<title>Node60&#45;&gt;Node61</title>
<path fill="none" stroke="#191970" d="M398.6515,-76.8181C410.1701,-75.7238 421.7481,-74.6239 432.7731,-73.5766"/>
<polygon fill="#191970" stroke="#191970" points="398.1838,-73.3467 388.5597,-77.7768 398.8459,-80.3153 398.1838,-73.3467"/>
</g>
<!-- Node62&#45;&gt;Node61 -->
<g id="edge4" class="edge">
<title>Node62&#45;&gt;Node61</title>
<path fill="none" stroke="#191970" d="M398.6515,-57.1819C410.1701,-58.2762 421.7481,-59.3761 432.7731,-60.4234"/>
<polygon fill="#191970" stroke="#191970" points="398.8459,-53.6847 388.5597,-56.2232 398.1838,-60.6533 398.8459,-53.6847"/>
</g>
</g>
</svg>
