<?xml version="1.0" encoding="UTF-8" standalone="no"?>
<!DOCTYPE svg PUBLIC "-//W3C//DTD SVG 1.1//EN"
 "http://www.w3.org/Graphics/SVG/1.1/DTD/svg11.dtd">
<!-- Generated by graphviz version 2.40.1 (20161225.0304)
 -->
<!-- Title: ene.models.PlayerModel.previous Pages: 1 -->
<svg width="978pt" height="414pt"
 viewBox="0.00 0.00 978.00 414.00" xmlns="http://www.w3.org/2000/svg" xmlns:xlink="http://www.w3.org/1999/xlink">
<g id="graph0" class="graph" transform="scale(1 1) rotate(0) translate(4 410)">
<title>ene.models.PlayerModel.previous</title>
<!-- Node85 -->
<g id="node1" class="node">
<title>Node85</title>
<polygon fill="#bfbfbf" stroke="#000000" points="0,-208 0,-227 164,-227 164,-208 0,-208"/>
<text text-anchor="middle" x="82" y="-215" font-family="Helvetica,sans-Serif" font-size="10.00" fill="#000000">ene.models.PlayerModel.previous</text>
</g>
<!-- Node86 -->
<g id="node2" class="node">
<title>Node86</title>
<g id="a_node2"><a xlink:href="classene_1_1models_1_1PlaylistModel.html#ad63fd499a74248dc9dadad29b9882fd2" target="_top" xlink:title="ene.models.PlaylistModel.get\lCurrentTrack">
<polygon fill="none" stroke="#000000" points="410.5,-375.5 410.5,-405.5 555.5,-405.5 555.5,-375.5 410.5,-375.5"/>
<text text-anchor="start" x="418.5" y="-393.5" font-family="Helvetica,sans-Serif" font-size="10.00" fill="#000000">ene.models.PlaylistModel.get</text>
<text text-anchor="middle" x="483" y="-382.5" font-family="Helvetica,sans-Serif" font-size="10.00" fill="#000000">CurrentTrack</text>
</a>
</g>
</g>
<!-- Node85&#45;&gt;Node86 -->
<g id="edge1" class="edge">
<title>Node85&#45;&gt;Node86</title>
<path fill="none" stroke="#191970" d="M91.5071,-227.055C110.4772,-245.6006 155.0807,-286.6548 200,-309.5 263.7302,-341.9121 342.3263,-363.0896 400.5052,-375.6316"/>
<polygon fill="#191970" stroke="#191970" points="399.8827,-379.0773 410.3905,-377.7221 401.3311,-372.2288 399.8827,-379.0773"/>
</g>
<!-- Node88 -->
<g id="node4" class="node">
<title>Node88</title>
<g id="a_node4"><a xlink:href="classene_1_1models_1_1PlayerModel.html#a85b0de48a8e962642825c254f9c47fb0" target="_top" xlink:title="ene.models.PlayerModel.get\lPlaylist">
<polygon fill="none" stroke="#000000" points="214,-112.5 214,-142.5 354,-142.5 354,-112.5 214,-112.5"/>
<text text-anchor="start" x="222" y="-130.5" font-family="Helvetica,sans-Serif" font-size="10.00" fill="#000000">ene.models.PlayerModel.get</text>
<text text-anchor="middle" x="284" y="-119.5" font-family="Helvetica,sans-Serif" font-size="10.00" fill="#000000">Playlist</text>
</a>
</g>
</g>
<!-- Node85&#45;&gt;Node88 -->
<g id="edge3" class="edge">
<title>Node85&#45;&gt;Node88</title>
<path fill="none" stroke="#191970" d="M97.1226,-207.7829C119.077,-194.0024 161.3805,-168.6636 200,-152.5 205.7108,-150.1098 211.7282,-147.8479 217.8104,-145.7339"/>
<polygon fill="#191970" stroke="#191970" points="219.0102,-149.0233 227.3869,-142.5363 216.7932,-142.3836 219.0102,-149.0233"/>
</g>
<!-- Node89 -->
<g id="node5" class="node">
<title>Node89</title>
<g id="a_node5"><a xlink:href="classene_1_1models_1_1PlayerModel.html#a2c4655428b658dee3203787415a516a5" target="_top" xlink:title="ene.models.PlayerModel.load">
<polygon fill="none" stroke="#000000" points="211.5,-162 211.5,-181 356.5,-181 356.5,-162 211.5,-162"/>
<text text-anchor="middle" x="284" y="-169" font-family="Helvetica,sans-Serif" font-size="10.00" fill="#000000">ene.models.PlayerModel.load</text>
</a>
</g>
</g>
<!-- Node85&#45;&gt;Node89 -->
<g id="edge4" class="edge">
<title>Node85&#45;&gt;Node89</title>
<path fill="none" stroke="#191970" d="M123.8545,-207.9688C155.2726,-200.8142 198.4801,-190.9748 232.0976,-183.3194"/>
<polygon fill="#191970" stroke="#191970" points="233.2259,-186.6521 242.1991,-181.019 231.6715,-179.8268 233.2259,-186.6521"/>
</g>
<!-- Node97 -->
<g id="node13" class="node">
<title>Node97</title>
<g id="a_node13"><a xlink:href="classene_1_1models_1_1PlaylistModel.html#ab30573de71b566da79145210f94be294" target="_top" xlink:title="ene.models.PlaylistModel.previous\lTrack">
<polygon fill="none" stroke="#000000" points="200,-269.5 200,-299.5 368,-299.5 368,-269.5 200,-269.5"/>
<text text-anchor="start" x="208" y="-287.5" font-family="Helvetica,sans-Serif" font-size="10.00" fill="#000000">ene.models.PlaylistModel.previous</text>
<text text-anchor="middle" x="284" y="-276.5" font-family="Helvetica,sans-Serif" font-size="10.00" fill="#000000">Track</text>
</a>
</g>
</g>
<!-- Node85&#45;&gt;Node97 -->
<g id="edge12" class="edge">
<title>Node85&#45;&gt;Node97</title>
<path fill="none" stroke="#191970" d="M110.9417,-227.0995C141.5853,-237.2634 190.6945,-253.5521 228.7842,-266.1859"/>
<polygon fill="#191970" stroke="#191970" points="228.1171,-269.652 238.7105,-269.4782 230.3209,-263.008 228.1171,-269.652"/>
</g>
<!-- Node87 -->
<g id="node3" class="node">
<title>Node87</title>
<g id="a_node3"><a xlink:href="classene_1_1models_1_1TrackListModel.html#a77a78d6a93e67e544d83bf5f4856d121" target="_top" xlink:title="ene.models.TrackListModel.getAll">
<polygon fill="none" stroke="#000000" points="602.5,-359 602.5,-378 766.5,-378 766.5,-359 602.5,-359"/>
<text text-anchor="middle" x="684.5" y="-366" font-family="Helvetica,sans-Serif" font-size="10.00" fill="#000000">ene.models.TrackListModel.getAll</text>
</a>
</g>
</g>
<!-- Node86&#45;&gt;Node87 -->
<g id="edge2" class="edge">
<title>Node86&#45;&gt;Node87</title>
<path fill="none" stroke="#191970" d="M555.7461,-382.5575C567.5474,-381.269 579.9056,-379.9197 592.0995,-378.5884"/>
<polygon fill="#191970" stroke="#191970" points="592.7269,-382.0408 602.2879,-377.476 591.9671,-375.0821 592.7269,-382.0408"/>
</g>
<!-- Node90 -->
<g id="node6" class="node">
<title>Node90</title>
<g id="a_node6"><a xlink:href="classene_1_1AbstractObject.html#aff9619cf289ec83735b6c6ca2c12e020" target="_top" xlink:title="ene.AbstractObject.debug\lInfoAbout">
<polygon fill="none" stroke="#000000" points="418,-24.5 418,-54.5 548,-54.5 548,-24.5 418,-24.5"/>
<text text-anchor="start" x="426" y="-42.5" font-family="Helvetica,sans-Serif" font-size="10.00" fill="#000000">ene.AbstractObject.debug</text>
<text text-anchor="middle" x="483" y="-31.5" font-family="Helvetica,sans-Serif" font-size="10.00" fill="#000000">InfoAbout</text>
</a>
</g>
</g>
<!-- Node89&#45;&gt;Node90 -->
<g id="edge5" class="edge">
<title>Node89&#45;&gt;Node90</title>
<path fill="none" stroke="#191970" d="M351.0829,-161.8749C357.206,-159.1795 362.9811,-155.78 368,-151.5 399.8408,-124.3472 373.1676,-92.7927 404,-64.5 405.7224,-62.9195 407.5444,-61.4389 409.4465,-60.0519"/>
<polygon fill="#191970" stroke="#191970" points="411.6178,-62.8221 418.2384,-54.5505 407.9046,-56.888 411.6178,-62.8221"/>
</g>
<!-- Node93 -->
<g id="node9" class="node">
<title>Node93</title>
<g id="a_node9"><a xlink:href="classene_1_1models_1_1PlayerModel.html#aa03431aa1bae96eacf2019c56fd18f45" target="_top" xlink:title="ene.models.PlayerModel.getClip">
<polygon fill="none" stroke="#000000" points="404,-74 404,-93 562,-93 562,-74 404,-74"/>
<text text-anchor="middle" x="483" y="-81" font-family="Helvetica,sans-Serif" font-size="10.00" fill="#000000">ene.models.PlayerModel.getClip</text>
</a>
</g>
</g>
<!-- Node89&#45;&gt;Node93 -->
<g id="edge8" class="edge">
<title>Node89&#45;&gt;Node93</title>
<path fill="none" stroke="#191970" d="M346.1978,-161.9987C353.8975,-159.3201 361.378,-155.8904 368,-151.5 390.5231,-136.5674 381.494,-117.4583 404,-102.5 407.1206,-100.4259 410.4442,-98.5777 413.8949,-96.9308"/>
<polygon fill="#191970" stroke="#191970" points="415.3886,-100.1002 423.2745,-93.0247 412.6974,-93.6382 415.3886,-100.1002"/>
</g>
<!-- Node94 -->
<g id="node10" class="node">
<title>Node94</title>
<g id="a_node10"><a xlink:href="classene_1_1models_1_1TrackModel.html#aab88fe151b093dba71ad9f9ab5c6959d" target="_top" xlink:title="ene.models.TrackModel.get\lFilename">
<polygon fill="none" stroke="#000000" points="414.5,-200.5 414.5,-230.5 551.5,-230.5 551.5,-200.5 414.5,-200.5"/>
<text text-anchor="start" x="422.5" y="-218.5" font-family="Helvetica,sans-Serif" font-size="10.00" fill="#000000">ene.models.TrackModel.get</text>
<text text-anchor="middle" x="483" y="-207.5" font-family="Helvetica,sans-Serif" font-size="10.00" fill="#000000">Filename</text>
</a>
</g>
</g>
<!-- Node89&#45;&gt;Node94 -->
<g id="edge9" class="edge">
<title>Node89&#45;&gt;Node94</title>
<path fill="none" stroke="#191970" d="M327.18,-181.0473C349.8852,-186.0676 378.4243,-192.3777 404.8539,-198.2215"/>
<polygon fill="#191970" stroke="#191970" points="404.3436,-201.6931 414.8635,-200.4346 405.8549,-194.8582 404.3436,-201.6931"/>
</g>
<!-- Node95 -->
<g id="node11" class="node">
<title>Node95</title>
<g id="a_node11"><a xlink:href="classene_1_1models_1_1PlayerModel.html#a5617391131179365729686dc4eea1ea1" target="_top" xlink:title="ene.models.PlayerModel.setClip">
<polygon fill="none" stroke="#000000" points="404,-162 404,-181 562,-181 562,-162 404,-162"/>
<text text-anchor="middle" x="483" y="-169" font-family="Helvetica,sans-Serif" font-size="10.00" fill="#000000">ene.models.PlayerModel.setClip</text>
</a>
</g>
</g>
<!-- Node89&#45;&gt;Node95 -->
<g id="edge10" class="edge">
<title>Node89&#45;&gt;Node95</title>
<path fill="none" stroke="#191970" d="M356.6883,-171.5C368.6586,-171.5 381.1885,-171.5 393.5114,-171.5"/>
<polygon fill="#191970" stroke="#191970" points="393.7972,-175.0001 403.7971,-171.5 393.7971,-168.0001 393.7972,-175.0001"/>
</g>
<!-- Node96 -->
<g id="node12" class="node">
<title>Node96</title>
<g id="a_node12"><a xlink:href="classene_1_1models_1_1PlayerModel.html#a921a00136726aee3bcababbd6c9b2e3e" target="_top" xlink:title="ene.models.PlayerModel.set\lCurrentTrack">
<polygon fill="none" stroke="#000000" points="413,-112.5 413,-142.5 553,-142.5 553,-112.5 413,-112.5"/>
<text text-anchor="start" x="421" y="-130.5" font-family="Helvetica,sans-Serif" font-size="10.00" fill="#000000">ene.models.PlayerModel.set</text>
<text text-anchor="middle" x="483" y="-119.5" font-family="Helvetica,sans-Serif" font-size="10.00" fill="#000000">CurrentTrack</text>
</a>
</g>
</g>
<!-- Node89&#45;&gt;Node96 -->
<g id="edge11" class="edge">
<title>Node89&#45;&gt;Node96</title>
<path fill="none" stroke="#191970" d="M327.18,-161.9527C349.8852,-156.9324 378.4243,-150.6223 404.8539,-144.7785"/>
<polygon fill="#191970" stroke="#191970" points="405.8549,-148.1418 414.8635,-142.5654 404.3436,-141.3069 405.8549,-148.1418"/>
</g>
<!-- Node91 -->
<g id="node7" class="node">
<title>Node91</title>
<g id="a_node7"><a xlink:href="classene_1_1AbstractObject.html#a9ce30d3321c7ce794df2f07bdaf3e47c" target="_top" xlink:title="ene.AbstractObject.console\lOutput">
<polygon fill="none" stroke="#000000" points="616,-.5 616,-30.5 753,-30.5 753,-.5 616,-.5"/>
<text text-anchor="start" x="624" y="-18.5" font-family="Helvetica,sans-Serif" font-size="10.00" fill="#000000">ene.AbstractObject.console</text>
<text text-anchor="middle" x="684.5" y="-7.5" font-family="Helvetica,sans-Serif" font-size="10.00" fill="#000000">Output</text>
</a>
</g>
</g>
<!-- Node90&#45;&gt;Node91 -->
<g id="edge6" class="edge">
<title>Node90&#45;&gt;Node91</title>
<path fill="none" stroke="#191970" d="M548.143,-31.741C566.4666,-29.5586 586.5934,-27.1613 605.626,-24.8944"/>
<polygon fill="#191970" stroke="#191970" points="606.2491,-28.345 615.7649,-23.6868 605.4211,-21.3942 606.2491,-28.345"/>
</g>
<!-- Node92 -->
<g id="node8" class="node">
<title>Node92</title>
<g id="a_node8"><a xlink:href="classene_1_1AbstractObject.html#a6ee0b669069e0c3ee320a6cf41af24fe" target="_top" xlink:title="ene.AbstractObject.isDebug\lModeEnabled">
<polygon fill="none" stroke="#000000" points="614.5,-49.5 614.5,-79.5 754.5,-79.5 754.5,-49.5 614.5,-49.5"/>
<text text-anchor="start" x="622.5" y="-67.5" font-family="Helvetica,sans-Serif" font-size="10.00" fill="#000000">ene.AbstractObject.isDebug</text>
<text text-anchor="middle" x="684.5" y="-56.5" font-family="Helvetica,sans-Serif" font-size="10.00" fill="#000000">ModeEnabled</text>
</a>
</g>
</g>
<!-- Node90&#45;&gt;Node92 -->
<g id="edge7" class="edge">
<title>Node90&#45;&gt;Node92</title>
<path fill="none" stroke="#191970" d="M548.143,-47.5823C566.0767,-49.8073 585.7378,-52.2466 604.4097,-54.5632"/>
<polygon fill="#191970" stroke="#191970" points="604.0105,-58.0405 614.3654,-55.7984 604.8724,-51.0937 604.0105,-58.0405"/>
</g>
<!-- Node97&#45;&gt;Node86 -->
<g id="edge13" class="edge">
<title>Node97&#45;&gt;Node86</title>
<path fill="none" stroke="#191970" d="M304.9138,-299.5831C328.2773,-315.9887 367.6083,-342.2996 404,-360.5 411.9128,-364.4574 420.4815,-368.2151 428.9578,-371.6475"/>
<polygon fill="#191970" stroke="#191970" points="427.8616,-374.9773 438.4489,-375.378 430.4223,-368.4624 427.8616,-374.9773"/>
</g>
<!-- Node97&#45;&gt;Node87 -->
<g id="edge15" class="edge">
<title>Node97&#45;&gt;Node87</title>
<path fill="none" stroke="#191970" d="M355.6014,-299.5175C433.8754,-315.9345 557.6266,-341.8898 628.9159,-356.8419"/>
<polygon fill="#191970" stroke="#191970" points="628.5362,-360.3384 639.0417,-358.9657 629.9731,-353.4874 628.5362,-360.3384"/>
</g>
<!-- Node97&#45;&gt;Node94 -->
<g id="edge14" class="edge">
<title>Node97&#45;&gt;Node94</title>
<path fill="none" stroke="#191970" d="M323.5677,-269.4838C346.8859,-260.7619 377.0153,-249.7117 404,-240.5 410.4944,-238.283 417.3116,-236.0242 424.1057,-233.8161"/>
<polygon fill="#191970" stroke="#191970" points="425.5579,-237.0255 434.0032,-230.6281 423.4117,-230.3626 425.5579,-237.0255"/>
</g>
<!-- Node98 -->
<g id="node14" class="node">
<title>Node98</title>
<g id="a_node14"><a xlink:href="classene_1_1models_1_1PlaylistModel.html#a7150506b3801f97a2e38955a585bbd07" target="_top" xlink:title="ene.models.PlaylistModel.set\lCurrentTrack">
<polygon fill="none" stroke="#000000" points="410.5,-249.5 410.5,-279.5 555.5,-279.5 555.5,-249.5 410.5,-249.5"/>
<text text-anchor="start" x="418.5" y="-267.5" font-family="Helvetica,sans-Serif" font-size="10.00" fill="#000000">ene.models.PlaylistModel.set</text>
<text text-anchor="middle" x="483" y="-256.5" font-family="Helvetica,sans-Serif" font-size="10.00" fill="#000000">CurrentTrack</text>
</a>
</g>
</g>
<!-- Node97&#45;&gt;Node98 -->
<g id="edge16" class="edge">
<title>Node97&#45;&gt;Node98</title>
<path fill="none" stroke="#191970" d="M368.1055,-276.0472C378.7165,-274.9808 389.567,-273.8903 400.1582,-272.8258"/>
<polygon fill="#191970" stroke="#191970" points="400.6172,-276.2974 410.217,-271.8149 399.9171,-269.3325 400.6172,-276.2974"/>
</g>
<!-- Node99 -->
<g id="node15" class="node">
<title>Node99</title>
<g id="a_node15"><a xlink:href="classene_1_1models_1_1AbstractModel.html#a970306ac2228cbcb599f65476d8c80dd" target="_top" xlink:title="ene.models.AbstractModel.changed">
<polygon fill="none" stroke="#000000" points="598,-277 598,-296 771,-296 771,-277 598,-277"/>
<text text-anchor="middle" x="684.5" y="-284" font-family="Helvetica,sans-Serif" font-size="10.00" fill="#000000">ene.models.AbstractModel.changed</text>
</a>
</g>
</g>
<!-- Node97&#45;&gt;Node99 -->
<g id="edge19" class="edge">
<title>Node97&#45;&gt;Node99</title>
<path fill="none" stroke="#191970" d="M368.2338,-288.4535C380.2365,-288.8876 392.43,-289.2591 404,-289.5 474.207,-290.962 491.783,-290.3597 562,-289.5 570.3327,-289.398 578.9835,-289.2569 587.66,-289.0912"/>
<polygon fill="#191970" stroke="#191970" points="587.9122,-292.5869 597.8397,-288.8862 587.7712,-285.5884 587.9122,-292.5869"/>
</g>
<!-- Node98&#45;&gt;Node99 -->
<g id="edge17" class="edge">
<title>Node98&#45;&gt;Node99</title>
<path fill="none" stroke="#191970" d="M555.7461,-272.4425C566.0828,-273.5711 576.8468,-274.7463 587.5534,-275.9153"/>
<polygon fill="#191970" stroke="#191970" points="587.4642,-279.4262 597.785,-277.0324 588.224,-272.4676 587.4642,-279.4262"/>
</g>
<!-- Node100 -->
<g id="node16" class="node">
<title>Node100</title>
<g id="a_node16"><a xlink:href="interfaceene_1_1interfaces_1_1PartialView.html#aae781d286eda4cbf8c57fdb877dde265" target="_top" xlink:title="ene.interfaces.PartialView.update">
<polygon fill="none" stroke="#000000" points="807,-277 807,-296 970,-296 970,-277 807,-277"/>
<text text-anchor="middle" x="888.5" y="-284" font-family="Helvetica,sans-Serif" font-size="10.00" fill="#000000">ene.interfaces.PartialView.update</text>
</a>
</g>
</g>
<!-- Node99&#45;&gt;Node100 -->
<g id="edge18" class="edge">
<title>Node99&#45;&gt;Node100</title>
<path fill="none" stroke="#191970" d="M771.0144,-286.5C779.4296,-286.5 787.9887,-286.5 796.4555,-286.5"/>
<polygon fill="#191970" stroke="#191970" points="796.7215,-290.0001 806.7215,-286.5 796.7214,-283.0001 796.7215,-290.0001"/>
</g>
</g>
</svg>
