<?xml version="1.0" encoding="UTF-8" standalone="no"?>
<!DOCTYPE svg PUBLIC "-//W3C//DTD SVG 1.1//EN"
 "http://www.w3.org/Graphics/SVG/1.1/DTD/svg11.dtd">
<!-- Generated by graphviz version 2.40.1 (20161225.0304)
 -->
<!-- Title: ene.views.gui.partial.PlaylistView.loadContent Pages: 1 -->
<svg width="539pt" height="382pt"
 viewBox="0.00 0.00 539.00 382.00" xmlns="http://www.w3.org/2000/svg" xmlns:xlink="http://www.w3.org/1999/xlink">
<g id="graph0" class="graph" transform="scale(1 1) rotate(0) translate(4 378)">
<title>ene.views.gui.partial.PlaylistView.loadContent</title>
<!-- Node12 -->
<g id="node1" class="node">
<title>Node12</title>
<polygon fill="#bfbfbf" stroke="#000000" points="0,-171.5 0,-201.5 141,-201.5 141,-171.5 0,-171.5"/>
<text text-anchor="start" x="8" y="-189.5" font-family="Helvetica,sans-Serif" font-size="10.00" fill="#000000">ene.views.gui.partial.Playlist</text>
<text text-anchor="middle" x="70.5" y="-178.5" font-family="Helvetica,sans-Serif" font-size="10.00" fill="#000000">View.loadContent</text>
</g>
<!-- Node13 -->
<g id="node2" class="node">
<title>Node13</title>
<g id="a_node2"><a xlink:href="classene_1_1models_1_1TrackModel.html#a04afba3cc5098c28ebd394fb7ac920ba" target="_top" xlink:title="ene.models.TrackModel.get\lArtist">
<polygon fill="none" stroke="#000000" points="185.5,-343.5 185.5,-373.5 322.5,-373.5 322.5,-343.5 185.5,-343.5"/>
<text text-anchor="start" x="193.5" y="-361.5" font-family="Helvetica,sans-Serif" font-size="10.00" fill="#000000">ene.models.TrackModel.get</text>
<text text-anchor="middle" x="254" y="-350.5" font-family="Helvetica,sans-Serif" font-size="10.00" fill="#000000">Artist</text>
</a>
</g>
</g>
<!-- Node12&#45;&gt;Node13 -->
<g id="edge1" class="edge">
<title>Node12&#45;&gt;Node13</title>
<path fill="none" stroke="#191970" d="M77.5144,-201.862C91.8908,-231.6607 127.5581,-297.5359 177,-333.5 179.671,-335.4429 182.5005,-337.2398 185.4369,-338.9011"/>
<polygon fill="#191970" stroke="#191970" points="184.0113,-342.1021 194.515,-343.4885 187.1684,-335.8545 184.0113,-342.1021"/>
</g>
<!-- Node14 -->
<g id="node3" class="node">
<title>Node14</title>
<g id="a_node3"><a xlink:href="classene_1_1models_1_1PlaylistModel.html#ad63fd499a74248dc9dadad29b9882fd2" target="_top" xlink:title="ene.models.PlaylistModel.get\lCurrentTrack">
<polygon fill="none" stroke="#000000" points="181.5,-294.5 181.5,-324.5 326.5,-324.5 326.5,-294.5 181.5,-294.5"/>
<text text-anchor="start" x="189.5" y="-312.5" font-family="Helvetica,sans-Serif" font-size="10.00" fill="#000000">ene.models.PlaylistModel.get</text>
<text text-anchor="middle" x="254" y="-301.5" font-family="Helvetica,sans-Serif" font-size="10.00" fill="#000000">CurrentTrack</text>
</a>
</g>
</g>
<!-- Node12&#45;&gt;Node14 -->
<g id="edge2" class="edge">
<title>Node12&#45;&gt;Node14</title>
<path fill="none" stroke="#191970" d="M83.0699,-201.6051C101.5722,-222.9351 138.1691,-261.8058 177,-284.5 180.6176,-286.6143 184.4369,-288.5752 188.3619,-290.3897"/>
<polygon fill="#191970" stroke="#191970" points="187.0953,-293.6546 197.6666,-294.3614 189.8434,-287.2165 187.0953,-293.6546"/>
</g>
<!-- Node17 -->
<g id="node6" class="node">
<title>Node17</title>
<g id="a_node6"><a xlink:href="classene_1_1models_1_1TrackModel.html#aab88fe151b093dba71ad9f9ab5c6959d" target="_top" xlink:title="ene.models.TrackModel.get\lFilename">
<polygon fill="none" stroke="#000000" points="185.5,-245.5 185.5,-275.5 322.5,-275.5 322.5,-245.5 185.5,-245.5"/>
<text text-anchor="start" x="193.5" y="-263.5" font-family="Helvetica,sans-Serif" font-size="10.00" fill="#000000">ene.models.TrackModel.get</text>
<text text-anchor="middle" x="254" y="-252.5" font-family="Helvetica,sans-Serif" font-size="10.00" fill="#000000">Filename</text>
</a>
</g>
</g>
<!-- Node12&#45;&gt;Node17 -->
<g id="edge5" class="edge">
<title>Node12&#45;&gt;Node17</title>
<path fill="none" stroke="#191970" d="M100.8485,-201.618C121.9363,-211.8359 150.8402,-225.2759 177,-235.5 182.8417,-237.7831 188.9866,-240.0299 195.1514,-242.1837"/>
<polygon fill="#191970" stroke="#191970" points="194.2201,-245.5641 204.8146,-245.4835 196.4822,-238.9397 194.2201,-245.5641"/>
</g>
<!-- Node18 -->
<g id="node7" class="node">
<title>Node18</title>
<g id="a_node7"><a xlink:href="classene_1_1models_1_1PlaylistModel.html#af9e600b621b1b55d22812a70302ff23e" target="_top" xlink:title="ene.models.PlaylistModel.get\lLastAccess">
<polygon fill="none" stroke="#000000" points="181.5,-196.5 181.5,-226.5 326.5,-226.5 326.5,-196.5 181.5,-196.5"/>
<text text-anchor="start" x="189.5" y="-214.5" font-family="Helvetica,sans-Serif" font-size="10.00" fill="#000000">ene.models.PlaylistModel.get</text>
<text text-anchor="middle" x="254" y="-203.5" font-family="Helvetica,sans-Serif" font-size="10.00" fill="#000000">LastAccess</text>
</a>
</g>
</g>
<!-- Node12&#45;&gt;Node18 -->
<g id="edge6" class="edge">
<title>Node12&#45;&gt;Node18</title>
<path fill="none" stroke="#191970" d="M141.1834,-196.1299C151.0272,-197.471 161.2131,-198.8587 171.2537,-200.2267"/>
<polygon fill="#191970" stroke="#191970" points="170.8469,-203.7035 181.2278,-201.5855 171.7919,-196.7676 170.8469,-203.7035"/>
</g>
<!-- Node19 -->
<g id="node8" class="node">
<title>Node19</title>
<g id="a_node8"><a xlink:href="classene_1_1views_1_1AbstractPartialView.html#afb90f9e02eea94a2fb276d711a67ee36" target="_top" xlink:title="ene.views.AbstractPartial\lView.getModel">
<polygon fill="none" stroke="#000000" points="190,-147.5 190,-177.5 318,-177.5 318,-147.5 190,-147.5"/>
<text text-anchor="start" x="198" y="-165.5" font-family="Helvetica,sans-Serif" font-size="10.00" fill="#000000">ene.views.AbstractPartial</text>
<text text-anchor="middle" x="254" y="-154.5" font-family="Helvetica,sans-Serif" font-size="10.00" fill="#000000">View.getModel</text>
</a>
</g>
</g>
<!-- Node12&#45;&gt;Node19 -->
<g id="edge7" class="edge">
<title>Node12&#45;&gt;Node19</title>
<path fill="none" stroke="#191970" d="M141.1834,-177.2553C153.8502,-175.5986 167.0834,-173.8678 179.8447,-172.1988"/>
<polygon fill="#191970" stroke="#191970" points="180.4964,-175.6435 189.958,-170.8761 179.5885,-168.7026 180.4964,-175.6435"/>
</g>
<!-- Node20 -->
<g id="node9" class="node">
<title>Node20</title>
<g id="a_node9"><a xlink:href="interfaceene_1_1interfaces_1_1Localization.html#ae7d5c65647a8bd1ca0c27b3279b0751c" target="_top" xlink:title="ene.interfaces.Localization.get\lString">
<polygon fill="none" stroke="#000000" points="179.5,-98.5 179.5,-128.5 328.5,-128.5 328.5,-98.5 179.5,-98.5"/>
<text text-anchor="start" x="187.5" y="-116.5" font-family="Helvetica,sans-Serif" font-size="10.00" fill="#000000">ene.interfaces.Localization.get</text>
<text text-anchor="middle" x="254" y="-105.5" font-family="Helvetica,sans-Serif" font-size="10.00" fill="#000000">String</text>
</a>
</g>
</g>
<!-- Node12&#45;&gt;Node20 -->
<g id="edge8" class="edge">
<title>Node12&#45;&gt;Node20</title>
<path fill="none" stroke="#191970" d="M100.8103,-171.2835C121.8811,-161.0218 150.7804,-147.5696 177,-137.5 182.0652,-135.5547 187.3612,-133.6484 192.7021,-131.8139"/>
<polygon fill="#191970" stroke="#191970" points="193.9503,-135.0872 202.3241,-128.5964 191.7303,-128.4485 193.9503,-135.0872"/>
</g>
<!-- Node21 -->
<g id="node10" class="node">
<title>Node21</title>
<g id="a_node10"><a xlink:href="classene_1_1views_1_1gui_1_1partial_1_1AbstractTrackListView.html#a709dd0b919d5e537076fe18ad992f25f" target="_top" xlink:title="ene.views.gui.partial.Abstract\lTrackListView.getTableContent">
<polygon fill="none" stroke="#000000" points="177,-49.5 177,-79.5 331,-79.5 331,-49.5 177,-49.5"/>
<text text-anchor="start" x="185" y="-67.5" font-family="Helvetica,sans-Serif" font-size="10.00" fill="#000000">ene.views.gui.partial.Abstract</text>
<text text-anchor="middle" x="254" y="-56.5" font-family="Helvetica,sans-Serif" font-size="10.00" fill="#000000">TrackListView.getTableContent</text>
</a>
</g>
</g>
<!-- Node12&#45;&gt;Node21 -->
<g id="edge9" class="edge">
<title>Node12&#45;&gt;Node21</title>
<path fill="none" stroke="#191970" d="M83.0338,-171.3326C101.4921,-149.9269 138.036,-110.9649 177,-88.5 180.0023,-86.769 183.1438,-85.1484 186.3695,-83.633"/>
<polygon fill="#191970" stroke="#191970" points="187.8408,-86.8102 195.6376,-79.6365 185.069,-80.3823 187.8408,-86.8102"/>
</g>
<!-- Node22 -->
<g id="node11" class="node">
<title>Node22</title>
<g id="a_node11"><a xlink:href="classene_1_1models_1_1TrackModel.html#a5bac0e2b6c87c93eef2802d9d10bf3c1" target="_top" xlink:title="ene.models.TrackModel.get\lTitle">
<polygon fill="none" stroke="#000000" points="185.5,-.5 185.5,-30.5 322.5,-30.5 322.5,-.5 185.5,-.5"/>
<text text-anchor="start" x="193.5" y="-18.5" font-family="Helvetica,sans-Serif" font-size="10.00" fill="#000000">ene.models.TrackModel.get</text>
<text text-anchor="middle" x="254" y="-7.5" font-family="Helvetica,sans-Serif" font-size="10.00" fill="#000000">Title</text>
</a>
</g>
</g>
<!-- Node12&#45;&gt;Node22 -->
<g id="edge10" class="edge">
<title>Node12&#45;&gt;Node22</title>
<path fill="none" stroke="#191970" d="M77.4773,-171.0866C91.7885,-141.1977 127.3469,-75.172 177,-39.5 179.0896,-37.9988 181.2759,-36.5894 183.5343,-35.2665"/>
<polygon fill="#191970" stroke="#191970" points="185.2913,-38.2979 192.5503,-30.5806 182.0631,-32.0867 185.2913,-38.2979"/>
</g>
<!-- Node15 -->
<g id="node4" class="node">
<title>Node15</title>
<g id="a_node4"><a xlink:href="classene_1_1models_1_1TrackListModel.html#a77a78d6a93e67e544d83bf5f4856d121" target="_top" xlink:title="ene.models.TrackListModel.getAll">
<polygon fill="none" stroke="#000000" points="367,-322 367,-341 531,-341 531,-322 367,-322"/>
<text text-anchor="middle" x="449" y="-329" font-family="Helvetica,sans-Serif" font-size="10.00" fill="#000000">ene.models.TrackListModel.getAll</text>
</a>
</g>
</g>
<!-- Node14&#45;&gt;Node15 -->
<g id="edge3" class="edge">
<title>Node14&#45;&gt;Node15</title>
<path fill="none" stroke="#191970" d="M326.6108,-317.692C336.4375,-318.8006 346.6258,-319.9501 356.7387,-321.091"/>
<polygon fill="#191970" stroke="#191970" points="356.4809,-324.5841 366.8102,-322.2273 357.2657,-317.6282 356.4809,-324.5841"/>
</g>
<!-- Node16 -->
<g id="node5" class="node">
<title>Node16</title>
<g id="a_node5"><a xlink:href="classene_1_1models_1_1PlaylistModel.html#adf17aa2e0d9900d3c620035dbc9641bc" target="_top" xlink:title="ene.models.PlaylistModel.update\lLastAccess">
<polygon fill="none" stroke="#000000" points="368.5,-272.5 368.5,-302.5 529.5,-302.5 529.5,-272.5 368.5,-272.5"/>
<text text-anchor="start" x="376.5" y="-290.5" font-family="Helvetica,sans-Serif" font-size="10.00" fill="#000000">ene.models.PlaylistModel.update</text>
<text text-anchor="middle" x="449" y="-279.5" font-family="Helvetica,sans-Serif" font-size="10.00" fill="#000000">LastAccess</text>
</a>
</g>
</g>
<!-- Node14&#45;&gt;Node16 -->
<g id="edge4" class="edge">
<title>Node14&#45;&gt;Node16</title>
<path fill="none" stroke="#191970" d="M326.6108,-301.308C336.9502,-300.1415 347.6898,-298.9299 358.3207,-297.7305"/>
<polygon fill="#191970" stroke="#191970" points="358.9188,-301.1853 368.4634,-296.5862 358.134,-294.2294 358.9188,-301.1853"/>
</g>
</g>
</svg>
