<?xml version="1.0" encoding="UTF-8" standalone="no"?>
<!DOCTYPE svg PUBLIC "-//W3C//DTD SVG 1.1//EN"
 "http://www.w3.org/Graphics/SVG/1.1/DTD/svg11.dtd">
<!-- Generated by graphviz version 2.40.1 (20161225.0304)
 -->
<!-- Title: ene.AbstractObject.delay Pages: 1 -->
<svg width="516pt" height="116pt"
 viewBox="0.00 0.00 516.00 115.50" xmlns="http://www.w3.org/2000/svg" xmlns:xlink="http://www.w3.org/1999/xlink">
<g id="graph0" class="graph" transform="scale(1 1) rotate(0) translate(4 111.5)">
<title>ene.AbstractObject.delay</title>
<!-- Node32 -->
<g id="node1" class="node">
<title>Node32</title>
<polygon fill="#bfbfbf" stroke="#000000" points="0,-38.5 0,-57.5 127,-57.5 127,-38.5 0,-38.5"/>
<text text-anchor="middle" x="63.5" y="-45.5" font-family="Helvetica,sans-Serif" font-size="10.00" fill="#000000">ene.AbstractObject.delay</text>
</g>
<!-- Node33 -->
<g id="node2" class="node">
<title>Node33</title>
<g id="a_node2"><a xlink:href="classene_1_1models_1_1PlayerModel.html#a2c4655428b658dee3203787415a516a5" target="_top" xlink:title="ene.models.PlayerModel.load">
<polygon fill="none" stroke="#000000" points="163,-38.5 163,-57.5 308,-57.5 308,-38.5 163,-38.5"/>
<text text-anchor="middle" x="235.5" y="-45.5" font-family="Helvetica,sans-Serif" font-size="10.00" fill="#000000">ene.models.PlayerModel.load</text>
</a>
</g>
</g>
<!-- Node32&#45;&gt;Node33 -->
<g id="edge1" class="edge">
<title>Node32&#45;&gt;Node33</title>
<path fill="none" stroke="#191970" d="M137.308,-48C145.7958,-48 154.4453,-48 162.9168,-48"/>
<polygon fill="#191970" stroke="#191970" points="137.0578,-44.5001 127.0578,-48 137.0577,-51.5001 137.0578,-44.5001"/>
</g>
<!-- Node34 -->
<g id="node3" class="node">
<title>Node34</title>
<g id="a_node3"><a xlink:href="classene_1_1models_1_1PlayerModel.html#acfe1fde39cea80b94ae65ed401706d70" target="_top" xlink:title="ene.models.PlayerModel.load\lPlaylist">
<polygon fill="none" stroke="#000000" points="353.5,-77 353.5,-107 498.5,-107 498.5,-77 353.5,-77"/>
<text text-anchor="start" x="361.5" y="-95" font-family="Helvetica,sans-Serif" font-size="10.00" fill="#000000">ene.models.PlayerModel.load</text>
<text text-anchor="middle" x="426" y="-84" font-family="Helvetica,sans-Serif" font-size="10.00" fill="#000000">Playlist</text>
</a>
</g>
</g>
<!-- Node33&#45;&gt;Node34 -->
<g id="edge2" class="edge">
<title>Node33&#45;&gt;Node34</title>
<path fill="none" stroke="#191970" d="M286.6457,-59.8132C309.4353,-65.0769 336.5477,-71.3391 360.7738,-76.9346"/>
<polygon fill="#191970" stroke="#191970" points="287.3668,-56.3877 276.8357,-57.5473 285.7915,-63.2081 287.3668,-56.3877"/>
</g>
<!-- Node35 -->
<g id="node4" class="node">
<title>Node35</title>
<g id="a_node4"><a xlink:href="classene_1_1models_1_1PlayerModel.html#a7242e20d537405f031ec8d18e7faf8fc" target="_top" xlink:title="ene.models.PlayerModel.previous">
<polygon fill="none" stroke="#000000" points="344,-38.5 344,-57.5 508,-57.5 508,-38.5 344,-38.5"/>
<text text-anchor="middle" x="426" y="-45.5" font-family="Helvetica,sans-Serif" font-size="10.00" fill="#000000">ene.models.PlayerModel.previous</text>
</a>
</g>
</g>
<!-- Node33&#45;&gt;Node35 -->
<g id="edge3" class="edge">
<title>Node33&#45;&gt;Node35</title>
<path fill="none" stroke="#191970" d="M318.2872,-48C326.7381,-48 335.3221,-48 343.767,-48"/>
<polygon fill="#191970" stroke="#191970" points="318.0634,-44.5001 308.0633,-48 318.0633,-51.5001 318.0634,-44.5001"/>
</g>
<!-- Node36 -->
<g id="node5" class="node">
<title>Node36</title>
<g id="a_node5"><a xlink:href="classene_1_1models_1_1PlayerModel.html#a384fd9a2e98fc581e8221659257a8dd4" target="_top" xlink:title="ene.models.PlayerModel.next">
<polygon fill="none" stroke="#000000" points="353,-.5 353,-19.5 499,-19.5 499,-.5 353,-.5"/>
<text text-anchor="middle" x="426" y="-7.5" font-family="Helvetica,sans-Serif" font-size="10.00" fill="#000000">ene.models.PlayerModel.next</text>
</a>
</g>
</g>
<!-- Node33&#45;&gt;Node36 -->
<g id="edge4" class="edge">
<title>Node33&#45;&gt;Node36</title>
<path fill="none" stroke="#191970" d="M293.7003,-36.3905C320.7938,-30.986 352.625,-24.6365 378.2745,-19.5201"/>
<polygon fill="#191970" stroke="#191970" points="292.6933,-33.0223 283.5712,-38.411 294.0627,-39.8871 292.6933,-33.0223"/>
</g>
</g>
</svg>
