<?xml version="1.0" encoding="UTF-8" standalone="no"?>
<!DOCTYPE svg PUBLIC "-//W3C//DTD SVG 1.1//EN"
 "http://www.w3.org/Graphics/SVG/1.1/DTD/svg11.dtd">
<!-- Generated by graphviz version 2.40.1 (20161225.0304)
 -->
<!-- Title: ene.models.PlayerModel.getPlaylist Pages: 1 -->
<svg width="697pt" height="143pt"
 viewBox="0.00 0.00 697.00 142.50" xmlns="http://www.w3.org/2000/svg" xmlns:xlink="http://www.w3.org/1999/xlink">
<g id="graph0" class="graph" transform="scale(1 1) rotate(0) translate(4 138.5)">
<title>ene.models.PlayerModel.getPlaylist</title>
<!-- Node20 -->
<g id="node1" class="node">
<title>Node20</title>
<polygon fill="#bfbfbf" stroke="#000000" points="0,-33 0,-63 140,-63 140,-33 0,-33"/>
<text text-anchor="start" x="8" y="-51" font-family="Helvetica,sans-Serif" font-size="10.00" fill="#000000">ene.models.PlayerModel.get</text>
<text text-anchor="middle" x="70" y="-40" font-family="Helvetica,sans-Serif" font-size="10.00" fill="#000000">Playlist</text>
</g>
<!-- Node21 -->
<g id="node2" class="node">
<title>Node21</title>
<g id="a_node2"><a xlink:href="classene_1_1views_1_1gui_1_1partial_1_1PlayerView.html#a46b869b84db253abe071d06cb4629925" target="_top" xlink:title="ene.views.gui.partial.Player\lView.isCurrentTrackPartOfCurrent\lPlaylist">
<polygon fill="none" stroke="#000000" points="176,-76.5 176,-117.5 343,-117.5 343,-76.5 176,-76.5"/>
<text text-anchor="start" x="184" y="-105.5" font-family="Helvetica,sans-Serif" font-size="10.00" fill="#000000">ene.views.gui.partial.Player</text>
<text text-anchor="start" x="184" y="-94.5" font-family="Helvetica,sans-Serif" font-size="10.00" fill="#000000">View.isCurrentTrackPartOfCurrent</text>
<text text-anchor="middle" x="259.5" y="-83.5" font-family="Helvetica,sans-Serif" font-size="10.00" fill="#000000">Playlist</text>
</a>
</g>
</g>
<!-- Node20&#45;&gt;Node21 -->
<g id="edge1" class="edge">
<title>Node20&#45;&gt;Node21</title>
<path fill="none" stroke="#191970" d="M137.9504,-65.5703C151.6402,-69.1101 166.1434,-72.8603 180.182,-76.4903"/>
<polygon fill="#191970" stroke="#191970" points="138.7019,-62.1496 128.1441,-63.0346 136.9494,-68.9267 138.7019,-62.1496"/>
</g>
<!-- Node24 -->
<g id="node5" class="node">
<title>Node24</title>
<g id="a_node5"><a xlink:href="classene_1_1models_1_1PlayerModel.html#a384fd9a2e98fc581e8221659257a8dd4" target="_top" xlink:title="ene.models.PlayerModel.next">
<polygon fill="none" stroke="#000000" points="186.5,-38.5 186.5,-57.5 332.5,-57.5 332.5,-38.5 186.5,-38.5"/>
<text text-anchor="middle" x="259.5" y="-45.5" font-family="Helvetica,sans-Serif" font-size="10.00" fill="#000000">ene.models.PlayerModel.next</text>
</a>
</g>
</g>
<!-- Node20&#45;&gt;Node24 -->
<g id="edge5" class="edge">
<title>Node20&#45;&gt;Node24</title>
<path fill="none" stroke="#191970" d="M150.03,-48C162.053,-48 174.4001,-48 186.2714,-48"/>
<polygon fill="#191970" stroke="#191970" points="150.0244,-44.5001 140.0244,-48 150.0244,-51.5001 150.0244,-44.5001"/>
</g>
<!-- Node25 -->
<g id="node6" class="node">
<title>Node25</title>
<g id="a_node6"><a xlink:href="classene_1_1models_1_1PlayerModel.html#a7242e20d537405f031ec8d18e7faf8fc" target="_top" xlink:title="ene.models.PlayerModel.previous">
<polygon fill="none" stroke="#000000" points="177.5,-.5 177.5,-19.5 341.5,-19.5 341.5,-.5 177.5,-.5"/>
<text text-anchor="middle" x="259.5" y="-7.5" font-family="Helvetica,sans-Serif" font-size="10.00" fill="#000000">ene.models.PlayerModel.previous</text>
</a>
</g>
</g>
<!-- Node20&#45;&gt;Node25 -->
<g id="edge6" class="edge">
<title>Node20&#45;&gt;Node25</title>
<path fill="none" stroke="#191970" d="M149.9505,-31.9677C171.0375,-27.7392 193.1272,-23.3096 211.9019,-19.5447"/>
<polygon fill="#191970" stroke="#191970" points="149.141,-28.5603 140.0244,-33.9582 150.5174,-35.4236 149.141,-28.5603"/>
</g>
<!-- Node22 -->
<g id="node3" class="node">
<title>Node22</title>
<g id="a_node3"><a xlink:href="classene_1_1views_1_1gui_1_1partial_1_1PlayerView.html#a3098a851f88f8b9ce6d4e2fcacdf55c9" target="_top" xlink:title="ene.views.gui.partial.Player\lView.enablePlayerControls">
<polygon fill="none" stroke="#000000" points="379,-104 379,-134 516,-134 516,-104 379,-104"/>
<text text-anchor="start" x="387" y="-122" font-family="Helvetica,sans-Serif" font-size="10.00" fill="#000000">ene.views.gui.partial.Player</text>
<text text-anchor="middle" x="447.5" y="-111" font-family="Helvetica,sans-Serif" font-size="10.00" fill="#000000">View.enablePlayerControls</text>
</a>
</g>
</g>
<!-- Node21&#45;&gt;Node22 -->
<g id="edge2" class="edge">
<title>Node21&#45;&gt;Node22</title>
<path fill="none" stroke="#191970" d="M353.1858,-107.9632C361.8326,-108.9751 370.483,-109.9874 378.8442,-110.9658"/>
<polygon fill="#191970" stroke="#191970" points="353.3934,-104.4637 343.0544,-106.7776 352.5798,-111.4163 353.3934,-104.4637"/>
</g>
<!-- Node23 -->
<g id="node4" class="node">
<title>Node23</title>
<g id="a_node4"><a xlink:href="classene_1_1views_1_1gui_1_1partial_1_1PlayerView.html#a15d3f24a6e52ff6dedb86bb793bb8fa9" target="_top" xlink:title="ene.views.gui.partial.Player\lView.update">
<polygon fill="none" stroke="#000000" points="552,-82 552,-112 689,-112 689,-82 552,-82"/>
<text text-anchor="start" x="560" y="-100" font-family="Helvetica,sans-Serif" font-size="10.00" fill="#000000">ene.views.gui.partial.Player</text>
<text text-anchor="middle" x="620.5" y="-89" font-family="Helvetica,sans-Serif" font-size="10.00" fill="#000000">View.update</text>
</a>
</g>
</g>
<!-- Node21&#45;&gt;Node23 -->
<g id="edge4" class="edge">
<title>Node21&#45;&gt;Node23</title>
<path fill="none" stroke="#191970" d="M353.2693,-94.4225C361.9675,-94.2508 370.6475,-94.1048 379,-94 439.8841,-93.2359 455.1174,-93.1263 516,-94 527.6147,-94.1667 539.9533,-94.4375 551.9279,-94.75"/>
<polygon fill="#191970" stroke="#191970" points="352.9936,-90.9274 343.0686,-94.6349 353.1394,-97.9259 352.9936,-90.9274"/>
</g>
<!-- Node22&#45;&gt;Node23 -->
<g id="edge3" class="edge">
<title>Node22&#45;&gt;Node23</title>
<path fill="none" stroke="#191970" d="M526.316,-108.9772C534.8439,-107.8927 543.4721,-106.7955 551.8657,-105.7281"/>
<polygon fill="#191970" stroke="#191970" points="525.8498,-105.5082 516.3713,-110.2418 526.7329,-112.4522 525.8498,-105.5082"/>
</g>
</g>
</svg>
