<?xml version="1.0" encoding="UTF-8" standalone="no"?>
<!DOCTYPE svg PUBLIC "-//W3C//DTD SVG 1.1//EN"
 "http://www.w3.org/Graphics/SVG/1.1/DTD/svg11.dtd">
<!-- Generated by graphviz version 2.40.1 (20161225.0304)
 -->
<!-- Title: ene.views.AbstractMasterView&lt; CoreComponentType &gt; Pages: 1 -->
<svg width="628pt" height="603pt"
 viewBox="0.00 0.00 628.00 603.00" xmlns="http://www.w3.org/2000/svg" xmlns:xlink="http://www.w3.org/1999/xlink">
<g id="graph0" class="graph" transform="scale(1 1) rotate(0) translate(4 599)">
<title>ene.views.AbstractMasterView&lt; CoreComponentType &gt;</title>
<!-- Node0 -->
<g id="node1" class="node">
<title>Node0</title>
<polygon fill="#bfbfbf" stroke="#000000" points="252,-149.5 252,-239.5 401,-239.5 401,-149.5 252,-149.5"/>
<text text-anchor="start" x="260" y="-227.5" font-family="Helvetica,sans-Serif" font-size="10.00" fill="#000000">ene.views.AbstractMaster</text>
<text text-anchor="middle" x="326.5" y="-216.5" font-family="Helvetica,sans-Serif" font-size="10.00" fill="#000000">View&lt; CoreComponentType &gt;</text>
<polyline fill="none" stroke="#000000" points="252,-209.5 401,-209.5 "/>
<text text-anchor="start" x="260" y="-197.5" font-family="Helvetica,sans-Serif" font-size="10.00" fill="#000000"># views</text>
<polyline fill="none" stroke="#000000" points="252,-190.5 401,-190.5 "/>
<text text-anchor="start" x="260" y="-178.5" font-family="Helvetica,sans-Serif" font-size="10.00" fill="#000000">+ addView()</text>
<text text-anchor="start" x="260" y="-167.5" font-family="Helvetica,sans-Serif" font-size="10.00" fill="#000000">+ setAllViews()</text>
<text text-anchor="start" x="260" y="-156.5" font-family="Helvetica,sans-Serif" font-size="10.00" fill="#000000">+ getAllViews()</text>
</g>
<!-- Node6 -->
<g id="node7" class="node">
<title>Node6</title>
<g id="a_node7"><a xlink:href="classene_1_1views_1_1gui_1_1partial_1_1ContentView.html" target="_top" xlink:title="{ene::views::gui::partial\l::ContentView\&lt; JTabbedPane \&gt;\n||+ ContentView()\l+ render()\l}">
<polygon fill="none" stroke="#000000" points="0,-11.5 0,-90.5 157,-90.5 157,-11.5 0,-11.5"/>
<text text-anchor="start" x="8" y="-78.5" font-family="Helvetica,sans-Serif" font-size="10.00" fill="#000000">ene::views::gui::partial</text>
<text text-anchor="middle" x="78.5" y="-67.5" font-family="Helvetica,sans-Serif" font-size="10.00" fill="#000000">::ContentView&lt; JTabbedPane &gt;</text>
<polyline fill="none" stroke="#000000" points="0,-60.5 157,-60.5 "/>
<text text-anchor="middle" x="78.5" y="-48.5" font-family="Helvetica,sans-Serif" font-size="10.00" fill="#000000"> </text>
<polyline fill="none" stroke="#000000" points="0,-41.5 157,-41.5 "/>
<text text-anchor="start" x="8" y="-29.5" font-family="Helvetica,sans-Serif" font-size="10.00" fill="#000000">+ ContentView()</text>
<text text-anchor="start" x="8" y="-18.5" font-family="Helvetica,sans-Serif" font-size="10.00" fill="#000000">+ render()</text>
</a>
</g>
</g>
<!-- Node0&#45;&gt;Node6 -->
<g id="edge7" class="edge">
<title>Node0&#45;&gt;Node6</title>
<path fill="none" stroke="#191970" d="M242.6727,-146.0597C218.121,-131.8663 191.232,-116.3157 166.5,-102 160.0814,-98.2847 153.4002,-94.4157 146.7154,-90.5435"/>
<polygon fill="none" stroke="#191970" points="241.1948,-149.2481 251.604,-151.2227 244.6981,-143.1878 241.1948,-149.2481"/>
</g>
<!-- Node7 -->
<g id="node8" class="node">
<title>Node7</title>
<g id="a_node8"><a xlink:href="classene_1_1views_1_1gui_1_1WindowView.html" target="_top" xlink:title="{ene::views::gui::WindowView\l\&lt; JFrame \&gt;\n||+ setTitle()\l+ getTitle()\l+ WindowView()\l+ render()\l}">
<polygon fill="none" stroke="#000000" points="175.5,-.5 175.5,-101.5 321.5,-101.5 321.5,-.5 175.5,-.5"/>
<text text-anchor="start" x="183.5" y="-89.5" font-family="Helvetica,sans-Serif" font-size="10.00" fill="#000000">ene::views::gui::WindowView</text>
<text text-anchor="middle" x="248.5" y="-78.5" font-family="Helvetica,sans-Serif" font-size="10.00" fill="#000000">&lt; JFrame &gt;</text>
<polyline fill="none" stroke="#000000" points="175.5,-71.5 321.5,-71.5 "/>
<text text-anchor="middle" x="248.5" y="-59.5" font-family="Helvetica,sans-Serif" font-size="10.00" fill="#000000"> </text>
<polyline fill="none" stroke="#000000" points="175.5,-52.5 321.5,-52.5 "/>
<text text-anchor="start" x="183.5" y="-40.5" font-family="Helvetica,sans-Serif" font-size="10.00" fill="#000000">+ setTitle()</text>
<text text-anchor="start" x="183.5" y="-29.5" font-family="Helvetica,sans-Serif" font-size="10.00" fill="#000000">+ getTitle()</text>
<text text-anchor="start" x="183.5" y="-18.5" font-family="Helvetica,sans-Serif" font-size="10.00" fill="#000000">+ WindowView()</text>
<text text-anchor="start" x="183.5" y="-7.5" font-family="Helvetica,sans-Serif" font-size="10.00" fill="#000000">+ render()</text>
</a>
</g>
</g>
<!-- Node0&#45;&gt;Node7 -->
<g id="edge8" class="edge">
<title>Node0&#45;&gt;Node7</title>
<path fill="none" stroke="#191970" d="M297.0886,-140.3905C290.1738,-127.669 282.8302,-114.1588 276.0029,-101.5983"/>
<polygon fill="none" stroke="#191970" points="294.1835,-142.3749 302.0343,-149.4894 300.3337,-139.032 294.1835,-142.3749"/>
</g>
<!-- Node8 -->
<g id="node9" class="node">
<title>Node8</title>
<g id="a_node9"><a xlink:href="classene_1_1views_1_1AbstractMasterView.html" target="_top" xlink:title="{ene.views.AbstractMaster\lView\&lt; JTabbedPane \&gt;\n|# views\l|+ addView()\l+ setAllViews()\l+ getAllViews()\l}">
<polygon fill="none" stroke="#000000" points="340,-6 340,-96 471,-96 471,-6 340,-6"/>
<text text-anchor="start" x="348" y="-84" font-family="Helvetica,sans-Serif" font-size="10.00" fill="#000000">ene.views.AbstractMaster</text>
<text text-anchor="middle" x="405.5" y="-73" font-family="Helvetica,sans-Serif" font-size="10.00" fill="#000000">View&lt; JTabbedPane &gt;</text>
<polyline fill="none" stroke="#000000" points="340,-66 471,-66 "/>
<text text-anchor="start" x="348" y="-54" font-family="Helvetica,sans-Serif" font-size="10.00" fill="#000000"># views</text>
<polyline fill="none" stroke="#000000" points="340,-47 471,-47 "/>
<text text-anchor="start" x="348" y="-35" font-family="Helvetica,sans-Serif" font-size="10.00" fill="#000000">+ addView()</text>
<text text-anchor="start" x="348" y="-24" font-family="Helvetica,sans-Serif" font-size="10.00" fill="#000000">+ setAllViews()</text>
<text text-anchor="start" x="348" y="-13" font-family="Helvetica,sans-Serif" font-size="10.00" fill="#000000">+ getAllViews()</text>
</a>
</g>
</g>
<!-- Node0&#45;&gt;Node8 -->
<g id="edge9" class="edge">
<title>Node0&#45;&gt;Node8</title>
<path fill="none" stroke="#ffa500" d="M356.186,-140.5767C364.2067,-126.0075 372.8038,-110.3913 380.537,-96.3443"/>
<polygon fill="#ffa500" stroke="#ffa500" points="353.036,-139.0412 351.2793,-149.4894 359.1682,-142.4172 353.036,-139.0412"/>
<text text-anchor="middle" x="406.5" y="-123" font-family="Helvetica,sans-Serif" font-size="10.00" fill="#000000"> &lt; JTabbedPane &gt;</text>
</g>
<!-- Node9 -->
<g id="node10" class="node">
<title>Node9</title>
<g id="a_node10"><a xlink:href="classene_1_1views_1_1AbstractMasterView.html" target="_top" xlink:title="{ene.views.AbstractMaster\lView\&lt; JFrame \&gt;\n|# views\l|+ addView()\l+ setAllViews()\l+ getAllViews()\l}">
<polygon fill="none" stroke="#000000" points="489,-6 489,-96 620,-96 620,-6 489,-6"/>
<text text-anchor="start" x="497" y="-84" font-family="Helvetica,sans-Serif" font-size="10.00" fill="#000000">ene.views.AbstractMaster</text>
<text text-anchor="middle" x="554.5" y="-73" font-family="Helvetica,sans-Serif" font-size="10.00" fill="#000000">View&lt; JFrame &gt;</text>
<polyline fill="none" stroke="#000000" points="489,-66 620,-66 "/>
<text text-anchor="start" x="497" y="-54" font-family="Helvetica,sans-Serif" font-size="10.00" fill="#000000"># views</text>
<polyline fill="none" stroke="#000000" points="489,-47 620,-47 "/>
<text text-anchor="start" x="497" y="-35" font-family="Helvetica,sans-Serif" font-size="10.00" fill="#000000">+ addView()</text>
<text text-anchor="start" x="497" y="-24" font-family="Helvetica,sans-Serif" font-size="10.00" fill="#000000">+ setAllViews()</text>
<text text-anchor="start" x="497" y="-13" font-family="Helvetica,sans-Serif" font-size="10.00" fill="#000000">+ getAllViews()</text>
</a>
</g>
</g>
<!-- Node0&#45;&gt;Node9 -->
<g id="edge10" class="edge">
<title>Node0&#45;&gt;Node9</title>
<path fill="none" stroke="#ffa500" d="M410.3247,-154.7066C424.3299,-147.2713 438.5163,-139.2345 451.5,-131 467.9439,-120.571 484.9636,-108.1207 500.3163,-96.184"/>
<polygon fill="#ffa500" stroke="#ffa500" points="408.3991,-151.764 401.1619,-159.5018 411.6449,-157.966 408.3991,-151.764"/>
<text text-anchor="middle" x="493" y="-123" font-family="Helvetica,sans-Serif" font-size="10.00" fill="#000000"> &lt; JFrame &gt;</text>
</g>
<!-- Node1 -->
<g id="node2" class="node">
<title>Node1</title>
<g id="a_node2"><a xlink:href="classene_1_1views_1_1AbstractView.html" target="_top" xlink:title="{ene::views::AbstractView\l\&lt; CoreComponentType \&gt;\n|# title\l# coreComponent\l# layoutPosition\l|+ setTitle()\l+ getTitle()\l+ setCoreComponent()\l+ getCoreComponent()\l+ setLayoutPosition()\l+ getLayoutPosition()\l}">
<polygon fill="none" stroke="#000000" points="187.5,-277.5 187.5,-422.5 315.5,-422.5 315.5,-277.5 187.5,-277.5"/>
<text text-anchor="start" x="195.5" y="-410.5" font-family="Helvetica,sans-Serif" font-size="10.00" fill="#000000">ene::views::AbstractView</text>
<text text-anchor="middle" x="251.5" y="-399.5" font-family="Helvetica,sans-Serif" font-size="10.00" fill="#000000">&lt; CoreComponentType &gt;</text>
<polyline fill="none" stroke="#000000" points="187.5,-392.5 315.5,-392.5 "/>
<text text-anchor="start" x="195.5" y="-380.5" font-family="Helvetica,sans-Serif" font-size="10.00" fill="#000000"># title</text>
<text text-anchor="start" x="195.5" y="-369.5" font-family="Helvetica,sans-Serif" font-size="10.00" fill="#000000"># coreComponent</text>
<text text-anchor="start" x="195.5" y="-358.5" font-family="Helvetica,sans-Serif" font-size="10.00" fill="#000000"># layoutPosition</text>
<polyline fill="none" stroke="#000000" points="187.5,-351.5 315.5,-351.5 "/>
<text text-anchor="start" x="195.5" y="-339.5" font-family="Helvetica,sans-Serif" font-size="10.00" fill="#000000">+ setTitle()</text>
<text text-anchor="start" x="195.5" y="-328.5" font-family="Helvetica,sans-Serif" font-size="10.00" fill="#000000">+ getTitle()</text>
<text text-anchor="start" x="195.5" y="-317.5" font-family="Helvetica,sans-Serif" font-size="10.00" fill="#000000">+ setCoreComponent()</text>
<text text-anchor="start" x="195.5" y="-306.5" font-family="Helvetica,sans-Serif" font-size="10.00" fill="#000000">+ getCoreComponent()</text>
<text text-anchor="start" x="195.5" y="-295.5" font-family="Helvetica,sans-Serif" font-size="10.00" fill="#000000">+ setLayoutPosition()</text>
<text text-anchor="start" x="195.5" y="-284.5" font-family="Helvetica,sans-Serif" font-size="10.00" fill="#000000">+ getLayoutPosition()</text>
</a>
</g>
</g>
<!-- Node1&#45;&gt;Node0 -->
<g id="edge1" class="edge">
<title>Node1&#45;&gt;Node0</title>
<path fill="none" stroke="#191970" d="M290.9329,-268.2425C295.6646,-258.4321 300.3552,-248.7069 304.7022,-239.6941"/>
<polygon fill="none" stroke="#191970" points="287.7763,-266.7305 286.5845,-277.2581 294.0813,-269.7716 287.7763,-266.7305"/>
</g>
<!-- Node2 -->
<g id="node3" class="node">
<title>Node2</title>
<g id="a_node3"><a xlink:href="classene_1_1AbstractObject.html" target="_top" xlink:title="{ene.AbstractObject\n|# debugModeEnabled\l|+ enableDebugMode()\l+ disableDebugMode()\l+ isDebugModeEnabled()\l+ debugInfoAbout()\l+ consoleOutput()\l# delay()\l}">
<polygon fill="none" stroke="#000000" points="41,-471.5 41,-583.5 168,-583.5 168,-471.5 41,-471.5"/>
<text text-anchor="middle" x="104.5" y="-571.5" font-family="Helvetica,sans-Serif" font-size="10.00" fill="#000000">ene.AbstractObject</text>
<polyline fill="none" stroke="#000000" points="41,-564.5 168,-564.5 "/>
<text text-anchor="start" x="49" y="-552.5" font-family="Helvetica,sans-Serif" font-size="10.00" fill="#000000"># debugModeEnabled</text>
<polyline fill="none" stroke="#000000" points="41,-545.5 168,-545.5 "/>
<text text-anchor="start" x="49" y="-533.5" font-family="Helvetica,sans-Serif" font-size="10.00" fill="#000000">+ enableDebugMode()</text>
<text text-anchor="start" x="49" y="-522.5" font-family="Helvetica,sans-Serif" font-size="10.00" fill="#000000">+ disableDebugMode()</text>
<text text-anchor="start" x="49" y="-511.5" font-family="Helvetica,sans-Serif" font-size="10.00" fill="#000000">+ isDebugModeEnabled()</text>
<text text-anchor="start" x="49" y="-500.5" font-family="Helvetica,sans-Serif" font-size="10.00" fill="#000000">+ debugInfoAbout()</text>
<text text-anchor="start" x="49" y="-489.5" font-family="Helvetica,sans-Serif" font-size="10.00" fill="#000000">+ consoleOutput()</text>
<text text-anchor="start" x="49" y="-478.5" font-family="Helvetica,sans-Serif" font-size="10.00" fill="#000000"># delay()</text>
</a>
</g>
</g>
<!-- Node2&#45;&gt;Node1 -->
<g id="edge2" class="edge">
<title>Node2&#45;&gt;Node1</title>
<path fill="none" stroke="#191970" d="M157.3984,-463.6261C168.3909,-450.3528 180.0522,-436.272 191.2853,-422.7082"/>
<polygon fill="none" stroke="#191970" points="154.6945,-461.4037 151.0117,-471.3379 160.0857,-465.8686 154.6945,-461.4037"/>
</g>
<!-- Node3 -->
<g id="node4" class="node">
<title>Node3</title>
<g id="a_node4"><a xlink:href="interfaceene_1_1interfaces_1_1View.html" target="_top" xlink:title="{ene::interfaces::View\l\&lt; CoreComponentType \&gt;\n||+ setTitle()\l+ getTitle()\l+ setCoreComponent()\l+ getCoreComponent()\l+ setLayoutPosition()\l+ getLayoutPosition()\l+ render()\l}">
<polygon fill="none" stroke="#000000" points="338.5,-460.5 338.5,-594.5 466.5,-594.5 466.5,-460.5 338.5,-460.5"/>
<text text-anchor="start" x="346.5" y="-582.5" font-family="Helvetica,sans-Serif" font-size="10.00" fill="#000000">ene::interfaces::View</text>
<text text-anchor="middle" x="402.5" y="-571.5" font-family="Helvetica,sans-Serif" font-size="10.00" fill="#000000">&lt; CoreComponentType &gt;</text>
<polyline fill="none" stroke="#000000" points="338.5,-564.5 466.5,-564.5 "/>
<text text-anchor="middle" x="402.5" y="-552.5" font-family="Helvetica,sans-Serif" font-size="10.00" fill="#000000"> </text>
<polyline fill="none" stroke="#000000" points="338.5,-545.5 466.5,-545.5 "/>
<text text-anchor="start" x="346.5" y="-533.5" font-family="Helvetica,sans-Serif" font-size="10.00" fill="#000000">+ setTitle()</text>
<text text-anchor="start" x="346.5" y="-522.5" font-family="Helvetica,sans-Serif" font-size="10.00" fill="#000000">+ getTitle()</text>
<text text-anchor="start" x="346.5" y="-511.5" font-family="Helvetica,sans-Serif" font-size="10.00" fill="#000000">+ setCoreComponent()</text>
<text text-anchor="start" x="346.5" y="-500.5" font-family="Helvetica,sans-Serif" font-size="10.00" fill="#000000">+ getCoreComponent()</text>
<text text-anchor="start" x="346.5" y="-489.5" font-family="Helvetica,sans-Serif" font-size="10.00" fill="#000000">+ setLayoutPosition()</text>
<text text-anchor="start" x="346.5" y="-478.5" font-family="Helvetica,sans-Serif" font-size="10.00" fill="#000000">+ getLayoutPosition()</text>
<text text-anchor="start" x="346.5" y="-467.5" font-family="Helvetica,sans-Serif" font-size="10.00" fill="#000000">+ render()</text>
</a>
</g>
</g>
<!-- Node3&#45;&gt;Node1 -->
<g id="edge3" class="edge">
<title>Node3&#45;&gt;Node1</title>
<path fill="none" stroke="#191970" d="M338.6947,-452.4971C330.2533,-442.5742 321.612,-432.4164 313.2068,-422.5361"/>
<polygon fill="none" stroke="#191970" points="336.2679,-455.046 345.4134,-460.3949 341.5996,-450.5102 336.2679,-455.046"/>
</g>
<!-- Node5 -->
<g id="node6" class="node">
<title>Node5</title>
<g id="a_node6"><a xlink:href="interfaceene_1_1interfaces_1_1MasterView.html" target="_top" xlink:title="{ene::interfaces::MasterView\l\&lt; CoreComponentType \&gt;\n||+ addView()\l+ setAllViews()\l+ getAllViews()\l}">
<polygon fill="none" stroke="#000000" points="334,-305 334,-395 473,-395 473,-305 334,-305"/>
<text text-anchor="start" x="342" y="-383" font-family="Helvetica,sans-Serif" font-size="10.00" fill="#000000">ene::interfaces::MasterView</text>
<text text-anchor="middle" x="403.5" y="-372" font-family="Helvetica,sans-Serif" font-size="10.00" fill="#000000">&lt; CoreComponentType &gt;</text>
<polyline fill="none" stroke="#000000" points="334,-365 473,-365 "/>
<text text-anchor="middle" x="403.5" y="-353" font-family="Helvetica,sans-Serif" font-size="10.00" fill="#000000"> </text>
<polyline fill="none" stroke="#000000" points="334,-346 473,-346 "/>
<text text-anchor="start" x="342" y="-334" font-family="Helvetica,sans-Serif" font-size="10.00" fill="#000000">+ addView()</text>
<text text-anchor="start" x="342" y="-323" font-family="Helvetica,sans-Serif" font-size="10.00" fill="#000000">+ setAllViews()</text>
<text text-anchor="start" x="342" y="-312" font-family="Helvetica,sans-Serif" font-size="10.00" fill="#000000">+ getAllViews()</text>
</a>
</g>
</g>
<!-- Node3&#45;&gt;Node5 -->
<g id="edge6" class="edge">
<title>Node3&#45;&gt;Node5</title>
<path fill="none" stroke="#191970" d="M402.9348,-450.3251C403.0409,-431.4841 403.1511,-411.935 403.2456,-395.153"/>
<polygon fill="none" stroke="#191970" points="399.4345,-450.3753 402.8781,-460.3949 406.4344,-450.4148 399.4345,-450.3753"/>
</g>
<!-- Node4 -->
<g id="node5" class="node">
<title>Node4</title>
<g id="a_node5"><a xlink:href="interfaceene_1_1interfaces_1_1Localization.html" target="_top" xlink:title="{ene.interfaces.Localization\n|+ DEFAULT_LOCALE\l|+ getString()\l}">
<polygon fill="none" stroke="#000000" points="186,-499 186,-556 319,-556 319,-499 186,-499"/>
<text text-anchor="middle" x="252.5" y="-544" font-family="Helvetica,sans-Serif" font-size="10.00" fill="#000000">ene.interfaces.Localization</text>
<polyline fill="none" stroke="#000000" points="186,-537 319,-537 "/>
<text text-anchor="start" x="194" y="-525" font-family="Helvetica,sans-Serif" font-size="10.00" fill="#000000">+ DEFAULT_LOCALE</text>
<polyline fill="none" stroke="#000000" points="186,-518 319,-518 "/>
<text text-anchor="start" x="194" y="-506" font-family="Helvetica,sans-Serif" font-size="10.00" fill="#000000">+ getString()</text>
</a>
</g>
</g>
<!-- Node4&#45;&gt;Node1 -->
<g id="edge4" class="edge">
<title>Node4&#45;&gt;Node1</title>
<path fill="none" stroke="#191970" d="M252.2818,-488.7744C252.173,-469.4628 252.0378,-445.4585 251.9105,-422.8723"/>
<polygon fill="none" stroke="#191970" points="248.783,-489.0015 252.3393,-498.9816 255.7828,-488.962 248.783,-489.0015"/>
</g>
<!-- Node5&#45;&gt;Node0 -->
<g id="edge5" class="edge">
<title>Node5&#45;&gt;Node0</title>
<path fill="none" stroke="#191970" d="M376.5313,-295.5372C367.4931,-277.2847 357.5208,-257.1459 348.8734,-239.6827"/>
<polygon fill="none" stroke="#191970" points="373.4473,-297.1966 381.0214,-304.6049 379.7204,-294.0903 373.4473,-297.1966"/>
</g>
</g>
</svg>
