<?xml version="1.0" encoding="UTF-8" standalone="no"?>
<!DOCTYPE svg PUBLIC "-//W3C//DTD SVG 1.1//EN"
 "http://www.w3.org/Graphics/SVG/1.1/DTD/svg11.dtd">
<!-- Generated by graphviz version 2.40.1 (20161225.0304)
 -->
<!-- Title: ene.models.PlayerModel.load Pages: 1 -->
<svg width="523pt" height="190pt"
 viewBox="0.00 0.00 523.00 189.50" xmlns="http://www.w3.org/2000/svg" xmlns:xlink="http://www.w3.org/1999/xlink">
<g id="graph0" class="graph" transform="scale(1 1) rotate(0) translate(4 185.5)">
<title>ene.models.PlayerModel.load</title>
<!-- Node22 -->
<g id="node1" class="node">
<title>Node22</title>
<polygon fill="#bfbfbf" stroke="#000000" points="0,-66.5 0,-85.5 145,-85.5 145,-66.5 0,-66.5"/>
<text text-anchor="middle" x="72.5" y="-73.5" font-family="Helvetica,sans-Serif" font-size="10.00" fill="#000000">ene.models.PlayerModel.load</text>
</g>
<!-- Node23 -->
<g id="node2" class="node">
<title>Node23</title>
<g id="a_node2"><a xlink:href="classene_1_1AbstractObject.html#aff9619cf289ec83735b6c6ca2c12e020" target="_top" xlink:title="ene.AbstractObject.debug\lInfoAbout">
<polygon fill="none" stroke="#000000" points="195,-127 195,-157 325,-157 325,-127 195,-127"/>
<text text-anchor="start" x="203" y="-145" font-family="Helvetica,sans-Serif" font-size="10.00" fill="#000000">ene.AbstractObject.debug</text>
<text text-anchor="middle" x="260" y="-134" font-family="Helvetica,sans-Serif" font-size="10.00" fill="#000000">InfoAbout</text>
</a>
</g>
</g>
<!-- Node22&#45;&gt;Node23 -->
<g id="edge1" class="edge">
<title>Node22&#45;&gt;Node23</title>
<path fill="none" stroke="#191970" d="M96.9225,-85.6671C118.8218,-94.2303 151.8921,-106.9032 181,-117 187.4834,-119.2489 194.2937,-121.5278 201.0839,-123.7474"/>
<polygon fill="#191970" stroke="#191970" points="200.3857,-127.2 210.9775,-126.9465 202.5394,-120.5395 200.3857,-127.2"/>
</g>
<!-- Node26 -->
<g id="node5" class="node">
<title>Node26</title>
<g id="a_node5"><a xlink:href="classene_1_1models_1_1PlayerModel.html#aa03431aa1bae96eacf2019c56fd18f45" target="_top" xlink:title="ene.models.PlayerModel.getClip">
<polygon fill="none" stroke="#000000" points="181,-88.5 181,-107.5 339,-107.5 339,-88.5 181,-88.5"/>
<text text-anchor="middle" x="260" y="-95.5" font-family="Helvetica,sans-Serif" font-size="10.00" fill="#000000">ene.models.PlayerModel.getClip</text>
</a>
</g>
</g>
<!-- Node22&#45;&gt;Node26 -->
<g id="edge4" class="edge">
<title>Node22&#45;&gt;Node26</title>
<path fill="none" stroke="#191970" d="M145.2608,-84.5373C153.6214,-85.5182 162.2167,-86.5268 170.762,-87.5294"/>
<polygon fill="#191970" stroke="#191970" points="170.4135,-91.0124 180.7533,-88.7017 171.2293,-84.0601 170.4135,-91.0124"/>
</g>
<!-- Node27 -->
<g id="node6" class="node">
<title>Node27</title>
<g id="a_node6"><a xlink:href="classene_1_1models_1_1TrackModel.html#aab88fe151b093dba71ad9f9ab5c6959d" target="_top" xlink:title="ene.models.TrackModel.get\lFilename">
<polygon fill="none" stroke="#000000" points="191.5,-39 191.5,-69 328.5,-69 328.5,-39 191.5,-39"/>
<text text-anchor="start" x="199.5" y="-57" font-family="Helvetica,sans-Serif" font-size="10.00" fill="#000000">ene.models.TrackModel.get</text>
<text text-anchor="middle" x="260" y="-46" font-family="Helvetica,sans-Serif" font-size="10.00" fill="#000000">Filename</text>
</a>
</g>
</g>
<!-- Node22&#45;&gt;Node27 -->
<g id="edge5" class="edge">
<title>Node22&#45;&gt;Node27</title>
<path fill="none" stroke="#191970" d="M145.2608,-67.4627C157.0827,-66.0756 169.374,-64.6334 181.3294,-63.2307"/>
<polygon fill="#191970" stroke="#191970" points="181.7512,-66.7053 191.2752,-62.0637 180.9354,-59.753 181.7512,-66.7053"/>
</g>
<!-- Node28 -->
<g id="node7" class="node">
<title>Node28</title>
<g id="a_node7"><a xlink:href="classene_1_1models_1_1PlayerModel.html#a5617391131179365729686dc4eea1ea1" target="_top" xlink:title="ene.models.PlayerModel.setClip">
<polygon fill="none" stroke="#000000" points="181,-.5 181,-19.5 339,-19.5 339,-.5 181,-.5"/>
<text text-anchor="middle" x="260" y="-7.5" font-family="Helvetica,sans-Serif" font-size="10.00" fill="#000000">ene.models.PlayerModel.setClip</text>
</a>
</g>
</g>
<!-- Node22&#45;&gt;Node28 -->
<g id="edge6" class="edge">
<title>Node22&#45;&gt;Node28</title>
<path fill="none" stroke="#191970" d="M91.7044,-66.4739C113.087,-56.1546 148.8736,-39.732 181,-29 188.6096,-26.458 196.7374,-24.1076 204.7774,-21.9893"/>
<polygon fill="#191970" stroke="#191970" points="205.6677,-25.3744 214.5002,-19.5231 203.9466,-18.5892 205.6677,-25.3744"/>
</g>
<!-- Node24 -->
<g id="node3" class="node">
<title>Node24</title>
<g id="a_node3"><a xlink:href="classene_1_1AbstractObject.html#a9ce30d3321c7ce794df2f07bdaf3e47c" target="_top" xlink:title="ene.AbstractObject.console\lOutput">
<polygon fill="none" stroke="#000000" points="376.5,-151 376.5,-181 513.5,-181 513.5,-151 376.5,-151"/>
<text text-anchor="start" x="384.5" y="-169" font-family="Helvetica,sans-Serif" font-size="10.00" fill="#000000">ene.AbstractObject.console</text>
<text text-anchor="middle" x="445" y="-158" font-family="Helvetica,sans-Serif" font-size="10.00" fill="#000000">Output</text>
</a>
</g>
</g>
<!-- Node23&#45;&gt;Node24 -->
<g id="edge2" class="edge">
<title>Node23&#45;&gt;Node24</title>
<path fill="none" stroke="#191970" d="M325.2241,-150.4615C338.4048,-152.1714 352.397,-153.9866 365.9919,-155.7503"/>
<polygon fill="#191970" stroke="#191970" points="365.9233,-159.2707 376.2905,-157.0863 366.8239,-152.3288 365.9233,-159.2707"/>
</g>
<!-- Node25 -->
<g id="node4" class="node">
<title>Node25</title>
<g id="a_node4"><a xlink:href="classene_1_1AbstractObject.html#a6ee0b669069e0c3ee320a6cf41af24fe" target="_top" xlink:title="ene.AbstractObject.isDebug\lModeEnabled">
<polygon fill="none" stroke="#000000" points="375,-102 375,-132 515,-132 515,-102 375,-102"/>
<text text-anchor="start" x="383" y="-120" font-family="Helvetica,sans-Serif" font-size="10.00" fill="#000000">ene.AbstractObject.isDebug</text>
<text text-anchor="middle" x="445" y="-109" font-family="Helvetica,sans-Serif" font-size="10.00" fill="#000000">ModeEnabled</text>
</a>
</g>
</g>
<!-- Node23&#45;&gt;Node25 -->
<g id="edge3" class="edge">
<title>Node23&#45;&gt;Node25</title>
<path fill="none" stroke="#191970" d="M325.2241,-133.1859C337.9903,-131.4608 351.5178,-129.6327 364.7082,-127.8502"/>
<polygon fill="#191970" stroke="#191970" points="365.2699,-131.3062 374.7111,-126.4985 364.3324,-124.3693 365.2699,-131.3062"/>
</g>
</g>
</svg>
