<?xml version="1.0" encoding="UTF-8" standalone="no"?>
<!DOCTYPE svg PUBLIC "-//W3C//DTD SVG 1.1//EN"
 "http://www.w3.org/Graphics/SVG/1.1/DTD/svg11.dtd">
<!-- Generated by graphviz version 2.40.1 (20161225.0304)
 -->
<!-- Title: ene.controllers.PlayerController.changeTrackPosition Pages: 1 -->
<svg width="542pt" height="88pt"
 viewBox="0.00 0.00 542.00 88.00" xmlns="http://www.w3.org/2000/svg" xmlns:xlink="http://www.w3.org/1999/xlink">
<g id="graph0" class="graph" transform="scale(1 1) rotate(0) translate(4 84)">
<title>ene.controllers.PlayerController.changeTrackPosition</title>
<!-- Node5 -->
<g id="node1" class="node">
<title>Node5</title>
<polygon fill="#bfbfbf" stroke="#000000" points="0,-24.5 0,-54.5 188,-54.5 188,-24.5 0,-24.5"/>
<text text-anchor="start" x="8" y="-42.5" font-family="Helvetica,sans-Serif" font-size="10.00" fill="#000000">ene.controllers.PlayerController.change</text>
<text text-anchor="middle" x="94" y="-31.5" font-family="Helvetica,sans-Serif" font-size="10.00" fill="#000000">TrackPosition</text>
</g>
<!-- Node6 -->
<g id="node2" class="node">
<title>Node6</title>
<g id="a_node2"><a xlink:href="classene_1_1views_1_1gui_1_1partial_1_1PlayerView.html#a7e28fb299fee46d221d3224ffb87ea35" target="_top" xlink:title="ene.views.gui.partial.Player\lView.render">
<polygon fill="none" stroke="#000000" points="224,-49.5 224,-79.5 361,-79.5 361,-49.5 224,-49.5"/>
<text text-anchor="start" x="232" y="-67.5" font-family="Helvetica,sans-Serif" font-size="10.00" fill="#000000">ene.views.gui.partial.Player</text>
<text text-anchor="middle" x="292.5" y="-56.5" font-family="Helvetica,sans-Serif" font-size="10.00" fill="#000000">View.render</text>
</a>
</g>
</g>
<!-- Node5&#45;&gt;Node6 -->
<g id="edge1" class="edge">
<title>Node5&#45;&gt;Node6</title>
<path fill="none" stroke="#191970" d="M197.9732,-52.5949C206.7848,-53.7046 215.5467,-54.8082 223.9802,-55.8703"/>
<polygon fill="#191970" stroke="#191970" points="198.3773,-49.1182 188.0183,-51.3411 197.5025,-56.0633 198.3773,-49.1182"/>
</g>
<!-- Node7 -->
<g id="node3" class="node">
<title>Node7</title>
<g id="a_node3"><a xlink:href="classene_1_1views_1_1gui_1_1partial_1_1PlayerView.html#af84e60915df5af5201e75e01a2f9a4a5" target="_top" xlink:title="ene.views.gui.partial.Player\lView.resetProgress">
<polygon fill="none" stroke="#000000" points="224,-.5 224,-30.5 361,-30.5 361,-.5 224,-.5"/>
<text text-anchor="start" x="232" y="-18.5" font-family="Helvetica,sans-Serif" font-size="10.00" fill="#000000">ene.views.gui.partial.Player</text>
<text text-anchor="middle" x="292.5" y="-7.5" font-family="Helvetica,sans-Serif" font-size="10.00" fill="#000000">View.resetProgress</text>
</a>
</g>
</g>
<!-- Node5&#45;&gt;Node7 -->
<g id="edge2" class="edge">
<title>Node5&#45;&gt;Node7</title>
<path fill="none" stroke="#191970" d="M197.9732,-26.9289C206.7848,-25.8635 215.5467,-24.8042 223.9802,-23.7845"/>
<polygon fill="#191970" stroke="#191970" points="197.5258,-23.4574 188.0183,-28.1326 198.3661,-30.4068 197.5258,-23.4574"/>
</g>
<!-- Node8 -->
<g id="node4" class="node">
<title>Node8</title>
<g id="a_node4"><a xlink:href="classene_1_1views_1_1gui_1_1partial_1_1PlayerView.html#a15d3f24a6e52ff6dedb86bb793bb8fa9" target="_top" xlink:title="ene.views.gui.partial.Player\lView.update">
<polygon fill="none" stroke="#000000" points="397,-.5 397,-30.5 534,-30.5 534,-.5 397,-.5"/>
<text text-anchor="start" x="405" y="-18.5" font-family="Helvetica,sans-Serif" font-size="10.00" fill="#000000">ene.views.gui.partial.Player</text>
<text text-anchor="middle" x="465.5" y="-7.5" font-family="Helvetica,sans-Serif" font-size="10.00" fill="#000000">View.update</text>
</a>
</g>
</g>
<!-- Node7&#45;&gt;Node8 -->
<g id="edge3" class="edge">
<title>Node7&#45;&gt;Node8</title>
<path fill="none" stroke="#191970" d="M371.5941,-15.5C380.0314,-15.5 388.5633,-15.5 396.8657,-15.5"/>
<polygon fill="#191970" stroke="#191970" points="371.3713,-12.0001 361.3713,-15.5 371.3712,-19.0001 371.3713,-12.0001"/>
</g>
</g>
</svg>
