<?xml version="1.0" encoding="UTF-8" standalone="no"?>
<!DOCTYPE svg PUBLIC "-//W3C//DTD SVG 1.1//EN"
 "http://www.w3.org/Graphics/SVG/1.1/DTD/svg11.dtd">
<!-- Generated by graphviz version 2.40.1 (20161225.0304)
 -->
<!-- Title: ene.models.PlayerModel.setCurrentTrack Pages: 1 -->
<svg width="529pt" height="116pt"
 viewBox="0.00 0.00 529.00 115.50" xmlns="http://www.w3.org/2000/svg" xmlns:xlink="http://www.w3.org/1999/xlink">
<g id="graph0" class="graph" transform="scale(1 1) rotate(0) translate(4 111.5)">
<title>ene.models.PlayerModel.setCurrentTrack</title>
<!-- Node109 -->
<g id="node1" class="node">
<title>Node109</title>
<polygon fill="#bfbfbf" stroke="#000000" points="0,-33 0,-63 140,-63 140,-33 0,-33"/>
<text text-anchor="start" x="8" y="-51" font-family="Helvetica,sans-Serif" font-size="10.00" fill="#000000">ene.models.PlayerModel.set</text>
<text text-anchor="middle" x="70" y="-40" font-family="Helvetica,sans-Serif" font-size="10.00" fill="#000000">CurrentTrack</text>
</g>
<!-- Node110 -->
<g id="node2" class="node">
<title>Node110</title>
<g id="a_node2"><a xlink:href="classene_1_1models_1_1PlayerModel.html#a2c4655428b658dee3203787415a516a5" target="_top" xlink:title="ene.models.PlayerModel.load">
<polygon fill="none" stroke="#000000" points="176,-38.5 176,-57.5 321,-57.5 321,-38.5 176,-38.5"/>
<text text-anchor="middle" x="248.5" y="-45.5" font-family="Helvetica,sans-Serif" font-size="10.00" fill="#000000">ene.models.PlayerModel.load</text>
</a>
</g>
</g>
<!-- Node109&#45;&gt;Node110 -->
<g id="edge1" class="edge">
<title>Node109&#45;&gt;Node110</title>
<path fill="none" stroke="#191970" d="M150.2951,-48C158.7673,-48 167.3482,-48 175.7283,-48"/>
<polygon fill="#191970" stroke="#191970" points="150.0356,-44.5001 140.0356,-48 150.0356,-51.5001 150.0356,-44.5001"/>
</g>
<!-- Node111 -->
<g id="node3" class="node">
<title>Node111</title>
<g id="a_node3"><a xlink:href="classene_1_1models_1_1PlayerModel.html#acfe1fde39cea80b94ae65ed401706d70" target="_top" xlink:title="ene.models.PlayerModel.load\lPlaylist">
<polygon fill="none" stroke="#000000" points="366.5,-77 366.5,-107 511.5,-107 511.5,-77 366.5,-77"/>
<text text-anchor="start" x="374.5" y="-95" font-family="Helvetica,sans-Serif" font-size="10.00" fill="#000000">ene.models.PlayerModel.load</text>
<text text-anchor="middle" x="439" y="-84" font-family="Helvetica,sans-Serif" font-size="10.00" fill="#000000">Playlist</text>
</a>
</g>
</g>
<!-- Node110&#45;&gt;Node111 -->
<g id="edge2" class="edge">
<title>Node110&#45;&gt;Node111</title>
<path fill="none" stroke="#191970" d="M299.6457,-59.8132C322.4353,-65.0769 349.5477,-71.3391 373.7738,-76.9346"/>
<polygon fill="#191970" stroke="#191970" points="300.3668,-56.3877 289.8357,-57.5473 298.7915,-63.2081 300.3668,-56.3877"/>
</g>
<!-- Node112 -->
<g id="node4" class="node">
<title>Node112</title>
<g id="a_node4"><a xlink:href="classene_1_1models_1_1PlayerModel.html#a384fd9a2e98fc581e8221659257a8dd4" target="_top" xlink:title="ene.models.PlayerModel.next">
<polygon fill="none" stroke="#000000" points="366,-38.5 366,-57.5 512,-57.5 512,-38.5 366,-38.5"/>
<text text-anchor="middle" x="439" y="-45.5" font-family="Helvetica,sans-Serif" font-size="10.00" fill="#000000">ene.models.PlayerModel.next</text>
</a>
</g>
</g>
<!-- Node110&#45;&gt;Node112 -->
<g id="edge3" class="edge">
<title>Node110&#45;&gt;Node112</title>
<path fill="none" stroke="#191970" d="M331.0965,-48C342.6067,-48 354.3679,-48 365.6915,-48"/>
<polygon fill="#191970" stroke="#191970" points="331.0634,-44.5001 321.0633,-48 331.0633,-51.5001 331.0634,-44.5001"/>
</g>
<!-- Node113 -->
<g id="node5" class="node">
<title>Node113</title>
<g id="a_node5"><a xlink:href="classene_1_1models_1_1PlayerModel.html#a7242e20d537405f031ec8d18e7faf8fc" target="_top" xlink:title="ene.models.PlayerModel.previous">
<polygon fill="none" stroke="#000000" points="357,-.5 357,-19.5 521,-19.5 521,-.5 357,-.5"/>
<text text-anchor="middle" x="439" y="-7.5" font-family="Helvetica,sans-Serif" font-size="10.00" fill="#000000">ene.models.PlayerModel.previous</text>
</a>
</g>
</g>
<!-- Node110&#45;&gt;Node113 -->
<g id="edge4" class="edge">
<title>Node110&#45;&gt;Node113</title>
<path fill="none" stroke="#191970" d="M306.7003,-36.3905C333.7938,-30.986 365.625,-24.6365 391.2745,-19.5201"/>
<polygon fill="#191970" stroke="#191970" points="305.6933,-33.0223 296.5712,-38.411 307.0627,-39.8871 305.6933,-33.0223"/>
</g>
</g>
</svg>
