<?xml version="1.0" encoding="UTF-8" standalone="no"?>
<!DOCTYPE svg PUBLIC "-//W3C//DTD SVG 1.1//EN"
 "http://www.w3.org/Graphics/SVG/1.1/DTD/svg11.dtd">
<!-- Generated by graphviz version 2.40.1 (20161225.0304)
 -->
<!-- Title: ene.views.AbstractView.setLayoutPosition Pages: 1 -->
<svg width="324pt" height="137pt"
 viewBox="0.00 0.00 324.00 137.00" xmlns="http://www.w3.org/2000/svg" xmlns:xlink="http://www.w3.org/1999/xlink">
<g id="graph0" class="graph" transform="scale(1 1) rotate(0) translate(4 133)">
<title>ene.views.AbstractView.setLayoutPosition</title>
<!-- Node18 -->
<g id="node1" class="node">
<title>Node18</title>
<polygon fill="#bfbfbf" stroke="#000000" points="0,-49.5 0,-79.5 139,-79.5 139,-49.5 0,-49.5"/>
<text text-anchor="start" x="8" y="-67.5" font-family="Helvetica,sans-Serif" font-size="10.00" fill="#000000">ene.views.AbstractView.set</text>
<text text-anchor="middle" x="69.5" y="-56.5" font-family="Helvetica,sans-Serif" font-size="10.00" fill="#000000">LayoutPosition</text>
</g>
<!-- Node19 -->
<g id="node2" class="node">
<title>Node19</title>
<g id="a_node2"><a xlink:href="classene_1_1views_1_1gui_1_1partial_1_1LibraryView.html#a6411fbda85767fc960a3f57677e16f26" target="_top" xlink:title="ene.views.gui.partial.Library\lView.LibraryView">
<polygon fill="none" stroke="#000000" points="176.5,-98.5 176.5,-128.5 314.5,-128.5 314.5,-98.5 176.5,-98.5"/>
<text text-anchor="start" x="184.5" y="-116.5" font-family="Helvetica,sans-Serif" font-size="10.00" fill="#000000">ene.views.gui.partial.Library</text>
<text text-anchor="middle" x="245.5" y="-105.5" font-family="Helvetica,sans-Serif" font-size="10.00" fill="#000000">View.LibraryView</text>
</a>
</g>
</g>
<!-- Node18&#45;&gt;Node19 -->
<g id="edge1" class="edge">
<title>Node18&#45;&gt;Node19</title>
<path fill="none" stroke="#191970" d="M133.511,-82.3212C152.5137,-87.6118 173.1322,-93.3522 191.4372,-98.4484"/>
<polygon fill="#191970" stroke="#191970" points="134.3143,-78.9118 123.7419,-79.6014 132.4368,-85.6554 134.3143,-78.9118"/>
</g>
<!-- Node20 -->
<g id="node3" class="node">
<title>Node20</title>
<g id="a_node3"><a xlink:href="classene_1_1views_1_1gui_1_1partial_1_1PlayerView.html#a87a7a4837fc2b68df6bf06984881a7ea" target="_top" xlink:title="ene.views.gui.partial.Player\lView.PlayerView">
<polygon fill="none" stroke="#000000" points="177,-49.5 177,-79.5 314,-79.5 314,-49.5 177,-49.5"/>
<text text-anchor="start" x="185" y="-67.5" font-family="Helvetica,sans-Serif" font-size="10.00" fill="#000000">ene.views.gui.partial.Player</text>
<text text-anchor="middle" x="245.5" y="-56.5" font-family="Helvetica,sans-Serif" font-size="10.00" fill="#000000">View.PlayerView</text>
</a>
</g>
</g>
<!-- Node18&#45;&gt;Node20 -->
<g id="edge2" class="edge">
<title>Node18&#45;&gt;Node20</title>
<path fill="none" stroke="#191970" d="M149.3208,-64.5C158.4727,-64.5 167.7437,-64.5 176.7331,-64.5"/>
<polygon fill="#191970" stroke="#191970" points="149.0599,-61.0001 139.0599,-64.5 149.0598,-68.0001 149.0599,-61.0001"/>
</g>
<!-- Node21 -->
<g id="node4" class="node">
<title>Node21</title>
<g id="a_node4"><a xlink:href="classene_1_1views_1_1gui_1_1partial_1_1PlaylistView.html#acba54350f264fe81771e766ab3fbffde" target="_top" xlink:title="ene.views.gui.partial.Playlist\lView.PlaylistView">
<polygon fill="none" stroke="#000000" points="175,-.5 175,-30.5 316,-30.5 316,-.5 175,-.5"/>
<text text-anchor="start" x="183" y="-18.5" font-family="Helvetica,sans-Serif" font-size="10.00" fill="#000000">ene.views.gui.partial.Playlist</text>
<text text-anchor="middle" x="245.5" y="-7.5" font-family="Helvetica,sans-Serif" font-size="10.00" fill="#000000">View.PlaylistView</text>
</a>
</g>
</g>
<!-- Node18&#45;&gt;Node21 -->
<g id="edge3" class="edge">
<title>Node18&#45;&gt;Node21</title>
<path fill="none" stroke="#191970" d="M133.511,-46.6788C152.5137,-41.3882 173.1322,-35.6478 191.4372,-30.5516"/>
<polygon fill="#191970" stroke="#191970" points="132.4368,-43.3446 123.7419,-49.3986 134.3143,-50.0882 132.4368,-43.3446"/>
</g>
</g>
</svg>
