<?xml version="1.0" encoding="UTF-8" standalone="no"?>
<!DOCTYPE svg PUBLIC "-//W3C//DTD SVG 1.1//EN"
 "http://www.w3.org/Graphics/SVG/1.1/DTD/svg11.dtd">
<!-- Generated by graphviz version 2.40.1 (20161225.0304)
 -->
<!-- Title: ene.controllers.PlayerController.togglePlayback Pages: 1 -->
<svg width="373pt" height="186pt"
 viewBox="0.00 0.00 373.00 186.00" xmlns="http://www.w3.org/2000/svg" xmlns:xlink="http://www.w3.org/1999/xlink">
<g id="graph0" class="graph" transform="scale(1 1) rotate(0) translate(4 182)">
<title>ene.controllers.PlayerController.togglePlayback</title>
<!-- Node28 -->
<g id="node1" class="node">
<title>Node28</title>
<polygon fill="#bfbfbf" stroke="#000000" points="0,-73.5 0,-103.5 182,-103.5 182,-73.5 0,-73.5"/>
<text text-anchor="start" x="8" y="-91.5" font-family="Helvetica,sans-Serif" font-size="10.00" fill="#000000">ene.controllers.PlayerController.toggle</text>
<text text-anchor="middle" x="91" y="-80.5" font-family="Helvetica,sans-Serif" font-size="10.00" fill="#000000">Playback</text>
</g>
<!-- Node29 -->
<g id="node2" class="node">
<title>Node29</title>
<g id="a_node2"><a xlink:href="classene_1_1views_1_1gui_1_1partial_1_1PlaylistView.html#a108f11521a24d840a4aeb31190c0a34e" target="_top" xlink:title="ene.views.gui.partial.Playlist\lView.mousePressed">
<polygon fill="none" stroke="#000000" points="221,-147.5 221,-177.5 362,-177.5 362,-147.5 221,-147.5"/>
<text text-anchor="start" x="229" y="-165.5" font-family="Helvetica,sans-Serif" font-size="10.00" fill="#000000">ene.views.gui.partial.Playlist</text>
<text text-anchor="middle" x="291.5" y="-154.5" font-family="Helvetica,sans-Serif" font-size="10.00" fill="#000000">View.mousePressed</text>
</a>
</g>
</g>
<!-- Node28&#45;&gt;Node29 -->
<g id="edge1" class="edge">
<title>Node28&#45;&gt;Node29</title>
<path fill="none" stroke="#191970" d="M137.024,-107.3823C161.0305,-117.0372 190.9564,-128.7709 218,-138.5 226.3364,-141.4991 235.2597,-144.547 243.9132,-147.4192"/>
<polygon fill="#191970" stroke="#191970" points="138.0445,-104.0198 127.4615,-103.5206 135.4233,-110.5105 138.0445,-104.0198"/>
</g>
<!-- Node30 -->
<g id="node3" class="node">
<title>Node30</title>
<g id="a_node3"><a xlink:href="classene_1_1views_1_1gui_1_1partial_1_1AbstractTrackListView.html#ad66634518c60ff157ef83d7dd9d7b4c6" target="_top" xlink:title="ene.views.gui.partial.Abstract\lTrackListView.mousePressed">
<polygon fill="none" stroke="#000000" points="218,-98.5 218,-128.5 365,-128.5 365,-98.5 218,-98.5"/>
<text text-anchor="start" x="226" y="-116.5" font-family="Helvetica,sans-Serif" font-size="10.00" fill="#000000">ene.views.gui.partial.Abstract</text>
<text text-anchor="middle" x="291.5" y="-105.5" font-family="Helvetica,sans-Serif" font-size="10.00" fill="#000000">TrackListView.mousePressed</text>
</a>
</g>
</g>
<!-- Node28&#45;&gt;Node30 -->
<g id="edge2" class="edge">
<title>Node28&#45;&gt;Node30</title>
<path fill="none" stroke="#191970" d="M192.3074,-101.1318C200.9636,-102.2112 209.6093,-103.2892 217.9864,-104.3337"/>
<polygon fill="#191970" stroke="#191970" points="192.5126,-97.6304 182.1564,-99.8661 191.6465,-104.5766 192.5126,-97.6304"/>
</g>
<!-- Node31 -->
<g id="node4" class="node">
<title>Node31</title>
<g id="a_node4"><a xlink:href="classene_1_1views_1_1gui_1_1partial_1_1PlayerView.html#a7e28fb299fee46d221d3224ffb87ea35" target="_top" xlink:title="ene.views.gui.partial.Player\lView.render">
<polygon fill="none" stroke="#000000" points="223,-49.5 223,-79.5 360,-79.5 360,-49.5 223,-49.5"/>
<text text-anchor="start" x="231" y="-67.5" font-family="Helvetica,sans-Serif" font-size="10.00" fill="#000000">ene.views.gui.partial.Player</text>
<text text-anchor="middle" x="291.5" y="-56.5" font-family="Helvetica,sans-Serif" font-size="10.00" fill="#000000">View.render</text>
</a>
</g>
</g>
<!-- Node28&#45;&gt;Node31 -->
<g id="edge3" class="edge">
<title>Node28&#45;&gt;Node31</title>
<path fill="none" stroke="#191970" d="M192.103,-76.3979C202.4887,-75.1547 212.8622,-73.913 222.7776,-72.7261"/>
<polygon fill="#191970" stroke="#191970" points="191.6695,-72.9247 182.1564,-77.5885 192.5015,-79.8751 191.6695,-72.9247"/>
</g>
<!-- Node32 -->
<g id="node5" class="node">
<title>Node32</title>
<g id="a_node5"><a xlink:href="classene_1_1views_1_1gui_1_1partial_1_1PlayerView.html#a15d3f24a6e52ff6dedb86bb793bb8fa9" target="_top" xlink:title="ene.views.gui.partial.Player\lView.update">
<polygon fill="none" stroke="#000000" points="223,-.5 223,-30.5 360,-30.5 360,-.5 223,-.5"/>
<text text-anchor="start" x="231" y="-18.5" font-family="Helvetica,sans-Serif" font-size="10.00" fill="#000000">ene.views.gui.partial.Player</text>
<text text-anchor="middle" x="291.5" y="-7.5" font-family="Helvetica,sans-Serif" font-size="10.00" fill="#000000">View.update</text>
</a>
</g>
</g>
<!-- Node28&#45;&gt;Node32 -->
<g id="edge4" class="edge">
<title>Node28&#45;&gt;Node32</title>
<path fill="none" stroke="#191970" d="M139.2414,-69.8323C162.905,-60.7866 191.8719,-49.8782 218,-40.5 227.1339,-37.2216 236.9439,-33.8097 246.3273,-30.5988"/>
<polygon fill="#191970" stroke="#191970" points="137.8693,-66.6099 129.7837,-73.4563 140.374,-73.1464 137.8693,-66.6099"/>
</g>
</g>
</svg>
