<?xml version="1.0" encoding="UTF-8" standalone="no"?>
<!DOCTYPE svg PUBLIC "-//W3C//DTD SVG 1.1//EN"
 "http://www.w3.org/Graphics/SVG/1.1/DTD/svg11.dtd">
<!-- Generated by graphviz version 2.40.1 (20161225.0304)
 -->
<!-- Title: ene.models.AbstractModel Pages: 1 -->
<svg width="427pt" height="601pt"
 viewBox="0.00 0.00 426.50 601.00" xmlns="http://www.w3.org/2000/svg" xmlns:xlink="http://www.w3.org/1999/xlink">
<g id="graph0" class="graph" transform="scale(1 1) rotate(0) translate(4 597)">
<title>ene.models.AbstractModel</title>
<!-- Node0 -->
<g id="node1" class="node">
<title>Node0</title>
<polygon fill="#bfbfbf" stroke="#000000" points="144.5,-375.5 144.5,-443.5 277.5,-443.5 277.5,-375.5 144.5,-375.5"/>
<text text-anchor="middle" x="211" y="-431.5" font-family="Helvetica,sans-Serif" font-size="10.00" fill="#000000">ene.models.AbstractModel</text>
<polyline fill="none" stroke="#000000" points="144.5,-424.5 277.5,-424.5 "/>
<text text-anchor="start" x="152.5" y="-412.5" font-family="Helvetica,sans-Serif" font-size="10.00" fill="#000000"># views</text>
<polyline fill="none" stroke="#000000" points="144.5,-405.5 277.5,-405.5 "/>
<text text-anchor="start" x="152.5" y="-393.5" font-family="Helvetica,sans-Serif" font-size="10.00" fill="#000000">+ addView()</text>
<text text-anchor="start" x="152.5" y="-382.5" font-family="Helvetica,sans-Serif" font-size="10.00" fill="#000000"># changed()</text>
</g>
<!-- Node3 -->
<g id="node4" class="node">
<title>Node3</title>
<g id="a_node4"><a xlink:href="classene_1_1models_1_1PlayerModel.html" target="_top" xlink:title="{ene.models.PlayerModel\n|~ clip\l~ lastEvent\l~ trackLength\l|+ getClip()\l+ getLastEvent()\l+ getTrackLength()\l+ setTrackPosition()\l+ getTrackPosition()\l+ load()\l+ start()\l+ pause()\l+ update()\l# setClip()\l# setLastEvent()\l}">
<polygon fill="none" stroke="#000000" points="0,-138.5 0,-327.5 124,-327.5 124,-138.5 0,-138.5"/>
<text text-anchor="middle" x="62" y="-315.5" font-family="Helvetica,sans-Serif" font-size="10.00" fill="#000000">ene.models.PlayerModel</text>
<polyline fill="none" stroke="#000000" points="0,-308.5 124,-308.5 "/>
<text text-anchor="start" x="8" y="-296.5" font-family="Helvetica,sans-Serif" font-size="10.00" fill="#000000">~ clip</text>
<text text-anchor="start" x="8" y="-285.5" font-family="Helvetica,sans-Serif" font-size="10.00" fill="#000000">~ lastEvent</text>
<text text-anchor="start" x="8" y="-274.5" font-family="Helvetica,sans-Serif" font-size="10.00" fill="#000000">~ trackLength</text>
<polyline fill="none" stroke="#000000" points="0,-267.5 124,-267.5 "/>
<text text-anchor="start" x="8" y="-255.5" font-family="Helvetica,sans-Serif" font-size="10.00" fill="#000000">+ getClip()</text>
<text text-anchor="start" x="8" y="-244.5" font-family="Helvetica,sans-Serif" font-size="10.00" fill="#000000">+ getLastEvent()</text>
<text text-anchor="start" x="8" y="-233.5" font-family="Helvetica,sans-Serif" font-size="10.00" fill="#000000">+ getTrackLength()</text>
<text text-anchor="start" x="8" y="-222.5" font-family="Helvetica,sans-Serif" font-size="10.00" fill="#000000">+ setTrackPosition()</text>
<text text-anchor="start" x="8" y="-211.5" font-family="Helvetica,sans-Serif" font-size="10.00" fill="#000000">+ getTrackPosition()</text>
<text text-anchor="start" x="8" y="-200.5" font-family="Helvetica,sans-Serif" font-size="10.00" fill="#000000">+ load()</text>
<text text-anchor="start" x="8" y="-189.5" font-family="Helvetica,sans-Serif" font-size="10.00" fill="#000000">+ start()</text>
<text text-anchor="start" x="8" y="-178.5" font-family="Helvetica,sans-Serif" font-size="10.00" fill="#000000">+ pause()</text>
<text text-anchor="start" x="8" y="-167.5" font-family="Helvetica,sans-Serif" font-size="10.00" fill="#000000">+ update()</text>
<text text-anchor="start" x="8" y="-156.5" font-family="Helvetica,sans-Serif" font-size="10.00" fill="#000000"># setClip()</text>
<text text-anchor="start" x="8" y="-145.5" font-family="Helvetica,sans-Serif" font-size="10.00" fill="#000000"># setLastEvent()</text>
</a>
</g>
</g>
<!-- Node0&#45;&gt;Node3 -->
<g id="edge3" class="edge">
<title>Node0&#45;&gt;Node3</title>
<path fill="none" stroke="#191970" d="M161.9001,-368.4981C151.8902,-359.2284 141.7534,-349.122 133,-339 129.8125,-335.3142 126.6486,-331.479 123.5276,-327.5474"/>
<polygon fill="none" stroke="#191970" points="159.7507,-371.2741 169.505,-375.4099 164.4588,-366.094 159.7507,-371.2741"/>
</g>
<!-- Node4 -->
<g id="node5" class="node">
<title>Node4</title>
<g id="a_node5"><a xlink:href="classene_1_1models_1_1TrackListModel.html" target="_top" xlink:title="{ene.models.TrackListModel\n|# tracks\l|+ add()\l+ remove()\l+ get()\l+ getAll()\l}">
<polygon fill="none" stroke="#000000" points="142.5,-188 142.5,-278 279.5,-278 279.5,-188 142.5,-188"/>
<text text-anchor="middle" x="211" y="-266" font-family="Helvetica,sans-Serif" font-size="10.00" fill="#000000">ene.models.TrackListModel</text>
<polyline fill="none" stroke="#000000" points="142.5,-259 279.5,-259 "/>
<text text-anchor="start" x="150.5" y="-247" font-family="Helvetica,sans-Serif" font-size="10.00" fill="#000000"># tracks</text>
<polyline fill="none" stroke="#000000" points="142.5,-240 279.5,-240 "/>
<text text-anchor="start" x="150.5" y="-228" font-family="Helvetica,sans-Serif" font-size="10.00" fill="#000000">+ add()</text>
<text text-anchor="start" x="150.5" y="-217" font-family="Helvetica,sans-Serif" font-size="10.00" fill="#000000">+ remove()</text>
<text text-anchor="start" x="150.5" y="-206" font-family="Helvetica,sans-Serif" font-size="10.00" fill="#000000">+ get()</text>
<text text-anchor="start" x="150.5" y="-195" font-family="Helvetica,sans-Serif" font-size="10.00" fill="#000000">+ getAll()</text>
</a>
</g>
</g>
<!-- Node0&#45;&gt;Node4 -->
<g id="edge4" class="edge">
<title>Node0&#45;&gt;Node4</title>
<path fill="none" stroke="#191970" d="M211,-365.3045C211,-338.7471 211,-305.0305 211,-278.2812"/>
<polygon fill="none" stroke="#191970" points="207.5001,-365.469 211,-375.469 214.5001,-365.4691 207.5001,-365.469"/>
</g>
<!-- Node7 -->
<g id="node8" class="node">
<title>Node7</title>
<g id="a_node8"><a xlink:href="classene_1_1models_1_1TrackModel.html" target="_top" xlink:title="{ene.models.TrackModel\n|# filename\l# artist\l# title\l# genre\l|+ getFilename()\l+ setFilename()\l+ getArtist()\l+ setArtist()\l+ getTitle()\l+ setTitle()\l+ getGenre()\l+ setGenre()\l+ TrackModel()\l+ toString()\l+ detectArtist()\l+ detectTitle()\l}">
<polygon fill="none" stroke="#000000" points="297.5,-127.5 297.5,-338.5 418.5,-338.5 418.5,-127.5 297.5,-127.5"/>
<text text-anchor="middle" x="358" y="-326.5" font-family="Helvetica,sans-Serif" font-size="10.00" fill="#000000">ene.models.TrackModel</text>
<polyline fill="none" stroke="#000000" points="297.5,-319.5 418.5,-319.5 "/>
<text text-anchor="start" x="305.5" y="-307.5" font-family="Helvetica,sans-Serif" font-size="10.00" fill="#000000"># filename</text>
<text text-anchor="start" x="305.5" y="-296.5" font-family="Helvetica,sans-Serif" font-size="10.00" fill="#000000"># artist</text>
<text text-anchor="start" x="305.5" y="-285.5" font-family="Helvetica,sans-Serif" font-size="10.00" fill="#000000"># title</text>
<text text-anchor="start" x="305.5" y="-274.5" font-family="Helvetica,sans-Serif" font-size="10.00" fill="#000000"># genre</text>
<polyline fill="none" stroke="#000000" points="297.5,-267.5 418.5,-267.5 "/>
<text text-anchor="start" x="305.5" y="-255.5" font-family="Helvetica,sans-Serif" font-size="10.00" fill="#000000">+ getFilename()</text>
<text text-anchor="start" x="305.5" y="-244.5" font-family="Helvetica,sans-Serif" font-size="10.00" fill="#000000">+ setFilename()</text>
<text text-anchor="start" x="305.5" y="-233.5" font-family="Helvetica,sans-Serif" font-size="10.00" fill="#000000">+ getArtist()</text>
<text text-anchor="start" x="305.5" y="-222.5" font-family="Helvetica,sans-Serif" font-size="10.00" fill="#000000">+ setArtist()</text>
<text text-anchor="start" x="305.5" y="-211.5" font-family="Helvetica,sans-Serif" font-size="10.00" fill="#000000">+ getTitle()</text>
<text text-anchor="start" x="305.5" y="-200.5" font-family="Helvetica,sans-Serif" font-size="10.00" fill="#000000">+ setTitle()</text>
<text text-anchor="start" x="305.5" y="-189.5" font-family="Helvetica,sans-Serif" font-size="10.00" fill="#000000">+ getGenre()</text>
<text text-anchor="start" x="305.5" y="-178.5" font-family="Helvetica,sans-Serif" font-size="10.00" fill="#000000">+ setGenre()</text>
<text text-anchor="start" x="305.5" y="-167.5" font-family="Helvetica,sans-Serif" font-size="10.00" fill="#000000">+ TrackModel()</text>
<text text-anchor="start" x="305.5" y="-156.5" font-family="Helvetica,sans-Serif" font-size="10.00" fill="#000000">+ toString()</text>
<text text-anchor="start" x="305.5" y="-145.5" font-family="Helvetica,sans-Serif" font-size="10.00" fill="#000000">+ detectArtist()</text>
<text text-anchor="start" x="305.5" y="-134.5" font-family="Helvetica,sans-Serif" font-size="10.00" fill="#000000">+ detectTitle()</text>
</a>
</g>
</g>
<!-- Node0&#45;&gt;Node7 -->
<g id="edge7" class="edge">
<title>Node0&#45;&gt;Node7</title>
<path fill="none" stroke="#191970" d="M259.4928,-368.475C269.373,-359.2069 279.3735,-349.1069 288,-339 291.1498,-335.3097 294.2751,-331.4708 297.357,-327.5362"/>
<polygon fill="none" stroke="#191970" points="256.9719,-366.0384 251.9857,-375.3866 261.7132,-371.1882 256.9719,-366.0384"/>
</g>
<!-- Node1 -->
<g id="node2" class="node">
<title>Node1</title>
<g id="a_node2"><a xlink:href="classene_1_1AbstractObject.html" target="_top" xlink:title="{ene.AbstractObject\n|# debugModeEnabled\l|+ enableDebugMode()\l+ disableDebugMode()\l+ isDebugModeEnabled()\l+ debugInfoAbout()\l+ consoleOutput()\l# delay()\l}">
<polygon fill="none" stroke="#000000" points="80.5,-480.5 80.5,-592.5 207.5,-592.5 207.5,-480.5 80.5,-480.5"/>
<text text-anchor="middle" x="144" y="-580.5" font-family="Helvetica,sans-Serif" font-size="10.00" fill="#000000">ene.AbstractObject</text>
<polyline fill="none" stroke="#000000" points="80.5,-573.5 207.5,-573.5 "/>
<text text-anchor="start" x="88.5" y="-561.5" font-family="Helvetica,sans-Serif" font-size="10.00" fill="#000000"># debugModeEnabled</text>
<polyline fill="none" stroke="#000000" points="80.5,-554.5 207.5,-554.5 "/>
<text text-anchor="start" x="88.5" y="-542.5" font-family="Helvetica,sans-Serif" font-size="10.00" fill="#000000">+ enableDebugMode()</text>
<text text-anchor="start" x="88.5" y="-531.5" font-family="Helvetica,sans-Serif" font-size="10.00" fill="#000000">+ disableDebugMode()</text>
<text text-anchor="start" x="88.5" y="-520.5" font-family="Helvetica,sans-Serif" font-size="10.00" fill="#000000">+ isDebugModeEnabled()</text>
<text text-anchor="start" x="88.5" y="-509.5" font-family="Helvetica,sans-Serif" font-size="10.00" fill="#000000">+ debugInfoAbout()</text>
<text text-anchor="start" x="88.5" y="-498.5" font-family="Helvetica,sans-Serif" font-size="10.00" fill="#000000">+ consoleOutput()</text>
<text text-anchor="start" x="88.5" y="-487.5" font-family="Helvetica,sans-Serif" font-size="10.00" fill="#000000"># delay()</text>
</a>
</g>
</g>
<!-- Node1&#45;&gt;Node0 -->
<g id="edge1" class="edge">
<title>Node1&#45;&gt;Node0</title>
<path fill="none" stroke="#191970" d="M178.3919,-471.3094C183.4153,-461.7875 188.4119,-452.3163 192.9295,-443.753"/>
<polygon fill="none" stroke="#191970" points="175.1527,-469.9485 173.5822,-480.4263 181.344,-473.2148 175.1527,-469.9485"/>
</g>
<!-- Node2 -->
<g id="node3" class="node">
<title>Node2</title>
<g id="a_node3"><a xlink:href="interfaceene_1_1interfaces_1_1Model.html" target="_top" xlink:title="{ene.interfaces.Model\n||+ addView()\l}">
<polygon fill="none" stroke="#000000" points="225.5,-508 225.5,-565 332.5,-565 332.5,-508 225.5,-508"/>
<text text-anchor="middle" x="279" y="-553" font-family="Helvetica,sans-Serif" font-size="10.00" fill="#000000">ene.interfaces.Model</text>
<polyline fill="none" stroke="#000000" points="225.5,-546 332.5,-546 "/>
<text text-anchor="middle" x="279" y="-534" font-family="Helvetica,sans-Serif" font-size="10.00" fill="#000000"> </text>
<polyline fill="none" stroke="#000000" points="225.5,-527 332.5,-527 "/>
<text text-anchor="start" x="233.5" y="-515" font-family="Helvetica,sans-Serif" font-size="10.00" fill="#000000">+ addView()</text>
</a>
</g>
</g>
<!-- Node2&#45;&gt;Node0 -->
<g id="edge2" class="edge">
<title>Node2&#45;&gt;Node0</title>
<path fill="none" stroke="#191970" d="M259.0097,-499.1651C249.6272,-481.6419 238.5196,-460.8969 229.3528,-443.7765"/>
<polygon fill="none" stroke="#191970" points="255.9336,-500.835 263.7395,-507.9987 262.1047,-497.5308 255.9336,-500.835"/>
</g>
<!-- Node5 -->
<g id="node6" class="node">
<title>Node5</title>
<g id="a_node6"><a xlink:href="classene_1_1models_1_1LibraryModel.html" target="_top" xlink:title="{ene.models.LibraryModel\n||+ getByArtist()\l+ getByTitle()\l+ getByGenre()\l+ search()\l}">
<polygon fill="none" stroke="#000000" points="76.5,-.5 76.5,-90.5 201.5,-90.5 201.5,-.5 76.5,-.5"/>
<text text-anchor="middle" x="139" y="-78.5" font-family="Helvetica,sans-Serif" font-size="10.00" fill="#000000">ene.models.LibraryModel</text>
<polyline fill="none" stroke="#000000" points="76.5,-71.5 201.5,-71.5 "/>
<text text-anchor="middle" x="139" y="-59.5" font-family="Helvetica,sans-Serif" font-size="10.00" fill="#000000"> </text>
<polyline fill="none" stroke="#000000" points="76.5,-52.5 201.5,-52.5 "/>
<text text-anchor="start" x="84.5" y="-40.5" font-family="Helvetica,sans-Serif" font-size="10.00" fill="#000000">+ getByArtist()</text>
<text text-anchor="start" x="84.5" y="-29.5" font-family="Helvetica,sans-Serif" font-size="10.00" fill="#000000">+ getByTitle()</text>
<text text-anchor="start" x="84.5" y="-18.5" font-family="Helvetica,sans-Serif" font-size="10.00" fill="#000000">+ getByGenre()</text>
<text text-anchor="start" x="84.5" y="-7.5" font-family="Helvetica,sans-Serif" font-size="10.00" fill="#000000">+ search()</text>
</a>
</g>
</g>
<!-- Node4&#45;&gt;Node5 -->
<g id="edge5" class="edge">
<title>Node4&#45;&gt;Node5</title>
<path fill="none" stroke="#191970" d="M189.8983,-178.0477C179.2441,-150.3023 166.476,-117.0521 156.3933,-90.7951"/>
<polygon fill="none" stroke="#191970" points="186.7186,-179.5308 193.5708,-187.6115 193.2533,-177.0214 186.7186,-179.5308"/>
</g>
<!-- Node6 -->
<g id="node7" class="node">
<title>Node6</title>
<g id="a_node7"><a xlink:href="classene_1_1models_1_1PlaylistModel.html" target="_top" xlink:title="{ene.models.PlaylistModel\n|~ name\l|+ setName()\l+ getName()\l}">
<polygon fill="none" stroke="#000000" points="220,-11.5 220,-79.5 348,-79.5 348,-11.5 220,-11.5"/>
<text text-anchor="middle" x="284" y="-67.5" font-family="Helvetica,sans-Serif" font-size="10.00" fill="#000000">ene.models.PlaylistModel</text>
<polyline fill="none" stroke="#000000" points="220,-60.5 348,-60.5 "/>
<text text-anchor="start" x="228" y="-48.5" font-family="Helvetica,sans-Serif" font-size="10.00" fill="#000000">~ name</text>
<polyline fill="none" stroke="#000000" points="220,-41.5 348,-41.5 "/>
<text text-anchor="start" x="228" y="-29.5" font-family="Helvetica,sans-Serif" font-size="10.00" fill="#000000">+ setName()</text>
<text text-anchor="start" x="228" y="-18.5" font-family="Helvetica,sans-Serif" font-size="10.00" fill="#000000">+ getName()</text>
</a>
</g>
</g>
<!-- Node4&#45;&gt;Node6 -->
<g id="edge6" class="edge">
<title>Node4&#45;&gt;Node6</title>
<path fill="none" stroke="#191970" d="M232.4214,-177.9793C244.8229,-146.126 260.0422,-107.0355 270.7234,-79.6009"/>
<polygon fill="none" stroke="#191970" points="229.0379,-177.023 228.6713,-187.6115 235.5609,-179.5627 229.0379,-177.023"/>
</g>
</g>
</svg>
