<?xml version="1.0" encoding="UTF-8" standalone="no"?>
<!DOCTYPE svg PUBLIC "-//W3C//DTD SVG 1.1//EN"
 "http://www.w3.org/Graphics/SVG/1.1/DTD/svg11.dtd">
<!-- Generated by graphviz version 2.40.1 (20161225.0304)
 -->
<!-- Title: ene.databases.SQLDatabase Pages: 1 -->
<svg width="491pt" height="408pt"
 viewBox="0.00 0.00 490.50 408.00" xmlns="http://www.w3.org/2000/svg" xmlns:xlink="http://www.w3.org/1999/xlink">
<g id="graph0" class="graph" transform="scale(1 1) rotate(0) translate(4 404)">
<title>ene.databases.SQLDatabase</title>
<!-- Node3 -->
<g id="node1" class="node">
<title>Node3</title>
<polygon fill="#bfbfbf" stroke="#000000" points="227,-.5 227,-134.5 372,-134.5 372,-.5 227,-.5"/>
<text text-anchor="middle" x="299.5" y="-122.5" font-family="Helvetica,sans-Serif" font-size="10.00" fill="#000000">ene.databases.SQLDatabase</text>
<polyline fill="none" stroke="#000000" points="227,-115.5 372,-115.5 "/>
<text text-anchor="middle" x="299.5" y="-103.5" font-family="Helvetica,sans-Serif" font-size="10.00" fill="#000000"> </text>
<polyline fill="none" stroke="#000000" points="227,-96.5 372,-96.5 "/>
<text text-anchor="start" x="235" y="-84.5" font-family="Helvetica,sans-Serif" font-size="10.00" fill="#000000">+ SQLDatabase()</text>
<text text-anchor="start" x="235" y="-73.5" font-family="Helvetica,sans-Serif" font-size="10.00" fill="#000000">+ SQLDatabase()</text>
<text text-anchor="start" x="235" y="-62.5" font-family="Helvetica,sans-Serif" font-size="10.00" fill="#000000">+ execute()</text>
<text text-anchor="start" x="235" y="-51.5" font-family="Helvetica,sans-Serif" font-size="10.00" fill="#000000">+ query()</text>
<text text-anchor="start" x="235" y="-40.5" font-family="Helvetica,sans-Serif" font-size="10.00" fill="#000000"># setConnection()</text>
<text text-anchor="start" x="235" y="-29.5" font-family="Helvetica,sans-Serif" font-size="10.00" fill="#000000"># getConnection()</text>
<text text-anchor="start" x="235" y="-18.5" font-family="Helvetica,sans-Serif" font-size="10.00" fill="#000000"># setStatement()</text>
<text text-anchor="start" x="235" y="-7.5" font-family="Helvetica,sans-Serif" font-size="10.00" fill="#000000"># getStatement()</text>
</g>
<!-- Node4 -->
<g id="node2" class="node">
<title>Node4</title>
<g id="a_node2"><a xlink:href="classene_1_1AbstractObject.html" target="_top" xlink:title="{ene.AbstractObject\n||+ enableDebugMode()\l+ disableDebugMode()\l+ isDebugModeEnabled()\l+ debugInfoAbout()\l+ consoleOutput()\l# delay()\l}">
<polygon fill="none" stroke="#000000" points="0,-182.5 0,-294.5 127,-294.5 127,-182.5 0,-182.5"/>
<text text-anchor="middle" x="63.5" y="-282.5" font-family="Helvetica,sans-Serif" font-size="10.00" fill="#000000">ene.AbstractObject</text>
<polyline fill="none" stroke="#000000" points="0,-275.5 127,-275.5 "/>
<text text-anchor="middle" x="63.5" y="-263.5" font-family="Helvetica,sans-Serif" font-size="10.00" fill="#000000"> </text>
<polyline fill="none" stroke="#000000" points="0,-256.5 127,-256.5 "/>
<text text-anchor="start" x="8" y="-244.5" font-family="Helvetica,sans-Serif" font-size="10.00" fill="#000000">+ enableDebugMode()</text>
<text text-anchor="start" x="8" y="-233.5" font-family="Helvetica,sans-Serif" font-size="10.00" fill="#000000">+ disableDebugMode()</text>
<text text-anchor="start" x="8" y="-222.5" font-family="Helvetica,sans-Serif" font-size="10.00" fill="#000000">+ isDebugModeEnabled()</text>
<text text-anchor="start" x="8" y="-211.5" font-family="Helvetica,sans-Serif" font-size="10.00" fill="#000000">+ debugInfoAbout()</text>
<text text-anchor="start" x="8" y="-200.5" font-family="Helvetica,sans-Serif" font-size="10.00" fill="#000000">+ consoleOutput()</text>
<text text-anchor="start" x="8" y="-189.5" font-family="Helvetica,sans-Serif" font-size="10.00" fill="#000000"># delay()</text>
</a>
</g>
</g>
<!-- Node4&#45;&gt;Node3 -->
<g id="edge1" class="edge">
<title>Node4&#45;&gt;Node3</title>
<path fill="none" stroke="#191970" d="M135.2485,-182.1863C135.3324,-182.1242 135.4162,-182.0621 135.5,-182 164.9408,-160.1976 197.9688,-136.9191 226.6272,-117.084"/>
<polygon fill="none" stroke="#191970" points="133.2572,-179.305 127.3472,-188.0983 137.4508,-184.9097 133.2572,-179.305"/>
</g>
<!-- Node5 -->
<g id="node3" class="node">
<title>Node5</title>
<polygon fill="none" stroke="#bfbfbf" points="25,-342.5 25,-399.5 102,-399.5 102,-342.5 25,-342.5"/>
<text text-anchor="middle" x="63.5" y="-387.5" font-family="Helvetica,sans-Serif" font-size="10.00" fill="#000000">static boolean</text>
<polyline fill="none" stroke="#bfbfbf" points="25,-380.5 102,-380.5 "/>
<text text-anchor="middle" x="63.5" y="-368.5" font-family="Helvetica,sans-Serif" font-size="10.00" fill="#000000"> </text>
<polyline fill="none" stroke="#bfbfbf" points="25,-361.5 102,-361.5 "/>
<text text-anchor="middle" x="63.5" y="-349.5" font-family="Helvetica,sans-Serif" font-size="10.00" fill="#000000"> </text>
</g>
<!-- Node5&#45;&gt;Node4 -->
<g id="edge2" class="edge">
<title>Node5&#45;&gt;Node4</title>
<path fill="none" stroke="#404040" d="M63.5,-342.2495C63.5,-331.8031 63.5,-319.502 63.5,-307.0912"/>
<polygon fill="none" stroke="#404040" points="63.5001,-306.7084 59.5,-300.7085 63.5,-294.7084 67.5,-300.7084 63.5001,-306.7084"/>
<text text-anchor="middle" x="110.5" y="-316" font-family="Helvetica,sans-Serif" font-size="10.00" fill="#000000"> #debugModeEnabled</text>
</g>
<!-- Node6 -->
<g id="node4" class="node">
<title>Node6</title>
<g id="a_node4"><a xlink:href="interfaceene_1_1interfaces_1_1DatabaseConnection.html" target="_top" xlink:title="{ene.interfaces.DatabaseConnection\n||+ execute()\l+ query()\l}">
<polygon fill="none" stroke="#000000" points="145,-204.5 145,-272.5 318,-272.5 318,-204.5 145,-204.5"/>
<text text-anchor="middle" x="231.5" y="-260.5" font-family="Helvetica,sans-Serif" font-size="10.00" fill="#000000">ene.interfaces.DatabaseConnection</text>
<polyline fill="none" stroke="#000000" points="145,-253.5 318,-253.5 "/>
<text text-anchor="middle" x="231.5" y="-241.5" font-family="Helvetica,sans-Serif" font-size="10.00" fill="#000000"> </text>
<polyline fill="none" stroke="#000000" points="145,-234.5 318,-234.5 "/>
<text text-anchor="start" x="153" y="-222.5" font-family="Helvetica,sans-Serif" font-size="10.00" fill="#000000">+ execute()</text>
<text text-anchor="start" x="153" y="-211.5" font-family="Helvetica,sans-Serif" font-size="10.00" fill="#000000">+ query()</text>
</a>
</g>
</g>
<!-- Node6&#45;&gt;Node3 -->
<g id="edge3" class="edge">
<title>Node6&#45;&gt;Node3</title>
<path fill="none" stroke="#191970" d="M248.8817,-194.79C256.1637,-176.478 264.7944,-154.7743 272.8476,-134.523"/>
<polygon fill="none" stroke="#191970" points="245.5403,-193.721 245.0974,-204.3066 252.0449,-196.3077 245.5403,-193.721"/>
</g>
<!-- Node7 -->
<g id="node5" class="node">
<title>Node7</title>
<polygon fill="none" stroke="#bfbfbf" points="336.5,-210 336.5,-267 398.5,-267 398.5,-210 336.5,-210"/>
<text text-anchor="middle" x="367.5" y="-255" font-family="Helvetica,sans-Serif" font-size="10.00" fill="#000000">Statement</text>
<polyline fill="none" stroke="#bfbfbf" points="336.5,-248 398.5,-248 "/>
<text text-anchor="middle" x="367.5" y="-236" font-family="Helvetica,sans-Serif" font-size="10.00" fill="#000000"> </text>
<polyline fill="none" stroke="#bfbfbf" points="336.5,-229 398.5,-229 "/>
<text text-anchor="middle" x="367.5" y="-217" font-family="Helvetica,sans-Serif" font-size="10.00" fill="#000000"> </text>
</g>
<!-- Node7&#45;&gt;Node3 -->
<g id="edge4" class="edge">
<title>Node7&#45;&gt;Node3</title>
<path fill="none" stroke="#404040" d="M356.1183,-209.8784C349.132,-192.31 339.814,-168.8777 330.7571,-146.1025"/>
<polygon fill="none" stroke="#404040" points="330.6358,-145.7973 324.7018,-141.7 326.2016,-134.6466 332.1356,-138.7439 330.6358,-145.7973"/>
<text text-anchor="middle" x="363.5" y="-156" font-family="Helvetica,sans-Serif" font-size="10.00" fill="#000000"> #statement</text>
</g>
<!-- Node8 -->
<g id="node6" class="node">
<title>Node8</title>
<polygon fill="none" stroke="#bfbfbf" points="416.5,-210 416.5,-267 482.5,-267 482.5,-210 416.5,-210"/>
<text text-anchor="middle" x="449.5" y="-255" font-family="Helvetica,sans-Serif" font-size="10.00" fill="#000000">Connection</text>
<polyline fill="none" stroke="#bfbfbf" points="416.5,-248 482.5,-248 "/>
<text text-anchor="middle" x="449.5" y="-236" font-family="Helvetica,sans-Serif" font-size="10.00" fill="#000000"> </text>
<polyline fill="none" stroke="#bfbfbf" points="416.5,-229 482.5,-229 "/>
<text text-anchor="middle" x="449.5" y="-217" font-family="Helvetica,sans-Serif" font-size="10.00" fill="#000000"> </text>
</g>
<!-- Node8&#45;&gt;Node3 -->
<g id="edge5" class="edge">
<title>Node8&#45;&gt;Node3</title>
<path fill="none" stroke="#404040" d="M433.2748,-209.9014C422.8967,-192.6584 408.5863,-170.6842 393.5,-153 389.4866,-148.2955 385.2251,-143.5962 380.818,-138.9572"/>
<polygon fill="none" stroke="#404040" points="380.5756,-138.7092 373.5216,-137.2124 372.1901,-130.1253 379.2442,-131.6221 380.5756,-138.7092"/>
<text text-anchor="middle" x="429.5" y="-156" font-family="Helvetica,sans-Serif" font-size="10.00" fill="#000000"> #connection</text>
</g>
</g>
</svg>
