<?xml version="1.0" encoding="UTF-8" standalone="no"?>
<!DOCTYPE svg PUBLIC "-//W3C//DTD SVG 1.1//EN"
 "http://www.w3.org/Graphics/SVG/1.1/DTD/svg11.dtd">
<!-- Generated by graphviz version 2.40.1 (20161225.0304)
 -->
<!-- Title: ene.views.gui.partial.PlayerView.isCurrentTrackPartOfCurrentPlaylist Pages: 1 -->
<svg width="566pt" height="176pt"
 viewBox="0.00 0.00 566.00 175.50" xmlns="http://www.w3.org/2000/svg" xmlns:xlink="http://www.w3.org/1999/xlink">
<g id="graph0" class="graph" transform="scale(1 1) rotate(0) translate(4 171.5)">
<title>ene.views.gui.partial.PlayerView.isCurrentTrackPartOfCurrentPlaylist</title>
<!-- Node31 -->
<g id="node1" class="node">
<title>Node31</title>
<polygon fill="#bfbfbf" stroke="#000000" points="0,-57.5 0,-98.5 167,-98.5 167,-57.5 0,-57.5"/>
<text text-anchor="start" x="8" y="-86.5" font-family="Helvetica,sans-Serif" font-size="10.00" fill="#000000">ene.views.gui.partial.Player</text>
<text text-anchor="start" x="8" y="-75.5" font-family="Helvetica,sans-Serif" font-size="10.00" fill="#000000">View.isCurrentTrackPartOfCurrent</text>
<text text-anchor="middle" x="83.5" y="-64.5" font-family="Helvetica,sans-Serif" font-size="10.00" fill="#000000">Playlist</text>
</g>
<!-- Node32 -->
<g id="node2" class="node">
<title>Node32</title>
<g id="a_node2"><a xlink:href="classene_1_1models_1_1PlayerModel.html#af4959d7f4ae27ecf932452aa3ebddae5" target="_top" xlink:title="ene.models.PlayerModel.get\lCurrentTrack">
<polygon fill="none" stroke="#000000" points="210.5,-137 210.5,-167 350.5,-167 350.5,-137 210.5,-137"/>
<text text-anchor="start" x="218.5" y="-155" font-family="Helvetica,sans-Serif" font-size="10.00" fill="#000000">ene.models.PlayerModel.get</text>
<text text-anchor="middle" x="280.5" y="-144" font-family="Helvetica,sans-Serif" font-size="10.00" fill="#000000">CurrentTrack</text>
</a>
</g>
</g>
<!-- Node31&#45;&gt;Node32 -->
<g id="edge1" class="edge">
<title>Node31&#45;&gt;Node32</title>
<path fill="none" stroke="#191970" d="M129.6269,-98.5169C151.6439,-107.9956 178.4788,-119.0964 203,-128 208.4282,-129.971 214.1056,-131.9262 219.813,-133.8202"/>
<polygon fill="#191970" stroke="#191970" points="218.8158,-137.1763 229.4081,-136.9418 220.9815,-130.5197 218.8158,-137.1763"/>
</g>
<!-- Node33 -->
<g id="node3" class="node">
<title>Node33</title>
<g id="a_node3"><a xlink:href="classene_1_1models_1_1TrackModel.html#aab88fe151b093dba71ad9f9ab5c6959d" target="_top" xlink:title="ene.models.TrackModel.get\lFilename">
<polygon fill="none" stroke="#000000" points="212,-88 212,-118 349,-118 349,-88 212,-88"/>
<text text-anchor="start" x="220" y="-106" font-family="Helvetica,sans-Serif" font-size="10.00" fill="#000000">ene.models.TrackModel.get</text>
<text text-anchor="middle" x="280.5" y="-95" font-family="Helvetica,sans-Serif" font-size="10.00" fill="#000000">Filename</text>
</a>
</g>
</g>
<!-- Node31&#45;&gt;Node33 -->
<g id="edge2" class="edge">
<title>Node31&#45;&gt;Node33</title>
<path fill="none" stroke="#191970" d="M167.0457,-88.6023C178.5632,-90.0639 190.3599,-91.5609 201.7861,-93.0109"/>
<polygon fill="#191970" stroke="#191970" points="201.3546,-96.4841 211.7157,-94.271 202.2359,-89.5398 201.3546,-96.4841"/>
</g>
<!-- Node34 -->
<g id="node4" class="node">
<title>Node34</title>
<g id="a_node4"><a xlink:href="classene_1_1models_1_1PlayerModel.html#a85b0de48a8e962642825c254f9c47fb0" target="_top" xlink:title="ene.models.PlayerModel.get\lPlaylist">
<polygon fill="none" stroke="#000000" points="210.5,-39 210.5,-69 350.5,-69 350.5,-39 210.5,-39"/>
<text text-anchor="start" x="218.5" y="-57" font-family="Helvetica,sans-Serif" font-size="10.00" fill="#000000">ene.models.PlayerModel.get</text>
<text text-anchor="middle" x="280.5" y="-46" font-family="Helvetica,sans-Serif" font-size="10.00" fill="#000000">Playlist</text>
</a>
</g>
</g>
<!-- Node31&#45;&gt;Node34 -->
<g id="edge3" class="edge">
<title>Node31&#45;&gt;Node34</title>
<path fill="none" stroke="#191970" d="M167.0457,-67.8218C178.1257,-66.472 189.4641,-65.0907 200.4825,-63.7483"/>
<polygon fill="#191970" stroke="#191970" points="200.9915,-67.2123 210.4948,-62.5286 200.1449,-60.2637 200.9915,-67.2123"/>
</g>
<!-- Node35 -->
<g id="node5" class="node">
<title>Node35</title>
<g id="a_node5"><a xlink:href="classene_1_1models_1_1TrackListModel.html#a8e4e0fa1a0a69e1479b62660084fc93c" target="_top" xlink:title="ene.models.TrackListModel.has">
<polygon fill="none" stroke="#000000" points="203,-.5 203,-19.5 358,-19.5 358,-.5 203,-.5"/>
<text text-anchor="middle" x="280.5" y="-7.5" font-family="Helvetica,sans-Serif" font-size="10.00" fill="#000000">ene.models.TrackListModel.has</text>
</a>
</g>
</g>
<!-- Node31&#45;&gt;Node35 -->
<g id="edge4" class="edge">
<title>Node31&#45;&gt;Node35</title>
<path fill="none" stroke="#191970" d="M130.6617,-57.4173C152.4384,-48.3392 178.7842,-37.951 203,-30 211.5371,-27.1969 220.7061,-24.5338 229.6432,-22.1189"/>
<polygon fill="#191970" stroke="#191970" points="230.8077,-25.4317 239.5888,-19.5035 229.0274,-18.6619 230.8077,-25.4317"/>
</g>
<!-- Node36 -->
<g id="node6" class="node">
<title>Node36</title>
<g id="a_node6"><a xlink:href="classene_1_1models_1_1TrackListModel.html#a77a78d6a93e67e544d83bf5f4856d121" target="_top" xlink:title="ene.models.TrackListModel.getAll">
<polygon fill="none" stroke="#000000" points="394,-.5 394,-19.5 558,-19.5 558,-.5 394,-.5"/>
<text text-anchor="middle" x="476" y="-7.5" font-family="Helvetica,sans-Serif" font-size="10.00" fill="#000000">ene.models.TrackListModel.getAll</text>
</a>
</g>
</g>
<!-- Node35&#45;&gt;Node36 -->
<g id="edge5" class="edge">
<title>Node35&#45;&gt;Node36</title>
<path fill="none" stroke="#191970" d="M358.0476,-10C366.4761,-10 375.1142,-10 383.6962,-10"/>
<polygon fill="#191970" stroke="#191970" points="383.729,-13.5001 393.7289,-10 383.7289,-6.5001 383.729,-13.5001"/>
</g>
</g>
</svg>
