<?xml version="1.0" encoding="UTF-8" standalone="no"?>
<!DOCTYPE svg PUBLIC "-//W3C//DTD SVG 1.1//EN"
 "http://www.w3.org/Graphics/SVG/1.1/DTD/svg11.dtd">
<!-- Generated by graphviz version 2.40.1 (20161225.0304)
 -->
<!-- Title: ene.views.gui.partial.PlayerView.getPlayerController Pages: 1 -->
<svg width="491pt" height="110pt"
 viewBox="0.00 0.00 491.00 110.00" xmlns="http://www.w3.org/2000/svg" xmlns:xlink="http://www.w3.org/1999/xlink">
<g id="graph0" class="graph" transform="scale(1 1) rotate(0) translate(4 106)">
<title>ene.views.gui.partial.PlayerView.getPlayerController</title>
<!-- Node27 -->
<g id="node1" class="node">
<title>Node27</title>
<polygon fill="#bfbfbf" stroke="#000000" points="0,-22.5 0,-52.5 137,-52.5 137,-22.5 0,-22.5"/>
<text text-anchor="start" x="8" y="-40.5" font-family="Helvetica,sans-Serif" font-size="10.00" fill="#000000">ene.views.gui.partial.Player</text>
<text text-anchor="middle" x="68.5" y="-29.5" font-family="Helvetica,sans-Serif" font-size="10.00" fill="#000000">View.getPlayerController</text>
</g>
<!-- Node28 -->
<g id="node2" class="node">
<title>Node28</title>
<g id="a_node2"><a xlink:href="classene_1_1views_1_1gui_1_1partial_1_1PlayerView.html#a7e28fb299fee46d221d3224ffb87ea35" target="_top" xlink:title="ene.views.gui.partial.Player\lView.render">
<polygon fill="none" stroke="#000000" points="173,-71.5 173,-101.5 310,-101.5 310,-71.5 173,-71.5"/>
<text text-anchor="start" x="181" y="-89.5" font-family="Helvetica,sans-Serif" font-size="10.00" fill="#000000">ene.views.gui.partial.Player</text>
<text text-anchor="middle" x="241.5" y="-78.5" font-family="Helvetica,sans-Serif" font-size="10.00" fill="#000000">View.render</text>
</a>
</g>
</g>
<!-- Node27&#45;&gt;Node28 -->
<g id="edge1" class="edge">
<title>Node27&#45;&gt;Node28</title>
<path fill="none" stroke="#191970" d="M131.6771,-55.3941C150.2846,-60.6644 170.4483,-66.3755 188.3587,-71.4484"/>
<polygon fill="#191970" stroke="#191970" points="132.3927,-51.9591 121.8173,-52.6014 130.485,-58.6942 132.3927,-51.9591"/>
</g>
<!-- Node29 -->
<g id="node3" class="node">
<title>Node29</title>
<g id="a_node3"><a xlink:href="classene_1_1views_1_1gui_1_1partial_1_1PlayerView.html#af84e60915df5af5201e75e01a2f9a4a5" target="_top" xlink:title="ene.views.gui.partial.Player\lView.resetProgress">
<polygon fill="none" stroke="#000000" points="173,-22.5 173,-52.5 310,-52.5 310,-22.5 173,-22.5"/>
<text text-anchor="start" x="181" y="-40.5" font-family="Helvetica,sans-Serif" font-size="10.00" fill="#000000">ene.views.gui.partial.Player</text>
<text text-anchor="middle" x="241.5" y="-29.5" font-family="Helvetica,sans-Serif" font-size="10.00" fill="#000000">View.resetProgress</text>
</a>
</g>
</g>
<!-- Node27&#45;&gt;Node29 -->
<g id="edge2" class="edge">
<title>Node27&#45;&gt;Node29</title>
<path fill="none" stroke="#191970" d="M147.5941,-37.5C156.0314,-37.5 164.5633,-37.5 172.8657,-37.5"/>
<polygon fill="#191970" stroke="#191970" points="147.3713,-34.0001 137.3713,-37.5 147.3712,-41.0001 147.3713,-34.0001"/>
</g>
<!-- Node30 -->
<g id="node4" class="node">
<title>Node30</title>
<g id="a_node4"><a xlink:href="classene_1_1views_1_1gui_1_1partial_1_1PlayerView.html#a15d3f24a6e52ff6dedb86bb793bb8fa9" target="_top" xlink:title="ene.views.gui.partial.Player\lView.update">
<polygon fill="none" stroke="#000000" points="346,-.5 346,-30.5 483,-30.5 483,-.5 346,-.5"/>
<text text-anchor="start" x="354" y="-18.5" font-family="Helvetica,sans-Serif" font-size="10.00" fill="#000000">ene.views.gui.partial.Player</text>
<text text-anchor="middle" x="414.5" y="-7.5" font-family="Helvetica,sans-Serif" font-size="10.00" fill="#000000">View.update</text>
</a>
</g>
</g>
<!-- Node27&#45;&gt;Node30 -->
<g id="edge4" class="edge">
<title>Node27&#45;&gt;Node30</title>
<path fill="none" stroke="#191970" d="M133.2588,-20.2413C146.3237,-17.4359 160.0295,-14.9703 173,-13.5 231.0139,-6.9237 297.3692,-8.0935 345.8264,-10.5282"/>
<polygon fill="#191970" stroke="#191970" points="132.411,-16.8443 123.4156,-22.4419 133.9383,-23.6757 132.411,-16.8443"/>
</g>
<!-- Node29&#45;&gt;Node30 -->
<g id="edge3" class="edge">
<title>Node29&#45;&gt;Node30</title>
<path fill="none" stroke="#191970" d="M320.316,-27.4772C328.8439,-26.3927 337.4721,-25.2955 345.8657,-24.2281"/>
<polygon fill="#191970" stroke="#191970" points="319.8498,-24.0082 310.3713,-28.7418 320.7329,-30.9522 319.8498,-24.0082"/>
</g>
</g>
</svg>
