<?xml version="1.0" encoding="UTF-8" standalone="no"?>
<!DOCTYPE svg PUBLIC "-//W3C//DTD SVG 1.1//EN"
 "http://www.w3.org/Graphics/SVG/1.1/DTD/svg11.dtd">
<!-- Generated by graphviz version 2.40.1 (20161225.0304)
 -->
<!-- Title: ene.AbstractObject Pages: 1 -->
<svg width="166pt" height="226pt"
 viewBox="0.00 0.00 165.50 226.00" xmlns="http://www.w3.org/2000/svg" xmlns:xlink="http://www.w3.org/1999/xlink">
<g id="graph0" class="graph" transform="scale(1 1) rotate(0) translate(4 222)">
<title>ene.AbstractObject</title>
<!-- Node29 -->
<g id="node1" class="node">
<title>Node29</title>
<polygon fill="#bfbfbf" stroke="#000000" points="0,-.5 0,-112.5 127,-112.5 127,-.5 0,-.5"/>
<text text-anchor="middle" x="63.5" y="-100.5" font-family="Helvetica,sans-Serif" font-size="10.00" fill="#000000">ene.AbstractObject</text>
<polyline fill="none" stroke="#000000" points="0,-93.5 127,-93.5 "/>
<text text-anchor="middle" x="63.5" y="-81.5" font-family="Helvetica,sans-Serif" font-size="10.00" fill="#000000"> </text>
<polyline fill="none" stroke="#000000" points="0,-74.5 127,-74.5 "/>
<text text-anchor="start" x="8" y="-62.5" font-family="Helvetica,sans-Serif" font-size="10.00" fill="#000000">+ enableDebugMode()</text>
<text text-anchor="start" x="8" y="-51.5" font-family="Helvetica,sans-Serif" font-size="10.00" fill="#000000">+ disableDebugMode()</text>
<text text-anchor="start" x="8" y="-40.5" font-family="Helvetica,sans-Serif" font-size="10.00" fill="#000000">+ isDebugModeEnabled()</text>
<text text-anchor="start" x="8" y="-29.5" font-family="Helvetica,sans-Serif" font-size="10.00" fill="#000000">+ debugInfoAbout()</text>
<text text-anchor="start" x="8" y="-18.5" font-family="Helvetica,sans-Serif" font-size="10.00" fill="#000000">+ consoleOutput()</text>
<text text-anchor="start" x="8" y="-7.5" font-family="Helvetica,sans-Serif" font-size="10.00" fill="#000000"># delay()</text>
</g>
<!-- Node30 -->
<g id="node2" class="node">
<title>Node30</title>
<polygon fill="none" stroke="#bfbfbf" points="25,-160.5 25,-217.5 102,-217.5 102,-160.5 25,-160.5"/>
<text text-anchor="middle" x="63.5" y="-205.5" font-family="Helvetica,sans-Serif" font-size="10.00" fill="#000000">static boolean</text>
<polyline fill="none" stroke="#bfbfbf" points="25,-198.5 102,-198.5 "/>
<text text-anchor="middle" x="63.5" y="-186.5" font-family="Helvetica,sans-Serif" font-size="10.00" fill="#000000"> </text>
<polyline fill="none" stroke="#bfbfbf" points="25,-179.5 102,-179.5 "/>
<text text-anchor="middle" x="63.5" y="-167.5" font-family="Helvetica,sans-Serif" font-size="10.00" fill="#000000"> </text>
</g>
<!-- Node30&#45;&gt;Node29 -->
<g id="edge1" class="edge">
<title>Node30&#45;&gt;Node29</title>
<path fill="none" stroke="#404040" d="M63.5,-160.2495C63.5,-149.8031 63.5,-137.502 63.5,-125.0912"/>
<polygon fill="none" stroke="#404040" points="63.5001,-124.7084 59.5,-118.7085 63.5,-112.7084 67.5,-118.7084 63.5001,-124.7084"/>
<text text-anchor="middle" x="110.5" y="-134" font-family="Helvetica,sans-Serif" font-size="10.00" fill="#000000"> #debugModeEnabled</text>
</g>
</g>
</svg>
