<?xml version="1.0" encoding="UTF-8" standalone="no"?>
<!DOCTYPE svg PUBLIC "-//W3C//DTD SVG 1.1//EN"
 "http://www.w3.org/Graphics/SVG/1.1/DTD/svg11.dtd">
<!-- Generated by graphviz version 2.40.1 (20161225.0304)
 -->
<!-- Title: ene.views.gui.partial.LibraryView.render Pages: 1 -->
<svg width="1228pt" height="624pt"
 viewBox="0.00 0.00 1228.00 623.53" xmlns="http://www.w3.org/2000/svg" xmlns:xlink="http://www.w3.org/1999/xlink">
<g id="graph0" class="graph" transform="scale(1 1) rotate(0) translate(4 619.5312)">
<title>ene.views.gui.partial.LibraryView.render</title>
<!-- Node21 -->
<g id="node1" class="node">
<title>Node21</title>
<polygon fill="#bfbfbf" stroke="#000000" points="0,-261.0312 0,-291.0312 138,-291.0312 138,-261.0312 0,-261.0312"/>
<text text-anchor="start" x="8" y="-279.0312" font-family="Helvetica,sans-Serif" font-size="10.00" fill="#000000">ene.views.gui.partial.Library</text>
<text text-anchor="middle" x="69" y="-268.0312" font-family="Helvetica,sans-Serif" font-size="10.00" fill="#000000">View.render</text>
</g>
<!-- Node22 -->
<g id="node2" class="node">
<title>Node22</title>
<g id="a_node2"><a xlink:href="classene_1_1controllers_1_1LibraryController.html#aa0d66e53872a376fe6d456eb070de8d4" target="_top" xlink:title="ene.controllers.LibraryController.add">
<polygon fill="none" stroke="#000000" points="174,-521.5312 174,-540.5312 347,-540.5312 347,-521.5312 174,-521.5312"/>
<text text-anchor="middle" x="260.5" y="-528.5312" font-family="Helvetica,sans-Serif" font-size="10.00" fill="#000000">ene.controllers.LibraryController.add</text>
</a>
</g>
</g>
<!-- Node21&#45;&gt;Node22 -->
<g id="edge1" class="edge">
<title>Node21&#45;&gt;Node22</title>
<path fill="none" stroke="#191970" d="M71.0198,-291.2871C77.4619,-333.5537 101.5439,-452.9338 174,-512.0312 176.033,-513.6893 178.1792,-515.2108 180.4145,-516.6065"/>
<polygon fill="#191970" stroke="#191970" points="178.9534,-519.7934 189.4273,-521.3894 182.2347,-513.6101 178.9534,-519.7934"/>
</g>
<!-- Node36 -->
<g id="node16" class="node">
<title>Node36</title>
<g id="a_node16"><a xlink:href="classene_1_1views_1_1AbstractView.html#a8b774594825c8749280b5b17013ad7dc" target="_top" xlink:title="ene.views.AbstractView.get\lCoreComponent">
<polygon fill="none" stroke="#000000" points="191,-472.0312 191,-502.0312 330,-502.0312 330,-472.0312 191,-472.0312"/>
<text text-anchor="start" x="199" y="-490.0312" font-family="Helvetica,sans-Serif" font-size="10.00" fill="#000000">ene.views.AbstractView.get</text>
<text text-anchor="middle" x="260.5" y="-479.0312" font-family="Helvetica,sans-Serif" font-size="10.00" fill="#000000">CoreComponent</text>
</a>
</g>
</g>
<!-- Node21&#45;&gt;Node36 -->
<g id="edge16" class="edge">
<title>Node21&#45;&gt;Node36</title>
<path fill="none" stroke="#191970" d="M73.1441,-291.2882C83.6547,-327.0246 114.8112,-416.6271 174,-463.0312 176.4357,-464.9407 179.014,-466.6985 181.6983,-468.3165"/>
<polygon fill="#191970" stroke="#191970" points="180.1106,-471.4361 190.5859,-473.0229 183.3865,-465.2499 180.1106,-471.4361"/>
</g>
<!-- Node37 -->
<g id="node17" class="node">
<title>Node37</title>
<g id="a_node17"><a xlink:href="classene_1_1views_1_1gui_1_1partial_1_1LibraryView.html#a54aebe6234a85e8ec433d9836ad02bb4" target="_top" xlink:title="ene.views.gui.partial.Library\lView.getLibraryController">
<polygon fill="none" stroke="#000000" points="191.5,-423.0312 191.5,-453.0312 329.5,-453.0312 329.5,-423.0312 191.5,-423.0312"/>
<text text-anchor="start" x="199.5" y="-441.0312" font-family="Helvetica,sans-Serif" font-size="10.00" fill="#000000">ene.views.gui.partial.Library</text>
<text text-anchor="middle" x="260.5" y="-430.0312" font-family="Helvetica,sans-Serif" font-size="10.00" fill="#000000">View.getLibraryController</text>
</a>
</g>
</g>
<!-- Node21&#45;&gt;Node37 -->
<g id="edge17" class="edge">
<title>Node21&#45;&gt;Node37</title>
<path fill="none" stroke="#191970" d="M76.208,-291.0689C90.6461,-319.5543 125.8992,-381.4396 174,-414.0312 176.5622,-415.7672 179.2475,-417.3784 182.0213,-418.8736"/>
<polygon fill="#191970" stroke="#191970" points="180.6105,-422.0789 191.1388,-423.265 183.6481,-415.7723 180.6105,-422.0789"/>
</g>
<!-- Node38 -->
<g id="node18" class="node">
<title>Node38</title>
<g id="a_node18"><a xlink:href="classene_1_1views_1_1AbstractPartialView.html#afb90f9e02eea94a2fb276d711a67ee36" target="_top" xlink:title="ene.views.AbstractPartial\lView.getModel">
<polygon fill="none" stroke="#000000" points="408.5,-190.0312 408.5,-220.0312 536.5,-220.0312 536.5,-190.0312 408.5,-190.0312"/>
<text text-anchor="start" x="416.5" y="-208.0312" font-family="Helvetica,sans-Serif" font-size="10.00" fill="#000000">ene.views.AbstractPartial</text>
<text text-anchor="middle" x="472.5" y="-197.0312" font-family="Helvetica,sans-Serif" font-size="10.00" fill="#000000">View.getModel</text>
</a>
</g>
</g>
<!-- Node21&#45;&gt;Node38 -->
<g id="edge18" class="edge">
<title>Node21&#45;&gt;Node38</title>
<path fill="none" stroke="#191970" d="M79.3885,-260.7515C96.1334,-237.6526 131.547,-194.7646 174,-178.0312 256.0836,-145.6768 360.3843,-168.027 421.4611,-186.8089"/>
<polygon fill="#191970" stroke="#191970" points="420.6584,-190.2258 431.2483,-189.9025 422.7682,-183.5513 420.6584,-190.2258"/>
</g>
<!-- Node39 -->
<g id="node19" class="node">
<title>Node39</title>
<g id="a_node19"><a xlink:href="classene_1_1views_1_1gui_1_1partial_1_1AbstractTrackListView.html#a35a32113ecdb8bc210fa6b4e9c57c782" target="_top" xlink:title="ene.views.gui.partial.Abstract\lTrackListView.getSelectedFilename">
<polygon fill="none" stroke="#000000" points="174,-374.0312 174,-404.0312 347,-404.0312 347,-374.0312 174,-374.0312"/>
<text text-anchor="start" x="182" y="-392.0312" font-family="Helvetica,sans-Serif" font-size="10.00" fill="#000000">ene.views.gui.partial.Abstract</text>
<text text-anchor="middle" x="260.5" y="-381.0312" font-family="Helvetica,sans-Serif" font-size="10.00" fill="#000000">TrackListView.getSelectedFilename</text>
</a>
</g>
</g>
<!-- Node21&#45;&gt;Node39 -->
<g id="edge19" class="edge">
<title>Node21&#45;&gt;Node39</title>
<path fill="none" stroke="#191970" d="M84.5159,-291.0895C104.0121,-309.316 139.1557,-339.9335 174,-359.0312 181.6967,-363.2496 190.0976,-367.044 198.5407,-370.4011"/>
<polygon fill="#191970" stroke="#191970" points="197.4646,-373.736 208.056,-374.0047 199.9438,-367.1898 197.4646,-373.736"/>
</g>
<!-- Node41 -->
<g id="node21" class="node">
<title>Node41</title>
<g id="a_node21"><a xlink:href="interfaceene_1_1interfaces_1_1Localization.html#ae7d5c65647a8bd1ca0c27b3279b0751c" target="_top" xlink:title="ene.interfaces.Localization.get\lString">
<polygon fill="none" stroke="#000000" points="186,-286.0312 186,-316.0312 335,-316.0312 335,-286.0312 186,-286.0312"/>
<text text-anchor="start" x="194" y="-304.0312" font-family="Helvetica,sans-Serif" font-size="10.00" fill="#000000">ene.interfaces.Localization.get</text>
<text text-anchor="middle" x="260.5" y="-293.0312" font-family="Helvetica,sans-Serif" font-size="10.00" fill="#000000">String</text>
</a>
</g>
</g>
<!-- Node21&#45;&gt;Node41 -->
<g id="edge21" class="edge">
<title>Node21&#45;&gt;Node41</title>
<path fill="none" stroke="#191970" d="M138.1359,-285.0567C150.3936,-286.6569 163.2834,-288.3397 175.9107,-289.9882"/>
<polygon fill="#191970" stroke="#191970" points="175.5952,-293.4766 185.9642,-291.3006 176.5014,-286.5355 175.5952,-293.4766"/>
</g>
<!-- Node42 -->
<g id="node22" class="node">
<title>Node42</title>
<g id="a_node22"><a xlink:href="classene_1_1views_1_1gui_1_1partial_1_1AbstractTrackListView.html#a709dd0b919d5e537076fe18ad992f25f" target="_top" xlink:title="ene.views.gui.partial.Abstract\lTrackListView.getTableContent">
<polygon fill="none" stroke="#000000" points="626,-117.0312 626,-147.0312 780,-147.0312 780,-117.0312 626,-117.0312"/>
<text text-anchor="start" x="634" y="-135.0312" font-family="Helvetica,sans-Serif" font-size="10.00" fill="#000000">ene.views.gui.partial.Abstract</text>
<text text-anchor="middle" x="703" y="-124.0312" font-family="Helvetica,sans-Serif" font-size="10.00" fill="#000000">TrackListView.getTableContent</text>
</a>
</g>
</g>
<!-- Node21&#45;&gt;Node42 -->
<g id="edge22" class="edge">
<title>Node21&#45;&gt;Node42</title>
<path fill="none" stroke="#191970" d="M70.3258,-260.9407C75.0489,-217.5143 95.2652,-92.0884 174,-41.0312 335.7931,63.887 581.6576,-60.2633 669.9726,-111.7157"/>
<polygon fill="#191970" stroke="#191970" points="668.3549,-114.825 678.7462,-116.8918 671.9118,-108.796 668.3549,-114.825"/>
</g>
<!-- Node43 -->
<g id="node23" class="node">
<title>Node43</title>
<g id="a_node23"><a xlink:href="classene_1_1views_1_1gui_1_1partial_1_1AbstractTrackListView.html#a2b9e7e6496c9675f9094dea99e1e469d" target="_top" xlink:title="ene.views.gui.partial.Abstract\lTrackListView.hideColumn">
<polygon fill="none" stroke="#000000" points="187.5,-188.0312 187.5,-218.0312 333.5,-218.0312 333.5,-188.0312 187.5,-188.0312"/>
<text text-anchor="start" x="195.5" y="-206.0312" font-family="Helvetica,sans-Serif" font-size="10.00" fill="#000000">ene.views.gui.partial.Abstract</text>
<text text-anchor="middle" x="260.5" y="-195.0312" font-family="Helvetica,sans-Serif" font-size="10.00" fill="#000000">TrackListView.hideColumn</text>
</a>
</g>
</g>
<!-- Node21&#45;&gt;Node43 -->
<g id="edge23" class="edge">
<title>Node21&#45;&gt;Node43</title>
<path fill="none" stroke="#191970" d="M97.8648,-260.974C118.6541,-250.5245 147.5798,-236.7844 174,-227.0312 179.526,-224.9912 185.3058,-223.0304 191.1441,-221.17"/>
<polygon fill="#191970" stroke="#191970" points="192.4634,-224.4259 200.9901,-218.1373 190.4029,-217.7361 192.4634,-224.4259"/>
</g>
<!-- Node44 -->
<g id="node24" class="node">
<title>Node44</title>
<g id="a_node24"><a xlink:href="classene_1_1views_1_1gui_1_1partial_1_1LibraryView.html#a734cbc08cf36ed3d48cb106b77ecf28b" target="_top" xlink:title="ene.views.gui.partial.Library\lView.loadContent">
<polygon fill="none" stroke="#000000" points="403.5,-325.0312 403.5,-355.0312 541.5,-355.0312 541.5,-325.0312 403.5,-325.0312"/>
<text text-anchor="start" x="411.5" y="-343.0312" font-family="Helvetica,sans-Serif" font-size="10.00" fill="#000000">ene.views.gui.partial.Library</text>
<text text-anchor="middle" x="472.5" y="-332.0312" font-family="Helvetica,sans-Serif" font-size="10.00" fill="#000000">View.loadContent</text>
</a>
</g>
</g>
<!-- Node21&#45;&gt;Node44 -->
<g id="edge24" class="edge">
<title>Node21&#45;&gt;Node44</title>
<path fill="none" stroke="#191970" d="M93.4026,-291.0999C114.0369,-302.9776 144.8193,-318.7154 174,-326.0312 246.545,-344.2186 332.0436,-346.362 392.902,-344.7635"/>
<polygon fill="#191970" stroke="#191970" points="393.3202,-348.2525 403.2095,-344.4509 393.108,-341.2557 393.3202,-348.2525"/>
</g>
<!-- Node45 -->
<g id="node25" class="node">
<title>Node45</title>
<g id="a_node25"><a xlink:href="classene_1_1views_1_1AbstractView.html#aa9bee221c279bc8a9dbada91184d8181" target="_top" xlink:title="ene.views.AbstractView.set\lCoreComponent">
<polygon fill="none" stroke="#000000" points="191,-100.0312 191,-130.0312 330,-130.0312 330,-100.0312 191,-100.0312"/>
<text text-anchor="start" x="199" y="-118.0312" font-family="Helvetica,sans-Serif" font-size="10.00" fill="#000000">ene.views.AbstractView.set</text>
<text text-anchor="middle" x="260.5" y="-107.0312" font-family="Helvetica,sans-Serif" font-size="10.00" fill="#000000">CoreComponent</text>
</a>
</g>
</g>
<!-- Node21&#45;&gt;Node45 -->
<g id="edge30" class="edge">
<title>Node21&#45;&gt;Node45</title>
<path fill="none" stroke="#191970" d="M77.3159,-260.7657C92.8301,-233.6545 128.7511,-176.9593 174,-145.0312 179.893,-140.873 186.4144,-137.2464 193.1565,-134.0935"/>
<polygon fill="#191970" stroke="#191970" points="194.6546,-137.2591 202.4485,-130.0824 191.8802,-130.8323 194.6546,-137.2591"/>
</g>
<!-- Node46 -->
<g id="node26" class="node">
<title>Node46</title>
<g id="a_node26"><a xlink:href="classene_1_1views_1_1gui_1_1partial_1_1AbstractTrackListView.html#a597363a2069558d6801c75be622b1988" target="_top" xlink:title="ene.views.gui.partial.Abstract\lTrackListView.setTable">
<polygon fill="none" stroke="#000000" points="187.5,-51.0312 187.5,-81.0312 333.5,-81.0312 333.5,-51.0312 187.5,-51.0312"/>
<text text-anchor="start" x="195.5" y="-69.0312" font-family="Helvetica,sans-Serif" font-size="10.00" fill="#000000">ene.views.gui.partial.Abstract</text>
<text text-anchor="middle" x="260.5" y="-58.0312" font-family="Helvetica,sans-Serif" font-size="10.00" fill="#000000">TrackListView.setTable</text>
</a>
</g>
</g>
<!-- Node21&#45;&gt;Node46 -->
<g id="edge31" class="edge">
<title>Node21&#45;&gt;Node46</title>
<path fill="none" stroke="#191970" d="M73.1691,-260.8546C83.7338,-225.307 114.9988,-136.179 174,-90.0312 175.7953,-88.6269 177.6678,-87.3048 179.6028,-86.06"/>
<polygon fill="#191970" stroke="#191970" points="181.4458,-89.0391 188.4418,-81.0826 178.011,-82.9397 181.4458,-89.0391"/>
</g>
<!-- Node47 -->
<g id="node27" class="node">
<title>Node47</title>
<g id="a_node27"><a xlink:href="classene_1_1views_1_1gui_1_1partial_1_1LibraryView.html#a363a0a2db7ab4295ef38bb667038a6f8" target="_top" xlink:title="ene.views.gui.partial.Library\lView.update">
<polygon fill="none" stroke="#000000" points="191.5,-237.0312 191.5,-267.0312 329.5,-267.0312 329.5,-237.0312 191.5,-237.0312"/>
<text text-anchor="start" x="199.5" y="-255.0312" font-family="Helvetica,sans-Serif" font-size="10.00" fill="#000000">ene.views.gui.partial.Library</text>
<text text-anchor="middle" x="260.5" y="-244.0312" font-family="Helvetica,sans-Serif" font-size="10.00" fill="#000000">View.update</text>
</a>
</g>
</g>
<!-- Node21&#45;&gt;Node47 -->
<g id="edge32" class="edge">
<title>Node21&#45;&gt;Node47</title>
<path fill="none" stroke="#191970" d="M138.1359,-267.3666C152.1019,-265.6163 166.8885,-263.7631 181.1724,-261.973"/>
<polygon fill="#191970" stroke="#191970" points="181.9785,-265.3994 191.4656,-260.683 181.1079,-258.4538 181.9785,-265.3994"/>
</g>
<!-- Node23 -->
<g id="node3" class="node">
<title>Node23</title>
<g id="a_node3"><a xlink:href="classene_1_1controllers_1_1LibraryController.html#a6bc70daa48b96db79d5524113a49cd3e" target="_top" xlink:title="ene.controllers.LibraryController.add\lDirectoryContent">
<polygon fill="none" stroke="#000000" points="386,-560.0312 386,-590.0312 559,-590.0312 559,-560.0312 386,-560.0312"/>
<text text-anchor="start" x="394" y="-578.0312" font-family="Helvetica,sans-Serif" font-size="10.00" fill="#000000">ene.controllers.LibraryController.add</text>
<text text-anchor="middle" x="472.5" y="-567.0312" font-family="Helvetica,sans-Serif" font-size="10.00" fill="#000000">DirectoryContent</text>
</a>
</g>
</g>
<!-- Node22&#45;&gt;Node23 -->
<g id="edge2" class="edge">
<title>Node22&#45;&gt;Node23</title>
<path fill="none" stroke="#191970" d="M306.5008,-540.5785C330.9023,-545.643 361.6289,-552.0202 389.9926,-557.907"/>
<polygon fill="#191970" stroke="#191970" points="389.4097,-561.3605 399.9123,-559.9658 390.8323,-554.5066 389.4097,-561.3605"/>
</g>
<!-- Node25 -->
<g id="node5" class="node">
<title>Node25</title>
<g id="a_node5"><a xlink:href="classene_1_1controllers_1_1LibraryController.html#a8ebea67eb61c84ee6a4825fa98fe870b" target="_top" xlink:title="ene.controllers.LibraryController.addFile">
<polygon fill="none" stroke="#000000" points="844,-541.5312 844,-560.5312 1033,-560.5312 1033,-541.5312 844,-541.5312"/>
<text text-anchor="middle" x="938.5" y="-548.5312" font-family="Helvetica,sans-Serif" font-size="10.00" fill="#000000">ene.controllers.LibraryController.addFile</text>
</a>
</g>
</g>
<!-- Node22&#45;&gt;Node25 -->
<g id="edge8" class="edge">
<title>Node22&#45;&gt;Node25</title>
<path fill="none" stroke="#191970" d="M347.0578,-533.5845C471.2684,-537.2485 699.7918,-543.9896 833.4932,-547.9336"/>
<polygon fill="#191970" stroke="#191970" points="833.6473,-551.4396 843.7462,-548.2361 833.8538,-544.4426 833.6473,-551.4396"/>
</g>
<!-- Node29 -->
<g id="node9" class="node">
<title>Node29</title>
<g id="a_node9"><a xlink:href="classene_1_1controllers_1_1LibraryController.html#a510cf010821311fd17a441739179e99f" target="_top" xlink:title="ene.controllers.LibraryController.get\lDatabaseFilename">
<polygon fill="none" stroke="#000000" points="387,-472.0312 387,-502.0312 558,-502.0312 558,-472.0312 387,-472.0312"/>
<text text-anchor="start" x="395" y="-490.0312" font-family="Helvetica,sans-Serif" font-size="10.00" fill="#000000">ene.controllers.LibraryController.get</text>
<text text-anchor="middle" x="472.5" y="-479.0312" font-family="Helvetica,sans-Serif" font-size="10.00" fill="#000000">DatabaseFilename</text>
</a>
</g>
</g>
<!-- Node22&#45;&gt;Node29 -->
<g id="edge9" class="edge">
<title>Node22&#45;&gt;Node29</title>
<path fill="none" stroke="#191970" d="M306.5008,-521.4838C330.9023,-516.4193 361.6289,-510.0421 389.9926,-504.1553"/>
<polygon fill="#191970" stroke="#191970" points="390.8323,-507.5557 399.9123,-502.0965 389.4097,-500.7018 390.8323,-507.5557"/>
</g>
<!-- Node30 -->
<g id="node10" class="node">
<title>Node30</title>
<g id="a_node10"><a xlink:href="classene_1_1controllers_1_1LibraryController.html#aa40dceee9b0024082b71ab641a087c2e" target="_top" xlink:title="ene.controllers.LibraryController.save\lToFile">
<polygon fill="none" stroke="#000000" points="383,-423.0312 383,-453.0312 562,-453.0312 562,-423.0312 383,-423.0312"/>
<text text-anchor="start" x="391" y="-441.0312" font-family="Helvetica,sans-Serif" font-size="10.00" fill="#000000">ene.controllers.LibraryController.save</text>
<text text-anchor="middle" x="472.5" y="-430.0312" font-family="Helvetica,sans-Serif" font-size="10.00" fill="#000000">ToFile</text>
</a>
</g>
</g>
<!-- Node22&#45;&gt;Node30 -->
<g id="edge10" class="edge">
<title>Node22&#45;&gt;Node30</title>
<path fill="none" stroke="#191970" d="M327.6563,-521.4361C334.4802,-518.9715 341.0712,-515.8875 347,-512.0312 369.6531,-497.2965 360.7696,-478.3961 383,-463.0312 385.8741,-461.0447 388.9024,-459.2153 392.0383,-457.5308"/>
<polygon fill="#191970" stroke="#191970" points="393.6306,-460.6488 401.1219,-453.1567 390.5935,-454.342 393.6306,-460.6488"/>
</g>
<!-- Node24 -->
<g id="node4" class="node">
<title>Node24</title>
<g id="a_node4"><a xlink:href="classene_1_1controllers_1_1LibraryController.html#a3a8b922c846a9b770b67f478ea0e5352" target="_top" xlink:title="ene.controllers.LibraryController.scan">
<polygon fill="none" stroke="#000000" points="613.5,-562.5312 613.5,-581.5312 792.5,-581.5312 792.5,-562.5312 613.5,-562.5312"/>
<text text-anchor="middle" x="703" y="-569.5312" font-family="Helvetica,sans-Serif" font-size="10.00" fill="#000000">ene.controllers.LibraryController.scan</text>
</a>
</g>
</g>
<!-- Node23&#45;&gt;Node24 -->
<g id="edge3" class="edge">
<title>Node23&#45;&gt;Node24</title>
<path fill="none" stroke="#191970" d="M559.3137,-573.9013C573.6227,-573.715 588.5556,-573.5207 603.1527,-573.3307"/>
<polygon fill="#191970" stroke="#191970" points="603.2394,-576.8299 613.193,-573.2 603.1483,-569.8305 603.2394,-576.8299"/>
</g>
<!-- Node24&#45;&gt;Node25 -->
<g id="edge4" class="edge">
<title>Node24&#45;&gt;Node25</title>
<path fill="none" stroke="#191970" d="M792.7043,-564.032C806.1973,-562.8288 820.212,-561.5791 833.9822,-560.3512"/>
<polygon fill="#191970" stroke="#191970" points="834.3053,-563.8364 843.9549,-559.4619 833.6835,-556.864 834.3053,-563.8364"/>
</g>
<!-- Node26 -->
<g id="node6" class="node">
<title>Node26</title>
<g id="a_node6"><a xlink:href="classene_1_1models_1_1TrackModel.html#ab0db9bf0054a77ed2879695a379e3bd9" target="_top" xlink:title="ene.models.TrackModel.detect\lArtist">
<polygon fill="none" stroke="#000000" points="1069,-585.0312 1069,-615.0312 1220,-615.0312 1220,-585.0312 1069,-585.0312"/>
<text text-anchor="start" x="1077" y="-603.0312" font-family="Helvetica,sans-Serif" font-size="10.00" fill="#000000">ene.models.TrackModel.detect</text>
<text text-anchor="middle" x="1144.5" y="-592.0312" font-family="Helvetica,sans-Serif" font-size="10.00" fill="#000000">Artist</text>
</a>
</g>
</g>
<!-- Node25&#45;&gt;Node26 -->
<g id="edge5" class="edge">
<title>Node25&#45;&gt;Node26</title>
<path fill="none" stroke="#191970" d="M978.7079,-560.5952C1005.016,-566.8529 1040.1618,-575.2129 1071.3225,-582.6249"/>
<polygon fill="#191970" stroke="#191970" points="1070.7449,-586.085 1081.2834,-584.9942 1072.3648,-579.275 1070.7449,-586.085"/>
</g>
<!-- Node27 -->
<g id="node7" class="node">
<title>Node27</title>
<g id="a_node7"><a xlink:href="classene_1_1models_1_1TrackModel.html#a860b368d4cb6d81e7504cbf979c0cad7" target="_top" xlink:title="ene.models.TrackModel.detect\lTitle">
<polygon fill="none" stroke="#000000" points="1069,-536.0312 1069,-566.0312 1220,-566.0312 1220,-536.0312 1069,-536.0312"/>
<text text-anchor="start" x="1077" y="-554.0312" font-family="Helvetica,sans-Serif" font-size="10.00" fill="#000000">ene.models.TrackModel.detect</text>
<text text-anchor="middle" x="1144.5" y="-543.0312" font-family="Helvetica,sans-Serif" font-size="10.00" fill="#000000">Title</text>
</a>
</g>
</g>
<!-- Node25&#45;&gt;Node27 -->
<g id="edge6" class="edge">
<title>Node25&#45;&gt;Node27</title>
<path fill="none" stroke="#191970" d="M1033.0592,-551.0312C1041.5563,-551.0312 1050.1305,-551.0312 1058.5485,-551.0312"/>
<polygon fill="#191970" stroke="#191970" points="1058.7234,-554.5312 1068.7233,-551.0312 1058.7233,-547.5312 1058.7234,-554.5312"/>
</g>
<!-- Node28 -->
<g id="node8" class="node">
<title>Node28</title>
<g id="a_node8"><a xlink:href="classene_1_1controllers_1_1AbstractController.html#a9a5afba01d0004a64db4cb14c23e0bbd" target="_top" xlink:title="ene.controllers.Abstract\lController\&lt; LibraryModel\l \&gt;::getModel">
<polygon fill="none" stroke="#000000" points="1083,-475.5312 1083,-516.5312 1206,-516.5312 1206,-475.5312 1083,-475.5312"/>
<text text-anchor="start" x="1091" y="-504.5312" font-family="Helvetica,sans-Serif" font-size="10.00" fill="#000000">ene.controllers.Abstract</text>
<text text-anchor="start" x="1091" y="-493.5312" font-family="Helvetica,sans-Serif" font-size="10.00" fill="#000000">Controller&lt; LibraryModel</text>
<text text-anchor="middle" x="1144.5" y="-482.5312" font-family="Helvetica,sans-Serif" font-size="10.00" fill="#000000"> &gt;::getModel</text>
</a>
</g>
</g>
<!-- Node25&#45;&gt;Node28 -->
<g id="edge7" class="edge">
<title>Node25&#45;&gt;Node28</title>
<path fill="none" stroke="#191970" d="M974.3825,-541.4509C1001.5561,-534.1958 1039.7689,-523.9933 1073.0955,-515.0955"/>
<polygon fill="#191970" stroke="#191970" points="1074.0479,-518.4639 1082.8066,-512.5027 1072.2422,-511.7008 1074.0479,-518.4639"/>
</g>
<!-- Node31 -->
<g id="node11" class="node">
<title>Node31</title>
<g id="a_node11"><a xlink:href="interfaceene_1_1interfaces_1_1DatabaseConnection.html#aabff21f4c6d43139690fc93cae679e46" target="_top" xlink:title="ene.interfaces.DatabaseConnection.execute">
<polygon fill="none" stroke="#000000" points="598,-472.5312 598,-491.5312 808,-491.5312 808,-472.5312 598,-472.5312"/>
<text text-anchor="middle" x="703" y="-479.5312" font-family="Helvetica,sans-Serif" font-size="10.00" fill="#000000">ene.interfaces.DatabaseConnection.execute</text>
</a>
</g>
</g>
<!-- Node30&#45;&gt;Node31 -->
<g id="edge11" class="edge">
<title>Node30&#45;&gt;Node31</title>
<path fill="none" stroke="#191970" d="M546.783,-453.0534C563.613,-456.3944 581.4126,-459.8785 598,-463.0312 611.2699,-465.5533 625.4986,-468.18 639.0635,-470.6472"/>
<polygon fill="#191970" stroke="#191970" points="638.8165,-474.1594 649.2803,-472.4984 640.0646,-467.2715 638.8165,-474.1594"/>
</g>
<!-- Node32 -->
<g id="node12" class="node">
<title>Node32</title>
<g id="a_node12"><a xlink:href="classene_1_1models_1_1TrackModel.html#a04afba3cc5098c28ebd394fb7ac920ba" target="_top" xlink:title="ene.models.TrackModel.get\lArtist">
<polygon fill="none" stroke="#000000" points="634.5,-325.0312 634.5,-355.0312 771.5,-355.0312 771.5,-325.0312 634.5,-325.0312"/>
<text text-anchor="start" x="642.5" y="-343.0312" font-family="Helvetica,sans-Serif" font-size="10.00" fill="#000000">ene.models.TrackModel.get</text>
<text text-anchor="middle" x="703" y="-332.0312" font-family="Helvetica,sans-Serif" font-size="10.00" fill="#000000">Artist</text>
</a>
</g>
</g>
<!-- Node30&#45;&gt;Node32 -->
<g id="edge12" class="edge">
<title>Node30&#45;&gt;Node32</title>
<path fill="none" stroke="#191970" d="M545.6901,-422.9651C551.4326,-420.4351 556.9532,-417.4807 562,-414.0312 584.3099,-398.7819 575.4769,-379.9637 598,-365.0312 606.0561,-359.69 615.1286,-355.4863 624.4809,-352.1785"/>
<polygon fill="#191970" stroke="#191970" points="625.8349,-355.4204 634.2973,-349.0456 623.7066,-348.7518 625.8349,-355.4204"/>
</g>
<!-- Node33 -->
<g id="node13" class="node">
<title>Node33</title>
<g id="a_node13"><a xlink:href="classene_1_1models_1_1TrackModel.html#aab88fe151b093dba71ad9f9ab5c6959d" target="_top" xlink:title="ene.models.TrackModel.get\lFilename">
<polygon fill="none" stroke="#000000" points="634.5,-276.0312 634.5,-306.0312 771.5,-306.0312 771.5,-276.0312 634.5,-276.0312"/>
<text text-anchor="start" x="642.5" y="-294.0312" font-family="Helvetica,sans-Serif" font-size="10.00" fill="#000000">ene.models.TrackModel.get</text>
<text text-anchor="middle" x="703" y="-283.0312" font-family="Helvetica,sans-Serif" font-size="10.00" fill="#000000">Filename</text>
</a>
</g>
</g>
<!-- Node30&#45;&gt;Node33 -->
<g id="edge13" class="edge">
<title>Node30&#45;&gt;Node33</title>
<path fill="none" stroke="#191970" d="M549.849,-422.7977C554.2162,-420.2965 558.3185,-417.3952 562,-414.0312 596.2543,-382.7305 563.307,-346.8448 598,-316.0312 605.7506,-309.1472 615.0547,-304.071 624.8789,-300.3427"/>
<polygon fill="#191970" stroke="#191970" points="626.0405,-303.6449 634.4236,-297.1662 623.83,-297.0031 626.0405,-303.6449"/>
</g>
<!-- Node34 -->
<g id="node14" class="node">
<title>Node34</title>
<g id="a_node14"><a xlink:href="classene_1_1models_1_1TrackModel.html#a2c57f7fe3f410c0e914af9a79de57346" target="_top" xlink:title="ene.models.TrackModel.get\lGenre">
<polygon fill="none" stroke="#000000" points="634.5,-423.0312 634.5,-453.0312 771.5,-453.0312 771.5,-423.0312 634.5,-423.0312"/>
<text text-anchor="start" x="642.5" y="-441.0312" font-family="Helvetica,sans-Serif" font-size="10.00" fill="#000000">ene.models.TrackModel.get</text>
<text text-anchor="middle" x="703" y="-430.0312" font-family="Helvetica,sans-Serif" font-size="10.00" fill="#000000">Genre</text>
</a>
</g>
</g>
<!-- Node30&#45;&gt;Node34 -->
<g id="edge14" class="edge">
<title>Node30&#45;&gt;Node34</title>
<path fill="none" stroke="#191970" d="M562.2773,-438.0312C582.622,-438.0312 604.0814,-438.0312 623.9445,-438.0312"/>
<polygon fill="#191970" stroke="#191970" points="624.1717,-441.5312 634.1717,-438.0312 624.1717,-434.5312 624.1717,-441.5312"/>
</g>
<!-- Node35 -->
<g id="node15" class="node">
<title>Node35</title>
<g id="a_node15"><a xlink:href="classene_1_1models_1_1TrackModel.html#a5bac0e2b6c87c93eef2802d9d10bf3c1" target="_top" xlink:title="ene.models.TrackModel.get\lTitle">
<polygon fill="none" stroke="#000000" points="634.5,-374.0312 634.5,-404.0312 771.5,-404.0312 771.5,-374.0312 634.5,-374.0312"/>
<text text-anchor="start" x="642.5" y="-392.0312" font-family="Helvetica,sans-Serif" font-size="10.00" fill="#000000">ene.models.TrackModel.get</text>
<text text-anchor="middle" x="703" y="-381.0312" font-family="Helvetica,sans-Serif" font-size="10.00" fill="#000000">Title</text>
</a>
</g>
</g>
<!-- Node30&#45;&gt;Node35 -->
<g id="edge15" class="edge">
<title>Node30&#45;&gt;Node35</title>
<path fill="none" stroke="#191970" d="M543.2241,-422.9965C568.9228,-417.5335 598.1118,-411.3284 624.4466,-405.7301"/>
<polygon fill="#191970" stroke="#191970" points="625.3331,-409.12 634.3867,-403.6171 623.8775,-402.273 625.3331,-409.12"/>
</g>
<!-- Node40 -->
<g id="node20" class="node">
<title>Node40</title>
<g id="a_node20"><a xlink:href="classene_1_1views_1_1gui_1_1partial_1_1AbstractTrackListView.html#aeea3d90287745704cda06893c94b9666" target="_top" xlink:title="ene.views.gui.partial.Abstract\lTrackListView.getTable">
<polygon fill="none" stroke="#000000" points="399.5,-374.0312 399.5,-404.0312 545.5,-404.0312 545.5,-374.0312 399.5,-374.0312"/>
<text text-anchor="start" x="407.5" y="-392.0312" font-family="Helvetica,sans-Serif" font-size="10.00" fill="#000000">ene.views.gui.partial.Abstract</text>
<text text-anchor="middle" x="472.5" y="-381.0312" font-family="Helvetica,sans-Serif" font-size="10.00" fill="#000000">TrackListView.getTable</text>
</a>
</g>
</g>
<!-- Node39&#45;&gt;Node40 -->
<g id="edge20" class="edge">
<title>Node39&#45;&gt;Node40</title>
<path fill="none" stroke="#191970" d="M347.0343,-389.0312C361.0382,-389.0312 375.5115,-389.0312 389.4307,-389.0312"/>
<polygon fill="#191970" stroke="#191970" points="389.4536,-392.5313 399.4535,-389.0312 389.4535,-385.5313 389.4536,-392.5313"/>
</g>
<!-- Node44&#45;&gt;Node32 -->
<g id="edge25" class="edge">
<title>Node44&#45;&gt;Node32</title>
<path fill="none" stroke="#191970" d="M541.6576,-340.0312C567.6441,-340.0312 597.3737,-340.0312 624.1744,-340.0312"/>
<polygon fill="#191970" stroke="#191970" points="624.2887,-343.5313 634.2887,-340.0312 624.2886,-336.5313 624.2887,-343.5313"/>
</g>
<!-- Node44&#45;&gt;Node33 -->
<g id="edge26" class="edge">
<title>Node44&#45;&gt;Node33</title>
<path fill="none" stroke="#191970" d="M541.6576,-325.3295C567.6441,-319.8053 597.3737,-313.4853 624.1744,-307.788"/>
<polygon fill="#191970" stroke="#191970" points="625.235,-311.1408 634.2887,-305.6379 623.7794,-304.2938 625.235,-311.1408"/>
</g>
<!-- Node44&#45;&gt;Node34 -->
<g id="edge27" class="edge">
<title>Node44&#45;&gt;Node34</title>
<path fill="none" stroke="#191970" d="M541.585,-354.192C548.7984,-357.149 555.7624,-360.7199 562,-365.0312 584.2304,-380.3961 575.4097,-399.2004 598,-414.0312 606.0631,-419.3247 615.1398,-423.4594 624.4943,-426.6873"/>
<polygon fill="#191970" stroke="#191970" points="623.7244,-430.1129 634.3124,-429.7335 625.7987,-423.4273 623.7244,-430.1129"/>
</g>
<!-- Node44&#45;&gt;Node35 -->
<g id="edge29" class="edge">
<title>Node44&#45;&gt;Node35</title>
<path fill="none" stroke="#191970" d="M541.6576,-354.7328C567.6441,-360.257 597.3737,-366.577 624.1744,-372.2743"/>
<polygon fill="#191970" stroke="#191970" points="623.7794,-375.7685 634.2887,-374.4244 625.235,-368.9215 623.7794,-375.7685"/>
</g>
<!-- Node44&#45;&gt;Node42 -->
<g id="edge28" class="edge">
<title>Node44&#45;&gt;Node42</title>
<path fill="none" stroke="#191970" d="M489.4492,-324.7364C529.8429,-288.2858 631.9013,-196.1896 678.7779,-153.8889"/>
<polygon fill="#191970" stroke="#191970" points="681.2575,-156.3657 686.3368,-147.0678 676.5678,-151.1688 681.2575,-156.3657"/>
</g>
<!-- Node47&#45;&gt;Node38 -->
<g id="edge34" class="edge">
<title>Node47&#45;&gt;Node38</title>
<path fill="none" stroke="#191970" d="M328.161,-237.0308C350.5392,-232.0696 375.5522,-226.5243 398.388,-221.4617"/>
<polygon fill="#191970" stroke="#191970" points="399.3618,-224.8308 408.3672,-219.2493 397.8467,-217.9967 399.3618,-224.8308"/>
</g>
<!-- Node47&#45;&gt;Node44 -->
<g id="edge33" class="edge">
<title>Node47&#45;&gt;Node44</title>
<path fill="none" stroke="#191970" d="M318.2267,-267.1103C327.9349,-270.1018 337.8301,-273.4397 347,-277.0312 378.1997,-289.2508 412.0726,-306.5086 436.7553,-319.8726"/>
<polygon fill="#191970" stroke="#191970" points="435.2872,-323.0589 445.7405,-324.7853 438.6453,-316.917 435.2872,-323.0589"/>
</g>
</g>
</svg>
