<?xml version="1.0" encoding="UTF-8" standalone="no"?>
<!DOCTYPE svg PUBLIC "-//W3C//DTD SVG 1.1//EN"
 "http://www.w3.org/Graphics/SVG/1.1/DTD/svg11.dtd">
<!-- Generated by graphviz version 2.40.1 (20161225.0304)
 -->
<!-- Title: ene.AbstractObject.debugInfoAbout Pages: 1 -->
<svg width="330pt" height="242pt"
 viewBox="0.00 0.00 330.00 241.50" xmlns="http://www.w3.org/2000/svg" xmlns:xlink="http://www.w3.org/1999/xlink">
<g id="graph0" class="graph" transform="scale(1 1) rotate(0) translate(4 237.5)">
<title>ene.AbstractObject.debugInfoAbout</title>
<!-- Node14 -->
<g id="node1" class="node">
<title>Node14</title>
<polygon fill="#bfbfbf" stroke="#000000" points="0,-104.5 0,-134.5 130,-134.5 130,-104.5 0,-104.5"/>
<text text-anchor="start" x="8" y="-122.5" font-family="Helvetica,sans-Serif" font-size="10.00" fill="#000000">ene.AbstractObject.debug</text>
<text text-anchor="middle" x="65" y="-111.5" font-family="Helvetica,sans-Serif" font-size="10.00" fill="#000000">InfoAbout</text>
</g>
<!-- Node15 -->
<g id="node2" class="node">
<title>Node15</title>
<g id="a_node2"><a xlink:href="classene_1_1models_1_1PlayerModel.html#a2c4655428b658dee3203787415a516a5" target="_top" xlink:title="ene.models.PlayerModel.load">
<polygon fill="none" stroke="#000000" points="171.5,-214 171.5,-233 316.5,-233 316.5,-214 171.5,-214"/>
<text text-anchor="middle" x="244" y="-221" font-family="Helvetica,sans-Serif" font-size="10.00" fill="#000000">ene.models.PlayerModel.load</text>
</a>
</g>
</g>
<!-- Node14&#45;&gt;Node15 -->
<g id="edge1" class="edge">
<title>Node14&#45;&gt;Node15</title>
<path fill="none" stroke="#191970" d="M85.4781,-141.7752C104.5189,-161.1612 134.6013,-188.5797 166,-204.5 173.5829,-208.3448 181.9808,-211.4361 190.3747,-213.9147"/>
<polygon fill="#191970" stroke="#191970" points="87.9577,-139.3043 78.5019,-134.5254 82.9137,-144.158 87.9577,-139.3043"/>
</g>
<!-- Node16 -->
<g id="node3" class="node">
<title>Node16</title>
<g id="a_node3"><a xlink:href="classene_1_1models_1_1PlayerModel.html#afdcaa5e17ecdfbccad3ac8e702914e00" target="_top" xlink:title="ene.models.PlayerModel.pause">
<polygon fill="none" stroke="#000000" points="167.5,-176 167.5,-195 320.5,-195 320.5,-176 167.5,-176"/>
<text text-anchor="middle" x="244" y="-183" font-family="Helvetica,sans-Serif" font-size="10.00" fill="#000000">ene.models.PlayerModel.pause</text>
</a>
</g>
</g>
<!-- Node14&#45;&gt;Node16 -->
<g id="edge2" class="edge">
<title>Node14&#45;&gt;Node16</title>
<path fill="none" stroke="#191970" d="M102.6056,-139.1526C121.3012,-148.3632 144.454,-158.9452 166,-166.5 176.259,-170.0971 187.5075,-173.2661 198.1901,-175.9339"/>
<polygon fill="#191970" stroke="#191970" points="104.0505,-135.962 93.5406,-134.6228 100.9214,-142.2237 104.0505,-135.962"/>
</g>
<!-- Node17 -->
<g id="node4" class="node">
<title>Node17</title>
<g id="a_node4"><a xlink:href="classene_1_1views_1_1gui_1_1partial_1_1PlayerView.html#a7e28fb299fee46d221d3224ffb87ea35" target="_top" xlink:title="ene.views.gui.partial.Player\lView.render">
<polygon fill="none" stroke="#000000" points="175.5,-126.5 175.5,-156.5 312.5,-156.5 312.5,-126.5 175.5,-126.5"/>
<text text-anchor="start" x="183.5" y="-144.5" font-family="Helvetica,sans-Serif" font-size="10.00" fill="#000000">ene.views.gui.partial.Player</text>
<text text-anchor="middle" x="244" y="-133.5" font-family="Helvetica,sans-Serif" font-size="10.00" fill="#000000">View.render</text>
</a>
</g>
</g>
<!-- Node14&#45;&gt;Node17 -->
<g id="edge3" class="edge">
<title>Node14&#45;&gt;Node17</title>
<path fill="none" stroke="#191970" d="M140.2427,-128.7477C151.8707,-130.1769 163.8283,-131.6465 175.3029,-133.0568"/>
<polygon fill="#191970" stroke="#191970" points="140.4818,-125.2508 130.1295,-127.5047 139.6278,-132.1986 140.4818,-125.2508"/>
</g>
<!-- Node18 -->
<g id="node5" class="node">
<title>Node18</title>
<g id="a_node5"><a xlink:href="classene_1_1models_1_1PlayerModel.html#a7d0471082171de01773a1da88cb3652d" target="_top" xlink:title="ene.models.PlayerModel.start">
<polygon fill="none" stroke="#000000" points="171,-88 171,-107 317,-107 317,-88 171,-88"/>
<text text-anchor="middle" x="244" y="-95" font-family="Helvetica,sans-Serif" font-size="10.00" fill="#000000">ene.models.PlayerModel.start</text>
</a>
</g>
</g>
<!-- Node14&#45;&gt;Node18 -->
<g id="edge4" class="edge">
<title>Node14&#45;&gt;Node18</title>
<path fill="none" stroke="#191970" d="M140.1493,-110.2638C150.2728,-109.0195 160.6478,-107.7444 170.7379,-106.5043"/>
<polygon fill="#191970" stroke="#191970" points="139.6278,-106.8014 130.1295,-111.4953 140.4818,-113.7492 139.6278,-106.8014"/>
</g>
<!-- Node19 -->
<g id="node6" class="node">
<title>Node19</title>
<g id="a_node6"><a xlink:href="classene_1_1models_1_1PlayerModel.html#a108968d6fd2beb7e322bba50028d32b1" target="_top" xlink:title="ene.models.PlayerModel.update">
<polygon fill="none" stroke="#000000" points="166,-50 166,-69 322,-69 322,-50 166,-50"/>
<text text-anchor="middle" x="244" y="-57" font-family="Helvetica,sans-Serif" font-size="10.00" fill="#000000">ene.models.PlayerModel.update</text>
</a>
</g>
</g>
<!-- Node14&#45;&gt;Node19 -->
<g id="edge5" class="edge">
<title>Node14&#45;&gt;Node19</title>
<path fill="none" stroke="#191970" d="M108.1552,-100.3552C125.8635,-92.9282 146.7021,-84.7301 166,-78.5 176.8761,-74.9888 188.7875,-71.7775 199.9551,-69.0343"/>
<polygon fill="#191970" stroke="#191970" points="106.5047,-97.2535 98.669,-104.3845 109.2415,-103.6964 106.5047,-97.2535"/>
</g>
<!-- Node20 -->
<g id="node7" class="node">
<title>Node20</title>
<g id="a_node7"><a xlink:href="classene_1_1views_1_1gui_1_1partial_1_1AbstractTrackListView.html#aebe5720136b8b2215b6ad365c723843e" target="_top" xlink:title="ene.views.gui.partial.Abstract\lTrackListView.valueChanged">
<polygon fill="none" stroke="#000000" points="171,-.5 171,-30.5 317,-30.5 317,-.5 171,-.5"/>
<text text-anchor="start" x="179" y="-18.5" font-family="Helvetica,sans-Serif" font-size="10.00" fill="#000000">ene.views.gui.partial.Abstract</text>
<text text-anchor="middle" x="244" y="-7.5" font-family="Helvetica,sans-Serif" font-size="10.00" fill="#000000">TrackListView.valueChanged</text>
</a>
</g>
</g>
<!-- Node14&#45;&gt;Node20 -->
<g id="edge6" class="edge">
<title>Node14&#45;&gt;Node20</title>
<path fill="none" stroke="#191970" d="M88.003,-97.6041C107.4642,-80.0864 136.7777,-55.9734 166,-40.5 173.0376,-36.7735 180.7287,-33.4811 188.4506,-30.6111"/>
<polygon fill="#191970" stroke="#191970" points="85.5596,-95.0958 80.5462,-104.4294 90.2859,-100.2594 85.5596,-95.0958"/>
</g>
</g>
</svg>
