<?xml version="1.0" encoding="UTF-8" standalone="no"?>
<!DOCTYPE svg PUBLIC "-//W3C//DTD SVG 1.1//EN"
 "http://www.w3.org/Graphics/SVG/1.1/DTD/svg11.dtd">
<!-- Generated by graphviz version 2.40.1 (20161225.0304)
 -->
<!-- Title: ene.AbstractObject.isDebugModeEnabled Pages: 1 -->
<svg width="706pt" height="390pt"
 viewBox="0.00 0.00 706.00 390.00" xmlns="http://www.w3.org/2000/svg" xmlns:xlink="http://www.w3.org/1999/xlink">
<g id="graph0" class="graph" transform="scale(1 1) rotate(0) translate(4 386)">
<title>ene.AbstractObject.isDebugModeEnabled</title>
<!-- Node44 -->
<g id="node1" class="node">
<title>Node44</title>
<polygon fill="#bfbfbf" stroke="#000000" points="0,-148.5 0,-178.5 140,-178.5 140,-148.5 0,-148.5"/>
<text text-anchor="start" x="8" y="-166.5" font-family="Helvetica,sans-Serif" font-size="10.00" fill="#000000">ene.AbstractObject.isDebug</text>
<text text-anchor="middle" x="70" y="-155.5" font-family="Helvetica,sans-Serif" font-size="10.00" fill="#000000">ModeEnabled</text>
</g>
<!-- Node45 -->
<g id="node2" class="node">
<title>Node45</title>
<g id="a_node2"><a xlink:href="classene_1_1AbstractObject.html#aff9619cf289ec83735b6c6ca2c12e020" target="_top" xlink:title="ene.AbstractObject.debug\lInfoAbout">
<polygon fill="none" stroke="#000000" points="176,-148.5 176,-178.5 306,-178.5 306,-148.5 176,-148.5"/>
<text text-anchor="start" x="184" y="-166.5" font-family="Helvetica,sans-Serif" font-size="10.00" fill="#000000">ene.AbstractObject.debug</text>
<text text-anchor="middle" x="241" y="-155.5" font-family="Helvetica,sans-Serif" font-size="10.00" fill="#000000">InfoAbout</text>
</a>
</g>
</g>
<!-- Node44&#45;&gt;Node45 -->
<g id="edge1" class="edge">
<title>Node44&#45;&gt;Node45</title>
<path fill="none" stroke="#191970" d="M150.0825,-163.5C158.679,-163.5 167.3487,-163.5 175.7424,-163.5"/>
<polygon fill="#191970" stroke="#191970" points="150.0457,-160.0001 140.0456,-163.5 150.0456,-167.0001 150.0457,-160.0001"/>
</g>
<!-- Node46 -->
<g id="node3" class="node">
<title>Node46</title>
<g id="a_node3"><a xlink:href="classene_1_1models_1_1PlayerModel.html#a2c4655428b658dee3203787415a516a5" target="_top" xlink:title="ene.models.PlayerModel.load">
<polygon fill="none" stroke="#000000" points="347.5,-313 347.5,-332 492.5,-332 492.5,-313 347.5,-313"/>
<text text-anchor="middle" x="420" y="-320" font-family="Helvetica,sans-Serif" font-size="10.00" fill="#000000">ene.models.PlayerModel.load</text>
</a>
</g>
</g>
<!-- Node45&#45;&gt;Node46 -->
<g id="edge2" class="edge">
<title>Node45&#45;&gt;Node46</title>
<path fill="none" stroke="#191970" d="M252.1932,-188.0881C267.7812,-219.5067 299.0283,-273.3082 342,-302.5 348.3601,-306.8206 355.5877,-310.2078 363.0164,-312.8633"/>
<polygon fill="#191970" stroke="#191970" points="255.1802,-186.2239 247.6874,-178.7334 248.8736,-189.2616 255.1802,-186.2239"/>
</g>
<!-- Node50 -->
<g id="node7" class="node">
<title>Node50</title>
<g id="a_node7"><a xlink:href="classene_1_1views_1_1gui_1_1partial_1_1PlaylistView.html#a108f11521a24d840a4aeb31190c0a34e" target="_top" xlink:title="ene.views.gui.partial.Playlist\lView.mousePressed">
<polygon fill="none" stroke="#000000" points="349.5,-263.5 349.5,-293.5 490.5,-293.5 490.5,-263.5 349.5,-263.5"/>
<text text-anchor="start" x="357.5" y="-281.5" font-family="Helvetica,sans-Serif" font-size="10.00" fill="#000000">ene.views.gui.partial.Playlist</text>
<text text-anchor="middle" x="420" y="-270.5" font-family="Helvetica,sans-Serif" font-size="10.00" fill="#000000">View.mousePressed</text>
</a>
</g>
</g>
<!-- Node45&#45;&gt;Node50 -->
<g id="edge6" class="edge">
<title>Node45&#45;&gt;Node50</title>
<path fill="none" stroke="#191970" d="M261.1853,-186.2398C280.2311,-206.4494 310.4939,-235.5018 342,-253.5 348.6677,-257.309 355.993,-260.6234 363.4018,-263.4824"/>
<polygon fill="#191970" stroke="#191970" points="263.5766,-183.6705 254.217,-178.7056 258.4376,-188.4235 263.5766,-183.6705"/>
</g>
<!-- Node51 -->
<g id="node8" class="node">
<title>Node51</title>
<g id="a_node8"><a xlink:href="classene_1_1views_1_1gui_1_1partial_1_1AbstractTrackListView.html#ad66634518c60ff157ef83d7dd9d7b4c6" target="_top" xlink:title="ene.views.gui.partial.Abstract\lTrackListView.mousePressed">
<polygon fill="none" stroke="#000000" points="346.5,-214.5 346.5,-244.5 493.5,-244.5 493.5,-214.5 346.5,-214.5"/>
<text text-anchor="start" x="354.5" y="-232.5" font-family="Helvetica,sans-Serif" font-size="10.00" fill="#000000">ene.views.gui.partial.Abstract</text>
<text text-anchor="middle" x="420" y="-221.5" font-family="Helvetica,sans-Serif" font-size="10.00" fill="#000000">TrackListView.mousePressed</text>
</a>
</g>
</g>
<!-- Node45&#45;&gt;Node51 -->
<g id="edge7" class="edge">
<title>Node45&#45;&gt;Node51</title>
<path fill="none" stroke="#191970" d="M285.655,-182.4727C303.1174,-189.6691 323.3865,-197.75 342,-204.5 351.3578,-207.8935 361.43,-211.3004 371.1262,-214.4597"/>
<polygon fill="#191970" stroke="#191970" points="286.8487,-179.1787 276.2708,-178.5797 284.1664,-185.6444 286.8487,-179.1787"/>
</g>
<!-- Node52 -->
<g id="node9" class="node">
<title>Node52</title>
<g id="a_node9"><a xlink:href="classene_1_1models_1_1PlayerModel.html#afdcaa5e17ecdfbccad3ac8e702914e00" target="_top" xlink:title="ene.models.PlayerModel.pause">
<polygon fill="none" stroke="#000000" points="343.5,-176 343.5,-195 496.5,-195 496.5,-176 343.5,-176"/>
<text text-anchor="middle" x="420" y="-183" font-family="Helvetica,sans-Serif" font-size="10.00" fill="#000000">ene.models.PlayerModel.pause</text>
</a>
</g>
</g>
<!-- Node45&#45;&gt;Node52 -->
<g id="edge8" class="edge">
<title>Node45&#45;&gt;Node52</title>
<path fill="none" stroke="#191970" d="M316.1756,-172.7395C325.1659,-173.8444 334.3542,-174.9737 343.3647,-176.0811"/>
<polygon fill="#191970" stroke="#191970" points="316.4818,-169.2508 306.1295,-171.5047 315.6278,-176.1986 316.4818,-169.2508"/>
</g>
<!-- Node53 -->
<g id="node10" class="node">
<title>Node53</title>
<g id="a_node10"><a xlink:href="classene_1_1views_1_1gui_1_1partial_1_1PlayerView.html#a7e28fb299fee46d221d3224ffb87ea35" target="_top" xlink:title="ene.views.gui.partial.Player\lView.render">
<polygon fill="none" stroke="#000000" points="351.5,-126.5 351.5,-156.5 488.5,-156.5 488.5,-126.5 351.5,-126.5"/>
<text text-anchor="start" x="359.5" y="-144.5" font-family="Helvetica,sans-Serif" font-size="10.00" fill="#000000">ene.views.gui.partial.Player</text>
<text text-anchor="middle" x="420" y="-133.5" font-family="Helvetica,sans-Serif" font-size="10.00" fill="#000000">View.render</text>
</a>
</g>
</g>
<!-- Node45&#45;&gt;Node53 -->
<g id="edge9" class="edge">
<title>Node45&#45;&gt;Node53</title>
<path fill="none" stroke="#191970" d="M316.2427,-154.2523C327.8707,-152.8231 339.8283,-151.3535 351.3029,-149.9432"/>
<polygon fill="#191970" stroke="#191970" points="315.6278,-150.8014 306.1295,-155.4953 316.4818,-157.7492 315.6278,-150.8014"/>
</g>
<!-- Node54 -->
<g id="node11" class="node">
<title>Node54</title>
<g id="a_node11"><a xlink:href="classene_1_1models_1_1PlayerModel.html#a7d0471082171de01773a1da88cb3652d" target="_top" xlink:title="ene.models.PlayerModel.start">
<polygon fill="none" stroke="#000000" points="347,-88 347,-107 493,-107 493,-88 347,-88"/>
<text text-anchor="middle" x="420" y="-95" font-family="Helvetica,sans-Serif" font-size="10.00" fill="#000000">ene.models.PlayerModel.start</text>
</a>
</g>
</g>
<!-- Node45&#45;&gt;Node54 -->
<g id="edge10" class="edge">
<title>Node45&#45;&gt;Node54</title>
<path fill="none" stroke="#191970" d="M278.6056,-143.8474C297.3012,-134.6368 320.454,-124.0548 342,-116.5 352.259,-112.9029 363.5075,-109.7339 374.1901,-107.0661"/>
<polygon fill="#191970" stroke="#191970" points="276.9214,-140.7763 269.5406,-148.3772 280.0505,-147.038 276.9214,-140.7763"/>
</g>
<!-- Node55 -->
<g id="node12" class="node">
<title>Node55</title>
<g id="a_node12"><a xlink:href="classene_1_1models_1_1PlayerModel.html#a108968d6fd2beb7e322bba50028d32b1" target="_top" xlink:title="ene.models.PlayerModel.update">
<polygon fill="none" stroke="#000000" points="342,-50 342,-69 498,-69 498,-50 342,-50"/>
<text text-anchor="middle" x="420" y="-57" font-family="Helvetica,sans-Serif" font-size="10.00" fill="#000000">ene.models.PlayerModel.update</text>
</a>
</g>
</g>
<!-- Node45&#45;&gt;Node55 -->
<g id="edge11" class="edge">
<title>Node45&#45;&gt;Node55</title>
<path fill="none" stroke="#191970" d="M261.4781,-141.2248C280.5189,-121.8388 310.6013,-94.4203 342,-78.5 349.5829,-74.6552 357.9808,-71.5639 366.3747,-69.0853"/>
<polygon fill="#191970" stroke="#191970" points="258.9137,-138.842 254.5019,-148.4746 263.9577,-143.6957 258.9137,-138.842"/>
</g>
<!-- Node56 -->
<g id="node13" class="node">
<title>Node56</title>
<g id="a_node13"><a xlink:href="classene_1_1views_1_1gui_1_1partial_1_1AbstractTrackListView.html#aebe5720136b8b2215b6ad365c723843e" target="_top" xlink:title="ene.views.gui.partial.Abstract\lTrackListView.valueChanged">
<polygon fill="none" stroke="#000000" points="347,-.5 347,-30.5 493,-30.5 493,-.5 347,-.5"/>
<text text-anchor="start" x="355" y="-18.5" font-family="Helvetica,sans-Serif" font-size="10.00" fill="#000000">ene.views.gui.partial.Abstract</text>
<text text-anchor="middle" x="420" y="-7.5" font-family="Helvetica,sans-Serif" font-size="10.00" fill="#000000">TrackListView.valueChanged</text>
</a>
</g>
</g>
<!-- Node45&#45;&gt;Node56 -->
<g id="edge12" class="edge">
<title>Node45&#45;&gt;Node56</title>
<path fill="none" stroke="#191970" d="M254.7113,-139.584C271.7651,-111.8895 303.3954,-66.7261 342,-40.5 347.6461,-36.6643 353.917,-33.3881 360.3801,-30.5965"/>
<polygon fill="#191970" stroke="#191970" points="251.6518,-137.8803 249.4977,-148.2538 257.6507,-141.4878 251.6518,-137.8803"/>
</g>
<!-- Node47 -->
<g id="node4" class="node">
<title>Node47</title>
<g id="a_node4"><a xlink:href="classene_1_1models_1_1PlayerModel.html#acfe1fde39cea80b94ae65ed401706d70" target="_top" xlink:title="ene.models.PlayerModel.load\lPlaylist">
<polygon fill="none" stroke="#000000" points="543.5,-351.5 543.5,-381.5 688.5,-381.5 688.5,-351.5 543.5,-351.5"/>
<text text-anchor="start" x="551.5" y="-369.5" font-family="Helvetica,sans-Serif" font-size="10.00" fill="#000000">ene.models.PlayerModel.load</text>
<text text-anchor="middle" x="616" y="-358.5" font-family="Helvetica,sans-Serif" font-size="10.00" fill="#000000">Playlist</text>
</a>
</g>
</g>
<!-- Node46&#45;&gt;Node47 -->
<g id="edge3" class="edge">
<title>Node46&#45;&gt;Node47</title>
<path fill="none" stroke="#191970" d="M472.3071,-334.2424C495.8196,-339.5207 523.8534,-345.814 548.8907,-351.4346"/>
<polygon fill="#191970" stroke="#191970" points="473.0529,-330.8228 462.5291,-332.0473 471.5196,-337.6528 473.0529,-330.8228"/>
</g>
<!-- Node48 -->
<g id="node5" class="node">
<title>Node48</title>
<g id="a_node5"><a xlink:href="classene_1_1models_1_1PlayerModel.html#a7242e20d537405f031ec8d18e7faf8fc" target="_top" xlink:title="ene.models.PlayerModel.previous">
<polygon fill="none" stroke="#000000" points="534,-313 534,-332 698,-332 698,-313 534,-313"/>
<text text-anchor="middle" x="616" y="-320" font-family="Helvetica,sans-Serif" font-size="10.00" fill="#000000">ene.models.PlayerModel.previous</text>
</a>
</g>
</g>
<!-- Node46&#45;&gt;Node48 -->
<g id="edge4" class="edge">
<title>Node46&#45;&gt;Node48</title>
<path fill="none" stroke="#191970" d="M502.8646,-322.5C513.1172,-322.5 523.5963,-322.5 533.8384,-322.5"/>
<polygon fill="#191970" stroke="#191970" points="502.7047,-319.0001 492.7046,-322.5 502.7046,-326.0001 502.7047,-319.0001"/>
</g>
<!-- Node49 -->
<g id="node6" class="node">
<title>Node49</title>
<g id="a_node6"><a xlink:href="classene_1_1models_1_1PlayerModel.html#a384fd9a2e98fc581e8221659257a8dd4" target="_top" xlink:title="ene.models.PlayerModel.next">
<polygon fill="none" stroke="#000000" points="543,-275 543,-294 689,-294 689,-275 543,-275"/>
<text text-anchor="middle" x="616" y="-282" font-family="Helvetica,sans-Serif" font-size="10.00" fill="#000000">ene.models.PlayerModel.next</text>
</a>
</g>
</g>
<!-- Node46&#45;&gt;Node49 -->
<g id="edge5" class="edge">
<title>Node46&#45;&gt;Node49</title>
<path fill="none" stroke="#191970" d="M479.2612,-311.0106C507.227,-305.5886 540.2091,-299.1942 566.7737,-294.0439"/>
<polygon fill="#191970" stroke="#191970" points="478.3571,-307.6206 469.2061,-312.96 479.6895,-314.4927 478.3571,-307.6206"/>
</g>
</g>
</svg>
