<?xml version="1.0" encoding="UTF-8" standalone="no"?>
<!DOCTYPE svg PUBLIC "-//W3C//DTD SVG 1.1//EN"
 "http://www.w3.org/Graphics/SVG/1.1/DTD/svg11.dtd">
<!-- Generated by graphviz version 2.40.1 (20161225.0304)
 -->
<!-- Title: ene.models.PlayerModel.previous Pages: 1 -->
<svg width="978pt" height="390pt"
 viewBox="0.00 0.00 978.00 389.50" xmlns="http://www.w3.org/2000/svg" xmlns:xlink="http://www.w3.org/1999/xlink">
<g id="graph0" class="graph" transform="scale(1 1) rotate(0) translate(4 385.5)">
<title>ene.models.PlayerModel.previous</title>
<!-- Node88 -->
<g id="node1" class="node">
<title>Node88</title>
<polygon fill="#bfbfbf" stroke="#000000" points="0,-221.5 0,-240.5 164,-240.5 164,-221.5 0,-221.5"/>
<text text-anchor="middle" x="82" y="-228.5" font-family="Helvetica,sans-Serif" font-size="10.00" fill="#000000">ene.models.PlayerModel.previous</text>
</g>
<!-- Node89 -->
<g id="node2" class="node">
<title>Node89</title>
<g id="a_node2"><a xlink:href="classene_1_1models_1_1PlaylistModel.html#ad63fd499a74248dc9dadad29b9882fd2" target="_top" xlink:title="ene.models.PlaylistModel.get\lCurrentTrack">
<polygon fill="none" stroke="#000000" points="410.5,-351 410.5,-381 555.5,-381 555.5,-351 410.5,-351"/>
<text text-anchor="start" x="418.5" y="-369" font-family="Helvetica,sans-Serif" font-size="10.00" fill="#000000">ene.models.PlaylistModel.get</text>
<text text-anchor="middle" x="483" y="-358" font-family="Helvetica,sans-Serif" font-size="10.00" fill="#000000">CurrentTrack</text>
</a>
</g>
</g>
<!-- Node88&#45;&gt;Node89 -->
<g id="edge1" class="edge">
<title>Node88&#45;&gt;Node89</title>
<path fill="none" stroke="#191970" d="M94.6938,-240.7097C115.5384,-256.1858 158.8269,-286.3898 200,-303 264.842,-329.1587 342.6397,-345.4784 400.2415,-354.9347"/>
<polygon fill="#191970" stroke="#191970" points="399.963,-358.4347 410.3914,-356.5644 401.0728,-351.5232 399.963,-358.4347"/>
</g>
<!-- Node92 -->
<g id="node5" class="node">
<title>Node92</title>
<g id="a_node5"><a xlink:href="classene_1_1models_1_1PlayerModel.html#a85b0de48a8e962642825c254f9c47fb0" target="_top" xlink:title="ene.models.PlayerModel.get\lPlaylist">
<polygon fill="none" stroke="#000000" points="214,-104 214,-134 354,-134 354,-104 214,-104"/>
<text text-anchor="start" x="222" y="-122" font-family="Helvetica,sans-Serif" font-size="10.00" fill="#000000">ene.models.PlayerModel.get</text>
<text text-anchor="middle" x="284" y="-111" font-family="Helvetica,sans-Serif" font-size="10.00" fill="#000000">Playlist</text>
</a>
</g>
</g>
<!-- Node88&#45;&gt;Node92 -->
<g id="edge4" class="edge">
<title>Node88&#45;&gt;Node92</title>
<path fill="none" stroke="#191970" d="M92.2365,-221.4929C111.7557,-203.8352 156.2613,-165.7954 200,-144 204.5643,-141.7256 209.3732,-139.6182 214.2845,-137.6731"/>
<polygon fill="#191970" stroke="#191970" points="215.6629,-140.8948 223.818,-134.1313 213.2251,-134.333 215.6629,-140.8948"/>
</g>
<!-- Node93 -->
<g id="node6" class="node">
<title>Node93</title>
<g id="a_node6"><a xlink:href="classene_1_1models_1_1PlayerModel.html#a2c4655428b658dee3203787415a516a5" target="_top" xlink:title="ene.models.PlayerModel.load">
<polygon fill="none" stroke="#000000" points="211.5,-153.5 211.5,-172.5 356.5,-172.5 356.5,-153.5 211.5,-153.5"/>
<text text-anchor="middle" x="284" y="-160.5" font-family="Helvetica,sans-Serif" font-size="10.00" fill="#000000">ene.models.PlayerModel.load</text>
</a>
</g>
</g>
<!-- Node88&#45;&gt;Node93 -->
<g id="edge5" class="edge">
<title>Node88&#45;&gt;Node93</title>
<path fill="none" stroke="#191970" d="M110.5132,-221.4015C146.004,-209.4541 206.7337,-189.0104 246.1095,-175.7552"/>
<polygon fill="#191970" stroke="#191970" points="247.2711,-179.0573 255.6318,-172.5497 245.0377,-172.4231 247.2711,-179.0573"/>
</g>
<!-- Node102 -->
<g id="node15" class="node">
<title>Node102</title>
<g id="a_node15"><a xlink:href="classene_1_1models_1_1PlaylistModel.html#ab30573de71b566da79145210f94be294" target="_top" xlink:title="ene.models.PlaylistModel.previous\lTrack">
<polygon fill="none" stroke="#000000" points="200,-263 200,-293 368,-293 368,-263 200,-263"/>
<text text-anchor="start" x="208" y="-281" font-family="Helvetica,sans-Serif" font-size="10.00" fill="#000000">ene.models.PlaylistModel.previous</text>
<text text-anchor="middle" x="284" y="-270" font-family="Helvetica,sans-Serif" font-size="10.00" fill="#000000">Track</text>
</a>
</g>
</g>
<!-- Node88&#45;&gt;Node102 -->
<g id="edge14" class="edge">
<title>Node88&#45;&gt;Node102</title>
<path fill="none" stroke="#191970" d="M122.8777,-240.5112C147.7357,-246.2949 180.2329,-253.8562 209.5262,-260.6719"/>
<polygon fill="#191970" stroke="#191970" points="208.789,-264.0938 219.322,-262.9512 210.3754,-257.2759 208.789,-264.0938"/>
</g>
<!-- Node90 -->
<g id="node3" class="node">
<title>Node90</title>
<g id="a_node3"><a xlink:href="classene_1_1models_1_1PlaylistModel.html#adf17aa2e0d9900d3c620035dbc9641bc" target="_top" xlink:title="ene.models.PlaylistModel.update\lLastAccess">
<polygon fill="none" stroke="#000000" points="604,-307 604,-337 765,-337 765,-307 604,-307"/>
<text text-anchor="start" x="612" y="-325" font-family="Helvetica,sans-Serif" font-size="10.00" fill="#000000">ene.models.PlaylistModel.update</text>
<text text-anchor="middle" x="684.5" y="-314" font-family="Helvetica,sans-Serif" font-size="10.00" fill="#000000">LastAccess</text>
</a>
</g>
</g>
<!-- Node89&#45;&gt;Node90 -->
<g id="edge2" class="edge">
<title>Node89&#45;&gt;Node90</title>
<path fill="none" stroke="#191970" d="M551.7813,-350.9808C569.1927,-347.1788 588.0252,-343.0664 605.882,-339.1672"/>
<polygon fill="#191970" stroke="#191970" points="606.6637,-342.5791 615.6868,-337.0262 605.1703,-335.7402 606.6637,-342.5791"/>
</g>
<!-- Node91 -->
<g id="node4" class="node">
<title>Node91</title>
<g id="a_node4"><a xlink:href="classene_1_1models_1_1TrackListModel.html#a77a78d6a93e67e544d83bf5f4856d121" target="_top" xlink:title="ene.models.TrackListModel.getAll">
<polygon fill="none" stroke="#000000" points="602.5,-356.5 602.5,-375.5 766.5,-375.5 766.5,-356.5 602.5,-356.5"/>
<text text-anchor="middle" x="684.5" y="-363.5" font-family="Helvetica,sans-Serif" font-size="10.00" fill="#000000">ene.models.TrackListModel.getAll</text>
</a>
</g>
</g>
<!-- Node89&#45;&gt;Node91 -->
<g id="edge3" class="edge">
<title>Node89&#45;&gt;Node91</title>
<path fill="none" stroke="#191970" d="M555.7461,-366C567.5474,-366 579.9056,-366 592.0995,-366"/>
<polygon fill="#191970" stroke="#191970" points="592.288,-369.5001 602.2879,-366 592.2879,-362.5001 592.288,-369.5001"/>
</g>
<!-- Node94 -->
<g id="node7" class="node">
<title>Node94</title>
<g id="a_node7"><a xlink:href="classene_1_1AbstractObject.html#aff9619cf289ec83735b6c6ca2c12e020" target="_top" xlink:title="ene.AbstractObject.debug\lInfoAbout">
<polygon fill="none" stroke="#000000" points="418,-77 418,-107 548,-107 548,-77 418,-77"/>
<text text-anchor="start" x="426" y="-95" font-family="Helvetica,sans-Serif" font-size="10.00" fill="#000000">ene.AbstractObject.debug</text>
<text text-anchor="middle" x="483" y="-84" font-family="Helvetica,sans-Serif" font-size="10.00" fill="#000000">InfoAbout</text>
</a>
</g>
</g>
<!-- Node93&#45;&gt;Node94 -->
<g id="edge6" class="edge">
<title>Node93&#45;&gt;Node94</title>
<path fill="none" stroke="#191970" d="M341.5542,-153.3832C350.6182,-150.9086 359.7211,-147.8267 368,-144 386.1544,-135.6086 386.2141,-126.1466 404,-117 408.3297,-114.7734 412.8953,-112.6986 417.5587,-110.7744"/>
<polygon fill="#191970" stroke="#191970" points="419.1604,-113.9076 427.2244,-107.0357 416.6351,-107.379 419.1604,-113.9076"/>
</g>
<!-- Node97 -->
<g id="node10" class="node">
<title>Node97</title>
<g id="a_node10"><a xlink:href="classene_1_1AbstractObject.html#a600f6bedef1dc48e610cdfa5f81b7667" target="_top" xlink:title="ene.AbstractObject.delay">
<polygon fill="none" stroke="#000000" points="419.5,-38.5 419.5,-57.5 546.5,-57.5 546.5,-38.5 419.5,-38.5"/>
<text text-anchor="middle" x="483" y="-45.5" font-family="Helvetica,sans-Serif" font-size="10.00" fill="#000000">ene.AbstractObject.delay</text>
</a>
</g>
</g>
<!-- Node93&#45;&gt;Node97 -->
<g id="edge9" class="edge">
<title>Node93&#45;&gt;Node97</title>
<path fill="none" stroke="#191970" d="M352.1028,-153.4163C357.8094,-150.9253 363.2158,-147.8328 368,-144 397.1693,-120.6314 375.1311,-91.7387 404,-68 406.7046,-65.776 409.6247,-63.7951 412.6933,-62.031"/>
<polygon fill="#191970" stroke="#191970" points="414.2499,-65.1659 421.6788,-57.612 411.1607,-58.8844 414.2499,-65.1659"/>
</g>
<!-- Node98 -->
<g id="node11" class="node">
<title>Node98</title>
<g id="a_node11"><a xlink:href="classene_1_1models_1_1PlayerModel.html#aa03431aa1bae96eacf2019c56fd18f45" target="_top" xlink:title="ene.models.PlayerModel.getClip">
<polygon fill="none" stroke="#000000" points="404,-.5 404,-19.5 562,-19.5 562,-.5 404,-.5"/>
<text text-anchor="middle" x="483" y="-7.5" font-family="Helvetica,sans-Serif" font-size="10.00" fill="#000000">ene.models.PlayerModel.getClip</text>
</a>
</g>
</g>
<!-- Node93&#45;&gt;Node98 -->
<g id="edge10" class="edge">
<title>Node93&#45;&gt;Node98</title>
<path fill="none" stroke="#191970" d="M354.3144,-153.3098C359.2871,-150.8135 363.9331,-147.7504 368,-144 407.3715,-107.6926 364.8758,-65.5738 404,-29 405.6745,-27.4346 407.4548,-25.9914 409.3206,-24.6611"/>
<polygon fill="#191970" stroke="#191970" points="411.1695,-27.6339 417.9869,-19.5238 407.5999,-21.6124 411.1695,-27.6339"/>
</g>
<!-- Node99 -->
<g id="node12" class="node">
<title>Node99</title>
<g id="a_node12"><a xlink:href="classene_1_1models_1_1TrackModel.html#aab88fe151b093dba71ad9f9ab5c6959d" target="_top" xlink:title="ene.models.TrackModel.get\lFilename">
<polygon fill="none" stroke="#000000" points="414.5,-214 414.5,-244 551.5,-244 551.5,-214 414.5,-214"/>
<text text-anchor="start" x="422.5" y="-232" font-family="Helvetica,sans-Serif" font-size="10.00" fill="#000000">ene.models.TrackModel.get</text>
<text text-anchor="middle" x="483" y="-221" font-family="Helvetica,sans-Serif" font-size="10.00" fill="#000000">Filename</text>
</a>
</g>
</g>
<!-- Node93&#45;&gt;Node99 -->
<g id="edge11" class="edge">
<title>Node93&#45;&gt;Node99</title>
<path fill="none" stroke="#191970" d="M311.5841,-172.6237C335.8678,-181.0483 372.2123,-193.5414 404,-204 410.8581,-206.2564 418.0635,-208.589 425.2164,-210.8811"/>
<polygon fill="#191970" stroke="#191970" points="424.3096,-214.2655 434.9003,-213.9706 426.4372,-207.5967 424.3096,-214.2655"/>
</g>
<!-- Node100 -->
<g id="node13" class="node">
<title>Node100</title>
<g id="a_node13"><a xlink:href="classene_1_1models_1_1PlayerModel.html#a5617391131179365729686dc4eea1ea1" target="_top" xlink:title="ene.models.PlayerModel.setClip">
<polygon fill="none" stroke="#000000" points="404,-175.5 404,-194.5 562,-194.5 562,-175.5 404,-175.5"/>
<text text-anchor="middle" x="483" y="-182.5" font-family="Helvetica,sans-Serif" font-size="10.00" fill="#000000">ene.models.PlayerModel.setClip</text>
</a>
</g>
</g>
<!-- Node93&#45;&gt;Node100 -->
<g id="edge12" class="edge">
<title>Node93&#45;&gt;Node100</title>
<path fill="none" stroke="#191970" d="M356.6883,-171.0359C368.6586,-172.3592 381.1885,-173.7445 393.5114,-175.1068"/>
<polygon fill="#191970" stroke="#191970" points="393.4731,-178.6238 403.7971,-176.2439 394.2423,-171.6662 393.4731,-178.6238"/>
</g>
<!-- Node101 -->
<g id="node14" class="node">
<title>Node101</title>
<g id="a_node14"><a xlink:href="classene_1_1models_1_1PlayerModel.html#a921a00136726aee3bcababbd6c9b2e3e" target="_top" xlink:title="ene.models.PlayerModel.set\lCurrentTrack">
<polygon fill="none" stroke="#000000" points="413,-126 413,-156 553,-156 553,-126 413,-126"/>
<text text-anchor="start" x="421" y="-144" font-family="Helvetica,sans-Serif" font-size="10.00" fill="#000000">ene.models.PlayerModel.set</text>
<text text-anchor="middle" x="483" y="-133" font-family="Helvetica,sans-Serif" font-size="10.00" fill="#000000">CurrentTrack</text>
</a>
</g>
</g>
<!-- Node93&#45;&gt;Node101 -->
<g id="edge13" class="edge">
<title>Node93&#45;&gt;Node101</title>
<path fill="none" stroke="#191970" d="M356.6883,-154.9641C371.5732,-153.3185 387.3231,-151.5773 402.4646,-149.9034"/>
<polygon fill="#191970" stroke="#191970" points="403.277,-153.335 412.8318,-148.7573 402.5078,-146.3774 403.277,-153.335"/>
</g>
<!-- Node95 -->
<g id="node8" class="node">
<title>Node95</title>
<g id="a_node8"><a xlink:href="classene_1_1AbstractObject.html#a9ce30d3321c7ce794df2f07bdaf3e47c" target="_top" xlink:title="ene.AbstractObject.console\lOutput">
<polygon fill="none" stroke="#000000" points="616,-52 616,-82 753,-82 753,-52 616,-52"/>
<text text-anchor="start" x="624" y="-70" font-family="Helvetica,sans-Serif" font-size="10.00" fill="#000000">ene.AbstractObject.console</text>
<text text-anchor="middle" x="684.5" y="-59" font-family="Helvetica,sans-Serif" font-size="10.00" fill="#000000">Output</text>
</a>
</g>
</g>
<!-- Node94&#45;&gt;Node95 -->
<g id="edge7" class="edge">
<title>Node94&#45;&gt;Node95</title>
<path fill="none" stroke="#191970" d="M548.143,-83.9177C566.4666,-81.6443 586.5934,-79.1472 605.626,-76.7859"/>
<polygon fill="#191970" stroke="#191970" points="606.272,-80.2326 615.7649,-75.5279 605.41,-73.2859 606.272,-80.2326"/>
</g>
<!-- Node96 -->
<g id="node9" class="node">
<title>Node96</title>
<g id="a_node9"><a xlink:href="classene_1_1AbstractObject.html#a6ee0b669069e0c3ee320a6cf41af24fe" target="_top" xlink:title="ene.AbstractObject.isDebug\lModeEnabled">
<polygon fill="none" stroke="#000000" points="614.5,-101 614.5,-131 754.5,-131 754.5,-101 614.5,-101"/>
<text text-anchor="start" x="622.5" y="-119" font-family="Helvetica,sans-Serif" font-size="10.00" fill="#000000">ene.AbstractObject.isDebug</text>
<text text-anchor="middle" x="684.5" y="-108" font-family="Helvetica,sans-Serif" font-size="10.00" fill="#000000">ModeEnabled</text>
</a>
</g>
</g>
<!-- Node94&#45;&gt;Node96 -->
<g id="edge8" class="edge">
<title>Node94&#45;&gt;Node96</title>
<path fill="none" stroke="#191970" d="M548.143,-99.759C566.0767,-101.895 585.7378,-104.2368 604.4097,-106.4607"/>
<polygon fill="#191970" stroke="#191970" points="604.0216,-109.9391 614.3654,-107.6465 604.8495,-102.9883 604.0216,-109.9391"/>
</g>
<!-- Node102&#45;&gt;Node89 -->
<g id="edge15" class="edge">
<title>Node102&#45;&gt;Node89</title>
<path fill="none" stroke="#191970" d="M313.2574,-293.0273C337.353,-305.1877 372.5457,-322.4569 404,-336 412.9008,-339.8324 422.468,-343.6844 431.765,-347.2907"/>
<polygon fill="#191970" stroke="#191970" points="430.7261,-350.6407 441.3165,-350.9489 433.2298,-344.1037 430.7261,-350.6407"/>
</g>
<!-- Node102&#45;&gt;Node91 -->
<g id="edge17" class="edge">
<title>Node102&#45;&gt;Node91</title>
<path fill="none" stroke="#191970" d="M352.3933,-293.0278C431.1814,-310.3395 558.992,-338.4227 630.9149,-354.226"/>
<polygon fill="#191970" stroke="#191970" points="630.5903,-357.7381 641.1085,-356.4658 632.0926,-350.9012 630.5903,-357.7381"/>
</g>
<!-- Node102&#45;&gt;Node99 -->
<g id="edge16" class="edge">
<title>Node102&#45;&gt;Node99</title>
<path fill="none" stroke="#191970" d="M345.059,-262.9654C366.2616,-257.7446 390.2162,-251.8463 412.1423,-246.4474"/>
<polygon fill="#191970" stroke="#191970" points="413.1834,-249.7957 422.0565,-244.0062 411.5097,-242.9987 413.1834,-249.7957"/>
</g>
<!-- Node103 -->
<g id="node16" class="node">
<title>Node103</title>
<g id="a_node16"><a xlink:href="classene_1_1models_1_1PlaylistModel.html#a7150506b3801f97a2e38955a585bbd07" target="_top" xlink:title="ene.models.PlaylistModel.set\lCurrentTrack">
<polygon fill="none" stroke="#000000" points="410.5,-263 410.5,-293 555.5,-293 555.5,-263 410.5,-263"/>
<text text-anchor="start" x="418.5" y="-281" font-family="Helvetica,sans-Serif" font-size="10.00" fill="#000000">ene.models.PlaylistModel.set</text>
<text text-anchor="middle" x="483" y="-270" font-family="Helvetica,sans-Serif" font-size="10.00" fill="#000000">CurrentTrack</text>
</a>
</g>
</g>
<!-- Node102&#45;&gt;Node103 -->
<g id="edge18" class="edge">
<title>Node102&#45;&gt;Node103</title>
<path fill="none" stroke="#191970" d="M368.1055,-278C378.7165,-278 389.567,-278 400.1582,-278"/>
<polygon fill="#191970" stroke="#191970" points="400.217,-281.5001 410.217,-278 400.217,-274.5001 400.217,-281.5001"/>
</g>
<!-- Node103&#45;&gt;Node90 -->
<g id="edge19" class="edge">
<title>Node103&#45;&gt;Node90</title>
<path fill="none" stroke="#191970" d="M551.7813,-293.0192C569.1927,-296.8212 588.0252,-300.9336 605.882,-304.8328"/>
<polygon fill="#191970" stroke="#191970" points="605.1703,-308.2598 615.6868,-306.9738 606.6637,-301.4209 605.1703,-308.2598"/>
</g>
<!-- Node104 -->
<g id="node17" class="node">
<title>Node104</title>
<g id="a_node17"><a xlink:href="classene_1_1models_1_1AbstractModel.html#a970306ac2228cbcb599f65476d8c80dd" target="_top" xlink:title="ene.models.AbstractModel.changed">
<polygon fill="none" stroke="#000000" points="598,-268.5 598,-287.5 771,-287.5 771,-268.5 598,-268.5"/>
<text text-anchor="middle" x="684.5" y="-275.5" font-family="Helvetica,sans-Serif" font-size="10.00" fill="#000000">ene.models.AbstractModel.changed</text>
</a>
</g>
</g>
<!-- Node103&#45;&gt;Node104 -->
<g id="edge20" class="edge">
<title>Node103&#45;&gt;Node104</title>
<path fill="none" stroke="#191970" d="M555.7461,-278C566.0828,-278 576.8468,-278 587.5534,-278"/>
<polygon fill="#191970" stroke="#191970" points="587.7851,-281.5001 597.785,-278 587.785,-274.5001 587.7851,-281.5001"/>
</g>
<!-- Node105 -->
<g id="node18" class="node">
<title>Node105</title>
<g id="a_node18"><a xlink:href="interfaceene_1_1interfaces_1_1PartialView.html#aae781d286eda4cbf8c57fdb877dde265" target="_top" xlink:title="ene.interfaces.PartialView.update">
<polygon fill="none" stroke="#000000" points="807,-268.5 807,-287.5 970,-287.5 970,-268.5 807,-268.5"/>
<text text-anchor="middle" x="888.5" y="-275.5" font-family="Helvetica,sans-Serif" font-size="10.00" fill="#000000">ene.interfaces.PartialView.update</text>
</a>
</g>
</g>
<!-- Node104&#45;&gt;Node105 -->
<g id="edge21" class="edge">
<title>Node104&#45;&gt;Node105</title>
<path fill="none" stroke="#191970" d="M771.0144,-278C779.4296,-278 787.9887,-278 796.4555,-278"/>
<polygon fill="#191970" stroke="#191970" points="796.7215,-281.5001 806.7215,-278 796.7214,-274.5001 796.7215,-281.5001"/>
</g>
</g>
</svg>
