<?xml version="1.0" encoding="UTF-8" standalone="no"?>
<!DOCTYPE svg PUBLIC "-//W3C//DTD SVG 1.1//EN"
 "http://www.w3.org/Graphics/SVG/1.1/DTD/svg11.dtd">
<!-- Generated by graphviz version 2.40.1 (20161225.0304)
 -->
<!-- Title: ene.views.gui.partial.AbstractTrackListView.valueChanged Pages: 1 -->
<svg width="566pt" height="320pt"
 viewBox="0.00 0.00 566.00 319.50" xmlns="http://www.w3.org/2000/svg" xmlns:xlink="http://www.w3.org/1999/xlink">
<g id="graph0" class="graph" transform="scale(1 1) rotate(0) translate(4 315.5)">
<title>ene.views.gui.partial.AbstractTrackListView.valueChanged</title>
<!-- Node41 -->
<g id="node1" class="node">
<title>Node41</title>
<polygon fill="#bfbfbf" stroke="#000000" points="0,-134 0,-164 146,-164 146,-134 0,-134"/>
<text text-anchor="start" x="8" y="-152" font-family="Helvetica,sans-Serif" font-size="10.00" fill="#000000">ene.views.gui.partial.Abstract</text>
<text text-anchor="middle" x="73" y="-141" font-family="Helvetica,sans-Serif" font-size="10.00" fill="#000000">TrackListView.valueChanged</text>
</g>
<!-- Node42 -->
<g id="node2" class="node">
<title>Node42</title>
<g id="a_node2"><a xlink:href="classene_1_1AbstractObject.html#aff9619cf289ec83735b6c6ca2c12e020" target="_top" xlink:title="ene.AbstractObject.debug\lInfoAbout">
<polygon fill="none" stroke="#000000" points="204,-232 204,-262 334,-262 334,-232 204,-232"/>
<text text-anchor="start" x="212" y="-250" font-family="Helvetica,sans-Serif" font-size="10.00" fill="#000000">ene.AbstractObject.debug</text>
<text text-anchor="middle" x="269" y="-239" font-family="Helvetica,sans-Serif" font-size="10.00" fill="#000000">InfoAbout</text>
</a>
</g>
</g>
<!-- Node41&#45;&gt;Node42 -->
<g id="edge1" class="edge">
<title>Node41&#45;&gt;Node42</title>
<path fill="none" stroke="#191970" d="M91.1633,-164.1029C111.9336,-180.6883 147.5324,-207.0756 182,-223 186.3071,-224.9899 190.8125,-226.8449 195.4091,-228.569"/>
<polygon fill="#191970" stroke="#191970" points="194.3431,-231.9042 204.9379,-231.9254 196.6687,-225.3018 194.3431,-231.9042"/>
</g>
<!-- Node45 -->
<g id="node5" class="node">
<title>Node45</title>
<g id="a_node5"><a xlink:href="classene_1_1views_1_1AbstractPartialView.html#afb90f9e02eea94a2fb276d711a67ee36" target="_top" xlink:title="ene.views.AbstractPartial\lView.getModel">
<polygon fill="none" stroke="#000000" points="205,-183 205,-213 333,-213 333,-183 205,-183"/>
<text text-anchor="start" x="213" y="-201" font-family="Helvetica,sans-Serif" font-size="10.00" fill="#000000">ene.views.AbstractPartial</text>
<text text-anchor="middle" x="269" y="-190" font-family="Helvetica,sans-Serif" font-size="10.00" fill="#000000">View.getModel</text>
</a>
</g>
</g>
<!-- Node41&#45;&gt;Node45 -->
<g id="edge4" class="edge">
<title>Node41&#45;&gt;Node45</title>
<path fill="none" stroke="#191970" d="M133.1385,-164.0346C154.0215,-169.2554 177.6149,-175.1537 199.2105,-180.5526"/>
<polygon fill="#191970" stroke="#191970" points="198.4249,-183.9639 208.9753,-182.9938 200.1227,-177.1729 198.4249,-183.9639"/>
</g>
<!-- Node46 -->
<g id="node6" class="node">
<title>Node46</title>
<g id="a_node6"><a xlink:href="classene_1_1views_1_1gui_1_1partial_1_1AbstractTrackListView.html#af869688a373ddb6b1938b53487756d08" target="_top" xlink:title="ene.views.gui.partial.Abstract\lTrackListView.getPlayerController">
<polygon fill="none" stroke="#000000" points="186.5,-134 186.5,-164 351.5,-164 351.5,-134 186.5,-134"/>
<text text-anchor="start" x="194.5" y="-152" font-family="Helvetica,sans-Serif" font-size="10.00" fill="#000000">ene.views.gui.partial.Abstract</text>
<text text-anchor="middle" x="269" y="-141" font-family="Helvetica,sans-Serif" font-size="10.00" fill="#000000">TrackListView.getPlayerController</text>
</a>
</g>
</g>
<!-- Node41&#45;&gt;Node46 -->
<g id="edge5" class="edge">
<title>Node41&#45;&gt;Node46</title>
<path fill="none" stroke="#191970" d="M146.2619,-149C156.0478,-149 166.1858,-149 176.2498,-149"/>
<polygon fill="#191970" stroke="#191970" points="176.2734,-152.5001 186.2734,-149 176.2734,-145.5001 176.2734,-152.5001"/>
</g>
<!-- Node47 -->
<g id="node7" class="node">
<title>Node47</title>
<g id="a_node7"><a xlink:href="classene_1_1views_1_1gui_1_1partial_1_1AbstractTrackListView.html#a35a32113ecdb8bc210fa6b4e9c57c782" target="_top" xlink:title="ene.views.gui.partial.Abstract\lTrackListView.getSelectedFilename">
<polygon fill="none" stroke="#000000" points="182.5,-85 182.5,-115 355.5,-115 355.5,-85 182.5,-85"/>
<text text-anchor="start" x="190.5" y="-103" font-family="Helvetica,sans-Serif" font-size="10.00" fill="#000000">ene.views.gui.partial.Abstract</text>
<text text-anchor="middle" x="269" y="-92" font-family="Helvetica,sans-Serif" font-size="10.00" fill="#000000">TrackListView.getSelectedFilename</text>
</a>
</g>
</g>
<!-- Node41&#45;&gt;Node47 -->
<g id="edge6" class="edge">
<title>Node41&#45;&gt;Node47</title>
<path fill="none" stroke="#191970" d="M133.1385,-133.9654C154.0215,-128.7446 177.6149,-122.8463 199.2105,-117.4474"/>
<polygon fill="#191970" stroke="#191970" points="200.1227,-120.8271 208.9753,-115.0062 198.4249,-114.0361 200.1227,-120.8271"/>
</g>
<!-- Node51 -->
<g id="node11" class="node">
<title>Node51</title>
<g id="a_node11"><a xlink:href="classene_1_1controllers_1_1PlayerController.html#a3161f5c373dd9ec50cfa2f07e59ee1a1" target="_top" xlink:title="ene.controllers.PlayerController.load">
<polygon fill="none" stroke="#000000" points="182,-41.5 182,-60.5 356,-60.5 356,-41.5 182,-41.5"/>
<text text-anchor="middle" x="269" y="-48.5" font-family="Helvetica,sans-Serif" font-size="10.00" fill="#000000">ene.controllers.PlayerController.load</text>
</a>
</g>
</g>
<!-- Node41&#45;&gt;Node51 -->
<g id="edge10" class="edge">
<title>Node41&#45;&gt;Node51</title>
<path fill="none" stroke="#191970" d="M91.6084,-133.8881C112.4902,-117.5836 147.9197,-91.8353 182,-76 192.6924,-71.0318 204.5897,-66.8285 216.0673,-63.3684"/>
<polygon fill="#191970" stroke="#191970" points="217.3573,-66.6396 226.0049,-60.5185 215.4275,-59.9109 217.3573,-66.6396"/>
</g>
<!-- Node43 -->
<g id="node3" class="node">
<title>Node43</title>
<g id="a_node3"><a xlink:href="classene_1_1AbstractObject.html#a9ce30d3321c7ce794df2f07bdaf3e47c" target="_top" xlink:title="ene.AbstractObject.console\lOutput">
<polygon fill="none" stroke="#000000" points="406.5,-281 406.5,-311 543.5,-311 543.5,-281 406.5,-281"/>
<text text-anchor="start" x="414.5" y="-299" font-family="Helvetica,sans-Serif" font-size="10.00" fill="#000000">ene.AbstractObject.console</text>
<text text-anchor="middle" x="475" y="-288" font-family="Helvetica,sans-Serif" font-size="10.00" fill="#000000">Output</text>
</a>
</g>
</g>
<!-- Node42&#45;&gt;Node43 -->
<g id="edge2" class="edge">
<title>Node42&#45;&gt;Node43</title>
<path fill="none" stroke="#191970" d="M332.2068,-262.0346C354.2541,-267.2789 379.1759,-273.2069 401.9564,-278.6255"/>
<polygon fill="#191970" stroke="#191970" points="401.3742,-282.0847 411.9128,-280.9938 402.9942,-275.2747 401.3742,-282.0847"/>
</g>
<!-- Node44 -->
<g id="node4" class="node">
<title>Node44</title>
<g id="a_node4"><a xlink:href="classene_1_1AbstractObject.html#a6ee0b669069e0c3ee320a6cf41af24fe" target="_top" xlink:title="ene.AbstractObject.isDebug\lModeEnabled">
<polygon fill="none" stroke="#000000" points="405,-232 405,-262 545,-262 545,-232 405,-232"/>
<text text-anchor="start" x="413" y="-250" font-family="Helvetica,sans-Serif" font-size="10.00" fill="#000000">ene.AbstractObject.isDebug</text>
<text text-anchor="middle" x="475" y="-239" font-family="Helvetica,sans-Serif" font-size="10.00" fill="#000000">ModeEnabled</text>
</a>
</g>
</g>
<!-- Node42&#45;&gt;Node44 -->
<g id="edge3" class="edge">
<title>Node42&#45;&gt;Node44</title>
<path fill="none" stroke="#191970" d="M334.1797,-247C353.4397,-247 374.7485,-247 394.8369,-247"/>
<polygon fill="#191970" stroke="#191970" points="394.8985,-250.5001 404.8984,-247 394.8984,-243.5001 394.8985,-250.5001"/>
</g>
<!-- Node48 -->
<g id="node8" class="node">
<title>Node48</title>
<g id="a_node8"><a xlink:href="classene_1_1views_1_1gui_1_1partial_1_1AbstractTrackListView.html#aeea3d90287745704cda06893c94b9666" target="_top" xlink:title="ene.views.gui.partial.Abstract\lTrackListView.getTable">
<polygon fill="none" stroke="#000000" points="402,-159 402,-189 548,-189 548,-159 402,-159"/>
<text text-anchor="start" x="410" y="-177" font-family="Helvetica,sans-Serif" font-size="10.00" fill="#000000">ene.views.gui.partial.Abstract</text>
<text text-anchor="middle" x="475" y="-166" font-family="Helvetica,sans-Serif" font-size="10.00" fill="#000000">TrackListView.getTable</text>
</a>
</g>
</g>
<!-- Node47&#45;&gt;Node48 -->
<g id="edge7" class="edge">
<title>Node47&#45;&gt;Node48</title>
<path fill="none" stroke="#191970" d="M330.776,-115.0212C339.4157,-117.9043 348.0504,-121.2244 356,-125 373.5959,-133.3571 374.411,-141.6283 392,-150 396.0717,-151.938 400.3317,-153.7518 404.6796,-155.4438"/>
<polygon fill="#191970" stroke="#191970" points="403.7056,-158.8141 414.2995,-158.9544 406.1054,-152.2383 403.7056,-158.8141"/>
</g>
<!-- Node49 -->
<g id="node9" class="node">
<title>Node49</title>
<g id="a_node9"><a xlink:href="classene_1_1views_1_1gui_1_1partial_1_1AbstractTrackListView.html#a709dd0b919d5e537076fe18ad992f25f" target="_top" xlink:title="ene.views.gui.partial.Abstract\lTrackListView.getTableContent">
<polygon fill="none" stroke="#000000" points="398,-110 398,-140 552,-140 552,-110 398,-110"/>
<text text-anchor="start" x="406" y="-128" font-family="Helvetica,sans-Serif" font-size="10.00" fill="#000000">ene.views.gui.partial.Abstract</text>
<text text-anchor="middle" x="475" y="-117" font-family="Helvetica,sans-Serif" font-size="10.00" fill="#000000">TrackListView.getTableContent</text>
</a>
</g>
</g>
<!-- Node47&#45;&gt;Node49 -->
<g id="edge8" class="edge">
<title>Node47&#45;&gt;Node49</title>
<path fill="none" stroke="#191970" d="M355.7655,-110.5298C366.3481,-111.8141 377.1652,-113.1268 387.7547,-114.412"/>
<polygon fill="#191970" stroke="#191970" points="387.4739,-117.9035 397.8228,-115.6338 388.3173,-110.9545 387.4739,-117.9035"/>
</g>
<!-- Node50 -->
<g id="node10" class="node">
<title>Node50</title>
<g id="a_node10"><a xlink:href="classene_1_1views_1_1gui_1_1partial_1_1AbstractTrackListView.html#abb6fc383a050c8c908502156536ce518" target="_top" xlink:title="ene.views.gui.partial.Abstract\lTrackListView.getTableRowSorter">
<polygon fill="none" stroke="#000000" points="392,-61 392,-91 558,-91 558,-61 392,-61"/>
<text text-anchor="start" x="400" y="-79" font-family="Helvetica,sans-Serif" font-size="10.00" fill="#000000">ene.views.gui.partial.Abstract</text>
<text text-anchor="middle" x="475" y="-68" font-family="Helvetica,sans-Serif" font-size="10.00" fill="#000000">TrackListView.getTableRowSorter</text>
</a>
</g>
</g>
<!-- Node47&#45;&gt;Node50 -->
<g id="edge9" class="edge">
<title>Node47&#45;&gt;Node50</title>
<path fill="none" stroke="#191970" d="M355.7655,-89.8914C364.38,-88.8878 373.1499,-87.866 381.826,-86.8552"/>
<polygon fill="#191970" stroke="#191970" points="382.4251,-90.3092 391.9529,-85.6754 381.615,-83.3562 382.4251,-90.3092"/>
</g>
<!-- Node52 -->
<g id="node12" class="node">
<title>Node52</title>
<g id="a_node12"><a xlink:href="classene_1_1controllers_1_1AbstractController.html#a9a5afba01d0004a64db4cb14c23e0bbd" target="_top" xlink:title="ene.controllers.Abstract\lController\&lt; PlayerModel\l \&gt;::getModel">
<polygon fill="none" stroke="#000000" points="414,-.5 414,-41.5 536,-41.5 536,-.5 414,-.5"/>
<text text-anchor="start" x="422" y="-29.5" font-family="Helvetica,sans-Serif" font-size="10.00" fill="#000000">ene.controllers.Abstract</text>
<text text-anchor="start" x="422" y="-18.5" font-family="Helvetica,sans-Serif" font-size="10.00" fill="#000000">Controller&lt; PlayerModel</text>
<text text-anchor="middle" x="475" y="-7.5" font-family="Helvetica,sans-Serif" font-size="10.00" fill="#000000"> &gt;::getModel</text>
</a>
</g>
</g>
<!-- Node51&#45;&gt;Node52 -->
<g id="edge11" class="edge">
<title>Node51&#45;&gt;Node52</title>
<path fill="none" stroke="#191970" d="M334.4627,-41.4666C356.5304,-38.2529 381.2612,-34.6513 403.753,-31.3758"/>
<polygon fill="#191970" stroke="#191970" points="404.5207,-34.801 413.9119,-29.8963 403.5119,-27.874 404.5207,-34.801"/>
</g>
</g>
</svg>
