<?xml version="1.0" encoding="UTF-8" standalone="no"?>
<!DOCTYPE svg PUBLIC "-//W3C//DTD SVG 1.1//EN"
 "http://www.w3.org/Graphics/SVG/1.1/DTD/svg11.dtd">
<!-- Generated by graphviz version 2.40.1 (20161225.0304)
 -->
<!-- Title: ene.views.AbstractView.setCoreComponent Pages: 1 -->
<svg width="350pt" height="176pt"
 viewBox="0.00 0.00 350.00 176.00" xmlns="http://www.w3.org/2000/svg" xmlns:xlink="http://www.w3.org/1999/xlink">
<g id="graph0" class="graph" transform="scale(1 1) rotate(0) translate(4 172)">
<title>ene.views.AbstractView.setCoreComponent</title>
<!-- Node11 -->
<g id="node1" class="node">
<title>Node11</title>
<polygon fill="#bfbfbf" stroke="#000000" points="0,-71.5 0,-101.5 139,-101.5 139,-71.5 0,-71.5"/>
<text text-anchor="start" x="8" y="-89.5" font-family="Helvetica,sans-Serif" font-size="10.00" fill="#000000">ene.views.AbstractView.set</text>
<text text-anchor="middle" x="69.5" y="-78.5" font-family="Helvetica,sans-Serif" font-size="10.00" fill="#000000">CoreComponent</text>
</g>
<!-- Node12 -->
<g id="node2" class="node">
<title>Node12</title>
<g id="a_node2"><a xlink:href="classene_1_1views_1_1gui_1_1partial_1_1ContentView.html#a7615ef3421a9f5a70e4929ec72132020" target="_top" xlink:title="ene.views.gui.partial.Content\lView.render">
<polygon fill="none" stroke="#000000" points="187,-137.5 187,-167.5 330,-167.5 330,-137.5 187,-137.5"/>
<text text-anchor="start" x="195" y="-155.5" font-family="Helvetica,sans-Serif" font-size="10.00" fill="#000000">ene.views.gui.partial.Content</text>
<text text-anchor="middle" x="258.5" y="-144.5" font-family="Helvetica,sans-Serif" font-size="10.00" fill="#000000">View.render</text>
</a>
</g>
</g>
<!-- Node11&#45;&gt;Node12 -->
<g id="edge1" class="edge">
<title>Node11&#45;&gt;Node12</title>
<path fill="none" stroke="#191970" d="M115.6367,-105.349C133.9905,-112.6055 155.3752,-120.7608 175,-127.5 184.8753,-130.8912 195.4932,-134.2705 205.736,-137.398"/>
<polygon fill="#191970" stroke="#191970" points="116.9259,-102.0951 106.3405,-101.6484 114.337,-108.5988 116.9259,-102.0951"/>
</g>
<!-- Node13 -->
<g id="node3" class="node">
<title>Node13</title>
<g id="a_node3"><a xlink:href="classene_1_1views_1_1gui_1_1WindowView.html#a2ce6d135f47d21b01c91eeeac2e5c52a" target="_top" xlink:title="ene.views.gui.WindowView.render">
<polygon fill="none" stroke="#000000" points="175,-99 175,-118 342,-118 342,-99 175,-99"/>
<text text-anchor="middle" x="258.5" y="-106" font-family="Helvetica,sans-Serif" font-size="10.00" fill="#000000">ene.views.gui.WindowView.render</text>
</a>
</g>
</g>
<!-- Node11&#45;&gt;Node13 -->
<g id="edge2" class="edge">
<title>Node11&#45;&gt;Node13</title>
<path fill="none" stroke="#191970" d="M149.2028,-95.7776C158.2625,-96.8321 167.5084,-97.9084 176.596,-98.9662"/>
<polygon fill="#191970" stroke="#191970" points="149.4091,-92.278 139.0714,-94.5983 148.5997,-99.2311 149.4091,-92.278"/>
</g>
<!-- Node14 -->
<g id="node4" class="node">
<title>Node14</title>
<g id="a_node4"><a xlink:href="classene_1_1views_1_1gui_1_1partial_1_1LibraryView.html#a0bd6885fe06ebde4d3dffbcd888c0b41" target="_top" xlink:title="ene.views.gui.partial.Library\lView.render">
<polygon fill="none" stroke="#000000" points="189.5,-49.5 189.5,-79.5 327.5,-79.5 327.5,-49.5 189.5,-49.5"/>
<text text-anchor="start" x="197.5" y="-67.5" font-family="Helvetica,sans-Serif" font-size="10.00" fill="#000000">ene.views.gui.partial.Library</text>
<text text-anchor="middle" x="258.5" y="-56.5" font-family="Helvetica,sans-Serif" font-size="10.00" fill="#000000">View.render</text>
</a>
</g>
</g>
<!-- Node11&#45;&gt;Node14 -->
<g id="edge3" class="edge">
<title>Node11&#45;&gt;Node14</title>
<path fill="none" stroke="#191970" d="M149.1927,-77.2236C162.5554,-75.6682 176.3231,-74.0656 189.3912,-72.5444"/>
<polygon fill="#191970" stroke="#191970" points="148.5997,-73.7689 139.0714,-78.4017 149.4091,-80.722 148.5997,-73.7689"/>
</g>
<!-- Node15 -->
<g id="node5" class="node">
<title>Node15</title>
<g id="a_node5"><a xlink:href="classene_1_1views_1_1gui_1_1partial_1_1PlayerView.html#a7e28fb299fee46d221d3224ffb87ea35" target="_top" xlink:title="ene.views.gui.partial.Player\lView.render">
<polygon fill="none" stroke="#000000" points="190,-.5 190,-30.5 327,-30.5 327,-.5 190,-.5"/>
<text text-anchor="start" x="198" y="-18.5" font-family="Helvetica,sans-Serif" font-size="10.00" fill="#000000">ene.views.gui.partial.Player</text>
<text text-anchor="middle" x="258.5" y="-7.5" font-family="Helvetica,sans-Serif" font-size="10.00" fill="#000000">View.render</text>
</a>
</g>
</g>
<!-- Node11&#45;&gt;Node15 -->
<g id="edge4" class="edge">
<title>Node11&#45;&gt;Node15</title>
<path fill="none" stroke="#191970" d="M110.5428,-67.2348C129.8779,-58.5143 153.3935,-48.4124 175,-40.5 184.5204,-37.0136 194.7769,-33.6397 204.7321,-30.5582"/>
<polygon fill="#191970" stroke="#191970" points="109.0657,-64.0615 101.4135,-71.3892 111.9651,-70.4329 109.0657,-64.0615"/>
</g>
</g>
</svg>
