<?xml version="1.0" encoding="UTF-8" standalone="no"?>
<!DOCTYPE svg PUBLIC "-//W3C//DTD SVG 1.1//EN"
 "http://www.w3.org/Graphics/SVG/1.1/DTD/svg11.dtd">
<!-- Generated by graphviz version 2.40.1 (20161225.0304)
 -->
<!-- Title: ene.views.gui.partial.PlaylistView Pages: 1 -->
<svg width="1203pt" height="1203pt"
 viewBox="0.00 0.00 1203.00 1203.00" xmlns="http://www.w3.org/2000/svg" xmlns:xlink="http://www.w3.org/1999/xlink">
<g id="graph0" class="graph" transform="scale(1 1) rotate(0) translate(4 1199)">
<title>ene.views.gui.partial.PlaylistView</title>
<!-- Node10 -->
<g id="node1" class="node">
<title>Node10</title>
<polygon fill="#bfbfbf" stroke="#000000" points="200.5,-.5 200.5,-123.5 363.5,-123.5 363.5,-.5 200.5,-.5"/>
<text text-anchor="middle" x="282" y="-111.5" font-family="Helvetica,sans-Serif" font-size="10.00" fill="#000000">ene.views.gui.partial.PlaylistView</text>
<polyline fill="none" stroke="#000000" points="200.5,-104.5 363.5,-104.5 "/>
<text text-anchor="middle" x="282" y="-92.5" font-family="Helvetica,sans-Serif" font-size="10.00" fill="#000000"> </text>
<polyline fill="none" stroke="#000000" points="200.5,-85.5 363.5,-85.5 "/>
<text text-anchor="start" x="208.5" y="-73.5" font-family="Helvetica,sans-Serif" font-size="10.00" fill="#000000">+ PlaylistView()</text>
<text text-anchor="start" x="208.5" y="-62.5" font-family="Helvetica,sans-Serif" font-size="10.00" fill="#000000">+ mousePressed()</text>
<text text-anchor="start" x="208.5" y="-51.5" font-family="Helvetica,sans-Serif" font-size="10.00" fill="#000000">+ update()</text>
<text text-anchor="start" x="208.5" y="-40.5" font-family="Helvetica,sans-Serif" font-size="10.00" fill="#000000">+ render()</text>
<text text-anchor="start" x="208.5" y="-29.5" font-family="Helvetica,sans-Serif" font-size="10.00" fill="#000000"># setPlaylistController()</text>
<text text-anchor="start" x="208.5" y="-18.5" font-family="Helvetica,sans-Serif" font-size="10.00" fill="#000000"># getPlaylistController()</text>
<text text-anchor="start" x="208.5" y="-7.5" font-family="Helvetica,sans-Serif" font-size="10.00" fill="#000000"># loadContent()</text>
</g>
<!-- Node11 -->
<g id="node2" class="node">
<title>Node11</title>
<g id="a_node2"><a xlink:href="classene_1_1views_1_1gui_1_1partial_1_1AbstractTrackListView.html" target="_top" xlink:title="{ene.views.gui.partial.Abstract\lTrackListView\n||+ mouseClicked()\l+ mousePressed()\l+ mouseReleased()\l+ mouseEntered()\l+ mouseExited()\l+ valueChanged()\l# setTable()\l# getTable()\l# setTableContent()\l# getTableContent()\l# setTableRowSorter()\l# getTableRowSorter()\l# setPlayerController()\l# getPlayerController()\l# hideColumn()\l# setColumnWidth()\l# getSelectedFilename()\l}">
<polygon fill="none" stroke="#000000" points="655,-161.5 655,-405.5 801,-405.5 801,-161.5 655,-161.5"/>
<text text-anchor="start" x="663" y="-393.5" font-family="Helvetica,sans-Serif" font-size="10.00" fill="#000000">ene.views.gui.partial.Abstract</text>
<text text-anchor="middle" x="728" y="-382.5" font-family="Helvetica,sans-Serif" font-size="10.00" fill="#000000">TrackListView</text>
<polyline fill="none" stroke="#000000" points="655,-375.5 801,-375.5 "/>
<text text-anchor="middle" x="728" y="-363.5" font-family="Helvetica,sans-Serif" font-size="10.00" fill="#000000"> </text>
<polyline fill="none" stroke="#000000" points="655,-356.5 801,-356.5 "/>
<text text-anchor="start" x="663" y="-344.5" font-family="Helvetica,sans-Serif" font-size="10.00" fill="#000000">+ mouseClicked()</text>
<text text-anchor="start" x="663" y="-333.5" font-family="Helvetica,sans-Serif" font-size="10.00" fill="#000000">+ mousePressed()</text>
<text text-anchor="start" x="663" y="-322.5" font-family="Helvetica,sans-Serif" font-size="10.00" fill="#000000">+ mouseReleased()</text>
<text text-anchor="start" x="663" y="-311.5" font-family="Helvetica,sans-Serif" font-size="10.00" fill="#000000">+ mouseEntered()</text>
<text text-anchor="start" x="663" y="-300.5" font-family="Helvetica,sans-Serif" font-size="10.00" fill="#000000">+ mouseExited()</text>
<text text-anchor="start" x="663" y="-289.5" font-family="Helvetica,sans-Serif" font-size="10.00" fill="#000000">+ valueChanged()</text>
<text text-anchor="start" x="663" y="-278.5" font-family="Helvetica,sans-Serif" font-size="10.00" fill="#000000"># setTable()</text>
<text text-anchor="start" x="663" y="-267.5" font-family="Helvetica,sans-Serif" font-size="10.00" fill="#000000"># getTable()</text>
<text text-anchor="start" x="663" y="-256.5" font-family="Helvetica,sans-Serif" font-size="10.00" fill="#000000"># setTableContent()</text>
<text text-anchor="start" x="663" y="-245.5" font-family="Helvetica,sans-Serif" font-size="10.00" fill="#000000"># getTableContent()</text>
<text text-anchor="start" x="663" y="-234.5" font-family="Helvetica,sans-Serif" font-size="10.00" fill="#000000"># setTableRowSorter()</text>
<text text-anchor="start" x="663" y="-223.5" font-family="Helvetica,sans-Serif" font-size="10.00" fill="#000000"># getTableRowSorter()</text>
<text text-anchor="start" x="663" y="-212.5" font-family="Helvetica,sans-Serif" font-size="10.00" fill="#000000"># setPlayerController()</text>
<text text-anchor="start" x="663" y="-201.5" font-family="Helvetica,sans-Serif" font-size="10.00" fill="#000000"># getPlayerController()</text>
<text text-anchor="start" x="663" y="-190.5" font-family="Helvetica,sans-Serif" font-size="10.00" fill="#000000"># hideColumn()</text>
<text text-anchor="start" x="663" y="-179.5" font-family="Helvetica,sans-Serif" font-size="10.00" fill="#000000"># setColumnWidth()</text>
<text text-anchor="start" x="663" y="-168.5" font-family="Helvetica,sans-Serif" font-size="10.00" fill="#000000"># getSelectedFilename()</text>
</a>
</g>
</g>
<!-- Node11&#45;&gt;Node10 -->
<g id="edge1" class="edge">
<title>Node11&#45;&gt;Node10</title>
<path fill="none" stroke="#191970" d="M645.7442,-242.6487C565.3411,-202.7176 443.653,-142.2828 363.5074,-102.4796"/>
<polygon fill="none" stroke="#191970" points="644.3385,-245.8584 654.8516,-247.1718 647.4521,-239.589 644.3385,-245.8584"/>
</g>
<!-- Node12 -->
<g id="node3" class="node">
<title>Node12</title>
<g id="a_node3"><a xlink:href="classene_1_1views_1_1AbstractPartialView.html" target="_top" xlink:title="{ene::views::AbstractPartial\lView\&lt; JPanel, TrackListModel \&gt;\n||+ setModel()\l+ getModel()\l}">
<polygon fill="none" stroke="#000000" points="752.5,-646.5 752.5,-725.5 911.5,-725.5 911.5,-646.5 752.5,-646.5"/>
<text text-anchor="start" x="760.5" y="-713.5" font-family="Helvetica,sans-Serif" font-size="10.00" fill="#000000">ene::views::AbstractPartial</text>
<text text-anchor="middle" x="832" y="-702.5" font-family="Helvetica,sans-Serif" font-size="10.00" fill="#000000">View&lt; JPanel, TrackListModel &gt;</text>
<polyline fill="none" stroke="#000000" points="752.5,-695.5 911.5,-695.5 "/>
<text text-anchor="middle" x="832" y="-683.5" font-family="Helvetica,sans-Serif" font-size="10.00" fill="#000000"> </text>
<polyline fill="none" stroke="#000000" points="752.5,-676.5 911.5,-676.5 "/>
<text text-anchor="start" x="760.5" y="-664.5" font-family="Helvetica,sans-Serif" font-size="10.00" fill="#000000">+ setModel()</text>
<text text-anchor="start" x="760.5" y="-653.5" font-family="Helvetica,sans-Serif" font-size="10.00" fill="#000000">+ getModel()</text>
</a>
</g>
</g>
<!-- Node12&#45;&gt;Node11 -->
<g id="edge2" class="edge">
<title>Node12&#45;&gt;Node11</title>
<path fill="none" stroke="#191970" d="M834.7317,-635.7288C836.0029,-581.7743 833.2133,-494.3418 808,-424 805.8216,-417.9227 803.389,-411.8032 800.7652,-405.6984"/>
<polygon fill="none" stroke="#191970" points="831.2235,-635.96 834.4288,-646.0583 838.2205,-636.1653 831.2235,-635.96"/>
</g>
<!-- Node13 -->
<g id="node4" class="node">
<title>Node13</title>
<g id="a_node4"><a xlink:href="classene_1_1views_1_1AbstractView.html" target="_top" xlink:title="{ene::views::AbstractView\l\&lt; CoreComponentType \&gt;\n||+ setTitle()\l+ getTitle()\l+ setCoreComponent()\l+ getCoreComponent()\l+ setLayoutPosition()\l+ getLayoutPosition()\l}">
<polygon fill="none" stroke="#000000" points="710,-773.5 710,-896.5 838,-896.5 838,-773.5 710,-773.5"/>
<text text-anchor="start" x="718" y="-884.5" font-family="Helvetica,sans-Serif" font-size="10.00" fill="#000000">ene::views::AbstractView</text>
<text text-anchor="middle" x="774" y="-873.5" font-family="Helvetica,sans-Serif" font-size="10.00" fill="#000000">&lt; CoreComponentType &gt;</text>
<polyline fill="none" stroke="#000000" points="710,-866.5 838,-866.5 "/>
<text text-anchor="middle" x="774" y="-854.5" font-family="Helvetica,sans-Serif" font-size="10.00" fill="#000000"> </text>
<polyline fill="none" stroke="#000000" points="710,-847.5 838,-847.5 "/>
<text text-anchor="start" x="718" y="-835.5" font-family="Helvetica,sans-Serif" font-size="10.00" fill="#000000">+ setTitle()</text>
<text text-anchor="start" x="718" y="-824.5" font-family="Helvetica,sans-Serif" font-size="10.00" fill="#000000">+ getTitle()</text>
<text text-anchor="start" x="718" y="-813.5" font-family="Helvetica,sans-Serif" font-size="10.00" fill="#000000">+ setCoreComponent()</text>
<text text-anchor="start" x="718" y="-802.5" font-family="Helvetica,sans-Serif" font-size="10.00" fill="#000000">+ getCoreComponent()</text>
<text text-anchor="start" x="718" y="-791.5" font-family="Helvetica,sans-Serif" font-size="10.00" fill="#000000">+ setLayoutPosition()</text>
<text text-anchor="start" x="718" y="-780.5" font-family="Helvetica,sans-Serif" font-size="10.00" fill="#000000">+ getLayoutPosition()</text>
</a>
</g>
</g>
<!-- Node13&#45;&gt;Node12 -->
<g id="edge3" class="edge">
<title>Node13&#45;&gt;Node12</title>
<path fill="none" stroke="#191970" d="M801.7673,-763.6667C806.8374,-750.6419 811.9577,-737.4879 816.5071,-725.8008"/>
<polygon fill="none" stroke="#191970" points="798.4593,-762.5165 798.0933,-773.105 804.9825,-765.0558 798.4593,-762.5165"/>
</g>
<!-- Node14 -->
<g id="node5" class="node">
<title>Node14</title>
<g id="a_node5"><a xlink:href="classene_1_1AbstractObject.html" target="_top" xlink:title="{ene.AbstractObject\n||+ enableDebugMode()\l+ disableDebugMode()\l+ isDebugModeEnabled()\l+ debugInfoAbout()\l+ consoleOutput()\l# delay()\l}">
<polygon fill="none" stroke="#000000" points="416.5,-966.5 416.5,-1078.5 543.5,-1078.5 543.5,-966.5 416.5,-966.5"/>
<text text-anchor="middle" x="480" y="-1066.5" font-family="Helvetica,sans-Serif" font-size="10.00" fill="#000000">ene.AbstractObject</text>
<polyline fill="none" stroke="#000000" points="416.5,-1059.5 543.5,-1059.5 "/>
<text text-anchor="middle" x="480" y="-1047.5" font-family="Helvetica,sans-Serif" font-size="10.00" fill="#000000"> </text>
<polyline fill="none" stroke="#000000" points="416.5,-1040.5 543.5,-1040.5 "/>
<text text-anchor="start" x="424.5" y="-1028.5" font-family="Helvetica,sans-Serif" font-size="10.00" fill="#000000">+ enableDebugMode()</text>
<text text-anchor="start" x="424.5" y="-1017.5" font-family="Helvetica,sans-Serif" font-size="10.00" fill="#000000">+ disableDebugMode()</text>
<text text-anchor="start" x="424.5" y="-1006.5" font-family="Helvetica,sans-Serif" font-size="10.00" fill="#000000">+ isDebugModeEnabled()</text>
<text text-anchor="start" x="424.5" y="-995.5" font-family="Helvetica,sans-Serif" font-size="10.00" fill="#000000">+ debugInfoAbout()</text>
<text text-anchor="start" x="424.5" y="-984.5" font-family="Helvetica,sans-Serif" font-size="10.00" fill="#000000">+ consoleOutput()</text>
<text text-anchor="start" x="424.5" y="-973.5" font-family="Helvetica,sans-Serif" font-size="10.00" fill="#000000"># delay()</text>
</a>
</g>
</g>
<!-- Node14&#45;&gt;Node13 -->
<g id="edge4" class="edge">
<title>Node14&#45;&gt;Node13</title>
<path fill="none" stroke="#191970" d="M546.5507,-959.7788C548.6992,-958.1368 550.8517,-956.5397 553,-955 602.6807,-919.393 664.1181,-886.8425 709.5952,-864.6545"/>
<polygon fill="none" stroke="#191970" points="543.9697,-957.3579 538.3009,-966.3087 548.3142,-962.8466 543.9697,-957.3579"/>
</g>
<!-- Node27 -->
<g id="node18" class="node">
<title>Node27</title>
<g id="a_node18"><a xlink:href="classene_1_1controllers_1_1AbstractController.html" target="_top" xlink:title="{ene.controllers.Abstract\lController\&lt; ModelType \&gt;\n||+ setModel()\l+ getModel()\l}">
<polygon fill="none" stroke="#000000" points="303.5,-795.5 303.5,-874.5 428.5,-874.5 428.5,-795.5 303.5,-795.5"/>
<text text-anchor="start" x="311.5" y="-862.5" font-family="Helvetica,sans-Serif" font-size="10.00" fill="#000000">ene.controllers.Abstract</text>
<text text-anchor="middle" x="366" y="-851.5" font-family="Helvetica,sans-Serif" font-size="10.00" fill="#000000">Controller&lt; ModelType &gt;</text>
<polyline fill="none" stroke="#000000" points="303.5,-844.5 428.5,-844.5 "/>
<text text-anchor="middle" x="366" y="-832.5" font-family="Helvetica,sans-Serif" font-size="10.00" fill="#000000"> </text>
<polyline fill="none" stroke="#000000" points="303.5,-825.5 428.5,-825.5 "/>
<text text-anchor="start" x="311.5" y="-813.5" font-family="Helvetica,sans-Serif" font-size="10.00" fill="#000000">+ setModel()</text>
<text text-anchor="start" x="311.5" y="-802.5" font-family="Helvetica,sans-Serif" font-size="10.00" fill="#000000">+ getModel()</text>
</a>
</g>
</g>
<!-- Node14&#45;&gt;Node27 -->
<g id="edge19" class="edge">
<title>Node14&#45;&gt;Node27</title>
<path fill="none" stroke="#191970" d="M440.5878,-957.6773C423.8,-930.0658 404.7557,-898.743 390.1128,-874.6592"/>
<polygon fill="none" stroke="#191970" points="437.7649,-959.7715 445.9507,-966.4978 443.7461,-956.1348 437.7649,-959.7715"/>
</g>
<!-- Node15 -->
<g id="node6" class="node">
<title>Node15</title>
<polygon fill="none" stroke="#bfbfbf" points="441.5,-1137.5 441.5,-1194.5 518.5,-1194.5 518.5,-1137.5 441.5,-1137.5"/>
<text text-anchor="middle" x="480" y="-1182.5" font-family="Helvetica,sans-Serif" font-size="10.00" fill="#000000">static boolean</text>
<polyline fill="none" stroke="#bfbfbf" points="441.5,-1175.5 518.5,-1175.5 "/>
<text text-anchor="middle" x="480" y="-1163.5" font-family="Helvetica,sans-Serif" font-size="10.00" fill="#000000"> </text>
<polyline fill="none" stroke="#bfbfbf" points="441.5,-1156.5 518.5,-1156.5 "/>
<text text-anchor="middle" x="480" y="-1144.5" font-family="Helvetica,sans-Serif" font-size="10.00" fill="#000000"> </text>
</g>
<!-- Node15&#45;&gt;Node14 -->
<g id="edge5" class="edge">
<title>Node15&#45;&gt;Node14</title>
<path fill="none" stroke="#404040" d="M480,-1137.3055C480,-1123.9442 480,-1107.4218 480,-1091.1157"/>
<polygon fill="none" stroke="#404040" points="480.0001,-1090.7445 476,-1084.7445 480,-1078.7445 484,-1084.7444 480.0001,-1090.7445"/>
<text text-anchor="middle" x="527" y="-1111" font-family="Helvetica,sans-Serif" font-size="10.00" fill="#000000"> #debugModeEnabled</text>
</g>
<!-- Node16 -->
<g id="node7" class="node">
<title>Node16</title>
<g id="a_node7"><a xlink:href="interfaceene_1_1interfaces_1_1View.html" target="_top" xlink:title="{ene::interfaces::View\l\&lt; CoreComponentType \&gt;\n||+ setTitle()\l+ getTitle()\l+ setCoreComponent()\l+ getCoreComponent()\l+ setLayoutPosition()\l+ getLayoutPosition()\l+ render()\l}">
<polygon fill="none" stroke="#000000" points="902,-955.5 902,-1089.5 1030,-1089.5 1030,-955.5 902,-955.5"/>
<text text-anchor="start" x="910" y="-1077.5" font-family="Helvetica,sans-Serif" font-size="10.00" fill="#000000">ene::interfaces::View</text>
<text text-anchor="middle" x="966" y="-1066.5" font-family="Helvetica,sans-Serif" font-size="10.00" fill="#000000">&lt; CoreComponentType &gt;</text>
<polyline fill="none" stroke="#000000" points="902,-1059.5 1030,-1059.5 "/>
<text text-anchor="middle" x="966" y="-1047.5" font-family="Helvetica,sans-Serif" font-size="10.00" fill="#000000"> </text>
<polyline fill="none" stroke="#000000" points="902,-1040.5 1030,-1040.5 "/>
<text text-anchor="start" x="910" y="-1028.5" font-family="Helvetica,sans-Serif" font-size="10.00" fill="#000000">+ setTitle()</text>
<text text-anchor="start" x="910" y="-1017.5" font-family="Helvetica,sans-Serif" font-size="10.00" fill="#000000">+ getTitle()</text>
<text text-anchor="start" x="910" y="-1006.5" font-family="Helvetica,sans-Serif" font-size="10.00" fill="#000000">+ setCoreComponent()</text>
<text text-anchor="start" x="910" y="-995.5" font-family="Helvetica,sans-Serif" font-size="10.00" fill="#000000">+ getCoreComponent()</text>
<text text-anchor="start" x="910" y="-984.5" font-family="Helvetica,sans-Serif" font-size="10.00" fill="#000000">+ setLayoutPosition()</text>
<text text-anchor="start" x="910" y="-973.5" font-family="Helvetica,sans-Serif" font-size="10.00" fill="#000000">+ getLayoutPosition()</text>
<text text-anchor="start" x="910" y="-962.5" font-family="Helvetica,sans-Serif" font-size="10.00" fill="#000000">+ render()</text>
</a>
</g>
</g>
<!-- Node16&#45;&gt;Node13 -->
<g id="edge6" class="edge">
<title>Node16&#45;&gt;Node13</title>
<path fill="none" stroke="#191970" d="M914.4707,-947.5557C905.2394,-936.1244 895.2694,-924.8648 885,-915 874.8643,-905.2636 870.4561,-905.1418 859,-897 852.3002,-892.2385 845.3294,-887.2352 838.3898,-882.2222"/>
<polygon fill="none" stroke="#191970" points="911.7903,-949.8089 920.7382,-955.4822 917.2812,-945.4672 911.7903,-949.8089"/>
</g>
<!-- Node21 -->
<g id="node12" class="node">
<title>Node21</title>
<g id="a_node12"><a xlink:href="interfaceene_1_1interfaces_1_1PartialView.html" target="_top" xlink:title="{ene::interfaces::Partial\lView\&lt; CoreComponentType,\l ModelType \&gt;\n||+ setModel()\l+ getModel()\l+ update()\l}">
<polygon fill="none" stroke="#000000" points="867.5,-784.5 867.5,-885.5 1010.5,-885.5 1010.5,-784.5 867.5,-784.5"/>
<text text-anchor="start" x="875.5" y="-873.5" font-family="Helvetica,sans-Serif" font-size="10.00" fill="#000000">ene::interfaces::Partial</text>
<text text-anchor="start" x="875.5" y="-862.5" font-family="Helvetica,sans-Serif" font-size="10.00" fill="#000000">View&lt; CoreComponentType,</text>
<text text-anchor="middle" x="939" y="-851.5" font-family="Helvetica,sans-Serif" font-size="10.00" fill="#000000"> ModelType &gt;</text>
<polyline fill="none" stroke="#000000" points="867.5,-844.5 1010.5,-844.5 "/>
<text text-anchor="middle" x="939" y="-832.5" font-family="Helvetica,sans-Serif" font-size="10.00" fill="#000000"> </text>
<polyline fill="none" stroke="#000000" points="867.5,-825.5 1010.5,-825.5 "/>
<text text-anchor="start" x="875.5" y="-813.5" font-family="Helvetica,sans-Serif" font-size="10.00" fill="#000000">+ setModel()</text>
<text text-anchor="start" x="875.5" y="-802.5" font-family="Helvetica,sans-Serif" font-size="10.00" fill="#000000">+ getModel()</text>
<text text-anchor="start" x="875.5" y="-791.5" font-family="Helvetica,sans-Serif" font-size="10.00" fill="#000000">+ update()</text>
</a>
</g>
</g>
<!-- Node16&#45;&gt;Node21 -->
<g id="edge12" class="edge">
<title>Node16&#45;&gt;Node21</title>
<path fill="none" stroke="#191970" d="M954.8735,-945.2324C951.9716,-925.0805 948.9187,-903.8796 946.2739,-885.5135"/>
<polygon fill="none" stroke="#191970" points="951.439,-945.9388 956.3286,-955.3378 958.3675,-944.941 951.439,-945.9388"/>
</g>
<!-- Node17 -->
<g id="node8" class="node">
<title>Node17</title>
<g id="a_node8"><a xlink:href="interfaceene_1_1interfaces_1_1Localization.html" target="_top" xlink:title="{ene.interfaces.Localization\n||+ getString()\l}">
<polygon fill="none" stroke="#000000" points="622.5,-994 622.5,-1051 755.5,-1051 755.5,-994 622.5,-994"/>
<text text-anchor="middle" x="689" y="-1039" font-family="Helvetica,sans-Serif" font-size="10.00" fill="#000000">ene.interfaces.Localization</text>
<polyline fill="none" stroke="#000000" points="622.5,-1032 755.5,-1032 "/>
<text text-anchor="middle" x="689" y="-1020" font-family="Helvetica,sans-Serif" font-size="10.00" fill="#000000"> </text>
<polyline fill="none" stroke="#000000" points="622.5,-1013 755.5,-1013 "/>
<text text-anchor="start" x="630.5" y="-1001" font-family="Helvetica,sans-Serif" font-size="10.00" fill="#000000">+ getString()</text>
</a>
</g>
</g>
<!-- Node17&#45;&gt;Node13 -->
<g id="edge7" class="edge">
<title>Node17&#45;&gt;Node13</title>
<path fill="none" stroke="#191970" d="M714.3953,-985.0355C723.5732,-970.4568 733.5085,-953.3496 741,-937 746.8536,-924.2251 752.1247,-910.1136 756.6479,-896.5649"/>
<polygon fill="none" stroke="#191970" points="711.2553,-983.4486 708.8073,-993.7568 717.1493,-987.2251 711.2553,-983.4486"/>
</g>
<!-- Node18 -->
<g id="node9" class="node">
<title>Node18</title>
<polygon fill="none" stroke="#bfbfbf" points="644,-1137.5 644,-1194.5 734,-1194.5 734,-1137.5 644,-1137.5"/>
<text text-anchor="middle" x="689" y="-1182.5" font-family="Helvetica,sans-Serif" font-size="10.00" fill="#000000">static final String</text>
<polyline fill="none" stroke="#bfbfbf" points="644,-1175.5 734,-1175.5 "/>
<text text-anchor="middle" x="689" y="-1163.5" font-family="Helvetica,sans-Serif" font-size="10.00" fill="#000000"> </text>
<polyline fill="none" stroke="#bfbfbf" points="644,-1156.5 734,-1156.5 "/>
<text text-anchor="middle" x="689" y="-1144.5" font-family="Helvetica,sans-Serif" font-size="10.00" fill="#000000"> </text>
</g>
<!-- Node18&#45;&gt;Node17 -->
<g id="edge8" class="edge">
<title>Node18&#45;&gt;Node17</title>
<path fill="none" stroke="#404040" d="M689,-1137.3055C689,-1116.0904 689,-1086.9058 689,-1063.2714"/>
<polygon fill="none" stroke="#404040" points="689.0001,-1063.1447 685,-1057.1448 689,-1051.1447 693,-1057.1447 689.0001,-1063.1447"/>
<text text-anchor="middle" x="739" y="-1111" font-family="Helvetica,sans-Serif" font-size="10.00" fill="#000000"> +DEFAULT_LOCALE</text>
</g>
<!-- Node19 -->
<g id="node10" class="node">
<title>Node19</title>
<polygon fill="none" stroke="#bfbfbf" points="562,-994 562,-1051 604,-1051 604,-994 562,-994"/>
<text text-anchor="middle" x="583" y="-1039" font-family="Helvetica,sans-Serif" font-size="10.00" fill="#000000">String</text>
<polyline fill="none" stroke="#bfbfbf" points="562,-1032 604,-1032 "/>
<text text-anchor="middle" x="583" y="-1020" font-family="Helvetica,sans-Serif" font-size="10.00" fill="#000000"> </text>
<polyline fill="none" stroke="#bfbfbf" points="562,-1013 604,-1013 "/>
<text text-anchor="middle" x="583" y="-1001" font-family="Helvetica,sans-Serif" font-size="10.00" fill="#000000"> </text>
</g>
<!-- Node19&#45;&gt;Node13 -->
<g id="edge9" class="edge">
<title>Node19&#45;&gt;Node13</title>
<path fill="none" stroke="#404040" d="M592.0265,-993.7763C596.9255,-981.0548 603.8729,-966.4203 613,-955 636.8558,-925.1504 669.7982,-898.8631 699.6729,-878.5596"/>
<polygon fill="none" stroke="#404040" points="699.6792,-878.5554 702.458,-871.9012 709.6691,-871.907 706.8903,-878.5612 699.6792,-878.5554"/>
<text text-anchor="middle" x="687" y="-929" font-family="Helvetica,sans-Serif" font-size="10.00" fill="#000000"> #layoutPosition</text>
<text text-anchor="middle" x="687" y="-918" font-family="Helvetica,sans-Serif" font-size="10.00" fill="#000000">#title</text>
</g>
<!-- Node34 -->
<g id="node25" class="node">
<title>Node34</title>
<g id="a_node25"><a xlink:href="classene_1_1controllers_1_1PlaylistController.html" target="_top" xlink:title="{ene.controllers.Playlist\lController\n||+ PlaylistController()\l+ PlaylistController()\l+ loadFromFile()\l+ saveToFile()\l+ add()\l+ remove()\l# setPlaylistFilename()\l# getPlaylistFilename()\l}">
<polygon fill="none" stroke="#000000" points="166,-453.5 166,-598.5 282,-598.5 282,-453.5 166,-453.5"/>
<text text-anchor="start" x="174" y="-586.5" font-family="Helvetica,sans-Serif" font-size="10.00" fill="#000000">ene.controllers.Playlist</text>
<text text-anchor="middle" x="224" y="-575.5" font-family="Helvetica,sans-Serif" font-size="10.00" fill="#000000">Controller</text>
<polyline fill="none" stroke="#000000" points="166,-568.5 282,-568.5 "/>
<text text-anchor="middle" x="224" y="-556.5" font-family="Helvetica,sans-Serif" font-size="10.00" fill="#000000"> </text>
<polyline fill="none" stroke="#000000" points="166,-549.5 282,-549.5 "/>
<text text-anchor="start" x="174" y="-537.5" font-family="Helvetica,sans-Serif" font-size="10.00" fill="#000000">+ PlaylistController()</text>
<text text-anchor="start" x="174" y="-526.5" font-family="Helvetica,sans-Serif" font-size="10.00" fill="#000000">+ PlaylistController()</text>
<text text-anchor="start" x="174" y="-515.5" font-family="Helvetica,sans-Serif" font-size="10.00" fill="#000000">+ loadFromFile()</text>
<text text-anchor="start" x="174" y="-504.5" font-family="Helvetica,sans-Serif" font-size="10.00" fill="#000000">+ saveToFile()</text>
<text text-anchor="start" x="174" y="-493.5" font-family="Helvetica,sans-Serif" font-size="10.00" fill="#000000">+ add()</text>
<text text-anchor="start" x="174" y="-482.5" font-family="Helvetica,sans-Serif" font-size="10.00" fill="#000000">+ remove()</text>
<text text-anchor="start" x="174" y="-471.5" font-family="Helvetica,sans-Serif" font-size="10.00" fill="#000000"># setPlaylistFilename()</text>
<text text-anchor="start" x="174" y="-460.5" font-family="Helvetica,sans-Serif" font-size="10.00" fill="#000000"># getPlaylistFilename()</text>
</a>
</g>
</g>
<!-- Node19&#45;&gt;Node34 -->
<g id="edge32" class="edge">
<title>Node19&#45;&gt;Node34</title>
<path fill="none" stroke="#404040" d="M590.6752,-993.8257C607.4597,-924.0075 639.0462,-743.7599 548,-646 471.4904,-563.8486 397.7117,-649.081 293.0522,-599.1296"/>
<polygon fill="none" stroke="#404040" points="292.8161,-599.0075 285.6489,-599.8026 282.1584,-593.4925 289.3256,-592.6975 292.8161,-599.0075"/>
<text text-anchor="middle" x="641.5" y="-747" font-family="Helvetica,sans-Serif" font-size="10.00" fill="#000000"> #playlistFilename</text>
</g>
<!-- Node20 -->
<g id="node11" class="node">
<title>Node20</title>
<polygon fill="none" stroke="#bfbfbf" points="774,-994 774,-1051 884,-1051 884,-994 774,-994"/>
<text text-anchor="middle" x="829" y="-1039" font-family="Helvetica,sans-Serif" font-size="10.00" fill="#000000">CoreComponentType</text>
<polyline fill="none" stroke="#bfbfbf" points="774,-1032 884,-1032 "/>
<text text-anchor="middle" x="829" y="-1020" font-family="Helvetica,sans-Serif" font-size="10.00" fill="#000000"> </text>
<polyline fill="none" stroke="#bfbfbf" points="774,-1013 884,-1013 "/>
<text text-anchor="middle" x="829" y="-1001" font-family="Helvetica,sans-Serif" font-size="10.00" fill="#000000"> </text>
</g>
<!-- Node20&#45;&gt;Node13 -->
<g id="edge10" class="edge">
<title>Node20&#45;&gt;Node13</title>
<path fill="none" stroke="#404040" d="M820.5268,-993.614C813.8498,-970.8516 804.2376,-938.0828 795.4815,-908.2323"/>
<polygon fill="none" stroke="#404040" points="795.4264,-908.0442 789.8992,-903.4127 792.0486,-896.5294 797.5758,-901.1609 795.4264,-908.0442"/>
<text text-anchor="middle" x="842" y="-923.5" font-family="Helvetica,sans-Serif" font-size="10.00" fill="#000000"> #coreComponent</text>
</g>
<!-- Node21&#45;&gt;Node12 -->
<g id="edge11" class="edge">
<title>Node21&#45;&gt;Node12</title>
<path fill="none" stroke="#191970" d="M896.6171,-775.9809C884.5296,-759.1487 871.6499,-741.2135 860.596,-725.8207"/>
<polygon fill="none" stroke="#191970" points="893.8,-778.0584 902.4759,-784.1394 899.4858,-773.9752 893.8,-778.0584"/>
</g>
<!-- Node22 -->
<g id="node13" class="node">
<title>Node22</title>
<polygon fill="none" stroke="#bfbfbf" points="333.5,-994 333.5,-1051 398.5,-1051 398.5,-994 333.5,-994"/>
<text text-anchor="middle" x="366" y="-1039" font-family="Helvetica,sans-Serif" font-size="10.00" fill="#000000">ModelType</text>
<polyline fill="none" stroke="#bfbfbf" points="333.5,-1032 398.5,-1032 "/>
<text text-anchor="middle" x="366" y="-1020" font-family="Helvetica,sans-Serif" font-size="10.00" fill="#000000"> </text>
<polyline fill="none" stroke="#bfbfbf" points="333.5,-1013 398.5,-1013 "/>
<text text-anchor="middle" x="366" y="-1001" font-family="Helvetica,sans-Serif" font-size="10.00" fill="#000000"> </text>
</g>
<!-- Node22&#45;&gt;Node12 -->
<g id="edge13" class="edge">
<title>Node22&#45;&gt;Node12</title>
<path fill="none" stroke="#404040" d="M379.9937,-993.7713C387.0237,-981.0489 396.322,-966.4149 407,-955 503.1107,-852.2561 545.8853,-846.2532 666,-773 689.9563,-758.39 716.6101,-743.7505 741.4254,-730.7594"/>
<polygon fill="none" stroke="#404040" points="741.6581,-730.6385 745.1381,-724.3226 752.3066,-725.1057 748.8266,-731.4216 741.6581,-730.6385"/>
<text text-anchor="middle" x="683.5" y="-832.5" font-family="Helvetica,sans-Serif" font-size="10.00" fill="#000000"> #model</text>
</g>
<!-- Node22&#45;&gt;Node27 -->
<g id="edge21" class="edge">
<title>Node22&#45;&gt;Node27</title>
<path fill="none" stroke="#404040" d="M366,-993.614C366,-965.2523 366,-921.3557 366,-886.9257"/>
<polygon fill="none" stroke="#404040" points="366.0001,-886.7156 362,-880.7156 366,-874.7156 370,-880.7155 366.0001,-886.7156"/>
<text text-anchor="middle" x="383.5" y="-923.5" font-family="Helvetica,sans-Serif" font-size="10.00" fill="#000000"> #model</text>
</g>
<!-- Node23 -->
<g id="node14" class="node">
<title>Node23</title>
<polygon fill="none" stroke="#bfbfbf" points="860.5,-497.5 860.5,-554.5 967.5,-554.5 967.5,-497.5 860.5,-497.5"/>
<text text-anchor="middle" x="914" y="-542.5" font-family="Helvetica,sans-Serif" font-size="10.00" fill="#000000">ListSelectionListener</text>
<polyline fill="none" stroke="#bfbfbf" points="860.5,-535.5 967.5,-535.5 "/>
<text text-anchor="middle" x="914" y="-523.5" font-family="Helvetica,sans-Serif" font-size="10.00" fill="#000000"> </text>
<polyline fill="none" stroke="#bfbfbf" points="860.5,-516.5 967.5,-516.5 "/>
<text text-anchor="middle" x="914" y="-504.5" font-family="Helvetica,sans-Serif" font-size="10.00" fill="#000000"> </text>
</g>
<!-- Node23&#45;&gt;Node11 -->
<g id="edge14" class="edge">
<title>Node23&#45;&gt;Node11</title>
<path fill="none" stroke="#191970" d="M890.4979,-488.6247C877.8208,-469.0227 861.6095,-444.8218 846,-424 832.0519,-405.3944 816.4636,-385.9752 801.3046,-367.7192"/>
<polygon fill="none" stroke="#191970" points="887.7085,-490.7581 896.059,-497.2788 893.5974,-486.9738 887.7085,-490.7581"/>
</g>
<!-- Node24 -->
<g id="node15" class="node">
<title>Node24</title>
<polygon fill="none" stroke="#bfbfbf" points="986,-497.5 986,-554.5 1066,-554.5 1066,-497.5 986,-497.5"/>
<text text-anchor="middle" x="1026" y="-542.5" font-family="Helvetica,sans-Serif" font-size="10.00" fill="#000000">MouseListener</text>
<polyline fill="none" stroke="#bfbfbf" points="986,-535.5 1066,-535.5 "/>
<text text-anchor="middle" x="1026" y="-523.5" font-family="Helvetica,sans-Serif" font-size="10.00" fill="#000000"> </text>
<polyline fill="none" stroke="#bfbfbf" points="986,-516.5 1066,-516.5 "/>
<text text-anchor="middle" x="1026" y="-504.5" font-family="Helvetica,sans-Serif" font-size="10.00" fill="#000000"> </text>
</g>
<!-- Node24&#45;&gt;Node11 -->
<g id="edge15" class="edge">
<title>Node24&#45;&gt;Node11</title>
<path fill="none" stroke="#191970" d="M1004.9392,-488.7926C997.0699,-476.6266 987.4748,-463.5433 977,-453 924.6628,-400.3208 853.7753,-353.9311 801.0198,-323.0618"/>
<polygon fill="none" stroke="#191970" points="1002.0795,-490.8206 1010.3522,-497.4398 1008.0129,-487.1064 1002.0795,-490.8206"/>
</g>
<!-- Node25 -->
<g id="node16" class="node">
<title>Node25</title>
<g id="a_node16"><a xlink:href="classene_1_1controllers_1_1PlayerController.html" target="_top" xlink:title="{ene.controllers.PlayerController\n||+ PlayerController()\l+ changeTrackPosition()\l+ loadPlaylist()\l+ load()\l+ previous()\l+ next()\l+ togglePlayback()\l}">
<polygon fill="none" stroke="#000000" points="480.5,-464.5 480.5,-587.5 633.5,-587.5 633.5,-464.5 480.5,-464.5"/>
<text text-anchor="middle" x="557" y="-575.5" font-family="Helvetica,sans-Serif" font-size="10.00" fill="#000000">ene.controllers.PlayerController</text>
<polyline fill="none" stroke="#000000" points="480.5,-568.5 633.5,-568.5 "/>
<text text-anchor="middle" x="557" y="-556.5" font-family="Helvetica,sans-Serif" font-size="10.00" fill="#000000"> </text>
<polyline fill="none" stroke="#000000" points="480.5,-549.5 633.5,-549.5 "/>
<text text-anchor="start" x="488.5" y="-537.5" font-family="Helvetica,sans-Serif" font-size="10.00" fill="#000000">+ PlayerController()</text>
<text text-anchor="start" x="488.5" y="-526.5" font-family="Helvetica,sans-Serif" font-size="10.00" fill="#000000">+ changeTrackPosition()</text>
<text text-anchor="start" x="488.5" y="-515.5" font-family="Helvetica,sans-Serif" font-size="10.00" fill="#000000">+ loadPlaylist()</text>
<text text-anchor="start" x="488.5" y="-504.5" font-family="Helvetica,sans-Serif" font-size="10.00" fill="#000000">+ load()</text>
<text text-anchor="start" x="488.5" y="-493.5" font-family="Helvetica,sans-Serif" font-size="10.00" fill="#000000">+ previous()</text>
<text text-anchor="start" x="488.5" y="-482.5" font-family="Helvetica,sans-Serif" font-size="10.00" fill="#000000">+ next()</text>
<text text-anchor="start" x="488.5" y="-471.5" font-family="Helvetica,sans-Serif" font-size="10.00" fill="#000000">+ togglePlayback()</text>
</a>
</g>
</g>
<!-- Node25&#45;&gt;Node11 -->
<g id="edge16" class="edge">
<title>Node25&#45;&gt;Node11</title>
<path fill="none" stroke="#404040" d="M600.3716,-464.4935C614.8301,-443.9895 631.4315,-420.4466 647.7748,-397.2696"/>
<polygon fill="none" stroke="#404040" points="647.8409,-397.1759 648.0296,-389.9673 654.7563,-387.369 654.5676,-394.5776 647.8409,-397.1759"/>
<text text-anchor="middle" x="666.5" y="-427" font-family="Helvetica,sans-Serif" font-size="10.00" fill="#000000"> #playerController</text>
</g>
<!-- Node26 -->
<g id="node17" class="node">
<title>Node26</title>
<g id="a_node17"><a xlink:href="classene_1_1controllers_1_1AbstractController.html" target="_top" xlink:title="{ene.controllers.Abstract\lController\&lt; PlayerModel \&gt;\n|# model\l|+ setModel()\l+ getModel()\l}">
<polygon fill="none" stroke="#000000" points="408.5,-646.5 408.5,-725.5 539.5,-725.5 539.5,-646.5 408.5,-646.5"/>
<text text-anchor="start" x="416.5" y="-713.5" font-family="Helvetica,sans-Serif" font-size="10.00" fill="#000000">ene.controllers.Abstract</text>
<text text-anchor="middle" x="474" y="-702.5" font-family="Helvetica,sans-Serif" font-size="10.00" fill="#000000">Controller&lt; PlayerModel &gt;</text>
<polyline fill="none" stroke="#000000" points="408.5,-695.5 539.5,-695.5 "/>
<text text-anchor="start" x="416.5" y="-683.5" font-family="Helvetica,sans-Serif" font-size="10.00" fill="#000000"># model</text>
<polyline fill="none" stroke="#000000" points="408.5,-676.5 539.5,-676.5 "/>
<text text-anchor="start" x="416.5" y="-664.5" font-family="Helvetica,sans-Serif" font-size="10.00" fill="#000000">+ setModel()</text>
<text text-anchor="start" x="416.5" y="-653.5" font-family="Helvetica,sans-Serif" font-size="10.00" fill="#000000">+ getModel()</text>
</a>
</g>
</g>
<!-- Node26&#45;&gt;Node25 -->
<g id="edge17" class="edge">
<title>Node26&#45;&gt;Node25</title>
<path fill="none" stroke="#191970" d="M499.1927,-637.4357C507.3508,-621.7093 516.5086,-604.0557 525.0881,-587.5169"/>
<polygon fill="none" stroke="#191970" points="496.0149,-635.961 494.5169,-646.4494 502.2286,-639.1844 496.0149,-635.961"/>
</g>
<!-- Node27&#45;&gt;Node26 -->
<g id="edge18" class="edge">
<title>Node27&#45;&gt;Node26</title>
<path fill="none" stroke="#ffa500" d="M402.3954,-787.0526C410.2508,-776.543 418.4589,-765.4379 426,-755 432.8367,-745.5372 440.0879,-735.2503 446.827,-725.5786"/>
<polygon fill="#ffa500" stroke="#ffa500" points="399.3885,-785.2285 396.1906,-795.3291 404.9894,-789.4274 399.3885,-785.2285"/>
<text text-anchor="middle" x="471" y="-747" font-family="Helvetica,sans-Serif" font-size="10.00" fill="#000000"> &lt; PlayerModel &gt;</text>
</g>
<!-- Node35 -->
<g id="node26" class="node">
<title>Node35</title>
<g id="a_node26"><a xlink:href="classene_1_1controllers_1_1AbstractController.html" target="_top" xlink:title="{ene.controllers.Abstract\lController\&lt; PlaylistModel \&gt;\n|# model\l|+ setModel()\l+ getModel()\l}">
<polygon fill="none" stroke="#000000" points="255.5,-646.5 255.5,-725.5 390.5,-725.5 390.5,-646.5 255.5,-646.5"/>
<text text-anchor="start" x="263.5" y="-713.5" font-family="Helvetica,sans-Serif" font-size="10.00" fill="#000000">ene.controllers.Abstract</text>
<text text-anchor="middle" x="323" y="-702.5" font-family="Helvetica,sans-Serif" font-size="10.00" fill="#000000">Controller&lt; PlaylistModel &gt;</text>
<polyline fill="none" stroke="#000000" points="255.5,-695.5 390.5,-695.5 "/>
<text text-anchor="start" x="263.5" y="-683.5" font-family="Helvetica,sans-Serif" font-size="10.00" fill="#000000"># model</text>
<polyline fill="none" stroke="#000000" points="255.5,-676.5 390.5,-676.5 "/>
<text text-anchor="start" x="263.5" y="-664.5" font-family="Helvetica,sans-Serif" font-size="10.00" fill="#000000">+ setModel()</text>
<text text-anchor="start" x="263.5" y="-653.5" font-family="Helvetica,sans-Serif" font-size="10.00" fill="#000000">+ getModel()</text>
</a>
</g>
</g>
<!-- Node27&#45;&gt;Node35 -->
<g id="edge29" class="edge">
<title>Node27&#45;&gt;Node35</title>
<path fill="none" stroke="#ffa500" d="M351.8101,-785.8303C346.1805,-766.3232 339.7919,-744.186 334.4636,-725.7228"/>
<polygon fill="#ffa500" stroke="#ffa500" points="348.4541,-786.8245 354.5897,-795.4619 355.1796,-784.8835 348.4541,-786.8245"/>
<text text-anchor="middle" x="382" y="-747" font-family="Helvetica,sans-Serif" font-size="10.00" fill="#000000"> &lt; PlaylistModel &gt;</text>
</g>
<!-- Node28 -->
<g id="node19" class="node">
<title>Node28</title>
<g id="a_node19"><a xlink:href="interfaceene_1_1interfaces_1_1Controller.html" target="_top" xlink:title="{ene::interfaces::Controller\l\&lt; ModelType \&gt;\n||+ setModel()\l+ getModel()\l}">
<polygon fill="none" stroke="#000000" points="186.5,-983 186.5,-1062 315.5,-1062 315.5,-983 186.5,-983"/>
<text text-anchor="start" x="194.5" y="-1050" font-family="Helvetica,sans-Serif" font-size="10.00" fill="#000000">ene::interfaces::Controller</text>
<text text-anchor="middle" x="251" y="-1039" font-family="Helvetica,sans-Serif" font-size="10.00" fill="#000000">&lt; ModelType &gt;</text>
<polyline fill="none" stroke="#000000" points="186.5,-1032 315.5,-1032 "/>
<text text-anchor="middle" x="251" y="-1020" font-family="Helvetica,sans-Serif" font-size="10.00" fill="#000000"> </text>
<polyline fill="none" stroke="#000000" points="186.5,-1013 315.5,-1013 "/>
<text text-anchor="start" x="194.5" y="-1001" font-family="Helvetica,sans-Serif" font-size="10.00" fill="#000000">+ setModel()</text>
<text text-anchor="start" x="194.5" y="-990" font-family="Helvetica,sans-Serif" font-size="10.00" fill="#000000">+ getModel()</text>
</a>
</g>
</g>
<!-- Node28&#45;&gt;Node27 -->
<g id="edge20" class="edge">
<title>Node28&#45;&gt;Node27</title>
<path fill="none" stroke="#191970" d="M280.8244,-973.8732C299.7359,-943.0392 323.8926,-903.6534 341.6466,-874.7066"/>
<polygon fill="none" stroke="#191970" points="277.6333,-972.3818 275.3885,-982.7361 283.6004,-976.0416 277.6333,-972.3818"/>
</g>
<!-- Node29 -->
<g id="node20" class="node">
<title>Node29</title>
<polygon fill="none" stroke="#bfbfbf" points="1084.5,-497.5 1084.5,-554.5 1159.5,-554.5 1159.5,-497.5 1084.5,-497.5"/>
<text text-anchor="middle" x="1122" y="-542.5" font-family="Helvetica,sans-Serif" font-size="10.00" fill="#000000">static final int</text>
<polyline fill="none" stroke="#bfbfbf" points="1084.5,-535.5 1159.5,-535.5 "/>
<text text-anchor="middle" x="1122" y="-523.5" font-family="Helvetica,sans-Serif" font-size="10.00" fill="#000000"> </text>
<polyline fill="none" stroke="#bfbfbf" points="1084.5,-516.5 1159.5,-516.5 "/>
<text text-anchor="middle" x="1122" y="-504.5" font-family="Helvetica,sans-Serif" font-size="10.00" fill="#000000"> </text>
</g>
<!-- Node29&#45;&gt;Node11 -->
<g id="edge22" class="edge">
<title>Node29&#45;&gt;Node11</title>
<path fill="none" stroke="#404040" d="M1108.345,-497.3355C1100.2491,-482.6496 1088.8578,-465.3164 1075,-453 997.9382,-384.5099 888.2527,-337.1428 812.9411,-310.2347"/>
<polygon fill="none" stroke="#404040" points="812.4799,-310.0726 805.4927,-311.8556 801.1594,-306.0917 808.1466,-304.3086 812.4799,-310.0726"/>
<text text-anchor="middle" x="1122.5" y="-427" font-family="Helvetica,sans-Serif" font-size="10.00" fill="#000000"> #TABLE_COLUMN_FILENAME</text>
</g>
<!-- Node30 -->
<g id="node21" class="node">
<title>Node30</title>
<polygon fill="none" stroke="#bfbfbf" points="300,-497.5 300,-554.5 398,-554.5 398,-497.5 300,-497.5"/>
<text text-anchor="middle" x="349" y="-542.5" font-family="Helvetica,sans-Serif" font-size="10.00" fill="#000000">DefaultTableModel</text>
<polyline fill="none" stroke="#bfbfbf" points="300,-535.5 398,-535.5 "/>
<text text-anchor="middle" x="349" y="-523.5" font-family="Helvetica,sans-Serif" font-size="10.00" fill="#000000"> </text>
<polyline fill="none" stroke="#bfbfbf" points="300,-516.5 398,-516.5 "/>
<text text-anchor="middle" x="349" y="-504.5" font-family="Helvetica,sans-Serif" font-size="10.00" fill="#000000"> </text>
</g>
<!-- Node30&#45;&gt;Node11 -->
<g id="edge23" class="edge">
<title>Node30&#45;&gt;Node11</title>
<path fill="none" stroke="#404040" d="M363.4088,-497.3231C375.851,-474.9353 395.6467,-444.3192 420,-424 486.093,-368.8552 577.3694,-330.8218 643.3827,-308.3697"/>
<polygon fill="none" stroke="#404040" points="643.6071,-308.2948 648.0311,-302.6003 654.9892,-304.4937 650.5652,-310.1883 643.6071,-308.2948"/>
<text text-anchor="middle" x="452" y="-427" font-family="Helvetica,sans-Serif" font-size="10.00" fill="#000000"> #tableContent</text>
</g>
<!-- Node31 -->
<g id="node22" class="node">
<title>Node31</title>
<polygon fill="none" stroke="#bfbfbf" points="416,-497.5 416,-554.5 462,-554.5 462,-497.5 416,-497.5"/>
<text text-anchor="middle" x="439" y="-542.5" font-family="Helvetica,sans-Serif" font-size="10.00" fill="#000000">JTable</text>
<polyline fill="none" stroke="#bfbfbf" points="416,-535.5 462,-535.5 "/>
<text text-anchor="middle" x="439" y="-523.5" font-family="Helvetica,sans-Serif" font-size="10.00" fill="#000000"> </text>
<polyline fill="none" stroke="#bfbfbf" points="416,-516.5 462,-516.5 "/>
<text text-anchor="middle" x="439" y="-504.5" font-family="Helvetica,sans-Serif" font-size="10.00" fill="#000000"> </text>
</g>
<!-- Node31&#45;&gt;Node11 -->
<g id="edge24" class="edge">
<title>Node31&#45;&gt;Node11</title>
<path fill="none" stroke="#404040" d="M447.3075,-497.1889C452.4686,-482.8102 460.2078,-465.8016 471,-453 518.3153,-396.8753 588.834,-352.1849 644.0401,-322.8142"/>
<polygon fill="none" stroke="#404040" points="644.235,-322.7122 647.6948,-316.3853 654.8657,-317.1455 651.4059,-323.4725 644.235,-322.7122"/>
<text text-anchor="middle" x="509" y="-427" font-family="Helvetica,sans-Serif" font-size="10.00" fill="#000000"> #table</text>
</g>
<!-- Node32 -->
<g id="node23" class="node">
<title>Node32</title>
<polygon fill="none" stroke="#bfbfbf" points="652,-492 652,-560 804,-560 804,-492 652,-492"/>
<text text-anchor="start" x="660" y="-548" font-family="Helvetica,sans-Serif" font-size="10.00" fill="#000000">TableRowSorter&lt; DefaultTable</text>
<text text-anchor="middle" x="728" y="-537" font-family="Helvetica,sans-Serif" font-size="10.00" fill="#000000">Model &gt;</text>
<polyline fill="none" stroke="#bfbfbf" points="652,-530 804,-530 "/>
<text text-anchor="middle" x="728" y="-518" font-family="Helvetica,sans-Serif" font-size="10.00" fill="#000000"> </text>
<polyline fill="none" stroke="#bfbfbf" points="652,-511 804,-511 "/>
<text text-anchor="middle" x="728" y="-499" font-family="Helvetica,sans-Serif" font-size="10.00" fill="#000000"> </text>
</g>
<!-- Node32&#45;&gt;Node11 -->
<g id="edge25" class="edge">
<title>Node32&#45;&gt;Node11</title>
<path fill="none" stroke="#404040" d="M728,-491.77C728,-471.8677 728,-445.3541 728,-417.9304"/>
<polygon fill="none" stroke="#404040" points="728.0001,-417.7144 724,-411.7144 728,-405.7144 732,-411.7143 728.0001,-417.7144"/>
<text text-anchor="middle" x="766" y="-427" font-family="Helvetica,sans-Serif" font-size="10.00" fill="#000000"> #tableRowSorter</text>
</g>
<!-- Node33 -->
<g id="node24" class="node">
<title>Node33</title>
<polygon fill="none" stroke="#bfbfbf" points="647.5,-657.5 647.5,-714.5 734.5,-714.5 734.5,-657.5 647.5,-657.5"/>
<text text-anchor="middle" x="691" y="-702.5" font-family="Helvetica,sans-Serif" font-size="10.00" fill="#000000">TableRowSorter</text>
<polyline fill="none" stroke="#bfbfbf" points="647.5,-695.5 734.5,-695.5 "/>
<text text-anchor="middle" x="691" y="-683.5" font-family="Helvetica,sans-Serif" font-size="10.00" fill="#000000"> </text>
<polyline fill="none" stroke="#bfbfbf" points="647.5,-676.5 734.5,-676.5 "/>
<text text-anchor="middle" x="691" y="-664.5" font-family="Helvetica,sans-Serif" font-size="10.00" fill="#000000"> </text>
</g>
<!-- Node33&#45;&gt;Node32 -->
<g id="edge26" class="edge">
<title>Node33&#45;&gt;Node32</title>
<path fill="none" stroke="#ffa500" d="M699.8693,-647.6464C706.0263,-621.0216 714.1567,-585.863 720.0927,-560.1937"/>
<polygon fill="#ffa500" stroke="#ffa500" points="696.458,-646.8637 697.6149,-657.3952 703.278,-648.4409 696.458,-646.8637"/>
<text text-anchor="middle" x="757.5" y="-620" font-family="Helvetica,sans-Serif" font-size="10.00" fill="#000000"> &lt; DefaultTableModel &gt;</text>
</g>
<!-- Node34&#45;&gt;Node10 -->
<g id="edge27" class="edge">
<title>Node34&#45;&gt;Node10</title>
<path fill="none" stroke="#404040" d="M233.0944,-453.245C243.9231,-366.6152 261.9076,-222.7395 272.7878,-135.6972"/>
<polygon fill="none" stroke="#404040" points="272.8187,-135.45 269.5938,-129.0001 274.3072,-123.5426 277.532,-129.9925 272.8187,-135.45"/>
<text text-anchor="middle" x="311" y="-281" font-family="Helvetica,sans-Serif" font-size="10.00" fill="#000000"> #playlistController</text>
</g>
<!-- Node35&#45;&gt;Node34 -->
<g id="edge28" class="edge">
<title>Node35&#45;&gt;Node34</title>
<path fill="none" stroke="#191970" d="M293.1382,-637.7386C285.5397,-625.458 277.2042,-611.9866 269.0325,-598.7797"/>
<polygon fill="none" stroke="#191970" points="290.29,-639.7872 298.5281,-646.4494 296.2427,-636.104 290.29,-639.7872"/>
</g>
<!-- Node36 -->
<g id="node27" class="node">
<title>Node36</title>
<g id="a_node27"><a xlink:href="interfaceene_1_1interfaces_1_1Import.html" target="_top" xlink:title="{ene.interfaces.Import\n||+ loadFromFile()\l}">
<polygon fill="none" stroke="#000000" points="128.5,-657.5 128.5,-714.5 237.5,-714.5 237.5,-657.5 128.5,-657.5"/>
<text text-anchor="middle" x="183" y="-702.5" font-family="Helvetica,sans-Serif" font-size="10.00" fill="#000000">ene.interfaces.Import</text>
<polyline fill="none" stroke="#000000" points="128.5,-695.5 237.5,-695.5 "/>
<text text-anchor="middle" x="183" y="-683.5" font-family="Helvetica,sans-Serif" font-size="10.00" fill="#000000"> </text>
<polyline fill="none" stroke="#000000" points="128.5,-676.5 237.5,-676.5 "/>
<text text-anchor="start" x="136.5" y="-664.5" font-family="Helvetica,sans-Serif" font-size="10.00" fill="#000000">+ loadFromFile()</text>
</a>
</g>
</g>
<!-- Node36&#45;&gt;Node34 -->
<g id="edge30" class="edge">
<title>Node36&#45;&gt;Node34</title>
<path fill="none" stroke="#191970" d="M192.8272,-647.6499C196.6028,-632.9159 201.0482,-615.5681 205.3806,-598.6612"/>
<polygon fill="none" stroke="#191970" points="189.4219,-646.8394 190.33,-657.3952 196.2028,-648.577 189.4219,-646.8394"/>
</g>
<!-- Node37 -->
<g id="node28" class="node">
<title>Node37</title>
<g id="a_node28"><a xlink:href="interfaceene_1_1interfaces_1_1Export.html" target="_top" xlink:title="{ene.interfaces.Export\n||+ saveToFile()\l}">
<polygon fill="none" stroke="#000000" points="0,-657.5 0,-714.5 110,-714.5 110,-657.5 0,-657.5"/>
<text text-anchor="middle" x="55" y="-702.5" font-family="Helvetica,sans-Serif" font-size="10.00" fill="#000000">ene.interfaces.Export</text>
<polyline fill="none" stroke="#000000" points="0,-695.5 110,-695.5 "/>
<text text-anchor="middle" x="55" y="-683.5" font-family="Helvetica,sans-Serif" font-size="10.00" fill="#000000"> </text>
<polyline fill="none" stroke="#000000" points="0,-676.5 110,-676.5 "/>
<text text-anchor="start" x="8" y="-664.5" font-family="Helvetica,sans-Serif" font-size="10.00" fill="#000000">+ saveToFile()</text>
</a>
</g>
</g>
<!-- Node37&#45;&gt;Node34 -->
<g id="edge31" class="edge">
<title>Node37&#45;&gt;Node34</title>
<path fill="none" stroke="#191970" d="M92.5505,-650.4492C114.0343,-630.1095 141.4498,-604.154 165.679,-581.2152"/>
<polygon fill="none" stroke="#191970" points="90.0693,-647.9785 85.2138,-657.3952 94.8819,-653.0617 90.0693,-647.9785"/>
</g>
</g>
</svg>
