<?xml version="1.0" encoding="UTF-8" standalone="no"?>
<!DOCTYPE svg PUBLIC "-//W3C//DTD SVG 1.1//EN"
 "http://www.w3.org/Graphics/SVG/1.1/DTD/svg11.dtd">
<!-- Generated by graphviz version 2.40.1 (20161225.0304)
 -->
<!-- Title: ene.models.TrackModel.getFilename Pages: 1 -->
<svg width="687pt" height="352pt"
 viewBox="0.00 0.00 687.00 351.50" xmlns="http://www.w3.org/2000/svg" xmlns:xlink="http://www.w3.org/1999/xlink">
<g id="graph0" class="graph" transform="scale(1 1) rotate(0) translate(4 347.5)">
<title>ene.models.TrackModel.getFilename</title>
<!-- Node34 -->
<g id="node1" class="node">
<title>Node34</title>
<polygon fill="#bfbfbf" stroke="#000000" points="0,-154.5 0,-184.5 137,-184.5 137,-154.5 0,-154.5"/>
<text text-anchor="start" x="8" y="-172.5" font-family="Helvetica,sans-Serif" font-size="10.00" fill="#000000">ene.models.TrackModel.get</text>
<text text-anchor="middle" x="68.5" y="-161.5" font-family="Helvetica,sans-Serif" font-size="10.00" fill="#000000">Filename</text>
</g>
<!-- Node35 -->
<g id="node2" class="node">
<title>Node35</title>
<g id="a_node2"><a xlink:href="classene_1_1models_1_1TrackListModel.html#a57554d49b1182a9138b871617ce57e9a" target="_top" xlink:title="ene.models.TrackListModel.add">
<polygon fill="none" stroke="#000000" points="174.5,-324 174.5,-343 329.5,-343 329.5,-324 174.5,-324"/>
<text text-anchor="middle" x="252" y="-331" font-family="Helvetica,sans-Serif" font-size="10.00" fill="#000000">ene.models.TrackListModel.add</text>
</a>
</g>
</g>
<!-- Node34&#45;&gt;Node35 -->
<g id="edge1" class="edge">
<title>Node34&#45;&gt;Node35</title>
<path fill="none" stroke="#191970" d="M79.2597,-193.8134C95.0029,-226.4744 127.4706,-283.9382 173,-314.5 178.7391,-318.3524 185.1754,-321.4261 191.8318,-323.8781"/>
<polygon fill="#191970" stroke="#191970" points="82.3241,-192.104 74.9148,-184.5307 75.9842,-195.0715 82.3241,-192.104"/>
</g>
<!-- Node36 -->
<g id="node3" class="node">
<title>Node36</title>
<g id="a_node3"><a xlink:href="classene_1_1models_1_1LibraryModel.html#a3165afccddf54c681f89de1a18356fd5" target="_top" xlink:title="ene.models.LibraryModel.get\lByArtist">
<polygon fill="none" stroke="#000000" points="181,-274.5 181,-304.5 323,-304.5 323,-274.5 181,-274.5"/>
<text text-anchor="start" x="189" y="-292.5" font-family="Helvetica,sans-Serif" font-size="10.00" fill="#000000">ene.models.LibraryModel.get</text>
<text text-anchor="middle" x="252" y="-281.5" font-family="Helvetica,sans-Serif" font-size="10.00" fill="#000000">ByArtist</text>
</a>
</g>
</g>
<!-- Node34&#45;&gt;Node36 -->
<g id="edge2" class="edge">
<title>Node34&#45;&gt;Node36</title>
<path fill="none" stroke="#191970" d="M87.9185,-192.5138C107.3826,-214.2166 139.236,-246.2136 173,-265.5 178.9744,-268.9127 185.4858,-271.8893 192.1227,-274.4735"/>
<polygon fill="#191970" stroke="#191970" points="90.32,-189.9447 81.0872,-184.748 85.0642,-194.5681 90.32,-189.9447"/>
</g>
<!-- Node37 -->
<g id="node4" class="node">
<title>Node37</title>
<g id="a_node4"><a xlink:href="classene_1_1models_1_1LibraryModel.html#a98e2135ca9f08c127e5df33e002fc877" target="_top" xlink:title="ene.models.LibraryModel.get\lByGenre">
<polygon fill="none" stroke="#000000" points="181,-225.5 181,-255.5 323,-255.5 323,-225.5 181,-225.5"/>
<text text-anchor="start" x="189" y="-243.5" font-family="Helvetica,sans-Serif" font-size="10.00" fill="#000000">ene.models.LibraryModel.get</text>
<text text-anchor="middle" x="252" y="-232.5" font-family="Helvetica,sans-Serif" font-size="10.00" fill="#000000">ByGenre</text>
</a>
</g>
</g>
<!-- Node34&#45;&gt;Node37 -->
<g id="edge3" class="edge">
<title>Node34&#45;&gt;Node37</title>
<path fill="none" stroke="#191970" d="M108.2564,-188.8223C127.5576,-197.83 151.2307,-208.3359 173,-216.5 181.3213,-219.6207 190.2457,-222.6376 198.993,-225.4178"/>
<polygon fill="#191970" stroke="#191970" points="109.698,-185.6326 99.1599,-184.5375 106.7151,-191.9652 109.698,-185.6326"/>
</g>
<!-- Node38 -->
<g id="node5" class="node">
<title>Node38</title>
<g id="a_node5"><a xlink:href="classene_1_1models_1_1LibraryModel.html#a54d2e007cb15c20e66cdc3d23c6c2db6" target="_top" xlink:title="ene.models.LibraryModel.get\lByTitle">
<polygon fill="none" stroke="#000000" points="181,-176.5 181,-206.5 323,-206.5 323,-176.5 181,-176.5"/>
<text text-anchor="start" x="189" y="-194.5" font-family="Helvetica,sans-Serif" font-size="10.00" fill="#000000">ene.models.LibraryModel.get</text>
<text text-anchor="middle" x="252" y="-183.5" font-family="Helvetica,sans-Serif" font-size="10.00" fill="#000000">ByTitle</text>
</a>
</g>
</g>
<!-- Node34&#45;&gt;Node38 -->
<g id="edge4" class="edge">
<title>Node34&#45;&gt;Node38</title>
<path fill="none" stroke="#191970" d="M147.2224,-178.9381C158.357,-180.273 169.7529,-181.6393 180.736,-182.9561"/>
<polygon fill="#191970" stroke="#191970" points="147.4351,-175.4386 137.0896,-177.7233 146.6018,-182.3889 147.4351,-175.4386"/>
</g>
<!-- Node39 -->
<g id="node6" class="node">
<title>Node39</title>
<g id="a_node6"><a xlink:href="classene_1_1models_1_1PlayerModel.html#a2c4655428b658dee3203787415a516a5" target="_top" xlink:title="ene.models.PlayerModel.load">
<polygon fill="none" stroke="#000000" points="179.5,-138 179.5,-157 324.5,-157 324.5,-138 179.5,-138"/>
<text text-anchor="middle" x="252" y="-145" font-family="Helvetica,sans-Serif" font-size="10.00" fill="#000000">ene.models.PlayerModel.load</text>
</a>
</g>
</g>
<!-- Node34&#45;&gt;Node39 -->
<g id="edge5" class="edge">
<title>Node34&#45;&gt;Node39</title>
<path fill="none" stroke="#191970" d="M147.1859,-160.0663C157.8127,-158.7922 168.6783,-157.4895 179.1964,-156.2285"/>
<polygon fill="#191970" stroke="#191970" points="146.6018,-156.6111 137.0896,-161.2767 147.4351,-163.5614 146.6018,-156.6111"/>
</g>
<!-- Node40 -->
<g id="node7" class="node">
<title>Node40</title>
<g id="a_node7"><a xlink:href="classene_1_1views_1_1gui_1_1partial_1_1LibraryView.html#a734cbc08cf36ed3d48cb106b77ecf28b" target="_top" xlink:title="ene.views.gui.partial.Library\lView.loadContent">
<polygon fill="none" stroke="#000000" points="183,-88.5 183,-118.5 321,-118.5 321,-88.5 183,-88.5"/>
<text text-anchor="start" x="191" y="-106.5" font-family="Helvetica,sans-Serif" font-size="10.00" fill="#000000">ene.views.gui.partial.Library</text>
<text text-anchor="middle" x="252" y="-95.5" font-family="Helvetica,sans-Serif" font-size="10.00" fill="#000000">View.loadContent</text>
</a>
</g>
</g>
<!-- Node34&#45;&gt;Node40 -->
<g id="edge6" class="edge">
<title>Node34&#45;&gt;Node40</title>
<path fill="none" stroke="#191970" d="M114.7412,-150.5833C132.8137,-143.394 153.7784,-135.3034 173,-128.5 182.4929,-125.14 192.701,-121.7483 202.5235,-118.5935"/>
<polygon fill="#191970" stroke="#191970" points="113.0116,-147.5056 105.028,-154.4707 115.6126,-154.0045 113.0116,-147.5056"/>
</g>
<!-- Node44 -->
<g id="node11" class="node">
<title>Node44</title>
<g id="a_node11"><a xlink:href="classene_1_1models_1_1LibraryModel.html#accd8b9321b02639dbb2970022556d324" target="_top" xlink:title="ene.models.LibraryModel.search">
<polygon fill="none" stroke="#000000" points="173,-50 173,-69 331,-69 331,-50 173,-50"/>
<text text-anchor="middle" x="252" y="-57" font-family="Helvetica,sans-Serif" font-size="10.00" fill="#000000">ene.models.LibraryModel.search</text>
</a>
</g>
</g>
<!-- Node34&#45;&gt;Node44 -->
<g id="edge10" class="edge">
<title>Node34&#45;&gt;Node44</title>
<path fill="none" stroke="#191970" d="M88.6851,-146.9424C108.2794,-126.4056 139.8468,-96.7376 173,-79.5 181.2847,-75.1924 190.5486,-71.7766 199.736,-69.0791"/>
<polygon fill="#191970" stroke="#191970" points="86.0583,-144.6271 81.7834,-154.3212 91.1706,-149.4088 86.0583,-144.6271"/>
</g>
<!-- Node45 -->
<g id="node12" class="node">
<title>Node45</title>
<g id="a_node12"><a xlink:href="classene_1_1models_1_1TrackModel.html#a0a42aa27708a22d669893b6152be8d20" target="_top" xlink:title="ene.models.TrackModel.to\lString">
<polygon fill="none" stroke="#000000" points="186,-.5 186,-30.5 318,-30.5 318,-.5 186,-.5"/>
<text text-anchor="start" x="194" y="-18.5" font-family="Helvetica,sans-Serif" font-size="10.00" fill="#000000">ene.models.TrackModel.to</text>
<text text-anchor="middle" x="252" y="-7.5" font-family="Helvetica,sans-Serif" font-size="10.00" fill="#000000">String</text>
</a>
</g>
</g>
<!-- Node34&#45;&gt;Node45 -->
<g id="edge11" class="edge">
<title>Node34&#45;&gt;Node45</title>
<path fill="none" stroke="#191970" d="M81.806,-145.6852C99.1571,-116.7407 132.1668,-68.3285 173,-40.5 178.5871,-36.6923 184.7855,-33.4401 191.1825,-30.6677"/>
<polygon fill="#191970" stroke="#191970" points="78.7661,-143.95 76.7326,-154.3479 84.8065,-147.4876 78.7661,-143.95"/>
</g>
<!-- Node41 -->
<g id="node8" class="node">
<title>Node41</title>
<g id="a_node8"><a xlink:href="classene_1_1views_1_1gui_1_1partial_1_1LibraryView.html#a6e6e521f258ad6e3f2e06ed96180efb6" target="_top" xlink:title="ene.views.gui.partial.Library\lView.initialize">
<polygon fill="none" stroke="#000000" points="367,-112.5 367,-142.5 505,-142.5 505,-112.5 367,-112.5"/>
<text text-anchor="start" x="375" y="-130.5" font-family="Helvetica,sans-Serif" font-size="10.00" fill="#000000">ene.views.gui.partial.Library</text>
<text text-anchor="middle" x="436" y="-119.5" font-family="Helvetica,sans-Serif" font-size="10.00" fill="#000000">View.initialize</text>
</a>
</g>
</g>
<!-- Node40&#45;&gt;Node41 -->
<g id="edge7" class="edge">
<title>Node40&#45;&gt;Node41</title>
<path fill="none" stroke="#191970" d="M330.9822,-113.802C342.9254,-115.3598 355.1673,-116.9566 366.8809,-118.4845"/>
<polygon fill="#191970" stroke="#191970" points="331.407,-110.3279 321.0383,-112.505 330.5016,-117.2691 331.407,-110.3279"/>
</g>
<!-- Node43 -->
<g id="node10" class="node">
<title>Node43</title>
<g id="a_node10"><a xlink:href="classene_1_1views_1_1gui_1_1partial_1_1LibraryView.html#a363a0a2db7ab4295ef38bb667038a6f8" target="_top" xlink:title="ene.views.gui.partial.Library\lView.update">
<polygon fill="none" stroke="#000000" points="367,-63.5 367,-93.5 505,-93.5 505,-63.5 367,-63.5"/>
<text text-anchor="start" x="375" y="-81.5" font-family="Helvetica,sans-Serif" font-size="10.00" fill="#000000">ene.views.gui.partial.Library</text>
<text text-anchor="middle" x="436" y="-70.5" font-family="Helvetica,sans-Serif" font-size="10.00" fill="#000000">View.update</text>
</a>
</g>
</g>
<!-- Node40&#45;&gt;Node43 -->
<g id="edge9" class="edge">
<title>Node40&#45;&gt;Node43</title>
<path fill="none" stroke="#191970" d="M330.9822,-92.7687C342.9254,-91.146 355.1673,-89.4827 366.8809,-87.8912"/>
<polygon fill="#191970" stroke="#191970" points="330.476,-89.3052 321.0383,-94.1198 331.4185,-96.2415 330.476,-89.3052"/>
</g>
<!-- Node42 -->
<g id="node9" class="node">
<title>Node42</title>
<g id="a_node9"><a xlink:href="classene_1_1views_1_1gui_1_1partial_1_1LibraryView.html#a23af39410ef7be2c3253b41ca96cdc4e" target="_top" xlink:title="ene.views.gui.partial.Library\lView.LibraryView">
<polygon fill="none" stroke="#000000" points="541,-112.5 541,-142.5 679,-142.5 679,-112.5 541,-112.5"/>
<text text-anchor="start" x="549" y="-130.5" font-family="Helvetica,sans-Serif" font-size="10.00" fill="#000000">ene.views.gui.partial.Library</text>
<text text-anchor="middle" x="610" y="-119.5" font-family="Helvetica,sans-Serif" font-size="10.00" fill="#000000">View.LibraryView</text>
</a>
</g>
</g>
<!-- Node41&#45;&gt;Node42 -->
<g id="edge8" class="edge">
<title>Node41&#45;&gt;Node42</title>
<path fill="none" stroke="#191970" d="M515.0349,-127.5C523.6249,-127.5 532.3194,-127.5 540.7795,-127.5"/>
<polygon fill="#191970" stroke="#191970" points="515.0194,-124.0001 505.0193,-127.5 515.0193,-131.0001 515.0194,-124.0001"/>
</g>
</g>
</svg>
