<?xml version="1.0" encoding="UTF-8" standalone="no"?>
<!DOCTYPE svg PUBLIC "-//W3C//DTD SVG 1.1//EN"
 "http://www.w3.org/Graphics/SVG/1.1/DTD/svg11.dtd">
<!-- Generated by graphviz version 2.40.1 (20161225.0304)
 -->
<!-- Title: ene.views.gui.partial.AbstractTrackListView.getSelectedFilename Pages: 1 -->
<svg width="537pt" height="88pt"
 viewBox="0.00 0.00 537.00 88.00" xmlns="http://www.w3.org/2000/svg" xmlns:xlink="http://www.w3.org/1999/xlink">
<g id="graph0" class="graph" transform="scale(1 1) rotate(0) translate(4 84)">
<title>ene.views.gui.partial.AbstractTrackListView.getSelectedFilename</title>
<!-- Node5 -->
<g id="node1" class="node">
<title>Node5</title>
<polygon fill="#bfbfbf" stroke="#000000" points="0,-24.5 0,-54.5 173,-54.5 173,-24.5 0,-24.5"/>
<text text-anchor="start" x="8" y="-42.5" font-family="Helvetica,sans-Serif" font-size="10.00" fill="#000000">ene.views.gui.partial.Abstract</text>
<text text-anchor="middle" x="86.5" y="-31.5" font-family="Helvetica,sans-Serif" font-size="10.00" fill="#000000">TrackListView.getSelectedFilename</text>
</g>
<!-- Node6 -->
<g id="node2" class="node">
<title>Node6</title>
<g id="a_node2"><a xlink:href="classene_1_1views_1_1gui_1_1partial_1_1LibraryView.html#a6e6e521f258ad6e3f2e06ed96180efb6" target="_top" xlink:title="ene.views.gui.partial.Library\lView.initialize">
<polygon fill="none" stroke="#000000" points="213,-49.5 213,-79.5 351,-79.5 351,-49.5 213,-49.5"/>
<text text-anchor="start" x="221" y="-67.5" font-family="Helvetica,sans-Serif" font-size="10.00" fill="#000000">ene.views.gui.partial.Library</text>
<text text-anchor="middle" x="282" y="-56.5" font-family="Helvetica,sans-Serif" font-size="10.00" fill="#000000">View.initialize</text>
</a>
</g>
</g>
<!-- Node5&#45;&gt;Node6 -->
<g id="edge1" class="edge">
<title>Node5&#45;&gt;Node6</title>
<path fill="none" stroke="#191970" d="M183.0975,-51.8526C193.1131,-53.1334 203.1448,-54.4162 212.772,-55.6473"/>
<polygon fill="#191970" stroke="#191970" points="183.4661,-48.3713 173.1029,-50.5745 182.5781,-55.3148 183.4661,-48.3713"/>
</g>
<!-- Node8 -->
<g id="node4" class="node">
<title>Node8</title>
<g id="a_node4"><a xlink:href="classene_1_1views_1_1gui_1_1partial_1_1AbstractTrackListView.html#aebe5720136b8b2215b6ad365c723843e" target="_top" xlink:title="ene.views.gui.partial.Abstract\lTrackListView.valueChanged">
<polygon fill="none" stroke="#000000" points="209,-.5 209,-30.5 355,-30.5 355,-.5 209,-.5"/>
<text text-anchor="start" x="217" y="-18.5" font-family="Helvetica,sans-Serif" font-size="10.00" fill="#000000">ene.views.gui.partial.Abstract</text>
<text text-anchor="middle" x="282" y="-7.5" font-family="Helvetica,sans-Serif" font-size="10.00" fill="#000000">TrackListView.valueChanged</text>
</a>
</g>
</g>
<!-- Node5&#45;&gt;Node8 -->
<g id="edge3" class="edge">
<title>Node5&#45;&gt;Node8</title>
<path fill="none" stroke="#191970" d="M183.2227,-27.6261C191.8613,-26.5656 200.5105,-25.5038 208.9006,-24.4738"/>
<polygon fill="#191970" stroke="#191970" points="182.6019,-24.176 173.1029,-28.8684 183.4549,-31.1238 182.6019,-24.176"/>
</g>
<!-- Node7 -->
<g id="node3" class="node">
<title>Node7</title>
<g id="a_node3"><a xlink:href="classene_1_1views_1_1gui_1_1partial_1_1LibraryView.html#a23af39410ef7be2c3253b41ca96cdc4e" target="_top" xlink:title="ene.views.gui.partial.Library\lView.LibraryView">
<polygon fill="none" stroke="#000000" points="391,-49.5 391,-79.5 529,-79.5 529,-49.5 391,-49.5"/>
<text text-anchor="start" x="399" y="-67.5" font-family="Helvetica,sans-Serif" font-size="10.00" fill="#000000">ene.views.gui.partial.Library</text>
<text text-anchor="middle" x="460" y="-56.5" font-family="Helvetica,sans-Serif" font-size="10.00" fill="#000000">View.LibraryView</text>
</a>
</g>
</g>
<!-- Node6&#45;&gt;Node7 -->
<g id="edge2" class="edge">
<title>Node6&#45;&gt;Node7</title>
<path fill="none" stroke="#191970" d="M361.3025,-64.5C371.1937,-64.5 381.2466,-64.5 390.9646,-64.5"/>
<polygon fill="#191970" stroke="#191970" points="361.0742,-61.0001 351.0742,-64.5 361.0742,-68.0001 361.0742,-61.0001"/>
</g>
</g>
</svg>
