<?xml version="1.0" encoding="UTF-8" standalone="no"?>
<!DOCTYPE svg PUBLIC "-//W3C//DTD SVG 1.1//EN"
 "http://www.w3.org/Graphics/SVG/1.1/DTD/svg11.dtd">
<!-- Generated by graphviz version 2.40.1 (20161225.0304)
 -->
<!-- Title: ene.views.gui.partial.AbstractTrackListView.mousePressed Pages: 1 -->
<svg width="575pt" height="312pt"
 viewBox="0.00 0.00 575.00 311.50" xmlns="http://www.w3.org/2000/svg" xmlns:xlink="http://www.w3.org/1999/xlink">
<g id="graph0" class="graph" transform="scale(1 1) rotate(0) translate(4 307.5)">
<title>ene.views.gui.partial.AbstractTrackListView.mousePressed</title>
<!-- Node49 -->
<g id="node1" class="node">
<title>Node49</title>
<polygon fill="#bfbfbf" stroke="#000000" points="0,-118 0,-148 147,-148 147,-118 0,-118"/>
<text text-anchor="start" x="8" y="-136" font-family="Helvetica,sans-Serif" font-size="10.00" fill="#000000">ene.views.gui.partial.Abstract</text>
<text text-anchor="middle" x="73.5" y="-125" font-family="Helvetica,sans-Serif" font-size="10.00" fill="#000000">TrackListView.mousePressed</text>
</g>
<!-- Node50 -->
<g id="node2" class="node">
<title>Node50</title>
<g id="a_node2"><a xlink:href="classene_1_1AbstractObject.html#aff9619cf289ec83735b6c6ca2c12e020" target="_top" xlink:title="ene.AbstractObject.debug\lInfoAbout">
<polygon fill="none" stroke="#000000" points="209,-241 209,-271 339,-271 339,-241 209,-241"/>
<text text-anchor="start" x="217" y="-259" font-family="Helvetica,sans-Serif" font-size="10.00" fill="#000000">ene.AbstractObject.debug</text>
<text text-anchor="middle" x="274" y="-248" font-family="Helvetica,sans-Serif" font-size="10.00" fill="#000000">InfoAbout</text>
</a>
</g>
</g>
<!-- Node49&#45;&gt;Node50 -->
<g id="edge1" class="edge">
<title>Node49&#45;&gt;Node50</title>
<path fill="none" stroke="#191970" d="M85.9975,-148.1855C104.7816,-170.0092 142.4386,-210.0266 183,-232 188.1539,-234.792 193.6503,-237.2728 199.2922,-239.4748"/>
<polygon fill="#191970" stroke="#191970" points="198.2949,-242.8355 208.8894,-242.9231 200.6619,-236.2478 198.2949,-242.8355"/>
</g>
<!-- Node53 -->
<g id="node5" class="node">
<title>Node53</title>
<g id="a_node5"><a xlink:href="classene_1_1views_1_1AbstractPartialView.html#afb90f9e02eea94a2fb276d711a67ee36" target="_top" xlink:title="ene.views.AbstractPartial\lView.getModel">
<polygon fill="none" stroke="#000000" points="210,-192 210,-222 338,-222 338,-192 210,-192"/>
<text text-anchor="start" x="218" y="-210" font-family="Helvetica,sans-Serif" font-size="10.00" fill="#000000">ene.views.AbstractPartial</text>
<text text-anchor="middle" x="274" y="-199" font-family="Helvetica,sans-Serif" font-size="10.00" fill="#000000">View.getModel</text>
</a>
</g>
</g>
<!-- Node49&#45;&gt;Node53 -->
<g id="edge4" class="edge">
<title>Node49&#45;&gt;Node53</title>
<path fill="none" stroke="#191970" d="M103.1386,-148.2032C124.851,-158.9257 155.2506,-173.0869 183,-183 188.9575,-185.1282 195.1945,-187.1617 201.4902,-189.0803"/>
<polygon fill="#191970" stroke="#191970" points="200.8187,-192.5311 211.4001,-191.998 202.7958,-185.8161 200.8187,-192.5311"/>
</g>
<!-- Node54 -->
<g id="node6" class="node">
<title>Node54</title>
<g id="a_node6"><a xlink:href="classene_1_1views_1_1gui_1_1partial_1_1AbstractTrackListView.html#af869688a373ddb6b1938b53487756d08" target="_top" xlink:title="ene.views.gui.partial.Abstract\lTrackListView.getPlayerController">
<polygon fill="none" stroke="#000000" points="191.5,-143 191.5,-173 356.5,-173 356.5,-143 191.5,-143"/>
<text text-anchor="start" x="199.5" y="-161" font-family="Helvetica,sans-Serif" font-size="10.00" fill="#000000">ene.views.gui.partial.Abstract</text>
<text text-anchor="middle" x="274" y="-150" font-family="Helvetica,sans-Serif" font-size="10.00" fill="#000000">TrackListView.getPlayerController</text>
</a>
</g>
</g>
<!-- Node49&#45;&gt;Node54 -->
<g id="edge5" class="edge">
<title>Node49&#45;&gt;Node54</title>
<path fill="none" stroke="#191970" d="M147.0203,-142.1671C158.1713,-143.5575 169.7982,-145.0073 181.2922,-146.4404"/>
<polygon fill="#191970" stroke="#191970" points="180.9872,-149.9294 191.3435,-147.6937 181.8534,-142.9832 180.9872,-149.9294"/>
</g>
<!-- Node55 -->
<g id="node7" class="node">
<title>Node55</title>
<g id="a_node7"><a xlink:href="classene_1_1views_1_1gui_1_1partial_1_1AbstractTrackListView.html#a35a32113ecdb8bc210fa6b4e9c57c782" target="_top" xlink:title="ene.views.gui.partial.Abstract\lTrackListView.getSelectedFilename">
<polygon fill="none" stroke="#000000" points="187.5,-94 187.5,-124 360.5,-124 360.5,-94 187.5,-94"/>
<text text-anchor="start" x="195.5" y="-112" font-family="Helvetica,sans-Serif" font-size="10.00" fill="#000000">ene.views.gui.partial.Abstract</text>
<text text-anchor="middle" x="274" y="-101" font-family="Helvetica,sans-Serif" font-size="10.00" fill="#000000">TrackListView.getSelectedFilename</text>
</a>
</g>
</g>
<!-- Node49&#45;&gt;Node55 -->
<g id="edge6" class="edge">
<title>Node49&#45;&gt;Node55</title>
<path fill="none" stroke="#191970" d="M147.0203,-124.1996C156.8275,-123.0256 167.0029,-121.8076 177.1322,-120.5952"/>
<polygon fill="#191970" stroke="#191970" points="177.7176,-124.0501 187.2307,-119.3863 176.8856,-117.0998 177.7176,-124.0501"/>
</g>
<!-- Node59 -->
<g id="node11" class="node">
<title>Node59</title>
<g id="a_node11"><a xlink:href="classene_1_1controllers_1_1PlayerController.html#a3161f5c373dd9ec50cfa2f07e59ee1a1" target="_top" xlink:title="ene.controllers.PlayerController.load">
<polygon fill="none" stroke="#000000" points="187,-55.5 187,-74.5 361,-74.5 361,-55.5 187,-55.5"/>
<text text-anchor="middle" x="274" y="-62.5" font-family="Helvetica,sans-Serif" font-size="10.00" fill="#000000">ene.controllers.PlayerController.load</text>
</a>
</g>
</g>
<!-- Node49&#45;&gt;Node59 -->
<g id="edge10" class="edge">
<title>Node49&#45;&gt;Node59</title>
<path fill="none" stroke="#191970" d="M103.553,-117.9062C125.2101,-107.5079 155.3681,-93.9957 183,-85 192.344,-81.958 202.3778,-79.2335 212.2478,-76.8471"/>
<polygon fill="#191970" stroke="#191970" points="213.083,-80.2463 222.0316,-74.5742 211.4989,-73.4279 213.083,-80.2463"/>
</g>
<!-- Node61 -->
<g id="node13" class="node">
<title>Node61</title>
<g id="a_node13"><a xlink:href="classene_1_1controllers_1_1PlayerController.html#acea0cc4709105881026516d468c4baf8" target="_top" xlink:title="ene.controllers.PlayerController.toggle\lPlayback">
<polygon fill="none" stroke="#000000" points="183,-6 183,-36 365,-36 365,-6 183,-6"/>
<text text-anchor="start" x="191" y="-24" font-family="Helvetica,sans-Serif" font-size="10.00" fill="#000000">ene.controllers.PlayerController.toggle</text>
<text text-anchor="middle" x="274" y="-13" font-family="Helvetica,sans-Serif" font-size="10.00" fill="#000000">Playback</text>
</a>
</g>
</g>
<!-- Node49&#45;&gt;Node61 -->
<g id="edge12" class="edge">
<title>Node49&#45;&gt;Node61</title>
<path fill="none" stroke="#191970" d="M88.4116,-117.8261C108.2804,-98.4432 145.3285,-65.124 183,-46 187.5403,-43.6951 192.3193,-41.5814 197.2123,-39.6464"/>
<polygon fill="#191970" stroke="#191970" points="198.5544,-42.882 206.7292,-36.1424 196.1357,-36.3131 198.5544,-42.882"/>
</g>
<!-- Node51 -->
<g id="node3" class="node">
<title>Node51</title>
<g id="a_node3"><a xlink:href="classene_1_1AbstractObject.html#a9ce30d3321c7ce794df2f07bdaf3e47c" target="_top" xlink:title="ene.AbstractObject.console\lOutput">
<polygon fill="none" stroke="#000000" points="415.5,-273 415.5,-303 552.5,-303 552.5,-273 415.5,-273"/>
<text text-anchor="start" x="423.5" y="-291" font-family="Helvetica,sans-Serif" font-size="10.00" fill="#000000">ene.AbstractObject.console</text>
<text text-anchor="middle" x="484" y="-280" font-family="Helvetica,sans-Serif" font-size="10.00" fill="#000000">Output</text>
</a>
</g>
</g>
<!-- Node50&#45;&gt;Node51 -->
<g id="edge2" class="edge">
<title>Node50&#45;&gt;Node51</title>
<path fill="none" stroke="#191970" d="M339.0072,-265.9059C360.0037,-269.1053 383.5086,-272.687 405.3805,-276.0199"/>
<polygon fill="#191970" stroke="#191970" points="404.8869,-279.485 415.3,-277.5314 405.9414,-272.5649 404.8869,-279.485"/>
</g>
<!-- Node52 -->
<g id="node4" class="node">
<title>Node52</title>
<g id="a_node4"><a xlink:href="classene_1_1AbstractObject.html#a6ee0b669069e0c3ee320a6cf41af24fe" target="_top" xlink:title="ene.AbstractObject.isDebug\lModeEnabled">
<polygon fill="none" stroke="#000000" points="414,-224 414,-254 554,-254 554,-224 414,-224"/>
<text text-anchor="start" x="422" y="-242" font-family="Helvetica,sans-Serif" font-size="10.00" fill="#000000">ene.AbstractObject.isDebug</text>
<text text-anchor="middle" x="484" y="-231" font-family="Helvetica,sans-Serif" font-size="10.00" fill="#000000">ModeEnabled</text>
</a>
</g>
</g>
<!-- Node50&#45;&gt;Node52 -->
<g id="edge3" class="edge">
<title>Node50&#45;&gt;Node52</title>
<path fill="none" stroke="#191970" d="M339.0072,-250.7375C359.4931,-249.0791 382.367,-247.2274 403.7822,-245.4938"/>
<polygon fill="#191970" stroke="#191970" points="404.1469,-248.9758 413.8318,-244.6803 403.582,-241.9987 404.1469,-248.9758"/>
</g>
<!-- Node56 -->
<g id="node8" class="node">
<title>Node56</title>
<g id="a_node8"><a xlink:href="classene_1_1views_1_1gui_1_1partial_1_1AbstractTrackListView.html#aeea3d90287745704cda06893c94b9666" target="_top" xlink:title="ene.views.gui.partial.Abstract\lTrackListView.getTable">
<polygon fill="none" stroke="#000000" points="411,-159 411,-189 557,-189 557,-159 411,-159"/>
<text text-anchor="start" x="419" y="-177" font-family="Helvetica,sans-Serif" font-size="10.00" fill="#000000">ene.views.gui.partial.Abstract</text>
<text text-anchor="middle" x="484" y="-166" font-family="Helvetica,sans-Serif" font-size="10.00" fill="#000000">TrackListView.getTable</text>
</a>
</g>
</g>
<!-- Node55&#45;&gt;Node56 -->
<g id="edge7" class="edge">
<title>Node55&#45;&gt;Node56</title>
<path fill="none" stroke="#191970" d="M334.1183,-124.14C344.501,-127.1453 355.1257,-130.4718 365,-134 381.4882,-139.8913 384.5516,-143.9986 401,-150 406.5067,-152.0092 412.2662,-153.9642 418.0731,-155.8347"/>
<polygon fill="#191970" stroke="#191970" points="417.265,-159.2492 427.854,-158.8977 419.357,-152.5691 417.265,-159.2492"/>
</g>
<!-- Node57 -->
<g id="node9" class="node">
<title>Node57</title>
<g id="a_node9"><a xlink:href="classene_1_1views_1_1gui_1_1partial_1_1AbstractTrackListView.html#a709dd0b919d5e537076fe18ad992f25f" target="_top" xlink:title="ene.views.gui.partial.Abstract\lTrackListView.getTableContent">
<polygon fill="none" stroke="#000000" points="407,-110 407,-140 561,-140 561,-110 407,-110"/>
<text text-anchor="start" x="415" y="-128" font-family="Helvetica,sans-Serif" font-size="10.00" fill="#000000">ene.views.gui.partial.Abstract</text>
<text text-anchor="middle" x="484" y="-117" font-family="Helvetica,sans-Serif" font-size="10.00" fill="#000000">TrackListView.getTableContent</text>
</a>
</g>
</g>
<!-- Node55&#45;&gt;Node57 -->
<g id="edge8" class="edge">
<title>Node55&#45;&gt;Node57</title>
<path fill="none" stroke="#191970" d="M360.6275,-115.6002C372.6318,-116.5148 384.9669,-117.4546 396.9784,-118.3698"/>
<polygon fill="#191970" stroke="#191970" points="396.7406,-121.8617 406.9776,-119.1316 397.2724,-114.8819 396.7406,-121.8617"/>
</g>
<!-- Node58 -->
<g id="node10" class="node">
<title>Node58</title>
<g id="a_node10"><a xlink:href="classene_1_1views_1_1gui_1_1partial_1_1AbstractTrackListView.html#abb6fc383a050c8c908502156536ce518" target="_top" xlink:title="ene.views.gui.partial.Abstract\lTrackListView.getTableRowSorter">
<polygon fill="none" stroke="#000000" points="401,-61 401,-91 567,-91 567,-61 401,-61"/>
<text text-anchor="start" x="409" y="-79" font-family="Helvetica,sans-Serif" font-size="10.00" fill="#000000">ene.views.gui.partial.Abstract</text>
<text text-anchor="middle" x="484" y="-68" font-family="Helvetica,sans-Serif" font-size="10.00" fill="#000000">TrackListView.getTableRowSorter</text>
</a>
</g>
</g>
<!-- Node55&#45;&gt;Node58 -->
<g id="edge9" class="edge">
<title>Node55&#45;&gt;Node58</title>
<path fill="none" stroke="#191970" d="M360.6275,-95.3871C370.6264,-93.8159 380.8547,-92.2085 390.9344,-90.6246"/>
<polygon fill="#191970" stroke="#191970" points="391.6152,-94.0607 400.9506,-89.0506 390.5285,-87.1455 391.6152,-94.0607"/>
</g>
<!-- Node60 -->
<g id="node12" class="node">
<title>Node60</title>
<g id="a_node12"><a xlink:href="classene_1_1controllers_1_1AbstractController.html#a9a5afba01d0004a64db4cb14c23e0bbd" target="_top" xlink:title="ene.controllers.Abstract\lController\&lt; PlayerModel\l \&gt;::getModel">
<polygon fill="none" stroke="#000000" points="423,-.5 423,-41.5 545,-41.5 545,-.5 423,-.5"/>
<text text-anchor="start" x="431" y="-29.5" font-family="Helvetica,sans-Serif" font-size="10.00" fill="#000000">ene.controllers.Abstract</text>
<text text-anchor="start" x="431" y="-18.5" font-family="Helvetica,sans-Serif" font-size="10.00" fill="#000000">Controller&lt; PlayerModel</text>
<text text-anchor="middle" x="484" y="-7.5" font-family="Helvetica,sans-Serif" font-size="10.00" fill="#000000"> &gt;::getModel</text>
</a>
</g>
</g>
<!-- Node59&#45;&gt;Node60 -->
<g id="edge11" class="edge">
<title>Node59&#45;&gt;Node60</title>
<path fill="none" stroke="#191970" d="M319.5669,-55.4527C346.8882,-49.7282 382.2145,-42.3265 413.1172,-35.8516"/>
<polygon fill="#191970" stroke="#191970" points="413.9097,-39.2617 422.9794,-33.7853 412.4742,-32.4104 413.9097,-39.2617"/>
</g>
<!-- Node61&#45;&gt;Node60 -->
<g id="edge13" class="edge">
<title>Node61&#45;&gt;Node60</title>
<path fill="none" stroke="#191970" d="M365.1929,-21C381.0215,-21 397.2761,-21 412.484,-21"/>
<polygon fill="#191970" stroke="#191970" points="412.8272,-24.5001 422.8272,-21 412.8272,-17.5001 412.8272,-24.5001"/>
</g>
</g>
</svg>
