<?xml version="1.0" encoding="UTF-8" standalone="no"?>
<!DOCTYPE svg PUBLIC "-//W3C//DTD SVG 1.1//EN"
 "http://www.w3.org/Graphics/SVG/1.1/DTD/svg11.dtd">
<!-- Generated by graphviz version 2.40.1 (20161225.0304)
 -->
<!-- Title: ene.models.PlaylistModel Pages: 1 -->
<svg width="551pt" height="772pt"
 viewBox="0.00 0.00 550.50 772.00" xmlns="http://www.w3.org/2000/svg" xmlns:xlink="http://www.w3.org/1999/xlink">
<g id="graph0" class="graph" transform="scale(1 1) rotate(0) translate(4 768)">
<title>ene.models.PlaylistModel</title>
<!-- Node5 -->
<g id="node1" class="node">
<title>Node5</title>
<polygon fill="#bfbfbf" stroke="#000000" points="185.5,-.5 185.5,-90.5 313.5,-90.5 313.5,-.5 185.5,-.5"/>
<text text-anchor="middle" x="249.5" y="-78.5" font-family="Helvetica,sans-Serif" font-size="10.00" fill="#000000">ene.models.PlaylistModel</text>
<polyline fill="none" stroke="#000000" points="185.5,-71.5 313.5,-71.5 "/>
<text text-anchor="middle" x="249.5" y="-59.5" font-family="Helvetica,sans-Serif" font-size="10.00" fill="#000000"> </text>
<polyline fill="none" stroke="#000000" points="185.5,-52.5 313.5,-52.5 "/>
<text text-anchor="start" x="193.5" y="-40.5" font-family="Helvetica,sans-Serif" font-size="10.00" fill="#000000">+ setCurrentTrack()</text>
<text text-anchor="start" x="193.5" y="-29.5" font-family="Helvetica,sans-Serif" font-size="10.00" fill="#000000">+ getCurrentTrack()</text>
<text text-anchor="start" x="193.5" y="-18.5" font-family="Helvetica,sans-Serif" font-size="10.00" fill="#000000">+ previousTrack()</text>
<text text-anchor="start" x="193.5" y="-7.5" font-family="Helvetica,sans-Serif" font-size="10.00" fill="#000000">+ nextTrack()</text>
</g>
<!-- Node6 -->
<g id="node2" class="node">
<title>Node6</title>
<g id="a_node2"><a xlink:href="classene_1_1models_1_1TrackListModel.html" target="_top" xlink:title="{ene.models.TrackListModel\n||+ add()\l+ remove()\l+ get()\l+ has()\l+ getAll()\l}">
<polygon fill="none" stroke="#000000" points="257,-182.5 257,-283.5 394,-283.5 394,-182.5 257,-182.5"/>
<text text-anchor="middle" x="325.5" y="-271.5" font-family="Helvetica,sans-Serif" font-size="10.00" fill="#000000">ene.models.TrackListModel</text>
<polyline fill="none" stroke="#000000" points="257,-264.5 394,-264.5 "/>
<text text-anchor="middle" x="325.5" y="-252.5" font-family="Helvetica,sans-Serif" font-size="10.00" fill="#000000"> </text>
<polyline fill="none" stroke="#000000" points="257,-245.5 394,-245.5 "/>
<text text-anchor="start" x="265" y="-233.5" font-family="Helvetica,sans-Serif" font-size="10.00" fill="#000000">+ add()</text>
<text text-anchor="start" x="265" y="-222.5" font-family="Helvetica,sans-Serif" font-size="10.00" fill="#000000">+ remove()</text>
<text text-anchor="start" x="265" y="-211.5" font-family="Helvetica,sans-Serif" font-size="10.00" fill="#000000">+ get()</text>
<text text-anchor="start" x="265" y="-200.5" font-family="Helvetica,sans-Serif" font-size="10.00" fill="#000000">+ has()</text>
<text text-anchor="start" x="265" y="-189.5" font-family="Helvetica,sans-Serif" font-size="10.00" fill="#000000">+ getAll()</text>
</a>
</g>
</g>
<!-- Node6&#45;&gt;Node5 -->
<g id="edge1" class="edge">
<title>Node6&#45;&gt;Node5</title>
<path fill="none" stroke="#191970" d="M312.9579,-172.3473C307.6362,-151.7469 300.5367,-128.9145 291.5,-109 288.7145,-102.8615 285.3719,-96.6486 281.8048,-90.6346"/>
<polygon fill="none" stroke="#191970" points="309.6135,-173.4018 315.4282,-182.2584 316.4057,-171.7088 309.6135,-173.4018"/>
</g>
<!-- Node7 -->
<g id="node3" class="node">
<title>Node7</title>
<g id="a_node3"><a xlink:href="classene_1_1models_1_1AbstractModel.html" target="_top" xlink:title="{ene.models.AbstractModel\n||+ addView()\l# changed()\l}">
<polygon fill="none" stroke="#000000" points="175,-408.5 175,-476.5 308,-476.5 308,-408.5 175,-408.5"/>
<text text-anchor="middle" x="241.5" y="-464.5" font-family="Helvetica,sans-Serif" font-size="10.00" fill="#000000">ene.models.AbstractModel</text>
<polyline fill="none" stroke="#000000" points="175,-457.5 308,-457.5 "/>
<text text-anchor="middle" x="241.5" y="-445.5" font-family="Helvetica,sans-Serif" font-size="10.00" fill="#000000"> </text>
<polyline fill="none" stroke="#000000" points="175,-438.5 308,-438.5 "/>
<text text-anchor="start" x="183" y="-426.5" font-family="Helvetica,sans-Serif" font-size="10.00" fill="#000000">+ addView()</text>
<text text-anchor="start" x="183" y="-415.5" font-family="Helvetica,sans-Serif" font-size="10.00" fill="#000000"># changed()</text>
</a>
</g>
</g>
<!-- Node7&#45;&gt;Node6 -->
<g id="edge2" class="edge">
<title>Node7&#45;&gt;Node6</title>
<path fill="none" stroke="#191970" d="M259.0114,-398.8257C272.4804,-365.2334 291.1132,-318.7623 305.2279,-283.5597"/>
<polygon fill="none" stroke="#191970" points="255.656,-397.7897 255.183,-408.3739 262.1532,-400.3948 255.656,-397.7897"/>
</g>
<!-- Node15 -->
<g id="node11" class="node">
<title>Node15</title>
<g id="a_node11"><a xlink:href="classene_1_1models_1_1TrackModel.html" target="_top" xlink:title="{ene.models.TrackModel\n||+ getFilename()\l+ setFilename()\l+ getArtist()\l+ setArtist()\l+ getTitle()\l+ setTitle()\l+ getGenre()\l+ setGenre()\l+ TrackModel()\l+ toString()\l+ detectArtist()\l+ detectTitle()\l# cutFilenameFromPath()\l}">
<polygon fill="none" stroke="#000000" points="112,-138.5 112,-327.5 239,-327.5 239,-138.5 112,-138.5"/>
<text text-anchor="middle" x="175.5" y="-315.5" font-family="Helvetica,sans-Serif" font-size="10.00" fill="#000000">ene.models.TrackModel</text>
<polyline fill="none" stroke="#000000" points="112,-308.5 239,-308.5 "/>
<text text-anchor="middle" x="175.5" y="-296.5" font-family="Helvetica,sans-Serif" font-size="10.00" fill="#000000"> </text>
<polyline fill="none" stroke="#000000" points="112,-289.5 239,-289.5 "/>
<text text-anchor="start" x="120" y="-277.5" font-family="Helvetica,sans-Serif" font-size="10.00" fill="#000000">+ getFilename()</text>
<text text-anchor="start" x="120" y="-266.5" font-family="Helvetica,sans-Serif" font-size="10.00" fill="#000000">+ setFilename()</text>
<text text-anchor="start" x="120" y="-255.5" font-family="Helvetica,sans-Serif" font-size="10.00" fill="#000000">+ getArtist()</text>
<text text-anchor="start" x="120" y="-244.5" font-family="Helvetica,sans-Serif" font-size="10.00" fill="#000000">+ setArtist()</text>
<text text-anchor="start" x="120" y="-233.5" font-family="Helvetica,sans-Serif" font-size="10.00" fill="#000000">+ getTitle()</text>
<text text-anchor="start" x="120" y="-222.5" font-family="Helvetica,sans-Serif" font-size="10.00" fill="#000000">+ setTitle()</text>
<text text-anchor="start" x="120" y="-211.5" font-family="Helvetica,sans-Serif" font-size="10.00" fill="#000000">+ getGenre()</text>
<text text-anchor="start" x="120" y="-200.5" font-family="Helvetica,sans-Serif" font-size="10.00" fill="#000000">+ setGenre()</text>
<text text-anchor="start" x="120" y="-189.5" font-family="Helvetica,sans-Serif" font-size="10.00" fill="#000000">+ TrackModel()</text>
<text text-anchor="start" x="120" y="-178.5" font-family="Helvetica,sans-Serif" font-size="10.00" fill="#000000">+ toString()</text>
<text text-anchor="start" x="120" y="-167.5" font-family="Helvetica,sans-Serif" font-size="10.00" fill="#000000">+ detectArtist()</text>
<text text-anchor="start" x="120" y="-156.5" font-family="Helvetica,sans-Serif" font-size="10.00" fill="#000000">+ detectTitle()</text>
<text text-anchor="start" x="120" y="-145.5" font-family="Helvetica,sans-Serif" font-size="10.00" fill="#000000"># cutFilenameFromPath()</text>
</a>
</g>
</g>
<!-- Node7&#45;&gt;Node15 -->
<g id="edge11" class="edge">
<title>Node7&#45;&gt;Node15</title>
<path fill="none" stroke="#191970" d="M227.6831,-398.6419C221.1722,-377.9746 213.135,-352.4627 205.3358,-327.7061"/>
<polygon fill="none" stroke="#191970" points="224.406,-399.8877 230.7491,-408.3739 231.0825,-397.7844 224.406,-399.8877"/>
</g>
<!-- Node8 -->
<g id="node4" class="node">
<title>Node8</title>
<g id="a_node4"><a xlink:href="classene_1_1AbstractObject.html" target="_top" xlink:title="{ene.AbstractObject\n||+ enableDebugMode()\l+ disableDebugMode()\l+ isDebugModeEnabled()\l+ debugInfoAbout()\l+ consoleOutput()\l# delay()\l}">
<polygon fill="none" stroke="#000000" points="0,-535.5 0,-647.5 127,-647.5 127,-535.5 0,-535.5"/>
<text text-anchor="middle" x="63.5" y="-635.5" font-family="Helvetica,sans-Serif" font-size="10.00" fill="#000000">ene.AbstractObject</text>
<polyline fill="none" stroke="#000000" points="0,-628.5 127,-628.5 "/>
<text text-anchor="middle" x="63.5" y="-616.5" font-family="Helvetica,sans-Serif" font-size="10.00" fill="#000000"> </text>
<polyline fill="none" stroke="#000000" points="0,-609.5 127,-609.5 "/>
<text text-anchor="start" x="8" y="-597.5" font-family="Helvetica,sans-Serif" font-size="10.00" fill="#000000">+ enableDebugMode()</text>
<text text-anchor="start" x="8" y="-586.5" font-family="Helvetica,sans-Serif" font-size="10.00" fill="#000000">+ disableDebugMode()</text>
<text text-anchor="start" x="8" y="-575.5" font-family="Helvetica,sans-Serif" font-size="10.00" fill="#000000">+ isDebugModeEnabled()</text>
<text text-anchor="start" x="8" y="-564.5" font-family="Helvetica,sans-Serif" font-size="10.00" fill="#000000">+ debugInfoAbout()</text>
<text text-anchor="start" x="8" y="-553.5" font-family="Helvetica,sans-Serif" font-size="10.00" fill="#000000">+ consoleOutput()</text>
<text text-anchor="start" x="8" y="-542.5" font-family="Helvetica,sans-Serif" font-size="10.00" fill="#000000"># delay()</text>
</a>
</g>
</g>
<!-- Node8&#45;&gt;Node7 -->
<g id="edge3" class="edge">
<title>Node8&#45;&gt;Node7</title>
<path fill="none" stroke="#191970" d="M134.8641,-531.7627C157.285,-512.9946 181.2616,-492.9243 200.7896,-476.5778"/>
<polygon fill="none" stroke="#191970" points="132.4297,-529.236 127.0082,-538.3386 136.9229,-534.6036 132.4297,-529.236"/>
</g>
<!-- Node9 -->
<g id="node5" class="node">
<title>Node9</title>
<polygon fill="none" stroke="#bfbfbf" points="25,-706.5 25,-763.5 102,-763.5 102,-706.5 25,-706.5"/>
<text text-anchor="middle" x="63.5" y="-751.5" font-family="Helvetica,sans-Serif" font-size="10.00" fill="#000000">static boolean</text>
<polyline fill="none" stroke="#bfbfbf" points="25,-744.5 102,-744.5 "/>
<text text-anchor="middle" x="63.5" y="-732.5" font-family="Helvetica,sans-Serif" font-size="10.00" fill="#000000"> </text>
<polyline fill="none" stroke="#bfbfbf" points="25,-725.5 102,-725.5 "/>
<text text-anchor="middle" x="63.5" y="-713.5" font-family="Helvetica,sans-Serif" font-size="10.00" fill="#000000"> </text>
</g>
<!-- Node9&#45;&gt;Node8 -->
<g id="edge4" class="edge">
<title>Node9&#45;&gt;Node8</title>
<path fill="none" stroke="#404040" d="M63.5,-706.3055C63.5,-692.9442 63.5,-676.4218 63.5,-660.1157"/>
<polygon fill="none" stroke="#404040" points="63.5001,-659.7445 59.5,-653.7445 63.5,-647.7445 67.5,-653.7444 63.5001,-659.7445"/>
<text text-anchor="middle" x="110.5" y="-674.5" font-family="Helvetica,sans-Serif" font-size="10.00" fill="#000000"> #debugModeEnabled</text>
</g>
<!-- Node10 -->
<g id="node6" class="node">
<title>Node10</title>
<g id="a_node6"><a xlink:href="interfaceene_1_1interfaces_1_1Model.html" target="_top" xlink:title="{ene.interfaces.Model\n||+ addView()\l}">
<polygon fill="none" stroke="#000000" points="145,-563 145,-620 252,-620 252,-563 145,-563"/>
<text text-anchor="middle" x="198.5" y="-608" font-family="Helvetica,sans-Serif" font-size="10.00" fill="#000000">ene.interfaces.Model</text>
<polyline fill="none" stroke="#000000" points="145,-601 252,-601 "/>
<text text-anchor="middle" x="198.5" y="-589" font-family="Helvetica,sans-Serif" font-size="10.00" fill="#000000"> </text>
<polyline fill="none" stroke="#000000" points="145,-582 252,-582 "/>
<text text-anchor="start" x="153" y="-570" font-family="Helvetica,sans-Serif" font-size="10.00" fill="#000000">+ addView()</text>
</a>
</g>
</g>
<!-- Node10&#45;&gt;Node7 -->
<g id="edge5" class="edge">
<title>Node10&#45;&gt;Node7</title>
<path fill="none" stroke="#191970" d="M209.5897,-553.0728C216.4104,-529.4383 225.0736,-499.4193 231.6518,-476.6252"/>
<polygon fill="none" stroke="#191970" points="206.2009,-552.1929 206.7908,-562.7713 212.9264,-554.1339 206.2009,-552.1929"/>
</g>
<!-- Node11 -->
<g id="node7" class="node">
<title>Node11</title>
<polygon fill="none" stroke="#bfbfbf" points="270.5,-557.5 270.5,-625.5 404.5,-625.5 404.5,-557.5 270.5,-557.5"/>
<text text-anchor="start" x="278.5" y="-613.5" font-family="Helvetica,sans-Serif" font-size="10.00" fill="#000000">List&lt; ene.interfaces.Partial</text>
<text text-anchor="middle" x="337.5" y="-602.5" font-family="Helvetica,sans-Serif" font-size="10.00" fill="#000000">View&lt;?, ?&gt; &gt;</text>
<polyline fill="none" stroke="#bfbfbf" points="270.5,-595.5 404.5,-595.5 "/>
<text text-anchor="middle" x="337.5" y="-583.5" font-family="Helvetica,sans-Serif" font-size="10.00" fill="#000000"> </text>
<polyline fill="none" stroke="#bfbfbf" points="270.5,-576.5 404.5,-576.5 "/>
<text text-anchor="middle" x="337.5" y="-564.5" font-family="Helvetica,sans-Serif" font-size="10.00" fill="#000000"> </text>
</g>
<!-- Node11&#45;&gt;Node7 -->
<g id="edge6" class="edge">
<title>Node11&#45;&gt;Node7</title>
<path fill="none" stroke="#404040" d="M315.4757,-557.3164C301.9994,-536.4001 284.6141,-509.4166 270.0837,-486.8643"/>
<polygon fill="none" stroke="#404040" points="269.9213,-486.6121 263.309,-483.7348 263.4219,-476.5245 270.0341,-479.4019 269.9213,-486.6121"/>
<text text-anchor="middle" x="306.5" y="-503.5" font-family="Helvetica,sans-Serif" font-size="10.00" fill="#000000"> #views</text>
</g>
<!-- Node12 -->
<g id="node8" class="node">
<title>Node12</title>
<polygon fill="none" stroke="#bfbfbf" points="321.5,-706.5 321.5,-763.5 353.5,-763.5 353.5,-706.5 321.5,-706.5"/>
<text text-anchor="middle" x="337.5" y="-751.5" font-family="Helvetica,sans-Serif" font-size="10.00" fill="#000000">List</text>
<polyline fill="none" stroke="#bfbfbf" points="321.5,-744.5 353.5,-744.5 "/>
<text text-anchor="middle" x="337.5" y="-732.5" font-family="Helvetica,sans-Serif" font-size="10.00" fill="#000000"> </text>
<polyline fill="none" stroke="#bfbfbf" points="321.5,-725.5 353.5,-725.5 "/>
<text text-anchor="middle" x="337.5" y="-713.5" font-family="Helvetica,sans-Serif" font-size="10.00" fill="#000000"> </text>
</g>
<!-- Node12&#45;&gt;Node11 -->
<g id="edge7" class="edge">
<title>Node12&#45;&gt;Node11</title>
<path fill="none" stroke="#ffa500" d="M337.5,-696.2878C337.5,-674.2661 337.5,-646.9324 337.5,-625.7037"/>
<polygon fill="#ffa500" stroke="#ffa500" points="334.0001,-696.3055 337.5,-706.3055 341.0001,-696.3056 334.0001,-696.3055"/>
<text text-anchor="start" x="337.5" y="-680" font-family="Helvetica,sans-Serif" font-size="10.00" fill="#000000"> &lt; ene::interfaces::</text>
<text text-anchor="middle" x="381.5" y="-669" font-family="Helvetica,sans-Serif" font-size="10.00" fill="#000000">PartialView&lt;?, ?&gt; &gt;</text>
</g>
<!-- Node13 -->
<g id="node9" class="node">
<title>Node13</title>
<polygon fill="none" stroke="#bfbfbf" points="362,-408.5 362,-476.5 495,-476.5 495,-408.5 362,-408.5"/>
<text text-anchor="start" x="370" y="-464.5" font-family="Helvetica,sans-Serif" font-size="10.00" fill="#000000">NavigableMap&lt; String,</text>
<text text-anchor="middle" x="428.5" y="-453.5" font-family="Helvetica,sans-Serif" font-size="10.00" fill="#000000"> ene.models.TrackModel &gt;</text>
<polyline fill="none" stroke="#bfbfbf" points="362,-446.5 495,-446.5 "/>
<text text-anchor="middle" x="428.5" y="-434.5" font-family="Helvetica,sans-Serif" font-size="10.00" fill="#000000"> </text>
<polyline fill="none" stroke="#bfbfbf" points="362,-427.5 495,-427.5 "/>
<text text-anchor="middle" x="428.5" y="-415.5" font-family="Helvetica,sans-Serif" font-size="10.00" fill="#000000"> </text>
</g>
<!-- Node13&#45;&gt;Node6 -->
<g id="edge8" class="edge">
<title>Node13&#45;&gt;Node6</title>
<path fill="none" stroke="#404040" d="M411.722,-408.3739C396.6372,-377.6918 374.113,-331.8779 355.869,-294.77"/>
<polygon fill="none" stroke="#404040" points="355.652,-294.3286 349.4151,-290.709 350.3575,-283.5597 356.5944,-287.1793 355.652,-294.3286"/>
<text text-anchor="middle" x="419.5" y="-365.5" font-family="Helvetica,sans-Serif" font-size="10.00" fill="#000000"> #tracks</text>
</g>
<!-- Node14 -->
<g id="node10" class="node">
<title>Node14</title>
<polygon fill="none" stroke="#bfbfbf" points="423,-563 423,-620 502,-620 502,-563 423,-563"/>
<text text-anchor="middle" x="462.5" y="-608" font-family="Helvetica,sans-Serif" font-size="10.00" fill="#000000">NavigableMap</text>
<polyline fill="none" stroke="#bfbfbf" points="423,-601 502,-601 "/>
<text text-anchor="middle" x="462.5" y="-589" font-family="Helvetica,sans-Serif" font-size="10.00" fill="#000000"> </text>
<polyline fill="none" stroke="#bfbfbf" points="423,-582 502,-582 "/>
<text text-anchor="middle" x="462.5" y="-570" font-family="Helvetica,sans-Serif" font-size="10.00" fill="#000000"> </text>
</g>
<!-- Node14&#45;&gt;Node13 -->
<g id="edge9" class="edge">
<title>Node14&#45;&gt;Node13</title>
<path fill="none" stroke="#ffa500" d="M453.6591,-552.7559C448.2772,-529.1705 441.4651,-499.3175 436.287,-476.6252"/>
<polygon fill="#ffa500" stroke="#ffa500" points="450.3074,-553.8006 455.9445,-562.7713 457.132,-552.2432 450.3074,-553.8006"/>
<text text-anchor="start" x="445.5" y="-509" font-family="Helvetica,sans-Serif" font-size="10.00" fill="#000000"> &lt; String, ene::models</text>
<text text-anchor="middle" x="494" y="-498" font-family="Helvetica,sans-Serif" font-size="10.00" fill="#000000">::TrackModel &gt;</text>
</g>
<!-- Node15&#45;&gt;Node5 -->
<g id="edge10" class="edge">
<title>Node15&#45;&gt;Node5</title>
<path fill="none" stroke="#404040" d="M212.8252,-138.426C217.7283,-126.0027 222.6237,-113.5987 227.1671,-102.0867"/>
<polygon fill="none" stroke="#404040" points="227.175,-102.0665 225.657,-95.017 231.5804,-90.9044 233.0984,-97.9539 227.175,-102.0665"/>
<text text-anchor="middle" x="255.5" y="-112" font-family="Helvetica,sans-Serif" font-size="10.00" fill="#000000"> #currentTrack</text>
</g>
<!-- Node16 -->
<g id="node12" class="node">
<title>Node16</title>
<polygon fill="none" stroke="#bfbfbf" points="114.5,-414 114.5,-471 156.5,-471 156.5,-414 114.5,-414"/>
<text text-anchor="middle" x="135.5" y="-459" font-family="Helvetica,sans-Serif" font-size="10.00" fill="#000000">String</text>
<polyline fill="none" stroke="#bfbfbf" points="114.5,-452 156.5,-452 "/>
<text text-anchor="middle" x="135.5" y="-440" font-family="Helvetica,sans-Serif" font-size="10.00" fill="#000000"> </text>
<polyline fill="none" stroke="#bfbfbf" points="114.5,-433 156.5,-433 "/>
<text text-anchor="middle" x="135.5" y="-421" font-family="Helvetica,sans-Serif" font-size="10.00" fill="#000000"> </text>
</g>
<!-- Node16&#45;&gt;Node15 -->
<g id="edge12" class="edge">
<title>Node16&#45;&gt;Node15</title>
<path fill="none" stroke="#404040" d="M140.978,-413.8092C144.7056,-394.2855 149.8936,-367.1137 155.1164,-339.7591"/>
<polygon fill="none" stroke="#404040" points="155.1821,-339.4144 152.3784,-332.7706 157.4327,-327.6273 160.2365,-334.271 155.1821,-339.4144"/>
<text text-anchor="middle" x="175" y="-382" font-family="Helvetica,sans-Serif" font-size="10.00" fill="#000000"> #title</text>
<text text-anchor="middle" x="175" y="-371" font-family="Helvetica,sans-Serif" font-size="10.00" fill="#000000">#filename</text>
<text text-anchor="middle" x="175" y="-360" font-family="Helvetica,sans-Serif" font-size="10.00" fill="#000000">#artist</text>
<text text-anchor="middle" x="175" y="-349" font-family="Helvetica,sans-Serif" font-size="10.00" fill="#000000">#genre</text>
</g>
</g>
</svg>
