<?xml version="1.0" encoding="UTF-8" standalone="no"?>
<!DOCTYPE svg PUBLIC "-//W3C//DTD SVG 1.1//EN"
 "http://www.w3.org/Graphics/SVG/1.1/DTD/svg11.dtd">
<!-- Generated by graphviz version 2.40.1 (20161225.0304)
 -->
<!-- Title: ene.models.TrackListModel Pages: 1 -->
<svg width="280pt" height="524pt"
 viewBox="0.00 0.00 279.50 524.00" xmlns="http://www.w3.org/2000/svg" xmlns:xlink="http://www.w3.org/1999/xlink">
<g id="graph0" class="graph" transform="scale(1 1) rotate(0) translate(4 520)">
<title>ene.models.TrackListModel</title>
<!-- Node0 -->
<g id="node1" class="node">
<title>Node0</title>
<polygon fill="#bfbfbf" stroke="#000000" points="66,-160.5 66,-261.5 203,-261.5 203,-160.5 66,-160.5"/>
<text text-anchor="middle" x="134.5" y="-249.5" font-family="Helvetica,sans-Serif" font-size="10.00" fill="#000000">ene.models.TrackListModel</text>
<polyline fill="none" stroke="#000000" points="66,-242.5 203,-242.5 "/>
<text text-anchor="start" x="74" y="-230.5" font-family="Helvetica,sans-Serif" font-size="10.00" fill="#000000"># tracks</text>
<polyline fill="none" stroke="#000000" points="66,-223.5 203,-223.5 "/>
<text text-anchor="start" x="74" y="-211.5" font-family="Helvetica,sans-Serif" font-size="10.00" fill="#000000">+ add()</text>
<text text-anchor="start" x="74" y="-200.5" font-family="Helvetica,sans-Serif" font-size="10.00" fill="#000000">+ remove()</text>
<text text-anchor="start" x="74" y="-189.5" font-family="Helvetica,sans-Serif" font-size="10.00" fill="#000000">+ get()</text>
<text text-anchor="start" x="74" y="-178.5" font-family="Helvetica,sans-Serif" font-size="10.00" fill="#000000">+ has()</text>
<text text-anchor="start" x="74" y="-167.5" font-family="Helvetica,sans-Serif" font-size="10.00" fill="#000000">+ getAll()</text>
</g>
<!-- Node4 -->
<g id="node5" class="node">
<title>Node4</title>
<g id="a_node5"><a xlink:href="classene_1_1models_1_1LibraryModel.html" target="_top" xlink:title="{ene.models.LibraryModel\n||+ getByArtist()\l+ getByTitle()\l+ getByGenre()\l+ search()\l}">
<polygon fill="none" stroke="#000000" points="0,-17 0,-107 125,-107 125,-17 0,-17"/>
<text text-anchor="middle" x="62.5" y="-95" font-family="Helvetica,sans-Serif" font-size="10.00" fill="#000000">ene.models.LibraryModel</text>
<polyline fill="none" stroke="#000000" points="0,-88 125,-88 "/>
<text text-anchor="middle" x="62.5" y="-76" font-family="Helvetica,sans-Serif" font-size="10.00" fill="#000000"> </text>
<polyline fill="none" stroke="#000000" points="0,-69 125,-69 "/>
<text text-anchor="start" x="8" y="-57" font-family="Helvetica,sans-Serif" font-size="10.00" fill="#000000">+ getByArtist()</text>
<text text-anchor="start" x="8" y="-46" font-family="Helvetica,sans-Serif" font-size="10.00" fill="#000000">+ getByTitle()</text>
<text text-anchor="start" x="8" y="-35" font-family="Helvetica,sans-Serif" font-size="10.00" fill="#000000">+ getByGenre()</text>
<text text-anchor="start" x="8" y="-24" font-family="Helvetica,sans-Serif" font-size="10.00" fill="#000000">+ search()</text>
</a>
</g>
</g>
<!-- Node0&#45;&gt;Node4 -->
<g id="edge4" class="edge">
<title>Node0&#45;&gt;Node4</title>
<path fill="none" stroke="#191970" d="M105.568,-151.1268C98.4778,-136.4541 91.0069,-120.9935 84.3146,-107.1441"/>
<polygon fill="none" stroke="#191970" points="102.4208,-152.6583 109.9231,-160.1394 108.7235,-149.6127 102.4208,-152.6583"/>
</g>
<!-- Node5 -->
<g id="node6" class="node">
<title>Node5</title>
<g id="a_node6"><a xlink:href="classene_1_1models_1_1PlaylistModel.html" target="_top" xlink:title="{ene.models.PlaylistModel\n|# currentTrack\l# lastAccess\l|+ getLastAccess()\l+ setCurrentTrack()\l+ getCurrentTrack()\l+ previousTrack()\l+ nextTrack()\l# updateLastAccess()\l}">
<polygon fill="none" stroke="#000000" points="143.5,-.5 143.5,-123.5 271.5,-123.5 271.5,-.5 143.5,-.5"/>
<text text-anchor="middle" x="207.5" y="-111.5" font-family="Helvetica,sans-Serif" font-size="10.00" fill="#000000">ene.models.PlaylistModel</text>
<polyline fill="none" stroke="#000000" points="143.5,-104.5 271.5,-104.5 "/>
<text text-anchor="start" x="151.5" y="-92.5" font-family="Helvetica,sans-Serif" font-size="10.00" fill="#000000"># currentTrack</text>
<text text-anchor="start" x="151.5" y="-81.5" font-family="Helvetica,sans-Serif" font-size="10.00" fill="#000000"># lastAccess</text>
<polyline fill="none" stroke="#000000" points="143.5,-74.5 271.5,-74.5 "/>
<text text-anchor="start" x="151.5" y="-62.5" font-family="Helvetica,sans-Serif" font-size="10.00" fill="#000000">+ getLastAccess()</text>
<text text-anchor="start" x="151.5" y="-51.5" font-family="Helvetica,sans-Serif" font-size="10.00" fill="#000000">+ setCurrentTrack()</text>
<text text-anchor="start" x="151.5" y="-40.5" font-family="Helvetica,sans-Serif" font-size="10.00" fill="#000000">+ getCurrentTrack()</text>
<text text-anchor="start" x="151.5" y="-29.5" font-family="Helvetica,sans-Serif" font-size="10.00" fill="#000000">+ previousTrack()</text>
<text text-anchor="start" x="151.5" y="-18.5" font-family="Helvetica,sans-Serif" font-size="10.00" fill="#000000">+ nextTrack()</text>
<text text-anchor="start" x="151.5" y="-7.5" font-family="Helvetica,sans-Serif" font-size="10.00" fill="#000000"># updateLastAccess()</text>
</a>
</g>
</g>
<!-- Node0&#45;&gt;Node5 -->
<g id="edge5" class="edge">
<title>Node0&#45;&gt;Node5</title>
<path fill="none" stroke="#191970" d="M163.9326,-150.9253C168.3246,-141.9608 172.8585,-132.7066 177.2667,-123.709"/>
<polygon fill="none" stroke="#191970" points="160.675,-149.6193 159.4183,-160.1394 166.9611,-152.6991 160.675,-149.6193"/>
</g>
<!-- Node1 -->
<g id="node2" class="node">
<title>Node1</title>
<g id="a_node2"><a xlink:href="classene_1_1models_1_1AbstractModel.html" target="_top" xlink:title="{ene.models.AbstractModel\n|# views\l|+ addView()\l# changed()\l}">
<polygon fill="none" stroke="#000000" points="68,-298.5 68,-366.5 201,-366.5 201,-298.5 68,-298.5"/>
<text text-anchor="middle" x="134.5" y="-354.5" font-family="Helvetica,sans-Serif" font-size="10.00" fill="#000000">ene.models.AbstractModel</text>
<polyline fill="none" stroke="#000000" points="68,-347.5 201,-347.5 "/>
<text text-anchor="start" x="76" y="-335.5" font-family="Helvetica,sans-Serif" font-size="10.00" fill="#000000"># views</text>
<polyline fill="none" stroke="#000000" points="68,-328.5 201,-328.5 "/>
<text text-anchor="start" x="76" y="-316.5" font-family="Helvetica,sans-Serif" font-size="10.00" fill="#000000">+ addView()</text>
<text text-anchor="start" x="76" y="-305.5" font-family="Helvetica,sans-Serif" font-size="10.00" fill="#000000"># changed()</text>
</a>
</g>
</g>
<!-- Node1&#45;&gt;Node0 -->
<g id="edge1" class="edge">
<title>Node1&#45;&gt;Node0</title>
<path fill="none" stroke="#191970" d="M134.5,-288.1349C134.5,-279.5408 134.5,-270.474 134.5,-261.6952"/>
<polygon fill="none" stroke="#191970" points="131.0001,-288.3321 134.5,-298.3321 138.0001,-288.3322 131.0001,-288.3321"/>
</g>
<!-- Node2 -->
<g id="node3" class="node">
<title>Node2</title>
<g id="a_node3"><a xlink:href="classene_1_1AbstractObject.html" target="_top" xlink:title="{ene.AbstractObject\n|# debugModeEnabled\l|+ enableDebugMode()\l+ disableDebugMode()\l+ isDebugModeEnabled()\l+ debugInfoAbout()\l+ consoleOutput()\l# delay()\l}">
<polygon fill="none" stroke="#000000" points="4,-403.5 4,-515.5 131,-515.5 131,-403.5 4,-403.5"/>
<text text-anchor="middle" x="67.5" y="-503.5" font-family="Helvetica,sans-Serif" font-size="10.00" fill="#000000">ene.AbstractObject</text>
<polyline fill="none" stroke="#000000" points="4,-496.5 131,-496.5 "/>
<text text-anchor="start" x="12" y="-484.5" font-family="Helvetica,sans-Serif" font-size="10.00" fill="#000000"># debugModeEnabled</text>
<polyline fill="none" stroke="#000000" points="4,-477.5 131,-477.5 "/>
<text text-anchor="start" x="12" y="-465.5" font-family="Helvetica,sans-Serif" font-size="10.00" fill="#000000">+ enableDebugMode()</text>
<text text-anchor="start" x="12" y="-454.5" font-family="Helvetica,sans-Serif" font-size="10.00" fill="#000000">+ disableDebugMode()</text>
<text text-anchor="start" x="12" y="-443.5" font-family="Helvetica,sans-Serif" font-size="10.00" fill="#000000">+ isDebugModeEnabled()</text>
<text text-anchor="start" x="12" y="-432.5" font-family="Helvetica,sans-Serif" font-size="10.00" fill="#000000">+ debugInfoAbout()</text>
<text text-anchor="start" x="12" y="-421.5" font-family="Helvetica,sans-Serif" font-size="10.00" fill="#000000">+ consoleOutput()</text>
<text text-anchor="start" x="12" y="-410.5" font-family="Helvetica,sans-Serif" font-size="10.00" fill="#000000"># delay()</text>
</a>
</g>
</g>
<!-- Node2&#45;&gt;Node1 -->
<g id="edge2" class="edge">
<title>Node2&#45;&gt;Node1</title>
<path fill="none" stroke="#191970" d="M101.8919,-394.3094C106.9153,-384.7875 111.9119,-375.3163 116.4295,-366.753"/>
<polygon fill="none" stroke="#191970" points="98.6527,-392.9485 97.0822,-403.4263 104.844,-396.2148 98.6527,-392.9485"/>
</g>
<!-- Node3 -->
<g id="node4" class="node">
<title>Node3</title>
<g id="a_node4"><a xlink:href="interfaceene_1_1interfaces_1_1Model.html" target="_top" xlink:title="{ene.interfaces.Model\n||+ addView()\l}">
<polygon fill="none" stroke="#000000" points="149,-431 149,-488 256,-488 256,-431 149,-431"/>
<text text-anchor="middle" x="202.5" y="-476" font-family="Helvetica,sans-Serif" font-size="10.00" fill="#000000">ene.interfaces.Model</text>
<polyline fill="none" stroke="#000000" points="149,-469 256,-469 "/>
<text text-anchor="middle" x="202.5" y="-457" font-family="Helvetica,sans-Serif" font-size="10.00" fill="#000000"> </text>
<polyline fill="none" stroke="#000000" points="149,-450 256,-450 "/>
<text text-anchor="start" x="157" y="-438" font-family="Helvetica,sans-Serif" font-size="10.00" fill="#000000">+ addView()</text>
</a>
</g>
</g>
<!-- Node3&#45;&gt;Node1 -->
<g id="edge3" class="edge">
<title>Node3&#45;&gt;Node1</title>
<path fill="none" stroke="#191970" d="M182.5097,-422.1651C173.1272,-404.6419 162.0196,-383.8969 152.8528,-366.7765"/>
<polygon fill="none" stroke="#191970" points="179.4336,-423.835 187.2395,-430.9987 185.6047,-420.5308 179.4336,-423.835"/>
</g>
</g>
</svg>
