<?xml version="1.0" encoding="UTF-8" standalone="no"?>
<!DOCTYPE svg PUBLIC "-//W3C//DTD SVG 1.1//EN"
 "http://www.w3.org/Graphics/SVG/1.1/DTD/svg11.dtd">
<!-- Generated by graphviz version 2.40.1 (20161225.0304)
 -->
<!-- Title: ene.views.gui.partial.PlayerView.PlayerView Pages: 1 -->
<svg width="329pt" height="176pt"
 viewBox="0.00 0.00 329.00 175.50" xmlns="http://www.w3.org/2000/svg" xmlns:xlink="http://www.w3.org/1999/xlink">
<g id="graph0" class="graph" transform="scale(1 1) rotate(0) translate(4 171.5)">
<title>ene.views.gui.partial.PlayerView.PlayerView</title>
<!-- Node0 -->
<g id="node1" class="node">
<title>Node0</title>
<polygon fill="#bfbfbf" stroke="#000000" points="0,-73.5 0,-103.5 137,-103.5 137,-73.5 0,-73.5"/>
<text text-anchor="start" x="8" y="-91.5" font-family="Helvetica,sans-Serif" font-size="10.00" fill="#000000">ene.views.gui.partial.Player</text>
<text text-anchor="middle" x="68.5" y="-80.5" font-family="Helvetica,sans-Serif" font-size="10.00" fill="#000000">View.PlayerView</text>
</g>
<!-- Node1 -->
<g id="node2" class="node">
<title>Node1</title>
<g id="a_node2"><a xlink:href="interfaceene_1_1interfaces_1_1Model.html#a6b798cea60bb1fa4a366b22af566f3e8" target="_top" xlink:title="ene.interfaces.Model.addView">
<polygon fill="none" stroke="#000000" points="173,-148 173,-167 321,-167 321,-148 173,-148"/>
<text text-anchor="middle" x="247" y="-155" font-family="Helvetica,sans-Serif" font-size="10.00" fill="#000000">ene.interfaces.Model.addView</text>
</a>
</g>
</g>
<!-- Node0&#45;&gt;Node1 -->
<g id="edge1" class="edge">
<title>Node0&#45;&gt;Node1</title>
<path fill="none" stroke="#191970" d="M96.2449,-103.608C116.9437,-114.4229 146.1605,-128.7393 173,-138.5 179.7702,-140.9621 186.9985,-143.2347 194.1858,-145.2874"/>
<polygon fill="#191970" stroke="#191970" points="193.3453,-148.686 203.9144,-147.9474 195.1915,-141.9339 193.3453,-148.686"/>
</g>
<!-- Node2 -->
<g id="node3" class="node">
<title>Node2</title>
<g id="a_node3"><a xlink:href="classene_1_1views_1_1AbstractView.html#abdae9d407e6cc13b9004049e2327367b" target="_top" xlink:title="ene.views.AbstractView.set\lLayoutPosition">
<polygon fill="none" stroke="#000000" points="177.5,-98.5 177.5,-128.5 316.5,-128.5 316.5,-98.5 177.5,-98.5"/>
<text text-anchor="start" x="185.5" y="-116.5" font-family="Helvetica,sans-Serif" font-size="10.00" fill="#000000">ene.views.AbstractView.set</text>
<text text-anchor="middle" x="247" y="-105.5" font-family="Helvetica,sans-Serif" font-size="10.00" fill="#000000">LayoutPosition</text>
</a>
</g>
</g>
<!-- Node0&#45;&gt;Node2 -->
<g id="edge2" class="edge">
<title>Node0&#45;&gt;Node2</title>
<path fill="none" stroke="#191970" d="M137.0023,-98.0942C146.8831,-99.478 157.123,-100.9122 167.2004,-102.3236"/>
<polygon fill="#191970" stroke="#191970" points="166.8155,-105.8038 177.2043,-103.7247 167.7865,-98.8714 166.8155,-105.8038"/>
</g>
<!-- Node3 -->
<g id="node4" class="node">
<title>Node3</title>
<g id="a_node4"><a xlink:href="classene_1_1views_1_1AbstractPartialView.html#a68e5b7c7280559531bad5eed28f711e4" target="_top" xlink:title="ene.views.AbstractPartial\lView.setModel">
<polygon fill="none" stroke="#000000" points="183,-49.5 183,-79.5 311,-79.5 311,-49.5 183,-49.5"/>
<text text-anchor="start" x="191" y="-67.5" font-family="Helvetica,sans-Serif" font-size="10.00" fill="#000000">ene.views.AbstractPartial</text>
<text text-anchor="middle" x="247" y="-56.5" font-family="Helvetica,sans-Serif" font-size="10.00" fill="#000000">View.setModel</text>
</a>
</g>
</g>
<!-- Node0&#45;&gt;Node3 -->
<g id="edge3" class="edge">
<title>Node0&#45;&gt;Node3</title>
<path fill="none" stroke="#191970" d="M137.0023,-79.2896C148.6366,-77.7253 160.7689,-76.0941 172.5475,-74.5104"/>
<polygon fill="#191970" stroke="#191970" points="173.3416,-77.9352 182.786,-73.1338 172.4087,-70.9977 173.3416,-77.9352"/>
</g>
<!-- Node4 -->
<g id="node5" class="node">
<title>Node4</title>
<g id="a_node5"><a xlink:href="classene_1_1views_1_1gui_1_1partial_1_1PlayerView.html#af4c9cd0cd87bb0f2274266872c3ab2d4" target="_top" xlink:title="ene.views.gui.partial.Player\lView.setPlayerController">
<polygon fill="none" stroke="#000000" points="178.5,-.5 178.5,-30.5 315.5,-30.5 315.5,-.5 178.5,-.5"/>
<text text-anchor="start" x="186.5" y="-18.5" font-family="Helvetica,sans-Serif" font-size="10.00" fill="#000000">ene.views.gui.partial.Player</text>
<text text-anchor="middle" x="247" y="-7.5" font-family="Helvetica,sans-Serif" font-size="10.00" fill="#000000">View.setPlayerController</text>
</a>
</g>
</g>
<!-- Node0&#45;&gt;Node4 -->
<g id="edge4" class="edge">
<title>Node0&#45;&gt;Node4</title>
<path fill="none" stroke="#191970" d="M99.2247,-73.3558C119.8511,-63.4459 147.7667,-50.5256 173,-40.5 178.5706,-38.2867 184.4237,-36.0924 190.2958,-33.9764"/>
<polygon fill="#191970" stroke="#191970" points="191.8834,-37.1278 200.1492,-30.5 189.5544,-30.5266 191.8834,-37.1278"/>
</g>
</g>
</svg>
