<?xml version="1.0" encoding="UTF-8" standalone="no"?>
<!DOCTYPE svg PUBLIC "-//W3C//DTD SVG 1.1//EN"
 "http://www.w3.org/Graphics/SVG/1.1/DTD/svg11.dtd">
<!-- Generated by graphviz version 2.40.1 (20161225.0304)
 -->
<!-- Title: ene.views.gui.partial.ContentView Pages: 1 -->
<svg width="440pt" height="557pt"
 viewBox="0.00 0.00 440.00 557.00" xmlns="http://www.w3.org/2000/svg" xmlns:xlink="http://www.w3.org/1999/xlink">
<g id="graph0" class="graph" transform="scale(1 1) rotate(0) translate(4 553)">
<title>ene.views.gui.partial.ContentView</title>
<!-- Node0 -->
<g id="node1" class="node">
<title>Node0</title>
<polygon fill="#bfbfbf" stroke="#000000" points="204,-.5 204,-68.5 369,-68.5 369,-.5 204,-.5"/>
<text text-anchor="middle" x="286.5" y="-56.5" font-family="Helvetica,sans-Serif" font-size="10.00" fill="#000000">ene.views.gui.partial.ContentView</text>
<polyline fill="none" stroke="#000000" points="204,-49.5 369,-49.5 "/>
<text text-anchor="middle" x="286.5" y="-37.5" font-family="Helvetica,sans-Serif" font-size="10.00" fill="#000000"> </text>
<polyline fill="none" stroke="#000000" points="204,-30.5 369,-30.5 "/>
<text text-anchor="start" x="212" y="-18.5" font-family="Helvetica,sans-Serif" font-size="10.00" fill="#000000">+ ContentView()</text>
<text text-anchor="start" x="212" y="-7.5" font-family="Helvetica,sans-Serif" font-size="10.00" fill="#000000">+ render()</text>
</g>
<!-- Node1 -->
<g id="node2" class="node">
<title>Node1</title>
<g id="a_node2"><a xlink:href="classene_1_1views_1_1AbstractMasterView.html" target="_top" xlink:title="{ene::views::AbstractMaster\lView\&lt; JTabbedPane \&gt;\n|# views\l|+ addView()\l+ setAllViews()\l+ getAllViews()\l}">
<polygon fill="none" stroke="#000000" points="218,-105.5 218,-195.5 355,-195.5 355,-105.5 218,-105.5"/>
<text text-anchor="start" x="226" y="-183.5" font-family="Helvetica,sans-Serif" font-size="10.00" fill="#000000">ene::views::AbstractMaster</text>
<text text-anchor="middle" x="286.5" y="-172.5" font-family="Helvetica,sans-Serif" font-size="10.00" fill="#000000">View&lt; JTabbedPane &gt;</text>
<polyline fill="none" stroke="#000000" points="218,-165.5 355,-165.5 "/>
<text text-anchor="start" x="226" y="-153.5" font-family="Helvetica,sans-Serif" font-size="10.00" fill="#000000"># views</text>
<polyline fill="none" stroke="#000000" points="218,-146.5 355,-146.5 "/>
<text text-anchor="start" x="226" y="-134.5" font-family="Helvetica,sans-Serif" font-size="10.00" fill="#000000">+ addView()</text>
<text text-anchor="start" x="226" y="-123.5" font-family="Helvetica,sans-Serif" font-size="10.00" fill="#000000">+ setAllViews()</text>
<text text-anchor="start" x="226" y="-112.5" font-family="Helvetica,sans-Serif" font-size="10.00" fill="#000000">+ getAllViews()</text>
</a>
</g>
</g>
<!-- Node1&#45;&gt;Node0 -->
<g id="edge1" class="edge">
<title>Node1&#45;&gt;Node0</title>
<path fill="none" stroke="#191970" d="M286.5,-95.1681C286.5,-86.1024 286.5,-76.9497 286.5,-68.5982"/>
<polygon fill="none" stroke="#191970" points="283.0001,-95.3192 286.5,-105.3192 290.0001,-95.3192 283.0001,-95.3192"/>
</g>
<!-- Node2 -->
<g id="node3" class="node">
<title>Node2</title>
<g id="a_node3"><a xlink:href="classene_1_1views_1_1AbstractView.html" target="_top" xlink:title="{ene::views::AbstractView\l\&lt; CoreComponentType \&gt;\n|# title\l# coreComponent\l# layoutPosition\l|+ setTitle()\l+ getTitle()\l+ setCoreComponent()\l+ getCoreComponent()\l+ setLayoutPosition()\l+ getLayoutPosition()\l}">
<polygon fill="none" stroke="#000000" points="146.5,-232.5 146.5,-377.5 274.5,-377.5 274.5,-232.5 146.5,-232.5"/>
<text text-anchor="start" x="154.5" y="-365.5" font-family="Helvetica,sans-Serif" font-size="10.00" fill="#000000">ene::views::AbstractView</text>
<text text-anchor="middle" x="210.5" y="-354.5" font-family="Helvetica,sans-Serif" font-size="10.00" fill="#000000">&lt; CoreComponentType &gt;</text>
<polyline fill="none" stroke="#000000" points="146.5,-347.5 274.5,-347.5 "/>
<text text-anchor="start" x="154.5" y="-335.5" font-family="Helvetica,sans-Serif" font-size="10.00" fill="#000000"># title</text>
<text text-anchor="start" x="154.5" y="-324.5" font-family="Helvetica,sans-Serif" font-size="10.00" fill="#000000"># coreComponent</text>
<text text-anchor="start" x="154.5" y="-313.5" font-family="Helvetica,sans-Serif" font-size="10.00" fill="#000000"># layoutPosition</text>
<polyline fill="none" stroke="#000000" points="146.5,-306.5 274.5,-306.5 "/>
<text text-anchor="start" x="154.5" y="-294.5" font-family="Helvetica,sans-Serif" font-size="10.00" fill="#000000">+ setTitle()</text>
<text text-anchor="start" x="154.5" y="-283.5" font-family="Helvetica,sans-Serif" font-size="10.00" fill="#000000">+ getTitle()</text>
<text text-anchor="start" x="154.5" y="-272.5" font-family="Helvetica,sans-Serif" font-size="10.00" fill="#000000">+ setCoreComponent()</text>
<text text-anchor="start" x="154.5" y="-261.5" font-family="Helvetica,sans-Serif" font-size="10.00" fill="#000000">+ getCoreComponent()</text>
<text text-anchor="start" x="154.5" y="-250.5" font-family="Helvetica,sans-Serif" font-size="10.00" fill="#000000">+ setLayoutPosition()</text>
<text text-anchor="start" x="154.5" y="-239.5" font-family="Helvetica,sans-Serif" font-size="10.00" fill="#000000">+ getLayoutPosition()</text>
</a>
</g>
</g>
<!-- Node2&#45;&gt;Node1 -->
<g id="edge2" class="edge">
<title>Node2&#45;&gt;Node1</title>
<path fill="none" stroke="#191970" d="M250.7547,-223.1664C255.4227,-213.6769 260.0451,-204.28 264.3389,-195.5512"/>
<polygon fill="none" stroke="#191970" points="247.548,-221.756 246.2746,-232.2741 253.8292,-224.8458 247.548,-221.756"/>
</g>
<!-- Node3 -->
<g id="node4" class="node">
<title>Node3</title>
<g id="a_node4"><a xlink:href="classene_1_1AbstractObject.html" target="_top" xlink:title="{ene.AbstractObject\n|# debugModeEnabled\l|+ enableDebugMode()\l+ disableDebugMode()\l+ isDebugModeEnabled()\l+ debugInfoAbout()\l+ consoleOutput()\l# delay()\l}">
<polygon fill="none" stroke="#000000" points="0,-425.5 0,-537.5 127,-537.5 127,-425.5 0,-425.5"/>
<text text-anchor="middle" x="63.5" y="-525.5" font-family="Helvetica,sans-Serif" font-size="10.00" fill="#000000">ene.AbstractObject</text>
<polyline fill="none" stroke="#000000" points="0,-518.5 127,-518.5 "/>
<text text-anchor="start" x="8" y="-506.5" font-family="Helvetica,sans-Serif" font-size="10.00" fill="#000000"># debugModeEnabled</text>
<polyline fill="none" stroke="#000000" points="0,-499.5 127,-499.5 "/>
<text text-anchor="start" x="8" y="-487.5" font-family="Helvetica,sans-Serif" font-size="10.00" fill="#000000">+ enableDebugMode()</text>
<text text-anchor="start" x="8" y="-476.5" font-family="Helvetica,sans-Serif" font-size="10.00" fill="#000000">+ disableDebugMode()</text>
<text text-anchor="start" x="8" y="-465.5" font-family="Helvetica,sans-Serif" font-size="10.00" fill="#000000">+ isDebugModeEnabled()</text>
<text text-anchor="start" x="8" y="-454.5" font-family="Helvetica,sans-Serif" font-size="10.00" fill="#000000">+ debugInfoAbout()</text>
<text text-anchor="start" x="8" y="-443.5" font-family="Helvetica,sans-Serif" font-size="10.00" fill="#000000">+ consoleOutput()</text>
<text text-anchor="start" x="8" y="-432.5" font-family="Helvetica,sans-Serif" font-size="10.00" fill="#000000"># delay()</text>
</a>
</g>
</g>
<!-- Node3&#45;&gt;Node2 -->
<g id="edge3" class="edge">
<title>Node3&#45;&gt;Node2</title>
<path fill="none" stroke="#191970" d="M117.0124,-417.2487C127.7492,-404.3573 139.1018,-390.7264 150.0549,-377.5753"/>
<polygon fill="none" stroke="#191970" points="114.1262,-415.2451 110.4159,-425.169 119.505,-419.7249 114.1262,-415.2451"/>
</g>
<!-- Node4 -->
<g id="node5" class="node">
<title>Node4</title>
<g id="a_node5"><a xlink:href="interfaceene_1_1interfaces_1_1View.html" target="_top" xlink:title="{ene::interfaces::View\l\&lt; CoreComponentType \&gt;\n||+ setTitle()\l+ getTitle()\l+ setCoreComponent()\l+ getCoreComponent()\l+ setLayoutPosition()\l+ getLayoutPosition()\l+ render()\l}">
<polygon fill="none" stroke="#000000" points="297.5,-414.5 297.5,-548.5 425.5,-548.5 425.5,-414.5 297.5,-414.5"/>
<text text-anchor="start" x="305.5" y="-536.5" font-family="Helvetica,sans-Serif" font-size="10.00" fill="#000000">ene::interfaces::View</text>
<text text-anchor="middle" x="361.5" y="-525.5" font-family="Helvetica,sans-Serif" font-size="10.00" fill="#000000">&lt; CoreComponentType &gt;</text>
<polyline fill="none" stroke="#000000" points="297.5,-518.5 425.5,-518.5 "/>
<text text-anchor="middle" x="361.5" y="-506.5" font-family="Helvetica,sans-Serif" font-size="10.00" fill="#000000"> </text>
<polyline fill="none" stroke="#000000" points="297.5,-499.5 425.5,-499.5 "/>
<text text-anchor="start" x="305.5" y="-487.5" font-family="Helvetica,sans-Serif" font-size="10.00" fill="#000000">+ setTitle()</text>
<text text-anchor="start" x="305.5" y="-476.5" font-family="Helvetica,sans-Serif" font-size="10.00" fill="#000000">+ getTitle()</text>
<text text-anchor="start" x="305.5" y="-465.5" font-family="Helvetica,sans-Serif" font-size="10.00" fill="#000000">+ setCoreComponent()</text>
<text text-anchor="start" x="305.5" y="-454.5" font-family="Helvetica,sans-Serif" font-size="10.00" fill="#000000">+ getCoreComponent()</text>
<text text-anchor="start" x="305.5" y="-443.5" font-family="Helvetica,sans-Serif" font-size="10.00" fill="#000000">+ setLayoutPosition()</text>
<text text-anchor="start" x="305.5" y="-432.5" font-family="Helvetica,sans-Serif" font-size="10.00" fill="#000000">+ getLayoutPosition()</text>
<text text-anchor="start" x="305.5" y="-421.5" font-family="Helvetica,sans-Serif" font-size="10.00" fill="#000000">+ render()</text>
</a>
</g>
</g>
<!-- Node4&#45;&gt;Node2 -->
<g id="edge4" class="edge">
<title>Node4&#45;&gt;Node2</title>
<path fill="none" stroke="#191970" d="M297.4404,-406.6224C289.2237,-397.0181 280.822,-387.1976 272.6368,-377.63"/>
<polygon fill="none" stroke="#191970" points="294.8222,-408.9461 303.9826,-414.2694 300.1413,-404.3955 294.8222,-408.9461"/>
</g>
<!-- Node6 -->
<g id="node7" class="node">
<title>Node6</title>
<g id="a_node7"><a xlink:href="interfaceene_1_1interfaces_1_1MasterView.html" target="_top" xlink:title="{ene::interfaces::MasterView\l\&lt; CoreComponentType \&gt;\n||+ addView()\l+ setAllViews()\l+ getAllViews()\l}">
<polygon fill="none" stroke="#000000" points="293,-260 293,-350 432,-350 432,-260 293,-260"/>
<text text-anchor="start" x="301" y="-338" font-family="Helvetica,sans-Serif" font-size="10.00" fill="#000000">ene::interfaces::MasterView</text>
<text text-anchor="middle" x="362.5" y="-327" font-family="Helvetica,sans-Serif" font-size="10.00" fill="#000000">&lt; CoreComponentType &gt;</text>
<polyline fill="none" stroke="#000000" points="293,-320 432,-320 "/>
<text text-anchor="middle" x="362.5" y="-308" font-family="Helvetica,sans-Serif" font-size="10.00" fill="#000000"> </text>
<polyline fill="none" stroke="#000000" points="293,-301 432,-301 "/>
<text text-anchor="start" x="301" y="-289" font-family="Helvetica,sans-Serif" font-size="10.00" fill="#000000">+ addView()</text>
<text text-anchor="start" x="301" y="-278" font-family="Helvetica,sans-Serif" font-size="10.00" fill="#000000">+ setAllViews()</text>
<text text-anchor="start" x="301" y="-267" font-family="Helvetica,sans-Serif" font-size="10.00" fill="#000000">+ getAllViews()</text>
</a>
</g>
</g>
<!-- Node4&#45;&gt;Node6 -->
<g id="edge7" class="edge">
<title>Node4&#45;&gt;Node6</title>
<path fill="none" stroke="#191970" d="M361.9384,-404.1153C362.0429,-385.6813 362.151,-366.6051 362.2441,-350.1703"/>
<polygon fill="none" stroke="#191970" points="358.4377,-404.2497 361.8809,-414.2694 365.4376,-404.2894 358.4377,-404.2497"/>
</g>
<!-- Node5 -->
<g id="node6" class="node">
<title>Node5</title>
<g id="a_node6"><a xlink:href="interfaceene_1_1interfaces_1_1Localization.html" target="_top" xlink:title="{ene.interfaces.Localization\n|+ DEFAULT_LOCALE\l|+ getString()\l}">
<polygon fill="none" stroke="#000000" points="145,-453 145,-510 278,-510 278,-453 145,-453"/>
<text text-anchor="middle" x="211.5" y="-498" font-family="Helvetica,sans-Serif" font-size="10.00" fill="#000000">ene.interfaces.Localization</text>
<polyline fill="none" stroke="#000000" points="145,-491 278,-491 "/>
<text text-anchor="start" x="153" y="-479" font-family="Helvetica,sans-Serif" font-size="10.00" fill="#000000">+ DEFAULT_LOCALE</text>
<polyline fill="none" stroke="#000000" points="145,-472 278,-472 "/>
<text text-anchor="start" x="153" y="-460" font-family="Helvetica,sans-Serif" font-size="10.00" fill="#000000">+ getString()</text>
</a>
</g>
</g>
<!-- Node5&#45;&gt;Node2 -->
<g id="edge5" class="edge">
<title>Node5&#45;&gt;Node2</title>
<path fill="none" stroke="#191970" d="M211.2798,-442.6349C211.1715,-423.5163 211.0373,-399.8371 210.911,-377.5404"/>
<polygon fill="none" stroke="#191970" points="207.7804,-442.7694 211.3371,-452.7494 214.7803,-442.7297 207.7804,-442.7694"/>
</g>
<!-- Node6&#45;&gt;Node1 -->
<g id="edge6" class="edge">
<title>Node6&#45;&gt;Node1</title>
<path fill="none" stroke="#191970" d="M335.7797,-250.6804C326.9316,-232.6932 317.1863,-212.8821 308.7142,-195.6592"/>
<polygon fill="none" stroke="#191970" points="332.7587,-252.4686 340.3133,-259.8969 339.0399,-249.3788 332.7587,-252.4686"/>
</g>
</g>
</svg>
