<?xml version="1.0" encoding="UTF-8" standalone="no"?>
<!DOCTYPE svg PUBLIC "-//W3C//DTD SVG 1.1//EN"
 "http://www.w3.org/Graphics/SVG/1.1/DTD/svg11.dtd">
<!-- Generated by graphviz version 2.40.1 (20161225.0304)
 -->
<!-- Title: ene.models.TrackModel.getTitle Pages: 1 -->
<svg width="935pt" height="427pt"
 viewBox="0.00 0.00 935.00 427.00" xmlns="http://www.w3.org/2000/svg" xmlns:xlink="http://www.w3.org/1999/xlink">
<g id="graph0" class="graph" transform="scale(1 1) rotate(0) translate(4 423)">
<title>ene.models.TrackModel.getTitle</title>
<!-- Node104 -->
<g id="node1" class="node">
<title>Node104</title>
<polygon fill="#bfbfbf" stroke="#000000" points="0,-187.5 0,-217.5 137,-217.5 137,-187.5 0,-187.5"/>
<text text-anchor="start" x="8" y="-205.5" font-family="Helvetica,sans-Serif" font-size="10.00" fill="#000000">ene.models.TrackModel.get</text>
<text text-anchor="middle" x="68.5" y="-194.5" font-family="Helvetica,sans-Serif" font-size="10.00" fill="#000000">Title</text>
</g>
<!-- Node105 -->
<g id="node2" class="node">
<title>Node105</title>
<g id="a_node2"><a xlink:href="classene_1_1models_1_1LibraryModel.html#a54d2e007cb15c20e66cdc3d23c6c2db6" target="_top" xlink:title="ene.models.LibraryModel.get\lByTitle">
<polygon fill="none" stroke="#000000" points="191.5,-388.5 191.5,-418.5 333.5,-418.5 333.5,-388.5 191.5,-388.5"/>
<text text-anchor="start" x="199.5" y="-406.5" font-family="Helvetica,sans-Serif" font-size="10.00" fill="#000000">ene.models.LibraryModel.get</text>
<text text-anchor="middle" x="262.5" y="-395.5" font-family="Helvetica,sans-Serif" font-size="10.00" fill="#000000">ByTitle</text>
</a>
</g>
</g>
<!-- Node104&#45;&gt;Node105 -->
<g id="edge1" class="edge">
<title>Node104&#45;&gt;Node105</title>
<path fill="none" stroke="#191970" d="M76.4019,-227.6614C89.8538,-266.3049 120.9255,-339.9349 173,-379.5 178.508,-383.6849 184.6908,-387.141 191.1663,-389.9952"/>
<polygon fill="#191970" stroke="#191970" points="79.5739,-226.1124 73.0722,-217.747 72.9381,-228.341 79.5739,-226.1124"/>
</g>
<!-- Node106 -->
<g id="node3" class="node">
<title>Node106</title>
<g id="a_node3"><a xlink:href="classene_1_1views_1_1gui_1_1partial_1_1PlaylistView.html#aab891c82686652a49db41a3e1bc1f3b9" target="_top" xlink:title="ene.views.gui.partial.Playlist\lView.loadContent">
<polygon fill="none" stroke="#000000" points="192,-339.5 192,-369.5 333,-369.5 333,-339.5 192,-339.5"/>
<text text-anchor="start" x="200" y="-357.5" font-family="Helvetica,sans-Serif" font-size="10.00" fill="#000000">ene.views.gui.partial.Playlist</text>
<text text-anchor="middle" x="262.5" y="-346.5" font-family="Helvetica,sans-Serif" font-size="10.00" fill="#000000">View.loadContent</text>
</a>
</g>
</g>
<!-- Node104&#45;&gt;Node106 -->
<g id="edge2" class="edge">
<title>Node104&#45;&gt;Node106</title>
<path fill="none" stroke="#191970" d="M82.9916,-226.1136C100.929,-253.4796 133.9363,-298.1765 173,-324.5 181.9696,-330.5442 192.263,-335.4659 202.6015,-339.4421"/>
<polygon fill="#191970" stroke="#191970" points="85.8437,-224.0774 77.4992,-217.549 79.9512,-227.8562 85.8437,-224.0774"/>
</g>
<!-- Node109 -->
<g id="node6" class="node">
<title>Node109</title>
<g id="a_node6"><a xlink:href="classene_1_1views_1_1gui_1_1partial_1_1LibraryView.html#a734cbc08cf36ed3d48cb106b77ecf28b" target="_top" xlink:title="ene.views.gui.partial.Library\lView.loadContent">
<polygon fill="none" stroke="#000000" points="193.5,-212.5 193.5,-242.5 331.5,-242.5 331.5,-212.5 193.5,-212.5"/>
<text text-anchor="start" x="201.5" y="-230.5" font-family="Helvetica,sans-Serif" font-size="10.00" fill="#000000">ene.views.gui.partial.Library</text>
<text text-anchor="middle" x="262.5" y="-219.5" font-family="Helvetica,sans-Serif" font-size="10.00" fill="#000000">View.loadContent</text>
</a>
</g>
</g>
<!-- Node104&#45;&gt;Node109 -->
<g id="edge5" class="edge">
<title>Node104&#45;&gt;Node109</title>
<path fill="none" stroke="#191970" d="M147.1072,-212.6298C162.3929,-214.5996 178.3112,-216.6509 193.2677,-218.5783"/>
<polygon fill="#191970" stroke="#191970" points="147.5355,-209.1561 137.1702,-211.3492 146.6408,-216.0987 147.5355,-209.1561"/>
</g>
<!-- Node111 -->
<g id="node8" class="node">
<title>Node111</title>
<g id="a_node8"><a xlink:href="classene_1_1views_1_1gui_1_1partial_1_1LibraryView.html#a0bd6885fe06ebde4d3dffbcd888c0b41" target="_top" xlink:title="ene.views.gui.partial.Library\lView.render">
<polygon fill="none" stroke="#000000" points="615.5,-188.5 615.5,-218.5 753.5,-218.5 753.5,-188.5 615.5,-188.5"/>
<text text-anchor="start" x="623.5" y="-206.5" font-family="Helvetica,sans-Serif" font-size="10.00" fill="#000000">ene.views.gui.partial.Library</text>
<text text-anchor="middle" x="684.5" y="-195.5" font-family="Helvetica,sans-Serif" font-size="10.00" fill="#000000">View.render</text>
</a>
</g>
</g>
<!-- Node104&#45;&gt;Node111 -->
<g id="edge9" class="edge">
<title>Node104&#45;&gt;Node111</title>
<path fill="none" stroke="#191970" d="M104.1233,-222.4714C123.885,-232.7931 149.2118,-244.8049 173,-252.5 345.0545,-308.1568 407.8402,-352.7053 578,-291.5 618.399,-276.9687 654.3711,-239.7347 672.3557,-218.6508"/>
<polygon fill="#191970" stroke="#191970" points="105.6541,-219.3214 95.1812,-217.7185 102.3687,-225.5025 105.6541,-219.3214"/>
</g>
<!-- Node112 -->
<g id="node9" class="node">
<title>Node112</title>
<g id="a_node9"><a xlink:href="classene_1_1controllers_1_1PlaylistController.html#ab949ed1ee47aec9ba039d92a36435809" target="_top" xlink:title="ene.controllers.Playlist\lController.saveToFile">
<polygon fill="none" stroke="#000000" points="204.5,-114.5 204.5,-144.5 320.5,-144.5 320.5,-114.5 204.5,-114.5"/>
<text text-anchor="start" x="212.5" y="-132.5" font-family="Helvetica,sans-Serif" font-size="10.00" fill="#000000">ene.controllers.Playlist</text>
<text text-anchor="middle" x="262.5" y="-121.5" font-family="Helvetica,sans-Serif" font-size="10.00" fill="#000000">Controller.saveToFile</text>
</a>
</g>
</g>
<!-- Node104&#45;&gt;Node112 -->
<g id="edge10" class="edge">
<title>Node104&#45;&gt;Node112</title>
<path fill="none" stroke="#191970" d="M107.2868,-182.9047C126.7107,-173.552 150.7707,-162.6518 173,-154.5 182.9968,-150.834 193.7878,-147.3967 204.2991,-144.3137"/>
<polygon fill="#191970" stroke="#191970" points="105.6105,-179.828 98.1521,-187.3529 108.6752,-186.1215 105.6105,-179.828"/>
</g>
<!-- Node117 -->
<g id="node14" class="node">
<title>Node117</title>
<g id="a_node14"><a xlink:href="classene_1_1controllers_1_1LibraryController.html#aa40dceee9b0024082b71ab641a087c2e" target="_top" xlink:title="ene.controllers.LibraryController.save\lToFile">
<polygon fill="none" stroke="#000000" points="173,-163.5 173,-193.5 352,-193.5 352,-163.5 173,-163.5"/>
<text text-anchor="start" x="181" y="-181.5" font-family="Helvetica,sans-Serif" font-size="10.00" fill="#000000">ene.controllers.LibraryController.save</text>
<text text-anchor="middle" x="262.5" y="-170.5" font-family="Helvetica,sans-Serif" font-size="10.00" fill="#000000">ToFile</text>
</a>
</g>
</g>
<!-- Node104&#45;&gt;Node117 -->
<g id="edge16" class="edge">
<title>Node104&#45;&gt;Node117</title>
<path fill="none" stroke="#191970" d="M147.3191,-192.7492C155.731,-191.7085 164.332,-190.6445 172.8569,-189.5899"/>
<polygon fill="#191970" stroke="#191970" points="146.6648,-189.3034 137.1702,-194.0047 147.5242,-196.2504 146.6648,-189.3034"/>
</g>
<!-- Node121 -->
<g id="node18" class="node">
<title>Node121</title>
<g id="a_node18"><a xlink:href="classene_1_1models_1_1LibraryModel.html#accd8b9321b02639dbb2970022556d324" target="_top" xlink:title="ene.models.LibraryModel.search">
<polygon fill="none" stroke="#000000" points="183.5,-76 183.5,-95 341.5,-95 341.5,-76 183.5,-76"/>
<text text-anchor="middle" x="262.5" y="-83" font-family="Helvetica,sans-Serif" font-size="10.00" fill="#000000">ene.models.LibraryModel.search</text>
</a>
</g>
</g>
<!-- Node104&#45;&gt;Node121 -->
<g id="edge22" class="edge">
<title>Node104&#45;&gt;Node121</title>
<path fill="none" stroke="#191970" d="M86.5713,-179.3961C105.5983,-156.7283 137.6559,-122.9566 173,-104.5 180.4625,-100.6031 188.6713,-97.5053 196.9974,-95.0429"/>
<polygon fill="#191970" stroke="#191970" points="83.8082,-177.2458 80.169,-187.196 89.2189,-181.687 83.8082,-177.2458"/>
</g>
<!-- Node122 -->
<g id="node19" class="node">
<title>Node122</title>
<g id="a_node19"><a xlink:href="classene_1_1models_1_1TrackModel.html#a0a42aa27708a22d669893b6152be8d20" target="_top" xlink:title="ene.models.TrackModel.to\lString">
<polygon fill="none" stroke="#000000" points="196.5,-26.5 196.5,-56.5 328.5,-56.5 328.5,-26.5 196.5,-26.5"/>
<text text-anchor="start" x="204.5" y="-44.5" font-family="Helvetica,sans-Serif" font-size="10.00" fill="#000000">ene.models.TrackModel.to</text>
<text text-anchor="middle" x="262.5" y="-33.5" font-family="Helvetica,sans-Serif" font-size="10.00" fill="#000000">String</text>
</a>
</g>
</g>
<!-- Node104&#45;&gt;Node122 -->
<g id="edge23" class="edge">
<title>Node104&#45;&gt;Node122</title>
<path fill="none" stroke="#191970" d="M80.7969,-178.1069C97.5012,-147.4541 130.2493,-95.373 173,-66.5 180.0858,-61.7144 188.0738,-57.8388 196.2867,-54.7015"/>
<polygon fill="#191970" stroke="#191970" points="77.5411,-176.7757 75.9449,-187.2496 83.7243,-180.0572 77.5411,-176.7757"/>
</g>
<!-- Node107 -->
<g id="node4" class="node">
<title>Node107</title>
<g id="a_node4"><a xlink:href="classene_1_1views_1_1gui_1_1partial_1_1PlaylistView.html#ad2b87823589c6e8895d2d7b98438a2dc" target="_top" xlink:title="ene.views.gui.partial.Playlist\lView.update">
<polygon fill="none" stroke="#000000" points="412.5,-339.5 412.5,-369.5 553.5,-369.5 553.5,-339.5 412.5,-339.5"/>
<text text-anchor="start" x="420.5" y="-357.5" font-family="Helvetica,sans-Serif" font-size="10.00" fill="#000000">ene.views.gui.partial.Playlist</text>
<text text-anchor="middle" x="483" y="-346.5" font-family="Helvetica,sans-Serif" font-size="10.00" fill="#000000">View.update</text>
</a>
</g>
</g>
<!-- Node106&#45;&gt;Node107 -->
<g id="edge3" class="edge">
<title>Node106&#45;&gt;Node107</title>
<path fill="none" stroke="#191970" d="M343.4205,-354.5C366.0185,-354.5 390.3894,-354.5 412.3445,-354.5"/>
<polygon fill="#191970" stroke="#191970" points="343.1775,-351.0001 333.1774,-354.5 343.1774,-358.0001 343.1775,-351.0001"/>
</g>
<!-- Node108 -->
<g id="node5" class="node">
<title>Node108</title>
<g id="a_node5"><a xlink:href="classene_1_1views_1_1gui_1_1partial_1_1PlaylistView.html#a8d541ff3e91c1492b2e47cc7272ca56d" target="_top" xlink:title="ene.views.gui.partial.Playlist\lView.render">
<polygon fill="none" stroke="#000000" points="614,-339.5 614,-369.5 755,-369.5 755,-339.5 614,-339.5"/>
<text text-anchor="start" x="622" y="-357.5" font-family="Helvetica,sans-Serif" font-size="10.00" fill="#000000">ene.views.gui.partial.Playlist</text>
<text text-anchor="middle" x="684.5" y="-346.5" font-family="Helvetica,sans-Serif" font-size="10.00" fill="#000000">View.render</text>
</a>
</g>
</g>
<!-- Node107&#45;&gt;Node108 -->
<g id="edge4" class="edge">
<title>Node107&#45;&gt;Node108</title>
<path fill="none" stroke="#191970" d="M563.9445,-354.5C580.4855,-354.5 597.768,-354.5 613.9123,-354.5"/>
<polygon fill="#191970" stroke="#191970" points="563.7581,-351.0001 553.758,-354.5 563.758,-358.0001 563.7581,-351.0001"/>
</g>
<!-- Node110 -->
<g id="node7" class="node">
<title>Node110</title>
<g id="a_node7"><a xlink:href="classene_1_1views_1_1gui_1_1partial_1_1LibraryView.html#a363a0a2db7ab4295ef38bb667038a6f8" target="_top" xlink:title="ene.views.gui.partial.Library\lView.update">
<polygon fill="none" stroke="#000000" points="414,-251.5 414,-281.5 552,-281.5 552,-251.5 414,-251.5"/>
<text text-anchor="start" x="422" y="-269.5" font-family="Helvetica,sans-Serif" font-size="10.00" fill="#000000">ene.views.gui.partial.Library</text>
<text text-anchor="middle" x="483" y="-258.5" font-family="Helvetica,sans-Serif" font-size="10.00" fill="#000000">View.update</text>
</a>
</g>
</g>
<!-- Node109&#45;&gt;Node110 -->
<g id="edge6" class="edge">
<title>Node109&#45;&gt;Node110</title>
<path fill="none" stroke="#191970" d="M341.6212,-241.4942C365.1859,-245.6621 390.8173,-250.1956 413.704,-254.2436"/>
<polygon fill="#191970" stroke="#191970" points="342.1194,-238.0281 331.6626,-239.7328 340.9001,-244.9211 342.1194,-238.0281"/>
</g>
<!-- Node109&#45;&gt;Node111 -->
<g id="edge8" class="edge">
<title>Node109&#45;&gt;Node111</title>
<path fill="none" stroke="#191970" d="M342.0708,-222.9746C420.857,-218.4939 540.2684,-211.7027 615.25,-207.4384"/>
<polygon fill="#191970" stroke="#191970" points="341.4973,-219.5015 331.7122,-223.5638 341.8948,-226.4902 341.4973,-219.5015"/>
</g>
<!-- Node110&#45;&gt;Node111 -->
<g id="edge7" class="edge">
<title>Node110&#45;&gt;Node111</title>
<path fill="none" stroke="#191970" d="M540.6152,-248.4863C570.9573,-238.9997 607.7339,-227.5013 636.5107,-218.5041"/>
<polygon fill="#191970" stroke="#191970" points="539.5082,-245.1653 531.0083,-251.49 541.5971,-251.8463 539.5082,-245.1653"/>
</g>
<!-- Node113 -->
<g id="node10" class="node">
<title>Node113</title>
<g id="a_node10"><a xlink:href="classene_1_1controllers_1_1PlaylistController.html#ad5e0bbbd2de4359b178fdf0458447d77" target="_top" xlink:title="ene.controllers.Playlist\lController.add">
<polygon fill="none" stroke="#000000" points="425,-.5 425,-30.5 541,-30.5 541,-.5 425,-.5"/>
<text text-anchor="start" x="433" y="-18.5" font-family="Helvetica,sans-Serif" font-size="10.00" fill="#000000">ene.controllers.Playlist</text>
<text text-anchor="middle" x="483" y="-7.5" font-family="Helvetica,sans-Serif" font-size="10.00" fill="#000000">Controller.add</text>
</a>
</g>
</g>
<!-- Node112&#45;&gt;Node113 -->
<g id="edge11" class="edge">
<title>Node112&#45;&gt;Node113</title>
<path fill="none" stroke="#191970" d="M330.254,-116.9299C338.0538,-113.6915 345.5205,-109.6197 352,-104.5 377.9114,-84.0265 361.8353,-59.6489 388,-39.5 398.6476,-31.3005 411.7705,-25.8761 424.827,-22.2949"/>
<polygon fill="#191970" stroke="#191970" points="328.7912,-113.7388 320.6185,-120.4809 331.2119,-120.3069 328.7912,-113.7388"/>
</g>
<!-- Node116 -->
<g id="node13" class="node">
<title>Node116</title>
<g id="a_node13"><a xlink:href="classene_1_1controllers_1_1PlaylistController.html#a903d7a6767c934b2f06715634b9944d3" target="_top" xlink:title="ene.controllers.Playlist\lController.remove">
<polygon fill="none" stroke="#000000" points="425,-49.5 425,-79.5 541,-79.5 541,-49.5 425,-49.5"/>
<text text-anchor="start" x="433" y="-67.5" font-family="Helvetica,sans-Serif" font-size="10.00" fill="#000000">ene.controllers.Playlist</text>
<text text-anchor="middle" x="483" y="-56.5" font-family="Helvetica,sans-Serif" font-size="10.00" fill="#000000">Controller.remove</text>
</a>
</g>
</g>
<!-- Node112&#45;&gt;Node116 -->
<g id="edge15" class="edge">
<title>Node112&#45;&gt;Node116</title>
<path fill="none" stroke="#191970" d="M330.5151,-111.4454C337.8066,-109.2296 345.0832,-106.8969 352,-104.5 368.3778,-98.8244 371.5799,-95.0521 388,-89.5 399.7939,-85.5122 412.5864,-81.7658 424.849,-78.4475"/>
<polygon fill="#191970" stroke="#191970" points="329.1859,-108.189 320.5952,-114.3897 331.1777,-114.8996 329.1859,-108.189"/>
</g>
<!-- Node113&#45;&gt;Node111 -->
<g id="edge14" class="edge">
<title>Node113&#45;&gt;Node111</title>
<path fill="none" stroke="#191970" d="M550.9347,-25.9718C560.5524,-29.3106 569.9073,-33.7085 578,-39.5 632.663,-78.6196 666.4781,-155.3318 678.9946,-188.084"/>
<polygon fill="#191970" stroke="#191970" points="551.8544,-22.5927 541.2664,-22.9737 549.7811,-29.2786 551.8544,-22.5927"/>
</g>
<!-- Node114 -->
<g id="node11" class="node">
<title>Node114</title>
<g id="a_node11"><a xlink:href="classene_1_1controllers_1_1PlaylistController.html#a67b252ccabbac520eaafe9f90e8f0d43" target="_top" xlink:title="ene.controllers.Playlist\lController.loadFromFile">
<polygon fill="none" stroke="#000000" points="625.5,-.5 625.5,-30.5 743.5,-30.5 743.5,-.5 625.5,-.5"/>
<text text-anchor="start" x="633.5" y="-18.5" font-family="Helvetica,sans-Serif" font-size="10.00" fill="#000000">ene.controllers.Playlist</text>
<text text-anchor="middle" x="684.5" y="-7.5" font-family="Helvetica,sans-Serif" font-size="10.00" fill="#000000">Controller.loadFromFile</text>
</a>
</g>
</g>
<!-- Node113&#45;&gt;Node114 -->
<g id="edge12" class="edge">
<title>Node113&#45;&gt;Node114</title>
<path fill="none" stroke="#191970" d="M551.1155,-15.5C575.1299,-15.5 601.9174,-15.5 625.1497,-15.5"/>
<polygon fill="#191970" stroke="#191970" points="551.0118,-12.0001 541.0118,-15.5 551.0118,-19.0001 551.0118,-12.0001"/>
</g>
<!-- Node115 -->
<g id="node12" class="node">
<title>Node115</title>
<g id="a_node12"><a xlink:href="classene_1_1controllers_1_1PlaylistController.html#a35b450f65c048707c1ad0ed44f1077f0" target="_top" xlink:title="ene.controllers.Playlist\lController.PlaylistController">
<polygon fill="none" stroke="#000000" points="791,-.5 791,-30.5 927,-30.5 927,-.5 791,-.5"/>
<text text-anchor="start" x="799" y="-18.5" font-family="Helvetica,sans-Serif" font-size="10.00" fill="#000000">ene.controllers.Playlist</text>
<text text-anchor="middle" x="859" y="-7.5" font-family="Helvetica,sans-Serif" font-size="10.00" fill="#000000">Controller.PlaylistController</text>
</a>
</g>
</g>
<!-- Node114&#45;&gt;Node115 -->
<g id="edge13" class="edge">
<title>Node114&#45;&gt;Node115</title>
<path fill="none" stroke="#191970" d="M753.7319,-15.5C765.9857,-15.5 778.7353,-15.5 790.9559,-15.5"/>
<polygon fill="#191970" stroke="#191970" points="753.5778,-12.0001 743.5777,-15.5 753.5777,-19.0001 753.5778,-12.0001"/>
</g>
<!-- Node118 -->
<g id="node15" class="node">
<title>Node118</title>
<g id="a_node15"><a xlink:href="classene_1_1controllers_1_1LibraryController.html#aa0d66e53872a376fe6d456eb070de8d4" target="_top" xlink:title="ene.controllers.LibraryController.add">
<polygon fill="none" stroke="#000000" points="396.5,-175 396.5,-194 569.5,-194 569.5,-175 396.5,-175"/>
<text text-anchor="middle" x="483" y="-182" font-family="Helvetica,sans-Serif" font-size="10.00" fill="#000000">ene.controllers.LibraryController.add</text>
</a>
</g>
</g>
<!-- Node117&#45;&gt;Node118 -->
<g id="edge17" class="edge">
<title>Node117&#45;&gt;Node118</title>
<path fill="none" stroke="#191970" d="M362.4816,-181.2206C373.7516,-181.5273 385.166,-181.8379 396.2482,-182.1394"/>
<polygon fill="#191970" stroke="#191970" points="362.2773,-177.7138 352.1858,-180.9404 362.0869,-184.7112 362.2773,-177.7138"/>
</g>
<!-- Node119 -->
<g id="node16" class="node">
<title>Node119</title>
<g id="a_node16"><a xlink:href="classene_1_1controllers_1_1LibraryController.html#a9e4da87d9fab61b162c2f57e97852be5" target="_top" xlink:title="ene.controllers.LibraryController.edit">
<polygon fill="none" stroke="#000000" points="396.5,-137 396.5,-156 569.5,-156 569.5,-137 396.5,-137"/>
<text text-anchor="middle" x="483" y="-144" font-family="Helvetica,sans-Serif" font-size="10.00" fill="#000000">ene.controllers.LibraryController.edit</text>
</a>
</g>
</g>
<!-- Node117&#45;&gt;Node119 -->
<g id="edge19" class="edge">
<title>Node117&#45;&gt;Node119</title>
<path fill="none" stroke="#191970" d="M362.2228,-164.0278C380.9354,-161.3121 400.0562,-158.5372 417.4025,-156.0198"/>
<polygon fill="#191970" stroke="#191970" points="361.5794,-160.5844 352.1858,-165.4844 362.5848,-167.5118 361.5794,-160.5844"/>
</g>
<!-- Node120 -->
<g id="node17" class="node">
<title>Node120</title>
<g id="a_node17"><a xlink:href="classene_1_1controllers_1_1LibraryController.html#aac7853b4f42ee8c4d8704e036eca61a0" target="_top" xlink:title="ene.controllers.LibraryController.remove">
<polygon fill="none" stroke="#000000" points="388,-99 388,-118 578,-118 578,-99 388,-99"/>
<text text-anchor="middle" x="483" y="-106" font-family="Helvetica,sans-Serif" font-size="10.00" fill="#000000">ene.controllers.LibraryController.remove</text>
</a>
</g>
</g>
<!-- Node117&#45;&gt;Node120 -->
<g id="edge21" class="edge">
<title>Node117&#45;&gt;Node120</title>
<path fill="none" stroke="#191970" d="M336.6518,-160.0323C341.9271,-158.0377 347.0947,-155.8631 352,-153.5 369.7808,-144.9342 369.9106,-135.3932 388,-127.5 396.9413,-123.5985 406.7075,-120.4896 416.4658,-118.0144"/>
<polygon fill="#191970" stroke="#191970" points="335.3276,-156.7883 327.0732,-163.4302 337.668,-163.3855 335.3276,-156.7883"/>
</g>
<!-- Node118&#45;&gt;Node111 -->
<g id="edge18" class="edge">
<title>Node118&#45;&gt;Node111</title>
<path fill="none" stroke="#191970" d="M579.6818,-193.6164C591.6954,-194.7492 603.7863,-195.8893 615.2697,-196.9721"/>
<polygon fill="#191970" stroke="#191970" points="579.908,-190.1223 569.6235,-192.668 579.2508,-197.0914 579.908,-190.1223"/>
</g>
<!-- Node119&#45;&gt;Node111 -->
<g id="edge20" class="edge">
<title>Node119&#45;&gt;Node111</title>
<path fill="none" stroke="#191970" d="M547.3683,-158.0545C557.6721,-160.282 568.1727,-162.7796 578,-165.5 601.0821,-171.8897 626.3515,-180.8194 646.4812,-188.4171"/>
<polygon fill="#191970" stroke="#191970" points="548.0833,-154.6283 537.578,-156.0029 546.6476,-161.4795 548.0833,-154.6283"/>
</g>
</g>
</svg>
