<?xml version="1.0" encoding="UTF-8" standalone="no"?>
<!DOCTYPE svg PUBLIC "-//W3C//DTD SVG 1.1//EN"
 "http://www.w3.org/Graphics/SVG/1.1/DTD/svg11.dtd">
<!-- Generated by graphviz version 2.40.1 (20161225.0304)
 -->
<!-- Title: ene.views.gui.WindowView Pages: 1 -->
<svg width="744pt" height="696pt"
 viewBox="0.00 0.00 744.00 696.00" xmlns="http://www.w3.org/2000/svg" xmlns:xlink="http://www.w3.org/1999/xlink">
<g id="graph0" class="graph" transform="scale(1 1) rotate(0) translate(4 692)">
<title>ene.views.gui.WindowView</title>
<!-- Node7 -->
<g id="node1" class="node">
<title>Node7</title>
<polygon fill="#bfbfbf" stroke="#000000" points="275.5,-.5 275.5,-90.5 412.5,-90.5 412.5,-.5 275.5,-.5"/>
<text text-anchor="middle" x="344" y="-78.5" font-family="Helvetica,sans-Serif" font-size="10.00" fill="#000000">ene.views.gui.WindowView</text>
<polyline fill="none" stroke="#000000" points="275.5,-71.5 412.5,-71.5 "/>
<text text-anchor="middle" x="344" y="-59.5" font-family="Helvetica,sans-Serif" font-size="10.00" fill="#000000"> </text>
<polyline fill="none" stroke="#000000" points="275.5,-52.5 412.5,-52.5 "/>
<text text-anchor="start" x="283.5" y="-40.5" font-family="Helvetica,sans-Serif" font-size="10.00" fill="#000000">+ setTitle()</text>
<text text-anchor="start" x="283.5" y="-29.5" font-family="Helvetica,sans-Serif" font-size="10.00" fill="#000000">+ getTitle()</text>
<text text-anchor="start" x="283.5" y="-18.5" font-family="Helvetica,sans-Serif" font-size="10.00" fill="#000000">+ WindowView()</text>
<text text-anchor="start" x="283.5" y="-7.5" font-family="Helvetica,sans-Serif" font-size="10.00" fill="#000000">+ render()</text>
</g>
<!-- Node8 -->
<g id="node2" class="node">
<title>Node8</title>
<g id="a_node2"><a xlink:href="classene_1_1views_1_1AbstractMasterView.html" target="_top" xlink:title="{ene::views::AbstractMaster\lView\&lt; JFrame \&gt;\n||+ addView()\l+ setAllViews()\l+ getAllViews()\l}">
<polygon fill="none" stroke="#000000" points="275.5,-128.5 275.5,-218.5 412.5,-218.5 412.5,-128.5 275.5,-128.5"/>
<text text-anchor="start" x="283.5" y="-206.5" font-family="Helvetica,sans-Serif" font-size="10.00" fill="#000000">ene::views::AbstractMaster</text>
<text text-anchor="middle" x="344" y="-195.5" font-family="Helvetica,sans-Serif" font-size="10.00" fill="#000000">View&lt; JFrame &gt;</text>
<polyline fill="none" stroke="#000000" points="275.5,-188.5 412.5,-188.5 "/>
<text text-anchor="middle" x="344" y="-176.5" font-family="Helvetica,sans-Serif" font-size="10.00" fill="#000000"> </text>
<polyline fill="none" stroke="#000000" points="275.5,-169.5 412.5,-169.5 "/>
<text text-anchor="start" x="283.5" y="-157.5" font-family="Helvetica,sans-Serif" font-size="10.00" fill="#000000">+ addView()</text>
<text text-anchor="start" x="283.5" y="-146.5" font-family="Helvetica,sans-Serif" font-size="10.00" fill="#000000">+ setAllViews()</text>
<text text-anchor="start" x="283.5" y="-135.5" font-family="Helvetica,sans-Serif" font-size="10.00" fill="#000000">+ getAllViews()</text>
</a>
</g>
</g>
<!-- Node8&#45;&gt;Node7 -->
<g id="edge1" class="edge">
<title>Node8&#45;&gt;Node7</title>
<path fill="none" stroke="#191970" d="M344,-118.1492C344,-108.9671 344,-99.5431 344,-90.6519"/>
<polygon fill="none" stroke="#191970" points="340.5001,-118.372 344,-128.372 347.5001,-118.372 340.5001,-118.372"/>
</g>
<!-- Node9 -->
<g id="node3" class="node">
<title>Node9</title>
<g id="a_node3"><a xlink:href="classene_1_1views_1_1AbstractView.html" target="_top" xlink:title="{ene::views::AbstractView\l\&lt; CoreComponentType \&gt;\n||+ setTitle()\l+ getTitle()\l+ setCoreComponent()\l+ getCoreComponent()\l+ setLayoutPosition()\l+ getLayoutPosition()\l}">
<polygon fill="none" stroke="#000000" points="280,-266.5 280,-389.5 408,-389.5 408,-266.5 280,-266.5"/>
<text text-anchor="start" x="288" y="-377.5" font-family="Helvetica,sans-Serif" font-size="10.00" fill="#000000">ene::views::AbstractView</text>
<text text-anchor="middle" x="344" y="-366.5" font-family="Helvetica,sans-Serif" font-size="10.00" fill="#000000">&lt; CoreComponentType &gt;</text>
<polyline fill="none" stroke="#000000" points="280,-359.5 408,-359.5 "/>
<text text-anchor="middle" x="344" y="-347.5" font-family="Helvetica,sans-Serif" font-size="10.00" fill="#000000"> </text>
<polyline fill="none" stroke="#000000" points="280,-340.5 408,-340.5 "/>
<text text-anchor="start" x="288" y="-328.5" font-family="Helvetica,sans-Serif" font-size="10.00" fill="#000000">+ setTitle()</text>
<text text-anchor="start" x="288" y="-317.5" font-family="Helvetica,sans-Serif" font-size="10.00" fill="#000000">+ getTitle()</text>
<text text-anchor="start" x="288" y="-306.5" font-family="Helvetica,sans-Serif" font-size="10.00" fill="#000000">+ setCoreComponent()</text>
<text text-anchor="start" x="288" y="-295.5" font-family="Helvetica,sans-Serif" font-size="10.00" fill="#000000">+ getCoreComponent()</text>
<text text-anchor="start" x="288" y="-284.5" font-family="Helvetica,sans-Serif" font-size="10.00" fill="#000000">+ setLayoutPosition()</text>
<text text-anchor="start" x="288" y="-273.5" font-family="Helvetica,sans-Serif" font-size="10.00" fill="#000000">+ getLayoutPosition()</text>
</a>
</g>
</g>
<!-- Node9&#45;&gt;Node8 -->
<g id="edge2" class="edge">
<title>Node9&#45;&gt;Node8</title>
<path fill="none" stroke="#191970" d="M344,-256.2776C344,-243.4506 344,-230.4193 344,-218.608"/>
<polygon fill="none" stroke="#191970" points="340.5001,-256.4935 344,-266.4936 347.5001,-256.4936 340.5001,-256.4935"/>
</g>
<!-- Node10 -->
<g id="node4" class="node">
<title>Node10</title>
<g id="a_node4"><a xlink:href="classene_1_1AbstractObject.html" target="_top" xlink:title="{ene.AbstractObject\n||+ enableDebugMode()\l+ disableDebugMode()\l+ isDebugModeEnabled()\l+ debugInfoAbout()\l+ consoleOutput()\l# delay()\l}">
<polygon fill="none" stroke="#000000" points="274.5,-459.5 274.5,-571.5 401.5,-571.5 401.5,-459.5 274.5,-459.5"/>
<text text-anchor="middle" x="338" y="-559.5" font-family="Helvetica,sans-Serif" font-size="10.00" fill="#000000">ene.AbstractObject</text>
<polyline fill="none" stroke="#000000" points="274.5,-552.5 401.5,-552.5 "/>
<text text-anchor="middle" x="338" y="-540.5" font-family="Helvetica,sans-Serif" font-size="10.00" fill="#000000"> </text>
<polyline fill="none" stroke="#000000" points="274.5,-533.5 401.5,-533.5 "/>
<text text-anchor="start" x="282.5" y="-521.5" font-family="Helvetica,sans-Serif" font-size="10.00" fill="#000000">+ enableDebugMode()</text>
<text text-anchor="start" x="282.5" y="-510.5" font-family="Helvetica,sans-Serif" font-size="10.00" fill="#000000">+ disableDebugMode()</text>
<text text-anchor="start" x="282.5" y="-499.5" font-family="Helvetica,sans-Serif" font-size="10.00" fill="#000000">+ isDebugModeEnabled()</text>
<text text-anchor="start" x="282.5" y="-488.5" font-family="Helvetica,sans-Serif" font-size="10.00" fill="#000000">+ debugInfoAbout()</text>
<text text-anchor="start" x="282.5" y="-477.5" font-family="Helvetica,sans-Serif" font-size="10.00" fill="#000000">+ consoleOutput()</text>
<text text-anchor="start" x="282.5" y="-466.5" font-family="Helvetica,sans-Serif" font-size="10.00" fill="#000000"># delay()</text>
</a>
</g>
</g>
<!-- Node10&#45;&gt;Node9 -->
<g id="edge3" class="edge">
<title>Node10&#45;&gt;Node9</title>
<path fill="none" stroke="#191970" d="M340.1122,-449.4946C340.7353,-430.0213 341.4146,-408.7928 342.0286,-389.6075"/>
<polygon fill="none" stroke="#191970" points="336.6138,-449.3909 339.7921,-459.4978 343.6102,-449.6149 336.6138,-449.3909"/>
</g>
<!-- Node11 -->
<g id="node5" class="node">
<title>Node11</title>
<polygon fill="none" stroke="#bfbfbf" points="299.5,-630.5 299.5,-687.5 376.5,-687.5 376.5,-630.5 299.5,-630.5"/>
<text text-anchor="middle" x="338" y="-675.5" font-family="Helvetica,sans-Serif" font-size="10.00" fill="#000000">static boolean</text>
<polyline fill="none" stroke="#bfbfbf" points="299.5,-668.5 376.5,-668.5 "/>
<text text-anchor="middle" x="338" y="-656.5" font-family="Helvetica,sans-Serif" font-size="10.00" fill="#000000"> </text>
<polyline fill="none" stroke="#bfbfbf" points="299.5,-649.5 376.5,-649.5 "/>
<text text-anchor="middle" x="338" y="-637.5" font-family="Helvetica,sans-Serif" font-size="10.00" fill="#000000"> </text>
</g>
<!-- Node11&#45;&gt;Node10 -->
<g id="edge4" class="edge">
<title>Node11&#45;&gt;Node10</title>
<path fill="none" stroke="#404040" d="M338,-630.3055C338,-616.9442 338,-600.4218 338,-584.1157"/>
<polygon fill="none" stroke="#404040" points="338.0001,-583.7445 334,-577.7445 338,-571.7445 342,-577.7444 338.0001,-583.7445"/>
<text text-anchor="middle" x="385" y="-604" font-family="Helvetica,sans-Serif" font-size="10.00" fill="#000000"> #debugModeEnabled</text>
</g>
<!-- Node12 -->
<g id="node6" class="node">
<title>Node12</title>
<g id="a_node6"><a xlink:href="interfaceene_1_1interfaces_1_1View.html" target="_top" xlink:title="{ene::interfaces::View\l\&lt; CoreComponentType \&gt;\n||+ setTitle()\l+ getTitle()\l+ setCoreComponent()\l+ getCoreComponent()\l+ setLayoutPosition()\l+ getLayoutPosition()\l+ render()\l}">
<polygon fill="none" stroke="#000000" points="128,-448.5 128,-582.5 256,-582.5 256,-448.5 128,-448.5"/>
<text text-anchor="start" x="136" y="-570.5" font-family="Helvetica,sans-Serif" font-size="10.00" fill="#000000">ene::interfaces::View</text>
<text text-anchor="middle" x="192" y="-559.5" font-family="Helvetica,sans-Serif" font-size="10.00" fill="#000000">&lt; CoreComponentType &gt;</text>
<polyline fill="none" stroke="#000000" points="128,-552.5 256,-552.5 "/>
<text text-anchor="middle" x="192" y="-540.5" font-family="Helvetica,sans-Serif" font-size="10.00" fill="#000000"> </text>
<polyline fill="none" stroke="#000000" points="128,-533.5 256,-533.5 "/>
<text text-anchor="start" x="136" y="-521.5" font-family="Helvetica,sans-Serif" font-size="10.00" fill="#000000">+ setTitle()</text>
<text text-anchor="start" x="136" y="-510.5" font-family="Helvetica,sans-Serif" font-size="10.00" fill="#000000">+ getTitle()</text>
<text text-anchor="start" x="136" y="-499.5" font-family="Helvetica,sans-Serif" font-size="10.00" fill="#000000">+ setCoreComponent()</text>
<text text-anchor="start" x="136" y="-488.5" font-family="Helvetica,sans-Serif" font-size="10.00" fill="#000000">+ getCoreComponent()</text>
<text text-anchor="start" x="136" y="-477.5" font-family="Helvetica,sans-Serif" font-size="10.00" fill="#000000">+ setLayoutPosition()</text>
<text text-anchor="start" x="136" y="-466.5" font-family="Helvetica,sans-Serif" font-size="10.00" fill="#000000">+ getLayoutPosition()</text>
<text text-anchor="start" x="136" y="-455.5" font-family="Helvetica,sans-Serif" font-size="10.00" fill="#000000">+ render()</text>
</a>
</g>
</g>
<!-- Node12&#45;&gt;Node9 -->
<g id="edge5" class="edge">
<title>Node12&#45;&gt;Node9</title>
<path fill="none" stroke="#191970" d="M253.0561,-440.184C266.6459,-423.4204 280.8993,-405.838 293.9844,-389.6968"/>
<polygon fill="none" stroke="#191970" points="250.0247,-438.3656 246.4462,-448.3378 255.4624,-442.7738 250.0247,-438.3656"/>
</g>
<!-- Node17 -->
<g id="node11" class="node">
<title>Node17</title>
<g id="a_node11"><a xlink:href="interfaceene_1_1interfaces_1_1MasterView.html" target="_top" xlink:title="{ene::interfaces::MasterView\l\&lt; CoreComponentType \&gt;\n||+ addView()\l+ setAllViews()\l+ getAllViews()\l}">
<polygon fill="none" stroke="#000000" points="122.5,-283 122.5,-373 261.5,-373 261.5,-283 122.5,-283"/>
<text text-anchor="start" x="130.5" y="-361" font-family="Helvetica,sans-Serif" font-size="10.00" fill="#000000">ene::interfaces::MasterView</text>
<text text-anchor="middle" x="192" y="-350" font-family="Helvetica,sans-Serif" font-size="10.00" fill="#000000">&lt; CoreComponentType &gt;</text>
<polyline fill="none" stroke="#000000" points="122.5,-343 261.5,-343 "/>
<text text-anchor="middle" x="192" y="-331" font-family="Helvetica,sans-Serif" font-size="10.00" fill="#000000"> </text>
<polyline fill="none" stroke="#000000" points="122.5,-324 261.5,-324 "/>
<text text-anchor="start" x="130.5" y="-312" font-family="Helvetica,sans-Serif" font-size="10.00" fill="#000000">+ addView()</text>
<text text-anchor="start" x="130.5" y="-301" font-family="Helvetica,sans-Serif" font-size="10.00" fill="#000000">+ setAllViews()</text>
<text text-anchor="start" x="130.5" y="-290" font-family="Helvetica,sans-Serif" font-size="10.00" fill="#000000">+ getAllViews()</text>
</a>
</g>
</g>
<!-- Node12&#45;&gt;Node17 -->
<g id="edge11" class="edge">
<title>Node12&#45;&gt;Node17</title>
<path fill="none" stroke="#191970" d="M192,-438.2463C192,-416.0466 192,-392.5727 192,-373.0171"/>
<polygon fill="none" stroke="#191970" points="188.5001,-438.3378 192,-448.3378 195.5001,-438.3378 188.5001,-438.3378"/>
</g>
<!-- Node13 -->
<g id="node7" class="node">
<title>Node13</title>
<g id="a_node7"><a xlink:href="interfaceene_1_1interfaces_1_1Localization.html" target="_top" xlink:title="{ene.interfaces.Localization\n||+ getString()\l}">
<polygon fill="none" stroke="#000000" points="419.5,-487 419.5,-544 552.5,-544 552.5,-487 419.5,-487"/>
<text text-anchor="middle" x="486" y="-532" font-family="Helvetica,sans-Serif" font-size="10.00" fill="#000000">ene.interfaces.Localization</text>
<polyline fill="none" stroke="#000000" points="419.5,-525 552.5,-525 "/>
<text text-anchor="middle" x="486" y="-513" font-family="Helvetica,sans-Serif" font-size="10.00" fill="#000000"> </text>
<polyline fill="none" stroke="#000000" points="419.5,-506 552.5,-506 "/>
<text text-anchor="start" x="427.5" y="-494" font-family="Helvetica,sans-Serif" font-size="10.00" fill="#000000">+ getString()</text>
</a>
</g>
</g>
<!-- Node13&#45;&gt;Node9 -->
<g id="edge6" class="edge">
<title>Node13&#45;&gt;Node9</title>
<path fill="none" stroke="#191970" d="M457.888,-478.3803C438.7015,-453.046 412.8325,-418.888 390.5983,-389.5294"/>
<polygon fill="none" stroke="#191970" points="455.2962,-480.7553 464.1237,-486.614 460.8765,-476.5291 455.2962,-480.7553"/>
</g>
<!-- Node14 -->
<g id="node8" class="node">
<title>Node14</title>
<polygon fill="none" stroke="#bfbfbf" points="441,-630.5 441,-687.5 531,-687.5 531,-630.5 441,-630.5"/>
<text text-anchor="middle" x="486" y="-675.5" font-family="Helvetica,sans-Serif" font-size="10.00" fill="#000000">static final String</text>
<polyline fill="none" stroke="#bfbfbf" points="441,-668.5 531,-668.5 "/>
<text text-anchor="middle" x="486" y="-656.5" font-family="Helvetica,sans-Serif" font-size="10.00" fill="#000000"> </text>
<polyline fill="none" stroke="#bfbfbf" points="441,-649.5 531,-649.5 "/>
<text text-anchor="middle" x="486" y="-637.5" font-family="Helvetica,sans-Serif" font-size="10.00" fill="#000000"> </text>
</g>
<!-- Node14&#45;&gt;Node13 -->
<g id="edge7" class="edge">
<title>Node14&#45;&gt;Node13</title>
<path fill="none" stroke="#404040" d="M486,-630.3055C486,-609.0904 486,-579.9058 486,-556.2714"/>
<polygon fill="none" stroke="#404040" points="486.0001,-556.1447 482,-550.1448 486,-544.1447 490,-550.1447 486.0001,-556.1447"/>
<text text-anchor="middle" x="536" y="-604" font-family="Helvetica,sans-Serif" font-size="10.00" fill="#000000"> +DEFAULT_LOCALE</text>
</g>
<!-- Node15 -->
<g id="node9" class="node">
<title>Node15</title>
<polygon fill="none" stroke="#bfbfbf" points="571,-487 571,-544 613,-544 613,-487 571,-487"/>
<text text-anchor="middle" x="592" y="-532" font-family="Helvetica,sans-Serif" font-size="10.00" fill="#000000">String</text>
<polyline fill="none" stroke="#bfbfbf" points="571,-525 613,-525 "/>
<text text-anchor="middle" x="592" y="-513" font-family="Helvetica,sans-Serif" font-size="10.00" fill="#000000"> </text>
<polyline fill="none" stroke="#bfbfbf" points="571,-506 613,-506 "/>
<text text-anchor="middle" x="592" y="-494" font-family="Helvetica,sans-Serif" font-size="10.00" fill="#000000"> </text>
</g>
<!-- Node15&#45;&gt;Node9 -->
<g id="edge8" class="edge">
<title>Node15&#45;&gt;Node9</title>
<path fill="none" stroke="#404040" d="M583.4564,-486.8555C578.4945,-473.8518 571.1756,-458.9646 561,-448 522.0423,-406.0215 464.975,-375.2668 419.1397,-355.4068"/>
<polygon fill="none" stroke="#404040" points="419.1,-355.39 412.0158,-356.7373 408.0475,-350.7162 415.1317,-349.369 419.1,-355.39"/>
<text text-anchor="middle" x="577" y="-422" font-family="Helvetica,sans-Serif" font-size="10.00" fill="#000000"> #layoutPosition</text>
<text text-anchor="middle" x="577" y="-411" font-family="Helvetica,sans-Serif" font-size="10.00" fill="#000000">#title</text>
</g>
<!-- Node16 -->
<g id="node10" class="node">
<title>Node16</title>
<polygon fill="none" stroke="#bfbfbf" points="0,-487 0,-544 110,-544 110,-487 0,-487"/>
<text text-anchor="middle" x="55" y="-532" font-family="Helvetica,sans-Serif" font-size="10.00" fill="#000000">CoreComponentType</text>
<polyline fill="none" stroke="#bfbfbf" points="0,-525 110,-525 "/>
<text text-anchor="middle" x="55" y="-513" font-family="Helvetica,sans-Serif" font-size="10.00" fill="#000000"> </text>
<polyline fill="none" stroke="#bfbfbf" points="0,-506 110,-506 "/>
<text text-anchor="middle" x="55" y="-494" font-family="Helvetica,sans-Serif" font-size="10.00" fill="#000000"> </text>
</g>
<!-- Node16&#45;&gt;Node9 -->
<g id="edge9" class="edge">
<title>Node16&#45;&gt;Node9</title>
<path fill="none" stroke="#404040" d="M79.4125,-486.7027C90.7923,-474.1105 104.9128,-459.5995 119,-448 144.6041,-426.9173 151.2451,-420.4172 182,-408 215.8364,-394.3387 231.3006,-405.108 268.7044,-389.7539"/>
<polygon fill="none" stroke="#404040" points="268.9416,-389.6464 272.7529,-383.5248 279.8695,-384.6885 276.0582,-390.8101 268.9416,-389.6464"/>
<text text-anchor="middle" x="221" y="-416.5" font-family="Helvetica,sans-Serif" font-size="10.00" fill="#000000"> #coreComponent</text>
</g>
<!-- Node17&#45;&gt;Node8 -->
<g id="edge10" class="edge">
<title>Node17&#45;&gt;Node8</title>
<path fill="none" stroke="#191970" d="M243.4999,-275.653C261.7029,-257.1507 282.0056,-236.5141 299.5716,-218.6592"/>
<polygon fill="none" stroke="#191970" points="240.8915,-273.3137 236.3733,-282.8969 245.8815,-278.223 240.8915,-273.3137"/>
</g>
<!-- Node18 -->
<g id="node12" class="node">
<title>Node18</title>
<polygon fill="none" stroke="#bfbfbf" points="502.5,-299.5 502.5,-356.5 639.5,-356.5 639.5,-299.5 502.5,-299.5"/>
<text text-anchor="middle" x="571" y="-344.5" font-family="Helvetica,sans-Serif" font-size="10.00" fill="#000000">List&lt; ene.interfaces.View &gt;</text>
<polyline fill="none" stroke="#bfbfbf" points="502.5,-337.5 639.5,-337.5 "/>
<text text-anchor="middle" x="571" y="-325.5" font-family="Helvetica,sans-Serif" font-size="10.00" fill="#000000"> </text>
<polyline fill="none" stroke="#bfbfbf" points="502.5,-318.5 639.5,-318.5 "/>
<text text-anchor="middle" x="571" y="-306.5" font-family="Helvetica,sans-Serif" font-size="10.00" fill="#000000"> </text>
</g>
<!-- Node18&#45;&gt;Node8 -->
<g id="edge12" class="edge">
<title>Node18&#45;&gt;Node8</title>
<path fill="none" stroke="#404040" d="M529.1002,-299.4823C498.6549,-278.7607 456.5924,-250.1323 420.2571,-225.4019"/>
<polygon fill="none" stroke="#404040" points="420.0953,-225.2917 412.8845,-225.2225 410.175,-218.5398 417.3858,-218.609 420.0953,-225.2917"/>
<text text-anchor="middle" x="468" y="-240" font-family="Helvetica,sans-Serif" font-size="10.00" fill="#000000"> #views</text>
</g>
<!-- Node19 -->
<g id="node13" class="node">
<title>Node19</title>
<polygon fill="none" stroke="#bfbfbf" points="650,-487 650,-544 682,-544 682,-487 650,-487"/>
<text text-anchor="middle" x="666" y="-532" font-family="Helvetica,sans-Serif" font-size="10.00" fill="#000000">List</text>
<polyline fill="none" stroke="#bfbfbf" points="650,-525 682,-525 "/>
<text text-anchor="middle" x="666" y="-513" font-family="Helvetica,sans-Serif" font-size="10.00" fill="#000000"> </text>
<polyline fill="none" stroke="#bfbfbf" points="650,-506 682,-506 "/>
<text text-anchor="middle" x="666" y="-494" font-family="Helvetica,sans-Serif" font-size="10.00" fill="#000000"> </text>
</g>
<!-- Node19&#45;&gt;Node18 -->
<g id="edge13" class="edge">
<title>Node19&#45;&gt;Node18</title>
<path fill="none" stroke="#ffa500" d="M663.1294,-476.7702C660.3402,-455.5456 654.8412,-429.3017 644,-408 634.1926,-388.7296 618.4653,-370.6287 604.1159,-356.5352"/>
<polygon fill="#ffa500" stroke="#ffa500" points="659.6576,-477.2156 664.2925,-486.7428 666.6104,-476.4046 659.6576,-477.2156"/>
<text text-anchor="start" x="653" y="-422" font-family="Helvetica,sans-Serif" font-size="10.00" fill="#000000"> &lt; ene::interfaces::</text>
<text text-anchor="middle" x="694.5" y="-411" font-family="Helvetica,sans-Serif" font-size="10.00" fill="#000000">View &gt;</text>
</g>
</g>
</svg>
