<?xml version="1.0" encoding="UTF-8" standalone="no"?>
<!DOCTYPE svg PUBLIC "-//W3C//DTD SVG 1.1//EN"
 "http://www.w3.org/Graphics/SVG/1.1/DTD/svg11.dtd">
<!-- Generated by graphviz version 2.40.1 (20161225.0304)
 -->
<!-- Title: ene.controllers.PlaylistController Pages: 1 -->
<svg width="468pt" height="548pt"
 viewBox="0.00 0.00 467.50 548.00" xmlns="http://www.w3.org/2000/svg" xmlns:xlink="http://www.w3.org/1999/xlink">
<g id="graph0" class="graph" transform="scale(1 1) rotate(0) translate(4 544)">
<title>ene.controllers.PlaylistController</title>
<!-- Node0 -->
<g id="node1" class="node">
<title>Node0</title>
<polygon fill="#bfbfbf" stroke="#000000" points="218.5,-.5 218.5,-145.5 334.5,-145.5 334.5,-.5 218.5,-.5"/>
<text text-anchor="start" x="226.5" y="-133.5" font-family="Helvetica,sans-Serif" font-size="10.00" fill="#000000">ene.controllers.Playlist</text>
<text text-anchor="middle" x="276.5" y="-122.5" font-family="Helvetica,sans-Serif" font-size="10.00" fill="#000000">Controller</text>
<polyline fill="none" stroke="#000000" points="218.5,-115.5 334.5,-115.5 "/>
<text text-anchor="start" x="226.5" y="-103.5" font-family="Helvetica,sans-Serif" font-size="10.00" fill="#000000"># playlistFilename</text>
<polyline fill="none" stroke="#000000" points="218.5,-96.5 334.5,-96.5 "/>
<text text-anchor="start" x="226.5" y="-84.5" font-family="Helvetica,sans-Serif" font-size="10.00" fill="#000000">+ PlaylistController()</text>
<text text-anchor="start" x="226.5" y="-73.5" font-family="Helvetica,sans-Serif" font-size="10.00" fill="#000000">+ PlaylistController()</text>
<text text-anchor="start" x="226.5" y="-62.5" font-family="Helvetica,sans-Serif" font-size="10.00" fill="#000000">+ loadFromFile()</text>
<text text-anchor="start" x="226.5" y="-51.5" font-family="Helvetica,sans-Serif" font-size="10.00" fill="#000000">+ saveToFile()</text>
<text text-anchor="start" x="226.5" y="-40.5" font-family="Helvetica,sans-Serif" font-size="10.00" fill="#000000">+ add()</text>
<text text-anchor="start" x="226.5" y="-29.5" font-family="Helvetica,sans-Serif" font-size="10.00" fill="#000000">+ remove()</text>
<text text-anchor="start" x="226.5" y="-18.5" font-family="Helvetica,sans-Serif" font-size="10.00" fill="#000000"># setPlaylistFilename()</text>
<text text-anchor="start" x="226.5" y="-7.5" font-family="Helvetica,sans-Serif" font-size="10.00" fill="#000000"># getPlaylistFilename()</text>
</g>
<!-- Node1 -->
<g id="node2" class="node">
<title>Node1</title>
<g id="a_node2"><a xlink:href="classene_1_1controllers_1_1AbstractController.html" target="_top" xlink:title="{ene.controllers.Abstract\lController\&lt; PlaylistModel \&gt;\n|# model\l|+ setModel()\l+ getModel()\l}">
<polygon fill="none" stroke="#000000" points="69,-183.5 69,-262.5 204,-262.5 204,-183.5 69,-183.5"/>
<text text-anchor="start" x="77" y="-250.5" font-family="Helvetica,sans-Serif" font-size="10.00" fill="#000000">ene.controllers.Abstract</text>
<text text-anchor="middle" x="136.5" y="-239.5" font-family="Helvetica,sans-Serif" font-size="10.00" fill="#000000">Controller&lt; PlaylistModel &gt;</text>
<polyline fill="none" stroke="#000000" points="69,-232.5 204,-232.5 "/>
<text text-anchor="start" x="77" y="-220.5" font-family="Helvetica,sans-Serif" font-size="10.00" fill="#000000"># model</text>
<polyline fill="none" stroke="#000000" points="69,-213.5 204,-213.5 "/>
<text text-anchor="start" x="77" y="-201.5" font-family="Helvetica,sans-Serif" font-size="10.00" fill="#000000">+ setModel()</text>
<text text-anchor="start" x="77" y="-190.5" font-family="Helvetica,sans-Serif" font-size="10.00" fill="#000000">+ getModel()</text>
</a>
</g>
</g>
<!-- Node1&#45;&gt;Node0 -->
<g id="edge1" class="edge">
<title>Node1&#45;&gt;Node0</title>
<path fill="none" stroke="#191970" d="M180.5502,-175.8034C192.5233,-162.9751 205.6762,-148.8826 218.3017,-135.3553"/>
<polygon fill="none" stroke="#191970" points="177.9144,-173.4979 173.6499,-183.1966 183.0318,-178.2741 177.9144,-173.4979"/>
</g>
<!-- Node2 -->
<g id="node3" class="node">
<title>Node2</title>
<g id="a_node3"><a xlink:href="classene_1_1controllers_1_1AbstractController.html" target="_top" xlink:title="{ene.controllers.Abstract\lController\&lt; ModelType \&gt;\n|# model\l|+ setModel()\l+ getModel()\l}">
<polygon fill="none" stroke="#000000" points="74,-310.5 74,-389.5 199,-389.5 199,-310.5 74,-310.5"/>
<text text-anchor="start" x="82" y="-377.5" font-family="Helvetica,sans-Serif" font-size="10.00" fill="#000000">ene.controllers.Abstract</text>
<text text-anchor="middle" x="136.5" y="-366.5" font-family="Helvetica,sans-Serif" font-size="10.00" fill="#000000">Controller&lt; ModelType &gt;</text>
<polyline fill="none" stroke="#000000" points="74,-359.5 199,-359.5 "/>
<text text-anchor="start" x="82" y="-347.5" font-family="Helvetica,sans-Serif" font-size="10.00" fill="#000000"># model</text>
<polyline fill="none" stroke="#000000" points="74,-340.5 199,-340.5 "/>
<text text-anchor="start" x="82" y="-328.5" font-family="Helvetica,sans-Serif" font-size="10.00" fill="#000000">+ setModel()</text>
<text text-anchor="start" x="82" y="-317.5" font-family="Helvetica,sans-Serif" font-size="10.00" fill="#000000">+ getModel()</text>
</a>
</g>
</g>
<!-- Node2&#45;&gt;Node1 -->
<g id="edge2" class="edge">
<title>Node2&#45;&gt;Node1</title>
<path fill="none" stroke="#ffa500" d="M136.5,-299.9789C136.5,-287.5999 136.5,-274.5045 136.5,-262.6938"/>
<polygon fill="#ffa500" stroke="#ffa500" points="133.0001,-300.1648 136.5,-310.1649 140.0001,-300.1649 133.0001,-300.1648"/>
<text text-anchor="middle" x="176.5" y="-284" font-family="Helvetica,sans-Serif" font-size="10.00" fill="#000000"> &lt; PlaylistModel &gt;</text>
</g>
<!-- Node3 -->
<g id="node4" class="node">
<title>Node3</title>
<g id="a_node4"><a xlink:href="classene_1_1AbstractObject.html" target="_top" xlink:title="{ene.AbstractObject\n|# debugModeEnabled\l|+ enableDebugMode()\l+ disableDebugMode()\l+ isDebugModeEnabled()\l+ debugInfoAbout()\l+ consoleOutput()\l# delay()\l}">
<polygon fill="none" stroke="#000000" points="0,-427.5 0,-539.5 127,-539.5 127,-427.5 0,-427.5"/>
<text text-anchor="middle" x="63.5" y="-527.5" font-family="Helvetica,sans-Serif" font-size="10.00" fill="#000000">ene.AbstractObject</text>
<polyline fill="none" stroke="#000000" points="0,-520.5 127,-520.5 "/>
<text text-anchor="start" x="8" y="-508.5" font-family="Helvetica,sans-Serif" font-size="10.00" fill="#000000"># debugModeEnabled</text>
<polyline fill="none" stroke="#000000" points="0,-501.5 127,-501.5 "/>
<text text-anchor="start" x="8" y="-489.5" font-family="Helvetica,sans-Serif" font-size="10.00" fill="#000000">+ enableDebugMode()</text>
<text text-anchor="start" x="8" y="-478.5" font-family="Helvetica,sans-Serif" font-size="10.00" fill="#000000">+ disableDebugMode()</text>
<text text-anchor="start" x="8" y="-467.5" font-family="Helvetica,sans-Serif" font-size="10.00" fill="#000000">+ isDebugModeEnabled()</text>
<text text-anchor="start" x="8" y="-456.5" font-family="Helvetica,sans-Serif" font-size="10.00" fill="#000000">+ debugInfoAbout()</text>
<text text-anchor="start" x="8" y="-445.5" font-family="Helvetica,sans-Serif" font-size="10.00" fill="#000000">+ consoleOutput()</text>
<text text-anchor="start" x="8" y="-434.5" font-family="Helvetica,sans-Serif" font-size="10.00" fill="#000000"># delay()</text>
</a>
</g>
</g>
<!-- Node3&#45;&gt;Node2 -->
<g id="edge3" class="edge">
<title>Node3&#45;&gt;Node2</title>
<path fill="none" stroke="#191970" d="M99.1573,-418.2911C104.526,-408.4729 109.9191,-398.6103 114.8716,-389.5534"/>
<polygon fill="none" stroke="#191970" points="95.9739,-416.8177 94.247,-427.2709 102.1157,-420.1762 95.9739,-416.8177"/>
</g>
<!-- Node4 -->
<g id="node5" class="node">
<title>Node4</title>
<g id="a_node5"><a xlink:href="interfaceene_1_1interfaces_1_1Controller.html" target="_top" xlink:title="{ene::interfaces::Controller\l\&lt; ModelType \&gt;\n||+ setModel()\l+ getModel()\l}">
<polygon fill="none" stroke="#000000" points="145,-444 145,-523 274,-523 274,-444 145,-444"/>
<text text-anchor="start" x="153" y="-511" font-family="Helvetica,sans-Serif" font-size="10.00" fill="#000000">ene::interfaces::Controller</text>
<text text-anchor="middle" x="209.5" y="-500" font-family="Helvetica,sans-Serif" font-size="10.00" fill="#000000">&lt; ModelType &gt;</text>
<polyline fill="none" stroke="#000000" points="145,-493 274,-493 "/>
<text text-anchor="middle" x="209.5" y="-481" font-family="Helvetica,sans-Serif" font-size="10.00" fill="#000000"> </text>
<polyline fill="none" stroke="#000000" points="145,-474 274,-474 "/>
<text text-anchor="start" x="153" y="-462" font-family="Helvetica,sans-Serif" font-size="10.00" fill="#000000">+ setModel()</text>
<text text-anchor="start" x="153" y="-451" font-family="Helvetica,sans-Serif" font-size="10.00" fill="#000000">+ getModel()</text>
</a>
</g>
</g>
<!-- Node4&#45;&gt;Node2 -->
<g id="edge4" class="edge">
<title>Node4&#45;&gt;Node2</title>
<path fill="none" stroke="#191970" d="M182.8625,-434.7862C174.7697,-419.9864 165.9777,-403.9078 158.2472,-389.7705"/>
<polygon fill="none" stroke="#191970" points="179.9266,-436.7123 187.7952,-443.807 186.0683,-433.3539 179.9266,-436.7123"/>
</g>
<!-- Node5 -->
<g id="node6" class="node">
<title>Node5</title>
<g id="a_node6"><a xlink:href="interfaceene_1_1interfaces_1_1Import.html" target="_top" xlink:title="{ene.interfaces.Import\n||+ loadFromFile()\l}">
<polygon fill="none" stroke="#000000" points="222,-194.5 222,-251.5 331,-251.5 331,-194.5 222,-194.5"/>
<text text-anchor="middle" x="276.5" y="-239.5" font-family="Helvetica,sans-Serif" font-size="10.00" fill="#000000">ene.interfaces.Import</text>
<polyline fill="none" stroke="#000000" points="222,-232.5 331,-232.5 "/>
<text text-anchor="middle" x="276.5" y="-220.5" font-family="Helvetica,sans-Serif" font-size="10.00" fill="#000000"> </text>
<polyline fill="none" stroke="#000000" points="222,-213.5 331,-213.5 "/>
<text text-anchor="start" x="230" y="-201.5" font-family="Helvetica,sans-Serif" font-size="10.00" fill="#000000">+ loadFromFile()</text>
</a>
</g>
</g>
<!-- Node5&#45;&gt;Node0 -->
<g id="edge5" class="edge">
<title>Node5&#45;&gt;Node0</title>
<path fill="none" stroke="#191970" d="M276.5,-184.0973C276.5,-172.3131 276.5,-158.9676 276.5,-145.7172"/>
<polygon fill="none" stroke="#191970" points="273.0001,-184.433 276.5,-194.4331 280.0001,-184.4331 273.0001,-184.433"/>
</g>
<!-- Node6 -->
<g id="node7" class="node">
<title>Node6</title>
<g id="a_node7"><a xlink:href="interfaceene_1_1interfaces_1_1Export.html" target="_top" xlink:title="{ene.interfaces.Export\n||+ saveToFile()\l}">
<polygon fill="none" stroke="#000000" points="349.5,-194.5 349.5,-251.5 459.5,-251.5 459.5,-194.5 349.5,-194.5"/>
<text text-anchor="middle" x="404.5" y="-239.5" font-family="Helvetica,sans-Serif" font-size="10.00" fill="#000000">ene.interfaces.Export</text>
<polyline fill="none" stroke="#000000" points="349.5,-232.5 459.5,-232.5 "/>
<text text-anchor="middle" x="404.5" y="-220.5" font-family="Helvetica,sans-Serif" font-size="10.00" fill="#000000"> </text>
<polyline fill="none" stroke="#000000" points="349.5,-213.5 459.5,-213.5 "/>
<text text-anchor="start" x="357.5" y="-201.5" font-family="Helvetica,sans-Serif" font-size="10.00" fill="#000000">+ saveToFile()</text>
</a>
</g>
</g>
<!-- Node6&#45;&gt;Node0 -->
<g id="edge6" class="edge">
<title>Node6&#45;&gt;Node0</title>
<path fill="none" stroke="#191970" d="M373.4609,-186.626C361.7155,-172.8619 347.933,-156.7106 334.5056,-140.9753"/>
<polygon fill="none" stroke="#191970" points="370.9693,-189.0981 380.1229,-194.4331 376.2941,-184.5543 370.9693,-189.0981"/>
</g>
</g>
</svg>
