<?xml version="1.0" encoding="UTF-8" standalone="no"?>
<!DOCTYPE svg PUBLIC "-//W3C//DTD SVG 1.1//EN"
 "http://www.w3.org/Graphics/SVG/1.1/DTD/svg11.dtd">
<!-- Generated by graphviz version 2.40.1 (20161225.0304)
 -->
<!-- Title: ene.views.gui.partial.PlaylistView.render Pages: 1 -->
<svg width="750pt" height="575pt"
 viewBox="0.00 0.00 750.00 575.00" xmlns="http://www.w3.org/2000/svg" xmlns:xlink="http://www.w3.org/1999/xlink">
<g id="graph0" class="graph" transform="scale(1 1) rotate(0) translate(4 571)">
<title>ene.views.gui.partial.PlaylistView.render</title>
<!-- Node39 -->
<g id="node1" class="node">
<title>Node39</title>
<polygon fill="#bfbfbf" stroke="#000000" points="0,-210.5 0,-240.5 141,-240.5 141,-210.5 0,-210.5"/>
<text text-anchor="start" x="8" y="-228.5" font-family="Helvetica,sans-Serif" font-size="10.00" fill="#000000">ene.views.gui.partial.Playlist</text>
<text text-anchor="middle" x="70.5" y="-217.5" font-family="Helvetica,sans-Serif" font-size="10.00" fill="#000000">View.render</text>
</g>
<!-- Node40 -->
<g id="node2" class="node">
<title>Node40</title>
<g id="a_node2"><a xlink:href="classene_1_1views_1_1gui_1_1partial_1_1PlaylistView.html#a7333a1fc96cbf74f81345651fea52fe8" target="_top" xlink:title="ene.views.gui.partial.Playlist\lView.getPlaylistController">
<polygon fill="none" stroke="#000000" points="193,-536.5 193,-566.5 334,-566.5 334,-536.5 193,-536.5"/>
<text text-anchor="start" x="201" y="-554.5" font-family="Helvetica,sans-Serif" font-size="10.00" fill="#000000">ene.views.gui.partial.Playlist</text>
<text text-anchor="middle" x="263.5" y="-543.5" font-family="Helvetica,sans-Serif" font-size="10.00" fill="#000000">View.getPlaylistController</text>
</a>
</g>
</g>
<!-- Node39&#45;&gt;Node40 -->
<g id="edge1" class="edge">
<title>Node39&#45;&gt;Node40</title>
<path fill="none" stroke="#191970" d="M71.5026,-240.8262C75.4808,-289.1132 94.2708,-439.7197 177,-521.5 180.7886,-525.2452 185.0678,-528.5239 189.6443,-531.3941"/>
<polygon fill="#191970" stroke="#191970" points="188.3142,-534.6577 198.7606,-536.4255 191.6967,-528.5291 188.3142,-534.6577"/>
</g>
<!-- Node41 -->
<g id="node3" class="node">
<title>Node41</title>
<g id="a_node3"><a xlink:href="classene_1_1views_1_1gui_1_1partial_1_1AbstractTrackListView.html#a35a32113ecdb8bc210fa6b4e9c57c782" target="_top" xlink:title="ene.views.gui.partial.Abstract\lTrackListView.getSelectedFilename">
<polygon fill="none" stroke="#000000" points="177,-382.5 177,-412.5 350,-412.5 350,-382.5 177,-382.5"/>
<text text-anchor="start" x="185" y="-400.5" font-family="Helvetica,sans-Serif" font-size="10.00" fill="#000000">ene.views.gui.partial.Abstract</text>
<text text-anchor="middle" x="263.5" y="-389.5" font-family="Helvetica,sans-Serif" font-size="10.00" fill="#000000">TrackListView.getSelectedFilename</text>
</a>
</g>
</g>
<!-- Node39&#45;&gt;Node41 -->
<g id="edge2" class="edge">
<title>Node39&#45;&gt;Node41</title>
<path fill="none" stroke="#191970" d="M87.6275,-240.7639C121.8919,-271.3001 198.9932,-340.0121 238.7516,-375.4444"/>
<polygon fill="#191970" stroke="#191970" points="236.6167,-378.23 246.4109,-382.2704 241.274,-373.0041 236.6167,-378.23"/>
</g>
<!-- Node43 -->
<g id="node5" class="node">
<title>Node43</title>
<g id="a_node5"><a xlink:href="classene_1_1views_1_1gui_1_1partial_1_1AbstractTrackListView.html#a709dd0b919d5e537076fe18ad992f25f" target="_top" xlink:title="ene.views.gui.partial.Abstract\lTrackListView.getTableContent">
<polygon fill="none" stroke="#000000" points="588,-461.5 588,-491.5 742,-491.5 742,-461.5 588,-461.5"/>
<text text-anchor="start" x="596" y="-479.5" font-family="Helvetica,sans-Serif" font-size="10.00" fill="#000000">ene.views.gui.partial.Abstract</text>
<text text-anchor="middle" x="665" y="-468.5" font-family="Helvetica,sans-Serif" font-size="10.00" fill="#000000">TrackListView.getTableContent</text>
</a>
</g>
</g>
<!-- Node39&#45;&gt;Node43 -->
<g id="edge7" class="edge">
<title>Node39&#45;&gt;Node43</title>
<path fill="none" stroke="#191970" d="M74.4045,-240.5991C84.6857,-277.3457 116.0065,-372.1049 177,-422.5 289.9929,-515.8588 471.3639,-508.1641 578.276,-493.0488"/>
<polygon fill="#191970" stroke="#191970" points="578.9989,-496.4803 588.3851,-491.566 577.983,-489.5544 578.9989,-496.4803"/>
</g>
<!-- Node45 -->
<g id="node7" class="node">
<title>Node45</title>
<g id="a_node7"><a xlink:href="interfaceene_1_1interfaces_1_1Localization.html#ae7d5c65647a8bd1ca0c27b3279b0751c" target="_top" xlink:title="ene.interfaces.Localization.get\lString">
<polygon fill="none" stroke="#000000" points="590.5,-216.5 590.5,-246.5 739.5,-246.5 739.5,-216.5 590.5,-216.5"/>
<text text-anchor="start" x="598.5" y="-234.5" font-family="Helvetica,sans-Serif" font-size="10.00" fill="#000000">ene.interfaces.Localization.get</text>
<text text-anchor="middle" x="665" y="-223.5" font-family="Helvetica,sans-Serif" font-size="10.00" fill="#000000">String</text>
</a>
</g>
</g>
<!-- Node39&#45;&gt;Node45 -->
<g id="edge6" class="edge">
<title>Node39&#45;&gt;Node45</title>
<path fill="none" stroke="#191970" d="M141.0315,-226.2118C250.8631,-227.3203 462.3659,-229.4549 580.2941,-230.6451"/>
<polygon fill="#191970" stroke="#191970" points="580.3273,-234.1455 590.3621,-230.7467 580.398,-227.1459 580.3273,-234.1455"/>
</g>
<!-- Node46 -->
<g id="node8" class="node">
<title>Node46</title>
<g id="a_node8"><a xlink:href="classene_1_1views_1_1gui_1_1partial_1_1AbstractTrackListView.html#a2b9e7e6496c9675f9094dea99e1e469d" target="_top" xlink:title="ene.views.gui.partial.Abstract\lTrackListView.hideColumn">
<polygon fill="none" stroke="#000000" points="190.5,-147.5 190.5,-177.5 336.5,-177.5 336.5,-147.5 190.5,-147.5"/>
<text text-anchor="start" x="198.5" y="-165.5" font-family="Helvetica,sans-Serif" font-size="10.00" fill="#000000">ene.views.gui.partial.Abstract</text>
<text text-anchor="middle" x="263.5" y="-154.5" font-family="Helvetica,sans-Serif" font-size="10.00" fill="#000000">TrackListView.hideColumn</text>
</a>
</g>
</g>
<!-- Node39&#45;&gt;Node46 -->
<g id="edge8" class="edge">
<title>Node39&#45;&gt;Node46</title>
<path fill="none" stroke="#191970" d="M116.7283,-210.4099C144.0808,-201.4814 178.9093,-190.1125 207.774,-180.6904"/>
<polygon fill="#191970" stroke="#191970" points="208.8946,-184.0064 217.3148,-177.576 206.7224,-177.3519 208.8946,-184.0064"/>
</g>
<!-- Node47 -->
<g id="node9" class="node">
<title>Node47</title>
<g id="a_node9"><a xlink:href="classene_1_1views_1_1gui_1_1partial_1_1AbstractTrackListView.html#a7f0f3e14d200a2a0a17afaf8131037c3" target="_top" xlink:title="ene.views.gui.partial.Abstract\lTrackListView.setColumnWidth">
<polygon fill="none" stroke="#000000" points="391.5,-166.5 391.5,-196.5 546.5,-196.5 546.5,-166.5 391.5,-166.5"/>
<text text-anchor="start" x="399.5" y="-184.5" font-family="Helvetica,sans-Serif" font-size="10.00" fill="#000000">ene.views.gui.partial.Abstract</text>
<text text-anchor="middle" x="469" y="-173.5" font-family="Helvetica,sans-Serif" font-size="10.00" fill="#000000">TrackListView.setColumnWidth</text>
</a>
</g>
</g>
<!-- Node39&#45;&gt;Node47 -->
<g id="edge10" class="edge">
<title>Node39&#45;&gt;Node47</title>
<path fill="none" stroke="#191970" d="M141.2846,-217.6844C208.3585,-210.2785 309.2909,-199.1341 381.4059,-191.1716"/>
<polygon fill="#191970" stroke="#191970" points="381.8285,-194.6463 391.3839,-190.0699 381.0602,-187.6886 381.8285,-194.6463"/>
</g>
<!-- Node48 -->
<g id="node10" class="node">
<title>Node48</title>
<g id="a_node10"><a xlink:href="classene_1_1views_1_1AbstractView.html#aa9bee221c279bc8a9dbada91184d8181" target="_top" xlink:title="ene.views.AbstractView.set\lCoreComponent">
<polygon fill="none" stroke="#000000" points="194,-98.5 194,-128.5 333,-128.5 333,-98.5 194,-98.5"/>
<text text-anchor="start" x="202" y="-116.5" font-family="Helvetica,sans-Serif" font-size="10.00" fill="#000000">ene.views.AbstractView.set</text>
<text text-anchor="middle" x="263.5" y="-105.5" font-family="Helvetica,sans-Serif" font-size="10.00" fill="#000000">CoreComponent</text>
</a>
</g>
</g>
<!-- Node39&#45;&gt;Node48 -->
<g id="edge11" class="edge">
<title>Node39&#45;&gt;Node48</title>
<path fill="none" stroke="#191970" d="M84.5608,-210.4733C103.6801,-190.9023 139.7815,-156.9052 177,-137.5 180.552,-135.6481 184.2626,-133.9261 188.0644,-132.3266"/>
<polygon fill="#191970" stroke="#191970" points="189.6087,-135.4816 197.6634,-128.5989 187.0746,-128.9564 189.6087,-135.4816"/>
</g>
<!-- Node49 -->
<g id="node11" class="node">
<title>Node49</title>
<g id="a_node11"><a xlink:href="classene_1_1views_1_1gui_1_1partial_1_1AbstractTrackListView.html#a597363a2069558d6801c75be622b1988" target="_top" xlink:title="ene.views.gui.partial.Abstract\lTrackListView.setTable">
<polygon fill="none" stroke="#000000" points="190.5,-49.5 190.5,-79.5 336.5,-79.5 336.5,-49.5 190.5,-49.5"/>
<text text-anchor="start" x="198.5" y="-67.5" font-family="Helvetica,sans-Serif" font-size="10.00" fill="#000000">ene.views.gui.partial.Abstract</text>
<text text-anchor="middle" x="263.5" y="-56.5" font-family="Helvetica,sans-Serif" font-size="10.00" fill="#000000">TrackListView.setTable</text>
</a>
</g>
</g>
<!-- Node39&#45;&gt;Node49 -->
<g id="edge12" class="edge">
<title>Node39&#45;&gt;Node49</title>
<path fill="none" stroke="#191970" d="M78.1307,-210.1306C93.0674,-181.6609 128.9473,-120.6968 177,-88.5 179.4276,-86.8734 181.9636,-85.3564 184.5791,-83.9416"/>
<polygon fill="#191970" stroke="#191970" points="186.2567,-87.0182 193.7362,-79.5143 183.2097,-80.7161 186.2567,-87.0182"/>
</g>
<!-- Node50 -->
<g id="node12" class="node">
<title>Node50</title>
<g id="a_node12"><a xlink:href="classene_1_1views_1_1gui_1_1partial_1_1AbstractTrackListView.html#a7ba0c6e862c2ef6d4e999650b61ec695" target="_top" xlink:title="ene.views.gui.partial.Abstract\lTrackListView.setTableRowSorter">
<polygon fill="none" stroke="#000000" points="180.5,-.5 180.5,-30.5 346.5,-30.5 346.5,-.5 180.5,-.5"/>
<text text-anchor="start" x="188.5" y="-18.5" font-family="Helvetica,sans-Serif" font-size="10.00" fill="#000000">ene.views.gui.partial.Abstract</text>
<text text-anchor="middle" x="263.5" y="-7.5" font-family="Helvetica,sans-Serif" font-size="10.00" fill="#000000">TrackListView.setTableRowSorter</text>
</a>
</g>
</g>
<!-- Node39&#45;&gt;Node50 -->
<g id="edge13" class="edge">
<title>Node39&#45;&gt;Node50</title>
<path fill="none" stroke="#191970" d="M74.7951,-210.3207C85.6541,-174.7673 117.6532,-85.6274 177,-39.5 178.7996,-38.1013 180.6759,-36.784 182.6142,-35.5435"/>
<polygon fill="#191970" stroke="#191970" points="184.4541,-38.5246 191.4651,-30.5813 181.0308,-32.4187 184.4541,-38.5246"/>
</g>
<!-- Node51 -->
<g id="node13" class="node">
<title>Node51</title>
<g id="a_node13"><a xlink:href="classene_1_1views_1_1gui_1_1partial_1_1PlaylistView.html#ad2b87823589c6e8895d2d7b98438a2dc" target="_top" xlink:title="ene.views.gui.partial.Playlist\lView.update">
<polygon fill="none" stroke="#000000" points="193,-273.5 193,-303.5 334,-303.5 334,-273.5 193,-273.5"/>
<text text-anchor="start" x="201" y="-291.5" font-family="Helvetica,sans-Serif" font-size="10.00" fill="#000000">ene.views.gui.partial.Playlist</text>
<text text-anchor="middle" x="263.5" y="-280.5" font-family="Helvetica,sans-Serif" font-size="10.00" fill="#000000">View.update</text>
</a>
</g>
</g>
<!-- Node39&#45;&gt;Node51 -->
<g id="edge14" class="edge">
<title>Node39&#45;&gt;Node51</title>
<path fill="none" stroke="#191970" d="M116.7283,-240.5901C144.0808,-249.5186 178.9093,-260.8875 207.774,-270.3096"/>
<polygon fill="#191970" stroke="#191970" points="206.7224,-273.6481 217.3148,-273.424 208.8946,-266.9936 206.7224,-273.6481"/>
</g>
<!-- Node42 -->
<g id="node4" class="node">
<title>Node42</title>
<g id="a_node4"><a xlink:href="classene_1_1views_1_1gui_1_1partial_1_1AbstractTrackListView.html#aeea3d90287745704cda06893c94b9666" target="_top" xlink:title="ene.views.gui.partial.Abstract\lTrackListView.getTable">
<polygon fill="none" stroke="#000000" points="396,-448.5 396,-478.5 542,-478.5 542,-448.5 396,-448.5"/>
<text text-anchor="start" x="404" y="-466.5" font-family="Helvetica,sans-Serif" font-size="10.00" fill="#000000">ene.views.gui.partial.Abstract</text>
<text text-anchor="middle" x="469" y="-455.5" font-family="Helvetica,sans-Serif" font-size="10.00" fill="#000000">TrackListView.getTable</text>
</a>
</g>
</g>
<!-- Node41&#45;&gt;Node42 -->
<g id="edge3" class="edge">
<title>Node41&#45;&gt;Node42</title>
<path fill="none" stroke="#191970" d="M310.3883,-412.559C340.6621,-422.282 380.2313,-434.9904 412.2739,-445.2814"/>
<polygon fill="#191970" stroke="#191970" points="411.3666,-448.666 421.9578,-448.3916 413.5071,-442.0013 411.3666,-448.666"/>
</g>
<!-- Node41&#45;&gt;Node43 -->
<g id="edge4" class="edge">
<title>Node41&#45;&gt;Node43</title>
<path fill="none" stroke="#191970" d="M350.2299,-405.5034C407.9796,-411.9588 485.2287,-422.7665 552,-439.5 568.501,-443.6353 571.8757,-447.0788 588,-452.5 593.8357,-454.462 599.9382,-456.4581 606.0437,-458.4186"/>
<polygon fill="#191970" stroke="#191970" points="605.0122,-461.7632 615.6027,-461.4601 607.1347,-455.0927 605.0122,-461.7632"/>
</g>
<!-- Node44 -->
<g id="node6" class="node">
<title>Node44</title>
<g id="a_node6"><a xlink:href="classene_1_1views_1_1gui_1_1partial_1_1AbstractTrackListView.html#abb6fc383a050c8c908502156536ce518" target="_top" xlink:title="ene.views.gui.partial.Abstract\lTrackListView.getTableRowSorter">
<polygon fill="none" stroke="#000000" points="386,-360.5 386,-390.5 552,-390.5 552,-360.5 386,-360.5"/>
<text text-anchor="start" x="394" y="-378.5" font-family="Helvetica,sans-Serif" font-size="10.00" fill="#000000">ene.views.gui.partial.Abstract</text>
<text text-anchor="middle" x="469" y="-367.5" font-family="Helvetica,sans-Serif" font-size="10.00" fill="#000000">TrackListView.getTableRowSorter</text>
</a>
</g>
</g>
<!-- Node41&#45;&gt;Node44 -->
<g id="edge5" class="edge">
<title>Node41&#45;&gt;Node44</title>
<path fill="none" stroke="#191970" d="M350.0549,-388.2338C358.5697,-387.3222 367.2366,-386.3944 375.8139,-385.4761"/>
<polygon fill="#191970" stroke="#191970" points="376.2566,-388.9488 385.8272,-384.4041 375.5114,-381.9886 376.2566,-388.9488"/>
</g>
<!-- Node46&#45;&gt;Node47 -->
<g id="edge9" class="edge">
<title>Node46&#45;&gt;Node47</title>
<path fill="none" stroke="#191970" d="M336.5302,-169.2522C350.9652,-170.5868 366.2564,-172.0006 381.1233,-173.3751"/>
<polygon fill="#191970" stroke="#191970" points="381.0524,-176.8834 391.3321,-174.319 381.6969,-169.9132 381.0524,-176.8834"/>
</g>
<!-- Node52 -->
<g id="node14" class="node">
<title>Node52</title>
<g id="a_node14"><a xlink:href="classene_1_1views_1_1gui_1_1partial_1_1PlaylistView.html#aab891c82686652a49db41a3e1bc1f3b9" target="_top" xlink:title="ene.views.gui.partial.Playlist\lView.loadContent">
<polygon fill="none" stroke="#000000" points="398.5,-311.5 398.5,-341.5 539.5,-341.5 539.5,-311.5 398.5,-311.5"/>
<text text-anchor="start" x="406.5" y="-329.5" font-family="Helvetica,sans-Serif" font-size="10.00" fill="#000000">ene.views.gui.partial.Playlist</text>
<text text-anchor="middle" x="469" y="-318.5" font-family="Helvetica,sans-Serif" font-size="10.00" fill="#000000">View.loadContent</text>
</a>
</g>
</g>
<!-- Node51&#45;&gt;Node52 -->
<g id="edge15" class="edge">
<title>Node51&#45;&gt;Node52</title>
<path fill="none" stroke="#191970" d="M334.2214,-301.5774C351.7564,-304.8199 370.674,-308.3181 388.6328,-311.6389"/>
<polygon fill="#191970" stroke="#191970" points="388.0267,-315.0861 398.4965,-313.4628 389.2996,-308.2028 388.0267,-315.0861"/>
</g>
<!-- Node55 -->
<g id="node17" class="node">
<title>Node55</title>
<g id="a_node17"><a xlink:href="classene_1_1views_1_1AbstractPartialView.html#afb90f9e02eea94a2fb276d711a67ee36" target="_top" xlink:title="ene.views.AbstractPartial\lView.getModel">
<polygon fill="none" stroke="#000000" points="601,-265.5 601,-295.5 729,-295.5 729,-265.5 601,-265.5"/>
<text text-anchor="start" x="609" y="-283.5" font-family="Helvetica,sans-Serif" font-size="10.00" fill="#000000">ene.views.AbstractPartial</text>
<text text-anchor="middle" x="665" y="-272.5" font-family="Helvetica,sans-Serif" font-size="10.00" fill="#000000">View.getModel</text>
</a>
</g>
</g>
<!-- Node51&#45;&gt;Node55 -->
<g id="edge22" class="edge">
<title>Node51&#45;&gt;Node55</title>
<path fill="none" stroke="#191970" d="M334.3559,-287.0882C406.3841,-285.653 517.5092,-283.4388 590.7402,-281.9796"/>
<polygon fill="#191970" stroke="#191970" points="590.8856,-285.4775 600.8138,-281.7789 590.7461,-278.4789 590.8856,-285.4775"/>
</g>
<!-- Node52&#45;&gt;Node43 -->
<g id="edge20" class="edge">
<title>Node52&#45;&gt;Node43</title>
<path fill="none" stroke="#191970" d="M538.4428,-341.658C543.3639,-344.4112 547.9658,-347.662 552,-351.5 586.5264,-384.3473 553.6314,-419.4877 588,-452.5 589.1045,-453.5609 590.2552,-454.575 591.4461,-455.5443"/>
<polygon fill="#191970" stroke="#191970" points="589.6049,-458.526 599.8265,-461.3135 593.5742,-452.7601 589.6049,-458.526"/>
</g>
<!-- Node52&#45;&gt;Node45 -->
<g id="edge19" class="edge">
<title>Node52&#45;&gt;Node45</title>
<path fill="none" stroke="#191970" d="M491.4613,-311.2773C514.814,-295.9393 552.8085,-272.3352 588,-256.5 593.0468,-254.2291 598.3627,-252.0653 603.7455,-250.0295"/>
<polygon fill="#191970" stroke="#191970" points="605.2542,-253.2055 613.4632,-246.5076 602.869,-246.6244 605.2542,-253.2055"/>
</g>
<!-- Node53 -->
<g id="node15" class="node">
<title>Node53</title>
<g id="a_node15"><a xlink:href="classene_1_1models_1_1TrackModel.html#a04afba3cc5098c28ebd394fb7ac920ba" target="_top" xlink:title="ene.models.TrackModel.get\lArtist">
<polygon fill="none" stroke="#000000" points="596.5,-412.5 596.5,-442.5 733.5,-442.5 733.5,-412.5 596.5,-412.5"/>
<text text-anchor="start" x="604.5" y="-430.5" font-family="Helvetica,sans-Serif" font-size="10.00" fill="#000000">ene.models.TrackModel.get</text>
<text text-anchor="middle" x="665" y="-419.5" font-family="Helvetica,sans-Serif" font-size="10.00" fill="#000000">Artist</text>
</a>
</g>
</g>
<!-- Node52&#45;&gt;Node53 -->
<g id="edge16" class="edge">
<title>Node52&#45;&gt;Node53</title>
<path fill="none" stroke="#191970" d="M534.4704,-341.5243C540.6793,-344.31 546.6453,-347.6047 552,-351.5 574.731,-368.0355 565.3484,-386.8558 588,-403.5 589.8794,-404.881 591.8403,-406.1839 593.864,-407.413"/>
<polygon fill="#191970" stroke="#191970" points="592.6131,-410.7131 603.0819,-412.3428 595.9143,-404.5404 592.6131,-410.7131"/>
</g>
<!-- Node54 -->
<g id="node16" class="node">
<title>Node54</title>
<g id="a_node16"><a xlink:href="classene_1_1models_1_1TrackModel.html#aab88fe151b093dba71ad9f9ab5c6959d" target="_top" xlink:title="ene.models.TrackModel.get\lFilename">
<polygon fill="none" stroke="#000000" points="596.5,-363.5 596.5,-393.5 733.5,-393.5 733.5,-363.5 596.5,-363.5"/>
<text text-anchor="start" x="604.5" y="-381.5" font-family="Helvetica,sans-Serif" font-size="10.00" fill="#000000">ene.models.TrackModel.get</text>
<text text-anchor="middle" x="665" y="-370.5" font-family="Helvetica,sans-Serif" font-size="10.00" fill="#000000">Filename</text>
</a>
</g>
</g>
<!-- Node52&#45;&gt;Node54 -->
<g id="edge17" class="edge">
<title>Node52&#45;&gt;Node54</title>
<path fill="none" stroke="#191970" d="M525.6913,-341.5406C548.4445,-347.5771 574.834,-354.5784 598.4858,-360.8534"/>
<polygon fill="#191970" stroke="#191970" points="597.8729,-364.3118 608.4361,-363.4932 599.668,-357.5459 597.8729,-364.3118"/>
</g>
<!-- Node52&#45;&gt;Node55 -->
<g id="edge18" class="edge">
<title>Node52&#45;&gt;Node55</title>
<path fill="none" stroke="#191970" d="M533.1777,-311.4379C551.7168,-307.0869 572.0965,-302.3039 591.1728,-297.8268"/>
<polygon fill="#191970" stroke="#191970" points="592.0772,-301.2097 601.013,-295.5174 590.4778,-294.3949 592.0772,-301.2097"/>
</g>
<!-- Node56 -->
<g id="node18" class="node">
<title>Node56</title>
<g id="a_node18"><a xlink:href="classene_1_1models_1_1TrackModel.html#a5bac0e2b6c87c93eef2802d9d10bf3c1" target="_top" xlink:title="ene.models.TrackModel.get\lTitle">
<polygon fill="none" stroke="#000000" points="596.5,-314.5 596.5,-344.5 733.5,-344.5 733.5,-314.5 596.5,-314.5"/>
<text text-anchor="start" x="604.5" y="-332.5" font-family="Helvetica,sans-Serif" font-size="10.00" fill="#000000">ene.models.TrackModel.get</text>
<text text-anchor="middle" x="665" y="-321.5" font-family="Helvetica,sans-Serif" font-size="10.00" fill="#000000">Title</text>
</a>
</g>
</g>
<!-- Node52&#45;&gt;Node56 -->
<g id="edge21" class="edge">
<title>Node52&#45;&gt;Node56</title>
<path fill="none" stroke="#191970" d="M539.7605,-327.5831C554.8719,-327.8144 570.922,-328.06 586.3106,-328.2956"/>
<polygon fill="#191970" stroke="#191970" points="586.2586,-331.7951 596.3111,-328.4486 586.3658,-324.7959 586.2586,-331.7951"/>
</g>
</g>
</svg>
