<?xml version="1.0" encoding="UTF-8" standalone="no"?>
<!DOCTYPE svg PUBLIC "-//W3C//DTD SVG 1.1//EN"
 "http://www.w3.org/Graphics/SVG/1.1/DTD/svg11.dtd">
<!-- Generated by graphviz version 2.40.1 (20161225.0304)
 -->
<!-- Title: ene.views.gui.partial.PlaylistView.mousePressed Pages: 1 -->
<svg width="775pt" height="360pt"
 viewBox="0.00 0.00 775.00 360.00" xmlns="http://www.w3.org/2000/svg" xmlns:xlink="http://www.w3.org/1999/xlink">
<g id="graph0" class="graph" transform="scale(1 1) rotate(0) translate(4 356)">
<title>ene.views.gui.partial.PlaylistView.mousePressed</title>
<!-- Node22 -->
<g id="node1" class="node">
<title>Node22</title>
<polygon fill="#bfbfbf" stroke="#000000" points="0,-147.5 0,-177.5 141,-177.5 141,-147.5 0,-147.5"/>
<text text-anchor="start" x="8" y="-165.5" font-family="Helvetica,sans-Serif" font-size="10.00" fill="#000000">ene.views.gui.partial.Playlist</text>
<text text-anchor="middle" x="70.5" y="-154.5" font-family="Helvetica,sans-Serif" font-size="10.00" fill="#000000">View.mousePressed</text>
</g>
<!-- Node23 -->
<g id="node2" class="node">
<title>Node23</title>
<g id="a_node2"><a xlink:href="classene_1_1AbstractObject.html#aff9619cf289ec83735b6c6ca2c12e020" target="_top" xlink:title="ene.AbstractObject.debug\lInfoAbout">
<polygon fill="none" stroke="#000000" points="203,-294.5 203,-324.5 333,-324.5 333,-294.5 203,-294.5"/>
<text text-anchor="start" x="211" y="-312.5" font-family="Helvetica,sans-Serif" font-size="10.00" fill="#000000">ene.AbstractObject.debug</text>
<text text-anchor="middle" x="268" y="-301.5" font-family="Helvetica,sans-Serif" font-size="10.00" fill="#000000">InfoAbout</text>
</a>
</g>
</g>
<!-- Node22&#45;&gt;Node23 -->
<g id="edge1" class="edge">
<title>Node22&#45;&gt;Node23</title>
<path fill="none" stroke="#191970" d="M79.2572,-177.5611C95.2386,-203.673 131.6983,-257.2545 177,-285.5 182.0628,-288.6566 187.5327,-291.401 193.1907,-293.7866"/>
<polygon fill="#191970" stroke="#191970" points="192.2607,-297.1778 202.8514,-297.472 194.7557,-290.6375 192.2607,-297.1778"/>
</g>
<!-- Node26 -->
<g id="node5" class="node">
<title>Node26</title>
<g id="a_node5"><a xlink:href="classene_1_1views_1_1AbstractPartialView.html#afb90f9e02eea94a2fb276d711a67ee36" target="_top" xlink:title="ene.views.AbstractPartial\lView.getModel">
<polygon fill="none" stroke="#000000" points="204,-245.5 204,-275.5 332,-275.5 332,-245.5 204,-245.5"/>
<text text-anchor="start" x="212" y="-263.5" font-family="Helvetica,sans-Serif" font-size="10.00" fill="#000000">ene.views.AbstractPartial</text>
<text text-anchor="middle" x="268" y="-252.5" font-family="Helvetica,sans-Serif" font-size="10.00" fill="#000000">View.getModel</text>
</a>
</g>
</g>
<!-- Node22&#45;&gt;Node26 -->
<g id="edge4" class="edge">
<title>Node22&#45;&gt;Node26</title>
<path fill="none" stroke="#191970" d="M88.1521,-177.6983C108.3612,-194.3691 143.0678,-220.8328 177,-236.5 182.4167,-239.001 188.1396,-241.2768 193.9712,-243.3408"/>
<polygon fill="#191970" stroke="#191970" points="193.2596,-246.7922 203.853,-246.6168 195.4624,-240.1478 193.2596,-246.7922"/>
</g>
<!-- Node27 -->
<g id="node6" class="node">
<title>Node27</title>
<g id="a_node6"><a xlink:href="classene_1_1views_1_1gui_1_1partial_1_1AbstractTrackListView.html#af869688a373ddb6b1938b53487756d08" target="_top" xlink:title="ene.views.gui.partial.Abstract\lTrackListView.getPlayerController">
<polygon fill="none" stroke="#000000" points="185.5,-196.5 185.5,-226.5 350.5,-226.5 350.5,-196.5 185.5,-196.5"/>
<text text-anchor="start" x="193.5" y="-214.5" font-family="Helvetica,sans-Serif" font-size="10.00" fill="#000000">ene.views.gui.partial.Abstract</text>
<text text-anchor="middle" x="268" y="-203.5" font-family="Helvetica,sans-Serif" font-size="10.00" fill="#000000">TrackListView.getPlayerController</text>
</a>
</g>
</g>
<!-- Node22&#45;&gt;Node27 -->
<g id="edge5" class="edge">
<title>Node22&#45;&gt;Node27</title>
<path fill="none" stroke="#191970" d="M131.0987,-177.5346C152.1415,-182.7554 175.9155,-188.6537 197.6764,-194.0526"/>
<polygon fill="#191970" stroke="#191970" points="196.9673,-197.4827 207.5159,-196.4938 198.653,-190.6887 196.9673,-197.4827"/>
</g>
<!-- Node28 -->
<g id="node7" class="node">
<title>Node28</title>
<g id="a_node7"><a xlink:href="classene_1_1views_1_1gui_1_1partial_1_1AbstractTrackListView.html#a35a32113ecdb8bc210fa6b4e9c57c782" target="_top" xlink:title="ene.views.gui.partial.Abstract\lTrackListView.getSelectedFilename">
<polygon fill="none" stroke="#000000" points="181.5,-147.5 181.5,-177.5 354.5,-177.5 354.5,-147.5 181.5,-147.5"/>
<text text-anchor="start" x="189.5" y="-165.5" font-family="Helvetica,sans-Serif" font-size="10.00" fill="#000000">ene.views.gui.partial.Abstract</text>
<text text-anchor="middle" x="268" y="-154.5" font-family="Helvetica,sans-Serif" font-size="10.00" fill="#000000">TrackListView.getSelectedFilename</text>
</a>
</g>
</g>
<!-- Node22&#45;&gt;Node28 -->
<g id="edge6" class="edge">
<title>Node22&#45;&gt;Node28</title>
<path fill="none" stroke="#191970" d="M141.2442,-162.5C150.9568,-162.5 161.0634,-162.5 171.1437,-162.5"/>
<polygon fill="#191970" stroke="#191970" points="171.1997,-166.0001 181.1996,-162.5 171.1996,-159.0001 171.1997,-166.0001"/>
</g>
<!-- Node32 -->
<g id="node11" class="node">
<title>Node32</title>
<g id="a_node11"><a xlink:href="classene_1_1controllers_1_1PlayerController.html#a56773cd5d4706ed7949e369070ddc4aa" target="_top" xlink:title="ene.controllers.PlayerController.load\lPlaylist">
<polygon fill="none" stroke="#000000" points="181,-98.5 181,-128.5 355,-128.5 355,-98.5 181,-98.5"/>
<text text-anchor="start" x="189" y="-116.5" font-family="Helvetica,sans-Serif" font-size="10.00" fill="#000000">ene.controllers.PlayerController.load</text>
<text text-anchor="middle" x="268" y="-105.5" font-family="Helvetica,sans-Serif" font-size="10.00" fill="#000000">Playlist</text>
</a>
</g>
</g>
<!-- Node22&#45;&gt;Node32 -->
<g id="edge10" class="edge">
<title>Node22&#45;&gt;Node32</title>
<path fill="none" stroke="#191970" d="M131.0987,-147.4654C152.1415,-142.2446 175.9155,-136.3463 197.6764,-130.9474"/>
<polygon fill="#191970" stroke="#191970" points="198.653,-134.3113 207.5159,-128.5062 196.9673,-127.5173 198.653,-134.3113"/>
</g>
<!-- Node34 -->
<g id="node13" class="node">
<title>Node34</title>
<g id="a_node13"><a xlink:href="classene_1_1models_1_1PlaylistModel.html#a7150506b3801f97a2e38955a585bbd07" target="_top" xlink:title="ene.models.PlaylistModel.set\lCurrentTrack">
<polygon fill="none" stroke="#000000" points="195.5,-.5 195.5,-30.5 340.5,-30.5 340.5,-.5 195.5,-.5"/>
<text text-anchor="start" x="203.5" y="-18.5" font-family="Helvetica,sans-Serif" font-size="10.00" fill="#000000">ene.models.PlaylistModel.set</text>
<text text-anchor="middle" x="268" y="-7.5" font-family="Helvetica,sans-Serif" font-size="10.00" fill="#000000">CurrentTrack</text>
</a>
</g>
</g>
<!-- Node22&#45;&gt;Node34 -->
<g id="edge12" class="edge">
<title>Node22&#45;&gt;Node34</title>
<path fill="none" stroke="#191970" d="M79.2572,-147.4389C95.2386,-121.327 131.6983,-67.7455 177,-39.5 179.8423,-37.7279 182.8128,-36.0856 185.873,-34.5639"/>
<polygon fill="#191970" stroke="#191970" points="187.5866,-37.6315 195.2833,-30.3507 184.7261,-31.2427 187.5866,-37.6315"/>
</g>
<!-- Node37 -->
<g id="node16" class="node">
<title>Node37</title>
<g id="a_node16"><a xlink:href="classene_1_1controllers_1_1PlayerController.html#acea0cc4709105881026516d468c4baf8" target="_top" xlink:title="ene.controllers.PlayerController.toggle\lPlayback">
<polygon fill="none" stroke="#000000" points="177,-49.5 177,-79.5 359,-79.5 359,-49.5 177,-49.5"/>
<text text-anchor="start" x="185" y="-67.5" font-family="Helvetica,sans-Serif" font-size="10.00" fill="#000000">ene.controllers.PlayerController.toggle</text>
<text text-anchor="middle" x="268" y="-56.5" font-family="Helvetica,sans-Serif" font-size="10.00" fill="#000000">Playback</text>
</a>
</g>
</g>
<!-- Node22&#45;&gt;Node37 -->
<g id="edge15" class="edge">
<title>Node22&#45;&gt;Node37</title>
<path fill="none" stroke="#191970" d="M88.5863,-147.2875C108.9058,-130.8949 143.4501,-105.0698 177,-89.5 182.2364,-87.0699 187.7552,-84.8352 193.3795,-82.788"/>
<polygon fill="#191970" stroke="#191970" points="194.5892,-86.0733 202.9131,-79.5186 192.3184,-79.4518 194.5892,-86.0733"/>
</g>
<!-- Node24 -->
<g id="node3" class="node">
<title>Node24</title>
<g id="a_node3"><a xlink:href="classene_1_1AbstractObject.html#a9ce30d3321c7ce794df2f07bdaf3e47c" target="_top" xlink:title="ene.AbstractObject.console\lOutput">
<polygon fill="none" stroke="#000000" points="413,-321.5 413,-351.5 550,-351.5 550,-321.5 413,-321.5"/>
<text text-anchor="start" x="421" y="-339.5" font-family="Helvetica,sans-Serif" font-size="10.00" fill="#000000">ene.AbstractObject.console</text>
<text text-anchor="middle" x="481.5" y="-328.5" font-family="Helvetica,sans-Serif" font-size="10.00" fill="#000000">Output</text>
</a>
</g>
</g>
<!-- Node23&#45;&gt;Node24 -->
<g id="edge2" class="edge">
<title>Node23&#45;&gt;Node24</title>
<path fill="none" stroke="#191970" d="M333.2171,-317.7476C355.2225,-320.5305 380.0174,-323.6661 402.9435,-326.5655"/>
<polygon fill="#191970" stroke="#191970" points="402.6234,-330.0528 412.9836,-327.8352 403.5018,-323.1081 402.6234,-330.0528"/>
</g>
<!-- Node25 -->
<g id="node4" class="node">
<title>Node25</title>
<g id="a_node4"><a xlink:href="classene_1_1AbstractObject.html#a6ee0b669069e0c3ee320a6cf41af24fe" target="_top" xlink:title="ene.AbstractObject.isDebug\lModeEnabled">
<polygon fill="none" stroke="#000000" points="411.5,-272.5 411.5,-302.5 551.5,-302.5 551.5,-272.5 411.5,-272.5"/>
<text text-anchor="start" x="419.5" y="-290.5" font-family="Helvetica,sans-Serif" font-size="10.00" fill="#000000">ene.AbstractObject.isDebug</text>
<text text-anchor="middle" x="481.5" y="-279.5" font-family="Helvetica,sans-Serif" font-size="10.00" fill="#000000">ModeEnabled</text>
</a>
</g>
</g>
<!-- Node23&#45;&gt;Node25 -->
<g id="edge3" class="edge">
<title>Node23&#45;&gt;Node25</title>
<path fill="none" stroke="#191970" d="M333.2171,-302.7797C354.6984,-300.5662 378.838,-298.0788 401.3024,-295.7639"/>
<polygon fill="#191970" stroke="#191970" points="401.902,-299.2208 411.4905,-294.7141 401.1844,-292.2576 401.902,-299.2208"/>
</g>
<!-- Node29 -->
<g id="node8" class="node">
<title>Node29</title>
<g id="a_node8"><a xlink:href="classene_1_1views_1_1gui_1_1partial_1_1AbstractTrackListView.html#aeea3d90287745704cda06893c94b9666" target="_top" xlink:title="ene.views.gui.partial.Abstract\lTrackListView.getTable">
<polygon fill="none" stroke="#000000" points="408.5,-202.5 408.5,-232.5 554.5,-232.5 554.5,-202.5 408.5,-202.5"/>
<text text-anchor="start" x="416.5" y="-220.5" font-family="Helvetica,sans-Serif" font-size="10.00" fill="#000000">ene.views.gui.partial.Abstract</text>
<text text-anchor="middle" x="481.5" y="-209.5" font-family="Helvetica,sans-Serif" font-size="10.00" fill="#000000">TrackListView.getTable</text>
</a>
</g>
</g>
<!-- Node28&#45;&gt;Node29 -->
<g id="edge7" class="edge">
<title>Node28&#45;&gt;Node29</title>
<path fill="none" stroke="#191970" d="M326.3398,-177.529C353.2877,-184.4711 385.4573,-192.7583 413.4994,-199.9823"/>
<polygon fill="#191970" stroke="#191970" points="412.6737,-203.3838 423.2307,-202.4892 414.42,-196.6051 412.6737,-203.3838"/>
</g>
<!-- Node30 -->
<g id="node9" class="node">
<title>Node30</title>
<g id="a_node9"><a xlink:href="classene_1_1views_1_1gui_1_1partial_1_1AbstractTrackListView.html#a709dd0b919d5e537076fe18ad992f25f" target="_top" xlink:title="ene.views.gui.partial.Abstract\lTrackListView.getTableContent">
<polygon fill="none" stroke="#000000" points="404.5,-153.5 404.5,-183.5 558.5,-183.5 558.5,-153.5 404.5,-153.5"/>
<text text-anchor="start" x="412.5" y="-171.5" font-family="Helvetica,sans-Serif" font-size="10.00" fill="#000000">ene.views.gui.partial.Abstract</text>
<text text-anchor="middle" x="481.5" y="-160.5" font-family="Helvetica,sans-Serif" font-size="10.00" fill="#000000">TrackListView.getTableContent</text>
</a>
</g>
</g>
<!-- Node28&#45;&gt;Node30 -->
<g id="edge8" class="edge">
<title>Node28&#45;&gt;Node30</title>
<path fill="none" stroke="#191970" d="M354.5308,-164.9318C367.5735,-165.2983 381.034,-165.6766 394.0949,-166.0437"/>
<polygon fill="#191970" stroke="#191970" points="394.3737,-169.5528 404.4682,-166.3352 394.5705,-162.5555 394.3737,-169.5528"/>
</g>
<!-- Node31 -->
<g id="node10" class="node">
<title>Node31</title>
<g id="a_node10"><a xlink:href="classene_1_1views_1_1gui_1_1partial_1_1AbstractTrackListView.html#abb6fc383a050c8c908502156536ce518" target="_top" xlink:title="ene.views.gui.partial.Abstract\lTrackListView.getTableRowSorter">
<polygon fill="none" stroke="#000000" points="398.5,-104.5 398.5,-134.5 564.5,-134.5 564.5,-104.5 398.5,-104.5"/>
<text text-anchor="start" x="406.5" y="-122.5" font-family="Helvetica,sans-Serif" font-size="10.00" fill="#000000">ene.views.gui.partial.Abstract</text>
<text text-anchor="middle" x="481.5" y="-111.5" font-family="Helvetica,sans-Serif" font-size="10.00" fill="#000000">TrackListView.getTableRowSorter</text>
</a>
</g>
</g>
<!-- Node28&#45;&gt;Node31 -->
<g id="edge9" class="edge">
<title>Node28&#45;&gt;Node31</title>
<path fill="none" stroke="#191970" d="M342.6719,-147.4607C360.2245,-143.9255 379.0525,-140.1334 397.0022,-136.5183"/>
<polygon fill="#191970" stroke="#191970" points="397.7581,-139.9364 406.8702,-134.5308 396.376,-133.0742 397.7581,-139.9364"/>
</g>
<!-- Node33 -->
<g id="node12" class="node">
<title>Node33</title>
<g id="a_node12"><a xlink:href="classene_1_1controllers_1_1AbstractController.html#a9a5afba01d0004a64db4cb14c23e0bbd" target="_top" xlink:title="ene.controllers.Abstract\lController\&lt; PlayerModel\l \&gt;::getModel">
<polygon fill="none" stroke="#000000" points="420.5,-44 420.5,-85 542.5,-85 542.5,-44 420.5,-44"/>
<text text-anchor="start" x="428.5" y="-73" font-family="Helvetica,sans-Serif" font-size="10.00" fill="#000000">ene.controllers.Abstract</text>
<text text-anchor="start" x="428.5" y="-62" font-family="Helvetica,sans-Serif" font-size="10.00" fill="#000000">Controller&lt; PlayerModel</text>
<text text-anchor="middle" x="481.5" y="-51" font-family="Helvetica,sans-Serif" font-size="10.00" fill="#000000"> &gt;::getModel</text>
</a>
</g>
</g>
<!-- Node32&#45;&gt;Node33 -->
<g id="edge11" class="edge">
<title>Node32&#45;&gt;Node33</title>
<path fill="none" stroke="#191970" d="M333.508,-98.4654C357.9639,-92.8525 385.8325,-86.4565 410.7404,-80.7399"/>
<polygon fill="#191970" stroke="#191970" points="411.5244,-84.1511 420.488,-78.5027 409.9585,-77.3284 411.5244,-84.1511"/>
</g>
<!-- Node35 -->
<g id="node14" class="node">
<title>Node35</title>
<g id="a_node14"><a xlink:href="classene_1_1models_1_1AbstractModel.html#a970306ac2228cbcb599f65476d8c80dd" target="_top" xlink:title="ene.models.AbstractModel.changed">
<polygon fill="none" stroke="#000000" points="395,-6 395,-25 568,-25 568,-6 395,-6"/>
<text text-anchor="middle" x="481.5" y="-13" font-family="Helvetica,sans-Serif" font-size="10.00" fill="#000000">ene.models.AbstractModel.changed</text>
</a>
</g>
</g>
<!-- Node34&#45;&gt;Node35 -->
<g id="edge13" class="edge">
<title>Node34&#45;&gt;Node35</title>
<path fill="none" stroke="#191970" d="M340.5793,-15.5C354.723,-15.5 369.7614,-15.5 384.547,-15.5"/>
<polygon fill="#191970" stroke="#191970" points="384.7288,-19.0001 394.7287,-15.5 384.7287,-12.0001 384.7288,-19.0001"/>
</g>
<!-- Node36 -->
<g id="node15" class="node">
<title>Node36</title>
<g id="a_node15"><a xlink:href="interfaceene_1_1interfaces_1_1PartialView.html#aae781d286eda4cbf8c57fdb877dde265" target="_top" xlink:title="ene.interfaces.PartialView.update">
<polygon fill="none" stroke="#000000" points="604,-6 604,-25 767,-25 767,-6 604,-6"/>
<text text-anchor="middle" x="685.5" y="-13" font-family="Helvetica,sans-Serif" font-size="10.00" fill="#000000">ene.interfaces.PartialView.update</text>
</a>
</g>
</g>
<!-- Node35&#45;&gt;Node36 -->
<g id="edge14" class="edge">
<title>Node35&#45;&gt;Node36</title>
<path fill="none" stroke="#191970" d="M568.0144,-15.5C576.4296,-15.5 584.9887,-15.5 593.4555,-15.5"/>
<polygon fill="#191970" stroke="#191970" points="593.7215,-19.0001 603.7215,-15.5 593.7214,-12.0001 593.7215,-19.0001"/>
</g>
<!-- Node37&#45;&gt;Node33 -->
<g id="edge16" class="edge">
<title>Node37&#45;&gt;Node33</title>
<path fill="none" stroke="#191970" d="M359.1625,-64.5C376.2446,-64.5 393.8708,-64.5 410.2406,-64.5"/>
<polygon fill="#191970" stroke="#191970" points="410.2547,-68.0001 420.2547,-64.5 410.2547,-61.0001 410.2547,-68.0001"/>
</g>
</g>
</svg>
