<?xml version="1.0" encoding="UTF-8" standalone="no"?>
<!DOCTYPE svg PUBLIC "-//W3C//DTD SVG 1.1//EN"
 "http://www.w3.org/Graphics/SVG/1.1/DTD/svg11.dtd">
<!-- Generated by graphviz version 2.40.1 (20161225.0304)
 -->
<!-- Title: ene.controllers.LibraryController Pages: 1 -->
<svg width="546pt" height="706pt"
 viewBox="0.00 0.00 545.50 706.00" xmlns="http://www.w3.org/2000/svg" xmlns:xlink="http://www.w3.org/1999/xlink">
<g id="graph0" class="graph" transform="scale(1 1) rotate(0) translate(4 702)">
<title>ene.controllers.LibraryController</title>
<!-- Node5 -->
<g id="node1" class="node">
<title>Node5</title>
<polygon fill="#bfbfbf" stroke="#000000" points="237,-.5 237,-167.5 392,-167.5 392,-.5 237,-.5"/>
<text text-anchor="middle" x="314.5" y="-155.5" font-family="Helvetica,sans-Serif" font-size="10.00" fill="#000000">ene.controllers.LibraryController</text>
<polyline fill="none" stroke="#000000" points="237,-148.5 392,-148.5 "/>
<text text-anchor="middle" x="314.5" y="-136.5" font-family="Helvetica,sans-Serif" font-size="10.00" fill="#000000"> </text>
<polyline fill="none" stroke="#000000" points="237,-129.5 392,-129.5 "/>
<text text-anchor="start" x="245" y="-117.5" font-family="Helvetica,sans-Serif" font-size="10.00" fill="#000000">+ LibraryController()</text>
<text text-anchor="start" x="245" y="-106.5" font-family="Helvetica,sans-Serif" font-size="10.00" fill="#000000">+ LibraryController()</text>
<text text-anchor="start" x="245" y="-95.5" font-family="Helvetica,sans-Serif" font-size="10.00" fill="#000000">+ loadFromFile()</text>
<text text-anchor="start" x="245" y="-84.5" font-family="Helvetica,sans-Serif" font-size="10.00" fill="#000000">+ saveToFile()</text>
<text text-anchor="start" x="245" y="-73.5" font-family="Helvetica,sans-Serif" font-size="10.00" fill="#000000">+ add()</text>
<text text-anchor="start" x="245" y="-62.5" font-family="Helvetica,sans-Serif" font-size="10.00" fill="#000000">+ remove()</text>
<text text-anchor="start" x="245" y="-51.5" font-family="Helvetica,sans-Serif" font-size="10.00" fill="#000000"># setDatabaseFilename()</text>
<text text-anchor="start" x="245" y="-40.5" font-family="Helvetica,sans-Serif" font-size="10.00" fill="#000000"># getDatabaseFilename()</text>
<text text-anchor="start" x="245" y="-29.5" font-family="Helvetica,sans-Serif" font-size="10.00" fill="#000000"># addFile()</text>
<text text-anchor="start" x="245" y="-18.5" font-family="Helvetica,sans-Serif" font-size="10.00" fill="#000000"># addDirectoryContent()</text>
<text text-anchor="start" x="245" y="-7.5" font-family="Helvetica,sans-Serif" font-size="10.00" fill="#000000"># scan()</text>
</g>
<!-- Node6 -->
<g id="node2" class="node">
<title>Node6</title>
<g id="a_node2"><a xlink:href="classene_1_1controllers_1_1AbstractController.html" target="_top" xlink:title="{ene.controllers.Abstract\lController\&lt; LibraryModel \&gt;\n|# model\l|+ setModel()\l+ getModel()\l}">
<polygon fill="none" stroke="#000000" points="143.5,-226.5 143.5,-305.5 275.5,-305.5 275.5,-226.5 143.5,-226.5"/>
<text text-anchor="start" x="151.5" y="-293.5" font-family="Helvetica,sans-Serif" font-size="10.00" fill="#000000">ene.controllers.Abstract</text>
<text text-anchor="middle" x="209.5" y="-282.5" font-family="Helvetica,sans-Serif" font-size="10.00" fill="#000000">Controller&lt; LibraryModel &gt;</text>
<polyline fill="none" stroke="#000000" points="143.5,-275.5 275.5,-275.5 "/>
<text text-anchor="start" x="151.5" y="-263.5" font-family="Helvetica,sans-Serif" font-size="10.00" fill="#000000"># model</text>
<polyline fill="none" stroke="#000000" points="143.5,-256.5 275.5,-256.5 "/>
<text text-anchor="start" x="151.5" y="-244.5" font-family="Helvetica,sans-Serif" font-size="10.00" fill="#000000">+ setModel()</text>
<text text-anchor="start" x="151.5" y="-233.5" font-family="Helvetica,sans-Serif" font-size="10.00" fill="#000000">+ getModel()</text>
</a>
</g>
</g>
<!-- Node6&#45;&gt;Node5 -->
<g id="edge1" class="edge">
<title>Node6&#45;&gt;Node5</title>
<path fill="none" stroke="#191970" d="M237.6036,-217.287C246.4503,-201.9528 256.4855,-184.5585 266.3173,-167.5166"/>
<polygon fill="none" stroke="#191970" points="234.5083,-215.6484 232.5427,-226.0593 240.5716,-219.1465 234.5083,-215.6484"/>
</g>
<!-- Node7 -->
<g id="node3" class="node">
<title>Node7</title>
<g id="a_node3"><a xlink:href="classene_1_1controllers_1_1AbstractController.html" target="_top" xlink:title="{ene.controllers.Abstract\lController\&lt; ModelType \&gt;\n||+ setModel()\l+ getModel()\l}">
<polygon fill="none" stroke="#000000" points="147,-353.5 147,-432.5 272,-432.5 272,-353.5 147,-353.5"/>
<text text-anchor="start" x="155" y="-420.5" font-family="Helvetica,sans-Serif" font-size="10.00" fill="#000000">ene.controllers.Abstract</text>
<text text-anchor="middle" x="209.5" y="-409.5" font-family="Helvetica,sans-Serif" font-size="10.00" fill="#000000">Controller&lt; ModelType &gt;</text>
<polyline fill="none" stroke="#000000" points="147,-402.5 272,-402.5 "/>
<text text-anchor="middle" x="209.5" y="-390.5" font-family="Helvetica,sans-Serif" font-size="10.00" fill="#000000"> </text>
<polyline fill="none" stroke="#000000" points="147,-383.5 272,-383.5 "/>
<text text-anchor="start" x="155" y="-371.5" font-family="Helvetica,sans-Serif" font-size="10.00" fill="#000000">+ setModel()</text>
<text text-anchor="start" x="155" y="-360.5" font-family="Helvetica,sans-Serif" font-size="10.00" fill="#000000">+ getModel()</text>
</a>
</g>
</g>
<!-- Node7&#45;&gt;Node6 -->
<g id="edge2" class="edge">
<title>Node7&#45;&gt;Node6</title>
<path fill="none" stroke="#ffa500" d="M209.5,-342.9789C209.5,-330.5999 209.5,-317.5045 209.5,-305.6938"/>
<polygon fill="#ffa500" stroke="#ffa500" points="206.0001,-343.1648 209.5,-353.1649 213.0001,-343.1649 206.0001,-343.1648"/>
<text text-anchor="middle" x="248" y="-327" font-family="Helvetica,sans-Serif" font-size="10.00" fill="#000000"> &lt; LibraryModel &gt;</text>
</g>
<!-- Node8 -->
<g id="node4" class="node">
<title>Node8</title>
<g id="a_node4"><a xlink:href="classene_1_1AbstractObject.html" target="_top" xlink:title="{ene.AbstractObject\n||+ enableDebugMode()\l+ disableDebugMode()\l+ isDebugModeEnabled()\l+ debugInfoAbout()\l+ consoleOutput()\l# delay()\l}">
<polygon fill="none" stroke="#000000" points="0,-480.5 0,-592.5 127,-592.5 127,-480.5 0,-480.5"/>
<text text-anchor="middle" x="63.5" y="-580.5" font-family="Helvetica,sans-Serif" font-size="10.00" fill="#000000">ene.AbstractObject</text>
<polyline fill="none" stroke="#000000" points="0,-573.5 127,-573.5 "/>
<text text-anchor="middle" x="63.5" y="-561.5" font-family="Helvetica,sans-Serif" font-size="10.00" fill="#000000"> </text>
<polyline fill="none" stroke="#000000" points="0,-554.5 127,-554.5 "/>
<text text-anchor="start" x="8" y="-542.5" font-family="Helvetica,sans-Serif" font-size="10.00" fill="#000000">+ enableDebugMode()</text>
<text text-anchor="start" x="8" y="-531.5" font-family="Helvetica,sans-Serif" font-size="10.00" fill="#000000">+ disableDebugMode()</text>
<text text-anchor="start" x="8" y="-520.5" font-family="Helvetica,sans-Serif" font-size="10.00" fill="#000000">+ isDebugModeEnabled()</text>
<text text-anchor="start" x="8" y="-509.5" font-family="Helvetica,sans-Serif" font-size="10.00" fill="#000000">+ debugInfoAbout()</text>
<text text-anchor="start" x="8" y="-498.5" font-family="Helvetica,sans-Serif" font-size="10.00" fill="#000000">+ consoleOutput()</text>
<text text-anchor="start" x="8" y="-487.5" font-family="Helvetica,sans-Serif" font-size="10.00" fill="#000000"># delay()</text>
</a>
</g>
</g>
<!-- Node8&#45;&gt;Node7 -->
<g id="edge3" class="edge">
<title>Node8&#45;&gt;Node7</title>
<path fill="none" stroke="#191970" d="M128.0303,-473.0746C141.9812,-459.3626 156.3504,-445.2395 169.0626,-432.745"/>
<polygon fill="none" stroke="#191970" points="125.4625,-470.6909 120.784,-480.1969 130.3693,-475.6833 125.4625,-470.6909"/>
</g>
<!-- Node9 -->
<g id="node5" class="node">
<title>Node9</title>
<polygon fill="none" stroke="#bfbfbf" points="25,-640.5 25,-697.5 102,-697.5 102,-640.5 25,-640.5"/>
<text text-anchor="middle" x="63.5" y="-685.5" font-family="Helvetica,sans-Serif" font-size="10.00" fill="#000000">static boolean</text>
<polyline fill="none" stroke="#bfbfbf" points="25,-678.5 102,-678.5 "/>
<text text-anchor="middle" x="63.5" y="-666.5" font-family="Helvetica,sans-Serif" font-size="10.00" fill="#000000"> </text>
<polyline fill="none" stroke="#bfbfbf" points="25,-659.5 102,-659.5 "/>
<text text-anchor="middle" x="63.5" y="-647.5" font-family="Helvetica,sans-Serif" font-size="10.00" fill="#000000"> </text>
</g>
<!-- Node9&#45;&gt;Node8 -->
<g id="edge4" class="edge">
<title>Node9&#45;&gt;Node8</title>
<path fill="none" stroke="#404040" d="M63.5,-640.2495C63.5,-629.8031 63.5,-617.502 63.5,-605.0912"/>
<polygon fill="none" stroke="#404040" points="63.5001,-604.7084 59.5,-598.7085 63.5,-592.7084 67.5,-598.7084 63.5001,-604.7084"/>
<text text-anchor="middle" x="110.5" y="-614" font-family="Helvetica,sans-Serif" font-size="10.00" fill="#000000"> #debugModeEnabled</text>
</g>
<!-- Node10 -->
<g id="node6" class="node">
<title>Node10</title>
<g id="a_node6"><a xlink:href="interfaceene_1_1interfaces_1_1Controller.html" target="_top" xlink:title="{ene::interfaces::Controller\l\&lt; ModelType \&gt;\n||+ setModel()\l+ getModel()\l}">
<polygon fill="none" stroke="#000000" points="145,-497 145,-576 274,-576 274,-497 145,-497"/>
<text text-anchor="start" x="153" y="-564" font-family="Helvetica,sans-Serif" font-size="10.00" fill="#000000">ene::interfaces::Controller</text>
<text text-anchor="middle" x="209.5" y="-553" font-family="Helvetica,sans-Serif" font-size="10.00" fill="#000000">&lt; ModelType &gt;</text>
<polyline fill="none" stroke="#000000" points="145,-546 274,-546 "/>
<text text-anchor="middle" x="209.5" y="-534" font-family="Helvetica,sans-Serif" font-size="10.00" fill="#000000"> </text>
<polyline fill="none" stroke="#000000" points="145,-527 274,-527 "/>
<text text-anchor="start" x="153" y="-515" font-family="Helvetica,sans-Serif" font-size="10.00" fill="#000000">+ setModel()</text>
<text text-anchor="start" x="153" y="-504" font-family="Helvetica,sans-Serif" font-size="10.00" fill="#000000">+ getModel()</text>
</a>
</g>
</g>
<!-- Node10&#45;&gt;Node7 -->
<g id="edge5" class="edge">
<title>Node10&#45;&gt;Node7</title>
<path fill="none" stroke="#191970" d="M209.5,-486.8088C209.5,-469.2088 209.5,-449.6472 209.5,-432.9608"/>
<polygon fill="none" stroke="#191970" points="206.0001,-486.9081 209.5,-496.9081 213.0001,-486.9082 206.0001,-486.9081"/>
</g>
<!-- Node11 -->
<g id="node7" class="node">
<title>Node11</title>
<polygon fill="none" stroke="#bfbfbf" points="292,-508 292,-565 357,-565 357,-508 292,-508"/>
<text text-anchor="middle" x="324.5" y="-553" font-family="Helvetica,sans-Serif" font-size="10.00" fill="#000000">ModelType</text>
<polyline fill="none" stroke="#bfbfbf" points="292,-546 357,-546 "/>
<text text-anchor="middle" x="324.5" y="-534" font-family="Helvetica,sans-Serif" font-size="10.00" fill="#000000"> </text>
<polyline fill="none" stroke="#bfbfbf" points="292,-527 357,-527 "/>
<text text-anchor="middle" x="324.5" y="-515" font-family="Helvetica,sans-Serif" font-size="10.00" fill="#000000"> </text>
</g>
<!-- Node11&#45;&gt;Node7 -->
<g id="edge6" class="edge">
<title>Node11&#45;&gt;Node7</title>
<path fill="none" stroke="#404040" d="M304.2741,-507.7283C297.7822,-498.7398 290.4664,-488.8605 283.5,-480 273.6361,-467.4541 262.6601,-454.1976 252.2463,-441.9173"/>
<polygon fill="none" stroke="#404040" points="252.209,-441.8736 245.2716,-439.9055 244.4201,-432.7448 251.3575,-434.7129 252.209,-441.8736"/>
<text text-anchor="middle" x="286" y="-454" font-family="Helvetica,sans-Serif" font-size="10.00" fill="#000000"> #model</text>
</g>
<!-- Node12 -->
<g id="node8" class="node">
<title>Node12</title>
<polygon fill="none" stroke="#bfbfbf" points="293.5,-237.5 293.5,-294.5 335.5,-294.5 335.5,-237.5 293.5,-237.5"/>
<text text-anchor="middle" x="314.5" y="-282.5" font-family="Helvetica,sans-Serif" font-size="10.00" fill="#000000">String</text>
<polyline fill="none" stroke="#bfbfbf" points="293.5,-275.5 335.5,-275.5 "/>
<text text-anchor="middle" x="314.5" y="-263.5" font-family="Helvetica,sans-Serif" font-size="10.00" fill="#000000"> </text>
<polyline fill="none" stroke="#bfbfbf" points="293.5,-256.5 335.5,-256.5 "/>
<text text-anchor="middle" x="314.5" y="-244.5" font-family="Helvetica,sans-Serif" font-size="10.00" fill="#000000"> </text>
</g>
<!-- Node12&#45;&gt;Node5 -->
<g id="edge7" class="edge">
<title>Node12&#45;&gt;Node5</title>
<path fill="none" stroke="#404040" d="M314.5,-237.1616C314.5,-221.3358 314.5,-200.7053 314.5,-179.7385"/>
<polygon fill="none" stroke="#404040" points="314.5001,-179.7378 310.5,-173.7378 314.5,-167.7378 318.5,-173.7378 314.5001,-179.7378"/>
<text text-anchor="middle" x="364.5" y="-200" font-family="Helvetica,sans-Serif" font-size="10.00" fill="#000000"> #DATABASE_TABLE</text>
<text text-anchor="middle" x="364.5" y="-189" font-family="Helvetica,sans-Serif" font-size="10.00" fill="#000000">#databaseFilename</text>
</g>
<!-- Node13 -->
<g id="node9" class="node">
<title>Node13</title>
<polygon fill="none" stroke="#bfbfbf" points="423,-237.5 423,-294.5 452,-294.5 452,-237.5 423,-237.5"/>
<text text-anchor="middle" x="437.5" y="-282.5" font-family="Helvetica,sans-Serif" font-size="10.00" fill="#000000">int</text>
<polyline fill="none" stroke="#bfbfbf" points="423,-275.5 452,-275.5 "/>
<text text-anchor="middle" x="437.5" y="-263.5" font-family="Helvetica,sans-Serif" font-size="10.00" fill="#000000"> </text>
<polyline fill="none" stroke="#bfbfbf" points="423,-256.5 452,-256.5 "/>
<text text-anchor="middle" x="437.5" y="-244.5" font-family="Helvetica,sans-Serif" font-size="10.00" fill="#000000"> </text>
</g>
<!-- Node13&#45;&gt;Node5 -->
<g id="edge8" class="edge">
<title>Node13&#45;&gt;Node5</title>
<path fill="none" stroke="#404040" d="M433.2727,-237.2166C430.0592,-221.336 424.5877,-201.7106 415.5,-186 410.8938,-178.0369 405.516,-170.2495 399.6848,-162.7527"/>
<polygon fill="none" stroke="#404040" points="399.6608,-162.7232 392.7697,-160.5988 392.0802,-153.4207 398.9713,-155.5451 399.6608,-162.7232"/>
<text text-anchor="middle" x="481" y="-194.5" font-family="Helvetica,sans-Serif" font-size="10.00" fill="#000000"> #DATABASE_TIMEOUT</text>
</g>
</g>
</svg>
