<?xml version="1.0" encoding="UTF-8" standalone="no"?>
<!DOCTYPE svg PUBLIC "-//W3C//DTD SVG 1.1//EN"
 "http://www.w3.org/Graphics/SVG/1.1/DTD/svg11.dtd">
<!-- Generated by graphviz version 2.40.1 (20161225.0304)
 -->
<!-- Title: ene.views.gui.partial.PlayerView.render Pages: 1 -->
<svg width="550pt" height="507pt"
 viewBox="0.00 0.00 550.00 507.00" xmlns="http://www.w3.org/2000/svg" xmlns:xlink="http://www.w3.org/1999/xlink">
<g id="graph0" class="graph" transform="scale(1 1) rotate(0) translate(4 503)">
<title>ene.views.gui.partial.PlayerView.render</title>
<!-- Node40 -->
<g id="node1" class="node">
<title>Node40</title>
<polygon fill="#bfbfbf" stroke="#000000" points="0,-226.5 0,-256.5 137,-256.5 137,-226.5 0,-226.5"/>
<text text-anchor="start" x="8" y="-244.5" font-family="Helvetica,sans-Serif" font-size="10.00" fill="#000000">ene.views.gui.partial.Player</text>
<text text-anchor="middle" x="68.5" y="-233.5" font-family="Helvetica,sans-Serif" font-size="10.00" fill="#000000">View.render</text>
</g>
<!-- Node41 -->
<g id="node2" class="node">
<title>Node41</title>
<g id="a_node2"><a xlink:href="classene_1_1controllers_1_1PlayerController.html#a4431d7fb8789a039aba690fa30c7f76f" target="_top" xlink:title="ene.controllers.PlayerController.change\lTrackPosition">
<polygon fill="none" stroke="#000000" points="175.5,-395.5 175.5,-425.5 363.5,-425.5 363.5,-395.5 175.5,-395.5"/>
<text text-anchor="start" x="183.5" y="-413.5" font-family="Helvetica,sans-Serif" font-size="10.00" fill="#000000">ene.controllers.PlayerController.change</text>
<text text-anchor="middle" x="269.5" y="-402.5" font-family="Helvetica,sans-Serif" font-size="10.00" fill="#000000">TrackPosition</text>
</a>
</g>
</g>
<!-- Node40&#45;&gt;Node41 -->
<g id="edge1" class="edge">
<title>Node40&#45;&gt;Node41</title>
<path fill="none" stroke="#191970" d="M75.1472,-256.9576C88.8409,-286.8849 123.1484,-352.7565 173,-386.5 175.2674,-388.0347 177.6241,-389.4714 180.0506,-390.8163"/>
<polygon fill="#191970" stroke="#191970" points="178.5903,-393.9987 189.1055,-395.2956 181.6942,-387.7245 178.5903,-393.9987"/>
</g>
<!-- Node43 -->
<g id="node4" class="node">
<title>Node43</title>
<g id="a_node4"><a xlink:href="classene_1_1AbstractObject.html#aff9619cf289ec83735b6c6ca2c12e020" target="_top" xlink:title="ene.AbstractObject.debug\lInfoAbout">
<polygon fill="none" stroke="#000000" points="204.5,-444.5 204.5,-474.5 334.5,-474.5 334.5,-444.5 204.5,-444.5"/>
<text text-anchor="start" x="212.5" y="-462.5" font-family="Helvetica,sans-Serif" font-size="10.00" fill="#000000">ene.AbstractObject.debug</text>
<text text-anchor="middle" x="269.5" y="-451.5" font-family="Helvetica,sans-Serif" font-size="10.00" fill="#000000">InfoAbout</text>
</a>
</g>
</g>
<!-- Node40&#45;&gt;Node43 -->
<g id="edge3" class="edge">
<title>Node40&#45;&gt;Node43</title>
<path fill="none" stroke="#191970" d="M72.1239,-256.6065C81.7456,-293.3279 111.5093,-387.754 173,-435.5 179.4951,-440.5433 186.9141,-444.5407 194.6883,-447.7069"/>
<polygon fill="#191970" stroke="#191970" points="193.7145,-451.0762 204.3089,-451.171 196.086,-444.4901 193.7145,-451.0762"/>
</g>
<!-- Node46 -->
<g id="node7" class="node">
<title>Node46</title>
<g id="a_node7"><a xlink:href="classene_1_1views_1_1gui_1_1partial_1_1PlayerView.html#a7126e270c8cc5956e79773eddc508655" target="_top" xlink:title="ene.views.gui.partial.Player\lView.disablePlayerControls">
<polygon fill="none" stroke="#000000" points="201,-346.5 201,-376.5 338,-376.5 338,-346.5 201,-346.5"/>
<text text-anchor="start" x="209" y="-364.5" font-family="Helvetica,sans-Serif" font-size="10.00" fill="#000000">ene.views.gui.partial.Player</text>
<text text-anchor="middle" x="269.5" y="-353.5" font-family="Helvetica,sans-Serif" font-size="10.00" fill="#000000">View.disablePlayerControls</text>
</a>
</g>
</g>
<!-- Node40&#45;&gt;Node46 -->
<g id="edge6" class="edge">
<title>Node40&#45;&gt;Node46</title>
<path fill="none" stroke="#191970" d="M80.6339,-256.662C98.5454,-278.0009 134.1615,-316.6143 173,-337.5 178.823,-340.6313 185.0633,-343.3629 191.4659,-345.7442"/>
<polygon fill="#191970" stroke="#191970" points="190.3381,-349.0575 200.9327,-348.9883 192.6074,-342.4355 190.3381,-349.0575"/>
</g>
<!-- Node47 -->
<g id="node8" class="node">
<title>Node47</title>
<g id="a_node8"><a xlink:href="classene_1_1views_1_1gui_1_1partial_1_1PlayerView.html#a4dc768b48e41f0ea98929d8069ef790a" target="_top" xlink:title="ene.views.gui.partial.Player\lView.getPlayerController">
<polygon fill="none" stroke="#000000" points="201,-297.5 201,-327.5 338,-327.5 338,-297.5 201,-297.5"/>
<text text-anchor="start" x="209" y="-315.5" font-family="Helvetica,sans-Serif" font-size="10.00" fill="#000000">ene.views.gui.partial.Player</text>
<text text-anchor="middle" x="269.5" y="-304.5" font-family="Helvetica,sans-Serif" font-size="10.00" fill="#000000">View.getPlayerController</text>
</a>
</g>
</g>
<!-- Node40&#45;&gt;Node47 -->
<g id="edge7" class="edge">
<title>Node40&#45;&gt;Node47</title>
<path fill="none" stroke="#191970" d="M98.1041,-256.5286C118.718,-266.5649 147.0578,-279.5211 173,-288.5 179.3027,-290.6814 185.9007,-292.751 192.5615,-294.6929"/>
<polygon fill="#191970" stroke="#191970" points="191.7638,-298.1043 202.3381,-297.4446 193.6604,-291.3661 191.7638,-298.1043"/>
</g>
<!-- Node48 -->
<g id="node9" class="node">
<title>Node48</title>
<g id="a_node9"><a xlink:href="interfaceene_1_1interfaces_1_1Localization.html#ae7d5c65647a8bd1ca0c27b3279b0751c" target="_top" xlink:title="ene.interfaces.Localization.get\lString">
<polygon fill="none" stroke="#000000" points="195,-248.5 195,-278.5 344,-278.5 344,-248.5 195,-248.5"/>
<text text-anchor="start" x="203" y="-266.5" font-family="Helvetica,sans-Serif" font-size="10.00" fill="#000000">ene.interfaces.Localization.get</text>
<text text-anchor="middle" x="269.5" y="-255.5" font-family="Helvetica,sans-Serif" font-size="10.00" fill="#000000">String</text>
</a>
</g>
</g>
<!-- Node40&#45;&gt;Node48 -->
<g id="edge8" class="edge">
<title>Node40&#45;&gt;Node48</title>
<path fill="none" stroke="#191970" d="M137.1106,-249.0096C152.3171,-250.674 168.6103,-252.4573 184.3855,-254.184"/>
<polygon fill="#191970" stroke="#191970" points="184.3391,-257.6997 194.6606,-255.3086 185.1008,-250.7413 184.3391,-257.6997"/>
</g>
<!-- Node49 -->
<g id="node10" class="node">
<title>Node49</title>
<g id="a_node10"><a xlink:href="classene_1_1controllers_1_1PlayerController.html#a1ed7610fce44dd038ceb2ec2f27ab592" target="_top" xlink:title="ene.controllers.PlayerController.next">
<polygon fill="none" stroke="#000000" points="182,-210 182,-229 357,-229 357,-210 182,-210"/>
<text text-anchor="middle" x="269.5" y="-217" font-family="Helvetica,sans-Serif" font-size="10.00" fill="#000000">ene.controllers.PlayerController.next</text>
</a>
</g>
</g>
<!-- Node40&#45;&gt;Node49 -->
<g id="edge9" class="edge">
<title>Node40&#45;&gt;Node49</title>
<path fill="none" stroke="#191970" d="M137.1106,-233.9904C148.4833,-232.7456 160.4638,-231.4343 172.3808,-230.13"/>
<polygon fill="#191970" stroke="#191970" points="172.8017,-233.6049 182.3615,-229.0376 172.04,-226.6464 172.8017,-233.6049"/>
</g>
<!-- Node50 -->
<g id="node11" class="node">
<title>Node50</title>
<g id="a_node11"><a xlink:href="classene_1_1controllers_1_1PlayerController.html#a2a8538d9af877aedb5631917d1e5ffc3" target="_top" xlink:title="ene.controllers.PlayerController.previous">
<polygon fill="none" stroke="#000000" points="173,-172 173,-191 366,-191 366,-172 173,-172"/>
<text text-anchor="middle" x="269.5" y="-179" font-family="Helvetica,sans-Serif" font-size="10.00" fill="#000000">ene.controllers.PlayerController.previous</text>
</a>
</g>
</g>
<!-- Node40&#45;&gt;Node50 -->
<g id="edge11" class="edge">
<title>Node40&#45;&gt;Node50</title>
<path fill="none" stroke="#191970" d="M102.3201,-226.4439C122.5213,-217.9036 148.8676,-207.5479 173,-200.5 182.404,-197.7536 192.44,-195.2838 202.3522,-193.1047"/>
<polygon fill="#191970" stroke="#191970" points="203.1359,-196.5165 212.1953,-191.023 201.6875,-189.6679 203.1359,-196.5165"/>
</g>
<!-- Node51 -->
<g id="node12" class="node">
<title>Node51</title>
<g id="a_node12"><a xlink:href="classene_1_1views_1_1AbstractView.html#aa9bee221c279bc8a9dbada91184d8181" target="_top" xlink:title="ene.views.AbstractView.set\lCoreComponent">
<polygon fill="none" stroke="#000000" points="200,-122.5 200,-152.5 339,-152.5 339,-122.5 200,-122.5"/>
<text text-anchor="start" x="208" y="-140.5" font-family="Helvetica,sans-Serif" font-size="10.00" fill="#000000">ene.views.AbstractView.set</text>
<text text-anchor="middle" x="269.5" y="-129.5" font-family="Helvetica,sans-Serif" font-size="10.00" fill="#000000">CoreComponent</text>
</a>
</g>
</g>
<!-- Node40&#45;&gt;Node51 -->
<g id="edge13" class="edge">
<title>Node40&#45;&gt;Node51</title>
<path fill="none" stroke="#191970" d="M84.1716,-226.4422C103.5313,-208.6459 138.1924,-179.3314 173,-162.5 178.3899,-159.8937 184.0853,-157.5352 189.9051,-155.4053"/>
<polygon fill="#191970" stroke="#191970" points="191.4518,-158.5757 199.785,-152.033 189.1905,-151.951 191.4518,-158.5757"/>
</g>
<!-- Node52 -->
<g id="node13" class="node">
<title>Node52</title>
<g id="a_node13"><a xlink:href="classene_1_1controllers_1_1PlayerController.html#acea0cc4709105881026516d468c4baf8" target="_top" xlink:title="ene.controllers.PlayerController.toggle\lPlayback">
<polygon fill="none" stroke="#000000" points="178.5,-73.5 178.5,-103.5 360.5,-103.5 360.5,-73.5 178.5,-73.5"/>
<text text-anchor="start" x="186.5" y="-91.5" font-family="Helvetica,sans-Serif" font-size="10.00" fill="#000000">ene.controllers.PlayerController.toggle</text>
<text text-anchor="middle" x="269.5" y="-80.5" font-family="Helvetica,sans-Serif" font-size="10.00" fill="#000000">Playback</text>
</a>
</g>
</g>
<!-- Node40&#45;&gt;Node52 -->
<g id="edge14" class="edge">
<title>Node40&#45;&gt;Node52</title>
<path fill="none" stroke="#191970" d="M76.3079,-226.4911C91.2465,-199.32 126.5597,-142.0608 173,-112.5 175.6101,-110.8386 178.3277,-109.2922 181.1249,-107.8528"/>
<polygon fill="#191970" stroke="#191970" points="182.689,-110.9857 190.2953,-103.6104 179.7498,-104.6326 182.689,-110.9857"/>
</g>
<!-- Node53 -->
<g id="node14" class="node">
<title>Node53</title>
<g id="a_node14"><a xlink:href="classene_1_1views_1_1gui_1_1partial_1_1PlayerView.html#af324f1c0b5648dab2400b4c0ab33f3ca" target="_top" xlink:title="ene.views.gui.partial.Player\lView.updateProgress">
<polygon fill="none" stroke="#000000" points="201,-24.5 201,-54.5 338,-54.5 338,-24.5 201,-24.5"/>
<text text-anchor="start" x="209" y="-42.5" font-family="Helvetica,sans-Serif" font-size="10.00" fill="#000000">ene.views.gui.partial.Player</text>
<text text-anchor="middle" x="269.5" y="-31.5" font-family="Helvetica,sans-Serif" font-size="10.00" fill="#000000">View.updateProgress</text>
</a>
</g>
</g>
<!-- Node40&#45;&gt;Node53 -->
<g id="edge16" class="edge">
<title>Node40&#45;&gt;Node53</title>
<path fill="none" stroke="#191970" d="M72.9088,-226.3532C83.7886,-191.7604 115.3063,-106.6212 173,-63.5 178.4816,-59.403 184.5794,-55.9993 190.9711,-53.1725"/>
<polygon fill="#191970" stroke="#191970" points="192.478,-56.3411 200.5085,-49.4301 189.921,-49.8248 192.478,-56.3411"/>
</g>
<!-- Node42 -->
<g id="node3" class="node">
<title>Node42</title>
<g id="a_node3"><a xlink:href="classene_1_1controllers_1_1AbstractController.html#a9a5afba01d0004a64db4cb14c23e0bbd" target="_top" xlink:title="ene.controllers.Abstract\lController\&lt; PlayerModel\l \&gt;::getModel">
<polygon fill="none" stroke="#000000" points="411,-180 411,-221 533,-221 533,-180 411,-180"/>
<text text-anchor="start" x="419" y="-209" font-family="Helvetica,sans-Serif" font-size="10.00" fill="#000000">ene.controllers.Abstract</text>
<text text-anchor="start" x="419" y="-198" font-family="Helvetica,sans-Serif" font-size="10.00" fill="#000000">Controller&lt; PlayerModel</text>
<text text-anchor="middle" x="472" y="-187" font-family="Helvetica,sans-Serif" font-size="10.00" fill="#000000"> &gt;::getModel</text>
</a>
</g>
</g>
<!-- Node41&#45;&gt;Node42 -->
<g id="edge2" class="edge">
<title>Node41&#45;&gt;Node42</title>
<path fill="none" stroke="#191970" d="M351.2651,-395.4245C356.4848,-392.8919 361.4587,-389.94 366,-386.5 418.6876,-346.5892 449.3265,-272.3697 463.1244,-230.7683"/>
<polygon fill="#191970" stroke="#191970" points="466.4781,-231.7718 466.1968,-221.1806 459.812,-229.6355 466.4781,-231.7718"/>
</g>
<!-- Node44 -->
<g id="node5" class="node">
<title>Node44</title>
<g id="a_node5"><a xlink:href="classene_1_1AbstractObject.html#a9ce30d3321c7ce794df2f07bdaf3e47c" target="_top" xlink:title="ene.AbstractObject.console\lOutput">
<polygon fill="none" stroke="#000000" points="403.5,-468.5 403.5,-498.5 540.5,-498.5 540.5,-468.5 403.5,-468.5"/>
<text text-anchor="start" x="411.5" y="-486.5" font-family="Helvetica,sans-Serif" font-size="10.00" fill="#000000">ene.AbstractObject.console</text>
<text text-anchor="middle" x="472" y="-475.5" font-family="Helvetica,sans-Serif" font-size="10.00" fill="#000000">Output</text>
</a>
</g>
</g>
<!-- Node43&#45;&gt;Node44 -->
<g id="edge4" class="edge">
<title>Node43&#45;&gt;Node44</title>
<path fill="none" stroke="#191970" d="M334.6869,-467.2259C353.3938,-469.443 373.9899,-471.884 393.4132,-474.186"/>
<polygon fill="#191970" stroke="#191970" points="393.1047,-477.6739 403.4472,-475.3752 393.9286,-470.7225 393.1047,-477.6739"/>
</g>
<!-- Node45 -->
<g id="node6" class="node">
<title>Node45</title>
<g id="a_node6"><a xlink:href="classene_1_1AbstractObject.html#a6ee0b669069e0c3ee320a6cf41af24fe" target="_top" xlink:title="ene.AbstractObject.isDebug\lModeEnabled">
<polygon fill="none" stroke="#000000" points="402,-419.5 402,-449.5 542,-449.5 542,-419.5 402,-419.5"/>
<text text-anchor="start" x="410" y="-437.5" font-family="Helvetica,sans-Serif" font-size="10.00" fill="#000000">ene.AbstractObject.isDebug</text>
<text text-anchor="middle" x="472" y="-426.5" font-family="Helvetica,sans-Serif" font-size="10.00" fill="#000000">ModeEnabled</text>
</a>
</g>
</g>
<!-- Node43&#45;&gt;Node45 -->
<g id="edge5" class="edge">
<title>Node43&#45;&gt;Node45</title>
<path fill="none" stroke="#191970" d="M334.6869,-451.4522C352.818,-449.2138 372.7237,-446.7563 391.6163,-444.4239"/>
<polygon fill="#191970" stroke="#191970" points="392.1924,-447.8795 401.6882,-443.1805 391.3347,-440.9322 392.1924,-447.8795"/>
</g>
<!-- Node49&#45;&gt;Node42 -->
<g id="edge10" class="edge">
<title>Node49&#45;&gt;Node42</title>
<path fill="none" stroke="#191970" d="M357.1417,-211.2768C371.678,-209.9129 386.5954,-208.5133 400.666,-207.1931"/>
<polygon fill="#191970" stroke="#191970" points="401.115,-210.6664 410.7443,-206.2474 400.461,-203.697 401.115,-210.6664"/>
</g>
<!-- Node50&#45;&gt;Node42 -->
<g id="edge12" class="edge">
<title>Node50&#45;&gt;Node42</title>
<path fill="none" stroke="#191970" d="M366.0055,-190.5548C377.7043,-191.6525 389.4877,-192.7581 400.7293,-193.8129"/>
<polygon fill="#191970" stroke="#191970" points="400.5996,-197.316 410.8828,-194.7655 401.2536,-190.3466 400.5996,-197.316"/>
</g>
<!-- Node52&#45;&gt;Node42 -->
<g id="edge15" class="edge">
<title>Node52&#45;&gt;Node42</title>
<path fill="none" stroke="#191970" d="M344.4825,-103.5625C351.9229,-106.1121 359.2218,-109.0712 366,-112.5 396.28,-127.8172 425.5542,-153.1849 445.6373,-172.7586"/>
<polygon fill="#191970" stroke="#191970" points="443.3071,-175.3773 452.8673,-179.9438 448.2414,-170.4121 443.3071,-175.3773"/>
</g>
<!-- Node54 -->
<g id="node15" class="node">
<title>Node54</title>
<g id="a_node15"><a xlink:href="classene_1_1views_1_1AbstractPartialView.html#afb90f9e02eea94a2fb276d711a67ee36" target="_top" xlink:title="ene.views.AbstractPartial\lView.getModel">
<polygon fill="none" stroke="#000000" points="408,-49.5 408,-79.5 536,-79.5 536,-49.5 408,-49.5"/>
<text text-anchor="start" x="416" y="-67.5" font-family="Helvetica,sans-Serif" font-size="10.00" fill="#000000">ene.views.AbstractPartial</text>
<text text-anchor="middle" x="472" y="-56.5" font-family="Helvetica,sans-Serif" font-size="10.00" fill="#000000">View.getModel</text>
</a>
</g>
</g>
<!-- Node53&#45;&gt;Node54 -->
<g id="edge17" class="edge">
<title>Node53&#45;&gt;Node54</title>
<path fill="none" stroke="#191970" d="M338.0573,-47.9639C357.3058,-50.3402 378.3202,-52.9346 397.8769,-55.349"/>
<polygon fill="#191970" stroke="#191970" points="397.6003,-58.8413 407.9538,-56.5931 398.458,-51.8941 397.6003,-58.8413"/>
</g>
<!-- Node55 -->
<g id="node16" class="node">
<title>Node55</title>
<g id="a_node16"><a xlink:href="classene_1_1views_1_1gui_1_1partial_1_1PlayerView.html#a5214bb8084cfb78242868039e33f78ef" target="_top" xlink:title="ene.views.gui.partial.Player\lView.formatTimeToString">
<polygon fill="none" stroke="#000000" points="403.5,-.5 403.5,-30.5 540.5,-30.5 540.5,-.5 403.5,-.5"/>
<text text-anchor="start" x="411.5" y="-18.5" font-family="Helvetica,sans-Serif" font-size="10.00" fill="#000000">ene.views.gui.partial.Player</text>
<text text-anchor="middle" x="472" y="-7.5" font-family="Helvetica,sans-Serif" font-size="10.00" fill="#000000">View.formatTimeToString</text>
</a>
</g>
</g>
<!-- Node53&#45;&gt;Node55 -->
<g id="edge18" class="edge">
<title>Node53&#45;&gt;Node55</title>
<path fill="none" stroke="#191970" d="M338.0573,-31.3747C355.7738,-29.275 374.9864,-26.9979 393.1813,-24.8415"/>
<polygon fill="#191970" stroke="#191970" points="393.6505,-28.3105 403.169,-23.6577 392.8265,-21.3591 393.6505,-28.3105"/>
</g>
</g>
</svg>
