<?xml version="1.0" encoding="UTF-8" standalone="no"?>
<!DOCTYPE svg PUBLIC "-//W3C//DTD SVG 1.1//EN"
 "http://www.w3.org/Graphics/SVG/1.1/DTD/svg11.dtd">
<!-- Generated by graphviz version 2.40.1 (20161225.0304)
 -->
<!-- Title: ene.AbstractObject.isDebugModeEnabled Pages: 1 -->
<svg width="506pt" height="242pt"
 viewBox="0.00 0.00 506.00 241.50" xmlns="http://www.w3.org/2000/svg" xmlns:xlink="http://www.w3.org/1999/xlink">
<g id="graph0" class="graph" transform="scale(1 1) rotate(0) translate(4 237.5)">
<title>ene.AbstractObject.isDebugModeEnabled</title>
<!-- Node34 -->
<g id="node1" class="node">
<title>Node34</title>
<polygon fill="#bfbfbf" stroke="#000000" points="0,-104.5 0,-134.5 140,-134.5 140,-104.5 0,-104.5"/>
<text text-anchor="start" x="8" y="-122.5" font-family="Helvetica,sans-Serif" font-size="10.00" fill="#000000">ene.AbstractObject.isDebug</text>
<text text-anchor="middle" x="70" y="-111.5" font-family="Helvetica,sans-Serif" font-size="10.00" fill="#000000">ModeEnabled</text>
</g>
<!-- Node35 -->
<g id="node2" class="node">
<title>Node35</title>
<g id="a_node2"><a xlink:href="classene_1_1AbstractObject.html#aff9619cf289ec83735b6c6ca2c12e020" target="_top" xlink:title="ene.AbstractObject.debug\lInfoAbout">
<polygon fill="none" stroke="#000000" points="176,-104.5 176,-134.5 306,-134.5 306,-104.5 176,-104.5"/>
<text text-anchor="start" x="184" y="-122.5" font-family="Helvetica,sans-Serif" font-size="10.00" fill="#000000">ene.AbstractObject.debug</text>
<text text-anchor="middle" x="241" y="-111.5" font-family="Helvetica,sans-Serif" font-size="10.00" fill="#000000">InfoAbout</text>
</a>
</g>
</g>
<!-- Node34&#45;&gt;Node35 -->
<g id="edge1" class="edge">
<title>Node34&#45;&gt;Node35</title>
<path fill="none" stroke="#191970" d="M150.0825,-119.5C158.679,-119.5 167.3487,-119.5 175.7424,-119.5"/>
<polygon fill="#191970" stroke="#191970" points="150.0457,-116.0001 140.0456,-119.5 150.0456,-123.0001 150.0457,-116.0001"/>
</g>
<!-- Node36 -->
<g id="node3" class="node">
<title>Node36</title>
<g id="a_node3"><a xlink:href="classene_1_1models_1_1PlayerModel.html#a2c4655428b658dee3203787415a516a5" target="_top" xlink:title="ene.models.PlayerModel.load">
<polygon fill="none" stroke="#000000" points="347.5,-214 347.5,-233 492.5,-233 492.5,-214 347.5,-214"/>
<text text-anchor="middle" x="420" y="-221" font-family="Helvetica,sans-Serif" font-size="10.00" fill="#000000">ene.models.PlayerModel.load</text>
</a>
</g>
</g>
<!-- Node35&#45;&gt;Node36 -->
<g id="edge2" class="edge">
<title>Node35&#45;&gt;Node36</title>
<path fill="none" stroke="#191970" d="M261.4781,-141.7752C280.5189,-161.1612 310.6013,-188.5797 342,-204.5 349.5829,-208.3448 357.9808,-211.4361 366.3747,-213.9147"/>
<polygon fill="#191970" stroke="#191970" points="263.9577,-139.3043 254.5019,-134.5254 258.9137,-144.158 263.9577,-139.3043"/>
</g>
<!-- Node37 -->
<g id="node4" class="node">
<title>Node37</title>
<g id="a_node4"><a xlink:href="classene_1_1models_1_1PlayerModel.html#afdcaa5e17ecdfbccad3ac8e702914e00" target="_top" xlink:title="ene.models.PlayerModel.pause">
<polygon fill="none" stroke="#000000" points="343.5,-176 343.5,-195 496.5,-195 496.5,-176 343.5,-176"/>
<text text-anchor="middle" x="420" y="-183" font-family="Helvetica,sans-Serif" font-size="10.00" fill="#000000">ene.models.PlayerModel.pause</text>
</a>
</g>
</g>
<!-- Node35&#45;&gt;Node37 -->
<g id="edge3" class="edge">
<title>Node35&#45;&gt;Node37</title>
<path fill="none" stroke="#191970" d="M278.6056,-139.1526C297.3012,-148.3632 320.454,-158.9452 342,-166.5 352.259,-170.0971 363.5075,-173.2661 374.1901,-175.9339"/>
<polygon fill="#191970" stroke="#191970" points="280.0505,-135.962 269.5406,-134.6228 276.9214,-142.2237 280.0505,-135.962"/>
</g>
<!-- Node38 -->
<g id="node5" class="node">
<title>Node38</title>
<g id="a_node5"><a xlink:href="classene_1_1views_1_1gui_1_1partial_1_1PlayerView.html#a7e28fb299fee46d221d3224ffb87ea35" target="_top" xlink:title="ene.views.gui.partial.Player\lView.render">
<polygon fill="none" stroke="#000000" points="351.5,-126.5 351.5,-156.5 488.5,-156.5 488.5,-126.5 351.5,-126.5"/>
<text text-anchor="start" x="359.5" y="-144.5" font-family="Helvetica,sans-Serif" font-size="10.00" fill="#000000">ene.views.gui.partial.Player</text>
<text text-anchor="middle" x="420" y="-133.5" font-family="Helvetica,sans-Serif" font-size="10.00" fill="#000000">View.render</text>
</a>
</g>
</g>
<!-- Node35&#45;&gt;Node38 -->
<g id="edge4" class="edge">
<title>Node35&#45;&gt;Node38</title>
<path fill="none" stroke="#191970" d="M316.2427,-128.7477C327.8707,-130.1769 339.8283,-131.6465 351.3029,-133.0568"/>
<polygon fill="#191970" stroke="#191970" points="316.4818,-125.2508 306.1295,-127.5047 315.6278,-132.1986 316.4818,-125.2508"/>
</g>
<!-- Node39 -->
<g id="node6" class="node">
<title>Node39</title>
<g id="a_node6"><a xlink:href="classene_1_1models_1_1PlayerModel.html#a7d0471082171de01773a1da88cb3652d" target="_top" xlink:title="ene.models.PlayerModel.start">
<polygon fill="none" stroke="#000000" points="347,-88 347,-107 493,-107 493,-88 347,-88"/>
<text text-anchor="middle" x="420" y="-95" font-family="Helvetica,sans-Serif" font-size="10.00" fill="#000000">ene.models.PlayerModel.start</text>
</a>
</g>
</g>
<!-- Node35&#45;&gt;Node39 -->
<g id="edge5" class="edge">
<title>Node35&#45;&gt;Node39</title>
<path fill="none" stroke="#191970" d="M316.1493,-110.2638C326.2728,-109.0195 336.6478,-107.7444 346.7379,-106.5043"/>
<polygon fill="#191970" stroke="#191970" points="315.6278,-106.8014 306.1295,-111.4953 316.4818,-113.7492 315.6278,-106.8014"/>
</g>
<!-- Node40 -->
<g id="node7" class="node">
<title>Node40</title>
<g id="a_node7"><a xlink:href="classene_1_1models_1_1PlayerModel.html#a108968d6fd2beb7e322bba50028d32b1" target="_top" xlink:title="ene.models.PlayerModel.update">
<polygon fill="none" stroke="#000000" points="342,-50 342,-69 498,-69 498,-50 342,-50"/>
<text text-anchor="middle" x="420" y="-57" font-family="Helvetica,sans-Serif" font-size="10.00" fill="#000000">ene.models.PlayerModel.update</text>
</a>
</g>
</g>
<!-- Node35&#45;&gt;Node40 -->
<g id="edge6" class="edge">
<title>Node35&#45;&gt;Node40</title>
<path fill="none" stroke="#191970" d="M284.1552,-100.3552C301.8635,-92.9282 322.7021,-84.7301 342,-78.5 352.8761,-74.9888 364.7875,-71.7775 375.9551,-69.0343"/>
<polygon fill="#191970" stroke="#191970" points="282.5047,-97.2535 274.669,-104.3845 285.2415,-103.6964 282.5047,-97.2535"/>
</g>
<!-- Node41 -->
<g id="node8" class="node">
<title>Node41</title>
<g id="a_node8"><a xlink:href="classene_1_1views_1_1gui_1_1partial_1_1AbstractTrackListView.html#aebe5720136b8b2215b6ad365c723843e" target="_top" xlink:title="ene.views.gui.partial.Abstract\lTrackListView.valueChanged">
<polygon fill="none" stroke="#000000" points="347,-.5 347,-30.5 493,-30.5 493,-.5 347,-.5"/>
<text text-anchor="start" x="355" y="-18.5" font-family="Helvetica,sans-Serif" font-size="10.00" fill="#000000">ene.views.gui.partial.Abstract</text>
<text text-anchor="middle" x="420" y="-7.5" font-family="Helvetica,sans-Serif" font-size="10.00" fill="#000000">TrackListView.valueChanged</text>
</a>
</g>
</g>
<!-- Node35&#45;&gt;Node41 -->
<g id="edge7" class="edge">
<title>Node35&#45;&gt;Node41</title>
<path fill="none" stroke="#191970" d="M264.003,-97.6041C283.4642,-80.0864 312.7777,-55.9734 342,-40.5 349.0376,-36.7735 356.7287,-33.4811 364.4506,-30.6111"/>
<polygon fill="#191970" stroke="#191970" points="261.5596,-95.0958 256.5462,-104.4294 266.2859,-100.2594 261.5596,-95.0958"/>
</g>
</g>
</svg>
