<?xml version="1.0" encoding="UTF-8" standalone="no"?>
<!DOCTYPE svg PUBLIC "-//W3C//DTD SVG 1.1//EN"
 "http://www.w3.org/Graphics/SVG/1.1/DTD/svg11.dtd">
<!-- Generated by graphviz version 2.40.1 (20161225.0304)
 -->
<!-- Title: ene.views.gui.partial.ContentView Pages: 1 -->
<svg width="744pt" height="674pt"
 viewBox="0.00 0.00 744.00 674.00" xmlns="http://www.w3.org/2000/svg" xmlns:xlink="http://www.w3.org/1999/xlink">
<g id="graph0" class="graph" transform="scale(1 1) rotate(0) translate(4 670)">
<title>ene.views.gui.partial.ContentView</title>
<!-- Node7 -->
<g id="node1" class="node">
<title>Node7</title>
<polygon fill="#bfbfbf" stroke="#000000" points="261.5,-.5 261.5,-68.5 426.5,-68.5 426.5,-.5 261.5,-.5"/>
<text text-anchor="middle" x="344" y="-56.5" font-family="Helvetica,sans-Serif" font-size="10.00" fill="#000000">ene.views.gui.partial.ContentView</text>
<polyline fill="none" stroke="#000000" points="261.5,-49.5 426.5,-49.5 "/>
<text text-anchor="middle" x="344" y="-37.5" font-family="Helvetica,sans-Serif" font-size="10.00" fill="#000000"> </text>
<polyline fill="none" stroke="#000000" points="261.5,-30.5 426.5,-30.5 "/>
<text text-anchor="start" x="269.5" y="-18.5" font-family="Helvetica,sans-Serif" font-size="10.00" fill="#000000">+ ContentView()</text>
<text text-anchor="start" x="269.5" y="-7.5" font-family="Helvetica,sans-Serif" font-size="10.00" fill="#000000">+ render()</text>
</g>
<!-- Node8 -->
<g id="node2" class="node">
<title>Node8</title>
<g id="a_node2"><a xlink:href="classene_1_1views_1_1AbstractMasterView.html" target="_top" xlink:title="{ene::views::AbstractMaster\lView\&lt; JTabbedPane \&gt;\n||+ addView()\l+ setAllViews()\l+ getAllViews()\l}">
<polygon fill="none" stroke="#000000" points="275.5,-106.5 275.5,-196.5 412.5,-196.5 412.5,-106.5 275.5,-106.5"/>
<text text-anchor="start" x="283.5" y="-184.5" font-family="Helvetica,sans-Serif" font-size="10.00" fill="#000000">ene::views::AbstractMaster</text>
<text text-anchor="middle" x="344" y="-173.5" font-family="Helvetica,sans-Serif" font-size="10.00" fill="#000000">View&lt; JTabbedPane &gt;</text>
<polyline fill="none" stroke="#000000" points="275.5,-166.5 412.5,-166.5 "/>
<text text-anchor="middle" x="344" y="-154.5" font-family="Helvetica,sans-Serif" font-size="10.00" fill="#000000"> </text>
<polyline fill="none" stroke="#000000" points="275.5,-147.5 412.5,-147.5 "/>
<text text-anchor="start" x="283.5" y="-135.5" font-family="Helvetica,sans-Serif" font-size="10.00" fill="#000000">+ addView()</text>
<text text-anchor="start" x="283.5" y="-124.5" font-family="Helvetica,sans-Serif" font-size="10.00" fill="#000000">+ setAllViews()</text>
<text text-anchor="start" x="283.5" y="-113.5" font-family="Helvetica,sans-Serif" font-size="10.00" fill="#000000">+ getAllViews()</text>
</a>
</g>
</g>
<!-- Node8&#45;&gt;Node7 -->
<g id="edge1" class="edge">
<title>Node8&#45;&gt;Node7</title>
<path fill="none" stroke="#191970" d="M344,-96.1895C344,-86.8229 344,-77.3469 344,-68.7259"/>
<polygon fill="none" stroke="#191970" points="340.5001,-96.2647 344,-106.2647 347.5001,-96.2648 340.5001,-96.2647"/>
</g>
<!-- Node9 -->
<g id="node3" class="node">
<title>Node9</title>
<g id="a_node3"><a xlink:href="classene_1_1views_1_1AbstractView.html" target="_top" xlink:title="{ene::views::AbstractView\l\&lt; CoreComponentType \&gt;\n||+ setTitle()\l+ getTitle()\l+ setCoreComponent()\l+ getCoreComponent()\l+ setLayoutPosition()\l+ getLayoutPosition()\l}">
<polygon fill="none" stroke="#000000" points="280,-244.5 280,-367.5 408,-367.5 408,-244.5 280,-244.5"/>
<text text-anchor="start" x="288" y="-355.5" font-family="Helvetica,sans-Serif" font-size="10.00" fill="#000000">ene::views::AbstractView</text>
<text text-anchor="middle" x="344" y="-344.5" font-family="Helvetica,sans-Serif" font-size="10.00" fill="#000000">&lt; CoreComponentType &gt;</text>
<polyline fill="none" stroke="#000000" points="280,-337.5 408,-337.5 "/>
<text text-anchor="middle" x="344" y="-325.5" font-family="Helvetica,sans-Serif" font-size="10.00" fill="#000000"> </text>
<polyline fill="none" stroke="#000000" points="280,-318.5 408,-318.5 "/>
<text text-anchor="start" x="288" y="-306.5" font-family="Helvetica,sans-Serif" font-size="10.00" fill="#000000">+ setTitle()</text>
<text text-anchor="start" x="288" y="-295.5" font-family="Helvetica,sans-Serif" font-size="10.00" fill="#000000">+ getTitle()</text>
<text text-anchor="start" x="288" y="-284.5" font-family="Helvetica,sans-Serif" font-size="10.00" fill="#000000">+ setCoreComponent()</text>
<text text-anchor="start" x="288" y="-273.5" font-family="Helvetica,sans-Serif" font-size="10.00" fill="#000000">+ getCoreComponent()</text>
<text text-anchor="start" x="288" y="-262.5" font-family="Helvetica,sans-Serif" font-size="10.00" fill="#000000">+ setLayoutPosition()</text>
<text text-anchor="start" x="288" y="-251.5" font-family="Helvetica,sans-Serif" font-size="10.00" fill="#000000">+ getLayoutPosition()</text>
</a>
</g>
</g>
<!-- Node9&#45;&gt;Node8 -->
<g id="edge2" class="edge">
<title>Node9&#45;&gt;Node8</title>
<path fill="none" stroke="#191970" d="M344,-234.2776C344,-221.4506 344,-208.4193 344,-196.608"/>
<polygon fill="none" stroke="#191970" points="340.5001,-234.4935 344,-244.4936 347.5001,-234.4936 340.5001,-234.4935"/>
</g>
<!-- Node10 -->
<g id="node4" class="node">
<title>Node10</title>
<g id="a_node4"><a xlink:href="classene_1_1AbstractObject.html" target="_top" xlink:title="{ene.AbstractObject\n||+ enableDebugMode()\l+ disableDebugMode()\l+ isDebugModeEnabled()\l+ debugInfoAbout()\l+ consoleOutput()\l# delay()\l}">
<polygon fill="none" stroke="#000000" points="274.5,-437.5 274.5,-549.5 401.5,-549.5 401.5,-437.5 274.5,-437.5"/>
<text text-anchor="middle" x="338" y="-537.5" font-family="Helvetica,sans-Serif" font-size="10.00" fill="#000000">ene.AbstractObject</text>
<polyline fill="none" stroke="#000000" points="274.5,-530.5 401.5,-530.5 "/>
<text text-anchor="middle" x="338" y="-518.5" font-family="Helvetica,sans-Serif" font-size="10.00" fill="#000000"> </text>
<polyline fill="none" stroke="#000000" points="274.5,-511.5 401.5,-511.5 "/>
<text text-anchor="start" x="282.5" y="-499.5" font-family="Helvetica,sans-Serif" font-size="10.00" fill="#000000">+ enableDebugMode()</text>
<text text-anchor="start" x="282.5" y="-488.5" font-family="Helvetica,sans-Serif" font-size="10.00" fill="#000000">+ disableDebugMode()</text>
<text text-anchor="start" x="282.5" y="-477.5" font-family="Helvetica,sans-Serif" font-size="10.00" fill="#000000">+ isDebugModeEnabled()</text>
<text text-anchor="start" x="282.5" y="-466.5" font-family="Helvetica,sans-Serif" font-size="10.00" fill="#000000">+ debugInfoAbout()</text>
<text text-anchor="start" x="282.5" y="-455.5" font-family="Helvetica,sans-Serif" font-size="10.00" fill="#000000">+ consoleOutput()</text>
<text text-anchor="start" x="282.5" y="-444.5" font-family="Helvetica,sans-Serif" font-size="10.00" fill="#000000"># delay()</text>
</a>
</g>
</g>
<!-- Node10&#45;&gt;Node9 -->
<g id="edge3" class="edge">
<title>Node10&#45;&gt;Node9</title>
<path fill="none" stroke="#191970" d="M340.1122,-427.4946C340.7353,-408.0213 341.4146,-386.7928 342.0286,-367.6075"/>
<polygon fill="none" stroke="#191970" points="336.6138,-427.3909 339.7921,-437.4978 343.6102,-427.6149 336.6138,-427.3909"/>
</g>
<!-- Node11 -->
<g id="node5" class="node">
<title>Node11</title>
<polygon fill="none" stroke="#bfbfbf" points="299.5,-608.5 299.5,-665.5 376.5,-665.5 376.5,-608.5 299.5,-608.5"/>
<text text-anchor="middle" x="338" y="-653.5" font-family="Helvetica,sans-Serif" font-size="10.00" fill="#000000">static boolean</text>
<polyline fill="none" stroke="#bfbfbf" points="299.5,-646.5 376.5,-646.5 "/>
<text text-anchor="middle" x="338" y="-634.5" font-family="Helvetica,sans-Serif" font-size="10.00" fill="#000000"> </text>
<polyline fill="none" stroke="#bfbfbf" points="299.5,-627.5 376.5,-627.5 "/>
<text text-anchor="middle" x="338" y="-615.5" font-family="Helvetica,sans-Serif" font-size="10.00" fill="#000000"> </text>
</g>
<!-- Node11&#45;&gt;Node10 -->
<g id="edge4" class="edge">
<title>Node11&#45;&gt;Node10</title>
<path fill="none" stroke="#404040" d="M338,-608.3055C338,-594.9442 338,-578.4218 338,-562.1157"/>
<polygon fill="none" stroke="#404040" points="338.0001,-561.7445 334,-555.7445 338,-549.7445 342,-555.7444 338.0001,-561.7445"/>
<text text-anchor="middle" x="385" y="-582" font-family="Helvetica,sans-Serif" font-size="10.00" fill="#000000"> #debugModeEnabled</text>
</g>
<!-- Node12 -->
<g id="node6" class="node">
<title>Node12</title>
<g id="a_node6"><a xlink:href="interfaceene_1_1interfaces_1_1View.html" target="_top" xlink:title="{ene::interfaces::View\l\&lt; CoreComponentType \&gt;\n||+ setTitle()\l+ getTitle()\l+ setCoreComponent()\l+ getCoreComponent()\l+ setLayoutPosition()\l+ getLayoutPosition()\l+ render()\l}">
<polygon fill="none" stroke="#000000" points="128,-426.5 128,-560.5 256,-560.5 256,-426.5 128,-426.5"/>
<text text-anchor="start" x="136" y="-548.5" font-family="Helvetica,sans-Serif" font-size="10.00" fill="#000000">ene::interfaces::View</text>
<text text-anchor="middle" x="192" y="-537.5" font-family="Helvetica,sans-Serif" font-size="10.00" fill="#000000">&lt; CoreComponentType &gt;</text>
<polyline fill="none" stroke="#000000" points="128,-530.5 256,-530.5 "/>
<text text-anchor="middle" x="192" y="-518.5" font-family="Helvetica,sans-Serif" font-size="10.00" fill="#000000"> </text>
<polyline fill="none" stroke="#000000" points="128,-511.5 256,-511.5 "/>
<text text-anchor="start" x="136" y="-499.5" font-family="Helvetica,sans-Serif" font-size="10.00" fill="#000000">+ setTitle()</text>
<text text-anchor="start" x="136" y="-488.5" font-family="Helvetica,sans-Serif" font-size="10.00" fill="#000000">+ getTitle()</text>
<text text-anchor="start" x="136" y="-477.5" font-family="Helvetica,sans-Serif" font-size="10.00" fill="#000000">+ setCoreComponent()</text>
<text text-anchor="start" x="136" y="-466.5" font-family="Helvetica,sans-Serif" font-size="10.00" fill="#000000">+ getCoreComponent()</text>
<text text-anchor="start" x="136" y="-455.5" font-family="Helvetica,sans-Serif" font-size="10.00" fill="#000000">+ setLayoutPosition()</text>
<text text-anchor="start" x="136" y="-444.5" font-family="Helvetica,sans-Serif" font-size="10.00" fill="#000000">+ getLayoutPosition()</text>
<text text-anchor="start" x="136" y="-433.5" font-family="Helvetica,sans-Serif" font-size="10.00" fill="#000000">+ render()</text>
</a>
</g>
</g>
<!-- Node12&#45;&gt;Node9 -->
<g id="edge5" class="edge">
<title>Node12&#45;&gt;Node9</title>
<path fill="none" stroke="#191970" d="M253.0561,-418.184C266.6459,-401.4204 280.8993,-383.838 293.9844,-367.6968"/>
<polygon fill="none" stroke="#191970" points="250.0247,-416.3656 246.4462,-426.3378 255.4624,-420.7738 250.0247,-416.3656"/>
</g>
<!-- Node17 -->
<g id="node11" class="node">
<title>Node17</title>
<g id="a_node11"><a xlink:href="interfaceene_1_1interfaces_1_1MasterView.html" target="_top" xlink:title="{ene::interfaces::MasterView\l\&lt; CoreComponentType \&gt;\n||+ addView()\l+ setAllViews()\l+ getAllViews()\l}">
<polygon fill="none" stroke="#000000" points="122.5,-261 122.5,-351 261.5,-351 261.5,-261 122.5,-261"/>
<text text-anchor="start" x="130.5" y="-339" font-family="Helvetica,sans-Serif" font-size="10.00" fill="#000000">ene::interfaces::MasterView</text>
<text text-anchor="middle" x="192" y="-328" font-family="Helvetica,sans-Serif" font-size="10.00" fill="#000000">&lt; CoreComponentType &gt;</text>
<polyline fill="none" stroke="#000000" points="122.5,-321 261.5,-321 "/>
<text text-anchor="middle" x="192" y="-309" font-family="Helvetica,sans-Serif" font-size="10.00" fill="#000000"> </text>
<polyline fill="none" stroke="#000000" points="122.5,-302 261.5,-302 "/>
<text text-anchor="start" x="130.5" y="-290" font-family="Helvetica,sans-Serif" font-size="10.00" fill="#000000">+ addView()</text>
<text text-anchor="start" x="130.5" y="-279" font-family="Helvetica,sans-Serif" font-size="10.00" fill="#000000">+ setAllViews()</text>
<text text-anchor="start" x="130.5" y="-268" font-family="Helvetica,sans-Serif" font-size="10.00" fill="#000000">+ getAllViews()</text>
</a>
</g>
</g>
<!-- Node12&#45;&gt;Node17 -->
<g id="edge11" class="edge">
<title>Node12&#45;&gt;Node17</title>
<path fill="none" stroke="#191970" d="M192,-416.2463C192,-394.0466 192,-370.5727 192,-351.0171"/>
<polygon fill="none" stroke="#191970" points="188.5001,-416.3378 192,-426.3378 195.5001,-416.3378 188.5001,-416.3378"/>
</g>
<!-- Node13 -->
<g id="node7" class="node">
<title>Node13</title>
<g id="a_node7"><a xlink:href="interfaceene_1_1interfaces_1_1Localization.html" target="_top" xlink:title="{ene.interfaces.Localization\n||+ getString()\l}">
<polygon fill="none" stroke="#000000" points="419.5,-465 419.5,-522 552.5,-522 552.5,-465 419.5,-465"/>
<text text-anchor="middle" x="486" y="-510" font-family="Helvetica,sans-Serif" font-size="10.00" fill="#000000">ene.interfaces.Localization</text>
<polyline fill="none" stroke="#000000" points="419.5,-503 552.5,-503 "/>
<text text-anchor="middle" x="486" y="-491" font-family="Helvetica,sans-Serif" font-size="10.00" fill="#000000"> </text>
<polyline fill="none" stroke="#000000" points="419.5,-484 552.5,-484 "/>
<text text-anchor="start" x="427.5" y="-472" font-family="Helvetica,sans-Serif" font-size="10.00" fill="#000000">+ getString()</text>
</a>
</g>
</g>
<!-- Node13&#45;&gt;Node9 -->
<g id="edge6" class="edge">
<title>Node13&#45;&gt;Node9</title>
<path fill="none" stroke="#191970" d="M457.888,-456.3803C438.7015,-431.046 412.8325,-396.888 390.5983,-367.5294"/>
<polygon fill="none" stroke="#191970" points="455.2962,-458.7553 464.1237,-464.614 460.8765,-454.5291 455.2962,-458.7553"/>
</g>
<!-- Node14 -->
<g id="node8" class="node">
<title>Node14</title>
<polygon fill="none" stroke="#bfbfbf" points="441,-608.5 441,-665.5 531,-665.5 531,-608.5 441,-608.5"/>
<text text-anchor="middle" x="486" y="-653.5" font-family="Helvetica,sans-Serif" font-size="10.00" fill="#000000">static final String</text>
<polyline fill="none" stroke="#bfbfbf" points="441,-646.5 531,-646.5 "/>
<text text-anchor="middle" x="486" y="-634.5" font-family="Helvetica,sans-Serif" font-size="10.00" fill="#000000"> </text>
<polyline fill="none" stroke="#bfbfbf" points="441,-627.5 531,-627.5 "/>
<text text-anchor="middle" x="486" y="-615.5" font-family="Helvetica,sans-Serif" font-size="10.00" fill="#000000"> </text>
</g>
<!-- Node14&#45;&gt;Node13 -->
<g id="edge7" class="edge">
<title>Node14&#45;&gt;Node13</title>
<path fill="none" stroke="#404040" d="M486,-608.3055C486,-587.0904 486,-557.9058 486,-534.2714"/>
<polygon fill="none" stroke="#404040" points="486.0001,-534.1447 482,-528.1448 486,-522.1447 490,-528.1447 486.0001,-534.1447"/>
<text text-anchor="middle" x="536" y="-582" font-family="Helvetica,sans-Serif" font-size="10.00" fill="#000000"> +DEFAULT_LOCALE</text>
</g>
<!-- Node15 -->
<g id="node9" class="node">
<title>Node15</title>
<polygon fill="none" stroke="#bfbfbf" points="571,-465 571,-522 613,-522 613,-465 571,-465"/>
<text text-anchor="middle" x="592" y="-510" font-family="Helvetica,sans-Serif" font-size="10.00" fill="#000000">String</text>
<polyline fill="none" stroke="#bfbfbf" points="571,-503 613,-503 "/>
<text text-anchor="middle" x="592" y="-491" font-family="Helvetica,sans-Serif" font-size="10.00" fill="#000000"> </text>
<polyline fill="none" stroke="#bfbfbf" points="571,-484 613,-484 "/>
<text text-anchor="middle" x="592" y="-472" font-family="Helvetica,sans-Serif" font-size="10.00" fill="#000000"> </text>
</g>
<!-- Node15&#45;&gt;Node9 -->
<g id="edge8" class="edge">
<title>Node15&#45;&gt;Node9</title>
<path fill="none" stroke="#404040" d="M583.4564,-464.8555C578.4945,-451.8518 571.1756,-436.9646 561,-426 522.0423,-384.0215 464.975,-353.2668 419.1397,-333.4068"/>
<polygon fill="none" stroke="#404040" points="419.1,-333.39 412.0158,-334.7373 408.0475,-328.7162 415.1317,-327.369 419.1,-333.39"/>
<text text-anchor="middle" x="577" y="-400" font-family="Helvetica,sans-Serif" font-size="10.00" fill="#000000"> #layoutPosition</text>
<text text-anchor="middle" x="577" y="-389" font-family="Helvetica,sans-Serif" font-size="10.00" fill="#000000">#title</text>
</g>
<!-- Node16 -->
<g id="node10" class="node">
<title>Node16</title>
<polygon fill="none" stroke="#bfbfbf" points="0,-465 0,-522 110,-522 110,-465 0,-465"/>
<text text-anchor="middle" x="55" y="-510" font-family="Helvetica,sans-Serif" font-size="10.00" fill="#000000">CoreComponentType</text>
<polyline fill="none" stroke="#bfbfbf" points="0,-503 110,-503 "/>
<text text-anchor="middle" x="55" y="-491" font-family="Helvetica,sans-Serif" font-size="10.00" fill="#000000"> </text>
<polyline fill="none" stroke="#bfbfbf" points="0,-484 110,-484 "/>
<text text-anchor="middle" x="55" y="-472" font-family="Helvetica,sans-Serif" font-size="10.00" fill="#000000"> </text>
</g>
<!-- Node16&#45;&gt;Node9 -->
<g id="edge9" class="edge">
<title>Node16&#45;&gt;Node9</title>
<path fill="none" stroke="#404040" d="M79.4125,-464.7027C90.7923,-452.1105 104.9128,-437.5995 119,-426 144.6041,-404.9173 151.2451,-398.4172 182,-386 215.8364,-372.3387 231.3006,-383.108 268.7044,-367.7539"/>
<polygon fill="none" stroke="#404040" points="268.9416,-367.6464 272.7529,-361.5248 279.8695,-362.6885 276.0582,-368.8101 268.9416,-367.6464"/>
<text text-anchor="middle" x="221" y="-394.5" font-family="Helvetica,sans-Serif" font-size="10.00" fill="#000000"> #coreComponent</text>
</g>
<!-- Node17&#45;&gt;Node8 -->
<g id="edge10" class="edge">
<title>Node17&#45;&gt;Node8</title>
<path fill="none" stroke="#191970" d="M243.4999,-253.653C261.7029,-235.1507 282.0056,-214.5141 299.5716,-196.6592"/>
<polygon fill="none" stroke="#191970" points="240.8915,-251.3137 236.3733,-260.8969 245.8815,-256.223 240.8915,-251.3137"/>
</g>
<!-- Node18 -->
<g id="node12" class="node">
<title>Node18</title>
<polygon fill="none" stroke="#bfbfbf" points="502.5,-277.5 502.5,-334.5 639.5,-334.5 639.5,-277.5 502.5,-277.5"/>
<text text-anchor="middle" x="571" y="-322.5" font-family="Helvetica,sans-Serif" font-size="10.00" fill="#000000">List&lt; ene.interfaces.View &gt;</text>
<polyline fill="none" stroke="#bfbfbf" points="502.5,-315.5 639.5,-315.5 "/>
<text text-anchor="middle" x="571" y="-303.5" font-family="Helvetica,sans-Serif" font-size="10.00" fill="#000000"> </text>
<polyline fill="none" stroke="#bfbfbf" points="502.5,-296.5 639.5,-296.5 "/>
<text text-anchor="middle" x="571" y="-284.5" font-family="Helvetica,sans-Serif" font-size="10.00" fill="#000000"> </text>
</g>
<!-- Node18&#45;&gt;Node8 -->
<g id="edge12" class="edge">
<title>Node18&#45;&gt;Node8</title>
<path fill="none" stroke="#404040" d="M529.1002,-277.4823C498.6549,-256.7607 456.5924,-228.1323 420.2571,-203.4019"/>
<polygon fill="none" stroke="#404040" points="420.0953,-203.2917 412.8845,-203.2225 410.175,-196.5398 417.3858,-196.609 420.0953,-203.2917"/>
<text text-anchor="middle" x="468" y="-218" font-family="Helvetica,sans-Serif" font-size="10.00" fill="#000000"> #views</text>
</g>
<!-- Node19 -->
<g id="node13" class="node">
<title>Node19</title>
<polygon fill="none" stroke="#bfbfbf" points="650,-465 650,-522 682,-522 682,-465 650,-465"/>
<text text-anchor="middle" x="666" y="-510" font-family="Helvetica,sans-Serif" font-size="10.00" fill="#000000">List</text>
<polyline fill="none" stroke="#bfbfbf" points="650,-503 682,-503 "/>
<text text-anchor="middle" x="666" y="-491" font-family="Helvetica,sans-Serif" font-size="10.00" fill="#000000"> </text>
<polyline fill="none" stroke="#bfbfbf" points="650,-484 682,-484 "/>
<text text-anchor="middle" x="666" y="-472" font-family="Helvetica,sans-Serif" font-size="10.00" fill="#000000"> </text>
</g>
<!-- Node19&#45;&gt;Node18 -->
<g id="edge13" class="edge">
<title>Node19&#45;&gt;Node18</title>
<path fill="none" stroke="#ffa500" d="M663.1294,-454.7702C660.3402,-433.5456 654.8412,-407.3017 644,-386 634.1926,-366.7296 618.4653,-348.6287 604.1159,-334.5352"/>
<polygon fill="#ffa500" stroke="#ffa500" points="659.6576,-455.2156 664.2925,-464.7428 666.6104,-454.4046 659.6576,-455.2156"/>
<text text-anchor="start" x="653" y="-400" font-family="Helvetica,sans-Serif" font-size="10.00" fill="#000000"> &lt; ene::interfaces::</text>
<text text-anchor="middle" x="694.5" y="-389" font-family="Helvetica,sans-Serif" font-size="10.00" fill="#000000">View &gt;</text>
</g>
</g>
</svg>
