<?xml version="1.0" encoding="UTF-8" standalone="no"?>
<!DOCTYPE svg PUBLIC "-//W3C//DTD SVG 1.1//EN"
 "http://www.w3.org/Graphics/SVG/1.1/DTD/svg11.dtd">
<!-- Generated by graphviz version 2.40.1 (20161225.0304)
 -->
<!-- Title: ene.controllers.PlaylistController.saveToFile Pages: 1 -->
<svg width="622pt" height="112pt"
 viewBox="0.00 0.00 622.00 112.00" xmlns="http://www.w3.org/2000/svg" xmlns:xlink="http://www.w3.org/1999/xlink">
<g id="graph0" class="graph" transform="scale(1 1) rotate(0) translate(4 108)">
<title>ene.controllers.PlaylistController.saveToFile</title>
<!-- Node61 -->
<g id="node1" class="node">
<title>Node61</title>
<polygon fill="#bfbfbf" stroke="#000000" points="0,-24.5 0,-54.5 116,-54.5 116,-24.5 0,-24.5"/>
<text text-anchor="start" x="8" y="-42.5" font-family="Helvetica,sans-Serif" font-size="10.00" fill="#000000">ene.controllers.Playlist</text>
<text text-anchor="middle" x="58" y="-31.5" font-family="Helvetica,sans-Serif" font-size="10.00" fill="#000000">Controller.saveToFile</text>
</g>
<!-- Node62 -->
<g id="node2" class="node">
<title>Node62</title>
<g id="a_node2"><a xlink:href="classene_1_1controllers_1_1PlaylistController.html#ad5e0bbbd2de4359b178fdf0458447d77" target="_top" xlink:title="ene.controllers.Playlist\lController.add">
<polygon fill="none" stroke="#000000" points="152,-49.5 152,-79.5 268,-79.5 268,-49.5 152,-49.5"/>
<text text-anchor="start" x="160" y="-67.5" font-family="Helvetica,sans-Serif" font-size="10.00" fill="#000000">ene.controllers.Playlist</text>
<text text-anchor="middle" x="210" y="-56.5" font-family="Helvetica,sans-Serif" font-size="10.00" fill="#000000">Controller.add</text>
</a>
</g>
</g>
<!-- Node61&#45;&gt;Node62 -->
<g id="edge1" class="edge">
<title>Node61&#45;&gt;Node62</title>
<path fill="none" stroke="#191970" d="M126.264,-50.7276C134.7979,-52.1312 143.4632,-53.5565 151.8236,-54.9315"/>
<polygon fill="#191970" stroke="#191970" points="126.7679,-47.2636 116.3325,-49.0942 125.6318,-54.1708 126.7679,-47.2636"/>
</g>
<!-- Node66 -->
<g id="node6" class="node">
<title>Node66</title>
<g id="a_node6"><a xlink:href="classene_1_1controllers_1_1PlaylistController.html#a903d7a6767c934b2f06715634b9944d3" target="_top" xlink:title="ene.controllers.Playlist\lController.remove">
<polygon fill="none" stroke="#000000" points="152,-.5 152,-30.5 268,-30.5 268,-.5 152,-.5"/>
<text text-anchor="start" x="160" y="-18.5" font-family="Helvetica,sans-Serif" font-size="10.00" fill="#000000">ene.controllers.Playlist</text>
<text text-anchor="middle" x="210" y="-7.5" font-family="Helvetica,sans-Serif" font-size="10.00" fill="#000000">Controller.remove</text>
</a>
</g>
</g>
<!-- Node61&#45;&gt;Node66 -->
<g id="edge5" class="edge">
<title>Node61&#45;&gt;Node66</title>
<path fill="none" stroke="#191970" d="M126.264,-28.7215C134.7979,-27.374 143.4632,-26.0058 151.8236,-24.6857"/>
<polygon fill="#191970" stroke="#191970" points="125.6642,-25.2727 116.3325,-30.2896 126.756,-32.1871 125.6642,-25.2727"/>
</g>
<!-- Node63 -->
<g id="node3" class="node">
<title>Node63</title>
<g id="a_node3"><a xlink:href="classene_1_1controllers_1_1PlaylistController.html#a67b252ccabbac520eaafe9f90e8f0d43" target="_top" xlink:title="ene.controllers.Playlist\lController.loadFromFile">
<polygon fill="none" stroke="#000000" points="314,-73.5 314,-103.5 432,-103.5 432,-73.5 314,-73.5"/>
<text text-anchor="start" x="322" y="-91.5" font-family="Helvetica,sans-Serif" font-size="10.00" fill="#000000">ene.controllers.Playlist</text>
<text text-anchor="middle" x="373" y="-80.5" font-family="Helvetica,sans-Serif" font-size="10.00" fill="#000000">Controller.loadFromFile</text>
</a>
</g>
</g>
<!-- Node62&#45;&gt;Node63 -->
<g id="edge2" class="edge">
<title>Node62&#45;&gt;Node63</title>
<path fill="none" stroke="#191970" d="M278.5901,-74.5992C290.3377,-76.3289 302.4526,-78.1126 313.9246,-79.8018"/>
<polygon fill="#191970" stroke="#191970" points="278.7895,-71.0909 268.3863,-73.0968 277.7698,-78.0162 278.7895,-71.0909"/>
</g>
<!-- Node65 -->
<g id="node5" class="node">
<title>Node65</title>
<g id="a_node5"><a xlink:href="classene_1_1views_1_1gui_1_1partial_1_1LibraryView.html#a0bd6885fe06ebde4d3dffbcd888c0b41" target="_top" xlink:title="ene.views.gui.partial.Library\lView.render">
<polygon fill="none" stroke="#000000" points="304,-24.5 304,-54.5 442,-54.5 442,-24.5 304,-24.5"/>
<text text-anchor="start" x="312" y="-42.5" font-family="Helvetica,sans-Serif" font-size="10.00" fill="#000000">ene.views.gui.partial.Library</text>
<text text-anchor="middle" x="373" y="-31.5" font-family="Helvetica,sans-Serif" font-size="10.00" fill="#000000">View.render</text>
</a>
</g>
</g>
<!-- Node62&#45;&gt;Node65 -->
<g id="edge4" class="edge">
<title>Node62&#45;&gt;Node65</title>
<path fill="none" stroke="#191970" d="M278.511,-53.9922C286.9085,-52.7042 295.4949,-51.3873 303.901,-50.098"/>
<polygon fill="#191970" stroke="#191970" points="277.7401,-50.5694 268.3863,-55.545 278.8014,-57.4885 277.7401,-50.5694"/>
</g>
<!-- Node64 -->
<g id="node4" class="node">
<title>Node64</title>
<g id="a_node4"><a xlink:href="classene_1_1controllers_1_1PlaylistController.html#a35b450f65c048707c1ad0ed44f1077f0" target="_top" xlink:title="ene.controllers.Playlist\lController.PlaylistController">
<polygon fill="none" stroke="#000000" points="478,-73.5 478,-103.5 614,-103.5 614,-73.5 478,-73.5"/>
<text text-anchor="start" x="486" y="-91.5" font-family="Helvetica,sans-Serif" font-size="10.00" fill="#000000">ene.controllers.Playlist</text>
<text text-anchor="middle" x="546" y="-80.5" font-family="Helvetica,sans-Serif" font-size="10.00" fill="#000000">Controller.PlaylistController</text>
</a>
</g>
</g>
<!-- Node63&#45;&gt;Node64 -->
<g id="edge3" class="edge">
<title>Node63&#45;&gt;Node64</title>
<path fill="none" stroke="#191970" d="M442.2596,-88.5C454.0305,-88.5 466.2453,-88.5 477.9837,-88.5"/>
<polygon fill="#191970" stroke="#191970" points="442.053,-85.0001 432.0529,-88.5 442.0529,-92.0001 442.053,-85.0001"/>
</g>
</g>
</svg>
