<?xml version="1.0" encoding="UTF-8" standalone="no"?>
<!DOCTYPE svg PUBLIC "-//W3C//DTD SVG 1.1//EN"
 "http://www.w3.org/Graphics/SVG/1.1/DTD/svg11.dtd">
<!-- Generated by graphviz version 2.40.1 (20161225.0304)
 -->
<!-- Title: ene.controllers.LibraryController Pages: 1 -->
<svg width="777pt" height="717pt"
 viewBox="0.00 0.00 776.50 717.00" xmlns="http://www.w3.org/2000/svg" xmlns:xlink="http://www.w3.org/1999/xlink">
<g id="graph0" class="graph" transform="scale(1 1) rotate(0) translate(4 713)">
<title>ene.controllers.LibraryController</title>
<!-- Node7 -->
<g id="node1" class="node">
<title>Node7</title>
<polygon fill="#bfbfbf" stroke="#000000" points="399,-.5 399,-178.5 554,-178.5 554,-.5 399,-.5"/>
<text text-anchor="middle" x="476.5" y="-166.5" font-family="Helvetica,sans-Serif" font-size="10.00" fill="#000000">ene.controllers.LibraryController</text>
<polyline fill="none" stroke="#000000" points="399,-159.5 554,-159.5 "/>
<text text-anchor="middle" x="476.5" y="-147.5" font-family="Helvetica,sans-Serif" font-size="10.00" fill="#000000"> </text>
<polyline fill="none" stroke="#000000" points="399,-140.5 554,-140.5 "/>
<text text-anchor="start" x="407" y="-128.5" font-family="Helvetica,sans-Serif" font-size="10.00" fill="#000000">+ LibraryController()</text>
<text text-anchor="start" x="407" y="-117.5" font-family="Helvetica,sans-Serif" font-size="10.00" fill="#000000">+ LibraryController()</text>
<text text-anchor="start" x="407" y="-106.5" font-family="Helvetica,sans-Serif" font-size="10.00" fill="#000000">+ loadFromFile()</text>
<text text-anchor="start" x="407" y="-95.5" font-family="Helvetica,sans-Serif" font-size="10.00" fill="#000000">+ saveToFile()</text>
<text text-anchor="start" x="407" y="-84.5" font-family="Helvetica,sans-Serif" font-size="10.00" fill="#000000">+ add()</text>
<text text-anchor="start" x="407" y="-73.5" font-family="Helvetica,sans-Serif" font-size="10.00" fill="#000000">+ remove()</text>
<text text-anchor="start" x="407" y="-62.5" font-family="Helvetica,sans-Serif" font-size="10.00" fill="#000000">+ edit()</text>
<text text-anchor="start" x="407" y="-51.5" font-family="Helvetica,sans-Serif" font-size="10.00" fill="#000000"># setDatabaseFilename()</text>
<text text-anchor="start" x="407" y="-40.5" font-family="Helvetica,sans-Serif" font-size="10.00" fill="#000000"># getDatabaseFilename()</text>
<text text-anchor="start" x="407" y="-29.5" font-family="Helvetica,sans-Serif" font-size="10.00" fill="#000000"># addFile()</text>
<text text-anchor="start" x="407" y="-18.5" font-family="Helvetica,sans-Serif" font-size="10.00" fill="#000000"># addDirectoryContent()</text>
<text text-anchor="start" x="407" y="-7.5" font-family="Helvetica,sans-Serif" font-size="10.00" fill="#000000"># scan()</text>
</g>
<!-- Node8 -->
<g id="node2" class="node">
<title>Node8</title>
<g id="a_node2"><a xlink:href="classene_1_1controllers_1_1AbstractController.html" target="_top" xlink:title="{ene.controllers.Abstract\lController\&lt; LibraryModel \&gt;\n|# model\l|+ setModel()\l+ getModel()\l}">
<polygon fill="none" stroke="#000000" points="143.5,-237.5 143.5,-316.5 275.5,-316.5 275.5,-237.5 143.5,-237.5"/>
<text text-anchor="start" x="151.5" y="-304.5" font-family="Helvetica,sans-Serif" font-size="10.00" fill="#000000">ene.controllers.Abstract</text>
<text text-anchor="middle" x="209.5" y="-293.5" font-family="Helvetica,sans-Serif" font-size="10.00" fill="#000000">Controller&lt; LibraryModel &gt;</text>
<polyline fill="none" stroke="#000000" points="143.5,-286.5 275.5,-286.5 "/>
<text text-anchor="start" x="151.5" y="-274.5" font-family="Helvetica,sans-Serif" font-size="10.00" fill="#000000"># model</text>
<polyline fill="none" stroke="#000000" points="143.5,-267.5 275.5,-267.5 "/>
<text text-anchor="start" x="151.5" y="-255.5" font-family="Helvetica,sans-Serif" font-size="10.00" fill="#000000">+ setModel()</text>
<text text-anchor="start" x="151.5" y="-244.5" font-family="Helvetica,sans-Serif" font-size="10.00" fill="#000000">+ getModel()</text>
</a>
</g>
</g>
<!-- Node8&#45;&gt;Node7 -->
<g id="edge1" class="edge">
<title>Node8&#45;&gt;Node7</title>
<path fill="none" stroke="#191970" d="M274.1336,-231.6112C311.6645,-205.2552 359.195,-171.8771 398.76,-144.0927"/>
<polygon fill="none" stroke="#191970" points="271.9698,-228.8539 265.7976,-237.4652 275.9927,-234.5825 271.9698,-228.8539"/>
</g>
<!-- Node9 -->
<g id="node3" class="node">
<title>Node9</title>
<g id="a_node3"><a xlink:href="classene_1_1controllers_1_1AbstractController.html" target="_top" xlink:title="{ene.controllers.Abstract\lController\&lt; ModelType \&gt;\n||+ setModel()\l+ getModel()\l}">
<polygon fill="none" stroke="#000000" points="147,-364.5 147,-443.5 272,-443.5 272,-364.5 147,-364.5"/>
<text text-anchor="start" x="155" y="-431.5" font-family="Helvetica,sans-Serif" font-size="10.00" fill="#000000">ene.controllers.Abstract</text>
<text text-anchor="middle" x="209.5" y="-420.5" font-family="Helvetica,sans-Serif" font-size="10.00" fill="#000000">Controller&lt; ModelType &gt;</text>
<polyline fill="none" stroke="#000000" points="147,-413.5 272,-413.5 "/>
<text text-anchor="middle" x="209.5" y="-401.5" font-family="Helvetica,sans-Serif" font-size="10.00" fill="#000000"> </text>
<polyline fill="none" stroke="#000000" points="147,-394.5 272,-394.5 "/>
<text text-anchor="start" x="155" y="-382.5" font-family="Helvetica,sans-Serif" font-size="10.00" fill="#000000">+ setModel()</text>
<text text-anchor="start" x="155" y="-371.5" font-family="Helvetica,sans-Serif" font-size="10.00" fill="#000000">+ getModel()</text>
</a>
</g>
</g>
<!-- Node9&#45;&gt;Node8 -->
<g id="edge2" class="edge">
<title>Node9&#45;&gt;Node8</title>
<path fill="none" stroke="#ffa500" d="M209.5,-353.9789C209.5,-341.5999 209.5,-328.5045 209.5,-316.6938"/>
<polygon fill="#ffa500" stroke="#ffa500" points="206.0001,-354.1648 209.5,-364.1649 213.0001,-354.1649 206.0001,-354.1648"/>
<text text-anchor="middle" x="248" y="-338" font-family="Helvetica,sans-Serif" font-size="10.00" fill="#000000"> &lt; LibraryModel &gt;</text>
</g>
<!-- Node10 -->
<g id="node4" class="node">
<title>Node10</title>
<g id="a_node4"><a xlink:href="classene_1_1AbstractObject.html" target="_top" xlink:title="{ene.AbstractObject\n||+ enableDebugMode()\l+ disableDebugMode()\l+ isDebugModeEnabled()\l+ debugInfoAbout()\l+ consoleOutput()\l# delay()\l}">
<polygon fill="none" stroke="#000000" points="0,-491.5 0,-603.5 127,-603.5 127,-491.5 0,-491.5"/>
<text text-anchor="middle" x="63.5" y="-591.5" font-family="Helvetica,sans-Serif" font-size="10.00" fill="#000000">ene.AbstractObject</text>
<polyline fill="none" stroke="#000000" points="0,-584.5 127,-584.5 "/>
<text text-anchor="middle" x="63.5" y="-572.5" font-family="Helvetica,sans-Serif" font-size="10.00" fill="#000000"> </text>
<polyline fill="none" stroke="#000000" points="0,-565.5 127,-565.5 "/>
<text text-anchor="start" x="8" y="-553.5" font-family="Helvetica,sans-Serif" font-size="10.00" fill="#000000">+ enableDebugMode()</text>
<text text-anchor="start" x="8" y="-542.5" font-family="Helvetica,sans-Serif" font-size="10.00" fill="#000000">+ disableDebugMode()</text>
<text text-anchor="start" x="8" y="-531.5" font-family="Helvetica,sans-Serif" font-size="10.00" fill="#000000">+ isDebugModeEnabled()</text>
<text text-anchor="start" x="8" y="-520.5" font-family="Helvetica,sans-Serif" font-size="10.00" fill="#000000">+ debugInfoAbout()</text>
<text text-anchor="start" x="8" y="-509.5" font-family="Helvetica,sans-Serif" font-size="10.00" fill="#000000">+ consoleOutput()</text>
<text text-anchor="start" x="8" y="-498.5" font-family="Helvetica,sans-Serif" font-size="10.00" fill="#000000"># delay()</text>
</a>
</g>
</g>
<!-- Node10&#45;&gt;Node9 -->
<g id="edge3" class="edge">
<title>Node10&#45;&gt;Node9</title>
<path fill="none" stroke="#191970" d="M128.0303,-484.0746C141.9812,-470.3626 156.3504,-456.2395 169.0626,-443.745"/>
<polygon fill="none" stroke="#191970" points="125.4625,-481.6909 120.784,-491.1969 130.3693,-486.6833 125.4625,-481.6909"/>
</g>
<!-- Node11 -->
<g id="node5" class="node">
<title>Node11</title>
<polygon fill="none" stroke="#bfbfbf" points="25,-651.5 25,-708.5 102,-708.5 102,-651.5 25,-651.5"/>
<text text-anchor="middle" x="63.5" y="-696.5" font-family="Helvetica,sans-Serif" font-size="10.00" fill="#000000">static boolean</text>
<polyline fill="none" stroke="#bfbfbf" points="25,-689.5 102,-689.5 "/>
<text text-anchor="middle" x="63.5" y="-677.5" font-family="Helvetica,sans-Serif" font-size="10.00" fill="#000000"> </text>
<polyline fill="none" stroke="#bfbfbf" points="25,-670.5 102,-670.5 "/>
<text text-anchor="middle" x="63.5" y="-658.5" font-family="Helvetica,sans-Serif" font-size="10.00" fill="#000000"> </text>
</g>
<!-- Node11&#45;&gt;Node10 -->
<g id="edge4" class="edge">
<title>Node11&#45;&gt;Node10</title>
<path fill="none" stroke="#404040" d="M63.5,-651.2495C63.5,-640.8031 63.5,-628.502 63.5,-616.0912"/>
<polygon fill="none" stroke="#404040" points="63.5001,-615.7084 59.5,-609.7085 63.5,-603.7084 67.5,-609.7084 63.5001,-615.7084"/>
<text text-anchor="middle" x="110.5" y="-625" font-family="Helvetica,sans-Serif" font-size="10.00" fill="#000000"> #debugModeEnabled</text>
</g>
<!-- Node12 -->
<g id="node6" class="node">
<title>Node12</title>
<g id="a_node6"><a xlink:href="interfaceene_1_1interfaces_1_1Controller.html" target="_top" xlink:title="{ene::interfaces::Controller\l\&lt; ModelType \&gt;\n||+ setModel()\l+ getModel()\l}">
<polygon fill="none" stroke="#000000" points="145,-508 145,-587 274,-587 274,-508 145,-508"/>
<text text-anchor="start" x="153" y="-575" font-family="Helvetica,sans-Serif" font-size="10.00" fill="#000000">ene::interfaces::Controller</text>
<text text-anchor="middle" x="209.5" y="-564" font-family="Helvetica,sans-Serif" font-size="10.00" fill="#000000">&lt; ModelType &gt;</text>
<polyline fill="none" stroke="#000000" points="145,-557 274,-557 "/>
<text text-anchor="middle" x="209.5" y="-545" font-family="Helvetica,sans-Serif" font-size="10.00" fill="#000000"> </text>
<polyline fill="none" stroke="#000000" points="145,-538 274,-538 "/>
<text text-anchor="start" x="153" y="-526" font-family="Helvetica,sans-Serif" font-size="10.00" fill="#000000">+ setModel()</text>
<text text-anchor="start" x="153" y="-515" font-family="Helvetica,sans-Serif" font-size="10.00" fill="#000000">+ getModel()</text>
</a>
</g>
</g>
<!-- Node12&#45;&gt;Node9 -->
<g id="edge5" class="edge">
<title>Node12&#45;&gt;Node9</title>
<path fill="none" stroke="#191970" d="M209.5,-497.8088C209.5,-480.2088 209.5,-460.6472 209.5,-443.9608"/>
<polygon fill="none" stroke="#191970" points="206.0001,-497.9081 209.5,-507.9081 213.0001,-497.9082 206.0001,-497.9081"/>
</g>
<!-- Node13 -->
<g id="node7" class="node">
<title>Node13</title>
<polygon fill="none" stroke="#bfbfbf" points="292,-519 292,-576 357,-576 357,-519 292,-519"/>
<text text-anchor="middle" x="324.5" y="-564" font-family="Helvetica,sans-Serif" font-size="10.00" fill="#000000">ModelType</text>
<polyline fill="none" stroke="#bfbfbf" points="292,-557 357,-557 "/>
<text text-anchor="middle" x="324.5" y="-545" font-family="Helvetica,sans-Serif" font-size="10.00" fill="#000000"> </text>
<polyline fill="none" stroke="#bfbfbf" points="292,-538 357,-538 "/>
<text text-anchor="middle" x="324.5" y="-526" font-family="Helvetica,sans-Serif" font-size="10.00" fill="#000000"> </text>
</g>
<!-- Node13&#45;&gt;Node9 -->
<g id="edge6" class="edge">
<title>Node13&#45;&gt;Node9</title>
<path fill="none" stroke="#404040" d="M303.672,-518.7992C297.0166,-509.8141 289.5468,-499.9188 282.5,-491 272.7584,-478.6706 262.0075,-465.5862 251.8196,-453.4118"/>
<polygon fill="none" stroke="#404040" points="251.5233,-453.0594 244.6002,-451.0417 243.8,-443.8751 250.7231,-445.8928 251.5233,-453.0594"/>
<text text-anchor="middle" x="285" y="-465" font-family="Helvetica,sans-Serif" font-size="10.00" fill="#000000"> #model</text>
</g>
<!-- Node14 -->
<g id="node8" class="node">
<title>Node14</title>
<g id="a_node8"><a xlink:href="interfaceene_1_1interfaces_1_1Import.html" target="_top" xlink:title="{ene.interfaces.Import\n||+ loadFromFile()\l}">
<polygon fill="none" stroke="#000000" points="294,-248.5 294,-305.5 403,-305.5 403,-248.5 294,-248.5"/>
<text text-anchor="middle" x="348.5" y="-293.5" font-family="Helvetica,sans-Serif" font-size="10.00" fill="#000000">ene.interfaces.Import</text>
<polyline fill="none" stroke="#000000" points="294,-286.5 403,-286.5 "/>
<text text-anchor="middle" x="348.5" y="-274.5" font-family="Helvetica,sans-Serif" font-size="10.00" fill="#000000"> </text>
<polyline fill="none" stroke="#000000" points="294,-267.5 403,-267.5 "/>
<text text-anchor="start" x="302" y="-255.5" font-family="Helvetica,sans-Serif" font-size="10.00" fill="#000000">+ loadFromFile()</text>
</a>
</g>
</g>
<!-- Node14&#45;&gt;Node7 -->
<g id="edge7" class="edge">
<title>Node14&#45;&gt;Node7</title>
<path fill="none" stroke="#191970" d="M373.8961,-239.7987C385.9663,-222.1177 400.9612,-200.1525 415.7266,-178.5236"/>
<polygon fill="none" stroke="#191970" points="370.967,-237.8816 368.2195,-248.114 376.7483,-241.8284 370.967,-237.8816"/>
</g>
<!-- Node15 -->
<g id="node9" class="node">
<title>Node15</title>
<g id="a_node9"><a xlink:href="interfaceene_1_1interfaces_1_1Export.html" target="_top" xlink:title="{ene.interfaces.Export\n||+ saveToFile()\l}">
<polygon fill="none" stroke="#000000" points="421.5,-248.5 421.5,-305.5 531.5,-305.5 531.5,-248.5 421.5,-248.5"/>
<text text-anchor="middle" x="476.5" y="-293.5" font-family="Helvetica,sans-Serif" font-size="10.00" fill="#000000">ene.interfaces.Export</text>
<polyline fill="none" stroke="#000000" points="421.5,-286.5 531.5,-286.5 "/>
<text text-anchor="middle" x="476.5" y="-274.5" font-family="Helvetica,sans-Serif" font-size="10.00" fill="#000000"> </text>
<polyline fill="none" stroke="#000000" points="421.5,-267.5 531.5,-267.5 "/>
<text text-anchor="start" x="429.5" y="-255.5" font-family="Helvetica,sans-Serif" font-size="10.00" fill="#000000">+ saveToFile()</text>
</a>
</g>
</g>
<!-- Node15&#45;&gt;Node7 -->
<g id="edge8" class="edge">
<title>Node15&#45;&gt;Node7</title>
<path fill="none" stroke="#191970" d="M476.5,-237.8531C476.5,-220.5207 476.5,-199.366 476.5,-178.5236"/>
<polygon fill="none" stroke="#191970" points="473.0001,-238.114 476.5,-248.114 480.0001,-238.1141 473.0001,-238.114"/>
</g>
<!-- Node16 -->
<g id="node10" class="node">
<title>Node16</title>
<polygon fill="none" stroke="#bfbfbf" points="549.5,-248.5 549.5,-305.5 591.5,-305.5 591.5,-248.5 549.5,-248.5"/>
<text text-anchor="middle" x="570.5" y="-293.5" font-family="Helvetica,sans-Serif" font-size="10.00" fill="#000000">String</text>
<polyline fill="none" stroke="#bfbfbf" points="549.5,-286.5 591.5,-286.5 "/>
<text text-anchor="middle" x="570.5" y="-274.5" font-family="Helvetica,sans-Serif" font-size="10.00" fill="#000000"> </text>
<polyline fill="none" stroke="#bfbfbf" points="549.5,-267.5 591.5,-267.5 "/>
<text text-anchor="middle" x="570.5" y="-255.5" font-family="Helvetica,sans-Serif" font-size="10.00" fill="#000000"> </text>
</g>
<!-- Node16&#45;&gt;Node7 -->
<g id="edge9" class="edge">
<title>Node16&#45;&gt;Node7</title>
<path fill="none" stroke="#404040" d="M556.0185,-248.114C547.9562,-232.0323 537.39,-210.956 526.6047,-189.4429"/>
<polygon fill="none" stroke="#404040" points="526.5085,-189.251 520.2437,-185.68 521.1305,-178.5236 527.3953,-182.0946 526.5085,-189.251"/>
<text text-anchor="middle" x="589.5" y="-211" font-family="Helvetica,sans-Serif" font-size="10.00" fill="#000000"> #DATABASE_TABLE</text>
<text text-anchor="middle" x="589.5" y="-200" font-family="Helvetica,sans-Serif" font-size="10.00" fill="#000000">#databaseFilename</text>
</g>
<!-- Node17 -->
<g id="node11" class="node">
<title>Node17</title>
<polygon fill="none" stroke="#bfbfbf" points="633,-248.5 633,-305.5 708,-305.5 708,-248.5 633,-248.5"/>
<text text-anchor="middle" x="670.5" y="-293.5" font-family="Helvetica,sans-Serif" font-size="10.00" fill="#000000">static final int</text>
<polyline fill="none" stroke="#bfbfbf" points="633,-286.5 708,-286.5 "/>
<text text-anchor="middle" x="670.5" y="-274.5" font-family="Helvetica,sans-Serif" font-size="10.00" fill="#000000"> </text>
<polyline fill="none" stroke="#bfbfbf" points="633,-267.5 708,-267.5 "/>
<text text-anchor="middle" x="670.5" y="-255.5" font-family="Helvetica,sans-Serif" font-size="10.00" fill="#000000"> </text>
</g>
<!-- Node17&#45;&gt;Node7 -->
<g id="edge10" class="edge">
<title>Node17&#45;&gt;Node7</title>
<path fill="none" stroke="#404040" d="M665.7422,-248.4795C661.8913,-232.1104 655.1262,-211.9132 643.5,-197 622.6364,-170.2379 593.1336,-148.1651 564.7174,-131.1312"/>
<polygon fill="none" stroke="#404040" points="564.6898,-131.1152 557.4923,-131.5578 554.3154,-125.0842 561.513,-124.6416 564.6898,-131.1152"/>
<text text-anchor="middle" x="712" y="-205.5" font-family="Helvetica,sans-Serif" font-size="10.00" fill="#000000"> #DATABASE_TIMEOUT</text>
</g>
</g>
</svg>
