<?xml version="1.0" encoding="UTF-8" standalone="no"?>
<!DOCTYPE svg PUBLIC "-//W3C//DTD SVG 1.1//EN"
 "http://www.w3.org/Graphics/SVG/1.1/DTD/svg11.dtd">
<!-- Generated by graphviz version 2.40.1 (20161225.0304)
 -->
<!-- Title: ene.models.TrackModel.getGenre Pages: 1 -->
<svg width="687pt" height="176pt"
 viewBox="0.00 0.00 687.00 176.00" xmlns="http://www.w3.org/2000/svg" xmlns:xlink="http://www.w3.org/1999/xlink">
<g id="graph0" class="graph" transform="scale(1 1) rotate(0) translate(4 172)">
<title>ene.models.TrackModel.getGenre</title>
<!-- Node47 -->
<g id="node1" class="node">
<title>Node47</title>
<polygon fill="#bfbfbf" stroke="#000000" points="0,-66.5 0,-96.5 137,-96.5 137,-66.5 0,-66.5"/>
<text text-anchor="start" x="8" y="-84.5" font-family="Helvetica,sans-Serif" font-size="10.00" fill="#000000">ene.models.TrackModel.get</text>
<text text-anchor="middle" x="68.5" y="-73.5" font-family="Helvetica,sans-Serif" font-size="10.00" fill="#000000">Genre</text>
</g>
<!-- Node48 -->
<g id="node2" class="node">
<title>Node48</title>
<g id="a_node2"><a xlink:href="classene_1_1models_1_1LibraryModel.html#a98e2135ca9f08c127e5df33e002fc877" target="_top" xlink:title="ene.models.LibraryModel.get\lByGenre">
<polygon fill="none" stroke="#000000" points="181,-137.5 181,-167.5 323,-167.5 323,-137.5 181,-137.5"/>
<text text-anchor="start" x="189" y="-155.5" font-family="Helvetica,sans-Serif" font-size="10.00" fill="#000000">ene.models.LibraryModel.get</text>
<text text-anchor="middle" x="252" y="-144.5" font-family="Helvetica,sans-Serif" font-size="10.00" fill="#000000">ByGenre</text>
</a>
</g>
</g>
<!-- Node47&#45;&gt;Node48 -->
<g id="edge1" class="edge">
<title>Node47&#45;&gt;Node48</title>
<path fill="none" stroke="#191970" d="M108.2564,-100.8223C127.5576,-109.83 151.2307,-120.3359 173,-128.5 181.3213,-131.6207 190.2457,-134.6376 198.993,-137.4178"/>
<polygon fill="#191970" stroke="#191970" points="109.698,-97.6326 99.1599,-96.5375 106.7151,-103.9652 109.698,-97.6326"/>
</g>
<!-- Node49 -->
<g id="node3" class="node">
<title>Node49</title>
<g id="a_node3"><a xlink:href="classene_1_1views_1_1gui_1_1partial_1_1LibraryView.html#a734cbc08cf36ed3d48cb106b77ecf28b" target="_top" xlink:title="ene.views.gui.partial.Library\lView.loadContent">
<polygon fill="none" stroke="#000000" points="183,-88.5 183,-118.5 321,-118.5 321,-88.5 183,-88.5"/>
<text text-anchor="start" x="191" y="-106.5" font-family="Helvetica,sans-Serif" font-size="10.00" fill="#000000">ene.views.gui.partial.Library</text>
<text text-anchor="middle" x="252" y="-95.5" font-family="Helvetica,sans-Serif" font-size="10.00" fill="#000000">View.loadContent</text>
</a>
</g>
</g>
<!-- Node47&#45;&gt;Node49 -->
<g id="edge2" class="edge">
<title>Node47&#45;&gt;Node49</title>
<path fill="none" stroke="#191970" d="M147.3758,-90.9565C159.189,-92.3728 171.2926,-93.8239 182.8824,-95.2134"/>
<polygon fill="#191970" stroke="#191970" points="147.4351,-87.4386 137.0896,-89.7233 146.6018,-94.3889 147.4351,-87.4386"/>
</g>
<!-- Node53 -->
<g id="node7" class="node">
<title>Node53</title>
<g id="a_node7"><a xlink:href="classene_1_1models_1_1LibraryModel.html#accd8b9321b02639dbb2970022556d324" target="_top" xlink:title="ene.models.LibraryModel.search">
<polygon fill="none" stroke="#000000" points="173,-50 173,-69 331,-69 331,-50 173,-50"/>
<text text-anchor="middle" x="252" y="-57" font-family="Helvetica,sans-Serif" font-size="10.00" fill="#000000">ene.models.LibraryModel.search</text>
</a>
</g>
</g>
<!-- Node47&#45;&gt;Node53 -->
<g id="edge6" class="edge">
<title>Node47&#45;&gt;Node53</title>
<path fill="none" stroke="#191970" d="M147.0764,-72.0794C155.6609,-71.0502 164.4025,-70.0021 172.9922,-68.9723"/>
<polygon fill="#191970" stroke="#191970" points="146.6018,-68.6111 137.0896,-73.2767 147.4351,-75.5614 146.6018,-68.6111"/>
</g>
<!-- Node54 -->
<g id="node8" class="node">
<title>Node54</title>
<g id="a_node8"><a xlink:href="classene_1_1models_1_1TrackModel.html#a0a42aa27708a22d669893b6152be8d20" target="_top" xlink:title="ene.models.TrackModel.to\lString">
<polygon fill="none" stroke="#000000" points="186,-.5 186,-30.5 318,-30.5 318,-.5 186,-.5"/>
<text text-anchor="start" x="194" y="-18.5" font-family="Helvetica,sans-Serif" font-size="10.00" fill="#000000">ene.models.TrackModel.to</text>
<text text-anchor="middle" x="252" y="-7.5" font-family="Helvetica,sans-Serif" font-size="10.00" fill="#000000">String</text>
</a>
</g>
</g>
<!-- Node47&#45;&gt;Node54 -->
<g id="edge7" class="edge">
<title>Node47&#45;&gt;Node54</title>
<path fill="none" stroke="#191970" d="M114.7412,-62.5833C132.8137,-55.394 153.7784,-47.3034 173,-40.5 182.4929,-37.14 192.701,-33.7483 202.5235,-30.5935"/>
<polygon fill="#191970" stroke="#191970" points="113.0116,-59.5056 105.028,-66.4707 115.6126,-66.0045 113.0116,-59.5056"/>
</g>
<!-- Node50 -->
<g id="node4" class="node">
<title>Node50</title>
<g id="a_node4"><a xlink:href="classene_1_1views_1_1gui_1_1partial_1_1LibraryView.html#a6e6e521f258ad6e3f2e06ed96180efb6" target="_top" xlink:title="ene.views.gui.partial.Library\lView.initialize">
<polygon fill="none" stroke="#000000" points="367,-112.5 367,-142.5 505,-142.5 505,-112.5 367,-112.5"/>
<text text-anchor="start" x="375" y="-130.5" font-family="Helvetica,sans-Serif" font-size="10.00" fill="#000000">ene.views.gui.partial.Library</text>
<text text-anchor="middle" x="436" y="-119.5" font-family="Helvetica,sans-Serif" font-size="10.00" fill="#000000">View.initialize</text>
</a>
</g>
</g>
<!-- Node49&#45;&gt;Node50 -->
<g id="edge3" class="edge">
<title>Node49&#45;&gt;Node50</title>
<path fill="none" stroke="#191970" d="M330.9822,-113.802C342.9254,-115.3598 355.1673,-116.9566 366.8809,-118.4845"/>
<polygon fill="#191970" stroke="#191970" points="331.407,-110.3279 321.0383,-112.505 330.5016,-117.2691 331.407,-110.3279"/>
</g>
<!-- Node52 -->
<g id="node6" class="node">
<title>Node52</title>
<g id="a_node6"><a xlink:href="classene_1_1views_1_1gui_1_1partial_1_1LibraryView.html#a363a0a2db7ab4295ef38bb667038a6f8" target="_top" xlink:title="ene.views.gui.partial.Library\lView.update">
<polygon fill="none" stroke="#000000" points="367,-63.5 367,-93.5 505,-93.5 505,-63.5 367,-63.5"/>
<text text-anchor="start" x="375" y="-81.5" font-family="Helvetica,sans-Serif" font-size="10.00" fill="#000000">ene.views.gui.partial.Library</text>
<text text-anchor="middle" x="436" y="-70.5" font-family="Helvetica,sans-Serif" font-size="10.00" fill="#000000">View.update</text>
</a>
</g>
</g>
<!-- Node49&#45;&gt;Node52 -->
<g id="edge5" class="edge">
<title>Node49&#45;&gt;Node52</title>
<path fill="none" stroke="#191970" d="M330.9822,-92.7687C342.9254,-91.146 355.1673,-89.4827 366.8809,-87.8912"/>
<polygon fill="#191970" stroke="#191970" points="330.476,-89.3052 321.0383,-94.1198 331.4185,-96.2415 330.476,-89.3052"/>
</g>
<!-- Node51 -->
<g id="node5" class="node">
<title>Node51</title>
<g id="a_node5"><a xlink:href="classene_1_1views_1_1gui_1_1partial_1_1LibraryView.html#a23af39410ef7be2c3253b41ca96cdc4e" target="_top" xlink:title="ene.views.gui.partial.Library\lView.LibraryView">
<polygon fill="none" stroke="#000000" points="541,-112.5 541,-142.5 679,-142.5 679,-112.5 541,-112.5"/>
<text text-anchor="start" x="549" y="-130.5" font-family="Helvetica,sans-Serif" font-size="10.00" fill="#000000">ene.views.gui.partial.Library</text>
<text text-anchor="middle" x="610" y="-119.5" font-family="Helvetica,sans-Serif" font-size="10.00" fill="#000000">View.LibraryView</text>
</a>
</g>
</g>
<!-- Node50&#45;&gt;Node51 -->
<g id="edge4" class="edge">
<title>Node50&#45;&gt;Node51</title>
<path fill="none" stroke="#191970" d="M515.0349,-127.5C523.6249,-127.5 532.3194,-127.5 540.7795,-127.5"/>
<polygon fill="#191970" stroke="#191970" points="515.0194,-124.0001 505.0193,-127.5 515.0193,-131.0001 515.0194,-124.0001"/>
</g>
</g>
</svg>
