<?xml version="1.0" encoding="UTF-8" standalone="no"?>
<!DOCTYPE svg PUBLIC "-//W3C//DTD SVG 1.1//EN"
 "http://www.w3.org/Graphics/SVG/1.1/DTD/svg11.dtd">
<!-- Generated by graphviz version 2.40.1 (20161225.0304)
 -->
<!-- Title: ene.views.gui.WindowView.setTitle Pages: 1 -->
<svg width="548pt" height="39pt"
 viewBox="0.00 0.00 548.00 39.00" xmlns="http://www.w3.org/2000/svg" xmlns:xlink="http://www.w3.org/1999/xlink">
<g id="graph0" class="graph" transform="scale(1 1) rotate(0) translate(4 35)">
<title>ene.views.gui.WindowView.setTitle</title>
<!-- Node24 -->
<g id="node1" class="node">
<title>Node24</title>
<polygon fill="#bfbfbf" stroke="#000000" points="0,-.5 0,-30.5 153,-30.5 153,-.5 0,-.5"/>
<text text-anchor="start" x="8" y="-18.5" font-family="Helvetica,sans-Serif" font-size="10.00" fill="#000000">ene.views.gui.WindowView.set</text>
<text text-anchor="middle" x="76.5" y="-7.5" font-family="Helvetica,sans-Serif" font-size="10.00" fill="#000000">Title</text>
</g>
<!-- Node25 -->
<g id="node2" class="node">
<title>Node25</title>
<g id="a_node2"><a xlink:href="classene_1_1views_1_1gui_1_1WindowView.html#ab1f007806dcd28e2e4486eb29231fa21" target="_top" xlink:title="ene.views.gui.WindowView.initialize">
<polygon fill="none" stroke="#000000" points="189,-6 189,-25 364,-25 364,-6 189,-6"/>
<text text-anchor="middle" x="276.5" y="-13" font-family="Helvetica,sans-Serif" font-size="10.00" fill="#000000">ene.views.gui.WindowView.initialize</text>
</a>
</g>
</g>
<!-- Node24&#45;&gt;Node25 -->
<g id="edge1" class="edge">
<title>Node24&#45;&gt;Node25</title>
<path fill="none" stroke="#191970" d="M163.4748,-15.5C171.9196,-15.5 180.4904,-15.5 188.9408,-15.5"/>
<polygon fill="#191970" stroke="#191970" points="163.2533,-12.0001 153.2532,-15.5 163.2532,-19.0001 163.2533,-12.0001"/>
</g>
<!-- Node26 -->
<g id="node3" class="node">
<title>Node26</title>
<g id="a_node3"><a xlink:href="classene_1_1views_1_1gui_1_1WindowView.html#a0d3e57ee4c8c74d85618d82de8087545" target="_top" xlink:title="ene.views.gui.WindowView.\lWindowView">
<polygon fill="none" stroke="#000000" points="400,-.5 400,-30.5 540,-30.5 540,-.5 400,-.5"/>
<text text-anchor="start" x="408" y="-18.5" font-family="Helvetica,sans-Serif" font-size="10.00" fill="#000000">ene.views.gui.WindowView.</text>
<text text-anchor="middle" x="470" y="-7.5" font-family="Helvetica,sans-Serif" font-size="10.00" fill="#000000">WindowView</text>
</a>
</g>
</g>
<!-- Node25&#45;&gt;Node26 -->
<g id="edge2" class="edge">
<title>Node25&#45;&gt;Node26</title>
<path fill="none" stroke="#191970" d="M374.2592,-15.5C382.8451,-15.5 391.4203,-15.5 399.7145,-15.5"/>
<polygon fill="#191970" stroke="#191970" points="374.1915,-12.0001 364.1915,-15.5 374.1915,-19.0001 374.1915,-12.0001"/>
</g>
</g>
</svg>
