<?xml version="1.0" encoding="UTF-8" standalone="no"?>
<!DOCTYPE svg PUBLIC "-//W3C//DTD SVG 1.1//EN"
 "http://www.w3.org/Graphics/SVG/1.1/DTD/svg11.dtd">
<!-- Generated by graphviz version 2.40.1 (20161225.0304)
 -->
<!-- Title: ene.models.PlayerModel Pages: 1 -->
<svg width="559pt" height="568pt"
 viewBox="0.00 0.00 558.50 568.00" xmlns="http://www.w3.org/2000/svg" xmlns:xlink="http://www.w3.org/1999/xlink">
<g id="graph0" class="graph" transform="scale(1 1) rotate(0) translate(4 564)">
<title>ene.models.PlayerModel</title>
<!-- Node5 -->
<g id="node1" class="node">
<title>Node5</title>
<polygon fill="#bfbfbf" stroke="#000000" points="325.5,-.5 325.5,-167.5 449.5,-167.5 449.5,-.5 325.5,-.5"/>
<text text-anchor="middle" x="387.5" y="-155.5" font-family="Helvetica,sans-Serif" font-size="10.00" fill="#000000">ene.models.PlayerModel</text>
<polyline fill="none" stroke="#000000" points="325.5,-148.5 449.5,-148.5 "/>
<text text-anchor="middle" x="387.5" y="-136.5" font-family="Helvetica,sans-Serif" font-size="10.00" fill="#000000"> </text>
<polyline fill="none" stroke="#000000" points="325.5,-129.5 449.5,-129.5 "/>
<text text-anchor="start" x="333.5" y="-117.5" font-family="Helvetica,sans-Serif" font-size="10.00" fill="#000000">+ getClip()</text>
<text text-anchor="start" x="333.5" y="-106.5" font-family="Helvetica,sans-Serif" font-size="10.00" fill="#000000">+ getLastEvent()</text>
<text text-anchor="start" x="333.5" y="-95.5" font-family="Helvetica,sans-Serif" font-size="10.00" fill="#000000">+ getTrackLength()</text>
<text text-anchor="start" x="333.5" y="-84.5" font-family="Helvetica,sans-Serif" font-size="10.00" fill="#000000">+ setTrackPosition()</text>
<text text-anchor="start" x="333.5" y="-73.5" font-family="Helvetica,sans-Serif" font-size="10.00" fill="#000000">+ getTrackPosition()</text>
<text text-anchor="start" x="333.5" y="-62.5" font-family="Helvetica,sans-Serif" font-size="10.00" fill="#000000">+ load()</text>
<text text-anchor="start" x="333.5" y="-51.5" font-family="Helvetica,sans-Serif" font-size="10.00" fill="#000000">+ start()</text>
<text text-anchor="start" x="333.5" y="-40.5" font-family="Helvetica,sans-Serif" font-size="10.00" fill="#000000">+ pause()</text>
<text text-anchor="start" x="333.5" y="-29.5" font-family="Helvetica,sans-Serif" font-size="10.00" fill="#000000">+ update()</text>
<text text-anchor="start" x="333.5" y="-18.5" font-family="Helvetica,sans-Serif" font-size="10.00" fill="#000000"># setClip()</text>
<text text-anchor="start" x="333.5" y="-7.5" font-family="Helvetica,sans-Serif" font-size="10.00" fill="#000000"># setLastEvent()</text>
</g>
<!-- Node6 -->
<g id="node2" class="node">
<title>Node6</title>
<g id="a_node2"><a xlink:href="classene_1_1models_1_1AbstractModel.html" target="_top" xlink:title="{ene.models.AbstractModel\n||+ addView()\l# changed()\l}">
<polygon fill="none" stroke="#000000" points="132,-215.5 132,-283.5 265,-283.5 265,-215.5 132,-215.5"/>
<text text-anchor="middle" x="198.5" y="-271.5" font-family="Helvetica,sans-Serif" font-size="10.00" fill="#000000">ene.models.AbstractModel</text>
<polyline fill="none" stroke="#000000" points="132,-264.5 265,-264.5 "/>
<text text-anchor="middle" x="198.5" y="-252.5" font-family="Helvetica,sans-Serif" font-size="10.00" fill="#000000"> </text>
<polyline fill="none" stroke="#000000" points="132,-245.5 265,-245.5 "/>
<text text-anchor="start" x="140" y="-233.5" font-family="Helvetica,sans-Serif" font-size="10.00" fill="#000000">+ addView()</text>
<text text-anchor="start" x="140" y="-222.5" font-family="Helvetica,sans-Serif" font-size="10.00" fill="#000000"># changed()</text>
</a>
</g>
</g>
<!-- Node6&#45;&gt;Node5 -->
<g id="edge1" class="edge">
<title>Node6&#45;&gt;Node5</title>
<path fill="none" stroke="#191970" d="M245.2952,-208.5232C269.4557,-187.3668 299.2554,-161.2724 325.3239,-138.4452"/>
<polygon fill="none" stroke="#191970" points="242.8785,-205.9872 237.6609,-215.2083 247.49,-211.2536 242.8785,-205.9872"/>
</g>
<!-- Node7 -->
<g id="node3" class="node">
<title>Node7</title>
<g id="a_node3"><a xlink:href="classene_1_1AbstractObject.html" target="_top" xlink:title="{ene.AbstractObject\n||+ enableDebugMode()\l+ disableDebugMode()\l+ isDebugModeEnabled()\l+ debugInfoAbout()\l+ consoleOutput()\l# delay()\l}">
<polygon fill="none" stroke="#000000" points="0,-331.5 0,-443.5 127,-443.5 127,-331.5 0,-331.5"/>
<text text-anchor="middle" x="63.5" y="-431.5" font-family="Helvetica,sans-Serif" font-size="10.00" fill="#000000">ene.AbstractObject</text>
<polyline fill="none" stroke="#000000" points="0,-424.5 127,-424.5 "/>
<text text-anchor="middle" x="63.5" y="-412.5" font-family="Helvetica,sans-Serif" font-size="10.00" fill="#000000"> </text>
<polyline fill="none" stroke="#000000" points="0,-405.5 127,-405.5 "/>
<text text-anchor="start" x="8" y="-393.5" font-family="Helvetica,sans-Serif" font-size="10.00" fill="#000000">+ enableDebugMode()</text>
<text text-anchor="start" x="8" y="-382.5" font-family="Helvetica,sans-Serif" font-size="10.00" fill="#000000">+ disableDebugMode()</text>
<text text-anchor="start" x="8" y="-371.5" font-family="Helvetica,sans-Serif" font-size="10.00" fill="#000000">+ isDebugModeEnabled()</text>
<text text-anchor="start" x="8" y="-360.5" font-family="Helvetica,sans-Serif" font-size="10.00" fill="#000000">+ debugInfoAbout()</text>
<text text-anchor="start" x="8" y="-349.5" font-family="Helvetica,sans-Serif" font-size="10.00" fill="#000000">+ consoleOutput()</text>
<text text-anchor="start" x="8" y="-338.5" font-family="Helvetica,sans-Serif" font-size="10.00" fill="#000000"># delay()</text>
</a>
</g>
</g>
<!-- Node7&#45;&gt;Node6 -->
<g id="edge2" class="edge">
<title>Node7&#45;&gt;Node6</title>
<path fill="none" stroke="#191970" d="M125.4823,-324.1403C139.0821,-310.2383 152.9826,-296.0289 164.9558,-283.7897"/>
<polygon fill="none" stroke="#191970" points="122.9007,-321.7742 118.4097,-331.3701 127.9046,-326.6693 122.9007,-321.7742"/>
</g>
<!-- Node8 -->
<g id="node4" class="node">
<title>Node8</title>
<polygon fill="none" stroke="#bfbfbf" points="25,-502.5 25,-559.5 102,-559.5 102,-502.5 25,-502.5"/>
<text text-anchor="middle" x="63.5" y="-547.5" font-family="Helvetica,sans-Serif" font-size="10.00" fill="#000000">static boolean</text>
<polyline fill="none" stroke="#bfbfbf" points="25,-540.5 102,-540.5 "/>
<text text-anchor="middle" x="63.5" y="-528.5" font-family="Helvetica,sans-Serif" font-size="10.00" fill="#000000"> </text>
<polyline fill="none" stroke="#bfbfbf" points="25,-521.5 102,-521.5 "/>
<text text-anchor="middle" x="63.5" y="-509.5" font-family="Helvetica,sans-Serif" font-size="10.00" fill="#000000"> </text>
</g>
<!-- Node8&#45;&gt;Node7 -->
<g id="edge3" class="edge">
<title>Node8&#45;&gt;Node7</title>
<path fill="none" stroke="#404040" d="M63.5,-502.3055C63.5,-488.9442 63.5,-472.4218 63.5,-456.1157"/>
<polygon fill="none" stroke="#404040" points="63.5001,-455.7445 59.5,-449.7445 63.5,-443.7445 67.5,-449.7444 63.5001,-455.7445"/>
<text text-anchor="middle" x="110.5" y="-470.5" font-family="Helvetica,sans-Serif" font-size="10.00" fill="#000000"> #debugModeEnabled</text>
</g>
<!-- Node9 -->
<g id="node5" class="node">
<title>Node9</title>
<g id="a_node5"><a xlink:href="interfaceene_1_1interfaces_1_1Model.html" target="_top" xlink:title="{ene.interfaces.Model\n||+ addView()\l}">
<polygon fill="none" stroke="#000000" points="145,-359 145,-416 252,-416 252,-359 145,-359"/>
<text text-anchor="middle" x="198.5" y="-404" font-family="Helvetica,sans-Serif" font-size="10.00" fill="#000000">ene.interfaces.Model</text>
<polyline fill="none" stroke="#000000" points="145,-397 252,-397 "/>
<text text-anchor="middle" x="198.5" y="-385" font-family="Helvetica,sans-Serif" font-size="10.00" fill="#000000"> </text>
<polyline fill="none" stroke="#000000" points="145,-378 252,-378 "/>
<text text-anchor="start" x="153" y="-366" font-family="Helvetica,sans-Serif" font-size="10.00" fill="#000000">+ addView()</text>
</a>
</g>
</g>
<!-- Node9&#45;&gt;Node6 -->
<g id="edge4" class="edge">
<title>Node9&#45;&gt;Node6</title>
<path fill="none" stroke="#191970" d="M198.5,-348.6659C198.5,-328.2198 198.5,-303.3736 198.5,-283.6664"/>
<polygon fill="none" stroke="#191970" points="195.0001,-348.9063 198.5,-358.9063 202.0001,-348.9063 195.0001,-348.9063"/>
</g>
<!-- Node10 -->
<g id="node6" class="node">
<title>Node10</title>
<polygon fill="none" stroke="#bfbfbf" points="270.5,-353.5 270.5,-421.5 404.5,-421.5 404.5,-353.5 270.5,-353.5"/>
<text text-anchor="start" x="278.5" y="-409.5" font-family="Helvetica,sans-Serif" font-size="10.00" fill="#000000">List&lt; ene.interfaces.Partial</text>
<text text-anchor="middle" x="337.5" y="-398.5" font-family="Helvetica,sans-Serif" font-size="10.00" fill="#000000">View &gt;</text>
<polyline fill="none" stroke="#bfbfbf" points="270.5,-391.5 404.5,-391.5 "/>
<text text-anchor="middle" x="337.5" y="-379.5" font-family="Helvetica,sans-Serif" font-size="10.00" fill="#000000"> </text>
<polyline fill="none" stroke="#bfbfbf" points="270.5,-372.5 404.5,-372.5 "/>
<text text-anchor="middle" x="337.5" y="-360.5" font-family="Helvetica,sans-Serif" font-size="10.00" fill="#000000"> </text>
</g>
<!-- Node10&#45;&gt;Node6 -->
<g id="edge5" class="edge">
<title>Node10&#45;&gt;Node6</title>
<path fill="none" stroke="#404040" d="M303.1404,-353.3876C284.5122,-334.8934 261.3133,-311.8614 241.4959,-292.1866"/>
<polygon fill="none" stroke="#404040" points="241.4619,-292.1528 234.3858,-290.7642 232.946,-283.6982 240.0222,-285.0869 241.4619,-292.1528"/>
<text text-anchor="middle" x="277.5" y="-305" font-family="Helvetica,sans-Serif" font-size="10.00" fill="#000000"> #views</text>
</g>
<!-- Node11 -->
<g id="node7" class="node">
<title>Node11</title>
<polygon fill="none" stroke="#bfbfbf" points="321.5,-502.5 321.5,-559.5 353.5,-559.5 353.5,-502.5 321.5,-502.5"/>
<text text-anchor="middle" x="337.5" y="-547.5" font-family="Helvetica,sans-Serif" font-size="10.00" fill="#000000">List</text>
<polyline fill="none" stroke="#bfbfbf" points="321.5,-540.5 353.5,-540.5 "/>
<text text-anchor="middle" x="337.5" y="-528.5" font-family="Helvetica,sans-Serif" font-size="10.00" fill="#000000"> </text>
<polyline fill="none" stroke="#bfbfbf" points="321.5,-521.5 353.5,-521.5 "/>
<text text-anchor="middle" x="337.5" y="-509.5" font-family="Helvetica,sans-Serif" font-size="10.00" fill="#000000"> </text>
</g>
<!-- Node11&#45;&gt;Node10 -->
<g id="edge6" class="edge">
<title>Node11&#45;&gt;Node10</title>
<path fill="none" stroke="#ffa500" d="M337.5,-492.2878C337.5,-470.2661 337.5,-442.9324 337.5,-421.7037"/>
<polygon fill="#ffa500" stroke="#ffa500" points="334.0001,-492.3055 337.5,-502.3055 341.0001,-492.3056 334.0001,-492.3055"/>
<text text-anchor="start" x="337.5" y="-476" font-family="Helvetica,sans-Serif" font-size="10.00" fill="#000000"> &lt; ene::interfaces::</text>
<text text-anchor="middle" x="379" y="-465" font-family="Helvetica,sans-Serif" font-size="10.00" fill="#000000">PartialView &gt;</text>
</g>
<!-- Node12 -->
<g id="node8" class="node">
<title>Node12</title>
<polygon fill="none" stroke="#bfbfbf" points="283,-221 283,-278 352,-278 352,-221 283,-221"/>
<text text-anchor="middle" x="317.5" y="-266" font-family="Helvetica,sans-Serif" font-size="10.00" fill="#000000">LineListener</text>
<polyline fill="none" stroke="#bfbfbf" points="283,-259 352,-259 "/>
<text text-anchor="middle" x="317.5" y="-247" font-family="Helvetica,sans-Serif" font-size="10.00" fill="#000000"> </text>
<polyline fill="none" stroke="#bfbfbf" points="283,-240 352,-240 "/>
<text text-anchor="middle" x="317.5" y="-228" font-family="Helvetica,sans-Serif" font-size="10.00" fill="#000000"> </text>
</g>
<!-- Node12&#45;&gt;Node5 -->
<g id="edge7" class="edge">
<title>Node12&#45;&gt;Node5</title>
<path fill="none" stroke="#191970" d="M333.7382,-211.1082C339.2735,-198.0212 345.6975,-182.833 352.1379,-167.6061"/>
<polygon fill="none" stroke="#191970" points="330.3651,-210.0986 329.6931,-220.6721 336.8121,-212.8255 330.3651,-210.0986"/>
</g>
<!-- Node13 -->
<g id="node9" class="node">
<title>Node13</title>
<polygon fill="none" stroke="#bfbfbf" points="370.5,-221 370.5,-278 404.5,-278 404.5,-221 370.5,-221"/>
<text text-anchor="middle" x="387.5" y="-266" font-family="Helvetica,sans-Serif" font-size="10.00" fill="#000000">Clip</text>
<polyline fill="none" stroke="#bfbfbf" points="370.5,-259 404.5,-259 "/>
<text text-anchor="middle" x="387.5" y="-247" font-family="Helvetica,sans-Serif" font-size="10.00" fill="#000000"> </text>
<polyline fill="none" stroke="#bfbfbf" points="370.5,-240 404.5,-240 "/>
<text text-anchor="middle" x="387.5" y="-228" font-family="Helvetica,sans-Serif" font-size="10.00" fill="#000000"> </text>
</g>
<!-- Node13&#45;&gt;Node5 -->
<g id="edge8" class="edge">
<title>Node13&#45;&gt;Node5</title>
<path fill="none" stroke="#404040" d="M387.5,-220.6721C387.5,-208.9069 387.5,-194.5659 387.5,-179.6516"/>
<polygon fill="none" stroke="#404040" points="387.5001,-179.6061 383.5,-173.6061 387.5,-167.6061 391.5,-173.606 387.5001,-179.6061"/>
<text text-anchor="middle" x="400" y="-189" font-family="Helvetica,sans-Serif" font-size="10.00" fill="#000000"> ~clip</text>
</g>
<!-- Node14 -->
<g id="node10" class="node">
<title>Node14</title>
<polygon fill="none" stroke="#bfbfbf" points="423,-221 423,-278 452,-278 452,-221 423,-221"/>
<text text-anchor="middle" x="437.5" y="-266" font-family="Helvetica,sans-Serif" font-size="10.00" fill="#000000">int</text>
<polyline fill="none" stroke="#bfbfbf" points="423,-259 452,-259 "/>
<text text-anchor="middle" x="437.5" y="-247" font-family="Helvetica,sans-Serif" font-size="10.00" fill="#000000"> </text>
<polyline fill="none" stroke="#bfbfbf" points="423,-240 452,-240 "/>
<text text-anchor="middle" x="437.5" y="-228" font-family="Helvetica,sans-Serif" font-size="10.00" fill="#000000"> </text>
</g>
<!-- Node14&#45;&gt;Node5 -->
<g id="edge9" class="edge">
<title>Node14&#45;&gt;Node5</title>
<path fill="none" stroke="#404040" d="M428.7907,-220.6721C425.201,-208.7904 420.8177,-194.2816 416.2639,-179.2085"/>
<polygon fill="none" stroke="#404040" points="416.2292,-179.0933 410.6648,-174.5065 412.7586,-167.6061 418.323,-172.1928 416.2292,-179.0933"/>
<text text-anchor="middle" x="451" y="-189" font-family="Helvetica,sans-Serif" font-size="10.00" fill="#000000"> ~trackLength</text>
</g>
<!-- Node15 -->
<g id="node11" class="node">
<title>Node15</title>
<polygon fill="none" stroke="#bfbfbf" points="490.5,-221 490.5,-278 550.5,-278 550.5,-221 490.5,-221"/>
<text text-anchor="middle" x="520.5" y="-266" font-family="Helvetica,sans-Serif" font-size="10.00" fill="#000000">LineEvent</text>
<polyline fill="none" stroke="#bfbfbf" points="490.5,-259 550.5,-259 "/>
<text text-anchor="middle" x="520.5" y="-247" font-family="Helvetica,sans-Serif" font-size="10.00" fill="#000000"> </text>
<polyline fill="none" stroke="#bfbfbf" points="490.5,-240 550.5,-240 "/>
<text text-anchor="middle" x="520.5" y="-228" font-family="Helvetica,sans-Serif" font-size="10.00" fill="#000000"> </text>
</g>
<!-- Node15&#45;&gt;Node5 -->
<g id="edge10" class="edge">
<title>Node15&#45;&gt;Node5</title>
<path fill="none" stroke="#404040" d="M506.6801,-220.7127C500.7706,-209.4795 493.4104,-196.7457 485.5,-186 477.1403,-174.644 467.6002,-163.2505 457.8299,-152.4077"/>
<polygon fill="none" stroke="#404040" points="457.71,-152.2772 450.7047,-150.5665 449.5895,-143.4422 456.5948,-145.1529 457.71,-152.2772"/>
<text text-anchor="middle" x="517" y="-189" font-family="Helvetica,sans-Serif" font-size="10.00" fill="#000000"> ~lastEvent</text>
</g>
</g>
</svg>
