<?xml version="1.0" encoding="UTF-8" standalone="no"?>
<!DOCTYPE svg PUBLIC "-//W3C//DTD SVG 1.1//EN"
 "http://www.w3.org/Graphics/SVG/1.1/DTD/svg11.dtd">
<!-- Generated by graphviz version 2.40.1 (20161225.0304)
 -->
<!-- Title: ene.models.TrackListModel Pages: 1 -->
<svg width="535pt" height="502pt"
 viewBox="0.00 0.00 534.50 502.00" xmlns="http://www.w3.org/2000/svg" xmlns:xlink="http://www.w3.org/1999/xlink">
<g id="graph0" class="graph" transform="scale(1 1) rotate(0) translate(4 498)">
<title>ene.models.TrackListModel</title>
<!-- Node6 -->
<g id="node1" class="node">
<title>Node6</title>
<polygon fill="#bfbfbf" stroke="#000000" points="228,-.5 228,-90.5 365,-90.5 365,-.5 228,-.5"/>
<text text-anchor="middle" x="296.5" y="-78.5" font-family="Helvetica,sans-Serif" font-size="10.00" fill="#000000">ene.models.TrackListModel</text>
<polyline fill="none" stroke="#000000" points="228,-71.5 365,-71.5 "/>
<text text-anchor="middle" x="296.5" y="-59.5" font-family="Helvetica,sans-Serif" font-size="10.00" fill="#000000"> </text>
<polyline fill="none" stroke="#000000" points="228,-52.5 365,-52.5 "/>
<text text-anchor="start" x="236" y="-40.5" font-family="Helvetica,sans-Serif" font-size="10.00" fill="#000000">+ add()</text>
<text text-anchor="start" x="236" y="-29.5" font-family="Helvetica,sans-Serif" font-size="10.00" fill="#000000">+ remove()</text>
<text text-anchor="start" x="236" y="-18.5" font-family="Helvetica,sans-Serif" font-size="10.00" fill="#000000">+ get()</text>
<text text-anchor="start" x="236" y="-7.5" font-family="Helvetica,sans-Serif" font-size="10.00" fill="#000000">+ getAll()</text>
</g>
<!-- Node7 -->
<g id="node2" class="node">
<title>Node7</title>
<g id="a_node2"><a xlink:href="classene_1_1models_1_1AbstractModel.html" target="_top" xlink:title="{ene.models.AbstractModel\n||+ addView()\l# changed()\l}">
<polygon fill="none" stroke="#000000" points="156,-138.5 156,-206.5 289,-206.5 289,-138.5 156,-138.5"/>
<text text-anchor="middle" x="222.5" y="-194.5" font-family="Helvetica,sans-Serif" font-size="10.00" fill="#000000">ene.models.AbstractModel</text>
<polyline fill="none" stroke="#000000" points="156,-187.5 289,-187.5 "/>
<text text-anchor="middle" x="222.5" y="-175.5" font-family="Helvetica,sans-Serif" font-size="10.00" fill="#000000"> </text>
<polyline fill="none" stroke="#000000" points="156,-168.5 289,-168.5 "/>
<text text-anchor="start" x="164" y="-156.5" font-family="Helvetica,sans-Serif" font-size="10.00" fill="#000000">+ addView()</text>
<text text-anchor="start" x="164" y="-145.5" font-family="Helvetica,sans-Serif" font-size="10.00" fill="#000000"># changed()</text>
</a>
</g>
</g>
<!-- Node7&#45;&gt;Node6 -->
<g id="edge1" class="edge">
<title>Node7&#45;&gt;Node6</title>
<path fill="none" stroke="#191970" d="M247.5091,-129.5789C254.8167,-117.0375 262.824,-103.2953 270.2085,-90.6219"/>
<polygon fill="none" stroke="#191970" points="244.3411,-128.064 242.3306,-138.4663 250.3893,-131.5881 244.3411,-128.064"/>
</g>
<!-- Node8 -->
<g id="node3" class="node">
<title>Node8</title>
<g id="a_node3"><a xlink:href="classene_1_1AbstractObject.html" target="_top" xlink:title="{ene.AbstractObject\n||+ enableDebugMode()\l+ disableDebugMode()\l+ isDebugModeEnabled()\l+ debugInfoAbout()\l+ consoleOutput()\l# delay()\l}">
<polygon fill="none" stroke="#000000" points="0,-265.5 0,-377.5 127,-377.5 127,-265.5 0,-265.5"/>
<text text-anchor="middle" x="63.5" y="-365.5" font-family="Helvetica,sans-Serif" font-size="10.00" fill="#000000">ene.AbstractObject</text>
<polyline fill="none" stroke="#000000" points="0,-358.5 127,-358.5 "/>
<text text-anchor="middle" x="63.5" y="-346.5" font-family="Helvetica,sans-Serif" font-size="10.00" fill="#000000"> </text>
<polyline fill="none" stroke="#000000" points="0,-339.5 127,-339.5 "/>
<text text-anchor="start" x="8" y="-327.5" font-family="Helvetica,sans-Serif" font-size="10.00" fill="#000000">+ enableDebugMode()</text>
<text text-anchor="start" x="8" y="-316.5" font-family="Helvetica,sans-Serif" font-size="10.00" fill="#000000">+ disableDebugMode()</text>
<text text-anchor="start" x="8" y="-305.5" font-family="Helvetica,sans-Serif" font-size="10.00" fill="#000000">+ isDebugModeEnabled()</text>
<text text-anchor="start" x="8" y="-294.5" font-family="Helvetica,sans-Serif" font-size="10.00" fill="#000000">+ debugInfoAbout()</text>
<text text-anchor="start" x="8" y="-283.5" font-family="Helvetica,sans-Serif" font-size="10.00" fill="#000000">+ consoleOutput()</text>
<text text-anchor="start" x="8" y="-272.5" font-family="Helvetica,sans-Serif" font-size="10.00" fill="#000000"># delay()</text>
</a>
</g>
</g>
<!-- Node8&#45;&gt;Node7 -->
<g id="edge2" class="edge">
<title>Node8&#45;&gt;Node7</title>
<path fill="none" stroke="#191970" d="M131.0378,-258.2098C149.8339,-240.5959 169.5429,-222.1264 185.8319,-206.8619"/>
<polygon fill="none" stroke="#191970" points="128.5146,-255.7777 123.6111,-265.1695 133.3012,-260.8855 128.5146,-255.7777"/>
</g>
<!-- Node9 -->
<g id="node4" class="node">
<title>Node9</title>
<polygon fill="none" stroke="#bfbfbf" points="25,-436.5 25,-493.5 102,-493.5 102,-436.5 25,-436.5"/>
<text text-anchor="middle" x="63.5" y="-481.5" font-family="Helvetica,sans-Serif" font-size="10.00" fill="#000000">static boolean</text>
<polyline fill="none" stroke="#bfbfbf" points="25,-474.5 102,-474.5 "/>
<text text-anchor="middle" x="63.5" y="-462.5" font-family="Helvetica,sans-Serif" font-size="10.00" fill="#000000"> </text>
<polyline fill="none" stroke="#bfbfbf" points="25,-455.5 102,-455.5 "/>
<text text-anchor="middle" x="63.5" y="-443.5" font-family="Helvetica,sans-Serif" font-size="10.00" fill="#000000"> </text>
</g>
<!-- Node9&#45;&gt;Node8 -->
<g id="edge3" class="edge">
<title>Node9&#45;&gt;Node8</title>
<path fill="none" stroke="#404040" d="M63.5,-436.3055C63.5,-422.9442 63.5,-406.4218 63.5,-390.1157"/>
<polygon fill="none" stroke="#404040" points="63.5001,-389.7445 59.5,-383.7445 63.5,-377.7445 67.5,-383.7444 63.5001,-389.7445"/>
<text text-anchor="middle" x="110.5" y="-404.5" font-family="Helvetica,sans-Serif" font-size="10.00" fill="#000000"> #debugModeEnabled</text>
</g>
<!-- Node10 -->
<g id="node5" class="node">
<title>Node10</title>
<g id="a_node5"><a xlink:href="interfaceene_1_1interfaces_1_1Model.html" target="_top" xlink:title="{ene.interfaces.Model\n||+ addView()\l}">
<polygon fill="none" stroke="#000000" points="145,-293 145,-350 252,-350 252,-293 145,-293"/>
<text text-anchor="middle" x="198.5" y="-338" font-family="Helvetica,sans-Serif" font-size="10.00" fill="#000000">ene.interfaces.Model</text>
<polyline fill="none" stroke="#000000" points="145,-331 252,-331 "/>
<text text-anchor="middle" x="198.5" y="-319" font-family="Helvetica,sans-Serif" font-size="10.00" fill="#000000"> </text>
<polyline fill="none" stroke="#000000" points="145,-312 252,-312 "/>
<text text-anchor="start" x="153" y="-300" font-family="Helvetica,sans-Serif" font-size="10.00" fill="#000000">+ addView()</text>
</a>
</g>
</g>
<!-- Node10&#45;&gt;Node7 -->
<g id="edge4" class="edge">
<title>Node10&#45;&gt;Node7</title>
<path fill="none" stroke="#191970" d="M204.7407,-282.7559C208.5397,-259.1705 213.3482,-229.3175 217.0033,-206.6252"/>
<polygon fill="none" stroke="#191970" points="201.2623,-282.3419 203.1274,-292.7713 208.1732,-283.4552 201.2623,-282.3419"/>
</g>
<!-- Node11 -->
<g id="node6" class="node">
<title>Node11</title>
<polygon fill="none" stroke="#bfbfbf" points="270.5,-287.5 270.5,-355.5 404.5,-355.5 404.5,-287.5 270.5,-287.5"/>
<text text-anchor="start" x="278.5" y="-343.5" font-family="Helvetica,sans-Serif" font-size="10.00" fill="#000000">List&lt; ene.interfaces.Partial</text>
<text text-anchor="middle" x="337.5" y="-332.5" font-family="Helvetica,sans-Serif" font-size="10.00" fill="#000000">View &gt;</text>
<polyline fill="none" stroke="#bfbfbf" points="270.5,-325.5 404.5,-325.5 "/>
<text text-anchor="middle" x="337.5" y="-313.5" font-family="Helvetica,sans-Serif" font-size="10.00" fill="#000000"> </text>
<polyline fill="none" stroke="#bfbfbf" points="270.5,-306.5 404.5,-306.5 "/>
<text text-anchor="middle" x="337.5" y="-294.5" font-family="Helvetica,sans-Serif" font-size="10.00" fill="#000000"> </text>
</g>
<!-- Node11&#45;&gt;Node7 -->
<g id="edge5" class="edge">
<title>Node11&#45;&gt;Node7</title>
<path fill="none" stroke="#404040" d="M311.1167,-287.3164C294.8271,-266.2108 273.7697,-238.9277 256.2692,-216.2531"/>
<polygon fill="none" stroke="#404040" points="256.0925,-216.0242 249.26,-213.7184 248.7606,-206.5245 255.5931,-208.8304 256.0925,-216.0242"/>
<text text-anchor="middle" x="297.5" y="-233.5" font-family="Helvetica,sans-Serif" font-size="10.00" fill="#000000"> #views</text>
</g>
<!-- Node12 -->
<g id="node7" class="node">
<title>Node12</title>
<polygon fill="none" stroke="#bfbfbf" points="321.5,-436.5 321.5,-493.5 353.5,-493.5 353.5,-436.5 321.5,-436.5"/>
<text text-anchor="middle" x="337.5" y="-481.5" font-family="Helvetica,sans-Serif" font-size="10.00" fill="#000000">List</text>
<polyline fill="none" stroke="#bfbfbf" points="321.5,-474.5 353.5,-474.5 "/>
<text text-anchor="middle" x="337.5" y="-462.5" font-family="Helvetica,sans-Serif" font-size="10.00" fill="#000000"> </text>
<polyline fill="none" stroke="#bfbfbf" points="321.5,-455.5 353.5,-455.5 "/>
<text text-anchor="middle" x="337.5" y="-443.5" font-family="Helvetica,sans-Serif" font-size="10.00" fill="#000000"> </text>
</g>
<!-- Node12&#45;&gt;Node11 -->
<g id="edge6" class="edge">
<title>Node12&#45;&gt;Node11</title>
<path fill="none" stroke="#ffa500" d="M337.5,-426.2878C337.5,-404.2661 337.5,-376.9324 337.5,-355.7037"/>
<polygon fill="#ffa500" stroke="#ffa500" points="334.0001,-426.3055 337.5,-436.3055 341.0001,-426.3056 334.0001,-426.3055"/>
<text text-anchor="start" x="337.5" y="-410" font-family="Helvetica,sans-Serif" font-size="10.00" fill="#000000"> &lt; ene::interfaces::</text>
<text text-anchor="middle" x="379" y="-399" font-family="Helvetica,sans-Serif" font-size="10.00" fill="#000000">PartialView &gt;</text>
</g>
<!-- Node13 -->
<g id="node8" class="node">
<title>Node13</title>
<polygon fill="none" stroke="#bfbfbf" points="353,-138.5 353,-206.5 482,-206.5 482,-138.5 353,-138.5"/>
<text text-anchor="start" x="361" y="-194.5" font-family="Helvetica,sans-Serif" font-size="10.00" fill="#000000">Map&lt; String, ene.models.</text>
<text text-anchor="middle" x="417.5" y="-183.5" font-family="Helvetica,sans-Serif" font-size="10.00" fill="#000000">TrackModel &gt;</text>
<polyline fill="none" stroke="#bfbfbf" points="353,-176.5 482,-176.5 "/>
<text text-anchor="middle" x="417.5" y="-164.5" font-family="Helvetica,sans-Serif" font-size="10.00" fill="#000000"> </text>
<polyline fill="none" stroke="#bfbfbf" points="353,-157.5 482,-157.5 "/>
<text text-anchor="middle" x="417.5" y="-145.5" font-family="Helvetica,sans-Serif" font-size="10.00" fill="#000000"> </text>
</g>
<!-- Node13&#45;&gt;Node6 -->
<g id="edge7" class="edge">
<title>Node13&#45;&gt;Node6</title>
<path fill="none" stroke="#404040" d="M385.0742,-138.4663C373.6987,-126.5267 360.6217,-112.8013 348.0692,-99.6263"/>
<polygon fill="none" stroke="#404040" points="347.7677,-99.3099 340.7329,-97.7251 339.4901,-90.6219 346.5249,-92.2067 347.7677,-99.3099"/>
<text text-anchor="middle" x="382.5" y="-112" font-family="Helvetica,sans-Serif" font-size="10.00" fill="#000000"> #tracks</text>
</g>
<!-- Node14 -->
<g id="node9" class="node">
<title>Node14</title>
<polygon fill="none" stroke="#bfbfbf" points="423,-293 423,-350 458,-350 458,-293 423,-293"/>
<text text-anchor="middle" x="440.5" y="-338" font-family="Helvetica,sans-Serif" font-size="10.00" fill="#000000">Map</text>
<polyline fill="none" stroke="#bfbfbf" points="423,-331 458,-331 "/>
<text text-anchor="middle" x="440.5" y="-319" font-family="Helvetica,sans-Serif" font-size="10.00" fill="#000000"> </text>
<polyline fill="none" stroke="#bfbfbf" points="423,-312 458,-312 "/>
<text text-anchor="middle" x="440.5" y="-300" font-family="Helvetica,sans-Serif" font-size="10.00" fill="#000000"> </text>
</g>
<!-- Node14&#45;&gt;Node13 -->
<g id="edge8" class="edge">
<title>Node14&#45;&gt;Node13</title>
<path fill="none" stroke="#ffa500" d="M434.5194,-282.7559C430.8787,-259.1705 426.2705,-229.3175 422.7677,-206.6252"/>
<polygon fill="#ffa500" stroke="#ffa500" points="431.0807,-283.4223 436.0654,-292.7713 437.9988,-282.3544 431.0807,-283.4223"/>
<text text-anchor="start" x="429.5" y="-239" font-family="Helvetica,sans-Serif" font-size="10.00" fill="#000000"> &lt; String, ene::models</text>
<text text-anchor="middle" x="478" y="-228" font-family="Helvetica,sans-Serif" font-size="10.00" fill="#000000">::TrackModel &gt;</text>
</g>
</g>
</svg>
