<?xml version="1.0" encoding="UTF-8" standalone="no"?>
<!DOCTYPE svg PUBLIC "-//W3C//DTD SVG 1.1//EN"
 "http://www.w3.org/Graphics/SVG/1.1/DTD/svg11.dtd">
<!-- Generated by graphviz version 2.40.1 (20161225.0304)
 -->
<!-- Title: ene.Application.main Pages: 1 -->
<svg width="492pt" height="127pt"
 viewBox="0.00 0.00 492.00 126.50" xmlns="http://www.w3.org/2000/svg" xmlns:xlink="http://www.w3.org/1999/xlink">
<g id="graph0" class="graph" transform="scale(1 1) rotate(0) translate(4 122.5)">
<title>ene.Application.main</title>
<!-- Node0 -->
<g id="node1" class="node">
<title>Node0</title>
<polygon fill="#bfbfbf" stroke="#000000" points="0,-22.5 0,-41.5 107,-41.5 107,-22.5 0,-22.5"/>
<text text-anchor="middle" x="53.5" y="-29.5" font-family="Helvetica,sans-Serif" font-size="10.00" fill="#000000">ene.Application.main</text>
</g>
<!-- Node1 -->
<g id="node2" class="node">
<title>Node1</title>
<g id="a_node2"><a xlink:href="classene_1_1Application.html#a096fa8803429fdb43c79cde1705b489f" target="_top" xlink:title="ene.Application.processArguments">
<polygon fill="none" stroke="#000000" points="143,-44.5 143,-63.5 311,-63.5 311,-44.5 143,-44.5"/>
<text text-anchor="middle" x="227" y="-51.5" font-family="Helvetica,sans-Serif" font-size="10.00" fill="#000000">ene.Application.processArguments</text>
</a>
</g>
</g>
<!-- Node0&#45;&gt;Node1 -->
<g id="edge1" class="edge">
<title>Node0&#45;&gt;Node1</title>
<path fill="none" stroke="#191970" d="M107.4454,-38.8403C118.3706,-40.2257 130.1099,-41.7142 141.8112,-43.198"/>
<polygon fill="#191970" stroke="#191970" points="141.7022,-46.7121 152.0631,-44.4979 142.5828,-39.7677 141.7022,-46.7121"/>
</g>
<!-- Node4 -->
<g id="node5" class="node">
<title>Node4</title>
<g id="a_node5"><a xlink:href="classene_1_1Application.html#a78f509d3eeb9756683ed98b5bed5edbf" target="_top" xlink:title="ene.Application.run">
<polygon fill="none" stroke="#000000" points="177,-3.5 177,-22.5 277,-22.5 277,-3.5 177,-3.5"/>
<text text-anchor="middle" x="227" y="-10.5" font-family="Helvetica,sans-Serif" font-size="10.00" fill="#000000">ene.Application.run</text>
</a>
</g>
</g>
<!-- Node0&#45;&gt;Node4 -->
<g id="edge4" class="edge">
<title>Node0&#45;&gt;Node4</title>
<path fill="none" stroke="#191970" d="M107.4454,-26.0924C126.249,-24.0333 147.464,-21.71 166.7469,-19.5983"/>
<polygon fill="#191970" stroke="#191970" points="167.3717,-23.0509 176.9312,-18.483 166.6096,-16.0925 167.3717,-23.0509"/>
</g>
<!-- Node2 -->
<g id="node3" class="node">
<title>Node2</title>
<g id="a_node3"><a xlink:href="classene_1_1AbstractObject.html#a9ce30d3321c7ce794df2f07bdaf3e47c" target="_top" xlink:title="ene.AbstractObject.console\lOutput">
<polygon fill="none" stroke="#000000" points="347,-88 347,-118 484,-118 484,-88 347,-88"/>
<text text-anchor="start" x="355" y="-106" font-family="Helvetica,sans-Serif" font-size="10.00" fill="#000000">ene.AbstractObject.console</text>
<text text-anchor="middle" x="415.5" y="-95" font-family="Helvetica,sans-Serif" font-size="10.00" fill="#000000">Output</text>
</a>
</g>
</g>
<!-- Node1&#45;&gt;Node2 -->
<g id="edge2" class="edge">
<title>Node1&#45;&gt;Node2</title>
<path fill="none" stroke="#191970" d="M263.7922,-63.564C287.6569,-69.7676 319.4692,-78.0371 347.7977,-85.401"/>
<polygon fill="#191970" stroke="#191970" points="347.0948,-88.8345 357.6537,-87.963 348.8559,-82.0597 347.0948,-88.8345"/>
</g>
<!-- Node3 -->
<g id="node4" class="node">
<title>Node3</title>
<g id="a_node4"><a xlink:href="classene_1_1AbstractObject.html#a3a6c641ec379167c42fed40e2c9b3d36" target="_top" xlink:title="ene.AbstractObject.enable\lDebugMode">
<polygon fill="none" stroke="#000000" points="349.5,-39 349.5,-69 481.5,-69 481.5,-39 349.5,-39"/>
<text text-anchor="start" x="357.5" y="-57" font-family="Helvetica,sans-Serif" font-size="10.00" fill="#000000">ene.AbstractObject.enable</text>
<text text-anchor="middle" x="415.5" y="-46" font-family="Helvetica,sans-Serif" font-size="10.00" fill="#000000">DebugMode</text>
</a>
</g>
</g>
<!-- Node1&#45;&gt;Node3 -->
<g id="edge3" class="edge">
<title>Node1&#45;&gt;Node3</title>
<path fill="none" stroke="#191970" d="M311.0512,-54C320.4962,-54 330.0793,-54 339.4153,-54"/>
<polygon fill="#191970" stroke="#191970" points="339.4307,-57.5001 349.4307,-54 339.4306,-50.5001 339.4307,-57.5001"/>
</g>
<!-- Node5 -->
<g id="node6" class="node">
<title>Node5</title>
<g id="a_node6"><a xlink:href="interfaceene_1_1interfaces_1_1View.html#a07f4a88fc3afe00cd3c090f89cc04ca0" target="_top" xlink:title="ene.interfaces.View.render">
<polygon fill="none" stroke="#000000" points="349,-.5 349,-19.5 482,-19.5 482,-.5 349,-.5"/>
<text text-anchor="middle" x="415.5" y="-7.5" font-family="Helvetica,sans-Serif" font-size="10.00" fill="#000000">ene.interfaces.View.render</text>
</a>
</g>
</g>
<!-- Node4&#45;&gt;Node5 -->
<g id="edge5" class="edge">
<title>Node4&#45;&gt;Node5</title>
<path fill="none" stroke="#191970" d="M277.0196,-12.2039C295.9536,-11.9026 317.9674,-11.5522 338.7962,-11.2208"/>
<polygon fill="#191970" stroke="#191970" points="338.9643,-14.7186 348.9073,-11.0598 338.8528,-7.7195 338.9643,-14.7186"/>
</g>
</g>
</svg>
