<?xml version="1.0" encoding="UTF-8" standalone="no"?>
<!DOCTYPE svg PUBLIC "-//W3C//DTD SVG 1.1//EN"
 "http://www.w3.org/Graphics/SVG/1.1/DTD/svg11.dtd">
<!-- Generated by graphviz version 2.40.1 (20161225.0304)
 -->
<!-- Title: ene.controllers.LibraryController.getDatabaseFilename Pages: 1 -->
<svg width="579pt" height="72pt"
 viewBox="0.00 0.00 579.00 71.50" xmlns="http://www.w3.org/2000/svg" xmlns:xlink="http://www.w3.org/1999/xlink">
<g id="graph0" class="graph" transform="scale(1 1) rotate(0) translate(4 67.5)">
<title>ene.controllers.LibraryController.getDatabaseFilename</title>
<!-- Node55 -->
<g id="node1" class="node">
<title>Node55</title>
<polygon fill="#bfbfbf" stroke="#000000" points="0,-14 0,-44 171,-44 171,-14 0,-14"/>
<text text-anchor="start" x="8" y="-32" font-family="Helvetica,sans-Serif" font-size="10.00" fill="#000000">ene.controllers.LibraryController.get</text>
<text text-anchor="middle" x="85.5" y="-21" font-family="Helvetica,sans-Serif" font-size="10.00" fill="#000000">DatabaseFilename</text>
</g>
<!-- Node56 -->
<g id="node2" class="node">
<title>Node56</title>
<g id="a_node2"><a xlink:href="classene_1_1controllers_1_1LibraryController.html#aa0d66e53872a376fe6d456eb070de8d4" target="_top" xlink:title="ene.controllers.LibraryController.add">
<polygon fill="none" stroke="#000000" points="215.5,-38.5 215.5,-57.5 388.5,-57.5 388.5,-38.5 215.5,-38.5"/>
<text text-anchor="middle" x="302" y="-45.5" font-family="Helvetica,sans-Serif" font-size="10.00" fill="#000000">ene.controllers.LibraryController.add</text>
</a>
</g>
</g>
<!-- Node55&#45;&gt;Node56 -->
<g id="edge1" class="edge">
<title>Node55&#45;&gt;Node56</title>
<path fill="none" stroke="#191970" d="M181.3683,-37.4134C192.6572,-38.4041 204.128,-39.4108 215.2811,-40.3896"/>
<polygon fill="#191970" stroke="#191970" points="181.3343,-33.897 171.0665,-36.5093 180.7222,-40.8702 181.3343,-33.897"/>
</g>
<!-- Node58 -->
<g id="node4" class="node">
<title>Node58</title>
<g id="a_node4"><a xlink:href="classene_1_1controllers_1_1LibraryController.html#aac7853b4f42ee8c4d8704e036eca61a0" target="_top" xlink:title="ene.controllers.LibraryController.remove">
<polygon fill="none" stroke="#000000" points="207,-.5 207,-19.5 397,-19.5 397,-.5 207,-.5"/>
<text text-anchor="middle" x="302" y="-7.5" font-family="Helvetica,sans-Serif" font-size="10.00" fill="#000000">ene.controllers.LibraryController.remove</text>
</a>
</g>
</g>
<!-- Node55&#45;&gt;Node58 -->
<g id="edge3" class="edge">
<title>Node55&#45;&gt;Node58</title>
<path fill="none" stroke="#191970" d="M181.2925,-20.5933C189.729,-19.8529 198.2678,-19.1035 206.7003,-18.3635"/>
<polygon fill="#191970" stroke="#191970" points="180.7222,-17.1298 171.0665,-21.4907 181.3343,-24.103 180.7222,-17.1298"/>
</g>
<!-- Node57 -->
<g id="node3" class="node">
<title>Node57</title>
<g id="a_node3"><a xlink:href="classene_1_1views_1_1gui_1_1partial_1_1LibraryView.html#a0bd6885fe06ebde4d3dffbcd888c0b41" target="_top" xlink:title="ene.views.gui.partial.Library\lView.render">
<polygon fill="none" stroke="#000000" points="433,-33 433,-63 571,-63 571,-33 433,-33"/>
<text text-anchor="start" x="441" y="-51" font-family="Helvetica,sans-Serif" font-size="10.00" fill="#000000">ene.views.gui.partial.Library</text>
<text text-anchor="middle" x="502" y="-40" font-family="Helvetica,sans-Serif" font-size="10.00" fill="#000000">View.render</text>
</a>
</g>
</g>
<!-- Node56&#45;&gt;Node57 -->
<g id="edge2" class="edge">
<title>Node56&#45;&gt;Node57</title>
<path fill="none" stroke="#191970" d="M398.6515,-48C410.1701,-48 421.7481,-48 432.7731,-48"/>
<polygon fill="#191970" stroke="#191970" points="398.5597,-44.5001 388.5597,-48 398.5597,-51.5001 398.5597,-44.5001"/>
</g>
</g>
</svg>
