<?xml version="1.0" encoding="UTF-8" standalone="no"?>
<!DOCTYPE svg PUBLIC "-//W3C//DTD SVG 1.1//EN"
 "http://www.w3.org/Graphics/SVG/1.1/DTD/svg11.dtd">
<!-- Generated by graphviz version 2.40.1 (20161225.0304)
 -->
<!-- Title: ene.models.PlaylistModel.updateLastAccess Pages: 1 -->
<svg width="931pt" height="312pt"
 viewBox="0.00 0.00 931.00 312.00" xmlns="http://www.w3.org/2000/svg" xmlns:xlink="http://www.w3.org/1999/xlink">
<g id="graph0" class="graph" transform="scale(1 1) rotate(0) translate(4 308)">
<title>ene.models.PlaylistModel.updateLastAccess</title>
<!-- Node48 -->
<g id="node1" class="node">
<title>Node48</title>
<polygon fill="#bfbfbf" stroke="#000000" points="0,-95.5 0,-125.5 161,-125.5 161,-95.5 0,-95.5"/>
<text text-anchor="start" x="8" y="-113.5" font-family="Helvetica,sans-Serif" font-size="10.00" fill="#000000">ene.models.PlaylistModel.update</text>
<text text-anchor="middle" x="80.5" y="-102.5" font-family="Helvetica,sans-Serif" font-size="10.00" fill="#000000">LastAccess</text>
</g>
<!-- Node49 -->
<g id="node2" class="node">
<title>Node49</title>
<g id="a_node2"><a xlink:href="classene_1_1models_1_1PlaylistModel.html#ad63fd499a74248dc9dadad29b9882fd2" target="_top" xlink:title="ene.models.PlaylistModel.get\lCurrentTrack">
<polygon fill="none" stroke="#000000" points="197,-142.5 197,-172.5 342,-172.5 342,-142.5 197,-142.5"/>
<text text-anchor="start" x="205" y="-160.5" font-family="Helvetica,sans-Serif" font-size="10.00" fill="#000000">ene.models.PlaylistModel.get</text>
<text text-anchor="middle" x="269.5" y="-149.5" font-family="Helvetica,sans-Serif" font-size="10.00" fill="#000000">CurrentTrack</text>
</a>
</g>
</g>
<!-- Node48&#45;&gt;Node49 -->
<g id="edge1" class="edge">
<title>Node48&#45;&gt;Node49</title>
<path fill="none" stroke="#191970" d="M150.7056,-127.9585C169.8939,-132.7302 190.5158,-137.8584 209.1044,-142.481"/>
<polygon fill="#191970" stroke="#191970" points="151.3695,-124.5171 140.8204,-125.5003 149.6802,-131.3102 151.3695,-124.5171"/>
</g>
<!-- Node58 -->
<g id="node11" class="node">
<title>Node58</title>
<g id="a_node11"><a xlink:href="classene_1_1models_1_1PlaylistModel.html#a7150506b3801f97a2e38955a585bbd07" target="_top" xlink:title="ene.models.PlaylistModel.set\lCurrentTrack">
<polygon fill="none" stroke="#000000" points="197,-71.5 197,-101.5 342,-101.5 342,-71.5 197,-71.5"/>
<text text-anchor="start" x="205" y="-89.5" font-family="Helvetica,sans-Serif" font-size="10.00" fill="#000000">ene.models.PlaylistModel.set</text>
<text text-anchor="middle" x="269.5" y="-78.5" font-family="Helvetica,sans-Serif" font-size="10.00" fill="#000000">CurrentTrack</text>
</a>
</g>
</g>
<!-- Node48&#45;&gt;Node58 -->
<g id="edge12" class="edge">
<title>Node48&#45;&gt;Node58</title>
<path fill="none" stroke="#191970" d="M171.2435,-98.977C179.8288,-97.8868 188.4554,-96.7914 196.8395,-95.7267"/>
<polygon fill="#191970" stroke="#191970" points="170.6806,-95.5203 161.2012,-100.2522 171.5625,-102.4645 170.6806,-95.5203"/>
</g>
<!-- Node50 -->
<g id="node3" class="node">
<title>Node50</title>
<g id="a_node3"><a xlink:href="classene_1_1views_1_1gui_1_1partial_1_1PlaylistView.html#aab891c82686652a49db41a3e1bc1f3b9" target="_top" xlink:title="ene.views.gui.partial.Playlist\lView.loadContent">
<polygon fill="none" stroke="#000000" points="391.5,-224.5 391.5,-254.5 532.5,-254.5 532.5,-224.5 391.5,-224.5"/>
<text text-anchor="start" x="399.5" y="-242.5" font-family="Helvetica,sans-Serif" font-size="10.00" fill="#000000">ene.views.gui.partial.Playlist</text>
<text text-anchor="middle" x="462" y="-231.5" font-family="Helvetica,sans-Serif" font-size="10.00" fill="#000000">View.loadContent</text>
</a>
</g>
</g>
<!-- Node49&#45;&gt;Node50 -->
<g id="edge2" class="edge">
<title>Node49&#45;&gt;Node50</title>
<path fill="none" stroke="#191970" d="M308.0899,-177.1986C328.6186,-187.3698 354.4255,-199.6723 378,-209.5 390.578,-214.7435 404.4344,-219.927 417.2041,-224.4722"/>
<polygon fill="#191970" stroke="#191970" points="309.5669,-174.0241 299.0562,-172.6918 306.442,-180.2879 309.5669,-174.0241"/>
</g>
<!-- Node53 -->
<g id="node6" class="node">
<title>Node53</title>
<g id="a_node6"><a xlink:href="classene_1_1models_1_1PlayerModel.html#acfe1fde39cea80b94ae65ed401706d70" target="_top" xlink:title="ene.models.PlayerModel.load\lPlaylist">
<polygon fill="none" stroke="#000000" points="389.5,-273.5 389.5,-303.5 534.5,-303.5 534.5,-273.5 389.5,-273.5"/>
<text text-anchor="start" x="397.5" y="-291.5" font-family="Helvetica,sans-Serif" font-size="10.00" fill="#000000">ene.models.PlayerModel.load</text>
<text text-anchor="middle" x="462" y="-280.5" font-family="Helvetica,sans-Serif" font-size="10.00" fill="#000000">Playlist</text>
</a>
</g>
</g>
<!-- Node49&#45;&gt;Node53 -->
<g id="edge5" class="edge">
<title>Node49&#45;&gt;Node53</title>
<path fill="none" stroke="#191970" d="M287.0566,-180.6841C306.6642,-205.0046 340.598,-242.6674 378,-264.5 383.8944,-267.9407 390.312,-270.9134 396.8869,-273.4762"/>
<polygon fill="#191970" stroke="#191970" points="289.6825,-178.362 280.7364,-172.6859 284.1903,-182.702 289.6825,-178.362"/>
</g>
<!-- Node54 -->
<g id="node7" class="node">
<title>Node54</title>
<g id="a_node7"><a xlink:href="classene_1_1models_1_1PlayerModel.html#a384fd9a2e98fc581e8221659257a8dd4" target="_top" xlink:title="ene.models.PlayerModel.next">
<polygon fill="none" stroke="#000000" points="591,-102 591,-121 737,-121 737,-102 591,-102"/>
<text text-anchor="middle" x="664" y="-109" font-family="Helvetica,sans-Serif" font-size="10.00" fill="#000000">ene.models.PlayerModel.next</text>
</a>
</g>
</g>
<!-- Node49&#45;&gt;Node54 -->
<g id="edge6" class="edge">
<title>Node49&#45;&gt;Node54</title>
<path fill="none" stroke="#191970" d="M352.355,-154.6391C407.4598,-151.9683 481.3235,-146.914 546,-137.5 573.5054,-133.4964 604.1491,-126.6721 627.3141,-121.0195"/>
<polygon fill="#191970" stroke="#191970" points="352.1157,-151.1464 342.2905,-155.1106 352.4434,-158.1387 352.1157,-151.1464"/>
</g>
<!-- Node55 -->
<g id="node8" class="node">
<title>Node55</title>
<g id="a_node8"><a xlink:href="classene_1_1models_1_1PlaylistModel.html#afba0932567d4d21976e3c37c8d80b634" target="_top" xlink:title="ene.models.PlaylistModel.next\lTrack">
<polygon fill="none" stroke="#000000" points="387,-49.5 387,-79.5 537,-79.5 537,-49.5 387,-49.5"/>
<text text-anchor="start" x="395" y="-67.5" font-family="Helvetica,sans-Serif" font-size="10.00" fill="#000000">ene.models.PlaylistModel.next</text>
<text text-anchor="middle" x="462" y="-56.5" font-family="Helvetica,sans-Serif" font-size="10.00" fill="#000000">Track</text>
</a>
</g>
</g>
<!-- Node49&#45;&gt;Node55 -->
<g id="edge7" class="edge">
<title>Node49&#45;&gt;Node55</title>
<path fill="none" stroke="#191970" d="M301.4869,-136.8428C331.9937,-117.1904 373.8998,-90.3427 378,-88.5 385.3321,-85.2049 393.2286,-82.2455 401.1416,-79.624"/>
<polygon fill="#191970" stroke="#191970" points="299.3419,-134.0613 292.8333,-142.4212 303.1347,-139.9448 299.3419,-134.0613"/>
</g>
<!-- Node56 -->
<g id="node9" class="node">
<title>Node56</title>
<g id="a_node9"><a xlink:href="classene_1_1models_1_1PlayerModel.html#a7242e20d537405f031ec8d18e7faf8fc" target="_top" xlink:title="ene.models.PlayerModel.previous">
<polygon fill="none" stroke="#000000" points="582,-145 582,-164 746,-164 746,-145 582,-145"/>
<text text-anchor="middle" x="664" y="-152" font-family="Helvetica,sans-Serif" font-size="10.00" fill="#000000">ene.models.PlayerModel.previous</text>
</a>
</g>
</g>
<!-- Node49&#45;&gt;Node56 -->
<g id="edge9" class="edge">
<title>Node49&#45;&gt;Node56</title>
<path fill="none" stroke="#191970" d="M352.2084,-169.2866C360.902,-170.1919 369.6218,-170.9617 378,-171.5 452.513,-176.2874 471.5243,-176.8372 546,-171.5 566.8511,-170.0057 589.6167,-167.0444 609.5405,-164.0062"/>
<polygon fill="#191970" stroke="#191970" points="352.3599,-165.7822 342.037,-168.1673 351.5941,-172.7402 352.3599,-165.7822"/>
</g>
<!-- Node57 -->
<g id="node10" class="node">
<title>Node57</title>
<g id="a_node10"><a xlink:href="classene_1_1models_1_1PlaylistModel.html#ab30573de71b566da79145210f94be294" target="_top" xlink:title="ene.models.PlaylistModel.previous\lTrack">
<polygon fill="none" stroke="#000000" points="378,-98.5 378,-128.5 546,-128.5 546,-98.5 378,-98.5"/>
<text text-anchor="start" x="386" y="-116.5" font-family="Helvetica,sans-Serif" font-size="10.00" fill="#000000">ene.models.PlaylistModel.previous</text>
<text text-anchor="middle" x="462" y="-105.5" font-family="Helvetica,sans-Serif" font-size="10.00" fill="#000000">Track</text>
</a>
</g>
</g>
<!-- Node49&#45;&gt;Node57 -->
<g id="edge10" class="edge">
<title>Node49&#45;&gt;Node57</title>
<path fill="none" stroke="#191970" d="M345.0494,-140.2316C361.9664,-136.3648 379.779,-132.2934 396.2604,-128.5262"/>
<polygon fill="#191970" stroke="#191970" points="344.1778,-136.8404 335.2092,-142.4808 345.7377,-143.6644 344.1778,-136.8404"/>
</g>
<!-- Node51 -->
<g id="node4" class="node">
<title>Node51</title>
<g id="a_node4"><a xlink:href="classene_1_1views_1_1gui_1_1partial_1_1PlaylistView.html#ad2b87823589c6e8895d2d7b98438a2dc" target="_top" xlink:title="ene.views.gui.partial.Playlist\lView.update">
<polygon fill="none" stroke="#000000" points="593.5,-224.5 593.5,-254.5 734.5,-254.5 734.5,-224.5 593.5,-224.5"/>
<text text-anchor="start" x="601.5" y="-242.5" font-family="Helvetica,sans-Serif" font-size="10.00" fill="#000000">ene.views.gui.partial.Playlist</text>
<text text-anchor="middle" x="664" y="-231.5" font-family="Helvetica,sans-Serif" font-size="10.00" fill="#000000">View.update</text>
</a>
</g>
</g>
<!-- Node50&#45;&gt;Node51 -->
<g id="edge3" class="edge">
<title>Node50&#45;&gt;Node51</title>
<path fill="none" stroke="#191970" d="M542.9316,-239.5C559.6307,-239.5 577.0925,-239.5 593.3901,-239.5"/>
<polygon fill="#191970" stroke="#191970" points="542.6498,-236.0001 532.6498,-239.5 542.6498,-243.0001 542.6498,-236.0001"/>
</g>
<!-- Node52 -->
<g id="node5" class="node">
<title>Node52</title>
<g id="a_node5"><a xlink:href="classene_1_1views_1_1gui_1_1partial_1_1PlaylistView.html#a8d541ff3e91c1492b2e47cc7272ca56d" target="_top" xlink:title="ene.views.gui.partial.Playlist\lView.render">
<polygon fill="none" stroke="#000000" points="782,-224.5 782,-254.5 923,-254.5 923,-224.5 782,-224.5"/>
<text text-anchor="start" x="790" y="-242.5" font-family="Helvetica,sans-Serif" font-size="10.00" fill="#000000">ene.views.gui.partial.Playlist</text>
<text text-anchor="middle" x="852.5" y="-231.5" font-family="Helvetica,sans-Serif" font-size="10.00" fill="#000000">View.render</text>
</a>
</g>
</g>
<!-- Node51&#45;&gt;Node52 -->
<g id="edge4" class="edge">
<title>Node51&#45;&gt;Node52</title>
<path fill="none" stroke="#191970" d="M744.9138,-239.5C757.1491,-239.5 769.6904,-239.5 781.6904,-239.5"/>
<polygon fill="#191970" stroke="#191970" points="744.7268,-236.0001 734.7267,-239.5 744.7267,-243.0001 744.7268,-236.0001"/>
</g>
<!-- Node55&#45;&gt;Node54 -->
<g id="edge8" class="edge">
<title>Node55&#45;&gt;Node54</title>
<path fill="none" stroke="#191970" d="M536.2641,-81.7793C565.5574,-88.595 598.0841,-96.1631 622.9835,-101.9566"/>
<polygon fill="#191970" stroke="#191970" points="537.0025,-78.3577 526.4694,-79.5003 535.4161,-85.1755 537.0025,-78.3577"/>
</g>
<!-- Node57&#45;&gt;Node56 -->
<g id="edge11" class="edge">
<title>Node57&#45;&gt;Node56</title>
<path fill="none" stroke="#191970" d="M545.9945,-130.5484C570.2264,-135.4667 595.803,-140.658 616.9267,-144.9455"/>
<polygon fill="#191970" stroke="#191970" points="546.5667,-127.0932 536.0703,-128.5341 545.1743,-133.9534 546.5667,-127.0932"/>
</g>
<!-- Node58&#45;&gt;Node55 -->
<g id="edge14" class="edge">
<title>Node58&#45;&gt;Node55</title>
<path fill="none" stroke="#191970" d="M352.1025,-77.0597C363.6953,-75.7348 375.5577,-74.3791 386.9985,-73.0716"/>
<polygon fill="#191970" stroke="#191970" points="351.5396,-73.6012 342.0017,-78.2141 352.3345,-80.5559 351.5396,-73.6012"/>
</g>
<!-- Node58&#45;&gt;Node57 -->
<g id="edge15" class="edge">
<title>Node58&#45;&gt;Node57</title>
<path fill="none" stroke="#191970" d="M351.9956,-98.0708C360.5816,-99.2751 369.3167,-100.5003 377.92,-101.707"/>
<polygon fill="#191970" stroke="#191970" points="352.3909,-94.5921 342.0017,-96.6691 351.4186,-101.5242 352.3909,-94.5921"/>
</g>
<!-- Node59 -->
<g id="node12" class="node">
<title>Node59</title>
<g id="a_node12"><a xlink:href="classene_1_1views_1_1gui_1_1partial_1_1PlaylistView.html#a108f11521a24d840a4aeb31190c0a34e" target="_top" xlink:title="ene.views.gui.partial.Playlist\lView.mousePressed">
<polygon fill="none" stroke="#000000" points="391.5,-.5 391.5,-30.5 532.5,-30.5 532.5,-.5 391.5,-.5"/>
<text text-anchor="start" x="399.5" y="-18.5" font-family="Helvetica,sans-Serif" font-size="10.00" fill="#000000">ene.views.gui.partial.Playlist</text>
<text text-anchor="middle" x="462" y="-7.5" font-family="Helvetica,sans-Serif" font-size="10.00" fill="#000000">View.mousePressed</text>
</a>
</g>
</g>
<!-- Node58&#45;&gt;Node59 -->
<g id="edge13" class="edge">
<title>Node58&#45;&gt;Node59</title>
<path fill="none" stroke="#191970" d="M310.5159,-67.2271C330.6079,-58.1753 355.3069,-47.6179 378,-39.5 386.854,-36.3327 396.3464,-33.2919 405.6485,-30.502"/>
<polygon fill="#191970" stroke="#191970" points="308.9967,-64.073 301.3428,-71.3988 311.8946,-70.445 308.9967,-64.073"/>
</g>
</g>
</svg>
