<?xml version="1.0" encoding="UTF-8" standalone="no"?>
<!DOCTYPE svg PUBLIC "-//W3C//DTD SVG 1.1//EN"
 "http://www.w3.org/Graphics/SVG/1.1/DTD/svg11.dtd">
<!-- Generated by graphviz version 2.40.1 (20161225.0304)
 -->
<!-- Title: ene.controllers.LibraryController.add Pages: 1 -->
<svg width="1017pt" height="149pt"
 viewBox="0.00 0.00 1017.00 148.50" xmlns="http://www.w3.org/2000/svg" xmlns:xlink="http://www.w3.org/1999/xlink">
<g id="graph0" class="graph" transform="scale(1 1) rotate(0) translate(4 144.5)">
<title>ene.controllers.LibraryController.add</title>
<!-- Node3 -->
<g id="node1" class="node">
<title>Node3</title>
<polygon fill="#bfbfbf" stroke="#000000" points="0,-58 0,-77 173,-77 173,-58 0,-58"/>
<text text-anchor="middle" x="86.5" y="-65" font-family="Helvetica,sans-Serif" font-size="10.00" fill="#000000">ene.controllers.LibraryController.add</text>
</g>
<!-- Node4 -->
<g id="node2" class="node">
<title>Node4</title>
<g id="a_node2"><a xlink:href="classene_1_1controllers_1_1LibraryController.html#a6bc70daa48b96db79d5524113a49cd3e" target="_top" xlink:title="ene.controllers.LibraryController.add\lDirectoryContent">
<polygon fill="none" stroke="#000000" points="209,-74.5 209,-104.5 382,-104.5 382,-74.5 209,-74.5"/>
<text text-anchor="start" x="217" y="-92.5" font-family="Helvetica,sans-Serif" font-size="10.00" fill="#000000">ene.controllers.LibraryController.add</text>
<text text-anchor="middle" x="295.5" y="-81.5" font-family="Helvetica,sans-Serif" font-size="10.00" fill="#000000">DirectoryContent</text>
</a>
</g>
</g>
<!-- Node3&#45;&gt;Node4 -->
<g id="edge1" class="edge">
<title>Node3&#45;&gt;Node4</title>
<path fill="none" stroke="#191970" d="M173.017,-76.607C181.492,-77.4992 190.1298,-78.4084 198.6982,-79.3103"/>
<polygon fill="#191970" stroke="#191970" points="198.3995,-82.7981 208.711,-80.3643 199.1324,-75.8366 198.3995,-82.7981"/>
</g>
<!-- Node6 -->
<g id="node4" class="node">
<title>Node6</title>
<g id="a_node4"><a xlink:href="classene_1_1controllers_1_1LibraryController.html#a8ebea67eb61c84ee6a4825fa98fe870b" target="_top" xlink:title="ene.controllers.LibraryController.addFile">
<polygon fill="none" stroke="#000000" points="633,-55 633,-74 822,-74 822,-55 633,-55"/>
<text text-anchor="middle" x="727.5" y="-62" font-family="Helvetica,sans-Serif" font-size="10.00" fill="#000000">ene.controllers.LibraryController.addFile</text>
</a>
</g>
</g>
<!-- Node3&#45;&gt;Node6 -->
<g id="edge7" class="edge">
<title>Node3&#45;&gt;Node6</title>
<path fill="none" stroke="#191970" d="M173.1603,-65.1138C185.1976,-64.8594 197.4067,-64.6419 209,-64.5 352.2958,-62.7456 517.8844,-63.1732 622.6237,-63.7475"/>
<polygon fill="#191970" stroke="#191970" points="622.8619,-67.2488 632.8815,-63.8052 622.9014,-60.2489 622.8619,-67.2488"/>
</g>
<!-- Node5 -->
<g id="node3" class="node">
<title>Node5</title>
<g id="a_node3"><a xlink:href="classene_1_1controllers_1_1LibraryController.html#a3a8b922c846a9b770b67f478ea0e5352" target="_top" xlink:title="ene.controllers.LibraryController.scan">
<polygon fill="none" stroke="#000000" points="418,-77 418,-96 597,-96 597,-77 418,-77"/>
<text text-anchor="middle" x="507.5" y="-84" font-family="Helvetica,sans-Serif" font-size="10.00" fill="#000000">ene.controllers.LibraryController.scan</text>
</a>
</g>
</g>
<!-- Node4&#45;&gt;Node5 -->
<g id="edge2" class="edge">
<title>Node4&#45;&gt;Node5</title>
<path fill="none" stroke="#191970" d="M382.0343,-88.2755C390.5103,-88.1555 399.1583,-88.0331 407.7514,-87.9115"/>
<polygon fill="#191970" stroke="#191970" points="407.8505,-91.4106 417.8,-87.7693 407.7514,-84.4113 407.8505,-91.4106"/>
</g>
<!-- Node5&#45;&gt;Node6 -->
<g id="edge3" class="edge">
<title>Node5&#45;&gt;Node6</title>
<path fill="none" stroke="#191970" d="M597.2997,-77.52C605.754,-76.6746 614.3732,-75.8127 622.9481,-74.9552"/>
<polygon fill="#191970" stroke="#191970" points="623.3794,-78.4296 632.9815,-73.9519 622.6828,-71.4644 623.3794,-78.4296"/>
</g>
<!-- Node7 -->
<g id="node5" class="node">
<title>Node7</title>
<g id="a_node5"><a xlink:href="classene_1_1controllers_1_1AbstractController.html#a9a5afba01d0004a64db4cb14c23e0bbd" target="_top" xlink:title="ene.controllers.Abstract\lController\&lt; LibraryModel\l \&gt;::getModel">
<polygon fill="none" stroke="#000000" points="872,-99 872,-140 995,-140 995,-99 872,-99"/>
<text text-anchor="start" x="880" y="-128" font-family="Helvetica,sans-Serif" font-size="10.00" fill="#000000">ene.controllers.Abstract</text>
<text text-anchor="start" x="880" y="-117" font-family="Helvetica,sans-Serif" font-size="10.00" fill="#000000">Controller&lt; LibraryModel</text>
<text text-anchor="middle" x="933.5" y="-106" font-family="Helvetica,sans-Serif" font-size="10.00" fill="#000000"> &gt;::getModel</text>
</a>
</g>
</g>
<!-- Node6&#45;&gt;Node7 -->
<g id="edge4" class="edge">
<title>Node6&#45;&gt;Node7</title>
<path fill="none" stroke="#191970" d="M763.3825,-74.0803C790.5561,-81.3354 828.7689,-91.5378 862.0955,-100.4357"/>
<polygon fill="#191970" stroke="#191970" points="861.2422,-103.8304 871.8066,-103.0285 863.0479,-97.0673 861.2422,-103.8304"/>
</g>
<!-- Node8 -->
<g id="node6" class="node">
<title>Node8</title>
<g id="a_node6"><a xlink:href="classene_1_1models_1_1TrackModel.html#ab0db9bf0054a77ed2879695a379e3bd9" target="_top" xlink:title="ene.models.TrackModel.detect\lArtist">
<polygon fill="none" stroke="#000000" points="858,-49.5 858,-79.5 1009,-79.5 1009,-49.5 858,-49.5"/>
<text text-anchor="start" x="866" y="-67.5" font-family="Helvetica,sans-Serif" font-size="10.00" fill="#000000">ene.models.TrackModel.detect</text>
<text text-anchor="middle" x="933.5" y="-56.5" font-family="Helvetica,sans-Serif" font-size="10.00" fill="#000000">Artist</text>
</a>
</g>
</g>
<!-- Node6&#45;&gt;Node8 -->
<g id="edge5" class="edge">
<title>Node6&#45;&gt;Node8</title>
<path fill="none" stroke="#191970" d="M822.0592,-64.5C830.5563,-64.5 839.1305,-64.5 847.5485,-64.5"/>
<polygon fill="#191970" stroke="#191970" points="847.7234,-68.0001 857.7233,-64.5 847.7233,-61.0001 847.7234,-68.0001"/>
</g>
<!-- Node9 -->
<g id="node7" class="node">
<title>Node9</title>
<g id="a_node7"><a xlink:href="classene_1_1models_1_1TrackModel.html#a860b368d4cb6d81e7504cbf979c0cad7" target="_top" xlink:title="ene.models.TrackModel.detect\lTitle">
<polygon fill="none" stroke="#000000" points="858,-.5 858,-30.5 1009,-30.5 1009,-.5 858,-.5"/>
<text text-anchor="start" x="866" y="-18.5" font-family="Helvetica,sans-Serif" font-size="10.00" fill="#000000">ene.models.TrackModel.detect</text>
<text text-anchor="middle" x="933.5" y="-7.5" font-family="Helvetica,sans-Serif" font-size="10.00" fill="#000000">Title</text>
</a>
</g>
</g>
<!-- Node6&#45;&gt;Node9 -->
<g id="edge6" class="edge">
<title>Node6&#45;&gt;Node9</title>
<path fill="none" stroke="#191970" d="M767.7079,-54.936C794.016,-48.6782 829.1618,-40.3183 860.3225,-32.9063"/>
<polygon fill="#191970" stroke="#191970" points="861.3648,-36.2561 870.2834,-30.537 859.7449,-29.4461 861.3648,-36.2561"/>
</g>
</g>
</svg>
