<?xml version="1.0" encoding="UTF-8" standalone="no"?>
<!DOCTYPE svg PUBLIC "-//W3C//DTD SVG 1.1//EN"
 "http://www.w3.org/Graphics/SVG/1.1/DTD/svg11.dtd">
<!-- Generated by graphviz version 2.40.1 (20161225.0304)
 -->
<!-- Title: ene.models.TrackListModel.getAll Pages: 1 -->
<svg width="944pt" height="325pt"
 viewBox="0.00 0.00 944.00 324.50" xmlns="http://www.w3.org/2000/svg" xmlns:xlink="http://www.w3.org/1999/xlink">
<g id="graph0" class="graph" transform="scale(1 1) rotate(0) translate(4 320.5)">
<title>ene.models.TrackListModel.getAll</title>
<!-- Node8 -->
<g id="node1" class="node">
<title>Node8</title>
<polygon fill="#bfbfbf" stroke="#000000" points="0,-132.5 0,-151.5 164,-151.5 164,-132.5 0,-132.5"/>
<text text-anchor="middle" x="82" y="-139.5" font-family="Helvetica,sans-Serif" font-size="10.00" fill="#000000">ene.models.TrackListModel.getAll</text>
</g>
<!-- Node9 -->
<g id="node2" class="node">
<title>Node9</title>
<g id="a_node2"><a xlink:href="classene_1_1models_1_1PlaylistModel.html#ad63fd499a74248dc9dadad29b9882fd2" target="_top" xlink:title="ene.models.PlaylistModel.get\lCurrentTrack">
<polygon fill="none" stroke="#000000" points="205,-149 205,-179 350,-179 350,-149 205,-149"/>
<text text-anchor="start" x="213" y="-167" font-family="Helvetica,sans-Serif" font-size="10.00" fill="#000000">ene.models.PlaylistModel.get</text>
<text text-anchor="middle" x="277.5" y="-156" font-family="Helvetica,sans-Serif" font-size="10.00" fill="#000000">CurrentTrack</text>
</a>
</g>
</g>
<!-- Node8&#45;&gt;Node9 -->
<g id="edge1" class="edge">
<title>Node8&#45;&gt;Node9</title>
<path fill="none" stroke="#191970" d="M174.3088,-152.3877C184.6017,-153.546 194.9752,-154.7133 204.9711,-155.8382"/>
<polygon fill="#191970" stroke="#191970" points="174.3886,-148.8747 164.0599,-151.2344 173.6057,-155.8308 174.3886,-148.8747"/>
</g>
<!-- Node15 -->
<g id="node8" class="node">
<title>Node15</title>
<g id="a_node8"><a xlink:href="classene_1_1models_1_1PlaylistModel.html#afba0932567d4d21976e3c37c8d80b634" target="_top" xlink:title="ene.models.PlaylistModel.next\lTrack">
<polygon fill="none" stroke="#000000" points="400,-286 400,-316 550,-316 550,-286 400,-286"/>
<text text-anchor="start" x="408" y="-304" font-family="Helvetica,sans-Serif" font-size="10.00" fill="#000000">ene.models.PlaylistModel.next</text>
<text text-anchor="middle" x="475" y="-293" font-family="Helvetica,sans-Serif" font-size="10.00" fill="#000000">Track</text>
</a>
</g>
</g>
<!-- Node8&#45;&gt;Node15 -->
<g id="edge17" class="edge">
<title>Node8&#45;&gt;Node15</title>
<path fill="none" stroke="#191970" d="M110.8062,-156.1374C164.8343,-182.3016 285.4594,-239.0597 391,-277 399.7063,-280.1298 409.0329,-283.1307 418.1898,-285.8865"/>
<polygon fill="#191970" stroke="#191970" points="112.0356,-152.8434 101.5117,-151.6194 108.9753,-159.1391 112.0356,-152.8434"/>
</g>
<!-- Node17 -->
<g id="node10" class="node">
<title>Node17</title>
<g id="a_node10"><a xlink:href="classene_1_1models_1_1PlaylistModel.html#ab30573de71b566da79145210f94be294" target="_top" xlink:title="ene.models.PlaylistModel.previous\lTrack">
<polygon fill="none" stroke="#000000" points="391,-61 391,-91 559,-91 559,-61 391,-61"/>
<text text-anchor="start" x="399" y="-79" font-family="Helvetica,sans-Serif" font-size="10.00" fill="#000000">ene.models.PlaylistModel.previous</text>
<text text-anchor="middle" x="475" y="-68" font-family="Helvetica,sans-Serif" font-size="10.00" fill="#000000">Track</text>
</a>
</g>
</g>
<!-- Node8&#45;&gt;Node17 -->
<g id="edge18" class="edge">
<title>Node8&#45;&gt;Node17</title>
<path fill="none" stroke="#191970" d="M148.7136,-130.7962C215.4827,-119.5831 318.4178,-102.2962 390.7793,-90.1439"/>
<polygon fill="#191970" stroke="#191970" points="148.0081,-127.3656 138.7259,-132.4735 149.1675,-134.2689 148.0081,-127.3656"/>
</g>
<!-- Node18 -->
<g id="node11" class="node">
<title>Node18</title>
<g id="a_node11"><a xlink:href="classene_1_1models_1_1TrackListModel.html#a8e4e0fa1a0a69e1479b62660084fc93c" target="_top" xlink:title="ene.models.TrackListModel.has">
<polygon fill="none" stroke="#000000" points="200,-42.5 200,-61.5 355,-61.5 355,-42.5 200,-42.5"/>
<text text-anchor="middle" x="277.5" y="-49.5" font-family="Helvetica,sans-Serif" font-size="10.00" fill="#000000">ene.models.TrackListModel.has</text>
</a>
</g>
</g>
<!-- Node8&#45;&gt;Node18 -->
<g id="edge12" class="edge">
<title>Node8&#45;&gt;Node18</title>
<path fill="none" stroke="#191970" d="M109.7494,-127.7225C133.5085,-115.6523 168.7334,-98.1211 200,-84 217.6444,-76.0312 237.8734,-67.7053 253.239,-61.5442"/>
<polygon fill="#191970" stroke="#191970" points="107.9405,-124.7161 100.6223,-132.3773 111.1208,-130.9519 107.9405,-124.7161"/>
</g>
<!-- Node10 -->
<g id="node3" class="node">
<title>Node10</title>
<g id="a_node3"><a xlink:href="classene_1_1views_1_1gui_1_1partial_1_1PlaylistView.html#aab891c82686652a49db41a3e1bc1f3b9" target="_top" xlink:title="ene.views.gui.partial.Playlist\lView.loadContent">
<polygon fill="none" stroke="#000000" points="404.5,-149 404.5,-179 545.5,-179 545.5,-149 404.5,-149"/>
<text text-anchor="start" x="412.5" y="-167" font-family="Helvetica,sans-Serif" font-size="10.00" fill="#000000">ene.views.gui.partial.Playlist</text>
<text text-anchor="middle" x="475" y="-156" font-family="Helvetica,sans-Serif" font-size="10.00" fill="#000000">View.loadContent</text>
</a>
</g>
</g>
<!-- Node9&#45;&gt;Node10 -->
<g id="edge2" class="edge">
<title>Node9&#45;&gt;Node10</title>
<path fill="none" stroke="#191970" d="M360.2715,-164C374.9543,-164 390.1213,-164 404.4272,-164"/>
<polygon fill="#191970" stroke="#191970" points="360.2003,-160.5001 350.2003,-164 360.2003,-167.5001 360.2003,-160.5001"/>
</g>
<!-- Node13 -->
<g id="node6" class="node">
<title>Node13</title>
<g id="a_node6"><a xlink:href="classene_1_1models_1_1PlayerModel.html#acfe1fde39cea80b94ae65ed401706d70" target="_top" xlink:title="ene.models.PlayerModel.load\lPlaylist">
<polygon fill="none" stroke="#000000" points="402.5,-237 402.5,-267 547.5,-267 547.5,-237 402.5,-237"/>
<text text-anchor="start" x="410.5" y="-255" font-family="Helvetica,sans-Serif" font-size="10.00" fill="#000000">ene.models.PlayerModel.load</text>
<text text-anchor="middle" x="475" y="-244" font-family="Helvetica,sans-Serif" font-size="10.00" fill="#000000">Playlist</text>
</a>
</g>
</g>
<!-- Node9&#45;&gt;Node13 -->
<g id="edge5" class="edge">
<title>Node9&#45;&gt;Node13</title>
<path fill="none" stroke="#191970" d="M313.5371,-183.9287C335.5685,-195.7295 364.5148,-210.5604 391,-222 403.2258,-227.2806 416.7172,-232.399 429.244,-236.8681"/>
<polygon fill="#191970" stroke="#191970" points="315.0082,-180.7454 304.5458,-179.0754 311.6832,-186.9054 315.0082,-180.7454"/>
</g>
<!-- Node14 -->
<g id="node7" class="node">
<title>Node14</title>
<g id="a_node7"><a xlink:href="classene_1_1models_1_1PlayerModel.html#a384fd9a2e98fc581e8221659257a8dd4" target="_top" xlink:title="ene.models.PlayerModel.next">
<polygon fill="none" stroke="#000000" points="604,-244.5 604,-263.5 750,-263.5 750,-244.5 604,-244.5"/>
<text text-anchor="middle" x="677" y="-251.5" font-family="Helvetica,sans-Serif" font-size="10.00" fill="#000000">ene.models.PlayerModel.next</text>
</a>
</g>
</g>
<!-- Node9&#45;&gt;Node14 -->
<g id="edge6" class="edge">
<title>Node9&#45;&gt;Node14</title>
<path fill="none" stroke="#191970" d="M354.311,-181.3041C437.8168,-200.1164 568.2281,-229.4957 634.8037,-244.494"/>
<polygon fill="#191970" stroke="#191970" points="354.8921,-177.8474 344.3673,-179.064 353.3536,-184.6762 354.8921,-177.8474"/>
</g>
<!-- Node9&#45;&gt;Node15 -->
<g id="edge7" class="edge">
<title>Node9&#45;&gt;Node15</title>
<path fill="none" stroke="#191970" d="M300.6142,-186.3898C316.0948,-201.453 336.88,-221.8087 355,-240 371.1919,-256.2556 371.3055,-265.2294 391,-277 396.7283,-280.4236 402.969,-283.3793 409.3766,-285.9269"/>
<polygon fill="#191970" stroke="#191970" points="302.6556,-183.4932 293.0446,-179.0347 297.7775,-188.5136 302.6556,-183.4932"/>
</g>
<!-- Node16 -->
<g id="node9" class="node">
<title>Node16</title>
<g id="a_node9"><a xlink:href="classene_1_1models_1_1PlayerModel.html#a7242e20d537405f031ec8d18e7faf8fc" target="_top" xlink:title="ene.models.PlayerModel.previous">
<polygon fill="none" stroke="#000000" points="595,-94.5 595,-113.5 759,-113.5 759,-94.5 595,-94.5"/>
<text text-anchor="middle" x="677" y="-101.5" font-family="Helvetica,sans-Serif" font-size="10.00" fill="#000000">ene.models.PlayerModel.previous</text>
</a>
</g>
</g>
<!-- Node9&#45;&gt;Node16 -->
<g id="edge9" class="edge">
<title>Node9&#45;&gt;Node16</title>
<path fill="none" stroke="#191970" d="M353.7982,-146.9591C366.2004,-144.4508 378.9329,-142.0317 391,-140 459.3498,-128.4923 537.4546,-118.8992 594.7533,-112.5173"/>
<polygon fill="#191970" stroke="#191970" points="353.0327,-143.5432 343.9416,-148.9841 354.4414,-150.4 353.0327,-143.5432"/>
</g>
<!-- Node9&#45;&gt;Node17 -->
<g id="edge10" class="edge">
<title>Node9&#45;&gt;Node17</title>
<path fill="none" stroke="#191970" d="M313.5371,-144.0713C335.5685,-132.2705 364.5148,-117.4396 391,-106 403.2258,-100.7194 416.7172,-95.601 429.244,-91.1319"/>
<polygon fill="#191970" stroke="#191970" points="311.6832,-141.0946 304.5458,-148.9246 315.0082,-147.2546 311.6832,-141.0946"/>
</g>
<!-- Node11 -->
<g id="node4" class="node">
<title>Node11</title>
<g id="a_node4"><a xlink:href="classene_1_1views_1_1gui_1_1partial_1_1PlaylistView.html#ad2b87823589c6e8895d2d7b98438a2dc" target="_top" xlink:title="ene.views.gui.partial.Playlist\lView.update">
<polygon fill="none" stroke="#000000" points="606.5,-149 606.5,-179 747.5,-179 747.5,-149 606.5,-149"/>
<text text-anchor="start" x="614.5" y="-167" font-family="Helvetica,sans-Serif" font-size="10.00" fill="#000000">ene.views.gui.partial.Playlist</text>
<text text-anchor="middle" x="677" y="-156" font-family="Helvetica,sans-Serif" font-size="10.00" fill="#000000">View.update</text>
</a>
</g>
</g>
<!-- Node10&#45;&gt;Node11 -->
<g id="edge3" class="edge">
<title>Node10&#45;&gt;Node11</title>
<path fill="none" stroke="#191970" d="M555.9316,-164C572.6307,-164 590.0925,-164 606.3901,-164"/>
<polygon fill="#191970" stroke="#191970" points="555.6498,-160.5001 545.6498,-164 555.6498,-167.5001 555.6498,-160.5001"/>
</g>
<!-- Node12 -->
<g id="node5" class="node">
<title>Node12</title>
<g id="a_node5"><a xlink:href="classene_1_1views_1_1gui_1_1partial_1_1PlaylistView.html#a8d541ff3e91c1492b2e47cc7272ca56d" target="_top" xlink:title="ene.views.gui.partial.Playlist\lView.render">
<polygon fill="none" stroke="#000000" points="795,-149 795,-179 936,-179 936,-149 795,-149"/>
<text text-anchor="start" x="803" y="-167" font-family="Helvetica,sans-Serif" font-size="10.00" fill="#000000">ene.views.gui.partial.Playlist</text>
<text text-anchor="middle" x="865.5" y="-156" font-family="Helvetica,sans-Serif" font-size="10.00" fill="#000000">View.render</text>
</a>
</g>
</g>
<!-- Node11&#45;&gt;Node12 -->
<g id="edge4" class="edge">
<title>Node11&#45;&gt;Node12</title>
<path fill="none" stroke="#191970" d="M757.9138,-164C770.1491,-164 782.6904,-164 794.6904,-164"/>
<polygon fill="#191970" stroke="#191970" points="757.7268,-160.5001 747.7267,-164 757.7267,-167.5001 757.7268,-160.5001"/>
</g>
<!-- Node15&#45;&gt;Node14 -->
<g id="edge8" class="edge">
<title>Node15&#45;&gt;Node14</title>
<path fill="none" stroke="#191970" d="M549.2641,-283.7207C578.5574,-276.905 611.0841,-269.3369 635.9835,-263.5434"/>
<polygon fill="#191970" stroke="#191970" points="548.4161,-280.3245 539.4694,-285.9997 550.0025,-287.1423 548.4161,-280.3245"/>
</g>
<!-- Node17&#45;&gt;Node16 -->
<g id="edge11" class="edge">
<title>Node17&#45;&gt;Node16</title>
<path fill="none" stroke="#191970" d="M569.2245,-89.0608C582.3876,-90.8854 595.705,-92.7314 608.2767,-94.474"/>
<polygon fill="#191970" stroke="#191970" points="569.5893,-85.578 559.2035,-87.6718 568.6282,-92.5117 569.5893,-85.578"/>
</g>
<!-- Node19 -->
<g id="node12" class="node">
<title>Node19</title>
<g id="a_node12"><a xlink:href="classene_1_1views_1_1gui_1_1partial_1_1PlayerView.html#a46b869b84db253abe071d06cb4629925" target="_top" xlink:title="ene.views.gui.partial.Player\lView.isCurrentTrackPartOfCurrent\lPlaylist">
<polygon fill="none" stroke="#000000" points="391.5,-.5 391.5,-41.5 558.5,-41.5 558.5,-.5 391.5,-.5"/>
<text text-anchor="start" x="399.5" y="-29.5" font-family="Helvetica,sans-Serif" font-size="10.00" fill="#000000">ene.views.gui.partial.Player</text>
<text text-anchor="start" x="399.5" y="-18.5" font-family="Helvetica,sans-Serif" font-size="10.00" fill="#000000">View.isCurrentTrackPartOfCurrent</text>
<text text-anchor="middle" x="475" y="-7.5" font-family="Helvetica,sans-Serif" font-size="10.00" fill="#000000">Playlist</text>
</a>
</g>
</g>
<!-- Node18&#45;&gt;Node19 -->
<g id="edge13" class="edge">
<title>Node18&#45;&gt;Node19</title>
<path fill="none" stroke="#191970" d="M348.1127,-40.9165C362.0889,-38.7227 376.8857,-36.4002 391.2489,-34.1457"/>
<polygon fill="#191970" stroke="#191970" points="347.435,-37.4799 338.0987,-42.4883 348.5205,-44.3953 347.435,-37.4799"/>
</g>
<!-- Node20 -->
<g id="node13" class="node">
<title>Node20</title>
<g id="a_node13"><a xlink:href="classene_1_1views_1_1gui_1_1partial_1_1PlayerView.html#a3098a851f88f8b9ce6d4e2fcacdf55c9" target="_top" xlink:title="ene.views.gui.partial.Player\lView.enablePlayerControls">
<polygon fill="none" stroke="#000000" points="608.5,-28 608.5,-58 745.5,-58 745.5,-28 608.5,-28"/>
<text text-anchor="start" x="616.5" y="-46" font-family="Helvetica,sans-Serif" font-size="10.00" fill="#000000">ene.views.gui.partial.Player</text>
<text text-anchor="middle" x="677" y="-35" font-family="Helvetica,sans-Serif" font-size="10.00" fill="#000000">View.enablePlayerControls</text>
</a>
</g>
</g>
<!-- Node19&#45;&gt;Node20 -->
<g id="edge14" class="edge">
<title>Node19&#45;&gt;Node20</title>
<path fill="none" stroke="#191970" d="M568.7362,-31.2089C582.0291,-32.6566 595.4907,-34.1228 608.1935,-35.5062"/>
<polygon fill="#191970" stroke="#191970" points="568.9395,-27.7104 558.6193,-30.107 568.1815,-34.6693 568.9395,-27.7104"/>
</g>
<!-- Node21 -->
<g id="node14" class="node">
<title>Node21</title>
<g id="a_node14"><a xlink:href="classene_1_1views_1_1gui_1_1partial_1_1PlayerView.html#a15d3f24a6e52ff6dedb86bb793bb8fa9" target="_top" xlink:title="ene.views.gui.partial.Player\lView.update">
<polygon fill="none" stroke="#000000" points="797,-6 797,-36 934,-36 934,-6 797,-6"/>
<text text-anchor="start" x="805" y="-24" font-family="Helvetica,sans-Serif" font-size="10.00" fill="#000000">ene.views.gui.partial.Player</text>
<text text-anchor="middle" x="865.5" y="-13" font-family="Helvetica,sans-Serif" font-size="10.00" fill="#000000">View.update</text>
</a>
</g>
</g>
<!-- Node19&#45;&gt;Node21 -->
<g id="edge16" class="edge">
<title>Node19&#45;&gt;Node21</title>
<path fill="none" stroke="#191970" d="M568.6403,-18.4328C577.5493,-18.2567 586.4457,-18.1069 595,-18 667.8832,-17.0891 686.1183,-16.9737 759,-18 771.2068,-18.1719 784.1982,-18.4546 796.7583,-18.7794"/>
<polygon fill="#191970" stroke="#191970" points="568.5191,-14.9345 558.5941,-18.642 568.6648,-21.933 568.5191,-14.9345"/>
</g>
<!-- Node20&#45;&gt;Node21 -->
<g id="edge15" class="edge">
<title>Node20&#45;&gt;Node21</title>
<path fill="none" stroke="#191970" d="M755.9105,-33.7903C769.5497,-32.1984 783.6292,-30.5552 796.965,-28.9988"/>
<polygon fill="#191970" stroke="#191970" points="755.1129,-30.3595 745.5861,-34.9953 755.9244,-37.3123 755.1129,-30.3595"/>
</g>
</g>
</svg>
