<?xml version="1.0" encoding="UTF-8" standalone="no"?>
<!DOCTYPE svg PUBLIC "-//W3C//DTD SVG 1.1//EN"
 "http://www.w3.org/Graphics/SVG/1.1/DTD/svg11.dtd">
<!-- Generated by graphviz version 2.40.1 (20161225.0304)
 -->
<!-- Title: ene.controllers.PlaylistController.add Pages: 1 -->
<svg width="470pt" height="88pt"
 viewBox="0.00 0.00 470.00 88.00" xmlns="http://www.w3.org/2000/svg" xmlns:xlink="http://www.w3.org/1999/xlink">
<g id="graph0" class="graph" transform="scale(1 1) rotate(0) translate(4 84)">
<title>ene.controllers.PlaylistController.add</title>
<!-- Node25 -->
<g id="node1" class="node">
<title>Node25</title>
<polygon fill="#bfbfbf" stroke="#000000" points="0,-24.5 0,-54.5 116,-54.5 116,-24.5 0,-24.5"/>
<text text-anchor="start" x="8" y="-42.5" font-family="Helvetica,sans-Serif" font-size="10.00" fill="#000000">ene.controllers.Playlist</text>
<text text-anchor="middle" x="58" y="-31.5" font-family="Helvetica,sans-Serif" font-size="10.00" fill="#000000">Controller.add</text>
</g>
<!-- Node26 -->
<g id="node2" class="node">
<title>Node26</title>
<g id="a_node2"><a xlink:href="classene_1_1controllers_1_1PlaylistController.html#a67b252ccabbac520eaafe9f90e8f0d43" target="_top" xlink:title="ene.controllers.Playlist\lController.loadFromFile">
<polygon fill="none" stroke="#000000" points="162,-49.5 162,-79.5 280,-79.5 280,-49.5 162,-49.5"/>
<text text-anchor="start" x="170" y="-67.5" font-family="Helvetica,sans-Serif" font-size="10.00" fill="#000000">ene.controllers.Playlist</text>
<text text-anchor="middle" x="221" y="-56.5" font-family="Helvetica,sans-Serif" font-size="10.00" fill="#000000">Controller.loadFromFile</text>
</a>
</g>
</g>
<!-- Node25&#45;&gt;Node26 -->
<g id="edge1" class="edge">
<title>Node25&#45;&gt;Node26</title>
<path fill="none" stroke="#191970" d="M126.5901,-50.02C138.3377,-51.8217 150.4526,-53.6798 161.9246,-55.4394"/>
<polygon fill="#191970" stroke="#191970" points="126.8014,-46.5115 116.3863,-48.455 125.7401,-53.4306 126.8014,-46.5115"/>
</g>
<!-- Node28 -->
<g id="node4" class="node">
<title>Node28</title>
<g id="a_node4"><a xlink:href="classene_1_1views_1_1gui_1_1partial_1_1LibraryView.html#a0bd6885fe06ebde4d3dffbcd888c0b41" target="_top" xlink:title="ene.views.gui.partial.Library\lView.render">
<polygon fill="none" stroke="#000000" points="152,-.5 152,-30.5 290,-30.5 290,-.5 152,-.5"/>
<text text-anchor="start" x="160" y="-18.5" font-family="Helvetica,sans-Serif" font-size="10.00" fill="#000000">ene.views.gui.partial.Library</text>
<text text-anchor="middle" x="221" y="-7.5" font-family="Helvetica,sans-Serif" font-size="10.00" fill="#000000">View.render</text>
</a>
</g>
</g>
<!-- Node25&#45;&gt;Node28 -->
<g id="edge3" class="edge">
<title>Node25&#45;&gt;Node28</title>
<path fill="none" stroke="#191970" d="M126.511,-29.4125C134.9085,-28.176 143.4949,-26.9118 151.901,-25.6741"/>
<polygon fill="#191970" stroke="#191970" points="125.7698,-25.9838 116.3863,-30.9032 126.7895,-32.9091 125.7698,-25.9838"/>
</g>
<!-- Node27 -->
<g id="node3" class="node">
<title>Node27</title>
<g id="a_node3"><a xlink:href="classene_1_1controllers_1_1PlaylistController.html#a35b450f65c048707c1ad0ed44f1077f0" target="_top" xlink:title="ene.controllers.Playlist\lController.PlaylistController">
<polygon fill="none" stroke="#000000" points="326,-49.5 326,-79.5 462,-79.5 462,-49.5 326,-49.5"/>
<text text-anchor="start" x="334" y="-67.5" font-family="Helvetica,sans-Serif" font-size="10.00" fill="#000000">ene.controllers.Playlist</text>
<text text-anchor="middle" x="394" y="-56.5" font-family="Helvetica,sans-Serif" font-size="10.00" fill="#000000">Controller.PlaylistController</text>
</a>
</g>
</g>
<!-- Node26&#45;&gt;Node27 -->
<g id="edge2" class="edge">
<title>Node26&#45;&gt;Node27</title>
<path fill="none" stroke="#191970" d="M290.2596,-64.5C302.0305,-64.5 314.2453,-64.5 325.9837,-64.5"/>
<polygon fill="#191970" stroke="#191970" points="290.053,-61.0001 280.0529,-64.5 290.0529,-68.0001 290.053,-61.0001"/>
</g>
</g>
</svg>
