<?xml version="1.0" encoding="UTF-8" standalone="no"?>
<!DOCTYPE svg PUBLIC "-//W3C//DTD SVG 1.1//EN"
 "http://www.w3.org/Graphics/SVG/1.1/DTD/svg11.dtd">
<!-- Generated by graphviz version 2.40.1 (20161225.0304)
 -->
<!-- Title: ene.views.gui.partial.ContentView.ContentView Pages: 1 -->
<svg width="505pt" height="88pt"
 viewBox="0.00 0.00 505.00 88.00" xmlns="http://www.w3.org/2000/svg" xmlns:xlink="http://www.w3.org/1999/xlink">
<g id="graph0" class="graph" transform="scale(1 1) rotate(0) translate(4 84)">
<title>ene.views.gui.partial.ContentView.ContentView</title>
<!-- Node0 -->
<g id="node1" class="node">
<title>Node0</title>
<polygon fill="#bfbfbf" stroke="#000000" points="0,-24.5 0,-54.5 143,-54.5 143,-24.5 0,-24.5"/>
<text text-anchor="start" x="8" y="-42.5" font-family="Helvetica,sans-Serif" font-size="10.00" fill="#000000">ene.views.gui.partial.Content</text>
<text text-anchor="middle" x="71.5" y="-31.5" font-family="Helvetica,sans-Serif" font-size="10.00" fill="#000000">View.ContentView</text>
</g>
<!-- Node1 -->
<g id="node2" class="node">
<title>Node1</title>
<g id="a_node2"><a xlink:href="classene_1_1views_1_1AbstractMasterView.html#a7e49af73fded3d801ff31b7591e0d5a8" target="_top" xlink:title="ene.views.AbstractMaster\lView.addView">
<polygon fill="none" stroke="#000000" points="185,-49.5 185,-79.5 316,-79.5 316,-49.5 185,-49.5"/>
<text text-anchor="start" x="193" y="-67.5" font-family="Helvetica,sans-Serif" font-size="10.00" fill="#000000">ene.views.AbstractMaster</text>
<text text-anchor="middle" x="250.5" y="-56.5" font-family="Helvetica,sans-Serif" font-size="10.00" fill="#000000">View.addView</text>
</a>
</g>
</g>
<!-- Node0&#45;&gt;Node1 -->
<g id="edge1" class="edge">
<title>Node0&#45;&gt;Node1</title>
<path fill="none" stroke="#191970" d="M143.0172,-49.4884C153.4962,-50.952 164.3183,-52.4634 174.8762,-53.938"/>
<polygon fill="#191970" stroke="#191970" points="174.5101,-57.4208 184.8981,-55.3377 175.4784,-50.4881 174.5101,-57.4208"/>
</g>
<!-- Node2 -->
<g id="node3" class="node">
<title>Node2</title>
<g id="a_node3"><a xlink:href="classene_1_1views_1_1gui_1_1partial_1_1ContentView.html#aab911c4ec74346df8f4bc8c6d5016fa4" target="_top" xlink:title="ene.views.gui.partial.Content\lView.initialize">
<polygon fill="none" stroke="#000000" points="179,-.5 179,-30.5 322,-30.5 322,-.5 179,-.5"/>
<text text-anchor="start" x="187" y="-18.5" font-family="Helvetica,sans-Serif" font-size="10.00" fill="#000000">ene.views.gui.partial.Content</text>
<text text-anchor="middle" x="250.5" y="-7.5" font-family="Helvetica,sans-Serif" font-size="10.00" fill="#000000">View.initialize</text>
</a>
</g>
</g>
<!-- Node0&#45;&gt;Node2 -->
<g id="edge2" class="edge">
<title>Node0&#45;&gt;Node2</title>
<path fill="none" stroke="#191970" d="M143.0172,-29.9111C151.4862,-28.7756 160.1793,-27.61 168.776,-26.4574"/>
<polygon fill="#191970" stroke="#191970" points="169.3581,-29.9108 178.8042,-25.1128 168.4278,-22.9729 169.3581,-29.9108"/>
</g>
<!-- Node3 -->
<g id="node4" class="node">
<title>Node3</title>
<g id="a_node4"><a xlink:href="classene_1_1views_1_1AbstractView.html#aa9bee221c279bc8a9dbada91184d8181" target="_top" xlink:title="ene.views.AbstractView.set\lCoreComponent">
<polygon fill="none" stroke="#000000" points="358,-.5 358,-30.5 497,-30.5 497,-.5 358,-.5"/>
<text text-anchor="start" x="366" y="-18.5" font-family="Helvetica,sans-Serif" font-size="10.00" fill="#000000">ene.views.AbstractView.set</text>
<text text-anchor="middle" x="427.5" y="-7.5" font-family="Helvetica,sans-Serif" font-size="10.00" fill="#000000">CoreComponent</text>
</a>
</g>
</g>
<!-- Node2&#45;&gt;Node3 -->
<g id="edge3" class="edge">
<title>Node2&#45;&gt;Node3</title>
<path fill="none" stroke="#191970" d="M322.2375,-15.5C330.6172,-15.5 339.2051,-15.5 347.6855,-15.5"/>
<polygon fill="#191970" stroke="#191970" points="347.9553,-19.0001 357.9552,-15.5 347.9552,-12.0001 347.9553,-19.0001"/>
</g>
</g>
</svg>
