<?xml version="1.0" encoding="UTF-8" standalone="no"?>
<!DOCTYPE svg PUBLIC "-//W3C//DTD SVG 1.1//EN"
 "http://www.w3.org/Graphics/SVG/1.1/DTD/svg11.dtd">
<!-- Generated by graphviz version 2.40.1 (20161225.0304)
 -->
<!-- Title: ene.models.TrackListModel.getAll Pages: 1 -->
<svg width="940pt" height="275pt"
 viewBox="0.00 0.00 940.00 274.50" xmlns="http://www.w3.org/2000/svg" xmlns:xlink="http://www.w3.org/1999/xlink">
<g id="graph0" class="graph" transform="scale(1 1) rotate(0) translate(4 270.5)">
<title>ene.models.TrackListModel.getAll</title>
<!-- Node8 -->
<g id="node1" class="node">
<title>Node8</title>
<polygon fill="#bfbfbf" stroke="#000000" points="0,-97.5 0,-116.5 164,-116.5 164,-97.5 0,-97.5"/>
<text text-anchor="middle" x="82" y="-104.5" font-family="Helvetica,sans-Serif" font-size="10.00" fill="#000000">ene.models.TrackListModel.getAll</text>
</g>
<!-- Node9 -->
<g id="node2" class="node">
<title>Node9</title>
<g id="a_node2"><a xlink:href="classene_1_1models_1_1PlaylistModel.html#ad63fd499a74248dc9dadad29b9882fd2" target="_top" xlink:title="ene.models.PlaylistModel.get\lCurrentTrack">
<polygon fill="none" stroke="#000000" points="205,-133 205,-163 350,-163 350,-133 205,-133"/>
<text text-anchor="start" x="213" y="-151" font-family="Helvetica,sans-Serif" font-size="10.00" fill="#000000">ene.models.PlaylistModel.get</text>
<text text-anchor="middle" x="277.5" y="-140" font-family="Helvetica,sans-Serif" font-size="10.00" fill="#000000">CurrentTrack</text>
</a>
</g>
</g>
<!-- Node8&#45;&gt;Node9 -->
<g id="edge1" class="edge">
<title>Node8&#45;&gt;Node9</title>
<path fill="none" stroke="#191970" d="M137.167,-118.5695C158.4172,-123.0261 183.0046,-128.1825 205.6052,-132.9223"/>
<polygon fill="#191970" stroke="#191970" points="137.8485,-115.1364 127.343,-116.5093 136.4117,-121.9874 137.8485,-115.1364"/>
</g>
<!-- Node12 -->
<g id="node5" class="node">
<title>Node12</title>
<g id="a_node5"><a xlink:href="classene_1_1models_1_1PlaylistModel.html#afba0932567d4d21976e3c37c8d80b634" target="_top" xlink:title="ene.models.PlaylistModel.next\lTrack">
<polygon fill="none" stroke="#000000" points="400,-236 400,-266 550,-266 550,-236 400,-236"/>
<text text-anchor="start" x="408" y="-254" font-family="Helvetica,sans-Serif" font-size="10.00" fill="#000000">ene.models.PlaylistModel.next</text>
<text text-anchor="middle" x="475" y="-243" font-family="Helvetica,sans-Serif" font-size="10.00" fill="#000000">Track</text>
</a>
</g>
</g>
<!-- Node8&#45;&gt;Node12 -->
<g id="edge14" class="edge">
<title>Node8&#45;&gt;Node12</title>
<path fill="none" stroke="#191970" d="M105.1782,-122.1133C128.3996,-136.7301 165.5463,-158.7096 200,-173 267.6136,-201.0442 348.606,-222.6658 405.1142,-235.9559"/>
<polygon fill="#191970" stroke="#191970" points="107.0205,-119.1371 96.7058,-116.7169 103.2599,-125.0412 107.0205,-119.1371"/>
</g>
<!-- Node14 -->
<g id="node7" class="node">
<title>Node14</title>
<g id="a_node7"><a xlink:href="classene_1_1models_1_1PlaylistModel.html#ab30573de71b566da79145210f94be294" target="_top" xlink:title="ene.models.PlaylistModel.previous\lTrack">
<polygon fill="none" stroke="#000000" points="391,-61 391,-91 559,-91 559,-61 391,-61"/>
<text text-anchor="start" x="399" y="-79" font-family="Helvetica,sans-Serif" font-size="10.00" fill="#000000">ene.models.PlaylistModel.previous</text>
<text text-anchor="middle" x="475" y="-68" font-family="Helvetica,sans-Serif" font-size="10.00" fill="#000000">Track</text>
</a>
</g>
</g>
<!-- Node8&#45;&gt;Node14 -->
<g id="edge15" class="edge">
<title>Node8&#45;&gt;Node14</title>
<path fill="none" stroke="#191970" d="M174.6999,-99.6878C240.1619,-94.5241 327.1819,-87.66 390.6898,-82.6504"/>
<polygon fill="#191970" stroke="#191970" points="174.0795,-96.2258 164.3857,-100.5014 174.63,-103.2041 174.0795,-96.2258"/>
</g>
<!-- Node15 -->
<g id="node8" class="node">
<title>Node15</title>
<g id="a_node8"><a xlink:href="classene_1_1models_1_1TrackListModel.html#a8e4e0fa1a0a69e1479b62660084fc93c" target="_top" xlink:title="ene.models.TrackListModel.has">
<polygon fill="none" stroke="#000000" points="200,-29.5 200,-48.5 355,-48.5 355,-29.5 200,-29.5"/>
<text text-anchor="middle" x="277.5" y="-36.5" font-family="Helvetica,sans-Serif" font-size="10.00" fill="#000000">ene.models.TrackListModel.has</text>
</a>
</g>
</g>
<!-- Node8&#45;&gt;Node15 -->
<g id="edge9" class="edge">
<title>Node8&#45;&gt;Node15</title>
<path fill="none" stroke="#191970" d="M119.3136,-94.0214C157.4899,-80.7426 215.9079,-60.4234 250.0447,-48.5497"/>
<polygon fill="#191970" stroke="#191970" points="117.8909,-90.8105 109.5957,-97.4015 120.1905,-97.422 117.8909,-90.8105"/>
</g>
<!-- Node10 -->
<g id="node3" class="node">
<title>Node10</title>
<g id="a_node3"><a xlink:href="classene_1_1models_1_1PlayerModel.html#acfe1fde39cea80b94ae65ed401706d70" target="_top" xlink:title="ene.models.PlayerModel.load\lPlaylist">
<polygon fill="none" stroke="#000000" points="402.5,-187 402.5,-217 547.5,-217 547.5,-187 402.5,-187"/>
<text text-anchor="start" x="410.5" y="-205" font-family="Helvetica,sans-Serif" font-size="10.00" fill="#000000">ene.models.PlayerModel.load</text>
<text text-anchor="middle" x="475" y="-194" font-family="Helvetica,sans-Serif" font-size="10.00" fill="#000000">Playlist</text>
</a>
</g>
</g>
<!-- Node9&#45;&gt;Node10 -->
<g id="edge2" class="edge">
<title>Node9&#45;&gt;Node10</title>
<path fill="none" stroke="#191970" d="M342.317,-165.7221C367.4185,-172.5853 395.8502,-180.359 419.9381,-186.9451"/>
<polygon fill="#191970" stroke="#191970" points="343.0838,-162.3034 332.5148,-163.042 341.2376,-169.0555 343.0838,-162.3034"/>
</g>
<!-- Node11 -->
<g id="node4" class="node">
<title>Node11</title>
<g id="a_node4"><a xlink:href="classene_1_1models_1_1PlayerModel.html#a384fd9a2e98fc581e8221659257a8dd4" target="_top" xlink:title="ene.models.PlayerModel.next">
<polygon fill="none" stroke="#000000" points="604,-156.5 604,-175.5 750,-175.5 750,-156.5 604,-156.5"/>
<text text-anchor="middle" x="677" y="-163.5" font-family="Helvetica,sans-Serif" font-size="10.00" fill="#000000">ene.models.PlayerModel.next</text>
</a>
</g>
</g>
<!-- Node9&#45;&gt;Node11 -->
<g id="edge3" class="edge">
<title>Node9&#45;&gt;Node11</title>
<path fill="none" stroke="#191970" d="M360.661,-151.7469C432.3881,-154.9787 534.9735,-159.6008 603.6779,-162.6964"/>
<polygon fill="#191970" stroke="#191970" points="360.4574,-148.2343 350.3099,-151.2805 360.1422,-155.2272 360.4574,-148.2343"/>
</g>
<!-- Node9&#45;&gt;Node12 -->
<g id="edge4" class="edge">
<title>Node9&#45;&gt;Node12</title>
<path fill="none" stroke="#191970" d="M303.0938,-169.5249C325.1557,-187.1363 358.4982,-211.5723 391,-227 397.9878,-230.3169 405.5253,-233.2648 413.116,-235.859"/>
<polygon fill="#191970" stroke="#191970" points="305.1892,-166.718 295.216,-163.1423 300.7826,-172.1569 305.1892,-166.718"/>
</g>
<!-- Node13 -->
<g id="node6" class="node">
<title>Node13</title>
<g id="a_node6"><a xlink:href="classene_1_1models_1_1PlayerModel.html#a7242e20d537405f031ec8d18e7faf8fc" target="_top" xlink:title="ene.models.PlayerModel.previous">
<polygon fill="none" stroke="#000000" points="595,-102.5 595,-121.5 759,-121.5 759,-102.5 595,-102.5"/>
<text text-anchor="middle" x="677" y="-109.5" font-family="Helvetica,sans-Serif" font-size="10.00" fill="#000000">ene.models.PlayerModel.previous</text>
</a>
</g>
</g>
<!-- Node9&#45;&gt;Node13 -->
<g id="edge6" class="edge">
<title>Node9&#45;&gt;Node13</title>
<path fill="none" stroke="#191970" d="M360.6534,-140.5068C429.319,-134.3192 526.2686,-125.5828 594.6988,-119.4164"/>
<polygon fill="#191970" stroke="#191970" points="359.9554,-137.0555 350.3099,-141.4389 360.5837,-144.0272 359.9554,-137.0555"/>
</g>
<!-- Node9&#45;&gt;Node14 -->
<g id="edge7" class="edge">
<title>Node9&#45;&gt;Node14</title>
<path fill="none" stroke="#191970" d="M327.3454,-129.4155C347.1415,-122.0712 370.1278,-113.5887 391,-106 404.5347,-101.0791 419.3213,-95.7743 432.6641,-91.014"/>
<polygon fill="#191970" stroke="#191970" points="326.0629,-126.1582 317.9068,-132.9206 328.4998,-132.7203 326.0629,-126.1582"/>
</g>
<!-- Node12&#45;&gt;Node11 -->
<g id="edge5" class="edge">
<title>Node12&#45;&gt;Node11</title>
<path fill="none" stroke="#191970" d="M543.1272,-232.7895C548.5421,-230.9622 553.8895,-229.0276 559,-227 596.9417,-211.9464 638.8262,-188.5485 661.0636,-175.5412"/>
<polygon fill="#191970" stroke="#191970" points="541.7784,-229.5473 533.3444,-235.9596 543.9363,-236.2064 541.7784,-229.5473"/>
</g>
<!-- Node14&#45;&gt;Node13 -->
<g id="edge8" class="edge">
<title>Node14&#45;&gt;Node13</title>
<path fill="none" stroke="#191970" d="M569.2078,-92.7895C587.846,-96.1112 606.7941,-99.4881 623.4978,-102.465"/>
<polygon fill="#191970" stroke="#191970" points="569.6625,-89.3155 559.2035,-91.0066 568.4342,-96.2069 569.6625,-89.3155"/>
</g>
<!-- Node16 -->
<g id="node9" class="node">
<title>Node16</title>
<g id="a_node9"><a xlink:href="classene_1_1views_1_1gui_1_1partial_1_1PlayerView.html#a46b869b84db253abe071d06cb4629925" target="_top" xlink:title="ene.views.gui.partial.Player\lView.isCurrentTrackPartOfCurrent\lPlaylist">
<polygon fill="none" stroke="#000000" points="391.5,-.5 391.5,-41.5 558.5,-41.5 558.5,-.5 391.5,-.5"/>
<text text-anchor="start" x="399.5" y="-29.5" font-family="Helvetica,sans-Serif" font-size="10.00" fill="#000000">ene.views.gui.partial.Player</text>
<text text-anchor="start" x="399.5" y="-18.5" font-family="Helvetica,sans-Serif" font-size="10.00" fill="#000000">View.isCurrentTrackPartOfCurrent</text>
<text text-anchor="middle" x="475" y="-7.5" font-family="Helvetica,sans-Serif" font-size="10.00" fill="#000000">Playlist</text>
</a>
</g>
</g>
<!-- Node15&#45;&gt;Node16 -->
<g id="edge10" class="edge">
<title>Node15&#45;&gt;Node16</title>
<path fill="none" stroke="#191970" d="M365.3768,-30.991C374.0412,-30.2013 382.8186,-29.4013 391.4379,-28.6158"/>
<polygon fill="#191970" stroke="#191970" points="364.9147,-27.5185 355.2737,-31.9118 365.5502,-34.4896 364.9147,-27.5185"/>
</g>
<!-- Node17 -->
<g id="node10" class="node">
<title>Node17</title>
<g id="a_node10"><a xlink:href="classene_1_1views_1_1gui_1_1partial_1_1PlayerView.html#a3098a851f88f8b9ce6d4e2fcacdf55c9" target="_top" xlink:title="ene.views.gui.partial.Player\lView.enablePlayerControls">
<polygon fill="none" stroke="#000000" points="608.5,-28 608.5,-58 745.5,-58 745.5,-28 608.5,-28"/>
<text text-anchor="start" x="616.5" y="-46" font-family="Helvetica,sans-Serif" font-size="10.00" fill="#000000">ene.views.gui.partial.Player</text>
<text text-anchor="middle" x="677" y="-35" font-family="Helvetica,sans-Serif" font-size="10.00" fill="#000000">View.enablePlayerControls</text>
</a>
</g>
</g>
<!-- Node16&#45;&gt;Node17 -->
<g id="edge11" class="edge">
<title>Node16&#45;&gt;Node17</title>
<path fill="none" stroke="#191970" d="M568.7362,-31.2089C582.0291,-32.6566 595.4907,-34.1228 608.1935,-35.5062"/>
<polygon fill="#191970" stroke="#191970" points="568.9395,-27.7104 558.6193,-30.107 568.1815,-34.6693 568.9395,-27.7104"/>
</g>
<!-- Node18 -->
<g id="node11" class="node">
<title>Node18</title>
<g id="a_node11"><a xlink:href="classene_1_1views_1_1gui_1_1partial_1_1PlayerView.html#a15d3f24a6e52ff6dedb86bb793bb8fa9" target="_top" xlink:title="ene.views.gui.partial.Player\lView.update">
<polygon fill="none" stroke="#000000" points="795,-6 795,-36 932,-36 932,-6 795,-6"/>
<text text-anchor="start" x="803" y="-24" font-family="Helvetica,sans-Serif" font-size="10.00" fill="#000000">ene.views.gui.partial.Player</text>
<text text-anchor="middle" x="863.5" y="-13" font-family="Helvetica,sans-Serif" font-size="10.00" fill="#000000">View.update</text>
</a>
</g>
</g>
<!-- Node16&#45;&gt;Node18 -->
<g id="edge13" class="edge">
<title>Node16&#45;&gt;Node18</title>
<path fill="none" stroke="#191970" d="M568.6403,-18.4328C577.5493,-18.2567 586.4457,-18.1069 595,-18 667.8832,-17.0891 686.1186,-16.9541 759,-18 770.6147,-18.1667 782.9533,-18.4375 794.9279,-18.75"/>
<polygon fill="#191970" stroke="#191970" points="568.5191,-14.9345 558.5941,-18.642 568.6648,-21.933 568.5191,-14.9345"/>
</g>
<!-- Node17&#45;&gt;Node18 -->
<g id="edge12" class="edge">
<title>Node17&#45;&gt;Node18</title>
<path fill="none" stroke="#191970" d="M755.9593,-33.6858C768.9386,-32.1547 782.2962,-30.579 794.994,-29.0811"/>
<polygon fill="#191970" stroke="#191970" points="755.1723,-30.2543 745.6512,-34.9017 755.9924,-37.2061 755.1723,-30.2543"/>
</g>
</g>
</svg>
