<?xml version="1.0" encoding="UTF-8" standalone="no"?>
<!DOCTYPE svg PUBLIC "-//W3C//DTD SVG 1.1//EN"
 "http://www.w3.org/Graphics/SVG/1.1/DTD/svg11.dtd">
<!-- Generated by graphviz version 2.40.1 (20161225.0304)
 -->
<!-- Title: ene.AbstractObject.debugInfoAbout Pages: 1 -->
<svg width="530pt" height="390pt"
 viewBox="0.00 0.00 530.00 390.00" xmlns="http://www.w3.org/2000/svg" xmlns:xlink="http://www.w3.org/1999/xlink">
<g id="graph0" class="graph" transform="scale(1 1) rotate(0) translate(4 386)">
<title>ene.AbstractObject.debugInfoAbout</title>
<!-- Node19 -->
<g id="node1" class="node">
<title>Node19</title>
<polygon fill="#bfbfbf" stroke="#000000" points="0,-148.5 0,-178.5 130,-178.5 130,-148.5 0,-148.5"/>
<text text-anchor="start" x="8" y="-166.5" font-family="Helvetica,sans-Serif" font-size="10.00" fill="#000000">ene.AbstractObject.debug</text>
<text text-anchor="middle" x="65" y="-155.5" font-family="Helvetica,sans-Serif" font-size="10.00" fill="#000000">InfoAbout</text>
</g>
<!-- Node20 -->
<g id="node2" class="node">
<title>Node20</title>
<g id="a_node2"><a xlink:href="classene_1_1models_1_1PlayerModel.html#a2c4655428b658dee3203787415a516a5" target="_top" xlink:title="ene.models.PlayerModel.load">
<polygon fill="none" stroke="#000000" points="171.5,-313 171.5,-332 316.5,-332 316.5,-313 171.5,-313"/>
<text text-anchor="middle" x="244" y="-320" font-family="Helvetica,sans-Serif" font-size="10.00" fill="#000000">ene.models.PlayerModel.load</text>
</a>
</g>
</g>
<!-- Node19&#45;&gt;Node20 -->
<g id="edge1" class="edge">
<title>Node19&#45;&gt;Node20</title>
<path fill="none" stroke="#191970" d="M76.1932,-188.0881C91.7812,-219.5067 123.0283,-273.3082 166,-302.5 172.3601,-306.8206 179.5877,-310.2078 187.0164,-312.8633"/>
<polygon fill="#191970" stroke="#191970" points="79.1802,-186.2239 71.6874,-178.7334 72.8736,-189.2616 79.1802,-186.2239"/>
</g>
<!-- Node24 -->
<g id="node6" class="node">
<title>Node24</title>
<g id="a_node6"><a xlink:href="classene_1_1views_1_1gui_1_1partial_1_1PlaylistView.html#a108f11521a24d840a4aeb31190c0a34e" target="_top" xlink:title="ene.views.gui.partial.Playlist\lView.mousePressed">
<polygon fill="none" stroke="#000000" points="173.5,-263.5 173.5,-293.5 314.5,-293.5 314.5,-263.5 173.5,-263.5"/>
<text text-anchor="start" x="181.5" y="-281.5" font-family="Helvetica,sans-Serif" font-size="10.00" fill="#000000">ene.views.gui.partial.Playlist</text>
<text text-anchor="middle" x="244" y="-270.5" font-family="Helvetica,sans-Serif" font-size="10.00" fill="#000000">View.mousePressed</text>
</a>
</g>
</g>
<!-- Node19&#45;&gt;Node24 -->
<g id="edge5" class="edge">
<title>Node19&#45;&gt;Node24</title>
<path fill="none" stroke="#191970" d="M85.1853,-186.2398C104.2311,-206.4494 134.4939,-235.5018 166,-253.5 172.6677,-257.309 179.993,-260.6234 187.4018,-263.4824"/>
<polygon fill="#191970" stroke="#191970" points="87.5766,-183.6705 78.217,-178.7056 82.4376,-188.4235 87.5766,-183.6705"/>
</g>
<!-- Node25 -->
<g id="node7" class="node">
<title>Node25</title>
<g id="a_node7"><a xlink:href="classene_1_1views_1_1gui_1_1partial_1_1AbstractTrackListView.html#ad66634518c60ff157ef83d7dd9d7b4c6" target="_top" xlink:title="ene.views.gui.partial.Abstract\lTrackListView.mousePressed">
<polygon fill="none" stroke="#000000" points="170.5,-214.5 170.5,-244.5 317.5,-244.5 317.5,-214.5 170.5,-214.5"/>
<text text-anchor="start" x="178.5" y="-232.5" font-family="Helvetica,sans-Serif" font-size="10.00" fill="#000000">ene.views.gui.partial.Abstract</text>
<text text-anchor="middle" x="244" y="-221.5" font-family="Helvetica,sans-Serif" font-size="10.00" fill="#000000">TrackListView.mousePressed</text>
</a>
</g>
</g>
<!-- Node19&#45;&gt;Node25 -->
<g id="edge6" class="edge">
<title>Node19&#45;&gt;Node25</title>
<path fill="none" stroke="#191970" d="M109.655,-182.4727C127.1174,-189.6691 147.3865,-197.75 166,-204.5 175.3578,-207.8935 185.43,-211.3004 195.1262,-214.4597"/>
<polygon fill="#191970" stroke="#191970" points="110.8487,-179.1787 100.2708,-178.5797 108.1664,-185.6444 110.8487,-179.1787"/>
</g>
<!-- Node26 -->
<g id="node8" class="node">
<title>Node26</title>
<g id="a_node8"><a xlink:href="classene_1_1models_1_1PlayerModel.html#afdcaa5e17ecdfbccad3ac8e702914e00" target="_top" xlink:title="ene.models.PlayerModel.pause">
<polygon fill="none" stroke="#000000" points="167.5,-176 167.5,-195 320.5,-195 320.5,-176 167.5,-176"/>
<text text-anchor="middle" x="244" y="-183" font-family="Helvetica,sans-Serif" font-size="10.00" fill="#000000">ene.models.PlayerModel.pause</text>
</a>
</g>
</g>
<!-- Node19&#45;&gt;Node26 -->
<g id="edge7" class="edge">
<title>Node19&#45;&gt;Node26</title>
<path fill="none" stroke="#191970" d="M140.1756,-172.7395C149.1659,-173.8444 158.3542,-174.9737 167.3647,-176.0811"/>
<polygon fill="#191970" stroke="#191970" points="140.4818,-169.2508 130.1295,-171.5047 139.6278,-176.1986 140.4818,-169.2508"/>
</g>
<!-- Node27 -->
<g id="node9" class="node">
<title>Node27</title>
<g id="a_node9"><a xlink:href="classene_1_1views_1_1gui_1_1partial_1_1PlayerView.html#a7e28fb299fee46d221d3224ffb87ea35" target="_top" xlink:title="ene.views.gui.partial.Player\lView.render">
<polygon fill="none" stroke="#000000" points="175.5,-126.5 175.5,-156.5 312.5,-156.5 312.5,-126.5 175.5,-126.5"/>
<text text-anchor="start" x="183.5" y="-144.5" font-family="Helvetica,sans-Serif" font-size="10.00" fill="#000000">ene.views.gui.partial.Player</text>
<text text-anchor="middle" x="244" y="-133.5" font-family="Helvetica,sans-Serif" font-size="10.00" fill="#000000">View.render</text>
</a>
</g>
</g>
<!-- Node19&#45;&gt;Node27 -->
<g id="edge8" class="edge">
<title>Node19&#45;&gt;Node27</title>
<path fill="none" stroke="#191970" d="M140.2427,-154.2523C151.8707,-152.8231 163.8283,-151.3535 175.3029,-149.9432"/>
<polygon fill="#191970" stroke="#191970" points="139.6278,-150.8014 130.1295,-155.4953 140.4818,-157.7492 139.6278,-150.8014"/>
</g>
<!-- Node28 -->
<g id="node10" class="node">
<title>Node28</title>
<g id="a_node10"><a xlink:href="classene_1_1models_1_1PlayerModel.html#a7d0471082171de01773a1da88cb3652d" target="_top" xlink:title="ene.models.PlayerModel.start">
<polygon fill="none" stroke="#000000" points="171,-88 171,-107 317,-107 317,-88 171,-88"/>
<text text-anchor="middle" x="244" y="-95" font-family="Helvetica,sans-Serif" font-size="10.00" fill="#000000">ene.models.PlayerModel.start</text>
</a>
</g>
</g>
<!-- Node19&#45;&gt;Node28 -->
<g id="edge9" class="edge">
<title>Node19&#45;&gt;Node28</title>
<path fill="none" stroke="#191970" d="M102.6056,-143.8474C121.3012,-134.6368 144.454,-124.0548 166,-116.5 176.259,-112.9029 187.5075,-109.7339 198.1901,-107.0661"/>
<polygon fill="#191970" stroke="#191970" points="100.9214,-140.7763 93.5406,-148.3772 104.0505,-147.038 100.9214,-140.7763"/>
</g>
<!-- Node29 -->
<g id="node11" class="node">
<title>Node29</title>
<g id="a_node11"><a xlink:href="classene_1_1models_1_1PlayerModel.html#a108968d6fd2beb7e322bba50028d32b1" target="_top" xlink:title="ene.models.PlayerModel.update">
<polygon fill="none" stroke="#000000" points="166,-50 166,-69 322,-69 322,-50 166,-50"/>
<text text-anchor="middle" x="244" y="-57" font-family="Helvetica,sans-Serif" font-size="10.00" fill="#000000">ene.models.PlayerModel.update</text>
</a>
</g>
</g>
<!-- Node19&#45;&gt;Node29 -->
<g id="edge10" class="edge">
<title>Node19&#45;&gt;Node29</title>
<path fill="none" stroke="#191970" d="M85.4781,-141.2248C104.5189,-121.8388 134.6013,-94.4203 166,-78.5 173.5829,-74.6552 181.9808,-71.5639 190.3747,-69.0853"/>
<polygon fill="#191970" stroke="#191970" points="82.9137,-138.842 78.5019,-148.4746 87.9577,-143.6957 82.9137,-138.842"/>
</g>
<!-- Node30 -->
<g id="node12" class="node">
<title>Node30</title>
<g id="a_node12"><a xlink:href="classene_1_1views_1_1gui_1_1partial_1_1AbstractTrackListView.html#aebe5720136b8b2215b6ad365c723843e" target="_top" xlink:title="ene.views.gui.partial.Abstract\lTrackListView.valueChanged">
<polygon fill="none" stroke="#000000" points="171,-.5 171,-30.5 317,-30.5 317,-.5 171,-.5"/>
<text text-anchor="start" x="179" y="-18.5" font-family="Helvetica,sans-Serif" font-size="10.00" fill="#000000">ene.views.gui.partial.Abstract</text>
<text text-anchor="middle" x="244" y="-7.5" font-family="Helvetica,sans-Serif" font-size="10.00" fill="#000000">TrackListView.valueChanged</text>
</a>
</g>
</g>
<!-- Node19&#45;&gt;Node30 -->
<g id="edge11" class="edge">
<title>Node19&#45;&gt;Node30</title>
<path fill="none" stroke="#191970" d="M78.7113,-139.584C95.7651,-111.8895 127.3954,-66.7261 166,-40.5 171.6461,-36.6643 177.917,-33.3881 184.3801,-30.5965"/>
<polygon fill="#191970" stroke="#191970" points="75.6518,-137.8803 73.4977,-148.2538 81.6507,-141.4878 75.6518,-137.8803"/>
</g>
<!-- Node21 -->
<g id="node3" class="node">
<title>Node21</title>
<g id="a_node3"><a xlink:href="classene_1_1models_1_1PlayerModel.html#acfe1fde39cea80b94ae65ed401706d70" target="_top" xlink:title="ene.models.PlayerModel.load\lPlaylist">
<polygon fill="none" stroke="#000000" points="367.5,-351.5 367.5,-381.5 512.5,-381.5 512.5,-351.5 367.5,-351.5"/>
<text text-anchor="start" x="375.5" y="-369.5" font-family="Helvetica,sans-Serif" font-size="10.00" fill="#000000">ene.models.PlayerModel.load</text>
<text text-anchor="middle" x="440" y="-358.5" font-family="Helvetica,sans-Serif" font-size="10.00" fill="#000000">Playlist</text>
</a>
</g>
</g>
<!-- Node20&#45;&gt;Node21 -->
<g id="edge2" class="edge">
<title>Node20&#45;&gt;Node21</title>
<path fill="none" stroke="#191970" d="M296.3071,-334.2424C319.8196,-339.5207 347.8534,-345.814 372.8907,-351.4346"/>
<polygon fill="#191970" stroke="#191970" points="297.0529,-330.8228 286.5291,-332.0473 295.5196,-337.6528 297.0529,-330.8228"/>
</g>
<!-- Node22 -->
<g id="node4" class="node">
<title>Node22</title>
<g id="a_node4"><a xlink:href="classene_1_1models_1_1PlayerModel.html#a7242e20d537405f031ec8d18e7faf8fc" target="_top" xlink:title="ene.models.PlayerModel.previous">
<polygon fill="none" stroke="#000000" points="358,-313 358,-332 522,-332 522,-313 358,-313"/>
<text text-anchor="middle" x="440" y="-320" font-family="Helvetica,sans-Serif" font-size="10.00" fill="#000000">ene.models.PlayerModel.previous</text>
</a>
</g>
</g>
<!-- Node20&#45;&gt;Node22 -->
<g id="edge3" class="edge">
<title>Node20&#45;&gt;Node22</title>
<path fill="none" stroke="#191970" d="M326.8646,-322.5C337.1172,-322.5 347.5963,-322.5 357.8384,-322.5"/>
<polygon fill="#191970" stroke="#191970" points="326.7047,-319.0001 316.7046,-322.5 326.7046,-326.0001 326.7047,-319.0001"/>
</g>
<!-- Node23 -->
<g id="node5" class="node">
<title>Node23</title>
<g id="a_node5"><a xlink:href="classene_1_1models_1_1PlayerModel.html#a384fd9a2e98fc581e8221659257a8dd4" target="_top" xlink:title="ene.models.PlayerModel.next">
<polygon fill="none" stroke="#000000" points="367,-275 367,-294 513,-294 513,-275 367,-275"/>
<text text-anchor="middle" x="440" y="-282" font-family="Helvetica,sans-Serif" font-size="10.00" fill="#000000">ene.models.PlayerModel.next</text>
</a>
</g>
</g>
<!-- Node20&#45;&gt;Node23 -->
<g id="edge4" class="edge">
<title>Node20&#45;&gt;Node23</title>
<path fill="none" stroke="#191970" d="M303.2612,-311.0106C331.227,-305.5886 364.2091,-299.1942 390.7737,-294.0439"/>
<polygon fill="#191970" stroke="#191970" points="302.3571,-307.6206 293.2061,-312.96 303.6895,-314.4927 302.3571,-307.6206"/>
</g>
</g>
</svg>
