<?xml version="1.0" encoding="UTF-8" standalone="no"?>
<!DOCTYPE svg PUBLIC "-//W3C//DTD SVG 1.1//EN"
 "http://www.w3.org/Graphics/SVG/1.1/DTD/svg11.dtd">
<!-- Generated by graphviz version 2.40.1 (20161225.0304)
 -->
<!-- Title: ene.views.AbstractView.getCoreComponent Pages: 1 -->
<svg width="737pt" height="225pt"
 viewBox="0.00 0.00 737.00 225.00" xmlns="http://www.w3.org/2000/svg" xmlns:xlink="http://www.w3.org/1999/xlink">
<g id="graph0" class="graph" transform="scale(1 1) rotate(0) translate(4 221)">
<title>ene.views.AbstractView.getCoreComponent</title>
<!-- Node1 -->
<g id="node1" class="node">
<title>Node1</title>
<polygon fill="#bfbfbf" stroke="#000000" points="0,-88.5 0,-118.5 139,-118.5 139,-88.5 0,-88.5"/>
<text text-anchor="start" x="8" y="-106.5" font-family="Helvetica,sans-Serif" font-size="10.00" fill="#000000">ene.views.AbstractView.get</text>
<text text-anchor="middle" x="69.5" y="-95.5" font-family="Helvetica,sans-Serif" font-size="10.00" fill="#000000">CoreComponent</text>
</g>
<!-- Node2 -->
<g id="node2" class="node">
<title>Node2</title>
<g id="a_node2"><a xlink:href="classene_1_1views_1_1gui_1_1WindowView.html#a2f281419aedc07356781392658155ad9" target="_top" xlink:title="ene.views.gui.WindowView.get\lTitle">
<polygon fill="none" stroke="#000000" points="182,-186.5 182,-216.5 335,-216.5 335,-186.5 182,-186.5"/>
<text text-anchor="start" x="190" y="-204.5" font-family="Helvetica,sans-Serif" font-size="10.00" fill="#000000">ene.views.gui.WindowView.get</text>
<text text-anchor="middle" x="258.5" y="-193.5" font-family="Helvetica,sans-Serif" font-size="10.00" fill="#000000">Title</text>
</a>
</g>
</g>
<!-- Node1&#45;&gt;Node2 -->
<g id="edge1" class="edge">
<title>Node1&#45;&gt;Node2</title>
<path fill="none" stroke="#191970" d="M94.915,-124.9803C115.4002,-141.3589 145.5488,-163.4264 175,-177.5 181.9408,-180.8167 189.4301,-183.7645 196.9738,-186.3586"/>
<polygon fill="#191970" stroke="#191970" points="96.9935,-122.1594 87.0252,-118.5702 92.5795,-127.5924 96.9935,-122.1594"/>
</g>
<!-- Node3 -->
<g id="node3" class="node">
<title>Node3</title>
<g id="a_node3"><a xlink:href="classene_1_1views_1_1gui_1_1partial_1_1LibraryView.html#a6e6e521f258ad6e3f2e06ed96180efb6" target="_top" xlink:title="ene.views.gui.partial.Library\lView.initialize">
<polygon fill="none" stroke="#000000" points="189.5,-137.5 189.5,-167.5 327.5,-167.5 327.5,-137.5 189.5,-137.5"/>
<text text-anchor="start" x="197.5" y="-155.5" font-family="Helvetica,sans-Serif" font-size="10.00" fill="#000000">ene.views.gui.partial.Library</text>
<text text-anchor="middle" x="258.5" y="-144.5" font-family="Helvetica,sans-Serif" font-size="10.00" fill="#000000">View.initialize</text>
</a>
</g>
</g>
<!-- Node1&#45;&gt;Node3 -->
<g id="edge2" class="edge">
<title>Node1&#45;&gt;Node3</title>
<path fill="none" stroke="#191970" d="M137.1921,-121.0498C157.9466,-126.4306 180.582,-132.299 200.619,-137.4938"/>
<polygon fill="#191970" stroke="#191970" points="138.049,-117.6563 127.4907,-118.5346 136.2922,-124.4323 138.049,-117.6563"/>
</g>
<!-- Node5 -->
<g id="node5" class="node">
<title>Node5</title>
<g id="a_node5"><a xlink:href="classene_1_1views_1_1gui_1_1partial_1_1ContentView.html#a7615ef3421a9f5a70e4929ec72132020" target="_top" xlink:title="ene.views.gui.partial.Content\lView.render">
<polygon fill="none" stroke="#000000" points="187,-88.5 187,-118.5 330,-118.5 330,-88.5 187,-88.5"/>
<text text-anchor="start" x="195" y="-106.5" font-family="Helvetica,sans-Serif" font-size="10.00" fill="#000000">ene.views.gui.partial.Content</text>
<text text-anchor="middle" x="258.5" y="-95.5" font-family="Helvetica,sans-Serif" font-size="10.00" fill="#000000">View.render</text>
</a>
</g>
</g>
<!-- Node1&#45;&gt;Node5 -->
<g id="edge4" class="edge">
<title>Node1&#45;&gt;Node5</title>
<path fill="none" stroke="#191970" d="M149.4144,-103.5C161.8474,-103.5 174.6255,-103.5 186.8598,-103.5"/>
<polygon fill="#191970" stroke="#191970" points="149.0715,-100.0001 139.0714,-103.5 149.0714,-107.0001 149.0715,-100.0001"/>
</g>
<!-- Node6 -->
<g id="node6" class="node">
<title>Node6</title>
<g id="a_node6"><a xlink:href="classene_1_1views_1_1gui_1_1WindowView.html#a2ce6d135f47d21b01c91eeeac2e5c52a" target="_top" xlink:title="ene.views.gui.WindowView.render">
<polygon fill="none" stroke="#000000" points="175,-50 175,-69 342,-69 342,-50 175,-50"/>
<text text-anchor="middle" x="258.5" y="-57" font-family="Helvetica,sans-Serif" font-size="10.00" fill="#000000">ene.views.gui.WindowView.render</text>
</a>
</g>
</g>
<!-- Node1&#45;&gt;Node6 -->
<g id="edge5" class="edge">
<title>Node1&#45;&gt;Node6</title>
<path fill="none" stroke="#191970" d="M143.8919,-86.1813C169.0032,-80.3352 196.1008,-74.0268 217.6398,-69.0124"/>
<polygon fill="#191970" stroke="#191970" points="142.9604,-82.8044 134.0145,-88.4808 144.5476,-89.6221 142.9604,-82.8044"/>
</g>
<!-- Node7 -->
<g id="node7" class="node">
<title>Node7</title>
<g id="a_node7"><a xlink:href="classene_1_1views_1_1gui_1_1WindowView.html#ab0f6dcadbede5ac1c47e346bf2df3593" target="_top" xlink:title="ene.views.gui.WindowView.set\lTitle">
<polygon fill="none" stroke="#000000" points="182,-.5 182,-30.5 335,-30.5 335,-.5 182,-.5"/>
<text text-anchor="start" x="190" y="-18.5" font-family="Helvetica,sans-Serif" font-size="10.00" fill="#000000">ene.views.gui.WindowView.set</text>
<text text-anchor="middle" x="258.5" y="-7.5" font-family="Helvetica,sans-Serif" font-size="10.00" fill="#000000">Title</text>
</a>
</g>
</g>
<!-- Node1&#45;&gt;Node7 -->
<g id="edge6" class="edge">
<title>Node1&#45;&gt;Node7</title>
<path fill="none" stroke="#191970" d="M99.8562,-82.6211C120.3752,-69.21 148.4665,-52.1782 175,-40.5 183.3101,-36.8425 192.3116,-33.5261 201.224,-30.5919"/>
<polygon fill="#191970" stroke="#191970" points="97.6767,-79.8667 91.274,-88.308 101.5433,-85.7019 97.6767,-79.8667"/>
</g>
<!-- Node4 -->
<g id="node4" class="node">
<title>Node4</title>
<g id="a_node4"><a xlink:href="classene_1_1views_1_1gui_1_1partial_1_1LibraryView.html#a23af39410ef7be2c3253b41ca96cdc4e" target="_top" xlink:title="ene.views.gui.partial.Library\lView.LibraryView">
<polygon fill="none" stroke="#000000" points="396.5,-137.5 396.5,-167.5 534.5,-167.5 534.5,-137.5 396.5,-137.5"/>
<text text-anchor="start" x="404.5" y="-155.5" font-family="Helvetica,sans-Serif" font-size="10.00" fill="#000000">ene.views.gui.partial.Library</text>
<text text-anchor="middle" x="465.5" y="-144.5" font-family="Helvetica,sans-Serif" font-size="10.00" fill="#000000">View.LibraryView</text>
</a>
</g>
</g>
<!-- Node3&#45;&gt;Node4 -->
<g id="edge3" class="edge">
<title>Node3&#45;&gt;Node4</title>
<path fill="none" stroke="#191970" d="M337.9614,-152.5C357.2056,-152.5 377.6235,-152.5 396.3494,-152.5"/>
<polygon fill="#191970" stroke="#191970" points="337.7158,-149.0001 327.7158,-152.5 337.7158,-156.0001 337.7158,-149.0001"/>
</g>
<!-- Node8 -->
<g id="node8" class="node">
<title>Node8</title>
<g id="a_node8"><a xlink:href="classene_1_1views_1_1gui_1_1WindowView.html#ab1f007806dcd28e2e4486eb29231fa21" target="_top" xlink:title="ene.views.gui.WindowView.initialize">
<polygon fill="none" stroke="#000000" points="378,-6 378,-25 553,-25 553,-6 378,-6"/>
<text text-anchor="middle" x="465.5" y="-13" font-family="Helvetica,sans-Serif" font-size="10.00" fill="#000000">ene.views.gui.WindowView.initialize</text>
</a>
</g>
</g>
<!-- Node7&#45;&gt;Node8 -->
<g id="edge7" class="edge">
<title>Node7&#45;&gt;Node8</title>
<path fill="none" stroke="#191970" d="M345.4212,-15.5C356.0864,-15.5 366.9927,-15.5 377.6712,-15.5"/>
<polygon fill="#191970" stroke="#191970" points="345.285,-12.0001 335.285,-15.5 345.285,-19.0001 345.285,-12.0001"/>
</g>
<!-- Node9 -->
<g id="node9" class="node">
<title>Node9</title>
<g id="a_node9"><a xlink:href="classene_1_1views_1_1gui_1_1WindowView.html#a0d3e57ee4c8c74d85618d82de8087545" target="_top" xlink:title="ene.views.gui.WindowView.\lWindowView">
<polygon fill="none" stroke="#000000" points="589,-.5 589,-30.5 729,-30.5 729,-.5 589,-.5"/>
<text text-anchor="start" x="597" y="-18.5" font-family="Helvetica,sans-Serif" font-size="10.00" fill="#000000">ene.views.gui.WindowView.</text>
<text text-anchor="middle" x="659" y="-7.5" font-family="Helvetica,sans-Serif" font-size="10.00" fill="#000000">WindowView</text>
</a>
</g>
</g>
<!-- Node8&#45;&gt;Node9 -->
<g id="edge8" class="edge">
<title>Node8&#45;&gt;Node9</title>
<path fill="none" stroke="#191970" d="M563.2592,-15.5C571.8451,-15.5 580.4203,-15.5 588.7145,-15.5"/>
<polygon fill="#191970" stroke="#191970" points="563.1915,-12.0001 553.1915,-15.5 563.1915,-19.0001 563.1915,-12.0001"/>
</g>
</g>
</svg>
