<?xml version="1.0" encoding="UTF-8" standalone="no"?>
<!DOCTYPE svg PUBLIC "-//W3C//DTD SVG 1.1//EN"
 "http://www.w3.org/Graphics/SVG/1.1/DTD/svg11.dtd">
<!-- Generated by graphviz version 2.40.1 (20161225.0304)
 -->
<!-- Title: ene.models.PlayerModel.previous Pages: 1 -->
<svg width="978pt" height="389pt"
 viewBox="0.00 0.00 978.00 389.00" xmlns="http://www.w3.org/2000/svg" xmlns:xlink="http://www.w3.org/1999/xlink">
<g id="graph0" class="graph" transform="scale(1 1) rotate(0) translate(4 385)">
<title>ene.models.PlayerModel.previous</title>
<!-- Node86 -->
<g id="node1" class="node">
<title>Node86</title>
<polygon fill="#bfbfbf" stroke="#000000" points="0,-221 0,-240 164,-240 164,-221 0,-221"/>
<text text-anchor="middle" x="82" y="-228" font-family="Helvetica,sans-Serif" font-size="10.00" fill="#000000">ene.models.PlayerModel.previous</text>
</g>
<!-- Node87 -->
<g id="node2" class="node">
<title>Node87</title>
<g id="a_node2"><a xlink:href="classene_1_1models_1_1PlaylistModel.html#ad63fd499a74248dc9dadad29b9882fd2" target="_top" xlink:title="ene.models.PlaylistModel.get\lCurrentTrack">
<polygon fill="none" stroke="#000000" points="410.5,-350.5 410.5,-380.5 555.5,-380.5 555.5,-350.5 410.5,-350.5"/>
<text text-anchor="start" x="418.5" y="-368.5" font-family="Helvetica,sans-Serif" font-size="10.00" fill="#000000">ene.models.PlaylistModel.get</text>
<text text-anchor="middle" x="483" y="-357.5" font-family="Helvetica,sans-Serif" font-size="10.00" fill="#000000">CurrentTrack</text>
</a>
</g>
</g>
<!-- Node86&#45;&gt;Node87 -->
<g id="edge1" class="edge">
<title>Node86&#45;&gt;Node87</title>
<path fill="none" stroke="#191970" d="M94.6938,-240.2097C115.5384,-255.6858 158.8269,-285.8898 200,-302.5 264.842,-328.6587 342.6397,-344.9784 400.2415,-354.4347"/>
<polygon fill="#191970" stroke="#191970" points="399.963,-357.9347 410.3914,-356.0644 401.0728,-351.0232 399.963,-357.9347"/>
</g>
<!-- Node89 -->
<g id="node4" class="node">
<title>Node89</title>
<g id="a_node4"><a xlink:href="classene_1_1models_1_1PlayerModel.html#a85b0de48a8e962642825c254f9c47fb0" target="_top" xlink:title="ene.models.PlayerModel.get\lPlaylist">
<polygon fill="none" stroke="#000000" points="214,-106.5 214,-136.5 354,-136.5 354,-106.5 214,-106.5"/>
<text text-anchor="start" x="222" y="-124.5" font-family="Helvetica,sans-Serif" font-size="10.00" fill="#000000">ene.models.PlayerModel.get</text>
<text text-anchor="middle" x="284" y="-113.5" font-family="Helvetica,sans-Serif" font-size="10.00" fill="#000000">Playlist</text>
</a>
</g>
</g>
<!-- Node86&#45;&gt;Node89 -->
<g id="edge3" class="edge">
<title>Node86&#45;&gt;Node89</title>
<path fill="none" stroke="#191970" d="M92.9231,-220.807C112.8599,-203.5742 157.0604,-167.4522 200,-146.5 204.6664,-144.223 209.5814,-142.1089 214.5956,-140.1546"/>
<polygon fill="#191970" stroke="#191970" points="216.1352,-143.3182 224.3217,-136.5927 213.728,-136.7451 216.1352,-143.3182"/>
</g>
<!-- Node90 -->
<g id="node5" class="node">
<title>Node90</title>
<g id="a_node5"><a xlink:href="classene_1_1models_1_1PlayerModel.html#a2c4655428b658dee3203787415a516a5" target="_top" xlink:title="ene.models.PlayerModel.load">
<polygon fill="none" stroke="#000000" points="211.5,-156 211.5,-175 356.5,-175 356.5,-156 211.5,-156"/>
<text text-anchor="middle" x="284" y="-163" font-family="Helvetica,sans-Serif" font-size="10.00" fill="#000000">ene.models.PlayerModel.load</text>
</a>
</g>
</g>
<!-- Node86&#45;&gt;Node90 -->
<g id="edge4" class="edge">
<title>Node86&#45;&gt;Node90</title>
<path fill="none" stroke="#191970" d="M111.8058,-220.909C146.9651,-209.5954 205.5437,-190.7458 244.4677,-178.2208"/>
<polygon fill="#191970" stroke="#191970" points="245.9538,-181.4194 254.401,-175.0244 243.8095,-174.7559 245.9538,-181.4194"/>
</g>
<!-- Node99 -->
<g id="node14" class="node">
<title>Node99</title>
<g id="a_node14"><a xlink:href="classene_1_1models_1_1PlaylistModel.html#ab30573de71b566da79145210f94be294" target="_top" xlink:title="ene.models.PlaylistModel.previous\lTrack">
<polygon fill="none" stroke="#000000" points="200,-262.5 200,-292.5 368,-292.5 368,-262.5 200,-262.5"/>
<text text-anchor="start" x="208" y="-280.5" font-family="Helvetica,sans-Serif" font-size="10.00" fill="#000000">ene.models.PlaylistModel.previous</text>
<text text-anchor="middle" x="284" y="-269.5" font-family="Helvetica,sans-Serif" font-size="10.00" fill="#000000">Track</text>
</a>
</g>
</g>
<!-- Node86&#45;&gt;Node99 -->
<g id="edge13" class="edge">
<title>Node86&#45;&gt;Node99</title>
<path fill="none" stroke="#191970" d="M122.8777,-240.0112C147.7357,-245.7949 180.2329,-253.3562 209.5262,-260.1719"/>
<polygon fill="#191970" stroke="#191970" points="208.789,-263.5938 219.322,-262.4512 210.3754,-256.7759 208.789,-263.5938"/>
</g>
<!-- Node88 -->
<g id="node3" class="node">
<title>Node88</title>
<g id="a_node3"><a xlink:href="classene_1_1models_1_1TrackListModel.html#a77a78d6a93e67e544d83bf5f4856d121" target="_top" xlink:title="ene.models.TrackListModel.getAll">
<polygon fill="none" stroke="#000000" points="602.5,-334 602.5,-353 766.5,-353 766.5,-334 602.5,-334"/>
<text text-anchor="middle" x="684.5" y="-341" font-family="Helvetica,sans-Serif" font-size="10.00" fill="#000000">ene.models.TrackListModel.getAll</text>
</a>
</g>
</g>
<!-- Node87&#45;&gt;Node88 -->
<g id="edge2" class="edge">
<title>Node87&#45;&gt;Node88</title>
<path fill="none" stroke="#191970" d="M555.7461,-357.5575C567.5474,-356.269 579.9056,-354.9197 592.0995,-353.5884"/>
<polygon fill="#191970" stroke="#191970" points="592.7269,-357.0408 602.2879,-352.476 591.9671,-350.0821 592.7269,-357.0408"/>
</g>
<!-- Node91 -->
<g id="node6" class="node">
<title>Node91</title>
<g id="a_node6"><a xlink:href="classene_1_1AbstractObject.html#aff9619cf289ec83735b6c6ca2c12e020" target="_top" xlink:title="ene.AbstractObject.debug\lInfoAbout">
<polygon fill="none" stroke="#000000" points="418,-49.5 418,-79.5 548,-79.5 548,-49.5 418,-49.5"/>
<text text-anchor="start" x="426" y="-67.5" font-family="Helvetica,sans-Serif" font-size="10.00" fill="#000000">ene.AbstractObject.debug</text>
<text text-anchor="middle" x="483" y="-56.5" font-family="Helvetica,sans-Serif" font-size="10.00" fill="#000000">InfoAbout</text>
</a>
</g>
</g>
<!-- Node90&#45;&gt;Node91 -->
<g id="edge5" class="edge">
<title>Node90&#45;&gt;Node91</title>
<path fill="none" stroke="#191970" d="M347.7595,-155.9106C354.954,-153.2386 361.8848,-149.8344 368,-145.5 392.1394,-128.3902 380.4987,-107.4762 404,-89.5 406.4352,-87.6373 409.0125,-85.9115 411.6913,-84.3126"/>
<polygon fill="#191970" stroke="#191970" points="413.3424,-87.3988 420.5426,-79.6265 410.0671,-81.2123 413.3424,-87.3988"/>
</g>
<!-- Node94 -->
<g id="node9" class="node">
<title>Node94</title>
<g id="a_node9"><a xlink:href="classene_1_1AbstractObject.html#a600f6bedef1dc48e610cdfa5f81b7667" target="_top" xlink:title="ene.AbstractObject.delay">
<polygon fill="none" stroke="#000000" points="419.5,-175 419.5,-194 546.5,-194 546.5,-175 419.5,-175"/>
<text text-anchor="middle" x="483" y="-182" font-family="Helvetica,sans-Serif" font-size="10.00" fill="#000000">ene.AbstractObject.delay</text>
</a>
</g>
</g>
<!-- Node90&#45;&gt;Node94 -->
<g id="edge8" class="edge">
<title>Node90&#45;&gt;Node94</title>
<path fill="none" stroke="#191970" d="M356.6883,-172.4401C373.8588,-174.0795 392.1805,-175.8288 409.3914,-177.472"/>
<polygon fill="#191970" stroke="#191970" points="409.092,-180.9593 419.3794,-178.4257 409.7574,-173.991 409.092,-180.9593"/>
</g>
<!-- Node95 -->
<g id="node10" class="node">
<title>Node95</title>
<g id="a_node10"><a xlink:href="classene_1_1models_1_1PlayerModel.html#aa03431aa1bae96eacf2019c56fd18f45" target="_top" xlink:title="ene.models.PlayerModel.getClip">
<polygon fill="none" stroke="#000000" points="404,-137 404,-156 562,-156 562,-137 404,-137"/>
<text text-anchor="middle" x="483" y="-144" font-family="Helvetica,sans-Serif" font-size="10.00" fill="#000000">ene.models.PlayerModel.getClip</text>
</a>
</g>
</g>
<!-- Node90&#45;&gt;Node95 -->
<g id="edge9" class="edge">
<title>Node90&#45;&gt;Node95</title>
<path fill="none" stroke="#191970" d="M356.6883,-158.5599C368.6586,-157.417 381.1885,-156.2207 393.5114,-155.0441"/>
<polygon fill="#191970" stroke="#191970" points="394.1751,-158.4968 403.7971,-154.0621 393.5097,-151.5285 394.1751,-158.4968"/>
</g>
<!-- Node96 -->
<g id="node11" class="node">
<title>Node96</title>
<g id="a_node11"><a xlink:href="classene_1_1models_1_1TrackModel.html#aab88fe151b093dba71ad9f9ab5c6959d" target="_top" xlink:title="ene.models.TrackModel.get\lFilename">
<polygon fill="none" stroke="#000000" points="414.5,-213.5 414.5,-243.5 551.5,-243.5 551.5,-213.5 414.5,-213.5"/>
<text text-anchor="start" x="422.5" y="-231.5" font-family="Helvetica,sans-Serif" font-size="10.00" fill="#000000">ene.models.TrackModel.get</text>
<text text-anchor="middle" x="483" y="-220.5" font-family="Helvetica,sans-Serif" font-size="10.00" fill="#000000">Filename</text>
</a>
</g>
</g>
<!-- Node90&#45;&gt;Node96 -->
<g id="edge10" class="edge">
<title>Node90&#45;&gt;Node96</title>
<path fill="none" stroke="#191970" d="M314.0822,-175.0278C338.3528,-182.7145 373.3741,-193.805 404,-203.5 410.9774,-205.7088 418.3016,-208.027 425.5592,-210.3239"/>
<polygon fill="#191970" stroke="#191970" points="424.7857,-213.7502 435.3757,-213.4306 426.8978,-207.0764 424.7857,-213.7502"/>
</g>
<!-- Node97 -->
<g id="node12" class="node">
<title>Node97</title>
<g id="a_node12"><a xlink:href="classene_1_1models_1_1PlayerModel.html#a5617391131179365729686dc4eea1ea1" target="_top" xlink:title="ene.models.PlayerModel.setClip">
<polygon fill="none" stroke="#000000" points="404,-99 404,-118 562,-118 562,-99 404,-99"/>
<text text-anchor="middle" x="483" y="-106" font-family="Helvetica,sans-Serif" font-size="10.00" fill="#000000">ene.models.PlayerModel.setClip</text>
</a>
</g>
</g>
<!-- Node90&#45;&gt;Node97 -->
<g id="edge11" class="edge">
<title>Node90&#45;&gt;Node97</title>
<path fill="none" stroke="#191970" d="M332.5356,-155.9489C344.2992,-153.0873 356.7289,-149.5976 368,-145.5 384.812,-139.388 387.195,-133.6312 404,-127.5 411.0028,-124.9451 418.4807,-122.6353 425.9392,-120.5785"/>
<polygon fill="#191970" stroke="#191970" points="426.9065,-123.9432 435.6914,-118.0207 425.1306,-117.1722 426.9065,-123.9432"/>
</g>
<!-- Node98 -->
<g id="node13" class="node">
<title>Node98</title>
<g id="a_node13"><a xlink:href="classene_1_1models_1_1PlayerModel.html#a921a00136726aee3bcababbd6c9b2e3e" target="_top" xlink:title="ene.models.PlayerModel.set\lCurrentTrack">
<polygon fill="none" stroke="#000000" points="413,-.5 413,-30.5 553,-30.5 553,-.5 413,-.5"/>
<text text-anchor="start" x="421" y="-18.5" font-family="Helvetica,sans-Serif" font-size="10.00" fill="#000000">ene.models.PlayerModel.set</text>
<text text-anchor="middle" x="483" y="-7.5" font-family="Helvetica,sans-Serif" font-size="10.00" fill="#000000">CurrentTrack</text>
</a>
</g>
</g>
<!-- Node90&#45;&gt;Node98 -->
<g id="edge12" class="edge">
<title>Node90&#45;&gt;Node98</title>
<path fill="none" stroke="#191970" d="M352.199,-155.8245C357.9554,-153.1251 363.3444,-149.7388 368,-145.5 404.7897,-112.0041 368.2522,-74.1057 404,-39.5 405.0943,-38.4407 406.2338,-37.428 407.4129,-36.4598"/>
<polygon fill="#191970" stroke="#191970" points="409.4949,-39.2752 415.7102,-30.6949 405.5008,-33.5265 409.4949,-39.2752"/>
</g>
<!-- Node92 -->
<g id="node7" class="node">
<title>Node92</title>
<g id="a_node7"><a xlink:href="classene_1_1AbstractObject.html#a9ce30d3321c7ce794df2f07bdaf3e47c" target="_top" xlink:title="ene.AbstractObject.console\lOutput">
<polygon fill="none" stroke="#000000" points="616,-25.5 616,-55.5 753,-55.5 753,-25.5 616,-25.5"/>
<text text-anchor="start" x="624" y="-43.5" font-family="Helvetica,sans-Serif" font-size="10.00" fill="#000000">ene.AbstractObject.console</text>
<text text-anchor="middle" x="684.5" y="-32.5" font-family="Helvetica,sans-Serif" font-size="10.00" fill="#000000">Output</text>
</a>
</g>
</g>
<!-- Node91&#45;&gt;Node92 -->
<g id="edge6" class="edge">
<title>Node91&#45;&gt;Node92</title>
<path fill="none" stroke="#191970" d="M548.143,-56.741C566.4666,-54.5586 586.5934,-52.1613 605.626,-49.8944"/>
<polygon fill="#191970" stroke="#191970" points="606.2491,-53.345 615.7649,-48.6868 605.4211,-46.3942 606.2491,-53.345"/>
</g>
<!-- Node93 -->
<g id="node8" class="node">
<title>Node93</title>
<g id="a_node8"><a xlink:href="classene_1_1AbstractObject.html#a6ee0b669069e0c3ee320a6cf41af24fe" target="_top" xlink:title="ene.AbstractObject.isDebug\lModeEnabled">
<polygon fill="none" stroke="#000000" points="614.5,-74.5 614.5,-104.5 754.5,-104.5 754.5,-74.5 614.5,-74.5"/>
<text text-anchor="start" x="622.5" y="-92.5" font-family="Helvetica,sans-Serif" font-size="10.00" fill="#000000">ene.AbstractObject.isDebug</text>
<text text-anchor="middle" x="684.5" y="-81.5" font-family="Helvetica,sans-Serif" font-size="10.00" fill="#000000">ModeEnabled</text>
</a>
</g>
</g>
<!-- Node91&#45;&gt;Node93 -->
<g id="edge7" class="edge">
<title>Node91&#45;&gt;Node93</title>
<path fill="none" stroke="#191970" d="M548.143,-72.5823C566.0767,-74.8073 585.7378,-77.2466 604.4097,-79.5632"/>
<polygon fill="#191970" stroke="#191970" points="604.0105,-83.0405 614.3654,-80.7984 604.8724,-76.0937 604.0105,-83.0405"/>
</g>
<!-- Node99&#45;&gt;Node87 -->
<g id="edge14" class="edge">
<title>Node99&#45;&gt;Node87</title>
<path fill="none" stroke="#191970" d="M313.2574,-292.5273C337.353,-304.6877 372.5457,-321.9569 404,-335.5 412.9008,-339.3324 422.468,-343.1844 431.765,-346.7907"/>
<polygon fill="#191970" stroke="#191970" points="430.7261,-350.1407 441.3165,-350.4489 433.2298,-343.6037 430.7261,-350.1407"/>
</g>
<!-- Node99&#45;&gt;Node88 -->
<g id="edge16" class="edge">
<title>Node99&#45;&gt;Node88</title>
<path fill="none" stroke="#191970" d="M352.7133,-292.5576C369.4562,-296.0212 387.3411,-299.55 404,-302.5 469.9236,-314.1741 544.9895,-325.0183 600.8671,-332.6184"/>
<polygon fill="#191970" stroke="#191970" points="600.6918,-336.1265 611.0709,-333.9992 601.6306,-329.1897 600.6918,-336.1265"/>
</g>
<!-- Node99&#45;&gt;Node96 -->
<g id="edge15" class="edge">
<title>Node99&#45;&gt;Node96</title>
<path fill="none" stroke="#191970" d="M345.059,-262.4654C366.2616,-257.2446 390.2162,-251.3463 412.1423,-245.9474"/>
<polygon fill="#191970" stroke="#191970" points="413.1834,-249.2957 422.0565,-243.5062 411.5097,-242.4987 413.1834,-249.2957"/>
</g>
<!-- Node100 -->
<g id="node15" class="node">
<title>Node100</title>
<g id="a_node15"><a xlink:href="classene_1_1models_1_1PlaylistModel.html#a7150506b3801f97a2e38955a585bbd07" target="_top" xlink:title="ene.models.PlaylistModel.set\lCurrentTrack">
<polygon fill="none" stroke="#000000" points="410.5,-262.5 410.5,-292.5 555.5,-292.5 555.5,-262.5 410.5,-262.5"/>
<text text-anchor="start" x="418.5" y="-280.5" font-family="Helvetica,sans-Serif" font-size="10.00" fill="#000000">ene.models.PlaylistModel.set</text>
<text text-anchor="middle" x="483" y="-269.5" font-family="Helvetica,sans-Serif" font-size="10.00" fill="#000000">CurrentTrack</text>
</a>
</g>
</g>
<!-- Node99&#45;&gt;Node100 -->
<g id="edge17" class="edge">
<title>Node99&#45;&gt;Node100</title>
<path fill="none" stroke="#191970" d="M368.1055,-277.5C378.7165,-277.5 389.567,-277.5 400.1582,-277.5"/>
<polygon fill="#191970" stroke="#191970" points="400.217,-281.0001 410.217,-277.5 400.217,-274.0001 400.217,-281.0001"/>
</g>
<!-- Node101 -->
<g id="node16" class="node">
<title>Node101</title>
<g id="a_node16"><a xlink:href="classene_1_1models_1_1AbstractModel.html#a970306ac2228cbcb599f65476d8c80dd" target="_top" xlink:title="ene.models.AbstractModel.changed">
<polygon fill="none" stroke="#000000" points="598,-268 598,-287 771,-287 771,-268 598,-268"/>
<text text-anchor="middle" x="684.5" y="-275" font-family="Helvetica,sans-Serif" font-size="10.00" fill="#000000">ene.models.AbstractModel.changed</text>
</a>
</g>
</g>
<!-- Node100&#45;&gt;Node101 -->
<g id="edge18" class="edge">
<title>Node100&#45;&gt;Node101</title>
<path fill="none" stroke="#191970" d="M555.7461,-277.5C566.0828,-277.5 576.8468,-277.5 587.5534,-277.5"/>
<polygon fill="#191970" stroke="#191970" points="587.7851,-281.0001 597.785,-277.5 587.785,-274.0001 587.7851,-281.0001"/>
</g>
<!-- Node102 -->
<g id="node17" class="node">
<title>Node102</title>
<g id="a_node17"><a xlink:href="interfaceene_1_1interfaces_1_1PartialView.html#aae781d286eda4cbf8c57fdb877dde265" target="_top" xlink:title="ene.interfaces.PartialView.update">
<polygon fill="none" stroke="#000000" points="807,-268 807,-287 970,-287 970,-268 807,-268"/>
<text text-anchor="middle" x="888.5" y="-275" font-family="Helvetica,sans-Serif" font-size="10.00" fill="#000000">ene.interfaces.PartialView.update</text>
</a>
</g>
</g>
<!-- Node101&#45;&gt;Node102 -->
<g id="edge19" class="edge">
<title>Node101&#45;&gt;Node102</title>
<path fill="none" stroke="#191970" d="M771.0144,-277.5C779.4296,-277.5 787.9887,-277.5 796.4555,-277.5"/>
<polygon fill="#191970" stroke="#191970" points="796.7215,-281.0001 806.7215,-277.5 796.7214,-274.0001 796.7215,-281.0001"/>
</g>
</g>
</svg>
