<?xml version="1.0" encoding="UTF-8" standalone="no"?>
<!DOCTYPE svg PUBLIC "-//W3C//DTD SVG 1.1//EN"
 "http://www.w3.org/Graphics/SVG/1.1/DTD/svg11.dtd">
<!-- Generated by graphviz version 2.40.1 (20161225.0304)
 -->
<!-- Title: ene.views.gui.partial.AbstractTrackListView Pages: 1 -->
<svg width="1120pt" height="921pt"
 viewBox="0.00 0.00 1120.00 921.00" xmlns="http://www.w3.org/2000/svg" xmlns:xlink="http://www.w3.org/1999/xlink">
<g id="graph0" class="graph" transform="scale(1 1) rotate(0) translate(4 917)">
<title>ene.views.gui.partial.AbstractTrackListView</title>
<!-- Node9 -->
<g id="node1" class="node">
<title>Node9</title>
<polygon fill="#bfbfbf" stroke="#000000" points="679,-.5 679,-178.5 825,-178.5 825,-.5 679,-.5"/>
<text text-anchor="start" x="687" y="-166.5" font-family="Helvetica,sans-Serif" font-size="10.00" fill="#000000">ene.views.gui.partial.Abstract</text>
<text text-anchor="middle" x="752" y="-155.5" font-family="Helvetica,sans-Serif" font-size="10.00" fill="#000000">TrackListView</text>
<polyline fill="none" stroke="#000000" points="679,-148.5 825,-148.5 "/>
<text text-anchor="middle" x="752" y="-136.5" font-family="Helvetica,sans-Serif" font-size="10.00" fill="#000000"> </text>
<polyline fill="none" stroke="#000000" points="679,-129.5 825,-129.5 "/>
<text text-anchor="start" x="687" y="-117.5" font-family="Helvetica,sans-Serif" font-size="10.00" fill="#000000">+ valueChanged()</text>
<text text-anchor="start" x="687" y="-106.5" font-family="Helvetica,sans-Serif" font-size="10.00" fill="#000000"># setTable()</text>
<text text-anchor="start" x="687" y="-95.5" font-family="Helvetica,sans-Serif" font-size="10.00" fill="#000000"># getTable()</text>
<text text-anchor="start" x="687" y="-84.5" font-family="Helvetica,sans-Serif" font-size="10.00" fill="#000000"># setTableContent()</text>
<text text-anchor="start" x="687" y="-73.5" font-family="Helvetica,sans-Serif" font-size="10.00" fill="#000000"># getTableContent()</text>
<text text-anchor="start" x="687" y="-62.5" font-family="Helvetica,sans-Serif" font-size="10.00" fill="#000000"># setTableRowSorter()</text>
<text text-anchor="start" x="687" y="-51.5" font-family="Helvetica,sans-Serif" font-size="10.00" fill="#000000"># getTableRowSorter()</text>
<text text-anchor="start" x="687" y="-40.5" font-family="Helvetica,sans-Serif" font-size="10.00" fill="#000000"># setPlayerController()</text>
<text text-anchor="start" x="687" y="-29.5" font-family="Helvetica,sans-Serif" font-size="10.00" fill="#000000"># getPlayerController()</text>
<text text-anchor="start" x="687" y="-18.5" font-family="Helvetica,sans-Serif" font-size="10.00" fill="#000000"># hideColumn()</text>
<text text-anchor="start" x="687" y="-7.5" font-family="Helvetica,sans-Serif" font-size="10.00" fill="#000000"># getSelectedFilename()</text>
</g>
<!-- Node10 -->
<g id="node2" class="node">
<title>Node10</title>
<g id="a_node2"><a xlink:href="classene_1_1views_1_1AbstractPartialView.html" target="_top" xlink:title="{ene::views::AbstractPartial\lView\&lt; JPanel, TrackListModel \&gt;\n||+ setModel()\l+ getModel()\l}">
<polygon fill="none" stroke="#000000" points="244.5,-364.5 244.5,-443.5 403.5,-443.5 403.5,-364.5 244.5,-364.5"/>
<text text-anchor="start" x="252.5" y="-431.5" font-family="Helvetica,sans-Serif" font-size="10.00" fill="#000000">ene::views::AbstractPartial</text>
<text text-anchor="middle" x="324" y="-420.5" font-family="Helvetica,sans-Serif" font-size="10.00" fill="#000000">View&lt; JPanel, TrackListModel &gt;</text>
<polyline fill="none" stroke="#000000" points="244.5,-413.5 403.5,-413.5 "/>
<text text-anchor="middle" x="324" y="-401.5" font-family="Helvetica,sans-Serif" font-size="10.00" fill="#000000"> </text>
<polyline fill="none" stroke="#000000" points="244.5,-394.5 403.5,-394.5 "/>
<text text-anchor="start" x="252.5" y="-382.5" font-family="Helvetica,sans-Serif" font-size="10.00" fill="#000000">+ setModel()</text>
<text text-anchor="start" x="252.5" y="-371.5" font-family="Helvetica,sans-Serif" font-size="10.00" fill="#000000">+ getModel()</text>
</a>
</g>
</g>
<!-- Node10&#45;&gt;Node9 -->
<g id="edge1" class="edge">
<title>Node10&#45;&gt;Node9</title>
<path fill="none" stroke="#191970" d="M348.1209,-355.1297C369.5435,-315.9047 404.077,-261.6768 447,-226 515.9279,-168.7083 612.7482,-130.8519 678.6881,-109.8393"/>
<polygon fill="none" stroke="#191970" points="344.8676,-353.7904 343.2239,-364.257 351.0359,-357.0999 344.8676,-353.7904"/>
</g>
<!-- Node11 -->
<g id="node3" class="node">
<title>Node11</title>
<g id="a_node3"><a xlink:href="classene_1_1views_1_1AbstractView.html" target="_top" xlink:title="{ene::views::AbstractView\l\&lt; CoreComponentType \&gt;\n||+ setTitle()\l+ getTitle()\l+ setCoreComponent()\l+ getCoreComponent()\l+ setLayoutPosition()\l+ getLayoutPosition()\l}">
<polygon fill="none" stroke="#000000" points="208,-491.5 208,-614.5 336,-614.5 336,-491.5 208,-491.5"/>
<text text-anchor="start" x="216" y="-602.5" font-family="Helvetica,sans-Serif" font-size="10.00" fill="#000000">ene::views::AbstractView</text>
<text text-anchor="middle" x="272" y="-591.5" font-family="Helvetica,sans-Serif" font-size="10.00" fill="#000000">&lt; CoreComponentType &gt;</text>
<polyline fill="none" stroke="#000000" points="208,-584.5 336,-584.5 "/>
<text text-anchor="middle" x="272" y="-572.5" font-family="Helvetica,sans-Serif" font-size="10.00" fill="#000000"> </text>
<polyline fill="none" stroke="#000000" points="208,-565.5 336,-565.5 "/>
<text text-anchor="start" x="216" y="-553.5" font-family="Helvetica,sans-Serif" font-size="10.00" fill="#000000">+ setTitle()</text>
<text text-anchor="start" x="216" y="-542.5" font-family="Helvetica,sans-Serif" font-size="10.00" fill="#000000">+ getTitle()</text>
<text text-anchor="start" x="216" y="-531.5" font-family="Helvetica,sans-Serif" font-size="10.00" fill="#000000">+ setCoreComponent()</text>
<text text-anchor="start" x="216" y="-520.5" font-family="Helvetica,sans-Serif" font-size="10.00" fill="#000000">+ getCoreComponent()</text>
<text text-anchor="start" x="216" y="-509.5" font-family="Helvetica,sans-Serif" font-size="10.00" fill="#000000">+ setLayoutPosition()</text>
<text text-anchor="start" x="216" y="-498.5" font-family="Helvetica,sans-Serif" font-size="10.00" fill="#000000">+ getLayoutPosition()</text>
</a>
</g>
</g>
<!-- Node11&#45;&gt;Node10 -->
<g id="edge2" class="edge">
<title>Node11&#45;&gt;Node10</title>
<path fill="none" stroke="#191970" d="M297.0273,-481.2873C301.5295,-468.3866 306.0707,-455.3744 310.1098,-443.8008"/>
<polygon fill="none" stroke="#191970" points="293.5915,-480.5102 293.6009,-491.105 300.2006,-482.8168 293.5915,-480.5102"/>
</g>
<!-- Node12 -->
<g id="node4" class="node">
<title>Node12</title>
<g id="a_node4"><a xlink:href="classene_1_1AbstractObject.html" target="_top" xlink:title="{ene.AbstractObject\n||+ enableDebugMode()\l+ disableDebugMode()\l+ isDebugModeEnabled()\l+ debugInfoAbout()\l+ consoleOutput()\l# delay()\l}">
<polygon fill="none" stroke="#000000" points="485.5,-684.5 485.5,-796.5 612.5,-796.5 612.5,-684.5 485.5,-684.5"/>
<text text-anchor="middle" x="549" y="-784.5" font-family="Helvetica,sans-Serif" font-size="10.00" fill="#000000">ene.AbstractObject</text>
<polyline fill="none" stroke="#000000" points="485.5,-777.5 612.5,-777.5 "/>
<text text-anchor="middle" x="549" y="-765.5" font-family="Helvetica,sans-Serif" font-size="10.00" fill="#000000"> </text>
<polyline fill="none" stroke="#000000" points="485.5,-758.5 612.5,-758.5 "/>
<text text-anchor="start" x="493.5" y="-746.5" font-family="Helvetica,sans-Serif" font-size="10.00" fill="#000000">+ enableDebugMode()</text>
<text text-anchor="start" x="493.5" y="-735.5" font-family="Helvetica,sans-Serif" font-size="10.00" fill="#000000">+ disableDebugMode()</text>
<text text-anchor="start" x="493.5" y="-724.5" font-family="Helvetica,sans-Serif" font-size="10.00" fill="#000000">+ isDebugModeEnabled()</text>
<text text-anchor="start" x="493.5" y="-713.5" font-family="Helvetica,sans-Serif" font-size="10.00" fill="#000000">+ debugInfoAbout()</text>
<text text-anchor="start" x="493.5" y="-702.5" font-family="Helvetica,sans-Serif" font-size="10.00" fill="#000000">+ consoleOutput()</text>
<text text-anchor="start" x="493.5" y="-691.5" font-family="Helvetica,sans-Serif" font-size="10.00" fill="#000000"># delay()</text>
</a>
</g>
</g>
<!-- Node12&#45;&gt;Node11 -->
<g id="edge3" class="edge">
<title>Node12&#45;&gt;Node11</title>
<path fill="none" stroke="#191970" d="M482.3785,-677.8758C480.2506,-676.2056 478.1216,-674.5763 476,-673 431.6386,-640.04 377.5801,-608.5895 336.2594,-586.1605"/>
<polygon fill="none" stroke="#191970" points="480.5865,-680.928 490.5626,-684.4957 484.9888,-675.4855 480.5865,-680.928"/>
</g>
<!-- Node24 -->
<g id="node16" class="node">
<title>Node24</title>
<g id="a_node16"><a xlink:href="classene_1_1controllers_1_1AbstractController.html" target="_top" xlink:title="{ene.controllers.Abstract\lController\&lt; ModelType \&gt;\n||+ setModel()\l+ getModel()\l}">
<polygon fill="none" stroke="#000000" points="626.5,-513.5 626.5,-592.5 751.5,-592.5 751.5,-513.5 626.5,-513.5"/>
<text text-anchor="start" x="634.5" y="-580.5" font-family="Helvetica,sans-Serif" font-size="10.00" fill="#000000">ene.controllers.Abstract</text>
<text text-anchor="middle" x="689" y="-569.5" font-family="Helvetica,sans-Serif" font-size="10.00" fill="#000000">Controller&lt; ModelType &gt;</text>
<polyline fill="none" stroke="#000000" points="626.5,-562.5 751.5,-562.5 "/>
<text text-anchor="middle" x="689" y="-550.5" font-family="Helvetica,sans-Serif" font-size="10.00" fill="#000000"> </text>
<polyline fill="none" stroke="#000000" points="626.5,-543.5 751.5,-543.5 "/>
<text text-anchor="start" x="634.5" y="-531.5" font-family="Helvetica,sans-Serif" font-size="10.00" fill="#000000">+ setModel()</text>
<text text-anchor="start" x="634.5" y="-520.5" font-family="Helvetica,sans-Serif" font-size="10.00" fill="#000000">+ getModel()</text>
</a>
</g>
</g>
<!-- Node12&#45;&gt;Node24 -->
<g id="edge17" class="edge">
<title>Node12&#45;&gt;Node24</title>
<path fill="none" stroke="#191970" d="M596.8661,-676.3937C617.6121,-648.6088 641.2495,-616.9515 659.3878,-592.6592"/>
<polygon fill="none" stroke="#191970" points="593.9934,-674.3909 590.815,-684.4978 599.6024,-678.579 593.9934,-674.3909"/>
</g>
<!-- Node13 -->
<g id="node5" class="node">
<title>Node13</title>
<polygon fill="none" stroke="#bfbfbf" points="510.5,-855.5 510.5,-912.5 587.5,-912.5 587.5,-855.5 510.5,-855.5"/>
<text text-anchor="middle" x="549" y="-900.5" font-family="Helvetica,sans-Serif" font-size="10.00" fill="#000000">static boolean</text>
<polyline fill="none" stroke="#bfbfbf" points="510.5,-893.5 587.5,-893.5 "/>
<text text-anchor="middle" x="549" y="-881.5" font-family="Helvetica,sans-Serif" font-size="10.00" fill="#000000"> </text>
<polyline fill="none" stroke="#bfbfbf" points="510.5,-874.5 587.5,-874.5 "/>
<text text-anchor="middle" x="549" y="-862.5" font-family="Helvetica,sans-Serif" font-size="10.00" fill="#000000"> </text>
</g>
<!-- Node13&#45;&gt;Node12 -->
<g id="edge4" class="edge">
<title>Node13&#45;&gt;Node12</title>
<path fill="none" stroke="#404040" d="M549,-855.3055C549,-841.9442 549,-825.4218 549,-809.1157"/>
<polygon fill="none" stroke="#404040" points="549.0001,-808.7445 545,-802.7445 549,-796.7445 553,-802.7444 549.0001,-808.7445"/>
<text text-anchor="middle" x="596" y="-829" font-family="Helvetica,sans-Serif" font-size="10.00" fill="#000000"> #debugModeEnabled</text>
</g>
<!-- Node14 -->
<g id="node6" class="node">
<title>Node14</title>
<g id="a_node6"><a xlink:href="interfaceene_1_1interfaces_1_1View.html" target="_top" xlink:title="{ene::interfaces::View\l\&lt; CoreComponentType \&gt;\n||+ setTitle()\l+ getTitle()\l+ setCoreComponent()\l+ getCoreComponent()\l+ setLayoutPosition()\l+ getLayoutPosition()\l+ render()\l}">
<polygon fill="none" stroke="#000000" points="0,-673.5 0,-807.5 128,-807.5 128,-673.5 0,-673.5"/>
<text text-anchor="start" x="8" y="-795.5" font-family="Helvetica,sans-Serif" font-size="10.00" fill="#000000">ene::interfaces::View</text>
<text text-anchor="middle" x="64" y="-784.5" font-family="Helvetica,sans-Serif" font-size="10.00" fill="#000000">&lt; CoreComponentType &gt;</text>
<polyline fill="none" stroke="#000000" points="0,-777.5 128,-777.5 "/>
<text text-anchor="middle" x="64" y="-765.5" font-family="Helvetica,sans-Serif" font-size="10.00" fill="#000000"> </text>
<polyline fill="none" stroke="#000000" points="0,-758.5 128,-758.5 "/>
<text text-anchor="start" x="8" y="-746.5" font-family="Helvetica,sans-Serif" font-size="10.00" fill="#000000">+ setTitle()</text>
<text text-anchor="start" x="8" y="-735.5" font-family="Helvetica,sans-Serif" font-size="10.00" fill="#000000">+ getTitle()</text>
<text text-anchor="start" x="8" y="-724.5" font-family="Helvetica,sans-Serif" font-size="10.00" fill="#000000">+ setCoreComponent()</text>
<text text-anchor="start" x="8" y="-713.5" font-family="Helvetica,sans-Serif" font-size="10.00" fill="#000000">+ getCoreComponent()</text>
<text text-anchor="start" x="8" y="-702.5" font-family="Helvetica,sans-Serif" font-size="10.00" fill="#000000">+ setLayoutPosition()</text>
<text text-anchor="start" x="8" y="-691.5" font-family="Helvetica,sans-Serif" font-size="10.00" fill="#000000">+ getLayoutPosition()</text>
<text text-anchor="start" x="8" y="-680.5" font-family="Helvetica,sans-Serif" font-size="10.00" fill="#000000">+ render()</text>
</a>
</g>
</g>
<!-- Node14&#45;&gt;Node11 -->
<g id="edge5" class="edge">
<title>Node14&#45;&gt;Node11</title>
<path fill="none" stroke="#191970" d="M135.6525,-673.4398C150.2498,-659.9642 165.559,-645.9643 180,-633 188.9778,-624.9403 198.5186,-616.5036 207.9267,-608.2574"/>
<polygon fill="none" stroke="#191970" points="133.0583,-671.0717 128.0923,-680.4306 137.8107,-676.2112 133.0583,-671.0717"/>
</g>
<!-- Node19 -->
<g id="node11" class="node">
<title>Node19</title>
<g id="a_node11"><a xlink:href="interfaceene_1_1interfaces_1_1PartialView.html" target="_top" xlink:title="{ene::interfaces::Partial\lView\&lt; CoreComponentType,\l ModelType \&gt;\n||+ setModel()\l+ getModel()\l+ update()\l}">
<polygon fill="none" stroke="#000000" points="30.5,-502.5 30.5,-603.5 173.5,-603.5 173.5,-502.5 30.5,-502.5"/>
<text text-anchor="start" x="38.5" y="-591.5" font-family="Helvetica,sans-Serif" font-size="10.00" fill="#000000">ene::interfaces::Partial</text>
<text text-anchor="start" x="38.5" y="-580.5" font-family="Helvetica,sans-Serif" font-size="10.00" fill="#000000">View&lt; CoreComponentType,</text>
<text text-anchor="middle" x="102" y="-569.5" font-family="Helvetica,sans-Serif" font-size="10.00" fill="#000000"> ModelType &gt;</text>
<polyline fill="none" stroke="#000000" points="30.5,-562.5 173.5,-562.5 "/>
<text text-anchor="middle" x="102" y="-550.5" font-family="Helvetica,sans-Serif" font-size="10.00" fill="#000000"> </text>
<polyline fill="none" stroke="#000000" points="30.5,-543.5 173.5,-543.5 "/>
<text text-anchor="start" x="38.5" y="-531.5" font-family="Helvetica,sans-Serif" font-size="10.00" fill="#000000">+ setModel()</text>
<text text-anchor="start" x="38.5" y="-520.5" font-family="Helvetica,sans-Serif" font-size="10.00" fill="#000000">+ getModel()</text>
<text text-anchor="start" x="38.5" y="-509.5" font-family="Helvetica,sans-Serif" font-size="10.00" fill="#000000">+ update()</text>
</a>
</g>
</g>
<!-- Node14&#45;&gt;Node19 -->
<g id="edge11" class="edge">
<title>Node14&#45;&gt;Node19</title>
<path fill="none" stroke="#191970" d="M79.6036,-663.5084C83.7044,-643.2742 88.0234,-621.9635 91.7626,-603.5135"/>
<polygon fill="none" stroke="#191970" points="76.1676,-662.8418 77.6115,-673.3378 83.0282,-664.2323 76.1676,-662.8418"/>
</g>
<!-- Node15 -->
<g id="node7" class="node">
<title>Node15</title>
<g id="a_node7"><a xlink:href="interfaceene_1_1interfaces_1_1Localization.html" target="_top" xlink:title="{ene.interfaces.Localization\n||+ getString()\l}">
<polygon fill="none" stroke="#000000" points="334.5,-712 334.5,-769 467.5,-769 467.5,-712 334.5,-712"/>
<text text-anchor="middle" x="401" y="-757" font-family="Helvetica,sans-Serif" font-size="10.00" fill="#000000">ene.interfaces.Localization</text>
<polyline fill="none" stroke="#000000" points="334.5,-750 467.5,-750 "/>
<text text-anchor="middle" x="401" y="-738" font-family="Helvetica,sans-Serif" font-size="10.00" fill="#000000"> </text>
<polyline fill="none" stroke="#000000" points="334.5,-731 467.5,-731 "/>
<text text-anchor="start" x="342.5" y="-719" font-family="Helvetica,sans-Serif" font-size="10.00" fill="#000000">+ getString()</text>
</a>
</g>
</g>
<!-- Node15&#45;&gt;Node11 -->
<g id="edge6" class="edge">
<title>Node15&#45;&gt;Node11</title>
<path fill="none" stroke="#191970" d="M386.5317,-702.3275C377.5734,-680.9963 364.9366,-654.4689 350,-633 345.6795,-626.7899 340.8651,-620.6153 335.8075,-614.6095"/>
<polygon fill="none" stroke="#191970" points="383.3527,-703.8004 390.3838,-711.7258 389.8297,-701.1455 383.3527,-703.8004"/>
</g>
<!-- Node16 -->
<g id="node8" class="node">
<title>Node16</title>
<polygon fill="none" stroke="#bfbfbf" points="356,-855.5 356,-912.5 446,-912.5 446,-855.5 356,-855.5"/>
<text text-anchor="middle" x="401" y="-900.5" font-family="Helvetica,sans-Serif" font-size="10.00" fill="#000000">static final String</text>
<polyline fill="none" stroke="#bfbfbf" points="356,-893.5 446,-893.5 "/>
<text text-anchor="middle" x="401" y="-881.5" font-family="Helvetica,sans-Serif" font-size="10.00" fill="#000000"> </text>
<polyline fill="none" stroke="#bfbfbf" points="356,-874.5 446,-874.5 "/>
<text text-anchor="middle" x="401" y="-862.5" font-family="Helvetica,sans-Serif" font-size="10.00" fill="#000000"> </text>
</g>
<!-- Node16&#45;&gt;Node15 -->
<g id="edge7" class="edge">
<title>Node16&#45;&gt;Node15</title>
<path fill="none" stroke="#404040" d="M401,-855.3055C401,-834.0904 401,-804.9058 401,-781.2714"/>
<polygon fill="none" stroke="#404040" points="401.0001,-781.1447 397,-775.1448 401,-769.1447 405,-775.1447 401.0001,-781.1447"/>
<text text-anchor="middle" x="451" y="-829" font-family="Helvetica,sans-Serif" font-size="10.00" fill="#000000"> +DEFAULT_LOCALE</text>
</g>
<!-- Node17 -->
<g id="node9" class="node">
<title>Node17</title>
<polygon fill="none" stroke="#bfbfbf" points="146,-712 146,-769 188,-769 188,-712 146,-712"/>
<text text-anchor="middle" x="167" y="-757" font-family="Helvetica,sans-Serif" font-size="10.00" fill="#000000">String</text>
<polyline fill="none" stroke="#bfbfbf" points="146,-750 188,-750 "/>
<text text-anchor="middle" x="167" y="-738" font-family="Helvetica,sans-Serif" font-size="10.00" fill="#000000"> </text>
<polyline fill="none" stroke="#bfbfbf" points="146,-731 188,-731 "/>
<text text-anchor="middle" x="167" y="-719" font-family="Helvetica,sans-Serif" font-size="10.00" fill="#000000"> </text>
</g>
<!-- Node17&#45;&gt;Node11 -->
<g id="edge8" class="edge">
<title>Node17&#45;&gt;Node11</title>
<path fill="none" stroke="#404040" d="M169.7199,-711.5785C172.8201,-689.012 179.3584,-657.4909 193,-633 195.2856,-628.8967 197.8394,-624.858 200.5909,-620.908"/>
<polygon fill="none" stroke="#404040" points="200.6039,-620.8907 200.999,-613.6904 207.7974,-611.2858 207.4022,-618.4861 200.6039,-620.8907"/>
<text text-anchor="middle" x="228" y="-647" font-family="Helvetica,sans-Serif" font-size="10.00" fill="#000000"> #layoutPosition</text>
<text text-anchor="middle" x="228" y="-636" font-family="Helvetica,sans-Serif" font-size="10.00" fill="#000000">#title</text>
</g>
<!-- Node18 -->
<g id="node10" class="node">
<title>Node18</title>
<polygon fill="none" stroke="#bfbfbf" points="206,-712 206,-769 316,-769 316,-712 206,-712"/>
<text text-anchor="middle" x="261" y="-757" font-family="Helvetica,sans-Serif" font-size="10.00" fill="#000000">CoreComponentType</text>
<polyline fill="none" stroke="#bfbfbf" points="206,-750 316,-750 "/>
<text text-anchor="middle" x="261" y="-738" font-family="Helvetica,sans-Serif" font-size="10.00" fill="#000000"> </text>
<polyline fill="none" stroke="#bfbfbf" points="206,-731 316,-731 "/>
<text text-anchor="middle" x="261" y="-719" font-family="Helvetica,sans-Serif" font-size="10.00" fill="#000000"> </text>
</g>
<!-- Node18&#45;&gt;Node11 -->
<g id="edge9" class="edge">
<title>Node18&#45;&gt;Node11</title>
<path fill="none" stroke="#404040" d="M262.6946,-711.614C264.0241,-688.9523 265.9355,-656.3726 267.6805,-626.6287"/>
<polygon fill="none" stroke="#404040" points="267.6874,-626.5088 264.0457,-620.2848 268.3903,-614.5294 272.032,-620.7534 267.6874,-626.5088"/>
<text text-anchor="middle" x="307" y="-641.5" font-family="Helvetica,sans-Serif" font-size="10.00" fill="#000000"> #coreComponent</text>
</g>
<!-- Node19&#45;&gt;Node10 -->
<g id="edge10" class="edge">
<title>Node19&#45;&gt;Node10</title>
<path fill="none" stroke="#191970" d="M182.1758,-499.1883C209.5674,-480.8039 239.6789,-460.5939 265.0835,-443.543"/>
<polygon fill="none" stroke="#191970" points="180.1232,-496.3507 173.7705,-504.8297 184.0242,-502.163 180.1232,-496.3507"/>
</g>
<!-- Node20 -->
<g id="node12" class="node">
<title>Node20</title>
<polygon fill="none" stroke="#bfbfbf" points="630.5,-712 630.5,-769 695.5,-769 695.5,-712 630.5,-712"/>
<text text-anchor="middle" x="663" y="-757" font-family="Helvetica,sans-Serif" font-size="10.00" fill="#000000">ModelType</text>
<polyline fill="none" stroke="#bfbfbf" points="630.5,-750 695.5,-750 "/>
<text text-anchor="middle" x="663" y="-738" font-family="Helvetica,sans-Serif" font-size="10.00" fill="#000000"> </text>
<polyline fill="none" stroke="#bfbfbf" points="630.5,-731 695.5,-731 "/>
<text text-anchor="middle" x="663" y="-719" font-family="Helvetica,sans-Serif" font-size="10.00" fill="#000000"> </text>
</g>
<!-- Node20&#45;&gt;Node10 -->
<g id="edge12" class="edge">
<title>Node20&#45;&gt;Node10</title>
<path fill="none" stroke="#404040" d="M647.4876,-711.718C640.1853,-699.2689 630.9078,-684.8658 621,-673 548.6887,-586.3984 448.8042,-501.5661 385.3012,-451.0161"/>
<polygon fill="none" stroke="#404040" points="385.2255,-450.9561 378.0384,-450.3673 375.8177,-443.5066 383.0048,-444.0955 385.2255,-450.9561"/>
<text text-anchor="middle" x="585.5" y="-550.5" font-family="Helvetica,sans-Serif" font-size="10.00" fill="#000000"> #model</text>
</g>
<!-- Node20&#45;&gt;Node24 -->
<g id="edge19" class="edge">
<title>Node20&#45;&gt;Node24</title>
<path fill="none" stroke="#404040" d="M667.0055,-711.614C670.9384,-683.2523 677.0253,-639.3557 681.7996,-604.9257"/>
<polygon fill="none" stroke="#404040" points="681.8445,-604.6018 678.7065,-598.1093 683.4928,-592.7156 686.6307,-599.2081 681.8445,-604.6018"/>
<text text-anchor="middle" x="695.5" y="-641.5" font-family="Helvetica,sans-Serif" font-size="10.00" fill="#000000"> #model</text>
</g>
<!-- Node21 -->
<g id="node13" class="node">
<title>Node21</title>
<polygon fill="none" stroke="#bfbfbf" points="456.5,-243 456.5,-300 563.5,-300 563.5,-243 456.5,-243"/>
<text text-anchor="middle" x="510" y="-288" font-family="Helvetica,sans-Serif" font-size="10.00" fill="#000000">ListSelectionListener</text>
<polyline fill="none" stroke="#bfbfbf" points="456.5,-281 563.5,-281 "/>
<text text-anchor="middle" x="510" y="-269" font-family="Helvetica,sans-Serif" font-size="10.00" fill="#000000"> </text>
<polyline fill="none" stroke="#bfbfbf" points="456.5,-262 563.5,-262 "/>
<text text-anchor="middle" x="510" y="-250" font-family="Helvetica,sans-Serif" font-size="10.00" fill="#000000"> </text>
</g>
<!-- Node21&#45;&gt;Node9 -->
<g id="edge13" class="edge">
<title>Node21&#45;&gt;Node9</title>
<path fill="none" stroke="#191970" d="M556.1251,-236.8109C590.705,-210.8045 638.7272,-174.6886 678.567,-144.7265"/>
<polygon fill="none" stroke="#191970" points="553.9671,-234.0545 548.0787,-242.8623 558.1745,-239.6489 553.9671,-234.0545"/>
</g>
<!-- Node22 -->
<g id="node14" class="node">
<title>Node22</title>
<g id="a_node14"><a xlink:href="classene_1_1controllers_1_1PlayerController.html" target="_top" xlink:title="{ene.controllers.PlayerController\n||+ PlayerController()\l+ changeTrackPosition()\l+ load()\l+ togglePlayback()\l}">
<polygon fill="none" stroke="#000000" points="581.5,-226.5 581.5,-316.5 734.5,-316.5 734.5,-226.5 581.5,-226.5"/>
<text text-anchor="middle" x="658" y="-304.5" font-family="Helvetica,sans-Serif" font-size="10.00" fill="#000000">ene.controllers.PlayerController</text>
<polyline fill="none" stroke="#000000" points="581.5,-297.5 734.5,-297.5 "/>
<text text-anchor="middle" x="658" y="-285.5" font-family="Helvetica,sans-Serif" font-size="10.00" fill="#000000"> </text>
<polyline fill="none" stroke="#000000" points="581.5,-278.5 734.5,-278.5 "/>
<text text-anchor="start" x="589.5" y="-266.5" font-family="Helvetica,sans-Serif" font-size="10.00" fill="#000000">+ PlayerController()</text>
<text text-anchor="start" x="589.5" y="-255.5" font-family="Helvetica,sans-Serif" font-size="10.00" fill="#000000">+ changeTrackPosition()</text>
<text text-anchor="start" x="589.5" y="-244.5" font-family="Helvetica,sans-Serif" font-size="10.00" fill="#000000">+ load()</text>
<text text-anchor="start" x="589.5" y="-233.5" font-family="Helvetica,sans-Serif" font-size="10.00" fill="#000000">+ togglePlayback()</text>
</a>
</g>
</g>
<!-- Node22&#45;&gt;Node9 -->
<g id="edge14" class="edge">
<title>Node22&#45;&gt;Node9</title>
<path fill="none" stroke="#404040" d="M681.4777,-226.0432C687.298,-214.7742 693.7667,-202.2497 700.3583,-189.4871"/>
<polygon fill="none" stroke="#404040" points="700.406,-189.3947 699.6054,-182.2282 705.9127,-178.7328 706.7133,-185.8994 700.406,-189.3947"/>
<text text-anchor="middle" x="732.5" y="-200" font-family="Helvetica,sans-Serif" font-size="10.00" fill="#000000"> #playerController</text>
</g>
<!-- Node23 -->
<g id="node15" class="node">
<title>Node23</title>
<g id="a_node15"><a xlink:href="classene_1_1controllers_1_1AbstractController.html" target="_top" xlink:title="{ene.controllers.Abstract\lController\&lt; PlayerModel \&gt;\n|# model\l|+ setModel()\l+ getModel()\l}">
<polygon fill="none" stroke="#000000" points="603.5,-364.5 603.5,-443.5 734.5,-443.5 734.5,-364.5 603.5,-364.5"/>
<text text-anchor="start" x="611.5" y="-431.5" font-family="Helvetica,sans-Serif" font-size="10.00" fill="#000000">ene.controllers.Abstract</text>
<text text-anchor="middle" x="669" y="-420.5" font-family="Helvetica,sans-Serif" font-size="10.00" fill="#000000">Controller&lt; PlayerModel &gt;</text>
<polyline fill="none" stroke="#000000" points="603.5,-413.5 734.5,-413.5 "/>
<text text-anchor="start" x="611.5" y="-401.5" font-family="Helvetica,sans-Serif" font-size="10.00" fill="#000000"># model</text>
<polyline fill="none" stroke="#000000" points="603.5,-394.5 734.5,-394.5 "/>
<text text-anchor="start" x="611.5" y="-382.5" font-family="Helvetica,sans-Serif" font-size="10.00" fill="#000000">+ setModel()</text>
<text text-anchor="start" x="611.5" y="-371.5" font-family="Helvetica,sans-Serif" font-size="10.00" fill="#000000">+ getModel()</text>
</a>
</g>
</g>
<!-- Node23&#45;&gt;Node22 -->
<g id="edge15" class="edge">
<title>Node23&#45;&gt;Node22</title>
<path fill="none" stroke="#191970" d="M664.8633,-354.172C663.8451,-341.9073 662.7604,-328.8413 661.7611,-316.8036"/>
<polygon fill="none" stroke="#191970" points="661.3842,-354.5695 665.6996,-364.2456 668.3602,-353.9903 661.3842,-354.5695"/>
</g>
<!-- Node24&#45;&gt;Node23 -->
<g id="edge16" class="edge">
<title>Node24&#45;&gt;Node23</title>
<path fill="none" stroke="#ffa500" d="M682.3282,-503.2953C679.7274,-483.9192 676.7876,-462.0173 674.3319,-443.7228"/>
<polygon fill="#ffa500" stroke="#ffa500" points="678.8936,-504.0165 683.6929,-513.4619 685.8313,-503.0852 678.8936,-504.0165"/>
<text text-anchor="middle" x="716" y="-465" font-family="Helvetica,sans-Serif" font-size="10.00" fill="#000000"> &lt; PlayerModel &gt;</text>
</g>
<!-- Node25 -->
<g id="node17" class="node">
<title>Node25</title>
<g id="a_node17"><a xlink:href="interfaceene_1_1interfaces_1_1Controller.html" target="_top" xlink:title="{ene::interfaces::Controller\l\&lt; ModelType \&gt;\n||+ setModel()\l+ getModel()\l}">
<polygon fill="none" stroke="#000000" points="713.5,-701 713.5,-780 842.5,-780 842.5,-701 713.5,-701"/>
<text text-anchor="start" x="721.5" y="-768" font-family="Helvetica,sans-Serif" font-size="10.00" fill="#000000">ene::interfaces::Controller</text>
<text text-anchor="middle" x="778" y="-757" font-family="Helvetica,sans-Serif" font-size="10.00" fill="#000000">&lt; ModelType &gt;</text>
<polyline fill="none" stroke="#000000" points="713.5,-750 842.5,-750 "/>
<text text-anchor="middle" x="778" y="-738" font-family="Helvetica,sans-Serif" font-size="10.00" fill="#000000"> </text>
<polyline fill="none" stroke="#000000" points="713.5,-731 842.5,-731 "/>
<text text-anchor="start" x="721.5" y="-719" font-family="Helvetica,sans-Serif" font-size="10.00" fill="#000000">+ setModel()</text>
<text text-anchor="start" x="721.5" y="-708" font-family="Helvetica,sans-Serif" font-size="10.00" fill="#000000">+ getModel()</text>
</a>
</g>
</g>
<!-- Node25&#45;&gt;Node24 -->
<g id="edge18" class="edge">
<title>Node25&#45;&gt;Node24</title>
<path fill="none" stroke="#191970" d="M754.7298,-691.4758C740.1222,-660.7014 721.5285,-621.5292 707.8474,-592.7066"/>
<polygon fill="none" stroke="#191970" points="751.6753,-693.203 759.1254,-700.7361 757.9991,-690.2013 751.6753,-693.203"/>
</g>
<!-- Node26 -->
<g id="node18" class="node">
<title>Node26</title>
<polygon fill="none" stroke="#bfbfbf" points="753,-243 753,-300 851,-300 851,-243 753,-243"/>
<text text-anchor="middle" x="802" y="-288" font-family="Helvetica,sans-Serif" font-size="10.00" fill="#000000">DefaultTableModel</text>
<polyline fill="none" stroke="#bfbfbf" points="753,-281 851,-281 "/>
<text text-anchor="middle" x="802" y="-269" font-family="Helvetica,sans-Serif" font-size="10.00" fill="#000000"> </text>
<polyline fill="none" stroke="#bfbfbf" points="753,-262 851,-262 "/>
<text text-anchor="middle" x="802" y="-250" font-family="Helvetica,sans-Serif" font-size="10.00" fill="#000000"> </text>
</g>
<!-- Node26&#45;&gt;Node9 -->
<g id="edge20" class="edge">
<title>Node26&#45;&gt;Node9</title>
<path fill="none" stroke="#404040" d="M794.0774,-242.6616C790.0908,-228.1505 784.9945,-209.6 779.7348,-190.4546"/>
<polygon fill="none" stroke="#404040" points="779.7161,-190.3864 774.2695,-185.6604 776.5371,-178.8151 781.9837,-183.5411 779.7161,-190.3864"/>
<text text-anchor="middle" x="817" y="-200" font-family="Helvetica,sans-Serif" font-size="10.00" fill="#000000"> #tableContent</text>
</g>
<!-- Node27 -->
<g id="node19" class="node">
<title>Node27</title>
<polygon fill="none" stroke="#bfbfbf" points="869,-243 869,-300 915,-300 915,-243 869,-243"/>
<text text-anchor="middle" x="892" y="-288" font-family="Helvetica,sans-Serif" font-size="10.00" fill="#000000">JTable</text>
<polyline fill="none" stroke="#bfbfbf" points="869,-281 915,-281 "/>
<text text-anchor="middle" x="892" y="-269" font-family="Helvetica,sans-Serif" font-size="10.00" fill="#000000"> </text>
<polyline fill="none" stroke="#bfbfbf" points="869,-262 915,-262 "/>
<text text-anchor="middle" x="892" y="-250" font-family="Helvetica,sans-Serif" font-size="10.00" fill="#000000"> </text>
</g>
<!-- Node27&#45;&gt;Node9 -->
<g id="edge21" class="edge">
<title>Node27&#45;&gt;Node9</title>
<path fill="none" stroke="#404040" d="M879.2715,-242.8496C872.3581,-228.538 863.1541,-211.2761 853,-197 846.9069,-188.4335 840.1709,-179.8502 833.1548,-171.4756"/>
<polygon fill="none" stroke="#404040" points="832.9449,-171.2309 826.0028,-169.2799 825.1337,-162.1213 832.0759,-164.0723 832.9449,-171.2309"/>
<text text-anchor="middle" x="875" y="-200" font-family="Helvetica,sans-Serif" font-size="10.00" fill="#000000"> #table</text>
</g>
<!-- Node28 -->
<g id="node20" class="node">
<title>Node28</title>
<polygon fill="none" stroke="#bfbfbf" points="933,-237.5 933,-305.5 1085,-305.5 1085,-237.5 933,-237.5"/>
<text text-anchor="start" x="941" y="-293.5" font-family="Helvetica,sans-Serif" font-size="10.00" fill="#000000">TableRowSorter&lt; DefaultTable</text>
<text text-anchor="middle" x="1009" y="-282.5" font-family="Helvetica,sans-Serif" font-size="10.00" fill="#000000">Model &gt;</text>
<polyline fill="none" stroke="#bfbfbf" points="933,-275.5 1085,-275.5 "/>
<text text-anchor="middle" x="1009" y="-263.5" font-family="Helvetica,sans-Serif" font-size="10.00" fill="#000000"> </text>
<polyline fill="none" stroke="#bfbfbf" points="933,-256.5 1085,-256.5 "/>
<text text-anchor="middle" x="1009" y="-244.5" font-family="Helvetica,sans-Serif" font-size="10.00" fill="#000000"> </text>
</g>
<!-- Node28&#45;&gt;Node9 -->
<g id="edge22" class="edge">
<title>Node28&#45;&gt;Node9</title>
<path fill="none" stroke="#404040" d="M960.9617,-237.4807C925.5881,-212.4301 876.6023,-177.7398 834.9505,-148.2432"/>
<polygon fill="none" stroke="#404040" points="834.8783,-148.192 827.67,-147.9888 825.0852,-141.2568 832.2935,-141.4601 834.8783,-148.192"/>
<text text-anchor="middle" x="957" y="-200" font-family="Helvetica,sans-Serif" font-size="10.00" fill="#000000"> #tableRowSorter</text>
</g>
<!-- Node29 -->
<g id="node21" class="node">
<title>Node29</title>
<polygon fill="none" stroke="#bfbfbf" points="965.5,-375.5 965.5,-432.5 1052.5,-432.5 1052.5,-375.5 965.5,-375.5"/>
<text text-anchor="middle" x="1009" y="-420.5" font-family="Helvetica,sans-Serif" font-size="10.00" fill="#000000">TableRowSorter</text>
<polyline fill="none" stroke="#bfbfbf" points="965.5,-413.5 1052.5,-413.5 "/>
<text text-anchor="middle" x="1009" y="-401.5" font-family="Helvetica,sans-Serif" font-size="10.00" fill="#000000"> </text>
<polyline fill="none" stroke="#bfbfbf" points="965.5,-394.5 1052.5,-394.5 "/>
<text text-anchor="middle" x="1009" y="-382.5" font-family="Helvetica,sans-Serif" font-size="10.00" fill="#000000"> </text>
</g>
<!-- Node29&#45;&gt;Node28 -->
<g id="edge23" class="edge">
<title>Node29&#45;&gt;Node28</title>
<path fill="none" stroke="#ffa500" d="M1009,-365.2195C1009,-346.4117 1009,-324.0145 1009,-305.8321"/>
<polygon fill="#ffa500" stroke="#ffa500" points="1005.5001,-365.2494 1009,-375.2495 1012.5001,-365.2495 1005.5001,-365.2494"/>
<text text-anchor="middle" x="1060.5" y="-338" font-family="Helvetica,sans-Serif" font-size="10.00" fill="#000000"> &lt; DefaultTableModel &gt;</text>
</g>
</g>
</svg>
