<?xml version="1.0" encoding="UTF-8" standalone="no"?>
<!DOCTYPE svg PUBLIC "-//W3C//DTD SVG 1.1//EN"
 "http://www.w3.org/Graphics/SVG/1.1/DTD/svg11.dtd">
<!-- Generated by graphviz version 2.40.1 (20161225.0304)
 -->
<!-- Title: ene.views.AbstractView.setCoreComponent Pages: 1 -->
<svg width="537pt" height="186pt"
 viewBox="0.00 0.00 537.00 186.00" xmlns="http://www.w3.org/2000/svg" xmlns:xlink="http://www.w3.org/1999/xlink">
<g id="graph0" class="graph" transform="scale(1 1) rotate(0) translate(4 182)">
<title>ene.views.AbstractView.setCoreComponent</title>
<!-- Node15 -->
<g id="node1" class="node">
<title>Node15</title>
<polygon fill="#bfbfbf" stroke="#000000" points="0,-72.5 0,-102.5 139,-102.5 139,-72.5 0,-72.5"/>
<text text-anchor="start" x="8" y="-90.5" font-family="Helvetica,sans-Serif" font-size="10.00" fill="#000000">ene.views.AbstractView.set</text>
<text text-anchor="middle" x="69.5" y="-79.5" font-family="Helvetica,sans-Serif" font-size="10.00" fill="#000000">CoreComponent</text>
</g>
<!-- Node16 -->
<g id="node2" class="node">
<title>Node16</title>
<g id="a_node2"><a xlink:href="classene_1_1views_1_1gui_1_1partial_1_1ContentView.html#aab911c4ec74346df8f4bc8c6d5016fa4" target="_top" xlink:title="ene.views.gui.partial.Content\lView.initialize">
<polygon fill="none" stroke="#000000" points="191,-144.5 191,-174.5 334,-174.5 334,-144.5 191,-144.5"/>
<text text-anchor="start" x="199" y="-162.5" font-family="Helvetica,sans-Serif" font-size="10.00" fill="#000000">ene.views.gui.partial.Content</text>
<text text-anchor="middle" x="262.5" y="-151.5" font-family="Helvetica,sans-Serif" font-size="10.00" fill="#000000">View.initialize</text>
</a>
</g>
</g>
<!-- Node15&#45;&gt;Node16 -->
<g id="edge1" class="edge">
<title>Node15&#45;&gt;Node16</title>
<path fill="none" stroke="#191970" d="M114.3419,-106.5509C132.9916,-114.2716 154.9323,-123.0943 175,-130.5 187.9119,-135.2649 202.0233,-140.1012 215.0712,-144.4231"/>
<polygon fill="#191970" stroke="#191970" points="115.4937,-103.2393 104.9166,-102.6272 112.8035,-109.7017 115.4937,-103.2393"/>
</g>
<!-- Node18 -->
<g id="node4" class="node">
<title>Node18</title>
<g id="a_node4"><a xlink:href="classene_1_1views_1_1gui_1_1WindowView.html#ab1f007806dcd28e2e4486eb29231fa21" target="_top" xlink:title="ene.views.gui.WindowView.initialize">
<polygon fill="none" stroke="#000000" points="175,-102 175,-121 350,-121 350,-102 175,-102"/>
<text text-anchor="middle" x="262.5" y="-109" font-family="Helvetica,sans-Serif" font-size="10.00" fill="#000000">ene.views.gui.WindowView.initialize</text>
</a>
</g>
</g>
<!-- Node15&#45;&gt;Node18 -->
<g id="edge3" class="edge">
<title>Node15&#45;&gt;Node18</title>
<path fill="none" stroke="#191970" d="M149.2896,-97.422C161.4512,-98.9343 173.978,-100.4921 186.0654,-101.9952"/>
<polygon fill="#191970" stroke="#191970" points="149.5329,-93.9254 139.1774,-96.1646 148.6691,-100.8719 149.5329,-93.9254"/>
</g>
<!-- Node20 -->
<g id="node6" class="node">
<title>Node20</title>
<g id="a_node6"><a xlink:href="classene_1_1views_1_1gui_1_1partial_1_1LibraryView.html#a6e6e521f258ad6e3f2e06ed96180efb6" target="_top" xlink:title="ene.views.gui.partial.Library\lView.initialize">
<polygon fill="none" stroke="#000000" points="193.5,-50.5 193.5,-80.5 331.5,-80.5 331.5,-50.5 193.5,-50.5"/>
<text text-anchor="start" x="201.5" y="-68.5" font-family="Helvetica,sans-Serif" font-size="10.00" fill="#000000">ene.views.gui.partial.Library</text>
<text text-anchor="middle" x="262.5" y="-57.5" font-family="Helvetica,sans-Serif" font-size="10.00" fill="#000000">View.initialize</text>
</a>
</g>
</g>
<!-- Node15&#45;&gt;Node20 -->
<g id="edge5" class="edge">
<title>Node15&#45;&gt;Node20</title>
<path fill="none" stroke="#191970" d="M149.1965,-78.4154C163.8157,-76.749 178.9659,-75.022 193.2485,-73.394"/>
<polygon fill="#191970" stroke="#191970" points="148.7167,-74.9474 139.1774,-79.5575 149.5095,-81.9023 148.7167,-74.9474"/>
</g>
<!-- Node22 -->
<g id="node8" class="node">
<title>Node22</title>
<g id="a_node8"><a xlink:href="classene_1_1views_1_1gui_1_1partial_1_1PlayerView.html#a6a20ce866e62ced7476b666fe891b10a" target="_top" xlink:title="ene.views.gui.partial.Player\lView.initialize">
<polygon fill="none" stroke="#000000" points="194,-1.5 194,-31.5 331,-31.5 331,-1.5 194,-1.5"/>
<text text-anchor="start" x="202" y="-19.5" font-family="Helvetica,sans-Serif" font-size="10.00" fill="#000000">ene.views.gui.partial.Player</text>
<text text-anchor="middle" x="262.5" y="-8.5" font-family="Helvetica,sans-Serif" font-size="10.00" fill="#000000">View.initialize</text>
</a>
</g>
</g>
<!-- Node15&#45;&gt;Node22 -->
<g id="edge7" class="edge">
<title>Node15&#45;&gt;Node22</title>
<path fill="none" stroke="#191970" d="M109.1291,-68.1349C128.6742,-59.0268 152.771,-48.4484 175,-40.5 183.8994,-37.3178 193.4337,-34.309 202.8165,-31.5669"/>
<polygon fill="#191970" stroke="#191970" points="107.4825,-65.0416 99.928,-72.47 110.466,-71.3739 107.4825,-65.0416"/>
</g>
<!-- Node17 -->
<g id="node3" class="node">
<title>Node17</title>
<g id="a_node3"><a xlink:href="classene_1_1views_1_1gui_1_1partial_1_1ContentView.html#ac7df6c7ceb14384812391dbbb797e2d6" target="_top" xlink:title="ene.views.gui.partial.Content\lView.ContentView">
<polygon fill="none" stroke="#000000" points="386,-147.5 386,-177.5 529,-177.5 529,-147.5 386,-147.5"/>
<text text-anchor="start" x="394" y="-165.5" font-family="Helvetica,sans-Serif" font-size="10.00" fill="#000000">ene.views.gui.partial.Content</text>
<text text-anchor="middle" x="457.5" y="-154.5" font-family="Helvetica,sans-Serif" font-size="10.00" fill="#000000">View.ContentView</text>
</a>
</g>
</g>
<!-- Node16&#45;&gt;Node17 -->
<g id="edge2" class="edge">
<title>Node16&#45;&gt;Node17</title>
<path fill="none" stroke="#191970" d="M344.39,-160.7598C358.1045,-160.9708 372.242,-161.1883 385.6789,-161.3951"/>
<polygon fill="#191970" stroke="#191970" points="344.0562,-157.2544 334.0035,-160.6001 343.9485,-164.2536 344.0562,-157.2544"/>
</g>
<!-- Node19 -->
<g id="node5" class="node">
<title>Node19</title>
<g id="a_node5"><a xlink:href="classene_1_1views_1_1gui_1_1WindowView.html#a0d3e57ee4c8c74d85618d82de8087545" target="_top" xlink:title="ene.views.gui.WindowView.\lWindowView">
<polygon fill="none" stroke="#000000" points="387.5,-98.5 387.5,-128.5 527.5,-128.5 527.5,-98.5 387.5,-98.5"/>
<text text-anchor="start" x="395.5" y="-116.5" font-family="Helvetica,sans-Serif" font-size="10.00" fill="#000000">ene.views.gui.WindowView.</text>
<text text-anchor="middle" x="457.5" y="-105.5" font-family="Helvetica,sans-Serif" font-size="10.00" fill="#000000">WindowView</text>
</a>
</g>
</g>
<!-- Node18&#45;&gt;Node19 -->
<g id="edge4" class="edge">
<title>Node18&#45;&gt;Node19</title>
<path fill="none" stroke="#191970" d="M360.2662,-112.5027C369.3569,-112.596 378.4446,-112.6892 387.213,-112.7791"/>
<polygon fill="#191970" stroke="#191970" points="360.0534,-109.0005 350.018,-112.3976 359.9816,-116.0001 360.0534,-109.0005"/>
</g>
<!-- Node21 -->
<g id="node7" class="node">
<title>Node21</title>
<g id="a_node7"><a xlink:href="classene_1_1views_1_1gui_1_1partial_1_1LibraryView.html#a23af39410ef7be2c3253b41ca96cdc4e" target="_top" xlink:title="ene.views.gui.partial.Library\lView.LibraryView">
<polygon fill="none" stroke="#000000" points="388.5,-49.5 388.5,-79.5 526.5,-79.5 526.5,-49.5 388.5,-49.5"/>
<text text-anchor="start" x="396.5" y="-67.5" font-family="Helvetica,sans-Serif" font-size="10.00" fill="#000000">ene.views.gui.partial.Library</text>
<text text-anchor="middle" x="457.5" y="-56.5" font-family="Helvetica,sans-Serif" font-size="10.00" fill="#000000">View.LibraryView</text>
</a>
</g>
</g>
<!-- Node20&#45;&gt;Node21 -->
<g id="edge6" class="edge">
<title>Node20&#45;&gt;Node21</title>
<path fill="none" stroke="#191970" d="M341.5729,-65.0945C357.0311,-65.0152 373.1306,-64.9327 388.2399,-64.8552"/>
<polygon fill="#191970" stroke="#191970" points="341.506,-61.5947 331.5241,-65.146 341.542,-68.5946 341.506,-61.5947"/>
</g>
<!-- Node23 -->
<g id="node9" class="node">
<title>Node23</title>
<g id="a_node9"><a xlink:href="classene_1_1views_1_1gui_1_1partial_1_1PlayerView.html#a87a7a4837fc2b68df6bf06984881a7ea" target="_top" xlink:title="ene.views.gui.partial.Player\lView.PlayerView">
<polygon fill="none" stroke="#000000" points="389,-.5 389,-30.5 526,-30.5 526,-.5 389,-.5"/>
<text text-anchor="start" x="397" y="-18.5" font-family="Helvetica,sans-Serif" font-size="10.00" fill="#000000">ene.views.gui.partial.Player</text>
<text text-anchor="middle" x="457.5" y="-7.5" font-family="Helvetica,sans-Serif" font-size="10.00" fill="#000000">View.PlayerView</text>
</a>
</g>
</g>
<!-- Node22&#45;&gt;Node23 -->
<g id="edge8" class="edge">
<title>Node22&#45;&gt;Node23</title>
<path fill="none" stroke="#191970" d="M341.4295,-16.0952C357.0932,-16.0149 373.4209,-15.9312 388.7139,-15.8527"/>
<polygon fill="#191970" stroke="#191970" points="341.2316,-12.5961 331.2497,-16.1474 341.2676,-19.596 341.2316,-12.5961"/>
</g>
</g>
</svg>
