<?xml version="1.0" encoding="UTF-8" standalone="no"?>
<!DOCTYPE svg PUBLIC "-//W3C//DTD SVG 1.1//EN"
 "http://www.w3.org/Graphics/SVG/1.1/DTD/svg11.dtd">
<!-- Generated by graphviz version 2.40.1 (20161225.0304)
 -->
<!-- Title: ene.views.gui.partial.AbstractTrackListView.getTableContent Pages: 1 -->
<svg width="731pt" height="302pt"
 viewBox="0.00 0.00 731.00 302.00" xmlns="http://www.w3.org/2000/svg" xmlns:xlink="http://www.w3.org/1999/xlink">
<g id="graph0" class="graph" transform="scale(1 1) rotate(0) translate(4 298)">
<title>ene.views.gui.partial.AbstractTrackListView.getTableContent</title>
<!-- Node21 -->
<g id="node1" class="node">
<title>Node21</title>
<polygon fill="#bfbfbf" stroke="#000000" points="0,-126.5 0,-156.5 154,-156.5 154,-126.5 0,-126.5"/>
<text text-anchor="start" x="8" y="-144.5" font-family="Helvetica,sans-Serif" font-size="10.00" fill="#000000">ene.views.gui.partial.Abstract</text>
<text text-anchor="middle" x="77" y="-133.5" font-family="Helvetica,sans-Serif" font-size="10.00" fill="#000000">TrackListView.getTableContent</text>
</g>
<!-- Node22 -->
<g id="node2" class="node">
<title>Node22</title>
<g id="a_node2"><a xlink:href="classene_1_1views_1_1gui_1_1partial_1_1AbstractTrackListView.html#a35a32113ecdb8bc210fa6b4e9c57c782" target="_top" xlink:title="ene.views.gui.partial.Abstract\lTrackListView.getSelectedFilename">
<polygon fill="none" stroke="#000000" points="367,-214.5 367,-244.5 540,-244.5 540,-214.5 367,-214.5"/>
<text text-anchor="start" x="375" y="-232.5" font-family="Helvetica,sans-Serif" font-size="10.00" fill="#000000">ene.views.gui.partial.Abstract</text>
<text text-anchor="middle" x="453.5" y="-221.5" font-family="Helvetica,sans-Serif" font-size="10.00" fill="#000000">TrackListView.getSelectedFilename</text>
</a>
</g>
</g>
<!-- Node21&#45;&gt;Node22 -->
<g id="edge1" class="edge">
<title>Node21&#45;&gt;Node22</title>
<path fill="none" stroke="#191970" d="M108.7538,-161.7444C130.7065,-174.7305 161.061,-190.7447 190,-199.5 247.4003,-216.866 314.6026,-224.3267 366.7736,-227.4661"/>
<polygon fill="#191970" stroke="#191970" points="110.555,-158.7434 100.1842,-156.5761 106.9399,-164.7377 110.555,-158.7434"/>
</g>
<!-- Node25 -->
<g id="node5" class="node">
<title>Node25</title>
<g id="a_node5"><a xlink:href="classene_1_1views_1_1gui_1_1partial_1_1PlaylistView.html#a8d541ff3e91c1492b2e47cc7272ca56d" target="_top" xlink:title="ene.views.gui.partial.Playlist\lView.render">
<polygon fill="none" stroke="#000000" points="579,-165.5 579,-195.5 720,-195.5 720,-165.5 579,-165.5"/>
<text text-anchor="start" x="587" y="-183.5" font-family="Helvetica,sans-Serif" font-size="10.00" fill="#000000">ene.views.gui.partial.Playlist</text>
<text text-anchor="middle" x="649.5" y="-172.5" font-family="Helvetica,sans-Serif" font-size="10.00" fill="#000000">View.render</text>
</a>
</g>
</g>
<!-- Node21&#45;&gt;Node25 -->
<g id="edge13" class="edge">
<title>Node21&#45;&gt;Node25</title>
<path fill="none" stroke="#191970" d="M145.0429,-158.7101C159.778,-161.8306 175.3394,-164.6713 190,-166.5 326.8138,-183.5656 488.221,-183.9744 578.7303,-182.4355"/>
<polygon fill="#191970" stroke="#191970" points="145.5116,-155.2299 134.9949,-156.514 144.017,-162.0685 145.5116,-155.2299"/>
</g>
<!-- Node26 -->
<g id="node6" class="node">
<title>Node26</title>
<g id="a_node6"><a xlink:href="classene_1_1views_1_1gui_1_1partial_1_1LibraryView.html#a0bd6885fe06ebde4d3dffbcd888c0b41" target="_top" xlink:title="ene.views.gui.partial.Library\lView.render">
<polygon fill="none" stroke="#000000" points="580.5,-63.5 580.5,-93.5 718.5,-93.5 718.5,-63.5 580.5,-63.5"/>
<text text-anchor="start" x="588.5" y="-81.5" font-family="Helvetica,sans-Serif" font-size="10.00" fill="#000000">ene.views.gui.partial.Library</text>
<text text-anchor="middle" x="649.5" y="-70.5" font-family="Helvetica,sans-Serif" font-size="10.00" fill="#000000">View.render</text>
</a>
</g>
</g>
<!-- Node21&#45;&gt;Node26 -->
<g id="edge14" class="edge">
<title>Node21&#45;&gt;Node26</title>
<path fill="none" stroke="#191970" d="M150.8269,-124.4402C163.8294,-121.8309 177.2733,-119.3841 190,-117.5 327.6064,-97.1283 490.0909,-86.4443 580.2952,-81.6819"/>
<polygon fill="#191970" stroke="#191970" points="150.0805,-121.0203 140.989,-126.4605 151.4887,-127.8772 150.0805,-121.0203"/>
</g>
<!-- Node27 -->
<g id="node7" class="node">
<title>Node27</title>
<g id="a_node7"><a xlink:href="classene_1_1views_1_1gui_1_1partial_1_1PlaylistView.html#aab891c82686652a49db41a3e1bc1f3b9" target="_top" xlink:title="ene.views.gui.partial.Playlist\lView.loadContent">
<polygon fill="none" stroke="#000000" points="190,-126.5 190,-156.5 331,-156.5 331,-126.5 190,-126.5"/>
<text text-anchor="start" x="198" y="-144.5" font-family="Helvetica,sans-Serif" font-size="10.00" fill="#000000">ene.views.gui.partial.Playlist</text>
<text text-anchor="middle" x="260.5" y="-133.5" font-family="Helvetica,sans-Serif" font-size="10.00" fill="#000000">View.loadContent</text>
</a>
</g>
</g>
<!-- Node21&#45;&gt;Node27 -->
<g id="edge6" class="edge">
<title>Node21&#45;&gt;Node27</title>
<path fill="none" stroke="#191970" d="M164.098,-141.5C172.7176,-141.5 181.3921,-141.5 189.8161,-141.5"/>
<polygon fill="#191970" stroke="#191970" points="164.023,-138.0001 154.0229,-141.5 164.0229,-145.0001 164.023,-138.0001"/>
</g>
<!-- Node29 -->
<g id="node9" class="node">
<title>Node29</title>
<g id="a_node9"><a xlink:href="classene_1_1views_1_1gui_1_1partial_1_1LibraryView.html#a734cbc08cf36ed3d48cb106b77ecf28b" target="_top" xlink:title="ene.views.gui.partial.Library\lView.loadContent">
<polygon fill="none" stroke="#000000" points="191.5,-38.5 191.5,-68.5 329.5,-68.5 329.5,-38.5 191.5,-38.5"/>
<text text-anchor="start" x="199.5" y="-56.5" font-family="Helvetica,sans-Serif" font-size="10.00" fill="#000000">ene.views.gui.partial.Library</text>
<text text-anchor="middle" x="260.5" y="-45.5" font-family="Helvetica,sans-Serif" font-size="10.00" fill="#000000">View.loadContent</text>
</a>
</g>
</g>
<!-- Node21&#45;&gt;Node29 -->
<g id="edge9" class="edge">
<title>Node21&#45;&gt;Node29</title>
<path fill="none" stroke="#191970" d="M114.0117,-121.6519C135.916,-110.1198 164.3171,-95.5366 190,-83.5 200.8401,-78.4197 212.7717,-73.2035 223.6877,-68.575"/>
<polygon fill="#191970" stroke="#191970" points="112.253,-118.6226 105.0488,-126.3912 115.5251,-124.8108 112.253,-118.6226"/>
</g>
<!-- Node23 -->
<g id="node3" class="node">
<title>Node23</title>
<g id="a_node3"><a xlink:href="classene_1_1views_1_1gui_1_1partial_1_1PlaylistView.html#a108f11521a24d840a4aeb31190c0a34e" target="_top" xlink:title="ene.views.gui.partial.Playlist\lView.mousePressed">
<polygon fill="none" stroke="#000000" points="579,-263.5 579,-293.5 720,-293.5 720,-263.5 579,-263.5"/>
<text text-anchor="start" x="587" y="-281.5" font-family="Helvetica,sans-Serif" font-size="10.00" fill="#000000">ene.views.gui.partial.Playlist</text>
<text text-anchor="middle" x="649.5" y="-270.5" font-family="Helvetica,sans-Serif" font-size="10.00" fill="#000000">View.mousePressed</text>
</a>
</g>
</g>
<!-- Node22&#45;&gt;Node23 -->
<g id="edge2" class="edge">
<title>Node22&#45;&gt;Node23</title>
<path fill="none" stroke="#191970" d="M523.4072,-246.9768C545.01,-252.3775 568.6021,-258.2755 589.4753,-263.4938"/>
<polygon fill="#191970" stroke="#191970" points="524.1888,-243.5645 513.6385,-244.5346 522.491,-250.3555 524.1888,-243.5645"/>
</g>
<!-- Node24 -->
<g id="node4" class="node">
<title>Node24</title>
<g id="a_node4"><a xlink:href="classene_1_1views_1_1gui_1_1partial_1_1AbstractTrackListView.html#ad66634518c60ff157ef83d7dd9d7b4c6" target="_top" xlink:title="ene.views.gui.partial.Abstract\lTrackListView.mousePressed">
<polygon fill="none" stroke="#000000" points="576,-214.5 576,-244.5 723,-244.5 723,-214.5 576,-214.5"/>
<text text-anchor="start" x="584" y="-232.5" font-family="Helvetica,sans-Serif" font-size="10.00" fill="#000000">ene.views.gui.partial.Abstract</text>
<text text-anchor="middle" x="649.5" y="-221.5" font-family="Helvetica,sans-Serif" font-size="10.00" fill="#000000">TrackListView.mousePressed</text>
</a>
</g>
</g>
<!-- Node22&#45;&gt;Node24 -->
<g id="edge3" class="edge">
<title>Node22&#45;&gt;Node24</title>
<path fill="none" stroke="#191970" d="M550.2015,-229.5C558.8776,-229.5 567.5672,-229.5 575.9984,-229.5"/>
<polygon fill="#191970" stroke="#191970" points="550.039,-226.0001 540.039,-229.5 550.039,-233.0001 550.039,-226.0001"/>
</g>
<!-- Node22&#45;&gt;Node25 -->
<g id="edge4" class="edge">
<title>Node22&#45;&gt;Node25</title>
<path fill="none" stroke="#191970" d="M523.4072,-212.0232C545.01,-206.6225 568.6021,-200.7245 589.4753,-195.5062"/>
<polygon fill="#191970" stroke="#191970" points="522.491,-208.6445 513.6385,-214.4654 524.1888,-215.4355 522.491,-208.6445"/>
</g>
<!-- Node22&#45;&gt;Node26 -->
<g id="edge5" class="edge">
<title>Node22&#45;&gt;Node26</title>
<path fill="none" stroke="#191970" d="M483.0303,-208.5207C499.8678,-196.4275 521.2804,-180.8262 540,-166.5 572.5378,-141.5987 609.5274,-111.4819 631.113,-93.7191"/>
<polygon fill="#191970" stroke="#191970" points="480.7737,-205.8317 474.6809,-214.4995 484.8491,-211.5231 480.7737,-205.8317"/>
</g>
<!-- Node28 -->
<g id="node8" class="node">
<title>Node28</title>
<g id="a_node8"><a xlink:href="classene_1_1views_1_1gui_1_1partial_1_1PlaylistView.html#ad2b87823589c6e8895d2d7b98438a2dc" target="_top" xlink:title="ene.views.gui.partial.Playlist\lView.update">
<polygon fill="none" stroke="#000000" points="383,-126.5 383,-156.5 524,-156.5 524,-126.5 383,-126.5"/>
<text text-anchor="start" x="391" y="-144.5" font-family="Helvetica,sans-Serif" font-size="10.00" fill="#000000">ene.views.gui.partial.Playlist</text>
<text text-anchor="middle" x="453.5" y="-133.5" font-family="Helvetica,sans-Serif" font-size="10.00" fill="#000000">View.update</text>
</a>
</g>
</g>
<!-- Node27&#45;&gt;Node28 -->
<g id="edge7" class="edge">
<title>Node27&#45;&gt;Node28</title>
<path fill="none" stroke="#191970" d="M341.6171,-141.5C355.2798,-141.5 369.3649,-141.5 382.7384,-141.5"/>
<polygon fill="#191970" stroke="#191970" points="341.2702,-138.0001 331.2702,-141.5 341.2701,-145.0001 341.2702,-138.0001"/>
</g>
<!-- Node28&#45;&gt;Node25 -->
<g id="edge8" class="edge">
<title>Node28&#45;&gt;Node25</title>
<path fill="none" stroke="#191970" d="M534.3722,-157.5919C549.1261,-160.5276 564.4145,-163.5697 578.8434,-166.4408"/>
<polygon fill="#191970" stroke="#191970" points="534.7513,-154.0988 524.2605,-155.5799 533.3852,-160.9642 534.7513,-154.0988"/>
</g>
<!-- Node29&#45;&gt;Node26 -->
<g id="edge12" class="edge">
<title>Node29&#45;&gt;Node26</title>
<path fill="none" stroke="#191970" d="M339.791,-58.5958C410.4985,-63.14 512.9668,-69.7254 580.3923,-74.0586"/>
<polygon fill="#191970" stroke="#191970" points="339.8011,-55.0893 329.5972,-57.9407 339.3521,-62.0749 339.8011,-55.0893"/>
</g>
<!-- Node30 -->
<g id="node10" class="node">
<title>Node30</title>
<g id="a_node10"><a xlink:href="classene_1_1views_1_1gui_1_1partial_1_1LibraryView.html#a363a0a2db7ab4295ef38bb667038a6f8" target="_top" xlink:title="ene.views.gui.partial.Library\lView.update">
<polygon fill="none" stroke="#000000" points="384.5,-.5 384.5,-30.5 522.5,-30.5 522.5,-.5 384.5,-.5"/>
<text text-anchor="start" x="392.5" y="-18.5" font-family="Helvetica,sans-Serif" font-size="10.00" fill="#000000">ene.views.gui.partial.Library</text>
<text text-anchor="middle" x="453.5" y="-7.5" font-family="Helvetica,sans-Serif" font-size="10.00" fill="#000000">View.update</text>
</a>
</g>
</g>
<!-- Node29&#45;&gt;Node30 -->
<g id="edge10" class="edge">
<title>Node29&#45;&gt;Node30</title>
<path fill="none" stroke="#191970" d="M339.7345,-37.8994C354.4804,-34.9961 369.7822,-31.9833 384.2017,-29.1442"/>
<polygon fill="#191970" stroke="#191970" points="338.7678,-34.5225 329.6323,-39.8885 340.1201,-41.3906 338.7678,-34.5225"/>
</g>
<!-- Node30&#45;&gt;Node26 -->
<g id="edge11" class="edge">
<title>Node30&#45;&gt;Node26</title>
<path fill="none" stroke="#191970" d="M510.1385,-33.7052C539.4582,-43.1294 574.8273,-54.4981 602.5969,-63.424"/>
<polygon fill="#191970" stroke="#191970" points="511.0382,-30.3181 500.4469,-30.5901 508.8961,-36.9823 511.0382,-30.3181"/>
</g>
</g>
</svg>
