<?xml version="1.0" encoding="UTF-8" standalone="no"?>
<!DOCTYPE svg PUBLIC "-//W3C//DTD SVG 1.1//EN"
 "http://www.w3.org/Graphics/SVG/1.1/DTD/svg11.dtd">
<!-- Generated by graphviz version 2.40.1 (20161225.0304)
 -->
<!-- Title: ene.models.PlayerModel.next Pages: 1 -->
<svg width="942pt" height="389pt"
 viewBox="0.00 0.00 942.00 389.00" xmlns="http://www.w3.org/2000/svg" xmlns:xlink="http://www.w3.org/1999/xlink">
<g id="graph0" class="graph" transform="scale(1 1) rotate(0) translate(4 385)">
<title>ene.models.PlayerModel.next</title>
<!-- Node62 -->
<g id="node1" class="node">
<title>Node62</title>
<polygon fill="#bfbfbf" stroke="#000000" points="0,-221 0,-240 146,-240 146,-221 0,-221"/>
<text text-anchor="middle" x="73" y="-228" font-family="Helvetica,sans-Serif" font-size="10.00" fill="#000000">ene.models.PlayerModel.next</text>
</g>
<!-- Node63 -->
<g id="node2" class="node">
<title>Node63</title>
<g id="a_node2"><a xlink:href="classene_1_1models_1_1PlaylistModel.html#ad63fd499a74248dc9dadad29b9882fd2" target="_top" xlink:title="ene.models.PlaylistModel.get\lCurrentTrack">
<polygon fill="none" stroke="#000000" points="374.5,-350.5 374.5,-380.5 519.5,-380.5 519.5,-350.5 374.5,-350.5"/>
<text text-anchor="start" x="382.5" y="-368.5" font-family="Helvetica,sans-Serif" font-size="10.00" fill="#000000">ene.models.PlaylistModel.get</text>
<text text-anchor="middle" x="447" y="-357.5" font-family="Helvetica,sans-Serif" font-size="10.00" fill="#000000">CurrentTrack</text>
</a>
</g>
</g>
<!-- Node62&#45;&gt;Node63 -->
<g id="edge1" class="edge">
<title>Node62&#45;&gt;Node63</title>
<path fill="none" stroke="#191970" d="M84.6171,-240.196C103.7195,-255.6528 143.4968,-285.8303 182,-302.5 240.4017,-327.7847 310.6338,-343.8956 364.1187,-353.4904"/>
<polygon fill="#191970" stroke="#191970" points="363.7894,-356.986 374.2435,-355.2651 364.998,-350.0911 363.7894,-356.986"/>
</g>
<!-- Node65 -->
<g id="node4" class="node">
<title>Node65</title>
<g id="a_node4"><a xlink:href="classene_1_1models_1_1PlayerModel.html#a85b0de48a8e962642825c254f9c47fb0" target="_top" xlink:title="ene.models.PlayerModel.get\lPlaylist">
<polygon fill="none" stroke="#000000" points="187,-106.5 187,-136.5 327,-136.5 327,-106.5 187,-106.5"/>
<text text-anchor="start" x="195" y="-124.5" font-family="Helvetica,sans-Serif" font-size="10.00" fill="#000000">ene.models.PlayerModel.get</text>
<text text-anchor="middle" x="257" y="-113.5" font-family="Helvetica,sans-Serif" font-size="10.00" fill="#000000">Playlist</text>
</a>
</g>
</g>
<!-- Node62&#45;&gt;Node65 -->
<g id="edge3" class="edge">
<title>Node62&#45;&gt;Node65</title>
<path fill="none" stroke="#191970" d="M83.0092,-220.8823C101.2974,-203.7688 141.9307,-167.8296 182,-146.5 186.1723,-144.279 190.5793,-142.2032 195.0823,-140.2736"/>
<polygon fill="#191970" stroke="#191970" points="196.4447,-143.4982 204.4157,-136.5187 193.832,-137.004 196.4447,-143.4982"/>
</g>
<!-- Node66 -->
<g id="node5" class="node">
<title>Node66</title>
<g id="a_node5"><a xlink:href="classene_1_1models_1_1PlayerModel.html#a2c4655428b658dee3203787415a516a5" target="_top" xlink:title="ene.models.PlayerModel.load">
<polygon fill="none" stroke="#000000" points="184.5,-156 184.5,-175 329.5,-175 329.5,-156 184.5,-156"/>
<text text-anchor="middle" x="257" y="-163" font-family="Helvetica,sans-Serif" font-size="10.00" fill="#000000">ene.models.PlayerModel.load</text>
</a>
</g>
</g>
<!-- Node62&#45;&gt;Node66 -->
<g id="edge4" class="edge">
<title>Node62&#45;&gt;Node66</title>
<path fill="none" stroke="#191970" d="M100.1498,-220.909C132.0398,-209.6435 185.0812,-190.9061 220.5367,-178.381"/>
<polygon fill="#191970" stroke="#191970" points="221.7754,-181.6555 230.0385,-175.0244 219.4437,-175.0552 221.7754,-181.6555"/>
</g>
<!-- Node75 -->
<g id="node14" class="node">
<title>Node75</title>
<g id="a_node14"><a xlink:href="classene_1_1models_1_1PlaylistModel.html#afba0932567d4d21976e3c37c8d80b634" target="_top" xlink:title="ene.models.PlaylistModel.next\lTrack">
<polygon fill="none" stroke="#000000" points="182,-262.5 182,-292.5 332,-292.5 332,-262.5 182,-262.5"/>
<text text-anchor="start" x="190" y="-280.5" font-family="Helvetica,sans-Serif" font-size="10.00" fill="#000000">ene.models.PlaylistModel.next</text>
<text text-anchor="middle" x="257" y="-269.5" font-family="Helvetica,sans-Serif" font-size="10.00" fill="#000000">Track</text>
</a>
</g>
</g>
<!-- Node62&#45;&gt;Node75 -->
<g id="edge13" class="edge">
<title>Node62&#45;&gt;Node75</title>
<path fill="none" stroke="#191970" d="M110.2351,-240.0112C132.5827,-245.7195 161.7085,-253.1592 188.1169,-259.9049"/>
<polygon fill="#191970" stroke="#191970" points="187.5302,-263.3673 198.0854,-262.4512 189.2627,-256.5851 187.5302,-263.3673"/>
</g>
<!-- Node64 -->
<g id="node3" class="node">
<title>Node64</title>
<g id="a_node3"><a xlink:href="classene_1_1models_1_1TrackListModel.html#a77a78d6a93e67e544d83bf5f4856d121" target="_top" xlink:title="ene.models.TrackListModel.getAll">
<polygon fill="none" stroke="#000000" points="566.5,-334 566.5,-353 730.5,-353 730.5,-334 566.5,-334"/>
<text text-anchor="middle" x="648.5" y="-341" font-family="Helvetica,sans-Serif" font-size="10.00" fill="#000000">ene.models.TrackListModel.getAll</text>
</a>
</g>
</g>
<!-- Node63&#45;&gt;Node64 -->
<g id="edge2" class="edge">
<title>Node63&#45;&gt;Node64</title>
<path fill="none" stroke="#191970" d="M519.7461,-357.5575C531.5474,-356.269 543.9056,-354.9197 556.0995,-353.5884"/>
<polygon fill="#191970" stroke="#191970" points="556.7269,-357.0408 566.2879,-352.476 555.9671,-350.0821 556.7269,-357.0408"/>
</g>
<!-- Node67 -->
<g id="node6" class="node">
<title>Node67</title>
<g id="a_node6"><a xlink:href="classene_1_1AbstractObject.html#aff9619cf289ec83735b6c6ca2c12e020" target="_top" xlink:title="ene.AbstractObject.debug\lInfoAbout">
<polygon fill="none" stroke="#000000" points="382,-49.5 382,-79.5 512,-79.5 512,-49.5 382,-49.5"/>
<text text-anchor="start" x="390" y="-67.5" font-family="Helvetica,sans-Serif" font-size="10.00" fill="#000000">ene.AbstractObject.debug</text>
<text text-anchor="middle" x="447" y="-56.5" font-family="Helvetica,sans-Serif" font-size="10.00" fill="#000000">InfoAbout</text>
</a>
</g>
</g>
<!-- Node66&#45;&gt;Node67 -->
<g id="edge5" class="edge">
<title>Node66&#45;&gt;Node67</title>
<path fill="none" stroke="#191970" d="M312.0264,-155.9487C319.134,-153.2803 326.0113,-149.8668 332,-145.5 355.9075,-128.0676 344.4987,-107.4762 368,-89.5 370.4352,-87.6373 373.0125,-85.9115 375.6913,-84.3126"/>
<polygon fill="#191970" stroke="#191970" points="377.3424,-87.3988 384.5426,-79.6265 374.0671,-81.2123 377.3424,-87.3988"/>
</g>
<!-- Node70 -->
<g id="node9" class="node">
<title>Node70</title>
<g id="a_node9"><a xlink:href="classene_1_1AbstractObject.html#a600f6bedef1dc48e610cdfa5f81b7667" target="_top" xlink:title="ene.AbstractObject.delay">
<polygon fill="none" stroke="#000000" points="383.5,-175 383.5,-194 510.5,-194 510.5,-175 383.5,-175"/>
<text text-anchor="middle" x="447" y="-182" font-family="Helvetica,sans-Serif" font-size="10.00" fill="#000000">ene.AbstractObject.delay</text>
</a>
</g>
</g>
<!-- Node66&#45;&gt;Node70 -->
<g id="edge8" class="edge">
<title>Node66&#45;&gt;Node70</title>
<path fill="none" stroke="#191970" d="M329.6441,-172.7644C343.8908,-174.1891 358.8487,-175.6849 373.1349,-177.1135"/>
<polygon fill="#191970" stroke="#191970" points="373.1002,-180.6274 383.3989,-178.1399 373.7968,-173.6621 373.1002,-180.6274"/>
</g>
<!-- Node71 -->
<g id="node10" class="node">
<title>Node71</title>
<g id="a_node10"><a xlink:href="classene_1_1models_1_1PlayerModel.html#aa03431aa1bae96eacf2019c56fd18f45" target="_top" xlink:title="ene.models.PlayerModel.getClip">
<polygon fill="none" stroke="#000000" points="368,-137 368,-156 526,-156 526,-137 368,-137"/>
<text text-anchor="middle" x="447" y="-144" font-family="Helvetica,sans-Serif" font-size="10.00" fill="#000000">ene.models.PlayerModel.getClip</text>
</a>
</g>
</g>
<!-- Node66&#45;&gt;Node71 -->
<g id="edge9" class="edge">
<title>Node66&#45;&gt;Node71</title>
<path fill="none" stroke="#191970" d="M329.6441,-158.2356C338.7993,-157.3201 348.2481,-156.3752 357.6236,-155.4376"/>
<polygon fill="#191970" stroke="#191970" points="358.1489,-158.9027 367.7509,-154.4249 357.4523,-151.9374 358.1489,-158.9027"/>
</g>
<!-- Node72 -->
<g id="node11" class="node">
<title>Node72</title>
<g id="a_node11"><a xlink:href="classene_1_1models_1_1TrackModel.html#aab88fe151b093dba71ad9f9ab5c6959d" target="_top" xlink:title="ene.models.TrackModel.get\lFilename">
<polygon fill="none" stroke="#000000" points="378.5,-213.5 378.5,-243.5 515.5,-243.5 515.5,-213.5 378.5,-213.5"/>
<text text-anchor="start" x="386.5" y="-231.5" font-family="Helvetica,sans-Serif" font-size="10.00" fill="#000000">ene.models.TrackModel.get</text>
<text text-anchor="middle" x="447" y="-220.5" font-family="Helvetica,sans-Serif" font-size="10.00" fill="#000000">Filename</text>
</a>
</g>
</g>
<!-- Node66&#45;&gt;Node72 -->
<g id="edge10" class="edge">
<title>Node66&#45;&gt;Node72</title>
<path fill="none" stroke="#191970" d="M284.3099,-175.048C306.7416,-182.8426 339.3671,-194.0698 368,-203.5 374.8575,-205.7585 382.0624,-208.0923 389.2151,-210.3851"/>
<polygon fill="#191970" stroke="#191970" points="388.308,-213.7695 398.8988,-213.4752 390.4361,-207.1008 388.308,-213.7695"/>
</g>
<!-- Node73 -->
<g id="node12" class="node">
<title>Node73</title>
<g id="a_node12"><a xlink:href="classene_1_1models_1_1PlayerModel.html#a5617391131179365729686dc4eea1ea1" target="_top" xlink:title="ene.models.PlayerModel.setClip">
<polygon fill="none" stroke="#000000" points="368,-99 368,-118 526,-118 526,-99 368,-99"/>
<text text-anchor="middle" x="447" y="-106" font-family="Helvetica,sans-Serif" font-size="10.00" fill="#000000">ene.models.PlayerModel.setClip</text>
</a>
</g>
</g>
<!-- Node66&#45;&gt;Node73 -->
<g id="edge11" class="edge">
<title>Node66&#45;&gt;Node73</title>
<path fill="none" stroke="#191970" d="M298.7388,-155.9776C309.7007,-153.042 321.4144,-149.5101 332,-145.5 348.7284,-139.1628 351.195,-133.6312 368,-127.5 375.0028,-124.9451 382.4807,-122.6353 389.9392,-120.5785"/>
<polygon fill="#191970" stroke="#191970" points="390.9065,-123.9432 399.6914,-118.0207 389.1306,-117.1722 390.9065,-123.9432"/>
</g>
<!-- Node74 -->
<g id="node13" class="node">
<title>Node74</title>
<g id="a_node13"><a xlink:href="classene_1_1models_1_1PlayerModel.html#a921a00136726aee3bcababbd6c9b2e3e" target="_top" xlink:title="ene.models.PlayerModel.set\lCurrentTrack">
<polygon fill="none" stroke="#000000" points="377,-.5 377,-30.5 517,-30.5 517,-.5 377,-.5"/>
<text text-anchor="start" x="385" y="-18.5" font-family="Helvetica,sans-Serif" font-size="10.00" fill="#000000">ene.models.PlayerModel.set</text>
<text text-anchor="middle" x="447" y="-7.5" font-family="Helvetica,sans-Serif" font-size="10.00" fill="#000000">CurrentTrack</text>
</a>
</g>
</g>
<!-- Node66&#45;&gt;Node74 -->
<g id="edge12" class="edge">
<title>Node66&#45;&gt;Node74</title>
<path fill="none" stroke="#191970" d="M316.0951,-155.926C321.9192,-153.2385 327.3744,-149.8265 332,-145.5 368.3365,-111.5131 332.2522,-74.1057 368,-39.5 369.0943,-38.4407 370.2338,-37.428 371.4129,-36.4598"/>
<polygon fill="#191970" stroke="#191970" points="373.4949,-39.2752 379.7102,-30.6949 369.5008,-33.5265 373.4949,-39.2752"/>
</g>
<!-- Node68 -->
<g id="node7" class="node">
<title>Node68</title>
<g id="a_node7"><a xlink:href="classene_1_1AbstractObject.html#a9ce30d3321c7ce794df2f07bdaf3e47c" target="_top" xlink:title="ene.AbstractObject.console\lOutput">
<polygon fill="none" stroke="#000000" points="580,-25.5 580,-55.5 717,-55.5 717,-25.5 580,-25.5"/>
<text text-anchor="start" x="588" y="-43.5" font-family="Helvetica,sans-Serif" font-size="10.00" fill="#000000">ene.AbstractObject.console</text>
<text text-anchor="middle" x="648.5" y="-32.5" font-family="Helvetica,sans-Serif" font-size="10.00" fill="#000000">Output</text>
</a>
</g>
</g>
<!-- Node67&#45;&gt;Node68 -->
<g id="edge6" class="edge">
<title>Node67&#45;&gt;Node68</title>
<path fill="none" stroke="#191970" d="M512.143,-56.741C530.4666,-54.5586 550.5934,-52.1613 569.626,-49.8944"/>
<polygon fill="#191970" stroke="#191970" points="570.2491,-53.345 579.7649,-48.6868 569.4211,-46.3942 570.2491,-53.345"/>
</g>
<!-- Node69 -->
<g id="node8" class="node">
<title>Node69</title>
<g id="a_node8"><a xlink:href="classene_1_1AbstractObject.html#a6ee0b669069e0c3ee320a6cf41af24fe" target="_top" xlink:title="ene.AbstractObject.isDebug\lModeEnabled">
<polygon fill="none" stroke="#000000" points="578.5,-74.5 578.5,-104.5 718.5,-104.5 718.5,-74.5 578.5,-74.5"/>
<text text-anchor="start" x="586.5" y="-92.5" font-family="Helvetica,sans-Serif" font-size="10.00" fill="#000000">ene.AbstractObject.isDebug</text>
<text text-anchor="middle" x="648.5" y="-81.5" font-family="Helvetica,sans-Serif" font-size="10.00" fill="#000000">ModeEnabled</text>
</a>
</g>
</g>
<!-- Node67&#45;&gt;Node69 -->
<g id="edge7" class="edge">
<title>Node67&#45;&gt;Node69</title>
<path fill="none" stroke="#191970" d="M512.143,-72.5823C530.0767,-74.8073 549.7378,-77.2466 568.4097,-79.5632"/>
<polygon fill="#191970" stroke="#191970" points="568.0105,-83.0405 578.3654,-80.7984 568.8724,-76.0937 568.0105,-83.0405"/>
</g>
<!-- Node75&#45;&gt;Node63 -->
<g id="edge14" class="edge">
<title>Node75&#45;&gt;Node63</title>
<path fill="none" stroke="#191970" d="M283.925,-292.7176C306.1334,-304.9885 338.6462,-322.3134 368,-335.5 376.6412,-339.3819 385.9491,-343.2141 395.0378,-346.7747"/>
<polygon fill="#191970" stroke="#191970" points="393.8028,-350.0497 404.3926,-350.3777 396.3188,-343.5174 393.8028,-350.0497"/>
</g>
<!-- Node75&#45;&gt;Node64 -->
<g id="edge16" class="edge">
<title>Node75&#45;&gt;Node64</title>
<path fill="none" stroke="#191970" d="M319.9311,-292.5512C335.587,-296.0532 352.3649,-299.601 368,-302.5 432.8023,-314.5154 506.5636,-325.1794 562.1784,-332.6179"/>
<polygon fill="#191970" stroke="#191970" points="561.9715,-336.1211 572.3455,-333.9689 562.8937,-329.1821 561.9715,-336.1211"/>
</g>
<!-- Node75&#45;&gt;Node72 -->
<g id="edge15" class="edge">
<title>Node75&#45;&gt;Node72</title>
<path fill="none" stroke="#191970" d="M315.2975,-262.4654C335.45,-257.2682 358.2064,-251.3994 379.0639,-246.0204"/>
<polygon fill="#191970" stroke="#191970" points="380.0036,-249.3926 388.8127,-243.5062 378.2555,-242.6144 380.0036,-249.3926"/>
</g>
<!-- Node76 -->
<g id="node15" class="node">
<title>Node76</title>
<g id="a_node15"><a xlink:href="classene_1_1models_1_1PlaylistModel.html#a7150506b3801f97a2e38955a585bbd07" target="_top" xlink:title="ene.models.PlaylistModel.set\lCurrentTrack">
<polygon fill="none" stroke="#000000" points="374.5,-262.5 374.5,-292.5 519.5,-292.5 519.5,-262.5 374.5,-262.5"/>
<text text-anchor="start" x="382.5" y="-280.5" font-family="Helvetica,sans-Serif" font-size="10.00" fill="#000000">ene.models.PlaylistModel.set</text>
<text text-anchor="middle" x="447" y="-269.5" font-family="Helvetica,sans-Serif" font-size="10.00" fill="#000000">CurrentTrack</text>
</a>
</g>
</g>
<!-- Node75&#45;&gt;Node76 -->
<g id="edge17" class="edge">
<title>Node75&#45;&gt;Node76</title>
<path fill="none" stroke="#191970" d="M332.093,-277.5C342.6262,-277.5 353.5012,-277.5 364.1681,-277.5"/>
<polygon fill="#191970" stroke="#191970" points="364.3135,-281.0001 374.3135,-277.5 364.3134,-274.0001 364.3135,-281.0001"/>
</g>
<!-- Node77 -->
<g id="node16" class="node">
<title>Node77</title>
<g id="a_node16"><a xlink:href="classene_1_1models_1_1AbstractModel.html#a970306ac2228cbcb599f65476d8c80dd" target="_top" xlink:title="ene.models.AbstractModel.changed">
<polygon fill="none" stroke="#000000" points="562,-268 562,-287 735,-287 735,-268 562,-268"/>
<text text-anchor="middle" x="648.5" y="-275" font-family="Helvetica,sans-Serif" font-size="10.00" fill="#000000">ene.models.AbstractModel.changed</text>
</a>
</g>
</g>
<!-- Node76&#45;&gt;Node77 -->
<g id="edge18" class="edge">
<title>Node76&#45;&gt;Node77</title>
<path fill="none" stroke="#191970" d="M519.7461,-277.5C530.0828,-277.5 540.8468,-277.5 551.5534,-277.5"/>
<polygon fill="#191970" stroke="#191970" points="551.7851,-281.0001 561.785,-277.5 551.785,-274.0001 551.7851,-281.0001"/>
</g>
<!-- Node78 -->
<g id="node17" class="node">
<title>Node78</title>
<g id="a_node17"><a xlink:href="interfaceene_1_1interfaces_1_1PartialView.html#aae781d286eda4cbf8c57fdb877dde265" target="_top" xlink:title="ene.interfaces.PartialView.update">
<polygon fill="none" stroke="#000000" points="771,-268 771,-287 934,-287 934,-268 771,-268"/>
<text text-anchor="middle" x="852.5" y="-275" font-family="Helvetica,sans-Serif" font-size="10.00" fill="#000000">ene.interfaces.PartialView.update</text>
</a>
</g>
</g>
<!-- Node77&#45;&gt;Node78 -->
<g id="edge19" class="edge">
<title>Node77&#45;&gt;Node78</title>
<path fill="none" stroke="#191970" d="M735.0144,-277.5C743.4296,-277.5 751.9887,-277.5 760.4555,-277.5"/>
<polygon fill="#191970" stroke="#191970" points="760.7215,-281.0001 770.7215,-277.5 760.7214,-274.0001 760.7215,-281.0001"/>
</g>
</g>
</svg>
