<?xml version="1.0" encoding="UTF-8" standalone="no"?>
<!DOCTYPE svg PUBLIC "-//W3C//DTD SVG 1.1//EN"
 "http://www.w3.org/Graphics/SVG/1.1/DTD/svg11.dtd">
<!-- Generated by graphviz version 2.40.1 (20161225.0304)
 -->
<!-- Title: ene.models.PlaylistModel.nextTrack Pages: 1 -->
<svg width="747pt" height="199pt"
 viewBox="0.00 0.00 747.00 199.44" xmlns="http://www.w3.org/2000/svg" xmlns:xlink="http://www.w3.org/1999/xlink">
<g id="graph0" class="graph" transform="scale(1 1) rotate(0) translate(4 195.4359)">
<title>ene.models.PlaylistModel.nextTrack</title>
<!-- Node8 -->
<g id="node1" class="node">
<title>Node8</title>
<polygon fill="#bfbfbf" stroke="#000000" points="0,-93.5 0,-123.5 150,-123.5 150,-93.5 0,-93.5"/>
<text text-anchor="start" x="8" y="-111.5" font-family="Helvetica,sans-Serif" font-size="10.00" fill="#000000">ene.models.PlaylistModel.next</text>
<text text-anchor="middle" x="75" y="-100.5" font-family="Helvetica,sans-Serif" font-size="10.00" fill="#000000">Track</text>
</g>
<!-- Node9 -->
<g id="node2" class="node">
<title>Node9</title>
<g id="a_node2"><a xlink:href="classene_1_1models_1_1AbstractModel.html#a970306ac2228cbcb599f65476d8c80dd" target="_top" xlink:title="ene.models.AbstractModel.changed">
<polygon fill="none" stroke="#000000" points="367,-53 367,-72 540,-72 540,-53 367,-53"/>
<text text-anchor="middle" x="453.5" y="-60" font-family="Helvetica,sans-Serif" font-size="10.00" fill="#000000">ene.models.AbstractModel.changed</text>
</a>
</g>
</g>
<!-- Node8&#45;&gt;Node9 -->
<g id="edge1" class="edge">
<title>Node8&#45;&gt;Node9</title>
<path fill="none" stroke="#191970" d="M150.0588,-105.2325C201.2354,-102.3695 270.4435,-97.2533 331,-88.5 355.6308,-84.9397 382.7269,-79.3649 405.159,-74.2891"/>
<polygon fill="#191970" stroke="#191970" points="406.1502,-77.6526 415.1119,-72.0011 404.5819,-70.8305 406.1502,-77.6526"/>
</g>
<!-- Node11 -->
<g id="node4" class="node">
<title>Node11</title>
<g id="a_node4"><a xlink:href="classene_1_1models_1_1TrackListModel.html#a77a78d6a93e67e544d83bf5f4856d121" target="_top" xlink:title="ene.models.TrackListModel.getAll">
<polygon fill="none" stroke="#000000" points="371.5,-165 371.5,-184 535.5,-184 535.5,-165 371.5,-165"/>
<text text-anchor="middle" x="453.5" y="-172" font-family="Helvetica,sans-Serif" font-size="10.00" fill="#000000">ene.models.TrackListModel.getAll</text>
</a>
</g>
</g>
<!-- Node8&#45;&gt;Node11 -->
<g id="edge3" class="edge">
<title>Node8&#45;&gt;Node11</title>
<path fill="none" stroke="#191970" d="M92.337,-123.645C112.9954,-140.5898 149.3442,-167.0355 186,-177.5 253.3737,-196.7339 334.2364,-192.2569 389.2929,-185.3353"/>
<polygon fill="#191970" stroke="#191970" points="389.8077,-188.7978 399.2638,-184.0196 388.8919,-181.858 389.8077,-188.7978"/>
</g>
<!-- Node12 -->
<g id="node5" class="node">
<title>Node12</title>
<g id="a_node5"><a xlink:href="classene_1_1models_1_1PlaylistModel.html#ad63fd499a74248dc9dadad29b9882fd2" target="_top" xlink:title="ene.models.PlaylistModel.get\lCurrentTrack">
<polygon fill="none" stroke="#000000" points="186,-137.5 186,-167.5 331,-167.5 331,-137.5 186,-137.5"/>
<text text-anchor="start" x="194" y="-155.5" font-family="Helvetica,sans-Serif" font-size="10.00" fill="#000000">ene.models.PlaylistModel.get</text>
<text text-anchor="middle" x="258.5" y="-144.5" font-family="Helvetica,sans-Serif" font-size="10.00" fill="#000000">CurrentTrack</text>
</a>
</g>
</g>
<!-- Node8&#45;&gt;Node12 -->
<g id="edge4" class="edge">
<title>Node8&#45;&gt;Node12</title>
<path fill="none" stroke="#191970" d="M137.6371,-123.5192C153.1995,-127.2508 170.0086,-131.2814 186.0006,-135.116"/>
<polygon fill="#191970" stroke="#191970" points="185.2934,-138.5455 195.8339,-137.4738 186.9257,-131.7385 185.2934,-138.5455"/>
</g>
<!-- Node13 -->
<g id="node6" class="node">
<title>Node13</title>
<g id="a_node6"><a xlink:href="classene_1_1models_1_1TrackModel.html#aab88fe151b093dba71ad9f9ab5c6959d" target="_top" xlink:title="ene.models.TrackModel.get\lFilename">
<polygon fill="none" stroke="#000000" points="190,-49.5 190,-79.5 327,-79.5 327,-49.5 190,-49.5"/>
<text text-anchor="start" x="198" y="-67.5" font-family="Helvetica,sans-Serif" font-size="10.00" fill="#000000">ene.models.TrackModel.get</text>
<text text-anchor="middle" x="258.5" y="-56.5" font-family="Helvetica,sans-Serif" font-size="10.00" fill="#000000">Filename</text>
</a>
</g>
</g>
<!-- Node8&#45;&gt;Node13 -->
<g id="edge6" class="edge">
<title>Node8&#45;&gt;Node13</title>
<path fill="none" stroke="#191970" d="M137.6371,-93.4808C153.1995,-89.7492 170.0086,-85.7186 186.0006,-81.884"/>
<polygon fill="#191970" stroke="#191970" points="186.9257,-85.2615 195.8339,-79.5262 185.2934,-78.4545 186.9257,-85.2615"/>
</g>
<!-- Node14 -->
<g id="node7" class="node">
<title>Node14</title>
<g id="a_node7"><a xlink:href="classene_1_1models_1_1PlaylistModel.html#a7150506b3801f97a2e38955a585bbd07" target="_top" xlink:title="ene.models.PlaylistModel.set\lCurrentTrack">
<polygon fill="none" stroke="#000000" points="186,-.5 186,-30.5 331,-30.5 331,-.5 186,-.5"/>
<text text-anchor="start" x="194" y="-18.5" font-family="Helvetica,sans-Serif" font-size="10.00" fill="#000000">ene.models.PlaylistModel.set</text>
<text text-anchor="middle" x="258.5" y="-7.5" font-family="Helvetica,sans-Serif" font-size="10.00" fill="#000000">CurrentTrack</text>
</a>
</g>
</g>
<!-- Node8&#45;&gt;Node14 -->
<g id="edge7" class="edge">
<title>Node8&#45;&gt;Node14</title>
<path fill="none" stroke="#191970" d="M95.8443,-93.4463C117.542,-78.2889 152.9154,-54.9917 186,-39.5 190.0262,-37.6147 194.2416,-35.8116 198.5274,-34.1014"/>
<polygon fill="#191970" stroke="#191970" points="199.8722,-37.3346 207.9763,-30.5102 197.3852,-30.7913 199.8722,-37.3346"/>
</g>
<!-- Node10 -->
<g id="node3" class="node">
<title>Node10</title>
<g id="a_node3"><a xlink:href="interfaceene_1_1interfaces_1_1PartialView.html#aae781d286eda4cbf8c57fdb877dde265" target="_top" xlink:title="ene.interfaces.PartialView.update">
<polygon fill="none" stroke="#000000" points="576,-53 576,-72 739,-72 739,-53 576,-53"/>
<text text-anchor="middle" x="657.5" y="-60" font-family="Helvetica,sans-Serif" font-size="10.00" fill="#000000">ene.interfaces.PartialView.update</text>
</a>
</g>
</g>
<!-- Node9&#45;&gt;Node10 -->
<g id="edge2" class="edge">
<title>Node9&#45;&gt;Node10</title>
<path fill="none" stroke="#191970" d="M540.0144,-62.5C548.4296,-62.5 556.9887,-62.5 565.4555,-62.5"/>
<polygon fill="#191970" stroke="#191970" points="565.7215,-66.0001 575.7215,-62.5 565.7214,-59.0001 565.7215,-66.0001"/>
</g>
<!-- Node12&#45;&gt;Node11 -->
<g id="edge5" class="edge">
<title>Node12&#45;&gt;Node11</title>
<path fill="none" stroke="#191970" d="M331.1108,-160.692C340.9375,-161.8006 351.1258,-162.9501 361.2387,-164.091"/>
<polygon fill="#191970" stroke="#191970" points="360.9809,-167.5841 371.3102,-165.2273 361.7657,-160.6282 360.9809,-167.5841"/>
</g>
<!-- Node14&#45;&gt;Node9 -->
<g id="edge8" class="edge">
<title>Node14&#45;&gt;Node9</title>
<path fill="none" stroke="#191970" d="M320.7354,-30.5003C347.6968,-36.9987 378.8161,-44.4993 404.1467,-50.6046"/>
<polygon fill="#191970" stroke="#191970" points="403.3631,-54.0159 413.9049,-52.9566 405.0034,-47.2108 403.3631,-54.0159"/>
</g>
</g>
</svg>
