<?xml version="1.0" encoding="UTF-8" standalone="no"?>
<!DOCTYPE svg PUBLIC "-//W3C//DTD SVG 1.1//EN"
 "http://www.w3.org/Graphics/SVG/1.1/DTD/svg11.dtd">
<!-- Generated by graphviz version 2.40.1 (20161225.0304)
 -->
<!-- Title: ene.views.AbstractView&lt; CoreComponentType &gt; Pages: 1 -->
<svg width="1323pt" height="874pt"
 viewBox="0.00 0.00 1323.00 874.00" xmlns="http://www.w3.org/2000/svg" xmlns:xlink="http://www.w3.org/1999/xlink">
<g id="graph0" class="graph" transform="scale(1 1) rotate(0) translate(4 870)">
<title>ene.views.AbstractView&lt; CoreComponentType &gt;</title>
<!-- Node0 -->
<g id="node1" class="node">
<title>Node0</title>
<polygon fill="#bfbfbf" stroke="#000000" points="579.5,-548.5 579.5,-693.5 707.5,-693.5 707.5,-548.5 579.5,-548.5"/>
<text text-anchor="start" x="587.5" y="-681.5" font-family="Helvetica,sans-Serif" font-size="10.00" fill="#000000">ene.views.AbstractView</text>
<text text-anchor="middle" x="643.5" y="-670.5" font-family="Helvetica,sans-Serif" font-size="10.00" fill="#000000">&lt; CoreComponentType &gt;</text>
<polyline fill="none" stroke="#000000" points="579.5,-663.5 707.5,-663.5 "/>
<text text-anchor="start" x="587.5" y="-651.5" font-family="Helvetica,sans-Serif" font-size="10.00" fill="#000000"># title</text>
<text text-anchor="start" x="587.5" y="-640.5" font-family="Helvetica,sans-Serif" font-size="10.00" fill="#000000"># coreComponent</text>
<text text-anchor="start" x="587.5" y="-629.5" font-family="Helvetica,sans-Serif" font-size="10.00" fill="#000000"># layoutPosition</text>
<polyline fill="none" stroke="#000000" points="579.5,-622.5 707.5,-622.5 "/>
<text text-anchor="start" x="587.5" y="-610.5" font-family="Helvetica,sans-Serif" font-size="10.00" fill="#000000">+ setTitle()</text>
<text text-anchor="start" x="587.5" y="-599.5" font-family="Helvetica,sans-Serif" font-size="10.00" fill="#000000">+ getTitle()</text>
<text text-anchor="start" x="587.5" y="-588.5" font-family="Helvetica,sans-Serif" font-size="10.00" fill="#000000">+ setCoreComponent()</text>
<text text-anchor="start" x="587.5" y="-577.5" font-family="Helvetica,sans-Serif" font-size="10.00" fill="#000000">+ getCoreComponent()</text>
<text text-anchor="start" x="587.5" y="-566.5" font-family="Helvetica,sans-Serif" font-size="10.00" fill="#000000">+ setLayoutPosition()</text>
<text text-anchor="start" x="587.5" y="-555.5" font-family="Helvetica,sans-Serif" font-size="10.00" fill="#000000">+ getLayoutPosition()</text>
</g>
<!-- Node4 -->
<g id="node5" class="node">
<title>Node4</title>
<g id="a_node5"><a xlink:href="classene_1_1views_1_1AbstractMasterView.html" target="_top" xlink:title="{ene::views::AbstractMaster\lView\&lt; CoreComponentType \&gt;\n|# views\l|+ addView()\l+ setAllViews()\l+ getAllViews()\l}">
<polygon fill="none" stroke="#000000" points="331,-420.5 331,-510.5 480,-510.5 480,-420.5 331,-420.5"/>
<text text-anchor="start" x="339" y="-498.5" font-family="Helvetica,sans-Serif" font-size="10.00" fill="#000000">ene::views::AbstractMaster</text>
<text text-anchor="middle" x="405.5" y="-487.5" font-family="Helvetica,sans-Serif" font-size="10.00" fill="#000000">View&lt; CoreComponentType &gt;</text>
<polyline fill="none" stroke="#000000" points="331,-480.5 480,-480.5 "/>
<text text-anchor="start" x="339" y="-468.5" font-family="Helvetica,sans-Serif" font-size="10.00" fill="#000000"># views</text>
<polyline fill="none" stroke="#000000" points="331,-461.5 480,-461.5 "/>
<text text-anchor="start" x="339" y="-449.5" font-family="Helvetica,sans-Serif" font-size="10.00" fill="#000000">+ addView()</text>
<text text-anchor="start" x="339" y="-438.5" font-family="Helvetica,sans-Serif" font-size="10.00" fill="#000000">+ setAllViews()</text>
<text text-anchor="start" x="339" y="-427.5" font-family="Helvetica,sans-Serif" font-size="10.00" fill="#000000">+ getAllViews()</text>
</a>
</g>
</g>
<!-- Node0&#45;&gt;Node4 -->
<g id="edge4" class="edge">
<title>Node0&#45;&gt;Node4</title>
<path fill="none" stroke="#191970" d="M570.9205,-573.5794C540.3456,-553.6029 504.9223,-530.4587 474.7185,-510.7247"/>
<polygon fill="none" stroke="#191970" points="569.1213,-576.5847 579.4073,-579.1243 572.9501,-570.7246 569.1213,-576.5847"/>
</g>
<!-- Node9 -->
<g id="node10" class="node">
<title>Node9</title>
<g id="a_node10"><a xlink:href="classene_1_1views_1_1AbstractPartialView.html" target="_top" xlink:title="{ene::views::AbstractPartial\lView\&lt; CoreComponentType \&gt;\n|# model\l|+ setModel()\l+ getModel()\l}">
<polygon fill="none" stroke="#000000" points="809,-426 809,-505 958,-505 958,-426 809,-426"/>
<text text-anchor="start" x="817" y="-493" font-family="Helvetica,sans-Serif" font-size="10.00" fill="#000000">ene::views::AbstractPartial</text>
<text text-anchor="middle" x="883.5" y="-482" font-family="Helvetica,sans-Serif" font-size="10.00" fill="#000000">View&lt; CoreComponentType &gt;</text>
<polyline fill="none" stroke="#000000" points="809,-475 958,-475 "/>
<text text-anchor="start" x="817" y="-463" font-family="Helvetica,sans-Serif" font-size="10.00" fill="#000000"># model</text>
<polyline fill="none" stroke="#000000" points="809,-456 958,-456 "/>
<text text-anchor="start" x="817" y="-444" font-family="Helvetica,sans-Serif" font-size="10.00" fill="#000000">+ setModel()</text>
<text text-anchor="start" x="817" y="-433" font-family="Helvetica,sans-Serif" font-size="10.00" fill="#000000">+ getModel()</text>
</a>
</g>
</g>
<!-- Node0&#45;&gt;Node9 -->
<g id="edge9" class="edge">
<title>Node0&#45;&gt;Node9</title>
<path fill="none" stroke="#191970" d="M715.9784,-574.04C749.8693,-552.0815 789.7917,-526.2152 822.1613,-505.2423"/>
<polygon fill="none" stroke="#191970" points="713.9896,-571.1581 707.5003,-579.5331 717.7959,-577.0328 713.9896,-571.1581"/>
</g>
<!-- Node1 -->
<g id="node2" class="node">
<title>Node1</title>
<g id="a_node2"><a xlink:href="classene_1_1AbstractObject.html" target="_top" xlink:title="{ene.AbstractObject\n|# debugModeEnabled\l|+ enableDebugMode()\l+ disableDebugMode()\l+ isDebugModeEnabled()\l+ debugInfoAbout()\l+ consoleOutput()\l# delay()\l}">
<polygon fill="none" stroke="#000000" points="434,-742.5 434,-854.5 561,-854.5 561,-742.5 434,-742.5"/>
<text text-anchor="middle" x="497.5" y="-842.5" font-family="Helvetica,sans-Serif" font-size="10.00" fill="#000000">ene.AbstractObject</text>
<polyline fill="none" stroke="#000000" points="434,-835.5 561,-835.5 "/>
<text text-anchor="start" x="442" y="-823.5" font-family="Helvetica,sans-Serif" font-size="10.00" fill="#000000"># debugModeEnabled</text>
<polyline fill="none" stroke="#000000" points="434,-816.5 561,-816.5 "/>
<text text-anchor="start" x="442" y="-804.5" font-family="Helvetica,sans-Serif" font-size="10.00" fill="#000000">+ enableDebugMode()</text>
<text text-anchor="start" x="442" y="-793.5" font-family="Helvetica,sans-Serif" font-size="10.00" fill="#000000">+ disableDebugMode()</text>
<text text-anchor="start" x="442" y="-782.5" font-family="Helvetica,sans-Serif" font-size="10.00" fill="#000000">+ isDebugModeEnabled()</text>
<text text-anchor="start" x="442" y="-771.5" font-family="Helvetica,sans-Serif" font-size="10.00" fill="#000000">+ debugInfoAbout()</text>
<text text-anchor="start" x="442" y="-760.5" font-family="Helvetica,sans-Serif" font-size="10.00" fill="#000000">+ consoleOutput()</text>
<text text-anchor="start" x="442" y="-749.5" font-family="Helvetica,sans-Serif" font-size="10.00" fill="#000000"># delay()</text>
</a>
</g>
</g>
<!-- Node1&#45;&gt;Node0 -->
<g id="edge1" class="edge">
<title>Node1&#45;&gt;Node0</title>
<path fill="none" stroke="#191970" d="M550.3448,-734.2538C561.1727,-721.0897 572.6425,-707.1452 583.695,-693.7082"/>
<polygon fill="none" stroke="#191970" points="547.3448,-732.3914 543.6953,-742.3379 552.7509,-736.8382 547.3448,-732.3914"/>
</g>
<!-- Node2 -->
<g id="node3" class="node">
<title>Node2</title>
<g id="a_node3"><a xlink:href="interfaceene_1_1interfaces_1_1View.html" target="_top" xlink:title="{ene::interfaces::View\l\&lt; CoreComponentType \&gt;\n||+ setTitle()\l+ getTitle()\l+ setCoreComponent()\l+ getCoreComponent()\l+ setLayoutPosition()\l+ getLayoutPosition()\l+ render()\l}">
<polygon fill="none" stroke="#000000" points="579.5,-731.5 579.5,-865.5 707.5,-865.5 707.5,-731.5 579.5,-731.5"/>
<text text-anchor="start" x="587.5" y="-853.5" font-family="Helvetica,sans-Serif" font-size="10.00" fill="#000000">ene::interfaces::View</text>
<text text-anchor="middle" x="643.5" y="-842.5" font-family="Helvetica,sans-Serif" font-size="10.00" fill="#000000">&lt; CoreComponentType &gt;</text>
<polyline fill="none" stroke="#000000" points="579.5,-835.5 707.5,-835.5 "/>
<text text-anchor="middle" x="643.5" y="-823.5" font-family="Helvetica,sans-Serif" font-size="10.00" fill="#000000"> </text>
<polyline fill="none" stroke="#000000" points="579.5,-816.5 707.5,-816.5 "/>
<text text-anchor="start" x="587.5" y="-804.5" font-family="Helvetica,sans-Serif" font-size="10.00" fill="#000000">+ setTitle()</text>
<text text-anchor="start" x="587.5" y="-793.5" font-family="Helvetica,sans-Serif" font-size="10.00" fill="#000000">+ getTitle()</text>
<text text-anchor="start" x="587.5" y="-782.5" font-family="Helvetica,sans-Serif" font-size="10.00" fill="#000000">+ setCoreComponent()</text>
<text text-anchor="start" x="587.5" y="-771.5" font-family="Helvetica,sans-Serif" font-size="10.00" fill="#000000">+ getCoreComponent()</text>
<text text-anchor="start" x="587.5" y="-760.5" font-family="Helvetica,sans-Serif" font-size="10.00" fill="#000000">+ setLayoutPosition()</text>
<text text-anchor="start" x="587.5" y="-749.5" font-family="Helvetica,sans-Serif" font-size="10.00" fill="#000000">+ getLayoutPosition()</text>
<text text-anchor="start" x="587.5" y="-738.5" font-family="Helvetica,sans-Serif" font-size="10.00" fill="#000000">+ render()</text>
</a>
</g>
</g>
<!-- Node2&#45;&gt;Node0 -->
<g id="edge2" class="edge">
<title>Node2&#45;&gt;Node0</title>
<path fill="none" stroke="#191970" d="M643.5,-721.135C643.5,-711.9668 643.5,-702.6338 643.5,-693.5361"/>
<polygon fill="none" stroke="#191970" points="640.0001,-721.3948 643.5,-731.3949 647.0001,-721.3949 640.0001,-721.3948"/>
</g>
<!-- Node3 -->
<g id="node4" class="node">
<title>Node3</title>
<g id="a_node4"><a xlink:href="interfaceene_1_1interfaces_1_1Localization.html" target="_top" xlink:title="{ene.interfaces.Localization\n|+ DEFAULT_LOCALE\l|+ getString()\l}">
<polygon fill="none" stroke="#000000" points="726,-770 726,-827 859,-827 859,-770 726,-770"/>
<text text-anchor="middle" x="792.5" y="-815" font-family="Helvetica,sans-Serif" font-size="10.00" fill="#000000">ene.interfaces.Localization</text>
<polyline fill="none" stroke="#000000" points="726,-808 859,-808 "/>
<text text-anchor="start" x="734" y="-796" font-family="Helvetica,sans-Serif" font-size="10.00" fill="#000000">+ DEFAULT_LOCALE</text>
<polyline fill="none" stroke="#000000" points="726,-789 859,-789 "/>
<text text-anchor="start" x="734" y="-777" font-family="Helvetica,sans-Serif" font-size="10.00" fill="#000000">+ getString()</text>
</a>
</g>
</g>
<!-- Node3&#45;&gt;Node0 -->
<g id="edge3" class="edge">
<title>Node3&#45;&gt;Node0</title>
<path fill="none" stroke="#191970" d="M761.9978,-762.1635C745.4627,-742.4656 724.4213,-717.3996 704.6717,-693.8723"/>
<polygon fill="none" stroke="#191970" points="759.4504,-764.5727 768.5606,-769.9816 764.8119,-760.0721 759.4504,-764.5727"/>
</g>
<!-- Node5 -->
<g id="node6" class="node">
<title>Node5</title>
<g id="a_node6"><a xlink:href="classene_1_1views_1_1gui_1_1partial_1_1ContentView.html" target="_top" xlink:title="{ene::views::gui::partial\l::ContentView\&lt; JTabbedPane \&gt;\n||+ ContentView()\l+ render()\l}">
<polygon fill="none" stroke="#000000" points="0,-222 0,-301 157,-301 157,-222 0,-222"/>
<text text-anchor="start" x="8" y="-289" font-family="Helvetica,sans-Serif" font-size="10.00" fill="#000000">ene::views::gui::partial</text>
<text text-anchor="middle" x="78.5" y="-278" font-family="Helvetica,sans-Serif" font-size="10.00" fill="#000000">::ContentView&lt; JTabbedPane &gt;</text>
<polyline fill="none" stroke="#000000" points="0,-271 157,-271 "/>
<text text-anchor="middle" x="78.5" y="-259" font-family="Helvetica,sans-Serif" font-size="10.00" fill="#000000"> </text>
<polyline fill="none" stroke="#000000" points="0,-252 157,-252 "/>
<text text-anchor="start" x="8" y="-240" font-family="Helvetica,sans-Serif" font-size="10.00" fill="#000000">+ ContentView()</text>
<text text-anchor="start" x="8" y="-229" font-family="Helvetica,sans-Serif" font-size="10.00" fill="#000000">+ render()</text>
</a>
</g>
</g>
<!-- Node4&#45;&gt;Node5 -->
<g id="edge5" class="edge">
<title>Node4&#45;&gt;Node5</title>
<path fill="none" stroke="#191970" d="M321.0833,-444.8379C272.6621,-430.1809 212.5446,-406.9942 166.5,-373 140.3123,-353.6659 117.7342,-324.6257 102.0058,-301.0291"/>
<polygon fill="none" stroke="#191970" points="320.3339,-448.2661 330.916,-447.7465 322.3196,-441.5536 320.3339,-448.2661"/>
</g>
<!-- Node6 -->
<g id="node7" class="node">
<title>Node6</title>
<g id="a_node7"><a xlink:href="classene_1_1views_1_1gui_1_1WindowView.html" target="_top" xlink:title="{ene::views::gui::WindowView\l\&lt; JFrame \&gt;\n||+ setTitle()\l+ getTitle()\l+ WindowView()\l+ render()\l}">
<polygon fill="none" stroke="#000000" points="175.5,-211 175.5,-312 321.5,-312 321.5,-211 175.5,-211"/>
<text text-anchor="start" x="183.5" y="-300" font-family="Helvetica,sans-Serif" font-size="10.00" fill="#000000">ene::views::gui::WindowView</text>
<text text-anchor="middle" x="248.5" y="-289" font-family="Helvetica,sans-Serif" font-size="10.00" fill="#000000">&lt; JFrame &gt;</text>
<polyline fill="none" stroke="#000000" points="175.5,-282 321.5,-282 "/>
<text text-anchor="middle" x="248.5" y="-270" font-family="Helvetica,sans-Serif" font-size="10.00" fill="#000000"> </text>
<polyline fill="none" stroke="#000000" points="175.5,-263 321.5,-263 "/>
<text text-anchor="start" x="183.5" y="-251" font-family="Helvetica,sans-Serif" font-size="10.00" fill="#000000">+ setTitle()</text>
<text text-anchor="start" x="183.5" y="-240" font-family="Helvetica,sans-Serif" font-size="10.00" fill="#000000">+ getTitle()</text>
<text text-anchor="start" x="183.5" y="-229" font-family="Helvetica,sans-Serif" font-size="10.00" fill="#000000">+ WindowView()</text>
<text text-anchor="start" x="183.5" y="-218" font-family="Helvetica,sans-Serif" font-size="10.00" fill="#000000">+ render()</text>
</a>
</g>
</g>
<!-- Node4&#45;&gt;Node6 -->
<g id="edge6" class="edge">
<title>Node4&#45;&gt;Node6</title>
<path fill="none" stroke="#191970" d="M361.7079,-412.3668C351.3576,-399.5685 340.4428,-385.8721 330.5,-373 315.297,-353.318 298.9837,-331.3255 284.9429,-312.1077"/>
<polygon fill="none" stroke="#191970" points="359.0477,-414.6432 368.0658,-420.2042 364.4839,-410.2332 359.0477,-414.6432"/>
</g>
<!-- Node7 -->
<g id="node8" class="node">
<title>Node7</title>
<g id="a_node8"><a xlink:href="classene_1_1views_1_1AbstractMasterView.html" target="_top" xlink:title="{ene.views.AbstractMaster\lView\&lt; JTabbedPane \&gt;\n|# views\l|+ addView()\l+ setAllViews()\l+ getAllViews()\l}">
<polygon fill="none" stroke="#000000" points="340,-216.5 340,-306.5 471,-306.5 471,-216.5 340,-216.5"/>
<text text-anchor="start" x="348" y="-294.5" font-family="Helvetica,sans-Serif" font-size="10.00" fill="#000000">ene.views.AbstractMaster</text>
<text text-anchor="middle" x="405.5" y="-283.5" font-family="Helvetica,sans-Serif" font-size="10.00" fill="#000000">View&lt; JTabbedPane &gt;</text>
<polyline fill="none" stroke="#000000" points="340,-276.5 471,-276.5 "/>
<text text-anchor="start" x="348" y="-264.5" font-family="Helvetica,sans-Serif" font-size="10.00" fill="#000000"># views</text>
<polyline fill="none" stroke="#000000" points="340,-257.5 471,-257.5 "/>
<text text-anchor="start" x="348" y="-245.5" font-family="Helvetica,sans-Serif" font-size="10.00" fill="#000000">+ addView()</text>
<text text-anchor="start" x="348" y="-234.5" font-family="Helvetica,sans-Serif" font-size="10.00" fill="#000000">+ setAllViews()</text>
<text text-anchor="start" x="348" y="-223.5" font-family="Helvetica,sans-Serif" font-size="10.00" fill="#000000">+ getAllViews()</text>
</a>
</g>
</g>
<!-- Node4&#45;&gt;Node7 -->
<g id="edge7" class="edge">
<title>Node4&#45;&gt;Node7</title>
<path fill="none" stroke="#ffa500" d="M405.5,-410.2499C405.5,-377.8032 405.5,-337.3027 405.5,-306.7584"/>
<polygon fill="#ffa500" stroke="#ffa500" points="402.0001,-410.4788 405.5,-420.4788 409.0001,-410.4788 402.0001,-410.4788"/>
<text text-anchor="middle" x="446.5" y="-394" font-family="Helvetica,sans-Serif" font-size="10.00" fill="#000000"> &lt; JTabbedPane &gt;</text>
</g>
<!-- Node8 -->
<g id="node9" class="node">
<title>Node8</title>
<g id="a_node9"><a xlink:href="classene_1_1views_1_1AbstractMasterView.html" target="_top" xlink:title="{ene.views.AbstractMaster\lView\&lt; JFrame \&gt;\n|# views\l|+ addView()\l+ setAllViews()\l+ getAllViews()\l}">
<polygon fill="none" stroke="#000000" points="489,-216.5 489,-306.5 620,-306.5 620,-216.5 489,-216.5"/>
<text text-anchor="start" x="497" y="-294.5" font-family="Helvetica,sans-Serif" font-size="10.00" fill="#000000">ene.views.AbstractMaster</text>
<text text-anchor="middle" x="554.5" y="-283.5" font-family="Helvetica,sans-Serif" font-size="10.00" fill="#000000">View&lt; JFrame &gt;</text>
<polyline fill="none" stroke="#000000" points="489,-276.5 620,-276.5 "/>
<text text-anchor="start" x="497" y="-264.5" font-family="Helvetica,sans-Serif" font-size="10.00" fill="#000000"># views</text>
<polyline fill="none" stroke="#000000" points="489,-257.5 620,-257.5 "/>
<text text-anchor="start" x="497" y="-245.5" font-family="Helvetica,sans-Serif" font-size="10.00" fill="#000000">+ addView()</text>
<text text-anchor="start" x="497" y="-234.5" font-family="Helvetica,sans-Serif" font-size="10.00" fill="#000000">+ setAllViews()</text>
<text text-anchor="start" x="497" y="-223.5" font-family="Helvetica,sans-Serif" font-size="10.00" fill="#000000">+ getAllViews()</text>
</a>
</g>
</g>
<!-- Node4&#45;&gt;Node8 -->
<g id="edge8" class="edge">
<title>Node4&#45;&gt;Node8</title>
<path fill="none" stroke="#ffa500" d="M481.1147,-413.5088C484.8116,-409.8061 488.3072,-405.9633 491.5,-402 514.308,-373.6884 530.6628,-335.805 540.9839,-306.5102"/>
<polygon fill="#ffa500" stroke="#ffa500" points="478.638,-411.0338 473.784,-420.4513 483.4514,-416.1163 478.638,-411.0338"/>
<text text-anchor="middle" x="527" y="-394" font-family="Helvetica,sans-Serif" font-size="10.00" fill="#000000"> &lt; JFrame &gt;</text>
</g>
<!-- Node10 -->
<g id="node11" class="node">
<title>Node10</title>
<g id="a_node11"><a xlink:href="classene_1_1views_1_1gui_1_1partial_1_1AbstractTrackListView.html" target="_top" xlink:title="{ene::views::gui::partial\l::AbstractTrackListView\l\&lt; JPanel, TrackListModel \&gt;\n|# table\l# tableContent\l# playerController\l|+ valueChanged()\l# setTable()\l# getTable()\l# setTableContent()\l# getTableContent()\l# setPlayerController()\l# getPlayerController()\l# hideColumn()\l# getSelectedFilename()\l}">
<polygon fill="none" stroke="#000000" points="638,-167 638,-356 775,-356 775,-167 638,-167"/>
<text text-anchor="start" x="646" y="-344" font-family="Helvetica,sans-Serif" font-size="10.00" fill="#000000">ene::views::gui::partial</text>
<text text-anchor="start" x="646" y="-333" font-family="Helvetica,sans-Serif" font-size="10.00" fill="#000000">::AbstractTrackListView</text>
<text text-anchor="middle" x="706.5" y="-322" font-family="Helvetica,sans-Serif" font-size="10.00" fill="#000000">&lt; JPanel, TrackListModel &gt;</text>
<polyline fill="none" stroke="#000000" points="638,-315 775,-315 "/>
<text text-anchor="start" x="646" y="-303" font-family="Helvetica,sans-Serif" font-size="10.00" fill="#000000"># table</text>
<text text-anchor="start" x="646" y="-292" font-family="Helvetica,sans-Serif" font-size="10.00" fill="#000000"># tableContent</text>
<text text-anchor="start" x="646" y="-281" font-family="Helvetica,sans-Serif" font-size="10.00" fill="#000000"># playerController</text>
<polyline fill="none" stroke="#000000" points="638,-274 775,-274 "/>
<text text-anchor="start" x="646" y="-262" font-family="Helvetica,sans-Serif" font-size="10.00" fill="#000000">+ valueChanged()</text>
<text text-anchor="start" x="646" y="-251" font-family="Helvetica,sans-Serif" font-size="10.00" fill="#000000"># setTable()</text>
<text text-anchor="start" x="646" y="-240" font-family="Helvetica,sans-Serif" font-size="10.00" fill="#000000"># getTable()</text>
<text text-anchor="start" x="646" y="-229" font-family="Helvetica,sans-Serif" font-size="10.00" fill="#000000"># setTableContent()</text>
<text text-anchor="start" x="646" y="-218" font-family="Helvetica,sans-Serif" font-size="10.00" fill="#000000"># getTableContent()</text>
<text text-anchor="start" x="646" y="-207" font-family="Helvetica,sans-Serif" font-size="10.00" fill="#000000"># setPlayerController()</text>
<text text-anchor="start" x="646" y="-196" font-family="Helvetica,sans-Serif" font-size="10.00" fill="#000000"># getPlayerController()</text>
<text text-anchor="start" x="646" y="-185" font-family="Helvetica,sans-Serif" font-size="10.00" fill="#000000"># hideColumn()</text>
<text text-anchor="start" x="646" y="-174" font-family="Helvetica,sans-Serif" font-size="10.00" fill="#000000"># getSelectedFilename()</text>
</a>
</g>
</g>
<!-- Node9&#45;&gt;Node10 -->
<g id="edge10" class="edge">
<title>Node9&#45;&gt;Node10</title>
<path fill="none" stroke="#191970" d="M829.7894,-419.1284C814.5064,-404.9413 798.2812,-388.8761 784.5,-373 779.8542,-367.6479 775.226,-362.019 770.6752,-356.2517"/>
<polygon fill="none" stroke="#191970" points="827.468,-421.7485 837.2015,-425.9331 832.202,-416.592 827.468,-421.7485"/>
</g>
<!-- Node12 -->
<g id="node13" class="node">
<title>Node12</title>
<g id="a_node13"><a xlink:href="classene_1_1views_1_1gui_1_1partial_1_1PlayerView.html" target="_top" xlink:title="{ene::views::gui::partial\l::PlayerView\&lt; JPanel, PlayerModel \&gt;\n|~ progressTimer\l~ trackTimeFormat\l# playerController\l# playButton\l# progressSlider\l# progressLabel\l|+ PlayerView()\l+ update()\l+ render()\l# setPlayerController()\l# getPlayerController()\l# enablePlayerControls()\l# disablePlayerControls()\l# updateProgress()\l# resetProgress()\l# formatTimeToString()\l}">
<polygon fill="none" stroke="#000000" points="793.5,-150.5 793.5,-372.5 973.5,-372.5 973.5,-150.5 793.5,-150.5"/>
<text text-anchor="start" x="801.5" y="-360.5" font-family="Helvetica,sans-Serif" font-size="10.00" fill="#000000">ene::views::gui::partial</text>
<text text-anchor="middle" x="883.5" y="-349.5" font-family="Helvetica,sans-Serif" font-size="10.00" fill="#000000">::PlayerView&lt; JPanel, PlayerModel &gt;</text>
<polyline fill="none" stroke="#000000" points="793.5,-342.5 973.5,-342.5 "/>
<text text-anchor="start" x="801.5" y="-330.5" font-family="Helvetica,sans-Serif" font-size="10.00" fill="#000000">~ progressTimer</text>
<text text-anchor="start" x="801.5" y="-319.5" font-family="Helvetica,sans-Serif" font-size="10.00" fill="#000000">~ trackTimeFormat</text>
<text text-anchor="start" x="801.5" y="-308.5" font-family="Helvetica,sans-Serif" font-size="10.00" fill="#000000"># playerController</text>
<text text-anchor="start" x="801.5" y="-297.5" font-family="Helvetica,sans-Serif" font-size="10.00" fill="#000000"># playButton</text>
<text text-anchor="start" x="801.5" y="-286.5" font-family="Helvetica,sans-Serif" font-size="10.00" fill="#000000"># progressSlider</text>
<text text-anchor="start" x="801.5" y="-275.5" font-family="Helvetica,sans-Serif" font-size="10.00" fill="#000000"># progressLabel</text>
<polyline fill="none" stroke="#000000" points="793.5,-268.5 973.5,-268.5 "/>
<text text-anchor="start" x="801.5" y="-256.5" font-family="Helvetica,sans-Serif" font-size="10.00" fill="#000000">+ PlayerView()</text>
<text text-anchor="start" x="801.5" y="-245.5" font-family="Helvetica,sans-Serif" font-size="10.00" fill="#000000">+ update()</text>
<text text-anchor="start" x="801.5" y="-234.5" font-family="Helvetica,sans-Serif" font-size="10.00" fill="#000000">+ render()</text>
<text text-anchor="start" x="801.5" y="-223.5" font-family="Helvetica,sans-Serif" font-size="10.00" fill="#000000"># setPlayerController()</text>
<text text-anchor="start" x="801.5" y="-212.5" font-family="Helvetica,sans-Serif" font-size="10.00" fill="#000000"># getPlayerController()</text>
<text text-anchor="start" x="801.5" y="-201.5" font-family="Helvetica,sans-Serif" font-size="10.00" fill="#000000"># enablePlayerControls()</text>
<text text-anchor="start" x="801.5" y="-190.5" font-family="Helvetica,sans-Serif" font-size="10.00" fill="#000000"># disablePlayerControls()</text>
<text text-anchor="start" x="801.5" y="-179.5" font-family="Helvetica,sans-Serif" font-size="10.00" fill="#000000"># updateProgress()</text>
<text text-anchor="start" x="801.5" y="-168.5" font-family="Helvetica,sans-Serif" font-size="10.00" fill="#000000"># resetProgress()</text>
<text text-anchor="start" x="801.5" y="-157.5" font-family="Helvetica,sans-Serif" font-size="10.00" fill="#000000"># formatTimeToString()</text>
</a>
</g>
</g>
<!-- Node9&#45;&gt;Node12 -->
<g id="edge12" class="edge">
<title>Node9&#45;&gt;Node12</title>
<path fill="none" stroke="#191970" d="M883.5,-415.5388C883.5,-402.4417 883.5,-387.7812 883.5,-372.8512"/>
<polygon fill="none" stroke="#191970" points="880.0001,-415.6824 883.5,-425.6825 887.0001,-415.6825 880.0001,-415.6824"/>
</g>
<!-- Node13 -->
<g id="node14" class="node">
<title>Node13</title>
<g id="a_node14"><a xlink:href="classene_1_1views_1_1AbstractPartialView.html" target="_top" xlink:title="{ene.views.AbstractPartial\lView\&lt; JPanel, PlayerModel \&gt;\n|# model\l|+ setModel()\l+ getModel()\l}">
<polygon fill="none" stroke="#000000" points="991.5,-222 991.5,-301 1137.5,-301 1137.5,-222 991.5,-222"/>
<text text-anchor="start" x="999.5" y="-289" font-family="Helvetica,sans-Serif" font-size="10.00" fill="#000000">ene.views.AbstractPartial</text>
<text text-anchor="middle" x="1064.5" y="-278" font-family="Helvetica,sans-Serif" font-size="10.00" fill="#000000">View&lt; JPanel, PlayerModel &gt;</text>
<polyline fill="none" stroke="#000000" points="991.5,-271 1137.5,-271 "/>
<text text-anchor="start" x="999.5" y="-259" font-family="Helvetica,sans-Serif" font-size="10.00" fill="#000000"># model</text>
<polyline fill="none" stroke="#000000" points="991.5,-252 1137.5,-252 "/>
<text text-anchor="start" x="999.5" y="-240" font-family="Helvetica,sans-Serif" font-size="10.00" fill="#000000">+ setModel()</text>
<text text-anchor="start" x="999.5" y="-229" font-family="Helvetica,sans-Serif" font-size="10.00" fill="#000000">+ getModel()</text>
</a>
</g>
</g>
<!-- Node9&#45;&gt;Node13 -->
<g id="edge13" class="edge">
<title>Node9&#45;&gt;Node13</title>
<path fill="none" stroke="#ffa500" d="M936.9729,-418.9196C952.2501,-404.7274 968.5318,-388.7118 982.5,-373 1002.6162,-350.3727 1022.7949,-323.0084 1038.1015,-301.0516"/>
<polygon fill="#ffa500" stroke="#ffa500" points="934.5586,-416.3848 929.5683,-425.7309 939.2976,-421.5367 934.5586,-416.3848"/>
<text text-anchor="middle" x="1020.5" y="-394" font-family="Helvetica,sans-Serif" font-size="10.00" fill="#000000"> &lt; JPanel, PlayerModel &gt;</text>
</g>
<!-- Node14 -->
<g id="node15" class="node">
<title>Node14</title>
<g id="a_node15"><a xlink:href="classene_1_1views_1_1AbstractPartialView.html" target="_top" xlink:title="{ene.views.AbstractPartial\lView\&lt; JPanel, TrackListModel \&gt;\n|# model\l|+ setModel()\l+ getModel()\l}">
<polygon fill="none" stroke="#000000" points="1156,-222 1156,-301 1315,-301 1315,-222 1156,-222"/>
<text text-anchor="start" x="1164" y="-289" font-family="Helvetica,sans-Serif" font-size="10.00" fill="#000000">ene.views.AbstractPartial</text>
<text text-anchor="middle" x="1235.5" y="-278" font-family="Helvetica,sans-Serif" font-size="10.00" fill="#000000">View&lt; JPanel, TrackListModel &gt;</text>
<polyline fill="none" stroke="#000000" points="1156,-271 1315,-271 "/>
<text text-anchor="start" x="1164" y="-259" font-family="Helvetica,sans-Serif" font-size="10.00" fill="#000000"># model</text>
<polyline fill="none" stroke="#000000" points="1156,-252 1315,-252 "/>
<text text-anchor="start" x="1164" y="-240" font-family="Helvetica,sans-Serif" font-size="10.00" fill="#000000">+ setModel()</text>
<text text-anchor="start" x="1164" y="-229" font-family="Helvetica,sans-Serif" font-size="10.00" fill="#000000">+ getModel()</text>
</a>
</g>
</g>
<!-- Node9&#45;&gt;Node14 -->
<g id="edge14" class="edge">
<title>Node9&#45;&gt;Node14</title>
<path fill="none" stroke="#ffa500" d="M967.909,-450.1246C1023.0263,-436.8358 1094.1988,-413.2216 1146.5,-373 1172.2201,-353.2202 1194.9225,-324.4869 1210.9606,-301.1428"/>
<polygon fill="#ffa500" stroke="#ffa500" points="967.1003,-446.7192 958.1622,-452.4079 968.697,-453.5347 967.1003,-446.7192"/>
<text text-anchor="middle" x="1176.5" y="-394" font-family="Helvetica,sans-Serif" font-size="10.00" fill="#000000"> &lt; JPanel, TrackListModel &gt;</text>
</g>
<!-- Node11 -->
<g id="node12" class="node">
<title>Node11</title>
<g id="a_node12"><a xlink:href="classene_1_1views_1_1gui_1_1partial_1_1LibraryView.html" target="_top" xlink:title="{ene.views.gui.partial.LibraryView\n|# libraryController\l|+ LibraryView()\l+ update()\l+ render()\l# setLibraryController()\l# getLibraryController()\l# loadContent()\l}">
<polygon fill="none" stroke="#000000" points="626.5,-.5 626.5,-112.5 786.5,-112.5 786.5,-.5 626.5,-.5"/>
<text text-anchor="middle" x="706.5" y="-100.5" font-family="Helvetica,sans-Serif" font-size="10.00" fill="#000000">ene.views.gui.partial.LibraryView</text>
<polyline fill="none" stroke="#000000" points="626.5,-93.5 786.5,-93.5 "/>
<text text-anchor="start" x="634.5" y="-81.5" font-family="Helvetica,sans-Serif" font-size="10.00" fill="#000000"># libraryController</text>
<polyline fill="none" stroke="#000000" points="626.5,-74.5 786.5,-74.5 "/>
<text text-anchor="start" x="634.5" y="-62.5" font-family="Helvetica,sans-Serif" font-size="10.00" fill="#000000">+ LibraryView()</text>
<text text-anchor="start" x="634.5" y="-51.5" font-family="Helvetica,sans-Serif" font-size="10.00" fill="#000000">+ update()</text>
<text text-anchor="start" x="634.5" y="-40.5" font-family="Helvetica,sans-Serif" font-size="10.00" fill="#000000">+ render()</text>
<text text-anchor="start" x="634.5" y="-29.5" font-family="Helvetica,sans-Serif" font-size="10.00" fill="#000000"># setLibraryController()</text>
<text text-anchor="start" x="634.5" y="-18.5" font-family="Helvetica,sans-Serif" font-size="10.00" fill="#000000"># getLibraryController()</text>
<text text-anchor="start" x="634.5" y="-7.5" font-family="Helvetica,sans-Serif" font-size="10.00" fill="#000000"># loadContent()</text>
</a>
</g>
</g>
<!-- Node10&#45;&gt;Node11 -->
<g id="edge11" class="edge">
<title>Node10&#45;&gt;Node11</title>
<path fill="none" stroke="#191970" d="M706.5,-156.7721C706.5,-141.5035 706.5,-126.3009 706.5,-112.5203"/>
<polygon fill="none" stroke="#191970" points="703.0001,-156.8009 706.5,-166.8009 710.0001,-156.8009 703.0001,-156.8009"/>
</g>
</g>
</svg>
