<?xml version="1.0" encoding="UTF-8" standalone="no"?>
<!DOCTYPE svg PUBLIC "-//W3C//DTD SVG 1.1//EN"
 "http://www.w3.org/Graphics/SVG/1.1/DTD/svg11.dtd">
<!-- Generated by graphviz version 2.40.1 (20161225.0304)
 -->
<!-- Title: ene.models.LibraryModel Pages: 1 -->
<svg width="554pt" height="641pt"
 viewBox="0.00 0.00 553.50 641.00" xmlns="http://www.w3.org/2000/svg" xmlns:xlink="http://www.w3.org/1999/xlink">
<g id="graph0" class="graph" transform="scale(1 1) rotate(0) translate(4 637)">
<title>ene.models.LibraryModel</title>
<!-- Node5 -->
<g id="node1" class="node">
<title>Node5</title>
<polygon fill="#bfbfbf" stroke="#000000" points="240,-.5 240,-90.5 365,-90.5 365,-.5 240,-.5"/>
<text text-anchor="middle" x="302.5" y="-78.5" font-family="Helvetica,sans-Serif" font-size="10.00" fill="#000000">ene.models.LibraryModel</text>
<polyline fill="none" stroke="#000000" points="240,-71.5 365,-71.5 "/>
<text text-anchor="middle" x="302.5" y="-59.5" font-family="Helvetica,sans-Serif" font-size="10.00" fill="#000000"> </text>
<polyline fill="none" stroke="#000000" points="240,-52.5 365,-52.5 "/>
<text text-anchor="start" x="248" y="-40.5" font-family="Helvetica,sans-Serif" font-size="10.00" fill="#000000">+ getByArtist()</text>
<text text-anchor="start" x="248" y="-29.5" font-family="Helvetica,sans-Serif" font-size="10.00" fill="#000000">+ getByTitle()</text>
<text text-anchor="start" x="248" y="-18.5" font-family="Helvetica,sans-Serif" font-size="10.00" fill="#000000">+ getByGenre()</text>
<text text-anchor="start" x="248" y="-7.5" font-family="Helvetica,sans-Serif" font-size="10.00" fill="#000000">+ search()</text>
</g>
<!-- Node6 -->
<g id="node2" class="node">
<title>Node6</title>
<g id="a_node2"><a xlink:href="classene_1_1models_1_1TrackListModel.html" target="_top" xlink:title="{ene.models.TrackListModel\n||+ add()\l+ remove()\l+ get()\l+ has()\l+ getAll()\l}">
<polygon fill="none" stroke="#000000" points="234,-128.5 234,-229.5 371,-229.5 371,-128.5 234,-128.5"/>
<text text-anchor="middle" x="302.5" y="-217.5" font-family="Helvetica,sans-Serif" font-size="10.00" fill="#000000">ene.models.TrackListModel</text>
<polyline fill="none" stroke="#000000" points="234,-210.5 371,-210.5 "/>
<text text-anchor="middle" x="302.5" y="-198.5" font-family="Helvetica,sans-Serif" font-size="10.00" fill="#000000"> </text>
<polyline fill="none" stroke="#000000" points="234,-191.5 371,-191.5 "/>
<text text-anchor="start" x="242" y="-179.5" font-family="Helvetica,sans-Serif" font-size="10.00" fill="#000000">+ add()</text>
<text text-anchor="start" x="242" y="-168.5" font-family="Helvetica,sans-Serif" font-size="10.00" fill="#000000">+ remove()</text>
<text text-anchor="start" x="242" y="-157.5" font-family="Helvetica,sans-Serif" font-size="10.00" fill="#000000">+ get()</text>
<text text-anchor="start" x="242" y="-146.5" font-family="Helvetica,sans-Serif" font-size="10.00" fill="#000000">+ has()</text>
<text text-anchor="start" x="242" y="-135.5" font-family="Helvetica,sans-Serif" font-size="10.00" fill="#000000">+ getAll()</text>
</a>
</g>
</g>
<!-- Node6&#45;&gt;Node5 -->
<g id="edge1" class="edge">
<title>Node6&#45;&gt;Node5</title>
<path fill="none" stroke="#191970" d="M302.5,-117.8576C302.5,-108.6556 302.5,-99.3105 302.5,-90.5283"/>
<polygon fill="none" stroke="#191970" points="299.0001,-118.1485 302.5,-128.1485 306.0001,-118.1486 299.0001,-118.1485"/>
</g>
<!-- Node7 -->
<g id="node3" class="node">
<title>Node7</title>
<g id="a_node3"><a xlink:href="classene_1_1models_1_1AbstractModel.html" target="_top" xlink:title="{ene.models.AbstractModel\n||+ addView()\l# changed()\l}">
<polygon fill="none" stroke="#000000" points="161,-277.5 161,-345.5 294,-345.5 294,-277.5 161,-277.5"/>
<text text-anchor="middle" x="227.5" y="-333.5" font-family="Helvetica,sans-Serif" font-size="10.00" fill="#000000">ene.models.AbstractModel</text>
<polyline fill="none" stroke="#000000" points="161,-326.5 294,-326.5 "/>
<text text-anchor="middle" x="227.5" y="-314.5" font-family="Helvetica,sans-Serif" font-size="10.00" fill="#000000"> </text>
<polyline fill="none" stroke="#000000" points="161,-307.5 294,-307.5 "/>
<text text-anchor="start" x="169" y="-295.5" font-family="Helvetica,sans-Serif" font-size="10.00" fill="#000000">+ addView()</text>
<text text-anchor="start" x="169" y="-284.5" font-family="Helvetica,sans-Serif" font-size="10.00" fill="#000000"># changed()</text>
</a>
</g>
</g>
<!-- Node7&#45;&gt;Node6 -->
<g id="edge2" class="edge">
<title>Node7&#45;&gt;Node6</title>
<path fill="none" stroke="#191970" d="M251.8064,-268.5587C258.8587,-256.0996 266.6245,-242.3801 273.9134,-229.5031"/>
<polygon fill="none" stroke="#191970" points="248.6945,-266.9513 246.8144,-277.378 254.7863,-270.3995 248.6945,-266.9513"/>
</g>
<!-- Node8 -->
<g id="node4" class="node">
<title>Node8</title>
<g id="a_node4"><a xlink:href="classene_1_1AbstractObject.html" target="_top" xlink:title="{ene.AbstractObject\n||+ enableDebugMode()\l+ disableDebugMode()\l+ isDebugModeEnabled()\l+ debugInfoAbout()\l+ consoleOutput()\l# delay()\l}">
<polygon fill="none" stroke="#000000" points="0,-404.5 0,-516.5 127,-516.5 127,-404.5 0,-404.5"/>
<text text-anchor="middle" x="63.5" y="-504.5" font-family="Helvetica,sans-Serif" font-size="10.00" fill="#000000">ene.AbstractObject</text>
<polyline fill="none" stroke="#000000" points="0,-497.5 127,-497.5 "/>
<text text-anchor="middle" x="63.5" y="-485.5" font-family="Helvetica,sans-Serif" font-size="10.00" fill="#000000"> </text>
<polyline fill="none" stroke="#000000" points="0,-478.5 127,-478.5 "/>
<text text-anchor="start" x="8" y="-466.5" font-family="Helvetica,sans-Serif" font-size="10.00" fill="#000000">+ enableDebugMode()</text>
<text text-anchor="start" x="8" y="-455.5" font-family="Helvetica,sans-Serif" font-size="10.00" fill="#000000">+ disableDebugMode()</text>
<text text-anchor="start" x="8" y="-444.5" font-family="Helvetica,sans-Serif" font-size="10.00" fill="#000000">+ isDebugModeEnabled()</text>
<text text-anchor="start" x="8" y="-433.5" font-family="Helvetica,sans-Serif" font-size="10.00" fill="#000000">+ debugInfoAbout()</text>
<text text-anchor="start" x="8" y="-422.5" font-family="Helvetica,sans-Serif" font-size="10.00" fill="#000000">+ consoleOutput()</text>
<text text-anchor="start" x="8" y="-411.5" font-family="Helvetica,sans-Serif" font-size="10.00" fill="#000000"># delay()</text>
</a>
</g>
</g>
<!-- Node8&#45;&gt;Node7 -->
<g id="edge3" class="edge">
<title>Node8&#45;&gt;Node7</title>
<path fill="none" stroke="#191970" d="M132.9044,-397.4436C152.3688,-379.7594 172.8033,-361.194 189.6788,-345.8619"/>
<polygon fill="none" stroke="#191970" points="130.5493,-394.8545 125.5014,-404.1695 135.2564,-400.0355 130.5493,-394.8545"/>
</g>
<!-- Node9 -->
<g id="node5" class="node">
<title>Node9</title>
<polygon fill="none" stroke="#bfbfbf" points="25,-575.5 25,-632.5 102,-632.5 102,-575.5 25,-575.5"/>
<text text-anchor="middle" x="63.5" y="-620.5" font-family="Helvetica,sans-Serif" font-size="10.00" fill="#000000">static boolean</text>
<polyline fill="none" stroke="#bfbfbf" points="25,-613.5 102,-613.5 "/>
<text text-anchor="middle" x="63.5" y="-601.5" font-family="Helvetica,sans-Serif" font-size="10.00" fill="#000000"> </text>
<polyline fill="none" stroke="#bfbfbf" points="25,-594.5 102,-594.5 "/>
<text text-anchor="middle" x="63.5" y="-582.5" font-family="Helvetica,sans-Serif" font-size="10.00" fill="#000000"> </text>
</g>
<!-- Node9&#45;&gt;Node8 -->
<g id="edge4" class="edge">
<title>Node9&#45;&gt;Node8</title>
<path fill="none" stroke="#404040" d="M63.5,-575.3055C63.5,-561.9442 63.5,-545.4218 63.5,-529.1157"/>
<polygon fill="none" stroke="#404040" points="63.5001,-528.7445 59.5,-522.7445 63.5,-516.7445 67.5,-522.7444 63.5001,-528.7445"/>
<text text-anchor="middle" x="110.5" y="-543.5" font-family="Helvetica,sans-Serif" font-size="10.00" fill="#000000"> #debugModeEnabled</text>
</g>
<!-- Node10 -->
<g id="node6" class="node">
<title>Node10</title>
<g id="a_node6"><a xlink:href="interfaceene_1_1interfaces_1_1Model.html" target="_top" xlink:title="{ene.interfaces.Model\n||+ addView()\l}">
<polygon fill="none" stroke="#000000" points="145,-432 145,-489 252,-489 252,-432 145,-432"/>
<text text-anchor="middle" x="198.5" y="-477" font-family="Helvetica,sans-Serif" font-size="10.00" fill="#000000">ene.interfaces.Model</text>
<polyline fill="none" stroke="#000000" points="145,-470 252,-470 "/>
<text text-anchor="middle" x="198.5" y="-458" font-family="Helvetica,sans-Serif" font-size="10.00" fill="#000000"> </text>
<polyline fill="none" stroke="#000000" points="145,-451 252,-451 "/>
<text text-anchor="start" x="153" y="-439" font-family="Helvetica,sans-Serif" font-size="10.00" fill="#000000">+ addView()</text>
</a>
</g>
</g>
<!-- Node10&#45;&gt;Node7 -->
<g id="edge5" class="edge">
<title>Node10&#45;&gt;Node7</title>
<path fill="none" stroke="#191970" d="M206.0408,-421.7559C210.6313,-398.1705 216.4416,-368.3175 220.8582,-345.6252"/>
<polygon fill="none" stroke="#191970" points="202.5665,-421.2868 204.0915,-431.7713 209.4376,-422.6242 202.5665,-421.2868"/>
</g>
<!-- Node11 -->
<g id="node7" class="node">
<title>Node11</title>
<polygon fill="none" stroke="#bfbfbf" points="270.5,-426.5 270.5,-494.5 404.5,-494.5 404.5,-426.5 270.5,-426.5"/>
<text text-anchor="start" x="278.5" y="-482.5" font-family="Helvetica,sans-Serif" font-size="10.00" fill="#000000">List&lt; ene.interfaces.Partial</text>
<text text-anchor="middle" x="337.5" y="-471.5" font-family="Helvetica,sans-Serif" font-size="10.00" fill="#000000">View &gt;</text>
<polyline fill="none" stroke="#bfbfbf" points="270.5,-464.5 404.5,-464.5 "/>
<text text-anchor="middle" x="337.5" y="-452.5" font-family="Helvetica,sans-Serif" font-size="10.00" fill="#000000"> </text>
<polyline fill="none" stroke="#bfbfbf" points="270.5,-445.5 404.5,-445.5 "/>
<text text-anchor="middle" x="337.5" y="-433.5" font-family="Helvetica,sans-Serif" font-size="10.00" fill="#000000"> </text>
</g>
<!-- Node11&#45;&gt;Node7 -->
<g id="edge6" class="edge">
<title>Node11&#45;&gt;Node7</title>
<path fill="none" stroke="#404040" d="M312.2638,-426.3164C296.6825,-405.2108 276.5406,-377.9277 259.801,-355.2531"/>
<polygon fill="none" stroke="#404040" points="259.7461,-355.1787 252.9644,-352.7274 252.6188,-345.5245 259.4005,-347.9759 259.7461,-355.1787"/>
<text text-anchor="middle" x="299.5" y="-372.5" font-family="Helvetica,sans-Serif" font-size="10.00" fill="#000000"> #views</text>
</g>
<!-- Node12 -->
<g id="node8" class="node">
<title>Node12</title>
<polygon fill="none" stroke="#bfbfbf" points="321.5,-575.5 321.5,-632.5 353.5,-632.5 353.5,-575.5 321.5,-575.5"/>
<text text-anchor="middle" x="337.5" y="-620.5" font-family="Helvetica,sans-Serif" font-size="10.00" fill="#000000">List</text>
<polyline fill="none" stroke="#bfbfbf" points="321.5,-613.5 353.5,-613.5 "/>
<text text-anchor="middle" x="337.5" y="-601.5" font-family="Helvetica,sans-Serif" font-size="10.00" fill="#000000"> </text>
<polyline fill="none" stroke="#bfbfbf" points="321.5,-594.5 353.5,-594.5 "/>
<text text-anchor="middle" x="337.5" y="-582.5" font-family="Helvetica,sans-Serif" font-size="10.00" fill="#000000"> </text>
</g>
<!-- Node12&#45;&gt;Node11 -->
<g id="edge7" class="edge">
<title>Node12&#45;&gt;Node11</title>
<path fill="none" stroke="#ffa500" d="M337.5,-565.2878C337.5,-543.2661 337.5,-515.9324 337.5,-494.7037"/>
<polygon fill="#ffa500" stroke="#ffa500" points="334.0001,-565.3055 337.5,-575.3055 341.0001,-565.3056 334.0001,-565.3055"/>
<text text-anchor="start" x="337.5" y="-549" font-family="Helvetica,sans-Serif" font-size="10.00" fill="#000000"> &lt; ene::interfaces::</text>
<text text-anchor="middle" x="379" y="-538" font-family="Helvetica,sans-Serif" font-size="10.00" fill="#000000">PartialView &gt;</text>
</g>
<!-- Node13 -->
<g id="node9" class="node">
<title>Node13</title>
<polygon fill="none" stroke="#bfbfbf" points="368,-277.5 368,-345.5 501,-345.5 501,-277.5 368,-277.5"/>
<text text-anchor="start" x="376" y="-333.5" font-family="Helvetica,sans-Serif" font-size="10.00" fill="#000000">NavigableMap&lt; String,</text>
<text text-anchor="middle" x="434.5" y="-322.5" font-family="Helvetica,sans-Serif" font-size="10.00" fill="#000000"> ene.models.TrackModel &gt;</text>
<polyline fill="none" stroke="#bfbfbf" points="368,-315.5 501,-315.5 "/>
<text text-anchor="middle" x="434.5" y="-303.5" font-family="Helvetica,sans-Serif" font-size="10.00" fill="#000000"> </text>
<polyline fill="none" stroke="#bfbfbf" points="368,-296.5 501,-296.5 "/>
<text text-anchor="middle" x="434.5" y="-284.5" font-family="Helvetica,sans-Serif" font-size="10.00" fill="#000000"> </text>
</g>
<!-- Node13&#45;&gt;Node6 -->
<g id="edge8" class="edge">
<title>Node13&#45;&gt;Node6</title>
<path fill="none" stroke="#404040" d="M400.5067,-277.378C388.6009,-265.4271 374.8617,-251.6358 361.5085,-238.232"/>
<polygon fill="none" stroke="#404040" points="361.2817,-238.0044 354.2133,-236.5768 352.8125,-229.5031 359.8809,-230.9306 361.2817,-238.0044"/>
<text text-anchor="middle" x="398.5" y="-251" font-family="Helvetica,sans-Serif" font-size="10.00" fill="#000000"> #tracks</text>
</g>
<!-- Node14 -->
<g id="node10" class="node">
<title>Node14</title>
<polygon fill="none" stroke="#bfbfbf" points="423,-432 423,-489 502,-489 502,-432 423,-432"/>
<text text-anchor="middle" x="462.5" y="-477" font-family="Helvetica,sans-Serif" font-size="10.00" fill="#000000">NavigableMap</text>
<polyline fill="none" stroke="#bfbfbf" points="423,-470 502,-470 "/>
<text text-anchor="middle" x="462.5" y="-458" font-family="Helvetica,sans-Serif" font-size="10.00" fill="#000000"> </text>
<polyline fill="none" stroke="#bfbfbf" points="423,-451 502,-451 "/>
<text text-anchor="middle" x="462.5" y="-439" font-family="Helvetica,sans-Serif" font-size="10.00" fill="#000000"> </text>
</g>
<!-- Node14&#45;&gt;Node13 -->
<g id="edge9" class="edge">
<title>Node14&#45;&gt;Node13</title>
<path fill="none" stroke="#ffa500" d="M455.2192,-421.7559C450.7871,-398.1705 445.1771,-368.3175 440.9128,-345.6252"/>
<polygon fill="#ffa500" stroke="#ffa500" points="451.8146,-422.5898 457.1013,-431.7713 458.6942,-421.2969 451.8146,-422.5898"/>
<text text-anchor="start" x="448.5" y="-378" font-family="Helvetica,sans-Serif" font-size="10.00" fill="#000000"> &lt; String, ene::models</text>
<text text-anchor="middle" x="497" y="-367" font-family="Helvetica,sans-Serif" font-size="10.00" fill="#000000">::TrackModel &gt;</text>
</g>
</g>
</svg>
