<?xml version="1.0" encoding="UTF-8" standalone="no"?>
<!DOCTYPE svg PUBLIC "-//W3C//DTD SVG 1.1//EN"
 "http://www.w3.org/Graphics/SVG/1.1/DTD/svg11.dtd">
<!-- Generated by graphviz version 2.40.1 (20161225.0304)
 -->
<!-- Title: ene.views.gui.partial.LibraryView.LibraryView Pages: 1 -->
<svg width="347pt" height="372pt"
 viewBox="0.00 0.00 347.00 371.50" xmlns="http://www.w3.org/2000/svg" xmlns:xlink="http://www.w3.org/1999/xlink">
<g id="graph0" class="graph" transform="scale(1 1) rotate(0) translate(4 367.5)">
<title>ene.views.gui.partial.LibraryView.LibraryView</title>
<!-- Node0 -->
<g id="node1" class="node">
<title>Node0</title>
<polygon fill="#bfbfbf" stroke="#000000" points="0,-171.5 0,-201.5 138,-201.5 138,-171.5 0,-171.5"/>
<text text-anchor="start" x="8" y="-189.5" font-family="Helvetica,sans-Serif" font-size="10.00" fill="#000000">ene.views.gui.partial.Library</text>
<text text-anchor="middle" x="69" y="-178.5" font-family="Helvetica,sans-Serif" font-size="10.00" fill="#000000">View.LibraryView</text>
</g>
<!-- Node1 -->
<g id="node2" class="node">
<title>Node1</title>
<g id="a_node2"><a xlink:href="interfaceene_1_1interfaces_1_1Model.html#a3cea7a237d6203a77808d998eaf3e7d2" target="_top" xlink:title="ene.interfaces.Model.addView">
<polygon fill="none" stroke="#000000" points="182.5,-344 182.5,-363 330.5,-363 330.5,-344 182.5,-344"/>
<text text-anchor="middle" x="256.5" y="-351" font-family="Helvetica,sans-Serif" font-size="10.00" fill="#000000">ene.interfaces.Model.addView</text>
</a>
</g>
</g>
<!-- Node0&#45;&gt;Node1 -->
<g id="edge1" class="edge">
<title>Node0&#45;&gt;Node1</title>
<path fill="none" stroke="#191970" d="M75.3492,-201.8825C88.7511,-232.3384 122.9547,-300.3184 174,-334.5 176.9596,-336.4819 180.0983,-338.2588 183.3555,-339.8518"/>
<polygon fill="#191970" stroke="#191970" points="182.2267,-343.1752 192.7986,-343.8717 184.9685,-336.7345 182.2267,-343.1752"/>
</g>
<!-- Node2 -->
<g id="node3" class="node">
<title>Node2</title>
<g id="a_node3"><a xlink:href="interfaceene_1_1interfaces_1_1Localization.html#ae7d5c65647a8bd1ca0c27b3279b0751c" target="_top" xlink:title="ene.interfaces.Localization.get\lString">
<polygon fill="none" stroke="#000000" points="182,-294.5 182,-324.5 331,-324.5 331,-294.5 182,-294.5"/>
<text text-anchor="start" x="190" y="-312.5" font-family="Helvetica,sans-Serif" font-size="10.00" fill="#000000">ene.interfaces.Localization.get</text>
<text text-anchor="middle" x="256.5" y="-301.5" font-family="Helvetica,sans-Serif" font-size="10.00" fill="#000000">String</text>
</a>
</g>
</g>
<!-- Node0&#45;&gt;Node2 -->
<g id="edge2" class="edge">
<title>Node0&#45;&gt;Node2</title>
<path fill="none" stroke="#191970" d="M80.9172,-201.5753C98.8462,-223.2617 134.8533,-263.1097 174,-285.5 177.0712,-287.2566 180.2815,-288.8937 183.5787,-290.4184"/>
<polygon fill="#191970" stroke="#191970" points="182.4842,-293.7555 193.058,-294.4235 185.2087,-287.3074 182.4842,-293.7555"/>
</g>
<!-- Node3 -->
<g id="node4" class="node">
<title>Node3</title>
<g id="a_node4"><a xlink:href="classene_1_1views_1_1AbstractView.html#abdae9d407e6cc13b9004049e2327367b" target="_top" xlink:title="ene.views.AbstractView.set\lLayoutPosition">
<polygon fill="none" stroke="#000000" points="187,-245.5 187,-275.5 326,-275.5 326,-245.5 187,-245.5"/>
<text text-anchor="start" x="195" y="-263.5" font-family="Helvetica,sans-Serif" font-size="10.00" fill="#000000">ene.views.AbstractView.set</text>
<text text-anchor="middle" x="256.5" y="-252.5" font-family="Helvetica,sans-Serif" font-size="10.00" fill="#000000">LayoutPosition</text>
</a>
</g>
</g>
<!-- Node0&#45;&gt;Node3 -->
<g id="edge3" class="edge">
<title>Node0&#45;&gt;Node3</title>
<path fill="none" stroke="#191970" d="M97.4225,-201.5726C118.2436,-212.2319 147.3943,-226.3712 174,-236.5 179.3584,-238.5399 184.9676,-240.5084 190.6315,-242.3808"/>
<polygon fill="#191970" stroke="#191970" points="189.5894,-245.7221 200.1804,-245.4368 191.7232,-239.0552 189.5894,-245.7221"/>
</g>
<!-- Node4 -->
<g id="node5" class="node">
<title>Node4</title>
<g id="a_node5"><a xlink:href="classene_1_1views_1_1gui_1_1partial_1_1LibraryView.html#a9080a51c7aee2eaca384b2dde2469e41" target="_top" xlink:title="ene.views.gui.partial.Library\lView.setLibraryController">
<polygon fill="none" stroke="#000000" points="187.5,-196.5 187.5,-226.5 325.5,-226.5 325.5,-196.5 187.5,-196.5"/>
<text text-anchor="start" x="195.5" y="-214.5" font-family="Helvetica,sans-Serif" font-size="10.00" fill="#000000">ene.views.gui.partial.Library</text>
<text text-anchor="middle" x="256.5" y="-203.5" font-family="Helvetica,sans-Serif" font-size="10.00" fill="#000000">View.setLibraryController</text>
</a>
</g>
</g>
<!-- Node0&#45;&gt;Node4 -->
<g id="edge4" class="edge">
<title>Node0&#45;&gt;Node4</title>
<path fill="none" stroke="#191970" d="M138.0193,-195.7026C150.8334,-197.4111 164.3114,-199.2082 177.3989,-200.9532"/>
<polygon fill="#191970" stroke="#191970" points="176.9385,-204.4227 187.3134,-202.2751 177.8637,-197.4841 176.9385,-204.4227"/>
</g>
<!-- Node5 -->
<g id="node6" class="node">
<title>Node5</title>
<g id="a_node6"><a xlink:href="classene_1_1views_1_1AbstractPartialView.html#a68e5b7c7280559531bad5eed28f711e4" target="_top" xlink:title="ene.views.AbstractPartial\lView.setModel">
<polygon fill="none" stroke="#000000" points="192.5,-147.5 192.5,-177.5 320.5,-177.5 320.5,-147.5 192.5,-147.5"/>
<text text-anchor="start" x="200.5" y="-165.5" font-family="Helvetica,sans-Serif" font-size="10.00" fill="#000000">ene.views.AbstractPartial</text>
<text text-anchor="middle" x="256.5" y="-154.5" font-family="Helvetica,sans-Serif" font-size="10.00" fill="#000000">View.setModel</text>
</a>
</g>
</g>
<!-- Node0&#45;&gt;Node5 -->
<g id="edge5" class="edge">
<title>Node0&#45;&gt;Node5</title>
<path fill="none" stroke="#191970" d="M138.0193,-177.6655C152.4421,-175.8194 167.706,-173.8656 182.3074,-171.9967"/>
<polygon fill="#191970" stroke="#191970" points="182.8171,-175.4601 192.2918,-170.7187 181.9283,-168.5167 182.8171,-175.4601"/>
</g>
<!-- Node6 -->
<g id="node7" class="node">
<title>Node6</title>
<g id="a_node7"><a xlink:href="classene_1_1views_1_1gui_1_1partial_1_1AbstractTrackListView.html#aeb9bb5453047aacde2dc548df4025179" target="_top" xlink:title="ene.views.gui.partial.Abstract\lTrackListView.setPlayerController">
<polygon fill="none" stroke="#000000" points="174,-98.5 174,-128.5 339,-128.5 339,-98.5 174,-98.5"/>
<text text-anchor="start" x="182" y="-116.5" font-family="Helvetica,sans-Serif" font-size="10.00" fill="#000000">ene.views.gui.partial.Abstract</text>
<text text-anchor="middle" x="256.5" y="-105.5" font-family="Helvetica,sans-Serif" font-size="10.00" fill="#000000">TrackListView.setPlayerController</text>
</a>
</g>
</g>
<!-- Node0&#45;&gt;Node6 -->
<g id="edge6" class="edge">
<title>Node0&#45;&gt;Node6</title>
<path fill="none" stroke="#191970" d="M99.3221,-171.3228C120.0499,-161.276 148.3151,-148.2121 174,-138.5 180.2076,-136.1528 186.74,-133.8686 193.2985,-131.6961"/>
<polygon fill="#191970" stroke="#191970" points="194.4505,-135.0021 202.8912,-128.5986 192.2995,-128.3407 194.4505,-135.0021"/>
</g>
<!-- Node7 -->
<g id="node8" class="node">
<title>Node7</title>
<g id="a_node8"><a xlink:href="classene_1_1views_1_1gui_1_1partial_1_1LibraryView.html#a9775682cdcef105aca6a593613258d26" target="_top" xlink:title="ene.views.gui.partial.Library\lView.setPlaylistController">
<polygon fill="none" stroke="#000000" points="187.5,-49.5 187.5,-79.5 325.5,-79.5 325.5,-49.5 187.5,-49.5"/>
<text text-anchor="start" x="195.5" y="-67.5" font-family="Helvetica,sans-Serif" font-size="10.00" fill="#000000">ene.views.gui.partial.Library</text>
<text text-anchor="middle" x="256.5" y="-56.5" font-family="Helvetica,sans-Serif" font-size="10.00" fill="#000000">View.setPlaylistController</text>
</a>
</g>
</g>
<!-- Node0&#45;&gt;Node7 -->
<g id="edge7" class="edge">
<title>Node0&#45;&gt;Node7</title>
<path fill="none" stroke="#191970" d="M81.3205,-171.4435C99.4742,-150.2028 135.4495,-111.5738 174,-89.5 177.7258,-87.3666 181.6526,-85.3974 185.6886,-83.5824"/>
<polygon fill="#191970" stroke="#191970" points="187.3581,-86.6795 195.2606,-79.6225 184.6821,-80.2111 187.3581,-86.6795"/>
</g>
<!-- Node8 -->
<g id="node9" class="node">
<title>Node8</title>
<g id="a_node9"><a xlink:href="classene_1_1views_1_1AbstractView.html#a95a682cf88e2d16d42d56d84bb360e91" target="_top" xlink:title="ene.views.AbstractView.set\lTitle">
<polygon fill="none" stroke="#000000" points="187,-.5 187,-30.5 326,-30.5 326,-.5 187,-.5"/>
<text text-anchor="start" x="195" y="-18.5" font-family="Helvetica,sans-Serif" font-size="10.00" fill="#000000">ene.views.AbstractView.set</text>
<text text-anchor="middle" x="256.5" y="-7.5" font-family="Helvetica,sans-Serif" font-size="10.00" fill="#000000">Title</text>
</a>
</g>
</g>
<!-- Node0&#45;&gt;Node8 -->
<g id="edge8" class="edge">
<title>Node0&#45;&gt;Node8</title>
<path fill="none" stroke="#191970" d="M75.8235,-171.1567C89.8359,-141.41 124.7308,-75.7313 174,-40.5 176.6782,-38.5848 179.5055,-36.8142 182.4362,-35.1774"/>
<polygon fill="#191970" stroke="#191970" points="184.1087,-38.2545 191.4939,-30.6579 180.9833,-31.9909 184.1087,-38.2545"/>
</g>
</g>
</svg>
