<?xml version="1.0" encoding="UTF-8" standalone="no"?>
<!DOCTYPE svg PUBLIC "-//W3C//DTD SVG 1.1//EN"
 "http://www.w3.org/Graphics/SVG/1.1/DTD/svg11.dtd">
<!-- Generated by graphviz version 2.40.1 (20161225.0304)
 -->
<!-- Title: ene.views.gui.partial.LibraryView Pages: 1 -->
<svg width="900pt" height="1137pt"
 viewBox="0.00 0.00 899.50 1137.00" xmlns="http://www.w3.org/2000/svg" xmlns:xlink="http://www.w3.org/1999/xlink">
<g id="graph0" class="graph" transform="scale(1 1) rotate(0) translate(4 1133)">
<title>ene.views.gui.partial.LibraryView</title>
<!-- Node9 -->
<g id="node1" class="node">
<title>Node9</title>
<polygon fill="#bfbfbf" stroke="#000000" points="439,-.5 439,-112.5 599,-112.5 599,-.5 439,-.5"/>
<text text-anchor="middle" x="519" y="-100.5" font-family="Helvetica,sans-Serif" font-size="10.00" fill="#000000">ene.views.gui.partial.LibraryView</text>
<polyline fill="none" stroke="#000000" points="439,-93.5 599,-93.5 "/>
<text text-anchor="middle" x="519" y="-81.5" font-family="Helvetica,sans-Serif" font-size="10.00" fill="#000000"> </text>
<polyline fill="none" stroke="#000000" points="439,-74.5 599,-74.5 "/>
<text text-anchor="start" x="447" y="-62.5" font-family="Helvetica,sans-Serif" font-size="10.00" fill="#000000">+ LibraryView()</text>
<text text-anchor="start" x="447" y="-51.5" font-family="Helvetica,sans-Serif" font-size="10.00" fill="#000000">+ update()</text>
<text text-anchor="start" x="447" y="-40.5" font-family="Helvetica,sans-Serif" font-size="10.00" fill="#000000">+ render()</text>
<text text-anchor="start" x="447" y="-29.5" font-family="Helvetica,sans-Serif" font-size="10.00" fill="#000000"># setLibraryController()</text>
<text text-anchor="start" x="447" y="-18.5" font-family="Helvetica,sans-Serif" font-size="10.00" fill="#000000"># getLibraryController()</text>
<text text-anchor="start" x="447" y="-7.5" font-family="Helvetica,sans-Serif" font-size="10.00" fill="#000000"># loadContent()</text>
</g>
<!-- Node10 -->
<g id="node2" class="node">
<title>Node10</title>
<g id="a_node2"><a xlink:href="classene_1_1views_1_1gui_1_1partial_1_1AbstractTrackListView.html" target="_top" xlink:title="{ene.views.gui.partial.Abstract\lTrackListView\n||+ valueChanged()\l# setTable()\l# getTable()\l# setTableContent()\l# getTableContent()\l# setPlayerController()\l# getPlayerController()\l# hideColumn()\l# getSelectedFilename()\l}">
<polygon fill="none" stroke="#000000" points="367,-150.5 367,-306.5 513,-306.5 513,-150.5 367,-150.5"/>
<text text-anchor="start" x="375" y="-294.5" font-family="Helvetica,sans-Serif" font-size="10.00" fill="#000000">ene.views.gui.partial.Abstract</text>
<text text-anchor="middle" x="440" y="-283.5" font-family="Helvetica,sans-Serif" font-size="10.00" fill="#000000">TrackListView</text>
<polyline fill="none" stroke="#000000" points="367,-276.5 513,-276.5 "/>
<text text-anchor="middle" x="440" y="-264.5" font-family="Helvetica,sans-Serif" font-size="10.00" fill="#000000"> </text>
<polyline fill="none" stroke="#000000" points="367,-257.5 513,-257.5 "/>
<text text-anchor="start" x="375" y="-245.5" font-family="Helvetica,sans-Serif" font-size="10.00" fill="#000000">+ valueChanged()</text>
<text text-anchor="start" x="375" y="-234.5" font-family="Helvetica,sans-Serif" font-size="10.00" fill="#000000"># setTable()</text>
<text text-anchor="start" x="375" y="-223.5" font-family="Helvetica,sans-Serif" font-size="10.00" fill="#000000"># getTable()</text>
<text text-anchor="start" x="375" y="-212.5" font-family="Helvetica,sans-Serif" font-size="10.00" fill="#000000"># setTableContent()</text>
<text text-anchor="start" x="375" y="-201.5" font-family="Helvetica,sans-Serif" font-size="10.00" fill="#000000"># getTableContent()</text>
<text text-anchor="start" x="375" y="-190.5" font-family="Helvetica,sans-Serif" font-size="10.00" fill="#000000"># setPlayerController()</text>
<text text-anchor="start" x="375" y="-179.5" font-family="Helvetica,sans-Serif" font-size="10.00" fill="#000000"># getPlayerController()</text>
<text text-anchor="start" x="375" y="-168.5" font-family="Helvetica,sans-Serif" font-size="10.00" fill="#000000"># hideColumn()</text>
<text text-anchor="start" x="375" y="-157.5" font-family="Helvetica,sans-Serif" font-size="10.00" fill="#000000"># getSelectedFilename()</text>
</a>
</g>
</g>
<!-- Node10&#45;&gt;Node9 -->
<g id="edge1" class="edge">
<title>Node10&#45;&gt;Node9</title>
<path fill="none" stroke="#191970" d="M480.163,-141.0564C484.5958,-131.4055 489.0173,-121.7787 493.2044,-112.6626"/>
<polygon fill="none" stroke="#191970" points="476.9103,-139.7528 475.917,-150.301 483.2714,-142.6745 476.9103,-139.7528"/>
</g>
<!-- Node11 -->
<g id="node3" class="node">
<title>Node11</title>
<g id="a_node3"><a xlink:href="classene_1_1views_1_1AbstractPartialView.html" target="_top" xlink:title="{ene::views::AbstractPartial\lView\&lt; JPanel, TrackListModel \&gt;\n||+ setModel()\l+ getModel()\l}">
<polygon fill="none" stroke="#000000" points="386.5,-569.5 386.5,-648.5 545.5,-648.5 545.5,-569.5 386.5,-569.5"/>
<text text-anchor="start" x="394.5" y="-636.5" font-family="Helvetica,sans-Serif" font-size="10.00" fill="#000000">ene::views::AbstractPartial</text>
<text text-anchor="middle" x="466" y="-625.5" font-family="Helvetica,sans-Serif" font-size="10.00" fill="#000000">View&lt; JPanel, TrackListModel &gt;</text>
<polyline fill="none" stroke="#000000" points="386.5,-618.5 545.5,-618.5 "/>
<text text-anchor="middle" x="466" y="-606.5" font-family="Helvetica,sans-Serif" font-size="10.00" fill="#000000"> </text>
<polyline fill="none" stroke="#000000" points="386.5,-599.5 545.5,-599.5 "/>
<text text-anchor="start" x="394.5" y="-587.5" font-family="Helvetica,sans-Serif" font-size="10.00" fill="#000000">+ setModel()</text>
<text text-anchor="start" x="394.5" y="-576.5" font-family="Helvetica,sans-Serif" font-size="10.00" fill="#000000">+ getModel()</text>
</a>
</g>
</g>
<!-- Node11&#45;&gt;Node10 -->
<g id="edge2" class="edge">
<title>Node11&#45;&gt;Node10</title>
<path fill="none" stroke="#191970" d="M464.6704,-559.2922C462.8923,-502.5385 459.1053,-406.9496 452,-325 451.4823,-319.0291 450.8774,-312.8585 450.2195,-306.6584"/>
<polygon fill="none" stroke="#191970" points="461.1762,-559.5368 464.9794,-569.4254 468.1729,-559.3233 461.1762,-559.5368"/>
</g>
<!-- Node12 -->
<g id="node4" class="node">
<title>Node12</title>
<g id="a_node4"><a xlink:href="classene_1_1views_1_1AbstractView.html" target="_top" xlink:title="{ene::views::AbstractView\l\&lt; CoreComponentType \&gt;\n||+ setTitle()\l+ getTitle()\l+ setCoreComponent()\l+ getCoreComponent()\l+ setLayoutPosition()\l+ getLayoutPosition()\l}">
<polygon fill="none" stroke="#000000" points="443,-707.5 443,-830.5 571,-830.5 571,-707.5 443,-707.5"/>
<text text-anchor="start" x="451" y="-818.5" font-family="Helvetica,sans-Serif" font-size="10.00" fill="#000000">ene::views::AbstractView</text>
<text text-anchor="middle" x="507" y="-807.5" font-family="Helvetica,sans-Serif" font-size="10.00" fill="#000000">&lt; CoreComponentType &gt;</text>
<polyline fill="none" stroke="#000000" points="443,-800.5 571,-800.5 "/>
<text text-anchor="middle" x="507" y="-788.5" font-family="Helvetica,sans-Serif" font-size="10.00" fill="#000000"> </text>
<polyline fill="none" stroke="#000000" points="443,-781.5 571,-781.5 "/>
<text text-anchor="start" x="451" y="-769.5" font-family="Helvetica,sans-Serif" font-size="10.00" fill="#000000">+ setTitle()</text>
<text text-anchor="start" x="451" y="-758.5" font-family="Helvetica,sans-Serif" font-size="10.00" fill="#000000">+ getTitle()</text>
<text text-anchor="start" x="451" y="-747.5" font-family="Helvetica,sans-Serif" font-size="10.00" fill="#000000">+ setCoreComponent()</text>
<text text-anchor="start" x="451" y="-736.5" font-family="Helvetica,sans-Serif" font-size="10.00" fill="#000000">+ getCoreComponent()</text>
<text text-anchor="start" x="451" y="-725.5" font-family="Helvetica,sans-Serif" font-size="10.00" fill="#000000">+ setLayoutPosition()</text>
<text text-anchor="start" x="451" y="-714.5" font-family="Helvetica,sans-Serif" font-size="10.00" fill="#000000">+ getLayoutPosition()</text>
</a>
</g>
</g>
<!-- Node12&#45;&gt;Node11 -->
<g id="edge3" class="edge">
<title>Node12&#45;&gt;Node11</title>
<path fill="none" stroke="#191970" d="M488.6377,-697.3423C484.3389,-680.5665 479.9134,-663.296 476.1283,-648.5249"/>
<polygon fill="none" stroke="#191970" points="485.2755,-698.3216 491.1483,-707.1398 492.0564,-696.584 485.2755,-698.3216"/>
</g>
<!-- Node13 -->
<g id="node5" class="node">
<title>Node13</title>
<g id="a_node5"><a xlink:href="classene_1_1AbstractObject.html" target="_top" xlink:title="{ene.AbstractObject\n||+ enableDebugMode()\l+ disableDebugMode()\l+ isDebugModeEnabled()\l+ debugInfoAbout()\l+ consoleOutput()\l# delay()\l}">
<polygon fill="none" stroke="#000000" points="260.5,-900.5 260.5,-1012.5 387.5,-1012.5 387.5,-900.5 260.5,-900.5"/>
<text text-anchor="middle" x="324" y="-1000.5" font-family="Helvetica,sans-Serif" font-size="10.00" fill="#000000">ene.AbstractObject</text>
<polyline fill="none" stroke="#000000" points="260.5,-993.5 387.5,-993.5 "/>
<text text-anchor="middle" x="324" y="-981.5" font-family="Helvetica,sans-Serif" font-size="10.00" fill="#000000"> </text>
<polyline fill="none" stroke="#000000" points="260.5,-974.5 387.5,-974.5 "/>
<text text-anchor="start" x="268.5" y="-962.5" font-family="Helvetica,sans-Serif" font-size="10.00" fill="#000000">+ enableDebugMode()</text>
<text text-anchor="start" x="268.5" y="-951.5" font-family="Helvetica,sans-Serif" font-size="10.00" fill="#000000">+ disableDebugMode()</text>
<text text-anchor="start" x="268.5" y="-940.5" font-family="Helvetica,sans-Serif" font-size="10.00" fill="#000000">+ isDebugModeEnabled()</text>
<text text-anchor="start" x="268.5" y="-929.5" font-family="Helvetica,sans-Serif" font-size="10.00" fill="#000000">+ debugInfoAbout()</text>
<text text-anchor="start" x="268.5" y="-918.5" font-family="Helvetica,sans-Serif" font-size="10.00" fill="#000000">+ consoleOutput()</text>
<text text-anchor="start" x="268.5" y="-907.5" font-family="Helvetica,sans-Serif" font-size="10.00" fill="#000000"># delay()</text>
</a>
</g>
</g>
<!-- Node13&#45;&gt;Node12 -->
<g id="edge4" class="edge">
<title>Node13&#45;&gt;Node12</title>
<path fill="none" stroke="#191970" d="M385.8169,-893.163C405.5222,-872.9732 427.2873,-850.6729 446.8711,-830.6075"/>
<polygon fill="none" stroke="#191970" points="383.1381,-890.8967 378.6582,-900.4978 388.1476,-895.786 383.1381,-890.8967"/>
</g>
<!-- Node25 -->
<g id="node17" class="node">
<title>Node25</title>
<g id="a_node17"><a xlink:href="classene_1_1controllers_1_1AbstractController.html" target="_top" xlink:title="{ene.controllers.Abstract\lController\&lt; ModelType \&gt;\n||+ setModel()\l+ getModel()\l}">
<polygon fill="none" stroke="#000000" points="137.5,-729.5 137.5,-808.5 262.5,-808.5 262.5,-729.5 137.5,-729.5"/>
<text text-anchor="start" x="145.5" y="-796.5" font-family="Helvetica,sans-Serif" font-size="10.00" fill="#000000">ene.controllers.Abstract</text>
<text text-anchor="middle" x="200" y="-785.5" font-family="Helvetica,sans-Serif" font-size="10.00" fill="#000000">Controller&lt; ModelType &gt;</text>
<polyline fill="none" stroke="#000000" points="137.5,-778.5 262.5,-778.5 "/>
<text text-anchor="middle" x="200" y="-766.5" font-family="Helvetica,sans-Serif" font-size="10.00" fill="#000000"> </text>
<polyline fill="none" stroke="#000000" points="137.5,-759.5 262.5,-759.5 "/>
<text text-anchor="start" x="145.5" y="-747.5" font-family="Helvetica,sans-Serif" font-size="10.00" fill="#000000">+ setModel()</text>
<text text-anchor="start" x="145.5" y="-736.5" font-family="Helvetica,sans-Serif" font-size="10.00" fill="#000000">+ getModel()</text>
</a>
</g>
</g>
<!-- Node13&#45;&gt;Node25 -->
<g id="edge18" class="edge">
<title>Node13&#45;&gt;Node25</title>
<path fill="none" stroke="#191970" d="M281.3676,-892.0357C263.0496,-864.3372 242.2243,-832.8472 226.2279,-808.6592"/>
<polygon fill="none" stroke="#191970" points="278.5283,-894.0875 286.9639,-900.4978 284.367,-890.2261 278.5283,-894.0875"/>
</g>
<!-- Node14 -->
<g id="node6" class="node">
<title>Node14</title>
<polygon fill="none" stroke="#bfbfbf" points="285.5,-1071.5 285.5,-1128.5 362.5,-1128.5 362.5,-1071.5 285.5,-1071.5"/>
<text text-anchor="middle" x="324" y="-1116.5" font-family="Helvetica,sans-Serif" font-size="10.00" fill="#000000">static boolean</text>
<polyline fill="none" stroke="#bfbfbf" points="285.5,-1109.5 362.5,-1109.5 "/>
<text text-anchor="middle" x="324" y="-1097.5" font-family="Helvetica,sans-Serif" font-size="10.00" fill="#000000"> </text>
<polyline fill="none" stroke="#bfbfbf" points="285.5,-1090.5 362.5,-1090.5 "/>
<text text-anchor="middle" x="324" y="-1078.5" font-family="Helvetica,sans-Serif" font-size="10.00" fill="#000000"> </text>
</g>
<!-- Node14&#45;&gt;Node13 -->
<g id="edge5" class="edge">
<title>Node14&#45;&gt;Node13</title>
<path fill="none" stroke="#404040" d="M324,-1071.3055C324,-1057.9442 324,-1041.4218 324,-1025.1157"/>
<polygon fill="none" stroke="#404040" points="324.0001,-1024.7445 320,-1018.7445 324,-1012.7445 328,-1018.7444 324.0001,-1024.7445"/>
<text text-anchor="middle" x="371" y="-1045" font-family="Helvetica,sans-Serif" font-size="10.00" fill="#000000"> #debugModeEnabled</text>
</g>
<!-- Node15 -->
<g id="node7" class="node">
<title>Node15</title>
<g id="a_node7"><a xlink:href="interfaceene_1_1interfaces_1_1View.html" target="_top" xlink:title="{ene::interfaces::View\l\&lt; CoreComponentType \&gt;\n||+ setTitle()\l+ getTitle()\l+ setCoreComponent()\l+ getCoreComponent()\l+ setLayoutPosition()\l+ getLayoutPosition()\l+ render()\l}">
<polygon fill="none" stroke="#000000" points="747,-889.5 747,-1023.5 875,-1023.5 875,-889.5 747,-889.5"/>
<text text-anchor="start" x="755" y="-1011.5" font-family="Helvetica,sans-Serif" font-size="10.00" fill="#000000">ene::interfaces::View</text>
<text text-anchor="middle" x="811" y="-1000.5" font-family="Helvetica,sans-Serif" font-size="10.00" fill="#000000">&lt; CoreComponentType &gt;</text>
<polyline fill="none" stroke="#000000" points="747,-993.5 875,-993.5 "/>
<text text-anchor="middle" x="811" y="-981.5" font-family="Helvetica,sans-Serif" font-size="10.00" fill="#000000"> </text>
<polyline fill="none" stroke="#000000" points="747,-974.5 875,-974.5 "/>
<text text-anchor="start" x="755" y="-962.5" font-family="Helvetica,sans-Serif" font-size="10.00" fill="#000000">+ setTitle()</text>
<text text-anchor="start" x="755" y="-951.5" font-family="Helvetica,sans-Serif" font-size="10.00" fill="#000000">+ getTitle()</text>
<text text-anchor="start" x="755" y="-940.5" font-family="Helvetica,sans-Serif" font-size="10.00" fill="#000000">+ setCoreComponent()</text>
<text text-anchor="start" x="755" y="-929.5" font-family="Helvetica,sans-Serif" font-size="10.00" fill="#000000">+ getCoreComponent()</text>
<text text-anchor="start" x="755" y="-918.5" font-family="Helvetica,sans-Serif" font-size="10.00" fill="#000000">+ setLayoutPosition()</text>
<text text-anchor="start" x="755" y="-907.5" font-family="Helvetica,sans-Serif" font-size="10.00" fill="#000000">+ getLayoutPosition()</text>
<text text-anchor="start" x="755" y="-896.5" font-family="Helvetica,sans-Serif" font-size="10.00" fill="#000000">+ render()</text>
</a>
</g>
</g>
<!-- Node15&#45;&gt;Node12 -->
<g id="edge6" class="edge">
<title>Node15&#45;&gt;Node12</title>
<path fill="none" stroke="#191970" d="M739.6023,-882.649C725.8211,-870.5104 710.9871,-858.7349 696,-849 657.1551,-823.7684 609.024,-803.5327 571.055,-789.7256"/>
<polygon fill="none" stroke="#191970" points="737.3649,-885.3439 747.1445,-889.4194 742.0409,-880.1348 737.3649,-885.3439"/>
</g>
<!-- Node20 -->
<g id="node12" class="node">
<title>Node20</title>
<g id="a_node12"><a xlink:href="interfaceene_1_1interfaces_1_1PartialView.html" target="_top" xlink:title="{ene::interfaces::Partial\lView\&lt; CoreComponentType,\l ModelType \&gt;\n||+ setModel()\l+ getModel()\l+ update()\l}">
<polygon fill="none" stroke="#000000" points="748.5,-718.5 748.5,-819.5 891.5,-819.5 891.5,-718.5 748.5,-718.5"/>
<text text-anchor="start" x="756.5" y="-807.5" font-family="Helvetica,sans-Serif" font-size="10.00" fill="#000000">ene::interfaces::Partial</text>
<text text-anchor="start" x="756.5" y="-796.5" font-family="Helvetica,sans-Serif" font-size="10.00" fill="#000000">View&lt; CoreComponentType,</text>
<text text-anchor="middle" x="820" y="-785.5" font-family="Helvetica,sans-Serif" font-size="10.00" fill="#000000"> ModelType &gt;</text>
<polyline fill="none" stroke="#000000" points="748.5,-778.5 891.5,-778.5 "/>
<text text-anchor="middle" x="820" y="-766.5" font-family="Helvetica,sans-Serif" font-size="10.00" fill="#000000"> </text>
<polyline fill="none" stroke="#000000" points="748.5,-759.5 891.5,-759.5 "/>
<text text-anchor="start" x="756.5" y="-747.5" font-family="Helvetica,sans-Serif" font-size="10.00" fill="#000000">+ setModel()</text>
<text text-anchor="start" x="756.5" y="-736.5" font-family="Helvetica,sans-Serif" font-size="10.00" fill="#000000">+ getModel()</text>
<text text-anchor="start" x="756.5" y="-725.5" font-family="Helvetica,sans-Serif" font-size="10.00" fill="#000000">+ update()</text>
</a>
</g>
</g>
<!-- Node15&#45;&gt;Node20 -->
<g id="edge12" class="edge">
<title>Node15&#45;&gt;Node20</title>
<path fill="none" stroke="#191970" d="M814.7088,-879.2324C815.6761,-859.0805 816.6938,-837.8796 817.5754,-819.5135"/>
<polygon fill="none" stroke="#191970" points="811.2074,-879.1815 814.2238,-889.3378 818.1993,-879.5171 811.2074,-879.1815"/>
</g>
<!-- Node16 -->
<g id="node8" class="node">
<title>Node16</title>
<g id="a_node8"><a xlink:href="interfaceene_1_1interfaces_1_1Localization.html" target="_top" xlink:title="{ene.interfaces.Localization\n||+ getString()\l}">
<polygon fill="none" stroke="#000000" points="405.5,-928 405.5,-985 538.5,-985 538.5,-928 405.5,-928"/>
<text text-anchor="middle" x="472" y="-973" font-family="Helvetica,sans-Serif" font-size="10.00" fill="#000000">ene.interfaces.Localization</text>
<polyline fill="none" stroke="#000000" points="405.5,-966 538.5,-966 "/>
<text text-anchor="middle" x="472" y="-954" font-family="Helvetica,sans-Serif" font-size="10.00" fill="#000000"> </text>
<polyline fill="none" stroke="#000000" points="405.5,-947 538.5,-947 "/>
<text text-anchor="start" x="413.5" y="-935" font-family="Helvetica,sans-Serif" font-size="10.00" fill="#000000">+ getString()</text>
</a>
</g>
</g>
<!-- Node16&#45;&gt;Node12 -->
<g id="edge7" class="edge">
<title>Node16&#45;&gt;Node12</title>
<path fill="none" stroke="#191970" d="M479.2397,-917.7157C483.9349,-892.5632 490.1534,-859.2497 495.5145,-830.5294"/>
<polygon fill="none" stroke="#191970" points="475.7865,-917.1416 477.392,-927.614 482.6677,-918.4261 475.7865,-917.1416"/>
</g>
<!-- Node17 -->
<g id="node9" class="node">
<title>Node17</title>
<polygon fill="none" stroke="#bfbfbf" points="427,-1071.5 427,-1128.5 517,-1128.5 517,-1071.5 427,-1071.5"/>
<text text-anchor="middle" x="472" y="-1116.5" font-family="Helvetica,sans-Serif" font-size="10.00" fill="#000000">static final String</text>
<polyline fill="none" stroke="#bfbfbf" points="427,-1109.5 517,-1109.5 "/>
<text text-anchor="middle" x="472" y="-1097.5" font-family="Helvetica,sans-Serif" font-size="10.00" fill="#000000"> </text>
<polyline fill="none" stroke="#bfbfbf" points="427,-1090.5 517,-1090.5 "/>
<text text-anchor="middle" x="472" y="-1078.5" font-family="Helvetica,sans-Serif" font-size="10.00" fill="#000000"> </text>
</g>
<!-- Node17&#45;&gt;Node16 -->
<g id="edge8" class="edge">
<title>Node17&#45;&gt;Node16</title>
<path fill="none" stroke="#404040" d="M472,-1071.3055C472,-1050.0904 472,-1020.9058 472,-997.2714"/>
<polygon fill="none" stroke="#404040" points="472.0001,-997.1447 468,-991.1448 472,-985.1447 476,-991.1447 472.0001,-997.1447"/>
<text text-anchor="middle" x="522" y="-1045" font-family="Helvetica,sans-Serif" font-size="10.00" fill="#000000"> +DEFAULT_LOCALE</text>
</g>
<!-- Node18 -->
<g id="node10" class="node">
<title>Node18</title>
<polygon fill="none" stroke="#bfbfbf" points="685,-928 685,-985 727,-985 727,-928 685,-928"/>
<text text-anchor="middle" x="706" y="-973" font-family="Helvetica,sans-Serif" font-size="10.00" fill="#000000">String</text>
<polyline fill="none" stroke="#bfbfbf" points="685,-966 727,-966 "/>
<text text-anchor="middle" x="706" y="-954" font-family="Helvetica,sans-Serif" font-size="10.00" fill="#000000"> </text>
<polyline fill="none" stroke="#bfbfbf" points="685,-947 727,-947 "/>
<text text-anchor="middle" x="706" y="-935" font-family="Helvetica,sans-Serif" font-size="10.00" fill="#000000"> </text>
</g>
<!-- Node18&#45;&gt;Node12 -->
<g id="edge9" class="edge">
<title>Node18&#45;&gt;Node12</title>
<path fill="none" stroke="#404040" d="M699.0128,-927.6704C694.4529,-914.3078 687.2037,-899.1718 676,-889 657.2697,-871.9948 643.6664,-884.0602 622,-871 609.8851,-863.6973 609.4512,-858.5326 599,-849 593.011,-843.5374 586.755,-837.9189 580.4459,-832.3133"/>
<polygon fill="none" stroke="#404040" points="580.1794,-832.0777 573.0348,-831.1003 571.1892,-824.1293 578.3338,-825.1068 580.1794,-832.0777"/>
<text text-anchor="middle" x="657" y="-863" font-family="Helvetica,sans-Serif" font-size="10.00" fill="#000000"> #layoutPosition</text>
<text text-anchor="middle" x="657" y="-852" font-family="Helvetica,sans-Serif" font-size="10.00" fill="#000000">#title</text>
</g>
<!-- Node29 -->
<g id="node21" class="node">
<title>Node29</title>
<g id="a_node21"><a xlink:href="classene_1_1controllers_1_1LibraryController.html" target="_top" xlink:title="{ene.controllers.LibraryController\n||+ LibraryController()\l+ LibraryController()\l+ loadFromFile()\l+ saveToFile()\l+ add()\l+ remove()\l# setDatabaseFilename()\l# getDatabaseFilename()\l# addFile()\l# addDirectoryContent()\l# scan()\l}">
<polygon fill="none" stroke="#000000" points="619.5,-354.5 619.5,-521.5 774.5,-521.5 774.5,-354.5 619.5,-354.5"/>
<text text-anchor="middle" x="697" y="-509.5" font-family="Helvetica,sans-Serif" font-size="10.00" fill="#000000">ene.controllers.LibraryController</text>
<polyline fill="none" stroke="#000000" points="619.5,-502.5 774.5,-502.5 "/>
<text text-anchor="middle" x="697" y="-490.5" font-family="Helvetica,sans-Serif" font-size="10.00" fill="#000000"> </text>
<polyline fill="none" stroke="#000000" points="619.5,-483.5 774.5,-483.5 "/>
<text text-anchor="start" x="627.5" y="-471.5" font-family="Helvetica,sans-Serif" font-size="10.00" fill="#000000">+ LibraryController()</text>
<text text-anchor="start" x="627.5" y="-460.5" font-family="Helvetica,sans-Serif" font-size="10.00" fill="#000000">+ LibraryController()</text>
<text text-anchor="start" x="627.5" y="-449.5" font-family="Helvetica,sans-Serif" font-size="10.00" fill="#000000">+ loadFromFile()</text>
<text text-anchor="start" x="627.5" y="-438.5" font-family="Helvetica,sans-Serif" font-size="10.00" fill="#000000">+ saveToFile()</text>
<text text-anchor="start" x="627.5" y="-427.5" font-family="Helvetica,sans-Serif" font-size="10.00" fill="#000000">+ add()</text>
<text text-anchor="start" x="627.5" y="-416.5" font-family="Helvetica,sans-Serif" font-size="10.00" fill="#000000">+ remove()</text>
<text text-anchor="start" x="627.5" y="-405.5" font-family="Helvetica,sans-Serif" font-size="10.00" fill="#000000"># setDatabaseFilename()</text>
<text text-anchor="start" x="627.5" y="-394.5" font-family="Helvetica,sans-Serif" font-size="10.00" fill="#000000"># getDatabaseFilename()</text>
<text text-anchor="start" x="627.5" y="-383.5" font-family="Helvetica,sans-Serif" font-size="10.00" fill="#000000"># addFile()</text>
<text text-anchor="start" x="627.5" y="-372.5" font-family="Helvetica,sans-Serif" font-size="10.00" fill="#000000"># addDirectoryContent()</text>
<text text-anchor="start" x="627.5" y="-361.5" font-family="Helvetica,sans-Serif" font-size="10.00" fill="#000000"># scan()</text>
</a>
</g>
</g>
<!-- Node18&#45;&gt;Node29 -->
<g id="edge26" class="edge">
<title>Node18&#45;&gt;Node29</title>
<path fill="none" stroke="#404040" d="M705.5033,-927.8846C704.2207,-853.9941 700.7525,-654.1866 698.6628,-533.7983"/>
<polygon fill="none" stroke="#404040" points="698.6609,-533.6822 694.5573,-527.7525 698.4526,-521.684 702.5561,-527.6136 698.6609,-533.6822"/>
<text text-anchor="middle" x="751" y="-681" font-family="Helvetica,sans-Serif" font-size="10.00" fill="#000000"> #DATABASE_TABLE</text>
<text text-anchor="middle" x="751" y="-670" font-family="Helvetica,sans-Serif" font-size="10.00" fill="#000000">#databaseFilename</text>
</g>
<!-- Node19 -->
<g id="node11" class="node">
<title>Node19</title>
<polygon fill="none" stroke="#bfbfbf" points="557,-928 557,-985 667,-985 667,-928 557,-928"/>
<text text-anchor="middle" x="612" y="-973" font-family="Helvetica,sans-Serif" font-size="10.00" fill="#000000">CoreComponentType</text>
<polyline fill="none" stroke="#bfbfbf" points="557,-966 667,-966 "/>
<text text-anchor="middle" x="612" y="-954" font-family="Helvetica,sans-Serif" font-size="10.00" fill="#000000"> </text>
<polyline fill="none" stroke="#bfbfbf" points="557,-947 667,-947 "/>
<text text-anchor="middle" x="612" y="-935" font-family="Helvetica,sans-Serif" font-size="10.00" fill="#000000"> </text>
</g>
<!-- Node19&#45;&gt;Node12 -->
<g id="edge10" class="edge">
<title>Node19&#45;&gt;Node12</title>
<path fill="none" stroke="#404040" d="M587.4656,-927.849C576.0623,-915.2852 561.9569,-900.7559 548,-889 536.9693,-879.7089 528.656,-883.2224 521,-871 515.6123,-862.3988 511.9259,-852.5951 509.451,-842.5456"/>
<polygon fill="none" stroke="#404040" points="509.4336,-842.4581 504.3315,-837.3622 507.0731,-830.6926 512.1752,-835.7885 509.4336,-842.4581"/>
<text text-anchor="middle" x="560" y="-857.5" font-family="Helvetica,sans-Serif" font-size="10.00" fill="#000000"> #coreComponent</text>
</g>
<!-- Node20&#45;&gt;Node11 -->
<g id="edge11" class="edge">
<title>Node20&#45;&gt;Node11</title>
<path fill="none" stroke="#191970" d="M825.2314,-708.2636C823.392,-692.856 818.2762,-677.6675 807,-667 786.6078,-647.7086 582.2204,-655.8592 555,-649 551.8789,-648.2135 548.7309,-647.3235 545.5771,-646.3495"/>
<polygon fill="none" stroke="#191970" points="821.752,-708.6686 825.9989,-718.375 828.7319,-708.1387 821.752,-708.6686"/>
</g>
<!-- Node21 -->
<g id="node13" class="node">
<title>Node21</title>
<polygon fill="none" stroke="#bfbfbf" points="177.5,-928 177.5,-985 242.5,-985 242.5,-928 177.5,-928"/>
<text text-anchor="middle" x="210" y="-973" font-family="Helvetica,sans-Serif" font-size="10.00" fill="#000000">ModelType</text>
<polyline fill="none" stroke="#bfbfbf" points="177.5,-966 242.5,-966 "/>
<text text-anchor="middle" x="210" y="-954" font-family="Helvetica,sans-Serif" font-size="10.00" fill="#000000"> </text>
<polyline fill="none" stroke="#bfbfbf" points="177.5,-947 242.5,-947 "/>
<text text-anchor="middle" x="210" y="-935" font-family="Helvetica,sans-Serif" font-size="10.00" fill="#000000"> </text>
</g>
<!-- Node21&#45;&gt;Node11 -->
<g id="edge13" class="edge">
<title>Node21&#45;&gt;Node11</title>
<path fill="none" stroke="#404040" d="M226.9796,-927.8661C234.4019,-915.7102 243.37,-901.491 252,-889 309.4143,-805.8989 381.7733,-713.5357 425.9255,-658.4148"/>
<polygon fill="none" stroke="#404040" points="426.0522,-658.2571 426.6888,-651.0741 433.5641,-648.8991 432.9274,-656.0821 426.0522,-658.2571"/>
<text text-anchor="middle" x="403.5" y="-766.5" font-family="Helvetica,sans-Serif" font-size="10.00" fill="#000000"> #model</text>
</g>
<!-- Node21&#45;&gt;Node25 -->
<g id="edge20" class="edge">
<title>Node21&#45;&gt;Node25</title>
<path fill="none" stroke="#404040" d="M208.4594,-927.614C206.9468,-899.2523 204.6056,-855.3557 202.7694,-820.9257"/>
<polygon fill="none" stroke="#404040" points="202.7573,-820.6985 198.4434,-814.9201 202.1182,-808.7156 206.4321,-814.494 202.7573,-820.6985"/>
<text text-anchor="middle" x="223.5" y="-857.5" font-family="Helvetica,sans-Serif" font-size="10.00" fill="#000000"> #model</text>
</g>
<!-- Node22 -->
<g id="node14" class="node">
<title>Node22</title>
<polygon fill="none" stroke="#bfbfbf" points="494.5,-409.5 494.5,-466.5 601.5,-466.5 601.5,-409.5 494.5,-409.5"/>
<text text-anchor="middle" x="548" y="-454.5" font-family="Helvetica,sans-Serif" font-size="10.00" fill="#000000">ListSelectionListener</text>
<polyline fill="none" stroke="#bfbfbf" points="494.5,-447.5 601.5,-447.5 "/>
<text text-anchor="middle" x="548" y="-435.5" font-family="Helvetica,sans-Serif" font-size="10.00" fill="#000000"> </text>
<polyline fill="none" stroke="#bfbfbf" points="494.5,-428.5 601.5,-428.5 "/>
<text text-anchor="middle" x="548" y="-416.5" font-family="Helvetica,sans-Serif" font-size="10.00" fill="#000000"> </text>
</g>
<!-- Node22&#45;&gt;Node10 -->
<g id="edge14" class="edge">
<title>Node22&#45;&gt;Node10</title>
<path fill="none" stroke="#191970" d="M528.5098,-400.1926C515.1216,-374.222 496.8626,-338.8029 480.4054,-306.879"/>
<polygon fill="none" stroke="#191970" points="525.5164,-402.0245 533.2095,-409.3092 531.7383,-398.817 525.5164,-402.0245"/>
</g>
<!-- Node23 -->
<g id="node15" class="node">
<title>Node23</title>
<g id="a_node15"><a xlink:href="classene_1_1controllers_1_1PlayerController.html" target="_top" xlink:title="{ene.controllers.PlayerController\n||+ PlayerController()\l+ changeTrackPosition()\l+ load()\l+ togglePlayback()\l}">
<polygon fill="none" stroke="#000000" points="104.5,-393 104.5,-483 257.5,-483 257.5,-393 104.5,-393"/>
<text text-anchor="middle" x="181" y="-471" font-family="Helvetica,sans-Serif" font-size="10.00" fill="#000000">ene.controllers.PlayerController</text>
<polyline fill="none" stroke="#000000" points="104.5,-464 257.5,-464 "/>
<text text-anchor="middle" x="181" y="-452" font-family="Helvetica,sans-Serif" font-size="10.00" fill="#000000"> </text>
<polyline fill="none" stroke="#000000" points="104.5,-445 257.5,-445 "/>
<text text-anchor="start" x="112.5" y="-433" font-family="Helvetica,sans-Serif" font-size="10.00" fill="#000000">+ PlayerController()</text>
<text text-anchor="start" x="112.5" y="-422" font-family="Helvetica,sans-Serif" font-size="10.00" fill="#000000">+ changeTrackPosition()</text>
<text text-anchor="start" x="112.5" y="-411" font-family="Helvetica,sans-Serif" font-size="10.00" fill="#000000">+ load()</text>
<text text-anchor="start" x="112.5" y="-400" font-family="Helvetica,sans-Serif" font-size="10.00" fill="#000000">+ togglePlayback()</text>
</a>
</g>
</g>
<!-- Node23&#45;&gt;Node10 -->
<g id="edge15" class="edge">
<title>Node23&#45;&gt;Node10</title>
<path fill="none" stroke="#404040" d="M208.4763,-392.8608C223.5451,-370.5932 243.6853,-344.419 266,-325 292.5728,-301.8755 325.5855,-281.8615 355.6909,-266.1493"/>
<polygon fill="none" stroke="#404040" points="355.9479,-266.018 359.4705,-259.7259 366.6336,-260.5575 363.1109,-266.8496 355.9479,-266.018"/>
<text text-anchor="middle" x="304.5" y="-328" font-family="Helvetica,sans-Serif" font-size="10.00" fill="#000000"> #playerController</text>
</g>
<!-- Node24 -->
<g id="node16" class="node">
<title>Node24</title>
<g id="a_node16"><a xlink:href="classene_1_1controllers_1_1AbstractController.html" target="_top" xlink:title="{ene.controllers.Abstract\lController\&lt; PlayerModel \&gt;\n|# model\l|+ setModel()\l+ getModel()\l}">
<polygon fill="none" stroke="#000000" points="150.5,-569.5 150.5,-648.5 281.5,-648.5 281.5,-569.5 150.5,-569.5"/>
<text text-anchor="start" x="158.5" y="-636.5" font-family="Helvetica,sans-Serif" font-size="10.00" fill="#000000">ene.controllers.Abstract</text>
<text text-anchor="middle" x="216" y="-625.5" font-family="Helvetica,sans-Serif" font-size="10.00" fill="#000000">Controller&lt; PlayerModel &gt;</text>
<polyline fill="none" stroke="#000000" points="150.5,-618.5 281.5,-618.5 "/>
<text text-anchor="start" x="158.5" y="-606.5" font-family="Helvetica,sans-Serif" font-size="10.00" fill="#000000"># model</text>
<polyline fill="none" stroke="#000000" points="150.5,-599.5 281.5,-599.5 "/>
<text text-anchor="start" x="158.5" y="-587.5" font-family="Helvetica,sans-Serif" font-size="10.00" fill="#000000">+ setModel()</text>
<text text-anchor="start" x="158.5" y="-576.5" font-family="Helvetica,sans-Serif" font-size="10.00" fill="#000000">+ getModel()</text>
</a>
</g>
</g>
<!-- Node24&#45;&gt;Node23 -->
<g id="edge16" class="edge">
<title>Node24&#45;&gt;Node23</title>
<path fill="none" stroke="#191970" d="M205.8362,-559.3423C200.9129,-535.2887 195.0438,-506.6138 190.2473,-483.1799"/>
<polygon fill="none" stroke="#191970" points="202.4481,-560.2443 207.8823,-569.3394 209.3059,-558.8406 202.4481,-560.2443"/>
</g>
<!-- Node25&#45;&gt;Node24 -->
<g id="edge17" class="edge">
<title>Node25&#45;&gt;Node24</title>
<path fill="none" stroke="#ffa500" d="M204.0722,-719.197C205.5163,-702.5851 207.2262,-683.9848 209,-667 209.6216,-661.0483 210.3284,-654.7592 211.0483,-648.6044"/>
<polygon fill="#ffa500" stroke="#ffa500" points="200.5773,-718.9883 203.2092,-729.251 207.5517,-719.587 200.5773,-718.9883"/>
<text text-anchor="middle" x="247" y="-675.5" font-family="Helvetica,sans-Serif" font-size="10.00" fill="#000000"> &lt; PlayerModel &gt;</text>
</g>
<!-- Node30 -->
<g id="node22" class="node">
<title>Node30</title>
<g id="a_node22"><a xlink:href="classene_1_1controllers_1_1AbstractController.html" target="_top" xlink:title="{ene.controllers.Abstract\lController\&lt; LibraryModel \&gt;\n|# model\l|+ setModel()\l+ getModel()\l}">
<polygon fill="none" stroke="#000000" points="0,-569.5 0,-648.5 132,-648.5 132,-569.5 0,-569.5"/>
<text text-anchor="start" x="8" y="-636.5" font-family="Helvetica,sans-Serif" font-size="10.00" fill="#000000">ene.controllers.Abstract</text>
<text text-anchor="middle" x="66" y="-625.5" font-family="Helvetica,sans-Serif" font-size="10.00" fill="#000000">Controller&lt; LibraryModel &gt;</text>
<polyline fill="none" stroke="#000000" points="0,-618.5 132,-618.5 "/>
<text text-anchor="start" x="8" y="-606.5" font-family="Helvetica,sans-Serif" font-size="10.00" fill="#000000"># model</text>
<polyline fill="none" stroke="#000000" points="0,-599.5 132,-599.5 "/>
<text text-anchor="start" x="8" y="-587.5" font-family="Helvetica,sans-Serif" font-size="10.00" fill="#000000">+ setModel()</text>
<text text-anchor="start" x="8" y="-576.5" font-family="Helvetica,sans-Serif" font-size="10.00" fill="#000000">+ getModel()</text>
</a>
</g>
</g>
<!-- Node25&#45;&gt;Node30 -->
<g id="edge25" class="edge">
<title>Node25&#45;&gt;Node30</title>
<path fill="none" stroke="#ffa500" d="M155.6144,-721.7413C146.0002,-711.125 136.0168,-699.802 127,-689 116.2552,-676.128 104.9909,-661.66 95.1077,-648.6031"/>
<polygon fill="#ffa500" stroke="#ffa500" points="153.2076,-724.2964 162.5308,-729.3292 158.381,-719.5808 153.2076,-724.2964"/>
<text text-anchor="middle" x="165.5" y="-675.5" font-family="Helvetica,sans-Serif" font-size="10.00" fill="#000000"> &lt; LibraryModel &gt;</text>
</g>
<!-- Node26 -->
<g id="node18" class="node">
<title>Node26</title>
<g id="a_node18"><a xlink:href="interfaceene_1_1interfaces_1_1Controller.html" target="_top" xlink:title="{ene::interfaces::Controller\l\&lt; ModelType \&gt;\n||+ setModel()\l+ getModel()\l}">
<polygon fill="none" stroke="#000000" points="30.5,-917 30.5,-996 159.5,-996 159.5,-917 30.5,-917"/>
<text text-anchor="start" x="38.5" y="-984" font-family="Helvetica,sans-Serif" font-size="10.00" fill="#000000">ene::interfaces::Controller</text>
<text text-anchor="middle" x="95" y="-973" font-family="Helvetica,sans-Serif" font-size="10.00" fill="#000000">&lt; ModelType &gt;</text>
<polyline fill="none" stroke="#000000" points="30.5,-966 159.5,-966 "/>
<text text-anchor="middle" x="95" y="-954" font-family="Helvetica,sans-Serif" font-size="10.00" fill="#000000"> </text>
<polyline fill="none" stroke="#000000" points="30.5,-947 159.5,-947 "/>
<text text-anchor="start" x="38.5" y="-935" font-family="Helvetica,sans-Serif" font-size="10.00" fill="#000000">+ setModel()</text>
<text text-anchor="start" x="38.5" y="-924" font-family="Helvetica,sans-Serif" font-size="10.00" fill="#000000">+ getModel()</text>
</a>
</g>
</g>
<!-- Node26&#45;&gt;Node25 -->
<g id="edge19" class="edge">
<title>Node26&#45;&gt;Node25</title>
<path fill="none" stroke="#191970" d="M122.231,-907.8732C139.498,-877.0392 161.5541,-837.6534 177.7643,-808.7066"/>
<polygon fill="none" stroke="#191970" points="119.1001,-906.3009 117.2678,-916.7361 125.2077,-909.7211 119.1001,-906.3009"/>
</g>
<!-- Node27 -->
<g id="node19" class="node">
<title>Node27</title>
<polygon fill="none" stroke="#bfbfbf" points="276,-409.5 276,-466.5 374,-466.5 374,-409.5 276,-409.5"/>
<text text-anchor="middle" x="325" y="-454.5" font-family="Helvetica,sans-Serif" font-size="10.00" fill="#000000">DefaultTableModel</text>
<polyline fill="none" stroke="#bfbfbf" points="276,-447.5 374,-447.5 "/>
<text text-anchor="middle" x="325" y="-435.5" font-family="Helvetica,sans-Serif" font-size="10.00" fill="#000000"> </text>
<polyline fill="none" stroke="#bfbfbf" points="276,-428.5 374,-428.5 "/>
<text text-anchor="middle" x="325" y="-416.5" font-family="Helvetica,sans-Serif" font-size="10.00" fill="#000000"> </text>
</g>
<!-- Node27&#45;&gt;Node10 -->
<g id="edge21" class="edge">
<title>Node27&#45;&gt;Node10</title>
<path fill="none" stroke="#404040" d="M327.8371,-409.1997C331.0976,-385.4828 337.9369,-351.5604 352,-325 354.3872,-320.4914 357.0345,-316.03 359.8778,-311.6421"/>
<polygon fill="none" stroke="#404040" points="360.0251,-311.4286 360.1385,-304.2184 366.8378,-301.5499 366.7243,-308.7602 360.0251,-311.4286"/>
<text text-anchor="middle" x="384" y="-328" font-family="Helvetica,sans-Serif" font-size="10.00" fill="#000000"> #tableContent</text>
</g>
<!-- Node28 -->
<g id="node20" class="node">
<title>Node28</title>
<polygon fill="none" stroke="#bfbfbf" points="392,-409.5 392,-466.5 438,-466.5 438,-409.5 392,-409.5"/>
<text text-anchor="middle" x="415" y="-454.5" font-family="Helvetica,sans-Serif" font-size="10.00" fill="#000000">JTable</text>
<polyline fill="none" stroke="#bfbfbf" points="392,-447.5 438,-447.5 "/>
<text text-anchor="middle" x="415" y="-435.5" font-family="Helvetica,sans-Serif" font-size="10.00" fill="#000000"> </text>
<polyline fill="none" stroke="#bfbfbf" points="392,-428.5 438,-428.5 "/>
<text text-anchor="middle" x="415" y="-416.5" font-family="Helvetica,sans-Serif" font-size="10.00" fill="#000000"> </text>
</g>
<!-- Node28&#45;&gt;Node10 -->
<g id="edge22" class="edge">
<title>Node28&#45;&gt;Node10</title>
<path fill="none" stroke="#404040" d="M415.8142,-409.1143C416.6941,-386.2289 418.4752,-353.48 422,-325 422.2671,-322.8422 422.5522,-320.6598 422.853,-318.4607"/>
<polygon fill="none" stroke="#404040" points="422.8534,-318.457 419.7673,-311.9396 424.5963,-306.5842 427.6825,-313.1015 422.8534,-318.457"/>
<text text-anchor="middle" x="437" y="-328" font-family="Helvetica,sans-Serif" font-size="10.00" fill="#000000"> #table</text>
</g>
<!-- Node29&#45;&gt;Node9 -->
<g id="edge23" class="edge">
<title>Node29&#45;&gt;Node9</title>
<path fill="none" stroke="#404040" d="M657.9371,-354.2782C625.6439,-285.0655 580.3817,-188.0569 550.403,-123.8047"/>
<polygon fill="none" stroke="#404040" points="550.2484,-123.4732 544.0866,-119.7272 545.1745,-112.5987 551.3363,-116.3446 550.2484,-123.4732"/>
<text text-anchor="middle" x="673.5" y="-226" font-family="Helvetica,sans-Serif" font-size="10.00" fill="#000000"> #libraryController</text>
</g>
<!-- Node30&#45;&gt;Node29 -->
<g id="edge24" class="edge">
<title>Node30&#45;&gt;Node29</title>
<path fill="none" stroke="#191970" d="M141.812,-569.1587C344.3662,-511.1674 423.7389,-609.394 611,-522 613.8369,-520.676 616.6366,-519.2188 619.3937,-517.6485"/>
<polygon fill="none" stroke="#191970" points="140.6691,-565.8468 132.0726,-572.0396 142.6547,-572.5593 140.6691,-565.8468"/>
</g>
<!-- Node31 -->
<g id="node23" class="node">
<title>Node31</title>
<polygon fill="none" stroke="#bfbfbf" points="563.5,-580.5 563.5,-637.5 592.5,-637.5 592.5,-580.5 563.5,-580.5"/>
<text text-anchor="middle" x="578" y="-625.5" font-family="Helvetica,sans-Serif" font-size="10.00" fill="#000000">int</text>
<polyline fill="none" stroke="#bfbfbf" points="563.5,-618.5 592.5,-618.5 "/>
<text text-anchor="middle" x="578" y="-606.5" font-family="Helvetica,sans-Serif" font-size="10.00" fill="#000000"> </text>
<polyline fill="none" stroke="#bfbfbf" points="563.5,-599.5 592.5,-599.5 "/>
<text text-anchor="middle" x="578" y="-587.5" font-family="Helvetica,sans-Serif" font-size="10.00" fill="#000000"> </text>
</g>
<!-- Node31&#45;&gt;Node29 -->
<g id="edge27" class="edge">
<title>Node31&#45;&gt;Node29</title>
<path fill="none" stroke="#404040" d="M572.1974,-580.38C571.0261,-567.2322 571.8973,-551.9451 579,-540 585.8413,-528.4946 594.2042,-530.3368 608.6201,-522.5344"/>
<polygon fill="none" stroke="#404040" points="608.952,-522.3186 611.8017,-515.6944 619.0123,-515.7771 616.1627,-522.4013 608.952,-522.3186"/>
<text text-anchor="middle" x="635.5" y="-543" font-family="Helvetica,sans-Serif" font-size="10.00" fill="#000000"> #DATABASE_TIMEOUT</text>
</g>
</g>
</svg>
