<?xml version="1.0" encoding="UTF-8" standalone="no"?>
<!DOCTYPE svg PUBLIC "-//W3C//DTD SVG 1.1//EN"
 "http://www.w3.org/Graphics/SVG/1.1/DTD/svg11.dtd">
<!-- Generated by graphviz version 2.40.1 (20161225.0304)
 -->
<!-- Title: ene.views.gui.WindowView.WindowView Pages: 1 -->
<svg width="723pt" height="137pt"
 viewBox="0.00 0.00 723.00 137.00" xmlns="http://www.w3.org/2000/svg" xmlns:xlink="http://www.w3.org/1999/xlink">
<g id="graph0" class="graph" transform="scale(1 1) rotate(0) translate(4 133)">
<title>ene.views.gui.WindowView.WindowView</title>
<!-- Node0 -->
<g id="node1" class="node">
<title>Node0</title>
<polygon fill="#bfbfbf" stroke="#000000" points="0,-71.5 0,-101.5 140,-101.5 140,-71.5 0,-71.5"/>
<text text-anchor="start" x="8" y="-89.5" font-family="Helvetica,sans-Serif" font-size="10.00" fill="#000000">ene.views.gui.WindowView.</text>
<text text-anchor="middle" x="70" y="-78.5" font-family="Helvetica,sans-Serif" font-size="10.00" fill="#000000">WindowView</text>
</g>
<!-- Node1 -->
<g id="node2" class="node">
<title>Node1</title>
<g id="a_node2"><a xlink:href="classene_1_1views_1_1AbstractMasterView.html#a7e49af73fded3d801ff31b7591e0d5a8" target="_top" xlink:title="ene.views.AbstractMaster\lView.addView">
<polygon fill="none" stroke="#000000" points="198,-93.5 198,-123.5 329,-123.5 329,-93.5 198,-93.5"/>
<text text-anchor="start" x="206" y="-111.5" font-family="Helvetica,sans-Serif" font-size="10.00" fill="#000000">ene.views.AbstractMaster</text>
<text text-anchor="middle" x="263.5" y="-100.5" font-family="Helvetica,sans-Serif" font-size="10.00" fill="#000000">View.addView</text>
</a>
</g>
</g>
<!-- Node0&#45;&gt;Node1 -->
<g id="edge1" class="edge">
<title>Node0&#45;&gt;Node1</title>
<path fill="none" stroke="#191970" d="M140.1315,-94.4736C155.5692,-96.2288 171.9874,-98.0955 187.6396,-99.875"/>
<polygon fill="#191970" stroke="#191970" points="187.4653,-103.3777 197.7967,-101.0299 188.2562,-96.4225 187.4653,-103.3777"/>
</g>
<!-- Node2 -->
<g id="node3" class="node">
<title>Node2</title>
<g id="a_node3"><a xlink:href="classene_1_1views_1_1gui_1_1WindowView.html#ab1f007806dcd28e2e4486eb29231fa21" target="_top" xlink:title="ene.views.gui.WindowView.initialize">
<polygon fill="none" stroke="#000000" points="176,-55 176,-74 351,-74 351,-55 176,-55"/>
<text text-anchor="middle" x="263.5" y="-62" font-family="Helvetica,sans-Serif" font-size="10.00" fill="#000000">ene.views.gui.WindowView.initialize</text>
</a>
</g>
</g>
<!-- Node0&#45;&gt;Node2 -->
<g id="edge2" class="edge">
<title>Node0&#45;&gt;Node2</title>
<path fill="none" stroke="#191970" d="M140.1315,-78.5264C149.7845,-77.4289 159.8209,-76.2878 169.8136,-75.1517"/>
<polygon fill="#191970" stroke="#191970" points="170.2354,-78.6264 179.776,-74.019 169.4446,-71.6712 170.2354,-78.6264"/>
</g>
<!-- Node3 -->
<g id="node4" class="node">
<title>Node3</title>
<g id="a_node4"><a xlink:href="classene_1_1views_1_1AbstractView.html#aa9bee221c279bc8a9dbada91184d8181" target="_top" xlink:title="ene.views.AbstractView.set\lCoreComponent">
<polygon fill="none" stroke="#000000" points="394,-98.5 394,-128.5 533,-128.5 533,-98.5 394,-98.5"/>
<text text-anchor="start" x="402" y="-116.5" font-family="Helvetica,sans-Serif" font-size="10.00" fill="#000000">ene.views.AbstractView.set</text>
<text text-anchor="middle" x="463.5" y="-105.5" font-family="Helvetica,sans-Serif" font-size="10.00" fill="#000000">CoreComponent</text>
</a>
</g>
</g>
<!-- Node2&#45;&gt;Node3 -->
<g id="edge3" class="edge">
<title>Node2&#45;&gt;Node3</title>
<path fill="none" stroke="#191970" d="M306.2801,-74.0304C320.5253,-77.2699 336.464,-80.9659 351,-84.5 365.791,-88.0961 381.6382,-92.0922 396.6335,-95.94"/>
<polygon fill="#191970" stroke="#191970" points="395.7879,-99.3364 406.3449,-98.4414 397.534,-92.5576 395.7879,-99.3364"/>
</g>
<!-- Node4 -->
<g id="node5" class="node">
<title>Node4</title>
<g id="a_node5"><a xlink:href="classene_1_1views_1_1gui_1_1WindowView.html#ab0f6dcadbede5ac1c47e346bf2df3593" target="_top" xlink:title="ene.views.gui.WindowView.set\lTitle">
<polygon fill="none" stroke="#000000" points="387,-49.5 387,-79.5 540,-79.5 540,-49.5 387,-49.5"/>
<text text-anchor="start" x="395" y="-67.5" font-family="Helvetica,sans-Serif" font-size="10.00" fill="#000000">ene.views.gui.WindowView.set</text>
<text text-anchor="middle" x="463.5" y="-56.5" font-family="Helvetica,sans-Serif" font-size="10.00" fill="#000000">Title</text>
</a>
</g>
</g>
<!-- Node2&#45;&gt;Node4 -->
<g id="edge4" class="edge">
<title>Node2&#45;&gt;Node4</title>
<path fill="none" stroke="#191970" d="M351.2229,-64.5C359.6547,-64.5 368.2046,-64.5 376.6281,-64.5"/>
<polygon fill="#191970" stroke="#191970" points="376.8238,-68.0001 386.8238,-64.5 376.8238,-61.0001 376.8238,-68.0001"/>
</g>
<!-- Node6 -->
<g id="node7" class="node">
<title>Node6</title>
<g id="a_node7"><a xlink:href="interfaceene_1_1interfaces_1_1Localization.html#ae7d5c65647a8bd1ca0c27b3279b0751c" target="_top" xlink:title="ene.interfaces.Localization.get\lString">
<polygon fill="none" stroke="#000000" points="389,-.5 389,-30.5 538,-30.5 538,-.5 389,-.5"/>
<text text-anchor="start" x="397" y="-18.5" font-family="Helvetica,sans-Serif" font-size="10.00" fill="#000000">ene.interfaces.Localization.get</text>
<text text-anchor="middle" x="463.5" y="-7.5" font-family="Helvetica,sans-Serif" font-size="10.00" fill="#000000">String</text>
</a>
</g>
</g>
<!-- Node2&#45;&gt;Node6 -->
<g id="edge6" class="edge">
<title>Node2&#45;&gt;Node6</title>
<path fill="none" stroke="#191970" d="M302.5368,-54.936C327.968,-48.7053 361.9056,-40.3906 392.0608,-33.0026"/>
<polygon fill="#191970" stroke="#191970" points="393.2448,-36.3161 402.1246,-30.537 391.579,-29.5172 393.2448,-36.3161"/>
</g>
<!-- Node5 -->
<g id="node6" class="node">
<title>Node5</title>
<g id="a_node6"><a xlink:href="classene_1_1views_1_1AbstractView.html#a8b774594825c8749280b5b17013ad7dc" target="_top" xlink:title="ene.views.AbstractView.get\lCoreComponent">
<polygon fill="none" stroke="#000000" points="576,-49.5 576,-79.5 715,-79.5 715,-49.5 576,-49.5"/>
<text text-anchor="start" x="584" y="-67.5" font-family="Helvetica,sans-Serif" font-size="10.00" fill="#000000">ene.views.AbstractView.get</text>
<text text-anchor="middle" x="645.5" y="-56.5" font-family="Helvetica,sans-Serif" font-size="10.00" fill="#000000">CoreComponent</text>
</a>
</g>
</g>
<!-- Node4&#45;&gt;Node5 -->
<g id="edge5" class="edge">
<title>Node4&#45;&gt;Node5</title>
<path fill="none" stroke="#191970" d="M540.1569,-64.5C548.5829,-64.5 557.1772,-64.5 565.6409,-64.5"/>
<polygon fill="#191970" stroke="#191970" points="565.8801,-68.0001 575.88,-64.5 565.88,-61.0001 565.8801,-68.0001"/>
</g>
</g>
</svg>
