<?xml version="1.0" encoding="UTF-8" standalone="no"?>
<!DOCTYPE svg PUBLIC "-//W3C//DTD SVG 1.1//EN"
 "http://www.w3.org/Graphics/SVG/1.1/DTD/svg11.dtd">
<!-- Generated by graphviz version 2.40.1 (20161225.0304)
 -->
<!-- Title: ene.views.gui.partial.LibraryView.LibraryView Pages: 1 -->
<svg width="1392pt" height="509pt"
 viewBox="0.00 0.00 1392.00 509.00" xmlns="http://www.w3.org/2000/svg" xmlns:xlink="http://www.w3.org/1999/xlink">
<g id="graph0" class="graph" transform="scale(1 1) rotate(0) translate(4 505)">
<title>ene.views.gui.partial.LibraryView.LibraryView</title>
<!-- Node0 -->
<g id="node1" class="node">
<title>Node0</title>
<polygon fill="#bfbfbf" stroke="#000000" points="0,-185.5 0,-215.5 138,-215.5 138,-185.5 0,-185.5"/>
<text text-anchor="start" x="8" y="-203.5" font-family="Helvetica,sans-Serif" font-size="10.00" fill="#000000">ene.views.gui.partial.Library</text>
<text text-anchor="middle" x="69" y="-192.5" font-family="Helvetica,sans-Serif" font-size="10.00" fill="#000000">View.LibraryView</text>
</g>
<!-- Node1 -->
<g id="node2" class="node">
<title>Node1</title>
<g id="a_node2"><a xlink:href="interfaceene_1_1interfaces_1_1Model.html#a6b798cea60bb1fa4a366b22af566f3e8" target="_top" xlink:title="ene.interfaces.Model.addView">
<polygon fill="none" stroke="#000000" points="182.5,-347 182.5,-366 330.5,-366 330.5,-347 182.5,-347"/>
<text text-anchor="middle" x="256.5" y="-354" font-family="Helvetica,sans-Serif" font-size="10.00" fill="#000000">ene.interfaces.Model.addView</text>
</a>
</g>
</g>
<!-- Node0&#45;&gt;Node1 -->
<g id="edge1" class="edge">
<title>Node0&#45;&gt;Node1</title>
<path fill="none" stroke="#191970" d="M76.8875,-215.6812C91.9661,-243.1969 127.5556,-301.338 174,-332.5 180.6928,-336.9905 188.2355,-340.6546 195.9711,-343.6411"/>
<polygon fill="#191970" stroke="#191970" points="194.8637,-346.9616 205.4586,-346.9579 197.1739,-340.3538 194.8637,-346.9616"/>
</g>
<!-- Node2 -->
<g id="node3" class="node">
<title>Node2</title>
<g id="a_node3"><a xlink:href="interfaceene_1_1interfaces_1_1Localization.html#ae7d5c65647a8bd1ca0c27b3279b0751c" target="_top" xlink:title="ene.interfaces.Localization.get\lString">
<polygon fill="none" stroke="#000000" points="387,-470.5 387,-500.5 536,-500.5 536,-470.5 387,-470.5"/>
<text text-anchor="start" x="395" y="-488.5" font-family="Helvetica,sans-Serif" font-size="10.00" fill="#000000">ene.interfaces.Localization.get</text>
<text text-anchor="middle" x="461.5" y="-477.5" font-family="Helvetica,sans-Serif" font-size="10.00" fill="#000000">String</text>
</a>
</g>
</g>
<!-- Node0&#45;&gt;Node2 -->
<g id="edge2" class="edge">
<title>Node0&#45;&gt;Node2</title>
<path fill="none" stroke="#191970" d="M80.4597,-215.5054C98.0813,-237.478 134.013,-278.111 174,-299.5 240.3565,-334.994 284.3141,-285.8041 339,-337.5 380.7026,-376.9224 334.1806,-421.1638 375,-461.5 376.1085,-462.5954 377.2625,-463.6419 378.4565,-464.6415"/>
<polygon fill="#191970" stroke="#191970" points="376.6779,-467.6703 386.8646,-470.5826 380.7174,-461.9534 376.6779,-467.6703"/>
</g>
<!-- Node3 -->
<g id="node4" class="node">
<title>Node3</title>
<g id="a_node4"><a xlink:href="classene_1_1views_1_1gui_1_1partial_1_1LibraryView.html#a6e6e521f258ad6e3f2e06ed96180efb6" target="_top" xlink:title="ene.views.gui.partial.Library\lView.initialize">
<polygon fill="none" stroke="#000000" points="187.5,-259.5 187.5,-289.5 325.5,-289.5 325.5,-259.5 187.5,-259.5"/>
<text text-anchor="start" x="195.5" y="-277.5" font-family="Helvetica,sans-Serif" font-size="10.00" fill="#000000">ene.views.gui.partial.Library</text>
<text text-anchor="middle" x="256.5" y="-266.5" font-family="Helvetica,sans-Serif" font-size="10.00" fill="#000000">View.initialize</text>
</a>
</g>
</g>
<!-- Node0&#45;&gt;Node3 -->
<g id="edge3" class="edge">
<title>Node0&#45;&gt;Node3</title>
<path fill="none" stroke="#191970" d="M97.4225,-215.5726C118.2436,-226.2319 147.3943,-240.3712 174,-250.5 179.3584,-252.5399 184.9676,-254.5084 190.6315,-256.3808"/>
<polygon fill="#191970" stroke="#191970" points="189.5894,-259.7221 200.1804,-259.4368 191.7232,-253.0552 189.5894,-259.7221"/>
</g>
<!-- Node25 -->
<g id="node26" class="node">
<title>Node25</title>
<g id="a_node26"><a xlink:href="classene_1_1views_1_1AbstractView.html#abdae9d407e6cc13b9004049e2327367b" target="_top" xlink:title="ene.views.AbstractView.set\lLayoutPosition">
<polygon fill="none" stroke="#000000" points="187,-210.5 187,-240.5 326,-240.5 326,-210.5 187,-210.5"/>
<text text-anchor="start" x="195" y="-228.5" font-family="Helvetica,sans-Serif" font-size="10.00" fill="#000000">ene.views.AbstractView.set</text>
<text text-anchor="middle" x="256.5" y="-217.5" font-family="Helvetica,sans-Serif" font-size="10.00" fill="#000000">LayoutPosition</text>
</a>
</g>
</g>
<!-- Node0&#45;&gt;Node25 -->
<g id="edge28" class="edge">
<title>Node0&#45;&gt;Node25</title>
<path fill="none" stroke="#191970" d="M138.0193,-209.7026C150.6254,-211.3834 163.874,-213.1499 176.7612,-214.8682"/>
<polygon fill="#191970" stroke="#191970" points="176.625,-218.3809 186.9999,-216.2333 177.5502,-211.4423 176.625,-218.3809"/>
</g>
<!-- Node26 -->
<g id="node27" class="node">
<title>Node26</title>
<g id="a_node27"><a xlink:href="classene_1_1views_1_1gui_1_1partial_1_1LibraryView.html#aa8eacdf3e3e96225e86c0da88ec431e8" target="_top" xlink:title="ene.views.gui.partial.Library\lView.setLibraryController">
<polygon fill="none" stroke="#000000" points="187.5,-161.5 187.5,-191.5 325.5,-191.5 325.5,-161.5 187.5,-161.5"/>
<text text-anchor="start" x="195.5" y="-179.5" font-family="Helvetica,sans-Serif" font-size="10.00" fill="#000000">ene.views.gui.partial.Library</text>
<text text-anchor="middle" x="256.5" y="-168.5" font-family="Helvetica,sans-Serif" font-size="10.00" fill="#000000">View.setLibraryController</text>
</a>
</g>
</g>
<!-- Node0&#45;&gt;Node26 -->
<g id="edge29" class="edge">
<title>Node0&#45;&gt;Node26</title>
<path fill="none" stroke="#191970" d="M138.0193,-191.6655C150.7078,-190.0414 164.0472,-188.334 177.0139,-186.6742"/>
<polygon fill="#191970" stroke="#191970" points="177.8387,-190.0973 187.3134,-185.3559 176.9499,-183.1539 177.8387,-190.0973"/>
</g>
<!-- Node27 -->
<g id="node28" class="node">
<title>Node27</title>
<g id="a_node28"><a xlink:href="classene_1_1views_1_1AbstractPartialView.html#a68e5b7c7280559531bad5eed28f711e4" target="_top" xlink:title="ene.views.AbstractPartial\lView.setModel">
<polygon fill="none" stroke="#000000" points="192.5,-112.5 192.5,-142.5 320.5,-142.5 320.5,-112.5 192.5,-112.5"/>
<text text-anchor="start" x="200.5" y="-130.5" font-family="Helvetica,sans-Serif" font-size="10.00" fill="#000000">ene.views.AbstractPartial</text>
<text text-anchor="middle" x="256.5" y="-119.5" font-family="Helvetica,sans-Serif" font-size="10.00" fill="#000000">View.setModel</text>
</a>
</g>
</g>
<!-- Node0&#45;&gt;Node27 -->
<g id="edge30" class="edge">
<title>Node0&#45;&gt;Node27</title>
<path fill="none" stroke="#191970" d="M99.3221,-185.3228C120.0499,-175.276 148.3151,-162.2121 174,-152.5 180.2076,-150.1528 186.74,-147.8686 193.2985,-145.6961"/>
<polygon fill="#191970" stroke="#191970" points="194.4505,-149.0021 202.8912,-142.5986 192.2995,-142.3407 194.4505,-149.0021"/>
</g>
<!-- Node28 -->
<g id="node29" class="node">
<title>Node28</title>
<g id="a_node29"><a xlink:href="classene_1_1views_1_1gui_1_1partial_1_1AbstractTrackListView.html#ae113e108119ef9f8d6f8b32c308f31ab" target="_top" xlink:title="ene.views.gui.partial.Abstract\lTrackListView.setPlayerController">
<polygon fill="none" stroke="#000000" points="174,-63.5 174,-93.5 339,-93.5 339,-63.5 174,-63.5"/>
<text text-anchor="start" x="182" y="-81.5" font-family="Helvetica,sans-Serif" font-size="10.00" fill="#000000">ene.views.gui.partial.Abstract</text>
<text text-anchor="middle" x="256.5" y="-70.5" font-family="Helvetica,sans-Serif" font-size="10.00" fill="#000000">TrackListView.setPlayerController</text>
</a>
</g>
</g>
<!-- Node0&#45;&gt;Node28 -->
<g id="edge31" class="edge">
<title>Node0&#45;&gt;Node28</title>
<path fill="none" stroke="#191970" d="M81.3205,-185.4435C99.4742,-164.2028 135.4495,-125.5738 174,-103.5 177.7258,-101.3666 181.6526,-99.3974 185.6886,-97.5824"/>
<polygon fill="#191970" stroke="#191970" points="187.3581,-100.6795 195.2606,-93.6225 184.6821,-94.2111 187.3581,-100.6795"/>
</g>
<!-- Node29 -->
<g id="node30" class="node">
<title>Node29</title>
<g id="a_node30"><a xlink:href="classene_1_1views_1_1AbstractView.html#a95a682cf88e2d16d42d56d84bb360e91" target="_top" xlink:title="ene.views.AbstractView.set\lTitle">
<polygon fill="none" stroke="#000000" points="187,-14.5 187,-44.5 326,-44.5 326,-14.5 187,-14.5"/>
<text text-anchor="start" x="195" y="-32.5" font-family="Helvetica,sans-Serif" font-size="10.00" fill="#000000">ene.views.AbstractView.set</text>
<text text-anchor="middle" x="256.5" y="-21.5" font-family="Helvetica,sans-Serif" font-size="10.00" fill="#000000">Title</text>
</a>
</g>
</g>
<!-- Node0&#45;&gt;Node29 -->
<g id="edge32" class="edge">
<title>Node0&#45;&gt;Node29</title>
<path fill="none" stroke="#191970" d="M75.8235,-185.1567C89.8359,-155.41 124.7308,-89.7313 174,-54.5 176.6782,-52.5848 179.5055,-50.8142 182.4362,-49.1774"/>
<polygon fill="#191970" stroke="#191970" points="184.1087,-52.2545 191.4939,-44.6579 180.9833,-45.9909 184.1087,-52.2545"/>
</g>
<!-- Node3&#45;&gt;Node2 -->
<g id="edge5" class="edge">
<title>Node3&#45;&gt;Node2</title>
<path fill="none" stroke="#191970" d="M319.3571,-289.5394C326.7291,-293.4328 333.5504,-298.3329 339,-304.5 386.404,-358.1451 325.5372,-409.747 375,-461.5 376.0768,-462.6266 377.2014,-463.7019 378.3686,-464.7281"/>
<polygon fill="#191970" stroke="#191970" points="376.5034,-467.7011 386.6312,-470.8121 380.654,-462.0644 376.5034,-467.7011"/>
</g>
<!-- Node4 -->
<g id="node5" class="node">
<title>Node4</title>
<g id="a_node5"><a xlink:href="classene_1_1views_1_1AbstractView.html#aa9bee221c279bc8a9dbada91184d8181" target="_top" xlink:title="ene.views.AbstractView.set\lCoreComponent">
<polygon fill="none" stroke="#000000" points="392,-421.5 392,-451.5 531,-451.5 531,-421.5 392,-421.5"/>
<text text-anchor="start" x="400" y="-439.5" font-family="Helvetica,sans-Serif" font-size="10.00" fill="#000000">ene.views.AbstractView.set</text>
<text text-anchor="middle" x="461.5" y="-428.5" font-family="Helvetica,sans-Serif" font-size="10.00" fill="#000000">CoreComponent</text>
</a>
</g>
</g>
<!-- Node3&#45;&gt;Node4 -->
<g id="edge4" class="edge">
<title>Node3&#45;&gt;Node4</title>
<path fill="none" stroke="#191970" d="M317.9839,-289.6228C325.7509,-293.5083 333.0472,-298.3841 339,-304.5 374.2905,-340.7572 338.3206,-377.6486 375,-412.5 377.4291,-414.808 380.0602,-416.8976 382.8424,-418.7892"/>
<polygon fill="#191970" stroke="#191970" points="381.1893,-421.8768 391.5911,-423.8905 384.7154,-415.8298 381.1893,-421.8768"/>
</g>
<!-- Node5 -->
<g id="node6" class="node">
<title>Node5</title>
<g id="a_node6"><a xlink:href="classene_1_1views_1_1gui_1_1partial_1_1LibraryView.html#a54aebe6234a85e8ec433d9836ad02bb4" target="_top" xlink:title="ene.views.gui.partial.Library\lView.getLibraryController">
<polygon fill="none" stroke="#000000" points="392.5,-372.5 392.5,-402.5 530.5,-402.5 530.5,-372.5 392.5,-372.5"/>
<text text-anchor="start" x="400.5" y="-390.5" font-family="Helvetica,sans-Serif" font-size="10.00" fill="#000000">ene.views.gui.partial.Library</text>
<text text-anchor="middle" x="461.5" y="-379.5" font-family="Helvetica,sans-Serif" font-size="10.00" fill="#000000">View.getLibraryController</text>
</a>
</g>
</g>
<!-- Node3&#45;&gt;Node5 -->
<g id="edge6" class="edge">
<title>Node3&#45;&gt;Node5</title>
<path fill="none" stroke="#191970" d="M313.7608,-289.6233C322.7651,-293.557 331.5464,-298.4474 339,-304.5 362.5524,-323.6254 350.8164,-344.1793 375,-362.5 377.6166,-364.4823 380.3861,-366.3076 383.2656,-367.9883"/>
<polygon fill="#191970" stroke="#191970" points="381.7021,-371.1201 392.1918,-372.6091 384.9202,-364.9036 381.7021,-371.1201"/>
</g>
<!-- Node6 -->
<g id="node7" class="node">
<title>Node6</title>
<g id="a_node7"><a xlink:href="classene_1_1controllers_1_1LibraryController.html#aa0d66e53872a376fe6d456eb070de8d4" target="_top" xlink:title="ene.controllers.LibraryController.add">
<polygon fill="none" stroke="#000000" points="375,-334 375,-353 548,-353 548,-334 375,-334"/>
<text text-anchor="middle" x="461.5" y="-341" font-family="Helvetica,sans-Serif" font-size="10.00" fill="#000000">ene.controllers.LibraryController.add</text>
</a>
</g>
</g>
<!-- Node3&#45;&gt;Node6 -->
<g id="edge7" class="edge">
<title>Node3&#45;&gt;Node6</title>
<path fill="none" stroke="#191970" d="M301.9778,-289.5782C314.1591,-294.0107 327.2137,-299.124 339,-304.5 355.6528,-312.0958 357.8807,-318.0238 375,-324.5 381.8219,-327.0807 389.0857,-329.3574 396.3934,-331.3541"/>
<polygon fill="#191970" stroke="#191970" points="395.7924,-334.8131 406.3483,-333.9056 397.5304,-328.0323 395.7924,-334.8131"/>
</g>
<!-- Node13 -->
<g id="node14" class="node">
<title>Node13</title>
<g id="a_node14"><a xlink:href="classene_1_1views_1_1gui_1_1partial_1_1AbstractTrackListView.html#a35a32113ecdb8bc210fa6b4e9c57c782" target="_top" xlink:title="ene.views.gui.partial.Abstract\lTrackListView.getSelectedFilename">
<polygon fill="none" stroke="#000000" points="375,-284.5 375,-314.5 548,-314.5 548,-284.5 375,-284.5"/>
<text text-anchor="start" x="383" y="-302.5" font-family="Helvetica,sans-Serif" font-size="10.00" fill="#000000">ene.views.gui.partial.Abstract</text>
<text text-anchor="middle" x="461.5" y="-291.5" font-family="Helvetica,sans-Serif" font-size="10.00" fill="#000000">TrackListView.getSelectedFilename</text>
</a>
</g>
</g>
<!-- Node3&#45;&gt;Node13 -->
<g id="edge15" class="edge">
<title>Node3&#45;&gt;Node13</title>
<path fill="none" stroke="#191970" d="M325.6179,-282.929C338.2151,-284.4653 351.5675,-286.0936 364.791,-287.7062"/>
<polygon fill="#191970" stroke="#191970" points="364.5131,-291.1982 374.8633,-288.9346 365.3606,-284.2497 364.5131,-291.1982"/>
</g>
<!-- Node15 -->
<g id="node16" class="node">
<title>Node15</title>
<g id="a_node16"><a xlink:href="classene_1_1views_1_1AbstractView.html#a8b774594825c8749280b5b17013ad7dc" target="_top" xlink:title="ene.views.AbstractView.get\lCoreComponent">
<polygon fill="none" stroke="#000000" points="392,-235.5 392,-265.5 531,-265.5 531,-235.5 392,-235.5"/>
<text text-anchor="start" x="400" y="-253.5" font-family="Helvetica,sans-Serif" font-size="10.00" fill="#000000">ene.views.AbstractView.get</text>
<text text-anchor="middle" x="461.5" y="-242.5" font-family="Helvetica,sans-Serif" font-size="10.00" fill="#000000">CoreComponent</text>
</a>
</g>
</g>
<!-- Node3&#45;&gt;Node15 -->
<g id="edge17" class="edge">
<title>Node3&#45;&gt;Node15</title>
<path fill="none" stroke="#191970" d="M325.6179,-266.4082C343.6638,-264.2955 363.2593,-262.0013 381.8056,-259.8301"/>
<polygon fill="#191970" stroke="#191970" points="382.4595,-263.2775 391.9846,-258.6384 381.6455,-256.325 382.4595,-263.2775"/>
</g>
<!-- Node16 -->
<g id="node17" class="node">
<title>Node16</title>
<g id="a_node17"><a xlink:href="classene_1_1views_1_1gui_1_1partial_1_1LibraryView.html#a734cbc08cf36ed3d48cb106b77ecf28b" target="_top" xlink:title="ene.views.gui.partial.Library\lView.loadContent">
<polygon fill="none" stroke="#000000" points="392.5,-147.5 392.5,-177.5 530.5,-177.5 530.5,-147.5 392.5,-147.5"/>
<text text-anchor="start" x="400.5" y="-165.5" font-family="Helvetica,sans-Serif" font-size="10.00" fill="#000000">ene.views.gui.partial.Library</text>
<text text-anchor="middle" x="461.5" y="-154.5" font-family="Helvetica,sans-Serif" font-size="10.00" fill="#000000">View.loadContent</text>
</a>
</g>
</g>
<!-- Node3&#45;&gt;Node16 -->
<g id="edge18" class="edge">
<title>Node3&#45;&gt;Node16</title>
<path fill="none" stroke="#191970" d="M324.2636,-259.3843C329.4922,-256.8651 334.4848,-253.9268 339,-250.5 363.1676,-232.1582 351.3055,-211.449 375,-192.5 379.9693,-188.526 385.4996,-185.0612 391.2939,-182.0436"/>
<polygon fill="#191970" stroke="#191970" points="393.0263,-185.0962 400.5739,-177.6609 390.037,-178.7666 393.0263,-185.0962"/>
</g>
<!-- Node17 -->
<g id="node18" class="node">
<title>Node17</title>
<g id="a_node18"><a xlink:href="classene_1_1views_1_1gui_1_1partial_1_1AbstractTrackListView.html#a709dd0b919d5e537076fe18ad992f25f" target="_top" xlink:title="ene.views.gui.partial.Abstract\lTrackListView.getTableContent">
<polygon fill="none" stroke="#000000" points="593.5,-215.5 593.5,-245.5 747.5,-245.5 747.5,-215.5 593.5,-215.5"/>
<text text-anchor="start" x="601.5" y="-233.5" font-family="Helvetica,sans-Serif" font-size="10.00" fill="#000000">ene.views.gui.partial.Abstract</text>
<text text-anchor="middle" x="670.5" y="-222.5" font-family="Helvetica,sans-Serif" font-size="10.00" fill="#000000">TrackListView.getTableContent</text>
</a>
</g>
</g>
<!-- Node3&#45;&gt;Node17 -->
<g id="edge25" class="edge">
<title>Node3&#45;&gt;Node17</title>
<path fill="none" stroke="#191970" d="M316.3346,-259.4523C324.0963,-256.8186 331.8323,-253.8355 339,-250.5 356.4343,-242.3869 356.5955,-232.0724 375,-226.5 442.773,-205.98 523.3583,-208.7482 583.2425,-215.6585"/>
<polygon fill="#191970" stroke="#191970" points="583.072,-219.1634 593.4213,-216.8956 583.9167,-212.2146 583.072,-219.1634"/>
</g>
<!-- Node22 -->
<g id="node23" class="node">
<title>Node22</title>
<g id="a_node23"><a xlink:href="classene_1_1views_1_1AbstractPartialView.html#afb90f9e02eea94a2fb276d711a67ee36" target="_top" xlink:title="ene.views.AbstractPartial\lView.getModel">
<polygon fill="none" stroke="#000000" points="397.5,-98.5 397.5,-128.5 525.5,-128.5 525.5,-98.5 397.5,-98.5"/>
<text text-anchor="start" x="405.5" y="-116.5" font-family="Helvetica,sans-Serif" font-size="10.00" fill="#000000">ene.views.AbstractPartial</text>
<text text-anchor="middle" x="461.5" y="-105.5" font-family="Helvetica,sans-Serif" font-size="10.00" fill="#000000">View.getModel</text>
</a>
</g>
</g>
<!-- Node3&#45;&gt;Node22 -->
<g id="edge24" class="edge">
<title>Node3&#45;&gt;Node22</title>
<path fill="none" stroke="#191970" d="M325.6412,-260.3069C330.507,-257.5847 335.0433,-254.3478 339,-250.5 376.484,-214.0476 337.4842,-174.9197 375,-138.5 378.8275,-134.7843 383.1716,-131.615 387.8266,-128.9125"/>
<polygon fill="#191970" stroke="#191970" points="389.7301,-131.8738 397.1075,-124.2696 386.5982,-125.6135 389.7301,-131.8738"/>
</g>
<!-- Node23 -->
<g id="node24" class="node">
<title>Node23</title>
<g id="a_node24"><a xlink:href="classene_1_1views_1_1gui_1_1partial_1_1AbstractTrackListView.html#a2b9e7e6496c9675f9094dea99e1e469d" target="_top" xlink:title="ene.views.gui.partial.Abstract\lTrackListView.hideColumn">
<polygon fill="none" stroke="#000000" points="388.5,-49.5 388.5,-79.5 534.5,-79.5 534.5,-49.5 388.5,-49.5"/>
<text text-anchor="start" x="396.5" y="-67.5" font-family="Helvetica,sans-Serif" font-size="10.00" fill="#000000">ene.views.gui.partial.Abstract</text>
<text text-anchor="middle" x="461.5" y="-56.5" font-family="Helvetica,sans-Serif" font-size="10.00" fill="#000000">TrackListView.hideColumn</text>
</a>
</g>
</g>
<!-- Node3&#45;&gt;Node23 -->
<g id="edge26" class="edge">
<title>Node3&#45;&gt;Node23</title>
<path fill="none" stroke="#191970" d="M325.6462,-260.9198C330.5747,-258.0671 335.1203,-254.6326 339,-250.5 389.1853,-197.0431 324.7681,-142.9131 375,-89.5 376.5662,-87.8346 378.2358,-86.2779 379.9918,-84.8229"/>
<polygon fill="#191970" stroke="#191970" points="382.0137,-87.6799 388.1923,-79.0732 377.995,-81.9483 382.0137,-87.6799"/>
</g>
<!-- Node24 -->
<g id="node25" class="node">
<title>Node24</title>
<g id="a_node25"><a xlink:href="classene_1_1views_1_1gui_1_1partial_1_1AbstractTrackListView.html#a597363a2069558d6801c75be622b1988" target="_top" xlink:title="ene.views.gui.partial.Abstract\lTrackListView.setTable">
<polygon fill="none" stroke="#000000" points="388.5,-.5 388.5,-30.5 534.5,-30.5 534.5,-.5 388.5,-.5"/>
<text text-anchor="start" x="396.5" y="-18.5" font-family="Helvetica,sans-Serif" font-size="10.00" fill="#000000">ene.views.gui.partial.Abstract</text>
<text text-anchor="middle" x="461.5" y="-7.5" font-family="Helvetica,sans-Serif" font-size="10.00" fill="#000000">TrackListView.setTable</text>
</a>
</g>
</g>
<!-- Node3&#45;&gt;Node24 -->
<g id="edge27" class="edge">
<title>Node3&#45;&gt;Node24</title>
<path fill="none" stroke="#191970" d="M325.8745,-261.1288C330.7534,-258.2307 335.2253,-254.7287 339,-250.5 402.0601,-179.8563 311.8783,-111.0887 375,-40.5 376.5663,-38.7485 378.2468,-37.1164 380.0228,-35.5959"/>
<polygon fill="#191970" stroke="#191970" points="382.2737,-38.2888 388.3629,-29.6185 378.1959,-32.5991 382.2737,-38.2888"/>
</g>
<!-- Node7 -->
<g id="node8" class="node">
<title>Node7</title>
<g id="a_node8"><a xlink:href="classene_1_1controllers_1_1LibraryController.html#a6bc70daa48b96db79d5524113a49cd3e" target="_top" xlink:title="ene.controllers.LibraryController.add\lDirectoryContent">
<polygon fill="none" stroke="#000000" points="584,-372.5 584,-402.5 757,-402.5 757,-372.5 584,-372.5"/>
<text text-anchor="start" x="592" y="-390.5" font-family="Helvetica,sans-Serif" font-size="10.00" fill="#000000">ene.controllers.LibraryController.add</text>
<text text-anchor="middle" x="670.5" y="-379.5" font-family="Helvetica,sans-Serif" font-size="10.00" fill="#000000">DirectoryContent</text>
</a>
</g>
</g>
<!-- Node6&#45;&gt;Node7 -->
<g id="edge8" class="edge">
<title>Node6&#45;&gt;Node7</title>
<path fill="none" stroke="#191970" d="M506.8499,-353.0473C530.801,-358.0897 560.9334,-364.4334 588.7937,-370.2987"/>
<polygon fill="#191970" stroke="#191970" points="588.433,-373.7994 598.9395,-372.4346 589.8751,-366.9495 588.433,-373.7994"/>
</g>
<!-- Node9 -->
<g id="node10" class="node">
<title>Node9</title>
<g id="a_node10"><a xlink:href="classene_1_1controllers_1_1LibraryController.html#a8ebea67eb61c84ee6a4825fa98fe870b" target="_top" xlink:title="ene.controllers.LibraryController.addFile">
<polygon fill="none" stroke="#000000" points="1008,-353 1008,-372 1197,-372 1197,-353 1008,-353"/>
<text text-anchor="middle" x="1102.5" y="-360" font-family="Helvetica,sans-Serif" font-size="10.00" fill="#000000">ene.controllers.LibraryController.addFile</text>
</a>
</g>
</g>
<!-- Node6&#45;&gt;Node9 -->
<g id="edge14" class="edge">
<title>Node6&#45;&gt;Node9</title>
<path fill="none" stroke="#191970" d="M548.2814,-346.0723C664.9644,-349.5309 872.2175,-355.6742 997.536,-359.3887"/>
<polygon fill="#191970" stroke="#191970" points="997.8076,-362.8982 1007.907,-359.6962 998.0151,-355.9013 997.8076,-362.8982"/>
</g>
<!-- Node8 -->
<g id="node9" class="node">
<title>Node8</title>
<g id="a_node9"><a xlink:href="classene_1_1controllers_1_1LibraryController.html#a3a8b922c846a9b770b67f478ea0e5352" target="_top" xlink:title="ene.controllers.LibraryController.scan">
<polygon fill="none" stroke="#000000" points="793,-375 793,-394 972,-394 972,-375 793,-375"/>
<text text-anchor="middle" x="882.5" y="-382" font-family="Helvetica,sans-Serif" font-size="10.00" fill="#000000">ene.controllers.LibraryController.scan</text>
</a>
</g>
</g>
<!-- Node7&#45;&gt;Node8 -->
<g id="edge9" class="edge">
<title>Node7&#45;&gt;Node8</title>
<path fill="none" stroke="#191970" d="M757.0343,-386.2755C765.5103,-386.1555 774.1583,-386.0331 782.7514,-385.9115"/>
<polygon fill="#191970" stroke="#191970" points="782.8505,-389.4106 792.8,-385.7693 782.7514,-382.4113 782.8505,-389.4106"/>
</g>
<!-- Node8&#45;&gt;Node9 -->
<g id="edge10" class="edge">
<title>Node8&#45;&gt;Node9</title>
<path fill="none" stroke="#191970" d="M972.2997,-375.52C980.754,-374.6746 989.3732,-373.8127 997.9481,-372.9552"/>
<polygon fill="#191970" stroke="#191970" points="998.3794,-376.4296 1007.9815,-371.9519 997.6828,-369.4644 998.3794,-376.4296"/>
</g>
<!-- Node10 -->
<g id="node11" class="node">
<title>Node10</title>
<g id="a_node11"><a xlink:href="classene_1_1models_1_1TrackModel.html#ab0db9bf0054a77ed2879695a379e3bd9" target="_top" xlink:title="ene.models.TrackModel.detect\lArtist">
<polygon fill="none" stroke="#000000" points="1233,-396.5 1233,-426.5 1384,-426.5 1384,-396.5 1233,-396.5"/>
<text text-anchor="start" x="1241" y="-414.5" font-family="Helvetica,sans-Serif" font-size="10.00" fill="#000000">ene.models.TrackModel.detect</text>
<text text-anchor="middle" x="1308.5" y="-403.5" font-family="Helvetica,sans-Serif" font-size="10.00" fill="#000000">Artist</text>
</a>
</g>
</g>
<!-- Node9&#45;&gt;Node10 -->
<g id="edge11" class="edge">
<title>Node9&#45;&gt;Node10</title>
<path fill="none" stroke="#191970" d="M1142.7079,-372.064C1169.016,-378.3218 1204.1618,-386.6817 1235.3225,-394.0937"/>
<polygon fill="#191970" stroke="#191970" points="1234.7449,-397.5539 1245.2834,-396.463 1236.3648,-390.7439 1234.7449,-397.5539"/>
</g>
<!-- Node11 -->
<g id="node12" class="node">
<title>Node11</title>
<g id="a_node12"><a xlink:href="classene_1_1models_1_1TrackModel.html#a860b368d4cb6d81e7504cbf979c0cad7" target="_top" xlink:title="ene.models.TrackModel.detect\lTitle">
<polygon fill="none" stroke="#000000" points="1233,-347.5 1233,-377.5 1384,-377.5 1384,-347.5 1233,-347.5"/>
<text text-anchor="start" x="1241" y="-365.5" font-family="Helvetica,sans-Serif" font-size="10.00" fill="#000000">ene.models.TrackModel.detect</text>
<text text-anchor="middle" x="1308.5" y="-354.5" font-family="Helvetica,sans-Serif" font-size="10.00" fill="#000000">Title</text>
</a>
</g>
</g>
<!-- Node9&#45;&gt;Node11 -->
<g id="edge12" class="edge">
<title>Node9&#45;&gt;Node11</title>
<path fill="none" stroke="#191970" d="M1197.0592,-362.5C1205.5563,-362.5 1214.1305,-362.5 1222.5485,-362.5"/>
<polygon fill="#191970" stroke="#191970" points="1222.7234,-366.0001 1232.7233,-362.5 1222.7233,-359.0001 1222.7234,-366.0001"/>
</g>
<!-- Node12 -->
<g id="node13" class="node">
<title>Node12</title>
<g id="a_node13"><a xlink:href="classene_1_1controllers_1_1AbstractController.html#a9a5afba01d0004a64db4cb14c23e0bbd" target="_top" xlink:title="ene.controllers.Abstract\lController\&lt; LibraryModel\l \&gt;::getModel">
<polygon fill="none" stroke="#000000" points="1247,-287 1247,-328 1370,-328 1370,-287 1247,-287"/>
<text text-anchor="start" x="1255" y="-316" font-family="Helvetica,sans-Serif" font-size="10.00" fill="#000000">ene.controllers.Abstract</text>
<text text-anchor="start" x="1255" y="-305" font-family="Helvetica,sans-Serif" font-size="10.00" fill="#000000">Controller&lt; LibraryModel</text>
<text text-anchor="middle" x="1308.5" y="-294" font-family="Helvetica,sans-Serif" font-size="10.00" fill="#000000"> &gt;::getModel</text>
</a>
</g>
</g>
<!-- Node9&#45;&gt;Node12 -->
<g id="edge13" class="edge">
<title>Node9&#45;&gt;Node12</title>
<path fill="none" stroke="#191970" d="M1138.3825,-352.9197C1165.5561,-345.6646 1203.7689,-335.4622 1237.0955,-326.5643"/>
<polygon fill="#191970" stroke="#191970" points="1238.0479,-329.9327 1246.8066,-323.9715 1236.2422,-323.1696 1238.0479,-329.9327"/>
</g>
<!-- Node14 -->
<g id="node15" class="node">
<title>Node14</title>
<g id="a_node15"><a xlink:href="classene_1_1views_1_1gui_1_1partial_1_1AbstractTrackListView.html#aeea3d90287745704cda06893c94b9666" target="_top" xlink:title="ene.views.gui.partial.Abstract\lTrackListView.getTable">
<polygon fill="none" stroke="#000000" points="597.5,-284.5 597.5,-314.5 743.5,-314.5 743.5,-284.5 597.5,-284.5"/>
<text text-anchor="start" x="605.5" y="-302.5" font-family="Helvetica,sans-Serif" font-size="10.00" fill="#000000">ene.views.gui.partial.Abstract</text>
<text text-anchor="middle" x="670.5" y="-291.5" font-family="Helvetica,sans-Serif" font-size="10.00" fill="#000000">TrackListView.getTable</text>
</a>
</g>
</g>
<!-- Node13&#45;&gt;Node14 -->
<g id="edge16" class="edge">
<title>Node13&#45;&gt;Node14</title>
<path fill="none" stroke="#191970" d="M548.017,-299.5C560.9542,-299.5 574.2705,-299.5 587.1404,-299.5"/>
<polygon fill="#191970" stroke="#191970" points="587.3504,-303.0001 597.3503,-299.5 587.3503,-296.0001 587.3504,-303.0001"/>
</g>
<!-- Node16&#45;&gt;Node17 -->
<g id="edge19" class="edge">
<title>Node16&#45;&gt;Node17</title>
<path fill="none" stroke="#191970" d="M506.0618,-177.6015C519.5702,-182.2744 534.4243,-187.5081 548,-192.5 564.1125,-198.4248 567.7084,-201.0872 584,-206.5 590.2602,-208.5799 596.8151,-210.6282 603.3959,-212.5983"/>
<polygon fill="#191970" stroke="#191970" points="602.4441,-215.9666 613.0251,-215.4236 604.415,-209.2497 602.4441,-215.9666"/>
</g>
<!-- Node18 -->
<g id="node19" class="node">
<title>Node18</title>
<g id="a_node19"><a xlink:href="classene_1_1models_1_1TrackModel.html#a04afba3cc5098c28ebd394fb7ac920ba" target="_top" xlink:title="ene.models.TrackModel.get\lArtist">
<polygon fill="none" stroke="#000000" points="602,-166.5 602,-196.5 739,-196.5 739,-166.5 602,-166.5"/>
<text text-anchor="start" x="610" y="-184.5" font-family="Helvetica,sans-Serif" font-size="10.00" fill="#000000">ene.models.TrackModel.get</text>
<text text-anchor="middle" x="670.5" y="-173.5" font-family="Helvetica,sans-Serif" font-size="10.00" fill="#000000">Artist</text>
</a>
</g>
</g>
<!-- Node16&#45;&gt;Node18 -->
<g id="edge20" class="edge">
<title>Node16&#45;&gt;Node18</title>
<path fill="none" stroke="#191970" d="M530.5136,-168.774C550.1448,-170.5586 571.6718,-172.5156 591.8306,-174.3482"/>
<polygon fill="#191970" stroke="#191970" points="591.6394,-177.8452 601.9152,-175.265 592.2732,-170.8739 591.6394,-177.8452"/>
</g>
<!-- Node19 -->
<g id="node20" class="node">
<title>Node19</title>
<g id="a_node20"><a xlink:href="classene_1_1models_1_1TrackModel.html#a5bac0e2b6c87c93eef2802d9d10bf3c1" target="_top" xlink:title="ene.models.TrackModel.get\lTitle">
<polygon fill="none" stroke="#000000" points="602,-117.5 602,-147.5 739,-147.5 739,-117.5 602,-117.5"/>
<text text-anchor="start" x="610" y="-135.5" font-family="Helvetica,sans-Serif" font-size="10.00" fill="#000000">ene.models.TrackModel.get</text>
<text text-anchor="middle" x="670.5" y="-124.5" font-family="Helvetica,sans-Serif" font-size="10.00" fill="#000000">Title</text>
</a>
</g>
</g>
<!-- Node16&#45;&gt;Node19 -->
<g id="edge21" class="edge">
<title>Node16&#45;&gt;Node19</title>
<path fill="none" stroke="#191970" d="M530.5136,-152.5937C550.1448,-149.7759 571.6718,-146.6859 591.8306,-143.7923"/>
<polygon fill="#191970" stroke="#191970" points="592.514,-147.2301 601.9152,-142.3447 591.5194,-140.3011 592.514,-147.2301"/>
</g>
<!-- Node20 -->
<g id="node21" class="node">
<title>Node20</title>
<g id="a_node21"><a xlink:href="classene_1_1models_1_1TrackModel.html#a2c57f7fe3f410c0e914af9a79de57346" target="_top" xlink:title="ene.models.TrackModel.get\lGenre">
<polygon fill="none" stroke="#000000" points="602,-68.5 602,-98.5 739,-98.5 739,-68.5 602,-68.5"/>
<text text-anchor="start" x="610" y="-86.5" font-family="Helvetica,sans-Serif" font-size="10.00" fill="#000000">ene.models.TrackModel.get</text>
<text text-anchor="middle" x="670.5" y="-75.5" font-family="Helvetica,sans-Serif" font-size="10.00" fill="#000000">Genre</text>
</a>
</g>
</g>
<!-- Node16&#45;&gt;Node20 -->
<g id="edge22" class="edge">
<title>Node16&#45;&gt;Node20</title>
<path fill="none" stroke="#191970" d="M527.3507,-147.4282C534.4908,-144.8604 541.5121,-141.8999 548,-138.5 566.4478,-128.8326 565.6042,-118.2659 584,-108.5 588.2629,-106.2369 592.7558,-104.1561 597.3611,-102.2464"/>
<polygon fill="#191970" stroke="#191970" points="598.8579,-105.4207 606.9344,-98.5635 596.3445,-98.8875 598.8579,-105.4207"/>
</g>
<!-- Node21 -->
<g id="node22" class="node">
<title>Node21</title>
<g id="a_node22"><a xlink:href="classene_1_1models_1_1TrackModel.html#aab88fe151b093dba71ad9f9ab5c6959d" target="_top" xlink:title="ene.models.TrackModel.get\lFilename">
<polygon fill="none" stroke="#000000" points="602,-19.5 602,-49.5 739,-49.5 739,-19.5 602,-19.5"/>
<text text-anchor="start" x="610" y="-37.5" font-family="Helvetica,sans-Serif" font-size="10.00" fill="#000000">ene.models.TrackModel.get</text>
<text text-anchor="middle" x="670.5" y="-26.5" font-family="Helvetica,sans-Serif" font-size="10.00" fill="#000000">Filename</text>
</a>
</g>
</g>
<!-- Node16&#45;&gt;Node21 -->
<g id="edge23" class="edge">
<title>Node16&#45;&gt;Node21</title>
<path fill="none" stroke="#191970" d="M530.916,-149.3435C537.0803,-146.4201 542.9045,-142.8526 548,-138.5 577.3383,-113.439 554.7962,-84.7176 584,-59.5 586.8284,-57.0576 589.883,-54.8534 593.0966,-52.8641"/>
<polygon fill="#191970" stroke="#191970" points="594.8001,-55.922 601.9293,-48.0845 591.4686,-49.7655 594.8001,-55.922"/>
</g>
</g>
</svg>
