<?xml version="1.0" encoding="UTF-8" standalone="no"?>
<!DOCTYPE svg PUBLIC "-//W3C//DTD SVG 1.1//EN"
 "http://www.w3.org/Graphics/SVG/1.1/DTD/svg11.dtd">
<!-- Generated by graphviz version 2.40.1 (20161225.0304)
 -->
<!-- Title: ene.views.AbstractView.setTitle Pages: 1 -->
<svg width="324pt" height="88pt"
 viewBox="0.00 0.00 324.00 88.00" xmlns="http://www.w3.org/2000/svg" xmlns:xlink="http://www.w3.org/1999/xlink">
<g id="graph0" class="graph" transform="scale(1 1) rotate(0) translate(4 84)">
<title>ene.views.AbstractView.setTitle</title>
<!-- Node23 -->
<g id="node1" class="node">
<title>Node23</title>
<polygon fill="#bfbfbf" stroke="#000000" points="0,-24.5 0,-54.5 139,-54.5 139,-24.5 0,-24.5"/>
<text text-anchor="start" x="8" y="-42.5" font-family="Helvetica,sans-Serif" font-size="10.00" fill="#000000">ene.views.AbstractView.set</text>
<text text-anchor="middle" x="69.5" y="-31.5" font-family="Helvetica,sans-Serif" font-size="10.00" fill="#000000">Title</text>
</g>
<!-- Node24 -->
<g id="node2" class="node">
<title>Node24</title>
<g id="a_node2"><a xlink:href="classene_1_1views_1_1gui_1_1partial_1_1LibraryView.html#a6411fbda85767fc960a3f57677e16f26" target="_top" xlink:title="ene.views.gui.partial.Library\lView.LibraryView">
<polygon fill="none" stroke="#000000" points="176.5,-49.5 176.5,-79.5 314.5,-79.5 314.5,-49.5 176.5,-49.5"/>
<text text-anchor="start" x="184.5" y="-67.5" font-family="Helvetica,sans-Serif" font-size="10.00" fill="#000000">ene.views.gui.partial.Library</text>
<text text-anchor="middle" x="245.5" y="-56.5" font-family="Helvetica,sans-Serif" font-size="10.00" fill="#000000">View.LibraryView</text>
</a>
</g>
</g>
<!-- Node23&#45;&gt;Node24 -->
<g id="edge1" class="edge">
<title>Node23&#45;&gt;Node24</title>
<path fill="none" stroke="#191970" d="M149.2407,-50.8268C158.321,-52.1166 167.5196,-53.4232 176.4453,-54.6911"/>
<polygon fill="#191970" stroke="#191970" points="149.4527,-47.3219 139.0599,-49.3807 148.4682,-54.2523 149.4527,-47.3219"/>
</g>
<!-- Node25 -->
<g id="node3" class="node">
<title>Node25</title>
<g id="a_node3"><a xlink:href="classene_1_1views_1_1gui_1_1partial_1_1PlaylistView.html#acba54350f264fe81771e766ab3fbffde" target="_top" xlink:title="ene.views.gui.partial.Playlist\lView.PlaylistView">
<polygon fill="none" stroke="#000000" points="175,-.5 175,-30.5 316,-30.5 316,-.5 175,-.5"/>
<text text-anchor="start" x="183" y="-18.5" font-family="Helvetica,sans-Serif" font-size="10.00" fill="#000000">ene.views.gui.partial.Playlist</text>
<text text-anchor="middle" x="245.5" y="-7.5" font-family="Helvetica,sans-Serif" font-size="10.00" fill="#000000">View.PlaylistView</text>
</a>
</g>
</g>
<!-- Node23&#45;&gt;Node25 -->
<g id="edge2" class="edge">
<title>Node23&#45;&gt;Node25</title>
<path fill="none" stroke="#191970" d="M149.0393,-28.6537C157.5993,-27.4865 166.267,-26.3045 174.7144,-25.1526"/>
<polygon fill="#191970" stroke="#191970" points="148.4952,-25.1954 139.0599,-30.0146 149.4411,-32.1313 148.4952,-25.1954"/>
</g>
</g>
</svg>
