<?xml version="1.0" encoding="UTF-8" standalone="no"?>
<!DOCTYPE svg PUBLIC "-//W3C//DTD SVG 1.1//EN"
 "http://www.w3.org/Graphics/SVG/1.1/DTD/svg11.dtd">
<!-- Generated by graphviz version 2.40.1 (20161225.0304)
 -->
<!-- Title: ene.models.TrackListModel Pages: 1 -->
<svg width="280pt" height="480pt"
 viewBox="0.00 0.00 279.50 480.00" xmlns="http://www.w3.org/2000/svg" xmlns:xlink="http://www.w3.org/1999/xlink">
<g id="graph0" class="graph" transform="scale(1 1) rotate(0) translate(4 476)">
<title>ene.models.TrackListModel</title>
<!-- Node0 -->
<g id="node1" class="node">
<title>Node0</title>
<polygon fill="#bfbfbf" stroke="#000000" points="66,-127.5 66,-217.5 203,-217.5 203,-127.5 66,-127.5"/>
<text text-anchor="middle" x="134.5" y="-205.5" font-family="Helvetica,sans-Serif" font-size="10.00" fill="#000000">ene.models.TrackListModel</text>
<polyline fill="none" stroke="#000000" points="66,-198.5 203,-198.5 "/>
<text text-anchor="start" x="74" y="-186.5" font-family="Helvetica,sans-Serif" font-size="10.00" fill="#000000"># tracks</text>
<polyline fill="none" stroke="#000000" points="66,-179.5 203,-179.5 "/>
<text text-anchor="start" x="74" y="-167.5" font-family="Helvetica,sans-Serif" font-size="10.00" fill="#000000">+ add()</text>
<text text-anchor="start" x="74" y="-156.5" font-family="Helvetica,sans-Serif" font-size="10.00" fill="#000000">+ remove()</text>
<text text-anchor="start" x="74" y="-145.5" font-family="Helvetica,sans-Serif" font-size="10.00" fill="#000000">+ get()</text>
<text text-anchor="start" x="74" y="-134.5" font-family="Helvetica,sans-Serif" font-size="10.00" fill="#000000">+ getAll()</text>
</g>
<!-- Node4 -->
<g id="node5" class="node">
<title>Node4</title>
<g id="a_node5"><a xlink:href="classene_1_1models_1_1LibraryModel.html" target="_top" xlink:title="{ene.models.LibraryModel\n||+ getByArtist()\l+ getByTitle()\l+ getByGenre()\l+ search()\l}">
<polygon fill="none" stroke="#000000" points="0,-.5 0,-90.5 125,-90.5 125,-.5 0,-.5"/>
<text text-anchor="middle" x="62.5" y="-78.5" font-family="Helvetica,sans-Serif" font-size="10.00" fill="#000000">ene.models.LibraryModel</text>
<polyline fill="none" stroke="#000000" points="0,-71.5 125,-71.5 "/>
<text text-anchor="middle" x="62.5" y="-59.5" font-family="Helvetica,sans-Serif" font-size="10.00" fill="#000000"> </text>
<polyline fill="none" stroke="#000000" points="0,-52.5 125,-52.5 "/>
<text text-anchor="start" x="8" y="-40.5" font-family="Helvetica,sans-Serif" font-size="10.00" fill="#000000">+ getByArtist()</text>
<text text-anchor="start" x="8" y="-29.5" font-family="Helvetica,sans-Serif" font-size="10.00" fill="#000000">+ getByTitle()</text>
<text text-anchor="start" x="8" y="-18.5" font-family="Helvetica,sans-Serif" font-size="10.00" fill="#000000">+ getByGenre()</text>
<text text-anchor="start" x="8" y="-7.5" font-family="Helvetica,sans-Serif" font-size="10.00" fill="#000000">+ search()</text>
</a>
</g>
</g>
<!-- Node0&#45;&gt;Node4 -->
<g id="edge4" class="edge">
<title>Node0&#45;&gt;Node4</title>
<path fill="none" stroke="#191970" d="M103.9597,-118.6304C98.7278,-109.4019 93.3384,-99.8955 88.2474,-90.9156"/>
<polygon fill="none" stroke="#191970" points="100.9361,-120.3939 108.9128,-127.367 107.0256,-116.9415 100.9361,-120.3939"/>
</g>
<!-- Node5 -->
<g id="node6" class="node">
<title>Node5</title>
<g id="a_node6"><a xlink:href="classene_1_1models_1_1PlaylistModel.html" target="_top" xlink:title="{ene.models.PlaylistModel\n|~ name\l|+ setName()\l+ getName()\l}">
<polygon fill="none" stroke="#000000" points="143.5,-11.5 143.5,-79.5 271.5,-79.5 271.5,-11.5 143.5,-11.5"/>
<text text-anchor="middle" x="207.5" y="-67.5" font-family="Helvetica,sans-Serif" font-size="10.00" fill="#000000">ene.models.PlaylistModel</text>
<polyline fill="none" stroke="#000000" points="143.5,-60.5 271.5,-60.5 "/>
<text text-anchor="start" x="151.5" y="-48.5" font-family="Helvetica,sans-Serif" font-size="10.00" fill="#000000">~ name</text>
<polyline fill="none" stroke="#000000" points="143.5,-41.5 271.5,-41.5 "/>
<text text-anchor="start" x="151.5" y="-29.5" font-family="Helvetica,sans-Serif" font-size="10.00" fill="#000000">+ setName()</text>
<text text-anchor="start" x="151.5" y="-18.5" font-family="Helvetica,sans-Serif" font-size="10.00" fill="#000000">+ getName()</text>
</a>
</g>
</g>
<!-- Node0&#45;&gt;Node5 -->
<g id="edge5" class="edge">
<title>Node0&#45;&gt;Node5</title>
<path fill="none" stroke="#191970" d="M165.5969,-118.3999C173.1381,-105.2803 180.994,-91.6131 187.8383,-79.706"/>
<polygon fill="none" stroke="#191970" points="162.3917,-116.9529 160.4426,-127.367 168.4605,-120.4414 162.3917,-116.9529"/>
</g>
<!-- Node1 -->
<g id="node2" class="node">
<title>Node1</title>
<g id="a_node2"><a xlink:href="classene_1_1models_1_1AbstractModel.html" target="_top" xlink:title="{ene.models.AbstractModel\n|# views\l|+ addView()\l# changed()\l}">
<polygon fill="none" stroke="#000000" points="68,-254.5 68,-322.5 201,-322.5 201,-254.5 68,-254.5"/>
<text text-anchor="middle" x="134.5" y="-310.5" font-family="Helvetica,sans-Serif" font-size="10.00" fill="#000000">ene.models.AbstractModel</text>
<polyline fill="none" stroke="#000000" points="68,-303.5 201,-303.5 "/>
<text text-anchor="start" x="76" y="-291.5" font-family="Helvetica,sans-Serif" font-size="10.00" fill="#000000"># views</text>
<polyline fill="none" stroke="#000000" points="68,-284.5 201,-284.5 "/>
<text text-anchor="start" x="76" y="-272.5" font-family="Helvetica,sans-Serif" font-size="10.00" fill="#000000">+ addView()</text>
<text text-anchor="start" x="76" y="-261.5" font-family="Helvetica,sans-Serif" font-size="10.00" fill="#000000"># changed()</text>
</a>
</g>
</g>
<!-- Node1&#45;&gt;Node0 -->
<g id="edge1" class="edge">
<title>Node1&#45;&gt;Node0</title>
<path fill="none" stroke="#191970" d="M134.5,-244.3177C134.5,-235.5764 134.5,-226.3904 134.5,-217.6185"/>
<polygon fill="none" stroke="#191970" points="131.0001,-244.3235 134.5,-254.3236 138.0001,-244.3236 131.0001,-244.3235"/>
</g>
<!-- Node2 -->
<g id="node3" class="node">
<title>Node2</title>
<g id="a_node3"><a xlink:href="classene_1_1AbstractObject.html" target="_top" xlink:title="{ene.AbstractObject\n|# debugModeEnabled\l|+ enableDebugMode()\l+ disableDebugMode()\l+ isDebugModeEnabled()\l+ debugInfoAbout()\l+ consoleOutput()\l# delay()\l}">
<polygon fill="none" stroke="#000000" points="4,-359.5 4,-471.5 131,-471.5 131,-359.5 4,-359.5"/>
<text text-anchor="middle" x="67.5" y="-459.5" font-family="Helvetica,sans-Serif" font-size="10.00" fill="#000000">ene.AbstractObject</text>
<polyline fill="none" stroke="#000000" points="4,-452.5 131,-452.5 "/>
<text text-anchor="start" x="12" y="-440.5" font-family="Helvetica,sans-Serif" font-size="10.00" fill="#000000"># debugModeEnabled</text>
<polyline fill="none" stroke="#000000" points="4,-433.5 131,-433.5 "/>
<text text-anchor="start" x="12" y="-421.5" font-family="Helvetica,sans-Serif" font-size="10.00" fill="#000000">+ enableDebugMode()</text>
<text text-anchor="start" x="12" y="-410.5" font-family="Helvetica,sans-Serif" font-size="10.00" fill="#000000">+ disableDebugMode()</text>
<text text-anchor="start" x="12" y="-399.5" font-family="Helvetica,sans-Serif" font-size="10.00" fill="#000000">+ isDebugModeEnabled()</text>
<text text-anchor="start" x="12" y="-388.5" font-family="Helvetica,sans-Serif" font-size="10.00" fill="#000000">+ debugInfoAbout()</text>
<text text-anchor="start" x="12" y="-377.5" font-family="Helvetica,sans-Serif" font-size="10.00" fill="#000000">+ consoleOutput()</text>
<text text-anchor="start" x="12" y="-366.5" font-family="Helvetica,sans-Serif" font-size="10.00" fill="#000000"># delay()</text>
</a>
</g>
</g>
<!-- Node2&#45;&gt;Node1 -->
<g id="edge2" class="edge">
<title>Node2&#45;&gt;Node1</title>
<path fill="none" stroke="#191970" d="M101.8919,-350.3094C106.9153,-340.7875 111.9119,-331.3163 116.4295,-322.753"/>
<polygon fill="none" stroke="#191970" points="98.6527,-348.9485 97.0822,-359.4263 104.844,-352.2148 98.6527,-348.9485"/>
</g>
<!-- Node3 -->
<g id="node4" class="node">
<title>Node3</title>
<g id="a_node4"><a xlink:href="interfaceene_1_1interfaces_1_1Model.html" target="_top" xlink:title="{ene.interfaces.Model\n||+ addView()\l}">
<polygon fill="none" stroke="#000000" points="149,-387 149,-444 256,-444 256,-387 149,-387"/>
<text text-anchor="middle" x="202.5" y="-432" font-family="Helvetica,sans-Serif" font-size="10.00" fill="#000000">ene.interfaces.Model</text>
<polyline fill="none" stroke="#000000" points="149,-425 256,-425 "/>
<text text-anchor="middle" x="202.5" y="-413" font-family="Helvetica,sans-Serif" font-size="10.00" fill="#000000"> </text>
<polyline fill="none" stroke="#000000" points="149,-406 256,-406 "/>
<text text-anchor="start" x="157" y="-394" font-family="Helvetica,sans-Serif" font-size="10.00" fill="#000000">+ addView()</text>
</a>
</g>
</g>
<!-- Node3&#45;&gt;Node1 -->
<g id="edge3" class="edge">
<title>Node3&#45;&gt;Node1</title>
<path fill="none" stroke="#191970" d="M182.5097,-378.1651C173.1272,-360.6419 162.0196,-339.8969 152.8528,-322.7765"/>
<polygon fill="none" stroke="#191970" points="179.4336,-379.835 187.2395,-386.9987 185.6047,-376.5308 179.4336,-379.835"/>
</g>
</g>
</svg>
