<?xml version="1.0" encoding="UTF-8" standalone="no"?>
<!DOCTYPE svg PUBLIC "-//W3C//DTD SVG 1.1//EN"
 "http://www.w3.org/Graphics/SVG/1.1/DTD/svg11.dtd">
<!-- Generated by graphviz version 2.40.1 (20161225.0304)
 -->
<!-- Title: ene.views.gui.partial.AbstractTrackListView.getTableContent Pages: 1 -->
<svg width="684pt" height="99pt"
 viewBox="0.00 0.00 684.00 99.00" xmlns="http://www.w3.org/2000/svg" xmlns:xlink="http://www.w3.org/1999/xlink">
<g id="graph0" class="graph" transform="scale(1 1) rotate(0) translate(4 95)">
<title>ene.views.gui.partial.AbstractTrackListView.getTableContent</title>
<!-- Node14 -->
<g id="node1" class="node">
<title>Node14</title>
<polygon fill="#bfbfbf" stroke="#000000" points="0,-.5 0,-30.5 154,-30.5 154,-.5 0,-.5"/>
<text text-anchor="start" x="8" y="-18.5" font-family="Helvetica,sans-Serif" font-size="10.00" fill="#000000">ene.views.gui.partial.Abstract</text>
<text text-anchor="middle" x="77" y="-7.5" font-family="Helvetica,sans-Serif" font-size="10.00" fill="#000000">TrackListView.getTableContent</text>
</g>
<!-- Node15 -->
<g id="node2" class="node">
<title>Node15</title>
<g id="a_node2"><a xlink:href="classene_1_1views_1_1gui_1_1partial_1_1LibraryView.html#a734cbc08cf36ed3d48cb106b77ecf28b" target="_top" xlink:title="ene.views.gui.partial.Library\lView.loadContent">
<polygon fill="none" stroke="#000000" points="190,-22.5 190,-52.5 328,-52.5 328,-22.5 190,-22.5"/>
<text text-anchor="start" x="198" y="-40.5" font-family="Helvetica,sans-Serif" font-size="10.00" fill="#000000">ene.views.gui.partial.Library</text>
<text text-anchor="middle" x="259" y="-29.5" font-family="Helvetica,sans-Serif" font-size="10.00" fill="#000000">View.loadContent</text>
</a>
</g>
</g>
<!-- Node14&#45;&gt;Node15 -->
<g id="edge1" class="edge">
<title>Node14&#45;&gt;Node15</title>
<path fill="none" stroke="#191970" d="M164.2145,-26.0424C172.7919,-27.0792 181.4142,-28.1215 189.7759,-29.1322"/>
<polygon fill="#191970" stroke="#191970" points="164.5322,-22.5554 154.1844,-24.83 163.6921,-29.5048 164.5322,-22.5554"/>
</g>
<!-- Node17 -->
<g id="node4" class="node">
<title>Node17</title>
<g id="a_node4"><a xlink:href="classene_1_1views_1_1gui_1_1partial_1_1LibraryView.html#a0bd6885fe06ebde4d3dffbcd888c0b41" target="_top" xlink:title="ene.views.gui.partial.Library\lView.render">
<polygon fill="none" stroke="#000000" points="538,-16.5 538,-46.5 676,-46.5 676,-16.5 538,-16.5"/>
<text text-anchor="start" x="546" y="-34.5" font-family="Helvetica,sans-Serif" font-size="10.00" fill="#000000">ene.views.gui.partial.Library</text>
<text text-anchor="middle" x="607" y="-23.5" font-family="Helvetica,sans-Serif" font-size="10.00" fill="#000000">View.render</text>
</a>
</g>
</g>
<!-- Node14&#45;&gt;Node17 -->
<g id="edge5" class="edge">
<title>Node14&#45;&gt;Node17</title>
<path fill="none" stroke="#191970" d="M164.3464,-12.9503C173.0132,-12.7666 181.6785,-12.6104 190,-12.5 251.3279,-11.6861 266.7021,-10.4152 328,-12.5 399.6907,-14.9383 481.564,-20.8909 537.986,-25.4892"/>
<polygon fill="#191970" stroke="#191970" points="164.1113,-9.4546 154.1921,-13.1776 164.2679,-16.4529 164.1113,-9.4546"/>
</g>
<!-- Node16 -->
<g id="node3" class="node">
<title>Node16</title>
<g id="a_node3"><a xlink:href="classene_1_1views_1_1gui_1_1partial_1_1LibraryView.html#a363a0a2db7ab4295ef38bb667038a6f8" target="_top" xlink:title="ene.views.gui.partial.Library\lView.update">
<polygon fill="none" stroke="#000000" points="364,-60.5 364,-90.5 502,-90.5 502,-60.5 364,-60.5"/>
<text text-anchor="start" x="372" y="-78.5" font-family="Helvetica,sans-Serif" font-size="10.00" fill="#000000">ene.views.gui.partial.Library</text>
<text text-anchor="middle" x="433" y="-67.5" font-family="Helvetica,sans-Serif" font-size="10.00" fill="#000000">View.update</text>
</a>
</g>
</g>
<!-- Node15&#45;&gt;Node16 -->
<g id="edge2" class="edge">
<title>Node15&#45;&gt;Node16</title>
<path fill="none" stroke="#191970" d="M337.6762,-54.6822C346.5117,-56.6117 355.4627,-58.5666 364.1603,-60.466"/>
<polygon fill="#191970" stroke="#191970" points="338.2859,-51.2329 327.7694,-52.5186 336.7923,-58.0717 338.2859,-51.2329"/>
</g>
<!-- Node15&#45;&gt;Node17 -->
<g id="edge4" class="edge">
<title>Node15&#45;&gt;Node17</title>
<path fill="none" stroke="#191970" d="M338.3891,-36.1312C398.5794,-35.0935 480.4734,-33.6815 537.9613,-32.6903"/>
<polygon fill="#191970" stroke="#191970" points="338.1078,-32.6355 328.1697,-36.3074 338.2286,-39.6344 338.1078,-32.6355"/>
</g>
<!-- Node16&#45;&gt;Node17 -->
<g id="edge3" class="edge">
<title>Node16&#45;&gt;Node17</title>
<path fill="none" stroke="#191970" d="M502.1471,-58.0145C517.1815,-54.2127 532.9592,-50.223 547.5782,-46.5262"/>
<polygon fill="#191970" stroke="#191970" points="501.231,-54.6359 492.3943,-60.4808 502.9472,-61.4223 501.231,-54.6359"/>
</g>
</g>
</svg>
