<?xml version="1.0" encoding="UTF-8" standalone="no"?>
<!DOCTYPE svg PUBLIC "-//W3C//DTD SVG 1.1//EN"
 "http://www.w3.org/Graphics/SVG/1.1/DTD/svg11.dtd">
<!-- Generated by graphviz version 2.40.1 (20161225.0304)
 -->
<!-- Title: ene.models.TrackModel.getTitle Pages: 1 -->
<svg width="760pt" height="225pt"
 viewBox="0.00 0.00 760.00 225.00" xmlns="http://www.w3.org/2000/svg" xmlns:xlink="http://www.w3.org/1999/xlink">
<g id="graph0" class="graph" transform="scale(1 1) rotate(0) translate(4 221)">
<title>ene.models.TrackModel.getTitle</title>
<!-- Node60 -->
<g id="node1" class="node">
<title>Node60</title>
<polygon fill="#bfbfbf" stroke="#000000" points="0,-88.5 0,-118.5 137,-118.5 137,-88.5 0,-88.5"/>
<text text-anchor="start" x="8" y="-106.5" font-family="Helvetica,sans-Serif" font-size="10.00" fill="#000000">ene.models.TrackModel.get</text>
<text text-anchor="middle" x="68.5" y="-95.5" font-family="Helvetica,sans-Serif" font-size="10.00" fill="#000000">Title</text>
</g>
<!-- Node61 -->
<g id="node2" class="node">
<title>Node61</title>
<g id="a_node2"><a xlink:href="classene_1_1models_1_1LibraryModel.html#a54d2e007cb15c20e66cdc3d23c6c2db6" target="_top" xlink:title="ene.models.LibraryModel.get\lByTitle">
<polygon fill="none" stroke="#000000" points="191.5,-186.5 191.5,-216.5 333.5,-216.5 333.5,-186.5 191.5,-186.5"/>
<text text-anchor="start" x="199.5" y="-204.5" font-family="Helvetica,sans-Serif" font-size="10.00" fill="#000000">ene.models.LibraryModel.get</text>
<text text-anchor="middle" x="262.5" y="-193.5" font-family="Helvetica,sans-Serif" font-size="10.00" fill="#000000">ByTitle</text>
</a>
</g>
</g>
<!-- Node60&#45;&gt;Node61 -->
<g id="edge1" class="edge">
<title>Node60&#45;&gt;Node61</title>
<path fill="none" stroke="#191970" d="M93.5712,-125.1388C113.8056,-141.6046 143.6426,-163.7121 173,-177.5 180.135,-180.851 187.8176,-183.7984 195.5767,-186.3741"/>
<polygon fill="#191970" stroke="#191970" points="95.716,-122.3707 85.7808,-118.6907 91.2527,-127.7632 95.716,-122.3707"/>
</g>
<!-- Node62 -->
<g id="node3" class="node">
<title>Node62</title>
<g id="a_node3"><a xlink:href="classene_1_1views_1_1gui_1_1partial_1_1LibraryView.html#a734cbc08cf36ed3d48cb106b77ecf28b" target="_top" xlink:title="ene.views.gui.partial.Library\lView.loadContent">
<polygon fill="none" stroke="#000000" points="193.5,-137.5 193.5,-167.5 331.5,-167.5 331.5,-137.5 193.5,-137.5"/>
<text text-anchor="start" x="201.5" y="-155.5" font-family="Helvetica,sans-Serif" font-size="10.00" fill="#000000">ene.views.gui.partial.Library</text>
<text text-anchor="middle" x="262.5" y="-144.5" font-family="Helvetica,sans-Serif" font-size="10.00" fill="#000000">View.loadContent</text>
</a>
</g>
</g>
<!-- Node60&#45;&gt;Node62 -->
<g id="edge2" class="edge">
<title>Node60&#45;&gt;Node62</title>
<path fill="none" stroke="#191970" d="M137.9829,-121.0498C159.2865,-126.4306 182.5207,-132.299 203.0878,-137.4938"/>
<polygon fill="#191970" stroke="#191970" points="138.5775,-117.5901 128.0248,-118.5346 136.8632,-124.377 138.5775,-117.5901"/>
</g>
<!-- Node65 -->
<g id="node6" class="node">
<title>Node65</title>
<g id="a_node6"><a xlink:href="classene_1_1controllers_1_1LibraryController.html#aa40dceee9b0024082b71ab641a087c2e" target="_top" xlink:title="ene.controllers.LibraryController.save\lToFile">
<polygon fill="none" stroke="#000000" points="173,-88.5 173,-118.5 352,-118.5 352,-88.5 173,-88.5"/>
<text text-anchor="start" x="181" y="-106.5" font-family="Helvetica,sans-Serif" font-size="10.00" fill="#000000">ene.controllers.LibraryController.save</text>
<text text-anchor="middle" x="262.5" y="-95.5" font-family="Helvetica,sans-Serif" font-size="10.00" fill="#000000">ToFile</text>
</a>
</g>
</g>
<!-- Node60&#45;&gt;Node65 -->
<g id="edge6" class="edge">
<title>Node60&#45;&gt;Node65</title>
<path fill="none" stroke="#191970" d="M147.3191,-103.5C155.731,-103.5 164.332,-103.5 172.8569,-103.5"/>
<polygon fill="#191970" stroke="#191970" points="147.1702,-100.0001 137.1702,-103.5 147.1701,-107.0001 147.1702,-100.0001"/>
</g>
<!-- Node68 -->
<g id="node9" class="node">
<title>Node68</title>
<g id="a_node9"><a xlink:href="classene_1_1models_1_1LibraryModel.html#accd8b9321b02639dbb2970022556d324" target="_top" xlink:title="ene.models.LibraryModel.search">
<polygon fill="none" stroke="#000000" points="183.5,-50 183.5,-69 341.5,-69 341.5,-50 183.5,-50"/>
<text text-anchor="middle" x="262.5" y="-57" font-family="Helvetica,sans-Serif" font-size="10.00" fill="#000000">ene.models.LibraryModel.search</text>
</a>
</g>
</g>
<!-- Node60&#45;&gt;Node68 -->
<g id="edge10" class="edge">
<title>Node60&#45;&gt;Node68</title>
<path fill="none" stroke="#191970" d="M140.0763,-86.1196C151.0912,-83.5192 162.3423,-80.9057 173,-78.5 187.1001,-75.3173 202.485,-71.9965 216.4595,-69.0379"/>
<polygon fill="#191970" stroke="#191970" points="138.9729,-82.7841 130.0507,-88.4976 140.5885,-89.5951 138.9729,-82.7841"/>
</g>
<!-- Node69 -->
<g id="node10" class="node">
<title>Node69</title>
<g id="a_node10"><a xlink:href="classene_1_1models_1_1TrackModel.html#a0a42aa27708a22d669893b6152be8d20" target="_top" xlink:title="ene.models.TrackModel.to\lString">
<polygon fill="none" stroke="#000000" points="196.5,-.5 196.5,-30.5 328.5,-30.5 328.5,-.5 196.5,-.5"/>
<text text-anchor="start" x="204.5" y="-18.5" font-family="Helvetica,sans-Serif" font-size="10.00" fill="#000000">ene.models.TrackModel.to</text>
<text text-anchor="middle" x="262.5" y="-7.5" font-family="Helvetica,sans-Serif" font-size="10.00" fill="#000000">String</text>
</a>
</g>
</g>
<!-- Node60&#45;&gt;Node69 -->
<g id="edge11" class="edge">
<title>Node60&#45;&gt;Node69</title>
<path fill="none" stroke="#191970" d="M98.0812,-82.7015C118.3967,-69.175 146.3999,-51.9809 173,-40.5 181.5911,-36.792 190.8834,-33.4809 200.1183,-30.5772"/>
<polygon fill="#191970" stroke="#191970" points="95.9225,-79.936 89.5967,-88.4351 99.8419,-85.7358 95.9225,-79.936"/>
</g>
<!-- Node63 -->
<g id="node4" class="node">
<title>Node63</title>
<g id="a_node4"><a xlink:href="classene_1_1views_1_1gui_1_1partial_1_1LibraryView.html#a363a0a2db7ab4295ef38bb667038a6f8" target="_top" xlink:title="ene.views.gui.partial.Library\lView.update">
<polygon fill="none" stroke="#000000" points="414,-175.5 414,-205.5 552,-205.5 552,-175.5 414,-175.5"/>
<text text-anchor="start" x="422" y="-193.5" font-family="Helvetica,sans-Serif" font-size="10.00" fill="#000000">ene.views.gui.partial.Library</text>
<text text-anchor="middle" x="483" y="-182.5" font-family="Helvetica,sans-Serif" font-size="10.00" fill="#000000">View.update</text>
</a>
</g>
</g>
<!-- Node62&#45;&gt;Node63 -->
<g id="edge3" class="edge">
<title>Node62&#45;&gt;Node63</title>
<path fill="none" stroke="#191970" d="M341.6212,-166.1354C365.1859,-170.1964 390.8173,-174.6136 413.704,-178.5578"/>
<polygon fill="#191970" stroke="#191970" points="342.1118,-162.6684 331.6626,-164.4192 340.9229,-169.5667 342.1118,-162.6684"/>
</g>
<!-- Node64 -->
<g id="node5" class="node">
<title>Node64</title>
<g id="a_node5"><a xlink:href="classene_1_1views_1_1gui_1_1partial_1_1LibraryView.html#a0bd6885fe06ebde4d3dffbcd888c0b41" target="_top" xlink:title="ene.views.gui.partial.Library\lView.render">
<polygon fill="none" stroke="#000000" points="614,-131.5 614,-161.5 752,-161.5 752,-131.5 614,-131.5"/>
<text text-anchor="start" x="622" y="-149.5" font-family="Helvetica,sans-Serif" font-size="10.00" fill="#000000">ene.views.gui.partial.Library</text>
<text text-anchor="middle" x="683" y="-138.5" font-family="Helvetica,sans-Serif" font-size="10.00" fill="#000000">View.render</text>
</a>
</g>
</g>
<!-- Node62&#45;&gt;Node64 -->
<g id="edge5" class="edge">
<title>Node62&#45;&gt;Node64</title>
<path fill="none" stroke="#191970" d="M342.253,-151.362C420.6979,-150.2427 539.2306,-148.5514 613.8096,-147.4873"/>
<polygon fill="#191970" stroke="#191970" points="341.886,-147.8668 331.937,-151.5092 341.986,-154.8661 341.886,-147.8668"/>
</g>
<!-- Node63&#45;&gt;Node64 -->
<g id="edge4" class="edge">
<title>Node63&#45;&gt;Node64</title>
<path fill="none" stroke="#191970" d="M561.4928,-173.2316C579.069,-169.3648 597.5756,-165.2934 614.6991,-161.5262"/>
<polygon fill="#191970" stroke="#191970" points="560.2837,-169.9138 551.2693,-175.4808 561.7878,-176.7503 560.2837,-169.9138"/>
</g>
<!-- Node66 -->
<g id="node7" class="node">
<title>Node66</title>
<g id="a_node7"><a xlink:href="classene_1_1controllers_1_1LibraryController.html#aa0d66e53872a376fe6d456eb070de8d4" target="_top" xlink:title="ene.controllers.LibraryController.add">
<polygon fill="none" stroke="#000000" points="396.5,-99 396.5,-118 569.5,-118 569.5,-99 396.5,-99"/>
<text text-anchor="middle" x="483" y="-106" font-family="Helvetica,sans-Serif" font-size="10.00" fill="#000000">ene.controllers.LibraryController.add</text>
</a>
</g>
</g>
<!-- Node65&#45;&gt;Node66 -->
<g id="edge7" class="edge">
<title>Node65&#45;&gt;Node66</title>
<path fill="none" stroke="#191970" d="M362.4816,-105.7672C373.7516,-106.0227 385.166,-106.2815 396.2482,-106.5328"/>
<polygon fill="#191970" stroke="#191970" points="362.2626,-102.2614 352.1858,-105.5337 362.1038,-109.2596 362.2626,-102.2614"/>
</g>
<!-- Node67 -->
<g id="node8" class="node">
<title>Node67</title>
<g id="a_node8"><a xlink:href="classene_1_1controllers_1_1LibraryController.html#aac7853b4f42ee8c4d8704e036eca61a0" target="_top" xlink:title="ene.controllers.LibraryController.remove">
<polygon fill="none" stroke="#000000" points="388,-61 388,-80 578,-80 578,-61 388,-61"/>
<text text-anchor="middle" x="483" y="-68" font-family="Helvetica,sans-Serif" font-size="10.00" fill="#000000">ene.controllers.LibraryController.remove</text>
</a>
</g>
</g>
<!-- Node65&#45;&gt;Node67 -->
<g id="edge9" class="edge">
<title>Node65&#45;&gt;Node67</title>
<path fill="none" stroke="#191970" d="M362.2865,-88.566C381.7026,-85.6602 401.5555,-82.689 419.4072,-80.0173"/>
<polygon fill="#191970" stroke="#191970" points="361.5576,-85.136 352.1858,-90.0776 362.5937,-92.0589 361.5576,-85.136"/>
</g>
<!-- Node66&#45;&gt;Node64 -->
<g id="edge8" class="edge">
<title>Node66&#45;&gt;Node64</title>
<path fill="none" stroke="#191970" d="M543.1995,-119.9379C565.4659,-124.1685 590.8784,-128.9969 613.8754,-133.3663"/>
<polygon fill="#191970" stroke="#191970" points="543.6879,-116.4682 533.2103,-118.04 542.3812,-123.3451 543.6879,-116.4682"/>
</g>
</g>
</svg>
