<?xml version="1.0" encoding="UTF-8" standalone="no"?>
<!DOCTYPE svg PUBLIC "-//W3C//DTD SVG 1.1//EN"
 "http://www.w3.org/Graphics/SVG/1.1/DTD/svg11.dtd">
<!-- Generated by graphviz version 2.40.1 (20161225.0304)
 -->
<!-- Title: ene.models.TrackModel.getFilename Pages: 1 -->
<svg width="935pt" height="714pt"
 viewBox="0.00 0.00 935.00 713.50" xmlns="http://www.w3.org/2000/svg" xmlns:xlink="http://www.w3.org/1999/xlink">
<g id="graph0" class="graph" transform="scale(1 1) rotate(0) translate(4 709.5)">
<title>ene.models.TrackModel.getFilename</title>
<!-- Node60 -->
<g id="node1" class="node">
<title>Node60</title>
<polygon fill="#bfbfbf" stroke="#000000" points="0,-362.5 0,-392.5 137,-392.5 137,-362.5 0,-362.5"/>
<text text-anchor="start" x="8" y="-380.5" font-family="Helvetica,sans-Serif" font-size="10.00" fill="#000000">ene.models.TrackModel.get</text>
<text text-anchor="middle" x="68.5" y="-369.5" font-family="Helvetica,sans-Serif" font-size="10.00" fill="#000000">Filename</text>
</g>
<!-- Node61 -->
<g id="node2" class="node">
<title>Node61</title>
<g id="a_node2"><a xlink:href="classene_1_1models_1_1TrackListModel.html#a57554d49b1182a9138b871617ce57e9a" target="_top" xlink:title="ene.models.TrackListModel.add">
<polygon fill="none" stroke="#000000" points="185,-686 185,-705 340,-705 340,-686 185,-686"/>
<text text-anchor="middle" x="262.5" y="-693" font-family="Helvetica,sans-Serif" font-size="10.00" fill="#000000">ene.models.TrackListModel.add</text>
</a>
</g>
</g>
<!-- Node60&#45;&gt;Node61 -->
<g id="edge1" class="edge">
<title>Node60&#45;&gt;Node61</title>
<path fill="none" stroke="#191970" d="M73.9296,-402.502C88.5238,-467.4348 130.3851,-638.9821 173,-676.5 177.292,-680.2787 182.1469,-683.3704 187.3213,-685.8935"/>
<polygon fill="#191970" stroke="#191970" points="77.3354,-401.6935 71.7503,-392.6904 70.5019,-403.2114 77.3354,-401.6935"/>
</g>
<!-- Node62 -->
<g id="node3" class="node">
<title>Node62</title>
<g id="a_node3"><a xlink:href="classene_1_1models_1_1LibraryModel.html#a3165afccddf54c681f89de1a18356fd5" target="_top" xlink:title="ene.models.LibraryModel.get\lByArtist">
<polygon fill="none" stroke="#000000" points="191.5,-636.5 191.5,-666.5 333.5,-666.5 333.5,-636.5 191.5,-636.5"/>
<text text-anchor="start" x="199.5" y="-654.5" font-family="Helvetica,sans-Serif" font-size="10.00" fill="#000000">ene.models.LibraryModel.get</text>
<text text-anchor="middle" x="262.5" y="-643.5" font-family="Helvetica,sans-Serif" font-size="10.00" fill="#000000">ByArtist</text>
</a>
</g>
</g>
<!-- Node60&#45;&gt;Node62 -->
<g id="edge2" class="edge">
<title>Node60&#45;&gt;Node62</title>
<path fill="none" stroke="#191970" d="M71.6329,-402.5344C79.295,-452.9216 103.7124,-566.9221 173,-627.5 178.45,-632.2649 184.7494,-636.0962 191.4313,-639.1749"/>
<polygon fill="#191970" stroke="#191970" points="75.0812,-401.923 70.2058,-392.5166 68.1512,-402.9103 75.0812,-401.923"/>
</g>
<!-- Node63 -->
<g id="node4" class="node">
<title>Node63</title>
<g id="a_node4"><a xlink:href="classene_1_1models_1_1LibraryModel.html#a98e2135ca9f08c127e5df33e002fc877" target="_top" xlink:title="ene.models.LibraryModel.get\lByGenre">
<polygon fill="none" stroke="#000000" points="191.5,-587.5 191.5,-617.5 333.5,-617.5 333.5,-587.5 191.5,-587.5"/>
<text text-anchor="start" x="199.5" y="-605.5" font-family="Helvetica,sans-Serif" font-size="10.00" fill="#000000">ene.models.LibraryModel.get</text>
<text text-anchor="middle" x="262.5" y="-594.5" font-family="Helvetica,sans-Serif" font-size="10.00" fill="#000000">ByGenre</text>
</a>
</g>
</g>
<!-- Node60&#45;&gt;Node63 -->
<g id="edge3" class="edge">
<title>Node60&#45;&gt;Node63</title>
<path fill="none" stroke="#191970" d="M74.4042,-402.3544C85.8535,-445.0184 115.1908,-532.0691 173,-578.5 178.5187,-582.9325 184.7843,-586.5503 191.3769,-589.5025"/>
<polygon fill="#191970" stroke="#191970" points="77.7542,-401.3279 71.8724,-392.5157 70.9751,-403.0725 77.7542,-401.3279"/>
</g>
<!-- Node64 -->
<g id="node5" class="node">
<title>Node64</title>
<g id="a_node5"><a xlink:href="classene_1_1models_1_1LibraryModel.html#a54d2e007cb15c20e66cdc3d23c6c2db6" target="_top" xlink:title="ene.models.LibraryModel.get\lByTitle">
<polygon fill="none" stroke="#000000" points="191.5,-538.5 191.5,-568.5 333.5,-568.5 333.5,-538.5 191.5,-538.5"/>
<text text-anchor="start" x="199.5" y="-556.5" font-family="Helvetica,sans-Serif" font-size="10.00" fill="#000000">ene.models.LibraryModel.get</text>
<text text-anchor="middle" x="262.5" y="-545.5" font-family="Helvetica,sans-Serif" font-size="10.00" fill="#000000">ByTitle</text>
</a>
</g>
</g>
<!-- Node60&#45;&gt;Node64 -->
<g id="edge4" class="edge">
<title>Node60&#45;&gt;Node64</title>
<path fill="none" stroke="#191970" d="M78.9171,-402.0556C94.4489,-435.6891 126.8755,-495.6474 173,-528.5 178.6504,-532.5246 184.9278,-535.9025 191.462,-538.7374"/>
<polygon fill="#191970" stroke="#191970" points="81.9276,-400.215 74.6429,-392.5219 75.5402,-403.0787 81.9276,-400.215"/>
</g>
<!-- Node65 -->
<g id="node6" class="node">
<title>Node65</title>
<g id="a_node6"><a xlink:href="classene_1_1views_1_1gui_1_1partial_1_1PlayerView.html#a46b869b84db253abe071d06cb4629925" target="_top" xlink:title="ene.views.gui.partial.Player\lView.isCurrentTrackPartOfCurrent\lPlaylist">
<polygon fill="none" stroke="#000000" points="179,-478 179,-519 346,-519 346,-478 179,-478"/>
<text text-anchor="start" x="187" y="-507" font-family="Helvetica,sans-Serif" font-size="10.00" fill="#000000">ene.views.gui.partial.Player</text>
<text text-anchor="start" x="187" y="-496" font-family="Helvetica,sans-Serif" font-size="10.00" fill="#000000">View.isCurrentTrackPartOfCurrent</text>
<text text-anchor="middle" x="262.5" y="-485" font-family="Helvetica,sans-Serif" font-size="10.00" fill="#000000">Playlist</text>
</a>
</g>
</g>
<!-- Node60&#45;&gt;Node65 -->
<g id="edge5" class="edge">
<title>Node60&#45;&gt;Node65</title>
<path fill="none" stroke="#191970" d="M89.2843,-400.0969C109.0851,-420.4552 140.6026,-449.9531 173,-468.5 178.9733,-471.9196 185.3957,-475.0247 191.9589,-477.8263"/>
<polygon fill="#191970" stroke="#191970" points="91.7324,-397.5927 82.2918,-392.7837 86.673,-402.4303 91.7324,-397.5927"/>
</g>
<!-- Node68 -->
<g id="node9" class="node">
<title>Node68</title>
<g id="a_node9"><a xlink:href="classene_1_1models_1_1PlayerModel.html#a2c4655428b658dee3203787415a516a5" target="_top" xlink:title="ene.models.PlayerModel.load">
<polygon fill="none" stroke="#000000" points="190,-390 190,-409 335,-409 335,-390 190,-390"/>
<text text-anchor="middle" x="262.5" y="-397" font-family="Helvetica,sans-Serif" font-size="10.00" fill="#000000">ene.models.PlayerModel.load</text>
</a>
</g>
</g>
<!-- Node60&#45;&gt;Node68 -->
<g id="edge9" class="edge">
<title>Node60&#45;&gt;Node68</title>
<path fill="none" stroke="#191970" d="M147.327,-386.4391C161.4292,-388.0384 176.0629,-389.6979 189.9776,-391.2758"/>
<polygon fill="#191970" stroke="#191970" points="147.5009,-382.9365 137.1702,-385.2873 146.7121,-389.8919 147.5009,-382.9365"/>
</g>
<!-- Node72 -->
<g id="node13" class="node">
<title>Node72</title>
<g id="a_node13"><a xlink:href="classene_1_1views_1_1gui_1_1partial_1_1PlaylistView.html#aab891c82686652a49db41a3e1bc1f3b9" target="_top" xlink:title="ene.views.gui.partial.Playlist\lView.loadContent">
<polygon fill="none" stroke="#000000" points="192,-291.5 192,-321.5 333,-321.5 333,-291.5 192,-291.5"/>
<text text-anchor="start" x="200" y="-309.5" font-family="Helvetica,sans-Serif" font-size="10.00" fill="#000000">ene.views.gui.partial.Playlist</text>
<text text-anchor="middle" x="262.5" y="-298.5" font-family="Helvetica,sans-Serif" font-size="10.00" fill="#000000">View.loadContent</text>
</a>
</g>
</g>
<!-- Node60&#45;&gt;Node72 -->
<g id="edge13" class="edge">
<title>Node60&#45;&gt;Node72</title>
<path fill="none" stroke="#191970" d="M108.9056,-358.107C128.0709,-349.3258 151.4451,-339.2104 173,-331.5 182.8738,-327.9681 193.5034,-324.618 203.8686,-321.5851"/>
<polygon fill="#191970" stroke="#191970" points="107.1843,-355.047 99.5811,-362.4255 110.1261,-361.3988 107.1843,-355.047"/>
</g>
<!-- Node75 -->
<g id="node16" class="node">
<title>Node75</title>
<g id="a_node16"><a xlink:href="classene_1_1views_1_1gui_1_1partial_1_1LibraryView.html#a734cbc08cf36ed3d48cb106b77ecf28b" target="_top" xlink:title="ene.views.gui.partial.Library\lView.loadContent">
<polygon fill="none" stroke="#000000" points="193.5,-242.5 193.5,-272.5 331.5,-272.5 331.5,-242.5 193.5,-242.5"/>
<text text-anchor="start" x="201.5" y="-260.5" font-family="Helvetica,sans-Serif" font-size="10.00" fill="#000000">ene.views.gui.partial.Library</text>
<text text-anchor="middle" x="262.5" y="-249.5" font-family="Helvetica,sans-Serif" font-size="10.00" fill="#000000">View.loadContent</text>
</a>
</g>
</g>
<!-- Node60&#45;&gt;Node75 -->
<g id="edge16" class="edge">
<title>Node60&#45;&gt;Node75</title>
<path fill="none" stroke="#191970" d="M87.8732,-354.5675C107.3038,-332.9738 139.1332,-301.2264 173,-282.5 179.918,-278.6747 187.4667,-275.3979 195.1511,-272.5997"/>
<polygon fill="#191970" stroke="#191970" points="85.0448,-352.4832 81.055,-362.2981 90.2946,-357.1135 85.0448,-352.4832"/>
</g>
<!-- Node78 -->
<g id="node19" class="node">
<title>Node78</title>
<g id="a_node19"><a xlink:href="classene_1_1models_1_1PlaylistModel.html#afba0932567d4d21976e3c37c8d80b634" target="_top" xlink:title="ene.models.PlaylistModel.next\lTrack">
<polygon fill="none" stroke="#000000" points="187.5,-428.5 187.5,-458.5 337.5,-458.5 337.5,-428.5 187.5,-428.5"/>
<text text-anchor="start" x="195.5" y="-446.5" font-family="Helvetica,sans-Serif" font-size="10.00" fill="#000000">ene.models.PlaylistModel.next</text>
<text text-anchor="middle" x="262.5" y="-435.5" font-family="Helvetica,sans-Serif" font-size="10.00" fill="#000000">Track</text>
</a>
</g>
</g>
<!-- Node60&#45;&gt;Node78 -->
<g id="edge20" class="edge">
<title>Node60&#45;&gt;Node78</title>
<path fill="none" stroke="#191970" d="M113.9343,-396.4856C132.1452,-403.7899 153.419,-411.9428 173,-418.5 183.4026,-421.9836 194.5937,-425.3804 205.4204,-428.4908"/>
<polygon fill="#191970" stroke="#191970" points="115.0226,-393.1503 104.4399,-392.6437 112.3968,-399.6392 115.0226,-393.1503"/>
</g>
<!-- Node79 -->
<g id="node20" class="node">
<title>Node79</title>
<g id="a_node20"><a xlink:href="classene_1_1models_1_1PlaylistModel.html#ab30573de71b566da79145210f94be294" target="_top" xlink:title="ene.models.PlaylistModel.previous\lTrack">
<polygon fill="none" stroke="#000000" points="178.5,-340.5 178.5,-370.5 346.5,-370.5 346.5,-340.5 178.5,-340.5"/>
<text text-anchor="start" x="186.5" y="-358.5" font-family="Helvetica,sans-Serif" font-size="10.00" fill="#000000">ene.models.PlaylistModel.previous</text>
<text text-anchor="middle" x="262.5" y="-347.5" font-family="Helvetica,sans-Serif" font-size="10.00" fill="#000000">Track</text>
</a>
</g>
</g>
<!-- Node60&#45;&gt;Node79 -->
<g id="edge22" class="edge">
<title>Node60&#45;&gt;Node79</title>
<path fill="none" stroke="#191970" d="M147.272,-368.5671C157.4847,-367.409 167.977,-366.2191 178.2739,-365.0514"/>
<polygon fill="#191970" stroke="#191970" points="146.7121,-365.1081 137.1702,-369.7127 147.5009,-372.0635 146.7121,-365.1081"/>
</g>
<!-- Node80 -->
<g id="node21" class="node">
<title>Node80</title>
<g id="a_node21"><a xlink:href="classene_1_1controllers_1_1PlaylistController.html#ab949ed1ee47aec9ba039d92a36435809" target="_top" xlink:title="ene.controllers.Playlist\lController.saveToFile">
<polygon fill="none" stroke="#000000" points="204.5,-120.5 204.5,-150.5 320.5,-150.5 320.5,-120.5 204.5,-120.5"/>
<text text-anchor="start" x="212.5" y="-138.5" font-family="Helvetica,sans-Serif" font-size="10.00" fill="#000000">ene.controllers.Playlist</text>
<text text-anchor="middle" x="262.5" y="-127.5" font-family="Helvetica,sans-Serif" font-size="10.00" fill="#000000">Controller.saveToFile</text>
</a>
</g>
</g>
<!-- Node60&#45;&gt;Node80 -->
<g id="edge24" class="edge">
<title>Node60&#45;&gt;Node80</title>
<path fill="none" stroke="#191970" d="M73.3331,-352.5023C83.4578,-307.0293 111.2654,-210.7531 173,-159.5 181.9118,-152.1013 192.8903,-146.9659 204.068,-143.406"/>
<polygon fill="#191970" stroke="#191970" points="69.8828,-351.9012 71.2307,-362.4099 76.7304,-353.3543 69.8828,-351.9012"/>
</g>
<!-- Node85 -->
<g id="node26" class="node">
<title>Node85</title>
<g id="a_node26"><a xlink:href="classene_1_1controllers_1_1LibraryController.html#aa40dceee9b0024082b71ab641a087c2e" target="_top" xlink:title="ene.controllers.LibraryController.save\lToFile">
<polygon fill="none" stroke="#000000" points="173,-169.5 173,-199.5 352,-199.5 352,-169.5 173,-169.5"/>
<text text-anchor="start" x="181" y="-187.5" font-family="Helvetica,sans-Serif" font-size="10.00" fill="#000000">ene.controllers.LibraryController.save</text>
<text text-anchor="middle" x="262.5" y="-176.5" font-family="Helvetica,sans-Serif" font-size="10.00" fill="#000000">ToFile</text>
</a>
</g>
</g>
<!-- Node60&#45;&gt;Node85 -->
<g id="edge30" class="edge">
<title>Node60&#45;&gt;Node85</title>
<path fill="none" stroke="#191970" d="M81.3806,-353.5746C98.8824,-322.7793 132.6625,-269.0198 173,-233.5 188.8208,-219.5688 209.2724,-208.0013 226.6309,-199.6103"/>
<polygon fill="#191970" stroke="#191970" points="78.3008,-351.9113 76.4824,-362.3489 84.4129,-355.3234 78.3008,-351.9113"/>
</g>
<!-- Node89 -->
<g id="node30" class="node">
<title>Node89</title>
<g id="a_node30"><a xlink:href="classene_1_1models_1_1LibraryModel.html#accd8b9321b02639dbb2970022556d324" target="_top" xlink:title="ene.models.LibraryModel.search">
<polygon fill="none" stroke="#000000" points="183.5,-82 183.5,-101 341.5,-101 341.5,-82 183.5,-82"/>
<text text-anchor="middle" x="262.5" y="-89" font-family="Helvetica,sans-Serif" font-size="10.00" fill="#000000">ene.models.LibraryModel.search</text>
</a>
</g>
</g>
<!-- Node60&#45;&gt;Node89 -->
<g id="edge36" class="edge">
<title>Node60&#45;&gt;Node89</title>
<path fill="none" stroke="#191970" d="M70.5988,-352.3056C76.4578,-298.9436 97.887,-174.2125 173,-110.5 177.482,-106.6982 182.5381,-103.5985 187.9086,-101.0773"/>
<polygon fill="#191970" stroke="#191970" points="67.1144,-351.9751 69.597,-362.275 74.0794,-352.675 67.1144,-351.9751"/>
</g>
<!-- Node90 -->
<g id="node31" class="node">
<title>Node90</title>
<g id="a_node31"><a xlink:href="classene_1_1models_1_1TrackModel.html#a0a42aa27708a22d669893b6152be8d20" target="_top" xlink:title="ene.models.TrackModel.to\lString">
<polygon fill="none" stroke="#000000" points="196.5,-32.5 196.5,-62.5 328.5,-62.5 328.5,-32.5 196.5,-32.5"/>
<text text-anchor="start" x="204.5" y="-50.5" font-family="Helvetica,sans-Serif" font-size="10.00" fill="#000000">ene.models.TrackModel.to</text>
<text text-anchor="middle" x="262.5" y="-39.5" font-family="Helvetica,sans-Serif" font-size="10.00" fill="#000000">String</text>
</a>
</g>
</g>
<!-- Node60&#45;&gt;Node90 -->
<g id="edge37" class="edge">
<title>Node60&#45;&gt;Node90</title>
<path fill="none" stroke="#191970" d="M69.5661,-352.0459C73.4161,-293.768 91.167,-149.7424 173,-72.5 179.6873,-66.1879 187.8337,-61.4472 196.4579,-57.8911"/>
<polygon fill="#191970" stroke="#191970" points="66.0619,-352.0198 68.9815,-362.2044 73.0504,-352.4221 66.0619,-352.0198"/>
</g>
<!-- Node66 -->
<g id="node7" class="node">
<title>Node66</title>
<g id="a_node7"><a xlink:href="classene_1_1views_1_1gui_1_1partial_1_1PlayerView.html#a3098a851f88f8b9ce6d4e2fcacdf55c9" target="_top" xlink:title="ene.views.gui.partial.Player\lView.enablePlayerControls">
<polygon fill="none" stroke="#000000" points="414.5,-523.5 414.5,-553.5 551.5,-553.5 551.5,-523.5 414.5,-523.5"/>
<text text-anchor="start" x="422.5" y="-541.5" font-family="Helvetica,sans-Serif" font-size="10.00" fill="#000000">ene.views.gui.partial.Player</text>
<text text-anchor="middle" x="483" y="-530.5" font-family="Helvetica,sans-Serif" font-size="10.00" fill="#000000">View.enablePlayerControls</text>
</a>
</g>
</g>
<!-- Node65&#45;&gt;Node66 -->
<g id="edge6" class="edge">
<title>Node65&#45;&gt;Node66</title>
<path fill="none" stroke="#191970" d="M356.0351,-515.4678C375.6331,-519.023 395.9525,-522.7091 414.4382,-526.0625"/>
<polygon fill="#191970" stroke="#191970" points="356.6402,-512.0205 346.176,-513.6793 355.3907,-518.9081 356.6402,-512.0205"/>
</g>
<!-- Node67 -->
<g id="node8" class="node">
<title>Node67</title>
<g id="a_node8"><a xlink:href="classene_1_1views_1_1gui_1_1partial_1_1PlayerView.html#a15d3f24a6e52ff6dedb86bb793bb8fa9" target="_top" xlink:title="ene.views.gui.partial.Player\lView.update">
<polygon fill="none" stroke="#000000" points="616,-501.5 616,-531.5 753,-531.5 753,-501.5 616,-501.5"/>
<text text-anchor="start" x="624" y="-519.5" font-family="Helvetica,sans-Serif" font-size="10.00" fill="#000000">ene.views.gui.partial.Player</text>
<text text-anchor="middle" x="684.5" y="-508.5" font-family="Helvetica,sans-Serif" font-size="10.00" fill="#000000">View.update</text>
</a>
</g>
</g>
<!-- Node65&#45;&gt;Node67 -->
<g id="edge8" class="edge">
<title>Node65&#45;&gt;Node67</title>
<path fill="none" stroke="#191970" d="M356.5049,-502.5097C435.029,-505.8591 545.1639,-510.5568 615.6799,-513.5645"/>
<polygon fill="#191970" stroke="#191970" points="356.2659,-498.9964 346.1258,-502.067 355.9675,-505.99 356.2659,-498.9964"/>
</g>
<!-- Node66&#45;&gt;Node67 -->
<g id="edge7" class="edge">
<title>Node66&#45;&gt;Node67</title>
<path fill="none" stroke="#191970" d="M562.0815,-529.8658C579.7895,-527.9324 598.4349,-525.8967 615.6868,-524.0131"/>
<polygon fill="#191970" stroke="#191970" points="561.3423,-526.4256 551.7813,-530.9904 562.1021,-533.3843 561.3423,-526.4256"/>
</g>
<!-- Node69 -->
<g id="node10" class="node">
<title>Node69</title>
<g id="a_node10"><a xlink:href="classene_1_1models_1_1PlayerModel.html#acfe1fde39cea80b94ae65ed401706d70" target="_top" xlink:title="ene.models.PlayerModel.load\lPlaylist">
<polygon fill="none" stroke="#000000" points="410.5,-389.5 410.5,-419.5 555.5,-419.5 555.5,-389.5 410.5,-389.5"/>
<text text-anchor="start" x="418.5" y="-407.5" font-family="Helvetica,sans-Serif" font-size="10.00" fill="#000000">ene.models.PlayerModel.load</text>
<text text-anchor="middle" x="483" y="-396.5" font-family="Helvetica,sans-Serif" font-size="10.00" fill="#000000">Playlist</text>
</a>
</g>
</g>
<!-- Node68&#45;&gt;Node69 -->
<g id="edge10" class="edge">
<title>Node68&#45;&gt;Node69</title>
<path fill="none" stroke="#191970" d="M345.0826,-401.3726C366.5598,-401.8596 389.5346,-402.3806 410.4511,-402.8549"/>
<polygon fill="#191970" stroke="#191970" points="345.0822,-397.8718 335.0053,-401.1441 344.9234,-404.87 345.0822,-397.8718"/>
</g>
<!-- Node70 -->
<g id="node11" class="node">
<title>Node70</title>
<g id="a_node11"><a xlink:href="classene_1_1models_1_1PlayerModel.html#a384fd9a2e98fc581e8221659257a8dd4" target="_top" xlink:title="ene.models.PlayerModel.next">
<polygon fill="none" stroke="#000000" points="410,-439 410,-458 556,-458 556,-439 410,-439"/>
<text text-anchor="middle" x="483" y="-446" font-family="Helvetica,sans-Serif" font-size="10.00" fill="#000000">ene.models.PlayerModel.next</text>
</a>
</g>
</g>
<!-- Node68&#45;&gt;Node70 -->
<g id="edge11" class="edge">
<title>Node68&#45;&gt;Node70</title>
<path fill="none" stroke="#191970" d="M317.1751,-411.2519C328.7021,-413.8599 340.7714,-416.6878 352,-419.5 368.1083,-423.5343 371.8474,-425.6468 388,-429.5 402.0701,-432.8564 417.408,-436.1019 431.574,-438.9323"/>
<polygon fill="#191970" stroke="#191970" points="317.7429,-407.7925 307.2198,-409.0226 316.2132,-414.6233 317.7429,-407.7925"/>
</g>
<!-- Node71 -->
<g id="node12" class="node">
<title>Node71</title>
<g id="a_node12"><a xlink:href="classene_1_1models_1_1PlayerModel.html#a7242e20d537405f031ec8d18e7faf8fc" target="_top" xlink:title="ene.models.PlayerModel.previous">
<polygon fill="none" stroke="#000000" points="401,-351 401,-370 565,-370 565,-351 401,-351"/>
<text text-anchor="middle" x="483" y="-358" font-family="Helvetica,sans-Serif" font-size="10.00" fill="#000000">ene.models.PlayerModel.previous</text>
</a>
</g>
</g>
<!-- Node68&#45;&gt;Node71 -->
<g id="edge12" class="edge">
<title>Node68&#45;&gt;Node71</title>
<path fill="none" stroke="#191970" d="M326.332,-388.21C358.9436,-382.442 398.184,-375.5015 429.2348,-370.0095"/>
<polygon fill="#191970" stroke="#191970" points="325.6779,-384.7713 316.4404,-389.9595 326.8971,-391.6643 325.6779,-384.7713"/>
</g>
<!-- Node73 -->
<g id="node14" class="node">
<title>Node73</title>
<g id="a_node14"><a xlink:href="classene_1_1views_1_1gui_1_1partial_1_1PlaylistView.html#ad2b87823589c6e8895d2d7b98438a2dc" target="_top" xlink:title="ene.views.gui.partial.Playlist\lView.update">
<polygon fill="none" stroke="#000000" points="412.5,-301.5 412.5,-331.5 553.5,-331.5 553.5,-301.5 412.5,-301.5"/>
<text text-anchor="start" x="420.5" y="-319.5" font-family="Helvetica,sans-Serif" font-size="10.00" fill="#000000">ene.views.gui.partial.Playlist</text>
<text text-anchor="middle" x="483" y="-308.5" font-family="Helvetica,sans-Serif" font-size="10.00" fill="#000000">View.update</text>
</a>
</g>
</g>
<!-- Node72&#45;&gt;Node73 -->
<g id="edge14" class="edge">
<title>Node72&#45;&gt;Node73</title>
<path fill="none" stroke="#191970" d="M343.4205,-310.1699C366.0185,-311.1947 390.3894,-312.3 412.3445,-313.2957"/>
<polygon fill="#191970" stroke="#191970" points="343.3258,-306.6621 333.1774,-309.7053 343.0086,-313.6549 343.3258,-306.6621"/>
</g>
<!-- Node74 -->
<g id="node15" class="node">
<title>Node74</title>
<g id="a_node15"><a xlink:href="classene_1_1views_1_1gui_1_1partial_1_1PlaylistView.html#a8d541ff3e91c1492b2e47cc7272ca56d" target="_top" xlink:title="ene.views.gui.partial.Playlist\lView.render">
<polygon fill="none" stroke="#000000" points="614,-301.5 614,-331.5 755,-331.5 755,-301.5 614,-301.5"/>
<text text-anchor="start" x="622" y="-319.5" font-family="Helvetica,sans-Serif" font-size="10.00" fill="#000000">ene.views.gui.partial.Playlist</text>
<text text-anchor="middle" x="684.5" y="-308.5" font-family="Helvetica,sans-Serif" font-size="10.00" fill="#000000">View.render</text>
</a>
</g>
</g>
<!-- Node73&#45;&gt;Node74 -->
<g id="edge15" class="edge">
<title>Node73&#45;&gt;Node74</title>
<path fill="none" stroke="#191970" d="M563.9445,-316.5C580.4855,-316.5 597.768,-316.5 613.9123,-316.5"/>
<polygon fill="#191970" stroke="#191970" points="563.7581,-313.0001 553.758,-316.5 563.758,-320.0001 563.7581,-313.0001"/>
</g>
<!-- Node76 -->
<g id="node17" class="node">
<title>Node76</title>
<g id="a_node17"><a xlink:href="classene_1_1views_1_1gui_1_1partial_1_1LibraryView.html#a363a0a2db7ab4295ef38bb667038a6f8" target="_top" xlink:title="ene.views.gui.partial.Library\lView.update">
<polygon fill="none" stroke="#000000" points="414,-213.5 414,-243.5 552,-243.5 552,-213.5 414,-213.5"/>
<text text-anchor="start" x="422" y="-231.5" font-family="Helvetica,sans-Serif" font-size="10.00" fill="#000000">ene.views.gui.partial.Library</text>
<text text-anchor="middle" x="483" y="-220.5" font-family="Helvetica,sans-Serif" font-size="10.00" fill="#000000">View.update</text>
</a>
</g>
</g>
<!-- Node75&#45;&gt;Node76 -->
<g id="edge17" class="edge">
<title>Node75&#45;&gt;Node76</title>
<path fill="none" stroke="#191970" d="M341.6212,-247.094C365.1859,-243.9948 390.8173,-240.6238 413.704,-237.6138"/>
<polygon fill="#191970" stroke="#191970" points="341.1208,-243.6296 331.6626,-248.4038 342.0336,-250.5699 341.1208,-243.6296"/>
</g>
<!-- Node77 -->
<g id="node18" class="node">
<title>Node77</title>
<g id="a_node18"><a xlink:href="classene_1_1views_1_1gui_1_1partial_1_1LibraryView.html#a0bd6885fe06ebde4d3dffbcd888c0b41" target="_top" xlink:title="ene.views.gui.partial.Library\lView.render">
<polygon fill="none" stroke="#000000" points="615.5,-169.5 615.5,-199.5 753.5,-199.5 753.5,-169.5 615.5,-169.5"/>
<text text-anchor="start" x="623.5" y="-187.5" font-family="Helvetica,sans-Serif" font-size="10.00" fill="#000000">ene.views.gui.partial.Library</text>
<text text-anchor="middle" x="684.5" y="-176.5" font-family="Helvetica,sans-Serif" font-size="10.00" fill="#000000">View.render</text>
</a>
</g>
</g>
<!-- Node75&#45;&gt;Node77 -->
<g id="edge19" class="edge">
<title>Node75&#45;&gt;Node77</title>
<path fill="none" stroke="#191970" d="M341.7306,-268.4606C406.6789,-274.6352 500.2357,-277.0266 578,-253.5 613.4263,-242.7822 648.2213,-216.4157 667.9568,-199.5552"/>
<polygon fill="#191970" stroke="#191970" points="341.8586,-264.9559 331.5592,-267.4405 341.16,-271.921 341.8586,-264.9559"/>
</g>
<!-- Node76&#45;&gt;Node77 -->
<g id="edge18" class="edge">
<title>Node76&#45;&gt;Node77</title>
<path fill="none" stroke="#191970" d="M561.5853,-211.3399C579.4409,-207.441 598.2736,-203.3286 615.6868,-199.5262"/>
<polygon fill="#191970" stroke="#191970" points="560.8044,-207.9279 551.7813,-213.4808 562.2978,-214.7668 560.8044,-207.9279"/>
</g>
<!-- Node78&#45;&gt;Node70 -->
<g id="edge21" class="edge">
<title>Node78&#45;&gt;Node70</title>
<path fill="none" stroke="#191970" d="M348.0143,-445.4391C368.463,-445.9028 390.1087,-446.3936 409.9368,-446.8432"/>
<polygon fill="#191970" stroke="#191970" points="347.8437,-441.9344 337.7669,-445.2067 347.6849,-448.9326 347.8437,-441.9344"/>
</g>
<!-- Node79&#45;&gt;Node71 -->
<g id="edge23" class="edge">
<title>Node79&#45;&gt;Node71</title>
<path fill="none" stroke="#191970" d="M356.8773,-357.6401C371.5326,-357.9724 386.5701,-358.3134 400.9245,-358.6389"/>
<polygon fill="#191970" stroke="#191970" points="356.8822,-354.1394 346.8054,-357.4117 356.7235,-361.1376 356.8822,-354.1394"/>
</g>
<!-- Node81 -->
<g id="node22" class="node">
<title>Node81</title>
<g id="a_node22"><a xlink:href="classene_1_1controllers_1_1PlaylistController.html#ad5e0bbbd2de4359b178fdf0458447d77" target="_top" xlink:title="ene.controllers.Playlist\lController.add">
<polygon fill="none" stroke="#000000" points="425,-.5 425,-30.5 541,-30.5 541,-.5 425,-.5"/>
<text text-anchor="start" x="433" y="-18.5" font-family="Helvetica,sans-Serif" font-size="10.00" fill="#000000">ene.controllers.Playlist</text>
<text text-anchor="middle" x="483" y="-7.5" font-family="Helvetica,sans-Serif" font-size="10.00" fill="#000000">Controller.add</text>
</a>
</g>
</g>
<!-- Node80&#45;&gt;Node81 -->
<g id="edge25" class="edge">
<title>Node80&#45;&gt;Node81</title>
<path fill="none" stroke="#191970" d="M330.4356,-123.1554C338.2052,-119.8795 345.615,-115.7372 352,-110.5 379.3551,-88.0623 360.3673,-61.5949 388,-39.5 398.4961,-31.1074 411.561,-25.6091 424.6097,-22.018"/>
<polygon fill="#191970" stroke="#191970" points="328.9729,-119.9653 320.8246,-126.737 331.4173,-126.5247 328.9729,-119.9653"/>
</g>
<!-- Node84 -->
<g id="node25" class="node">
<title>Node84</title>
<g id="a_node25"><a xlink:href="classene_1_1controllers_1_1PlaylistController.html#a903d7a6767c934b2f06715634b9944d3" target="_top" xlink:title="ene.controllers.Playlist\lController.remove">
<polygon fill="none" stroke="#000000" points="425,-49.5 425,-79.5 541,-79.5 541,-49.5 425,-49.5"/>
<text text-anchor="start" x="433" y="-67.5" font-family="Helvetica,sans-Serif" font-size="10.00" fill="#000000">ene.controllers.Playlist</text>
<text text-anchor="middle" x="483" y="-56.5" font-family="Helvetica,sans-Serif" font-size="10.00" fill="#000000">Controller.remove</text>
</a>
</g>
</g>
<!-- Node80&#45;&gt;Node84 -->
<g id="edge29" class="edge">
<title>Node80&#45;&gt;Node84</title>
<path fill="none" stroke="#191970" d="M330.2919,-118.561C337.7119,-116.1188 345.0783,-113.4284 352,-110.5 369.0594,-103.2828 370.8867,-96.5885 388,-89.5 399.6597,-84.6704 412.5166,-80.544 424.9043,-77.1177"/>
<polygon fill="#191970" stroke="#191970" points="329.0292,-115.289 320.5396,-121.6276 331.129,-121.9667 329.0292,-115.289"/>
</g>
<!-- Node81&#45;&gt;Node77 -->
<g id="edge28" class="edge">
<title>Node81&#45;&gt;Node77</title>
<path fill="none" stroke="#191970" d="M551.0145,-26.5185C560.5424,-29.7832 569.8499,-34.0149 578,-39.5 628.27,-73.3319 663.5103,-139.1579 677.6313,-169.058"/>
<polygon fill="#191970" stroke="#191970" points="552.0353,-23.1708 541.4478,-23.5656 549.9706,-29.8594 552.0353,-23.1708"/>
</g>
<!-- Node82 -->
<g id="node23" class="node">
<title>Node82</title>
<g id="a_node23"><a xlink:href="classene_1_1controllers_1_1PlaylistController.html#a67b252ccabbac520eaafe9f90e8f0d43" target="_top" xlink:title="ene.controllers.Playlist\lController.loadFromFile">
<polygon fill="none" stroke="#000000" points="625.5,-.5 625.5,-30.5 743.5,-30.5 743.5,-.5 625.5,-.5"/>
<text text-anchor="start" x="633.5" y="-18.5" font-family="Helvetica,sans-Serif" font-size="10.00" fill="#000000">ene.controllers.Playlist</text>
<text text-anchor="middle" x="684.5" y="-7.5" font-family="Helvetica,sans-Serif" font-size="10.00" fill="#000000">Controller.loadFromFile</text>
</a>
</g>
</g>
<!-- Node81&#45;&gt;Node82 -->
<g id="edge26" class="edge">
<title>Node81&#45;&gt;Node82</title>
<path fill="none" stroke="#191970" d="M551.1155,-15.5C575.1299,-15.5 601.9174,-15.5 625.1497,-15.5"/>
<polygon fill="#191970" stroke="#191970" points="551.0118,-12.0001 541.0118,-15.5 551.0118,-19.0001 551.0118,-12.0001"/>
</g>
<!-- Node83 -->
<g id="node24" class="node">
<title>Node83</title>
<g id="a_node24"><a xlink:href="classene_1_1controllers_1_1PlaylistController.html#a35b450f65c048707c1ad0ed44f1077f0" target="_top" xlink:title="ene.controllers.Playlist\lController.PlaylistController">
<polygon fill="none" stroke="#000000" points="791,-.5 791,-30.5 927,-30.5 927,-.5 791,-.5"/>
<text text-anchor="start" x="799" y="-18.5" font-family="Helvetica,sans-Serif" font-size="10.00" fill="#000000">ene.controllers.Playlist</text>
<text text-anchor="middle" x="859" y="-7.5" font-family="Helvetica,sans-Serif" font-size="10.00" fill="#000000">Controller.PlaylistController</text>
</a>
</g>
</g>
<!-- Node82&#45;&gt;Node83 -->
<g id="edge27" class="edge">
<title>Node82&#45;&gt;Node83</title>
<path fill="none" stroke="#191970" d="M753.7319,-15.5C765.9857,-15.5 778.7353,-15.5 790.9559,-15.5"/>
<polygon fill="#191970" stroke="#191970" points="753.5778,-12.0001 743.5777,-15.5 753.5777,-19.0001 753.5778,-12.0001"/>
</g>
<!-- Node86 -->
<g id="node27" class="node">
<title>Node86</title>
<g id="a_node27"><a xlink:href="classene_1_1controllers_1_1LibraryController.html#aa0d66e53872a376fe6d456eb070de8d4" target="_top" xlink:title="ene.controllers.LibraryController.add">
<polygon fill="none" stroke="#000000" points="396.5,-99 396.5,-118 569.5,-118 569.5,-99 396.5,-99"/>
<text text-anchor="middle" x="483" y="-106" font-family="Helvetica,sans-Serif" font-size="10.00" fill="#000000">ene.controllers.LibraryController.add</text>
</a>
</g>
</g>
<!-- Node85&#45;&gt;Node86 -->
<g id="edge31" class="edge">
<title>Node85&#45;&gt;Node86</title>
<path fill="none" stroke="#191970" d="M338.8112,-165.8094C343.3629,-163.8924 347.7957,-161.7942 352,-159.5 370.7916,-149.2459 368.8372,-137.0424 388,-127.5 395.8292,-123.6013 404.3975,-120.5025 413.0816,-118.0396"/>
<polygon fill="#191970" stroke="#191970" points="337.3875,-162.6076 329.3361,-169.4943 339.9247,-169.1317 337.3875,-162.6076"/>
</g>
<!-- Node87 -->
<g id="node28" class="node">
<title>Node87</title>
<g id="a_node28"><a xlink:href="classene_1_1controllers_1_1LibraryController.html#a9e4da87d9fab61b162c2f57e97852be5" target="_top" xlink:title="ene.controllers.LibraryController.edit">
<polygon fill="none" stroke="#000000" points="396.5,-175 396.5,-194 569.5,-194 569.5,-175 396.5,-175"/>
<text text-anchor="middle" x="483" y="-182" font-family="Helvetica,sans-Serif" font-size="10.00" fill="#000000">ene.controllers.LibraryController.edit</text>
</a>
</g>
</g>
<!-- Node85&#45;&gt;Node87 -->
<g id="edge33" class="edge">
<title>Node85&#45;&gt;Node87</title>
<path fill="none" stroke="#191970" d="M362.4816,-184.5C373.7516,-184.5 385.166,-184.5 396.2482,-184.5"/>
<polygon fill="#191970" stroke="#191970" points="362.1858,-181.0001 352.1858,-184.5 362.1858,-188.0001 362.1858,-181.0001"/>
</g>
<!-- Node88 -->
<g id="node29" class="node">
<title>Node88</title>
<g id="a_node29"><a xlink:href="classene_1_1controllers_1_1LibraryController.html#aac7853b4f42ee8c4d8704e036eca61a0" target="_top" xlink:title="ene.controllers.LibraryController.remove">
<polygon fill="none" stroke="#000000" points="388,-137 388,-156 578,-156 578,-137 388,-137"/>
<text text-anchor="middle" x="483" y="-144" font-family="Helvetica,sans-Serif" font-size="10.00" fill="#000000">ene.controllers.LibraryController.remove</text>
</a>
</g>
</g>
<!-- Node85&#45;&gt;Node88 -->
<g id="edge35" class="edge">
<title>Node85&#45;&gt;Node88</title>
<path fill="none" stroke="#191970" d="M359.6075,-167.7649C382.991,-163.7351 407.1746,-159.5674 427.8696,-156.0009"/>
<polygon fill="#191970" stroke="#191970" points="358.9077,-164.3338 349.6474,-169.4814 360.0966,-171.2321 358.9077,-164.3338"/>
</g>
<!-- Node86&#45;&gt;Node77 -->
<g id="edge32" class="edge">
<title>Node86&#45;&gt;Node77</title>
<path fill="none" stroke="#191970" d="M554.3692,-120.3952C562.435,-122.4387 570.4588,-124.7949 578,-127.5 608.0044,-138.2627 639.9239,-156.3394 660.9067,-169.2505"/>
<polygon fill="#191970" stroke="#191970" points="555.0783,-116.9663 544.5395,-118.0552 553.4571,-123.776 555.0783,-116.9663"/>
</g>
<!-- Node87&#45;&gt;Node77 -->
<g id="edge34" class="edge">
<title>Node87&#45;&gt;Node77</title>
<path fill="none" stroke="#191970" d="M579.6818,-184.5C591.6954,-184.5 603.7863,-184.5 615.2697,-184.5"/>
<polygon fill="#191970" stroke="#191970" points="579.6236,-181.0001 569.6235,-184.5 579.6235,-188.0001 579.6236,-181.0001"/>
</g>
</g>
</svg>
