<?xml version="1.0" encoding="UTF-8" standalone="no"?>
<!DOCTYPE svg PUBLIC "-//W3C//DTD SVG 1.1//EN"
 "http://www.w3.org/Graphics/SVG/1.1/DTD/svg11.dtd">
<!-- Generated by graphviz version 2.40.1 (20161225.0304)
 -->
<!-- Title: ene.views.AbstractPartialView.getModel Pages: 1 -->
<svg width="665pt" height="225pt"
 viewBox="0.00 0.00 665.00 225.00" xmlns="http://www.w3.org/2000/svg" xmlns:xlink="http://www.w3.org/1999/xlink">
<g id="graph0" class="graph" transform="scale(1 1) rotate(0) translate(4 221)">
<title>ene.views.AbstractPartialView.getModel</title>
<!-- Node1 -->
<g id="node1" class="node">
<title>Node1</title>
<polygon fill="#bfbfbf" stroke="#000000" points="0,-93.5 0,-123.5 128,-123.5 128,-93.5 0,-93.5"/>
<text text-anchor="start" x="8" y="-111.5" font-family="Helvetica,sans-Serif" font-size="10.00" fill="#000000">ene.views.AbstractPartial</text>
<text text-anchor="middle" x="64" y="-100.5" font-family="Helvetica,sans-Serif" font-size="10.00" fill="#000000">View.getModel</text>
</g>
<!-- Node2 -->
<g id="node2" class="node">
<title>Node2</title>
<g id="a_node2"><a xlink:href="classene_1_1views_1_1gui_1_1partial_1_1LibraryView.html#a6e6e521f258ad6e3f2e06ed96180efb6" target="_top" xlink:title="ene.views.gui.partial.Library\lView.initialize">
<polygon fill="none" stroke="#000000" points="168,-186.5 168,-216.5 306,-216.5 306,-186.5 168,-186.5"/>
<text text-anchor="start" x="176" y="-204.5" font-family="Helvetica,sans-Serif" font-size="10.00" fill="#000000">ene.views.gui.partial.Library</text>
<text text-anchor="middle" x="237" y="-193.5" font-family="Helvetica,sans-Serif" font-size="10.00" fill="#000000">View.initialize</text>
</a>
</g>
</g>
<!-- Node1&#45;&gt;Node2 -->
<g id="edge1" class="edge">
<title>Node1&#45;&gt;Node2</title>
<path fill="none" stroke="#191970" d="M90.5948,-129.9958C110.0262,-144.8956 137.5037,-164.3457 164,-177.5 170.5722,-180.7628 177.6899,-183.7314 184.8154,-186.3816"/>
<polygon fill="#191970" stroke="#191970" points="92.5672,-127.0957 82.5261,-123.7152 88.2674,-132.6196 92.5672,-127.0957"/>
</g>
<!-- Node4 -->
<g id="node4" class="node">
<title>Node4</title>
<g id="a_node4"><a xlink:href="classene_1_1views_1_1gui_1_1partial_1_1LibraryView.html#a363a0a2db7ab4295ef38bb667038a6f8" target="_top" xlink:title="ene.views.gui.partial.Library\lView.update">
<polygon fill="none" stroke="#000000" points="168,-137.5 168,-167.5 306,-167.5 306,-137.5 168,-137.5"/>
<text text-anchor="start" x="176" y="-155.5" font-family="Helvetica,sans-Serif" font-size="10.00" fill="#000000">ene.views.gui.partial.Library</text>
<text text-anchor="middle" x="237" y="-144.5" font-family="Helvetica,sans-Serif" font-size="10.00" fill="#000000">View.update</text>
</a>
</g>
</g>
<!-- Node1&#45;&gt;Node4 -->
<g id="edge3" class="edge">
<title>Node1&#45;&gt;Node4</title>
<path fill="none" stroke="#191970" d="M132.7497,-125.9855C147.6977,-129.7873 163.3847,-133.777 177.9197,-137.4738"/>
<polygon fill="#191970" stroke="#191970" points="133.6071,-122.5922 123.0529,-123.5192 131.8816,-129.3762 133.6071,-122.5922"/>
</g>
<!-- Node5 -->
<g id="node5" class="node">
<title>Node5</title>
<g id="a_node5"><a xlink:href="classene_1_1views_1_1gui_1_1partial_1_1PlayerView.html#a15d3f24a6e52ff6dedb86bb793bb8fa9" target="_top" xlink:title="ene.views.gui.partial.Player\lView.update">
<polygon fill="none" stroke="#000000" points="520,-71.5 520,-101.5 657,-101.5 657,-71.5 520,-71.5"/>
<text text-anchor="start" x="528" y="-89.5" font-family="Helvetica,sans-Serif" font-size="10.00" fill="#000000">ene.views.gui.partial.Player</text>
<text text-anchor="middle" x="588.5" y="-78.5" font-family="Helvetica,sans-Serif" font-size="10.00" fill="#000000">View.update</text>
</a>
</g>
</g>
<!-- Node1&#45;&gt;Node5 -->
<g id="edge4" class="edge">
<title>Node1&#45;&gt;Node5</title>
<path fill="none" stroke="#191970" d="M138.241,-105.386C239.933,-101.1205 421.1504,-93.5194 519.8358,-89.3801"/>
<polygon fill="#191970" stroke="#191970" points="137.8961,-101.8973 128.0516,-105.8134 138.1895,-108.8911 137.8961,-101.8973"/>
</g>
<!-- Node6 -->
<g id="node6" class="node">
<title>Node6</title>
<g id="a_node6"><a xlink:href="classene_1_1views_1_1gui_1_1partial_1_1PlayerView.html#af324f1c0b5648dab2400b4c0ab33f3ca" target="_top" xlink:title="ene.views.gui.partial.Player\lView.updateProgress">
<polygon fill="none" stroke="#000000" points="168.5,-49.5 168.5,-79.5 305.5,-79.5 305.5,-49.5 168.5,-49.5"/>
<text text-anchor="start" x="176.5" y="-67.5" font-family="Helvetica,sans-Serif" font-size="10.00" fill="#000000">ene.views.gui.partial.Player</text>
<text text-anchor="middle" x="237" y="-56.5" font-family="Helvetica,sans-Serif" font-size="10.00" fill="#000000">View.updateProgress</text>
</a>
</g>
</g>
<!-- Node1&#45;&gt;Node6 -->
<g id="edge5" class="edge">
<title>Node1&#45;&gt;Node6</title>
<path fill="none" stroke="#191970" d="M132.7497,-91.0145C147.6977,-87.2127 163.3847,-83.223 177.9197,-79.5262"/>
<polygon fill="#191970" stroke="#191970" points="131.8816,-87.6238 123.0529,-93.4808 133.6071,-94.4078 131.8816,-87.6238"/>
</g>
<!-- Node10 -->
<g id="node10" class="node">
<title>Node10</title>
<g id="a_node10"><a xlink:href="classene_1_1views_1_1gui_1_1partial_1_1AbstractTrackListView.html#aebe5720136b8b2215b6ad365c723843e" target="_top" xlink:title="ene.views.gui.partial.Abstract\lTrackListView.valueChanged">
<polygon fill="none" stroke="#000000" points="164,-.5 164,-30.5 310,-30.5 310,-.5 164,-.5"/>
<text text-anchor="start" x="172" y="-18.5" font-family="Helvetica,sans-Serif" font-size="10.00" fill="#000000">ene.views.gui.partial.Abstract</text>
<text text-anchor="middle" x="237" y="-7.5" font-family="Helvetica,sans-Serif" font-size="10.00" fill="#000000">TrackListView.valueChanged</text>
</a>
</g>
</g>
<!-- Node1&#45;&gt;Node10 -->
<g id="edge10" class="edge">
<title>Node1&#45;&gt;Node10</title>
<path fill="none" stroke="#191970" d="M90.5948,-87.0042C110.0262,-72.1044 137.5037,-52.6543 164,-39.5 170.5722,-36.2372 177.6899,-33.2686 184.8154,-30.6184"/>
<polygon fill="#191970" stroke="#191970" points="88.2674,-84.3804 82.5261,-93.2848 92.5672,-89.9043 88.2674,-84.3804"/>
</g>
<!-- Node3 -->
<g id="node3" class="node">
<title>Node3</title>
<g id="a_node3"><a xlink:href="classene_1_1views_1_1gui_1_1partial_1_1LibraryView.html#a23af39410ef7be2c3253b41ca96cdc4e" target="_top" xlink:title="ene.views.gui.partial.Library\lView.LibraryView">
<polygon fill="none" stroke="#000000" points="346,-186.5 346,-216.5 484,-216.5 484,-186.5 346,-186.5"/>
<text text-anchor="start" x="354" y="-204.5" font-family="Helvetica,sans-Serif" font-size="10.00" fill="#000000">ene.views.gui.partial.Library</text>
<text text-anchor="middle" x="415" y="-193.5" font-family="Helvetica,sans-Serif" font-size="10.00" fill="#000000">View.LibraryView</text>
</a>
</g>
</g>
<!-- Node2&#45;&gt;Node3 -->
<g id="edge2" class="edge">
<title>Node2&#45;&gt;Node3</title>
<path fill="none" stroke="#191970" d="M316.3025,-201.5C326.1937,-201.5 336.2466,-201.5 345.9646,-201.5"/>
<polygon fill="#191970" stroke="#191970" points="316.0742,-198.0001 306.0742,-201.5 316.0742,-205.0001 316.0742,-198.0001"/>
</g>
<!-- Node7 -->
<g id="node7" class="node">
<title>Node7</title>
<g id="a_node7"><a xlink:href="classene_1_1views_1_1gui_1_1partial_1_1PlayerView.html#a6a20ce866e62ced7476b666fe891b10a" target="_top" xlink:title="ene.views.gui.partial.Player\lView.initialize">
<polygon fill="none" stroke="#000000" points="346.5,-.5 346.5,-30.5 483.5,-30.5 483.5,-.5 346.5,-.5"/>
<text text-anchor="start" x="354.5" y="-18.5" font-family="Helvetica,sans-Serif" font-size="10.00" fill="#000000">ene.views.gui.partial.Player</text>
<text text-anchor="middle" x="415" y="-7.5" font-family="Helvetica,sans-Serif" font-size="10.00" fill="#000000">View.initialize</text>
</a>
</g>
</g>
<!-- Node6&#45;&gt;Node7 -->
<g id="edge6" class="edge">
<title>Node6&#45;&gt;Node7</title>
<path fill="none" stroke="#191970" d="M301.7384,-46.6788C320.9571,-41.3882 341.8099,-35.6478 360.3228,-30.5516"/>
<polygon fill="#191970" stroke="#191970" points="300.5707,-43.3699 291.8583,-49.3986 302.4286,-50.1189 300.5707,-43.3699"/>
</g>
<!-- Node9 -->
<g id="node9" class="node">
<title>Node9</title>
<g id="a_node9"><a xlink:href="classene_1_1views_1_1gui_1_1partial_1_1PlayerView.html#af84e60915df5af5201e75e01a2f9a4a5" target="_top" xlink:title="ene.views.gui.partial.Player\lView.resetProgress">
<polygon fill="none" stroke="#000000" points="346.5,-49.5 346.5,-79.5 483.5,-79.5 483.5,-49.5 346.5,-49.5"/>
<text text-anchor="start" x="354.5" y="-67.5" font-family="Helvetica,sans-Serif" font-size="10.00" fill="#000000">ene.views.gui.partial.Player</text>
<text text-anchor="middle" x="415" y="-56.5" font-family="Helvetica,sans-Serif" font-size="10.00" fill="#000000">View.resetProgress</text>
</a>
</g>
</g>
<!-- Node6&#45;&gt;Node9 -->
<g id="edge8" class="edge">
<title>Node6&#45;&gt;Node9</title>
<path fill="none" stroke="#191970" d="M315.7301,-64.5C325.9772,-64.5 336.4084,-64.5 346.4705,-64.5"/>
<polygon fill="#191970" stroke="#191970" points="315.5649,-61.0001 305.5648,-64.5 315.5648,-68.0001 315.5649,-61.0001"/>
</g>
<!-- Node8 -->
<g id="node8" class="node">
<title>Node8</title>
<g id="a_node8"><a xlink:href="classene_1_1views_1_1gui_1_1partial_1_1PlayerView.html#a87a7a4837fc2b68df6bf06984881a7ea" target="_top" xlink:title="ene.views.gui.partial.Player\lView.PlayerView">
<polygon fill="none" stroke="#000000" points="520,-.5 520,-30.5 657,-30.5 657,-.5 520,-.5"/>
<text text-anchor="start" x="528" y="-18.5" font-family="Helvetica,sans-Serif" font-size="10.00" fill="#000000">ene.views.gui.partial.Player</text>
<text text-anchor="middle" x="588.5" y="-7.5" font-family="Helvetica,sans-Serif" font-size="10.00" fill="#000000">View.PlayerView</text>
</a>
</g>
</g>
<!-- Node7&#45;&gt;Node8 -->
<g id="edge7" class="edge">
<title>Node7&#45;&gt;Node8</title>
<path fill="none" stroke="#191970" d="M493.7343,-15.5C502.4521,-15.5 511.2788,-15.5 519.8581,-15.5"/>
<polygon fill="#191970" stroke="#191970" points="493.5718,-12.0001 483.5718,-15.5 493.5718,-19.0001 493.5718,-12.0001"/>
</g>
<!-- Node9&#45;&gt;Node5 -->
<g id="edge9" class="edge">
<title>Node9&#45;&gt;Node5</title>
<path fill="none" stroke="#191970" d="M493.7343,-74.4836C502.4521,-75.589 511.2788,-76.7083 519.8581,-77.7961"/>
<polygon fill="#191970" stroke="#191970" points="493.9327,-70.9808 483.5718,-73.195 493.0521,-77.9252 493.9327,-70.9808"/>
</g>
</g>
</svg>
