<?xml version="1.0" encoding="UTF-8" standalone="no"?>
<!DOCTYPE svg PUBLIC "-//W3C//DTD SVG 1.1//EN"
 "http://www.w3.org/Graphics/SVG/1.1/DTD/svg11.dtd">
<!-- Generated by graphviz version 2.40.1 (20161225.0304)
 -->
<!-- Title: ene.views.AbstractView.setCoreComponent Pages: 1 -->
<svg width="350pt" height="225pt"
 viewBox="0.00 0.00 350.00 225.00" xmlns="http://www.w3.org/2000/svg" xmlns:xlink="http://www.w3.org/1999/xlink">
<g id="graph0" class="graph" transform="scale(1 1) rotate(0) translate(4 221)">
<title>ene.views.AbstractView.setCoreComponent</title>
<!-- Node11 -->
<g id="node1" class="node">
<title>Node11</title>
<polygon fill="#bfbfbf" stroke="#000000" points="0,-98.5 0,-128.5 139,-128.5 139,-98.5 0,-98.5"/>
<text text-anchor="start" x="8" y="-116.5" font-family="Helvetica,sans-Serif" font-size="10.00" fill="#000000">ene.views.AbstractView.set</text>
<text text-anchor="middle" x="69.5" y="-105.5" font-family="Helvetica,sans-Serif" font-size="10.00" fill="#000000">CoreComponent</text>
</g>
<!-- Node12 -->
<g id="node2" class="node">
<title>Node12</title>
<g id="a_node2"><a xlink:href="classene_1_1views_1_1gui_1_1partial_1_1ContentView.html#a7615ef3421a9f5a70e4929ec72132020" target="_top" xlink:title="ene.views.gui.partial.Content\lView.render">
<polygon fill="none" stroke="#000000" points="187,-186.5 187,-216.5 330,-216.5 330,-186.5 187,-186.5"/>
<text text-anchor="start" x="195" y="-204.5" font-family="Helvetica,sans-Serif" font-size="10.00" fill="#000000">ene.views.gui.partial.Content</text>
<text text-anchor="middle" x="258.5" y="-193.5" font-family="Helvetica,sans-Serif" font-size="10.00" fill="#000000">View.render</text>
</a>
</g>
</g>
<!-- Node11&#45;&gt;Node12 -->
<g id="edge1" class="edge">
<title>Node11&#45;&gt;Node12</title>
<path fill="none" stroke="#191970" d="M99.8562,-134.3789C120.3752,-147.79 148.4665,-164.8218 175,-176.5 183.3101,-180.1575 192.3116,-183.4739 201.224,-186.4081"/>
<polygon fill="#191970" stroke="#191970" points="101.5433,-131.2981 91.274,-128.692 97.6767,-137.1333 101.5433,-131.2981"/>
</g>
<!-- Node13 -->
<g id="node3" class="node">
<title>Node13</title>
<g id="a_node3"><a xlink:href="classene_1_1views_1_1gui_1_1WindowView.html#a2ce6d135f47d21b01c91eeeac2e5c52a" target="_top" xlink:title="ene.views.gui.WindowView.render">
<polygon fill="none" stroke="#000000" points="175,-148 175,-167 342,-167 342,-148 175,-148"/>
<text text-anchor="middle" x="258.5" y="-155" font-family="Helvetica,sans-Serif" font-size="10.00" fill="#000000">ene.views.gui.WindowView.render</text>
</a>
</g>
</g>
<!-- Node11&#45;&gt;Node13 -->
<g id="edge2" class="edge">
<title>Node11&#45;&gt;Node13</title>
<path fill="none" stroke="#191970" d="M142.4524,-130.8769C153.3584,-133.4487 164.4716,-136.0548 175,-138.5 188.3231,-141.5943 202.8543,-144.9184 216.0046,-147.9076"/>
<polygon fill="#191970" stroke="#191970" points="143.0544,-127.4229 132.5177,-128.5303 141.4453,-134.2354 143.0544,-127.4229"/>
</g>
<!-- Node14 -->
<g id="node4" class="node">
<title>Node14</title>
<g id="a_node4"><a xlink:href="classene_1_1views_1_1gui_1_1partial_1_1PlaylistView.html#a8d541ff3e91c1492b2e47cc7272ca56d" target="_top" xlink:title="ene.views.gui.partial.Playlist\lView.render">
<polygon fill="none" stroke="#000000" points="188,-98.5 188,-128.5 329,-128.5 329,-98.5 188,-98.5"/>
<text text-anchor="start" x="196" y="-116.5" font-family="Helvetica,sans-Serif" font-size="10.00" fill="#000000">ene.views.gui.partial.Playlist</text>
<text text-anchor="middle" x="258.5" y="-105.5" font-family="Helvetica,sans-Serif" font-size="10.00" fill="#000000">View.render</text>
</a>
</g>
</g>
<!-- Node11&#45;&gt;Node14 -->
<g id="edge3" class="edge">
<title>Node11&#45;&gt;Node14</title>
<path fill="none" stroke="#191970" d="M149.2456,-113.5C162.0542,-113.5 175.2336,-113.5 187.811,-113.5"/>
<polygon fill="#191970" stroke="#191970" points="149.0715,-110.0001 139.0714,-113.5 149.0714,-117.0001 149.0715,-110.0001"/>
</g>
<!-- Node15 -->
<g id="node5" class="node">
<title>Node15</title>
<g id="a_node5"><a xlink:href="classene_1_1views_1_1gui_1_1partial_1_1LibraryView.html#a0bd6885fe06ebde4d3dffbcd888c0b41" target="_top" xlink:title="ene.views.gui.partial.Library\lView.render">
<polygon fill="none" stroke="#000000" points="189.5,-49.5 189.5,-79.5 327.5,-79.5 327.5,-49.5 189.5,-49.5"/>
<text text-anchor="start" x="197.5" y="-67.5" font-family="Helvetica,sans-Serif" font-size="10.00" fill="#000000">ene.views.gui.partial.Library</text>
<text text-anchor="middle" x="258.5" y="-56.5" font-family="Helvetica,sans-Serif" font-size="10.00" fill="#000000">View.render</text>
</a>
</g>
</g>
<!-- Node11&#45;&gt;Node15 -->
<g id="edge4" class="edge">
<title>Node11&#45;&gt;Node15</title>
<path fill="none" stroke="#191970" d="M137.1921,-95.9502C157.9466,-90.5694 180.582,-84.701 200.619,-79.5062"/>
<polygon fill="#191970" stroke="#191970" points="136.2922,-92.5677 127.4907,-98.4654 138.049,-99.3437 136.2922,-92.5677"/>
</g>
<!-- Node16 -->
<g id="node6" class="node">
<title>Node16</title>
<g id="a_node6"><a xlink:href="classene_1_1views_1_1gui_1_1partial_1_1PlayerView.html#a7e28fb299fee46d221d3224ffb87ea35" target="_top" xlink:title="ene.views.gui.partial.Player\lView.render">
<polygon fill="none" stroke="#000000" points="190,-.5 190,-30.5 327,-30.5 327,-.5 190,-.5"/>
<text text-anchor="start" x="198" y="-18.5" font-family="Helvetica,sans-Serif" font-size="10.00" fill="#000000">ene.views.gui.partial.Player</text>
<text text-anchor="middle" x="258.5" y="-7.5" font-family="Helvetica,sans-Serif" font-size="10.00" fill="#000000">View.render</text>
</a>
</g>
</g>
<!-- Node11&#45;&gt;Node16 -->
<g id="edge5" class="edge">
<title>Node11&#45;&gt;Node16</title>
<path fill="none" stroke="#191970" d="M95.3777,-92.1271C115.9041,-76.0595 145.8885,-54.4944 175,-40.5 182.7738,-36.763 191.2255,-33.4507 199.6677,-30.5593"/>
<polygon fill="#191970" stroke="#191970" points="93.1097,-89.4589 87.4591,-98.4212 97.4653,-94.9388 93.1097,-89.4589"/>
</g>
</g>
</svg>
