<?xml version="1.0" encoding="UTF-8" standalone="no"?>
<!DOCTYPE svg PUBLIC "-//W3C//DTD SVG 1.1//EN"
 "http://www.w3.org/Graphics/SVG/1.1/DTD/svg11.dtd">
<!-- Generated by graphviz version 2.40.1 (20161225.0304)
 -->
<!-- Title: ene.AbstractObject.enableDebugMode Pages: 1 -->
<svg width="487pt" height="39pt"
 viewBox="0.00 0.00 487.00 39.00" xmlns="http://www.w3.org/2000/svg" xmlns:xlink="http://www.w3.org/1999/xlink">
<g id="graph0" class="graph" transform="scale(1 1) rotate(0) translate(4 35)">
<title>ene.AbstractObject.enableDebugMode</title>
<!-- Node30 -->
<g id="node1" class="node">
<title>Node30</title>
<polygon fill="#bfbfbf" stroke="#000000" points="0,-.5 0,-30.5 132,-30.5 132,-.5 0,-.5"/>
<text text-anchor="start" x="8" y="-18.5" font-family="Helvetica,sans-Serif" font-size="10.00" fill="#000000">ene.AbstractObject.enable</text>
<text text-anchor="middle" x="66" y="-7.5" font-family="Helvetica,sans-Serif" font-size="10.00" fill="#000000">DebugMode</text>
</g>
<!-- Node31 -->
<g id="node2" class="node">
<title>Node31</title>
<g id="a_node2"><a xlink:href="classene_1_1Application.html#a096fa8803429fdb43c79cde1705b489f" target="_top" xlink:title="ene.Application.processArguments">
<polygon fill="none" stroke="#000000" points="168,-6 168,-25 336,-25 336,-6 168,-6"/>
<text text-anchor="middle" x="252" y="-13" font-family="Helvetica,sans-Serif" font-size="10.00" fill="#000000">ene.Application.processArguments</text>
</a>
</g>
</g>
<!-- Node30&#45;&gt;Node31 -->
<g id="edge1" class="edge">
<title>Node30&#45;&gt;Node31</title>
<path fill="none" stroke="#191970" d="M142.2847,-15.5C150.7273,-15.5 159.3599,-15.5 167.8918,-15.5"/>
<polygon fill="#191970" stroke="#191970" points="142.1004,-12.0001 132.1004,-15.5 142.1003,-19.0001 142.1004,-12.0001"/>
</g>
<!-- Node32 -->
<g id="node3" class="node">
<title>Node32</title>
<g id="a_node3"><a xlink:href="classene_1_1Application.html#a336bc7b9857591df7cc547781aacbf10" target="_top" xlink:title="ene.Application.main">
<polygon fill="none" stroke="#000000" points="372,-6 372,-25 479,-25 479,-6 372,-6"/>
<text text-anchor="middle" x="425.5" y="-13" font-family="Helvetica,sans-Serif" font-size="10.00" fill="#000000">ene.Application.main</text>
</a>
</g>
</g>
<!-- Node31&#45;&gt;Node32 -->
<g id="edge2" class="edge">
<title>Node31&#45;&gt;Node32</title>
<path fill="none" stroke="#191970" d="M346.4023,-15.5C355.0633,-15.5 363.6217,-15.5 371.7287,-15.5"/>
<polygon fill="#191970" stroke="#191970" points="346.2089,-12.0001 336.2088,-15.5 346.2088,-19.0001 346.2089,-12.0001"/>
</g>
</g>
</svg>
