<?xml version="1.0" encoding="UTF-8" standalone="no"?>
<!DOCTYPE svg PUBLIC "-//W3C//DTD SVG 1.1//EN"
 "http://www.w3.org/Graphics/SVG/1.1/DTD/svg11.dtd">
<!-- Generated by graphviz version 2.40.1 (20161225.0304)
 -->
<!-- Title: ene.views.gui.WindowView.render Pages: 1 -->
<svg width="350pt" height="88pt"
 viewBox="0.00 0.00 350.00 88.00" xmlns="http://www.w3.org/2000/svg" xmlns:xlink="http://www.w3.org/1999/xlink">
<g id="graph0" class="graph" transform="scale(1 1) rotate(0) translate(4 84)">
<title>ene.views.gui.WindowView.render</title>
<!-- Node18 -->
<g id="node1" class="node">
<title>Node18</title>
<polygon fill="#bfbfbf" stroke="#000000" points="0,-30 0,-49 167,-49 167,-30 0,-30"/>
<text text-anchor="middle" x="83.5" y="-37" font-family="Helvetica,sans-Serif" font-size="10.00" fill="#000000">ene.views.gui.WindowView.render</text>
</g>
<!-- Node19 -->
<g id="node2" class="node">
<title>Node19</title>
<g id="a_node2"><a xlink:href="classene_1_1views_1_1AbstractMasterView.html#ae25938d2b597c1fc203da53e027d3648" target="_top" xlink:title="ene.views.AbstractMaster\lView.getAllViews">
<polygon fill="none" stroke="#000000" points="207,-49.5 207,-79.5 338,-79.5 338,-49.5 207,-49.5"/>
<text text-anchor="start" x="215" y="-67.5" font-family="Helvetica,sans-Serif" font-size="10.00" fill="#000000">ene.views.AbstractMaster</text>
<text text-anchor="middle" x="272.5" y="-56.5" font-family="Helvetica,sans-Serif" font-size="10.00" fill="#000000">View.getAllViews</text>
</a>
</g>
</g>
<!-- Node18&#45;&gt;Node19 -->
<g id="edge1" class="edge">
<title>Node18&#45;&gt;Node19</title>
<path fill="none" stroke="#191970" d="M155.492,-49.0227C168.9589,-50.8041 183.0733,-52.6711 196.6526,-54.4673"/>
<polygon fill="#191970" stroke="#191970" points="196.5403,-57.9828 206.9129,-55.8245 197.4582,-51.0433 196.5403,-57.9828"/>
</g>
<!-- Node20 -->
<g id="node3" class="node">
<title>Node20</title>
<g id="a_node3"><a xlink:href="classene_1_1views_1_1AbstractView.html#a8b774594825c8749280b5b17013ad7dc" target="_top" xlink:title="ene.views.AbstractView.get\lCoreComponent">
<polygon fill="none" stroke="#000000" points="203,-.5 203,-30.5 342,-30.5 342,-.5 203,-.5"/>
<text text-anchor="start" x="211" y="-18.5" font-family="Helvetica,sans-Serif" font-size="10.00" fill="#000000">ene.views.AbstractView.get</text>
<text text-anchor="middle" x="272.5" y="-7.5" font-family="Helvetica,sans-Serif" font-size="10.00" fill="#000000">CoreComponent</text>
</a>
</g>
</g>
<!-- Node18&#45;&gt;Node20 -->
<g id="edge2" class="edge">
<title>Node18&#45;&gt;Node20</title>
<path fill="none" stroke="#191970" d="M158.4693,-29.9801C169.7883,-28.5428 181.4983,-27.0558 192.9107,-25.6066"/>
<polygon fill="#191970" stroke="#191970" points="193.3664,-29.0769 202.8458,-24.345 192.4845,-22.1327 193.3664,-29.0769"/>
</g>
</g>
</svg>
