<?xml version="1.0" encoding="UTF-8" standalone="no"?>
<!DOCTYPE svg PUBLIC "-//W3C//DTD SVG 1.1//EN"
 "http://www.w3.org/Graphics/SVG/1.1/DTD/svg11.dtd">
<!-- Generated by graphviz version 2.40.1 (20161225.0304)
 -->
<!-- Title: ene.models.PlaylistModel Pages: 1 -->
<svg width="534pt" height="618pt"
 viewBox="0.00 0.00 533.50 618.00" xmlns="http://www.w3.org/2000/svg" xmlns:xlink="http://www.w3.org/1999/xlink">
<g id="graph0" class="graph" transform="scale(1 1) rotate(0) translate(4 614)">
<title>ene.models.PlaylistModel</title>
<!-- Node5 -->
<g id="node1" class="node">
<title>Node5</title>
<polygon fill="#bfbfbf" stroke="#000000" points="286.5,-.5 286.5,-68.5 414.5,-68.5 414.5,-.5 286.5,-.5"/>
<text text-anchor="middle" x="350.5" y="-56.5" font-family="Helvetica,sans-Serif" font-size="10.00" fill="#000000">ene.models.PlaylistModel</text>
<polyline fill="none" stroke="#000000" points="286.5,-49.5 414.5,-49.5 "/>
<text text-anchor="middle" x="350.5" y="-37.5" font-family="Helvetica,sans-Serif" font-size="10.00" fill="#000000"> </text>
<polyline fill="none" stroke="#000000" points="286.5,-30.5 414.5,-30.5 "/>
<text text-anchor="start" x="294.5" y="-18.5" font-family="Helvetica,sans-Serif" font-size="10.00" fill="#000000">+ setName()</text>
<text text-anchor="start" x="294.5" y="-7.5" font-family="Helvetica,sans-Serif" font-size="10.00" fill="#000000">+ getName()</text>
</g>
<!-- Node6 -->
<g id="node2" class="node">
<title>Node6</title>
<g id="a_node2"><a xlink:href="classene_1_1models_1_1TrackListModel.html" target="_top" xlink:title="{ene.models.TrackListModel\n||+ add()\l+ remove()\l+ get()\l+ getAll()\l}">
<polygon fill="none" stroke="#000000" points="228,-116.5 228,-206.5 365,-206.5 365,-116.5 228,-116.5"/>
<text text-anchor="middle" x="296.5" y="-194.5" font-family="Helvetica,sans-Serif" font-size="10.00" fill="#000000">ene.models.TrackListModel</text>
<polyline fill="none" stroke="#000000" points="228,-187.5 365,-187.5 "/>
<text text-anchor="middle" x="296.5" y="-175.5" font-family="Helvetica,sans-Serif" font-size="10.00" fill="#000000"> </text>
<polyline fill="none" stroke="#000000" points="228,-168.5 365,-168.5 "/>
<text text-anchor="start" x="236" y="-156.5" font-family="Helvetica,sans-Serif" font-size="10.00" fill="#000000">+ add()</text>
<text text-anchor="start" x="236" y="-145.5" font-family="Helvetica,sans-Serif" font-size="10.00" fill="#000000">+ remove()</text>
<text text-anchor="start" x="236" y="-134.5" font-family="Helvetica,sans-Serif" font-size="10.00" fill="#000000">+ get()</text>
<text text-anchor="start" x="236" y="-123.5" font-family="Helvetica,sans-Serif" font-size="10.00" fill="#000000">+ getAll()</text>
</a>
</g>
</g>
<!-- Node6&#45;&gt;Node5 -->
<g id="edge1" class="edge">
<title>Node6&#45;&gt;Node5</title>
<path fill="none" stroke="#191970" d="M319.6642,-107.0213C325.1933,-94.0176 330.9415,-80.4987 335.9557,-68.706"/>
<polygon fill="none" stroke="#191970" points="316.3825,-105.7947 315.6904,-116.367 322.8244,-108.5338 316.3825,-105.7947"/>
</g>
<!-- Node7 -->
<g id="node3" class="node">
<title>Node7</title>
<g id="a_node3"><a xlink:href="classene_1_1models_1_1AbstractModel.html" target="_top" xlink:title="{ene.models.AbstractModel\n||+ addView()\l# changed()\l}">
<polygon fill="none" stroke="#000000" points="156,-254.5 156,-322.5 289,-322.5 289,-254.5 156,-254.5"/>
<text text-anchor="middle" x="222.5" y="-310.5" font-family="Helvetica,sans-Serif" font-size="10.00" fill="#000000">ene.models.AbstractModel</text>
<polyline fill="none" stroke="#000000" points="156,-303.5 289,-303.5 "/>
<text text-anchor="middle" x="222.5" y="-291.5" font-family="Helvetica,sans-Serif" font-size="10.00" fill="#000000"> </text>
<polyline fill="none" stroke="#000000" points="156,-284.5 289,-284.5 "/>
<text text-anchor="start" x="164" y="-272.5" font-family="Helvetica,sans-Serif" font-size="10.00" fill="#000000">+ addView()</text>
<text text-anchor="start" x="164" y="-261.5" font-family="Helvetica,sans-Serif" font-size="10.00" fill="#000000"># changed()</text>
</a>
</g>
</g>
<!-- Node7&#45;&gt;Node6 -->
<g id="edge2" class="edge">
<title>Node7&#45;&gt;Node6</title>
<path fill="none" stroke="#191970" d="M247.5091,-245.5789C254.8167,-233.0375 262.824,-219.2953 270.2085,-206.6219"/>
<polygon fill="none" stroke="#191970" points="244.3411,-244.064 242.3306,-254.4663 250.3893,-247.5881 244.3411,-244.064"/>
</g>
<!-- Node8 -->
<g id="node4" class="node">
<title>Node8</title>
<g id="a_node4"><a xlink:href="classene_1_1AbstractObject.html" target="_top" xlink:title="{ene.AbstractObject\n||+ enableDebugMode()\l+ disableDebugMode()\l+ isDebugModeEnabled()\l+ debugInfoAbout()\l+ consoleOutput()\l# delay()\l}">
<polygon fill="none" stroke="#000000" points="0,-381.5 0,-493.5 127,-493.5 127,-381.5 0,-381.5"/>
<text text-anchor="middle" x="63.5" y="-481.5" font-family="Helvetica,sans-Serif" font-size="10.00" fill="#000000">ene.AbstractObject</text>
<polyline fill="none" stroke="#000000" points="0,-474.5 127,-474.5 "/>
<text text-anchor="middle" x="63.5" y="-462.5" font-family="Helvetica,sans-Serif" font-size="10.00" fill="#000000"> </text>
<polyline fill="none" stroke="#000000" points="0,-455.5 127,-455.5 "/>
<text text-anchor="start" x="8" y="-443.5" font-family="Helvetica,sans-Serif" font-size="10.00" fill="#000000">+ enableDebugMode()</text>
<text text-anchor="start" x="8" y="-432.5" font-family="Helvetica,sans-Serif" font-size="10.00" fill="#000000">+ disableDebugMode()</text>
<text text-anchor="start" x="8" y="-421.5" font-family="Helvetica,sans-Serif" font-size="10.00" fill="#000000">+ isDebugModeEnabled()</text>
<text text-anchor="start" x="8" y="-410.5" font-family="Helvetica,sans-Serif" font-size="10.00" fill="#000000">+ debugInfoAbout()</text>
<text text-anchor="start" x="8" y="-399.5" font-family="Helvetica,sans-Serif" font-size="10.00" fill="#000000">+ consoleOutput()</text>
<text text-anchor="start" x="8" y="-388.5" font-family="Helvetica,sans-Serif" font-size="10.00" fill="#000000"># delay()</text>
</a>
</g>
</g>
<!-- Node8&#45;&gt;Node7 -->
<g id="edge3" class="edge">
<title>Node8&#45;&gt;Node7</title>
<path fill="none" stroke="#191970" d="M131.0378,-374.2098C149.8339,-356.5959 169.5429,-338.1264 185.8319,-322.8619"/>
<polygon fill="none" stroke="#191970" points="128.5146,-371.7777 123.6111,-381.1695 133.3012,-376.8855 128.5146,-371.7777"/>
</g>
<!-- Node9 -->
<g id="node5" class="node">
<title>Node9</title>
<polygon fill="none" stroke="#bfbfbf" points="25,-552.5 25,-609.5 102,-609.5 102,-552.5 25,-552.5"/>
<text text-anchor="middle" x="63.5" y="-597.5" font-family="Helvetica,sans-Serif" font-size="10.00" fill="#000000">static boolean</text>
<polyline fill="none" stroke="#bfbfbf" points="25,-590.5 102,-590.5 "/>
<text text-anchor="middle" x="63.5" y="-578.5" font-family="Helvetica,sans-Serif" font-size="10.00" fill="#000000"> </text>
<polyline fill="none" stroke="#bfbfbf" points="25,-571.5 102,-571.5 "/>
<text text-anchor="middle" x="63.5" y="-559.5" font-family="Helvetica,sans-Serif" font-size="10.00" fill="#000000"> </text>
</g>
<!-- Node9&#45;&gt;Node8 -->
<g id="edge4" class="edge">
<title>Node9&#45;&gt;Node8</title>
<path fill="none" stroke="#404040" d="M63.5,-552.3055C63.5,-538.9442 63.5,-522.4218 63.5,-506.1157"/>
<polygon fill="none" stroke="#404040" points="63.5001,-505.7445 59.5,-499.7445 63.5,-493.7445 67.5,-499.7444 63.5001,-505.7445"/>
<text text-anchor="middle" x="110.5" y="-520.5" font-family="Helvetica,sans-Serif" font-size="10.00" fill="#000000"> #debugModeEnabled</text>
</g>
<!-- Node10 -->
<g id="node6" class="node">
<title>Node10</title>
<g id="a_node6"><a xlink:href="interfaceene_1_1interfaces_1_1Model.html" target="_top" xlink:title="{ene.interfaces.Model\n||+ addView()\l}">
<polygon fill="none" stroke="#000000" points="145,-409 145,-466 252,-466 252,-409 145,-409"/>
<text text-anchor="middle" x="198.5" y="-454" font-family="Helvetica,sans-Serif" font-size="10.00" fill="#000000">ene.interfaces.Model</text>
<polyline fill="none" stroke="#000000" points="145,-447 252,-447 "/>
<text text-anchor="middle" x="198.5" y="-435" font-family="Helvetica,sans-Serif" font-size="10.00" fill="#000000"> </text>
<polyline fill="none" stroke="#000000" points="145,-428 252,-428 "/>
<text text-anchor="start" x="153" y="-416" font-family="Helvetica,sans-Serif" font-size="10.00" fill="#000000">+ addView()</text>
</a>
</g>
</g>
<!-- Node10&#45;&gt;Node7 -->
<g id="edge5" class="edge">
<title>Node10&#45;&gt;Node7</title>
<path fill="none" stroke="#191970" d="M204.7407,-398.7559C208.5397,-375.1705 213.3482,-345.3175 217.0033,-322.6252"/>
<polygon fill="none" stroke="#191970" points="201.2623,-398.3419 203.1274,-408.7713 208.1732,-399.4552 201.2623,-398.3419"/>
</g>
<!-- Node11 -->
<g id="node7" class="node">
<title>Node11</title>
<polygon fill="none" stroke="#bfbfbf" points="270.5,-403.5 270.5,-471.5 404.5,-471.5 404.5,-403.5 270.5,-403.5"/>
<text text-anchor="start" x="278.5" y="-459.5" font-family="Helvetica,sans-Serif" font-size="10.00" fill="#000000">List&lt; ene.interfaces.Partial</text>
<text text-anchor="middle" x="337.5" y="-448.5" font-family="Helvetica,sans-Serif" font-size="10.00" fill="#000000">View &gt;</text>
<polyline fill="none" stroke="#bfbfbf" points="270.5,-441.5 404.5,-441.5 "/>
<text text-anchor="middle" x="337.5" y="-429.5" font-family="Helvetica,sans-Serif" font-size="10.00" fill="#000000"> </text>
<polyline fill="none" stroke="#bfbfbf" points="270.5,-422.5 404.5,-422.5 "/>
<text text-anchor="middle" x="337.5" y="-410.5" font-family="Helvetica,sans-Serif" font-size="10.00" fill="#000000"> </text>
</g>
<!-- Node11&#45;&gt;Node7 -->
<g id="edge6" class="edge">
<title>Node11&#45;&gt;Node7</title>
<path fill="none" stroke="#404040" d="M311.1167,-403.3164C294.8271,-382.2108 273.7697,-354.9277 256.2692,-332.2531"/>
<polygon fill="none" stroke="#404040" points="256.0925,-332.0242 249.26,-329.7184 248.7606,-322.5245 255.5931,-324.8304 256.0925,-332.0242"/>
<text text-anchor="middle" x="297.5" y="-349.5" font-family="Helvetica,sans-Serif" font-size="10.00" fill="#000000"> #views</text>
</g>
<!-- Node12 -->
<g id="node8" class="node">
<title>Node12</title>
<polygon fill="none" stroke="#bfbfbf" points="321.5,-552.5 321.5,-609.5 353.5,-609.5 353.5,-552.5 321.5,-552.5"/>
<text text-anchor="middle" x="337.5" y="-597.5" font-family="Helvetica,sans-Serif" font-size="10.00" fill="#000000">List</text>
<polyline fill="none" stroke="#bfbfbf" points="321.5,-590.5 353.5,-590.5 "/>
<text text-anchor="middle" x="337.5" y="-578.5" font-family="Helvetica,sans-Serif" font-size="10.00" fill="#000000"> </text>
<polyline fill="none" stroke="#bfbfbf" points="321.5,-571.5 353.5,-571.5 "/>
<text text-anchor="middle" x="337.5" y="-559.5" font-family="Helvetica,sans-Serif" font-size="10.00" fill="#000000"> </text>
</g>
<!-- Node12&#45;&gt;Node11 -->
<g id="edge7" class="edge">
<title>Node12&#45;&gt;Node11</title>
<path fill="none" stroke="#ffa500" d="M337.5,-542.2878C337.5,-520.2661 337.5,-492.9324 337.5,-471.7037"/>
<polygon fill="#ffa500" stroke="#ffa500" points="334.0001,-542.3055 337.5,-552.3055 341.0001,-542.3056 334.0001,-542.3055"/>
<text text-anchor="start" x="337.5" y="-526" font-family="Helvetica,sans-Serif" font-size="10.00" fill="#000000"> &lt; ene::interfaces::</text>
<text text-anchor="middle" x="379" y="-515" font-family="Helvetica,sans-Serif" font-size="10.00" fill="#000000">PartialView &gt;</text>
</g>
<!-- Node13 -->
<g id="node9" class="node">
<title>Node13</title>
<polygon fill="none" stroke="#bfbfbf" points="353,-254.5 353,-322.5 482,-322.5 482,-254.5 353,-254.5"/>
<text text-anchor="start" x="361" y="-310.5" font-family="Helvetica,sans-Serif" font-size="10.00" fill="#000000">Map&lt; String, ene.models.</text>
<text text-anchor="middle" x="417.5" y="-299.5" font-family="Helvetica,sans-Serif" font-size="10.00" fill="#000000">TrackModel &gt;</text>
<polyline fill="none" stroke="#bfbfbf" points="353,-292.5 482,-292.5 "/>
<text text-anchor="middle" x="417.5" y="-280.5" font-family="Helvetica,sans-Serif" font-size="10.00" fill="#000000"> </text>
<polyline fill="none" stroke="#bfbfbf" points="353,-273.5 482,-273.5 "/>
<text text-anchor="middle" x="417.5" y="-261.5" font-family="Helvetica,sans-Serif" font-size="10.00" fill="#000000"> </text>
</g>
<!-- Node13&#45;&gt;Node6 -->
<g id="edge8" class="edge">
<title>Node13&#45;&gt;Node6</title>
<path fill="none" stroke="#404040" d="M385.0742,-254.4663C373.6987,-242.5267 360.6217,-228.8013 348.0692,-215.6263"/>
<polygon fill="none" stroke="#404040" points="347.7677,-215.3099 340.7329,-213.7251 339.4901,-206.6219 346.5249,-208.2067 347.7677,-215.3099"/>
<text text-anchor="middle" x="382.5" y="-228" font-family="Helvetica,sans-Serif" font-size="10.00" fill="#000000"> #tracks</text>
</g>
<!-- Node14 -->
<g id="node10" class="node">
<title>Node14</title>
<polygon fill="none" stroke="#bfbfbf" points="423,-409 423,-466 458,-466 458,-409 423,-409"/>
<text text-anchor="middle" x="440.5" y="-454" font-family="Helvetica,sans-Serif" font-size="10.00" fill="#000000">Map</text>
<polyline fill="none" stroke="#bfbfbf" points="423,-447 458,-447 "/>
<text text-anchor="middle" x="440.5" y="-435" font-family="Helvetica,sans-Serif" font-size="10.00" fill="#000000"> </text>
<polyline fill="none" stroke="#bfbfbf" points="423,-428 458,-428 "/>
<text text-anchor="middle" x="440.5" y="-416" font-family="Helvetica,sans-Serif" font-size="10.00" fill="#000000"> </text>
</g>
<!-- Node14&#45;&gt;Node13 -->
<g id="edge9" class="edge">
<title>Node14&#45;&gt;Node13</title>
<path fill="none" stroke="#ffa500" d="M434.5194,-398.7559C430.8787,-375.1705 426.2705,-345.3175 422.7677,-322.6252"/>
<polygon fill="#ffa500" stroke="#ffa500" points="431.0807,-399.4223 436.0654,-408.7713 437.9988,-398.3544 431.0807,-399.4223"/>
<text text-anchor="start" x="428.5" y="-355" font-family="Helvetica,sans-Serif" font-size="10.00" fill="#000000"> &lt; String, ene::models</text>
<text text-anchor="middle" x="477" y="-344" font-family="Helvetica,sans-Serif" font-size="10.00" fill="#000000">::TrackModel &gt;</text>
</g>
<!-- Node15 -->
<g id="node11" class="node">
<title>Node15</title>
<polygon fill="none" stroke="#bfbfbf" points="383.5,-133 383.5,-190 425.5,-190 425.5,-133 383.5,-133"/>
<text text-anchor="middle" x="404.5" y="-178" font-family="Helvetica,sans-Serif" font-size="10.00" fill="#000000">String</text>
<polyline fill="none" stroke="#bfbfbf" points="383.5,-171 425.5,-171 "/>
<text text-anchor="middle" x="404.5" y="-159" font-family="Helvetica,sans-Serif" font-size="10.00" fill="#000000"> </text>
<polyline fill="none" stroke="#bfbfbf" points="383.5,-152 425.5,-152 "/>
<text text-anchor="middle" x="404.5" y="-140" font-family="Helvetica,sans-Serif" font-size="10.00" fill="#000000"> </text>
</g>
<!-- Node15&#45;&gt;Node5 -->
<g id="edge10" class="edge">
<title>Node15&#45;&gt;Node5</title>
<path fill="none" stroke="#404040" d="M392.3813,-132.9987C385.7492,-117.4009 377.375,-97.706 369.8609,-80.034"/>
<polygon fill="none" stroke="#404040" points="369.7699,-79.8197 363.741,-75.8633 365.0743,-68.7765 371.1031,-72.7329 369.7699,-79.8197"/>
<text text-anchor="middle" x="394.5" y="-90" font-family="Helvetica,sans-Serif" font-size="10.00" fill="#000000"> ~name</text>
</g>
</g>
</svg>
