<?xml version="1.0" encoding="UTF-8" standalone="no"?>
<!DOCTYPE svg PUBLIC "-//W3C//DTD SVG 1.1//EN"
 "http://www.w3.org/Graphics/SVG/1.1/DTD/svg11.dtd">
<!-- Generated by graphviz version 2.40.1 (20161225.0304)
 -->
<!-- Title: ene.models.PlayerModel.loadPlaylist Pages: 1 -->
<svg width="710pt" height="254pt"
 viewBox="0.00 0.00 710.00 253.50" xmlns="http://www.w3.org/2000/svg" xmlns:xlink="http://www.w3.org/1999/xlink">
<g id="graph0" class="graph" transform="scale(1 1) rotate(0) translate(4 249.5)">
<title>ene.models.PlayerModel.loadPlaylist</title>
<!-- Node49 -->
<g id="node1" class="node">
<title>Node49</title>
<polygon fill="#bfbfbf" stroke="#000000" points="0,-110.5 0,-140.5 145,-140.5 145,-110.5 0,-110.5"/>
<text text-anchor="start" x="8" y="-128.5" font-family="Helvetica,sans-Serif" font-size="10.00" fill="#000000">ene.models.PlayerModel.load</text>
<text text-anchor="middle" x="72.5" y="-117.5" font-family="Helvetica,sans-Serif" font-size="10.00" fill="#000000">Playlist</text>
</g>
<!-- Node50 -->
<g id="node2" class="node">
<title>Node50</title>
<g id="a_node2"><a xlink:href="classene_1_1models_1_1PlaylistModel.html#ad63fd499a74248dc9dadad29b9882fd2" target="_top" xlink:title="ene.models.PlaylistModel.get\lCurrentTrack">
<polygon fill="none" stroke="#000000" points="181,-198.5 181,-228.5 326,-228.5 326,-198.5 181,-198.5"/>
<text text-anchor="start" x="189" y="-216.5" font-family="Helvetica,sans-Serif" font-size="10.00" fill="#000000">ene.models.PlaylistModel.get</text>
<text text-anchor="middle" x="253.5" y="-205.5" font-family="Helvetica,sans-Serif" font-size="10.00" fill="#000000">CurrentTrack</text>
</a>
</g>
</g>
<!-- Node49&#45;&gt;Node50 -->
<g id="edge1" class="edge">
<title>Node49&#45;&gt;Node50</title>
<path fill="none" stroke="#191970" d="M103.615,-140.6277C133.8812,-155.3428 180.0127,-177.7714 213.0996,-193.8578"/>
<polygon fill="#191970" stroke="#191970" points="211.9649,-197.1978 222.4887,-198.4227 215.0257,-190.9024 211.9649,-197.1978"/>
</g>
<!-- Node52 -->
<g id="node4" class="node">
<title>Node52</title>
<g id="a_node4"><a xlink:href="classene_1_1models_1_1PlayerModel.html#a2c4655428b658dee3203787415a516a5" target="_top" xlink:title="ene.models.PlayerModel.load">
<polygon fill="none" stroke="#000000" points="181,-116 181,-135 326,-135 326,-116 181,-116"/>
<text text-anchor="middle" x="253.5" y="-123" font-family="Helvetica,sans-Serif" font-size="10.00" fill="#000000">ene.models.PlayerModel.load</text>
</a>
</g>
</g>
<!-- Node49&#45;&gt;Node52 -->
<g id="edge3" class="edge">
<title>Node49&#45;&gt;Node52</title>
<path fill="none" stroke="#191970" d="M145.0767,-125.5C153.5595,-125.5 162.2611,-125.5 170.8671,-125.5"/>
<polygon fill="#191970" stroke="#191970" points="170.907,-129.0001 180.907,-125.5 170.907,-122.0001 170.907,-129.0001"/>
</g>
<!-- Node60 -->
<g id="node12" class="node">
<title>Node60</title>
<g id="a_node12"><a xlink:href="classene_1_1models_1_1PlayerModel.html#a65e4ceddca16c50f226118cf259cd8fb" target="_top" xlink:title="ene.models.PlayerModel.set\lPlaylist">
<polygon fill="none" stroke="#000000" points="183.5,-66.5 183.5,-96.5 323.5,-96.5 323.5,-66.5 183.5,-66.5"/>
<text text-anchor="start" x="191.5" y="-84.5" font-family="Helvetica,sans-Serif" font-size="10.00" fill="#000000">ene.models.PlayerModel.set</text>
<text text-anchor="middle" x="253.5" y="-73.5" font-family="Helvetica,sans-Serif" font-size="10.00" fill="#000000">Playlist</text>
</a>
</g>
</g>
<!-- Node49&#45;&gt;Node60 -->
<g id="edge11" class="edge">
<title>Node49&#45;&gt;Node60</title>
<path fill="none" stroke="#191970" d="M134.2837,-110.4808C149.4893,-106.7844 165.9015,-102.7947 181.5417,-98.9926"/>
<polygon fill="#191970" stroke="#191970" points="182.7974,-102.2894 191.6877,-96.5262 181.1439,-95.4875 182.7974,-102.2894"/>
</g>
<!-- Node51 -->
<g id="node3" class="node">
<title>Node51</title>
<g id="a_node3"><a xlink:href="classene_1_1models_1_1TrackListModel.html#a77a78d6a93e67e544d83bf5f4856d121" target="_top" xlink:title="ene.models.TrackListModel.getAll">
<polygon fill="none" stroke="#000000" points="362,-226 362,-245 526,-245 526,-226 362,-226"/>
<text text-anchor="middle" x="444" y="-233" font-family="Helvetica,sans-Serif" font-size="10.00" fill="#000000">ene.models.TrackListModel.getAll</text>
</a>
</g>
</g>
<!-- Node50&#45;&gt;Node51 -->
<g id="edge2" class="edge">
<title>Node50&#45;&gt;Node51</title>
<path fill="none" stroke="#191970" d="M326.0633,-221.88C334.4521,-222.8488 343.0901,-223.8464 351.696,-224.8402"/>
<polygon fill="#191970" stroke="#191970" points="351.4315,-228.3329 361.767,-226.0033 352.2346,-221.3791 351.4315,-228.3329"/>
</g>
<!-- Node53 -->
<g id="node5" class="node">
<title>Node53</title>
<g id="a_node5"><a xlink:href="classene_1_1AbstractObject.html#aff9619cf289ec83735b6c6ca2c12e020" target="_top" xlink:title="ene.AbstractObject.debug\lInfoAbout">
<polygon fill="none" stroke="#000000" points="379,-176.5 379,-206.5 509,-206.5 509,-176.5 379,-176.5"/>
<text text-anchor="start" x="387" y="-194.5" font-family="Helvetica,sans-Serif" font-size="10.00" fill="#000000">ene.AbstractObject.debug</text>
<text text-anchor="middle" x="444" y="-183.5" font-family="Helvetica,sans-Serif" font-size="10.00" fill="#000000">InfoAbout</text>
</a>
</g>
</g>
<!-- Node52&#45;&gt;Node53 -->
<g id="edge4" class="edge">
<title>Node52&#45;&gt;Node53</title>
<path fill="none" stroke="#191970" d="M277.4692,-135.0734C299.3469,-143.6879 332.6486,-156.492 362,-166.5 368.7792,-168.8115 375.9074,-171.1375 383.0139,-173.3907"/>
<polygon fill="#191970" stroke="#191970" points="382.0672,-176.7618 392.6562,-176.4101 384.1591,-170.0816 382.0672,-176.7618"/>
</g>
<!-- Node56 -->
<g id="node8" class="node">
<title>Node56</title>
<g id="a_node8"><a xlink:href="classene_1_1models_1_1PlayerModel.html#aa03431aa1bae96eacf2019c56fd18f45" target="_top" xlink:title="ene.models.PlayerModel.getClip">
<polygon fill="none" stroke="#000000" points="365,-138 365,-157 523,-157 523,-138 365,-138"/>
<text text-anchor="middle" x="444" y="-145" font-family="Helvetica,sans-Serif" font-size="10.00" fill="#000000">ene.models.PlayerModel.getClip</text>
</a>
</g>
</g>
<!-- Node52&#45;&gt;Node56 -->
<g id="edge7" class="edge">
<title>Node52&#45;&gt;Node56</title>
<path fill="none" stroke="#191970" d="M326.0633,-133.88C335.506,-134.9705 345.2645,-136.0975 354.9376,-137.2146"/>
<polygon fill="#191970" stroke="#191970" points="354.6347,-140.7028 364.9702,-138.3732 355.4378,-133.749 354.6347,-140.7028"/>
</g>
<!-- Node57 -->
<g id="node9" class="node">
<title>Node57</title>
<g id="a_node9"><a xlink:href="classene_1_1models_1_1TrackModel.html#aab88fe151b093dba71ad9f9ab5c6959d" target="_top" xlink:title="ene.models.TrackModel.get\lFilename">
<polygon fill="none" stroke="#000000" points="375.5,-88.5 375.5,-118.5 512.5,-118.5 512.5,-88.5 375.5,-88.5"/>
<text text-anchor="start" x="383.5" y="-106.5" font-family="Helvetica,sans-Serif" font-size="10.00" fill="#000000">ene.models.TrackModel.get</text>
<text text-anchor="middle" x="444" y="-95.5" font-family="Helvetica,sans-Serif" font-size="10.00" fill="#000000">Filename</text>
</a>
</g>
</g>
<!-- Node52&#45;&gt;Node57 -->
<g id="edge8" class="edge">
<title>Node52&#45;&gt;Node57</title>
<path fill="none" stroke="#191970" d="M326.0633,-117.12C338.8403,-115.6444 352.1956,-114.1021 365.1349,-112.6078"/>
<polygon fill="#191970" stroke="#191970" points="365.8715,-116.0461 375.4039,-111.4219 365.0683,-109.0923 365.8715,-116.0461"/>
</g>
<!-- Node58 -->
<g id="node10" class="node">
<title>Node58</title>
<g id="a_node10"><a xlink:href="classene_1_1models_1_1PlayerModel.html#a5617391131179365729686dc4eea1ea1" target="_top" xlink:title="ene.models.PlayerModel.setClip">
<polygon fill="none" stroke="#000000" points="365,-50 365,-69 523,-69 523,-50 365,-50"/>
<text text-anchor="middle" x="444" y="-57" font-family="Helvetica,sans-Serif" font-size="10.00" fill="#000000">ene.models.PlayerModel.setClip</text>
</a>
</g>
</g>
<!-- Node52&#45;&gt;Node58 -->
<g id="edge9" class="edge">
<title>Node52&#45;&gt;Node58</title>
<path fill="none" stroke="#191970" d="M298.5596,-115.8903C307.872,-113.1312 317.4438,-109.7002 326,-105.5 343.9535,-96.6868 343.8676,-86.939 362,-78.5 367.2622,-76.0509 372.8654,-73.9044 378.5772,-72.0256"/>
<polygon fill="#191970" stroke="#191970" points="379.6864,-75.3469 388.2511,-69.1101 377.6665,-68.6446 379.6864,-75.3469"/>
</g>
<!-- Node59 -->
<g id="node11" class="node">
<title>Node59</title>
<g id="a_node11"><a xlink:href="classene_1_1models_1_1PlayerModel.html#a921a00136726aee3bcababbd6c9b2e3e" target="_top" xlink:title="ene.models.PlayerModel.set\lCurrentTrack">
<polygon fill="none" stroke="#000000" points="374,-.5 374,-30.5 514,-30.5 514,-.5 374,-.5"/>
<text text-anchor="start" x="382" y="-18.5" font-family="Helvetica,sans-Serif" font-size="10.00" fill="#000000">ene.models.PlayerModel.set</text>
<text text-anchor="middle" x="444" y="-7.5" font-family="Helvetica,sans-Serif" font-size="10.00" fill="#000000">CurrentTrack</text>
</a>
</g>
</g>
<!-- Node52&#45;&gt;Node59 -->
<g id="edge10" class="edge">
<title>Node52&#45;&gt;Node59</title>
<path fill="none" stroke="#191970" d="M307.3368,-115.9424C314.0325,-113.2741 320.4607,-109.8623 326,-105.5 351.9444,-85.0682 336.3313,-61.2771 362,-40.5 364.0751,-38.8204 366.2619,-37.2534 368.5347,-35.7915"/>
<polygon fill="#191970" stroke="#191970" points="370.6683,-38.6074 377.6724,-30.658 367.2397,-32.5045 370.6683,-38.6074"/>
</g>
<!-- Node54 -->
<g id="node6" class="node">
<title>Node54</title>
<g id="a_node6"><a xlink:href="classene_1_1AbstractObject.html#a9ce30d3321c7ce794df2f07bdaf3e47c" target="_top" xlink:title="ene.AbstractObject.console\lOutput">
<polygon fill="none" stroke="#000000" points="563.5,-200.5 563.5,-230.5 700.5,-230.5 700.5,-200.5 563.5,-200.5"/>
<text text-anchor="start" x="571.5" y="-218.5" font-family="Helvetica,sans-Serif" font-size="10.00" fill="#000000">ene.AbstractObject.console</text>
<text text-anchor="middle" x="632" y="-207.5" font-family="Helvetica,sans-Serif" font-size="10.00" fill="#000000">Output</text>
</a>
</g>
</g>
<!-- Node53&#45;&gt;Node54 -->
<g id="edge5" class="edge">
<title>Node53&#45;&gt;Node54</title>
<path fill="none" stroke="#191970" d="M509.2257,-199.8267C523.4433,-201.6417 538.6329,-203.5808 553.3108,-205.4546"/>
<polygon fill="#191970" stroke="#191970" points="553.0096,-208.9444 563.3723,-206.739 553.8961,-202.0008 553.0096,-208.9444"/>
</g>
<!-- Node55 -->
<g id="node7" class="node">
<title>Node55</title>
<g id="a_node7"><a xlink:href="classene_1_1AbstractObject.html#a6ee0b669069e0c3ee320a6cf41af24fe" target="_top" xlink:title="ene.AbstractObject.isDebug\lModeEnabled">
<polygon fill="none" stroke="#000000" points="562,-151.5 562,-181.5 702,-181.5 702,-151.5 562,-151.5"/>
<text text-anchor="start" x="570" y="-169.5" font-family="Helvetica,sans-Serif" font-size="10.00" fill="#000000">ene.AbstractObject.isDebug</text>
<text text-anchor="middle" x="632" y="-158.5" font-family="Helvetica,sans-Serif" font-size="10.00" fill="#000000">ModeEnabled</text>
</a>
</g>
</g>
<!-- Node53&#45;&gt;Node55 -->
<g id="edge6" class="edge">
<title>Node53&#45;&gt;Node55</title>
<path fill="none" stroke="#191970" d="M509.2257,-182.8264C522.8799,-181.0106 537.4306,-179.0757 551.5635,-177.1963"/>
<polygon fill="#191970" stroke="#191970" points="552.3105,-180.6279 561.7618,-175.8402 551.3877,-173.689 552.3105,-180.6279"/>
</g>
</g>
</svg>
