<?xml version="1.0" encoding="UTF-8" standalone="no"?>
<!DOCTYPE svg PUBLIC "-//W3C//DTD SVG 1.1//EN"
 "http://www.w3.org/Graphics/SVG/1.1/DTD/svg11.dtd">
<!-- Generated by graphviz version 2.40.1 (20161225.0304)
 -->
<!-- Title: ene.models.TrackModel Pages: 1 -->
<svg width="434pt" height="623pt"
 viewBox="0.00 0.00 433.50 623.00" xmlns="http://www.w3.org/2000/svg" xmlns:xlink="http://www.w3.org/1999/xlink">
<g id="graph0" class="graph" transform="scale(1 1) rotate(0) translate(4 619)">
<title>ene.models.TrackModel</title>
<!-- Node4 -->
<g id="node1" class="node">
<title>Node4</title>
<polygon fill="#bfbfbf" stroke="#000000" points="188,-.5 188,-189.5 315,-189.5 315,-.5 188,-.5"/>
<text text-anchor="middle" x="251.5" y="-177.5" font-family="Helvetica,sans-Serif" font-size="10.00" fill="#000000">ene.models.TrackModel</text>
<polyline fill="none" stroke="#000000" points="188,-170.5 315,-170.5 "/>
<text text-anchor="middle" x="251.5" y="-158.5" font-family="Helvetica,sans-Serif" font-size="10.00" fill="#000000"> </text>
<polyline fill="none" stroke="#000000" points="188,-151.5 315,-151.5 "/>
<text text-anchor="start" x="196" y="-139.5" font-family="Helvetica,sans-Serif" font-size="10.00" fill="#000000">+ getFilename()</text>
<text text-anchor="start" x="196" y="-128.5" font-family="Helvetica,sans-Serif" font-size="10.00" fill="#000000">+ setFilename()</text>
<text text-anchor="start" x="196" y="-117.5" font-family="Helvetica,sans-Serif" font-size="10.00" fill="#000000">+ getArtist()</text>
<text text-anchor="start" x="196" y="-106.5" font-family="Helvetica,sans-Serif" font-size="10.00" fill="#000000">+ setArtist()</text>
<text text-anchor="start" x="196" y="-95.5" font-family="Helvetica,sans-Serif" font-size="10.00" fill="#000000">+ getTitle()</text>
<text text-anchor="start" x="196" y="-84.5" font-family="Helvetica,sans-Serif" font-size="10.00" fill="#000000">+ setTitle()</text>
<text text-anchor="start" x="196" y="-73.5" font-family="Helvetica,sans-Serif" font-size="10.00" fill="#000000">+ getGenre()</text>
<text text-anchor="start" x="196" y="-62.5" font-family="Helvetica,sans-Serif" font-size="10.00" fill="#000000">+ setGenre()</text>
<text text-anchor="start" x="196" y="-51.5" font-family="Helvetica,sans-Serif" font-size="10.00" fill="#000000">+ TrackModel()</text>
<text text-anchor="start" x="196" y="-40.5" font-family="Helvetica,sans-Serif" font-size="10.00" fill="#000000">+ toString()</text>
<text text-anchor="start" x="196" y="-29.5" font-family="Helvetica,sans-Serif" font-size="10.00" fill="#000000">+ detectArtist()</text>
<text text-anchor="start" x="196" y="-18.5" font-family="Helvetica,sans-Serif" font-size="10.00" fill="#000000">+ detectTitle()</text>
<text text-anchor="start" x="196" y="-7.5" font-family="Helvetica,sans-Serif" font-size="10.00" fill="#000000"># cutFilenameFromPath()</text>
</g>
<!-- Node5 -->
<g id="node2" class="node">
<title>Node5</title>
<g id="a_node2"><a xlink:href="classene_1_1models_1_1AbstractModel.html" target="_top" xlink:title="{ene.models.AbstractModel\n||+ addView()\l# changed()\l}">
<polygon fill="none" stroke="#000000" points="132,-270.5 132,-338.5 265,-338.5 265,-270.5 132,-270.5"/>
<text text-anchor="middle" x="198.5" y="-326.5" font-family="Helvetica,sans-Serif" font-size="10.00" fill="#000000">ene.models.AbstractModel</text>
<polyline fill="none" stroke="#000000" points="132,-319.5 265,-319.5 "/>
<text text-anchor="middle" x="198.5" y="-307.5" font-family="Helvetica,sans-Serif" font-size="10.00" fill="#000000"> </text>
<polyline fill="none" stroke="#000000" points="132,-300.5 265,-300.5 "/>
<text text-anchor="start" x="140" y="-288.5" font-family="Helvetica,sans-Serif" font-size="10.00" fill="#000000">+ addView()</text>
<text text-anchor="start" x="140" y="-277.5" font-family="Helvetica,sans-Serif" font-size="10.00" fill="#000000"># changed()</text>
</a>
</g>
</g>
<!-- Node5&#45;&gt;Node4 -->
<g id="edge1" class="edge">
<title>Node5&#45;&gt;Node4</title>
<path fill="none" stroke="#191970" d="M209.5954,-260.6419C214.8238,-239.9746 221.2779,-214.4627 227.5409,-189.7061"/>
<polygon fill="none" stroke="#191970" points="206.1929,-259.8209 207.1333,-270.3739 212.9791,-261.5378 206.1929,-259.8209"/>
</g>
<!-- Node6 -->
<g id="node3" class="node">
<title>Node6</title>
<g id="a_node3"><a xlink:href="classene_1_1AbstractObject.html" target="_top" xlink:title="{ene.AbstractObject\n||+ enableDebugMode()\l+ disableDebugMode()\l+ isDebugModeEnabled()\l+ debugInfoAbout()\l+ consoleOutput()\l# delay()\l}">
<polygon fill="none" stroke="#000000" points="0,-386.5 0,-498.5 127,-498.5 127,-386.5 0,-386.5"/>
<text text-anchor="middle" x="63.5" y="-486.5" font-family="Helvetica,sans-Serif" font-size="10.00" fill="#000000">ene.AbstractObject</text>
<polyline fill="none" stroke="#000000" points="0,-479.5 127,-479.5 "/>
<text text-anchor="middle" x="63.5" y="-467.5" font-family="Helvetica,sans-Serif" font-size="10.00" fill="#000000"> </text>
<polyline fill="none" stroke="#000000" points="0,-460.5 127,-460.5 "/>
<text text-anchor="start" x="8" y="-448.5" font-family="Helvetica,sans-Serif" font-size="10.00" fill="#000000">+ enableDebugMode()</text>
<text text-anchor="start" x="8" y="-437.5" font-family="Helvetica,sans-Serif" font-size="10.00" fill="#000000">+ disableDebugMode()</text>
<text text-anchor="start" x="8" y="-426.5" font-family="Helvetica,sans-Serif" font-size="10.00" fill="#000000">+ isDebugModeEnabled()</text>
<text text-anchor="start" x="8" y="-415.5" font-family="Helvetica,sans-Serif" font-size="10.00" fill="#000000">+ debugInfoAbout()</text>
<text text-anchor="start" x="8" y="-404.5" font-family="Helvetica,sans-Serif" font-size="10.00" fill="#000000">+ consoleOutput()</text>
<text text-anchor="start" x="8" y="-393.5" font-family="Helvetica,sans-Serif" font-size="10.00" fill="#000000"># delay()</text>
</a>
</g>
</g>
<!-- Node6&#45;&gt;Node5 -->
<g id="edge2" class="edge">
<title>Node6&#45;&gt;Node5</title>
<path fill="none" stroke="#191970" d="M125.4823,-379.1403C139.0821,-365.2383 152.9826,-351.0289 164.9558,-338.7897"/>
<polygon fill="none" stroke="#191970" points="122.9007,-376.7742 118.4097,-386.3701 127.9046,-381.6693 122.9007,-376.7742"/>
</g>
<!-- Node7 -->
<g id="node4" class="node">
<title>Node7</title>
<polygon fill="none" stroke="#bfbfbf" points="25,-557.5 25,-614.5 102,-614.5 102,-557.5 25,-557.5"/>
<text text-anchor="middle" x="63.5" y="-602.5" font-family="Helvetica,sans-Serif" font-size="10.00" fill="#000000">static boolean</text>
<polyline fill="none" stroke="#bfbfbf" points="25,-595.5 102,-595.5 "/>
<text text-anchor="middle" x="63.5" y="-583.5" font-family="Helvetica,sans-Serif" font-size="10.00" fill="#000000"> </text>
<polyline fill="none" stroke="#bfbfbf" points="25,-576.5 102,-576.5 "/>
<text text-anchor="middle" x="63.5" y="-564.5" font-family="Helvetica,sans-Serif" font-size="10.00" fill="#000000"> </text>
</g>
<!-- Node7&#45;&gt;Node6 -->
<g id="edge3" class="edge">
<title>Node7&#45;&gt;Node6</title>
<path fill="none" stroke="#404040" d="M63.5,-557.3055C63.5,-543.9442 63.5,-527.4218 63.5,-511.1157"/>
<polygon fill="none" stroke="#404040" points="63.5001,-510.7445 59.5,-504.7445 63.5,-498.7445 67.5,-504.7444 63.5001,-510.7445"/>
<text text-anchor="middle" x="110.5" y="-525.5" font-family="Helvetica,sans-Serif" font-size="10.00" fill="#000000"> #debugModeEnabled</text>
</g>
<!-- Node8 -->
<g id="node5" class="node">
<title>Node8</title>
<g id="a_node5"><a xlink:href="interfaceene_1_1interfaces_1_1Model.html" target="_top" xlink:title="{ene.interfaces.Model\n||+ addView()\l}">
<polygon fill="none" stroke="#000000" points="145,-414 145,-471 252,-471 252,-414 145,-414"/>
<text text-anchor="middle" x="198.5" y="-459" font-family="Helvetica,sans-Serif" font-size="10.00" fill="#000000">ene.interfaces.Model</text>
<polyline fill="none" stroke="#000000" points="145,-452 252,-452 "/>
<text text-anchor="middle" x="198.5" y="-440" font-family="Helvetica,sans-Serif" font-size="10.00" fill="#000000"> </text>
<polyline fill="none" stroke="#000000" points="145,-433 252,-433 "/>
<text text-anchor="start" x="153" y="-421" font-family="Helvetica,sans-Serif" font-size="10.00" fill="#000000">+ addView()</text>
</a>
</g>
</g>
<!-- Node8&#45;&gt;Node5 -->
<g id="edge4" class="edge">
<title>Node8&#45;&gt;Node5</title>
<path fill="none" stroke="#191970" d="M198.5,-403.6659C198.5,-383.2198 198.5,-358.3736 198.5,-338.6664"/>
<polygon fill="none" stroke="#191970" points="195.0001,-403.9063 198.5,-413.9063 202.0001,-403.9063 195.0001,-403.9063"/>
</g>
<!-- Node9 -->
<g id="node6" class="node">
<title>Node9</title>
<polygon fill="none" stroke="#bfbfbf" points="270.5,-408.5 270.5,-476.5 404.5,-476.5 404.5,-408.5 270.5,-408.5"/>
<text text-anchor="start" x="278.5" y="-464.5" font-family="Helvetica,sans-Serif" font-size="10.00" fill="#000000">List&lt; ene.interfaces.Partial</text>
<text text-anchor="middle" x="337.5" y="-453.5" font-family="Helvetica,sans-Serif" font-size="10.00" fill="#000000">View&lt;?, ?&gt; &gt;</text>
<polyline fill="none" stroke="#bfbfbf" points="270.5,-446.5 404.5,-446.5 "/>
<text text-anchor="middle" x="337.5" y="-434.5" font-family="Helvetica,sans-Serif" font-size="10.00" fill="#000000"> </text>
<polyline fill="none" stroke="#bfbfbf" points="270.5,-427.5 404.5,-427.5 "/>
<text text-anchor="middle" x="337.5" y="-415.5" font-family="Helvetica,sans-Serif" font-size="10.00" fill="#000000"> </text>
</g>
<!-- Node9&#45;&gt;Node5 -->
<g id="edge5" class="edge">
<title>Node9&#45;&gt;Node5</title>
<path fill="none" stroke="#404040" d="M303.1404,-408.3876C284.5122,-389.8934 261.3133,-366.8614 241.4959,-347.1866"/>
<polygon fill="none" stroke="#404040" points="241.4619,-347.1528 234.3858,-345.7642 232.946,-338.6982 240.0222,-340.0869 241.4619,-347.1528"/>
<text text-anchor="middle" x="277.5" y="-360" font-family="Helvetica,sans-Serif" font-size="10.00" fill="#000000"> #views</text>
</g>
<!-- Node10 -->
<g id="node7" class="node">
<title>Node10</title>
<polygon fill="none" stroke="#bfbfbf" points="321.5,-557.5 321.5,-614.5 353.5,-614.5 353.5,-557.5 321.5,-557.5"/>
<text text-anchor="middle" x="337.5" y="-602.5" font-family="Helvetica,sans-Serif" font-size="10.00" fill="#000000">List</text>
<polyline fill="none" stroke="#bfbfbf" points="321.5,-595.5 353.5,-595.5 "/>
<text text-anchor="middle" x="337.5" y="-583.5" font-family="Helvetica,sans-Serif" font-size="10.00" fill="#000000"> </text>
<polyline fill="none" stroke="#bfbfbf" points="321.5,-576.5 353.5,-576.5 "/>
<text text-anchor="middle" x="337.5" y="-564.5" font-family="Helvetica,sans-Serif" font-size="10.00" fill="#000000"> </text>
</g>
<!-- Node10&#45;&gt;Node9 -->
<g id="edge6" class="edge">
<title>Node10&#45;&gt;Node9</title>
<path fill="none" stroke="#ffa500" d="M337.5,-547.2878C337.5,-525.2661 337.5,-497.9324 337.5,-476.7037"/>
<polygon fill="#ffa500" stroke="#ffa500" points="334.0001,-547.3055 337.5,-557.3055 341.0001,-547.3056 334.0001,-547.3055"/>
<text text-anchor="start" x="337.5" y="-531" font-family="Helvetica,sans-Serif" font-size="10.00" fill="#000000"> &lt; ene::interfaces::</text>
<text text-anchor="middle" x="381.5" y="-520" font-family="Helvetica,sans-Serif" font-size="10.00" fill="#000000">PartialView&lt;?, ?&gt; &gt;</text>
</g>
<!-- Node11 -->
<g id="node8" class="node">
<title>Node11</title>
<polygon fill="none" stroke="#bfbfbf" points="283.5,-276 283.5,-333 325.5,-333 325.5,-276 283.5,-276"/>
<text text-anchor="middle" x="304.5" y="-321" font-family="Helvetica,sans-Serif" font-size="10.00" fill="#000000">String</text>
<polyline fill="none" stroke="#bfbfbf" points="283.5,-314 325.5,-314 "/>
<text text-anchor="middle" x="304.5" y="-302" font-family="Helvetica,sans-Serif" font-size="10.00" fill="#000000"> </text>
<polyline fill="none" stroke="#bfbfbf" points="283.5,-295 325.5,-295 "/>
<text text-anchor="middle" x="304.5" y="-283" font-family="Helvetica,sans-Serif" font-size="10.00" fill="#000000"> </text>
</g>
<!-- Node11&#45;&gt;Node4 -->
<g id="edge7" class="edge">
<title>Node11&#45;&gt;Node4</title>
<path fill="none" stroke="#404040" d="M297.2417,-275.8092C292.2804,-256.198 285.3668,-228.8698 278.4152,-201.3911"/>
<polygon fill="none" stroke="#404040" points="278.3823,-201.2608 273.0329,-196.4251 275.4391,-189.6273 280.7885,-194.463 278.3823,-201.2608"/>
<text text-anchor="middle" x="311" y="-244" font-family="Helvetica,sans-Serif" font-size="10.00" fill="#000000"> #title</text>
<text text-anchor="middle" x="311" y="-233" font-family="Helvetica,sans-Serif" font-size="10.00" fill="#000000">#filename</text>
<text text-anchor="middle" x="311" y="-222" font-family="Helvetica,sans-Serif" font-size="10.00" fill="#000000">#artist</text>
<text text-anchor="middle" x="311" y="-211" font-family="Helvetica,sans-Serif" font-size="10.00" fill="#000000">#genre</text>
</g>
</g>
</svg>
