<?xml version="1.0" encoding="UTF-8" standalone="no"?>
<!DOCTYPE svg PUBLIC "-//W3C//DTD SVG 1.1//EN"
 "http://www.w3.org/Graphics/SVG/1.1/DTD/svg11.dtd">
<!-- Generated by graphviz version 2.40.1 (20161225.0304)
 -->
<!-- Title: ene.models.TrackModel.cutFilenameFromPath Pages: 1 -->
<svg width="1364pt" height="129pt"
 viewBox="0.00 0.00 1364.00 129.00" xmlns="http://www.w3.org/2000/svg" xmlns:xlink="http://www.w3.org/1999/xlink">
<g id="graph0" class="graph" transform="scale(1 1) rotate(0) translate(4 125)">
<title>ene.models.TrackModel.cutFilenameFromPath</title>
<!-- Node9 -->
<g id="node1" class="node">
<title>Node9</title>
<polygon fill="#bfbfbf" stroke="#000000" points="0,-24.5 0,-54.5 137,-54.5 137,-24.5 0,-24.5"/>
<text text-anchor="start" x="8" y="-42.5" font-family="Helvetica,sans-Serif" font-size="10.00" fill="#000000">ene.models.TrackModel.cut</text>
<text text-anchor="middle" x="68.5" y="-31.5" font-family="Helvetica,sans-Serif" font-size="10.00" fill="#000000">FilenameFromPath</text>
</g>
<!-- Node10 -->
<g id="node2" class="node">
<title>Node10</title>
<g id="a_node2"><a xlink:href="classene_1_1models_1_1TrackModel.html#ab0db9bf0054a77ed2879695a379e3bd9" target="_top" xlink:title="ene.models.TrackModel.detect\lArtist">
<polygon fill="none" stroke="#000000" points="173,-49.5 173,-79.5 324,-79.5 324,-49.5 173,-49.5"/>
<text text-anchor="start" x="181" y="-67.5" font-family="Helvetica,sans-Serif" font-size="10.00" fill="#000000">ene.models.TrackModel.detect</text>
<text text-anchor="middle" x="248.5" y="-56.5" font-family="Helvetica,sans-Serif" font-size="10.00" fill="#000000">Artist</text>
</a>
</g>
</g>
<!-- Node9&#45;&gt;Node10 -->
<g id="edge1" class="edge">
<title>Node9&#45;&gt;Node10</title>
<path fill="none" stroke="#191970" d="M147.0586,-50.4109C155.6442,-51.6034 164.3711,-52.8154 172.9197,-54.0027"/>
<polygon fill="#191970" stroke="#191970" points="147.4502,-46.9318 137.0638,-49.0227 146.4872,-53.8652 147.4502,-46.9318"/>
</g>
<!-- Node18 -->
<g id="node10" class="node">
<title>Node18</title>
<g id="a_node10"><a xlink:href="classene_1_1models_1_1TrackModel.html#a860b368d4cb6d81e7504cbf979c0cad7" target="_top" xlink:title="ene.models.TrackModel.detect\lTitle">
<polygon fill="none" stroke="#000000" points="173,-.5 173,-30.5 324,-30.5 324,-.5 173,-.5"/>
<text text-anchor="start" x="181" y="-18.5" font-family="Helvetica,sans-Serif" font-size="10.00" fill="#000000">ene.models.TrackModel.detect</text>
<text text-anchor="middle" x="248.5" y="-7.5" font-family="Helvetica,sans-Serif" font-size="10.00" fill="#000000">Title</text>
</a>
</g>
</g>
<!-- Node9&#45;&gt;Node18 -->
<g id="edge10" class="edge">
<title>Node9&#45;&gt;Node18</title>
<path fill="none" stroke="#191970" d="M147.0586,-29.0255C155.6442,-27.8808 164.3711,-26.7172 172.9197,-25.5774"/>
<polygon fill="#191970" stroke="#191970" points="146.5134,-25.5671 137.0638,-30.3582 147.4386,-32.5057 146.5134,-25.5671"/>
</g>
<!-- Node11 -->
<g id="node3" class="node">
<title>Node11</title>
<g id="a_node3"><a xlink:href="classene_1_1controllers_1_1LibraryController.html#a8ebea67eb61c84ee6a4825fa98fe870b" target="_top" xlink:title="ene.controllers.LibraryController.addFile">
<polygon fill="none" stroke="#000000" points="360,-53 360,-72 549,-72 549,-53 360,-53"/>
<text text-anchor="middle" x="454.5" y="-60" font-family="Helvetica,sans-Serif" font-size="10.00" fill="#000000">ene.controllers.LibraryController.addFile</text>
</a>
</g>
</g>
<!-- Node10&#45;&gt;Node11 -->
<g id="edge2" class="edge">
<title>Node10&#45;&gt;Node11</title>
<path fill="none" stroke="#191970" d="M334.2044,-63.6679C342.6171,-63.5862 351.1882,-63.503 359.6846,-63.4205"/>
<polygon fill="#191970" stroke="#191970" points="334.0026,-60.1696 324.0371,-63.7666 334.0706,-67.1693 334.0026,-60.1696"/>
</g>
<!-- Node16 -->
<g id="node8" class="node">
<title>Node16</title>
<g id="a_node8"><a xlink:href="classene_1_1controllers_1_1PlaylistController.html#a67b252ccabbac520eaafe9f90e8f0d43" target="_top" xlink:title="ene.controllers.Playlist\lController.loadFromFile">
<polygon fill="none" stroke="#000000" points="395.5,-2.5 395.5,-32.5 513.5,-32.5 513.5,-2.5 395.5,-2.5"/>
<text text-anchor="start" x="403.5" y="-20.5" font-family="Helvetica,sans-Serif" font-size="10.00" fill="#000000">ene.controllers.Playlist</text>
<text text-anchor="middle" x="454.5" y="-9.5" font-family="Helvetica,sans-Serif" font-size="10.00" fill="#000000">Controller.loadFromFile</text>
</a>
</g>
</g>
<!-- Node10&#45;&gt;Node16 -->
<g id="edge8" class="edge">
<title>Node10&#45;&gt;Node16</title>
<path fill="none" stroke="#191970" d="M324.1607,-47.2376C347.6228,-41.8846 373.1252,-36.0661 395.2994,-31.0069"/>
<polygon fill="#191970" stroke="#191970" points="323.217,-43.8629 314.2461,-49.4997 324.7741,-50.6875 323.217,-43.8629"/>
</g>
<!-- Node12 -->
<g id="node4" class="node">
<title>Node12</title>
<g id="a_node4"><a xlink:href="classene_1_1controllers_1_1LibraryController.html#aa0d66e53872a376fe6d456eb070de8d4" target="_top" xlink:title="ene.controllers.LibraryController.add">
<polygon fill="none" stroke="#000000" points="1009,-74 1009,-93 1182,-93 1182,-74 1009,-74"/>
<text text-anchor="middle" x="1095.5" y="-81" font-family="Helvetica,sans-Serif" font-size="10.00" fill="#000000">ene.controllers.LibraryController.add</text>
</a>
</g>
</g>
<!-- Node11&#45;&gt;Node12 -->
<g id="edge3" class="edge">
<title>Node11&#45;&gt;Node12</title>
<path fill="none" stroke="#191970" d="M559.0765,-65.9261C684.3698,-70.0308 891.9647,-76.8319 1008.7603,-80.6583"/>
<polygon fill="#191970" stroke="#191970" points="559.191,-62.428 549.0818,-65.5986 558.9618,-69.4243 559.191,-62.428"/>
</g>
<!-- Node14 -->
<g id="node6" class="node">
<title>Node14</title>
<g id="a_node6"><a xlink:href="classene_1_1controllers_1_1LibraryController.html#a3a8b922c846a9b770b67f478ea0e5352" target="_top" xlink:title="ene.controllers.LibraryController.scan">
<polygon fill="none" stroke="#000000" points="585,-93 585,-112 764,-112 764,-93 585,-93"/>
<text text-anchor="middle" x="674.5" y="-100" font-family="Helvetica,sans-Serif" font-size="10.00" fill="#000000">ene.controllers.LibraryController.scan</text>
</a>
</g>
</g>
<!-- Node11&#45;&gt;Node14 -->
<g id="edge5" class="edge">
<title>Node11&#45;&gt;Node14</title>
<path fill="none" stroke="#191970" d="M516.9751,-73.8591C550.185,-79.8973 590.5499,-87.2363 622.1048,-92.9736"/>
<polygon fill="#191970" stroke="#191970" points="517.3808,-70.3756 506.916,-72.0302 516.1285,-77.2627 517.3808,-70.3756"/>
</g>
<!-- Node13 -->
<g id="node5" class="node">
<title>Node13</title>
<g id="a_node5"><a xlink:href="classene_1_1views_1_1gui_1_1partial_1_1LibraryView.html#a0bd6885fe06ebde4d3dffbcd888c0b41" target="_top" xlink:title="ene.views.gui.partial.Library\lView.render">
<polygon fill="none" stroke="#000000" points="1218,-68.5 1218,-98.5 1356,-98.5 1356,-68.5 1218,-68.5"/>
<text text-anchor="start" x="1226" y="-86.5" font-family="Helvetica,sans-Serif" font-size="10.00" fill="#000000">ene.views.gui.partial.Library</text>
<text text-anchor="middle" x="1287" y="-75.5" font-family="Helvetica,sans-Serif" font-size="10.00" fill="#000000">View.render</text>
</a>
</g>
</g>
<!-- Node12&#45;&gt;Node13 -->
<g id="edge4" class="edge">
<title>Node12&#45;&gt;Node13</title>
<path fill="none" stroke="#191970" d="M1192.1546,-83.5C1200.8104,-83.5 1209.4565,-83.5 1217.8097,-83.5"/>
<polygon fill="#191970" stroke="#191970" points="1192.0058,-80.0001 1182.0057,-83.5 1192.0057,-87.0001 1192.0058,-80.0001"/>
</g>
<!-- Node15 -->
<g id="node7" class="node">
<title>Node15</title>
<g id="a_node7"><a xlink:href="classene_1_1controllers_1_1LibraryController.html#a6bc70daa48b96db79d5524113a49cd3e" target="_top" xlink:title="ene.controllers.LibraryController.add\lDirectoryContent">
<polygon fill="none" stroke="#000000" points="800,-90.5 800,-120.5 973,-120.5 973,-90.5 800,-90.5"/>
<text text-anchor="start" x="808" y="-108.5" font-family="Helvetica,sans-Serif" font-size="10.00" fill="#000000">ene.controllers.LibraryController.add</text>
<text text-anchor="middle" x="886.5" y="-97.5" font-family="Helvetica,sans-Serif" font-size="10.00" fill="#000000">DirectoryContent</text>
</a>
</g>
</g>
<!-- Node14&#45;&gt;Node15 -->
<g id="edge6" class="edge">
<title>Node14&#45;&gt;Node15</title>
<path fill="none" stroke="#191970" d="M774.1645,-103.9103C782.7717,-104.0321 791.4348,-104.1547 799.9257,-104.2749"/>
<polygon fill="#191970" stroke="#191970" points="774.1484,-100.4099 764.0998,-103.7679 774.0492,-107.4092 774.1484,-100.4099"/>
</g>
<!-- Node15&#45;&gt;Node12 -->
<g id="edge7" class="edge">
<title>Node15&#45;&gt;Node12</title>
<path fill="none" stroke="#191970" d="M983.0268,-95.3393C991.5937,-94.4375 1000.2324,-93.5282 1008.711,-92.6357"/>
<polygon fill="#191970" stroke="#191970" points="982.5956,-91.8652 973.017,-96.393 983.3284,-98.8268 982.5956,-91.8652"/>
</g>
<!-- Node17 -->
<g id="node9" class="node">
<title>Node17</title>
<g id="a_node9"><a xlink:href="classene_1_1controllers_1_1PlaylistController.html#a35b450f65c048707c1ad0ed44f1077f0" target="_top" xlink:title="ene.controllers.Playlist\lController.PlaylistController">
<polygon fill="none" stroke="#000000" points="606.5,-2.5 606.5,-32.5 742.5,-32.5 742.5,-2.5 606.5,-2.5"/>
<text text-anchor="start" x="614.5" y="-20.5" font-family="Helvetica,sans-Serif" font-size="10.00" fill="#000000">ene.controllers.Playlist</text>
<text text-anchor="middle" x="674.5" y="-9.5" font-family="Helvetica,sans-Serif" font-size="10.00" fill="#000000">Controller.PlaylistController</text>
</a>
</g>
</g>
<!-- Node16&#45;&gt;Node17 -->
<g id="edge9" class="edge">
<title>Node16&#45;&gt;Node17</title>
<path fill="none" stroke="#191970" d="M523.9906,-17.5C550.235,-17.5 580.0554,-17.5 606.1906,-17.5"/>
<polygon fill="#191970" stroke="#191970" points="523.7454,-14.0001 513.7454,-17.5 523.7453,-21.0001 523.7454,-14.0001"/>
</g>
<!-- Node18&#45;&gt;Node11 -->
<g id="edge11" class="edge">
<title>Node18&#45;&gt;Node11</title>
<path fill="none" stroke="#191970" d="M322.4077,-32.8481C334.9478,-35.759 347.8423,-38.7317 360,-41.5 376.7148,-45.3059 395.1121,-49.4128 411.1976,-52.9766"/>
<polygon fill="#191970" stroke="#191970" points="322.9804,-29.388 312.4475,-30.5321 321.3949,-36.2061 322.9804,-29.388"/>
</g>
<!-- Node18&#45;&gt;Node16 -->
<g id="edge12" class="edge">
<title>Node18&#45;&gt;Node16</title>
<path fill="none" stroke="#191970" d="M334.0753,-16.3308C354.7117,-16.5312 376.3092,-16.7409 395.4234,-16.9264"/>
<polygon fill="#191970" stroke="#191970" points="334.0706,-12.8307 324.0371,-16.2334 334.0026,-19.8304 334.0706,-12.8307"/>
</g>
</g>
</svg>
