<?xml version="1.0" encoding="UTF-8" standalone="no"?>
<!DOCTYPE svg PUBLIC "-//W3C//DTD SVG 1.1//EN"
 "http://www.w3.org/Graphics/SVG/1.1/DTD/svg11.dtd">
<!-- Generated by graphviz version 2.40.1 (20161225.0304)
 -->
<!-- Title: ene.controllers.PlayerController Pages: 1 -->
<svg width="365pt" height="641pt"
 viewBox="0.00 0.00 365.00 641.00" xmlns="http://www.w3.org/2000/svg" xmlns:xlink="http://www.w3.org/1999/xlink">
<g id="graph0" class="graph" transform="scale(1 1) rotate(0) translate(4 637)">
<title>ene.controllers.PlayerController</title>
<!-- Node5 -->
<g id="node1" class="node">
<title>Node5</title>
<polygon fill="#bfbfbf" stroke="#000000" points="133,-.5 133,-123.5 286,-123.5 286,-.5 133,-.5"/>
<text text-anchor="middle" x="209.5" y="-111.5" font-family="Helvetica,sans-Serif" font-size="10.00" fill="#000000">ene.controllers.PlayerController</text>
<polyline fill="none" stroke="#000000" points="133,-104.5 286,-104.5 "/>
<text text-anchor="middle" x="209.5" y="-92.5" font-family="Helvetica,sans-Serif" font-size="10.00" fill="#000000"> </text>
<polyline fill="none" stroke="#000000" points="133,-85.5 286,-85.5 "/>
<text text-anchor="start" x="141" y="-73.5" font-family="Helvetica,sans-Serif" font-size="10.00" fill="#000000">+ PlayerController()</text>
<text text-anchor="start" x="141" y="-62.5" font-family="Helvetica,sans-Serif" font-size="10.00" fill="#000000">+ changeTrackPosition()</text>
<text text-anchor="start" x="141" y="-51.5" font-family="Helvetica,sans-Serif" font-size="10.00" fill="#000000">+ loadPlaylist()</text>
<text text-anchor="start" x="141" y="-40.5" font-family="Helvetica,sans-Serif" font-size="10.00" fill="#000000">+ load()</text>
<text text-anchor="start" x="141" y="-29.5" font-family="Helvetica,sans-Serif" font-size="10.00" fill="#000000">+ previous()</text>
<text text-anchor="start" x="141" y="-18.5" font-family="Helvetica,sans-Serif" font-size="10.00" fill="#000000">+ next()</text>
<text text-anchor="start" x="141" y="-7.5" font-family="Helvetica,sans-Serif" font-size="10.00" fill="#000000">+ togglePlayback()</text>
</g>
<!-- Node6 -->
<g id="node2" class="node">
<title>Node6</title>
<g id="a_node2"><a xlink:href="classene_1_1controllers_1_1AbstractController.html" target="_top" xlink:title="{ene.controllers.Abstract\lController\&lt; PlayerModel \&gt;\n|# model\l|+ setModel()\l+ getModel()\l}">
<polygon fill="none" stroke="#000000" points="144,-161.5 144,-240.5 275,-240.5 275,-161.5 144,-161.5"/>
<text text-anchor="start" x="152" y="-228.5" font-family="Helvetica,sans-Serif" font-size="10.00" fill="#000000">ene.controllers.Abstract</text>
<text text-anchor="middle" x="209.5" y="-217.5" font-family="Helvetica,sans-Serif" font-size="10.00" fill="#000000">Controller&lt; PlayerModel &gt;</text>
<polyline fill="none" stroke="#000000" points="144,-210.5 275,-210.5 "/>
<text text-anchor="start" x="152" y="-198.5" font-family="Helvetica,sans-Serif" font-size="10.00" fill="#000000"># model</text>
<polyline fill="none" stroke="#000000" points="144,-191.5 275,-191.5 "/>
<text text-anchor="start" x="152" y="-179.5" font-family="Helvetica,sans-Serif" font-size="10.00" fill="#000000">+ setModel()</text>
<text text-anchor="start" x="152" y="-168.5" font-family="Helvetica,sans-Serif" font-size="10.00" fill="#000000">+ getModel()</text>
</a>
</g>
</g>
<!-- Node6&#45;&gt;Node5 -->
<g id="edge1" class="edge">
<title>Node6&#45;&gt;Node5</title>
<path fill="none" stroke="#191970" d="M209.5,-150.996C209.5,-142.1171 209.5,-132.7763 209.5,-123.6203"/>
<polygon fill="none" stroke="#191970" points="206.0001,-151.1681 209.5,-161.1682 213.0001,-151.1682 206.0001,-151.1681"/>
</g>
<!-- Node7 -->
<g id="node3" class="node">
<title>Node7</title>
<g id="a_node3"><a xlink:href="classene_1_1controllers_1_1AbstractController.html" target="_top" xlink:title="{ene.controllers.Abstract\lController\&lt; ModelType \&gt;\n||+ setModel()\l+ getModel()\l}">
<polygon fill="none" stroke="#000000" points="147,-288.5 147,-367.5 272,-367.5 272,-288.5 147,-288.5"/>
<text text-anchor="start" x="155" y="-355.5" font-family="Helvetica,sans-Serif" font-size="10.00" fill="#000000">ene.controllers.Abstract</text>
<text text-anchor="middle" x="209.5" y="-344.5" font-family="Helvetica,sans-Serif" font-size="10.00" fill="#000000">Controller&lt; ModelType &gt;</text>
<polyline fill="none" stroke="#000000" points="147,-337.5 272,-337.5 "/>
<text text-anchor="middle" x="209.5" y="-325.5" font-family="Helvetica,sans-Serif" font-size="10.00" fill="#000000"> </text>
<polyline fill="none" stroke="#000000" points="147,-318.5 272,-318.5 "/>
<text text-anchor="start" x="155" y="-306.5" font-family="Helvetica,sans-Serif" font-size="10.00" fill="#000000">+ setModel()</text>
<text text-anchor="start" x="155" y="-295.5" font-family="Helvetica,sans-Serif" font-size="10.00" fill="#000000">+ getModel()</text>
</a>
</g>
</g>
<!-- Node7&#45;&gt;Node6 -->
<g id="edge2" class="edge">
<title>Node7&#45;&gt;Node6</title>
<path fill="none" stroke="#ffa500" d="M209.5,-277.9789C209.5,-265.5999 209.5,-252.5045 209.5,-240.6938"/>
<polygon fill="#ffa500" stroke="#ffa500" points="206.0001,-278.1648 209.5,-288.1649 213.0001,-278.1649 206.0001,-278.1648"/>
<text text-anchor="middle" x="247.5" y="-262" font-family="Helvetica,sans-Serif" font-size="10.00" fill="#000000"> &lt; PlayerModel &gt;</text>
</g>
<!-- Node8 -->
<g id="node4" class="node">
<title>Node8</title>
<g id="a_node4"><a xlink:href="classene_1_1AbstractObject.html" target="_top" xlink:title="{ene.AbstractObject\n||+ enableDebugMode()\l+ disableDebugMode()\l+ isDebugModeEnabled()\l+ debugInfoAbout()\l+ consoleOutput()\l# delay()\l}">
<polygon fill="none" stroke="#000000" points="0,-415.5 0,-527.5 127,-527.5 127,-415.5 0,-415.5"/>
<text text-anchor="middle" x="63.5" y="-515.5" font-family="Helvetica,sans-Serif" font-size="10.00" fill="#000000">ene.AbstractObject</text>
<polyline fill="none" stroke="#000000" points="0,-508.5 127,-508.5 "/>
<text text-anchor="middle" x="63.5" y="-496.5" font-family="Helvetica,sans-Serif" font-size="10.00" fill="#000000"> </text>
<polyline fill="none" stroke="#000000" points="0,-489.5 127,-489.5 "/>
<text text-anchor="start" x="8" y="-477.5" font-family="Helvetica,sans-Serif" font-size="10.00" fill="#000000">+ enableDebugMode()</text>
<text text-anchor="start" x="8" y="-466.5" font-family="Helvetica,sans-Serif" font-size="10.00" fill="#000000">+ disableDebugMode()</text>
<text text-anchor="start" x="8" y="-455.5" font-family="Helvetica,sans-Serif" font-size="10.00" fill="#000000">+ isDebugModeEnabled()</text>
<text text-anchor="start" x="8" y="-444.5" font-family="Helvetica,sans-Serif" font-size="10.00" fill="#000000">+ debugInfoAbout()</text>
<text text-anchor="start" x="8" y="-433.5" font-family="Helvetica,sans-Serif" font-size="10.00" fill="#000000">+ consoleOutput()</text>
<text text-anchor="start" x="8" y="-422.5" font-family="Helvetica,sans-Serif" font-size="10.00" fill="#000000"># delay()</text>
</a>
</g>
</g>
<!-- Node8&#45;&gt;Node7 -->
<g id="edge3" class="edge">
<title>Node8&#45;&gt;Node7</title>
<path fill="none" stroke="#191970" d="M128.0303,-408.0746C141.9812,-394.3626 156.3504,-380.2395 169.0626,-367.745"/>
<polygon fill="none" stroke="#191970" points="125.4625,-405.6909 120.784,-415.1969 130.3693,-410.6833 125.4625,-405.6909"/>
</g>
<!-- Node9 -->
<g id="node5" class="node">
<title>Node9</title>
<polygon fill="none" stroke="#bfbfbf" points="25,-575.5 25,-632.5 102,-632.5 102,-575.5 25,-575.5"/>
<text text-anchor="middle" x="63.5" y="-620.5" font-family="Helvetica,sans-Serif" font-size="10.00" fill="#000000">static boolean</text>
<polyline fill="none" stroke="#bfbfbf" points="25,-613.5 102,-613.5 "/>
<text text-anchor="middle" x="63.5" y="-601.5" font-family="Helvetica,sans-Serif" font-size="10.00" fill="#000000"> </text>
<polyline fill="none" stroke="#bfbfbf" points="25,-594.5 102,-594.5 "/>
<text text-anchor="middle" x="63.5" y="-582.5" font-family="Helvetica,sans-Serif" font-size="10.00" fill="#000000"> </text>
</g>
<!-- Node9&#45;&gt;Node8 -->
<g id="edge4" class="edge">
<title>Node9&#45;&gt;Node8</title>
<path fill="none" stroke="#404040" d="M63.5,-575.2495C63.5,-564.8031 63.5,-552.502 63.5,-540.0912"/>
<polygon fill="none" stroke="#404040" points="63.5001,-539.7084 59.5,-533.7085 63.5,-527.7084 67.5,-533.7084 63.5001,-539.7084"/>
<text text-anchor="middle" x="110.5" y="-549" font-family="Helvetica,sans-Serif" font-size="10.00" fill="#000000"> #debugModeEnabled</text>
</g>
<!-- Node10 -->
<g id="node6" class="node">
<title>Node10</title>
<g id="a_node6"><a xlink:href="interfaceene_1_1interfaces_1_1Controller.html" target="_top" xlink:title="{ene::interfaces::Controller\l\&lt; ModelType \&gt;\n||+ setModel()\l+ getModel()\l}">
<polygon fill="none" stroke="#000000" points="145,-432 145,-511 274,-511 274,-432 145,-432"/>
<text text-anchor="start" x="153" y="-499" font-family="Helvetica,sans-Serif" font-size="10.00" fill="#000000">ene::interfaces::Controller</text>
<text text-anchor="middle" x="209.5" y="-488" font-family="Helvetica,sans-Serif" font-size="10.00" fill="#000000">&lt; ModelType &gt;</text>
<polyline fill="none" stroke="#000000" points="145,-481 274,-481 "/>
<text text-anchor="middle" x="209.5" y="-469" font-family="Helvetica,sans-Serif" font-size="10.00" fill="#000000"> </text>
<polyline fill="none" stroke="#000000" points="145,-462 274,-462 "/>
<text text-anchor="start" x="153" y="-450" font-family="Helvetica,sans-Serif" font-size="10.00" fill="#000000">+ setModel()</text>
<text text-anchor="start" x="153" y="-439" font-family="Helvetica,sans-Serif" font-size="10.00" fill="#000000">+ getModel()</text>
</a>
</g>
</g>
<!-- Node10&#45;&gt;Node7 -->
<g id="edge5" class="edge">
<title>Node10&#45;&gt;Node7</title>
<path fill="none" stroke="#191970" d="M209.5,-421.8088C209.5,-404.2088 209.5,-384.6472 209.5,-367.9608"/>
<polygon fill="none" stroke="#191970" points="206.0001,-421.9081 209.5,-431.9081 213.0001,-421.9082 206.0001,-421.9081"/>
</g>
<!-- Node11 -->
<g id="node7" class="node">
<title>Node11</title>
<polygon fill="none" stroke="#bfbfbf" points="292,-443 292,-500 357,-500 357,-443 292,-443"/>
<text text-anchor="middle" x="324.5" y="-488" font-family="Helvetica,sans-Serif" font-size="10.00" fill="#000000">ModelType</text>
<polyline fill="none" stroke="#bfbfbf" points="292,-481 357,-481 "/>
<text text-anchor="middle" x="324.5" y="-469" font-family="Helvetica,sans-Serif" font-size="10.00" fill="#000000"> </text>
<polyline fill="none" stroke="#bfbfbf" points="292,-462 357,-462 "/>
<text text-anchor="middle" x="324.5" y="-450" font-family="Helvetica,sans-Serif" font-size="10.00" fill="#000000"> </text>
</g>
<!-- Node11&#45;&gt;Node7 -->
<g id="edge6" class="edge">
<title>Node11&#45;&gt;Node7</title>
<path fill="none" stroke="#404040" d="M304.2741,-442.7283C297.7822,-433.7398 290.4664,-423.8605 283.5,-415 273.6361,-402.4541 262.6601,-389.1976 252.2463,-376.9173"/>
<polygon fill="none" stroke="#404040" points="252.209,-376.8736 245.2716,-374.9055 244.4201,-367.7448 251.3575,-369.7129 252.209,-376.8736"/>
<text text-anchor="middle" x="285" y="-389" font-family="Helvetica,sans-Serif" font-size="10.00" fill="#000000"> #model</text>
</g>
</g>
</svg>
