<?xml version="1.0" encoding="UTF-8" standalone="no"?>
<!DOCTYPE svg PUBLIC "-//W3C//DTD SVG 1.1//EN"
 "http://www.w3.org/Graphics/SVG/1.1/DTD/svg11.dtd">
<!-- Generated by graphviz version 2.40.1 (20161225.0304)
 -->
<!-- Title: ene.AbstractObject.debugInfoAbout Pages: 1 -->
<svg width="503pt" height="241pt"
 viewBox="0.00 0.00 503.00 241.00" xmlns="http://www.w3.org/2000/svg" xmlns:xlink="http://www.w3.org/1999/xlink">
<g id="graph0" class="graph" transform="scale(1 1) rotate(0) translate(4 237)">
<title>ene.AbstractObject.debugInfoAbout</title>
<!-- Node15 -->
<g id="node1" class="node">
<title>Node15</title>
<polygon fill="#bfbfbf" stroke="#000000" points="0,-101.5 0,-131.5 130,-131.5 130,-101.5 0,-101.5"/>
<text text-anchor="start" x="8" y="-119.5" font-family="Helvetica,sans-Serif" font-size="10.00" fill="#000000">ene.AbstractObject.debug</text>
<text text-anchor="middle" x="65" y="-108.5" font-family="Helvetica,sans-Serif" font-size="10.00" fill="#000000">InfoAbout</text>
</g>
<!-- Node16 -->
<g id="node2" class="node">
<title>Node16</title>
<g id="a_node2"><a xlink:href="classene_1_1views_1_1gui_1_1partial_1_1PlayerView.html#a6a20ce866e62ced7476b666fe891b10a" target="_top" xlink:title="ene.views.gui.partial.Player\lView.initialize">
<polygon fill="none" stroke="#000000" points="175.5,-202.5 175.5,-232.5 312.5,-232.5 312.5,-202.5 175.5,-202.5"/>
<text text-anchor="start" x="183.5" y="-220.5" font-family="Helvetica,sans-Serif" font-size="10.00" fill="#000000">ene.views.gui.partial.Player</text>
<text text-anchor="middle" x="244" y="-209.5" font-family="Helvetica,sans-Serif" font-size="10.00" fill="#000000">View.initialize</text>
</a>
</g>
</g>
<!-- Node15&#45;&gt;Node16 -->
<g id="edge1" class="edge">
<title>Node15&#45;&gt;Node16</title>
<path fill="none" stroke="#191970" d="M89.1075,-138.3368C108.6476,-155.0854 137.5222,-177.76 166,-192.5 173.1984,-196.2259 181.0582,-199.532 188.928,-202.4205"/>
<polygon fill="#191970" stroke="#191970" points="91.1717,-135.4931 81.3331,-131.5621 86.5729,-140.7705 91.1717,-135.4931"/>
</g>
<!-- Node18 -->
<g id="node4" class="node">
<title>Node18</title>
<g id="a_node4"><a xlink:href="classene_1_1models_1_1PlayerModel.html#a2c4655428b658dee3203787415a516a5" target="_top" xlink:title="ene.models.PlayerModel.load">
<polygon fill="none" stroke="#000000" points="171.5,-164 171.5,-183 316.5,-183 316.5,-164 171.5,-164"/>
<text text-anchor="middle" x="244" y="-171" font-family="Helvetica,sans-Serif" font-size="10.00" fill="#000000">ene.models.PlayerModel.load</text>
</a>
</g>
</g>
<!-- Node15&#45;&gt;Node18 -->
<g id="edge3" class="edge">
<title>Node15&#45;&gt;Node18</title>
<path fill="none" stroke="#191970" d="M111.7053,-135.4184C128.6506,-141.9234 148.0428,-148.9571 166,-154.5 177.1868,-157.9531 189.4302,-161.1857 200.8324,-163.9708"/>
<polygon fill="#191970" stroke="#191970" points="112.629,-132.0226 102.0402,-131.6648 110.0947,-138.5477 112.629,-132.0226"/>
</g>
<!-- Node19 -->
<g id="node5" class="node">
<title>Node19</title>
<g id="a_node5"><a xlink:href="classene_1_1models_1_1PlayerModel.html#afdcaa5e17ecdfbccad3ac8e702914e00" target="_top" xlink:title="ene.models.PlayerModel.pause">
<polygon fill="none" stroke="#000000" points="167.5,-126 167.5,-145 320.5,-145 320.5,-126 167.5,-126"/>
<text text-anchor="middle" x="244" y="-133" font-family="Helvetica,sans-Serif" font-size="10.00" fill="#000000">ene.models.PlayerModel.pause</text>
</a>
</g>
</g>
<!-- Node15&#45;&gt;Node19 -->
<g id="edge4" class="edge">
<title>Node15&#45;&gt;Node19</title>
<path fill="none" stroke="#191970" d="M140.1756,-124.4795C149.1659,-125.4338 158.3542,-126.4091 167.3647,-127.3655"/>
<polygon fill="#191970" stroke="#191970" points="140.4431,-120.9883 130.1295,-123.4132 139.7041,-127.9492 140.4431,-120.9883"/>
</g>
<!-- Node20 -->
<g id="node6" class="node">
<title>Node20</title>
<g id="a_node6"><a xlink:href="classene_1_1models_1_1PlayerModel.html#a7d0471082171de01773a1da88cb3652d" target="_top" xlink:title="ene.models.PlayerModel.start">
<polygon fill="none" stroke="#000000" points="171,-88 171,-107 317,-107 317,-88 171,-88"/>
<text text-anchor="middle" x="244" y="-95" font-family="Helvetica,sans-Serif" font-size="10.00" fill="#000000">ene.models.PlayerModel.start</text>
</a>
</g>
</g>
<!-- Node15&#45;&gt;Node20 -->
<g id="edge5" class="edge">
<title>Node15&#45;&gt;Node20</title>
<path fill="none" stroke="#191970" d="M140.1493,-108.5233C150.2728,-107.4487 160.6478,-106.3474 170.7379,-105.2764"/>
<polygon fill="#191970" stroke="#191970" points="139.7041,-105.0508 130.1295,-109.5868 140.4431,-112.0117 139.7041,-105.0508"/>
</g>
<!-- Node21 -->
<g id="node7" class="node">
<title>Node21</title>
<g id="a_node7"><a xlink:href="classene_1_1models_1_1PlayerModel.html#a108968d6fd2beb7e322bba50028d32b1" target="_top" xlink:title="ene.models.PlayerModel.update">
<polygon fill="none" stroke="#000000" points="166,-50 166,-69 322,-69 322,-50 166,-50"/>
<text text-anchor="middle" x="244" y="-57" font-family="Helvetica,sans-Serif" font-size="10.00" fill="#000000">ene.models.PlayerModel.update</text>
</a>
</g>
</g>
<!-- Node15&#45;&gt;Node21 -->
<g id="edge6" class="edge">
<title>Node15&#45;&gt;Node21</title>
<path fill="none" stroke="#191970" d="M111.7053,-97.5816C128.6506,-91.0766 148.0428,-84.0429 166,-78.5 177.1868,-75.0469 189.4302,-71.8143 200.8324,-69.0292"/>
<polygon fill="#191970" stroke="#191970" points="110.0947,-94.4523 102.0402,-101.3352 112.629,-100.9774 110.0947,-94.4523"/>
</g>
<!-- Node22 -->
<g id="node8" class="node">
<title>Node22</title>
<g id="a_node8"><a xlink:href="classene_1_1views_1_1gui_1_1partial_1_1AbstractTrackListView.html#aebe5720136b8b2215b6ad365c723843e" target="_top" xlink:title="ene.views.gui.partial.Abstract\lTrackListView.valueChanged">
<polygon fill="none" stroke="#000000" points="171,-.5 171,-30.5 317,-30.5 317,-.5 171,-.5"/>
<text text-anchor="start" x="179" y="-18.5" font-family="Helvetica,sans-Serif" font-size="10.00" fill="#000000">ene.views.gui.partial.Abstract</text>
<text text-anchor="middle" x="244" y="-7.5" font-family="Helvetica,sans-Serif" font-size="10.00" fill="#000000">TrackListView.valueChanged</text>
</a>
</g>
</g>
<!-- Node15&#45;&gt;Node22 -->
<g id="edge7" class="edge">
<title>Node15&#45;&gt;Node22</title>
<path fill="none" stroke="#191970" d="M89.1075,-94.6632C108.6476,-77.9146 137.5222,-55.24 166,-40.5 173.1984,-36.7741 181.0582,-33.468 188.928,-30.5795"/>
<polygon fill="#191970" stroke="#191970" points="86.5729,-92.2295 81.3331,-101.4379 91.1717,-97.5069 86.5729,-92.2295"/>
</g>
<!-- Node17 -->
<g id="node3" class="node">
<title>Node17</title>
<g id="a_node3"><a xlink:href="classene_1_1views_1_1gui_1_1partial_1_1PlayerView.html#a87a7a4837fc2b68df6bf06984881a7ea" target="_top" xlink:title="ene.views.gui.partial.Player\lView.PlayerView">
<polygon fill="none" stroke="#000000" points="358,-202.5 358,-232.5 495,-232.5 495,-202.5 358,-202.5"/>
<text text-anchor="start" x="366" y="-220.5" font-family="Helvetica,sans-Serif" font-size="10.00" fill="#000000">ene.views.gui.partial.Player</text>
<text text-anchor="middle" x="426.5" y="-209.5" font-family="Helvetica,sans-Serif" font-size="10.00" fill="#000000">View.PlayerView</text>
</a>
</g>
</g>
<!-- Node16&#45;&gt;Node17 -->
<g id="edge2" class="edge">
<title>Node16&#45;&gt;Node17</title>
<path fill="none" stroke="#191970" d="M322.8716,-217.5C334.5083,-217.5 346.4186,-217.5 357.8266,-217.5"/>
<polygon fill="#191970" stroke="#191970" points="322.7354,-214.0001 312.7354,-217.5 322.7353,-221.0001 322.7354,-214.0001"/>
</g>
</g>
</svg>
