<?xml version="1.0" encoding="UTF-8" standalone="no"?>
<!DOCTYPE svg PUBLIC "-//W3C//DTD SVG 1.1//EN"
 "http://www.w3.org/Graphics/SVG/1.1/DTD/svg11.dtd">
<!-- Generated by graphviz version 2.40.1 (20161225.0304)
 -->
<!-- Title: ene.views.gui.partial.PlayerView.enablePlayerControls Pages: 1 -->
<svg width="739pt" height="176pt"
 viewBox="0.00 0.00 739.00 176.00" xmlns="http://www.w3.org/2000/svg" xmlns:xlink="http://www.w3.org/1999/xlink">
<g id="graph0" class="graph" transform="scale(1 1) rotate(0) translate(4 172)">
<title>ene.views.gui.partial.PlayerView.enablePlayerControls</title>
<!-- Node10 -->
<g id="node1" class="node">
<title>Node10</title>
<polygon fill="#bfbfbf" stroke="#000000" points="0,-98.5 0,-128.5 137,-128.5 137,-98.5 0,-98.5"/>
<text text-anchor="start" x="8" y="-116.5" font-family="Helvetica,sans-Serif" font-size="10.00" fill="#000000">ene.views.gui.partial.Player</text>
<text text-anchor="middle" x="68.5" y="-105.5" font-family="Helvetica,sans-Serif" font-size="10.00" fill="#000000">View.enablePlayerControls</text>
</g>
<!-- Node11 -->
<g id="node2" class="node">
<title>Node11</title>
<g id="a_node2"><a xlink:href="classene_1_1views_1_1AbstractPartialView.html#afb90f9e02eea94a2fb276d711a67ee36" target="_top" xlink:title="ene.views.AbstractPartial\lView.getModel">
<polygon fill="none" stroke="#000000" points="192.5,-126.5 192.5,-156.5 320.5,-156.5 320.5,-126.5 192.5,-126.5"/>
<text text-anchor="start" x="200.5" y="-144.5" font-family="Helvetica,sans-Serif" font-size="10.00" fill="#000000">ene.views.AbstractPartial</text>
<text text-anchor="middle" x="256.5" y="-133.5" font-family="Helvetica,sans-Serif" font-size="10.00" fill="#000000">View.getModel</text>
</a>
</g>
</g>
<!-- Node10&#45;&gt;Node11 -->
<g id="edge1" class="edge">
<title>Node10&#45;&gt;Node11</title>
<path fill="none" stroke="#191970" d="M137.1703,-123.7275C151.829,-125.9107 167.3757,-128.2262 182.2337,-130.4391"/>
<polygon fill="#191970" stroke="#191970" points="181.984,-133.9404 192.3905,-131.9518 183.0152,-127.0168 181.984,-133.9404"/>
</g>
<!-- Node12 -->
<g id="node3" class="node">
<title>Node12</title>
<g id="a_node3"><a xlink:href="classene_1_1views_1_1gui_1_1partial_1_1PlayerView.html#a46b869b84db253abe071d06cb4629925" target="_top" xlink:title="ene.views.gui.partial.Player\lView.isCurrentTrackPartOfCurrent\lPlaylist">
<polygon fill="none" stroke="#000000" points="173,-66 173,-107 340,-107 340,-66 173,-66"/>
<text text-anchor="start" x="181" y="-95" font-family="Helvetica,sans-Serif" font-size="10.00" fill="#000000">ene.views.gui.partial.Player</text>
<text text-anchor="start" x="181" y="-84" font-family="Helvetica,sans-Serif" font-size="10.00" fill="#000000">View.isCurrentTrackPartOfCurrent</text>
<text text-anchor="middle" x="256.5" y="-73" font-family="Helvetica,sans-Serif" font-size="10.00" fill="#000000">Playlist</text>
</a>
</g>
</g>
<!-- Node10&#45;&gt;Node12 -->
<g id="edge2" class="edge">
<title>Node10&#45;&gt;Node12</title>
<path fill="none" stroke="#191970" d="M137.1703,-103.6378C145.5388,-102.4359 154.1966,-101.1925 162.8505,-99.9497"/>
<polygon fill="#191970" stroke="#191970" points="163.5892,-103.3796 172.99,-98.4935 162.594,-96.4507 163.5892,-103.3796"/>
</g>
<!-- Node13 -->
<g id="node4" class="node">
<title>Node13</title>
<g id="a_node4"><a xlink:href="classene_1_1models_1_1PlayerModel.html#a85b0de48a8e962642825c254f9c47fb0" target="_top" xlink:title="ene.models.PlayerModel.get\lPlaylist">
<polygon fill="none" stroke="#000000" points="383.5,-137.5 383.5,-167.5 523.5,-167.5 523.5,-137.5 383.5,-137.5"/>
<text text-anchor="start" x="391.5" y="-155.5" font-family="Helvetica,sans-Serif" font-size="10.00" fill="#000000">ene.models.PlayerModel.get</text>
<text text-anchor="middle" x="453.5" y="-144.5" font-family="Helvetica,sans-Serif" font-size="10.00" fill="#000000">Playlist</text>
</a>
</g>
</g>
<!-- Node12&#45;&gt;Node13 -->
<g id="edge3" class="edge">
<title>Node12&#45;&gt;Node13</title>
<path fill="none" stroke="#191970" d="M315.6898,-107.0494C334.9025,-113.6549 356.3333,-120.9548 376,-127.5 382.5792,-129.6896 389.4822,-131.9579 396.3434,-134.1943"/>
<polygon fill="#191970" stroke="#191970" points="395.7311,-137.6753 406.3233,-137.4352 397.8933,-131.0176 395.7311,-137.6753"/>
</g>
<!-- Node14 -->
<g id="node5" class="node">
<title>Node14</title>
<g id="a_node5"><a xlink:href="classene_1_1models_1_1TrackListModel.html#a8e4e0fa1a0a69e1479b62660084fc93c" target="_top" xlink:title="ene.models.TrackListModel.has">
<polygon fill="none" stroke="#000000" points="376,-99 376,-118 531,-118 531,-99 376,-99"/>
<text text-anchor="middle" x="453.5" y="-106" font-family="Helvetica,sans-Serif" font-size="10.00" fill="#000000">ene.models.TrackListModel.has</text>
</a>
</g>
</g>
<!-- Node12&#45;&gt;Node14 -->
<g id="edge4" class="edge">
<title>Node12&#45;&gt;Node14</title>
<path fill="none" stroke="#191970" d="M340.0457,-95.83C348.563,-96.7811 357.2329,-97.7494 365.7929,-98.7053"/>
<polygon fill="#191970" stroke="#191970" points="365.4485,-102.1885 375.7752,-99.8201 366.2254,-95.2318 365.4485,-102.1885"/>
</g>
<!-- Node16 -->
<g id="node7" class="node">
<title>Node16</title>
<g id="a_node7"><a xlink:href="classene_1_1models_1_1PlayerModel.html#af4959d7f4ae27ecf932452aa3ebddae5" target="_top" xlink:title="ene.models.PlayerModel.get\lCurrentTrack">
<polygon fill="none" stroke="#000000" points="383.5,-49.5 383.5,-79.5 523.5,-79.5 523.5,-49.5 383.5,-49.5"/>
<text text-anchor="start" x="391.5" y="-67.5" font-family="Helvetica,sans-Serif" font-size="10.00" fill="#000000">ene.models.PlayerModel.get</text>
<text text-anchor="middle" x="453.5" y="-56.5" font-family="Helvetica,sans-Serif" font-size="10.00" fill="#000000">CurrentTrack</text>
</a>
</g>
</g>
<!-- Node12&#45;&gt;Node16 -->
<g id="edge6" class="edge">
<title>Node12&#45;&gt;Node16</title>
<path fill="none" stroke="#191970" d="M340.0457,-77.17C351.1257,-75.9327 362.4641,-74.6664 373.4825,-73.436"/>
<polygon fill="#191970" stroke="#191970" points="373.9451,-76.9062 383.4948,-72.3178 373.1681,-69.9494 373.9451,-76.9062"/>
</g>
<!-- Node17 -->
<g id="node8" class="node">
<title>Node17</title>
<g id="a_node8"><a xlink:href="classene_1_1models_1_1TrackModel.html#aab88fe151b093dba71ad9f9ab5c6959d" target="_top" xlink:title="ene.models.TrackModel.get\lFilename">
<polygon fill="none" stroke="#000000" points="385,-.5 385,-30.5 522,-30.5 522,-.5 385,-.5"/>
<text text-anchor="start" x="393" y="-18.5" font-family="Helvetica,sans-Serif" font-size="10.00" fill="#000000">ene.models.TrackModel.get</text>
<text text-anchor="middle" x="453.5" y="-7.5" font-family="Helvetica,sans-Serif" font-size="10.00" fill="#000000">Filename</text>
</a>
</g>
</g>
<!-- Node12&#45;&gt;Node17 -->
<g id="edge7" class="edge">
<title>Node12&#45;&gt;Node17</title>
<path fill="none" stroke="#191970" d="M308.0301,-65.9466C329.0172,-57.7635 353.573,-48.4269 376,-40.5 382.3586,-38.2525 389.0384,-35.9746 395.6991,-33.7556"/>
<polygon fill="#191970" stroke="#191970" points="397.0023,-37.0113 405.4042,-30.557 394.8112,-30.3631 397.0023,-37.0113"/>
</g>
<!-- Node15 -->
<g id="node6" class="node">
<title>Node15</title>
<g id="a_node6"><a xlink:href="classene_1_1models_1_1TrackListModel.html#a77a78d6a93e67e544d83bf5f4856d121" target="_top" xlink:title="ene.models.TrackListModel.getAll">
<polygon fill="none" stroke="#000000" points="567,-99 567,-118 731,-118 731,-99 567,-99"/>
<text text-anchor="middle" x="649" y="-106" font-family="Helvetica,sans-Serif" font-size="10.00" fill="#000000">ene.models.TrackListModel.getAll</text>
</a>
</g>
</g>
<!-- Node14&#45;&gt;Node15 -->
<g id="edge5" class="edge">
<title>Node14&#45;&gt;Node15</title>
<path fill="none" stroke="#191970" d="M531.0476,-108.5C539.4761,-108.5 548.1142,-108.5 556.6962,-108.5"/>
<polygon fill="#191970" stroke="#191970" points="556.729,-112.0001 566.7289,-108.5 556.7289,-105.0001 556.729,-112.0001"/>
</g>
</g>
</svg>
