<?xml version="1.0" encoding="UTF-8" standalone="no"?>
<!DOCTYPE svg PUBLIC "-//W3C//DTD SVG 1.1//EN"
 "http://www.w3.org/Graphics/SVG/1.1/DTD/svg11.dtd">
<!-- Generated by graphviz version 2.40.1 (20161225.0304)
 -->
<!-- Title: ene.views.gui.partial.AbstractTrackListView Pages: 1 -->
<svg width="866pt" height="889pt"
 viewBox="0.00 0.00 866.00 889.00" xmlns="http://www.w3.org/2000/svg" xmlns:xlink="http://www.w3.org/1999/xlink">
<g id="graph0" class="graph" transform="scale(1 1) rotate(0) translate(4 885)">
<title>ene.views.gui.partial.AbstractTrackListView</title>
<!-- Node9 -->
<g id="node1" class="node">
<title>Node9</title>
<polygon fill="#bfbfbf" stroke="#000000" points="528,-.5 528,-156.5 674,-156.5 674,-.5 528,-.5"/>
<text text-anchor="start" x="536" y="-144.5" font-family="Helvetica,sans-Serif" font-size="10.00" fill="#000000">ene.views.gui.partial.Abstract</text>
<text text-anchor="middle" x="601" y="-133.5" font-family="Helvetica,sans-Serif" font-size="10.00" fill="#000000">TrackListView</text>
<polyline fill="none" stroke="#000000" points="528,-126.5 674,-126.5 "/>
<text text-anchor="middle" x="601" y="-114.5" font-family="Helvetica,sans-Serif" font-size="10.00" fill="#000000"> </text>
<polyline fill="none" stroke="#000000" points="528,-107.5 674,-107.5 "/>
<text text-anchor="start" x="536" y="-95.5" font-family="Helvetica,sans-Serif" font-size="10.00" fill="#000000">+ valueChanged()</text>
<text text-anchor="start" x="536" y="-84.5" font-family="Helvetica,sans-Serif" font-size="10.00" fill="#000000"># setTable()</text>
<text text-anchor="start" x="536" y="-73.5" font-family="Helvetica,sans-Serif" font-size="10.00" fill="#000000"># getTable()</text>
<text text-anchor="start" x="536" y="-62.5" font-family="Helvetica,sans-Serif" font-size="10.00" fill="#000000"># setTableContent()</text>
<text text-anchor="start" x="536" y="-51.5" font-family="Helvetica,sans-Serif" font-size="10.00" fill="#000000"># getTableContent()</text>
<text text-anchor="start" x="536" y="-40.5" font-family="Helvetica,sans-Serif" font-size="10.00" fill="#000000"># setPlayerController()</text>
<text text-anchor="start" x="536" y="-29.5" font-family="Helvetica,sans-Serif" font-size="10.00" fill="#000000"># getPlayerController()</text>
<text text-anchor="start" x="536" y="-18.5" font-family="Helvetica,sans-Serif" font-size="10.00" fill="#000000"># hideColumn()</text>
<text text-anchor="start" x="536" y="-7.5" font-family="Helvetica,sans-Serif" font-size="10.00" fill="#000000"># getSelectedFilename()</text>
</g>
<!-- Node10 -->
<g id="node2" class="node">
<title>Node10</title>
<g id="a_node2"><a xlink:href="classene_1_1views_1_1AbstractPartialView.html" target="_top" xlink:title="{ene::views::AbstractPartial\lView\&lt; JPanel, TrackListModel \&gt;\n||+ setModel()\l+ getModel()\l}">
<polygon fill="none" stroke="#000000" points="231.5,-332.5 231.5,-411.5 390.5,-411.5 390.5,-332.5 231.5,-332.5"/>
<text text-anchor="start" x="239.5" y="-399.5" font-family="Helvetica,sans-Serif" font-size="10.00" fill="#000000">ene::views::AbstractPartial</text>
<text text-anchor="middle" x="311" y="-388.5" font-family="Helvetica,sans-Serif" font-size="10.00" fill="#000000">View&lt; JPanel, TrackListModel &gt;</text>
<polyline fill="none" stroke="#000000" points="231.5,-381.5 390.5,-381.5 "/>
<text text-anchor="middle" x="311" y="-369.5" font-family="Helvetica,sans-Serif" font-size="10.00" fill="#000000"> </text>
<polyline fill="none" stroke="#000000" points="231.5,-362.5 390.5,-362.5 "/>
<text text-anchor="start" x="239.5" y="-350.5" font-family="Helvetica,sans-Serif" font-size="10.00" fill="#000000">+ setModel()</text>
<text text-anchor="start" x="239.5" y="-339.5" font-family="Helvetica,sans-Serif" font-size="10.00" fill="#000000">+ getModel()</text>
</a>
</g>
</g>
<!-- Node10&#45;&gt;Node9 -->
<g id="edge1" class="edge">
<title>Node10&#45;&gt;Node9</title>
<path fill="none" stroke="#191970" d="M325.5919,-322.341C338.1273,-286.2779 359.1164,-238.0353 390,-204 428.0213,-162.0985 483.3481,-129.9066 527.8087,-108.6217"/>
<polygon fill="none" stroke="#191970" points="322.1571,-321.5737 322.2793,-332.1678 328.7904,-323.8098 322.1571,-321.5737"/>
</g>
<!-- Node11 -->
<g id="node3" class="node">
<title>Node11</title>
<g id="a_node3"><a xlink:href="classene_1_1views_1_1AbstractView.html" target="_top" xlink:title="{ene::views::AbstractView\l\&lt; CoreComponentType \&gt;\n||+ setTitle()\l+ getTitle()\l+ setCoreComponent()\l+ getCoreComponent()\l+ setLayoutPosition()\l+ getLayoutPosition()\l}">
<polygon fill="none" stroke="#000000" points="229,-459.5 229,-582.5 357,-582.5 357,-459.5 229,-459.5"/>
<text text-anchor="start" x="237" y="-570.5" font-family="Helvetica,sans-Serif" font-size="10.00" fill="#000000">ene::views::AbstractView</text>
<text text-anchor="middle" x="293" y="-559.5" font-family="Helvetica,sans-Serif" font-size="10.00" fill="#000000">&lt; CoreComponentType &gt;</text>
<polyline fill="none" stroke="#000000" points="229,-552.5 357,-552.5 "/>
<text text-anchor="middle" x="293" y="-540.5" font-family="Helvetica,sans-Serif" font-size="10.00" fill="#000000"> </text>
<polyline fill="none" stroke="#000000" points="229,-533.5 357,-533.5 "/>
<text text-anchor="start" x="237" y="-521.5" font-family="Helvetica,sans-Serif" font-size="10.00" fill="#000000">+ setTitle()</text>
<text text-anchor="start" x="237" y="-510.5" font-family="Helvetica,sans-Serif" font-size="10.00" fill="#000000">+ getTitle()</text>
<text text-anchor="start" x="237" y="-499.5" font-family="Helvetica,sans-Serif" font-size="10.00" fill="#000000">+ setCoreComponent()</text>
<text text-anchor="start" x="237" y="-488.5" font-family="Helvetica,sans-Serif" font-size="10.00" fill="#000000">+ getCoreComponent()</text>
<text text-anchor="start" x="237" y="-477.5" font-family="Helvetica,sans-Serif" font-size="10.00" fill="#000000">+ setLayoutPosition()</text>
<text text-anchor="start" x="237" y="-466.5" font-family="Helvetica,sans-Serif" font-size="10.00" fill="#000000">+ getLayoutPosition()</text>
</a>
</g>
</g>
<!-- Node11&#45;&gt;Node10 -->
<g id="edge2" class="edge">
<title>Node11&#45;&gt;Node10</title>
<path fill="none" stroke="#191970" d="M301.7091,-448.9078C303.2526,-436.1316 304.8074,-423.2609 306.1919,-411.8008"/>
<polygon fill="none" stroke="#191970" points="298.2019,-448.7574 300.4772,-459.105 305.1514,-449.597 298.2019,-448.7574"/>
</g>
<!-- Node12 -->
<g id="node4" class="node">
<title>Node12</title>
<g id="a_node4"><a xlink:href="classene_1_1AbstractObject.html" target="_top" xlink:title="{ene.AbstractObject\n||+ enableDebugMode()\l+ disableDebugMode()\l+ isDebugModeEnabled()\l+ debugInfoAbout()\l+ consoleOutput()\l# delay()\l}">
<polygon fill="none" stroke="#000000" points="485.5,-652.5 485.5,-764.5 612.5,-764.5 612.5,-652.5 485.5,-652.5"/>
<text text-anchor="middle" x="549" y="-752.5" font-family="Helvetica,sans-Serif" font-size="10.00" fill="#000000">ene.AbstractObject</text>
<polyline fill="none" stroke="#000000" points="485.5,-745.5 612.5,-745.5 "/>
<text text-anchor="middle" x="549" y="-733.5" font-family="Helvetica,sans-Serif" font-size="10.00" fill="#000000"> </text>
<polyline fill="none" stroke="#000000" points="485.5,-726.5 612.5,-726.5 "/>
<text text-anchor="start" x="493.5" y="-714.5" font-family="Helvetica,sans-Serif" font-size="10.00" fill="#000000">+ enableDebugMode()</text>
<text text-anchor="start" x="493.5" y="-703.5" font-family="Helvetica,sans-Serif" font-size="10.00" fill="#000000">+ disableDebugMode()</text>
<text text-anchor="start" x="493.5" y="-692.5" font-family="Helvetica,sans-Serif" font-size="10.00" fill="#000000">+ isDebugModeEnabled()</text>
<text text-anchor="start" x="493.5" y="-681.5" font-family="Helvetica,sans-Serif" font-size="10.00" fill="#000000">+ debugInfoAbout()</text>
<text text-anchor="start" x="493.5" y="-670.5" font-family="Helvetica,sans-Serif" font-size="10.00" fill="#000000">+ consoleOutput()</text>
<text text-anchor="start" x="493.5" y="-659.5" font-family="Helvetica,sans-Serif" font-size="10.00" fill="#000000"># delay()</text>
</a>
</g>
</g>
<!-- Node12&#45;&gt;Node11 -->
<g id="edge3" class="edge">
<title>Node12&#45;&gt;Node11</title>
<path fill="none" stroke="#191970" d="M482.0953,-645.865C480.0576,-644.2062 478.0231,-642.581 476,-641 438.1313,-611.407 393.0035,-581.7592 357.0372,-559.3366"/>
<polygon fill="none" stroke="#191970" points="480.0292,-648.6991 489.9535,-652.4084 484.5084,-643.3198 480.0292,-648.6991"/>
</g>
<!-- Node24 -->
<g id="node16" class="node">
<title>Node24</title>
<g id="a_node16"><a xlink:href="classene_1_1controllers_1_1AbstractController.html" target="_top" xlink:title="{ene.controllers.Abstract\lController\&lt; ModelType \&gt;\n||+ setModel()\l+ getModel()\l}">
<polygon fill="none" stroke="#000000" points="620.5,-481.5 620.5,-560.5 745.5,-560.5 745.5,-481.5 620.5,-481.5"/>
<text text-anchor="start" x="628.5" y="-548.5" font-family="Helvetica,sans-Serif" font-size="10.00" fill="#000000">ene.controllers.Abstract</text>
<text text-anchor="middle" x="683" y="-537.5" font-family="Helvetica,sans-Serif" font-size="10.00" fill="#000000">Controller&lt; ModelType &gt;</text>
<polyline fill="none" stroke="#000000" points="620.5,-530.5 745.5,-530.5 "/>
<text text-anchor="middle" x="683" y="-518.5" font-family="Helvetica,sans-Serif" font-size="10.00" fill="#000000"> </text>
<polyline fill="none" stroke="#000000" points="620.5,-511.5 745.5,-511.5 "/>
<text text-anchor="start" x="628.5" y="-499.5" font-family="Helvetica,sans-Serif" font-size="10.00" fill="#000000">+ setModel()</text>
<text text-anchor="start" x="628.5" y="-488.5" font-family="Helvetica,sans-Serif" font-size="10.00" fill="#000000">+ getModel()</text>
</a>
</g>
</g>
<!-- Node12&#45;&gt;Node24 -->
<g id="edge17" class="edge">
<title>Node12&#45;&gt;Node24</title>
<path fill="none" stroke="#191970" d="M595.0705,-644.0357C614.8657,-616.3372 637.3705,-584.8472 654.6569,-560.6592"/>
<polygon fill="none" stroke="#191970" points="591.9898,-642.3268 589.0229,-652.4978 597.6849,-646.397 591.9898,-642.3268"/>
</g>
<!-- Node13 -->
<g id="node5" class="node">
<title>Node13</title>
<polygon fill="none" stroke="#bfbfbf" points="510.5,-823.5 510.5,-880.5 587.5,-880.5 587.5,-823.5 510.5,-823.5"/>
<text text-anchor="middle" x="549" y="-868.5" font-family="Helvetica,sans-Serif" font-size="10.00" fill="#000000">static boolean</text>
<polyline fill="none" stroke="#bfbfbf" points="510.5,-861.5 587.5,-861.5 "/>
<text text-anchor="middle" x="549" y="-849.5" font-family="Helvetica,sans-Serif" font-size="10.00" fill="#000000"> </text>
<polyline fill="none" stroke="#bfbfbf" points="510.5,-842.5 587.5,-842.5 "/>
<text text-anchor="middle" x="549" y="-830.5" font-family="Helvetica,sans-Serif" font-size="10.00" fill="#000000"> </text>
</g>
<!-- Node13&#45;&gt;Node12 -->
<g id="edge4" class="edge">
<title>Node13&#45;&gt;Node12</title>
<path fill="none" stroke="#404040" d="M549,-823.3055C549,-809.9442 549,-793.4218 549,-777.1157"/>
<polygon fill="none" stroke="#404040" points="549.0001,-776.7445 545,-770.7445 549,-764.7445 553,-770.7444 549.0001,-776.7445"/>
<text text-anchor="middle" x="596" y="-797" font-family="Helvetica,sans-Serif" font-size="10.00" fill="#000000"> #debugModeEnabled</text>
</g>
<!-- Node14 -->
<g id="node6" class="node">
<title>Node14</title>
<g id="a_node6"><a xlink:href="interfaceene_1_1interfaces_1_1View.html" target="_top" xlink:title="{ene::interfaces::View\l\&lt; CoreComponentType \&gt;\n||+ setTitle()\l+ getTitle()\l+ setCoreComponent()\l+ getCoreComponent()\l+ setLayoutPosition()\l+ getLayoutPosition()\l+ render()\l}">
<polygon fill="none" stroke="#000000" points="0,-641.5 0,-775.5 128,-775.5 128,-641.5 0,-641.5"/>
<text text-anchor="start" x="8" y="-763.5" font-family="Helvetica,sans-Serif" font-size="10.00" fill="#000000">ene::interfaces::View</text>
<text text-anchor="middle" x="64" y="-752.5" font-family="Helvetica,sans-Serif" font-size="10.00" fill="#000000">&lt; CoreComponentType &gt;</text>
<polyline fill="none" stroke="#000000" points="0,-745.5 128,-745.5 "/>
<text text-anchor="middle" x="64" y="-733.5" font-family="Helvetica,sans-Serif" font-size="10.00" fill="#000000"> </text>
<polyline fill="none" stroke="#000000" points="0,-726.5 128,-726.5 "/>
<text text-anchor="start" x="8" y="-714.5" font-family="Helvetica,sans-Serif" font-size="10.00" fill="#000000">+ setTitle()</text>
<text text-anchor="start" x="8" y="-703.5" font-family="Helvetica,sans-Serif" font-size="10.00" fill="#000000">+ getTitle()</text>
<text text-anchor="start" x="8" y="-692.5" font-family="Helvetica,sans-Serif" font-size="10.00" fill="#000000">+ setCoreComponent()</text>
<text text-anchor="start" x="8" y="-681.5" font-family="Helvetica,sans-Serif" font-size="10.00" fill="#000000">+ getCoreComponent()</text>
<text text-anchor="start" x="8" y="-670.5" font-family="Helvetica,sans-Serif" font-size="10.00" fill="#000000">+ setLayoutPosition()</text>
<text text-anchor="start" x="8" y="-659.5" font-family="Helvetica,sans-Serif" font-size="10.00" fill="#000000">+ getLayoutPosition()</text>
<text text-anchor="start" x="8" y="-648.5" font-family="Helvetica,sans-Serif" font-size="10.00" fill="#000000">+ render()</text>
</a>
</g>
</g>
<!-- Node14&#45;&gt;Node11 -->
<g id="edge5" class="edge">
<title>Node14&#45;&gt;Node11</title>
<path fill="none" stroke="#191970" d="M135.9141,-641.927C136.2767,-641.6169 136.6387,-641.3079 137,-641 166.3895,-615.9584 200.2286,-589.6431 228.8628,-568.0577"/>
<polygon fill="none" stroke="#191970" points="133.4971,-639.3902 128.2302,-648.5831 138.0803,-644.6812 133.4971,-639.3902"/>
</g>
<!-- Node19 -->
<g id="node11" class="node">
<title>Node19</title>
<g id="a_node11"><a xlink:href="interfaceene_1_1interfaces_1_1PartialView.html" target="_top" xlink:title="{ene::interfaces::Partial\lView\&lt; CoreComponentType,\l ModelType \&gt;\n||+ setModel()\l+ getModel()\l+ update()\l}">
<polygon fill="none" stroke="#000000" points="41.5,-470.5 41.5,-571.5 184.5,-571.5 184.5,-470.5 41.5,-470.5"/>
<text text-anchor="start" x="49.5" y="-559.5" font-family="Helvetica,sans-Serif" font-size="10.00" fill="#000000">ene::interfaces::Partial</text>
<text text-anchor="start" x="49.5" y="-548.5" font-family="Helvetica,sans-Serif" font-size="10.00" fill="#000000">View&lt; CoreComponentType,</text>
<text text-anchor="middle" x="113" y="-537.5" font-family="Helvetica,sans-Serif" font-size="10.00" fill="#000000"> ModelType &gt;</text>
<polyline fill="none" stroke="#000000" points="41.5,-530.5 184.5,-530.5 "/>
<text text-anchor="middle" x="113" y="-518.5" font-family="Helvetica,sans-Serif" font-size="10.00" fill="#000000"> </text>
<polyline fill="none" stroke="#000000" points="41.5,-511.5 184.5,-511.5 "/>
<text text-anchor="start" x="49.5" y="-499.5" font-family="Helvetica,sans-Serif" font-size="10.00" fill="#000000">+ setModel()</text>
<text text-anchor="start" x="49.5" y="-488.5" font-family="Helvetica,sans-Serif" font-size="10.00" fill="#000000">+ getModel()</text>
<text text-anchor="start" x="49.5" y="-477.5" font-family="Helvetica,sans-Serif" font-size="10.00" fill="#000000">+ update()</text>
</a>
</g>
</g>
<!-- Node14&#45;&gt;Node19 -->
<g id="edge11" class="edge">
<title>Node14&#45;&gt;Node19</title>
<path fill="none" stroke="#191970" d="M84.1205,-631.5084C89.4083,-611.2742 94.9775,-589.9635 99.7991,-571.5135"/>
<polygon fill="none" stroke="#191970" points="80.6939,-630.7777 81.5517,-641.3378 87.4665,-632.5477 80.6939,-630.7777"/>
</g>
<!-- Node15 -->
<g id="node7" class="node">
<title>Node15</title>
<g id="a_node7"><a xlink:href="interfaceene_1_1interfaces_1_1Localization.html" target="_top" xlink:title="{ene.interfaces.Localization\n||+ getString()\l}">
<polygon fill="none" stroke="#000000" points="334.5,-680 334.5,-737 467.5,-737 467.5,-680 334.5,-680"/>
<text text-anchor="middle" x="401" y="-725" font-family="Helvetica,sans-Serif" font-size="10.00" fill="#000000">ene.interfaces.Localization</text>
<polyline fill="none" stroke="#000000" points="334.5,-718 467.5,-718 "/>
<text text-anchor="middle" x="401" y="-706" font-family="Helvetica,sans-Serif" font-size="10.00" fill="#000000"> </text>
<polyline fill="none" stroke="#000000" points="334.5,-699 467.5,-699 "/>
<text text-anchor="start" x="342.5" y="-687" font-family="Helvetica,sans-Serif" font-size="10.00" fill="#000000">+ getString()</text>
</a>
</g>
</g>
<!-- Node15&#45;&gt;Node11 -->
<g id="edge6" class="edge">
<title>Node15&#45;&gt;Node11</title>
<path fill="none" stroke="#191970" d="M390.3563,-670.2543C383.5863,-649.0402 373.6959,-622.6507 361,-601 357.4039,-594.8675 353.3254,-588.7469 348.9948,-582.7767"/>
<polygon fill="none" stroke="#191970" points="387.0416,-671.3827 393.3368,-679.9046 393.7299,-669.317 387.0416,-671.3827"/>
</g>
<!-- Node16 -->
<g id="node8" class="node">
<title>Node16</title>
<polygon fill="none" stroke="#bfbfbf" points="356,-823.5 356,-880.5 446,-880.5 446,-823.5 356,-823.5"/>
<text text-anchor="middle" x="401" y="-868.5" font-family="Helvetica,sans-Serif" font-size="10.00" fill="#000000">static final String</text>
<polyline fill="none" stroke="#bfbfbf" points="356,-861.5 446,-861.5 "/>
<text text-anchor="middle" x="401" y="-849.5" font-family="Helvetica,sans-Serif" font-size="10.00" fill="#000000"> </text>
<polyline fill="none" stroke="#bfbfbf" points="356,-842.5 446,-842.5 "/>
<text text-anchor="middle" x="401" y="-830.5" font-family="Helvetica,sans-Serif" font-size="10.00" fill="#000000"> </text>
</g>
<!-- Node16&#45;&gt;Node15 -->
<g id="edge7" class="edge">
<title>Node16&#45;&gt;Node15</title>
<path fill="none" stroke="#404040" d="M401,-823.3055C401,-802.0904 401,-772.9058 401,-749.2714"/>
<polygon fill="none" stroke="#404040" points="401.0001,-749.1447 397,-743.1448 401,-737.1447 405,-743.1447 401.0001,-749.1447"/>
<text text-anchor="middle" x="451" y="-797" font-family="Helvetica,sans-Serif" font-size="10.00" fill="#000000"> +DEFAULT_LOCALE</text>
</g>
<!-- Node17 -->
<g id="node9" class="node">
<title>Node17</title>
<polygon fill="none" stroke="#bfbfbf" points="146,-680 146,-737 188,-737 188,-680 146,-680"/>
<text text-anchor="middle" x="167" y="-725" font-family="Helvetica,sans-Serif" font-size="10.00" fill="#000000">String</text>
<polyline fill="none" stroke="#bfbfbf" points="146,-718 188,-718 "/>
<text text-anchor="middle" x="167" y="-706" font-family="Helvetica,sans-Serif" font-size="10.00" fill="#000000"> </text>
<polyline fill="none" stroke="#bfbfbf" points="146,-699 188,-699 "/>
<text text-anchor="middle" x="167" y="-687" font-family="Helvetica,sans-Serif" font-size="10.00" fill="#000000"> </text>
</g>
<!-- Node17&#45;&gt;Node11 -->
<g id="edge8" class="edge">
<title>Node17&#45;&gt;Node11</title>
<path fill="none" stroke="#404040" d="M172.3502,-679.7604C177.5526,-657.0048 187.0561,-625.1428 203,-601 207.9106,-593.5642 213.6811,-586.3866 219.8889,-579.5875"/>
<polygon fill="none" stroke="#404040" points="220.2592,-579.2032 221.5419,-572.1071 228.5855,-570.5619 227.3028,-577.658 220.2592,-579.2032"/>
<text text-anchor="middle" x="238" y="-615" font-family="Helvetica,sans-Serif" font-size="10.00" fill="#000000"> #layoutPosition</text>
<text text-anchor="middle" x="238" y="-604" font-family="Helvetica,sans-Serif" font-size="10.00" fill="#000000">#title</text>
</g>
<!-- Node18 -->
<g id="node10" class="node">
<title>Node18</title>
<polygon fill="none" stroke="#bfbfbf" points="206,-680 206,-737 316,-737 316,-680 206,-680"/>
<text text-anchor="middle" x="261" y="-725" font-family="Helvetica,sans-Serif" font-size="10.00" fill="#000000">CoreComponentType</text>
<polyline fill="none" stroke="#bfbfbf" points="206,-718 316,-718 "/>
<text text-anchor="middle" x="261" y="-706" font-family="Helvetica,sans-Serif" font-size="10.00" fill="#000000"> </text>
<polyline fill="none" stroke="#bfbfbf" points="206,-699 316,-699 "/>
<text text-anchor="middle" x="261" y="-687" font-family="Helvetica,sans-Serif" font-size="10.00" fill="#000000"> </text>
</g>
<!-- Node18&#45;&gt;Node11 -->
<g id="edge9" class="edge">
<title>Node18&#45;&gt;Node11</title>
<path fill="none" stroke="#404040" d="M265.9299,-679.614C269.7975,-656.9523 275.3577,-624.3726 280.434,-594.6287"/>
<polygon fill="none" stroke="#404040" points="280.4801,-594.3584 277.5465,-587.7709 282.499,-582.5294 285.4325,-589.1168 280.4801,-594.3584"/>
<text text-anchor="middle" x="318" y="-609.5" font-family="Helvetica,sans-Serif" font-size="10.00" fill="#000000"> #coreComponent</text>
</g>
<!-- Node19&#45;&gt;Node10 -->
<g id="edge10" class="edge">
<title>Node19&#45;&gt;Node10</title>
<path fill="none" stroke="#191970" d="M188.4574,-464.2164C211.7344,-446.6999 236.8546,-427.7963 258.2551,-411.6919"/>
<polygon fill="none" stroke="#191970" points="186.1958,-461.5379 180.3101,-470.3475 190.4049,-467.1312 186.1958,-461.5379"/>
</g>
<!-- Node20 -->
<g id="node12" class="node">
<title>Node20</title>
<polygon fill="none" stroke="#bfbfbf" points="630.5,-680 630.5,-737 695.5,-737 695.5,-680 630.5,-680"/>
<text text-anchor="middle" x="663" y="-725" font-family="Helvetica,sans-Serif" font-size="10.00" fill="#000000">ModelType</text>
<polyline fill="none" stroke="#bfbfbf" points="630.5,-718 695.5,-718 "/>
<text text-anchor="middle" x="663" y="-706" font-family="Helvetica,sans-Serif" font-size="10.00" fill="#000000"> </text>
<polyline fill="none" stroke="#bfbfbf" points="630.5,-699 695.5,-699 "/>
<text text-anchor="middle" x="663" y="-687" font-family="Helvetica,sans-Serif" font-size="10.00" fill="#000000"> </text>
</g>
<!-- Node20&#45;&gt;Node10 -->
<g id="edge12" class="edge">
<title>Node20&#45;&gt;Node10</title>
<path fill="none" stroke="#404040" d="M648.2758,-679.9207C641.1627,-667.3708 632.0022,-652.8325 622,-641 547.589,-552.9723 443.3276,-468.9778 376.4698,-418.9459"/>
<polygon fill="none" stroke="#404040" points="376.1064,-418.6756 368.9049,-418.3038 366.4782,-411.5133 373.6797,-411.885 376.1064,-418.6756"/>
<text text-anchor="middle" x="584.5" y="-518.5" font-family="Helvetica,sans-Serif" font-size="10.00" fill="#000000"> #model</text>
</g>
<!-- Node20&#45;&gt;Node24 -->
<g id="edge19" class="edge">
<title>Node20&#45;&gt;Node24</title>
<path fill="none" stroke="#404040" d="M666.0812,-679.614C669.1064,-651.2523 673.7887,-607.3557 677.4613,-572.9257"/>
<polygon fill="none" stroke="#404040" points="677.4908,-572.6479 674.1498,-566.2574 678.7637,-560.7156 682.1047,-567.106 677.4908,-572.6479"/>
<text text-anchor="middle" x="691.5" y="-609.5" font-family="Helvetica,sans-Serif" font-size="10.00" fill="#000000"> #model</text>
</g>
<!-- Node21 -->
<g id="node13" class="node">
<title>Node21</title>
<polygon fill="none" stroke="#bfbfbf" points="399.5,-221 399.5,-278 506.5,-278 506.5,-221 399.5,-221"/>
<text text-anchor="middle" x="453" y="-266" font-family="Helvetica,sans-Serif" font-size="10.00" fill="#000000">ListSelectionListener</text>
<polyline fill="none" stroke="#bfbfbf" points="399.5,-259 506.5,-259 "/>
<text text-anchor="middle" x="453" y="-247" font-family="Helvetica,sans-Serif" font-size="10.00" fill="#000000"> </text>
<polyline fill="none" stroke="#bfbfbf" points="399.5,-240 506.5,-240 "/>
<text text-anchor="middle" x="453" y="-228" font-family="Helvetica,sans-Serif" font-size="10.00" fill="#000000"> </text>
</g>
<!-- Node21&#45;&gt;Node9 -->
<g id="edge13" class="edge">
<title>Node21&#45;&gt;Node9</title>
<path fill="none" stroke="#191970" d="M484.5181,-213.0839C498.8165,-196.5634 516.3148,-176.3457 533.3597,-156.6519"/>
<polygon fill="none" stroke="#191970" points="481.6697,-211.0267 477.7719,-220.8784 486.9626,-215.6077 481.6697,-211.0267"/>
</g>
<!-- Node22 -->
<g id="node14" class="node">
<title>Node22</title>
<g id="a_node14"><a xlink:href="classene_1_1controllers_1_1PlayerController.html" target="_top" xlink:title="{ene.controllers.PlayerController\n||+ PlayerController()\l+ changeTrackPosition()\l+ load()\l+ togglePlayback()\l}">
<polygon fill="none" stroke="#000000" points="524.5,-204.5 524.5,-294.5 677.5,-294.5 677.5,-204.5 524.5,-204.5"/>
<text text-anchor="middle" x="601" y="-282.5" font-family="Helvetica,sans-Serif" font-size="10.00" fill="#000000">ene.controllers.PlayerController</text>
<polyline fill="none" stroke="#000000" points="524.5,-275.5 677.5,-275.5 "/>
<text text-anchor="middle" x="601" y="-263.5" font-family="Helvetica,sans-Serif" font-size="10.00" fill="#000000"> </text>
<polyline fill="none" stroke="#000000" points="524.5,-256.5 677.5,-256.5 "/>
<text text-anchor="start" x="532.5" y="-244.5" font-family="Helvetica,sans-Serif" font-size="10.00" fill="#000000">+ PlayerController()</text>
<text text-anchor="start" x="532.5" y="-233.5" font-family="Helvetica,sans-Serif" font-size="10.00" fill="#000000">+ changeTrackPosition()</text>
<text text-anchor="start" x="532.5" y="-222.5" font-family="Helvetica,sans-Serif" font-size="10.00" fill="#000000">+ load()</text>
<text text-anchor="start" x="532.5" y="-211.5" font-family="Helvetica,sans-Serif" font-size="10.00" fill="#000000">+ togglePlayback()</text>
</a>
</g>
</g>
<!-- Node22&#45;&gt;Node9 -->
<g id="edge14" class="edge">
<title>Node22&#45;&gt;Node9</title>
<path fill="none" stroke="#404040" d="M601,-204.1241C601,-193.2155 601,-181.1799 601,-169.0084"/>
<polygon fill="none" stroke="#404040" points="601.0001,-168.8285 597,-162.8285 601,-156.8285 605,-162.8284 601.0001,-168.8285"/>
<text text-anchor="middle" x="639.5" y="-178" font-family="Helvetica,sans-Serif" font-size="10.00" fill="#000000"> #playerController</text>
</g>
<!-- Node23 -->
<g id="node15" class="node">
<title>Node23</title>
<g id="a_node15"><a xlink:href="classene_1_1controllers_1_1AbstractController.html" target="_top" xlink:title="{ene.controllers.Abstract\lController\&lt; PlayerModel \&gt;\n|# model\l|+ setModel()\l+ getModel()\l}">
<polygon fill="none" stroke="#000000" points="571.5,-332.5 571.5,-411.5 702.5,-411.5 702.5,-332.5 571.5,-332.5"/>
<text text-anchor="start" x="579.5" y="-399.5" font-family="Helvetica,sans-Serif" font-size="10.00" fill="#000000">ene.controllers.Abstract</text>
<text text-anchor="middle" x="637" y="-388.5" font-family="Helvetica,sans-Serif" font-size="10.00" fill="#000000">Controller&lt; PlayerModel &gt;</text>
<polyline fill="none" stroke="#000000" points="571.5,-381.5 702.5,-381.5 "/>
<text text-anchor="start" x="579.5" y="-369.5" font-family="Helvetica,sans-Serif" font-size="10.00" fill="#000000"># model</text>
<polyline fill="none" stroke="#000000" points="571.5,-362.5 702.5,-362.5 "/>
<text text-anchor="start" x="579.5" y="-350.5" font-family="Helvetica,sans-Serif" font-size="10.00" fill="#000000">+ setModel()</text>
<text text-anchor="start" x="579.5" y="-339.5" font-family="Helvetica,sans-Serif" font-size="10.00" fill="#000000">+ getModel()</text>
</a>
</g>
</g>
<!-- Node23&#45;&gt;Node22 -->
<g id="edge15" class="edge">
<title>Node23&#45;&gt;Node22</title>
<path fill="none" stroke="#191970" d="M622.4314,-322.4264C619.7269,-313.2235 616.9151,-303.6555 614.2525,-294.5953"/>
<polygon fill="none" stroke="#191970" points="619.1342,-323.6203 625.3118,-332.2278 625.8502,-321.6466 619.1342,-323.6203"/>
</g>
<!-- Node24&#45;&gt;Node23 -->
<g id="edge16" class="edge">
<title>Node24&#45;&gt;Node23</title>
<path fill="none" stroke="#ffa500" d="M667.8201,-471.8303C661.7978,-452.3232 654.9634,-430.186 649.2634,-411.7228"/>
<polygon fill="#ffa500" stroke="#ffa500" points="664.4994,-472.9394 670.7936,-481.4619 671.1879,-470.8744 664.4994,-472.9394"/>
<text text-anchor="middle" x="695" y="-433" font-family="Helvetica,sans-Serif" font-size="10.00" fill="#000000"> &lt; PlayerModel &gt;</text>
</g>
<!-- Node25 -->
<g id="node17" class="node">
<title>Node25</title>
<g id="a_node17"><a xlink:href="interfaceene_1_1interfaces_1_1Controller.html" target="_top" xlink:title="{ene::interfaces::Controller\l\&lt; ModelType \&gt;\n||+ setModel()\l+ getModel()\l}">
<polygon fill="none" stroke="#000000" points="713.5,-669 713.5,-748 842.5,-748 842.5,-669 713.5,-669"/>
<text text-anchor="start" x="721.5" y="-736" font-family="Helvetica,sans-Serif" font-size="10.00" fill="#000000">ene::interfaces::Controller</text>
<text text-anchor="middle" x="778" y="-725" font-family="Helvetica,sans-Serif" font-size="10.00" fill="#000000">&lt; ModelType &gt;</text>
<polyline fill="none" stroke="#000000" points="713.5,-718 842.5,-718 "/>
<text text-anchor="middle" x="778" y="-706" font-family="Helvetica,sans-Serif" font-size="10.00" fill="#000000"> </text>
<polyline fill="none" stroke="#000000" points="713.5,-699 842.5,-699 "/>
<text text-anchor="start" x="721.5" y="-687" font-family="Helvetica,sans-Serif" font-size="10.00" fill="#000000">+ setModel()</text>
<text text-anchor="start" x="721.5" y="-676" font-family="Helvetica,sans-Serif" font-size="10.00" fill="#000000">+ getModel()</text>
</a>
</g>
</g>
<!-- Node25&#45;&gt;Node24 -->
<g id="edge18" class="edge">
<title>Node25&#45;&gt;Node24</title>
<path fill="none" stroke="#191970" d="M753.1611,-659.4758C737.5687,-628.7014 717.7215,-589.5292 703.118,-560.7066"/>
<polygon fill="none" stroke="#191970" points="750.2111,-661.3976 757.8529,-668.7361 756.4554,-658.2338 750.2111,-661.3976"/>
</g>
<!-- Node26 -->
<g id="node18" class="node">
<title>Node26</title>
<polygon fill="none" stroke="#bfbfbf" points="696,-221 696,-278 794,-278 794,-221 696,-221"/>
<text text-anchor="middle" x="745" y="-266" font-family="Helvetica,sans-Serif" font-size="10.00" fill="#000000">DefaultTableModel</text>
<polyline fill="none" stroke="#bfbfbf" points="696,-259 794,-259 "/>
<text text-anchor="middle" x="745" y="-247" font-family="Helvetica,sans-Serif" font-size="10.00" fill="#000000"> </text>
<polyline fill="none" stroke="#bfbfbf" points="696,-240 794,-240 "/>
<text text-anchor="middle" x="745" y="-228" font-family="Helvetica,sans-Serif" font-size="10.00" fill="#000000"> </text>
</g>
<!-- Node26&#45;&gt;Node9 -->
<g id="edge20" class="edge">
<title>Node26&#45;&gt;Node9</title>
<path fill="none" stroke="#404040" d="M720.8976,-220.8784C708.0416,-205.6119 691.4568,-185.9175 674.7466,-166.074"/>
<polygon fill="none" stroke="#404040" points="674.5418,-165.8309 667.6173,-163.818 666.8122,-156.6519 673.7366,-158.6649 674.5418,-165.8309"/>
<text text-anchor="middle" x="722" y="-178" font-family="Helvetica,sans-Serif" font-size="10.00" fill="#000000"> #tableContent</text>
</g>
<!-- Node27 -->
<g id="node19" class="node">
<title>Node27</title>
<polygon fill="none" stroke="#bfbfbf" points="812,-221 812,-278 858,-278 858,-221 812,-221"/>
<text text-anchor="middle" x="835" y="-266" font-family="Helvetica,sans-Serif" font-size="10.00" fill="#000000">JTable</text>
<polyline fill="none" stroke="#bfbfbf" points="812,-259 858,-259 "/>
<text text-anchor="middle" x="835" y="-247" font-family="Helvetica,sans-Serif" font-size="10.00" fill="#000000"> </text>
<polyline fill="none" stroke="#bfbfbf" points="812,-240 858,-240 "/>
<text text-anchor="middle" x="835" y="-228" font-family="Helvetica,sans-Serif" font-size="10.00" fill="#000000"> </text>
</g>
<!-- Node27&#45;&gt;Node9 -->
<g id="edge21" class="edge">
<title>Node27&#45;&gt;Node9</title>
<path fill="none" stroke="#404040" d="M817.2914,-220.7132C813.0029,-214.8401 808.1545,-208.95 803,-204 768.4309,-170.8025 723.6767,-141.9064 685.0828,-120.2369"/>
<polygon fill="none" stroke="#404040" points="684.8772,-120.1234 677.6909,-120.7222 674.3742,-114.3191 681.5605,-113.7202 684.8772,-120.1234"/>
<text text-anchor="middle" x="793" y="-178" font-family="Helvetica,sans-Serif" font-size="10.00" fill="#000000"> #table</text>
</g>
</g>
</svg>
