<?xml version="1.0" encoding="UTF-8" standalone="no"?>
<!DOCTYPE svg PUBLIC "-//W3C//DTD SVG 1.1//EN"
 "http://www.w3.org/Graphics/SVG/1.1/DTD/svg11.dtd">
<!-- Generated by graphviz version 2.40.1 (20161225.0304)
 -->
<!-- Title: ene.views.gui.partial.AbstractTrackListView.getTableContent Pages: 1 -->
<svg width="727pt" height="188pt"
 viewBox="0.00 0.00 727.00 188.42" xmlns="http://www.w3.org/2000/svg" xmlns:xlink="http://www.w3.org/1999/xlink">
<g id="graph0" class="graph" transform="scale(1 1) rotate(0) translate(4 184.4226)">
<title>ene.views.gui.partial.AbstractTrackListView.getTableContent</title>
<!-- Node16 -->
<g id="node1" class="node">
<title>Node16</title>
<polygon fill="#bfbfbf" stroke="#000000" points="0,-82.5 0,-112.5 154,-112.5 154,-82.5 0,-82.5"/>
<text text-anchor="start" x="8" y="-100.5" font-family="Helvetica,sans-Serif" font-size="10.00" fill="#000000">ene.views.gui.partial.Abstract</text>
<text text-anchor="middle" x="77" y="-89.5" font-family="Helvetica,sans-Serif" font-size="10.00" fill="#000000">TrackListView.getTableContent</text>
</g>
<!-- Node17 -->
<g id="node2" class="node">
<title>Node17</title>
<g id="a_node2"><a xlink:href="classene_1_1views_1_1gui_1_1partial_1_1AbstractTrackListView.html#a35a32113ecdb8bc210fa6b4e9c57c782" target="_top" xlink:title="ene.views.gui.partial.Abstract\lTrackListView.getSelectedFilename">
<polygon fill="none" stroke="#000000" points="190,-126.5 190,-156.5 363,-156.5 363,-126.5 190,-126.5"/>
<text text-anchor="start" x="198" y="-144.5" font-family="Helvetica,sans-Serif" font-size="10.00" fill="#000000">ene.views.gui.partial.Abstract</text>
<text text-anchor="middle" x="276.5" y="-133.5" font-family="Helvetica,sans-Serif" font-size="10.00" fill="#000000">TrackListView.getSelectedFilename</text>
</a>
</g>
</g>
<!-- Node16&#45;&gt;Node17 -->
<g id="edge1" class="edge">
<title>Node16&#45;&gt;Node17</title>
<path fill="none" stroke="#191970" d="M155.2966,-114.7684C172.8288,-118.6352 191.2891,-122.7066 208.3698,-126.4738"/>
<polygon fill="#191970" stroke="#191970" points="155.6178,-111.2552 145.0986,-112.5192 154.1101,-118.0909 155.6178,-111.2552"/>
</g>
<!-- Node18 -->
<g id="node3" class="node">
<title>Node18</title>
<g id="a_node3"><a xlink:href="classene_1_1views_1_1gui_1_1partial_1_1LibraryView.html#a0bd6885fe06ebde4d3dffbcd888c0b41" target="_top" xlink:title="ene.views.gui.partial.Library\lView.render">
<polygon fill="none" stroke="#000000" points="581,-63.5 581,-93.5 719,-93.5 719,-63.5 581,-63.5"/>
<text text-anchor="start" x="589" y="-81.5" font-family="Helvetica,sans-Serif" font-size="10.00" fill="#000000">ene.views.gui.partial.Library</text>
<text text-anchor="middle" x="650" y="-70.5" font-family="Helvetica,sans-Serif" font-size="10.00" fill="#000000">View.render</text>
</a>
</g>
</g>
<!-- Node16&#45;&gt;Node18 -->
<g id="edge8" class="edge">
<title>Node16&#45;&gt;Node18</title>
<path fill="none" stroke="#191970" d="M164.382,-94.6025C278.555,-90.8167 476.1931,-84.2632 580.6578,-80.7993"/>
<polygon fill="#191970" stroke="#191970" points="164.1558,-91.108 154.2773,-94.9376 164.3879,-98.1042 164.1558,-91.108"/>
</g>
<!-- Node20 -->
<g id="node5" class="node">
<title>Node20</title>
<g id="a_node5"><a xlink:href="classene_1_1views_1_1gui_1_1partial_1_1LibraryView.html#a734cbc08cf36ed3d48cb106b77ecf28b" target="_top" xlink:title="ene.views.gui.partial.Library\lView.loadContent">
<polygon fill="none" stroke="#000000" points="207.5,-38.5 207.5,-68.5 345.5,-68.5 345.5,-38.5 207.5,-38.5"/>
<text text-anchor="start" x="215.5" y="-56.5" font-family="Helvetica,sans-Serif" font-size="10.00" fill="#000000">ene.views.gui.partial.Library</text>
<text text-anchor="middle" x="276.5" y="-45.5" font-family="Helvetica,sans-Serif" font-size="10.00" fill="#000000">View.loadContent</text>
</a>
</g>
</g>
<!-- Node16&#45;&gt;Node20 -->
<g id="edge4" class="edge">
<title>Node16&#45;&gt;Node20</title>
<path fill="none" stroke="#191970" d="M155.2966,-80.2316C172.8288,-76.3648 191.2891,-72.2934 208.3698,-68.5262"/>
<polygon fill="#191970" stroke="#191970" points="154.1101,-76.9091 145.0986,-82.4808 155.6178,-83.7448 154.1101,-76.9091"/>
</g>
<!-- Node17&#45;&gt;Node18 -->
<g id="edge2" class="edge">
<title>Node17&#45;&gt;Node18</title>
<path fill="none" stroke="#191970" d="M328.941,-159.4054C384.3372,-175.3696 473.403,-192.5353 545,-166.5 585.0114,-151.9504 620.4046,-114.7237 638.076,-93.6458"/>
<polygon fill="#191970" stroke="#191970" points="329.9207,-156.0454 319.338,-156.5525 327.9272,-162.7555 329.9207,-156.0454"/>
</g>
<!-- Node19 -->
<g id="node4" class="node">
<title>Node19</title>
<g id="a_node4"><a xlink:href="classene_1_1views_1_1gui_1_1partial_1_1AbstractTrackListView.html#aebe5720136b8b2215b6ad365c723843e" target="_top" xlink:title="ene.views.gui.partial.Abstract\lTrackListView.valueChanged">
<polygon fill="none" stroke="#000000" points="399,-126.5 399,-156.5 545,-156.5 545,-126.5 399,-126.5"/>
<text text-anchor="start" x="407" y="-144.5" font-family="Helvetica,sans-Serif" font-size="10.00" fill="#000000">ene.views.gui.partial.Abstract</text>
<text text-anchor="middle" x="472" y="-133.5" font-family="Helvetica,sans-Serif" font-size="10.00" fill="#000000">TrackListView.valueChanged</text>
</a>
</g>
</g>
<!-- Node17&#45;&gt;Node19 -->
<g id="edge3" class="edge">
<title>Node17&#45;&gt;Node19</title>
<path fill="none" stroke="#191970" d="M373.2227,-141.5C381.8613,-141.5 390.5105,-141.5 398.9006,-141.5"/>
<polygon fill="#191970" stroke="#191970" points="373.1029,-138.0001 363.1029,-141.5 373.1029,-145.0001 373.1029,-138.0001"/>
</g>
<!-- Node20&#45;&gt;Node18 -->
<g id="edge7" class="edge">
<title>Node20&#45;&gt;Node18</title>
<path fill="none" stroke="#191970" d="M355.9394,-58.8172C422.7524,-63.2893 517.3033,-69.618 580.9944,-73.8812"/>
<polygon fill="#191970" stroke="#191970" points="356.0886,-55.3195 345.8772,-58.1437 355.621,-62.3038 356.0886,-55.3195"/>
</g>
<!-- Node21 -->
<g id="node6" class="node">
<title>Node21</title>
<g id="a_node6"><a xlink:href="classene_1_1views_1_1gui_1_1partial_1_1LibraryView.html#a363a0a2db7ab4295ef38bb667038a6f8" target="_top" xlink:title="ene.views.gui.partial.Library\lView.update">
<polygon fill="none" stroke="#000000" points="403,-.5 403,-30.5 541,-30.5 541,-.5 403,-.5"/>
<text text-anchor="start" x="411" y="-18.5" font-family="Helvetica,sans-Serif" font-size="10.00" fill="#000000">ene.views.gui.partial.Library</text>
<text text-anchor="middle" x="472" y="-7.5" font-family="Helvetica,sans-Serif" font-size="10.00" fill="#000000">View.update</text>
</a>
</g>
</g>
<!-- Node20&#45;&gt;Node21 -->
<g id="edge5" class="edge">
<title>Node20&#45;&gt;Node21</title>
<path fill="none" stroke="#191970" d="M355.8363,-38.0791C371.428,-35.0485 387.6683,-31.8918 402.8919,-28.9328"/>
<polygon fill="#191970" stroke="#191970" points="354.8496,-34.7053 345.7011,-40.0491 356.1852,-41.5767 354.8496,-34.7053"/>
</g>
<!-- Node21&#45;&gt;Node18 -->
<g id="edge6" class="edge">
<title>Node21&#45;&gt;Node18</title>
<path fill="none" stroke="#191970" d="M524.1328,-33.9515C550.6222,-43.327 582.4043,-54.5757 607.4043,-63.424"/>
<polygon fill="#191970" stroke="#191970" points="525.2302,-30.6272 514.6354,-30.5901 522.8946,-37.2261 525.2302,-30.6272"/>
</g>
</g>
</svg>
