<?xml version="1.0" encoding="UTF-8" standalone="no"?>
<!DOCTYPE svg PUBLIC "-//W3C//DTD SVG 1.1//EN"
 "http://www.w3.org/Graphics/SVG/1.1/DTD/svg11.dtd">
<!-- Generated by graphviz version 2.40.1 (20161225.0304)
 -->
<!-- Title: ene.views.gui.partial.PlaylistView.update Pages: 1 -->
<svg width="516pt" height="284pt"
 viewBox="0.00 0.00 516.00 284.00" xmlns="http://www.w3.org/2000/svg" xmlns:xlink="http://www.w3.org/1999/xlink">
<g id="graph0" class="graph" transform="scale(1 1) rotate(0) translate(4 280)">
<title>ene.views.gui.partial.PlaylistView.update</title>
<!-- Node61 -->
<g id="node1" class="node">
<title>Node61</title>
<polygon fill="#bfbfbf" stroke="#000000" points="0,-169.5 0,-199.5 141,-199.5 141,-169.5 0,-169.5"/>
<text text-anchor="start" x="8" y="-187.5" font-family="Helvetica,sans-Serif" font-size="10.00" fill="#000000">ene.views.gui.partial.Playlist</text>
<text text-anchor="middle" x="70.5" y="-176.5" font-family="Helvetica,sans-Serif" font-size="10.00" fill="#000000">View.update</text>
</g>
<!-- Node62 -->
<g id="node2" class="node">
<title>Node62</title>
<g id="a_node2"><a xlink:href="classene_1_1views_1_1AbstractPartialView.html#afb90f9e02eea94a2fb276d711a67ee36" target="_top" xlink:title="ene.views.AbstractPartial\lView.getModel">
<polygon fill="none" stroke="#000000" points="367,-245.5 367,-275.5 495,-275.5 495,-245.5 367,-245.5"/>
<text text-anchor="start" x="375" y="-263.5" font-family="Helvetica,sans-Serif" font-size="10.00" fill="#000000">ene.views.AbstractPartial</text>
<text text-anchor="middle" x="431" y="-252.5" font-family="Helvetica,sans-Serif" font-size="10.00" fill="#000000">View.getModel</text>
</a>
</g>
</g>
<!-- Node61&#45;&gt;Node62 -->
<g id="edge1" class="edge">
<title>Node61&#45;&gt;Node62</title>
<path fill="none" stroke="#191970" d="M141.2931,-199.4245C203.4806,-212.5348 293.6432,-231.5427 356.8205,-244.8616"/>
<polygon fill="#191970" stroke="#191970" points="356.213,-248.3104 366.7199,-246.9486 357.657,-241.4609 356.213,-248.3104"/>
</g>
<!-- Node63 -->
<g id="node3" class="node">
<title>Node63</title>
<g id="a_node3"><a xlink:href="classene_1_1views_1_1gui_1_1partial_1_1PlaylistView.html#aab891c82686652a49db41a3e1bc1f3b9" target="_top" xlink:title="ene.views.gui.partial.Playlist\lView.loadContent">
<polygon fill="none" stroke="#000000" points="177,-147.5 177,-177.5 318,-177.5 318,-147.5 177,-147.5"/>
<text text-anchor="start" x="185" y="-165.5" font-family="Helvetica,sans-Serif" font-size="10.00" fill="#000000">ene.views.gui.partial.Playlist</text>
<text text-anchor="middle" x="247.5" y="-154.5" font-family="Helvetica,sans-Serif" font-size="10.00" fill="#000000">View.loadContent</text>
</a>
</g>
</g>
<!-- Node61&#45;&gt;Node63 -->
<g id="edge2" class="edge">
<title>Node61&#45;&gt;Node63</title>
<path fill="none" stroke="#191970" d="M141.2182,-175.7102C149.6618,-174.6607 158.3306,-173.5832 166.8998,-172.5181"/>
<polygon fill="#191970" stroke="#191970" points="167.4023,-175.9827 176.8942,-171.2759 166.5388,-169.0361 167.4023,-175.9827"/>
</g>
<!-- Node63&#45;&gt;Node62 -->
<g id="edge5" class="edge">
<title>Node63&#45;&gt;Node62</title>
<path fill="none" stroke="#191970" d="M265.6527,-177.719C286.0303,-194.1594 320.6252,-220.1843 354,-236.5 357.8211,-238.368 361.8194,-240.1306 365.8992,-241.7864"/>
<polygon fill="#191970" stroke="#191970" points="364.9305,-245.1628 375.5212,-245.456 367.4248,-238.6223 364.9305,-245.1628"/>
</g>
<!-- Node64 -->
<g id="node4" class="node">
<title>Node64</title>
<g id="a_node4"><a xlink:href="classene_1_1models_1_1TrackModel.html#a04afba3cc5098c28ebd394fb7ac920ba" target="_top" xlink:title="ene.models.TrackModel.get\lArtist">
<polygon fill="none" stroke="#000000" points="362.5,-196.5 362.5,-226.5 499.5,-226.5 499.5,-196.5 362.5,-196.5"/>
<text text-anchor="start" x="370.5" y="-214.5" font-family="Helvetica,sans-Serif" font-size="10.00" fill="#000000">ene.models.TrackModel.get</text>
<text text-anchor="middle" x="431" y="-203.5" font-family="Helvetica,sans-Serif" font-size="10.00" fill="#000000">Artist</text>
</a>
</g>
</g>
<!-- Node63&#45;&gt;Node64 -->
<g id="edge3" class="edge">
<title>Node63&#45;&gt;Node64</title>
<path fill="none" stroke="#191970" d="M303.8031,-177.5346C323.1781,-182.7083 345.0453,-188.5475 365.1144,-193.9066"/>
<polygon fill="#191970" stroke="#191970" points="364.2389,-197.2954 374.8034,-196.4938 366.0449,-190.5323 364.2389,-197.2954"/>
</g>
<!-- Node65 -->
<g id="node5" class="node">
<title>Node65</title>
<g id="a_node5"><a xlink:href="classene_1_1models_1_1TrackModel.html#aab88fe151b093dba71ad9f9ab5c6959d" target="_top" xlink:title="ene.models.TrackModel.get\lFilename">
<polygon fill="none" stroke="#000000" points="362.5,-147.5 362.5,-177.5 499.5,-177.5 499.5,-147.5 362.5,-147.5"/>
<text text-anchor="start" x="370.5" y="-165.5" font-family="Helvetica,sans-Serif" font-size="10.00" fill="#000000">ene.models.TrackModel.get</text>
<text text-anchor="middle" x="431" y="-154.5" font-family="Helvetica,sans-Serif" font-size="10.00" fill="#000000">Filename</text>
</a>
</g>
</g>
<!-- Node63&#45;&gt;Node65 -->
<g id="edge4" class="edge">
<title>Node63&#45;&gt;Node65</title>
<path fill="none" stroke="#191970" d="M318.1834,-162.5C329.3145,-162.5 340.8829,-162.5 352.1841,-162.5"/>
<polygon fill="#191970" stroke="#191970" points="352.4676,-166.0001 362.4675,-162.5 352.4675,-159.0001 352.4676,-166.0001"/>
</g>
<!-- Node66 -->
<g id="node6" class="node">
<title>Node66</title>
<g id="a_node6"><a xlink:href="interfaceene_1_1interfaces_1_1Localization.html#ae7d5c65647a8bd1ca0c27b3279b0751c" target="_top" xlink:title="ene.interfaces.Localization.get\lString">
<polygon fill="none" stroke="#000000" points="356.5,-98.5 356.5,-128.5 505.5,-128.5 505.5,-98.5 356.5,-98.5"/>
<text text-anchor="start" x="364.5" y="-116.5" font-family="Helvetica,sans-Serif" font-size="10.00" fill="#000000">ene.interfaces.Localization.get</text>
<text text-anchor="middle" x="431" y="-105.5" font-family="Helvetica,sans-Serif" font-size="10.00" fill="#000000">String</text>
</a>
</g>
</g>
<!-- Node63&#45;&gt;Node66 -->
<g id="edge6" class="edge">
<title>Node63&#45;&gt;Node66</title>
<path fill="none" stroke="#191970" d="M303.8031,-147.4654C323.1781,-142.2917 345.0453,-136.4525 365.1144,-131.0934"/>
<polygon fill="#191970" stroke="#191970" points="366.0449,-134.4677 374.8034,-128.5062 364.2389,-127.7046 366.0449,-134.4677"/>
</g>
<!-- Node67 -->
<g id="node7" class="node">
<title>Node67</title>
<g id="a_node7"><a xlink:href="classene_1_1views_1_1gui_1_1partial_1_1AbstractTrackListView.html#a709dd0b919d5e537076fe18ad992f25f" target="_top" xlink:title="ene.views.gui.partial.Abstract\lTrackListView.getTableContent">
<polygon fill="none" stroke="#000000" points="354,-49.5 354,-79.5 508,-79.5 508,-49.5 354,-49.5"/>
<text text-anchor="start" x="362" y="-67.5" font-family="Helvetica,sans-Serif" font-size="10.00" fill="#000000">ene.views.gui.partial.Abstract</text>
<text text-anchor="middle" x="431" y="-56.5" font-family="Helvetica,sans-Serif" font-size="10.00" fill="#000000">TrackListView.getTableContent</text>
</a>
</g>
</g>
<!-- Node63&#45;&gt;Node67 -->
<g id="edge7" class="edge">
<title>Node63&#45;&gt;Node67</title>
<path fill="none" stroke="#191970" d="M266.0981,-147.2829C286.5857,-131.1285 321.0168,-105.7354 354,-89.5 358.5337,-87.2684 363.3127,-85.1704 368.1787,-83.2127"/>
<polygon fill="#191970" stroke="#191970" points="369.5034,-86.4535 377.6019,-79.6224 367.011,-79.9122 369.5034,-86.4535"/>
</g>
<!-- Node68 -->
<g id="node8" class="node">
<title>Node68</title>
<g id="a_node8"><a xlink:href="classene_1_1models_1_1TrackModel.html#a5bac0e2b6c87c93eef2802d9d10bf3c1" target="_top" xlink:title="ene.models.TrackModel.get\lTitle">
<polygon fill="none" stroke="#000000" points="362.5,-.5 362.5,-30.5 499.5,-30.5 499.5,-.5 362.5,-.5"/>
<text text-anchor="start" x="370.5" y="-18.5" font-family="Helvetica,sans-Serif" font-size="10.00" fill="#000000">ene.models.TrackModel.get</text>
<text text-anchor="middle" x="431" y="-7.5" font-family="Helvetica,sans-Serif" font-size="10.00" fill="#000000">Title</text>
</a>
</g>
</g>
<!-- Node63&#45;&gt;Node68 -->
<g id="edge8" class="edge">
<title>Node63&#45;&gt;Node68</title>
<path fill="none" stroke="#191970" d="M256.6466,-147.2318C272.9609,-121.287 309.571,-68.5867 354,-39.5 356.5535,-37.8283 359.2304,-36.2672 361.9912,-34.8101"/>
<polygon fill="#191970" stroke="#191970" points="363.519,-37.9592 371.0452,-30.5021 360.5114,-31.6382 363.519,-37.9592"/>
</g>
</g>
</svg>
