<?xml version="1.0" encoding="UTF-8" standalone="no"?>
<!DOCTYPE svg PUBLIC "-//W3C//DTD SVG 1.1//EN"
 "http://www.w3.org/Graphics/SVG/1.1/DTD/svg11.dtd">
<!-- Generated by graphviz version 2.40.1 (20161225.0304)
 -->
<!-- Title: ene.models.PlayerModel.load Pages: 1 -->
<svg width="353pt" height="116pt"
 viewBox="0.00 0.00 353.00 115.50" xmlns="http://www.w3.org/2000/svg" xmlns:xlink="http://www.w3.org/1999/xlink">
<g id="graph0" class="graph" transform="scale(1 1) rotate(0) translate(4 111.5)">
<title>ene.models.PlayerModel.load</title>
<!-- Node45 -->
<g id="node1" class="node">
<title>Node45</title>
<polygon fill="#bfbfbf" stroke="#000000" points="0,-38.5 0,-57.5 145,-57.5 145,-38.5 0,-38.5"/>
<text text-anchor="middle" x="72.5" y="-45.5" font-family="Helvetica,sans-Serif" font-size="10.00" fill="#000000">ene.models.PlayerModel.load</text>
</g>
<!-- Node46 -->
<g id="node2" class="node">
<title>Node46</title>
<g id="a_node2"><a xlink:href="classene_1_1models_1_1PlayerModel.html#acfe1fde39cea80b94ae65ed401706d70" target="_top" xlink:title="ene.models.PlayerModel.load\lPlaylist">
<polygon fill="none" stroke="#000000" points="190.5,-77 190.5,-107 335.5,-107 335.5,-77 190.5,-77"/>
<text text-anchor="start" x="198.5" y="-95" font-family="Helvetica,sans-Serif" font-size="10.00" fill="#000000">ene.models.PlayerModel.load</text>
<text text-anchor="middle" x="263" y="-84" font-family="Helvetica,sans-Serif" font-size="10.00" fill="#000000">Playlist</text>
</a>
</g>
</g>
<!-- Node45&#45;&gt;Node46 -->
<g id="edge1" class="edge">
<title>Node45&#45;&gt;Node46</title>
<path fill="none" stroke="#191970" d="M123.6457,-59.8132C146.4353,-65.0769 173.5477,-71.3391 197.7738,-76.9346"/>
<polygon fill="#191970" stroke="#191970" points="124.3668,-56.3877 113.8357,-57.5473 122.7915,-63.2081 124.3668,-56.3877"/>
</g>
<!-- Node47 -->
<g id="node3" class="node">
<title>Node47</title>
<g id="a_node3"><a xlink:href="classene_1_1models_1_1PlayerModel.html#a384fd9a2e98fc581e8221659257a8dd4" target="_top" xlink:title="ene.models.PlayerModel.next">
<polygon fill="none" stroke="#000000" points="190,-38.5 190,-57.5 336,-57.5 336,-38.5 190,-38.5"/>
<text text-anchor="middle" x="263" y="-45.5" font-family="Helvetica,sans-Serif" font-size="10.00" fill="#000000">ene.models.PlayerModel.next</text>
</a>
</g>
</g>
<!-- Node45&#45;&gt;Node47 -->
<g id="edge2" class="edge">
<title>Node45&#45;&gt;Node47</title>
<path fill="none" stroke="#191970" d="M155.0965,-48C166.6067,-48 178.3679,-48 189.6915,-48"/>
<polygon fill="#191970" stroke="#191970" points="155.0634,-44.5001 145.0633,-48 155.0633,-51.5001 155.0634,-44.5001"/>
</g>
<!-- Node48 -->
<g id="node4" class="node">
<title>Node48</title>
<g id="a_node4"><a xlink:href="classene_1_1models_1_1PlayerModel.html#a7242e20d537405f031ec8d18e7faf8fc" target="_top" xlink:title="ene.models.PlayerModel.previous">
<polygon fill="none" stroke="#000000" points="181,-.5 181,-19.5 345,-19.5 345,-.5 181,-.5"/>
<text text-anchor="middle" x="263" y="-7.5" font-family="Helvetica,sans-Serif" font-size="10.00" fill="#000000">ene.models.PlayerModel.previous</text>
</a>
</g>
</g>
<!-- Node45&#45;&gt;Node48 -->
<g id="edge3" class="edge">
<title>Node45&#45;&gt;Node48</title>
<path fill="none" stroke="#191970" d="M130.7003,-36.3905C157.7938,-30.986 189.625,-24.6365 215.2745,-19.5201"/>
<polygon fill="#191970" stroke="#191970" points="129.6933,-33.0223 120.5712,-38.411 131.0627,-39.8871 129.6933,-33.0223"/>
</g>
</g>
</svg>
