<?xml version="1.0" encoding="UTF-8" standalone="no"?>
<!DOCTYPE svg PUBLIC "-//W3C//DTD SVG 1.1//EN"
 "http://www.w3.org/Graphics/SVG/1.1/DTD/svg11.dtd">
<!-- Generated by graphviz version 2.40.1 (20161225.0304)
 -->
<!-- Title: ene.views.gui.partial.ContentView.render Pages: 1 -->
<svg width="326pt" height="88pt"
 viewBox="0.00 0.00 326.00 88.00" xmlns="http://www.w3.org/2000/svg" xmlns:xlink="http://www.w3.org/1999/xlink">
<g id="graph0" class="graph" transform="scale(1 1) rotate(0) translate(4 84)">
<title>ene.views.gui.partial.ContentView.render</title>
<!-- Node9 -->
<g id="node1" class="node">
<title>Node9</title>
<polygon fill="#bfbfbf" stroke="#000000" points="0,-24.5 0,-54.5 143,-54.5 143,-24.5 0,-24.5"/>
<text text-anchor="start" x="8" y="-42.5" font-family="Helvetica,sans-Serif" font-size="10.00" fill="#000000">ene.views.gui.partial.Content</text>
<text text-anchor="middle" x="71.5" y="-31.5" font-family="Helvetica,sans-Serif" font-size="10.00" fill="#000000">View.render</text>
</g>
<!-- Node10 -->
<g id="node2" class="node">
<title>Node10</title>
<g id="a_node2"><a xlink:href="classene_1_1views_1_1AbstractMasterView.html#ae25938d2b597c1fc203da53e027d3648" target="_top" xlink:title="ene.views.AbstractMaster\lView.getAllViews">
<polygon fill="none" stroke="#000000" points="183,-49.5 183,-79.5 314,-79.5 314,-49.5 183,-49.5"/>
<text text-anchor="start" x="191" y="-67.5" font-family="Helvetica,sans-Serif" font-size="10.00" fill="#000000">ene.views.AbstractMaster</text>
<text text-anchor="middle" x="248.5" y="-56.5" font-family="Helvetica,sans-Serif" font-size="10.00" fill="#000000">View.getAllViews</text>
</a>
</g>
</g>
<!-- Node9&#45;&gt;Node10 -->
<g id="edge1" class="edge">
<title>Node9&#45;&gt;Node10</title>
<path fill="none" stroke="#191970" d="M143.2375,-49.6324C152.9813,-51.0087 163.0064,-52.4246 172.8169,-53.8103"/>
<polygon fill="#191970" stroke="#191970" points="172.5507,-57.3074 182.942,-55.2404 173.5298,-50.3762 172.5507,-57.3074"/>
</g>
<!-- Node11 -->
<g id="node3" class="node">
<title>Node11</title>
<g id="a_node3"><a xlink:href="classene_1_1views_1_1AbstractView.html#a8b774594825c8749280b5b17013ad7dc" target="_top" xlink:title="ene.views.AbstractView.get\lCoreComponent">
<polygon fill="none" stroke="#000000" points="179,-.5 179,-30.5 318,-30.5 318,-.5 179,-.5"/>
<text text-anchor="start" x="187" y="-18.5" font-family="Helvetica,sans-Serif" font-size="10.00" fill="#000000">ene.views.AbstractView.get</text>
<text text-anchor="middle" x="248.5" y="-7.5" font-family="Helvetica,sans-Serif" font-size="10.00" fill="#000000">CoreComponent</text>
</a>
</g>
</g>
<!-- Node9&#45;&gt;Node11 -->
<g id="edge2" class="edge">
<title>Node9&#45;&gt;Node11</title>
<path fill="none" stroke="#191970" d="M143.2375,-29.7729C151.7093,-28.6242 160.3938,-27.4466 168.965,-26.2844"/>
<polygon fill="#191970" stroke="#191970" points="169.5162,-29.7418 178.9552,-24.9298 168.5756,-22.8053 169.5162,-29.7418"/>
</g>
</g>
</svg>
