<?xml version="1.0" encoding="UTF-8" standalone="no"?>
<!DOCTYPE svg PUBLIC "-//W3C//DTD SVG 1.1//EN"
 "http://www.w3.org/Graphics/SVG/1.1/DTD/svg11.dtd">
<!-- Generated by graphviz version 2.40.1 (20161225.0304)
 -->
<!-- Title: ene.controllers.LibraryController.saveToFile Pages: 1 -->
<svg width="587pt" height="104pt"
 viewBox="0.00 0.00 587.00 104.00" xmlns="http://www.w3.org/2000/svg" xmlns:xlink="http://www.w3.org/1999/xlink">
<g id="graph0" class="graph" transform="scale(1 1) rotate(0) translate(4 100)">
<title>ene.controllers.LibraryController.saveToFile</title>
<!-- Node85 -->
<g id="node1" class="node">
<title>Node85</title>
<polygon fill="#bfbfbf" stroke="#000000" points="0,-33 0,-63 179,-63 179,-33 0,-33"/>
<text text-anchor="start" x="8" y="-51" font-family="Helvetica,sans-Serif" font-size="10.00" fill="#000000">ene.controllers.LibraryController.save</text>
<text text-anchor="middle" x="89.5" y="-40" font-family="Helvetica,sans-Serif" font-size="10.00" fill="#000000">ToFile</text>
</g>
<!-- Node86 -->
<g id="node2" class="node">
<title>Node86</title>
<g id="a_node2"><a xlink:href="classene_1_1controllers_1_1LibraryController.html#aa0d66e53872a376fe6d456eb070de8d4" target="_top" xlink:title="ene.controllers.LibraryController.add">
<polygon fill="none" stroke="#000000" points="223.5,-76.5 223.5,-95.5 396.5,-95.5 396.5,-76.5 223.5,-76.5"/>
<text text-anchor="middle" x="310" y="-83.5" font-family="Helvetica,sans-Serif" font-size="10.00" fill="#000000">ene.controllers.LibraryController.add</text>
</a>
</g>
</g>
<!-- Node85&#45;&gt;Node86 -->
<g id="edge1" class="edge">
<title>Node85&#45;&gt;Node86</title>
<path fill="none" stroke="#191970" d="M186.6075,-64.7351C209.991,-68.7649 234.1746,-72.9326 254.8696,-76.4991"/>
<polygon fill="#191970" stroke="#191970" points="187.0966,-61.2679 176.6474,-63.0186 185.9077,-68.1662 187.0966,-61.2679"/>
</g>
<!-- Node88 -->
<g id="node4" class="node">
<title>Node88</title>
<g id="a_node4"><a xlink:href="classene_1_1controllers_1_1LibraryController.html#a9e4da87d9fab61b162c2f57e97852be5" target="_top" xlink:title="ene.controllers.LibraryController.edit">
<polygon fill="none" stroke="#000000" points="223.5,-38.5 223.5,-57.5 396.5,-57.5 396.5,-38.5 223.5,-38.5"/>
<text text-anchor="middle" x="310" y="-45.5" font-family="Helvetica,sans-Serif" font-size="10.00" fill="#000000">ene.controllers.LibraryController.edit</text>
</a>
</g>
</g>
<!-- Node85&#45;&gt;Node88 -->
<g id="edge3" class="edge">
<title>Node85&#45;&gt;Node88</title>
<path fill="none" stroke="#191970" d="M189.4816,-48C200.7516,-48 212.166,-48 223.2482,-48"/>
<polygon fill="#191970" stroke="#191970" points="189.1858,-44.5001 179.1858,-48 189.1858,-51.5001 189.1858,-44.5001"/>
</g>
<!-- Node89 -->
<g id="node5" class="node">
<title>Node89</title>
<g id="a_node5"><a xlink:href="classene_1_1controllers_1_1LibraryController.html#aac7853b4f42ee8c4d8704e036eca61a0" target="_top" xlink:title="ene.controllers.LibraryController.remove">
<polygon fill="none" stroke="#000000" points="215,-.5 215,-19.5 405,-19.5 405,-.5 215,-.5"/>
<text text-anchor="middle" x="310" y="-7.5" font-family="Helvetica,sans-Serif" font-size="10.00" fill="#000000">ene.controllers.LibraryController.remove</text>
</a>
</g>
</g>
<!-- Node85&#45;&gt;Node89 -->
<g id="edge5" class="edge">
<title>Node85&#45;&gt;Node89</title>
<path fill="none" stroke="#191970" d="M186.6075,-31.2649C209.991,-27.2351 234.1746,-23.0674 254.8696,-19.5009"/>
<polygon fill="#191970" stroke="#191970" points="185.9077,-27.8338 176.6474,-32.9814 187.0966,-34.7321 185.9077,-27.8338"/>
</g>
<!-- Node87 -->
<g id="node3" class="node">
<title>Node87</title>
<g id="a_node3"><a xlink:href="classene_1_1views_1_1gui_1_1partial_1_1LibraryView.html#a0bd6885fe06ebde4d3dffbcd888c0b41" target="_top" xlink:title="ene.views.gui.partial.Library\lView.render">
<polygon fill="none" stroke="#000000" points="441,-52 441,-82 579,-82 579,-52 441,-52"/>
<text text-anchor="start" x="449" y="-70" font-family="Helvetica,sans-Serif" font-size="10.00" fill="#000000">ene.views.gui.partial.Library</text>
<text text-anchor="middle" x="510" y="-59" font-family="Helvetica,sans-Serif" font-size="10.00" fill="#000000">View.render</text>
</a>
</g>
</g>
<!-- Node86&#45;&gt;Node87 -->
<g id="edge2" class="edge">
<title>Node86&#45;&gt;Node87</title>
<path fill="none" stroke="#191970" d="M406.6515,-76.8181C418.1701,-75.7238 429.7481,-74.6239 440.7731,-73.5766"/>
<polygon fill="#191970" stroke="#191970" points="406.1838,-73.3467 396.5597,-77.7768 406.8459,-80.3153 406.1838,-73.3467"/>
</g>
<!-- Node88&#45;&gt;Node87 -->
<g id="edge4" class="edge">
<title>Node88&#45;&gt;Node87</title>
<path fill="none" stroke="#191970" d="M406.6515,-57.1819C418.1701,-58.2762 429.7481,-59.3761 440.7731,-60.4234"/>
<polygon fill="#191970" stroke="#191970" points="406.8459,-53.6847 396.5597,-56.2232 406.1838,-60.6533 406.8459,-53.6847"/>
</g>
</g>
</svg>
