<?xml version="1.0" encoding="UTF-8" standalone="no"?>
<!DOCTYPE svg PUBLIC "-//W3C//DTD SVG 1.1//EN"
 "http://www.w3.org/Graphics/SVG/1.1/DTD/svg11.dtd">
<!-- Generated by graphviz version 2.40.1 (20161225.0304)
 -->
<!-- Title: ene.views.gui.partial.PlayerView.initialize Pages: 1 -->
<svg width="545pt" height="430pt"
 viewBox="0.00 0.00 545.00 430.00" xmlns="http://www.w3.org/2000/svg" xmlns:xlink="http://www.w3.org/1999/xlink">
<g id="graph0" class="graph" transform="scale(1 1) rotate(0) translate(4 426)">
<title>ene.views.gui.partial.PlayerView.initialize</title>
<!-- Node41 -->
<g id="node1" class="node">
<title>Node41</title>
<polygon fill="#bfbfbf" stroke="#000000" points="0,-195.5 0,-225.5 137,-225.5 137,-195.5 0,-195.5"/>
<text text-anchor="start" x="8" y="-213.5" font-family="Helvetica,sans-Serif" font-size="10.00" fill="#000000">ene.views.gui.partial.Player</text>
<text text-anchor="middle" x="68.5" y="-202.5" font-family="Helvetica,sans-Serif" font-size="10.00" fill="#000000">View.initialize</text>
</g>
<!-- Node42 -->
<g id="node2" class="node">
<title>Node42</title>
<g id="a_node2"><a xlink:href="classene_1_1controllers_1_1PlayerController.html#a4431d7fb8789a039aba690fa30c7f76f" target="_top" xlink:title="ene.controllers.PlayerController.change\lTrackPosition">
<polygon fill="none" stroke="#000000" points="173,-318.5 173,-348.5 361,-348.5 361,-318.5 173,-318.5"/>
<text text-anchor="start" x="181" y="-336.5" font-family="Helvetica,sans-Serif" font-size="10.00" fill="#000000">ene.controllers.PlayerController.change</text>
<text text-anchor="middle" x="267" y="-325.5" font-family="Helvetica,sans-Serif" font-size="10.00" fill="#000000">TrackPosition</text>
</a>
</g>
</g>
<!-- Node41&#45;&gt;Node42 -->
<g id="edge1" class="edge">
<title>Node41&#45;&gt;Node42</title>
<path fill="none" stroke="#191970" d="M80.2477,-225.7495C97.9509,-247.653 133.6133,-287.7688 173,-309.5 176.2905,-311.3155 179.7214,-312.9968 183.2434,-314.5536"/>
<polygon fill="#191970" stroke="#191970" points="182.1617,-317.8913 192.7448,-318.3901 184.7827,-311.4005 182.1617,-317.8913"/>
</g>
<!-- Node44 -->
<g id="node4" class="node">
<title>Node44</title>
<g id="a_node4"><a xlink:href="classene_1_1AbstractObject.html#aff9619cf289ec83735b6c6ca2c12e020" target="_top" xlink:title="ene.AbstractObject.debug\lInfoAbout">
<polygon fill="none" stroke="#000000" points="202,-367.5 202,-397.5 332,-397.5 332,-367.5 202,-367.5"/>
<text text-anchor="start" x="210" y="-385.5" font-family="Helvetica,sans-Serif" font-size="10.00" fill="#000000">ene.AbstractObject.debug</text>
<text text-anchor="middle" x="267" y="-374.5" font-family="Helvetica,sans-Serif" font-size="10.00" fill="#000000">InfoAbout</text>
</a>
</g>
</g>
<!-- Node41&#45;&gt;Node44 -->
<g id="edge3" class="edge">
<title>Node41&#45;&gt;Node44</title>
<path fill="none" stroke="#191970" d="M74.8673,-225.78C88.2923,-256.0515 122.4817,-323.7164 173,-358.5 178.9132,-362.5714 185.4633,-365.9524 192.2742,-368.76"/>
<polygon fill="#191970" stroke="#191970" points="191.095,-372.0556 201.6882,-372.2441 193.5247,-365.4907 191.095,-372.0556"/>
</g>
<!-- Node47 -->
<g id="node7" class="node">
<title>Node47</title>
<g id="a_node7"><a xlink:href="classene_1_1views_1_1gui_1_1partial_1_1PlayerView.html#a7126e270c8cc5956e79773eddc508655" target="_top" xlink:title="ene.views.gui.partial.Player\lView.disablePlayerControls">
<polygon fill="none" stroke="#000000" points="198.5,-269.5 198.5,-299.5 335.5,-299.5 335.5,-269.5 198.5,-269.5"/>
<text text-anchor="start" x="206.5" y="-287.5" font-family="Helvetica,sans-Serif" font-size="10.00" fill="#000000">ene.views.gui.partial.Player</text>
<text text-anchor="middle" x="267" y="-276.5" font-family="Helvetica,sans-Serif" font-size="10.00" fill="#000000">View.disablePlayerControls</text>
</a>
</g>
</g>
<!-- Node41&#45;&gt;Node47 -->
<g id="edge6" class="edge">
<title>Node41&#45;&gt;Node47</title>
<path fill="none" stroke="#191970" d="M97.1871,-225.6526C117.8583,-236.1471 146.6402,-249.9018 173,-259.5 179.8181,-261.9826 186.9956,-264.3362 194.2198,-266.534"/>
<polygon fill="#191970" stroke="#191970" points="193.4893,-269.9673 204.0706,-269.432 195.465,-263.2519 193.4893,-269.9673"/>
</g>
<!-- Node48 -->
<g id="node8" class="node">
<title>Node48</title>
<g id="a_node8"><a xlink:href="classene_1_1views_1_1gui_1_1partial_1_1PlayerView.html#a4dc768b48e41f0ea98929d8069ef790a" target="_top" xlink:title="ene.views.gui.partial.Player\lView.getPlayerController">
<polygon fill="none" stroke="#000000" points="198.5,-220.5 198.5,-250.5 335.5,-250.5 335.5,-220.5 198.5,-220.5"/>
<text text-anchor="start" x="206.5" y="-238.5" font-family="Helvetica,sans-Serif" font-size="10.00" fill="#000000">ene.views.gui.partial.Player</text>
<text text-anchor="middle" x="267" y="-227.5" font-family="Helvetica,sans-Serif" font-size="10.00" fill="#000000">View.getPlayerController</text>
</a>
</g>
</g>
<!-- Node41&#45;&gt;Node48 -->
<g id="edge7" class="edge">
<title>Node41&#45;&gt;Node48</title>
<path fill="none" stroke="#191970" d="M137.0904,-219.1386C153.5162,-221.2073 171.1843,-223.4325 188.0373,-225.5551"/>
<polygon fill="#191970" stroke="#191970" points="188.0479,-229.084 198.4069,-226.8611 188.9227,-222.1388 188.0479,-229.084"/>
</g>
<!-- Node49 -->
<g id="node9" class="node">
<title>Node49</title>
<g id="a_node9"><a xlink:href="interfaceene_1_1interfaces_1_1Localization.html#ae7d5c65647a8bd1ca0c27b3279b0751c" target="_top" xlink:title="ene.interfaces.Localization.get\lString">
<polygon fill="none" stroke="#000000" points="192.5,-171.5 192.5,-201.5 341.5,-201.5 341.5,-171.5 192.5,-171.5"/>
<text text-anchor="start" x="200.5" y="-189.5" font-family="Helvetica,sans-Serif" font-size="10.00" fill="#000000">ene.interfaces.Localization.get</text>
<text text-anchor="middle" x="267" y="-178.5" font-family="Helvetica,sans-Serif" font-size="10.00" fill="#000000">String</text>
</a>
</g>
</g>
<!-- Node41&#45;&gt;Node49 -->
<g id="edge8" class="edge">
<title>Node41&#45;&gt;Node49</title>
<path fill="none" stroke="#191970" d="M137.0904,-202.207C151.5674,-200.4566 167.0094,-198.5895 182.0078,-196.7761"/>
<polygon fill="#191970" stroke="#191970" points="182.7956,-200.2065 192.3031,-195.5314 181.9553,-193.2571 182.7956,-200.2065"/>
</g>
<!-- Node50 -->
<g id="node10" class="node">
<title>Node50</title>
<g id="a_node10"><a xlink:href="classene_1_1views_1_1AbstractView.html#aa9bee221c279bc8a9dbada91184d8181" target="_top" xlink:title="ene.views.AbstractView.set\lCoreComponent">
<polygon fill="none" stroke="#000000" points="197.5,-122.5 197.5,-152.5 336.5,-152.5 336.5,-122.5 197.5,-122.5"/>
<text text-anchor="start" x="205.5" y="-140.5" font-family="Helvetica,sans-Serif" font-size="10.00" fill="#000000">ene.views.AbstractView.set</text>
<text text-anchor="middle" x="267" y="-129.5" font-family="Helvetica,sans-Serif" font-size="10.00" fill="#000000">CoreComponent</text>
</a>
</g>
</g>
<!-- Node41&#45;&gt;Node50 -->
<g id="edge9" class="edge">
<title>Node41&#45;&gt;Node50</title>
<path fill="none" stroke="#191970" d="M96.7164,-195.4916C117.4041,-184.9307 146.4041,-171.0344 173,-161.5 178.9828,-159.3552 185.2441,-157.3213 191.572,-155.4121"/>
<polygon fill="#191970" stroke="#191970" points="192.9132,-158.6673 201.5399,-152.5167 190.9605,-151.9451 192.9132,-158.6673"/>
</g>
<!-- Node51 -->
<g id="node11" class="node">
<title>Node51</title>
<g id="a_node11"><a xlink:href="classene_1_1controllers_1_1PlayerController.html#acea0cc4709105881026516d468c4baf8" target="_top" xlink:title="ene.controllers.PlayerController.toggle\lPlayback">
<polygon fill="none" stroke="#000000" points="176,-73.5 176,-103.5 358,-103.5 358,-73.5 176,-73.5"/>
<text text-anchor="start" x="184" y="-91.5" font-family="Helvetica,sans-Serif" font-size="10.00" fill="#000000">ene.controllers.PlayerController.toggle</text>
<text text-anchor="middle" x="267" y="-80.5" font-family="Helvetica,sans-Serif" font-size="10.00" fill="#000000">Playback</text>
</a>
</g>
</g>
<!-- Node41&#45;&gt;Node51 -->
<g id="edge10" class="edge">
<title>Node41&#45;&gt;Node51</title>
<path fill="none" stroke="#191970" d="M80.2829,-195.4089C98.0299,-173.7321 133.7463,-134.0283 173,-112.5 176.2951,-110.6929 179.7298,-109.0184 183.2549,-107.4673"/>
<polygon fill="#191970" stroke="#191970" points="184.7915,-110.6218 192.763,-103.6428 182.1792,-104.1275 184.7915,-110.6218"/>
</g>
<!-- Node52 -->
<g id="node12" class="node">
<title>Node52</title>
<g id="a_node12"><a xlink:href="classene_1_1views_1_1gui_1_1partial_1_1PlayerView.html#af324f1c0b5648dab2400b4c0ab33f3ca" target="_top" xlink:title="ene.views.gui.partial.Player\lView.updateProgress">
<polygon fill="none" stroke="#000000" points="198.5,-24.5 198.5,-54.5 335.5,-54.5 335.5,-24.5 198.5,-24.5"/>
<text text-anchor="start" x="206.5" y="-42.5" font-family="Helvetica,sans-Serif" font-size="10.00" fill="#000000">ene.views.gui.partial.Player</text>
<text text-anchor="middle" x="267" y="-31.5" font-family="Helvetica,sans-Serif" font-size="10.00" fill="#000000">View.updateProgress</text>
</a>
</g>
</g>
<!-- Node41&#45;&gt;Node52 -->
<g id="edge12" class="edge">
<title>Node41&#45;&gt;Node52</title>
<path fill="none" stroke="#191970" d="M74.8967,-195.3229C88.3744,-165.2552 122.6539,-98.0465 173,-63.5 177.8933,-60.1423 183.2203,-57.2543 188.7689,-54.7702"/>
<polygon fill="#191970" stroke="#191970" points="190.298,-57.928 198.2786,-50.9594 187.6942,-51.4303 190.298,-57.928"/>
</g>
<!-- Node43 -->
<g id="node3" class="node">
<title>Node43</title>
<g id="a_node3"><a xlink:href="classene_1_1controllers_1_1AbstractController.html#a9a5afba01d0004a64db4cb14c23e0bbd" target="_top" xlink:title="ene.controllers.Abstract\lController\&lt; PlayerModel\l \&gt;::getModel">
<polygon fill="none" stroke="#000000" points="406,-203 406,-244 528,-244 528,-203 406,-203"/>
<text text-anchor="start" x="414" y="-232" font-family="Helvetica,sans-Serif" font-size="10.00" fill="#000000">ene.controllers.Abstract</text>
<text text-anchor="start" x="414" y="-221" font-family="Helvetica,sans-Serif" font-size="10.00" fill="#000000">Controller&lt; PlayerModel</text>
<text text-anchor="middle" x="467" y="-210" font-family="Helvetica,sans-Serif" font-size="10.00" fill="#000000"> &gt;::getModel</text>
</a>
</g>
</g>
<!-- Node42&#45;&gt;Node43 -->
<g id="edge2" class="edge">
<title>Node42&#45;&gt;Node43</title>
<path fill="none" stroke="#191970" d="M339.5064,-318.4016C346.9325,-315.853 354.2281,-312.9041 361,-309.5 390.6639,-294.5884 419.607,-270.2407 439.7338,-251.2512"/>
<polygon fill="#191970" stroke="#191970" points="442.2158,-253.7201 446.999,-244.2664 437.3644,-248.6739 442.2158,-253.7201"/>
</g>
<!-- Node45 -->
<g id="node5" class="node">
<title>Node45</title>
<g id="a_node5"><a xlink:href="classene_1_1AbstractObject.html#a9ce30d3321c7ce794df2f07bdaf3e47c" target="_top" xlink:title="ene.AbstractObject.console\lOutput">
<polygon fill="none" stroke="#000000" points="398.5,-342.5 398.5,-372.5 535.5,-372.5 535.5,-342.5 398.5,-342.5"/>
<text text-anchor="start" x="406.5" y="-360.5" font-family="Helvetica,sans-Serif" font-size="10.00" fill="#000000">ene.AbstractObject.console</text>
<text text-anchor="middle" x="467" y="-349.5" font-family="Helvetica,sans-Serif" font-size="10.00" fill="#000000">Output</text>
</a>
</g>
</g>
<!-- Node44&#45;&gt;Node45 -->
<g id="edge4" class="edge">
<title>Node44&#45;&gt;Node45</title>
<path fill="none" stroke="#191970" d="M332.2107,-374.3487C350.1832,-372.1021 369.8683,-369.6415 388.5071,-367.3116"/>
<polygon fill="#191970" stroke="#191970" points="388.9505,-370.7835 398.4391,-366.0701 388.0822,-363.8376 388.9505,-370.7835"/>
</g>
<!-- Node46 -->
<g id="node6" class="node">
<title>Node46</title>
<g id="a_node6"><a xlink:href="classene_1_1AbstractObject.html#a6ee0b669069e0c3ee320a6cf41af24fe" target="_top" xlink:title="ene.AbstractObject.isDebug\lModeEnabled">
<polygon fill="none" stroke="#000000" points="397,-391.5 397,-421.5 537,-421.5 537,-391.5 397,-391.5"/>
<text text-anchor="start" x="405" y="-409.5" font-family="Helvetica,sans-Serif" font-size="10.00" fill="#000000">ene.AbstractObject.isDebug</text>
<text text-anchor="middle" x="467" y="-398.5" font-family="Helvetica,sans-Serif" font-size="10.00" fill="#000000">ModeEnabled</text>
</a>
</g>
</g>
<!-- Node44&#45;&gt;Node46 -->
<g id="edge5" class="edge">
<title>Node44&#45;&gt;Node46</title>
<path fill="none" stroke="#191970" d="M332.2107,-390.3253C349.6195,-392.4143 368.6351,-394.6962 386.7502,-396.87"/>
<polygon fill="#191970" stroke="#191970" points="386.3598,-400.3482 396.7056,-398.0647 387.1938,-393.3981 386.3598,-400.3482"/>
</g>
<!-- Node51&#45;&gt;Node43 -->
<g id="edge11" class="edge">
<title>Node51&#45;&gt;Node43</title>
<path fill="none" stroke="#191970" d="M342.4118,-103.6611C348.8913,-106.1744 355.1844,-109.0987 361,-112.5 396.5442,-133.2881 427.8009,-169.4253 446.9947,-194.8062"/>
<polygon fill="#191970" stroke="#191970" points="444.2688,-197.0065 453.0303,-202.9636 449.896,-192.8429 444.2688,-197.0065"/>
</g>
<!-- Node53 -->
<g id="node13" class="node">
<title>Node53</title>
<g id="a_node13"><a xlink:href="classene_1_1views_1_1AbstractPartialView.html#afb90f9e02eea94a2fb276d711a67ee36" target="_top" xlink:title="ene.views.AbstractPartial\lView.getModel">
<polygon fill="none" stroke="#000000" points="403,-.5 403,-30.5 531,-30.5 531,-.5 403,-.5"/>
<text text-anchor="start" x="411" y="-18.5" font-family="Helvetica,sans-Serif" font-size="10.00" fill="#000000">ene.views.AbstractPartial</text>
<text text-anchor="middle" x="467" y="-7.5" font-family="Helvetica,sans-Serif" font-size="10.00" fill="#000000">View.getModel</text>
</a>
</g>
</g>
<!-- Node52&#45;&gt;Node53 -->
<g id="edge13" class="edge">
<title>Node52&#45;&gt;Node53</title>
<path fill="none" stroke="#191970" d="M335.5488,-31.2741C354.0482,-29.0542 374.1462,-26.6425 392.9326,-24.3881"/>
<polygon fill="#191970" stroke="#191970" points="393.406,-27.8565 402.9177,-23.1899 392.5719,-20.9063 393.406,-27.8565"/>
</g>
<!-- Node54 -->
<g id="node14" class="node">
<title>Node54</title>
<g id="a_node14"><a xlink:href="classene_1_1views_1_1gui_1_1partial_1_1PlayerView.html#a5214bb8084cfb78242868039e33f78ef" target="_top" xlink:title="ene.views.gui.partial.Player\lView.formatTimeToString">
<polygon fill="none" stroke="#000000" points="398.5,-49.5 398.5,-79.5 535.5,-79.5 535.5,-49.5 398.5,-49.5"/>
<text text-anchor="start" x="406.5" y="-67.5" font-family="Helvetica,sans-Serif" font-size="10.00" fill="#000000">ene.views.gui.partial.Player</text>
<text text-anchor="middle" x="467" y="-56.5" font-family="Helvetica,sans-Serif" font-size="10.00" fill="#000000">View.formatTimeToString</text>
</a>
</g>
</g>
<!-- Node52&#45;&gt;Node54 -->
<g id="edge14" class="edge">
<title>Node52&#45;&gt;Node54</title>
<path fill="none" stroke="#191970" d="M335.5488,-48.0686C352.469,-50.1836 370.7267,-52.4658 388.0949,-54.6369"/>
<polygon fill="#191970" stroke="#191970" points="387.8445,-58.1327 398.2014,-55.9002 388.7128,-51.1868 387.8445,-58.1327"/>
</g>
</g>
</svg>
