<?xml version="1.0" encoding="UTF-8" standalone="no"?>
<!DOCTYPE svg PUBLIC "-//W3C//DTD SVG 1.1//EN"
 "http://www.w3.org/Graphics/SVG/1.1/DTD/svg11.dtd">
<!-- Generated by graphviz version 2.40.1 (20161225.0304)
 -->
<!-- Title: ene.models.LibraryModel Pages: 1 -->
<svg width="260pt" height="480pt"
 viewBox="0.00 0.00 260.00 480.00" xmlns="http://www.w3.org/2000/svg" xmlns:xlink="http://www.w3.org/1999/xlink">
<g id="graph0" class="graph" transform="scale(1 1) rotate(0) translate(4 476)">
<title>ene.models.LibraryModel</title>
<!-- Node0 -->
<g id="node1" class="node">
<title>Node0</title>
<polygon fill="#bfbfbf" stroke="#000000" points="68,-.5 68,-90.5 193,-90.5 193,-.5 68,-.5"/>
<text text-anchor="middle" x="130.5" y="-78.5" font-family="Helvetica,sans-Serif" font-size="10.00" fill="#000000">ene.models.LibraryModel</text>
<polyline fill="none" stroke="#000000" points="68,-71.5 193,-71.5 "/>
<text text-anchor="middle" x="130.5" y="-59.5" font-family="Helvetica,sans-Serif" font-size="10.00" fill="#000000"> </text>
<polyline fill="none" stroke="#000000" points="68,-52.5 193,-52.5 "/>
<text text-anchor="start" x="76" y="-40.5" font-family="Helvetica,sans-Serif" font-size="10.00" fill="#000000">+ getByArtist()</text>
<text text-anchor="start" x="76" y="-29.5" font-family="Helvetica,sans-Serif" font-size="10.00" fill="#000000">+ getByTitle()</text>
<text text-anchor="start" x="76" y="-18.5" font-family="Helvetica,sans-Serif" font-size="10.00" fill="#000000">+ getByGenre()</text>
<text text-anchor="start" x="76" y="-7.5" font-family="Helvetica,sans-Serif" font-size="10.00" fill="#000000">+ search()</text>
</g>
<!-- Node1 -->
<g id="node2" class="node">
<title>Node1</title>
<g id="a_node2"><a xlink:href="classene_1_1models_1_1TrackListModel.html" target="_top" xlink:title="{ene.models.TrackListModel\n|# tracks\l|+ add()\l+ remove()\l+ get()\l+ getAll()\l}">
<polygon fill="none" stroke="#000000" points="62,-127.5 62,-217.5 199,-217.5 199,-127.5 62,-127.5"/>
<text text-anchor="middle" x="130.5" y="-205.5" font-family="Helvetica,sans-Serif" font-size="10.00" fill="#000000">ene.models.TrackListModel</text>
<polyline fill="none" stroke="#000000" points="62,-198.5 199,-198.5 "/>
<text text-anchor="start" x="70" y="-186.5" font-family="Helvetica,sans-Serif" font-size="10.00" fill="#000000"># tracks</text>
<polyline fill="none" stroke="#000000" points="62,-179.5 199,-179.5 "/>
<text text-anchor="start" x="70" y="-167.5" font-family="Helvetica,sans-Serif" font-size="10.00" fill="#000000">+ add()</text>
<text text-anchor="start" x="70" y="-156.5" font-family="Helvetica,sans-Serif" font-size="10.00" fill="#000000">+ remove()</text>
<text text-anchor="start" x="70" y="-145.5" font-family="Helvetica,sans-Serif" font-size="10.00" fill="#000000">+ get()</text>
<text text-anchor="start" x="70" y="-134.5" font-family="Helvetica,sans-Serif" font-size="10.00" fill="#000000">+ getAll()</text>
</a>
</g>
</g>
<!-- Node1&#45;&gt;Node0 -->
<g id="edge1" class="edge">
<title>Node1&#45;&gt;Node0</title>
<path fill="none" stroke="#191970" d="M130.5,-117.2012C130.5,-108.4232 130.5,-99.4326 130.5,-90.9156"/>
<polygon fill="none" stroke="#191970" points="127.0001,-117.3669 130.5,-127.367 134.0001,-117.367 127.0001,-117.3669"/>
</g>
<!-- Node2 -->
<g id="node3" class="node">
<title>Node2</title>
<g id="a_node3"><a xlink:href="classene_1_1models_1_1AbstractModel.html" target="_top" xlink:title="{ene.models.AbstractModel\n|# views\l|+ addView()\l# changed()\l}">
<polygon fill="none" stroke="#000000" points="64,-254.5 64,-322.5 197,-322.5 197,-254.5 64,-254.5"/>
<text text-anchor="middle" x="130.5" y="-310.5" font-family="Helvetica,sans-Serif" font-size="10.00" fill="#000000">ene.models.AbstractModel</text>
<polyline fill="none" stroke="#000000" points="64,-303.5 197,-303.5 "/>
<text text-anchor="start" x="72" y="-291.5" font-family="Helvetica,sans-Serif" font-size="10.00" fill="#000000"># views</text>
<polyline fill="none" stroke="#000000" points="64,-284.5 197,-284.5 "/>
<text text-anchor="start" x="72" y="-272.5" font-family="Helvetica,sans-Serif" font-size="10.00" fill="#000000">+ addView()</text>
<text text-anchor="start" x="72" y="-261.5" font-family="Helvetica,sans-Serif" font-size="10.00" fill="#000000"># changed()</text>
</a>
</g>
</g>
<!-- Node2&#45;&gt;Node1 -->
<g id="edge2" class="edge">
<title>Node2&#45;&gt;Node1</title>
<path fill="none" stroke="#191970" d="M130.5,-244.3177C130.5,-235.5764 130.5,-226.3904 130.5,-217.6185"/>
<polygon fill="none" stroke="#191970" points="127.0001,-244.3235 130.5,-254.3236 134.0001,-244.3236 127.0001,-244.3235"/>
</g>
<!-- Node3 -->
<g id="node4" class="node">
<title>Node3</title>
<g id="a_node4"><a xlink:href="classene_1_1AbstractObject.html" target="_top" xlink:title="{ene.AbstractObject\n|# debugModeEnabled\l|+ enableDebugMode()\l+ disableDebugMode()\l+ isDebugModeEnabled()\l+ debugInfoAbout()\l+ consoleOutput()\l# delay()\l}">
<polygon fill="none" stroke="#000000" points="0,-359.5 0,-471.5 127,-471.5 127,-359.5 0,-359.5"/>
<text text-anchor="middle" x="63.5" y="-459.5" font-family="Helvetica,sans-Serif" font-size="10.00" fill="#000000">ene.AbstractObject</text>
<polyline fill="none" stroke="#000000" points="0,-452.5 127,-452.5 "/>
<text text-anchor="start" x="8" y="-440.5" font-family="Helvetica,sans-Serif" font-size="10.00" fill="#000000"># debugModeEnabled</text>
<polyline fill="none" stroke="#000000" points="0,-433.5 127,-433.5 "/>
<text text-anchor="start" x="8" y="-421.5" font-family="Helvetica,sans-Serif" font-size="10.00" fill="#000000">+ enableDebugMode()</text>
<text text-anchor="start" x="8" y="-410.5" font-family="Helvetica,sans-Serif" font-size="10.00" fill="#000000">+ disableDebugMode()</text>
<text text-anchor="start" x="8" y="-399.5" font-family="Helvetica,sans-Serif" font-size="10.00" fill="#000000">+ isDebugModeEnabled()</text>
<text text-anchor="start" x="8" y="-388.5" font-family="Helvetica,sans-Serif" font-size="10.00" fill="#000000">+ debugInfoAbout()</text>
<text text-anchor="start" x="8" y="-377.5" font-family="Helvetica,sans-Serif" font-size="10.00" fill="#000000">+ consoleOutput()</text>
<text text-anchor="start" x="8" y="-366.5" font-family="Helvetica,sans-Serif" font-size="10.00" fill="#000000"># delay()</text>
</a>
</g>
</g>
<!-- Node3&#45;&gt;Node2 -->
<g id="edge3" class="edge">
<title>Node3&#45;&gt;Node2</title>
<path fill="none" stroke="#191970" d="M97.8919,-350.3094C102.9153,-340.7875 107.9119,-331.3163 112.4295,-322.753"/>
<polygon fill="none" stroke="#191970" points="94.6527,-348.9485 93.0822,-359.4263 100.844,-352.2148 94.6527,-348.9485"/>
</g>
<!-- Node4 -->
<g id="node5" class="node">
<title>Node4</title>
<g id="a_node5"><a xlink:href="interfaceene_1_1interfaces_1_1Model.html" target="_top" xlink:title="{ene.interfaces.Model\n||+ addView()\l}">
<polygon fill="none" stroke="#000000" points="145,-387 145,-444 252,-444 252,-387 145,-387"/>
<text text-anchor="middle" x="198.5" y="-432" font-family="Helvetica,sans-Serif" font-size="10.00" fill="#000000">ene.interfaces.Model</text>
<polyline fill="none" stroke="#000000" points="145,-425 252,-425 "/>
<text text-anchor="middle" x="198.5" y="-413" font-family="Helvetica,sans-Serif" font-size="10.00" fill="#000000"> </text>
<polyline fill="none" stroke="#000000" points="145,-406 252,-406 "/>
<text text-anchor="start" x="153" y="-394" font-family="Helvetica,sans-Serif" font-size="10.00" fill="#000000">+ addView()</text>
</a>
</g>
</g>
<!-- Node4&#45;&gt;Node2 -->
<g id="edge4" class="edge">
<title>Node4&#45;&gt;Node2</title>
<path fill="none" stroke="#191970" d="M178.5097,-378.1651C169.1272,-360.6419 158.0196,-339.8969 148.8528,-322.7765"/>
<polygon fill="none" stroke="#191970" points="175.4336,-379.835 183.2395,-386.9987 181.6047,-376.5308 175.4336,-379.835"/>
</g>
</g>
</svg>
