<?xml version="1.0" encoding="UTF-8" standalone="no"?>
<!DOCTYPE svg PUBLIC "-//W3C//DTD SVG 1.1//EN"
 "http://www.w3.org/Graphics/SVG/1.1/DTD/svg11.dtd">
<!-- Generated by graphviz version 2.40.1 (20161225.0304)
 -->
<!-- Title: ene.Application Pages: 1 -->
<svg width="302pt" height="364pt"
 viewBox="0.00 0.00 301.50 364.00" xmlns="http://www.w3.org/2000/svg" xmlns:xlink="http://www.w3.org/1999/xlink">
<g id="graph0" class="graph" transform="scale(1 1) rotate(0) translate(4 360)">
<title>ene.Application</title>
<!-- Node2 -->
<g id="node1" class="node">
<title>Node2</title>
<polygon fill="#bfbfbf" stroke="#000000" points="70,-.5 70,-79.5 183,-79.5 183,-.5 70,-.5"/>
<text text-anchor="middle" x="126.5" y="-67.5" font-family="Helvetica,sans-Serif" font-size="10.00" fill="#000000">ene.Application</text>
<polyline fill="none" stroke="#000000" points="70,-60.5 183,-60.5 "/>
<text text-anchor="middle" x="126.5" y="-48.5" font-family="Helvetica,sans-Serif" font-size="10.00" fill="#000000"> </text>
<polyline fill="none" stroke="#000000" points="70,-41.5 183,-41.5 "/>
<text text-anchor="start" x="78" y="-29.5" font-family="Helvetica,sans-Serif" font-size="10.00" fill="#000000">+ main()</text>
<text text-anchor="start" x="78" y="-18.5" font-family="Helvetica,sans-Serif" font-size="10.00" fill="#000000"># processArguments()</text>
<text text-anchor="start" x="78" y="-7.5" font-family="Helvetica,sans-Serif" font-size="10.00" fill="#000000"># run()</text>
</g>
<!-- Node3 -->
<g id="node2" class="node">
<title>Node3</title>
<g id="a_node2"><a xlink:href="classene_1_1AbstractObject.html" target="_top" xlink:title="{ene.AbstractObject\n||+ enableDebugMode()\l+ disableDebugMode()\l+ isDebugModeEnabled()\l+ debugInfoAbout()\l+ consoleOutput()\l# delay()\l}">
<polygon fill="none" stroke="#000000" points="0,-138.5 0,-250.5 127,-250.5 127,-138.5 0,-138.5"/>
<text text-anchor="middle" x="63.5" y="-238.5" font-family="Helvetica,sans-Serif" font-size="10.00" fill="#000000">ene.AbstractObject</text>
<polyline fill="none" stroke="#000000" points="0,-231.5 127,-231.5 "/>
<text text-anchor="middle" x="63.5" y="-219.5" font-family="Helvetica,sans-Serif" font-size="10.00" fill="#000000"> </text>
<polyline fill="none" stroke="#000000" points="0,-212.5 127,-212.5 "/>
<text text-anchor="start" x="8" y="-200.5" font-family="Helvetica,sans-Serif" font-size="10.00" fill="#000000">+ enableDebugMode()</text>
<text text-anchor="start" x="8" y="-189.5" font-family="Helvetica,sans-Serif" font-size="10.00" fill="#000000">+ disableDebugMode()</text>
<text text-anchor="start" x="8" y="-178.5" font-family="Helvetica,sans-Serif" font-size="10.00" fill="#000000">+ isDebugModeEnabled()</text>
<text text-anchor="start" x="8" y="-167.5" font-family="Helvetica,sans-Serif" font-size="10.00" fill="#000000">+ debugInfoAbout()</text>
<text text-anchor="start" x="8" y="-156.5" font-family="Helvetica,sans-Serif" font-size="10.00" fill="#000000">+ consoleOutput()</text>
<text text-anchor="start" x="8" y="-145.5" font-family="Helvetica,sans-Serif" font-size="10.00" fill="#000000"># delay()</text>
</a>
</g>
</g>
<!-- Node3&#45;&gt;Node2 -->
<g id="edge1" class="edge">
<title>Node3&#45;&gt;Node2</title>
<path fill="none" stroke="#191970" d="M90.3544,-128.6427C97.1058,-112.0859 104.1482,-94.8152 110.2043,-79.9634"/>
<polygon fill="none" stroke="#191970" points="86.9576,-127.7036 86.4227,-138.2849 93.4395,-130.3467 86.9576,-127.7036"/>
</g>
<!-- Node4 -->
<g id="node3" class="node">
<title>Node4</title>
<polygon fill="none" stroke="#bfbfbf" points="25,-298.5 25,-355.5 102,-355.5 102,-298.5 25,-298.5"/>
<text text-anchor="middle" x="63.5" y="-343.5" font-family="Helvetica,sans-Serif" font-size="10.00" fill="#000000">static boolean</text>
<polyline fill="none" stroke="#bfbfbf" points="25,-336.5 102,-336.5 "/>
<text text-anchor="middle" x="63.5" y="-324.5" font-family="Helvetica,sans-Serif" font-size="10.00" fill="#000000"> </text>
<polyline fill="none" stroke="#bfbfbf" points="25,-317.5 102,-317.5 "/>
<text text-anchor="middle" x="63.5" y="-305.5" font-family="Helvetica,sans-Serif" font-size="10.00" fill="#000000"> </text>
</g>
<!-- Node4&#45;&gt;Node3 -->
<g id="edge2" class="edge">
<title>Node4&#45;&gt;Node3</title>
<path fill="none" stroke="#404040" d="M63.5,-298.2495C63.5,-287.8031 63.5,-275.502 63.5,-263.0912"/>
<polygon fill="none" stroke="#404040" points="63.5001,-262.7084 59.5,-256.7085 63.5,-250.7084 67.5,-256.7084 63.5001,-262.7084"/>
<text text-anchor="middle" x="110.5" y="-272" font-family="Helvetica,sans-Serif" font-size="10.00" fill="#000000"> #debugModeEnabled</text>
</g>
<!-- Node5 -->
<g id="node4" class="node">
<title>Node5</title>
<polygon fill="none" stroke="#bfbfbf" points="145.5,-166 145.5,-223 235.5,-223 235.5,-166 145.5,-166"/>
<text text-anchor="middle" x="190.5" y="-211" font-family="Helvetica,sans-Serif" font-size="10.00" fill="#000000">static final String</text>
<polyline fill="none" stroke="#bfbfbf" points="145.5,-204 235.5,-204 "/>
<text text-anchor="middle" x="190.5" y="-192" font-family="Helvetica,sans-Serif" font-size="10.00" fill="#000000"> </text>
<polyline fill="none" stroke="#bfbfbf" points="145.5,-185 235.5,-185 "/>
<text text-anchor="middle" x="190.5" y="-173" font-family="Helvetica,sans-Serif" font-size="10.00" fill="#000000"> </text>
</g>
<!-- Node5&#45;&gt;Node2 -->
<g id="edge3" class="edge">
<title>Node5&#45;&gt;Node2</title>
<path fill="none" stroke="#404040" d="M178.6121,-165.8018C169.8973,-144.7639 157.8358,-115.6467 147.5114,-90.7228"/>
<polygon fill="none" stroke="#404040" points="147.5007,-90.6969 141.509,-86.6845 142.9082,-79.6105 148.9,-83.6229 147.5007,-90.6969"/>
<text text-anchor="middle" x="226" y="-112" font-family="Helvetica,sans-Serif" font-size="10.00" fill="#000000"> #PLAYLIST_FILE</text>
<text text-anchor="middle" x="226" y="-101" font-family="Helvetica,sans-Serif" font-size="10.00" fill="#000000">#LIBRARY_DATABASE_FILE</text>
</g>
</g>
</svg>
