<?xml version="1.0" encoding="UTF-8" standalone="no"?>
<!DOCTYPE svg PUBLIC "-//W3C//DTD SVG 1.1//EN"
 "http://www.w3.org/Graphics/SVG/1.1/DTD/svg11.dtd">
<!-- Generated by graphviz version 2.40.1 (20161225.0304)
 -->
<!-- Title: ene.models.PlayerModel.next Pages: 1 -->
<svg width="942pt" height="390pt"
 viewBox="0.00 0.00 942.00 389.50" xmlns="http://www.w3.org/2000/svg" xmlns:xlink="http://www.w3.org/1999/xlink">
<g id="graph0" class="graph" transform="scale(1 1) rotate(0) translate(4 385.5)">
<title>ene.models.PlayerModel.next</title>
<!-- Node63 -->
<g id="node1" class="node">
<title>Node63</title>
<polygon fill="#bfbfbf" stroke="#000000" points="0,-221.5 0,-240.5 146,-240.5 146,-221.5 0,-221.5"/>
<text text-anchor="middle" x="73" y="-228.5" font-family="Helvetica,sans-Serif" font-size="10.00" fill="#000000">ene.models.PlayerModel.next</text>
</g>
<!-- Node64 -->
<g id="node2" class="node">
<title>Node64</title>
<g id="a_node2"><a xlink:href="classene_1_1models_1_1PlaylistModel.html#ad63fd499a74248dc9dadad29b9882fd2" target="_top" xlink:title="ene.models.PlaylistModel.get\lCurrentTrack">
<polygon fill="none" stroke="#000000" points="374.5,-351 374.5,-381 519.5,-381 519.5,-351 374.5,-351"/>
<text text-anchor="start" x="382.5" y="-369" font-family="Helvetica,sans-Serif" font-size="10.00" fill="#000000">ene.models.PlaylistModel.get</text>
<text text-anchor="middle" x="447" y="-358" font-family="Helvetica,sans-Serif" font-size="10.00" fill="#000000">CurrentTrack</text>
</a>
</g>
</g>
<!-- Node63&#45;&gt;Node64 -->
<g id="edge1" class="edge">
<title>Node63&#45;&gt;Node64</title>
<path fill="none" stroke="#191970" d="M84.6171,-240.696C103.7195,-256.1528 143.4968,-286.3303 182,-303 240.4017,-328.2847 310.6338,-344.3956 364.1187,-353.9904"/>
<polygon fill="#191970" stroke="#191970" points="363.7894,-357.486 374.2435,-355.7651 364.998,-350.5911 363.7894,-357.486"/>
</g>
<!-- Node67 -->
<g id="node5" class="node">
<title>Node67</title>
<g id="a_node5"><a xlink:href="classene_1_1models_1_1PlayerModel.html#a85b0de48a8e962642825c254f9c47fb0" target="_top" xlink:title="ene.models.PlayerModel.get\lPlaylist">
<polygon fill="none" stroke="#000000" points="187,-104 187,-134 327,-134 327,-104 187,-104"/>
<text text-anchor="start" x="195" y="-122" font-family="Helvetica,sans-Serif" font-size="10.00" fill="#000000">ene.models.PlayerModel.get</text>
<text text-anchor="middle" x="257" y="-111" font-family="Helvetica,sans-Serif" font-size="10.00" fill="#000000">Playlist</text>
</a>
</g>
</g>
<!-- Node63&#45;&gt;Node67 -->
<g id="edge4" class="edge">
<title>Node63&#45;&gt;Node67</title>
<path fill="none" stroke="#191970" d="M82.6536,-221.2918C100.6893,-203.6402 141.3644,-166.0774 182,-144 185.9742,-141.8408 190.168,-139.8233 194.459,-137.9467"/>
<polygon fill="#191970" stroke="#191970" points="196.0279,-141.0865 203.9604,-134.0633 193.3796,-134.6068 196.0279,-141.0865"/>
</g>
<!-- Node68 -->
<g id="node6" class="node">
<title>Node68</title>
<g id="a_node6"><a xlink:href="classene_1_1models_1_1PlayerModel.html#a2c4655428b658dee3203787415a516a5" target="_top" xlink:title="ene.models.PlayerModel.load">
<polygon fill="none" stroke="#000000" points="184.5,-153.5 184.5,-172.5 329.5,-172.5 329.5,-153.5 184.5,-153.5"/>
<text text-anchor="middle" x="257" y="-160.5" font-family="Helvetica,sans-Serif" font-size="10.00" fill="#000000">ene.models.PlayerModel.load</text>
</a>
</g>
</g>
<!-- Node63&#45;&gt;Node68 -->
<g id="edge5" class="edge">
<title>Node63&#45;&gt;Node68</title>
<path fill="none" stroke="#191970" d="M98.9725,-221.4015C131.0267,-209.5553 185.6828,-189.3563 221.5698,-176.0938"/>
<polygon fill="#191970" stroke="#191970" points="222.993,-179.2992 231.1597,-172.5497 220.5664,-172.7333 222.993,-179.2992"/>
</g>
<!-- Node77 -->
<g id="node15" class="node">
<title>Node77</title>
<g id="a_node15"><a xlink:href="classene_1_1models_1_1PlaylistModel.html#afba0932567d4d21976e3c37c8d80b634" target="_top" xlink:title="ene.models.PlaylistModel.next\lTrack">
<polygon fill="none" stroke="#000000" points="182,-263 182,-293 332,-293 332,-263 182,-263"/>
<text text-anchor="start" x="190" y="-281" font-family="Helvetica,sans-Serif" font-size="10.00" fill="#000000">ene.models.PlaylistModel.next</text>
<text text-anchor="middle" x="257" y="-270" font-family="Helvetica,sans-Serif" font-size="10.00" fill="#000000">Track</text>
</a>
</g>
</g>
<!-- Node63&#45;&gt;Node77 -->
<g id="edge14" class="edge">
<title>Node63&#45;&gt;Node77</title>
<path fill="none" stroke="#191970" d="M110.2351,-240.5112C132.5827,-246.2195 161.7085,-253.6592 188.1169,-260.4049"/>
<polygon fill="#191970" stroke="#191970" points="187.5302,-263.8673 198.0854,-262.9512 189.2627,-257.0851 187.5302,-263.8673"/>
</g>
<!-- Node65 -->
<g id="node3" class="node">
<title>Node65</title>
<g id="a_node3"><a xlink:href="classene_1_1models_1_1PlaylistModel.html#adf17aa2e0d9900d3c620035dbc9641bc" target="_top" xlink:title="ene.models.PlaylistModel.update\lLastAccess">
<polygon fill="none" stroke="#000000" points="568,-307 568,-337 729,-337 729,-307 568,-307"/>
<text text-anchor="start" x="576" y="-325" font-family="Helvetica,sans-Serif" font-size="10.00" fill="#000000">ene.models.PlaylistModel.update</text>
<text text-anchor="middle" x="648.5" y="-314" font-family="Helvetica,sans-Serif" font-size="10.00" fill="#000000">LastAccess</text>
</a>
</g>
</g>
<!-- Node64&#45;&gt;Node65 -->
<g id="edge2" class="edge">
<title>Node64&#45;&gt;Node65</title>
<path fill="none" stroke="#191970" d="M515.7813,-350.9808C533.1927,-347.1788 552.0252,-343.0664 569.882,-339.1672"/>
<polygon fill="#191970" stroke="#191970" points="570.6637,-342.5791 579.6868,-337.0262 569.1703,-335.7402 570.6637,-342.5791"/>
</g>
<!-- Node66 -->
<g id="node4" class="node">
<title>Node66</title>
<g id="a_node4"><a xlink:href="classene_1_1models_1_1TrackListModel.html#a77a78d6a93e67e544d83bf5f4856d121" target="_top" xlink:title="ene.models.TrackListModel.getAll">
<polygon fill="none" stroke="#000000" points="566.5,-356.5 566.5,-375.5 730.5,-375.5 730.5,-356.5 566.5,-356.5"/>
<text text-anchor="middle" x="648.5" y="-363.5" font-family="Helvetica,sans-Serif" font-size="10.00" fill="#000000">ene.models.TrackListModel.getAll</text>
</a>
</g>
</g>
<!-- Node64&#45;&gt;Node66 -->
<g id="edge3" class="edge">
<title>Node64&#45;&gt;Node66</title>
<path fill="none" stroke="#191970" d="M519.7461,-366C531.5474,-366 543.9056,-366 556.0995,-366"/>
<polygon fill="#191970" stroke="#191970" points="556.288,-369.5001 566.2879,-366 556.2879,-362.5001 556.288,-369.5001"/>
</g>
<!-- Node69 -->
<g id="node7" class="node">
<title>Node69</title>
<g id="a_node7"><a xlink:href="classene_1_1AbstractObject.html#aff9619cf289ec83735b6c6ca2c12e020" target="_top" xlink:title="ene.AbstractObject.debug\lInfoAbout">
<polygon fill="none" stroke="#000000" points="382,-77 382,-107 512,-107 512,-77 382,-77"/>
<text text-anchor="start" x="390" y="-95" font-family="Helvetica,sans-Serif" font-size="10.00" fill="#000000">ene.AbstractObject.debug</text>
<text text-anchor="middle" x="447" y="-84" font-family="Helvetica,sans-Serif" font-size="10.00" fill="#000000">InfoAbout</text>
</a>
</g>
</g>
<!-- Node68&#45;&gt;Node69 -->
<g id="edge6" class="edge">
<title>Node68&#45;&gt;Node69</title>
<path fill="none" stroke="#191970" d="M306.3971,-153.4544C315.1418,-150.937 324.0012,-147.8226 332,-144 350.0453,-135.3763 350.2141,-126.1466 368,-117 372.3297,-114.7734 376.8953,-112.6986 381.5587,-110.7744"/>
<polygon fill="#191970" stroke="#191970" points="383.1604,-113.9076 391.2244,-107.0357 380.6351,-107.379 383.1604,-113.9076"/>
</g>
<!-- Node72 -->
<g id="node10" class="node">
<title>Node72</title>
<g id="a_node10"><a xlink:href="classene_1_1AbstractObject.html#a600f6bedef1dc48e610cdfa5f81b7667" target="_top" xlink:title="ene.AbstractObject.delay">
<polygon fill="none" stroke="#000000" points="383.5,-38.5 383.5,-57.5 510.5,-57.5 510.5,-38.5 383.5,-38.5"/>
<text text-anchor="middle" x="447" y="-45.5" font-family="Helvetica,sans-Serif" font-size="10.00" fill="#000000">ene.AbstractObject.delay</text>
</a>
</g>
</g>
<!-- Node68&#45;&gt;Node72 -->
<g id="edge9" class="edge">
<title>Node68&#45;&gt;Node72</title>
<path fill="none" stroke="#191970" d="M316.3481,-153.3797C321.987,-150.9162 327.3316,-147.8395 332,-144 360.867,-120.259 339.1311,-91.7387 368,-68 370.7046,-65.776 373.6247,-63.7951 376.6933,-62.031"/>
<polygon fill="#191970" stroke="#191970" points="378.2499,-65.1659 385.6788,-57.612 375.1607,-58.8844 378.2499,-65.1659"/>
</g>
<!-- Node73 -->
<g id="node11" class="node">
<title>Node73</title>
<g id="a_node11"><a xlink:href="classene_1_1models_1_1PlayerModel.html#aa03431aa1bae96eacf2019c56fd18f45" target="_top" xlink:title="ene.models.PlayerModel.getClip">
<polygon fill="none" stroke="#000000" points="368,-.5 368,-19.5 526,-19.5 526,-.5 368,-.5"/>
<text text-anchor="middle" x="447" y="-7.5" font-family="Helvetica,sans-Serif" font-size="10.00" fill="#000000">ene.models.PlayerModel.getClip</text>
</a>
</g>
</g>
<!-- Node68&#45;&gt;Node73 -->
<g id="edge10" class="edge">
<title>Node68&#45;&gt;Node73</title>
<path fill="none" stroke="#191970" d="M318.0156,-153.4949C323.1302,-150.994 327.9022,-147.8774 332,-144 370.9024,-107.1903 328.8758,-65.5738 368,-29 369.6745,-27.4346 371.4548,-25.9914 373.3206,-24.6611"/>
<polygon fill="#191970" stroke="#191970" points="375.1695,-27.6339 381.9869,-19.5238 371.5999,-21.6124 375.1695,-27.6339"/>
</g>
<!-- Node74 -->
<g id="node12" class="node">
<title>Node74</title>
<g id="a_node12"><a xlink:href="classene_1_1models_1_1TrackModel.html#aab88fe151b093dba71ad9f9ab5c6959d" target="_top" xlink:title="ene.models.TrackModel.get\lFilename">
<polygon fill="none" stroke="#000000" points="378.5,-214 378.5,-244 515.5,-244 515.5,-214 378.5,-214"/>
<text text-anchor="start" x="386.5" y="-232" font-family="Helvetica,sans-Serif" font-size="10.00" fill="#000000">ene.models.TrackModel.get</text>
<text text-anchor="middle" x="447" y="-221" font-family="Helvetica,sans-Serif" font-size="10.00" fill="#000000">Filename</text>
</a>
</g>
</g>
<!-- Node68&#45;&gt;Node74 -->
<g id="edge11" class="edge">
<title>Node68&#45;&gt;Node74</title>
<path fill="none" stroke="#191970" d="M282.007,-172.622C304.4251,-181.1555 338.2661,-193.8103 368,-204 374.4918,-206.2247 381.3073,-208.4884 388.1005,-210.6993"/>
<polygon fill="#191970" stroke="#191970" points="387.4054,-214.1525 397.997,-213.89 389.5534,-207.4902 387.4054,-214.1525"/>
</g>
<!-- Node75 -->
<g id="node13" class="node">
<title>Node75</title>
<g id="a_node13"><a xlink:href="classene_1_1models_1_1PlayerModel.html#a5617391131179365729686dc4eea1ea1" target="_top" xlink:title="ene.models.PlayerModel.setClip">
<polygon fill="none" stroke="#000000" points="368,-175.5 368,-194.5 526,-194.5 526,-175.5 368,-175.5"/>
<text text-anchor="middle" x="447" y="-182.5" font-family="Helvetica,sans-Serif" font-size="10.00" fill="#000000">ene.models.PlayerModel.setClip</text>
</a>
</g>
</g>
<!-- Node68&#45;&gt;Node75 -->
<g id="edge12" class="edge">
<title>Node68&#45;&gt;Node75</title>
<path fill="none" stroke="#191970" d="M329.6441,-171.4114C338.7993,-172.4715 348.2481,-173.5656 357.6236,-174.6512"/>
<polygon fill="#191970" stroke="#191970" points="357.4147,-178.1503 367.7509,-175.8238 358.2199,-171.1967 357.4147,-178.1503"/>
</g>
<!-- Node76 -->
<g id="node14" class="node">
<title>Node76</title>
<g id="a_node14"><a xlink:href="classene_1_1models_1_1PlayerModel.html#a921a00136726aee3bcababbd6c9b2e3e" target="_top" xlink:title="ene.models.PlayerModel.set\lCurrentTrack">
<polygon fill="none" stroke="#000000" points="377,-126 377,-156 517,-156 517,-126 377,-126"/>
<text text-anchor="start" x="385" y="-144" font-family="Helvetica,sans-Serif" font-size="10.00" fill="#000000">ene.models.PlayerModel.set</text>
<text text-anchor="middle" x="447" y="-133" font-family="Helvetica,sans-Serif" font-size="10.00" fill="#000000">CurrentTrack</text>
</a>
</g>
</g>
<!-- Node68&#45;&gt;Node76 -->
<g id="edge13" class="edge">
<title>Node68&#45;&gt;Node76</title>
<path fill="none" stroke="#191970" d="M329.6441,-154.5886C341.7571,-153.186 354.3843,-151.7239 366.6755,-150.3007"/>
<polygon fill="#191970" stroke="#191970" points="367.3715,-153.7436 376.9025,-149.1166 366.5663,-146.7901 367.3715,-153.7436"/>
</g>
<!-- Node70 -->
<g id="node8" class="node">
<title>Node70</title>
<g id="a_node8"><a xlink:href="classene_1_1AbstractObject.html#a9ce30d3321c7ce794df2f07bdaf3e47c" target="_top" xlink:title="ene.AbstractObject.console\lOutput">
<polygon fill="none" stroke="#000000" points="580,-52 580,-82 717,-82 717,-52 580,-52"/>
<text text-anchor="start" x="588" y="-70" font-family="Helvetica,sans-Serif" font-size="10.00" fill="#000000">ene.AbstractObject.console</text>
<text text-anchor="middle" x="648.5" y="-59" font-family="Helvetica,sans-Serif" font-size="10.00" fill="#000000">Output</text>
</a>
</g>
</g>
<!-- Node69&#45;&gt;Node70 -->
<g id="edge7" class="edge">
<title>Node69&#45;&gt;Node70</title>
<path fill="none" stroke="#191970" d="M512.143,-83.9177C530.4666,-81.6443 550.5934,-79.1472 569.626,-76.7859"/>
<polygon fill="#191970" stroke="#191970" points="570.272,-80.2326 579.7649,-75.5279 569.41,-73.2859 570.272,-80.2326"/>
</g>
<!-- Node71 -->
<g id="node9" class="node">
<title>Node71</title>
<g id="a_node9"><a xlink:href="classene_1_1AbstractObject.html#a6ee0b669069e0c3ee320a6cf41af24fe" target="_top" xlink:title="ene.AbstractObject.isDebug\lModeEnabled">
<polygon fill="none" stroke="#000000" points="578.5,-101 578.5,-131 718.5,-131 718.5,-101 578.5,-101"/>
<text text-anchor="start" x="586.5" y="-119" font-family="Helvetica,sans-Serif" font-size="10.00" fill="#000000">ene.AbstractObject.isDebug</text>
<text text-anchor="middle" x="648.5" y="-108" font-family="Helvetica,sans-Serif" font-size="10.00" fill="#000000">ModeEnabled</text>
</a>
</g>
</g>
<!-- Node69&#45;&gt;Node71 -->
<g id="edge8" class="edge">
<title>Node69&#45;&gt;Node71</title>
<path fill="none" stroke="#191970" d="M512.143,-99.759C530.0767,-101.895 549.7378,-104.2368 568.4097,-106.4607"/>
<polygon fill="#191970" stroke="#191970" points="568.0216,-109.9391 578.3654,-107.6465 568.8495,-102.9883 568.0216,-109.9391"/>
</g>
<!-- Node77&#45;&gt;Node64 -->
<g id="edge15" class="edge">
<title>Node77&#45;&gt;Node64</title>
<path fill="none" stroke="#191970" d="M283.925,-293.2176C306.1334,-305.4885 338.6462,-322.8134 368,-336 376.6412,-339.8819 385.9491,-343.7141 395.0378,-347.2747"/>
<polygon fill="#191970" stroke="#191970" points="393.8028,-350.5497 404.3926,-350.8777 396.3188,-344.0174 393.8028,-350.5497"/>
</g>
<!-- Node77&#45;&gt;Node66 -->
<g id="edge17" class="edge">
<title>Node77&#45;&gt;Node66</title>
<path fill="none" stroke="#191970" d="M323.014,-293.0597C384.772,-307.1187 479.6026,-328.6304 562,-347 572.6854,-349.3822 584.1185,-351.9091 595.0567,-354.3159"/>
<polygon fill="#191970" stroke="#191970" points="594.409,-357.757 604.9272,-356.4849 595.9114,-350.9201 594.409,-357.757"/>
</g>
<!-- Node77&#45;&gt;Node74 -->
<g id="edge16" class="edge">
<title>Node77&#45;&gt;Node74</title>
<path fill="none" stroke="#191970" d="M315.2975,-262.9654C335.45,-257.7682 358.2064,-251.8994 379.0639,-246.5204"/>
<polygon fill="#191970" stroke="#191970" points="380.0036,-249.8926 388.8127,-244.0062 378.2555,-243.1144 380.0036,-249.8926"/>
</g>
<!-- Node78 -->
<g id="node16" class="node">
<title>Node78</title>
<g id="a_node16"><a xlink:href="classene_1_1models_1_1PlaylistModel.html#a7150506b3801f97a2e38955a585bbd07" target="_top" xlink:title="ene.models.PlaylistModel.set\lCurrentTrack">
<polygon fill="none" stroke="#000000" points="374.5,-263 374.5,-293 519.5,-293 519.5,-263 374.5,-263"/>
<text text-anchor="start" x="382.5" y="-281" font-family="Helvetica,sans-Serif" font-size="10.00" fill="#000000">ene.models.PlaylistModel.set</text>
<text text-anchor="middle" x="447" y="-270" font-family="Helvetica,sans-Serif" font-size="10.00" fill="#000000">CurrentTrack</text>
</a>
</g>
</g>
<!-- Node77&#45;&gt;Node78 -->
<g id="edge18" class="edge">
<title>Node77&#45;&gt;Node78</title>
<path fill="none" stroke="#191970" d="M332.093,-278C342.6262,-278 353.5012,-278 364.1681,-278"/>
<polygon fill="#191970" stroke="#191970" points="364.3135,-281.5001 374.3135,-278 364.3134,-274.5001 364.3135,-281.5001"/>
</g>
<!-- Node78&#45;&gt;Node65 -->
<g id="edge19" class="edge">
<title>Node78&#45;&gt;Node65</title>
<path fill="none" stroke="#191970" d="M515.7813,-293.0192C533.1927,-296.8212 552.0252,-300.9336 569.882,-304.8328"/>
<polygon fill="#191970" stroke="#191970" points="569.1703,-308.2598 579.6868,-306.9738 570.6637,-301.4209 569.1703,-308.2598"/>
</g>
<!-- Node79 -->
<g id="node17" class="node">
<title>Node79</title>
<g id="a_node17"><a xlink:href="classene_1_1models_1_1AbstractModel.html#a970306ac2228cbcb599f65476d8c80dd" target="_top" xlink:title="ene.models.AbstractModel.changed">
<polygon fill="none" stroke="#000000" points="562,-268.5 562,-287.5 735,-287.5 735,-268.5 562,-268.5"/>
<text text-anchor="middle" x="648.5" y="-275.5" font-family="Helvetica,sans-Serif" font-size="10.00" fill="#000000">ene.models.AbstractModel.changed</text>
</a>
</g>
</g>
<!-- Node78&#45;&gt;Node79 -->
<g id="edge20" class="edge">
<title>Node78&#45;&gt;Node79</title>
<path fill="none" stroke="#191970" d="M519.7461,-278C530.0828,-278 540.8468,-278 551.5534,-278"/>
<polygon fill="#191970" stroke="#191970" points="551.7851,-281.5001 561.785,-278 551.785,-274.5001 551.7851,-281.5001"/>
</g>
<!-- Node80 -->
<g id="node18" class="node">
<title>Node80</title>
<g id="a_node18"><a xlink:href="interfaceene_1_1interfaces_1_1PartialView.html#aae781d286eda4cbf8c57fdb877dde265" target="_top" xlink:title="ene.interfaces.PartialView.update">
<polygon fill="none" stroke="#000000" points="771,-268.5 771,-287.5 934,-287.5 934,-268.5 771,-268.5"/>
<text text-anchor="middle" x="852.5" y="-275.5" font-family="Helvetica,sans-Serif" font-size="10.00" fill="#000000">ene.interfaces.PartialView.update</text>
</a>
</g>
</g>
<!-- Node79&#45;&gt;Node80 -->
<g id="edge21" class="edge">
<title>Node79&#45;&gt;Node80</title>
<path fill="none" stroke="#191970" d="M735.0144,-278C743.4296,-278 751.9887,-278 760.4555,-278"/>
<polygon fill="#191970" stroke="#191970" points="760.7215,-281.5001 770.7215,-278 760.7214,-274.5001 760.7215,-281.5001"/>
</g>
</g>
</svg>
