<?xml version="1.0" encoding="UTF-8" standalone="no"?>
<!DOCTYPE svg PUBLIC "-//W3C//DTD SVG 1.1//EN"
 "http://www.w3.org/Graphics/SVG/1.1/DTD/svg11.dtd">
<!-- Generated by graphviz version 2.40.1 (20161225.0304)
 -->
<!-- Title: ene.controllers.LibraryController Pages: 1 -->
<svg width="467pt" height="603pt"
 viewBox="0.00 0.00 466.50 603.00" xmlns="http://www.w3.org/2000/svg" xmlns:xlink="http://www.w3.org/1999/xlink">
<g id="graph0" class="graph" transform="scale(1 1) rotate(0) translate(4 599)">
<title>ene.controllers.LibraryController</title>
<!-- Node0 -->
<g id="node1" class="node">
<title>Node0</title>
<polygon fill="#bfbfbf" stroke="#000000" points="198,-.5 198,-200.5 353,-200.5 353,-.5 198,-.5"/>
<text text-anchor="middle" x="275.5" y="-188.5" font-family="Helvetica,sans-Serif" font-size="10.00" fill="#000000">ene.controllers.LibraryController</text>
<polyline fill="none" stroke="#000000" points="198,-181.5 353,-181.5 "/>
<text text-anchor="start" x="206" y="-169.5" font-family="Helvetica,sans-Serif" font-size="10.00" fill="#000000"># databaseFilename</text>
<text text-anchor="start" x="206" y="-158.5" font-family="Helvetica,sans-Serif" font-size="10.00" fill="#000000"># DATABASE_TIMEOUT</text>
<text text-anchor="start" x="206" y="-147.5" font-family="Helvetica,sans-Serif" font-size="10.00" fill="#000000"># DATABASE_TABLE</text>
<polyline fill="none" stroke="#000000" points="198,-140.5 353,-140.5 "/>
<text text-anchor="start" x="206" y="-128.5" font-family="Helvetica,sans-Serif" font-size="10.00" fill="#000000">+ LibraryController()</text>
<text text-anchor="start" x="206" y="-117.5" font-family="Helvetica,sans-Serif" font-size="10.00" fill="#000000">+ LibraryController()</text>
<text text-anchor="start" x="206" y="-106.5" font-family="Helvetica,sans-Serif" font-size="10.00" fill="#000000">+ loadFromFile()</text>
<text text-anchor="start" x="206" y="-95.5" font-family="Helvetica,sans-Serif" font-size="10.00" fill="#000000">+ saveToFile()</text>
<text text-anchor="start" x="206" y="-84.5" font-family="Helvetica,sans-Serif" font-size="10.00" fill="#000000">+ add()</text>
<text text-anchor="start" x="206" y="-73.5" font-family="Helvetica,sans-Serif" font-size="10.00" fill="#000000">+ remove()</text>
<text text-anchor="start" x="206" y="-62.5" font-family="Helvetica,sans-Serif" font-size="10.00" fill="#000000">+ edit()</text>
<text text-anchor="start" x="206" y="-51.5" font-family="Helvetica,sans-Serif" font-size="10.00" fill="#000000"># setDatabaseFilename()</text>
<text text-anchor="start" x="206" y="-40.5" font-family="Helvetica,sans-Serif" font-size="10.00" fill="#000000"># getDatabaseFilename()</text>
<text text-anchor="start" x="206" y="-29.5" font-family="Helvetica,sans-Serif" font-size="10.00" fill="#000000"># addFile()</text>
<text text-anchor="start" x="206" y="-18.5" font-family="Helvetica,sans-Serif" font-size="10.00" fill="#000000"># addDirectoryContent()</text>
<text text-anchor="start" x="206" y="-7.5" font-family="Helvetica,sans-Serif" font-size="10.00" fill="#000000"># scan()</text>
</g>
<!-- Node1 -->
<g id="node2" class="node">
<title>Node1</title>
<g id="a_node2"><a xlink:href="classene_1_1controllers_1_1AbstractController.html" target="_top" xlink:title="{ene.controllers.Abstract\lController\&lt; LibraryModel \&gt;\n|# model\l|+ setModel()\l+ getModel()\l}">
<polygon fill="none" stroke="#000000" points="70.5,-238.5 70.5,-317.5 202.5,-317.5 202.5,-238.5 70.5,-238.5"/>
<text text-anchor="start" x="78.5" y="-305.5" font-family="Helvetica,sans-Serif" font-size="10.00" fill="#000000">ene.controllers.Abstract</text>
<text text-anchor="middle" x="136.5" y="-294.5" font-family="Helvetica,sans-Serif" font-size="10.00" fill="#000000">Controller&lt; LibraryModel &gt;</text>
<polyline fill="none" stroke="#000000" points="70.5,-287.5 202.5,-287.5 "/>
<text text-anchor="start" x="78.5" y="-275.5" font-family="Helvetica,sans-Serif" font-size="10.00" fill="#000000"># model</text>
<polyline fill="none" stroke="#000000" points="70.5,-268.5 202.5,-268.5 "/>
<text text-anchor="start" x="78.5" y="-256.5" font-family="Helvetica,sans-Serif" font-size="10.00" fill="#000000">+ setModel()</text>
<text text-anchor="start" x="78.5" y="-245.5" font-family="Helvetica,sans-Serif" font-size="10.00" fill="#000000">+ getModel()</text>
</a>
</g>
</g>
<!-- Node1&#45;&gt;Node0 -->
<g id="edge1" class="edge">
<title>Node1&#45;&gt;Node0</title>
<path fill="none" stroke="#191970" d="M174.0818,-230.0089C181.5476,-220.4751 189.6413,-210.1397 197.8894,-199.607"/>
<polygon fill="none" stroke="#191970" points="171.1042,-228.1344 167.6943,-238.1655 176.6154,-232.4503 171.1042,-228.1344"/>
</g>
<!-- Node2 -->
<g id="node3" class="node">
<title>Node2</title>
<g id="a_node3"><a xlink:href="classene_1_1controllers_1_1AbstractController.html" target="_top" xlink:title="{ene.controllers.Abstract\lController\&lt; ModelType \&gt;\n|# model\l|+ setModel()\l+ getModel()\l}">
<polygon fill="none" stroke="#000000" points="74,-365.5 74,-444.5 199,-444.5 199,-365.5 74,-365.5"/>
<text text-anchor="start" x="82" y="-432.5" font-family="Helvetica,sans-Serif" font-size="10.00" fill="#000000">ene.controllers.Abstract</text>
<text text-anchor="middle" x="136.5" y="-421.5" font-family="Helvetica,sans-Serif" font-size="10.00" fill="#000000">Controller&lt; ModelType &gt;</text>
<polyline fill="none" stroke="#000000" points="74,-414.5 199,-414.5 "/>
<text text-anchor="start" x="82" y="-402.5" font-family="Helvetica,sans-Serif" font-size="10.00" fill="#000000"># model</text>
<polyline fill="none" stroke="#000000" points="74,-395.5 199,-395.5 "/>
<text text-anchor="start" x="82" y="-383.5" font-family="Helvetica,sans-Serif" font-size="10.00" fill="#000000">+ setModel()</text>
<text text-anchor="start" x="82" y="-372.5" font-family="Helvetica,sans-Serif" font-size="10.00" fill="#000000">+ getModel()</text>
</a>
</g>
</g>
<!-- Node2&#45;&gt;Node1 -->
<g id="edge2" class="edge">
<title>Node2&#45;&gt;Node1</title>
<path fill="none" stroke="#ffa500" d="M136.5,-354.9789C136.5,-342.5999 136.5,-329.5045 136.5,-317.6938"/>
<polygon fill="#ffa500" stroke="#ffa500" points="133.0001,-355.1648 136.5,-365.1649 140.0001,-355.1649 133.0001,-355.1648"/>
<text text-anchor="middle" x="175" y="-339" font-family="Helvetica,sans-Serif" font-size="10.00" fill="#000000"> &lt; LibraryModel &gt;</text>
</g>
<!-- Node3 -->
<g id="node4" class="node">
<title>Node3</title>
<g id="a_node4"><a xlink:href="classene_1_1AbstractObject.html" target="_top" xlink:title="{ene.AbstractObject\n|# debugModeEnabled\l|+ enableDebugMode()\l+ disableDebugMode()\l+ isDebugModeEnabled()\l+ debugInfoAbout()\l+ consoleOutput()\l# delay()\l}">
<polygon fill="none" stroke="#000000" points="0,-482.5 0,-594.5 127,-594.5 127,-482.5 0,-482.5"/>
<text text-anchor="middle" x="63.5" y="-582.5" font-family="Helvetica,sans-Serif" font-size="10.00" fill="#000000">ene.AbstractObject</text>
<polyline fill="none" stroke="#000000" points="0,-575.5 127,-575.5 "/>
<text text-anchor="start" x="8" y="-563.5" font-family="Helvetica,sans-Serif" font-size="10.00" fill="#000000"># debugModeEnabled</text>
<polyline fill="none" stroke="#000000" points="0,-556.5 127,-556.5 "/>
<text text-anchor="start" x="8" y="-544.5" font-family="Helvetica,sans-Serif" font-size="10.00" fill="#000000">+ enableDebugMode()</text>
<text text-anchor="start" x="8" y="-533.5" font-family="Helvetica,sans-Serif" font-size="10.00" fill="#000000">+ disableDebugMode()</text>
<text text-anchor="start" x="8" y="-522.5" font-family="Helvetica,sans-Serif" font-size="10.00" fill="#000000">+ isDebugModeEnabled()</text>
<text text-anchor="start" x="8" y="-511.5" font-family="Helvetica,sans-Serif" font-size="10.00" fill="#000000">+ debugInfoAbout()</text>
<text text-anchor="start" x="8" y="-500.5" font-family="Helvetica,sans-Serif" font-size="10.00" fill="#000000">+ consoleOutput()</text>
<text text-anchor="start" x="8" y="-489.5" font-family="Helvetica,sans-Serif" font-size="10.00" fill="#000000"># delay()</text>
</a>
</g>
</g>
<!-- Node3&#45;&gt;Node2 -->
<g id="edge3" class="edge">
<title>Node3&#45;&gt;Node2</title>
<path fill="none" stroke="#191970" d="M99.1573,-473.2911C104.526,-463.4729 109.9191,-453.6103 114.8716,-444.5534"/>
<polygon fill="none" stroke="#191970" points="95.9739,-471.8177 94.247,-482.2709 102.1157,-475.1762 95.9739,-471.8177"/>
</g>
<!-- Node4 -->
<g id="node5" class="node">
<title>Node4</title>
<g id="a_node5"><a xlink:href="interfaceene_1_1interfaces_1_1Controller.html" target="_top" xlink:title="{ene::interfaces::Controller\l\&lt; ModelType \&gt;\n||+ setModel()\l+ getModel()\l}">
<polygon fill="none" stroke="#000000" points="145,-499 145,-578 274,-578 274,-499 145,-499"/>
<text text-anchor="start" x="153" y="-566" font-family="Helvetica,sans-Serif" font-size="10.00" fill="#000000">ene::interfaces::Controller</text>
<text text-anchor="middle" x="209.5" y="-555" font-family="Helvetica,sans-Serif" font-size="10.00" fill="#000000">&lt; ModelType &gt;</text>
<polyline fill="none" stroke="#000000" points="145,-548 274,-548 "/>
<text text-anchor="middle" x="209.5" y="-536" font-family="Helvetica,sans-Serif" font-size="10.00" fill="#000000"> </text>
<polyline fill="none" stroke="#000000" points="145,-529 274,-529 "/>
<text text-anchor="start" x="153" y="-517" font-family="Helvetica,sans-Serif" font-size="10.00" fill="#000000">+ setModel()</text>
<text text-anchor="start" x="153" y="-506" font-family="Helvetica,sans-Serif" font-size="10.00" fill="#000000">+ getModel()</text>
</a>
</g>
</g>
<!-- Node4&#45;&gt;Node2 -->
<g id="edge4" class="edge">
<title>Node4&#45;&gt;Node2</title>
<path fill="none" stroke="#191970" d="M182.8625,-489.7862C174.7697,-474.9864 165.9777,-458.9078 158.2472,-444.7705"/>
<polygon fill="none" stroke="#191970" points="179.9266,-491.7123 187.7952,-498.807 186.0683,-488.3539 179.9266,-491.7123"/>
</g>
<!-- Node5 -->
<g id="node6" class="node">
<title>Node5</title>
<g id="a_node6"><a xlink:href="interfaceene_1_1interfaces_1_1Import.html" target="_top" xlink:title="{ene.interfaces.Import\n||+ loadFromFile()\l}">
<polygon fill="none" stroke="#000000" points="221,-249.5 221,-306.5 330,-306.5 330,-249.5 221,-249.5"/>
<text text-anchor="middle" x="275.5" y="-294.5" font-family="Helvetica,sans-Serif" font-size="10.00" fill="#000000">ene.interfaces.Import</text>
<polyline fill="none" stroke="#000000" points="221,-287.5 330,-287.5 "/>
<text text-anchor="middle" x="275.5" y="-275.5" font-family="Helvetica,sans-Serif" font-size="10.00" fill="#000000"> </text>
<polyline fill="none" stroke="#000000" points="221,-268.5 330,-268.5 "/>
<text text-anchor="start" x="229" y="-256.5" font-family="Helvetica,sans-Serif" font-size="10.00" fill="#000000">+ loadFromFile()</text>
</a>
</g>
</g>
<!-- Node5&#45;&gt;Node0 -->
<g id="edge5" class="edge">
<title>Node5&#45;&gt;Node0</title>
<path fill="none" stroke="#191970" d="M275.5,-239.3511C275.5,-227.7596 275.5,-214.4724 275.5,-200.8135"/>
<polygon fill="none" stroke="#191970" points="272.0001,-239.4815 275.5,-249.4816 279.0001,-239.4816 272.0001,-239.4815"/>
</g>
<!-- Node6 -->
<g id="node7" class="node">
<title>Node6</title>
<g id="a_node7"><a xlink:href="interfaceene_1_1interfaces_1_1Export.html" target="_top" xlink:title="{ene.interfaces.Export\n||+ saveToFile()\l}">
<polygon fill="none" stroke="#000000" points="348.5,-249.5 348.5,-306.5 458.5,-306.5 458.5,-249.5 348.5,-249.5"/>
<text text-anchor="middle" x="403.5" y="-294.5" font-family="Helvetica,sans-Serif" font-size="10.00" fill="#000000">ene.interfaces.Export</text>
<polyline fill="none" stroke="#000000" points="348.5,-287.5 458.5,-287.5 "/>
<text text-anchor="middle" x="403.5" y="-275.5" font-family="Helvetica,sans-Serif" font-size="10.00" fill="#000000"> </text>
<polyline fill="none" stroke="#000000" points="348.5,-268.5 458.5,-268.5 "/>
<text text-anchor="start" x="356.5" y="-256.5" font-family="Helvetica,sans-Serif" font-size="10.00" fill="#000000">+ saveToFile()</text>
</a>
</g>
</g>
<!-- Node6&#45;&gt;Node0 -->
<g id="edge6" class="edge">
<title>Node6&#45;&gt;Node0</title>
<path fill="none" stroke="#191970" d="M376.899,-241.1118C368.2473,-229.1145 358.1911,-215.1693 347.8387,-200.8135"/>
<polygon fill="none" stroke="#191970" points="374.2466,-243.4177 382.9346,-249.4816 379.9243,-239.3233 374.2466,-243.4177"/>
</g>
</g>
</svg>
