<?xml version="1.0" encoding="UTF-8" standalone="no"?>
<!DOCTYPE svg PUBLIC "-//W3C//DTD SVG 1.1//EN"
 "http://www.w3.org/Graphics/SVG/1.1/DTD/svg11.dtd">
<!-- Generated by graphviz version 2.40.1 (20161225.0304)
 -->
<!-- Title: ene.models.PlayerModel.getClip Pages: 1 -->
<svg width="531pt" height="241pt"
 viewBox="0.00 0.00 531.00 240.50" xmlns="http://www.w3.org/2000/svg" xmlns:xlink="http://www.w3.org/1999/xlink">
<g id="graph0" class="graph" transform="scale(1 1) rotate(0) translate(4 236.5)">
<title>ene.models.PlayerModel.getClip</title>
<!-- Node1 -->
<g id="node1" class="node">
<title>Node1</title>
<polygon fill="#bfbfbf" stroke="#000000" points="0,-95.5 0,-114.5 158,-114.5 158,-95.5 0,-95.5"/>
<text text-anchor="middle" x="79" y="-102.5" font-family="Helvetica,sans-Serif" font-size="10.00" fill="#000000">ene.models.PlayerModel.getClip</text>
</g>
<!-- Node2 -->
<g id="node2" class="node">
<title>Node2</title>
<g id="a_node2"><a xlink:href="classene_1_1models_1_1PlayerModel.html#ac32610c7511e6187ae364f64e1cf290b" target="_top" xlink:title="ene.models.PlayerModel.get\lTrackLength">
<polygon fill="none" stroke="#000000" points="200.5,-202 200.5,-232 340.5,-232 340.5,-202 200.5,-202"/>
<text text-anchor="start" x="208.5" y="-220" font-family="Helvetica,sans-Serif" font-size="10.00" fill="#000000">ene.models.PlayerModel.get</text>
<text text-anchor="middle" x="270.5" y="-209" font-family="Helvetica,sans-Serif" font-size="10.00" fill="#000000">TrackLength</text>
</a>
</g>
</g>
<!-- Node1&#45;&gt;Node2 -->
<g id="edge1" class="edge">
<title>Node1&#45;&gt;Node2</title>
<path fill="none" stroke="#191970" d="M96.5606,-121.6299C118.024,-141.1602 156.1752,-173.376 194,-193 200.4249,-196.3333 207.3961,-199.3027 214.4265,-201.9185"/>
<polygon fill="#191970" stroke="#191970" points="98.6545,-118.7993 88.9352,-114.5821 93.9033,-123.9399 98.6545,-118.7993"/>
</g>
<!-- Node4 -->
<g id="node4" class="node">
<title>Node4</title>
<g id="a_node4"><a xlink:href="classene_1_1models_1_1PlayerModel.html#a3108500012be901007a2e809761ac136" target="_top" xlink:title="ene.models.PlayerModel.get\lTrackPosition">
<polygon fill="none" stroke="#000000" points="200.5,-153 200.5,-183 340.5,-183 340.5,-153 200.5,-153"/>
<text text-anchor="start" x="208.5" y="-171" font-family="Helvetica,sans-Serif" font-size="10.00" fill="#000000">ene.models.PlayerModel.get</text>
<text text-anchor="middle" x="270.5" y="-160" font-family="Helvetica,sans-Serif" font-size="10.00" fill="#000000">TrackPosition</text>
</a>
</g>
</g>
<!-- Node1&#45;&gt;Node4 -->
<g id="edge3" class="edge">
<title>Node1&#45;&gt;Node4</title>
<path fill="none" stroke="#191970" d="M117.6573,-117.7175C148.5867,-127.8927 192.0362,-142.1868 224.7071,-152.935"/>
<polygon fill="#191970" stroke="#191970" points="118.6777,-114.3688 108.0847,-114.5683 116.4901,-121.0182 118.6777,-114.3688"/>
</g>
<!-- Node5 -->
<g id="node5" class="node">
<title>Node5</title>
<g id="a_node5"><a xlink:href="classene_1_1models_1_1PlayerModel.html#ae58085790604570d46621f019a8e0e78" target="_top" xlink:title="ene.models.PlayerModel.set\lTrackPosition">
<polygon fill="none" stroke="#000000" points="383,-131 383,-161 523,-161 523,-131 383,-131"/>
<text text-anchor="start" x="391" y="-149" font-family="Helvetica,sans-Serif" font-size="10.00" fill="#000000">ene.models.PlayerModel.set</text>
<text text-anchor="middle" x="453" y="-138" font-family="Helvetica,sans-Serif" font-size="10.00" fill="#000000">TrackPosition</text>
</a>
</g>
</g>
<!-- Node1&#45;&gt;Node5 -->
<g id="edge8" class="edge">
<title>Node1&#45;&gt;Node5</title>
<path fill="none" stroke="#191970" d="M168.2593,-114.7851C234.0212,-121.9943 322.2149,-131.6626 382.9346,-138.319"/>
<polygon fill="#191970" stroke="#191970" points="168.6377,-111.3057 158.3158,-113.695 167.8748,-118.264 168.6377,-111.3057"/>
</g>
<!-- Node6 -->
<g id="node6" class="node">
<title>Node6</title>
<g id="a_node6"><a xlink:href="classene_1_1models_1_1PlayerModel.html#a2c4655428b658dee3203787415a516a5" target="_top" xlink:title="ene.models.PlayerModel.load">
<polygon fill="none" stroke="#000000" points="198,-76.5 198,-95.5 343,-95.5 343,-76.5 198,-76.5"/>
<text text-anchor="middle" x="270.5" y="-83.5" font-family="Helvetica,sans-Serif" font-size="10.00" fill="#000000">ene.models.PlayerModel.load</text>
</a>
</g>
</g>
<!-- Node1&#45;&gt;Node6 -->
<g id="edge6" class="edge">
<title>Node1&#45;&gt;Node6</title>
<path fill="none" stroke="#191970" d="M168.4467,-96.1254C178.257,-95.152 188.156,-94.1699 197.7292,-93.2201"/>
<polygon fill="#191970" stroke="#191970" points="167.8783,-92.6645 158.2727,-97.1348 168.5695,-99.6303 167.8783,-92.6645"/>
</g>
<!-- Node7 -->
<g id="node7" class="node">
<title>Node7</title>
<g id="a_node7"><a xlink:href="classene_1_1models_1_1PlayerModel.html#afdcaa5e17ecdfbccad3ac8e702914e00" target="_top" xlink:title="ene.models.PlayerModel.pause">
<polygon fill="none" stroke="#000000" points="194,-38.5 194,-57.5 347,-57.5 347,-38.5 194,-38.5"/>
<text text-anchor="middle" x="270.5" y="-45.5" font-family="Helvetica,sans-Serif" font-size="10.00" fill="#000000">ene.models.PlayerModel.pause</text>
</a>
</g>
</g>
<!-- Node1&#45;&gt;Node7 -->
<g id="edge7" class="edge">
<title>Node1&#45;&gt;Node7</title>
<path fill="none" stroke="#191970" d="M115.7244,-92.0776C138.1952,-84.3677 167.605,-74.6269 194,-67 205.4378,-63.695 217.9368,-60.442 229.4546,-57.5874"/>
<polygon fill="#191970" stroke="#191970" points="114.5468,-88.7814 106.2367,-95.3535 116.8314,-95.3981 114.5468,-88.7814"/>
</g>
<!-- Node8 -->
<g id="node8" class="node">
<title>Node8</title>
<g id="a_node8"><a xlink:href="classene_1_1models_1_1PlayerModel.html#a7d0471082171de01773a1da88cb3652d" target="_top" xlink:title="ene.models.PlayerModel.start">
<polygon fill="none" stroke="#000000" points="197.5,-.5 197.5,-19.5 343.5,-19.5 343.5,-.5 197.5,-.5"/>
<text text-anchor="middle" x="270.5" y="-7.5" font-family="Helvetica,sans-Serif" font-size="10.00" fill="#000000">ene.models.PlayerModel.start</text>
</a>
</g>
</g>
<!-- Node1&#45;&gt;Node8 -->
<g id="edge9" class="edge">
<title>Node1&#45;&gt;Node8</title>
<path fill="none" stroke="#191970" d="M98.5229,-89.0619C120.4836,-71.8855 157.8258,-44.8822 194,-29 202.6459,-25.204 212.1886,-22.074 221.5166,-19.5268"/>
<polygon fill="#191970" stroke="#191970" points="96.2816,-86.3724 90.6293,-95.3336 100.6362,-91.8531 96.2816,-86.3724"/>
</g>
<!-- Node3 -->
<g id="node3" class="node">
<title>Node3</title>
<g id="a_node3"><a xlink:href="classene_1_1views_1_1gui_1_1partial_1_1PlayerView.html#a15d3f24a6e52ff6dedb86bb793bb8fa9" target="_top" xlink:title="ene.views.gui.partial.Player\lView.update">
<polygon fill="none" stroke="#000000" points="384.5,-191 384.5,-221 521.5,-221 521.5,-191 384.5,-191"/>
<text text-anchor="start" x="392.5" y="-209" font-family="Helvetica,sans-Serif" font-size="10.00" fill="#000000">ene.views.gui.partial.Player</text>
<text text-anchor="middle" x="453" y="-198" font-family="Helvetica,sans-Serif" font-size="10.00" fill="#000000">View.update</text>
</a>
</g>
</g>
<!-- Node2&#45;&gt;Node3 -->
<g id="edge2" class="edge">
<title>Node2&#45;&gt;Node3</title>
<path fill="none" stroke="#191970" d="M350.747,-212.1632C361.9545,-211.4877 373.3867,-210.7986 384.354,-210.1376"/>
<polygon fill="#191970" stroke="#191970" points="350.3086,-208.6832 340.5373,-212.7786 350.7298,-215.6705 350.3086,-208.6832"/>
</g>
<!-- Node4&#45;&gt;Node3 -->
<g id="edge5" class="edge">
<title>Node4&#45;&gt;Node3</title>
<path fill="none" stroke="#191970" d="M350.404,-184.6375C361.7211,-186.994 373.2748,-189.3997 384.354,-191.7066"/>
<polygon fill="#191970" stroke="#191970" points="351.0408,-181.1952 340.5373,-182.5831 349.6139,-188.0482 351.0408,-181.1952"/>
</g>
<!-- Node4&#45;&gt;Node5 -->
<g id="edge4" class="edge">
<title>Node4&#45;&gt;Node5</title>
<path fill="none" stroke="#191970" d="M350.7182,-158.3299C361.4231,-157.0394 372.3335,-155.7242 382.8486,-154.4566"/>
<polygon fill="#191970" stroke="#191970" points="350.0465,-154.8854 340.5373,-159.5571 350.8844,-161.8351 350.0465,-154.8854"/>
</g>
</g>
</svg>
