<?xml version="1.0" encoding="UTF-8" standalone="no"?>
<!DOCTYPE svg PUBLIC "-//W3C//DTD SVG 1.1//EN"
 "http://www.w3.org/Graphics/SVG/1.1/DTD/svg11.dtd">
<!-- Generated by graphviz version 2.40.1 (20161225.0304)
 -->
<!-- Title: ene.views.gui.partial.PlaylistView.PlaylistView Pages: 1 -->
<svg width="350pt" height="323pt"
 viewBox="0.00 0.00 350.00 322.50" xmlns="http://www.w3.org/2000/svg" xmlns:xlink="http://www.w3.org/1999/xlink">
<g id="graph0" class="graph" transform="scale(1 1) rotate(0) translate(4 318.5)">
<title>ene.views.gui.partial.PlaylistView.PlaylistView</title>
<!-- Node0 -->
<g id="node1" class="node">
<title>Node0</title>
<polygon fill="#bfbfbf" stroke="#000000" points="0,-147.5 0,-177.5 141,-177.5 141,-147.5 0,-147.5"/>
<text text-anchor="start" x="8" y="-165.5" font-family="Helvetica,sans-Serif" font-size="10.00" fill="#000000">ene.views.gui.partial.Playlist</text>
<text text-anchor="middle" x="70.5" y="-154.5" font-family="Helvetica,sans-Serif" font-size="10.00" fill="#000000">View.PlaylistView</text>
</g>
<!-- Node1 -->
<g id="node2" class="node">
<title>Node1</title>
<g id="a_node2"><a xlink:href="interfaceene_1_1interfaces_1_1Model.html#a6b798cea60bb1fa4a366b22af566f3e8" target="_top" xlink:title="ene.interfaces.Model.addView">
<polygon fill="none" stroke="#000000" points="185.5,-295 185.5,-314 333.5,-314 333.5,-295 185.5,-295"/>
<text text-anchor="middle" x="259.5" y="-302" font-family="Helvetica,sans-Serif" font-size="10.00" fill="#000000">ene.interfaces.Model.addView</text>
</a>
</g>
</g>
<!-- Node0&#45;&gt;Node1 -->
<g id="edge1" class="edge">
<title>Node0&#45;&gt;Node1</title>
<path fill="none" stroke="#191970" d="M79.1669,-177.7085C95.0086,-204.0484 131.2589,-257.9717 177,-285.5 180.6127,-287.6742 184.4516,-289.5997 188.4209,-291.305"/>
<polygon fill="#191970" stroke="#191970" points="187.2824,-294.6165 197.8735,-294.8975 189.7693,-288.0731 187.2824,-294.6165"/>
</g>
<!-- Node2 -->
<g id="node3" class="node">
<title>Node2</title>
<g id="a_node3"><a xlink:href="interfaceene_1_1interfaces_1_1Localization.html#ae7d5c65647a8bd1ca0c27b3279b0751c" target="_top" xlink:title="ene.interfaces.Localization.get\lString">
<polygon fill="none" stroke="#000000" points="185,-245.5 185,-275.5 334,-275.5 334,-245.5 185,-245.5"/>
<text text-anchor="start" x="193" y="-263.5" font-family="Helvetica,sans-Serif" font-size="10.00" fill="#000000">ene.interfaces.Localization.get</text>
<text text-anchor="middle" x="259.5" y="-252.5" font-family="Helvetica,sans-Serif" font-size="10.00" fill="#000000">String</text>
</a>
</g>
</g>
<!-- Node0&#45;&gt;Node2 -->
<g id="edge2" class="edge">
<title>Node0&#45;&gt;Node2</title>
<path fill="none" stroke="#191970" d="M88.2264,-177.54C108.5021,-194.069 143.2681,-220.406 177,-236.5 181.0473,-238.431 185.2817,-240.2395 189.6034,-241.9275"/>
<polygon fill="#191970" stroke="#191970" points="188.5717,-245.277 199.1654,-245.4315 190.9803,-238.7044 188.5717,-245.277"/>
</g>
<!-- Node3 -->
<g id="node4" class="node">
<title>Node3</title>
<g id="a_node4"><a xlink:href="classene_1_1views_1_1AbstractView.html#abdae9d407e6cc13b9004049e2327367b" target="_top" xlink:title="ene.views.AbstractView.set\lLayoutPosition">
<polygon fill="none" stroke="#000000" points="190,-196.5 190,-226.5 329,-226.5 329,-196.5 190,-196.5"/>
<text text-anchor="start" x="198" y="-214.5" font-family="Helvetica,sans-Serif" font-size="10.00" fill="#000000">ene.views.AbstractView.set</text>
<text text-anchor="middle" x="259.5" y="-203.5" font-family="Helvetica,sans-Serif" font-size="10.00" fill="#000000">LayoutPosition</text>
</a>
</g>
</g>
<!-- Node0&#45;&gt;Node3 -->
<g id="edge3" class="edge">
<title>Node0&#45;&gt;Node3</title>
<path fill="none" stroke="#191970" d="M128.4907,-177.5346C148.5371,-182.7318 171.1738,-188.6006 191.9214,-193.9796"/>
<polygon fill="#191970" stroke="#191970" points="191.0606,-197.3721 201.619,-196.4938 192.8174,-190.5961 191.0606,-197.3721"/>
</g>
<!-- Node4 -->
<g id="node5" class="node">
<title>Node4</title>
<g id="a_node5"><a xlink:href="classene_1_1views_1_1AbstractPartialView.html#a68e5b7c7280559531bad5eed28f711e4" target="_top" xlink:title="ene.views.AbstractPartial\lView.setModel">
<polygon fill="none" stroke="#000000" points="195.5,-147.5 195.5,-177.5 323.5,-177.5 323.5,-147.5 195.5,-147.5"/>
<text text-anchor="start" x="203.5" y="-165.5" font-family="Helvetica,sans-Serif" font-size="10.00" fill="#000000">ene.views.AbstractPartial</text>
<text text-anchor="middle" x="259.5" y="-154.5" font-family="Helvetica,sans-Serif" font-size="10.00" fill="#000000">View.setModel</text>
</a>
</g>
</g>
<!-- Node0&#45;&gt;Node4 -->
<g id="edge4" class="edge">
<title>Node0&#45;&gt;Node4</title>
<path fill="none" stroke="#191970" d="M141.1454,-162.5C155.4884,-162.5 170.6159,-162.5 185.0848,-162.5"/>
<polygon fill="#191970" stroke="#191970" points="185.4834,-166.0001 195.4834,-162.5 185.4833,-159.0001 185.4834,-166.0001"/>
</g>
<!-- Node5 -->
<g id="node6" class="node">
<title>Node5</title>
<g id="a_node6"><a xlink:href="classene_1_1views_1_1gui_1_1partial_1_1AbstractTrackListView.html#ae113e108119ef9f8d6f8b32c308f31ab" target="_top" xlink:title="ene.views.gui.partial.Abstract\lTrackListView.setPlayerController">
<polygon fill="none" stroke="#000000" points="177,-98.5 177,-128.5 342,-128.5 342,-98.5 177,-98.5"/>
<text text-anchor="start" x="185" y="-116.5" font-family="Helvetica,sans-Serif" font-size="10.00" fill="#000000">ene.views.gui.partial.Abstract</text>
<text text-anchor="middle" x="259.5" y="-105.5" font-family="Helvetica,sans-Serif" font-size="10.00" fill="#000000">TrackListView.setPlayerController</text>
</a>
</g>
</g>
<!-- Node0&#45;&gt;Node5 -->
<g id="edge5" class="edge">
<title>Node0&#45;&gt;Node5</title>
<path fill="none" stroke="#191970" d="M128.4907,-147.4654C148.5371,-142.2682 171.1738,-136.3994 191.9214,-131.0204"/>
<polygon fill="#191970" stroke="#191970" points="192.8174,-134.4039 201.619,-128.5062 191.0606,-127.6279 192.8174,-134.4039"/>
</g>
<!-- Node6 -->
<g id="node7" class="node">
<title>Node6</title>
<g id="a_node7"><a xlink:href="classene_1_1views_1_1gui_1_1partial_1_1PlaylistView.html#a62b7a0f7b929839d2cb0ef522d05f91a" target="_top" xlink:title="ene.views.gui.partial.Playlist\lView.setPlaylistController">
<polygon fill="none" stroke="#000000" points="189,-49.5 189,-79.5 330,-79.5 330,-49.5 189,-49.5"/>
<text text-anchor="start" x="197" y="-67.5" font-family="Helvetica,sans-Serif" font-size="10.00" fill="#000000">ene.views.gui.partial.Playlist</text>
<text text-anchor="middle" x="259.5" y="-56.5" font-family="Helvetica,sans-Serif" font-size="10.00" fill="#000000">View.setPlaylistController</text>
</a>
</g>
</g>
<!-- Node0&#45;&gt;Node6 -->
<g id="edge6" class="edge">
<title>Node0&#45;&gt;Node6</title>
<path fill="none" stroke="#191970" d="M88.6645,-147.4531C109.0524,-131.2055 143.6563,-105.5067 177,-89.5 181.6864,-87.2503 186.6198,-85.1508 191.647,-83.2023"/>
<polygon fill="#191970" stroke="#191970" points="193.1991,-86.3615 201.3898,-79.6412 190.796,-79.7869 193.1991,-86.3615"/>
</g>
<!-- Node7 -->
<g id="node8" class="node">
<title>Node7</title>
<g id="a_node8"><a xlink:href="classene_1_1views_1_1AbstractView.html#a95a682cf88e2d16d42d56d84bb360e91" target="_top" xlink:title="ene.views.AbstractView.set\lTitle">
<polygon fill="none" stroke="#000000" points="190,-.5 190,-30.5 329,-30.5 329,-.5 190,-.5"/>
<text text-anchor="start" x="198" y="-18.5" font-family="Helvetica,sans-Serif" font-size="10.00" fill="#000000">ene.views.AbstractView.set</text>
<text text-anchor="middle" x="259.5" y="-7.5" font-family="Helvetica,sans-Serif" font-size="10.00" fill="#000000">Title</text>
</a>
</g>
</g>
<!-- Node0&#45;&gt;Node7 -->
<g id="edge7" class="edge">
<title>Node0&#45;&gt;Node7</title>
<path fill="none" stroke="#191970" d="M79.6538,-147.3214C95.9789,-121.5354 132.6048,-69.187 177,-40.5 180.1386,-38.4719 183.4498,-36.6016 186.87,-34.8776"/>
<polygon fill="#191970" stroke="#191970" points="188.4914,-37.985 196.1347,-30.6479 185.5842,-31.6172 188.4914,-37.985"/>
</g>
</g>
</svg>
