<?xml version="1.0" encoding="UTF-8" standalone="no"?>
<!DOCTYPE svg PUBLIC "-//W3C//DTD SVG 1.1//EN"
 "http://www.w3.org/Graphics/SVG/1.1/DTD/svg11.dtd">
<!-- Generated by graphviz version 2.40.1 (20161225.0304)
 -->
<!-- Title: ene.views.gui.partial.PlayerView.resetProgress Pages: 1 -->
<svg width="542pt" height="170pt"
 viewBox="0.00 0.00 542.00 169.50" xmlns="http://www.w3.org/2000/svg" xmlns:xlink="http://www.w3.org/1999/xlink">
<g id="graph0" class="graph" transform="scale(1 1) rotate(0) translate(4 165.5)">
<title>ene.views.gui.partial.PlayerView.resetProgress</title>
<!-- Node59 -->
<g id="node1" class="node">
<title>Node59</title>
<polygon fill="#bfbfbf" stroke="#000000" points="0,-76.5 0,-106.5 137,-106.5 137,-76.5 0,-76.5"/>
<text text-anchor="start" x="8" y="-94.5" font-family="Helvetica,sans-Serif" font-size="10.00" fill="#000000">ene.views.gui.partial.Player</text>
<text text-anchor="middle" x="68.5" y="-83.5" font-family="Helvetica,sans-Serif" font-size="10.00" fill="#000000">View.resetProgress</text>
</g>
<!-- Node60 -->
<g id="node2" class="node">
<title>Node60</title>
<g id="a_node2"><a xlink:href="classene_1_1controllers_1_1PlayerController.html#a4431d7fb8789a039aba690fa30c7f76f" target="_top" xlink:title="ene.controllers.PlayerController.change\lTrackPosition">
<polygon fill="none" stroke="#000000" points="173,-125.5 173,-155.5 361,-155.5 361,-125.5 173,-125.5"/>
<text text-anchor="start" x="181" y="-143.5" font-family="Helvetica,sans-Serif" font-size="10.00" fill="#000000">ene.controllers.PlayerController.change</text>
<text text-anchor="middle" x="267" y="-132.5" font-family="Helvetica,sans-Serif" font-size="10.00" fill="#000000">TrackPosition</text>
</a>
</g>
</g>
<!-- Node59&#45;&gt;Node60 -->
<g id="edge1" class="edge">
<title>Node59&#45;&gt;Node60</title>
<path fill="none" stroke="#191970" d="M129.4055,-106.5346C150.5549,-111.7554 174.4493,-117.6537 196.3203,-123.0526"/>
<polygon fill="#191970" stroke="#191970" points="195.6622,-126.4952 206.2096,-125.4938 197.3399,-119.6992 195.6622,-126.4952"/>
</g>
<!-- Node62 -->
<g id="node4" class="node">
<title>Node62</title>
<g id="a_node4"><a xlink:href="classene_1_1views_1_1gui_1_1partial_1_1PlayerView.html#a4dc768b48e41f0ea98929d8069ef790a" target="_top" xlink:title="ene.views.gui.partial.Player\lView.getPlayerController">
<polygon fill="none" stroke="#000000" points="198.5,-76.5 198.5,-106.5 335.5,-106.5 335.5,-76.5 198.5,-76.5"/>
<text text-anchor="start" x="206.5" y="-94.5" font-family="Helvetica,sans-Serif" font-size="10.00" fill="#000000">ene.views.gui.partial.Player</text>
<text text-anchor="middle" x="267" y="-83.5" font-family="Helvetica,sans-Serif" font-size="10.00" fill="#000000">View.getPlayerController</text>
</a>
</g>
</g>
<!-- Node59&#45;&gt;Node62 -->
<g id="edge3" class="edge">
<title>Node59&#45;&gt;Node62</title>
<path fill="none" stroke="#191970" d="M137.0904,-91.5C153.5162,-91.5 171.1843,-91.5 188.0373,-91.5"/>
<polygon fill="#191970" stroke="#191970" points="188.4069,-95.0001 198.4069,-91.5 188.4069,-88.0001 188.4069,-95.0001"/>
</g>
<!-- Node63 -->
<g id="node5" class="node">
<title>Node63</title>
<g id="a_node5"><a xlink:href="classene_1_1views_1_1gui_1_1partial_1_1PlayerView.html#af324f1c0b5648dab2400b4c0ab33f3ca" target="_top" xlink:title="ene.views.gui.partial.Player\lView.updateProgress">
<polygon fill="none" stroke="#000000" points="198.5,-27.5 198.5,-57.5 335.5,-57.5 335.5,-27.5 198.5,-27.5"/>
<text text-anchor="start" x="206.5" y="-45.5" font-family="Helvetica,sans-Serif" font-size="10.00" fill="#000000">ene.views.gui.partial.Player</text>
<text text-anchor="middle" x="267" y="-34.5" font-family="Helvetica,sans-Serif" font-size="10.00" fill="#000000">View.updateProgress</text>
</a>
</g>
</g>
<!-- Node59&#45;&gt;Node63 -->
<g id="edge4" class="edge">
<title>Node59&#45;&gt;Node63</title>
<path fill="none" stroke="#191970" d="M129.4055,-76.4654C150.5549,-71.2446 174.4493,-65.3463 196.3203,-59.9474"/>
<polygon fill="#191970" stroke="#191970" points="197.3399,-63.3008 206.2096,-57.5062 195.6622,-56.5048 197.3399,-63.3008"/>
</g>
<!-- Node61 -->
<g id="node3" class="node">
<title>Node61</title>
<g id="a_node3"><a xlink:href="classene_1_1controllers_1_1AbstractController.html#a9a5afba01d0004a64db4cb14c23e0bbd" target="_top" xlink:title="ene.controllers.Abstract\lController\&lt; PlayerModel\l \&gt;::getModel">
<polygon fill="none" stroke="#000000" points="404.5,-120 404.5,-161 526.5,-161 526.5,-120 404.5,-120"/>
<text text-anchor="start" x="412.5" y="-149" font-family="Helvetica,sans-Serif" font-size="10.00" fill="#000000">ene.controllers.Abstract</text>
<text text-anchor="start" x="412.5" y="-138" font-family="Helvetica,sans-Serif" font-size="10.00" fill="#000000">Controller&lt; PlayerModel</text>
<text text-anchor="middle" x="465.5" y="-127" font-family="Helvetica,sans-Serif" font-size="10.00" fill="#000000"> &gt;::getModel</text>
</a>
</g>
</g>
<!-- Node60&#45;&gt;Node61 -->
<g id="edge2" class="edge">
<title>Node60&#45;&gt;Node61</title>
<path fill="none" stroke="#191970" d="M361.0183,-140.5C372.1812,-140.5 383.4326,-140.5 394.2056,-140.5"/>
<polygon fill="#191970" stroke="#191970" points="394.3693,-144.0001 404.3692,-140.5 394.3692,-137.0001 394.3693,-144.0001"/>
</g>
<!-- Node64 -->
<g id="node6" class="node">
<title>Node64</title>
<g id="a_node6"><a xlink:href="classene_1_1views_1_1AbstractPartialView.html#afb90f9e02eea94a2fb276d711a67ee36" target="_top" xlink:title="ene.views.AbstractPartial\lView.getModel">
<polygon fill="none" stroke="#000000" points="401.5,-49.5 401.5,-79.5 529.5,-79.5 529.5,-49.5 401.5,-49.5"/>
<text text-anchor="start" x="409.5" y="-67.5" font-family="Helvetica,sans-Serif" font-size="10.00" fill="#000000">ene.views.AbstractPartial</text>
<text text-anchor="middle" x="465.5" y="-56.5" font-family="Helvetica,sans-Serif" font-size="10.00" fill="#000000">View.getModel</text>
</a>
</g>
</g>
<!-- Node63&#45;&gt;Node64 -->
<g id="edge5" class="edge">
<title>Node63&#45;&gt;Node64</title>
<path fill="none" stroke="#191970" d="M335.5904,-50.102C353.5553,-52.093 373.0063,-54.2488 391.2515,-56.2709"/>
<polygon fill="#191970" stroke="#191970" points="390.9219,-59.7558 401.2466,-57.3787 391.693,-52.7984 390.9219,-59.7558"/>
</g>
<!-- Node65 -->
<g id="node7" class="node">
<title>Node65</title>
<g id="a_node7"><a xlink:href="classene_1_1views_1_1gui_1_1partial_1_1PlayerView.html#a5214bb8084cfb78242868039e33f78ef" target="_top" xlink:title="ene.views.gui.partial.Player\lView.formatTimeToString">
<polygon fill="none" stroke="#000000" points="397,-.5 397,-30.5 534,-30.5 534,-.5 397,-.5"/>
<text text-anchor="start" x="405" y="-18.5" font-family="Helvetica,sans-Serif" font-size="10.00" fill="#000000">ene.views.gui.partial.Player</text>
<text text-anchor="middle" x="465.5" y="-7.5" font-family="Helvetica,sans-Serif" font-size="10.00" fill="#000000">View.formatTimeToString</text>
</a>
</g>
</g>
<!-- Node63&#45;&gt;Node65 -->
<g id="edge6" class="edge">
<title>Node63&#45;&gt;Node65</title>
<path fill="none" stroke="#191970" d="M335.5904,-33.1703C352.0162,-30.9361 369.6843,-28.5329 386.5373,-26.2405"/>
<polygon fill="#191970" stroke="#191970" points="387.4699,-29.646 396.9069,-24.83 386.5264,-22.7099 387.4699,-29.646"/>
</g>
</g>
</svg>
