<?xml version="1.0" encoding="UTF-8" standalone="no"?>
<!DOCTYPE svg PUBLIC "-//W3C//DTD SVG 1.1//EN"
 "http://www.w3.org/Graphics/SVG/1.1/DTD/svg11.dtd">
<!-- Generated by graphviz version 2.40.1 (20161225.0304)
 -->
<!-- Title: ene.models.AbstractModel.changed Pages: 1 -->
<svg width="574pt" height="301pt"
 viewBox="0.00 0.00 574.00 301.00" xmlns="http://www.w3.org/2000/svg" xmlns:xlink="http://www.w3.org/1999/xlink">
<g id="graph0" class="graph" transform="scale(1 1) rotate(0) translate(4 297)">
<title>ene.models.AbstractModel.changed</title>
<!-- Node4 -->
<g id="node1" class="node">
<title>Node4</title>
<polygon fill="#bfbfbf" stroke="#000000" points="0,-142.5 0,-161.5 173,-161.5 173,-142.5 0,-142.5"/>
<text text-anchor="middle" x="86.5" y="-149.5" font-family="Helvetica,sans-Serif" font-size="10.00" fill="#000000">ene.models.AbstractModel.changed</text>
</g>
<!-- Node5 -->
<g id="node2" class="node">
<title>Node5</title>
<g id="a_node2"><a xlink:href="classene_1_1models_1_1TrackListModel.html#a57554d49b1182a9138b871617ce57e9a" target="_top" xlink:title="ene.models.TrackListModel.add">
<polygon fill="none" stroke="#000000" points="217.5,-273.5 217.5,-292.5 372.5,-292.5 372.5,-273.5 217.5,-273.5"/>
<text text-anchor="middle" x="295" y="-280.5" font-family="Helvetica,sans-Serif" font-size="10.00" fill="#000000">ene.models.TrackListModel.add</text>
</a>
</g>
</g>
<!-- Node4&#45;&gt;Node5 -->
<g id="edge1" class="edge">
<title>Node4&#45;&gt;Node5</title>
<path fill="none" stroke="#191970" d="M100.3775,-169.5139C121.1997,-194.5344 163.02,-240.1181 209,-264 216.4632,-267.8764 224.6891,-270.9641 233.0055,-273.4231"/>
<polygon fill="#191970" stroke="#191970" points="102.9483,-167.1283 93.9157,-161.5908 97.5235,-171.5524 102.9483,-167.1283"/>
</g>
<!-- Node6 -->
<g id="node3" class="node">
<title>Node6</title>
<g id="a_node3"><a xlink:href="classene_1_1models_1_1TrackListModel.html#a51482a5f74dfadca48a06dd8888751cd" target="_top" xlink:title="ene.models.TrackListModel.remove">
<polygon fill="none" stroke="#000000" points="209,-235.5 209,-254.5 381,-254.5 381,-235.5 209,-235.5"/>
<text text-anchor="middle" x="295" y="-242.5" font-family="Helvetica,sans-Serif" font-size="10.00" fill="#000000">ene.models.TrackListModel.remove</text>
</a>
</g>
</g>
<!-- Node4&#45;&gt;Node6 -->
<g id="edge2" class="edge">
<title>Node4&#45;&gt;Node6</title>
<path fill="none" stroke="#191970" d="M107.5324,-167.6548C131.0826,-184.4589 170.9504,-210.7837 209,-226 218.5123,-229.804 228.9362,-232.9183 239.143,-235.4433"/>
<polygon fill="#191970" stroke="#191970" points="109.4953,-164.7549 99.3434,-161.7236 105.3892,-170.4241 109.4953,-164.7549"/>
</g>
<!-- Node7 -->
<g id="node4" class="node">
<title>Node7</title>
<g id="a_node4"><a xlink:href="classene_1_1models_1_1TrackModel.html#a6e059ab76ba75be47de8d661e132f514" target="_top" xlink:title="ene.models.TrackModel.set\lArtist">
<polygon fill="none" stroke="#000000" points="226.5,-186 226.5,-216 363.5,-216 363.5,-186 226.5,-186"/>
<text text-anchor="start" x="234.5" y="-204" font-family="Helvetica,sans-Serif" font-size="10.00" fill="#000000">ene.models.TrackModel.set</text>
<text text-anchor="middle" x="295" y="-193" font-family="Helvetica,sans-Serif" font-size="10.00" fill="#000000">Artist</text>
</a>
</g>
</g>
<!-- Node4&#45;&gt;Node7 -->
<g id="edge3" class="edge">
<title>Node4&#45;&gt;Node7</title>
<path fill="none" stroke="#191970" d="M137.2497,-163.9268C165.4833,-170.562 200.8987,-178.8851 231.0162,-185.963"/>
<polygon fill="#191970" stroke="#191970" points="137.7314,-160.4447 127.1959,-161.564 136.1299,-167.2591 137.7314,-160.4447"/>
</g>
<!-- Node9 -->
<g id="node6" class="node">
<title>Node9</title>
<g id="a_node6"><a xlink:href="classene_1_1models_1_1TrackModel.html#adcb5ee61c35e73b04879409a43c4b753" target="_top" xlink:title="ene.models.TrackModel.set\lFilename">
<polygon fill="none" stroke="#000000" points="226.5,-137 226.5,-167 363.5,-167 363.5,-137 226.5,-137"/>
<text text-anchor="start" x="234.5" y="-155" font-family="Helvetica,sans-Serif" font-size="10.00" fill="#000000">ene.models.TrackModel.set</text>
<text text-anchor="middle" x="295" y="-144" font-family="Helvetica,sans-Serif" font-size="10.00" fill="#000000">Filename</text>
</a>
</g>
</g>
<!-- Node4&#45;&gt;Node9 -->
<g id="edge5" class="edge">
<title>Node4&#45;&gt;Node9</title>
<path fill="none" stroke="#191970" d="M183.1784,-152C197.786,-152 212.593,-152 226.4439,-152"/>
<polygon fill="#191970" stroke="#191970" points="183.1115,-148.5001 173.1114,-152 183.1114,-155.5001 183.1115,-148.5001"/>
</g>
<!-- Node10 -->
<g id="node7" class="node">
<title>Node10</title>
<g id="a_node7"><a xlink:href="classene_1_1models_1_1TrackModel.html#acfe29ae2331320c5c60824a1bb4e1ba7" target="_top" xlink:title="ene.models.TrackModel.set\lGenre">
<polygon fill="none" stroke="#000000" points="226.5,-88 226.5,-118 363.5,-118 363.5,-88 226.5,-88"/>
<text text-anchor="start" x="234.5" y="-106" font-family="Helvetica,sans-Serif" font-size="10.00" fill="#000000">ene.models.TrackModel.set</text>
<text text-anchor="middle" x="295" y="-95" font-family="Helvetica,sans-Serif" font-size="10.00" fill="#000000">Genre</text>
</a>
</g>
</g>
<!-- Node4&#45;&gt;Node10 -->
<g id="edge7" class="edge">
<title>Node4&#45;&gt;Node10</title>
<path fill="none" stroke="#191970" d="M137.2497,-140.0732C165.4833,-133.438 200.8987,-125.1149 231.0162,-118.037"/>
<polygon fill="#191970" stroke="#191970" points="136.1299,-136.7409 127.1959,-142.436 137.7314,-143.5553 136.1299,-136.7409"/>
</g>
<!-- Node11 -->
<g id="node8" class="node">
<title>Node11</title>
<g id="a_node8"><a xlink:href="classene_1_1models_1_1TrackModel.html#a1e8a6872b5dcf826ba463a663a8249f1" target="_top" xlink:title="ene.models.TrackModel.set\lTitle">
<polygon fill="none" stroke="#000000" points="226.5,-39 226.5,-69 363.5,-69 363.5,-39 226.5,-39"/>
<text text-anchor="start" x="234.5" y="-57" font-family="Helvetica,sans-Serif" font-size="10.00" fill="#000000">ene.models.TrackModel.set</text>
<text text-anchor="middle" x="295" y="-46" font-family="Helvetica,sans-Serif" font-size="10.00" fill="#000000">Title</text>
</a>
</g>
</g>
<!-- Node4&#45;&gt;Node11 -->
<g id="edge9" class="edge">
<title>Node4&#45;&gt;Node11</title>
<path fill="none" stroke="#191970" d="M108.1463,-136.778C131.943,-120.6092 171.756,-95.1944 209,-79 217.4128,-75.342 226.5158,-72.0422 235.544,-69.1298"/>
<polygon fill="#191970" stroke="#191970" points="106.1057,-133.9336 99.849,-142.4837 110.072,-139.7015 106.1057,-133.9336"/>
</g>
<!-- Node12 -->
<g id="node9" class="node">
<title>Node12</title>
<g id="a_node9"><a xlink:href="classene_1_1models_1_1PlayerModel.html#a108968d6fd2beb7e322bba50028d32b1" target="_top" xlink:title="ene.models.PlayerModel.update">
<polygon fill="none" stroke="#000000" points="217,-.5 217,-19.5 373,-19.5 373,-.5 217,-.5"/>
<text text-anchor="middle" x="295" y="-7.5" font-family="Helvetica,sans-Serif" font-size="10.00" fill="#000000">ene.models.PlayerModel.update</text>
</a>
</g>
</g>
<!-- Node4&#45;&gt;Node12 -->
<g id="edge11" class="edge">
<title>Node4&#45;&gt;Node12</title>
<path fill="none" stroke="#191970" d="M99.1847,-134.1176C119.2836,-107.1803 161.1151,-56.5292 209,-30 216.9111,-25.6171 225.7437,-22.1921 234.6527,-19.5163"/>
<polygon fill="#191970" stroke="#191970" points="96.2982,-132.1355 93.2243,-142.2746 101.9501,-136.2654 96.2982,-132.1355"/>
</g>
<!-- Node8 -->
<g id="node5" class="node">
<title>Node8</title>
<g id="a_node5"><a xlink:href="classene_1_1models_1_1TrackModel.html#abcdd0235436de2871b905818aaff4873" target="_top" xlink:title="ene.models.TrackModel.Track\lModel">
<polygon fill="none" stroke="#000000" points="417,-112 417,-142 566,-142 566,-112 417,-112"/>
<text text-anchor="start" x="425" y="-130" font-family="Helvetica,sans-Serif" font-size="10.00" fill="#000000">ene.models.TrackModel.Track</text>
<text text-anchor="middle" x="491.5" y="-119" font-family="Helvetica,sans-Serif" font-size="10.00" fill="#000000">Model</text>
</a>
</g>
</g>
<!-- Node7&#45;&gt;Node8 -->
<g id="edge4" class="edge">
<title>Node7&#45;&gt;Node8</title>
<path fill="none" stroke="#191970" d="M363.6321,-182.8697C369.5429,-180.9997 375.4,-179.0349 381,-177 408.9046,-166.8604 439.5919,-152.7222 461.5313,-142.066"/>
<polygon fill="#191970" stroke="#191970" points="362.2054,-179.6462 353.6699,-185.9229 364.2565,-186.339 362.2054,-179.6462"/>
</g>
<!-- Node9&#45;&gt;Node8 -->
<g id="edge6" class="edge">
<title>Node9&#45;&gt;Node8</title>
<path fill="none" stroke="#191970" d="M373.9114,-141.9604C388.0586,-140.1605 402.7627,-138.2897 416.787,-136.5055"/>
<polygon fill="#191970" stroke="#191970" points="373.2044,-138.522 363.7262,-143.2562 374.088,-145.466 373.2044,-138.522"/>
</g>
<!-- Node10&#45;&gt;Node8 -->
<g id="edge8" class="edge">
<title>Node10&#45;&gt;Node8</title>
<path fill="none" stroke="#191970" d="M373.9114,-112.638C388.0586,-114.3659 402.7627,-116.1619 416.787,-117.8748"/>
<polygon fill="#191970" stroke="#191970" points="374.0768,-109.1323 363.7262,-111.394 373.228,-116.0807 374.0768,-109.1323"/>
</g>
<!-- Node11&#45;&gt;Node8 -->
<g id="edge10" class="edge">
<title>Node11&#45;&gt;Node8</title>
<path fill="none" stroke="#191970" d="M360.8531,-72.2097C367.6956,-74.3796 374.5146,-76.6594 381,-79 407.9531,-88.7273 437.7043,-101.7901 459.5396,-111.8327"/>
<polygon fill="#191970" stroke="#191970" points="361.4352,-68.7262 350.8475,-69.115 359.3667,-75.4137 361.4352,-68.7262"/>
</g>
</g>
</svg>
