<?xml version="1.0" encoding="UTF-8" standalone="no"?>
<!DOCTYPE svg PUBLIC "-//W3C//DTD SVG 1.1//EN"
 "http://www.w3.org/Graphics/SVG/1.1/DTD/svg11.dtd">
<!-- Generated by graphviz version 2.40.1 (20161225.0304)
 -->
<!-- Title: ene.models.TrackListModel Pages: 1 -->
<svg width="280pt" height="491pt"
 viewBox="0.00 0.00 279.50 491.00" xmlns="http://www.w3.org/2000/svg" xmlns:xlink="http://www.w3.org/1999/xlink">
<g id="graph0" class="graph" transform="scale(1 1) rotate(0) translate(4 487)">
<title>ene.models.TrackListModel</title>
<!-- Node0 -->
<g id="node1" class="node">
<title>Node0</title>
<polygon fill="#bfbfbf" stroke="#000000" points="66,-127.5 66,-228.5 203,-228.5 203,-127.5 66,-127.5"/>
<text text-anchor="middle" x="134.5" y="-216.5" font-family="Helvetica,sans-Serif" font-size="10.00" fill="#000000">ene.models.TrackListModel</text>
<polyline fill="none" stroke="#000000" points="66,-209.5 203,-209.5 "/>
<text text-anchor="start" x="74" y="-197.5" font-family="Helvetica,sans-Serif" font-size="10.00" fill="#000000"># tracks</text>
<polyline fill="none" stroke="#000000" points="66,-190.5 203,-190.5 "/>
<text text-anchor="start" x="74" y="-178.5" font-family="Helvetica,sans-Serif" font-size="10.00" fill="#000000">+ add()</text>
<text text-anchor="start" x="74" y="-167.5" font-family="Helvetica,sans-Serif" font-size="10.00" fill="#000000">+ remove()</text>
<text text-anchor="start" x="74" y="-156.5" font-family="Helvetica,sans-Serif" font-size="10.00" fill="#000000">+ get()</text>
<text text-anchor="start" x="74" y="-145.5" font-family="Helvetica,sans-Serif" font-size="10.00" fill="#000000">+ has()</text>
<text text-anchor="start" x="74" y="-134.5" font-family="Helvetica,sans-Serif" font-size="10.00" fill="#000000">+ getAll()</text>
</g>
<!-- Node4 -->
<g id="node5" class="node">
<title>Node4</title>
<g id="a_node5"><a xlink:href="classene_1_1models_1_1LibraryModel.html" target="_top" xlink:title="{ene.models.LibraryModel\n||+ getByArtist()\l+ getByTitle()\l+ getByGenre()\l+ search()\l}">
<polygon fill="none" stroke="#000000" points="0,-.5 0,-90.5 125,-90.5 125,-.5 0,-.5"/>
<text text-anchor="middle" x="62.5" y="-78.5" font-family="Helvetica,sans-Serif" font-size="10.00" fill="#000000">ene.models.LibraryModel</text>
<polyline fill="none" stroke="#000000" points="0,-71.5 125,-71.5 "/>
<text text-anchor="middle" x="62.5" y="-59.5" font-family="Helvetica,sans-Serif" font-size="10.00" fill="#000000"> </text>
<polyline fill="none" stroke="#000000" points="0,-52.5 125,-52.5 "/>
<text text-anchor="start" x="8" y="-40.5" font-family="Helvetica,sans-Serif" font-size="10.00" fill="#000000">+ getByArtist()</text>
<text text-anchor="start" x="8" y="-29.5" font-family="Helvetica,sans-Serif" font-size="10.00" fill="#000000">+ getByTitle()</text>
<text text-anchor="start" x="8" y="-18.5" font-family="Helvetica,sans-Serif" font-size="10.00" fill="#000000">+ getByGenre()</text>
<text text-anchor="start" x="8" y="-7.5" font-family="Helvetica,sans-Serif" font-size="10.00" fill="#000000">+ search()</text>
</a>
</g>
</g>
<!-- Node0&#45;&gt;Node4 -->
<g id="edge4" class="edge">
<title>Node0&#45;&gt;Node4</title>
<path fill="none" stroke="#191970" d="M102.0886,-118.354C97.059,-109.0981 91.935,-99.6686 87.1147,-90.7978"/>
<polygon fill="none" stroke="#191970" points="99.0189,-120.0355 106.8688,-127.151 105.1695,-116.6933 99.0189,-120.0355"/>
</g>
<!-- Node5 -->
<g id="node6" class="node">
<title>Node5</title>
<g id="a_node6"><a xlink:href="classene_1_1models_1_1PlaylistModel.html" target="_top" xlink:title="{ene.models.PlaylistModel\n|# currentTrack\l|+ setCurrentTrack()\l+ getCurrentTrack()\l+ previousTrack()\l+ nextTrack()\l}">
<polygon fill="none" stroke="#000000" points="143.5,-.5 143.5,-90.5 271.5,-90.5 271.5,-.5 143.5,-.5"/>
<text text-anchor="middle" x="207.5" y="-78.5" font-family="Helvetica,sans-Serif" font-size="10.00" fill="#000000">ene.models.PlaylistModel</text>
<polyline fill="none" stroke="#000000" points="143.5,-71.5 271.5,-71.5 "/>
<text text-anchor="start" x="151.5" y="-59.5" font-family="Helvetica,sans-Serif" font-size="10.00" fill="#000000"># currentTrack</text>
<polyline fill="none" stroke="#000000" points="143.5,-52.5 271.5,-52.5 "/>
<text text-anchor="start" x="151.5" y="-40.5" font-family="Helvetica,sans-Serif" font-size="10.00" fill="#000000">+ setCurrentTrack()</text>
<text text-anchor="start" x="151.5" y="-29.5" font-family="Helvetica,sans-Serif" font-size="10.00" fill="#000000">+ getCurrentTrack()</text>
<text text-anchor="start" x="151.5" y="-18.5" font-family="Helvetica,sans-Serif" font-size="10.00" fill="#000000">+ previousTrack()</text>
<text text-anchor="start" x="151.5" y="-7.5" font-family="Helvetica,sans-Serif" font-size="10.00" fill="#000000">+ nextTrack()</text>
</a>
</g>
</g>
<!-- Node0&#45;&gt;Node5 -->
<g id="edge5" class="edge">
<title>Node0&#45;&gt;Node5</title>
<path fill="none" stroke="#191970" d="M167.3616,-118.354C172.461,-109.0981 177.6562,-99.6686 182.5435,-90.7978"/>
<polygon fill="none" stroke="#191970" points="164.275,-116.7033 162.5149,-127.151 170.4061,-120.0813 164.275,-116.7033"/>
</g>
<!-- Node1 -->
<g id="node2" class="node">
<title>Node1</title>
<g id="a_node2"><a xlink:href="classene_1_1models_1_1AbstractModel.html" target="_top" xlink:title="{ene.models.AbstractModel\n|# views\l|+ addView()\l# changed()\l}">
<polygon fill="none" stroke="#000000" points="68,-265.5 68,-333.5 201,-333.5 201,-265.5 68,-265.5"/>
<text text-anchor="middle" x="134.5" y="-321.5" font-family="Helvetica,sans-Serif" font-size="10.00" fill="#000000">ene.models.AbstractModel</text>
<polyline fill="none" stroke="#000000" points="68,-314.5 201,-314.5 "/>
<text text-anchor="start" x="76" y="-302.5" font-family="Helvetica,sans-Serif" font-size="10.00" fill="#000000"># views</text>
<polyline fill="none" stroke="#000000" points="68,-295.5 201,-295.5 "/>
<text text-anchor="start" x="76" y="-283.5" font-family="Helvetica,sans-Serif" font-size="10.00" fill="#000000">+ addView()</text>
<text text-anchor="start" x="76" y="-272.5" font-family="Helvetica,sans-Serif" font-size="10.00" fill="#000000"># changed()</text>
</a>
</g>
</g>
<!-- Node1&#45;&gt;Node0 -->
<g id="edge1" class="edge">
<title>Node1&#45;&gt;Node0</title>
<path fill="none" stroke="#191970" d="M134.5,-255.1349C134.5,-246.5408 134.5,-237.474 134.5,-228.6952"/>
<polygon fill="none" stroke="#191970" points="131.0001,-255.3321 134.5,-265.3321 138.0001,-255.3322 131.0001,-255.3321"/>
</g>
<!-- Node2 -->
<g id="node3" class="node">
<title>Node2</title>
<g id="a_node3"><a xlink:href="classene_1_1AbstractObject.html" target="_top" xlink:title="{ene.AbstractObject\n|# debugModeEnabled\l|+ enableDebugMode()\l+ disableDebugMode()\l+ isDebugModeEnabled()\l+ debugInfoAbout()\l+ consoleOutput()\l# delay()\l}">
<polygon fill="none" stroke="#000000" points="4,-370.5 4,-482.5 131,-482.5 131,-370.5 4,-370.5"/>
<text text-anchor="middle" x="67.5" y="-470.5" font-family="Helvetica,sans-Serif" font-size="10.00" fill="#000000">ene.AbstractObject</text>
<polyline fill="none" stroke="#000000" points="4,-463.5 131,-463.5 "/>
<text text-anchor="start" x="12" y="-451.5" font-family="Helvetica,sans-Serif" font-size="10.00" fill="#000000"># debugModeEnabled</text>
<polyline fill="none" stroke="#000000" points="4,-444.5 131,-444.5 "/>
<text text-anchor="start" x="12" y="-432.5" font-family="Helvetica,sans-Serif" font-size="10.00" fill="#000000">+ enableDebugMode()</text>
<text text-anchor="start" x="12" y="-421.5" font-family="Helvetica,sans-Serif" font-size="10.00" fill="#000000">+ disableDebugMode()</text>
<text text-anchor="start" x="12" y="-410.5" font-family="Helvetica,sans-Serif" font-size="10.00" fill="#000000">+ isDebugModeEnabled()</text>
<text text-anchor="start" x="12" y="-399.5" font-family="Helvetica,sans-Serif" font-size="10.00" fill="#000000">+ debugInfoAbout()</text>
<text text-anchor="start" x="12" y="-388.5" font-family="Helvetica,sans-Serif" font-size="10.00" fill="#000000">+ consoleOutput()</text>
<text text-anchor="start" x="12" y="-377.5" font-family="Helvetica,sans-Serif" font-size="10.00" fill="#000000"># delay()</text>
</a>
</g>
</g>
<!-- Node2&#45;&gt;Node1 -->
<g id="edge2" class="edge">
<title>Node2&#45;&gt;Node1</title>
<path fill="none" stroke="#191970" d="M101.8919,-361.3094C106.9153,-351.7875 111.9119,-342.3163 116.4295,-333.753"/>
<polygon fill="none" stroke="#191970" points="98.6527,-359.9485 97.0822,-370.4263 104.844,-363.2148 98.6527,-359.9485"/>
</g>
<!-- Node3 -->
<g id="node4" class="node">
<title>Node3</title>
<g id="a_node4"><a xlink:href="interfaceene_1_1interfaces_1_1Model.html" target="_top" xlink:title="{ene.interfaces.Model\n||+ addView()\l}">
<polygon fill="none" stroke="#000000" points="149,-398 149,-455 256,-455 256,-398 149,-398"/>
<text text-anchor="middle" x="202.5" y="-443" font-family="Helvetica,sans-Serif" font-size="10.00" fill="#000000">ene.interfaces.Model</text>
<polyline fill="none" stroke="#000000" points="149,-436 256,-436 "/>
<text text-anchor="middle" x="202.5" y="-424" font-family="Helvetica,sans-Serif" font-size="10.00" fill="#000000"> </text>
<polyline fill="none" stroke="#000000" points="149,-417 256,-417 "/>
<text text-anchor="start" x="157" y="-405" font-family="Helvetica,sans-Serif" font-size="10.00" fill="#000000">+ addView()</text>
</a>
</g>
</g>
<!-- Node3&#45;&gt;Node1 -->
<g id="edge3" class="edge">
<title>Node3&#45;&gt;Node1</title>
<path fill="none" stroke="#191970" d="M182.5097,-389.1651C173.1272,-371.6419 162.0196,-350.8969 152.8528,-333.7765"/>
<polygon fill="none" stroke="#191970" points="179.4336,-390.835 187.2395,-397.9987 185.6047,-387.5308 179.4336,-390.835"/>
</g>
</g>
</svg>
