<?xml version="1.0" encoding="UTF-8" standalone="no"?>
<!DOCTYPE svg PUBLIC "-//W3C//DTD SVG 1.1//EN"
 "http://www.w3.org/Graphics/SVG/1.1/DTD/svg11.dtd">
<!-- Generated by graphviz version 2.40.1 (20161225.0304)
 -->
<!-- Title: ene.controllers.PlaylistController.loadFromFile Pages: 1 -->
<svg width="669pt" height="198pt"
 viewBox="0.00 0.00 669.00 197.50" xmlns="http://www.w3.org/2000/svg" xmlns:xlink="http://www.w3.org/1999/xlink">
<g id="graph0" class="graph" transform="scale(1 1) rotate(0) translate(4 193.5)">
<title>ene.controllers.PlaylistController.loadFromFile</title>
<!-- Node36 -->
<g id="node1" class="node">
<title>Node36</title>
<polygon fill="#bfbfbf" stroke="#000000" points="0,-49.5 0,-79.5 118,-79.5 118,-49.5 0,-49.5"/>
<text text-anchor="start" x="8" y="-67.5" font-family="Helvetica,sans-Serif" font-size="10.00" fill="#000000">ene.controllers.Playlist</text>
<text text-anchor="middle" x="59" y="-56.5" font-family="Helvetica,sans-Serif" font-size="10.00" fill="#000000">Controller.loadFromFile</text>
</g>
<!-- Node37 -->
<g id="node2" class="node">
<title>Node37</title>
<g id="a_node2"><a xlink:href="classene_1_1controllers_1_1PlaylistController.html#ad5e0bbbd2de4359b178fdf0458447d77" target="_top" xlink:title="ene.controllers.Playlist\lController.add">
<polygon fill="none" stroke="#000000" points="171.5,-98.5 171.5,-128.5 287.5,-128.5 287.5,-98.5 171.5,-98.5"/>
<text text-anchor="start" x="179.5" y="-116.5" font-family="Helvetica,sans-Serif" font-size="10.00" fill="#000000">ene.controllers.Playlist</text>
<text text-anchor="middle" x="229.5" y="-105.5" font-family="Helvetica,sans-Serif" font-size="10.00" fill="#000000">Controller.add</text>
</a>
</g>
</g>
<!-- Node36&#45;&gt;Node37 -->
<g id="edge1" class="edge">
<title>Node36&#45;&gt;Node37</title>
<path fill="none" stroke="#191970" d="M111.5468,-79.6014C129.213,-84.6785 149.0875,-90.3902 167.416,-95.6577"/>
<polygon fill="#191970" stroke="#191970" points="166.5489,-99.0501 177.1267,-98.4484 168.4824,-92.3224 166.5489,-99.0501"/>
</g>
<!-- Node44 -->
<g id="node9" class="node">
<title>Node44</title>
<g id="a_node9"><a xlink:href="classene_1_1models_1_1TrackModel.html#ab0db9bf0054a77ed2879695a379e3bd9" target="_top" xlink:title="ene.models.TrackModel.detect\lArtist">
<polygon fill="none" stroke="#000000" points="154,-49.5 154,-79.5 305,-79.5 305,-49.5 154,-49.5"/>
<text text-anchor="start" x="162" y="-67.5" font-family="Helvetica,sans-Serif" font-size="10.00" fill="#000000">ene.models.TrackModel.detect</text>
<text text-anchor="middle" x="229.5" y="-56.5" font-family="Helvetica,sans-Serif" font-size="10.00" fill="#000000">Artist</text>
</a>
</g>
</g>
<!-- Node36&#45;&gt;Node44 -->
<g id="edge8" class="edge">
<title>Node36&#45;&gt;Node44</title>
<path fill="none" stroke="#191970" d="M118.1541,-64.5C126.4497,-64.5 135.1101,-64.5 143.7771,-64.5"/>
<polygon fill="#191970" stroke="#191970" points="143.9329,-68.0001 153.9328,-64.5 143.9328,-61.0001 143.9329,-68.0001"/>
</g>
<!-- Node46 -->
<g id="node11" class="node">
<title>Node46</title>
<g id="a_node11"><a xlink:href="classene_1_1models_1_1TrackModel.html#a860b368d4cb6d81e7504cbf979c0cad7" target="_top" xlink:title="ene.models.TrackModel.detect\lTitle">
<polygon fill="none" stroke="#000000" points="154,-.5 154,-30.5 305,-30.5 305,-.5 154,-.5"/>
<text text-anchor="start" x="162" y="-18.5" font-family="Helvetica,sans-Serif" font-size="10.00" fill="#000000">ene.models.TrackModel.detect</text>
<text text-anchor="middle" x="229.5" y="-7.5" font-family="Helvetica,sans-Serif" font-size="10.00" fill="#000000">Title</text>
</a>
</g>
</g>
<!-- Node36&#45;&gt;Node46 -->
<g id="edge10" class="edge">
<title>Node36&#45;&gt;Node46</title>
<path fill="none" stroke="#191970" d="M111.5468,-49.3986C129.213,-44.3215 149.0875,-38.6098 167.416,-33.3423"/>
<polygon fill="#191970" stroke="#191970" points="168.4824,-36.6776 177.1267,-30.5516 166.5489,-29.9499 168.4824,-36.6776"/>
</g>
<!-- Node38 -->
<g id="node3" class="node">
<title>Node38</title>
<g id="a_node3"><a xlink:href="classene_1_1controllers_1_1AbstractController.html#a9a5afba01d0004a64db4cb14c23e0bbd" target="_top" xlink:title="ene.controllers.Abstract\lController\&lt; PlaylistModel\l \&gt;::getModel">
<polygon fill="none" stroke="#000000" points="351.5,-148 351.5,-189 477.5,-189 477.5,-148 351.5,-148"/>
<text text-anchor="start" x="359.5" y="-177" font-family="Helvetica,sans-Serif" font-size="10.00" fill="#000000">ene.controllers.Abstract</text>
<text text-anchor="start" x="359.5" y="-166" font-family="Helvetica,sans-Serif" font-size="10.00" fill="#000000">Controller&lt; PlaylistModel</text>
<text text-anchor="middle" x="414.5" y="-155" font-family="Helvetica,sans-Serif" font-size="10.00" fill="#000000"> &gt;::getModel</text>
</a>
</g>
</g>
<!-- Node37&#45;&gt;Node38 -->
<g id="edge2" class="edge">
<title>Node37&#45;&gt;Node38</title>
<path fill="none" stroke="#191970" d="M280.0521,-128.529C299.0774,-134.1852 321.1065,-140.7344 341.7574,-146.8738"/>
<polygon fill="#191970" stroke="#191970" points="340.8651,-150.2599 351.4478,-149.7548 342.8599,-143.5501 340.8651,-150.2599"/>
</g>
<!-- Node39 -->
<g id="node4" class="node">
<title>Node39</title>
<g id="a_node4"><a xlink:href="classene_1_1controllers_1_1PlaylistController.html#ad1d7aec30633c29764592d730354cb83" target="_top" xlink:title="ene.controllers.Playlist\lController.getPlaylistFilename">
<polygon fill="none" stroke="#000000" points="341,-98.5 341,-128.5 488,-128.5 488,-98.5 341,-98.5"/>
<text text-anchor="start" x="349" y="-116.5" font-family="Helvetica,sans-Serif" font-size="10.00" fill="#000000">ene.controllers.Playlist</text>
<text text-anchor="middle" x="414.5" y="-105.5" font-family="Helvetica,sans-Serif" font-size="10.00" fill="#000000">Controller.getPlaylistFilename</text>
</a>
</g>
</g>
<!-- Node37&#45;&gt;Node39 -->
<g id="edge3" class="edge">
<title>Node37&#45;&gt;Node39</title>
<path fill="none" stroke="#191970" d="M287.5276,-113.5C301.217,-113.5 316.0819,-113.5 330.6576,-113.5"/>
<polygon fill="#191970" stroke="#191970" points="330.6843,-117.0001 340.6843,-113.5 330.6842,-110.0001 330.6843,-117.0001"/>
</g>
<!-- Node40 -->
<g id="node5" class="node">
<title>Node40</title>
<g id="a_node5"><a xlink:href="classene_1_1controllers_1_1PlaylistController.html#ab949ed1ee47aec9ba039d92a36435809" target="_top" xlink:title="ene.controllers.Playlist\lController.saveToFile">
<polygon fill="none" stroke="#000000" points="356.5,-49.5 356.5,-79.5 472.5,-79.5 472.5,-49.5 356.5,-49.5"/>
<text text-anchor="start" x="364.5" y="-67.5" font-family="Helvetica,sans-Serif" font-size="10.00" fill="#000000">ene.controllers.Playlist</text>
<text text-anchor="middle" x="414.5" y="-56.5" font-family="Helvetica,sans-Serif" font-size="10.00" fill="#000000">Controller.saveToFile</text>
</a>
</g>
</g>
<!-- Node37&#45;&gt;Node40 -->
<g id="edge4" class="edge">
<title>Node37&#45;&gt;Node40</title>
<path fill="none" stroke="#191970" d="M286.2633,-98.4654C305.7968,-93.2917 327.8426,-87.4525 348.0759,-82.0934"/>
<polygon fill="#191970" stroke="#191970" points="349.0735,-85.45 357.844,-79.5062 347.2812,-78.6833 349.0735,-85.45"/>
</g>
<!-- Node41 -->
<g id="node6" class="node">
<title>Node41</title>
<g id="a_node6"><a xlink:href="classene_1_1models_1_1TrackModel.html#a04afba3cc5098c28ebd394fb7ac920ba" target="_top" xlink:title="ene.models.TrackModel.get\lArtist">
<polygon fill="none" stroke="#000000" points="524,-98.5 524,-128.5 661,-128.5 661,-98.5 524,-98.5"/>
<text text-anchor="start" x="532" y="-116.5" font-family="Helvetica,sans-Serif" font-size="10.00" fill="#000000">ene.models.TrackModel.get</text>
<text text-anchor="middle" x="592.5" y="-105.5" font-family="Helvetica,sans-Serif" font-size="10.00" fill="#000000">Artist</text>
</a>
</g>
</g>
<!-- Node40&#45;&gt;Node41 -->
<g id="edge5" class="edge">
<title>Node40&#45;&gt;Node41</title>
<path fill="none" stroke="#191970" d="M469.3583,-79.6014C487.8865,-84.7019 508.7416,-90.4429 527.9495,-95.7305"/>
<polygon fill="#191970" stroke="#191970" points="527.2525,-99.1687 537.8228,-98.4484 529.1104,-92.4198 527.2525,-99.1687"/>
</g>
<!-- Node42 -->
<g id="node7" class="node">
<title>Node42</title>
<g id="a_node7"><a xlink:href="classene_1_1models_1_1TrackModel.html#a5bac0e2b6c87c93eef2802d9d10bf3c1" target="_top" xlink:title="ene.models.TrackModel.get\lTitle">
<polygon fill="none" stroke="#000000" points="524,-49.5 524,-79.5 661,-79.5 661,-49.5 524,-49.5"/>
<text text-anchor="start" x="532" y="-67.5" font-family="Helvetica,sans-Serif" font-size="10.00" fill="#000000">ene.models.TrackModel.get</text>
<text text-anchor="middle" x="592.5" y="-56.5" font-family="Helvetica,sans-Serif" font-size="10.00" fill="#000000">Title</text>
</a>
</g>
</g>
<!-- Node40&#45;&gt;Node42 -->
<g id="edge6" class="edge">
<title>Node40&#45;&gt;Node42</title>
<path fill="none" stroke="#191970" d="M472.7839,-64.5C485.792,-64.5 499.798,-64.5 513.485,-64.5"/>
<polygon fill="#191970" stroke="#191970" points="513.8676,-68.0001 523.8675,-64.5 513.8675,-61.0001 513.8676,-68.0001"/>
</g>
<!-- Node43 -->
<g id="node8" class="node">
<title>Node43</title>
<g id="a_node8"><a xlink:href="classene_1_1models_1_1TrackModel.html#aab88fe151b093dba71ad9f9ab5c6959d" target="_top" xlink:title="ene.models.TrackModel.get\lFilename">
<polygon fill="none" stroke="#000000" points="524,-.5 524,-30.5 661,-30.5 661,-.5 524,-.5"/>
<text text-anchor="start" x="532" y="-18.5" font-family="Helvetica,sans-Serif" font-size="10.00" fill="#000000">ene.models.TrackModel.get</text>
<text text-anchor="middle" x="592.5" y="-7.5" font-family="Helvetica,sans-Serif" font-size="10.00" fill="#000000">Filename</text>
</a>
</g>
</g>
<!-- Node40&#45;&gt;Node43 -->
<g id="edge7" class="edge">
<title>Node40&#45;&gt;Node43</title>
<path fill="none" stroke="#191970" d="M469.3583,-49.3986C487.8865,-44.2981 508.7416,-38.5571 527.9495,-33.2695"/>
<polygon fill="#191970" stroke="#191970" points="529.1104,-36.5802 537.8228,-30.5516 527.2525,-29.8313 529.1104,-36.5802"/>
</g>
<!-- Node45 -->
<g id="node10" class="node">
<title>Node45</title>
<g id="a_node10"><a xlink:href="classene_1_1models_1_1TrackModel.html#a3bd9746678863a59cb9b7ec404f1f05e" target="_top" xlink:title="ene.models.TrackModel.cut\lFilenameFromPath">
<polygon fill="none" stroke="#000000" points="346,-.5 346,-30.5 483,-30.5 483,-.5 346,-.5"/>
<text text-anchor="start" x="354" y="-18.5" font-family="Helvetica,sans-Serif" font-size="10.00" fill="#000000">ene.models.TrackModel.cut</text>
<text text-anchor="middle" x="414.5" y="-7.5" font-family="Helvetica,sans-Serif" font-size="10.00" fill="#000000">FilenameFromPath</text>
</a>
</g>
</g>
<!-- Node44&#45;&gt;Node45 -->
<g id="edge9" class="edge">
<title>Node44&#45;&gt;Node45</title>
<path fill="none" stroke="#191970" d="M286.2633,-49.4654C305.7968,-44.2917 327.8426,-38.4525 348.0759,-33.0934"/>
<polygon fill="#191970" stroke="#191970" points="349.0735,-36.45 357.844,-30.5062 347.2812,-29.6833 349.0735,-36.45"/>
</g>
<!-- Node46&#45;&gt;Node45 -->
<g id="edge11" class="edge">
<title>Node46&#45;&gt;Node45</title>
<path fill="none" stroke="#191970" d="M305.0134,-15.5C315.1294,-15.5 325.5261,-15.5 335.6969,-15.5"/>
<polygon fill="#191970" stroke="#191970" points="335.7736,-19.0001 345.7736,-15.5 335.7735,-12.0001 335.7736,-19.0001"/>
</g>
</g>
</svg>
