<?xml version="1.0" encoding="UTF-8" standalone="no"?>
<!DOCTYPE svg PUBLIC "-//W3C//DTD SVG 1.1//EN"
 "http://www.w3.org/Graphics/SVG/1.1/DTD/svg11.dtd">
<!-- Generated by graphviz version 2.40.1 (20161225.0304)
 -->
<!-- Title: ene.databases.SQLDatabase Pages: 1 -->
<svg width="491pt" height="397pt"
 viewBox="0.00 0.00 490.50 397.00" xmlns="http://www.w3.org/2000/svg" xmlns:xlink="http://www.w3.org/1999/xlink">
<g id="graph0" class="graph" transform="scale(1 1) rotate(0) translate(4 393)">
<title>ene.databases.SQLDatabase</title>
<!-- Node3 -->
<g id="node1" class="node">
<title>Node3</title>
<polygon fill="#bfbfbf" stroke="#000000" points="227,-.5 227,-123.5 372,-123.5 372,-.5 227,-.5"/>
<text text-anchor="middle" x="299.5" y="-111.5" font-family="Helvetica,sans-Serif" font-size="10.00" fill="#000000">ene.databases.SQLDatabase</text>
<polyline fill="none" stroke="#000000" points="227,-104.5 372,-104.5 "/>
<text text-anchor="middle" x="299.5" y="-92.5" font-family="Helvetica,sans-Serif" font-size="10.00" fill="#000000"> </text>
<polyline fill="none" stroke="#000000" points="227,-85.5 372,-85.5 "/>
<text text-anchor="start" x="235" y="-73.5" font-family="Helvetica,sans-Serif" font-size="10.00" fill="#000000">+ SQLDatabase()</text>
<text text-anchor="start" x="235" y="-62.5" font-family="Helvetica,sans-Serif" font-size="10.00" fill="#000000">+ execute()</text>
<text text-anchor="start" x="235" y="-51.5" font-family="Helvetica,sans-Serif" font-size="10.00" fill="#000000">+ query()</text>
<text text-anchor="start" x="235" y="-40.5" font-family="Helvetica,sans-Serif" font-size="10.00" fill="#000000"># setConnection()</text>
<text text-anchor="start" x="235" y="-29.5" font-family="Helvetica,sans-Serif" font-size="10.00" fill="#000000"># getConnection()</text>
<text text-anchor="start" x="235" y="-18.5" font-family="Helvetica,sans-Serif" font-size="10.00" fill="#000000"># setStatement()</text>
<text text-anchor="start" x="235" y="-7.5" font-family="Helvetica,sans-Serif" font-size="10.00" fill="#000000"># getStatement()</text>
</g>
<!-- Node4 -->
<g id="node2" class="node">
<title>Node4</title>
<g id="a_node2"><a xlink:href="classene_1_1AbstractObject.html" target="_top" xlink:title="{ene.AbstractObject\n||+ enableDebugMode()\l+ disableDebugMode()\l+ isDebugModeEnabled()\l+ debugInfoAbout()\l+ consoleOutput()\l# delay()\l}">
<polygon fill="none" stroke="#000000" points="0,-171.5 0,-283.5 127,-283.5 127,-171.5 0,-171.5"/>
<text text-anchor="middle" x="63.5" y="-271.5" font-family="Helvetica,sans-Serif" font-size="10.00" fill="#000000">ene.AbstractObject</text>
<polyline fill="none" stroke="#000000" points="0,-264.5 127,-264.5 "/>
<text text-anchor="middle" x="63.5" y="-252.5" font-family="Helvetica,sans-Serif" font-size="10.00" fill="#000000"> </text>
<polyline fill="none" stroke="#000000" points="0,-245.5 127,-245.5 "/>
<text text-anchor="start" x="8" y="-233.5" font-family="Helvetica,sans-Serif" font-size="10.00" fill="#000000">+ enableDebugMode()</text>
<text text-anchor="start" x="8" y="-222.5" font-family="Helvetica,sans-Serif" font-size="10.00" fill="#000000">+ disableDebugMode()</text>
<text text-anchor="start" x="8" y="-211.5" font-family="Helvetica,sans-Serif" font-size="10.00" fill="#000000">+ isDebugModeEnabled()</text>
<text text-anchor="start" x="8" y="-200.5" font-family="Helvetica,sans-Serif" font-size="10.00" fill="#000000">+ debugInfoAbout()</text>
<text text-anchor="start" x="8" y="-189.5" font-family="Helvetica,sans-Serif" font-size="10.00" fill="#000000">+ consoleOutput()</text>
<text text-anchor="start" x="8" y="-178.5" font-family="Helvetica,sans-Serif" font-size="10.00" fill="#000000"># delay()</text>
</a>
</g>
</g>
<!-- Node4&#45;&gt;Node3 -->
<g id="edge1" class="edge">
<title>Node4&#45;&gt;Node3</title>
<path fill="none" stroke="#191970" d="M135.2464,-171.1835C135.331,-171.1222 135.4155,-171.0611 135.5,-171 164.8674,-149.7683 198.0324,-127.4313 226.8151,-108.5444"/>
<polygon fill="none" stroke="#191970" points="133.2828,-168.2831 127.2901,-177.0203 137.4234,-173.9272 133.2828,-168.2831"/>
</g>
<!-- Node5 -->
<g id="node3" class="node">
<title>Node5</title>
<polygon fill="none" stroke="#bfbfbf" points="25,-331.5 25,-388.5 102,-388.5 102,-331.5 25,-331.5"/>
<text text-anchor="middle" x="63.5" y="-376.5" font-family="Helvetica,sans-Serif" font-size="10.00" fill="#000000">static boolean</text>
<polyline fill="none" stroke="#bfbfbf" points="25,-369.5 102,-369.5 "/>
<text text-anchor="middle" x="63.5" y="-357.5" font-family="Helvetica,sans-Serif" font-size="10.00" fill="#000000"> </text>
<polyline fill="none" stroke="#bfbfbf" points="25,-350.5 102,-350.5 "/>
<text text-anchor="middle" x="63.5" y="-338.5" font-family="Helvetica,sans-Serif" font-size="10.00" fill="#000000"> </text>
</g>
<!-- Node5&#45;&gt;Node4 -->
<g id="edge2" class="edge">
<title>Node5&#45;&gt;Node4</title>
<path fill="none" stroke="#404040" d="M63.5,-331.2495C63.5,-320.8031 63.5,-308.502 63.5,-296.0912"/>
<polygon fill="none" stroke="#404040" points="63.5001,-295.7084 59.5,-289.7085 63.5,-283.7084 67.5,-289.7084 63.5001,-295.7084"/>
<text text-anchor="middle" x="110.5" y="-305" font-family="Helvetica,sans-Serif" font-size="10.00" fill="#000000"> #debugModeEnabled</text>
</g>
<!-- Node6 -->
<g id="node4" class="node">
<title>Node6</title>
<g id="a_node4"><a xlink:href="interfaceene_1_1interfaces_1_1DatabaseConnection.html" target="_top" xlink:title="{ene.interfaces.DatabaseConnection\n||+ execute()\l+ query()\l}">
<polygon fill="none" stroke="#000000" points="145,-193.5 145,-261.5 318,-261.5 318,-193.5 145,-193.5"/>
<text text-anchor="middle" x="231.5" y="-249.5" font-family="Helvetica,sans-Serif" font-size="10.00" fill="#000000">ene.interfaces.DatabaseConnection</text>
<polyline fill="none" stroke="#000000" points="145,-242.5 318,-242.5 "/>
<text text-anchor="middle" x="231.5" y="-230.5" font-family="Helvetica,sans-Serif" font-size="10.00" fill="#000000"> </text>
<polyline fill="none" stroke="#000000" points="145,-223.5 318,-223.5 "/>
<text text-anchor="start" x="153" y="-211.5" font-family="Helvetica,sans-Serif" font-size="10.00" fill="#000000">+ execute()</text>
<text text-anchor="start" x="153" y="-200.5" font-family="Helvetica,sans-Serif" font-size="10.00" fill="#000000">+ query()</text>
</a>
</g>
</g>
<!-- Node6&#45;&gt;Node3 -->
<g id="edge3" class="edge">
<title>Node6&#45;&gt;Node3</title>
<path fill="none" stroke="#191970" d="M249.4105,-183.9089C256.9795,-165.4873 265.9311,-143.7007 274.1582,-123.6776"/>
<polygon fill="none" stroke="#191970" points="246.1528,-182.6284 245.5896,-193.2083 252.6276,-185.2888 246.1528,-182.6284"/>
</g>
<!-- Node7 -->
<g id="node5" class="node">
<title>Node7</title>
<polygon fill="none" stroke="#bfbfbf" points="336.5,-199 336.5,-256 398.5,-256 398.5,-199 336.5,-199"/>
<text text-anchor="middle" x="367.5" y="-244" font-family="Helvetica,sans-Serif" font-size="10.00" fill="#000000">Statement</text>
<polyline fill="none" stroke="#bfbfbf" points="336.5,-237 398.5,-237 "/>
<text text-anchor="middle" x="367.5" y="-225" font-family="Helvetica,sans-Serif" font-size="10.00" fill="#000000"> </text>
<polyline fill="none" stroke="#bfbfbf" points="336.5,-218 398.5,-218 "/>
<text text-anchor="middle" x="367.5" y="-206" font-family="Helvetica,sans-Serif" font-size="10.00" fill="#000000"> </text>
</g>
<!-- Node7&#45;&gt;Node3 -->
<g id="edge4" class="edge">
<title>Node7&#45;&gt;Node3</title>
<path fill="none" stroke="#404040" d="M355.6553,-198.6721C348.3962,-181.0047 338.7506,-157.529 329.5046,-135.026"/>
<polygon fill="none" stroke="#404040" points="329.4266,-134.836 323.4465,-130.8064 324.866,-123.7364 330.8462,-127.766 329.4266,-134.836"/>
<text text-anchor="middle" x="361.5" y="-145" font-family="Helvetica,sans-Serif" font-size="10.00" fill="#000000"> #statement</text>
</g>
<!-- Node8 -->
<g id="node6" class="node">
<title>Node8</title>
<polygon fill="none" stroke="#bfbfbf" points="416.5,-199 416.5,-256 482.5,-256 482.5,-199 416.5,-199"/>
<text text-anchor="middle" x="449.5" y="-244" font-family="Helvetica,sans-Serif" font-size="10.00" fill="#000000">Connection</text>
<polyline fill="none" stroke="#bfbfbf" points="416.5,-237 482.5,-237 "/>
<text text-anchor="middle" x="449.5" y="-225" font-family="Helvetica,sans-Serif" font-size="10.00" fill="#000000"> </text>
<polyline fill="none" stroke="#bfbfbf" points="416.5,-218 482.5,-218 "/>
<text text-anchor="middle" x="449.5" y="-206" font-family="Helvetica,sans-Serif" font-size="10.00" fill="#000000"> </text>
</g>
<!-- Node8&#45;&gt;Node3 -->
<g id="edge5" class="edge">
<title>Node8&#45;&gt;Node3</title>
<path fill="none" stroke="#404040" d="M432.6713,-198.8262C421.9138,-181.5557 407.0916,-159.5791 391.5,-142 388.1029,-138.1699 384.5264,-134.3493 380.8348,-130.5708"/>
<polygon fill="none" stroke="#404040" points="380.5602,-130.2983 373.4838,-128.9112 372.0424,-121.8456 379.1189,-123.2327 380.5602,-130.2983"/>
<text text-anchor="middle" x="428.5" y="-145" font-family="Helvetica,sans-Serif" font-size="10.00" fill="#000000"> #connection</text>
</g>
</g>
</svg>
