<?xml version="1.0" encoding="UTF-8" standalone="no"?>
<!DOCTYPE svg PUBLIC "-//W3C//DTD SVG 1.1//EN"
 "http://www.w3.org/Graphics/SVG/1.1/DTD/svg11.dtd">
<!-- Generated by graphviz version 2.40.1 (20161225.0304)
 -->
<!-- Title: ene.databases.SQLDatabase.SQLDatabase Pages: 1 -->
<svg width="353pt" height="186pt"
 viewBox="0.00 0.00 353.00 186.00" xmlns="http://www.w3.org/2000/svg" xmlns:xlink="http://www.w3.org/1999/xlink">
<g id="graph0" class="graph" transform="scale(1 1) rotate(0) translate(4 182)">
<title>ene.databases.SQLDatabase.SQLDatabase</title>
<!-- Node0 -->
<g id="node1" class="node">
<title>Node0</title>
<polygon fill="#bfbfbf" stroke="#000000" points="0,-73.5 0,-103.5 148,-103.5 148,-73.5 0,-73.5"/>
<text text-anchor="start" x="8" y="-91.5" font-family="Helvetica,sans-Serif" font-size="10.00" fill="#000000">ene.databases.SQLDatabase.</text>
<text text-anchor="middle" x="74" y="-80.5" font-family="Helvetica,sans-Serif" font-size="10.00" fill="#000000">SQLDatabase</text>
</g>
<!-- Node1 -->
<g id="node2" class="node">
<title>Node1</title>
<g id="a_node2"><a xlink:href="classene_1_1databases_1_1SQLDatabase.html#abdb5873f35a6bb7a89a6a3daca111410" target="_top" xlink:title="ene.databases.SQLDatabase.get\lConnection">
<polygon fill="none" stroke="#000000" points="184,-147.5 184,-177.5 345,-177.5 345,-147.5 184,-147.5"/>
<text text-anchor="start" x="192" y="-165.5" font-family="Helvetica,sans-Serif" font-size="10.00" fill="#000000">ene.databases.SQLDatabase.get</text>
<text text-anchor="middle" x="264.5" y="-154.5" font-family="Helvetica,sans-Serif" font-size="10.00" fill="#000000">Connection</text>
</a>
</g>
</g>
<!-- Node0&#45;&gt;Node1 -->
<g id="edge1" class="edge">
<title>Node0&#45;&gt;Node1</title>
<path fill="none" stroke="#191970" d="M104.3464,-103.6527C126.176,-114.2157 156.4954,-128.2041 184,-138.5 189.2071,-140.4492 194.6487,-142.3501 200.1394,-144.1739"/>
<polygon fill="#191970" stroke="#191970" points="199.4441,-147.6272 210.0357,-147.3672 201.5937,-140.9654 199.4441,-147.6272"/>
</g>
<!-- Node2 -->
<g id="node3" class="node">
<title>Node2</title>
<g id="a_node3"><a xlink:href="classene_1_1databases_1_1SQLDatabase.html#aef5181c3d691141c8f9694106d4fe0ee" target="_top" xlink:title="ene.databases.SQLDatabase.get\lStatement">
<polygon fill="none" stroke="#000000" points="184,-98.5 184,-128.5 345,-128.5 345,-98.5 184,-98.5"/>
<text text-anchor="start" x="192" y="-116.5" font-family="Helvetica,sans-Serif" font-size="10.00" fill="#000000">ene.databases.SQLDatabase.get</text>
<text text-anchor="middle" x="264.5" y="-105.5" font-family="Helvetica,sans-Serif" font-size="10.00" fill="#000000">Statement</text>
</a>
</g>
</g>
<!-- Node0&#45;&gt;Node2 -->
<g id="edge2" class="edge">
<title>Node0&#45;&gt;Node2</title>
<path fill="none" stroke="#191970" d="M148.1978,-98.2372C156.6077,-99.3409 165.2481,-100.4748 173.8386,-101.6022"/>
<polygon fill="#191970" stroke="#191970" points="173.513,-105.0894 183.8834,-102.9204 174.4239,-98.1489 173.513,-105.0894"/>
</g>
<!-- Node3 -->
<g id="node4" class="node">
<title>Node3</title>
<g id="a_node4"><a xlink:href="classene_1_1databases_1_1SQLDatabase.html#a735699c8b1cd003a88881f0324e679b2" target="_top" xlink:title="ene.databases.SQLDatabase.set\lConnection">
<polygon fill="none" stroke="#000000" points="184,-49.5 184,-79.5 345,-79.5 345,-49.5 184,-49.5"/>
<text text-anchor="start" x="192" y="-67.5" font-family="Helvetica,sans-Serif" font-size="10.00" fill="#000000">ene.databases.SQLDatabase.set</text>
<text text-anchor="middle" x="264.5" y="-56.5" font-family="Helvetica,sans-Serif" font-size="10.00" fill="#000000">Connection</text>
</a>
</g>
</g>
<!-- Node0&#45;&gt;Node3 -->
<g id="edge3" class="edge">
<title>Node0&#45;&gt;Node3</title>
<path fill="none" stroke="#191970" d="M148.1978,-79.1523C156.6077,-78.0927 165.2481,-77.0042 173.8386,-75.9219"/>
<polygon fill="#191970" stroke="#191970" points="174.3994,-79.379 183.8834,-74.6564 173.5243,-72.4339 174.3994,-79.379"/>
</g>
<!-- Node4 -->
<g id="node5" class="node">
<title>Node4</title>
<g id="a_node5"><a xlink:href="classene_1_1databases_1_1SQLDatabase.html#af13c91c98bec1fe20b0b3f417f50503c" target="_top" xlink:title="ene.databases.SQLDatabase.set\lStatement">
<polygon fill="none" stroke="#000000" points="184,-.5 184,-30.5 345,-30.5 345,-.5 184,-.5"/>
<text text-anchor="start" x="192" y="-18.5" font-family="Helvetica,sans-Serif" font-size="10.00" fill="#000000">ene.databases.SQLDatabase.set</text>
<text text-anchor="middle" x="264.5" y="-7.5" font-family="Helvetica,sans-Serif" font-size="10.00" fill="#000000">Statement</text>
</a>
</g>
</g>
<!-- Node0&#45;&gt;Node4 -->
<g id="edge4" class="edge">
<title>Node0&#45;&gt;Node4</title>
<path fill="none" stroke="#191970" d="M105.8665,-73.4813C127.625,-63.5033 157.2471,-50.4566 184,-40.5 190.2661,-38.168 196.8596,-35.872 203.464,-33.6736"/>
<polygon fill="#191970" stroke="#191970" points="204.6879,-36.956 213.1112,-30.5296 202.5188,-30.3005 204.6879,-36.956"/>
</g>
</g>
</svg>
