<?xml version="1.0" encoding="UTF-8" standalone="no"?>
<!DOCTYPE svg PUBLIC "-//W3C//DTD SVG 1.1//EN"
 "http://www.w3.org/Graphics/SVG/1.1/DTD/svg11.dtd">
<!-- Generated by graphviz version 2.40.1 (20161225.0304)
 -->
<!-- Title: ene.controllers.PlayerController.togglePlayback Pages: 1 -->
<svg width="536pt" height="39pt"
 viewBox="0.00 0.00 536.00 39.00" xmlns="http://www.w3.org/2000/svg" xmlns:xlink="http://www.w3.org/1999/xlink">
<g id="graph0" class="graph" transform="scale(1 1) rotate(0) translate(4 35)">
<title>ene.controllers.PlayerController.togglePlayback</title>
<!-- Node16 -->
<g id="node1" class="node">
<title>Node16</title>
<polygon fill="#bfbfbf" stroke="#000000" points="0,-.5 0,-30.5 182,-30.5 182,-.5 0,-.5"/>
<text text-anchor="start" x="8" y="-18.5" font-family="Helvetica,sans-Serif" font-size="10.00" fill="#000000">ene.controllers.PlayerController.toggle</text>
<text text-anchor="middle" x="91" y="-7.5" font-family="Helvetica,sans-Serif" font-size="10.00" fill="#000000">Playback</text>
</g>
<!-- Node17 -->
<g id="node2" class="node">
<title>Node17</title>
<g id="a_node2"><a xlink:href="classene_1_1views_1_1gui_1_1partial_1_1PlayerView.html#a6a20ce866e62ced7476b666fe891b10a" target="_top" xlink:title="ene.views.gui.partial.Player\lView.initialize">
<polygon fill="none" stroke="#000000" points="218,-.5 218,-30.5 355,-30.5 355,-.5 218,-.5"/>
<text text-anchor="start" x="226" y="-18.5" font-family="Helvetica,sans-Serif" font-size="10.00" fill="#000000">ene.views.gui.partial.Player</text>
<text text-anchor="middle" x="286.5" y="-7.5" font-family="Helvetica,sans-Serif" font-size="10.00" fill="#000000">View.initialize</text>
</a>
</g>
</g>
<!-- Node16&#45;&gt;Node17 -->
<g id="edge1" class="edge">
<title>Node16&#45;&gt;Node17</title>
<path fill="none" stroke="#191970" d="M192.3462,-15.5C201.0158,-15.5 209.6477,-15.5 217.9686,-15.5"/>
<polygon fill="#191970" stroke="#191970" points="192.1678,-12.0001 182.1678,-15.5 192.1677,-19.0001 192.1678,-12.0001"/>
</g>
<!-- Node18 -->
<g id="node3" class="node">
<title>Node18</title>
<g id="a_node3"><a xlink:href="classene_1_1views_1_1gui_1_1partial_1_1PlayerView.html#a87a7a4837fc2b68df6bf06984881a7ea" target="_top" xlink:title="ene.views.gui.partial.Player\lView.PlayerView">
<polygon fill="none" stroke="#000000" points="391,-.5 391,-30.5 528,-30.5 528,-.5 391,-.5"/>
<text text-anchor="start" x="399" y="-18.5" font-family="Helvetica,sans-Serif" font-size="10.00" fill="#000000">ene.views.gui.partial.Player</text>
<text text-anchor="middle" x="459.5" y="-7.5" font-family="Helvetica,sans-Serif" font-size="10.00" fill="#000000">View.PlayerView</text>
</a>
</g>
</g>
<!-- Node17&#45;&gt;Node18 -->
<g id="edge2" class="edge">
<title>Node17&#45;&gt;Node18</title>
<path fill="none" stroke="#191970" d="M365.5941,-15.5C374.0314,-15.5 382.5633,-15.5 390.8657,-15.5"/>
<polygon fill="#191970" stroke="#191970" points="365.3713,-12.0001 355.3713,-15.5 365.3712,-19.0001 365.3713,-12.0001"/>
</g>
</g>
</svg>
