<?xml version="1.0" encoding="UTF-8" standalone="no"?>
<!DOCTYPE svg PUBLIC "-//W3C//DTD SVG 1.1//EN"
 "http://www.w3.org/Graphics/SVG/1.1/DTD/svg11.dtd">
<!-- Generated by graphviz version 2.40.1 (20161225.0304)
 -->
<!-- Title: ene.views.AbstractMasterView.getAllViews Pages: 1 -->
<svg width="342pt" height="78pt"
 viewBox="0.00 0.00 342.00 77.50" xmlns="http://www.w3.org/2000/svg" xmlns:xlink="http://www.w3.org/1999/xlink">
<g id="graph0" class="graph" transform="scale(1 1) rotate(0) translate(4 73.5)">
<title>ene.views.AbstractMasterView.getAllViews</title>
<!-- Node5 -->
<g id="node1" class="node">
<title>Node5</title>
<polygon fill="#bfbfbf" stroke="#000000" points="0,-17 0,-47 131,-47 131,-17 0,-17"/>
<text text-anchor="start" x="8" y="-35" font-family="Helvetica,sans-Serif" font-size="10.00" fill="#000000">ene.views.AbstractMaster</text>
<text text-anchor="middle" x="65.5" y="-24" font-family="Helvetica,sans-Serif" font-size="10.00" fill="#000000">View.getAllViews</text>
</g>
<!-- Node6 -->
<g id="node2" class="node">
<title>Node6</title>
<g id="a_node2"><a xlink:href="classene_1_1views_1_1gui_1_1partial_1_1ContentView.html#a7615ef3421a9f5a70e4929ec72132020" target="_top" xlink:title="ene.views.gui.partial.Content\lView.render">
<polygon fill="none" stroke="#000000" points="179,-39 179,-69 322,-69 322,-39 179,-39"/>
<text text-anchor="start" x="187" y="-57" font-family="Helvetica,sans-Serif" font-size="10.00" fill="#000000">ene.views.gui.partial.Content</text>
<text text-anchor="middle" x="250.5" y="-46" font-family="Helvetica,sans-Serif" font-size="10.00" fill="#000000">View.render</text>
</a>
</g>
</g>
<!-- Node5&#45;&gt;Node6 -->
<g id="edge1" class="edge">
<title>Node5&#45;&gt;Node6</title>
<path fill="none" stroke="#191970" d="M141.4668,-41.0339C153.7725,-42.4973 166.4816,-44.0086 178.6846,-45.4598"/>
<polygon fill="#191970" stroke="#191970" points="141.5883,-37.5238 131.245,-39.8183 140.7617,-44.4748 141.5883,-37.5238"/>
</g>
<!-- Node7 -->
<g id="node3" class="node">
<title>Node7</title>
<g id="a_node3"><a xlink:href="classene_1_1views_1_1gui_1_1WindowView.html#a2ce6d135f47d21b01c91eeeac2e5c52a" target="_top" xlink:title="ene.views.gui.WindowView.render">
<polygon fill="none" stroke="#000000" points="167,-.5 167,-19.5 334,-19.5 334,-.5 167,-.5"/>
<text text-anchor="middle" x="250.5" y="-7.5" font-family="Helvetica,sans-Serif" font-size="10.00" fill="#000000">ene.views.gui.WindowView.render</text>
</a>
</g>
</g>
<!-- Node5&#45;&gt;Node7 -->
<g id="edge2" class="edge">
<title>Node5&#45;&gt;Node7</title>
<path fill="none" stroke="#191970" d="M141.4768,-22.9649C151.0122,-21.831 160.7897,-20.6683 170.3861,-19.5271"/>
<polygon fill="#191970" stroke="#191970" points="140.7617,-19.5252 131.245,-24.1817 141.5883,-26.4762 140.7617,-19.5252"/>
</g>
</g>
</svg>
