<?xml version="1.0" encoding="UTF-8" standalone="no"?>
<!DOCTYPE svg PUBLIC "-//W3C//DTD SVG 1.1//EN"
 "http://www.w3.org/Graphics/SVG/1.1/DTD/svg11.dtd">
<!-- Generated by graphviz version 2.40.1 (20161225.0304)
 -->
<!-- Title: ene.models.AbstractModel.changed Pages: 1 -->
<svg width="793pt" height="361pt"
 viewBox="0.00 0.00 793.00 360.50" xmlns="http://www.w3.org/2000/svg" xmlns:xlink="http://www.w3.org/1999/xlink">
<g id="graph0" class="graph" transform="scale(1 1) rotate(0) translate(4 356.5)">
<title>ene.models.AbstractModel.changed</title>
<!-- Node4 -->
<g id="node1" class="node">
<title>Node4</title>
<polygon fill="#bfbfbf" stroke="#000000" points="0,-177 0,-196 173,-196 173,-177 0,-177"/>
<text text-anchor="middle" x="86.5" y="-184" font-family="Helvetica,sans-Serif" font-size="10.00" fill="#000000">ene.models.AbstractModel.changed</text>
</g>
<!-- Node5 -->
<g id="node2" class="node">
<title>Node5</title>
<g id="a_node2"><a xlink:href="classene_1_1models_1_1TrackListModel.html#a57554d49b1182a9138b871617ce57e9a" target="_top" xlink:title="ene.models.TrackListModel.add">
<polygon fill="none" stroke="#000000" points="217.5,-333 217.5,-352 372.5,-352 372.5,-333 217.5,-333"/>
<text text-anchor="middle" x="295" y="-340" font-family="Helvetica,sans-Serif" font-size="10.00" fill="#000000">ene.models.TrackListModel.add</text>
</a>
</g>
</g>
<!-- Node4&#45;&gt;Node5 -->
<g id="edge1" class="edge">
<title>Node4&#45;&gt;Node5</title>
<path fill="none" stroke="#191970" d="M97.5142,-204.9628C116.3721,-234.8646 157.8082,-293.5521 209,-323.5 215.599,-327.3605 222.9009,-330.4378 230.3794,-332.8906"/>
<polygon fill="#191970" stroke="#191970" points="100.4264,-203.0168 92.2011,-196.3388 94.4666,-206.6886 100.4264,-203.0168"/>
</g>
<!-- Node6 -->
<g id="node3" class="node">
<title>Node6</title>
<g id="a_node3"><a xlink:href="classene_1_1models_1_1TrackListModel.html#a51482a5f74dfadca48a06dd8888751cd" target="_top" xlink:title="ene.models.TrackListModel.remove">
<polygon fill="none" stroke="#000000" points="209,-295 209,-314 381,-314 381,-295 209,-295"/>
<text text-anchor="middle" x="295" y="-302" font-family="Helvetica,sans-Serif" font-size="10.00" fill="#000000">ene.models.TrackListModel.remove</text>
</a>
</g>
</g>
<!-- Node4&#45;&gt;Node6 -->
<g id="edge2" class="edge">
<title>Node4&#45;&gt;Node6</title>
<path fill="none" stroke="#191970" d="M102.411,-203.5554C124.2554,-225.9046 165.7699,-264.6938 209,-285.5 216.9912,-289.3461 225.7758,-292.4247 234.5841,-294.8861"/>
<polygon fill="#191970" stroke="#191970" points="104.735,-200.9221 95.2863,-196.129 99.6837,-205.7682 104.735,-200.9221"/>
</g>
<!-- Node7 -->
<g id="node4" class="node">
<title>Node7</title>
<g id="a_node4"><a xlink:href="classene_1_1models_1_1TrackModel.html#a6e059ab76ba75be47de8d661e132f514" target="_top" xlink:title="ene.models.TrackModel.set\lArtist">
<polygon fill="none" stroke="#000000" points="226.5,-245.5 226.5,-275.5 363.5,-275.5 363.5,-245.5 226.5,-245.5"/>
<text text-anchor="start" x="234.5" y="-263.5" font-family="Helvetica,sans-Serif" font-size="10.00" fill="#000000">ene.models.TrackModel.set</text>
<text text-anchor="middle" x="295" y="-252.5" font-family="Helvetica,sans-Serif" font-size="10.00" fill="#000000">Artist</text>
</a>
</g>
</g>
<!-- Node4&#45;&gt;Node7 -->
<g id="edge3" class="edge">
<title>Node4&#45;&gt;Node7</title>
<path fill="none" stroke="#191970" d="M117.0651,-200.1252C141.6235,-210.792 177.1517,-225.5971 209,-236.5 218.0926,-239.6128 227.8253,-242.6255 237.3547,-245.4041"/>
<polygon fill="#191970" stroke="#191970" points="118.4638,-196.9169 107.8994,-196.1149 115.6579,-203.3299 118.4638,-196.9169"/>
</g>
<!-- Node9 -->
<g id="node6" class="node">
<title>Node9</title>
<g id="a_node6"><a xlink:href="classene_1_1models_1_1PlaylistModel.html#a7150506b3801f97a2e38955a585bbd07" target="_top" xlink:title="ene.models.PlaylistModel.set\lCurrentTrack">
<polygon fill="none" stroke="#000000" points="222.5,-49.5 222.5,-79.5 367.5,-79.5 367.5,-49.5 222.5,-49.5"/>
<text text-anchor="start" x="230.5" y="-67.5" font-family="Helvetica,sans-Serif" font-size="10.00" fill="#000000">ene.models.PlaylistModel.set</text>
<text text-anchor="middle" x="295" y="-56.5" font-family="Helvetica,sans-Serif" font-size="10.00" fill="#000000">CurrentTrack</text>
</a>
</g>
</g>
<!-- Node4&#45;&gt;Node9 -->
<g id="edge5" class="edge">
<title>Node4&#45;&gt;Node9</title>
<path fill="none" stroke="#191970" d="M103.3687,-169.5588C125.692,-148.0368 167.1316,-111.1018 209,-89.5 216.3235,-85.7215 224.3007,-82.436 232.3471,-79.6013"/>
<polygon fill="#191970" stroke="#191970" points="100.7385,-167.2357 96.0438,-176.7337 105.6369,-172.2364 100.7385,-167.2357"/>
</g>
<!-- Node15 -->
<g id="node12" class="node">
<title>Node15</title>
<g id="a_node12"><a xlink:href="classene_1_1models_1_1TrackModel.html#adcb5ee61c35e73b04879409a43c4b753" target="_top" xlink:title="ene.models.TrackModel.set\lFilename">
<polygon fill="none" stroke="#000000" points="226.5,-196.5 226.5,-226.5 363.5,-226.5 363.5,-196.5 226.5,-196.5"/>
<text text-anchor="start" x="234.5" y="-214.5" font-family="Helvetica,sans-Serif" font-size="10.00" fill="#000000">ene.models.TrackModel.set</text>
<text text-anchor="middle" x="295" y="-203.5" font-family="Helvetica,sans-Serif" font-size="10.00" fill="#000000">Filename</text>
</a>
</g>
</g>
<!-- Node4&#45;&gt;Node15 -->
<g id="edge11" class="edge">
<title>Node4&#45;&gt;Node15</title>
<path fill="none" stroke="#191970" d="M176.2831,-197.2654C193.0588,-199.2768 210.3441,-201.3494 226.3559,-203.2693"/>
<polygon fill="#191970" stroke="#191970" points="176.2653,-193.7382 165.9197,-196.0227 175.4319,-200.6885 176.2653,-193.7382"/>
</g>
<!-- Node16 -->
<g id="node13" class="node">
<title>Node16</title>
<g id="a_node13"><a xlink:href="classene_1_1models_1_1TrackModel.html#acfe29ae2331320c5c60824a1bb4e1ba7" target="_top" xlink:title="ene.models.TrackModel.set\lGenre">
<polygon fill="none" stroke="#000000" points="226.5,-147.5 226.5,-177.5 363.5,-177.5 363.5,-147.5 226.5,-147.5"/>
<text text-anchor="start" x="234.5" y="-165.5" font-family="Helvetica,sans-Serif" font-size="10.00" fill="#000000">ene.models.TrackModel.set</text>
<text text-anchor="middle" x="295" y="-154.5" font-family="Helvetica,sans-Serif" font-size="10.00" fill="#000000">Genre</text>
</a>
</g>
</g>
<!-- Node4&#45;&gt;Node16 -->
<g id="edge13" class="edge">
<title>Node4&#45;&gt;Node16</title>
<path fill="none" stroke="#191970" d="M179.5205,-175.7926C195.3191,-173.9741 211.4657,-172.1155 226.4862,-170.3865"/>
<polygon fill="#191970" stroke="#191970" points="178.7383,-172.3594 169.2042,-176.9801 179.5389,-179.3135 178.7383,-172.3594"/>
</g>
<!-- Node17 -->
<g id="node14" class="node">
<title>Node17</title>
<g id="a_node14"><a xlink:href="classene_1_1models_1_1TrackModel.html#a1e8a6872b5dcf826ba463a663a8249f1" target="_top" xlink:title="ene.models.TrackModel.set\lTitle">
<polygon fill="none" stroke="#000000" points="226.5,-98.5 226.5,-128.5 363.5,-128.5 363.5,-98.5 226.5,-98.5"/>
<text text-anchor="start" x="234.5" y="-116.5" font-family="Helvetica,sans-Serif" font-size="10.00" fill="#000000">ene.models.TrackModel.set</text>
<text text-anchor="middle" x="295" y="-105.5" font-family="Helvetica,sans-Serif" font-size="10.00" fill="#000000">Title</text>
</a>
</g>
</g>
<!-- Node4&#45;&gt;Node17 -->
<g id="edge15" class="edge">
<title>Node4&#45;&gt;Node17</title>
<path fill="none" stroke="#191970" d="M118.8246,-172.9086C143.353,-162.8219 178.0229,-149.0473 209,-138.5 219.0088,-135.0921 229.7683,-131.7308 240.1735,-128.6317"/>
<polygon fill="#191970" stroke="#191970" points="117.2019,-169.7922 109.2998,-176.8496 119.8783,-176.2603 117.2019,-169.7922"/>
</g>
<!-- Node18 -->
<g id="node15" class="node">
<title>Node18</title>
<g id="a_node15"><a xlink:href="classene_1_1models_1_1PlayerModel.html#a108968d6fd2beb7e322bba50028d32b1" target="_top" xlink:title="ene.models.PlayerModel.update">
<polygon fill="none" stroke="#000000" points="217,-11 217,-30 373,-30 373,-11 217,-11"/>
<text text-anchor="middle" x="295" y="-18" font-family="Helvetica,sans-Serif" font-size="10.00" fill="#000000">ene.models.PlayerModel.update</text>
</a>
</g>
</g>
<!-- Node4&#45;&gt;Node18 -->
<g id="edge17" class="edge">
<title>Node4&#45;&gt;Node18</title>
<path fill="none" stroke="#191970" d="M96.6354,-167.6092C114.7292,-135.8154 155.7385,-71.9171 209,-39.5 215.4002,-35.6046 222.501,-32.5043 229.7998,-30.0375"/>
<polygon fill="#191970" stroke="#191970" points="93.37,-166.2806 91.5796,-176.7231 99.4912,-169.6763 93.37,-166.2806"/>
</g>
<!-- Node8 -->
<g id="node5" class="node">
<title>Node8</title>
<g id="a_node5"><a xlink:href="classene_1_1models_1_1TrackModel.html#abcdd0235436de2871b905818aaff4873" target="_top" xlink:title="ene.models.TrackModel.Track\lModel">
<polygon fill="none" stroke="#000000" points="426.5,-172.5 426.5,-202.5 575.5,-202.5 575.5,-172.5 426.5,-172.5"/>
<text text-anchor="start" x="434.5" y="-190.5" font-family="Helvetica,sans-Serif" font-size="10.00" fill="#000000">ene.models.TrackModel.Track</text>
<text text-anchor="middle" x="501" y="-179.5" font-family="Helvetica,sans-Serif" font-size="10.00" fill="#000000">Model</text>
</a>
</g>
</g>
<!-- Node7&#45;&gt;Node8 -->
<g id="edge4" class="edge">
<title>Node7&#45;&gt;Node8</title>
<path fill="none" stroke="#191970" d="M362.5106,-242.462C368.7906,-240.5432 375.0331,-238.5432 381,-236.5 410.4862,-226.4033 443.1912,-212.8893 467.0015,-202.611"/>
<polygon fill="#191970" stroke="#191970" points="361.2277,-239.1923 352.6457,-245.4052 363.229,-245.9001 361.2277,-239.1923"/>
</g>
<!-- Node10 -->
<g id="node7" class="node">
<title>Node10</title>
<g id="a_node7"><a xlink:href="classene_1_1models_1_1PlaylistModel.html#ab30573de71b566da79145210f94be294" target="_top" xlink:title="ene.models.PlaylistModel.previous\lTrack">
<polygon fill="none" stroke="#000000" points="417,-98.5 417,-128.5 585,-128.5 585,-98.5 417,-98.5"/>
<text text-anchor="start" x="425" y="-116.5" font-family="Helvetica,sans-Serif" font-size="10.00" fill="#000000">ene.models.PlaylistModel.previous</text>
<text text-anchor="middle" x="501" y="-105.5" font-family="Helvetica,sans-Serif" font-size="10.00" fill="#000000">Track</text>
</a>
</g>
</g>
<!-- Node9&#45;&gt;Node10 -->
<g id="edge6" class="edge">
<title>Node9&#45;&gt;Node10</title>
<path fill="none" stroke="#191970" d="M368.1672,-81.9038C390.9554,-87.3243 415.8758,-93.252 437.9128,-98.4938"/>
<polygon fill="#191970" stroke="#191970" points="368.7453,-78.4438 358.2068,-79.5346 367.1254,-85.2538 368.7453,-78.4438"/>
</g>
<!-- Node12 -->
<g id="node9" class="node">
<title>Node12</title>
<g id="a_node9"><a xlink:href="classene_1_1models_1_1PlaylistModel.html#afba0932567d4d21976e3c37c8d80b634" target="_top" xlink:title="ene.models.PlaylistModel.next\lTrack">
<polygon fill="none" stroke="#000000" points="426,-49.5 426,-79.5 576,-79.5 576,-49.5 426,-49.5"/>
<text text-anchor="start" x="434" y="-67.5" font-family="Helvetica,sans-Serif" font-size="10.00" fill="#000000">ene.models.PlaylistModel.next</text>
<text text-anchor="middle" x="501" y="-56.5" font-family="Helvetica,sans-Serif" font-size="10.00" fill="#000000">Track</text>
</a>
</g>
</g>
<!-- Node9&#45;&gt;Node12 -->
<g id="edge8" class="edge">
<title>Node9&#45;&gt;Node12</title>
<path fill="none" stroke="#191970" d="M377.9344,-64.5C393.7881,-64.5 410.3015,-64.5 425.8927,-64.5"/>
<polygon fill="#191970" stroke="#191970" points="377.6279,-61.0001 367.6279,-64.5 377.6279,-68.0001 377.6279,-61.0001"/>
</g>
<!-- Node14 -->
<g id="node11" class="node">
<title>Node14</title>
<g id="a_node11"><a xlink:href="classene_1_1views_1_1gui_1_1partial_1_1PlaylistView.html#a108f11521a24d840a4aeb31190c0a34e" target="_top" xlink:title="ene.views.gui.partial.Playlist\lView.mousePressed">
<polygon fill="none" stroke="#000000" points="430.5,-.5 430.5,-30.5 571.5,-30.5 571.5,-.5 430.5,-.5"/>
<text text-anchor="start" x="438.5" y="-18.5" font-family="Helvetica,sans-Serif" font-size="10.00" fill="#000000">ene.views.gui.partial.Playlist</text>
<text text-anchor="middle" x="501" y="-7.5" font-family="Helvetica,sans-Serif" font-size="10.00" fill="#000000">View.mousePressed</text>
</a>
</g>
</g>
<!-- Node9&#45;&gt;Node14 -->
<g id="edge10" class="edge">
<title>Node9&#45;&gt;Node14</title>
<path fill="none" stroke="#191970" d="M368.1672,-47.0962C390.9554,-41.6757 415.8758,-35.748 437.9128,-30.5062"/>
<polygon fill="#191970" stroke="#191970" points="367.1254,-43.7462 358.2068,-49.4654 368.7453,-50.5562 367.1254,-43.7462"/>
</g>
<!-- Node11 -->
<g id="node8" class="node">
<title>Node11</title>
<g id="a_node8"><a xlink:href="classene_1_1models_1_1PlayerModel.html#a7242e20d537405f031ec8d18e7faf8fc" target="_top" xlink:title="ene.models.PlayerModel.previous">
<polygon fill="none" stroke="#000000" points="621,-104 621,-123 785,-123 785,-104 621,-104"/>
<text text-anchor="middle" x="703" y="-111" font-family="Helvetica,sans-Serif" font-size="10.00" fill="#000000">ene.models.PlayerModel.previous</text>
</a>
</g>
</g>
<!-- Node10&#45;&gt;Node11 -->
<g id="edge7" class="edge">
<title>Node10&#45;&gt;Node11</title>
<path fill="none" stroke="#191970" d="M595.2193,-113.5C603.7896,-113.5 612.4253,-113.5 620.8781,-113.5"/>
<polygon fill="#191970" stroke="#191970" points="595.2035,-110.0001 585.2035,-113.5 595.2034,-117.0001 595.2035,-110.0001"/>
</g>
<!-- Node13 -->
<g id="node10" class="node">
<title>Node13</title>
<g id="a_node10"><a xlink:href="classene_1_1models_1_1PlayerModel.html#a384fd9a2e98fc581e8221659257a8dd4" target="_top" xlink:title="ene.models.PlayerModel.next">
<polygon fill="none" stroke="#000000" points="630,-55 630,-74 776,-74 776,-55 630,-55"/>
<text text-anchor="middle" x="703" y="-62" font-family="Helvetica,sans-Serif" font-size="10.00" fill="#000000">ene.models.PlayerModel.next</text>
</a>
</g>
</g>
<!-- Node12&#45;&gt;Node13 -->
<g id="edge9" class="edge">
<title>Node12&#45;&gt;Node13</title>
<path fill="none" stroke="#191970" d="M586.58,-64.5C600.9382,-64.5 615.7222,-64.5 629.7342,-64.5"/>
<polygon fill="#191970" stroke="#191970" points="586.2174,-61.0001 576.2173,-64.5 586.2173,-68.0001 586.2174,-61.0001"/>
</g>
<!-- Node15&#45;&gt;Node8 -->
<g id="edge12" class="edge">
<title>Node15&#45;&gt;Node8</title>
<path fill="none" stroke="#191970" d="M373.6474,-202.3372C390.9382,-200.3227 409.2002,-198.1951 426.3289,-196.1995"/>
<polygon fill="#191970" stroke="#191970" points="373.1228,-198.8746 363.595,-203.5083 373.9329,-205.8275 373.1228,-198.8746"/>
</g>
<!-- Node16&#45;&gt;Node8 -->
<g id="edge14" class="edge">
<title>Node16&#45;&gt;Node8</title>
<path fill="none" stroke="#191970" d="M373.6474,-172.0446C390.9382,-174.143 409.2002,-176.3592 426.3289,-178.438"/>
<polygon fill="#191970" stroke="#191970" points="373.9439,-168.555 363.595,-170.8246 373.1005,-175.504 373.9439,-168.555"/>
</g>
<!-- Node17&#45;&gt;Node8 -->
<g id="edge16" class="edge">
<title>Node17&#45;&gt;Node8</title>
<path fill="none" stroke="#191970" d="M359.6852,-131.5094C366.9106,-133.7563 374.1358,-136.1082 381,-138.5 410.4315,-148.7551 443.1409,-162.2561 466.967,-172.4891"/>
<polygon fill="#191970" stroke="#191970" points="360.4521,-128.0842 349.8661,-128.5167 358.4113,-134.7801 360.4521,-128.0842"/>
</g>
</g>
</svg>
