<?xml version="1.0" encoding="UTF-8" standalone="no"?>
<!DOCTYPE svg PUBLIC "-//W3C//DTD SVG 1.1//EN"
 "http://www.w3.org/Graphics/SVG/1.1/DTD/svg11.dtd">
<!-- Generated by graphviz version 2.40.1 (20161225.0304)
 -->
<!-- Title: ene.models.TrackListModel Pages: 1 -->
<svg width="554pt" height="513pt"
 viewBox="0.00 0.00 553.50 513.00" xmlns="http://www.w3.org/2000/svg" xmlns:xlink="http://www.w3.org/1999/xlink">
<g id="graph0" class="graph" transform="scale(1 1) rotate(0) translate(4 509)">
<title>ene.models.TrackListModel</title>
<!-- Node6 -->
<g id="node1" class="node">
<title>Node6</title>
<polygon fill="#bfbfbf" stroke="#000000" points="234,-.5 234,-101.5 371,-101.5 371,-.5 234,-.5"/>
<text text-anchor="middle" x="302.5" y="-89.5" font-family="Helvetica,sans-Serif" font-size="10.00" fill="#000000">ene.models.TrackListModel</text>
<polyline fill="none" stroke="#000000" points="234,-82.5 371,-82.5 "/>
<text text-anchor="middle" x="302.5" y="-70.5" font-family="Helvetica,sans-Serif" font-size="10.00" fill="#000000"> </text>
<polyline fill="none" stroke="#000000" points="234,-63.5 371,-63.5 "/>
<text text-anchor="start" x="242" y="-51.5" font-family="Helvetica,sans-Serif" font-size="10.00" fill="#000000">+ add()</text>
<text text-anchor="start" x="242" y="-40.5" font-family="Helvetica,sans-Serif" font-size="10.00" fill="#000000">+ remove()</text>
<text text-anchor="start" x="242" y="-29.5" font-family="Helvetica,sans-Serif" font-size="10.00" fill="#000000">+ get()</text>
<text text-anchor="start" x="242" y="-18.5" font-family="Helvetica,sans-Serif" font-size="10.00" fill="#000000">+ has()</text>
<text text-anchor="start" x="242" y="-7.5" font-family="Helvetica,sans-Serif" font-size="10.00" fill="#000000">+ getAll()</text>
</g>
<!-- Node7 -->
<g id="node2" class="node">
<title>Node7</title>
<g id="a_node2"><a xlink:href="classene_1_1models_1_1AbstractModel.html" target="_top" xlink:title="{ene.models.AbstractModel\n||+ addView()\l# changed()\l}">
<polygon fill="none" stroke="#000000" points="161,-149.5 161,-217.5 294,-217.5 294,-149.5 161,-149.5"/>
<text text-anchor="middle" x="227.5" y="-205.5" font-family="Helvetica,sans-Serif" font-size="10.00" fill="#000000">ene.models.AbstractModel</text>
<polyline fill="none" stroke="#000000" points="161,-198.5 294,-198.5 "/>
<text text-anchor="middle" x="227.5" y="-186.5" font-family="Helvetica,sans-Serif" font-size="10.00" fill="#000000"> </text>
<polyline fill="none" stroke="#000000" points="161,-179.5 294,-179.5 "/>
<text text-anchor="start" x="169" y="-167.5" font-family="Helvetica,sans-Serif" font-size="10.00" fill="#000000">+ addView()</text>
<text text-anchor="start" x="169" y="-156.5" font-family="Helvetica,sans-Serif" font-size="10.00" fill="#000000"># changed()</text>
</a>
</g>
</g>
<!-- Node7&#45;&gt;Node6 -->
<g id="edge1" class="edge">
<title>Node7&#45;&gt;Node6</title>
<path fill="none" stroke="#191970" d="M251.8064,-140.5587C258.8587,-128.0996 266.6245,-114.3801 273.9134,-101.5031"/>
<polygon fill="none" stroke="#191970" points="248.6945,-138.9513 246.8144,-149.378 254.7863,-142.3995 248.6945,-138.9513"/>
</g>
<!-- Node8 -->
<g id="node3" class="node">
<title>Node8</title>
<g id="a_node3"><a xlink:href="classene_1_1AbstractObject.html" target="_top" xlink:title="{ene.AbstractObject\n||+ enableDebugMode()\l+ disableDebugMode()\l+ isDebugModeEnabled()\l+ debugInfoAbout()\l+ consoleOutput()\l# delay()\l}">
<polygon fill="none" stroke="#000000" points="0,-276.5 0,-388.5 127,-388.5 127,-276.5 0,-276.5"/>
<text text-anchor="middle" x="63.5" y="-376.5" font-family="Helvetica,sans-Serif" font-size="10.00" fill="#000000">ene.AbstractObject</text>
<polyline fill="none" stroke="#000000" points="0,-369.5 127,-369.5 "/>
<text text-anchor="middle" x="63.5" y="-357.5" font-family="Helvetica,sans-Serif" font-size="10.00" fill="#000000"> </text>
<polyline fill="none" stroke="#000000" points="0,-350.5 127,-350.5 "/>
<text text-anchor="start" x="8" y="-338.5" font-family="Helvetica,sans-Serif" font-size="10.00" fill="#000000">+ enableDebugMode()</text>
<text text-anchor="start" x="8" y="-327.5" font-family="Helvetica,sans-Serif" font-size="10.00" fill="#000000">+ disableDebugMode()</text>
<text text-anchor="start" x="8" y="-316.5" font-family="Helvetica,sans-Serif" font-size="10.00" fill="#000000">+ isDebugModeEnabled()</text>
<text text-anchor="start" x="8" y="-305.5" font-family="Helvetica,sans-Serif" font-size="10.00" fill="#000000">+ debugInfoAbout()</text>
<text text-anchor="start" x="8" y="-294.5" font-family="Helvetica,sans-Serif" font-size="10.00" fill="#000000">+ consoleOutput()</text>
<text text-anchor="start" x="8" y="-283.5" font-family="Helvetica,sans-Serif" font-size="10.00" fill="#000000"># delay()</text>
</a>
</g>
</g>
<!-- Node8&#45;&gt;Node7 -->
<g id="edge2" class="edge">
<title>Node8&#45;&gt;Node7</title>
<path fill="none" stroke="#191970" d="M132.9044,-269.4436C152.3688,-251.7594 172.8033,-233.194 189.6788,-217.8619"/>
<polygon fill="none" stroke="#191970" points="130.5493,-266.8545 125.5014,-276.1695 135.2564,-272.0355 130.5493,-266.8545"/>
</g>
<!-- Node9 -->
<g id="node4" class="node">
<title>Node9</title>
<polygon fill="none" stroke="#bfbfbf" points="25,-447.5 25,-504.5 102,-504.5 102,-447.5 25,-447.5"/>
<text text-anchor="middle" x="63.5" y="-492.5" font-family="Helvetica,sans-Serif" font-size="10.00" fill="#000000">static boolean</text>
<polyline fill="none" stroke="#bfbfbf" points="25,-485.5 102,-485.5 "/>
<text text-anchor="middle" x="63.5" y="-473.5" font-family="Helvetica,sans-Serif" font-size="10.00" fill="#000000"> </text>
<polyline fill="none" stroke="#bfbfbf" points="25,-466.5 102,-466.5 "/>
<text text-anchor="middle" x="63.5" y="-454.5" font-family="Helvetica,sans-Serif" font-size="10.00" fill="#000000"> </text>
</g>
<!-- Node9&#45;&gt;Node8 -->
<g id="edge3" class="edge">
<title>Node9&#45;&gt;Node8</title>
<path fill="none" stroke="#404040" d="M63.5,-447.3055C63.5,-433.9442 63.5,-417.4218 63.5,-401.1157"/>
<polygon fill="none" stroke="#404040" points="63.5001,-400.7445 59.5,-394.7445 63.5,-388.7445 67.5,-394.7444 63.5001,-400.7445"/>
<text text-anchor="middle" x="110.5" y="-415.5" font-family="Helvetica,sans-Serif" font-size="10.00" fill="#000000"> #debugModeEnabled</text>
</g>
<!-- Node10 -->
<g id="node5" class="node">
<title>Node10</title>
<g id="a_node5"><a xlink:href="interfaceene_1_1interfaces_1_1Model.html" target="_top" xlink:title="{ene.interfaces.Model\n||+ addView()\l}">
<polygon fill="none" stroke="#000000" points="145,-304 145,-361 252,-361 252,-304 145,-304"/>
<text text-anchor="middle" x="198.5" y="-349" font-family="Helvetica,sans-Serif" font-size="10.00" fill="#000000">ene.interfaces.Model</text>
<polyline fill="none" stroke="#000000" points="145,-342 252,-342 "/>
<text text-anchor="middle" x="198.5" y="-330" font-family="Helvetica,sans-Serif" font-size="10.00" fill="#000000"> </text>
<polyline fill="none" stroke="#000000" points="145,-323 252,-323 "/>
<text text-anchor="start" x="153" y="-311" font-family="Helvetica,sans-Serif" font-size="10.00" fill="#000000">+ addView()</text>
</a>
</g>
</g>
<!-- Node10&#45;&gt;Node7 -->
<g id="edge4" class="edge">
<title>Node10&#45;&gt;Node7</title>
<path fill="none" stroke="#191970" d="M206.0408,-293.7559C210.6313,-270.1705 216.4416,-240.3175 220.8582,-217.6252"/>
<polygon fill="none" stroke="#191970" points="202.5665,-293.2868 204.0915,-303.7713 209.4376,-294.6242 202.5665,-293.2868"/>
</g>
<!-- Node11 -->
<g id="node6" class="node">
<title>Node11</title>
<polygon fill="none" stroke="#bfbfbf" points="270.5,-298.5 270.5,-366.5 404.5,-366.5 404.5,-298.5 270.5,-298.5"/>
<text text-anchor="start" x="278.5" y="-354.5" font-family="Helvetica,sans-Serif" font-size="10.00" fill="#000000">List&lt; ene.interfaces.Partial</text>
<text text-anchor="middle" x="337.5" y="-343.5" font-family="Helvetica,sans-Serif" font-size="10.00" fill="#000000">View &gt;</text>
<polyline fill="none" stroke="#bfbfbf" points="270.5,-336.5 404.5,-336.5 "/>
<text text-anchor="middle" x="337.5" y="-324.5" font-family="Helvetica,sans-Serif" font-size="10.00" fill="#000000"> </text>
<polyline fill="none" stroke="#bfbfbf" points="270.5,-317.5 404.5,-317.5 "/>
<text text-anchor="middle" x="337.5" y="-305.5" font-family="Helvetica,sans-Serif" font-size="10.00" fill="#000000"> </text>
</g>
<!-- Node11&#45;&gt;Node7 -->
<g id="edge5" class="edge">
<title>Node11&#45;&gt;Node7</title>
<path fill="none" stroke="#404040" d="M312.2638,-298.3164C296.6825,-277.2108 276.5406,-249.9277 259.801,-227.2531"/>
<polygon fill="none" stroke="#404040" points="259.7461,-227.1787 252.9644,-224.7274 252.6188,-217.5245 259.4005,-219.9759 259.7461,-227.1787"/>
<text text-anchor="middle" x="299.5" y="-244.5" font-family="Helvetica,sans-Serif" font-size="10.00" fill="#000000"> #views</text>
</g>
<!-- Node12 -->
<g id="node7" class="node">
<title>Node12</title>
<polygon fill="none" stroke="#bfbfbf" points="321.5,-447.5 321.5,-504.5 353.5,-504.5 353.5,-447.5 321.5,-447.5"/>
<text text-anchor="middle" x="337.5" y="-492.5" font-family="Helvetica,sans-Serif" font-size="10.00" fill="#000000">List</text>
<polyline fill="none" stroke="#bfbfbf" points="321.5,-485.5 353.5,-485.5 "/>
<text text-anchor="middle" x="337.5" y="-473.5" font-family="Helvetica,sans-Serif" font-size="10.00" fill="#000000"> </text>
<polyline fill="none" stroke="#bfbfbf" points="321.5,-466.5 353.5,-466.5 "/>
<text text-anchor="middle" x="337.5" y="-454.5" font-family="Helvetica,sans-Serif" font-size="10.00" fill="#000000"> </text>
</g>
<!-- Node12&#45;&gt;Node11 -->
<g id="edge6" class="edge">
<title>Node12&#45;&gt;Node11</title>
<path fill="none" stroke="#ffa500" d="M337.5,-437.2878C337.5,-415.2661 337.5,-387.9324 337.5,-366.7037"/>
<polygon fill="#ffa500" stroke="#ffa500" points="334.0001,-437.3055 337.5,-447.3055 341.0001,-437.3056 334.0001,-437.3055"/>
<text text-anchor="start" x="337.5" y="-421" font-family="Helvetica,sans-Serif" font-size="10.00" fill="#000000"> &lt; ene::interfaces::</text>
<text text-anchor="middle" x="379" y="-410" font-family="Helvetica,sans-Serif" font-size="10.00" fill="#000000">PartialView &gt;</text>
</g>
<!-- Node13 -->
<g id="node8" class="node">
<title>Node13</title>
<polygon fill="none" stroke="#bfbfbf" points="368,-149.5 368,-217.5 501,-217.5 501,-149.5 368,-149.5"/>
<text text-anchor="start" x="376" y="-205.5" font-family="Helvetica,sans-Serif" font-size="10.00" fill="#000000">NavigableMap&lt; String,</text>
<text text-anchor="middle" x="434.5" y="-194.5" font-family="Helvetica,sans-Serif" font-size="10.00" fill="#000000"> ene.models.TrackModel &gt;</text>
<polyline fill="none" stroke="#bfbfbf" points="368,-187.5 501,-187.5 "/>
<text text-anchor="middle" x="434.5" y="-175.5" font-family="Helvetica,sans-Serif" font-size="10.00" fill="#000000"> </text>
<polyline fill="none" stroke="#bfbfbf" points="368,-168.5 501,-168.5 "/>
<text text-anchor="middle" x="434.5" y="-156.5" font-family="Helvetica,sans-Serif" font-size="10.00" fill="#000000"> </text>
</g>
<!-- Node13&#45;&gt;Node6 -->
<g id="edge7" class="edge">
<title>Node13&#45;&gt;Node6</title>
<path fill="none" stroke="#404040" d="M400.5067,-149.378C388.6009,-137.4271 374.8617,-123.6358 361.5085,-110.232"/>
<polygon fill="none" stroke="#404040" points="361.2817,-110.0044 354.2133,-108.5768 352.8125,-101.5031 359.8809,-102.9306 361.2817,-110.0044"/>
<text text-anchor="middle" x="398.5" y="-123" font-family="Helvetica,sans-Serif" font-size="10.00" fill="#000000"> #tracks</text>
</g>
<!-- Node14 -->
<g id="node9" class="node">
<title>Node14</title>
<polygon fill="none" stroke="#bfbfbf" points="423,-304 423,-361 502,-361 502,-304 423,-304"/>
<text text-anchor="middle" x="462.5" y="-349" font-family="Helvetica,sans-Serif" font-size="10.00" fill="#000000">NavigableMap</text>
<polyline fill="none" stroke="#bfbfbf" points="423,-342 502,-342 "/>
<text text-anchor="middle" x="462.5" y="-330" font-family="Helvetica,sans-Serif" font-size="10.00" fill="#000000"> </text>
<polyline fill="none" stroke="#bfbfbf" points="423,-323 502,-323 "/>
<text text-anchor="middle" x="462.5" y="-311" font-family="Helvetica,sans-Serif" font-size="10.00" fill="#000000"> </text>
</g>
<!-- Node14&#45;&gt;Node13 -->
<g id="edge8" class="edge">
<title>Node14&#45;&gt;Node13</title>
<path fill="none" stroke="#ffa500" d="M455.2192,-293.7559C450.7871,-270.1705 445.1771,-240.3175 440.9128,-217.6252"/>
<polygon fill="#ffa500" stroke="#ffa500" points="451.8146,-294.5898 457.1013,-303.7713 458.6942,-293.2969 451.8146,-294.5898"/>
<text text-anchor="start" x="448.5" y="-250" font-family="Helvetica,sans-Serif" font-size="10.00" fill="#000000"> &lt; String, ene::models</text>
<text text-anchor="middle" x="497" y="-239" font-family="Helvetica,sans-Serif" font-size="10.00" fill="#000000">::TrackModel &gt;</text>
</g>
</g>
</svg>
