<?xml version="1.0" encoding="UTF-8" standalone="no"?>
<!DOCTYPE svg PUBLIC "-//W3C//DTD SVG 1.1//EN"
 "http://www.w3.org/Graphics/SVG/1.1/DTD/svg11.dtd">
<!-- Generated by graphviz version 2.40.1 (20161225.0304)
 -->
<!-- Title: ene.models.PlayerModel Pages: 1 -->
<svg width="568pt" height="1064pt"
 viewBox="0.00 0.00 567.50 1064.00" xmlns="http://www.w3.org/2000/svg" xmlns:xlink="http://www.w3.org/1999/xlink">
<g id="graph0" class="graph" transform="scale(1 1) rotate(0) translate(4 1060)">
<title>ene.models.PlayerModel</title>
<!-- Node5 -->
<g id="node1" class="node">
<title>Node5</title>
<polygon fill="#bfbfbf" stroke="#000000" points="150.5,-.5 150.5,-244.5 274.5,-244.5 274.5,-.5 150.5,-.5"/>
<text text-anchor="middle" x="212.5" y="-232.5" font-family="Helvetica,sans-Serif" font-size="10.00" fill="#000000">ene.models.PlayerModel</text>
<polyline fill="none" stroke="#000000" points="150.5,-225.5 274.5,-225.5 "/>
<text text-anchor="middle" x="212.5" y="-213.5" font-family="Helvetica,sans-Serif" font-size="10.00" fill="#000000"> </text>
<polyline fill="none" stroke="#000000" points="150.5,-206.5 274.5,-206.5 "/>
<text text-anchor="start" x="158.5" y="-194.5" font-family="Helvetica,sans-Serif" font-size="10.00" fill="#000000">+ getCurrentTrack()</text>
<text text-anchor="start" x="158.5" y="-183.5" font-family="Helvetica,sans-Serif" font-size="10.00" fill="#000000">+ getPlaylist()</text>
<text text-anchor="start" x="158.5" y="-172.5" font-family="Helvetica,sans-Serif" font-size="10.00" fill="#000000">+ getClip()</text>
<text text-anchor="start" x="158.5" y="-161.5" font-family="Helvetica,sans-Serif" font-size="10.00" fill="#000000">+ getLastEvent()</text>
<text text-anchor="start" x="158.5" y="-150.5" font-family="Helvetica,sans-Serif" font-size="10.00" fill="#000000">+ getTrackLength()</text>
<text text-anchor="start" x="158.5" y="-139.5" font-family="Helvetica,sans-Serif" font-size="10.00" fill="#000000">+ setTrackPosition()</text>
<text text-anchor="start" x="158.5" y="-128.5" font-family="Helvetica,sans-Serif" font-size="10.00" fill="#000000">+ getTrackPosition()</text>
<text text-anchor="start" x="158.5" y="-117.5" font-family="Helvetica,sans-Serif" font-size="10.00" fill="#000000">+ loadPlaylist()</text>
<text text-anchor="start" x="158.5" y="-106.5" font-family="Helvetica,sans-Serif" font-size="10.00" fill="#000000">+ load()</text>
<text text-anchor="start" x="158.5" y="-95.5" font-family="Helvetica,sans-Serif" font-size="10.00" fill="#000000">+ start()</text>
<text text-anchor="start" x="158.5" y="-84.5" font-family="Helvetica,sans-Serif" font-size="10.00" fill="#000000">+ previous()</text>
<text text-anchor="start" x="158.5" y="-73.5" font-family="Helvetica,sans-Serif" font-size="10.00" fill="#000000">+ next()</text>
<text text-anchor="start" x="158.5" y="-62.5" font-family="Helvetica,sans-Serif" font-size="10.00" fill="#000000">+ pause()</text>
<text text-anchor="start" x="158.5" y="-51.5" font-family="Helvetica,sans-Serif" font-size="10.00" fill="#000000">+ update()</text>
<text text-anchor="start" x="158.5" y="-40.5" font-family="Helvetica,sans-Serif" font-size="10.00" fill="#000000"># setCurrentTrack()</text>
<text text-anchor="start" x="158.5" y="-29.5" font-family="Helvetica,sans-Serif" font-size="10.00" fill="#000000"># setPlaylist()</text>
<text text-anchor="start" x="158.5" y="-18.5" font-family="Helvetica,sans-Serif" font-size="10.00" fill="#000000"># setClip()</text>
<text text-anchor="start" x="158.5" y="-7.5" font-family="Helvetica,sans-Serif" font-size="10.00" fill="#000000"># setLastEvent()</text>
</g>
<!-- Node6 -->
<g id="node2" class="node">
<title>Node6</title>
<g id="a_node2"><a xlink:href="classene_1_1models_1_1AbstractModel.html" target="_top" xlink:title="{ene.models.AbstractModel\n||+ addView()\l# changed()\l}">
<polygon fill="none" stroke="#000000" points="133,-700.5 133,-768.5 266,-768.5 266,-700.5 133,-700.5"/>
<text text-anchor="middle" x="199.5" y="-756.5" font-family="Helvetica,sans-Serif" font-size="10.00" fill="#000000">ene.models.AbstractModel</text>
<polyline fill="none" stroke="#000000" points="133,-749.5 266,-749.5 "/>
<text text-anchor="middle" x="199.5" y="-737.5" font-family="Helvetica,sans-Serif" font-size="10.00" fill="#000000"> </text>
<polyline fill="none" stroke="#000000" points="133,-730.5 266,-730.5 "/>
<text text-anchor="start" x="141" y="-718.5" font-family="Helvetica,sans-Serif" font-size="10.00" fill="#000000">+ addView()</text>
<text text-anchor="start" x="141" y="-707.5" font-family="Helvetica,sans-Serif" font-size="10.00" fill="#000000"># changed()</text>
</a>
</g>
</g>
<!-- Node6&#45;&gt;Node5 -->
<g id="edge1" class="edge">
<title>Node6&#45;&gt;Node5</title>
<path fill="none" stroke="#191970" d="M168.4656,-692.1373C114.256,-612.6629 12.9551,-436.2083 66.5,-292 83.3988,-246.4878 118.604,-205.0092 150.2092,-174.476"/>
<polygon fill="none" stroke="#191970" points="165.6315,-694.1926 174.194,-700.4323 171.3914,-690.2148 165.6315,-694.1926"/>
</g>
<!-- Node15 -->
<g id="node11" class="node">
<title>Node15</title>
<g id="a_node11"><a xlink:href="classene_1_1models_1_1TrackModel.html" target="_top" xlink:title="{ene.models.TrackModel\n||+ getFilename()\l+ setFilename()\l+ getArtist()\l+ setArtist()\l+ getTitle()\l+ setTitle()\l+ getGenre()\l+ setGenre()\l+ TrackModel()\l+ toString()\l+ detectArtist()\l+ detectTitle()\l# cutFilenameFromPath()\l}">
<polygon fill="none" stroke="#000000" points="246,-430.5 246,-619.5 373,-619.5 373,-430.5 246,-430.5"/>
<text text-anchor="middle" x="309.5" y="-607.5" font-family="Helvetica,sans-Serif" font-size="10.00" fill="#000000">ene.models.TrackModel</text>
<polyline fill="none" stroke="#000000" points="246,-600.5 373,-600.5 "/>
<text text-anchor="middle" x="309.5" y="-588.5" font-family="Helvetica,sans-Serif" font-size="10.00" fill="#000000"> </text>
<polyline fill="none" stroke="#000000" points="246,-581.5 373,-581.5 "/>
<text text-anchor="start" x="254" y="-569.5" font-family="Helvetica,sans-Serif" font-size="10.00" fill="#000000">+ getFilename()</text>
<text text-anchor="start" x="254" y="-558.5" font-family="Helvetica,sans-Serif" font-size="10.00" fill="#000000">+ setFilename()</text>
<text text-anchor="start" x="254" y="-547.5" font-family="Helvetica,sans-Serif" font-size="10.00" fill="#000000">+ getArtist()</text>
<text text-anchor="start" x="254" y="-536.5" font-family="Helvetica,sans-Serif" font-size="10.00" fill="#000000">+ setArtist()</text>
<text text-anchor="start" x="254" y="-525.5" font-family="Helvetica,sans-Serif" font-size="10.00" fill="#000000">+ getTitle()</text>
<text text-anchor="start" x="254" y="-514.5" font-family="Helvetica,sans-Serif" font-size="10.00" fill="#000000">+ setTitle()</text>
<text text-anchor="start" x="254" y="-503.5" font-family="Helvetica,sans-Serif" font-size="10.00" fill="#000000">+ getGenre()</text>
<text text-anchor="start" x="254" y="-492.5" font-family="Helvetica,sans-Serif" font-size="10.00" fill="#000000">+ setGenre()</text>
<text text-anchor="start" x="254" y="-481.5" font-family="Helvetica,sans-Serif" font-size="10.00" fill="#000000">+ TrackModel()</text>
<text text-anchor="start" x="254" y="-470.5" font-family="Helvetica,sans-Serif" font-size="10.00" fill="#000000">+ toString()</text>
<text text-anchor="start" x="254" y="-459.5" font-family="Helvetica,sans-Serif" font-size="10.00" fill="#000000">+ detectArtist()</text>
<text text-anchor="start" x="254" y="-448.5" font-family="Helvetica,sans-Serif" font-size="10.00" fill="#000000">+ detectTitle()</text>
<text text-anchor="start" x="254" y="-437.5" font-family="Helvetica,sans-Serif" font-size="10.00" fill="#000000"># cutFilenameFromPath()</text>
</a>
</g>
</g>
<!-- Node6&#45;&gt;Node15 -->
<g id="edge11" class="edge">
<title>Node6&#45;&gt;Node15</title>
<path fill="none" stroke="#191970" d="M221.8627,-691.1128C230.4654,-674.4819 240.4038,-655.3414 249.5,-638 252.6469,-632.0006 255.8957,-625.8267 259.1773,-619.6052"/>
<polygon fill="none" stroke="#191970" points="218.7171,-689.576 217.2346,-700.0666 224.9356,-692.7903 218.7171,-689.576"/>
</g>
<!-- Node18 -->
<g id="node14" class="node">
<title>Node18</title>
<g id="a_node14"><a xlink:href="classene_1_1models_1_1TrackListModel.html" target="_top" xlink:title="{ene.models.TrackListModel\n||+ add()\l+ remove()\l+ get()\l+ has()\l+ getAll()\l}">
<polygon fill="none" stroke="#000000" points="391,-474.5 391,-575.5 528,-575.5 528,-474.5 391,-474.5"/>
<text text-anchor="middle" x="459.5" y="-563.5" font-family="Helvetica,sans-Serif" font-size="10.00" fill="#000000">ene.models.TrackListModel</text>
<polyline fill="none" stroke="#000000" points="391,-556.5 528,-556.5 "/>
<text text-anchor="middle" x="459.5" y="-544.5" font-family="Helvetica,sans-Serif" font-size="10.00" fill="#000000"> </text>
<polyline fill="none" stroke="#000000" points="391,-537.5 528,-537.5 "/>
<text text-anchor="start" x="399" y="-525.5" font-family="Helvetica,sans-Serif" font-size="10.00" fill="#000000">+ add()</text>
<text text-anchor="start" x="399" y="-514.5" font-family="Helvetica,sans-Serif" font-size="10.00" fill="#000000">+ remove()</text>
<text text-anchor="start" x="399" y="-503.5" font-family="Helvetica,sans-Serif" font-size="10.00" fill="#000000">+ get()</text>
<text text-anchor="start" x="399" y="-492.5" font-family="Helvetica,sans-Serif" font-size="10.00" fill="#000000">+ has()</text>
<text text-anchor="start" x="399" y="-481.5" font-family="Helvetica,sans-Serif" font-size="10.00" fill="#000000">+ getAll()</text>
</a>
</g>
</g>
<!-- Node6&#45;&gt;Node18 -->
<g id="edge15" class="edge">
<title>Node6&#45;&gt;Node18</title>
<path fill="none" stroke="#191970" d="M240.6445,-693.0542C263.9092,-670.4438 291.1395,-645.5509 305.5,-638 336.6068,-621.6438 352.7169,-638.6582 382.5,-620 400.3114,-608.8417 415.8623,-592.1062 428.2373,-575.7759"/>
<polygon fill="none" stroke="#191970" points="237.9499,-690.794 233.2516,-700.2902 242.8463,-695.7966 237.9499,-690.794"/>
</g>
<!-- Node7 -->
<g id="node3" class="node">
<title>Node7</title>
<g id="a_node3"><a xlink:href="classene_1_1AbstractObject.html" target="_top" xlink:title="{ene.AbstractObject\n||+ enableDebugMode()\l+ disableDebugMode()\l+ isDebugModeEnabled()\l+ debugInfoAbout()\l+ consoleOutput()\l# delay()\l}">
<polygon fill="none" stroke="#000000" points="0,-827.5 0,-939.5 127,-939.5 127,-827.5 0,-827.5"/>
<text text-anchor="middle" x="63.5" y="-927.5" font-family="Helvetica,sans-Serif" font-size="10.00" fill="#000000">ene.AbstractObject</text>
<polyline fill="none" stroke="#000000" points="0,-920.5 127,-920.5 "/>
<text text-anchor="middle" x="63.5" y="-908.5" font-family="Helvetica,sans-Serif" font-size="10.00" fill="#000000"> </text>
<polyline fill="none" stroke="#000000" points="0,-901.5 127,-901.5 "/>
<text text-anchor="start" x="8" y="-889.5" font-family="Helvetica,sans-Serif" font-size="10.00" fill="#000000">+ enableDebugMode()</text>
<text text-anchor="start" x="8" y="-878.5" font-family="Helvetica,sans-Serif" font-size="10.00" fill="#000000">+ disableDebugMode()</text>
<text text-anchor="start" x="8" y="-867.5" font-family="Helvetica,sans-Serif" font-size="10.00" fill="#000000">+ isDebugModeEnabled()</text>
<text text-anchor="start" x="8" y="-856.5" font-family="Helvetica,sans-Serif" font-size="10.00" fill="#000000">+ debugInfoAbout()</text>
<text text-anchor="start" x="8" y="-845.5" font-family="Helvetica,sans-Serif" font-size="10.00" fill="#000000">+ consoleOutput()</text>
<text text-anchor="start" x="8" y="-834.5" font-family="Helvetica,sans-Serif" font-size="10.00" fill="#000000"># delay()</text>
</a>
</g>
</g>
<!-- Node7&#45;&gt;Node6 -->
<g id="edge2" class="edge">
<title>Node7&#45;&gt;Node6</title>
<path fill="none" stroke="#191970" d="M121.6952,-819.742C137.6435,-802.2693 154.3267,-783.9913 168.1361,-768.8619"/>
<polygon fill="none" stroke="#191970" points="119.0722,-817.424 114.9158,-827.1695 124.2424,-822.1431 119.0722,-817.424"/>
</g>
<!-- Node8 -->
<g id="node4" class="node">
<title>Node8</title>
<polygon fill="none" stroke="#bfbfbf" points="25,-998.5 25,-1055.5 102,-1055.5 102,-998.5 25,-998.5"/>
<text text-anchor="middle" x="63.5" y="-1043.5" font-family="Helvetica,sans-Serif" font-size="10.00" fill="#000000">static boolean</text>
<polyline fill="none" stroke="#bfbfbf" points="25,-1036.5 102,-1036.5 "/>
<text text-anchor="middle" x="63.5" y="-1024.5" font-family="Helvetica,sans-Serif" font-size="10.00" fill="#000000"> </text>
<polyline fill="none" stroke="#bfbfbf" points="25,-1017.5 102,-1017.5 "/>
<text text-anchor="middle" x="63.5" y="-1005.5" font-family="Helvetica,sans-Serif" font-size="10.00" fill="#000000"> </text>
</g>
<!-- Node8&#45;&gt;Node7 -->
<g id="edge3" class="edge">
<title>Node8&#45;&gt;Node7</title>
<path fill="none" stroke="#404040" d="M63.5,-998.3055C63.5,-984.9442 63.5,-968.4218 63.5,-952.1157"/>
<polygon fill="none" stroke="#404040" points="63.5001,-951.7445 59.5,-945.7445 63.5,-939.7445 67.5,-945.7444 63.5001,-951.7445"/>
<text text-anchor="middle" x="110.5" y="-966.5" font-family="Helvetica,sans-Serif" font-size="10.00" fill="#000000"> #debugModeEnabled</text>
</g>
<!-- Node9 -->
<g id="node5" class="node">
<title>Node9</title>
<g id="a_node5"><a xlink:href="interfaceene_1_1interfaces_1_1Model.html" target="_top" xlink:title="{ene.interfaces.Model\n||+ addView()\l}">
<polygon fill="none" stroke="#000000" points="145,-855 145,-912 252,-912 252,-855 145,-855"/>
<text text-anchor="middle" x="198.5" y="-900" font-family="Helvetica,sans-Serif" font-size="10.00" fill="#000000">ene.interfaces.Model</text>
<polyline fill="none" stroke="#000000" points="145,-893 252,-893 "/>
<text text-anchor="middle" x="198.5" y="-881" font-family="Helvetica,sans-Serif" font-size="10.00" fill="#000000"> </text>
<polyline fill="none" stroke="#000000" points="145,-874 252,-874 "/>
<text text-anchor="start" x="153" y="-862" font-family="Helvetica,sans-Serif" font-size="10.00" fill="#000000">+ addView()</text>
</a>
</g>
</g>
<!-- Node9&#45;&gt;Node6 -->
<g id="edge4" class="edge">
<title>Node9&#45;&gt;Node6</title>
<path fill="none" stroke="#191970" d="M198.76,-844.7559C198.9183,-821.1705 199.1187,-791.3175 199.271,-768.6252"/>
<polygon fill="none" stroke="#191970" points="195.2601,-844.748 198.6928,-854.7713 202.2599,-844.7951 195.2601,-844.748"/>
</g>
<!-- Node10 -->
<g id="node6" class="node">
<title>Node10</title>
<polygon fill="none" stroke="#bfbfbf" points="270.5,-849.5 270.5,-917.5 404.5,-917.5 404.5,-849.5 270.5,-849.5"/>
<text text-anchor="start" x="278.5" y="-905.5" font-family="Helvetica,sans-Serif" font-size="10.00" fill="#000000">List&lt; ene.interfaces.Partial</text>
<text text-anchor="middle" x="337.5" y="-894.5" font-family="Helvetica,sans-Serif" font-size="10.00" fill="#000000">View &gt;</text>
<polyline fill="none" stroke="#bfbfbf" points="270.5,-887.5 404.5,-887.5 "/>
<text text-anchor="middle" x="337.5" y="-875.5" font-family="Helvetica,sans-Serif" font-size="10.00" fill="#000000"> </text>
<polyline fill="none" stroke="#bfbfbf" points="270.5,-868.5 404.5,-868.5 "/>
<text text-anchor="middle" x="337.5" y="-856.5" font-family="Helvetica,sans-Serif" font-size="10.00" fill="#000000"> </text>
</g>
<!-- Node10&#45;&gt;Node6 -->
<g id="edge5" class="edge">
<title>Node10&#45;&gt;Node6</title>
<path fill="none" stroke="#404040" d="M305.84,-849.3164C286.0296,-827.9269 260.3427,-800.1925 239.1778,-777.3405"/>
<polygon fill="none" stroke="#404040" points="239.1668,-777.3286 232.155,-775.6446 231.0127,-768.5245 238.0244,-770.2085 239.1668,-777.3286"/>
<text text-anchor="middle" x="285.5" y="-795.5" font-family="Helvetica,sans-Serif" font-size="10.00" fill="#000000"> #views</text>
</g>
<!-- Node11 -->
<g id="node7" class="node">
<title>Node11</title>
<polygon fill="none" stroke="#bfbfbf" points="321.5,-998.5 321.5,-1055.5 353.5,-1055.5 353.5,-998.5 321.5,-998.5"/>
<text text-anchor="middle" x="337.5" y="-1043.5" font-family="Helvetica,sans-Serif" font-size="10.00" fill="#000000">List</text>
<polyline fill="none" stroke="#bfbfbf" points="321.5,-1036.5 353.5,-1036.5 "/>
<text text-anchor="middle" x="337.5" y="-1024.5" font-family="Helvetica,sans-Serif" font-size="10.00" fill="#000000"> </text>
<polyline fill="none" stroke="#bfbfbf" points="321.5,-1017.5 353.5,-1017.5 "/>
<text text-anchor="middle" x="337.5" y="-1005.5" font-family="Helvetica,sans-Serif" font-size="10.00" fill="#000000"> </text>
</g>
<!-- Node11&#45;&gt;Node10 -->
<g id="edge6" class="edge">
<title>Node11&#45;&gt;Node10</title>
<path fill="none" stroke="#ffa500" d="M337.5,-988.2878C337.5,-966.2661 337.5,-938.9324 337.5,-917.7037"/>
<polygon fill="#ffa500" stroke="#ffa500" points="334.0001,-988.3055 337.5,-998.3055 341.0001,-988.3056 334.0001,-988.3055"/>
<text text-anchor="start" x="337.5" y="-972" font-family="Helvetica,sans-Serif" font-size="10.00" fill="#000000"> &lt; ene::interfaces::</text>
<text text-anchor="middle" x="379" y="-961" font-family="Helvetica,sans-Serif" font-size="10.00" fill="#000000">PartialView &gt;</text>
</g>
<!-- Node12 -->
<g id="node8" class="node">
<title>Node12</title>
<polygon fill="none" stroke="#bfbfbf" points="76,-309 76,-366 145,-366 145,-309 76,-309"/>
<text text-anchor="middle" x="110.5" y="-354" font-family="Helvetica,sans-Serif" font-size="10.00" fill="#000000">LineListener</text>
<polyline fill="none" stroke="#bfbfbf" points="76,-347 145,-347 "/>
<text text-anchor="middle" x="110.5" y="-335" font-family="Helvetica,sans-Serif" font-size="10.00" fill="#000000"> </text>
<polyline fill="none" stroke="#bfbfbf" points="76,-328 145,-328 "/>
<text text-anchor="middle" x="110.5" y="-316" font-family="Helvetica,sans-Serif" font-size="10.00" fill="#000000"> </text>
</g>
<!-- Node12&#45;&gt;Node5 -->
<g id="edge7" class="edge">
<title>Node12&#45;&gt;Node5</title>
<path fill="none" stroke="#191970" d="M128.475,-299.6116C135.9543,-283.8463 145.0963,-264.5764 154.5632,-244.6216"/>
<polygon fill="none" stroke="#191970" points="125.169,-298.4146 124.0448,-308.9497 131.4933,-301.4151 125.169,-298.4146"/>
</g>
<!-- Node13 -->
<g id="node9" class="node">
<title>Node13</title>
<polygon fill="none" stroke="#bfbfbf" points="163.5,-309 163.5,-366 197.5,-366 197.5,-309 163.5,-309"/>
<text text-anchor="middle" x="180.5" y="-354" font-family="Helvetica,sans-Serif" font-size="10.00" fill="#000000">Clip</text>
<polyline fill="none" stroke="#bfbfbf" points="163.5,-347 197.5,-347 "/>
<text text-anchor="middle" x="180.5" y="-335" font-family="Helvetica,sans-Serif" font-size="10.00" fill="#000000"> </text>
<polyline fill="none" stroke="#bfbfbf" points="163.5,-328 197.5,-328 "/>
<text text-anchor="middle" x="180.5" y="-316" font-family="Helvetica,sans-Serif" font-size="10.00" fill="#000000"> </text>
</g>
<!-- Node13&#45;&gt;Node5 -->
<g id="edge8" class="edge">
<title>Node13&#45;&gt;Node5</title>
<path fill="none" stroke="#404040" d="M184.7494,-308.9497C186.8712,-294.6936 189.6075,-276.3091 192.5326,-256.6558"/>
<polygon fill="none" stroke="#404040" points="192.5571,-256.4908 189.484,-249.9673 194.3238,-244.6216 197.3968,-251.1451 192.5571,-256.4908"/>
<text text-anchor="middle" x="203" y="-266" font-family="Helvetica,sans-Serif" font-size="10.00" fill="#000000"> ~clip</text>
</g>
<!-- Node14 -->
<g id="node10" class="node">
<title>Node14</title>
<polygon fill="none" stroke="#bfbfbf" points="215.5,-309 215.5,-366 275.5,-366 275.5,-309 215.5,-309"/>
<text text-anchor="middle" x="245.5" y="-354" font-family="Helvetica,sans-Serif" font-size="10.00" fill="#000000">LineEvent</text>
<polyline fill="none" stroke="#bfbfbf" points="215.5,-347 275.5,-347 "/>
<text text-anchor="middle" x="245.5" y="-335" font-family="Helvetica,sans-Serif" font-size="10.00" fill="#000000"> </text>
<polyline fill="none" stroke="#bfbfbf" points="215.5,-328 275.5,-328 "/>
<text text-anchor="middle" x="245.5" y="-316" font-family="Helvetica,sans-Serif" font-size="10.00" fill="#000000"> </text>
</g>
<!-- Node14&#45;&gt;Node5 -->
<g id="edge9" class="edge">
<title>Node14&#45;&gt;Node5</title>
<path fill="none" stroke="#404040" d="M241.1179,-308.9497C238.9297,-294.6936 236.1079,-276.3091 233.0914,-256.6558"/>
<polygon fill="none" stroke="#404040" points="233.0649,-256.4827 228.2009,-251.159 231.2442,-244.6216 236.1083,-249.9453 233.0649,-256.4827"/>
<text text-anchor="middle" x="261" y="-266" font-family="Helvetica,sans-Serif" font-size="10.00" fill="#000000"> ~lastEvent</text>
</g>
<!-- Node15&#45;&gt;Node5 -->
<g id="edge10" class="edge">
<title>Node15&#45;&gt;Node5</title>
<path fill="none" stroke="#404040" d="M312.4251,-430.4743C311.5711,-379.8507 306.5838,-316.9776 290.5,-263 287.5479,-253.0925 283.8161,-243.1095 279.5924,-233.2805"/>
<polygon fill="none" stroke="#404040" points="279.5573,-233.2025 273.4464,-229.3741 274.6299,-222.2608 280.7409,-226.0891 279.5573,-233.2025"/>
<text text-anchor="middle" x="341.5" y="-335" font-family="Helvetica,sans-Serif" font-size="10.00" fill="#000000"> ~currentTrack</text>
</g>
<!-- Node17 -->
<g id="node13" class="node">
<title>Node17</title>
<g id="a_node13"><a xlink:href="classene_1_1models_1_1PlaylistModel.html" target="_top" xlink:title="{ene.models.PlaylistModel\n||+ setCurrentTrack()\l+ getCurrentTrack()\l+ previousTrack()\l+ nextTrack()\l}">
<polygon fill="none" stroke="#000000" points="393.5,-292.5 393.5,-382.5 521.5,-382.5 521.5,-292.5 393.5,-292.5"/>
<text text-anchor="middle" x="457.5" y="-370.5" font-family="Helvetica,sans-Serif" font-size="10.00" fill="#000000">ene.models.PlaylistModel</text>
<polyline fill="none" stroke="#000000" points="393.5,-363.5 521.5,-363.5 "/>
<text text-anchor="middle" x="457.5" y="-351.5" font-family="Helvetica,sans-Serif" font-size="10.00" fill="#000000"> </text>
<polyline fill="none" stroke="#000000" points="393.5,-344.5 521.5,-344.5 "/>
<text text-anchor="start" x="401.5" y="-332.5" font-family="Helvetica,sans-Serif" font-size="10.00" fill="#000000">+ setCurrentTrack()</text>
<text text-anchor="start" x="401.5" y="-321.5" font-family="Helvetica,sans-Serif" font-size="10.00" fill="#000000">+ getCurrentTrack()</text>
<text text-anchor="start" x="401.5" y="-310.5" font-family="Helvetica,sans-Serif" font-size="10.00" fill="#000000">+ previousTrack()</text>
<text text-anchor="start" x="401.5" y="-299.5" font-family="Helvetica,sans-Serif" font-size="10.00" fill="#000000">+ nextTrack()</text>
</a>
</g>
</g>
<!-- Node15&#45;&gt;Node17 -->
<g id="edge18" class="edge">
<title>Node15&#45;&gt;Node17</title>
<path fill="none" stroke="#404040" d="M366.9584,-430.4766C374.1936,-420.264 381.7772,-410.2383 389.5,-401 392.1709,-397.805 394.9935,-394.6095 397.9101,-391.446"/>
<polygon fill="none" stroke="#404040" points="398.0363,-391.3141 399.2931,-384.2133 406.331,-382.6424 405.0742,-389.7431 398.0363,-391.3141"/>
<text text-anchor="middle" x="421.5" y="-404" font-family="Helvetica,sans-Serif" font-size="10.00" fill="#000000"> #currentTrack</text>
</g>
<!-- Node16 -->
<g id="node12" class="node">
<title>Node16</title>
<polygon fill="none" stroke="#bfbfbf" points="288.5,-706 288.5,-763 330.5,-763 330.5,-706 288.5,-706"/>
<text text-anchor="middle" x="309.5" y="-751" font-family="Helvetica,sans-Serif" font-size="10.00" fill="#000000">String</text>
<polyline fill="none" stroke="#bfbfbf" points="288.5,-744 330.5,-744 "/>
<text text-anchor="middle" x="309.5" y="-732" font-family="Helvetica,sans-Serif" font-size="10.00" fill="#000000"> </text>
<polyline fill="none" stroke="#bfbfbf" points="288.5,-725 330.5,-725 "/>
<text text-anchor="middle" x="309.5" y="-713" font-family="Helvetica,sans-Serif" font-size="10.00" fill="#000000"> </text>
</g>
<!-- Node16&#45;&gt;Node15 -->
<g id="edge12" class="edge">
<title>Node16&#45;&gt;Node15</title>
<path fill="none" stroke="#404040" d="M309.5,-705.8092C309.5,-686.2855 309.5,-659.1137 309.5,-631.7591"/>
<polygon fill="none" stroke="#404040" points="309.5001,-631.6273 305.5,-625.6273 309.5,-619.6273 313.5,-625.6272 309.5001,-631.6273"/>
<text text-anchor="middle" x="331" y="-674" font-family="Helvetica,sans-Serif" font-size="10.00" fill="#000000"> #title</text>
<text text-anchor="middle" x="331" y="-663" font-family="Helvetica,sans-Serif" font-size="10.00" fill="#000000">#filename</text>
<text text-anchor="middle" x="331" y="-652" font-family="Helvetica,sans-Serif" font-size="10.00" fill="#000000">#artist</text>
<text text-anchor="middle" x="331" y="-641" font-family="Helvetica,sans-Serif" font-size="10.00" fill="#000000">#genre</text>
</g>
<!-- Node17&#45;&gt;Node5 -->
<g id="edge13" class="edge">
<title>Node17&#45;&gt;Node5</title>
<path fill="none" stroke="#404040" d="M406.14,-292.429C370.6767,-261.3081 323.0406,-219.505 283.8908,-185.149"/>
<polygon fill="none" stroke="#404040" points="283.6688,-184.9542 276.5206,-184.0032 274.6492,-177.0391 281.7974,-177.9902 283.6688,-184.9542"/>
<text text-anchor="middle" x="404.5" y="-266" font-family="Helvetica,sans-Serif" font-size="10.00" fill="#000000"> ~playlist</text>
</g>
<!-- Node18&#45;&gt;Node17 -->
<g id="edge14" class="edge">
<title>Node18&#45;&gt;Node17</title>
<path fill="none" stroke="#191970" d="M458.8486,-463.9359C458.5658,-437.423 458.2405,-406.9232 457.9802,-382.5227"/>
<polygon fill="none" stroke="#191970" points="455.3522,-464.2977 458.9588,-474.2598 462.3518,-464.223 455.3522,-464.2977"/>
</g>
<!-- Node19 -->
<g id="node15" class="node">
<title>Node19</title>
<polygon fill="none" stroke="#bfbfbf" points="396,-700.5 396,-768.5 529,-768.5 529,-700.5 396,-700.5"/>
<text text-anchor="start" x="404" y="-756.5" font-family="Helvetica,sans-Serif" font-size="10.00" fill="#000000">NavigableMap&lt; String,</text>
<text text-anchor="middle" x="462.5" y="-745.5" font-family="Helvetica,sans-Serif" font-size="10.00" fill="#000000"> ene.models.TrackModel &gt;</text>
<polyline fill="none" stroke="#bfbfbf" points="396,-738.5 529,-738.5 "/>
<text text-anchor="middle" x="462.5" y="-726.5" font-family="Helvetica,sans-Serif" font-size="10.00" fill="#000000"> </text>
<polyline fill="none" stroke="#bfbfbf" points="396,-719.5 529,-719.5 "/>
<text text-anchor="middle" x="462.5" y="-707.5" font-family="Helvetica,sans-Serif" font-size="10.00" fill="#000000"> </text>
</g>
<!-- Node19&#45;&gt;Node18 -->
<g id="edge16" class="edge">
<title>Node19&#45;&gt;Node18</title>
<path fill="none" stroke="#404040" d="M462.0113,-700.3739C461.5757,-669.9563 460.9272,-624.6667 460.3983,-587.7316"/>
<polygon fill="none" stroke="#404040" points="460.3959,-587.5584 456.3104,-581.6164 460.224,-575.5597 464.3096,-581.5018 460.3959,-587.5584"/>
<text text-anchor="middle" x="479.5" y="-657.5" font-family="Helvetica,sans-Serif" font-size="10.00" fill="#000000"> #tracks</text>
</g>
<!-- Node20 -->
<g id="node16" class="node">
<title>Node20</title>
<polygon fill="none" stroke="#bfbfbf" points="423,-855 423,-912 502,-912 502,-855 423,-855"/>
<text text-anchor="middle" x="462.5" y="-900" font-family="Helvetica,sans-Serif" font-size="10.00" fill="#000000">NavigableMap</text>
<polyline fill="none" stroke="#bfbfbf" points="423,-893 502,-893 "/>
<text text-anchor="middle" x="462.5" y="-881" font-family="Helvetica,sans-Serif" font-size="10.00" fill="#000000"> </text>
<polyline fill="none" stroke="#bfbfbf" points="423,-874 502,-874 "/>
<text text-anchor="middle" x="462.5" y="-862" font-family="Helvetica,sans-Serif" font-size="10.00" fill="#000000"> </text>
</g>
<!-- Node20&#45;&gt;Node19 -->
<g id="edge17" class="edge">
<title>Node20&#45;&gt;Node19</title>
<path fill="none" stroke="#ffa500" d="M462.5,-844.7559C462.5,-821.1705 462.5,-791.3175 462.5,-768.6252"/>
<polygon fill="#ffa500" stroke="#ffa500" points="459.0001,-844.7713 462.5,-854.7713 466.0001,-844.7713 459.0001,-844.7713"/>
<text text-anchor="start" x="462.5" y="-801" font-family="Helvetica,sans-Serif" font-size="10.00" fill="#000000"> &lt; String, ene::models</text>
<text text-anchor="middle" x="511" y="-790" font-family="Helvetica,sans-Serif" font-size="10.00" fill="#000000">::TrackModel &gt;</text>
</g>
</g>
</svg>
