<?xml version="1.0" encoding="UTF-8" standalone="no"?>
<!DOCTYPE svg PUBLIC "-//W3C//DTD SVG 1.1//EN"
 "http://www.w3.org/Graphics/SVG/1.1/DTD/svg11.dtd">
<!-- Generated by graphviz version 2.40.1 (20161225.0304)
 -->
<!-- Title: ene.models.PlayerModel.load Pages: 1 -->
<svg width="523pt" height="277pt"
 viewBox="0.00 0.00 523.00 277.00" xmlns="http://www.w3.org/2000/svg" xmlns:xlink="http://www.w3.org/1999/xlink">
<g id="graph0" class="graph" transform="scale(1 1) rotate(0) translate(4 273)">
<title>ene.models.PlayerModel.load</title>
<!-- Node35 -->
<g id="node1" class="node">
<title>Node35</title>
<polygon fill="#bfbfbf" stroke="#000000" points="0,-116 0,-135 145,-135 145,-116 0,-116"/>
<text text-anchor="middle" x="72.5" y="-123" font-family="Helvetica,sans-Serif" font-size="10.00" fill="#000000">ene.models.PlayerModel.load</text>
</g>
<!-- Node36 -->
<g id="node2" class="node">
<title>Node36</title>
<g id="a_node2"><a xlink:href="classene_1_1AbstractObject.html#aff9619cf289ec83735b6c6ca2c12e020" target="_top" xlink:title="ene.AbstractObject.debug\lInfoAbout">
<polygon fill="none" stroke="#000000" points="195,-214.5 195,-244.5 325,-244.5 325,-214.5 195,-214.5"/>
<text text-anchor="start" x="203" y="-232.5" font-family="Helvetica,sans-Serif" font-size="10.00" fill="#000000">ene.AbstractObject.debug</text>
<text text-anchor="middle" x="260" y="-221.5" font-family="Helvetica,sans-Serif" font-size="10.00" fill="#000000">InfoAbout</text>
</a>
</g>
</g>
<!-- Node35&#45;&gt;Node36 -->
<g id="edge1" class="edge">
<title>Node35&#45;&gt;Node36</title>
<path fill="none" stroke="#191970" d="M83.1236,-135.0787C101.7149,-151.3986 141.9029,-184.7425 181,-204.5 185.3453,-206.6959 189.9224,-208.7481 194.5941,-210.6563"/>
<polygon fill="#191970" stroke="#191970" points="193.682,-214.0551 204.2722,-214.3706 196.1902,-207.5198 193.682,-214.0551"/>
</g>
<!-- Node39 -->
<g id="node5" class="node">
<title>Node39</title>
<g id="a_node5"><a xlink:href="classene_1_1AbstractObject.html#a600f6bedef1dc48e610cdfa5f81b7667" target="_top" xlink:title="ene.AbstractObject.delay">
<polygon fill="none" stroke="#000000" points="196.5,-176 196.5,-195 323.5,-195 323.5,-176 196.5,-176"/>
<text text-anchor="middle" x="260" y="-183" font-family="Helvetica,sans-Serif" font-size="10.00" fill="#000000">ene.AbstractObject.delay</text>
</a>
</g>
</g>
<!-- Node35&#45;&gt;Node39 -->
<g id="edge4" class="edge">
<title>Node35&#45;&gt;Node39</title>
<path fill="none" stroke="#191970" d="M95.4898,-135.1496C117.2545,-144.054 150.9772,-157.257 181,-166.5 189.0428,-168.9761 197.6272,-171.33 206.0639,-173.4841"/>
<polygon fill="#191970" stroke="#191970" points="205.31,-176.9031 215.8588,-175.9165 206.9972,-170.1095 205.31,-176.9031"/>
</g>
<!-- Node40 -->
<g id="node6" class="node">
<title>Node40</title>
<g id="a_node6"><a xlink:href="classene_1_1models_1_1PlayerModel.html#aa03431aa1bae96eacf2019c56fd18f45" target="_top" xlink:title="ene.models.PlayerModel.getClip">
<polygon fill="none" stroke="#000000" points="181,-138 181,-157 339,-157 339,-138 181,-138"/>
<text text-anchor="middle" x="260" y="-145" font-family="Helvetica,sans-Serif" font-size="10.00" fill="#000000">ene.models.PlayerModel.getClip</text>
</a>
</g>
</g>
<!-- Node35&#45;&gt;Node40 -->
<g id="edge5" class="edge">
<title>Node35&#45;&gt;Node40</title>
<path fill="none" stroke="#191970" d="M145.2608,-134.0373C153.6214,-135.0182 162.2167,-136.0268 170.762,-137.0294"/>
<polygon fill="#191970" stroke="#191970" points="170.4135,-140.5124 180.7533,-138.2017 171.2293,-133.5601 170.4135,-140.5124"/>
</g>
<!-- Node41 -->
<g id="node7" class="node">
<title>Node41</title>
<g id="a_node7"><a xlink:href="classene_1_1models_1_1TrackModel.html#aab88fe151b093dba71ad9f9ab5c6959d" target="_top" xlink:title="ene.models.TrackModel.get\lFilename">
<polygon fill="none" stroke="#000000" points="191.5,-88.5 191.5,-118.5 328.5,-118.5 328.5,-88.5 191.5,-88.5"/>
<text text-anchor="start" x="199.5" y="-106.5" font-family="Helvetica,sans-Serif" font-size="10.00" fill="#000000">ene.models.TrackModel.get</text>
<text text-anchor="middle" x="260" y="-95.5" font-family="Helvetica,sans-Serif" font-size="10.00" fill="#000000">Filename</text>
</a>
</g>
</g>
<!-- Node35&#45;&gt;Node41 -->
<g id="edge6" class="edge">
<title>Node35&#45;&gt;Node41</title>
<path fill="none" stroke="#191970" d="M145.2608,-116.9627C157.0827,-115.5756 169.374,-114.1334 181.3294,-112.7307"/>
<polygon fill="#191970" stroke="#191970" points="181.7512,-116.2053 191.2752,-111.5637 180.9354,-109.253 181.7512,-116.2053"/>
</g>
<!-- Node42 -->
<g id="node8" class="node">
<title>Node42</title>
<g id="a_node8"><a xlink:href="classene_1_1models_1_1PlayerModel.html#a5617391131179365729686dc4eea1ea1" target="_top" xlink:title="ene.models.PlayerModel.setClip">
<polygon fill="none" stroke="#000000" points="181,-50 181,-69 339,-69 339,-50 181,-50"/>
<text text-anchor="middle" x="260" y="-57" font-family="Helvetica,sans-Serif" font-size="10.00" fill="#000000">ene.models.PlayerModel.setClip</text>
</a>
</g>
</g>
<!-- Node35&#45;&gt;Node42 -->
<g id="edge7" class="edge">
<title>Node35&#45;&gt;Node42</title>
<path fill="none" stroke="#191970" d="M91.7044,-115.9739C113.087,-105.6546 148.8736,-89.232 181,-78.5 188.6096,-75.958 196.7374,-73.6076 204.7774,-71.4893"/>
<polygon fill="#191970" stroke="#191970" points="205.6677,-74.8744 214.5002,-69.0231 203.9466,-68.0892 205.6677,-74.8744"/>
</g>
<!-- Node43 -->
<g id="node9" class="node">
<title>Node43</title>
<g id="a_node9"><a xlink:href="classene_1_1models_1_1PlayerModel.html#a921a00136726aee3bcababbd6c9b2e3e" target="_top" xlink:title="ene.models.PlayerModel.set\lCurrentTrack">
<polygon fill="none" stroke="#000000" points="190,-.5 190,-30.5 330,-30.5 330,-.5 190,-.5"/>
<text text-anchor="start" x="198" y="-18.5" font-family="Helvetica,sans-Serif" font-size="10.00" fill="#000000">ene.models.PlayerModel.set</text>
<text text-anchor="middle" x="260" y="-7.5" font-family="Helvetica,sans-Serif" font-size="10.00" fill="#000000">CurrentTrack</text>
</a>
</g>
</g>
<!-- Node35&#45;&gt;Node43 -->
<g id="edge8" class="edge">
<title>Node35&#45;&gt;Node43</title>
<path fill="none" stroke="#191970" d="M82.1145,-115.9683C100.0758,-98.6466 140.5776,-61.8285 181,-40.5 185.2305,-38.2678 189.6947,-36.1938 194.2606,-34.2744"/>
<polygon fill="#191970" stroke="#191970" points="195.7069,-37.4667 203.7332,-30.5508 193.1459,-30.9519 195.7069,-37.4667"/>
</g>
<!-- Node37 -->
<g id="node3" class="node">
<title>Node37</title>
<g id="a_node3"><a xlink:href="classene_1_1AbstractObject.html#a9ce30d3321c7ce794df2f07bdaf3e47c" target="_top" xlink:title="ene.AbstractObject.console\lOutput">
<polygon fill="none" stroke="#000000" points="376.5,-238.5 376.5,-268.5 513.5,-268.5 513.5,-238.5 376.5,-238.5"/>
<text text-anchor="start" x="384.5" y="-256.5" font-family="Helvetica,sans-Serif" font-size="10.00" fill="#000000">ene.AbstractObject.console</text>
<text text-anchor="middle" x="445" y="-245.5" font-family="Helvetica,sans-Serif" font-size="10.00" fill="#000000">Output</text>
</a>
</g>
</g>
<!-- Node36&#45;&gt;Node37 -->
<g id="edge2" class="edge">
<title>Node36&#45;&gt;Node37</title>
<path fill="none" stroke="#191970" d="M325.2241,-237.9615C338.4048,-239.6714 352.397,-241.4866 365.9919,-243.2503"/>
<polygon fill="#191970" stroke="#191970" points="365.9233,-246.7707 376.2905,-244.5863 366.8239,-239.8288 365.9233,-246.7707"/>
</g>
<!-- Node38 -->
<g id="node4" class="node">
<title>Node38</title>
<g id="a_node4"><a xlink:href="classene_1_1AbstractObject.html#a6ee0b669069e0c3ee320a6cf41af24fe" target="_top" xlink:title="ene.AbstractObject.isDebug\lModeEnabled">
<polygon fill="none" stroke="#000000" points="375,-189.5 375,-219.5 515,-219.5 515,-189.5 375,-189.5"/>
<text text-anchor="start" x="383" y="-207.5" font-family="Helvetica,sans-Serif" font-size="10.00" fill="#000000">ene.AbstractObject.isDebug</text>
<text text-anchor="middle" x="445" y="-196.5" font-family="Helvetica,sans-Serif" font-size="10.00" fill="#000000">ModeEnabled</text>
</a>
</g>
</g>
<!-- Node36&#45;&gt;Node38 -->
<g id="edge3" class="edge">
<title>Node36&#45;&gt;Node38</title>
<path fill="none" stroke="#191970" d="M325.2241,-220.6859C337.9903,-218.9608 351.5178,-217.1327 364.7082,-215.3502"/>
<polygon fill="#191970" stroke="#191970" points="365.2699,-218.8062 374.7111,-213.9985 364.3324,-211.8693 365.2699,-218.8062"/>
</g>
</g>
</svg>
