<?xml version="1.0" encoding="UTF-8" standalone="no"?>
<!DOCTYPE svg PUBLIC "-//W3C//DTD SVG 1.1//EN"
 "http://www.w3.org/Graphics/SVG/1.1/DTD/svg11.dtd">
<!-- Generated by graphviz version 2.40.1 (20161225.0304)
 -->
<!-- Title: ene.controllers.LibraryController.scan Pages: 1 -->
<svg width="953pt" height="39pt"
 viewBox="0.00 0.00 953.00 39.00" xmlns="http://www.w3.org/2000/svg" xmlns:xlink="http://www.w3.org/1999/xlink">
<g id="graph0" class="graph" transform="scale(1 1) rotate(0) translate(4 35)">
<title>ene.controllers.LibraryController.scan</title>
<!-- Node41 -->
<g id="node1" class="node">
<title>Node41</title>
<polygon fill="#bfbfbf" stroke="#000000" points="0,-6 0,-25 179,-25 179,-6 0,-6"/>
<text text-anchor="middle" x="89.5" y="-13" font-family="Helvetica,sans-Serif" font-size="10.00" fill="#000000">ene.controllers.LibraryController.scan</text>
</g>
<!-- Node42 -->
<g id="node2" class="node">
<title>Node42</title>
<g id="a_node2"><a xlink:href="classene_1_1controllers_1_1LibraryController.html#a6bc70daa48b96db79d5524113a49cd3e" target="_top" xlink:title="ene.controllers.LibraryController.add\lDirectoryContent">
<polygon fill="none" stroke="#000000" points="215,-.5 215,-30.5 388,-30.5 388,-.5 215,-.5"/>
<text text-anchor="start" x="223" y="-18.5" font-family="Helvetica,sans-Serif" font-size="10.00" fill="#000000">ene.controllers.LibraryController.add</text>
<text text-anchor="middle" x="301.5" y="-7.5" font-family="Helvetica,sans-Serif" font-size="10.00" fill="#000000">DirectoryContent</text>
</a>
</g>
</g>
<!-- Node41&#45;&gt;Node42 -->
<g id="edge1" class="edge">
<title>Node41&#45;&gt;Node42</title>
<path fill="none" stroke="#191970" d="M189.1645,-15.5C197.7717,-15.5 206.4348,-15.5 214.9257,-15.5"/>
<polygon fill="#191970" stroke="#191970" points="189.0998,-12.0001 179.0998,-15.5 189.0998,-19.0001 189.0998,-12.0001"/>
</g>
<!-- Node43 -->
<g id="node3" class="node">
<title>Node43</title>
<g id="a_node3"><a xlink:href="classene_1_1controllers_1_1LibraryController.html#aa0d66e53872a376fe6d456eb070de8d4" target="_top" xlink:title="ene.controllers.LibraryController.add">
<polygon fill="none" stroke="#000000" points="424,-6 424,-25 597,-25 597,-6 424,-6"/>
<text text-anchor="middle" x="510.5" y="-13" font-family="Helvetica,sans-Serif" font-size="10.00" fill="#000000">ene.controllers.LibraryController.add</text>
</a>
</g>
</g>
<!-- Node42&#45;&gt;Node43 -->
<g id="edge2" class="edge">
<title>Node42&#45;&gt;Node43</title>
<path fill="none" stroke="#191970" d="M398.0268,-15.5C406.5937,-15.5 415.2324,-15.5 423.711,-15.5"/>
<polygon fill="#191970" stroke="#191970" points="398.017,-12.0001 388.017,-15.5 398.0169,-19.0001 398.017,-12.0001"/>
</g>
<!-- Node44 -->
<g id="node4" class="node">
<title>Node44</title>
<g id="a_node4"><a xlink:href="classene_1_1views_1_1gui_1_1partial_1_1LibraryView.html#a6e6e521f258ad6e3f2e06ed96180efb6" target="_top" xlink:title="ene.views.gui.partial.Library\lView.initialize">
<polygon fill="none" stroke="#000000" points="633,-.5 633,-30.5 771,-30.5 771,-.5 633,-.5"/>
<text text-anchor="start" x="641" y="-18.5" font-family="Helvetica,sans-Serif" font-size="10.00" fill="#000000">ene.views.gui.partial.Library</text>
<text text-anchor="middle" x="702" y="-7.5" font-family="Helvetica,sans-Serif" font-size="10.00" fill="#000000">View.initialize</text>
</a>
</g>
</g>
<!-- Node43&#45;&gt;Node44 -->
<g id="edge3" class="edge">
<title>Node43&#45;&gt;Node44</title>
<path fill="none" stroke="#191970" d="M607.1546,-15.5C615.8104,-15.5 624.4565,-15.5 632.8097,-15.5"/>
<polygon fill="#191970" stroke="#191970" points="607.0058,-12.0001 597.0057,-15.5 607.0057,-19.0001 607.0058,-12.0001"/>
</g>
<!-- Node45 -->
<g id="node5" class="node">
<title>Node45</title>
<g id="a_node5"><a xlink:href="classene_1_1views_1_1gui_1_1partial_1_1LibraryView.html#a23af39410ef7be2c3253b41ca96cdc4e" target="_top" xlink:title="ene.views.gui.partial.Library\lView.LibraryView">
<polygon fill="none" stroke="#000000" points="807,-.5 807,-30.5 945,-30.5 945,-.5 807,-.5"/>
<text text-anchor="start" x="815" y="-18.5" font-family="Helvetica,sans-Serif" font-size="10.00" fill="#000000">ene.views.gui.partial.Library</text>
<text text-anchor="middle" x="876" y="-7.5" font-family="Helvetica,sans-Serif" font-size="10.00" fill="#000000">View.LibraryView</text>
</a>
</g>
</g>
<!-- Node44&#45;&gt;Node45 -->
<g id="edge4" class="edge">
<title>Node44&#45;&gt;Node45</title>
<path fill="none" stroke="#191970" d="M781.0349,-15.5C789.6249,-15.5 798.3194,-15.5 806.7795,-15.5"/>
<polygon fill="#191970" stroke="#191970" points="781.0194,-12.0001 771.0193,-15.5 781.0193,-19.0001 781.0194,-12.0001"/>
</g>
</g>
</svg>
