<?xml version="1.0" encoding="UTF-8" standalone="no"?>
<!DOCTYPE svg PUBLIC "-//W3C//DTD SVG 1.1//EN"
 "http://www.w3.org/Graphics/SVG/1.1/DTD/svg11.dtd">
<!-- Generated by graphviz version 2.40.1 (20161225.0304)
 -->
<!-- Title: ene.controllers.PlaylistController.getPlaylistFilename Pages: 1 -->
<svg width="653pt" height="112pt"
 viewBox="0.00 0.00 653.00 112.00" xmlns="http://www.w3.org/2000/svg" xmlns:xlink="http://www.w3.org/1999/xlink">
<g id="graph0" class="graph" transform="scale(1 1) rotate(0) translate(4 108)">
<title>ene.controllers.PlaylistController.getPlaylistFilename</title>
<!-- Node30 -->
<g id="node1" class="node">
<title>Node30</title>
<polygon fill="#bfbfbf" stroke="#000000" points="0,-24.5 0,-54.5 147,-54.5 147,-24.5 0,-24.5"/>
<text text-anchor="start" x="8" y="-42.5" font-family="Helvetica,sans-Serif" font-size="10.00" fill="#000000">ene.controllers.Playlist</text>
<text text-anchor="middle" x="73.5" y="-31.5" font-family="Helvetica,sans-Serif" font-size="10.00" fill="#000000">Controller.getPlaylistFilename</text>
</g>
<!-- Node31 -->
<g id="node2" class="node">
<title>Node31</title>
<g id="a_node2"><a xlink:href="classene_1_1controllers_1_1PlaylistController.html#ad5e0bbbd2de4359b178fdf0458447d77" target="_top" xlink:title="ene.controllers.Playlist\lController.add">
<polygon fill="none" stroke="#000000" points="183,-49.5 183,-79.5 299,-79.5 299,-49.5 183,-49.5"/>
<text text-anchor="start" x="191" y="-67.5" font-family="Helvetica,sans-Serif" font-size="10.00" fill="#000000">ene.controllers.Playlist</text>
<text text-anchor="middle" x="241" y="-56.5" font-family="Helvetica,sans-Serif" font-size="10.00" fill="#000000">Controller.add</text>
</a>
</g>
</g>
<!-- Node30&#45;&gt;Node31 -->
<g id="edge1" class="edge">
<title>Node30&#45;&gt;Node31</title>
<path fill="none" stroke="#191970" d="M157.4794,-52.0342C166.0353,-53.3112 174.588,-54.5878 182.7803,-55.8105"/>
<polygon fill="#191970" stroke="#191970" points="157.8627,-48.5528 147.4555,-50.5381 156.8293,-55.4761 157.8627,-48.5528"/>
</g>
<!-- Node35 -->
<g id="node6" class="node">
<title>Node35</title>
<g id="a_node6"><a xlink:href="classene_1_1controllers_1_1PlaylistController.html#a903d7a6767c934b2f06715634b9944d3" target="_top" xlink:title="ene.controllers.Playlist\lController.remove">
<polygon fill="none" stroke="#000000" points="183,-.5 183,-30.5 299,-30.5 299,-.5 183,-.5"/>
<text text-anchor="start" x="191" y="-18.5" font-family="Helvetica,sans-Serif" font-size="10.00" fill="#000000">ene.controllers.Playlist</text>
<text text-anchor="middle" x="241" y="-7.5" font-family="Helvetica,sans-Serif" font-size="10.00" fill="#000000">Controller.remove</text>
</a>
</g>
</g>
<!-- Node30&#45;&gt;Node35 -->
<g id="edge5" class="edge">
<title>Node30&#45;&gt;Node35</title>
<path fill="none" stroke="#191970" d="M157.4794,-27.4671C166.0353,-26.2412 174.588,-25.0158 182.7803,-23.8419"/>
<polygon fill="#191970" stroke="#191970" points="156.858,-24.0203 147.4555,-28.9034 157.8509,-30.9496 156.858,-24.0203"/>
</g>
<!-- Node32 -->
<g id="node3" class="node">
<title>Node32</title>
<g id="a_node3"><a xlink:href="classene_1_1controllers_1_1PlaylistController.html#a67b252ccabbac520eaafe9f90e8f0d43" target="_top" xlink:title="ene.controllers.Playlist\lController.loadFromFile">
<polygon fill="none" stroke="#000000" points="345,-73.5 345,-103.5 463,-103.5 463,-73.5 345,-73.5"/>
<text text-anchor="start" x="353" y="-91.5" font-family="Helvetica,sans-Serif" font-size="10.00" fill="#000000">ene.controllers.Playlist</text>
<text text-anchor="middle" x="404" y="-80.5" font-family="Helvetica,sans-Serif" font-size="10.00" fill="#000000">Controller.loadFromFile</text>
</a>
</g>
</g>
<!-- Node31&#45;&gt;Node32 -->
<g id="edge2" class="edge">
<title>Node31&#45;&gt;Node32</title>
<path fill="none" stroke="#191970" d="M309.5901,-74.5992C321.3377,-76.3289 333.4526,-78.1126 344.9246,-79.8018"/>
<polygon fill="#191970" stroke="#191970" points="309.7895,-71.0909 299.3863,-73.0968 308.7698,-78.0162 309.7895,-71.0909"/>
</g>
<!-- Node34 -->
<g id="node5" class="node">
<title>Node34</title>
<g id="a_node5"><a xlink:href="classene_1_1views_1_1gui_1_1partial_1_1LibraryView.html#a0bd6885fe06ebde4d3dffbcd888c0b41" target="_top" xlink:title="ene.views.gui.partial.Library\lView.render">
<polygon fill="none" stroke="#000000" points="335,-24.5 335,-54.5 473,-54.5 473,-24.5 335,-24.5"/>
<text text-anchor="start" x="343" y="-42.5" font-family="Helvetica,sans-Serif" font-size="10.00" fill="#000000">ene.views.gui.partial.Library</text>
<text text-anchor="middle" x="404" y="-31.5" font-family="Helvetica,sans-Serif" font-size="10.00" fill="#000000">View.render</text>
</a>
</g>
</g>
<!-- Node31&#45;&gt;Node34 -->
<g id="edge4" class="edge">
<title>Node31&#45;&gt;Node34</title>
<path fill="none" stroke="#191970" d="M309.511,-53.9922C317.9085,-52.7042 326.4949,-51.3873 334.901,-50.098"/>
<polygon fill="#191970" stroke="#191970" points="308.7401,-50.5694 299.3863,-55.545 309.8014,-57.4885 308.7401,-50.5694"/>
</g>
<!-- Node33 -->
<g id="node4" class="node">
<title>Node33</title>
<g id="a_node4"><a xlink:href="classene_1_1controllers_1_1PlaylistController.html#a35b450f65c048707c1ad0ed44f1077f0" target="_top" xlink:title="ene.controllers.Playlist\lController.PlaylistController">
<polygon fill="none" stroke="#000000" points="509,-73.5 509,-103.5 645,-103.5 645,-73.5 509,-73.5"/>
<text text-anchor="start" x="517" y="-91.5" font-family="Helvetica,sans-Serif" font-size="10.00" fill="#000000">ene.controllers.Playlist</text>
<text text-anchor="middle" x="577" y="-80.5" font-family="Helvetica,sans-Serif" font-size="10.00" fill="#000000">Controller.PlaylistController</text>
</a>
</g>
</g>
<!-- Node32&#45;&gt;Node33 -->
<g id="edge3" class="edge">
<title>Node32&#45;&gt;Node33</title>
<path fill="none" stroke="#191970" d="M473.2596,-88.5C485.0305,-88.5 497.2453,-88.5 508.9837,-88.5"/>
<polygon fill="#191970" stroke="#191970" points="473.053,-85.0001 463.0529,-88.5 473.0529,-92.0001 473.053,-85.0001"/>
</g>
</g>
</svg>
