<?xml version="1.0" encoding="UTF-8" standalone="no"?>
<!DOCTYPE svg PUBLIC "-//W3C//DTD SVG 1.1//EN"
 "http://www.w3.org/Graphics/SVG/1.1/DTD/svg11.dtd">
<!-- Generated by graphviz version 2.40.1 (20161225.0304)
 -->
<!-- Title: ene.models.TrackModel.detectTitle Pages: 1 -->
<svg width="1191pt" height="61pt"
 viewBox="0.00 0.00 1191.00 61.00" xmlns="http://www.w3.org/2000/svg" xmlns:xlink="http://www.w3.org/1999/xlink">
<g id="graph0" class="graph" transform="scale(1 1) rotate(0) translate(4 57)">
<title>ene.models.TrackModel.detectTitle</title>
<!-- Node16 -->
<g id="node1" class="node">
<title>Node16</title>
<polygon fill="#bfbfbf" stroke="#000000" points="0,-22.5 0,-52.5 151,-52.5 151,-22.5 0,-22.5"/>
<text text-anchor="start" x="8" y="-40.5" font-family="Helvetica,sans-Serif" font-size="10.00" fill="#000000">ene.models.TrackModel.detect</text>
<text text-anchor="middle" x="75.5" y="-29.5" font-family="Helvetica,sans-Serif" font-size="10.00" fill="#000000">Title</text>
</g>
<!-- Node17 -->
<g id="node2" class="node">
<title>Node17</title>
<g id="a_node2"><a xlink:href="classene_1_1controllers_1_1LibraryController.html#a8ebea67eb61c84ee6a4825fa98fe870b" target="_top" xlink:title="ene.controllers.LibraryController.addFile">
<polygon fill="none" stroke="#000000" points="187,-28 187,-47 376,-47 376,-28 187,-28"/>
<text text-anchor="middle" x="281.5" y="-35" font-family="Helvetica,sans-Serif" font-size="10.00" fill="#000000">ene.controllers.LibraryController.addFile</text>
</a>
</g>
</g>
<!-- Node16&#45;&gt;Node17 -->
<g id="edge1" class="edge">
<title>Node16&#45;&gt;Node17</title>
<path fill="none" stroke="#191970" d="M161.2044,-37.5C169.6171,-37.5 178.1882,-37.5 186.6846,-37.5"/>
<polygon fill="#191970" stroke="#191970" points="161.0371,-34.0001 151.0371,-37.5 161.037,-41.0001 161.0371,-34.0001"/>
</g>
<!-- Node18 -->
<g id="node3" class="node">
<title>Node18</title>
<g id="a_node3"><a xlink:href="classene_1_1controllers_1_1LibraryController.html#aa0d66e53872a376fe6d456eb070de8d4" target="_top" xlink:title="ene.controllers.LibraryController.add">
<polygon fill="none" stroke="#000000" points="836,-28 836,-47 1009,-47 1009,-28 836,-28"/>
<text text-anchor="middle" x="922.5" y="-35" font-family="Helvetica,sans-Serif" font-size="10.00" fill="#000000">ene.controllers.LibraryController.add</text>
</a>
</g>
</g>
<!-- Node17&#45;&gt;Node18 -->
<g id="edge2" class="edge">
<title>Node17&#45;&gt;Node18</title>
<path fill="none" stroke="#191970" d="M386.3733,-38.6434C491.1103,-39.6112 656.6972,-40.6697 800,-39.5 811.5919,-39.4054 823.8001,-39.2604 835.837,-39.0908"/>
<polygon fill="#191970" stroke="#191970" points="386.1481,-35.1412 376.1157,-38.5471 386.0824,-42.1409 386.1481,-35.1412"/>
</g>
<!-- Node20 -->
<g id="node5" class="node">
<title>Node20</title>
<g id="a_node5"><a xlink:href="classene_1_1controllers_1_1LibraryController.html#a3a8b922c846a9b770b67f478ea0e5352" target="_top" xlink:title="ene.controllers.LibraryController.scan">
<polygon fill="none" stroke="#000000" points="412,-9 412,-28 591,-28 591,-9 412,-9"/>
<text text-anchor="middle" x="501.5" y="-16" font-family="Helvetica,sans-Serif" font-size="10.00" fill="#000000">ene.controllers.LibraryController.scan</text>
</a>
</g>
</g>
<!-- Node17&#45;&gt;Node20 -->
<g id="edge4" class="edge">
<title>Node17&#45;&gt;Node20</title>
<path fill="none" stroke="#191970" d="M386.1448,-28.4625C394.7494,-27.7194 403.3978,-26.9725 411.8788,-26.24"/>
<polygon fill="#191970" stroke="#191970" points="385.7383,-24.9845 376.0766,-29.332 386.3407,-31.9585 385.7383,-24.9845"/>
</g>
<!-- Node19 -->
<g id="node4" class="node">
<title>Node19</title>
<g id="a_node4"><a xlink:href="classene_1_1views_1_1gui_1_1partial_1_1LibraryView.html#a0bd6885fe06ebde4d3dffbcd888c0b41" target="_top" xlink:title="ene.views.gui.partial.Library\lView.render">
<polygon fill="none" stroke="#000000" points="1045,-22.5 1045,-52.5 1183,-52.5 1183,-22.5 1045,-22.5"/>
<text text-anchor="start" x="1053" y="-40.5" font-family="Helvetica,sans-Serif" font-size="10.00" fill="#000000">ene.views.gui.partial.Library</text>
<text text-anchor="middle" x="1114" y="-29.5" font-family="Helvetica,sans-Serif" font-size="10.00" fill="#000000">View.render</text>
</a>
</g>
</g>
<!-- Node18&#45;&gt;Node19 -->
<g id="edge3" class="edge">
<title>Node18&#45;&gt;Node19</title>
<path fill="none" stroke="#191970" d="M1019.1546,-37.5C1027.8104,-37.5 1036.4565,-37.5 1044.8097,-37.5"/>
<polygon fill="#191970" stroke="#191970" points="1019.0058,-34.0001 1009.0057,-37.5 1019.0057,-41.0001 1019.0058,-34.0001"/>
</g>
<!-- Node21 -->
<g id="node6" class="node">
<title>Node21</title>
<g id="a_node6"><a xlink:href="classene_1_1controllers_1_1LibraryController.html#a6bc70daa48b96db79d5524113a49cd3e" target="_top" xlink:title="ene.controllers.LibraryController.add\lDirectoryContent">
<polygon fill="none" stroke="#000000" points="627,-.5 627,-30.5 800,-30.5 800,-.5 627,-.5"/>
<text text-anchor="start" x="635" y="-18.5" font-family="Helvetica,sans-Serif" font-size="10.00" fill="#000000">ene.controllers.LibraryController.add</text>
<text text-anchor="middle" x="713.5" y="-7.5" font-family="Helvetica,sans-Serif" font-size="10.00" fill="#000000">DirectoryContent</text>
</a>
</g>
</g>
<!-- Node20&#45;&gt;Node21 -->
<g id="edge5" class="edge">
<title>Node20&#45;&gt;Node21</title>
<path fill="none" stroke="#191970" d="M601.1645,-17.0897C609.7717,-16.9679 618.4348,-16.8453 626.9257,-16.7251"/>
<polygon fill="#191970" stroke="#191970" points="601.0492,-13.5908 591.0998,-17.2321 601.1484,-20.5901 601.0492,-13.5908"/>
</g>
<!-- Node21&#45;&gt;Node18 -->
<g id="edge6" class="edge">
<title>Node21&#45;&gt;Node18</title>
<path fill="none" stroke="#191970" d="M810.0268,-25.6607C818.5937,-26.5625 827.2324,-27.4718 835.711,-28.3643"/>
<polygon fill="#191970" stroke="#191970" points="810.3284,-22.1732 800.017,-24.607 809.5956,-29.1348 810.3284,-22.1732"/>
</g>
</g>
</svg>
