<?xml version="1.0" encoding="UTF-8" standalone="no"?>
<!DOCTYPE svg PUBLIC "-//W3C//DTD SVG 1.1//EN"
 "http://www.w3.org/Graphics/SVG/1.1/DTD/svg11.dtd">
<!-- Generated by graphviz version 2.40.1 (20161225.0304)
 -->
<!-- Title: ene.views.gui.partial.AbstractTrackListView Pages: 1 -->
<svg width="1249pt" height="1020pt"
 viewBox="0.00 0.00 1249.00 1020.00" xmlns="http://www.w3.org/2000/svg" xmlns:xlink="http://www.w3.org/1999/xlink">
<g id="graph0" class="graph" transform="scale(1 1) rotate(0) translate(4 1016)">
<title>ene.views.gui.partial.AbstractTrackListView</title>
<!-- Node11 -->
<g id="node1" class="node">
<title>Node11</title>
<polygon fill="#bfbfbf" stroke="#000000" points="641,-.5 641,-244.5 787,-244.5 787,-.5 641,-.5"/>
<text text-anchor="start" x="649" y="-232.5" font-family="Helvetica,sans-Serif" font-size="10.00" fill="#000000">ene.views.gui.partial.Abstract</text>
<text text-anchor="middle" x="714" y="-221.5" font-family="Helvetica,sans-Serif" font-size="10.00" fill="#000000">TrackListView</text>
<polyline fill="none" stroke="#000000" points="641,-214.5 787,-214.5 "/>
<text text-anchor="middle" x="714" y="-202.5" font-family="Helvetica,sans-Serif" font-size="10.00" fill="#000000"> </text>
<polyline fill="none" stroke="#000000" points="641,-195.5 787,-195.5 "/>
<text text-anchor="start" x="649" y="-183.5" font-family="Helvetica,sans-Serif" font-size="10.00" fill="#000000">+ mouseClicked()</text>
<text text-anchor="start" x="649" y="-172.5" font-family="Helvetica,sans-Serif" font-size="10.00" fill="#000000">+ mousePressed()</text>
<text text-anchor="start" x="649" y="-161.5" font-family="Helvetica,sans-Serif" font-size="10.00" fill="#000000">+ mouseReleased()</text>
<text text-anchor="start" x="649" y="-150.5" font-family="Helvetica,sans-Serif" font-size="10.00" fill="#000000">+ mouseEntered()</text>
<text text-anchor="start" x="649" y="-139.5" font-family="Helvetica,sans-Serif" font-size="10.00" fill="#000000">+ mouseExited()</text>
<text text-anchor="start" x="649" y="-128.5" font-family="Helvetica,sans-Serif" font-size="10.00" fill="#000000">+ valueChanged()</text>
<text text-anchor="start" x="649" y="-117.5" font-family="Helvetica,sans-Serif" font-size="10.00" fill="#000000"># setTable()</text>
<text text-anchor="start" x="649" y="-106.5" font-family="Helvetica,sans-Serif" font-size="10.00" fill="#000000"># getTable()</text>
<text text-anchor="start" x="649" y="-95.5" font-family="Helvetica,sans-Serif" font-size="10.00" fill="#000000"># setTableContent()</text>
<text text-anchor="start" x="649" y="-84.5" font-family="Helvetica,sans-Serif" font-size="10.00" fill="#000000"># getTableContent()</text>
<text text-anchor="start" x="649" y="-73.5" font-family="Helvetica,sans-Serif" font-size="10.00" fill="#000000"># setTableRowSorter()</text>
<text text-anchor="start" x="649" y="-62.5" font-family="Helvetica,sans-Serif" font-size="10.00" fill="#000000"># getTableRowSorter()</text>
<text text-anchor="start" x="649" y="-51.5" font-family="Helvetica,sans-Serif" font-size="10.00" fill="#000000"># setPlayerController()</text>
<text text-anchor="start" x="649" y="-40.5" font-family="Helvetica,sans-Serif" font-size="10.00" fill="#000000"># getPlayerController()</text>
<text text-anchor="start" x="649" y="-29.5" font-family="Helvetica,sans-Serif" font-size="10.00" fill="#000000"># hideColumn()</text>
<text text-anchor="start" x="649" y="-18.5" font-family="Helvetica,sans-Serif" font-size="10.00" fill="#000000"># setColumnWidth()</text>
<text text-anchor="start" x="649" y="-7.5" font-family="Helvetica,sans-Serif" font-size="10.00" fill="#000000"># getSelectedFilename()</text>
</g>
<!-- Node12 -->
<g id="node2" class="node">
<title>Node12</title>
<g id="a_node2"><a xlink:href="classene_1_1views_1_1AbstractPartialView.html" target="_top" xlink:title="{ene::views::AbstractPartial\lView\&lt; JPanel, TrackListModel \&gt;\n||+ setModel()\l+ getModel()\l}">
<polygon fill="none" stroke="#000000" points="218.5,-463.5 218.5,-542.5 377.5,-542.5 377.5,-463.5 218.5,-463.5"/>
<text text-anchor="start" x="226.5" y="-530.5" font-family="Helvetica,sans-Serif" font-size="10.00" fill="#000000">ene::views::AbstractPartial</text>
<text text-anchor="middle" x="298" y="-519.5" font-family="Helvetica,sans-Serif" font-size="10.00" fill="#000000">View&lt; JPanel, TrackListModel &gt;</text>
<polyline fill="none" stroke="#000000" points="218.5,-512.5 377.5,-512.5 "/>
<text text-anchor="middle" x="298" y="-500.5" font-family="Helvetica,sans-Serif" font-size="10.00" fill="#000000"> </text>
<polyline fill="none" stroke="#000000" points="218.5,-493.5 377.5,-493.5 "/>
<text text-anchor="start" x="226.5" y="-481.5" font-family="Helvetica,sans-Serif" font-size="10.00" fill="#000000">+ setModel()</text>
<text text-anchor="start" x="226.5" y="-470.5" font-family="Helvetica,sans-Serif" font-size="10.00" fill="#000000">+ getModel()</text>
</a>
</g>
</g>
<!-- Node12&#45;&gt;Node11 -->
<g id="edge1" class="edge">
<title>Node12&#45;&gt;Node11</title>
<path fill="none" stroke="#191970" d="M303.6864,-453.3234C311.3454,-406.7672 328.9873,-337.6799 369,-292 441.2231,-209.5476 562.7894,-163.1232 640.6508,-140.4374"/>
<polygon fill="none" stroke="#191970" points="300.1852,-453.0624 302.1145,-463.4801 307.1028,-454.133 300.1852,-453.0624"/>
</g>
<!-- Node13 -->
<g id="node3" class="node">
<title>Node13</title>
<g id="a_node3"><a xlink:href="classene_1_1views_1_1AbstractView.html" target="_top" xlink:title="{ene::views::AbstractView\l\&lt; CoreComponentType \&gt;\n||+ setTitle()\l+ getTitle()\l+ setCoreComponent()\l+ getCoreComponent()\l+ setLayoutPosition()\l+ getLayoutPosition()\l}">
<polygon fill="none" stroke="#000000" points="208,-590.5 208,-713.5 336,-713.5 336,-590.5 208,-590.5"/>
<text text-anchor="start" x="216" y="-701.5" font-family="Helvetica,sans-Serif" font-size="10.00" fill="#000000">ene::views::AbstractView</text>
<text text-anchor="middle" x="272" y="-690.5" font-family="Helvetica,sans-Serif" font-size="10.00" fill="#000000">&lt; CoreComponentType &gt;</text>
<polyline fill="none" stroke="#000000" points="208,-683.5 336,-683.5 "/>
<text text-anchor="middle" x="272" y="-671.5" font-family="Helvetica,sans-Serif" font-size="10.00" fill="#000000"> </text>
<polyline fill="none" stroke="#000000" points="208,-664.5 336,-664.5 "/>
<text text-anchor="start" x="216" y="-652.5" font-family="Helvetica,sans-Serif" font-size="10.00" fill="#000000">+ setTitle()</text>
<text text-anchor="start" x="216" y="-641.5" font-family="Helvetica,sans-Serif" font-size="10.00" fill="#000000">+ getTitle()</text>
<text text-anchor="start" x="216" y="-630.5" font-family="Helvetica,sans-Serif" font-size="10.00" fill="#000000">+ setCoreComponent()</text>
<text text-anchor="start" x="216" y="-619.5" font-family="Helvetica,sans-Serif" font-size="10.00" fill="#000000">+ getCoreComponent()</text>
<text text-anchor="start" x="216" y="-608.5" font-family="Helvetica,sans-Serif" font-size="10.00" fill="#000000">+ setLayoutPosition()</text>
<text text-anchor="start" x="216" y="-597.5" font-family="Helvetica,sans-Serif" font-size="10.00" fill="#000000">+ getLayoutPosition()</text>
</a>
</g>
</g>
<!-- Node13&#45;&gt;Node12 -->
<g id="edge2" class="edge">
<title>Node13&#45;&gt;Node12</title>
<path fill="none" stroke="#191970" d="M284.5798,-579.9078C286.8092,-567.1316 289.0551,-554.2609 291.0549,-542.8008"/>
<polygon fill="none" stroke="#191970" points="281.0716,-579.6522 282.8005,-590.105 287.9674,-580.8556 281.0716,-579.6522"/>
</g>
<!-- Node14 -->
<g id="node4" class="node">
<title>Node14</title>
<g id="a_node4"><a xlink:href="classene_1_1AbstractObject.html" target="_top" xlink:title="{ene.AbstractObject\n||+ enableDebugMode()\l+ disableDebugMode()\l+ isDebugModeEnabled()\l+ debugInfoAbout()\l+ consoleOutput()\l# delay()\l}">
<polygon fill="none" stroke="#000000" points="485.5,-783.5 485.5,-895.5 612.5,-895.5 612.5,-783.5 485.5,-783.5"/>
<text text-anchor="middle" x="549" y="-883.5" font-family="Helvetica,sans-Serif" font-size="10.00" fill="#000000">ene.AbstractObject</text>
<polyline fill="none" stroke="#000000" points="485.5,-876.5 612.5,-876.5 "/>
<text text-anchor="middle" x="549" y="-864.5" font-family="Helvetica,sans-Serif" font-size="10.00" fill="#000000"> </text>
<polyline fill="none" stroke="#000000" points="485.5,-857.5 612.5,-857.5 "/>
<text text-anchor="start" x="493.5" y="-845.5" font-family="Helvetica,sans-Serif" font-size="10.00" fill="#000000">+ enableDebugMode()</text>
<text text-anchor="start" x="493.5" y="-834.5" font-family="Helvetica,sans-Serif" font-size="10.00" fill="#000000">+ disableDebugMode()</text>
<text text-anchor="start" x="493.5" y="-823.5" font-family="Helvetica,sans-Serif" font-size="10.00" fill="#000000">+ isDebugModeEnabled()</text>
<text text-anchor="start" x="493.5" y="-812.5" font-family="Helvetica,sans-Serif" font-size="10.00" fill="#000000">+ debugInfoAbout()</text>
<text text-anchor="start" x="493.5" y="-801.5" font-family="Helvetica,sans-Serif" font-size="10.00" fill="#000000">+ consoleOutput()</text>
<text text-anchor="start" x="493.5" y="-790.5" font-family="Helvetica,sans-Serif" font-size="10.00" fill="#000000"># delay()</text>
</a>
</g>
</g>
<!-- Node14&#45;&gt;Node13 -->
<g id="edge3" class="edge">
<title>Node14&#45;&gt;Node13</title>
<path fill="none" stroke="#191970" d="M482.3785,-776.8758C480.2506,-775.2056 478.1216,-773.5763 476,-772 431.6386,-739.04 377.5801,-707.5895 336.2594,-685.1605"/>
<polygon fill="none" stroke="#191970" points="480.5865,-779.928 490.5626,-783.4957 484.9888,-774.4855 480.5865,-779.928"/>
</g>
<!-- Node27 -->
<g id="node17" class="node">
<title>Node27</title>
<g id="a_node17"><a xlink:href="classene_1_1controllers_1_1AbstractController.html" target="_top" xlink:title="{ene.controllers.Abstract\lController\&lt; ModelType \&gt;\n||+ setModel()\l+ getModel()\l}">
<polygon fill="none" stroke="#000000" points="624.5,-612.5 624.5,-691.5 749.5,-691.5 749.5,-612.5 624.5,-612.5"/>
<text text-anchor="start" x="632.5" y="-679.5" font-family="Helvetica,sans-Serif" font-size="10.00" fill="#000000">ene.controllers.Abstract</text>
<text text-anchor="middle" x="687" y="-668.5" font-family="Helvetica,sans-Serif" font-size="10.00" fill="#000000">Controller&lt; ModelType &gt;</text>
<polyline fill="none" stroke="#000000" points="624.5,-661.5 749.5,-661.5 "/>
<text text-anchor="middle" x="687" y="-649.5" font-family="Helvetica,sans-Serif" font-size="10.00" fill="#000000"> </text>
<polyline fill="none" stroke="#000000" points="624.5,-642.5 749.5,-642.5 "/>
<text text-anchor="start" x="632.5" y="-630.5" font-family="Helvetica,sans-Serif" font-size="10.00" fill="#000000">+ setModel()</text>
<text text-anchor="start" x="632.5" y="-619.5" font-family="Helvetica,sans-Serif" font-size="10.00" fill="#000000">+ getModel()</text>
</a>
</g>
</g>
<!-- Node14&#45;&gt;Node27 -->
<g id="edge18" class="edge">
<title>Node14&#45;&gt;Node27</title>
<path fill="none" stroke="#191970" d="M596.1823,-775.3937C616.632,-747.6088 639.9317,-715.9515 657.8109,-691.6592"/>
<polygon fill="none" stroke="#191970" points="593.3264,-773.3693 590.2176,-783.4978 598.9641,-777.5186 593.3264,-773.3693"/>
</g>
<!-- Node15 -->
<g id="node5" class="node">
<title>Node15</title>
<polygon fill="none" stroke="#bfbfbf" points="510.5,-954.5 510.5,-1011.5 587.5,-1011.5 587.5,-954.5 510.5,-954.5"/>
<text text-anchor="middle" x="549" y="-999.5" font-family="Helvetica,sans-Serif" font-size="10.00" fill="#000000">static boolean</text>
<polyline fill="none" stroke="#bfbfbf" points="510.5,-992.5 587.5,-992.5 "/>
<text text-anchor="middle" x="549" y="-980.5" font-family="Helvetica,sans-Serif" font-size="10.00" fill="#000000"> </text>
<polyline fill="none" stroke="#bfbfbf" points="510.5,-973.5 587.5,-973.5 "/>
<text text-anchor="middle" x="549" y="-961.5" font-family="Helvetica,sans-Serif" font-size="10.00" fill="#000000"> </text>
</g>
<!-- Node15&#45;&gt;Node14 -->
<g id="edge4" class="edge">
<title>Node15&#45;&gt;Node14</title>
<path fill="none" stroke="#404040" d="M549,-954.3055C549,-940.9442 549,-924.4218 549,-908.1157"/>
<polygon fill="none" stroke="#404040" points="549.0001,-907.7445 545,-901.7445 549,-895.7445 553,-901.7444 549.0001,-907.7445"/>
<text text-anchor="middle" x="596" y="-928" font-family="Helvetica,sans-Serif" font-size="10.00" fill="#000000"> #debugModeEnabled</text>
</g>
<!-- Node16 -->
<g id="node6" class="node">
<title>Node16</title>
<g id="a_node6"><a xlink:href="interfaceene_1_1interfaces_1_1View.html" target="_top" xlink:title="{ene::interfaces::View\l\&lt; CoreComponentType \&gt;\n||+ setTitle()\l+ getTitle()\l+ setCoreComponent()\l+ getCoreComponent()\l+ setLayoutPosition()\l+ getLayoutPosition()\l+ render()\l}">
<polygon fill="none" stroke="#000000" points="0,-772.5 0,-906.5 128,-906.5 128,-772.5 0,-772.5"/>
<text text-anchor="start" x="8" y="-894.5" font-family="Helvetica,sans-Serif" font-size="10.00" fill="#000000">ene::interfaces::View</text>
<text text-anchor="middle" x="64" y="-883.5" font-family="Helvetica,sans-Serif" font-size="10.00" fill="#000000">&lt; CoreComponentType &gt;</text>
<polyline fill="none" stroke="#000000" points="0,-876.5 128,-876.5 "/>
<text text-anchor="middle" x="64" y="-864.5" font-family="Helvetica,sans-Serif" font-size="10.00" fill="#000000"> </text>
<polyline fill="none" stroke="#000000" points="0,-857.5 128,-857.5 "/>
<text text-anchor="start" x="8" y="-845.5" font-family="Helvetica,sans-Serif" font-size="10.00" fill="#000000">+ setTitle()</text>
<text text-anchor="start" x="8" y="-834.5" font-family="Helvetica,sans-Serif" font-size="10.00" fill="#000000">+ getTitle()</text>
<text text-anchor="start" x="8" y="-823.5" font-family="Helvetica,sans-Serif" font-size="10.00" fill="#000000">+ setCoreComponent()</text>
<text text-anchor="start" x="8" y="-812.5" font-family="Helvetica,sans-Serif" font-size="10.00" fill="#000000">+ getCoreComponent()</text>
<text text-anchor="start" x="8" y="-801.5" font-family="Helvetica,sans-Serif" font-size="10.00" fill="#000000">+ setLayoutPosition()</text>
<text text-anchor="start" x="8" y="-790.5" font-family="Helvetica,sans-Serif" font-size="10.00" fill="#000000">+ getLayoutPosition()</text>
<text text-anchor="start" x="8" y="-779.5" font-family="Helvetica,sans-Serif" font-size="10.00" fill="#000000">+ render()</text>
</a>
</g>
</g>
<!-- Node16&#45;&gt;Node13 -->
<g id="edge5" class="edge">
<title>Node16&#45;&gt;Node13</title>
<path fill="none" stroke="#191970" d="M135.6525,-772.4398C150.2498,-758.9642 165.559,-744.9643 180,-732 188.9778,-723.9403 198.5186,-715.5036 207.9267,-707.2574"/>
<polygon fill="none" stroke="#191970" points="133.0583,-770.0717 128.0923,-779.4306 137.8107,-775.2112 133.0583,-770.0717"/>
</g>
<!-- Node21 -->
<g id="node11" class="node">
<title>Node21</title>
<g id="a_node11"><a xlink:href="interfaceene_1_1interfaces_1_1PartialView.html" target="_top" xlink:title="{ene::interfaces::Partial\lView\&lt; CoreComponentType,\l ModelType \&gt;\n||+ setModel()\l+ getModel()\l+ update()\l}">
<polygon fill="none" stroke="#000000" points="30.5,-601.5 30.5,-702.5 173.5,-702.5 173.5,-601.5 30.5,-601.5"/>
<text text-anchor="start" x="38.5" y="-690.5" font-family="Helvetica,sans-Serif" font-size="10.00" fill="#000000">ene::interfaces::Partial</text>
<text text-anchor="start" x="38.5" y="-679.5" font-family="Helvetica,sans-Serif" font-size="10.00" fill="#000000">View&lt; CoreComponentType,</text>
<text text-anchor="middle" x="102" y="-668.5" font-family="Helvetica,sans-Serif" font-size="10.00" fill="#000000"> ModelType &gt;</text>
<polyline fill="none" stroke="#000000" points="30.5,-661.5 173.5,-661.5 "/>
<text text-anchor="middle" x="102" y="-649.5" font-family="Helvetica,sans-Serif" font-size="10.00" fill="#000000"> </text>
<polyline fill="none" stroke="#000000" points="30.5,-642.5 173.5,-642.5 "/>
<text text-anchor="start" x="38.5" y="-630.5" font-family="Helvetica,sans-Serif" font-size="10.00" fill="#000000">+ setModel()</text>
<text text-anchor="start" x="38.5" y="-619.5" font-family="Helvetica,sans-Serif" font-size="10.00" fill="#000000">+ getModel()</text>
<text text-anchor="start" x="38.5" y="-608.5" font-family="Helvetica,sans-Serif" font-size="10.00" fill="#000000">+ update()</text>
</a>
</g>
</g>
<!-- Node16&#45;&gt;Node21 -->
<g id="edge11" class="edge">
<title>Node16&#45;&gt;Node21</title>
<path fill="none" stroke="#191970" d="M79.6036,-762.5084C83.7044,-742.2742 88.0234,-720.9635 91.7626,-702.5135"/>
<polygon fill="none" stroke="#191970" points="76.1676,-761.8418 77.6115,-772.3378 83.0282,-763.2323 76.1676,-761.8418"/>
</g>
<!-- Node17 -->
<g id="node7" class="node">
<title>Node17</title>
<g id="a_node7"><a xlink:href="interfaceene_1_1interfaces_1_1Localization.html" target="_top" xlink:title="{ene.interfaces.Localization\n||+ getString()\l}">
<polygon fill="none" stroke="#000000" points="334.5,-811 334.5,-868 467.5,-868 467.5,-811 334.5,-811"/>
<text text-anchor="middle" x="401" y="-856" font-family="Helvetica,sans-Serif" font-size="10.00" fill="#000000">ene.interfaces.Localization</text>
<polyline fill="none" stroke="#000000" points="334.5,-849 467.5,-849 "/>
<text text-anchor="middle" x="401" y="-837" font-family="Helvetica,sans-Serif" font-size="10.00" fill="#000000"> </text>
<polyline fill="none" stroke="#000000" points="334.5,-830 467.5,-830 "/>
<text text-anchor="start" x="342.5" y="-818" font-family="Helvetica,sans-Serif" font-size="10.00" fill="#000000">+ getString()</text>
</a>
</g>
</g>
<!-- Node17&#45;&gt;Node13 -->
<g id="edge6" class="edge">
<title>Node17&#45;&gt;Node13</title>
<path fill="none" stroke="#191970" d="M386.5317,-801.3275C377.5734,-779.9963 364.9366,-753.4689 350,-732 345.6795,-725.7899 340.8651,-719.6153 335.8075,-713.6095"/>
<polygon fill="none" stroke="#191970" points="383.3527,-802.8004 390.3838,-810.7258 389.8297,-800.1455 383.3527,-802.8004"/>
</g>
<!-- Node18 -->
<g id="node8" class="node">
<title>Node18</title>
<polygon fill="none" stroke="#bfbfbf" points="356,-954.5 356,-1011.5 446,-1011.5 446,-954.5 356,-954.5"/>
<text text-anchor="middle" x="401" y="-999.5" font-family="Helvetica,sans-Serif" font-size="10.00" fill="#000000">static final String</text>
<polyline fill="none" stroke="#bfbfbf" points="356,-992.5 446,-992.5 "/>
<text text-anchor="middle" x="401" y="-980.5" font-family="Helvetica,sans-Serif" font-size="10.00" fill="#000000"> </text>
<polyline fill="none" stroke="#bfbfbf" points="356,-973.5 446,-973.5 "/>
<text text-anchor="middle" x="401" y="-961.5" font-family="Helvetica,sans-Serif" font-size="10.00" fill="#000000"> </text>
</g>
<!-- Node18&#45;&gt;Node17 -->
<g id="edge7" class="edge">
<title>Node18&#45;&gt;Node17</title>
<path fill="none" stroke="#404040" d="M401,-954.3055C401,-933.0904 401,-903.9058 401,-880.2714"/>
<polygon fill="none" stroke="#404040" points="401.0001,-880.1447 397,-874.1448 401,-868.1447 405,-874.1447 401.0001,-880.1447"/>
<text text-anchor="middle" x="451" y="-928" font-family="Helvetica,sans-Serif" font-size="10.00" fill="#000000"> +DEFAULT_LOCALE</text>
</g>
<!-- Node19 -->
<g id="node9" class="node">
<title>Node19</title>
<polygon fill="none" stroke="#bfbfbf" points="146,-811 146,-868 188,-868 188,-811 146,-811"/>
<text text-anchor="middle" x="167" y="-856" font-family="Helvetica,sans-Serif" font-size="10.00" fill="#000000">String</text>
<polyline fill="none" stroke="#bfbfbf" points="146,-849 188,-849 "/>
<text text-anchor="middle" x="167" y="-837" font-family="Helvetica,sans-Serif" font-size="10.00" fill="#000000"> </text>
<polyline fill="none" stroke="#bfbfbf" points="146,-830 188,-830 "/>
<text text-anchor="middle" x="167" y="-818" font-family="Helvetica,sans-Serif" font-size="10.00" fill="#000000"> </text>
</g>
<!-- Node19&#45;&gt;Node13 -->
<g id="edge8" class="edge">
<title>Node19&#45;&gt;Node13</title>
<path fill="none" stroke="#404040" d="M169.7199,-810.5785C172.8201,-788.012 179.3584,-756.4909 193,-732 195.2856,-727.8967 197.8394,-723.858 200.5909,-719.908"/>
<polygon fill="none" stroke="#404040" points="200.6039,-719.8907 200.999,-712.6904 207.7974,-710.2858 207.4022,-717.4861 200.6039,-719.8907"/>
<text text-anchor="middle" x="228" y="-746" font-family="Helvetica,sans-Serif" font-size="10.00" fill="#000000"> #layoutPosition</text>
<text text-anchor="middle" x="228" y="-735" font-family="Helvetica,sans-Serif" font-size="10.00" fill="#000000">#title</text>
</g>
<!-- Node20 -->
<g id="node10" class="node">
<title>Node20</title>
<polygon fill="none" stroke="#bfbfbf" points="206,-811 206,-868 316,-868 316,-811 206,-811"/>
<text text-anchor="middle" x="261" y="-856" font-family="Helvetica,sans-Serif" font-size="10.00" fill="#000000">CoreComponentType</text>
<polyline fill="none" stroke="#bfbfbf" points="206,-849 316,-849 "/>
<text text-anchor="middle" x="261" y="-837" font-family="Helvetica,sans-Serif" font-size="10.00" fill="#000000"> </text>
<polyline fill="none" stroke="#bfbfbf" points="206,-830 316,-830 "/>
<text text-anchor="middle" x="261" y="-818" font-family="Helvetica,sans-Serif" font-size="10.00" fill="#000000"> </text>
</g>
<!-- Node20&#45;&gt;Node13 -->
<g id="edge9" class="edge">
<title>Node20&#45;&gt;Node13</title>
<path fill="none" stroke="#404040" d="M262.6946,-810.614C264.0241,-787.9523 265.9355,-755.3726 267.6805,-725.6287"/>
<polygon fill="none" stroke="#404040" points="267.6874,-725.5088 264.0457,-719.2848 268.3903,-713.5294 272.032,-719.7534 267.6874,-725.5088"/>
<text text-anchor="middle" x="307" y="-740.5" font-family="Helvetica,sans-Serif" font-size="10.00" fill="#000000"> #coreComponent</text>
</g>
<!-- Node21&#45;&gt;Node12 -->
<g id="edge10" class="edge">
<title>Node21&#45;&gt;Node12</title>
<path fill="none" stroke="#191970" d="M176.6952,-595.2164C199.7371,-577.6999 224.6036,-558.7963 245.7878,-542.6919"/>
<polygon fill="none" stroke="#191970" points="174.4728,-592.5093 168.6302,-601.3475 178.7092,-598.0819 174.4728,-592.5093"/>
</g>
<!-- Node22 -->
<g id="node12" class="node">
<title>Node22</title>
<polygon fill="none" stroke="#bfbfbf" points="630.5,-811 630.5,-868 695.5,-868 695.5,-811 630.5,-811"/>
<text text-anchor="middle" x="663" y="-856" font-family="Helvetica,sans-Serif" font-size="10.00" fill="#000000">ModelType</text>
<polyline fill="none" stroke="#bfbfbf" points="630.5,-849 695.5,-849 "/>
<text text-anchor="middle" x="663" y="-837" font-family="Helvetica,sans-Serif" font-size="10.00" fill="#000000"> </text>
<polyline fill="none" stroke="#bfbfbf" points="630.5,-830 695.5,-830 "/>
<text text-anchor="middle" x="663" y="-818" font-family="Helvetica,sans-Serif" font-size="10.00" fill="#000000"> </text>
</g>
<!-- Node22&#45;&gt;Node12 -->
<g id="edge12" class="edge">
<title>Node22&#45;&gt;Node12</title>
<path fill="none" stroke="#404040" d="M647.9135,-810.8543C640.6262,-798.2915 631.2427,-783.7615 621,-772 543.6871,-683.2224 435.5538,-599.5155 366.142,-549.7406"/>
<polygon fill="none" stroke="#404040" points="365.9616,-549.612 358.754,-549.3863 356.1902,-542.6464 363.3977,-542.872 365.9616,-549.612"/>
<text text-anchor="middle" x="581.5" y="-649.5" font-family="Helvetica,sans-Serif" font-size="10.00" fill="#000000"> #model</text>
</g>
<!-- Node22&#45;&gt;Node27 -->
<g id="edge20" class="edge">
<title>Node22&#45;&gt;Node27</title>
<path fill="none" stroke="#404040" d="M666.6974,-810.614C670.3277,-782.2523 675.9465,-738.3557 680.3535,-703.9257"/>
<polygon fill="none" stroke="#404040" points="680.3928,-703.6185 677.187,-697.1591 681.9164,-691.7156 685.1222,-698.1749 680.3928,-703.6185"/>
<text text-anchor="middle" x="694.5" y="-740.5" font-family="Helvetica,sans-Serif" font-size="10.00" fill="#000000"> #model</text>
</g>
<!-- Node23 -->
<g id="node13" class="node">
<title>Node23</title>
<polygon fill="none" stroke="#bfbfbf" points="378.5,-325.5 378.5,-382.5 485.5,-382.5 485.5,-325.5 378.5,-325.5"/>
<text text-anchor="middle" x="432" y="-370.5" font-family="Helvetica,sans-Serif" font-size="10.00" fill="#000000">ListSelectionListener</text>
<polyline fill="none" stroke="#bfbfbf" points="378.5,-363.5 485.5,-363.5 "/>
<text text-anchor="middle" x="432" y="-351.5" font-family="Helvetica,sans-Serif" font-size="10.00" fill="#000000"> </text>
<polyline fill="none" stroke="#bfbfbf" points="378.5,-344.5 485.5,-344.5 "/>
<text text-anchor="middle" x="432" y="-332.5" font-family="Helvetica,sans-Serif" font-size="10.00" fill="#000000"> </text>
</g>
<!-- Node23&#45;&gt;Node11 -->
<g id="edge13" class="edge">
<title>Node23&#45;&gt;Node11</title>
<path fill="none" stroke="#191970" d="M466.8638,-318.2387C475.8344,-309.4444 485.6101,-300.203 495,-292 541.8893,-251.0378 597.3805,-208.1439 640.7723,-175.7545"/>
<polygon fill="none" stroke="#191970" points="464.1862,-315.9646 459.5439,-325.4882 469.112,-320.9382 464.1862,-315.9646"/>
</g>
<!-- Node24 -->
<g id="node14" class="node">
<title>Node24</title>
<polygon fill="none" stroke="#bfbfbf" points="504,-325.5 504,-382.5 584,-382.5 584,-325.5 504,-325.5"/>
<text text-anchor="middle" x="544" y="-370.5" font-family="Helvetica,sans-Serif" font-size="10.00" fill="#000000">MouseListener</text>
<polyline fill="none" stroke="#bfbfbf" points="504,-363.5 584,-363.5 "/>
<text text-anchor="middle" x="544" y="-351.5" font-family="Helvetica,sans-Serif" font-size="10.00" fill="#000000"> </text>
<polyline fill="none" stroke="#bfbfbf" points="504,-344.5 584,-344.5 "/>
<text text-anchor="middle" x="544" y="-332.5" font-family="Helvetica,sans-Serif" font-size="10.00" fill="#000000"> </text>
</g>
<!-- Node24&#45;&gt;Node11 -->
<g id="edge14" class="edge">
<title>Node24&#45;&gt;Node11</title>
<path fill="none" stroke="#191970" d="M571.3048,-316.8173C590.1953,-291.0929 616.2862,-255.5633 640.9967,-221.9133"/>
<polygon fill="none" stroke="#191970" points="568.2848,-315.0166 565.1869,-325.1484 573.9269,-319.1599 568.2848,-315.0166"/>
</g>
<!-- Node25 -->
<g id="node15" class="node">
<title>Node25</title>
<g id="a_node15"><a xlink:href="classene_1_1controllers_1_1PlayerController.html" target="_top" xlink:title="{ene.controllers.PlayerController\n||+ PlayerController()\l+ changeTrackPosition()\l+ loadPlaylist()\l+ load()\l+ previous()\l+ next()\l+ togglePlayback()\l}">
<polygon fill="none" stroke="#000000" points="602.5,-292.5 602.5,-415.5 755.5,-415.5 755.5,-292.5 602.5,-292.5"/>
<text text-anchor="middle" x="679" y="-403.5" font-family="Helvetica,sans-Serif" font-size="10.00" fill="#000000">ene.controllers.PlayerController</text>
<polyline fill="none" stroke="#000000" points="602.5,-396.5 755.5,-396.5 "/>
<text text-anchor="middle" x="679" y="-384.5" font-family="Helvetica,sans-Serif" font-size="10.00" fill="#000000"> </text>
<polyline fill="none" stroke="#000000" points="602.5,-377.5 755.5,-377.5 "/>
<text text-anchor="start" x="610.5" y="-365.5" font-family="Helvetica,sans-Serif" font-size="10.00" fill="#000000">+ PlayerController()</text>
<text text-anchor="start" x="610.5" y="-354.5" font-family="Helvetica,sans-Serif" font-size="10.00" fill="#000000">+ changeTrackPosition()</text>
<text text-anchor="start" x="610.5" y="-343.5" font-family="Helvetica,sans-Serif" font-size="10.00" fill="#000000">+ loadPlaylist()</text>
<text text-anchor="start" x="610.5" y="-332.5" font-family="Helvetica,sans-Serif" font-size="10.00" fill="#000000">+ load()</text>
<text text-anchor="start" x="610.5" y="-321.5" font-family="Helvetica,sans-Serif" font-size="10.00" fill="#000000">+ previous()</text>
<text text-anchor="start" x="610.5" y="-310.5" font-family="Helvetica,sans-Serif" font-size="10.00" fill="#000000">+ next()</text>
<text text-anchor="start" x="610.5" y="-299.5" font-family="Helvetica,sans-Serif" font-size="10.00" fill="#000000">+ togglePlayback()</text>
</a>
</g>
</g>
<!-- Node25&#45;&gt;Node11 -->
<g id="edge15" class="edge">
<title>Node25&#45;&gt;Node11</title>
<path fill="none" stroke="#404040" d="M667.0809,-292.1215C666.2334,-286.017 665.5123,-279.8998 665,-274 664.5161,-268.4275 664.4148,-262.7894 664.6386,-257.1309"/>
<polygon fill="none" stroke="#404040" points="664.6736,-256.6905 661.1623,-250.392 665.6258,-244.7283 669.1371,-251.0268 664.6736,-256.6905"/>
<text text-anchor="middle" x="703.5" y="-266" font-family="Helvetica,sans-Serif" font-size="10.00" fill="#000000"> #playerController</text>
</g>
<!-- Node26 -->
<g id="node16" class="node">
<title>Node26</title>
<g id="a_node16"><a xlink:href="classene_1_1controllers_1_1AbstractController.html" target="_top" xlink:title="{ene.controllers.Abstract\lController\&lt; PlayerModel \&gt;\n|# model\l|+ setModel()\l+ getModel()\l}">
<polygon fill="none" stroke="#000000" points="614.5,-463.5 614.5,-542.5 745.5,-542.5 745.5,-463.5 614.5,-463.5"/>
<text text-anchor="start" x="622.5" y="-530.5" font-family="Helvetica,sans-Serif" font-size="10.00" fill="#000000">ene.controllers.Abstract</text>
<text text-anchor="middle" x="680" y="-519.5" font-family="Helvetica,sans-Serif" font-size="10.00" fill="#000000">Controller&lt; PlayerModel &gt;</text>
<polyline fill="none" stroke="#000000" points="614.5,-512.5 745.5,-512.5 "/>
<text text-anchor="start" x="622.5" y="-500.5" font-family="Helvetica,sans-Serif" font-size="10.00" fill="#000000"># model</text>
<polyline fill="none" stroke="#000000" points="614.5,-493.5 745.5,-493.5 "/>
<text text-anchor="start" x="622.5" y="-481.5" font-family="Helvetica,sans-Serif" font-size="10.00" fill="#000000">+ setModel()</text>
<text text-anchor="start" x="622.5" y="-470.5" font-family="Helvetica,sans-Serif" font-size="10.00" fill="#000000">+ getModel()</text>
</a>
</g>
</g>
<!-- Node26&#45;&gt;Node25 -->
<g id="edge16" class="edge">
<title>Node26&#45;&gt;Node25</title>
<path fill="none" stroke="#191970" d="M679.6656,-453.1774C679.5849,-441.1489 679.4977,-428.1529 679.4138,-415.6543"/>
<polygon fill="none" stroke="#191970" points="676.1675,-453.4857 679.7346,-463.4619 683.1674,-453.4386 676.1675,-453.4857"/>
</g>
<!-- Node27&#45;&gt;Node26 -->
<g id="edge17" class="edge">
<title>Node27&#45;&gt;Node26</title>
<path fill="none" stroke="#ffa500" d="M684.6649,-602.2953C683.7546,-582.9192 682.7256,-561.0173 681.8662,-542.7228"/>
<polygon fill="#ffa500" stroke="#ffa500" points="681.177,-602.6372 685.1425,-612.4619 688.1693,-602.3087 681.177,-602.6372"/>
<text text-anchor="middle" x="722" y="-564" font-family="Helvetica,sans-Serif" font-size="10.00" fill="#000000"> &lt; PlayerModel &gt;</text>
</g>
<!-- Node28 -->
<g id="node18" class="node">
<title>Node28</title>
<g id="a_node18"><a xlink:href="interfaceene_1_1interfaces_1_1Controller.html" target="_top" xlink:title="{ene::interfaces::Controller\l\&lt; ModelType \&gt;\n||+ setModel()\l+ getModel()\l}">
<polygon fill="none" stroke="#000000" points="713.5,-800 713.5,-879 842.5,-879 842.5,-800 713.5,-800"/>
<text text-anchor="start" x="721.5" y="-867" font-family="Helvetica,sans-Serif" font-size="10.00" fill="#000000">ene::interfaces::Controller</text>
<text text-anchor="middle" x="778" y="-856" font-family="Helvetica,sans-Serif" font-size="10.00" fill="#000000">&lt; ModelType &gt;</text>
<polyline fill="none" stroke="#000000" points="713.5,-849 842.5,-849 "/>
<text text-anchor="middle" x="778" y="-837" font-family="Helvetica,sans-Serif" font-size="10.00" fill="#000000"> </text>
<polyline fill="none" stroke="#000000" points="713.5,-830 842.5,-830 "/>
<text text-anchor="start" x="721.5" y="-818" font-family="Helvetica,sans-Serif" font-size="10.00" fill="#000000">+ setModel()</text>
<text text-anchor="start" x="721.5" y="-807" font-family="Helvetica,sans-Serif" font-size="10.00" fill="#000000">+ getModel()</text>
</a>
</g>
</g>
<!-- Node28&#45;&gt;Node27 -->
<g id="edge19" class="edge">
<title>Node28&#45;&gt;Node27</title>
<path fill="none" stroke="#191970" d="M754.2069,-790.4758C739.2711,-759.7014 720.2595,-720.5292 706.2709,-691.7066"/>
<polygon fill="none" stroke="#191970" points="751.1862,-792.2678 758.7012,-799.7361 757.4837,-789.2114 751.1862,-792.2678"/>
</g>
<!-- Node29 -->
<g id="node19" class="node">
<title>Node29</title>
<polygon fill="none" stroke="#bfbfbf" points="773.5,-325.5 773.5,-382.5 848.5,-382.5 848.5,-325.5 773.5,-325.5"/>
<text text-anchor="middle" x="811" y="-370.5" font-family="Helvetica,sans-Serif" font-size="10.00" fill="#000000">static final int</text>
<polyline fill="none" stroke="#bfbfbf" points="773.5,-363.5 848.5,-363.5 "/>
<text text-anchor="middle" x="811" y="-351.5" font-family="Helvetica,sans-Serif" font-size="10.00" fill="#000000"> </text>
<polyline fill="none" stroke="#bfbfbf" points="773.5,-344.5 848.5,-344.5 "/>
<text text-anchor="middle" x="811" y="-332.5" font-family="Helvetica,sans-Serif" font-size="10.00" fill="#000000"> </text>
</g>
<!-- Node29&#45;&gt;Node11 -->
<g id="edge21" class="edge">
<title>Node29&#45;&gt;Node11</title>
<path fill="none" stroke="#404040" d="M792.7582,-325.4677C783.6747,-310.5138 772.9627,-291.6748 765,-274 762.4298,-268.2949 759.9168,-262.4196 757.4707,-256.4483"/>
<polygon fill="none" stroke="#404040" points="757.297,-256.0125 751.359,-251.921 752.8519,-244.8661 758.7899,-248.9576 757.297,-256.0125"/>
<text text-anchor="middle" x="837.5" y="-266" font-family="Helvetica,sans-Serif" font-size="10.00" fill="#000000"> #TABLE_COLUMN_FILENAME</text>
</g>
<!-- Node30 -->
<g id="node20" class="node">
<title>Node30</title>
<polygon fill="none" stroke="#bfbfbf" points="882,-325.5 882,-382.5 980,-382.5 980,-325.5 882,-325.5"/>
<text text-anchor="middle" x="931" y="-370.5" font-family="Helvetica,sans-Serif" font-size="10.00" fill="#000000">DefaultTableModel</text>
<polyline fill="none" stroke="#bfbfbf" points="882,-363.5 980,-363.5 "/>
<text text-anchor="middle" x="931" y="-351.5" font-family="Helvetica,sans-Serif" font-size="10.00" fill="#000000"> </text>
<polyline fill="none" stroke="#bfbfbf" points="882,-344.5 980,-344.5 "/>
<text text-anchor="middle" x="931" y="-332.5" font-family="Helvetica,sans-Serif" font-size="10.00" fill="#000000"> </text>
</g>
<!-- Node30&#45;&gt;Node11 -->
<g id="edge22" class="edge">
<title>Node30&#45;&gt;Node11</title>
<path fill="none" stroke="#404040" d="M929.5908,-325.2732C927.4664,-306.2464 922.3183,-281.4844 910,-263 882.1863,-221.2637 837.484,-187.8222 797.7897,-164.0516"/>
<polygon fill="none" stroke="#404040" points="797.6443,-163.9666 790.4458,-164.3927 787.2839,-157.9117 794.4824,-157.4857 797.6443,-163.9666"/>
<text text-anchor="middle" x="949" y="-266" font-family="Helvetica,sans-Serif" font-size="10.00" fill="#000000"> #tableContent</text>
</g>
<!-- Node31 -->
<g id="node21" class="node">
<title>Node31</title>
<polygon fill="none" stroke="#bfbfbf" points="998,-325.5 998,-382.5 1044,-382.5 1044,-325.5 998,-325.5"/>
<text text-anchor="middle" x="1021" y="-370.5" font-family="Helvetica,sans-Serif" font-size="10.00" fill="#000000">JTable</text>
<polyline fill="none" stroke="#bfbfbf" points="998,-363.5 1044,-363.5 "/>
<text text-anchor="middle" x="1021" y="-351.5" font-family="Helvetica,sans-Serif" font-size="10.00" fill="#000000"> </text>
<polyline fill="none" stroke="#bfbfbf" points="998,-344.5 1044,-344.5 "/>
<text text-anchor="middle" x="1021" y="-332.5" font-family="Helvetica,sans-Serif" font-size="10.00" fill="#000000"> </text>
</g>
<!-- Node31&#45;&gt;Node11 -->
<g id="edge23" class="edge">
<title>Node31&#45;&gt;Node11</title>
<path fill="none" stroke="#404040" d="M1015.234,-325.3328C1010.0827,-305.8475 1000.8297,-280.5254 985,-263 934.9628,-207.6028 857.9431,-170.6311 798.7832,-148.5801"/>
<polygon fill="none" stroke="#404040" points="798.4798,-148.4698 791.4738,-150.1779 787.2026,-144.3678 794.2085,-142.6598 798.4798,-148.4698"/>
<text text-anchor="middle" x="1009" y="-266" font-family="Helvetica,sans-Serif" font-size="10.00" fill="#000000"> #table</text>
</g>
<!-- Node32 -->
<g id="node22" class="node">
<title>Node32</title>
<polygon fill="none" stroke="#bfbfbf" points="1062,-320 1062,-388 1214,-388 1214,-320 1062,-320"/>
<text text-anchor="start" x="1070" y="-376" font-family="Helvetica,sans-Serif" font-size="10.00" fill="#000000">TableRowSorter&lt; DefaultTable</text>
<text text-anchor="middle" x="1138" y="-365" font-family="Helvetica,sans-Serif" font-size="10.00" fill="#000000">Model &gt;</text>
<polyline fill="none" stroke="#bfbfbf" points="1062,-358 1214,-358 "/>
<text text-anchor="middle" x="1138" y="-346" font-family="Helvetica,sans-Serif" font-size="10.00" fill="#000000"> </text>
<polyline fill="none" stroke="#bfbfbf" points="1062,-339 1214,-339 "/>
<text text-anchor="middle" x="1138" y="-327" font-family="Helvetica,sans-Serif" font-size="10.00" fill="#000000"> </text>
</g>
<!-- Node32&#45;&gt;Node11 -->
<g id="edge24" class="edge">
<title>Node32&#45;&gt;Node11</title>
<path fill="none" stroke="#404040" d="M1101.7395,-319.7449C1081.1585,-301.4295 1054.3157,-279.3502 1028,-263 954.5425,-217.3601 863.7207,-178.3984 798.6819,-153.1627"/>
<polygon fill="none" stroke="#404040" points="798.4549,-153.0755 791.4188,-154.6547 787.255,-148.7672 794.2911,-147.188 798.4549,-153.0755"/>
<text text-anchor="middle" x="1083" y="-266" font-family="Helvetica,sans-Serif" font-size="10.00" fill="#000000"> #tableRowSorter</text>
</g>
<!-- Node33 -->
<g id="node23" class="node">
<title>Node33</title>
<polygon fill="none" stroke="#bfbfbf" points="1094.5,-474.5 1094.5,-531.5 1181.5,-531.5 1181.5,-474.5 1094.5,-474.5"/>
<text text-anchor="middle" x="1138" y="-519.5" font-family="Helvetica,sans-Serif" font-size="10.00" fill="#000000">TableRowSorter</text>
<polyline fill="none" stroke="#bfbfbf" points="1094.5,-512.5 1181.5,-512.5 "/>
<text text-anchor="middle" x="1138" y="-500.5" font-family="Helvetica,sans-Serif" font-size="10.00" fill="#000000"> </text>
<polyline fill="none" stroke="#bfbfbf" points="1094.5,-493.5 1181.5,-493.5 "/>
<text text-anchor="middle" x="1138" y="-481.5" font-family="Helvetica,sans-Serif" font-size="10.00" fill="#000000"> </text>
</g>
<!-- Node33&#45;&gt;Node32 -->
<g id="edge25" class="edge">
<title>Node33&#45;&gt;Node32</title>
<path fill="none" stroke="#ffa500" d="M1138,-464.2559C1138,-440.6705 1138,-410.8175 1138,-388.1252"/>
<polygon fill="#ffa500" stroke="#ffa500" points="1134.5001,-464.2713 1138,-474.2713 1141.5001,-464.2713 1134.5001,-464.2713"/>
<text text-anchor="middle" x="1189.5" y="-437" font-family="Helvetica,sans-Serif" font-size="10.00" fill="#000000"> &lt; DefaultTableModel &gt;</text>
</g>
</g>
</svg>
