<?xml version="1.0" encoding="UTF-8" standalone="no"?>
<!DOCTYPE svg PUBLIC "-//W3C//DTD SVG 1.1//EN"
 "http://www.w3.org/Graphics/SVG/1.1/DTD/svg11.dtd">
<!-- Generated by graphviz version 2.40.1 (20161225.0304)
 -->
<!-- Title: ene.views.gui.partial.PlayerView.update Pages: 1 -->
<svg width="727pt" height="351pt"
 viewBox="0.00 0.00 727.00 350.50" xmlns="http://www.w3.org/2000/svg" xmlns:xlink="http://www.w3.org/1999/xlink">
<g id="graph0" class="graph" transform="scale(1 1) rotate(0) translate(4 346.5)">
<title>ene.views.gui.partial.PlayerView.update</title>
<!-- Node71 -->
<g id="node1" class="node">
<title>Node71</title>
<polygon fill="#bfbfbf" stroke="#000000" points="0,-167 0,-197 137,-197 137,-167 0,-167"/>
<text text-anchor="start" x="8" y="-185" font-family="Helvetica,sans-Serif" font-size="10.00" fill="#000000">ene.views.gui.partial.Player</text>
<text text-anchor="middle" x="68.5" y="-174" font-family="Helvetica,sans-Serif" font-size="10.00" fill="#000000">View.update</text>
</g>
<!-- Node72 -->
<g id="node2" class="node">
<title>Node72</title>
<g id="a_node2"><a xlink:href="classene_1_1views_1_1gui_1_1partial_1_1PlayerView.html#a7126e270c8cc5956e79773eddc508655" target="_top" xlink:title="ene.views.gui.partial.Player\lView.disablePlayerControls">
<polygon fill="none" stroke="#000000" points="179,-312 179,-342 316,-342 316,-312 179,-312"/>
<text text-anchor="start" x="187" y="-330" font-family="Helvetica,sans-Serif" font-size="10.00" fill="#000000">ene.views.gui.partial.Player</text>
<text text-anchor="middle" x="247.5" y="-319" font-family="Helvetica,sans-Serif" font-size="10.00" fill="#000000">View.disablePlayerControls</text>
</a>
</g>
</g>
<!-- Node71&#45;&gt;Node72 -->
<g id="edge1" class="edge">
<title>Node71&#45;&gt;Node72</title>
<path fill="none" stroke="#191970" d="M77.7516,-197.3853C93.9137,-222.9846 129.7273,-274.3361 173,-303 175.3896,-304.5829 177.8913,-306.0679 180.4702,-307.4604"/>
<polygon fill="#191970" stroke="#191970" points="178.9626,-310.6191 189.4862,-311.8461 182.0247,-304.3243 178.9626,-310.6191"/>
</g>
<!-- Node73 -->
<g id="node3" class="node">
<title>Node73</title>
<g id="a_node3"><a xlink:href="classene_1_1views_1_1gui_1_1partial_1_1PlayerView.html#a3098a851f88f8b9ce6d4e2fcacdf55c9" target="_top" xlink:title="ene.views.gui.partial.Player\lView.enablePlayerControls">
<polygon fill="none" stroke="#000000" points="179,-263 179,-293 316,-293 316,-263 179,-263"/>
<text text-anchor="start" x="187" y="-281" font-family="Helvetica,sans-Serif" font-size="10.00" fill="#000000">ene.views.gui.partial.Player</text>
<text text-anchor="middle" x="247.5" y="-270" font-family="Helvetica,sans-Serif" font-size="10.00" fill="#000000">View.enablePlayerControls</text>
</a>
</g>
</g>
<!-- Node71&#45;&gt;Node73 -->
<g id="edge2" class="edge">
<title>Node71&#45;&gt;Node73</title>
<path fill="none" stroke="#191970" d="M89.8423,-197.0905C110.5015,-211.3048 143.0111,-232.6507 173,-248 180.5829,-251.8812 188.7896,-255.6185 196.8903,-259.0595"/>
<polygon fill="#191970" stroke="#191970" points="195.729,-262.3667 206.3075,-262.9538 198.404,-255.8979 195.729,-262.3667"/>
</g>
<!-- Node74 -->
<g id="node4" class="node">
<title>Node74</title>
<g id="a_node4"><a xlink:href="classene_1_1views_1_1AbstractPartialView.html#afb90f9e02eea94a2fb276d711a67ee36" target="_top" xlink:title="ene.views.AbstractPartial\lView.getModel">
<polygon fill="none" stroke="#000000" points="586.5,-221 586.5,-251 714.5,-251 714.5,-221 586.5,-221"/>
<text text-anchor="start" x="594.5" y="-239" font-family="Helvetica,sans-Serif" font-size="10.00" fill="#000000">ene.views.AbstractPartial</text>
<text text-anchor="middle" x="650.5" y="-228" font-family="Helvetica,sans-Serif" font-size="10.00" fill="#000000">View.getModel</text>
</a>
</g>
</g>
<!-- Node71&#45;&gt;Node74 -->
<g id="edge3" class="edge">
<title>Node71&#45;&gt;Node74</title>
<path fill="none" stroke="#191970" d="M123.4669,-197.0466C139.3408,-200.8743 156.763,-204.5835 173,-207 314.676,-228.0848 482.1796,-233.9222 576.4092,-235.4868"/>
<polygon fill="#191970" stroke="#191970" points="576.3601,-238.9864 586.413,-235.6413 576.4682,-231.9872 576.3601,-238.9864"/>
</g>
<!-- Node75 -->
<g id="node5" class="node">
<title>Node75</title>
<g id="a_node5"><a xlink:href="interfaceene_1_1interfaces_1_1Localization.html#ae7d5c65647a8bd1ca0c27b3279b0751c" target="_top" xlink:title="ene.interfaces.Localization.get\lString">
<polygon fill="none" stroke="#000000" points="173,-118 173,-148 322,-148 322,-118 173,-118"/>
<text text-anchor="start" x="181" y="-136" font-family="Helvetica,sans-Serif" font-size="10.00" fill="#000000">ene.interfaces.Localization.get</text>
<text text-anchor="middle" x="247.5" y="-125" font-family="Helvetica,sans-Serif" font-size="10.00" fill="#000000">String</text>
</a>
</g>
</g>
<!-- Node71&#45;&gt;Node75 -->
<g id="edge4" class="edge">
<title>Node71&#45;&gt;Node75</title>
<path fill="none" stroke="#191970" d="M123.6665,-166.8986C142.3842,-161.7747 163.4635,-156.0044 182.8526,-150.6968"/>
<polygon fill="#191970" stroke="#191970" points="183.7946,-154.0677 192.5157,-148.0516 181.9464,-147.3161 183.7946,-154.0677"/>
</g>
<!-- Node76 -->
<g id="node6" class="node">
<title>Node76</title>
<g id="a_node6"><a xlink:href="classene_1_1models_1_1PlayerModel.html#ac32610c7511e6187ae364f64e1cf290b" target="_top" xlink:title="ene.models.PlayerModel.get\lTrackLength">
<polygon fill="none" stroke="#000000" points="177.5,-4 177.5,-34 317.5,-34 317.5,-4 177.5,-4"/>
<text text-anchor="start" x="185.5" y="-22" font-family="Helvetica,sans-Serif" font-size="10.00" fill="#000000">ene.models.PlayerModel.get</text>
<text text-anchor="middle" x="247.5" y="-11" font-family="Helvetica,sans-Serif" font-size="10.00" fill="#000000">TrackLength</text>
</a>
</g>
</g>
<!-- Node71&#45;&gt;Node76 -->
<g id="edge5" class="edge">
<title>Node71&#45;&gt;Node76</title>
<path fill="none" stroke="#191970" d="M76.0432,-166.7519C90.7922,-138.4635 126.1468,-77.677 173,-44 175.6587,-42.089 178.4737,-40.3165 181.3923,-38.6735"/>
<polygon fill="#191970" stroke="#191970" points="183.0564,-41.7542 190.4063,-34.1234 179.902,-35.5052 183.0564,-41.7542"/>
</g>
<!-- Node79 -->
<g id="node9" class="node">
<title>Node79</title>
<g id="a_node9"><a xlink:href="classene_1_1models_1_1PlayerModel.html#a3108500012be901007a2e809761ac136" target="_top" xlink:title="ene.models.PlayerModel.get\lTrackPosition">
<polygon fill="none" stroke="#000000" points="177.5,-53 177.5,-83 317.5,-83 317.5,-53 177.5,-53"/>
<text text-anchor="start" x="185.5" y="-71" font-family="Helvetica,sans-Serif" font-size="10.00" fill="#000000">ene.models.PlayerModel.get</text>
<text text-anchor="middle" x="247.5" y="-60" font-family="Helvetica,sans-Serif" font-size="10.00" fill="#000000">TrackPosition</text>
</a>
</g>
</g>
<!-- Node71&#45;&gt;Node79 -->
<g id="edge8" class="edge">
<title>Node71&#45;&gt;Node79</title>
<path fill="none" stroke="#191970" d="M88.8798,-166.7921C109.6291,-151.5418 142.9326,-127.7016 173,-109 184.6881,-101.7302 197.7442,-94.3174 209.6217,-87.8301"/>
<polygon fill="#191970" stroke="#191970" points="211.2999,-90.9016 218.4325,-83.0673 207.9712,-84.7437 211.2999,-90.9016"/>
</g>
<!-- Node80 -->
<g id="node10" class="node">
<title>Node80</title>
<g id="a_node10"><a xlink:href="classene_1_1views_1_1gui_1_1partial_1_1PlayerView.html#af84e60915df5af5201e75e01a2f9a4a5" target="_top" xlink:title="ene.views.gui.partial.Player\lView.resetProgress">
<polygon fill="none" stroke="#000000" points="179,-167 179,-197 316,-197 316,-167 179,-167"/>
<text text-anchor="start" x="187" y="-185" font-family="Helvetica,sans-Serif" font-size="10.00" fill="#000000">ene.views.gui.partial.Player</text>
<text text-anchor="middle" x="247.5" y="-174" font-family="Helvetica,sans-Serif" font-size="10.00" fill="#000000">View.resetProgress</text>
</a>
</g>
</g>
<!-- Node71&#45;&gt;Node80 -->
<g id="edge11" class="edge">
<title>Node71&#45;&gt;Node80</title>
<path fill="none" stroke="#191970" d="M137.1941,-182C147.5794,-182 158.3603,-182 168.9345,-182"/>
<polygon fill="#191970" stroke="#191970" points="168.9897,-185.5001 178.9897,-182 168.9896,-178.5001 168.9897,-185.5001"/>
</g>
<!-- Node77 -->
<g id="node7" class="node">
<title>Node77</title>
<g id="a_node7"><a xlink:href="classene_1_1AbstractObject.html#a600f6bedef1dc48e610cdfa5f81b7667" target="_top" xlink:title="ene.AbstractObject.delay">
<polygon fill="none" stroke="#000000" points="388.5,-38.5 388.5,-57.5 515.5,-57.5 515.5,-38.5 388.5,-38.5"/>
<text text-anchor="middle" x="452" y="-45.5" font-family="Helvetica,sans-Serif" font-size="10.00" fill="#000000">ene.AbstractObject.delay</text>
</a>
</g>
</g>
<!-- Node76&#45;&gt;Node77 -->
<g id="edge6" class="edge">
<title>Node76&#45;&gt;Node77</title>
<path fill="none" stroke="#191970" d="M317.5912,-28.9396C337.0862,-31.7042 358.3176,-34.715 378.0276,-37.51"/>
<polygon fill="#191970" stroke="#191970" points="377.7864,-41.0108 388.1788,-38.9496 378.7693,-34.0801 377.7864,-41.0108"/>
</g>
<!-- Node78 -->
<g id="node8" class="node">
<title>Node78</title>
<g id="a_node8"><a xlink:href="classene_1_1models_1_1PlayerModel.html#aa03431aa1bae96eacf2019c56fd18f45" target="_top" xlink:title="ene.models.PlayerModel.getClip">
<polygon fill="none" stroke="#000000" points="373,-.5 373,-19.5 531,-19.5 531,-.5 373,-.5"/>
<text text-anchor="middle" x="452" y="-7.5" font-family="Helvetica,sans-Serif" font-size="10.00" fill="#000000">ene.models.PlayerModel.getClip</text>
</a>
</g>
</g>
<!-- Node76&#45;&gt;Node78 -->
<g id="edge7" class="edge">
<title>Node76&#45;&gt;Node78</title>
<path fill="none" stroke="#191970" d="M317.5912,-15.9153C332.0584,-15.2786 347.482,-14.5998 362.5303,-13.9375"/>
<polygon fill="#191970" stroke="#191970" points="363.0357,-17.4188 372.8721,-13.4824 362.7278,-10.4256 363.0357,-17.4188"/>
</g>
<!-- Node79&#45;&gt;Node77 -->
<g id="edge9" class="edge">
<title>Node79&#45;&gt;Node77</title>
<path fill="none" stroke="#191970" d="M317.5912,-61.1451C337.0862,-59.2385 358.3176,-57.1621 378.0276,-55.2345"/>
<polygon fill="#191970" stroke="#191970" points="378.5669,-58.6985 388.1788,-54.2417 377.8855,-51.7317 378.5669,-58.6985"/>
</g>
<!-- Node79&#45;&gt;Node78 -->
<g id="edge10" class="edge">
<title>Node79&#45;&gt;Node78</title>
<path fill="none" stroke="#191970" d="M293.7176,-52.8679C303.1056,-49.6884 312.892,-46.2971 322,-43 338.1422,-37.1565 341.526,-33.8294 358,-29 367.1307,-26.3233 376.8692,-23.8948 386.4891,-21.7371"/>
<polygon fill="#191970" stroke="#191970" points="387.4051,-25.1201 396.4407,-19.5875 385.9272,-18.2779 387.4051,-25.1201"/>
</g>
<!-- Node81 -->
<g id="node11" class="node">
<title>Node81</title>
<g id="a_node11"><a xlink:href="classene_1_1controllers_1_1PlayerController.html#a4431d7fb8789a039aba690fa30c7f76f" target="_top" xlink:title="ene.controllers.PlayerController.change\lTrackPosition">
<polygon fill="none" stroke="#000000" points="358,-126 358,-156 546,-156 546,-126 358,-126"/>
<text text-anchor="start" x="366" y="-144" font-family="Helvetica,sans-Serif" font-size="10.00" fill="#000000">ene.controllers.PlayerController.change</text>
<text text-anchor="middle" x="452" y="-133" font-family="Helvetica,sans-Serif" font-size="10.00" fill="#000000">TrackPosition</text>
</a>
</g>
</g>
<!-- Node80&#45;&gt;Node81 -->
<g id="edge12" class="edge">
<title>Node80&#45;&gt;Node81</title>
<path fill="none" stroke="#191970" d="M316.1644,-168.2335C332.46,-164.9665 350.0358,-161.4427 366.9635,-158.0489"/>
<polygon fill="#191970" stroke="#191970" points="367.724,-161.4662 376.8408,-156.0686 366.3479,-154.6027 367.724,-161.4662"/>
</g>
<!-- Node83 -->
<g id="node13" class="node">
<title>Node83</title>
<g id="a_node13"><a xlink:href="classene_1_1views_1_1gui_1_1partial_1_1PlayerView.html#a4dc768b48e41f0ea98929d8069ef790a" target="_top" xlink:title="ene.views.gui.partial.Player\lView.getPlayerController">
<polygon fill="none" stroke="#000000" points="383.5,-77 383.5,-107 520.5,-107 520.5,-77 383.5,-77"/>
<text text-anchor="start" x="391.5" y="-95" font-family="Helvetica,sans-Serif" font-size="10.00" fill="#000000">ene.views.gui.partial.Player</text>
<text text-anchor="middle" x="452" y="-84" font-family="Helvetica,sans-Serif" font-size="10.00" fill="#000000">View.getPlayerController</text>
</a>
</g>
</g>
<!-- Node80&#45;&gt;Node83 -->
<g id="edge14" class="edge">
<title>Node80&#45;&gt;Node83</title>
<path fill="none" stroke="#191970" d="M305.0997,-166.9715C311.0218,-164.4031 316.7747,-161.4305 322,-158 342.2714,-144.6914 337.3913,-129.7801 358,-117 362.9646,-113.9213 368.304,-111.2181 373.8262,-108.8452"/>
<polygon fill="#191970" stroke="#191970" points="375.2205,-112.0581 383.2583,-105.1556 372.6704,-105.5391 375.2205,-112.0581"/>
</g>
<!-- Node84 -->
<g id="node14" class="node">
<title>Node84</title>
<g id="a_node14"><a xlink:href="classene_1_1views_1_1gui_1_1partial_1_1PlayerView.html#af324f1c0b5648dab2400b4c0ab33f3ca" target="_top" xlink:title="ene.views.gui.partial.Player\lView.updateProgress">
<polygon fill="none" stroke="#000000" points="383.5,-175 383.5,-205 520.5,-205 520.5,-175 383.5,-175"/>
<text text-anchor="start" x="391.5" y="-193" font-family="Helvetica,sans-Serif" font-size="10.00" fill="#000000">ene.views.gui.partial.Player</text>
<text text-anchor="middle" x="452" y="-182" font-family="Helvetica,sans-Serif" font-size="10.00" fill="#000000">View.updateProgress</text>
</a>
</g>
</g>
<!-- Node80&#45;&gt;Node84 -->
<g id="edge15" class="edge">
<title>Node80&#45;&gt;Node84</title>
<path fill="none" stroke="#191970" d="M316.1644,-184.6861C334.4588,-185.4018 354.3668,-186.1806 373.1599,-186.9158"/>
<polygon fill="#191970" stroke="#191970" points="373.0395,-190.4137 383.1687,-187.3073 373.3132,-183.419 373.0395,-190.4137"/>
</g>
<!-- Node82 -->
<g id="node12" class="node">
<title>Node82</title>
<g id="a_node12"><a xlink:href="classene_1_1controllers_1_1AbstractController.html#a9a5afba01d0004a64db4cb14c23e0bbd" target="_top" xlink:title="ene.controllers.Abstract\lController\&lt; PlayerModel\l \&gt;::getModel">
<polygon fill="none" stroke="#000000" points="589.5,-111.5 589.5,-152.5 711.5,-152.5 711.5,-111.5 589.5,-111.5"/>
<text text-anchor="start" x="597.5" y="-140.5" font-family="Helvetica,sans-Serif" font-size="10.00" fill="#000000">ene.controllers.Abstract</text>
<text text-anchor="start" x="597.5" y="-129.5" font-family="Helvetica,sans-Serif" font-size="10.00" fill="#000000">Controller&lt; PlayerModel</text>
<text text-anchor="middle" x="650.5" y="-118.5" font-family="Helvetica,sans-Serif" font-size="10.00" fill="#000000"> &gt;::getModel</text>
</a>
</g>
</g>
<!-- Node81&#45;&gt;Node82 -->
<g id="edge13" class="edge">
<title>Node81&#45;&gt;Node82</title>
<path fill="none" stroke="#191970" d="M546.0183,-136.7372C557.1812,-136.2311 568.4326,-135.7209 579.2056,-135.2325"/>
<polygon fill="#191970" stroke="#191970" points="579.5381,-138.7211 589.3692,-134.7717 579.221,-131.7283 579.5381,-138.7211"/>
</g>
<!-- Node84&#45;&gt;Node74 -->
<g id="edge16" class="edge">
<title>Node84&#45;&gt;Node74</title>
<path fill="none" stroke="#191970" d="M516.9963,-205.0621C536.0514,-209.4779 557.0266,-214.3386 576.5932,-218.873"/>
<polygon fill="#191970" stroke="#191970" points="575.8419,-222.2916 586.374,-221.1396 577.4223,-215.4723 575.8419,-222.2916"/>
</g>
<!-- Node85 -->
<g id="node15" class="node">
<title>Node85</title>
<g id="a_node15"><a xlink:href="classene_1_1views_1_1gui_1_1partial_1_1PlayerView.html#a5214bb8084cfb78242868039e33f78ef" target="_top" xlink:title="ene.views.gui.partial.Player\lView.formatTimeToString">
<polygon fill="none" stroke="#000000" points="582,-172 582,-202 719,-202 719,-172 582,-172"/>
<text text-anchor="start" x="590" y="-190" font-family="Helvetica,sans-Serif" font-size="10.00" fill="#000000">ene.views.gui.partial.Player</text>
<text text-anchor="middle" x="650.5" y="-179" font-family="Helvetica,sans-Serif" font-size="10.00" fill="#000000">View.formatTimeToString</text>
</a>
</g>
</g>
<!-- Node84&#45;&gt;Node85 -->
<g id="edge17" class="edge">
<title>Node84&#45;&gt;Node85</title>
<path fill="none" stroke="#191970" d="M520.5904,-188.9634C537.0162,-188.7151 554.6843,-188.4481 571.5373,-188.1934"/>
<polygon fill="#191970" stroke="#191970" points="571.961,-191.6875 581.9069,-188.0367 571.8551,-184.6883 571.961,-191.6875"/>
</g>
</g>
</svg>
