<?xml version="1.0" encoding="UTF-8" standalone="no"?>
<!DOCTYPE svg PUBLIC "-//W3C//DTD SVG 1.1//EN"
 "http://www.w3.org/Graphics/SVG/1.1/DTD/svg11.dtd">
<!-- Generated by graphviz version 2.40.1 (20161225.0304)
 -->
<!-- Title: ene.views.gui.partial.LibraryView Pages: 1 -->
<svg width="933pt" height="1159pt"
 viewBox="0.00 0.00 933.00 1159.00" xmlns="http://www.w3.org/2000/svg" xmlns:xlink="http://www.w3.org/1999/xlink">
<g id="graph0" class="graph" transform="scale(1 1) rotate(0) translate(4 1155)">
<title>ene.views.gui.partial.LibraryView</title>
<!-- Node9 -->
<g id="node1" class="node">
<title>Node9</title>
<polygon fill="#bfbfbf" stroke="#000000" points="511,-.5 511,-112.5 671,-112.5 671,-.5 511,-.5"/>
<text text-anchor="middle" x="591" y="-100.5" font-family="Helvetica,sans-Serif" font-size="10.00" fill="#000000">ene.views.gui.partial.LibraryView</text>
<polyline fill="none" stroke="#000000" points="511,-93.5 671,-93.5 "/>
<text text-anchor="middle" x="591" y="-81.5" font-family="Helvetica,sans-Serif" font-size="10.00" fill="#000000"> </text>
<polyline fill="none" stroke="#000000" points="511,-74.5 671,-74.5 "/>
<text text-anchor="start" x="519" y="-62.5" font-family="Helvetica,sans-Serif" font-size="10.00" fill="#000000">+ LibraryView()</text>
<text text-anchor="start" x="519" y="-51.5" font-family="Helvetica,sans-Serif" font-size="10.00" fill="#000000">+ update()</text>
<text text-anchor="start" x="519" y="-40.5" font-family="Helvetica,sans-Serif" font-size="10.00" fill="#000000">+ render()</text>
<text text-anchor="start" x="519" y="-29.5" font-family="Helvetica,sans-Serif" font-size="10.00" fill="#000000"># setLibraryController()</text>
<text text-anchor="start" x="519" y="-18.5" font-family="Helvetica,sans-Serif" font-size="10.00" fill="#000000"># getLibraryController()</text>
<text text-anchor="start" x="519" y="-7.5" font-family="Helvetica,sans-Serif" font-size="10.00" fill="#000000"># loadContent()</text>
</g>
<!-- Node10 -->
<g id="node2" class="node">
<title>Node10</title>
<g id="a_node2"><a xlink:href="classene_1_1views_1_1gui_1_1partial_1_1AbstractTrackListView.html" target="_top" xlink:title="{ene.views.gui.partial.Abstract\lTrackListView\n||+ valueChanged()\l# setTable()\l# getTable()\l# setTableContent()\l# getTableContent()\l# setTableRowSorter()\l# getTableRowSorter()\l# setPlayerController()\l# getPlayerController()\l# hideColumn()\l# getSelectedFilename()\l}">
<polygon fill="none" stroke="#000000" points="287,-150.5 287,-328.5 433,-328.5 433,-150.5 287,-150.5"/>
<text text-anchor="start" x="295" y="-316.5" font-family="Helvetica,sans-Serif" font-size="10.00" fill="#000000">ene.views.gui.partial.Abstract</text>
<text text-anchor="middle" x="360" y="-305.5" font-family="Helvetica,sans-Serif" font-size="10.00" fill="#000000">TrackListView</text>
<polyline fill="none" stroke="#000000" points="287,-298.5 433,-298.5 "/>
<text text-anchor="middle" x="360" y="-286.5" font-family="Helvetica,sans-Serif" font-size="10.00" fill="#000000"> </text>
<polyline fill="none" stroke="#000000" points="287,-279.5 433,-279.5 "/>
<text text-anchor="start" x="295" y="-267.5" font-family="Helvetica,sans-Serif" font-size="10.00" fill="#000000">+ valueChanged()</text>
<text text-anchor="start" x="295" y="-256.5" font-family="Helvetica,sans-Serif" font-size="10.00" fill="#000000"># setTable()</text>
<text text-anchor="start" x="295" y="-245.5" font-family="Helvetica,sans-Serif" font-size="10.00" fill="#000000"># getTable()</text>
<text text-anchor="start" x="295" y="-234.5" font-family="Helvetica,sans-Serif" font-size="10.00" fill="#000000"># setTableContent()</text>
<text text-anchor="start" x="295" y="-223.5" font-family="Helvetica,sans-Serif" font-size="10.00" fill="#000000"># getTableContent()</text>
<text text-anchor="start" x="295" y="-212.5" font-family="Helvetica,sans-Serif" font-size="10.00" fill="#000000"># setTableRowSorter()</text>
<text text-anchor="start" x="295" y="-201.5" font-family="Helvetica,sans-Serif" font-size="10.00" fill="#000000"># getTableRowSorter()</text>
<text text-anchor="start" x="295" y="-190.5" font-family="Helvetica,sans-Serif" font-size="10.00" fill="#000000"># setPlayerController()</text>
<text text-anchor="start" x="295" y="-179.5" font-family="Helvetica,sans-Serif" font-size="10.00" fill="#000000"># getPlayerController()</text>
<text text-anchor="start" x="295" y="-168.5" font-family="Helvetica,sans-Serif" font-size="10.00" fill="#000000"># hideColumn()</text>
<text text-anchor="start" x="295" y="-157.5" font-family="Helvetica,sans-Serif" font-size="10.00" fill="#000000"># getSelectedFilename()</text>
</a>
</g>
</g>
<!-- Node10&#45;&gt;Node9 -->
<g id="edge1" class="edge">
<title>Node10&#45;&gt;Node9</title>
<path fill="none" stroke="#191970" d="M440.9903,-175.3388C466.7286,-154.9488 494.9843,-132.5644 519.9651,-112.7744"/>
<polygon fill="none" stroke="#191970" points="438.7549,-172.6445 433.0898,-181.5977 443.1016,-178.1314 438.7549,-172.6445"/>
</g>
<!-- Node11 -->
<g id="node3" class="node">
<title>Node11</title>
<g id="a_node3"><a xlink:href="classene_1_1views_1_1AbstractPartialView.html" target="_top" xlink:title="{ene::views::AbstractPartial\lView\&lt; JPanel, TrackListModel \&gt;\n||+ setModel()\l+ getModel()\l}">
<polygon fill="none" stroke="#000000" points="282.5,-591.5 282.5,-670.5 441.5,-670.5 441.5,-591.5 282.5,-591.5"/>
<text text-anchor="start" x="290.5" y="-658.5" font-family="Helvetica,sans-Serif" font-size="10.00" fill="#000000">ene::views::AbstractPartial</text>
<text text-anchor="middle" x="362" y="-647.5" font-family="Helvetica,sans-Serif" font-size="10.00" fill="#000000">View&lt; JPanel, TrackListModel &gt;</text>
<polyline fill="none" stroke="#000000" points="282.5,-640.5 441.5,-640.5 "/>
<text text-anchor="middle" x="362" y="-628.5" font-family="Helvetica,sans-Serif" font-size="10.00" fill="#000000"> </text>
<polyline fill="none" stroke="#000000" points="282.5,-621.5 441.5,-621.5 "/>
<text text-anchor="start" x="290.5" y="-609.5" font-family="Helvetica,sans-Serif" font-size="10.00" fill="#000000">+ setModel()</text>
<text text-anchor="start" x="290.5" y="-598.5" font-family="Helvetica,sans-Serif" font-size="10.00" fill="#000000">+ getModel()</text>
</a>
</g>
</g>
<!-- Node11&#45;&gt;Node10 -->
<g id="edge2" class="edge">
<title>Node11&#45;&gt;Node10</title>
<path fill="none" stroke="#191970" d="M361.7454,-581.1672C361.4214,-517.7432 360.8559,-407.0465 360.4565,-328.8665"/>
<polygon fill="none" stroke="#191970" points="358.2461,-581.3244 361.7972,-591.3064 365.246,-581.2886 358.2461,-581.3244"/>
</g>
<!-- Node12 -->
<g id="node4" class="node">
<title>Node12</title>
<g id="a_node4"><a xlink:href="classene_1_1views_1_1AbstractView.html" target="_top" xlink:title="{ene::views::AbstractView\l\&lt; CoreComponentType \&gt;\n||+ setTitle()\l+ getTitle()\l+ setCoreComponent()\l+ getCoreComponent()\l+ setLayoutPosition()\l+ getLayoutPosition()\l}">
<polygon fill="none" stroke="#000000" points="298,-729.5 298,-852.5 426,-852.5 426,-729.5 298,-729.5"/>
<text text-anchor="start" x="306" y="-840.5" font-family="Helvetica,sans-Serif" font-size="10.00" fill="#000000">ene::views::AbstractView</text>
<text text-anchor="middle" x="362" y="-829.5" font-family="Helvetica,sans-Serif" font-size="10.00" fill="#000000">&lt; CoreComponentType &gt;</text>
<polyline fill="none" stroke="#000000" points="298,-822.5 426,-822.5 "/>
<text text-anchor="middle" x="362" y="-810.5" font-family="Helvetica,sans-Serif" font-size="10.00" fill="#000000"> </text>
<polyline fill="none" stroke="#000000" points="298,-803.5 426,-803.5 "/>
<text text-anchor="start" x="306" y="-791.5" font-family="Helvetica,sans-Serif" font-size="10.00" fill="#000000">+ setTitle()</text>
<text text-anchor="start" x="306" y="-780.5" font-family="Helvetica,sans-Serif" font-size="10.00" fill="#000000">+ getTitle()</text>
<text text-anchor="start" x="306" y="-769.5" font-family="Helvetica,sans-Serif" font-size="10.00" fill="#000000">+ setCoreComponent()</text>
<text text-anchor="start" x="306" y="-758.5" font-family="Helvetica,sans-Serif" font-size="10.00" fill="#000000">+ getCoreComponent()</text>
<text text-anchor="start" x="306" y="-747.5" font-family="Helvetica,sans-Serif" font-size="10.00" fill="#000000">+ setLayoutPosition()</text>
<text text-anchor="start" x="306" y="-736.5" font-family="Helvetica,sans-Serif" font-size="10.00" fill="#000000">+ getLayoutPosition()</text>
</a>
</g>
</g>
<!-- Node12&#45;&gt;Node11 -->
<g id="edge3" class="edge">
<title>Node12&#45;&gt;Node11</title>
<path fill="none" stroke="#191970" d="M362,-718.8718C362,-702.2439 362,-685.158 362,-670.5249"/>
<polygon fill="none" stroke="#191970" points="358.5001,-719.1398 362,-729.1398 365.5001,-719.1399 358.5001,-719.1398"/>
</g>
<!-- Node13 -->
<g id="node5" class="node">
<title>Node13</title>
<g id="a_node5"><a xlink:href="classene_1_1AbstractObject.html" target="_top" xlink:title="{ene.AbstractObject\n||+ enableDebugMode()\l+ disableDebugMode()\l+ isDebugModeEnabled()\l+ debugInfoAbout()\l+ consoleOutput()\l# delay()\l}">
<polygon fill="none" stroke="#000000" points="435.5,-922.5 435.5,-1034.5 562.5,-1034.5 562.5,-922.5 435.5,-922.5"/>
<text text-anchor="middle" x="499" y="-1022.5" font-family="Helvetica,sans-Serif" font-size="10.00" fill="#000000">ene.AbstractObject</text>
<polyline fill="none" stroke="#000000" points="435.5,-1015.5 562.5,-1015.5 "/>
<text text-anchor="middle" x="499" y="-1003.5" font-family="Helvetica,sans-Serif" font-size="10.00" fill="#000000"> </text>
<polyline fill="none" stroke="#000000" points="435.5,-996.5 562.5,-996.5 "/>
<text text-anchor="start" x="443.5" y="-984.5" font-family="Helvetica,sans-Serif" font-size="10.00" fill="#000000">+ enableDebugMode()</text>
<text text-anchor="start" x="443.5" y="-973.5" font-family="Helvetica,sans-Serif" font-size="10.00" fill="#000000">+ disableDebugMode()</text>
<text text-anchor="start" x="443.5" y="-962.5" font-family="Helvetica,sans-Serif" font-size="10.00" fill="#000000">+ isDebugModeEnabled()</text>
<text text-anchor="start" x="443.5" y="-951.5" font-family="Helvetica,sans-Serif" font-size="10.00" fill="#000000">+ debugInfoAbout()</text>
<text text-anchor="start" x="443.5" y="-940.5" font-family="Helvetica,sans-Serif" font-size="10.00" fill="#000000">+ consoleOutput()</text>
<text text-anchor="start" x="443.5" y="-929.5" font-family="Helvetica,sans-Serif" font-size="10.00" fill="#000000"># delay()</text>
</a>
</g>
</g>
<!-- Node13&#45;&gt;Node12 -->
<g id="edge4" class="edge">
<title>Node13&#45;&gt;Node12</title>
<path fill="none" stroke="#191970" d="M469.9892,-913.3912C462.3757,-898.9008 453.5814,-883.9952 444,-871 438.5707,-863.6363 432.445,-856.3358 426.0484,-849.3138"/>
<polygon fill="none" stroke="#191970" points="466.8988,-915.0352 474.5736,-922.3391 473.1287,-911.8433 466.8988,-915.0352"/>
</g>
<!-- Node25 -->
<g id="node17" class="node">
<title>Node25</title>
<g id="a_node17"><a xlink:href="classene_1_1controllers_1_1AbstractController.html" target="_top" xlink:title="{ene.controllers.Abstract\lController\&lt; ModelType \&gt;\n||+ setModel()\l+ getModel()\l}">
<polygon fill="none" stroke="#000000" points="577.5,-751.5 577.5,-830.5 702.5,-830.5 702.5,-751.5 577.5,-751.5"/>
<text text-anchor="start" x="585.5" y="-818.5" font-family="Helvetica,sans-Serif" font-size="10.00" fill="#000000">ene.controllers.Abstract</text>
<text text-anchor="middle" x="640" y="-807.5" font-family="Helvetica,sans-Serif" font-size="10.00" fill="#000000">Controller&lt; ModelType &gt;</text>
<polyline fill="none" stroke="#000000" points="577.5,-800.5 702.5,-800.5 "/>
<text text-anchor="middle" x="640" y="-788.5" font-family="Helvetica,sans-Serif" font-size="10.00" fill="#000000"> </text>
<polyline fill="none" stroke="#000000" points="577.5,-781.5 702.5,-781.5 "/>
<text text-anchor="start" x="585.5" y="-769.5" font-family="Helvetica,sans-Serif" font-size="10.00" fill="#000000">+ setModel()</text>
<text text-anchor="start" x="585.5" y="-758.5" font-family="Helvetica,sans-Serif" font-size="10.00" fill="#000000">+ getModel()</text>
</a>
</g>
</g>
<!-- Node13&#45;&gt;Node25 -->
<g id="edge18" class="edge">
<title>Node13&#45;&gt;Node25</title>
<path fill="none" stroke="#191970" d="M547.208,-914.3937C568.1022,-886.6088 591.9085,-854.9515 610.1763,-830.6592"/>
<polygon fill="none" stroke="#191970" points="544.3266,-912.4019 541.1137,-922.4978 549.9212,-916.609 544.3266,-912.4019"/>
</g>
<!-- Node14 -->
<g id="node6" class="node">
<title>Node14</title>
<polygon fill="none" stroke="#bfbfbf" points="460.5,-1093.5 460.5,-1150.5 537.5,-1150.5 537.5,-1093.5 460.5,-1093.5"/>
<text text-anchor="middle" x="499" y="-1138.5" font-family="Helvetica,sans-Serif" font-size="10.00" fill="#000000">static boolean</text>
<polyline fill="none" stroke="#bfbfbf" points="460.5,-1131.5 537.5,-1131.5 "/>
<text text-anchor="middle" x="499" y="-1119.5" font-family="Helvetica,sans-Serif" font-size="10.00" fill="#000000"> </text>
<polyline fill="none" stroke="#bfbfbf" points="460.5,-1112.5 537.5,-1112.5 "/>
<text text-anchor="middle" x="499" y="-1100.5" font-family="Helvetica,sans-Serif" font-size="10.00" fill="#000000"> </text>
</g>
<!-- Node14&#45;&gt;Node13 -->
<g id="edge5" class="edge">
<title>Node14&#45;&gt;Node13</title>
<path fill="none" stroke="#404040" d="M499,-1093.3055C499,-1079.9442 499,-1063.4218 499,-1047.1157"/>
<polygon fill="none" stroke="#404040" points="499.0001,-1046.7445 495,-1040.7445 499,-1034.7445 503,-1040.7444 499.0001,-1046.7445"/>
<text text-anchor="middle" x="546" y="-1067" font-family="Helvetica,sans-Serif" font-size="10.00" fill="#000000"> #debugModeEnabled</text>
</g>
<!-- Node15 -->
<g id="node7" class="node">
<title>Node15</title>
<g id="a_node7"><a xlink:href="interfaceene_1_1interfaces_1_1View.html" target="_top" xlink:title="{ene::interfaces::View\l\&lt; CoreComponentType \&gt;\n||+ setTitle()\l+ getTitle()\l+ setCoreComponent()\l+ getCoreComponent()\l+ setLayoutPosition()\l+ getLayoutPosition()\l+ render()\l}">
<polygon fill="none" stroke="#000000" points="9,-911.5 9,-1045.5 137,-1045.5 137,-911.5 9,-911.5"/>
<text text-anchor="start" x="17" y="-1033.5" font-family="Helvetica,sans-Serif" font-size="10.00" fill="#000000">ene::interfaces::View</text>
<text text-anchor="middle" x="73" y="-1022.5" font-family="Helvetica,sans-Serif" font-size="10.00" fill="#000000">&lt; CoreComponentType &gt;</text>
<polyline fill="none" stroke="#000000" points="9,-1015.5 137,-1015.5 "/>
<text text-anchor="middle" x="73" y="-1003.5" font-family="Helvetica,sans-Serif" font-size="10.00" fill="#000000"> </text>
<polyline fill="none" stroke="#000000" points="9,-996.5 137,-996.5 "/>
<text text-anchor="start" x="17" y="-984.5" font-family="Helvetica,sans-Serif" font-size="10.00" fill="#000000">+ setTitle()</text>
<text text-anchor="start" x="17" y="-973.5" font-family="Helvetica,sans-Serif" font-size="10.00" fill="#000000">+ getTitle()</text>
<text text-anchor="start" x="17" y="-962.5" font-family="Helvetica,sans-Serif" font-size="10.00" fill="#000000">+ setCoreComponent()</text>
<text text-anchor="start" x="17" y="-951.5" font-family="Helvetica,sans-Serif" font-size="10.00" fill="#000000">+ getCoreComponent()</text>
<text text-anchor="start" x="17" y="-940.5" font-family="Helvetica,sans-Serif" font-size="10.00" fill="#000000">+ setLayoutPosition()</text>
<text text-anchor="start" x="17" y="-929.5" font-family="Helvetica,sans-Serif" font-size="10.00" fill="#000000">+ getLayoutPosition()</text>
<text text-anchor="start" x="17" y="-918.5" font-family="Helvetica,sans-Serif" font-size="10.00" fill="#000000">+ render()</text>
</a>
</g>
</g>
<!-- Node15&#45;&gt;Node12 -->
<g id="edge6" class="edge">
<title>Node15&#45;&gt;Node12</title>
<path fill="none" stroke="#191970" d="M145.1687,-911.5933C145.4459,-911.3946 145.723,-911.1968 146,-911 190.7374,-879.2208 207.0295,-879.6494 255,-853 268.9821,-845.2324 283.8881,-836.735 297.996,-828.5904"/>
<polygon fill="none" stroke="#191970" points="143.0522,-908.8055 137.1363,-917.5949 147.2421,-914.4132 143.0522,-908.8055"/>
</g>
<!-- Node20 -->
<g id="node12" class="node">
<title>Node20</title>
<g id="a_node12"><a xlink:href="interfaceene_1_1interfaces_1_1PartialView.html" target="_top" xlink:title="{ene::interfaces::Partial\lView\&lt; CoreComponentType,\l ModelType \&gt;\n||+ setModel()\l+ getModel()\l+ update()\l}">
<polygon fill="none" stroke="#000000" points="102.5,-740.5 102.5,-841.5 245.5,-841.5 245.5,-740.5 102.5,-740.5"/>
<text text-anchor="start" x="110.5" y="-829.5" font-family="Helvetica,sans-Serif" font-size="10.00" fill="#000000">ene::interfaces::Partial</text>
<text text-anchor="start" x="110.5" y="-818.5" font-family="Helvetica,sans-Serif" font-size="10.00" fill="#000000">View&lt; CoreComponentType,</text>
<text text-anchor="middle" x="174" y="-807.5" font-family="Helvetica,sans-Serif" font-size="10.00" fill="#000000"> ModelType &gt;</text>
<polyline fill="none" stroke="#000000" points="102.5,-800.5 245.5,-800.5 "/>
<text text-anchor="middle" x="174" y="-788.5" font-family="Helvetica,sans-Serif" font-size="10.00" fill="#000000"> </text>
<polyline fill="none" stroke="#000000" points="102.5,-781.5 245.5,-781.5 "/>
<text text-anchor="start" x="110.5" y="-769.5" font-family="Helvetica,sans-Serif" font-size="10.00" fill="#000000">+ setModel()</text>
<text text-anchor="start" x="110.5" y="-758.5" font-family="Helvetica,sans-Serif" font-size="10.00" fill="#000000">+ getModel()</text>
<text text-anchor="start" x="110.5" y="-747.5" font-family="Helvetica,sans-Serif" font-size="10.00" fill="#000000">+ update()</text>
</a>
</g>
</g>
<!-- Node15&#45;&gt;Node20 -->
<g id="edge12" class="edge">
<title>Node15&#45;&gt;Node20</title>
<path fill="none" stroke="#191970" d="M114.0273,-902.3355C125.0589,-881.8559 136.7162,-860.2151 146.7901,-841.5135"/>
<polygon fill="none" stroke="#191970" points="110.8391,-900.874 109.178,-911.3378 117.0019,-904.1937 110.8391,-900.874"/>
</g>
<!-- Node16 -->
<g id="node8" class="node">
<title>Node16</title>
<g id="a_node8"><a xlink:href="interfaceene_1_1interfaces_1_1Localization.html" target="_top" xlink:title="{ene.interfaces.Localization\n||+ getString()\l}">
<polygon fill="none" stroke="#000000" points="155.5,-950 155.5,-1007 288.5,-1007 288.5,-950 155.5,-950"/>
<text text-anchor="middle" x="222" y="-995" font-family="Helvetica,sans-Serif" font-size="10.00" fill="#000000">ene.interfaces.Localization</text>
<polyline fill="none" stroke="#000000" points="155.5,-988 288.5,-988 "/>
<text text-anchor="middle" x="222" y="-976" font-family="Helvetica,sans-Serif" font-size="10.00" fill="#000000"> </text>
<polyline fill="none" stroke="#000000" points="155.5,-969 288.5,-969 "/>
<text text-anchor="start" x="163.5" y="-957" font-family="Helvetica,sans-Serif" font-size="10.00" fill="#000000">+ getString()</text>
</a>
</g>
</g>
<!-- Node16&#45;&gt;Node12 -->
<g id="edge7" class="edge">
<title>Node16&#45;&gt;Node12</title>
<path fill="none" stroke="#191970" d="M249.716,-941.3803C268.6323,-916.046 294.137,-881.888 316.058,-852.5294"/>
<polygon fill="none" stroke="#191970" points="246.7466,-939.5072 243.5682,-949.614 252.3556,-943.6952 246.7466,-939.5072"/>
</g>
<!-- Node17 -->
<g id="node9" class="node">
<title>Node17</title>
<polygon fill="none" stroke="#bfbfbf" points="177,-1093.5 177,-1150.5 267,-1150.5 267,-1093.5 177,-1093.5"/>
<text text-anchor="middle" x="222" y="-1138.5" font-family="Helvetica,sans-Serif" font-size="10.00" fill="#000000">static final String</text>
<polyline fill="none" stroke="#bfbfbf" points="177,-1131.5 267,-1131.5 "/>
<text text-anchor="middle" x="222" y="-1119.5" font-family="Helvetica,sans-Serif" font-size="10.00" fill="#000000"> </text>
<polyline fill="none" stroke="#bfbfbf" points="177,-1112.5 267,-1112.5 "/>
<text text-anchor="middle" x="222" y="-1100.5" font-family="Helvetica,sans-Serif" font-size="10.00" fill="#000000"> </text>
</g>
<!-- Node17&#45;&gt;Node16 -->
<g id="edge8" class="edge">
<title>Node17&#45;&gt;Node16</title>
<path fill="none" stroke="#404040" d="M222,-1093.3055C222,-1072.0904 222,-1042.9058 222,-1019.2714"/>
<polygon fill="none" stroke="#404040" points="222.0001,-1019.1447 218,-1013.1448 222,-1007.1447 226,-1013.1447 222.0001,-1019.1447"/>
<text text-anchor="middle" x="272" y="-1067" font-family="Helvetica,sans-Serif" font-size="10.00" fill="#000000"> +DEFAULT_LOCALE</text>
</g>
<!-- Node18 -->
<g id="node10" class="node">
<title>Node18</title>
<polygon fill="none" stroke="#bfbfbf" points="664,-950 664,-1007 706,-1007 706,-950 664,-950"/>
<text text-anchor="middle" x="685" y="-995" font-family="Helvetica,sans-Serif" font-size="10.00" fill="#000000">String</text>
<polyline fill="none" stroke="#bfbfbf" points="664,-988 706,-988 "/>
<text text-anchor="middle" x="685" y="-976" font-family="Helvetica,sans-Serif" font-size="10.00" fill="#000000"> </text>
<polyline fill="none" stroke="#bfbfbf" points="664,-969 706,-969 "/>
<text text-anchor="middle" x="685" y="-957" font-family="Helvetica,sans-Serif" font-size="10.00" fill="#000000"> </text>
</g>
<!-- Node18&#45;&gt;Node12 -->
<g id="edge9" class="edge">
<title>Node18&#45;&gt;Node12</title>
<path fill="none" stroke="#404040" d="M685.8624,-949.7005C684.918,-924.9798 679.2653,-890.3634 657,-871 630.8347,-848.2449 535.4541,-862.1239 502,-853 480.3615,-847.0985 457.7785,-838.3522 437.2242,-829.2773"/>
<polygon fill="none" stroke="#404040" points="436.9673,-829.1612 429.8522,-830.3343 426.0328,-824.2178 433.1478,-823.0447 436.9673,-829.1612"/>
<text text-anchor="middle" x="707" y="-885" font-family="Helvetica,sans-Serif" font-size="10.00" fill="#000000"> #layoutPosition</text>
<text text-anchor="middle" x="707" y="-874" font-family="Helvetica,sans-Serif" font-size="10.00" fill="#000000">#title</text>
</g>
<!-- Node31 -->
<g id="node23" class="node">
<title>Node31</title>
<g id="a_node23"><a xlink:href="classene_1_1controllers_1_1LibraryController.html" target="_top" xlink:title="{ene.controllers.LibraryController\n||+ LibraryController()\l+ LibraryController()\l+ loadFromFile()\l+ saveToFile()\l+ add()\l+ remove()\l# setDatabaseFilename()\l# getDatabaseFilename()\l# addFile()\l# addDirectoryContent()\l# scan()\l}">
<polygon fill="none" stroke="#000000" points="688.5,-376.5 688.5,-543.5 843.5,-543.5 843.5,-376.5 688.5,-376.5"/>
<text text-anchor="middle" x="766" y="-531.5" font-family="Helvetica,sans-Serif" font-size="10.00" fill="#000000">ene.controllers.LibraryController</text>
<polyline fill="none" stroke="#000000" points="688.5,-524.5 843.5,-524.5 "/>
<text text-anchor="middle" x="766" y="-512.5" font-family="Helvetica,sans-Serif" font-size="10.00" fill="#000000"> </text>
<polyline fill="none" stroke="#000000" points="688.5,-505.5 843.5,-505.5 "/>
<text text-anchor="start" x="696.5" y="-493.5" font-family="Helvetica,sans-Serif" font-size="10.00" fill="#000000">+ LibraryController()</text>
<text text-anchor="start" x="696.5" y="-482.5" font-family="Helvetica,sans-Serif" font-size="10.00" fill="#000000">+ LibraryController()</text>
<text text-anchor="start" x="696.5" y="-471.5" font-family="Helvetica,sans-Serif" font-size="10.00" fill="#000000">+ loadFromFile()</text>
<text text-anchor="start" x="696.5" y="-460.5" font-family="Helvetica,sans-Serif" font-size="10.00" fill="#000000">+ saveToFile()</text>
<text text-anchor="start" x="696.5" y="-449.5" font-family="Helvetica,sans-Serif" font-size="10.00" fill="#000000">+ add()</text>
<text text-anchor="start" x="696.5" y="-438.5" font-family="Helvetica,sans-Serif" font-size="10.00" fill="#000000">+ remove()</text>
<text text-anchor="start" x="696.5" y="-427.5" font-family="Helvetica,sans-Serif" font-size="10.00" fill="#000000"># setDatabaseFilename()</text>
<text text-anchor="start" x="696.5" y="-416.5" font-family="Helvetica,sans-Serif" font-size="10.00" fill="#000000"># getDatabaseFilename()</text>
<text text-anchor="start" x="696.5" y="-405.5" font-family="Helvetica,sans-Serif" font-size="10.00" fill="#000000"># addFile()</text>
<text text-anchor="start" x="696.5" y="-394.5" font-family="Helvetica,sans-Serif" font-size="10.00" fill="#000000"># addDirectoryContent()</text>
<text text-anchor="start" x="696.5" y="-383.5" font-family="Helvetica,sans-Serif" font-size="10.00" fill="#000000"># scan()</text>
</a>
</g>
</g>
<!-- Node18&#45;&gt;Node31 -->
<g id="edge28" class="edge">
<title>Node18&#45;&gt;Node31</title>
<path fill="none" stroke="#404040" d="M693.8484,-949.6791C698.8448,-936.7896 706.1054,-922.0464 716,-911 726.3745,-899.4178 737.4481,-905.9863 746,-893 811.9192,-792.8997 803.5572,-649.7548 787.8263,-555.8702"/>
<polygon fill="none" stroke="#404040" points="787.7857,-555.6372 782.813,-550.415 785.7209,-543.8162 790.6936,-549.0384 787.7857,-555.6372"/>
<text text-anchor="middle" x="848" y="-703" font-family="Helvetica,sans-Serif" font-size="10.00" fill="#000000"> #DATABASE_TABLE</text>
<text text-anchor="middle" x="848" y="-692" font-family="Helvetica,sans-Serif" font-size="10.00" fill="#000000">#databaseFilename</text>
</g>
<!-- Node19 -->
<g id="node11" class="node">
<title>Node19</title>
<polygon fill="none" stroke="#bfbfbf" points="307,-950 307,-1007 417,-1007 417,-950 307,-950"/>
<text text-anchor="middle" x="362" y="-995" font-family="Helvetica,sans-Serif" font-size="10.00" fill="#000000">CoreComponentType</text>
<polyline fill="none" stroke="#bfbfbf" points="307,-988 417,-988 "/>
<text text-anchor="middle" x="362" y="-976" font-family="Helvetica,sans-Serif" font-size="10.00" fill="#000000"> </text>
<polyline fill="none" stroke="#bfbfbf" points="307,-969 417,-969 "/>
<text text-anchor="middle" x="362" y="-957" font-family="Helvetica,sans-Serif" font-size="10.00" fill="#000000"> </text>
</g>
<!-- Node19&#45;&gt;Node12 -->
<g id="edge10" class="edge">
<title>Node19&#45;&gt;Node12</title>
<path fill="none" stroke="#404040" d="M362,-949.614C362,-926.9523 362,-894.3726 362,-864.6287"/>
<polygon fill="none" stroke="#404040" points="362.0001,-864.5294 358,-858.5294 362,-852.5294 366,-858.5294 362.0001,-864.5294"/>
<text text-anchor="middle" x="401" y="-879.5" font-family="Helvetica,sans-Serif" font-size="10.00" fill="#000000"> #coreComponent</text>
</g>
<!-- Node20&#45;&gt;Node11 -->
<g id="edge11" class="edge">
<title>Node20&#45;&gt;Node11</title>
<path fill="none" stroke="#191970" d="M241.3491,-733.6816C265.8874,-712.7979 293.0671,-689.6663 315.4074,-670.6533"/>
<polygon fill="none" stroke="#191970" points="238.8314,-731.2284 233.4844,-740.375 243.3682,-736.5592 238.8314,-731.2284"/>
</g>
<!-- Node21 -->
<g id="node13" class="node">
<title>Node21</title>
<polygon fill="none" stroke="#bfbfbf" points="580.5,-950 580.5,-1007 645.5,-1007 645.5,-950 580.5,-950"/>
<text text-anchor="middle" x="613" y="-995" font-family="Helvetica,sans-Serif" font-size="10.00" fill="#000000">ModelType</text>
<polyline fill="none" stroke="#bfbfbf" points="580.5,-988 645.5,-988 "/>
<text text-anchor="middle" x="613" y="-976" font-family="Helvetica,sans-Serif" font-size="10.00" fill="#000000"> </text>
<polyline fill="none" stroke="#bfbfbf" points="580.5,-969 645.5,-969 "/>
<text text-anchor="middle" x="613" y="-957" font-family="Helvetica,sans-Serif" font-size="10.00" fill="#000000"> </text>
</g>
<!-- Node21&#45;&gt;Node11 -->
<g id="edge13" class="edge">
<title>Node21&#45;&gt;Node11</title>
<path fill="none" stroke="#404040" d="M596.4492,-949.8682C589.2078,-937.7126 580.4497,-923.4931 572,-911 515.8002,-827.907 444.7528,-735.5414 401.3789,-680.4179"/>
<polygon fill="none" stroke="#404040" points="401.3052,-680.3244 394.449,-678.0899 393.8747,-670.9016 400.7308,-673.1362 401.3052,-680.3244"/>
<text text-anchor="middle" x="546.5" y="-788.5" font-family="Helvetica,sans-Serif" font-size="10.00" fill="#000000"> #model</text>
</g>
<!-- Node21&#45;&gt;Node25 -->
<g id="edge20" class="edge">
<title>Node21&#45;&gt;Node25</title>
<path fill="none" stroke="#404040" d="M614.3358,-949.6279C615.602,-927.912 617.9337,-897.4712 622,-871 623.4286,-861.6999 625.3193,-851.8695 627.3384,-842.4025"/>
<polygon fill="none" stroke="#404040" points="627.3415,-842.388 624.7353,-835.6644 629.9393,-830.6726 632.5456,-837.3962 627.3415,-842.388"/>
<text text-anchor="middle" x="639.5" y="-879.5" font-family="Helvetica,sans-Serif" font-size="10.00" fill="#000000"> #model</text>
</g>
<!-- Node22 -->
<g id="node14" class="node">
<title>Node22</title>
<polygon fill="none" stroke="#bfbfbf" points="388.5,-431.5 388.5,-488.5 495.5,-488.5 495.5,-431.5 388.5,-431.5"/>
<text text-anchor="middle" x="442" y="-476.5" font-family="Helvetica,sans-Serif" font-size="10.00" fill="#000000">ListSelectionListener</text>
<polyline fill="none" stroke="#bfbfbf" points="388.5,-469.5 495.5,-469.5 "/>
<text text-anchor="middle" x="442" y="-457.5" font-family="Helvetica,sans-Serif" font-size="10.00" fill="#000000"> </text>
<polyline fill="none" stroke="#bfbfbf" points="388.5,-450.5 495.5,-450.5 "/>
<text text-anchor="middle" x="442" y="-438.5" font-family="Helvetica,sans-Serif" font-size="10.00" fill="#000000"> </text>
</g>
<!-- Node22&#45;&gt;Node10 -->
<g id="edge14" class="edge">
<title>Node22&#45;&gt;Node10</title>
<path fill="none" stroke="#191970" d="M427.6769,-421.4849C418.1535,-395.8763 405.2367,-361.1426 393.2399,-328.8828"/>
<polygon fill="none" stroke="#191970" points="424.5138,-423.0206 431.2799,-431.1735 431.0748,-420.5806 424.5138,-423.0206"/>
</g>
<!-- Node23 -->
<g id="node15" class="node">
<title>Node23</title>
<g id="a_node15"><a xlink:href="classene_1_1controllers_1_1PlayerController.html" target="_top" xlink:title="{ene.controllers.PlayerController\n||+ PlayerController()\l+ changeTrackPosition()\l+ load()\l+ togglePlayback()\l}">
<polygon fill="none" stroke="#000000" points="513.5,-415 513.5,-505 666.5,-505 666.5,-415 513.5,-415"/>
<text text-anchor="middle" x="590" y="-493" font-family="Helvetica,sans-Serif" font-size="10.00" fill="#000000">ene.controllers.PlayerController</text>
<polyline fill="none" stroke="#000000" points="513.5,-486 666.5,-486 "/>
<text text-anchor="middle" x="590" y="-474" font-family="Helvetica,sans-Serif" font-size="10.00" fill="#000000"> </text>
<polyline fill="none" stroke="#000000" points="513.5,-467 666.5,-467 "/>
<text text-anchor="start" x="521.5" y="-455" font-family="Helvetica,sans-Serif" font-size="10.00" fill="#000000">+ PlayerController()</text>
<text text-anchor="start" x="521.5" y="-444" font-family="Helvetica,sans-Serif" font-size="10.00" fill="#000000">+ changeTrackPosition()</text>
<text text-anchor="start" x="521.5" y="-433" font-family="Helvetica,sans-Serif" font-size="10.00" fill="#000000">+ load()</text>
<text text-anchor="start" x="521.5" y="-422" font-family="Helvetica,sans-Serif" font-size="10.00" fill="#000000">+ togglePlayback()</text>
</a>
</g>
</g>
<!-- Node23&#45;&gt;Node10 -->
<g id="edge15" class="edge">
<title>Node23&#45;&gt;Node10</title>
<path fill="none" stroke="#404040" d="M544.7638,-414.8934C531.9699,-402.246 517.9915,-388.5308 505,-376 484.7505,-356.4687 462.7233,-335.562 442.0947,-316.1278"/>
<polygon fill="none" stroke="#404040" points="442.0877,-316.1212 434.977,-314.9223 433.3488,-307.8973 440.4596,-309.0963 442.0877,-316.1212"/>
<text text-anchor="middle" x="523.5" y="-350" font-family="Helvetica,sans-Serif" font-size="10.00" fill="#000000"> #playerController</text>
</g>
<!-- Node24 -->
<g id="node16" class="node">
<title>Node24</title>
<g id="a_node16"><a xlink:href="classene_1_1controllers_1_1AbstractController.html" target="_top" xlink:title="{ene.controllers.Abstract\lController\&lt; PlayerModel \&gt;\n|# model\l|+ setModel()\l+ getModel()\l}">
<polygon fill="none" stroke="#000000" points="485.5,-591.5 485.5,-670.5 616.5,-670.5 616.5,-591.5 485.5,-591.5"/>
<text text-anchor="start" x="493.5" y="-658.5" font-family="Helvetica,sans-Serif" font-size="10.00" fill="#000000">ene.controllers.Abstract</text>
<text text-anchor="middle" x="551" y="-647.5" font-family="Helvetica,sans-Serif" font-size="10.00" fill="#000000">Controller&lt; PlayerModel &gt;</text>
<polyline fill="none" stroke="#000000" points="485.5,-640.5 616.5,-640.5 "/>
<text text-anchor="start" x="493.5" y="-628.5" font-family="Helvetica,sans-Serif" font-size="10.00" fill="#000000"># model</text>
<polyline fill="none" stroke="#000000" points="485.5,-621.5 616.5,-621.5 "/>
<text text-anchor="start" x="493.5" y="-609.5" font-family="Helvetica,sans-Serif" font-size="10.00" fill="#000000">+ setModel()</text>
<text text-anchor="start" x="493.5" y="-598.5" font-family="Helvetica,sans-Serif" font-size="10.00" fill="#000000">+ getModel()</text>
</a>
</g>
</g>
<!-- Node24&#45;&gt;Node23 -->
<g id="edge16" class="edge">
<title>Node24&#45;&gt;Node23</title>
<path fill="none" stroke="#191970" d="M562.3254,-581.3423C567.8114,-557.2887 574.3512,-528.6138 579.6958,-505.1799"/>
<polygon fill="none" stroke="#191970" points="558.8567,-580.8114 560.0454,-591.3394 565.6815,-582.368 558.8567,-580.8114"/>
</g>
<!-- Node25&#45;&gt;Node24 -->
<g id="edge17" class="edge">
<title>Node25&#45;&gt;Node24</title>
<path fill="none" stroke="#ffa500" d="M608.6731,-742.6901C602.2905,-732.3524 595.7687,-721.4082 590,-711 582.8842,-698.1613 575.6789,-683.8345 569.4305,-670.892"/>
<polygon fill="#ffa500" stroke="#ffa500" points="605.7217,-744.5717 613.9823,-751.2059 611.6618,-740.8683 605.7217,-744.5717"/>
<text text-anchor="middle" x="628" y="-697.5" font-family="Helvetica,sans-Serif" font-size="10.00" fill="#000000"> &lt; PlayerModel &gt;</text>
</g>
<!-- Node32 -->
<g id="node24" class="node">
<title>Node32</title>
<g id="a_node24"><a xlink:href="classene_1_1controllers_1_1AbstractController.html" target="_top" xlink:title="{ene.controllers.Abstract\lController\&lt; LibraryModel \&gt;\n|# model\l|+ setModel()\l+ getModel()\l}">
<polygon fill="none" stroke="#000000" points="635,-591.5 635,-670.5 767,-670.5 767,-591.5 635,-591.5"/>
<text text-anchor="start" x="643" y="-658.5" font-family="Helvetica,sans-Serif" font-size="10.00" fill="#000000">ene.controllers.Abstract</text>
<text text-anchor="middle" x="701" y="-647.5" font-family="Helvetica,sans-Serif" font-size="10.00" fill="#000000">Controller&lt; LibraryModel &gt;</text>
<polyline fill="none" stroke="#000000" points="635,-640.5 767,-640.5 "/>
<text text-anchor="start" x="643" y="-628.5" font-family="Helvetica,sans-Serif" font-size="10.00" fill="#000000"># model</text>
<polyline fill="none" stroke="#000000" points="635,-621.5 767,-621.5 "/>
<text text-anchor="start" x="643" y="-609.5" font-family="Helvetica,sans-Serif" font-size="10.00" fill="#000000">+ setModel()</text>
<text text-anchor="start" x="643" y="-598.5" font-family="Helvetica,sans-Serif" font-size="10.00" fill="#000000">+ getModel()</text>
</a>
</g>
</g>
<!-- Node25&#45;&gt;Node32 -->
<g id="edge27" class="edge">
<title>Node25&#45;&gt;Node32</title>
<path fill="none" stroke="#ffa500" d="M658.7115,-741.9206C667.4292,-719.0545 677.6655,-692.2052 685.8834,-670.6501"/>
<polygon fill="#ffa500" stroke="#ffa500" points="655.3707,-740.8586 655.0787,-751.4494 661.9115,-743.3523 655.3707,-740.8586"/>
<text text-anchor="middle" x="715.5" y="-697.5" font-family="Helvetica,sans-Serif" font-size="10.00" fill="#000000"> &lt; LibraryModel &gt;</text>
</g>
<!-- Node26 -->
<g id="node18" class="node">
<title>Node26</title>
<g id="a_node18"><a xlink:href="interfaceene_1_1interfaces_1_1Controller.html" target="_top" xlink:title="{ene::interfaces::Controller\l\&lt; ModelType \&gt;\n||+ setModel()\l+ getModel()\l}">
<polygon fill="none" stroke="#000000" points="724.5,-939 724.5,-1018 853.5,-1018 853.5,-939 724.5,-939"/>
<text text-anchor="start" x="732.5" y="-1006" font-family="Helvetica,sans-Serif" font-size="10.00" fill="#000000">ene::interfaces::Controller</text>
<text text-anchor="middle" x="789" y="-995" font-family="Helvetica,sans-Serif" font-size="10.00" fill="#000000">&lt; ModelType &gt;</text>
<polyline fill="none" stroke="#000000" points="724.5,-988 853.5,-988 "/>
<text text-anchor="middle" x="789" y="-976" font-family="Helvetica,sans-Serif" font-size="10.00" fill="#000000"> </text>
<polyline fill="none" stroke="#000000" points="724.5,-969 853.5,-969 "/>
<text text-anchor="start" x="732.5" y="-957" font-family="Helvetica,sans-Serif" font-size="10.00" fill="#000000">+ setModel()</text>
<text text-anchor="start" x="732.5" y="-946" font-family="Helvetica,sans-Serif" font-size="10.00" fill="#000000">+ getModel()</text>
</a>
</g>
</g>
<!-- Node26&#45;&gt;Node25 -->
<g id="edge19" class="edge">
<title>Node26&#45;&gt;Node25</title>
<path fill="none" stroke="#191970" d="M779.4188,-928.9826C773.9548,-909.5783 765.5937,-887.952 753,-871 739.5974,-852.9592 720.9112,-837.4249 702.5888,-824.9729"/>
<polygon fill="none" stroke="#191970" points="776.0953,-930.1068 782.0192,-938.8908 782.866,-928.3298 776.0953,-930.1068"/>
</g>
<!-- Node27 -->
<g id="node19" class="node">
<title>Node27</title>
<polygon fill="none" stroke="#bfbfbf" points="0,-431.5 0,-488.5 98,-488.5 98,-431.5 0,-431.5"/>
<text text-anchor="middle" x="49" y="-476.5" font-family="Helvetica,sans-Serif" font-size="10.00" fill="#000000">DefaultTableModel</text>
<polyline fill="none" stroke="#bfbfbf" points="0,-469.5 98,-469.5 "/>
<text text-anchor="middle" x="49" y="-457.5" font-family="Helvetica,sans-Serif" font-size="10.00" fill="#000000"> </text>
<polyline fill="none" stroke="#bfbfbf" points="0,-450.5 98,-450.5 "/>
<text text-anchor="middle" x="49" y="-438.5" font-family="Helvetica,sans-Serif" font-size="10.00" fill="#000000"> </text>
</g>
<!-- Node27&#45;&gt;Node10 -->
<g id="edge21" class="edge">
<title>Node27&#45;&gt;Node10</title>
<path fill="none" stroke="#404040" d="M60.9612,-431.1214C72.5965,-406.0519 92.4058,-370.2253 119,-347 164.0591,-307.649 225.8534,-280.473 275.5872,-263.2899"/>
<polygon fill="none" stroke="#404040" points="275.6034,-263.2845 280.0134,-257.579 286.9761,-259.4553 282.5662,-265.1608 275.6034,-263.2845"/>
<text text-anchor="middle" x="151" y="-350" font-family="Helvetica,sans-Serif" font-size="10.00" fill="#000000"> #tableContent</text>
</g>
<!-- Node28 -->
<g id="node20" class="node">
<title>Node28</title>
<polygon fill="none" stroke="#bfbfbf" points="116,-431.5 116,-488.5 162,-488.5 162,-431.5 116,-431.5"/>
<text text-anchor="middle" x="139" y="-476.5" font-family="Helvetica,sans-Serif" font-size="10.00" fill="#000000">JTable</text>
<polyline fill="none" stroke="#bfbfbf" points="116,-469.5 162,-469.5 "/>
<text text-anchor="middle" x="139" y="-457.5" font-family="Helvetica,sans-Serif" font-size="10.00" fill="#000000"> </text>
<polyline fill="none" stroke="#bfbfbf" points="116,-450.5 162,-450.5 "/>
<text text-anchor="middle" x="139" y="-438.5" font-family="Helvetica,sans-Serif" font-size="10.00" fill="#000000"> </text>
</g>
<!-- Node28&#45;&gt;Node10 -->
<g id="edge22" class="edge">
<title>Node28&#45;&gt;Node10</title>
<path fill="none" stroke="#404040" d="M145.422,-431.4697C150.3416,-414.1632 158.4574,-392.3409 171,-376 199.1501,-339.3252 239.8068,-308.2031 276.2051,-284.98"/>
<polygon fill="none" stroke="#404040" points="276.6653,-284.6926 279.6355,-278.1216 286.8434,-278.3359 283.8733,-284.907 276.6653,-284.6926"/>
<text text-anchor="middle" x="211" y="-350" font-family="Helvetica,sans-Serif" font-size="10.00" fill="#000000"> #table</text>
</g>
<!-- Node29 -->
<g id="node21" class="node">
<title>Node29</title>
<polygon fill="none" stroke="#bfbfbf" points="180,-426 180,-494 332,-494 332,-426 180,-426"/>
<text text-anchor="start" x="188" y="-482" font-family="Helvetica,sans-Serif" font-size="10.00" fill="#000000">TableRowSorter&lt; DefaultTable</text>
<text text-anchor="middle" x="256" y="-471" font-family="Helvetica,sans-Serif" font-size="10.00" fill="#000000">Model &gt;</text>
<polyline fill="none" stroke="#bfbfbf" points="180,-464 332,-464 "/>
<text text-anchor="middle" x="256" y="-452" font-family="Helvetica,sans-Serif" font-size="10.00" fill="#000000"> </text>
<polyline fill="none" stroke="#bfbfbf" points="180,-445 332,-445 "/>
<text text-anchor="middle" x="256" y="-433" font-family="Helvetica,sans-Serif" font-size="10.00" fill="#000000"> </text>
</g>
<!-- Node29&#45;&gt;Node10 -->
<g id="edge23" class="edge">
<title>Node29&#45;&gt;Node10</title>
<path fill="none" stroke="#404040" d="M255.2553,-425.8015C255.9274,-402.6757 259.1618,-371.9268 270,-347 272.9617,-340.1884 276.4961,-333.4732 280.4247,-326.9283"/>
<polygon fill="none" stroke="#404040" points="280.4379,-326.9076 280.2962,-319.6979 286.8968,-316.7941 287.0385,-324.0039 280.4379,-326.9076"/>
<text text-anchor="middle" x="308" y="-350" font-family="Helvetica,sans-Serif" font-size="10.00" fill="#000000"> #tableRowSorter</text>
</g>
<!-- Node30 -->
<g id="node22" class="node">
<title>Node30</title>
<polygon fill="none" stroke="#bfbfbf" points="177.5,-602.5 177.5,-659.5 264.5,-659.5 264.5,-602.5 177.5,-602.5"/>
<text text-anchor="middle" x="221" y="-647.5" font-family="Helvetica,sans-Serif" font-size="10.00" fill="#000000">TableRowSorter</text>
<polyline fill="none" stroke="#bfbfbf" points="177.5,-640.5 264.5,-640.5 "/>
<text text-anchor="middle" x="221" y="-628.5" font-family="Helvetica,sans-Serif" font-size="10.00" fill="#000000"> </text>
<polyline fill="none" stroke="#bfbfbf" points="177.5,-621.5 264.5,-621.5 "/>
<text text-anchor="middle" x="221" y="-609.5" font-family="Helvetica,sans-Serif" font-size="10.00" fill="#000000"> </text>
</g>
<!-- Node30&#45;&gt;Node29 -->
<g id="edge24" class="edge">
<title>Node30&#45;&gt;Node29</title>
<path fill="none" stroke="#ffa500" d="M228.8996,-592.4049C234.9544,-562.8227 243.2297,-522.3919 249.0377,-494.0157"/>
<polygon fill="#ffa500" stroke="#ffa500" points="225.4346,-591.8797 226.8582,-602.3784 232.2924,-593.2834 225.4346,-591.8797"/>
<text text-anchor="middle" x="285.5" y="-565" font-family="Helvetica,sans-Serif" font-size="10.00" fill="#000000"> &lt; DefaultTableModel &gt;</text>
</g>
<!-- Node31&#45;&gt;Node9 -->
<g id="edge25" class="edge">
<title>Node31&#45;&gt;Node9</title>
<path fill="none" stroke="#404040" d="M729.7399,-376.3945C697.3063,-301.612 650.3705,-193.3914 620.2701,-123.9884"/>
<polygon fill="none" stroke="#404040" points="620.1797,-123.7799 614.1226,-119.867 615.4049,-112.7708 621.462,-116.6838 620.1797,-123.7799"/>
<text text-anchor="middle" x="746.5" y="-237" font-family="Helvetica,sans-Serif" font-size="10.00" fill="#000000"> #libraryController</text>
</g>
<!-- Node32&#45;&gt;Node31 -->
<g id="edge26" class="edge">
<title>Node32&#45;&gt;Node31</title>
<path fill="none" stroke="#191970" d="M719.6312,-581.9855C724.196,-569.9766 729.2102,-556.7856 734.2022,-543.6528"/>
<polygon fill="none" stroke="#191970" points="716.3573,-580.7483 716.0757,-591.3394 722.9005,-583.2355 716.3573,-580.7483"/>
</g>
<!-- Node33 -->
<g id="node25" class="node">
<title>Node33</title>
<polygon fill="none" stroke="#bfbfbf" points="823.5,-602.5 823.5,-659.5 852.5,-659.5 852.5,-602.5 823.5,-602.5"/>
<text text-anchor="middle" x="838" y="-647.5" font-family="Helvetica,sans-Serif" font-size="10.00" fill="#000000">int</text>
<polyline fill="none" stroke="#bfbfbf" points="823.5,-640.5 852.5,-640.5 "/>
<text text-anchor="middle" x="838" y="-628.5" font-family="Helvetica,sans-Serif" font-size="10.00" fill="#000000"> </text>
<polyline fill="none" stroke="#bfbfbf" points="823.5,-621.5 852.5,-621.5 "/>
<text text-anchor="middle" x="838" y="-609.5" font-family="Helvetica,sans-Serif" font-size="10.00" fill="#000000"> </text>
</g>
<!-- Node33&#45;&gt;Node31 -->
<g id="edge29" class="edge">
<title>Node33&#45;&gt;Node31</title>
<path fill="none" stroke="#404040" d="M826.0139,-602.462C820.7911,-590.0317 814.5958,-575.2938 809,-562 808.0244,-559.6822 807.0361,-557.3348 806.0391,-554.9669"/>
<polygon fill="none" stroke="#404040" points="805.9812,-554.8294 799.966,-550.8524 801.3235,-543.7702 807.3388,-547.7472 805.9812,-554.8294"/>
<text text-anchor="middle" x="868.5" y="-565" font-family="Helvetica,sans-Serif" font-size="10.00" fill="#000000"> #DATABASE_TIMEOUT</text>
</g>
</g>
</svg>
