<?xml version="1.0" encoding="UTF-8" standalone="no"?>
<!DOCTYPE svg PUBLIC "-//W3C//DTD SVG 1.1//EN"
 "http://www.w3.org/Graphics/SVG/1.1/DTD/svg11.dtd">
<!-- Generated by graphviz version 2.40.1 (20161225.0304)
 -->
<!-- Title: ene.views.AbstractMasterView&lt; CoreComponentType &gt; Pages: 1 -->
<svg width="743pt" height="568pt"
 viewBox="0.00 0.00 743.00 568.00" xmlns="http://www.w3.org/2000/svg" xmlns:xlink="http://www.w3.org/1999/xlink">
<g id="graph0" class="graph" transform="scale(1 1) rotate(0) translate(4 564)">
<title>ene.views.AbstractMasterView&lt; CoreComponentType &gt;</title>
<!-- Node10 -->
<g id="node1" class="node">
<title>Node10</title>
<polygon fill="#bfbfbf" stroke="#000000" points="269.5,-.5 269.5,-90.5 418.5,-90.5 418.5,-.5 269.5,-.5"/>
<text text-anchor="start" x="277.5" y="-78.5" font-family="Helvetica,sans-Serif" font-size="10.00" fill="#000000">ene.views.AbstractMaster</text>
<text text-anchor="middle" x="344" y="-67.5" font-family="Helvetica,sans-Serif" font-size="10.00" fill="#000000">View&lt; CoreComponentType &gt;</text>
<polyline fill="none" stroke="#000000" points="269.5,-60.5 418.5,-60.5 "/>
<text text-anchor="middle" x="344" y="-48.5" font-family="Helvetica,sans-Serif" font-size="10.00" fill="#000000"> </text>
<polyline fill="none" stroke="#000000" points="269.5,-41.5 418.5,-41.5 "/>
<text text-anchor="start" x="277.5" y="-29.5" font-family="Helvetica,sans-Serif" font-size="10.00" fill="#000000">+ addView()</text>
<text text-anchor="start" x="277.5" y="-18.5" font-family="Helvetica,sans-Serif" font-size="10.00" fill="#000000">+ setAllViews()</text>
<text text-anchor="start" x="277.5" y="-7.5" font-family="Helvetica,sans-Serif" font-size="10.00" fill="#000000">+ getAllViews()</text>
</g>
<!-- Node11 -->
<g id="node2" class="node">
<title>Node11</title>
<g id="a_node2"><a xlink:href="classene_1_1views_1_1AbstractView.html" target="_top" xlink:title="{ene::views::AbstractView\l\&lt; CoreComponentType \&gt;\n||+ setTitle()\l+ getTitle()\l+ setCoreComponent()\l+ getCoreComponent()\l+ setLayoutPosition()\l+ getLayoutPosition()\l}">
<polygon fill="none" stroke="#000000" points="280,-138.5 280,-261.5 408,-261.5 408,-138.5 280,-138.5"/>
<text text-anchor="start" x="288" y="-249.5" font-family="Helvetica,sans-Serif" font-size="10.00" fill="#000000">ene::views::AbstractView</text>
<text text-anchor="middle" x="344" y="-238.5" font-family="Helvetica,sans-Serif" font-size="10.00" fill="#000000">&lt; CoreComponentType &gt;</text>
<polyline fill="none" stroke="#000000" points="280,-231.5 408,-231.5 "/>
<text text-anchor="middle" x="344" y="-219.5" font-family="Helvetica,sans-Serif" font-size="10.00" fill="#000000"> </text>
<polyline fill="none" stroke="#000000" points="280,-212.5 408,-212.5 "/>
<text text-anchor="start" x="288" y="-200.5" font-family="Helvetica,sans-Serif" font-size="10.00" fill="#000000">+ setTitle()</text>
<text text-anchor="start" x="288" y="-189.5" font-family="Helvetica,sans-Serif" font-size="10.00" fill="#000000">+ getTitle()</text>
<text text-anchor="start" x="288" y="-178.5" font-family="Helvetica,sans-Serif" font-size="10.00" fill="#000000">+ setCoreComponent()</text>
<text text-anchor="start" x="288" y="-167.5" font-family="Helvetica,sans-Serif" font-size="10.00" fill="#000000">+ getCoreComponent()</text>
<text text-anchor="start" x="288" y="-156.5" font-family="Helvetica,sans-Serif" font-size="10.00" fill="#000000">+ setLayoutPosition()</text>
<text text-anchor="start" x="288" y="-145.5" font-family="Helvetica,sans-Serif" font-size="10.00" fill="#000000">+ getLayoutPosition()</text>
</a>
</g>
</g>
<!-- Node11&#45;&gt;Node10 -->
<g id="edge1" class="edge">
<title>Node11&#45;&gt;Node10</title>
<path fill="none" stroke="#191970" d="M344,-128.2776C344,-115.4506 344,-102.4193 344,-90.608"/>
<polygon fill="none" stroke="#191970" points="340.5001,-128.4935 344,-138.4936 347.5001,-128.4936 340.5001,-128.4935"/>
</g>
<!-- Node12 -->
<g id="node3" class="node">
<title>Node12</title>
<g id="a_node3"><a xlink:href="classene_1_1AbstractObject.html" target="_top" xlink:title="{ene.AbstractObject\n||+ enableDebugMode()\l+ disableDebugMode()\l+ isDebugModeEnabled()\l+ debugInfoAbout()\l+ consoleOutput()\l# delay()\l}">
<polygon fill="none" stroke="#000000" points="274.5,-331.5 274.5,-443.5 401.5,-443.5 401.5,-331.5 274.5,-331.5"/>
<text text-anchor="middle" x="338" y="-431.5" font-family="Helvetica,sans-Serif" font-size="10.00" fill="#000000">ene.AbstractObject</text>
<polyline fill="none" stroke="#000000" points="274.5,-424.5 401.5,-424.5 "/>
<text text-anchor="middle" x="338" y="-412.5" font-family="Helvetica,sans-Serif" font-size="10.00" fill="#000000"> </text>
<polyline fill="none" stroke="#000000" points="274.5,-405.5 401.5,-405.5 "/>
<text text-anchor="start" x="282.5" y="-393.5" font-family="Helvetica,sans-Serif" font-size="10.00" fill="#000000">+ enableDebugMode()</text>
<text text-anchor="start" x="282.5" y="-382.5" font-family="Helvetica,sans-Serif" font-size="10.00" fill="#000000">+ disableDebugMode()</text>
<text text-anchor="start" x="282.5" y="-371.5" font-family="Helvetica,sans-Serif" font-size="10.00" fill="#000000">+ isDebugModeEnabled()</text>
<text text-anchor="start" x="282.5" y="-360.5" font-family="Helvetica,sans-Serif" font-size="10.00" fill="#000000">+ debugInfoAbout()</text>
<text text-anchor="start" x="282.5" y="-349.5" font-family="Helvetica,sans-Serif" font-size="10.00" fill="#000000">+ consoleOutput()</text>
<text text-anchor="start" x="282.5" y="-338.5" font-family="Helvetica,sans-Serif" font-size="10.00" fill="#000000"># delay()</text>
</a>
</g>
</g>
<!-- Node12&#45;&gt;Node11 -->
<g id="edge2" class="edge">
<title>Node12&#45;&gt;Node11</title>
<path fill="none" stroke="#191970" d="M340.1122,-321.4946C340.7353,-302.0213 341.4146,-280.7928 342.0286,-261.6075"/>
<polygon fill="none" stroke="#191970" points="336.6138,-321.3909 339.7921,-331.4978 343.6102,-321.6149 336.6138,-321.3909"/>
</g>
<!-- Node13 -->
<g id="node4" class="node">
<title>Node13</title>
<polygon fill="none" stroke="#bfbfbf" points="299.5,-502.5 299.5,-559.5 376.5,-559.5 376.5,-502.5 299.5,-502.5"/>
<text text-anchor="middle" x="338" y="-547.5" font-family="Helvetica,sans-Serif" font-size="10.00" fill="#000000">static boolean</text>
<polyline fill="none" stroke="#bfbfbf" points="299.5,-540.5 376.5,-540.5 "/>
<text text-anchor="middle" x="338" y="-528.5" font-family="Helvetica,sans-Serif" font-size="10.00" fill="#000000"> </text>
<polyline fill="none" stroke="#bfbfbf" points="299.5,-521.5 376.5,-521.5 "/>
<text text-anchor="middle" x="338" y="-509.5" font-family="Helvetica,sans-Serif" font-size="10.00" fill="#000000"> </text>
</g>
<!-- Node13&#45;&gt;Node12 -->
<g id="edge3" class="edge">
<title>Node13&#45;&gt;Node12</title>
<path fill="none" stroke="#404040" d="M338,-502.3055C338,-488.9442 338,-472.4218 338,-456.1157"/>
<polygon fill="none" stroke="#404040" points="338.0001,-455.7445 334,-449.7445 338,-443.7445 342,-449.7444 338.0001,-455.7445"/>
<text text-anchor="middle" x="385" y="-476" font-family="Helvetica,sans-Serif" font-size="10.00" fill="#000000"> #debugModeEnabled</text>
</g>
<!-- Node14 -->
<g id="node5" class="node">
<title>Node14</title>
<g id="a_node5"><a xlink:href="interfaceene_1_1interfaces_1_1View.html" target="_top" xlink:title="{ene::interfaces::View\l\&lt; CoreComponentType \&gt;\n||+ setTitle()\l+ getTitle()\l+ setCoreComponent()\l+ getCoreComponent()\l+ setLayoutPosition()\l+ getLayoutPosition()\l+ render()\l}">
<polygon fill="none" stroke="#000000" points="128,-320.5 128,-454.5 256,-454.5 256,-320.5 128,-320.5"/>
<text text-anchor="start" x="136" y="-442.5" font-family="Helvetica,sans-Serif" font-size="10.00" fill="#000000">ene::interfaces::View</text>
<text text-anchor="middle" x="192" y="-431.5" font-family="Helvetica,sans-Serif" font-size="10.00" fill="#000000">&lt; CoreComponentType &gt;</text>
<polyline fill="none" stroke="#000000" points="128,-424.5 256,-424.5 "/>
<text text-anchor="middle" x="192" y="-412.5" font-family="Helvetica,sans-Serif" font-size="10.00" fill="#000000"> </text>
<polyline fill="none" stroke="#000000" points="128,-405.5 256,-405.5 "/>
<text text-anchor="start" x="136" y="-393.5" font-family="Helvetica,sans-Serif" font-size="10.00" fill="#000000">+ setTitle()</text>
<text text-anchor="start" x="136" y="-382.5" font-family="Helvetica,sans-Serif" font-size="10.00" fill="#000000">+ getTitle()</text>
<text text-anchor="start" x="136" y="-371.5" font-family="Helvetica,sans-Serif" font-size="10.00" fill="#000000">+ setCoreComponent()</text>
<text text-anchor="start" x="136" y="-360.5" font-family="Helvetica,sans-Serif" font-size="10.00" fill="#000000">+ getCoreComponent()</text>
<text text-anchor="start" x="136" y="-349.5" font-family="Helvetica,sans-Serif" font-size="10.00" fill="#000000">+ setLayoutPosition()</text>
<text text-anchor="start" x="136" y="-338.5" font-family="Helvetica,sans-Serif" font-size="10.00" fill="#000000">+ getLayoutPosition()</text>
<text text-anchor="start" x="136" y="-327.5" font-family="Helvetica,sans-Serif" font-size="10.00" fill="#000000">+ render()</text>
</a>
</g>
</g>
<!-- Node14&#45;&gt;Node11 -->
<g id="edge4" class="edge">
<title>Node14&#45;&gt;Node11</title>
<path fill="none" stroke="#191970" d="M253.0561,-312.184C266.6459,-295.4204 280.8993,-277.838 293.9844,-261.6968"/>
<polygon fill="none" stroke="#191970" points="250.0247,-310.3656 246.4462,-320.3378 255.4624,-314.7738 250.0247,-310.3656"/>
</g>
<!-- Node19 -->
<g id="node10" class="node">
<title>Node19</title>
<g id="a_node10"><a xlink:href="interfaceene_1_1interfaces_1_1MasterView.html" target="_top" xlink:title="{ene::interfaces::MasterView\l\&lt; CoreComponentType \&gt;\n||+ addView()\l+ setAllViews()\l+ getAllViews()\l}">
<polygon fill="none" stroke="#000000" points="122.5,-155 122.5,-245 261.5,-245 261.5,-155 122.5,-155"/>
<text text-anchor="start" x="130.5" y="-233" font-family="Helvetica,sans-Serif" font-size="10.00" fill="#000000">ene::interfaces::MasterView</text>
<text text-anchor="middle" x="192" y="-222" font-family="Helvetica,sans-Serif" font-size="10.00" fill="#000000">&lt; CoreComponentType &gt;</text>
<polyline fill="none" stroke="#000000" points="122.5,-215 261.5,-215 "/>
<text text-anchor="middle" x="192" y="-203" font-family="Helvetica,sans-Serif" font-size="10.00" fill="#000000"> </text>
<polyline fill="none" stroke="#000000" points="122.5,-196 261.5,-196 "/>
<text text-anchor="start" x="130.5" y="-184" font-family="Helvetica,sans-Serif" font-size="10.00" fill="#000000">+ addView()</text>
<text text-anchor="start" x="130.5" y="-173" font-family="Helvetica,sans-Serif" font-size="10.00" fill="#000000">+ setAllViews()</text>
<text text-anchor="start" x="130.5" y="-162" font-family="Helvetica,sans-Serif" font-size="10.00" fill="#000000">+ getAllViews()</text>
</a>
</g>
</g>
<!-- Node14&#45;&gt;Node19 -->
<g id="edge10" class="edge">
<title>Node14&#45;&gt;Node19</title>
<path fill="none" stroke="#191970" d="M192,-310.2463C192,-288.0466 192,-264.5727 192,-245.0171"/>
<polygon fill="none" stroke="#191970" points="188.5001,-310.3378 192,-320.3378 195.5001,-310.3378 188.5001,-310.3378"/>
</g>
<!-- Node15 -->
<g id="node6" class="node">
<title>Node15</title>
<g id="a_node6"><a xlink:href="interfaceene_1_1interfaces_1_1Localization.html" target="_top" xlink:title="{ene.interfaces.Localization\n||+ getString()\l}">
<polygon fill="none" stroke="#000000" points="419.5,-359 419.5,-416 552.5,-416 552.5,-359 419.5,-359"/>
<text text-anchor="middle" x="486" y="-404" font-family="Helvetica,sans-Serif" font-size="10.00" fill="#000000">ene.interfaces.Localization</text>
<polyline fill="none" stroke="#000000" points="419.5,-397 552.5,-397 "/>
<text text-anchor="middle" x="486" y="-385" font-family="Helvetica,sans-Serif" font-size="10.00" fill="#000000"> </text>
<polyline fill="none" stroke="#000000" points="419.5,-378 552.5,-378 "/>
<text text-anchor="start" x="427.5" y="-366" font-family="Helvetica,sans-Serif" font-size="10.00" fill="#000000">+ getString()</text>
</a>
</g>
</g>
<!-- Node15&#45;&gt;Node11 -->
<g id="edge5" class="edge">
<title>Node15&#45;&gt;Node11</title>
<path fill="none" stroke="#191970" d="M457.888,-350.3803C438.7015,-325.046 412.8325,-290.888 390.5983,-261.5294"/>
<polygon fill="none" stroke="#191970" points="455.2962,-352.7553 464.1237,-358.614 460.8765,-348.5291 455.2962,-352.7553"/>
</g>
<!-- Node16 -->
<g id="node7" class="node">
<title>Node16</title>
<polygon fill="none" stroke="#bfbfbf" points="441,-502.5 441,-559.5 531,-559.5 531,-502.5 441,-502.5"/>
<text text-anchor="middle" x="486" y="-547.5" font-family="Helvetica,sans-Serif" font-size="10.00" fill="#000000">static final String</text>
<polyline fill="none" stroke="#bfbfbf" points="441,-540.5 531,-540.5 "/>
<text text-anchor="middle" x="486" y="-528.5" font-family="Helvetica,sans-Serif" font-size="10.00" fill="#000000"> </text>
<polyline fill="none" stroke="#bfbfbf" points="441,-521.5 531,-521.5 "/>
<text text-anchor="middle" x="486" y="-509.5" font-family="Helvetica,sans-Serif" font-size="10.00" fill="#000000"> </text>
</g>
<!-- Node16&#45;&gt;Node15 -->
<g id="edge6" class="edge">
<title>Node16&#45;&gt;Node15</title>
<path fill="none" stroke="#404040" d="M486,-502.3055C486,-481.0904 486,-451.9058 486,-428.2714"/>
<polygon fill="none" stroke="#404040" points="486.0001,-428.1447 482,-422.1448 486,-416.1447 490,-422.1447 486.0001,-428.1447"/>
<text text-anchor="middle" x="536" y="-476" font-family="Helvetica,sans-Serif" font-size="10.00" fill="#000000"> +DEFAULT_LOCALE</text>
</g>
<!-- Node17 -->
<g id="node8" class="node">
<title>Node17</title>
<polygon fill="none" stroke="#bfbfbf" points="571,-359 571,-416 613,-416 613,-359 571,-359"/>
<text text-anchor="middle" x="592" y="-404" font-family="Helvetica,sans-Serif" font-size="10.00" fill="#000000">String</text>
<polyline fill="none" stroke="#bfbfbf" points="571,-397 613,-397 "/>
<text text-anchor="middle" x="592" y="-385" font-family="Helvetica,sans-Serif" font-size="10.00" fill="#000000"> </text>
<polyline fill="none" stroke="#bfbfbf" points="571,-378 613,-378 "/>
<text text-anchor="middle" x="592" y="-366" font-family="Helvetica,sans-Serif" font-size="10.00" fill="#000000"> </text>
</g>
<!-- Node17&#45;&gt;Node11 -->
<g id="edge7" class="edge">
<title>Node17&#45;&gt;Node11</title>
<path fill="none" stroke="#404040" d="M583.4564,-358.8555C578.4945,-345.8518 571.1756,-330.9646 561,-320 522.0423,-278.0215 464.975,-247.2668 419.1397,-227.4068"/>
<polygon fill="none" stroke="#404040" points="419.1,-227.39 412.0158,-228.7373 408.0475,-222.7162 415.1317,-221.369 419.1,-227.39"/>
<text text-anchor="middle" x="577" y="-294" font-family="Helvetica,sans-Serif" font-size="10.00" fill="#000000"> #layoutPosition</text>
<text text-anchor="middle" x="577" y="-283" font-family="Helvetica,sans-Serif" font-size="10.00" fill="#000000">#title</text>
</g>
<!-- Node18 -->
<g id="node9" class="node">
<title>Node18</title>
<polygon fill="none" stroke="#bfbfbf" points="0,-359 0,-416 110,-416 110,-359 0,-359"/>
<text text-anchor="middle" x="55" y="-404" font-family="Helvetica,sans-Serif" font-size="10.00" fill="#000000">CoreComponentType</text>
<polyline fill="none" stroke="#bfbfbf" points="0,-397 110,-397 "/>
<text text-anchor="middle" x="55" y="-385" font-family="Helvetica,sans-Serif" font-size="10.00" fill="#000000"> </text>
<polyline fill="none" stroke="#bfbfbf" points="0,-378 110,-378 "/>
<text text-anchor="middle" x="55" y="-366" font-family="Helvetica,sans-Serif" font-size="10.00" fill="#000000"> </text>
</g>
<!-- Node18&#45;&gt;Node11 -->
<g id="edge8" class="edge">
<title>Node18&#45;&gt;Node11</title>
<path fill="none" stroke="#404040" d="M79.4125,-358.7027C90.7923,-346.1105 104.9128,-331.5995 119,-320 144.6041,-298.9173 151.2451,-292.4172 182,-280 215.8364,-266.3387 231.3006,-277.108 268.7044,-261.7539"/>
<polygon fill="none" stroke="#404040" points="268.9416,-261.6464 272.7529,-255.5248 279.8695,-256.6885 276.0582,-262.8101 268.9416,-261.6464"/>
<text text-anchor="middle" x="221" y="-288.5" font-family="Helvetica,sans-Serif" font-size="10.00" fill="#000000"> #coreComponent</text>
</g>
<!-- Node19&#45;&gt;Node10 -->
<g id="edge9" class="edge">
<title>Node19&#45;&gt;Node10</title>
<path fill="none" stroke="#191970" d="M243.4999,-147.653C261.7029,-129.1507 282.0056,-108.5141 299.5716,-90.6592"/>
<polygon fill="none" stroke="#191970" points="240.8915,-145.3137 236.3733,-154.8969 245.8815,-150.223 240.8915,-145.3137"/>
</g>
<!-- Node20 -->
<g id="node11" class="node">
<title>Node20</title>
<polygon fill="none" stroke="#bfbfbf" points="512,-171.5 512,-228.5 666,-228.5 666,-171.5 512,-171.5"/>
<text text-anchor="middle" x="589" y="-216.5" font-family="Helvetica,sans-Serif" font-size="10.00" fill="#000000">List&lt; ene.interfaces.View&lt;?&gt; &gt;</text>
<polyline fill="none" stroke="#bfbfbf" points="512,-209.5 666,-209.5 "/>
<text text-anchor="middle" x="589" y="-197.5" font-family="Helvetica,sans-Serif" font-size="10.00" fill="#000000"> </text>
<polyline fill="none" stroke="#bfbfbf" points="512,-190.5 666,-190.5 "/>
<text text-anchor="middle" x="589" y="-178.5" font-family="Helvetica,sans-Serif" font-size="10.00" fill="#000000"> </text>
</g>
<!-- Node20&#45;&gt;Node10 -->
<g id="edge11" class="edge">
<title>Node20&#45;&gt;Node10</title>
<path fill="none" stroke="#404040" d="M543.7777,-171.4823C510.7779,-150.6722 465.1322,-121.8875 425.8015,-97.085"/>
<polygon fill="none" stroke="#404040" points="425.5726,-96.9407 418.3638,-97.1237 415.4223,-90.5398 422.6311,-90.3568 425.5726,-96.9407"/>
<text text-anchor="middle" x="477" y="-112" font-family="Helvetica,sans-Serif" font-size="10.00" fill="#000000"> #views</text>
</g>
<!-- Node21 -->
<g id="node12" class="node">
<title>Node21</title>
<polygon fill="none" stroke="#bfbfbf" points="650,-359 650,-416 682,-416 682,-359 650,-359"/>
<text text-anchor="middle" x="666" y="-404" font-family="Helvetica,sans-Serif" font-size="10.00" fill="#000000">List</text>
<polyline fill="none" stroke="#bfbfbf" points="650,-397 682,-397 "/>
<text text-anchor="middle" x="666" y="-385" font-family="Helvetica,sans-Serif" font-size="10.00" fill="#000000"> </text>
<polyline fill="none" stroke="#bfbfbf" points="650,-378 682,-378 "/>
<text text-anchor="middle" x="666" y="-366" font-family="Helvetica,sans-Serif" font-size="10.00" fill="#000000"> </text>
</g>
<!-- Node21&#45;&gt;Node20 -->
<g id="edge12" class="edge">
<title>Node21&#45;&gt;Node20</title>
<path fill="none" stroke="#ffa500" d="M661.8609,-348.5916C658.6983,-327.657 653.2472,-301.7457 644,-280 636.2171,-261.6977 623.9236,-243.2707 612.9312,-228.7226"/>
<polygon fill="#ffa500" stroke="#ffa500" points="658.4273,-349.3114 663.2752,-358.732 665.3602,-348.3444 658.4273,-349.3114"/>
<text text-anchor="start" x="652" y="-294" font-family="Helvetica,sans-Serif" font-size="10.00" fill="#000000"> &lt; ene::interfaces::</text>
<text text-anchor="middle" x="693.5" y="-283" font-family="Helvetica,sans-Serif" font-size="10.00" fill="#000000">View&lt;?&gt; &gt;</text>
</g>
</g>
</svg>
