<?xml version="1.0" encoding="UTF-8" standalone="no"?>
<!DOCTYPE svg PUBLIC "-//W3C//DTD SVG 1.1//EN"
 "http://www.w3.org/Graphics/SVG/1.1/DTD/svg11.dtd">
<!-- Generated by graphviz version 2.40.1 (20161225.0304)
 -->
<!-- Title: ene.databases.SQLDatabase.getStatement Pages: 1 -->
<svg width="387pt" height="116pt"
 viewBox="0.00 0.00 387.00 115.50" xmlns="http://www.w3.org/2000/svg" xmlns:xlink="http://www.w3.org/1999/xlink">
<g id="graph0" class="graph" transform="scale(1 1) rotate(0) translate(4 111.5)">
<title>ene.databases.SQLDatabase.getStatement</title>
<!-- Node13 -->
<g id="node1" class="node">
<title>Node13</title>
<polygon fill="#bfbfbf" stroke="#000000" points="0,-44.5 0,-74.5 161,-74.5 161,-44.5 0,-44.5"/>
<text text-anchor="start" x="8" y="-62.5" font-family="Helvetica,sans-Serif" font-size="10.00" fill="#000000">ene.databases.SQLDatabase.get</text>
<text text-anchor="middle" x="80.5" y="-51.5" font-family="Helvetica,sans-Serif" font-size="10.00" fill="#000000">Statement</text>
</g>
<!-- Node14 -->
<g id="node2" class="node">
<title>Node14</title>
<g id="a_node2"><a xlink:href="classene_1_1databases_1_1SQLDatabase.html#a2325d6243e5001ba6a2762d98a6aa003" target="_top" xlink:title="ene.databases.SQLDatabase.execute">
<polygon fill="none" stroke="#000000" points="197,-88 197,-107 379,-107 379,-88 197,-88"/>
<text text-anchor="middle" x="288" y="-95" font-family="Helvetica,sans-Serif" font-size="10.00" fill="#000000">ene.databases.SQLDatabase.execute</text>
</a>
</g>
</g>
<!-- Node13&#45;&gt;Node14 -->
<g id="edge1" class="edge">
<title>Node13&#45;&gt;Node14</title>
<path fill="none" stroke="#191970" d="M171.14,-76.0991C193.3184,-80.1607 216.3091,-84.3711 235.9701,-87.9716"/>
<polygon fill="#191970" stroke="#191970" points="171.4888,-72.6049 161.0219,-74.2462 170.2278,-79.4904 171.4888,-72.6049"/>
</g>
<!-- Node15 -->
<g id="node3" class="node">
<title>Node15</title>
<g id="a_node3"><a xlink:href="classene_1_1databases_1_1SQLDatabase.html#a4fc326bb48771501b425d26e44d40671" target="_top" xlink:title="ene.databases.SQLDatabase.query">
<polygon fill="none" stroke="#000000" points="202,-50 202,-69 374,-69 374,-50 202,-50"/>
<text text-anchor="middle" x="288" y="-57" font-family="Helvetica,sans-Serif" font-size="10.00" fill="#000000">ene.databases.SQLDatabase.query</text>
</a>
</g>
</g>
<!-- Node13&#45;&gt;Node15 -->
<g id="edge2" class="edge">
<title>Node13&#45;&gt;Node15</title>
<path fill="none" stroke="#191970" d="M171.1047,-59.5C181.2591,-59.5 191.5843,-59.5 201.6827,-59.5"/>
<polygon fill="#191970" stroke="#191970" points="171.0219,-56.0001 161.0219,-59.5 171.0219,-63.0001 171.0219,-56.0001"/>
</g>
<!-- Node16 -->
<g id="node4" class="node">
<title>Node16</title>
<g id="a_node4"><a xlink:href="classene_1_1databases_1_1SQLDatabase.html#a91ac1bd655b300b6d01c858c023cce3e" target="_top" xlink:title="ene.databases.SQLDatabase.\lSQLDatabase">
<polygon fill="none" stroke="#000000" points="214,-.5 214,-30.5 362,-30.5 362,-.5 214,-.5"/>
<text text-anchor="start" x="222" y="-18.5" font-family="Helvetica,sans-Serif" font-size="10.00" fill="#000000">ene.databases.SQLDatabase.</text>
<text text-anchor="middle" x="288" y="-7.5" font-family="Helvetica,sans-Serif" font-size="10.00" fill="#000000">SQLDatabase</text>
</a>
</g>
</g>
<!-- Node13&#45;&gt;Node16 -->
<g id="edge3" class="edge">
<title>Node13&#45;&gt;Node16</title>
<path fill="none" stroke="#191970" d="M161.17,-42.3941C179.6329,-38.479 199.1231,-34.3462 217.1378,-30.5262"/>
<polygon fill="#191970" stroke="#191970" points="160.3858,-38.9825 151.3294,-44.4808 161.8379,-45.8302 160.3858,-38.9825"/>
</g>
</g>
</svg>
