<?xml version="1.0" encoding="UTF-8" standalone="no"?>
<!DOCTYPE svg PUBLIC "-//W3C//DTD SVG 1.1//EN"
 "http://www.w3.org/Graphics/SVG/1.1/DTD/svg11.dtd">
<!-- Generated by graphviz version 2.40.1 (20161225.0304)
 -->
<!-- Title: ene.controllers.LibraryController.addFile Pages: 1 -->
<svg width="1178pt" height="61pt"
 viewBox="0.00 0.00 1178.00 61.00" xmlns="http://www.w3.org/2000/svg" xmlns:xlink="http://www.w3.org/1999/xlink">
<g id="graph0" class="graph" transform="scale(1 1) rotate(0) translate(4 57)">
<title>ene.controllers.LibraryController.addFile</title>
<!-- Node27 -->
<g id="node1" class="node">
<title>Node27</title>
<polygon fill="#bfbfbf" stroke="#000000" points="0,-28 0,-47 189,-47 189,-28 0,-28"/>
<text text-anchor="middle" x="94.5" y="-35" font-family="Helvetica,sans-Serif" font-size="10.00" fill="#000000">ene.controllers.LibraryController.addFile</text>
</g>
<!-- Node28 -->
<g id="node2" class="node">
<title>Node28</title>
<g id="a_node2"><a xlink:href="classene_1_1controllers_1_1LibraryController.html#aa0d66e53872a376fe6d456eb070de8d4" target="_top" xlink:title="ene.controllers.LibraryController.add">
<polygon fill="none" stroke="#000000" points="649,-28 649,-47 822,-47 822,-28 649,-28"/>
<text text-anchor="middle" x="735.5" y="-35" font-family="Helvetica,sans-Serif" font-size="10.00" fill="#000000">ene.controllers.LibraryController.add</text>
</a>
</g>
</g>
<!-- Node27&#45;&gt;Node28 -->
<g id="edge1" class="edge">
<title>Node27&#45;&gt;Node28</title>
<path fill="none" stroke="#191970" d="M199.3733,-38.6434C304.1103,-39.6112 469.6972,-40.6697 613,-39.5 624.5919,-39.4054 636.8001,-39.2604 648.837,-39.0908"/>
<polygon fill="#191970" stroke="#191970" points="199.1481,-35.1412 189.1157,-38.5471 199.0824,-42.1409 199.1481,-35.1412"/>
</g>
<!-- Node31 -->
<g id="node5" class="node">
<title>Node31</title>
<g id="a_node5"><a xlink:href="classene_1_1controllers_1_1LibraryController.html#a3a8b922c846a9b770b67f478ea0e5352" target="_top" xlink:title="ene.controllers.LibraryController.scan">
<polygon fill="none" stroke="#000000" points="225,-9 225,-28 404,-28 404,-9 225,-9"/>
<text text-anchor="middle" x="314.5" y="-16" font-family="Helvetica,sans-Serif" font-size="10.00" fill="#000000">ene.controllers.LibraryController.scan</text>
</a>
</g>
</g>
<!-- Node27&#45;&gt;Node31 -->
<g id="edge4" class="edge">
<title>Node27&#45;&gt;Node31</title>
<path fill="none" stroke="#191970" d="M199.1448,-28.4625C207.7494,-27.7194 216.3978,-26.9725 224.8788,-26.24"/>
<polygon fill="#191970" stroke="#191970" points="198.7383,-24.9845 189.0766,-29.332 199.3407,-31.9585 198.7383,-24.9845"/>
</g>
<!-- Node29 -->
<g id="node3" class="node">
<title>Node29</title>
<g id="a_node3"><a xlink:href="classene_1_1views_1_1gui_1_1partial_1_1LibraryView.html#a6e6e521f258ad6e3f2e06ed96180efb6" target="_top" xlink:title="ene.views.gui.partial.Library\lView.initialize">
<polygon fill="none" stroke="#000000" points="858,-22.5 858,-52.5 996,-52.5 996,-22.5 858,-22.5"/>
<text text-anchor="start" x="866" y="-40.5" font-family="Helvetica,sans-Serif" font-size="10.00" fill="#000000">ene.views.gui.partial.Library</text>
<text text-anchor="middle" x="927" y="-29.5" font-family="Helvetica,sans-Serif" font-size="10.00" fill="#000000">View.initialize</text>
</a>
</g>
</g>
<!-- Node28&#45;&gt;Node29 -->
<g id="edge2" class="edge">
<title>Node28&#45;&gt;Node29</title>
<path fill="none" stroke="#191970" d="M832.1546,-37.5C840.8104,-37.5 849.4565,-37.5 857.8097,-37.5"/>
<polygon fill="#191970" stroke="#191970" points="832.0058,-34.0001 822.0057,-37.5 832.0057,-41.0001 832.0058,-34.0001"/>
</g>
<!-- Node30 -->
<g id="node4" class="node">
<title>Node30</title>
<g id="a_node4"><a xlink:href="classene_1_1views_1_1gui_1_1partial_1_1LibraryView.html#a23af39410ef7be2c3253b41ca96cdc4e" target="_top" xlink:title="ene.views.gui.partial.Library\lView.LibraryView">
<polygon fill="none" stroke="#000000" points="1032,-22.5 1032,-52.5 1170,-52.5 1170,-22.5 1032,-22.5"/>
<text text-anchor="start" x="1040" y="-40.5" font-family="Helvetica,sans-Serif" font-size="10.00" fill="#000000">ene.views.gui.partial.Library</text>
<text text-anchor="middle" x="1101" y="-29.5" font-family="Helvetica,sans-Serif" font-size="10.00" fill="#000000">View.LibraryView</text>
</a>
</g>
</g>
<!-- Node29&#45;&gt;Node30 -->
<g id="edge3" class="edge">
<title>Node29&#45;&gt;Node30</title>
<path fill="none" stroke="#191970" d="M1006.0349,-37.5C1014.6249,-37.5 1023.3194,-37.5 1031.7795,-37.5"/>
<polygon fill="#191970" stroke="#191970" points="1006.0194,-34.0001 996.0193,-37.5 1006.0193,-41.0001 1006.0194,-34.0001"/>
</g>
<!-- Node32 -->
<g id="node6" class="node">
<title>Node32</title>
<g id="a_node6"><a xlink:href="classene_1_1controllers_1_1LibraryController.html#a6bc70daa48b96db79d5524113a49cd3e" target="_top" xlink:title="ene.controllers.LibraryController.add\lDirectoryContent">
<polygon fill="none" stroke="#000000" points="440,-.5 440,-30.5 613,-30.5 613,-.5 440,-.5"/>
<text text-anchor="start" x="448" y="-18.5" font-family="Helvetica,sans-Serif" font-size="10.00" fill="#000000">ene.controllers.LibraryController.add</text>
<text text-anchor="middle" x="526.5" y="-7.5" font-family="Helvetica,sans-Serif" font-size="10.00" fill="#000000">DirectoryContent</text>
</a>
</g>
</g>
<!-- Node31&#45;&gt;Node32 -->
<g id="edge5" class="edge">
<title>Node31&#45;&gt;Node32</title>
<path fill="none" stroke="#191970" d="M414.1645,-17.0897C422.7717,-16.9679 431.4348,-16.8453 439.9257,-16.7251"/>
<polygon fill="#191970" stroke="#191970" points="414.0492,-13.5908 404.0998,-17.2321 414.1484,-20.5901 414.0492,-13.5908"/>
</g>
<!-- Node32&#45;&gt;Node28 -->
<g id="edge6" class="edge">
<title>Node32&#45;&gt;Node28</title>
<path fill="none" stroke="#191970" d="M623.0268,-25.6607C631.5937,-26.5625 640.2324,-27.4718 648.711,-28.3643"/>
<polygon fill="#191970" stroke="#191970" points="623.3284,-22.1732 613.017,-24.607 622.5956,-29.1348 623.3284,-22.1732"/>
</g>
</g>
</svg>
