<?xml version="1.0" encoding="UTF-8" standalone="no"?>
<!DOCTYPE svg PUBLIC "-//W3C//DTD SVG 1.1//EN"
 "http://www.w3.org/Graphics/SVG/1.1/DTD/svg11.dtd">
<!-- Generated by graphviz version 2.40.1 (20161225.0304)
 -->
<!-- Title: ene.controllers.LibraryController.loadFromFile Pages: 1 -->
<svg width="420pt" height="88pt"
 viewBox="0.00 0.00 420.00 88.00" xmlns="http://www.w3.org/2000/svg" xmlns:xlink="http://www.w3.org/1999/xlink">
<g id="graph0" class="graph" transform="scale(1 1) rotate(0) translate(4 84)">
<title>ene.controllers.LibraryController.loadFromFile</title>
<!-- Node49 -->
<g id="node1" class="node">
<title>Node49</title>
<polygon fill="#bfbfbf" stroke="#000000" points="0,-19 0,-49 176,-49 176,-19 0,-19"/>
<text text-anchor="start" x="8" y="-37" font-family="Helvetica,sans-Serif" font-size="10.00" fill="#000000">ene.controllers.LibraryController.load</text>
<text text-anchor="middle" x="88" y="-26" font-family="Helvetica,sans-Serif" font-size="10.00" fill="#000000">FromFile</text>
</g>
<!-- Node50 -->
<g id="node2" class="node">
<title>Node50</title>
<g id="a_node2"><a xlink:href="classene_1_1controllers_1_1AbstractController.html#a9a5afba01d0004a64db4cb14c23e0bbd" target="_top" xlink:title="ene.controllers.Abstract\lController\&lt; LibraryModel\l \&gt;::getModel">
<polygon fill="none" stroke="#000000" points="250.5,-38.5 250.5,-79.5 373.5,-79.5 373.5,-38.5 250.5,-38.5"/>
<text text-anchor="start" x="258.5" y="-67.5" font-family="Helvetica,sans-Serif" font-size="10.00" fill="#000000">ene.controllers.Abstract</text>
<text text-anchor="start" x="258.5" y="-56.5" font-family="Helvetica,sans-Serif" font-size="10.00" fill="#000000">Controller&lt; LibraryModel</text>
<text text-anchor="middle" x="312" y="-45.5" font-family="Helvetica,sans-Serif" font-size="10.00" fill="#000000"> &gt;::getModel</text>
</a>
</g>
</g>
<!-- Node49&#45;&gt;Node50 -->
<g id="edge1" class="edge">
<title>Node49&#45;&gt;Node50</title>
<path fill="none" stroke="#191970" d="M176.2092,-43.8448C197.4702,-46.2177 219.9304,-48.7244 240.3304,-51.0012"/>
<polygon fill="#191970" stroke="#191970" points="240.1514,-54.5028 250.4779,-52.1337 240.9279,-47.546 240.1514,-54.5028"/>
</g>
<!-- Node51 -->
<g id="node3" class="node">
<title>Node51</title>
<g id="a_node3"><a xlink:href="interfaceene_1_1interfaces_1_1DatabaseConnection.html#a09a4dba7ac52632cc125c9c555c64c4f" target="_top" xlink:title="ene.interfaces.DatabaseConnection.query">
<polygon fill="none" stroke="#000000" points="212,-.5 212,-19.5 412,-19.5 412,-.5 212,-.5"/>
<text text-anchor="middle" x="312" y="-7.5" font-family="Helvetica,sans-Serif" font-size="10.00" fill="#000000">ene.interfaces.DatabaseConnection.query</text>
</a>
</g>
</g>
<!-- Node49&#45;&gt;Node51 -->
<g id="edge2" class="edge">
<title>Node49&#45;&gt;Node51</title>
<path fill="none" stroke="#191970" d="M176.2092,-24.549C188.2608,-23.2578 200.6977,-21.9252 212.9263,-20.615"/>
<polygon fill="#191970" stroke="#191970" points="213.566,-24.0666 223.1362,-19.5211 212.8202,-17.1065 213.566,-24.0666"/>
</g>
</g>
</svg>
