<?xml version="1.0" encoding="UTF-8" standalone="no"?>
<!DOCTYPE svg PUBLIC "-//W3C//DTD SVG 1.1//EN"
 "http://www.w3.org/Graphics/SVG/1.1/DTD/svg11.dtd">
<!-- Generated by graphviz version 2.40.1 (20161225.0304)
 -->
<!-- Title: ene.views.gui.partial.AbstractTrackListView.setColumnWidth Pages: 1 -->
<svg width="522pt" height="88pt"
 viewBox="0.00 0.00 522.00 88.00" xmlns="http://www.w3.org/2000/svg" xmlns:xlink="http://www.w3.org/1999/xlink">
<g id="graph0" class="graph" transform="scale(1 1) rotate(0) translate(4 84)">
<title>ene.views.gui.partial.AbstractTrackListView.setColumnWidth</title>
<!-- Node66 -->
<g id="node1" class="node">
<title>Node66</title>
<polygon fill="#bfbfbf" stroke="#000000" points="0,-27.5 0,-57.5 155,-57.5 155,-27.5 0,-27.5"/>
<text text-anchor="start" x="8" y="-45.5" font-family="Helvetica,sans-Serif" font-size="10.00" fill="#000000">ene.views.gui.partial.Abstract</text>
<text text-anchor="middle" x="77.5" y="-34.5" font-family="Helvetica,sans-Serif" font-size="10.00" fill="#000000">TrackListView.setColumnWidth</text>
</g>
<!-- Node67 -->
<g id="node2" class="node">
<title>Node67</title>
<g id="a_node2"><a xlink:href="classene_1_1views_1_1gui_1_1partial_1_1AbstractTrackListView.html#a2b9e7e6496c9675f9094dea99e1e469d" target="_top" xlink:title="ene.views.gui.partial.Abstract\lTrackListView.hideColumn">
<polygon fill="none" stroke="#000000" points="191,-5.5 191,-35.5 337,-35.5 337,-5.5 191,-5.5"/>
<text text-anchor="start" x="199" y="-23.5" font-family="Helvetica,sans-Serif" font-size="10.00" fill="#000000">ene.views.gui.partial.Abstract</text>
<text text-anchor="middle" x="264" y="-12.5" font-family="Helvetica,sans-Serif" font-size="10.00" fill="#000000">TrackListView.hideColumn</text>
</a>
</g>
</g>
<!-- Node66&#45;&gt;Node67 -->
<g id="edge1" class="edge">
<title>Node66&#45;&gt;Node67</title>
<path fill="none" stroke="#191970" d="M165.2568,-32.148C173.8268,-31.1371 182.4588,-30.1188 190.8621,-29.1275"/>
<polygon fill="#191970" stroke="#191970" points="164.7634,-28.6818 155.2423,-33.3293 165.5835,-35.6336 164.7634,-28.6818"/>
</g>
<!-- Node68 -->
<g id="node3" class="node">
<title>Node68</title>
<g id="a_node3"><a xlink:href="classene_1_1views_1_1gui_1_1partial_1_1PlaylistView.html#a8d541ff3e91c1492b2e47cc7272ca56d" target="_top" xlink:title="ene.views.gui.partial.Playlist\lView.render">
<polygon fill="none" stroke="#000000" points="373,-49.5 373,-79.5 514,-79.5 514,-49.5 373,-49.5"/>
<text text-anchor="start" x="381" y="-67.5" font-family="Helvetica,sans-Serif" font-size="10.00" fill="#000000">ene.views.gui.partial.Playlist</text>
<text text-anchor="middle" x="443.5" y="-56.5" font-family="Helvetica,sans-Serif" font-size="10.00" fill="#000000">View.render</text>
</a>
</g>
</g>
<!-- Node66&#45;&gt;Node68 -->
<g id="edge4" class="edge">
<title>Node66&#45;&gt;Node68</title>
<path fill="none" stroke="#191970" d="M165.1304,-47.7674C228.6923,-51.5881 313.5571,-56.6892 372.8096,-60.2508"/>
<polygon fill="#191970" stroke="#191970" points="165.3112,-44.272 155.1192,-47.1656 164.8911,-51.2594 165.3112,-44.272"/>
</g>
<!-- Node67&#45;&gt;Node68 -->
<g id="edge2" class="edge">
<title>Node67&#45;&gt;Node68</title>
<path fill="none" stroke="#191970" d="M335.3327,-37.9855C350.8424,-41.7873 367.1188,-45.777 382.1999,-49.4738"/>
<polygon fill="#191970" stroke="#191970" points="335.8174,-34.5007 325.2717,-35.5192 334.1508,-41.2994 335.8174,-34.5007"/>
</g>
<!-- Node69 -->
<g id="node4" class="node">
<title>Node69</title>
<g id="a_node4"><a xlink:href="classene_1_1views_1_1gui_1_1partial_1_1LibraryView.html#a0bd6885fe06ebde4d3dffbcd888c0b41" target="_top" xlink:title="ene.views.gui.partial.Library\lView.render">
<polygon fill="none" stroke="#000000" points="374.5,-.5 374.5,-30.5 512.5,-30.5 512.5,-.5 374.5,-.5"/>
<text text-anchor="start" x="382.5" y="-18.5" font-family="Helvetica,sans-Serif" font-size="10.00" fill="#000000">ene.views.gui.partial.Library</text>
<text text-anchor="middle" x="443.5" y="-7.5" font-family="Helvetica,sans-Serif" font-size="10.00" fill="#000000">View.render</text>
</a>
</g>
</g>
<!-- Node67&#45;&gt;Node69 -->
<g id="edge3" class="edge">
<title>Node67&#45;&gt;Node69</title>
<path fill="none" stroke="#191970" d="M347.1994,-18.1825C356.2762,-17.9296 365.4428,-17.6743 374.3253,-17.4269"/>
<polygon fill="#191970" stroke="#191970" points="346.9082,-14.6891 337.0095,-18.4663 347.1031,-21.6864 346.9082,-14.6891"/>
</g>
</g>
</svg>
