<?xml version="1.0" encoding="UTF-8" standalone="no"?>
<!DOCTYPE svg PUBLIC "-//W3C//DTD SVG 1.1//EN"
 "http://www.w3.org/Graphics/SVG/1.1/DTD/svg11.dtd">
<!-- Generated by graphviz version 2.40.1 (20161225.0304)
 -->
<!-- Title: ene.models.PlaylistModel Pages: 1 -->
<svg width="260pt" height="458pt"
 viewBox="0.00 0.00 260.00 458.00" xmlns="http://www.w3.org/2000/svg" xmlns:xlink="http://www.w3.org/1999/xlink">
<g id="graph0" class="graph" transform="scale(1 1) rotate(0) translate(4 454)">
<title>ene.models.PlaylistModel</title>
<!-- Node0 -->
<g id="node1" class="node">
<title>Node0</title>
<polygon fill="#bfbfbf" stroke="#000000" points="66.5,-.5 66.5,-68.5 194.5,-68.5 194.5,-.5 66.5,-.5"/>
<text text-anchor="middle" x="130.5" y="-56.5" font-family="Helvetica,sans-Serif" font-size="10.00" fill="#000000">ene.models.PlaylistModel</text>
<polyline fill="none" stroke="#000000" points="66.5,-49.5 194.5,-49.5 "/>
<text text-anchor="start" x="74.5" y="-37.5" font-family="Helvetica,sans-Serif" font-size="10.00" fill="#000000">~ name</text>
<polyline fill="none" stroke="#000000" points="66.5,-30.5 194.5,-30.5 "/>
<text text-anchor="start" x="74.5" y="-18.5" font-family="Helvetica,sans-Serif" font-size="10.00" fill="#000000">+ setName()</text>
<text text-anchor="start" x="74.5" y="-7.5" font-family="Helvetica,sans-Serif" font-size="10.00" fill="#000000">+ getName()</text>
</g>
<!-- Node1 -->
<g id="node2" class="node">
<title>Node1</title>
<g id="a_node2"><a xlink:href="classene_1_1models_1_1TrackListModel.html" target="_top" xlink:title="{ene.models.TrackListModel\n|# tracks\l|+ add()\l+ remove()\l+ get()\l+ getAll()\l}">
<polygon fill="none" stroke="#000000" points="62,-105.5 62,-195.5 199,-195.5 199,-105.5 62,-105.5"/>
<text text-anchor="middle" x="130.5" y="-183.5" font-family="Helvetica,sans-Serif" font-size="10.00" fill="#000000">ene.models.TrackListModel</text>
<polyline fill="none" stroke="#000000" points="62,-176.5 199,-176.5 "/>
<text text-anchor="start" x="70" y="-164.5" font-family="Helvetica,sans-Serif" font-size="10.00" fill="#000000"># tracks</text>
<polyline fill="none" stroke="#000000" points="62,-157.5 199,-157.5 "/>
<text text-anchor="start" x="70" y="-145.5" font-family="Helvetica,sans-Serif" font-size="10.00" fill="#000000">+ add()</text>
<text text-anchor="start" x="70" y="-134.5" font-family="Helvetica,sans-Serif" font-size="10.00" fill="#000000">+ remove()</text>
<text text-anchor="start" x="70" y="-123.5" font-family="Helvetica,sans-Serif" font-size="10.00" fill="#000000">+ get()</text>
<text text-anchor="start" x="70" y="-112.5" font-family="Helvetica,sans-Serif" font-size="10.00" fill="#000000">+ getAll()</text>
</a>
</g>
</g>
<!-- Node1&#45;&gt;Node0 -->
<g id="edge1" class="edge">
<title>Node1&#45;&gt;Node0</title>
<path fill="none" stroke="#191970" d="M130.5,-95.1681C130.5,-86.1024 130.5,-76.9497 130.5,-68.5982"/>
<polygon fill="none" stroke="#191970" points="127.0001,-95.3192 130.5,-105.3192 134.0001,-95.3192 127.0001,-95.3192"/>
</g>
<!-- Node2 -->
<g id="node3" class="node">
<title>Node2</title>
<g id="a_node3"><a xlink:href="classene_1_1models_1_1AbstractModel.html" target="_top" xlink:title="{ene.models.AbstractModel\n|# views\l|+ addView()\l# changed()\l}">
<polygon fill="none" stroke="#000000" points="64,-232.5 64,-300.5 197,-300.5 197,-232.5 64,-232.5"/>
<text text-anchor="middle" x="130.5" y="-288.5" font-family="Helvetica,sans-Serif" font-size="10.00" fill="#000000">ene.models.AbstractModel</text>
<polyline fill="none" stroke="#000000" points="64,-281.5 197,-281.5 "/>
<text text-anchor="start" x="72" y="-269.5" font-family="Helvetica,sans-Serif" font-size="10.00" fill="#000000"># views</text>
<polyline fill="none" stroke="#000000" points="64,-262.5 197,-262.5 "/>
<text text-anchor="start" x="72" y="-250.5" font-family="Helvetica,sans-Serif" font-size="10.00" fill="#000000">+ addView()</text>
<text text-anchor="start" x="72" y="-239.5" font-family="Helvetica,sans-Serif" font-size="10.00" fill="#000000"># changed()</text>
</a>
</g>
</g>
<!-- Node2&#45;&gt;Node1 -->
<g id="edge2" class="edge">
<title>Node2&#45;&gt;Node1</title>
<path fill="none" stroke="#191970" d="M130.5,-222.3177C130.5,-213.5764 130.5,-204.3904 130.5,-195.6185"/>
<polygon fill="none" stroke="#191970" points="127.0001,-222.3235 130.5,-232.3236 134.0001,-222.3236 127.0001,-222.3235"/>
</g>
<!-- Node3 -->
<g id="node4" class="node">
<title>Node3</title>
<g id="a_node4"><a xlink:href="classene_1_1AbstractObject.html" target="_top" xlink:title="{ene.AbstractObject\n|# debugModeEnabled\l|+ enableDebugMode()\l+ disableDebugMode()\l+ isDebugModeEnabled()\l+ debugInfoAbout()\l+ consoleOutput()\l# delay()\l}">
<polygon fill="none" stroke="#000000" points="0,-337.5 0,-449.5 127,-449.5 127,-337.5 0,-337.5"/>
<text text-anchor="middle" x="63.5" y="-437.5" font-family="Helvetica,sans-Serif" font-size="10.00" fill="#000000">ene.AbstractObject</text>
<polyline fill="none" stroke="#000000" points="0,-430.5 127,-430.5 "/>
<text text-anchor="start" x="8" y="-418.5" font-family="Helvetica,sans-Serif" font-size="10.00" fill="#000000"># debugModeEnabled</text>
<polyline fill="none" stroke="#000000" points="0,-411.5 127,-411.5 "/>
<text text-anchor="start" x="8" y="-399.5" font-family="Helvetica,sans-Serif" font-size="10.00" fill="#000000">+ enableDebugMode()</text>
<text text-anchor="start" x="8" y="-388.5" font-family="Helvetica,sans-Serif" font-size="10.00" fill="#000000">+ disableDebugMode()</text>
<text text-anchor="start" x="8" y="-377.5" font-family="Helvetica,sans-Serif" font-size="10.00" fill="#000000">+ isDebugModeEnabled()</text>
<text text-anchor="start" x="8" y="-366.5" font-family="Helvetica,sans-Serif" font-size="10.00" fill="#000000">+ debugInfoAbout()</text>
<text text-anchor="start" x="8" y="-355.5" font-family="Helvetica,sans-Serif" font-size="10.00" fill="#000000">+ consoleOutput()</text>
<text text-anchor="start" x="8" y="-344.5" font-family="Helvetica,sans-Serif" font-size="10.00" fill="#000000"># delay()</text>
</a>
</g>
</g>
<!-- Node3&#45;&gt;Node2 -->
<g id="edge3" class="edge">
<title>Node3&#45;&gt;Node2</title>
<path fill="none" stroke="#191970" d="M97.8919,-328.3094C102.9153,-318.7875 107.9119,-309.3163 112.4295,-300.753"/>
<polygon fill="none" stroke="#191970" points="94.6527,-326.9485 93.0822,-337.4263 100.844,-330.2148 94.6527,-326.9485"/>
</g>
<!-- Node4 -->
<g id="node5" class="node">
<title>Node4</title>
<g id="a_node5"><a xlink:href="interfaceene_1_1interfaces_1_1Model.html" target="_top" xlink:title="{ene.interfaces.Model\n||+ addView()\l}">
<polygon fill="none" stroke="#000000" points="145,-365 145,-422 252,-422 252,-365 145,-365"/>
<text text-anchor="middle" x="198.5" y="-410" font-family="Helvetica,sans-Serif" font-size="10.00" fill="#000000">ene.interfaces.Model</text>
<polyline fill="none" stroke="#000000" points="145,-403 252,-403 "/>
<text text-anchor="middle" x="198.5" y="-391" font-family="Helvetica,sans-Serif" font-size="10.00" fill="#000000"> </text>
<polyline fill="none" stroke="#000000" points="145,-384 252,-384 "/>
<text text-anchor="start" x="153" y="-372" font-family="Helvetica,sans-Serif" font-size="10.00" fill="#000000">+ addView()</text>
</a>
</g>
</g>
<!-- Node4&#45;&gt;Node2 -->
<g id="edge4" class="edge">
<title>Node4&#45;&gt;Node2</title>
<path fill="none" stroke="#191970" d="M178.5097,-356.1651C169.1272,-338.6419 158.0196,-317.8969 148.8528,-300.7765"/>
<polygon fill="none" stroke="#191970" points="175.4336,-357.835 183.2395,-364.9987 181.6047,-354.5308 175.4336,-357.835"/>
</g>
</g>
</svg>
