<?xml version="1.0" encoding="UTF-8" standalone="no"?>
<!DOCTYPE svg PUBLIC "-//W3C//DTD SVG 1.1//EN"
 "http://www.w3.org/Graphics/SVG/1.1/DTD/svg11.dtd">
<!-- Generated by graphviz version 2.40.1 (20161225.0304)
 -->
<!-- Title: ene.AbstractObject.consoleOutput Pages: 1 -->
<svg width="741pt" height="427pt"
 viewBox="0.00 0.00 741.00 426.50" xmlns="http://www.w3.org/2000/svg" xmlns:xlink="http://www.w3.org/1999/xlink">
<g id="graph0" class="graph" transform="scale(1 1) rotate(0) translate(4 422.5)">
<title>ene.AbstractObject.consoleOutput</title>
<!-- Node1 -->
<g id="node1" class="node">
<title>Node1</title>
<polygon fill="#bfbfbf" stroke="#000000" points="0,-91 0,-121 137,-121 137,-91 0,-91"/>
<text text-anchor="start" x="8" y="-109" font-family="Helvetica,sans-Serif" font-size="10.00" fill="#000000">ene.AbstractObject.console</text>
<text text-anchor="middle" x="68.5" y="-98" font-family="Helvetica,sans-Serif" font-size="10.00" fill="#000000">Output</text>
</g>
<!-- Node2 -->
<g id="node2" class="node">
<title>Node2</title>
<g id="a_node2"><a xlink:href="classene_1_1AbstractObject.html#aff9619cf289ec83735b6c6ca2c12e020" target="_top" xlink:title="ene.AbstractObject.debug\lInfoAbout">
<polygon fill="none" stroke="#000000" points="192,-186 192,-216 322,-216 322,-186 192,-186"/>
<text text-anchor="start" x="200" y="-204" font-family="Helvetica,sans-Serif" font-size="10.00" fill="#000000">ene.AbstractObject.debug</text>
<text text-anchor="middle" x="257" y="-193" font-family="Helvetica,sans-Serif" font-size="10.00" fill="#000000">InfoAbout</text>
</a>
</g>
</g>
<!-- Node1&#45;&gt;Node2 -->
<g id="edge1" class="edge">
<title>Node1&#45;&gt;Node2</title>
<path fill="none" stroke="#191970" d="M107.4668,-125.6385C142.9442,-143.5183 194.586,-169.5447 226.9599,-185.8604"/>
<polygon fill="#191970" stroke="#191970" points="108.8736,-122.4281 98.3684,-121.053 105.7232,-128.6791 108.8736,-122.4281"/>
</g>
<!-- Node14 -->
<g id="node14" class="node">
<title>Node14</title>
<g id="a_node14"><a xlink:href="classene_1_1Application.html#a096fa8803429fdb43c79cde1705b489f" target="_top" xlink:title="ene.Application.processArguments">
<polygon fill="none" stroke="#000000" points="173,-74.5 173,-93.5 341,-93.5 341,-74.5 173,-74.5"/>
<text text-anchor="middle" x="257" y="-81.5" font-family="Helvetica,sans-Serif" font-size="10.00" fill="#000000">ene.Application.processArguments</text>
</a>
</g>
</g>
<!-- Node1&#45;&gt;Node14 -->
<g id="edge13" class="edge">
<title>Node1&#45;&gt;Node14</title>
<path fill="none" stroke="#191970" d="M147.1028,-96.8262C156.4265,-95.738 165.9603,-94.6253 175.3255,-93.5323"/>
<polygon fill="#191970" stroke="#191970" points="146.6129,-93.3595 137.0861,-97.9953 147.4244,-100.3123 146.6129,-93.3595"/>
</g>
<!-- Node3 -->
<g id="node3" class="node">
<title>Node3</title>
<g id="a_node3"><a xlink:href="classene_1_1models_1_1PlayerModel.html#a2c4655428b658dee3203787415a516a5" target="_top" xlink:title="ene.models.PlayerModel.load">
<polygon fill="none" stroke="#000000" points="382.5,-349.5 382.5,-368.5 527.5,-368.5 527.5,-349.5 382.5,-349.5"/>
<text text-anchor="middle" x="455" y="-356.5" font-family="Helvetica,sans-Serif" font-size="10.00" fill="#000000">ene.models.PlayerModel.load</text>
</a>
</g>
</g>
<!-- Node2&#45;&gt;Node3 -->
<g id="edge2" class="edge">
<title>Node2&#45;&gt;Node3</title>
<path fill="none" stroke="#191970" d="M270.9209,-224.8455C290.5117,-256.2185 329.2216,-310.7868 377,-340 383.3023,-343.8534 390.3382,-346.9256 397.5339,-349.3749"/>
<polygon fill="#191970" stroke="#191970" points="273.8879,-222.9885 265.6878,-216.2795 267.9144,-226.6378 273.8879,-222.9885"/>
</g>
<!-- Node7 -->
<g id="node7" class="node">
<title>Node7</title>
<g id="a_node7"><a xlink:href="classene_1_1models_1_1PlayerModel.html#a7d0471082171de01773a1da88cb3652d" target="_top" xlink:title="ene.models.PlayerModel.start">
<polygon fill="none" stroke="#000000" points="382,-311.5 382,-330.5 528,-330.5 528,-311.5 382,-311.5"/>
<text text-anchor="middle" x="455" y="-318.5" font-family="Helvetica,sans-Serif" font-size="10.00" fill="#000000">ene.models.PlayerModel.start</text>
</a>
</g>
</g>
<!-- Node2&#45;&gt;Node7 -->
<g id="edge6" class="edge">
<title>Node2&#45;&gt;Node7</title>
<path fill="none" stroke="#191970" d="M277.4877,-223.5189C299.7659,-246.6354 337.5059,-281.9738 377,-302 384.5828,-305.845 392.9806,-308.9364 401.3745,-311.415"/>
<polygon fill="#191970" stroke="#191970" points="279.9625,-221.042 270.5451,-216.1878 274.8798,-225.8553 279.9625,-221.042"/>
</g>
<!-- Node8 -->
<g id="node8" class="node">
<title>Node8</title>
<g id="a_node8"><a xlink:href="classene_1_1models_1_1PlayerModel.html#afdcaa5e17ecdfbccad3ac8e702914e00" target="_top" xlink:title="ene.models.PlayerModel.pause">
<polygon fill="none" stroke="#000000" points="378.5,-273.5 378.5,-292.5 531.5,-292.5 531.5,-273.5 378.5,-273.5"/>
<text text-anchor="middle" x="455" y="-280.5" font-family="Helvetica,sans-Serif" font-size="10.00" fill="#000000">ene.models.PlayerModel.pause</text>
</a>
</g>
</g>
<!-- Node2&#45;&gt;Node8 -->
<g id="edge7" class="edge">
<title>Node2&#45;&gt;Node8</title>
<path fill="none" stroke="#191970" d="M290.3148,-221.3243C313.8431,-234.9625 346.4915,-252.475 377,-264 386.7787,-267.6941 397.5225,-270.8544 407.8266,-273.4767"/>
<polygon fill="#191970" stroke="#191970" points="291.849,-218.1664 281.4535,-216.121 288.3045,-224.2027 291.849,-218.1664"/>
</g>
<!-- Node9 -->
<g id="node9" class="node">
<title>Node9</title>
<g id="a_node9"><a xlink:href="classene_1_1models_1_1PlayerModel.html#a108968d6fd2beb7e322bba50028d32b1" target="_top" xlink:title="ene.models.PlayerModel.update">
<polygon fill="none" stroke="#000000" points="377,-235.5 377,-254.5 533,-254.5 533,-235.5 377,-235.5"/>
<text text-anchor="middle" x="455" y="-242.5" font-family="Helvetica,sans-Serif" font-size="10.00" fill="#000000">ene.models.PlayerModel.update</text>
</a>
</g>
</g>
<!-- Node2&#45;&gt;Node9 -->
<g id="edge8" class="edge">
<title>Node2&#45;&gt;Node9</title>
<path fill="none" stroke="#191970" d="M331.9447,-217.6544C359.0049,-223.6678 388.6175,-230.2483 412.0112,-235.4469"/>
<polygon fill="#191970" stroke="#191970" points="332.628,-214.2209 322.1068,-215.4682 331.1094,-221.0542 332.628,-214.2209"/>
</g>
<!-- Node10 -->
<g id="node10" class="node">
<title>Node10</title>
<g id="a_node10"><a xlink:href="classene_1_1views_1_1gui_1_1partial_1_1AbstractTrackListView.html#ad66634518c60ff157ef83d7dd9d7b4c6" target="_top" xlink:title="ene.views.gui.partial.Abstract\lTrackListView.mousePressed">
<polygon fill="none" stroke="#000000" points="381.5,-186 381.5,-216 528.5,-216 528.5,-186 381.5,-186"/>
<text text-anchor="start" x="389.5" y="-204" font-family="Helvetica,sans-Serif" font-size="10.00" fill="#000000">ene.views.gui.partial.Abstract</text>
<text text-anchor="middle" x="455" y="-193" font-family="Helvetica,sans-Serif" font-size="10.00" fill="#000000">TrackListView.mousePressed</text>
</a>
</g>
</g>
<!-- Node2&#45;&gt;Node10 -->
<g id="edge9" class="edge">
<title>Node2&#45;&gt;Node10</title>
<path fill="none" stroke="#191970" d="M332.4777,-201C348.479,-201 365.3505,-201 381.2853,-201"/>
<polygon fill="#191970" stroke="#191970" points="332.1069,-197.5001 322.1068,-201 332.1068,-204.5001 332.1069,-197.5001"/>
</g>
<!-- Node11 -->
<g id="node11" class="node">
<title>Node11</title>
<g id="a_node11"><a xlink:href="classene_1_1views_1_1gui_1_1partial_1_1AbstractTrackListView.html#aebe5720136b8b2215b6ad365c723843e" target="_top" xlink:title="ene.views.gui.partial.Abstract\lTrackListView.valueChanged">
<polygon fill="none" stroke="#000000" points="382,-137 382,-167 528,-167 528,-137 382,-137"/>
<text text-anchor="start" x="390" y="-155" font-family="Helvetica,sans-Serif" font-size="10.00" fill="#000000">ene.views.gui.partial.Abstract</text>
<text text-anchor="middle" x="455" y="-144" font-family="Helvetica,sans-Serif" font-size="10.00" fill="#000000">TrackListView.valueChanged</text>
</a>
</g>
</g>
<!-- Node2&#45;&gt;Node11 -->
<g id="edge10" class="edge">
<title>Node2&#45;&gt;Node11</title>
<path fill="none" stroke="#191970" d="M327.6205,-183.5232C349.4437,-178.1225 373.2766,-172.2245 394.3628,-167.0062"/>
<polygon fill="#191970" stroke="#191970" points="326.6185,-180.1655 317.7521,-185.9654 328.3001,-186.9605 326.6185,-180.1655"/>
</g>
<!-- Node12 -->
<g id="node12" class="node">
<title>Node12</title>
<g id="a_node12"><a xlink:href="classene_1_1views_1_1gui_1_1partial_1_1PlayerView.html#a7e28fb299fee46d221d3224ffb87ea35" target="_top" xlink:title="ene.views.gui.partial.Player\lView.render">
<polygon fill="none" stroke="#000000" points="386.5,-88 386.5,-118 523.5,-118 523.5,-88 386.5,-88"/>
<text text-anchor="start" x="394.5" y="-106" font-family="Helvetica,sans-Serif" font-size="10.00" fill="#000000">ene.views.gui.partial.Player</text>
<text text-anchor="middle" x="455" y="-95" font-family="Helvetica,sans-Serif" font-size="10.00" fill="#000000">View.render</text>
</a>
</g>
</g>
<!-- Node2&#45;&gt;Node12 -->
<g id="edge11" class="edge">
<title>Node2&#45;&gt;Node12</title>
<path fill="none" stroke="#191970" d="M286.2495,-180.0268C309.8526,-163.8394 344.3831,-141.7831 377,-127 384.2266,-123.7247 392.024,-120.7338 399.7966,-118.0598"/>
<polygon fill="#191970" stroke="#191970" points="283.9843,-177.3385 277.7652,-185.916 287.9759,-183.0889 283.9843,-177.3385"/>
</g>
<!-- Node13 -->
<g id="node13" class="node">
<title>Node13</title>
<g id="a_node13"><a xlink:href="classene_1_1views_1_1gui_1_1partial_1_1PlaylistView.html#a108f11521a24d840a4aeb31190c0a34e" target="_top" xlink:title="ene.views.gui.partial.Playlist\lView.mousePressed">
<polygon fill="none" stroke="#000000" points="384.5,-39 384.5,-69 525.5,-69 525.5,-39 384.5,-39"/>
<text text-anchor="start" x="392.5" y="-57" font-family="Helvetica,sans-Serif" font-size="10.00" fill="#000000">ene.views.gui.partial.Playlist</text>
<text text-anchor="middle" x="455" y="-46" font-family="Helvetica,sans-Serif" font-size="10.00" fill="#000000">View.mousePressed</text>
</a>
</g>
</g>
<!-- Node2&#45;&gt;Node13 -->
<g id="edge12" class="edge">
<title>Node2&#45;&gt;Node13</title>
<path fill="none" stroke="#191970" d="M274.0075,-177.4551C295.1628,-149.8039 333.8046,-104.3718 377,-78 382.5626,-74.6039 388.6446,-71.6534 394.8797,-69.0979"/>
<polygon fill="#191970" stroke="#191970" points="270.9761,-175.6633 267.7697,-185.7613 276.5735,-179.8668 270.9761,-175.6633"/>
</g>
<!-- Node4 -->
<g id="node4" class="node">
<title>Node4</title>
<g id="a_node4"><a xlink:href="classene_1_1models_1_1PlayerModel.html#acfe1fde39cea80b94ae65ed401706d70" target="_top" xlink:title="ene.models.PlayerModel.load\lPlaylist">
<polygon fill="none" stroke="#000000" points="578.5,-388 578.5,-418 723.5,-418 723.5,-388 578.5,-388"/>
<text text-anchor="start" x="586.5" y="-406" font-family="Helvetica,sans-Serif" font-size="10.00" fill="#000000">ene.models.PlayerModel.load</text>
<text text-anchor="middle" x="651" y="-395" font-family="Helvetica,sans-Serif" font-size="10.00" fill="#000000">Playlist</text>
</a>
</g>
</g>
<!-- Node3&#45;&gt;Node4 -->
<g id="edge3" class="edge">
<title>Node3&#45;&gt;Node4</title>
<path fill="none" stroke="#191970" d="M507.3071,-370.7424C530.8196,-376.0207 558.8534,-382.314 583.8907,-387.9346"/>
<polygon fill="#191970" stroke="#191970" points="508.0529,-367.3228 497.5291,-368.5473 506.5196,-374.1528 508.0529,-367.3228"/>
</g>
<!-- Node5 -->
<g id="node5" class="node">
<title>Node5</title>
<g id="a_node5"><a xlink:href="classene_1_1models_1_1PlayerModel.html#a7242e20d537405f031ec8d18e7faf8fc" target="_top" xlink:title="ene.models.PlayerModel.previous">
<polygon fill="none" stroke="#000000" points="569,-349.5 569,-368.5 733,-368.5 733,-349.5 569,-349.5"/>
<text text-anchor="middle" x="651" y="-356.5" font-family="Helvetica,sans-Serif" font-size="10.00" fill="#000000">ene.models.PlayerModel.previous</text>
</a>
</g>
</g>
<!-- Node3&#45;&gt;Node5 -->
<g id="edge4" class="edge">
<title>Node3&#45;&gt;Node5</title>
<path fill="none" stroke="#191970" d="M537.8646,-359C548.1172,-359 558.5963,-359 568.8384,-359"/>
<polygon fill="#191970" stroke="#191970" points="537.7047,-355.5001 527.7046,-359 537.7046,-362.5001 537.7047,-355.5001"/>
</g>
<!-- Node6 -->
<g id="node6" class="node">
<title>Node6</title>
<g id="a_node6"><a xlink:href="classene_1_1models_1_1PlayerModel.html#a384fd9a2e98fc581e8221659257a8dd4" target="_top" xlink:title="ene.models.PlayerModel.next">
<polygon fill="none" stroke="#000000" points="578,-311.5 578,-330.5 724,-330.5 724,-311.5 578,-311.5"/>
<text text-anchor="middle" x="651" y="-318.5" font-family="Helvetica,sans-Serif" font-size="10.00" fill="#000000">ene.models.PlayerModel.next</text>
</a>
</g>
</g>
<!-- Node3&#45;&gt;Node6 -->
<g id="edge5" class="edge">
<title>Node3&#45;&gt;Node6</title>
<path fill="none" stroke="#191970" d="M514.2612,-347.5106C542.227,-342.0886 575.2091,-335.6942 601.7737,-330.5439"/>
<polygon fill="#191970" stroke="#191970" points="513.3571,-344.1206 504.2061,-349.46 514.6895,-350.9927 513.3571,-344.1206"/>
</g>
<!-- Node15 -->
<g id="node15" class="node">
<title>Node15</title>
<g id="a_node15"><a xlink:href="classene_1_1Application.html#a336bc7b9857591df7cc547781aacbf10" target="_top" xlink:title="ene.Application.main">
<polygon fill="none" stroke="#000000" points="401.5,-.5 401.5,-19.5 508.5,-19.5 508.5,-.5 401.5,-.5"/>
<text text-anchor="middle" x="455" y="-7.5" font-family="Helvetica,sans-Serif" font-size="10.00" fill="#000000">ene.Application.main</text>
</a>
</g>
</g>
<!-- Node14&#45;&gt;Node15 -->
<g id="edge14" class="edge">
<title>Node14&#45;&gt;Node15</title>
<path fill="none" stroke="#191970" d="M284.4229,-69.6048C308.3534,-57.4896 344.2739,-40.3688 377,-29 387.401,-25.3868 398.8106,-22.1942 409.6158,-19.5068"/>
<polygon fill="#191970" stroke="#191970" points="282.5603,-66.6263 275.2542,-74.2992 285.7505,-72.8571 282.5603,-66.6263"/>
</g>
</g>
</svg>
