<?xml version="1.0" encoding="UTF-8" standalone="no"?>
<!DOCTYPE svg PUBLIC "-//W3C//DTD SVG 1.1//EN"
 "http://www.w3.org/Graphics/SVG/1.1/DTD/svg11.dtd">
<!-- Generated by graphviz version 2.40.1 (20161225.0304)
 -->
<!-- Title: ene.controllers.PlaylistController Pages: 1 -->
<svg width="609pt" height="673pt"
 viewBox="0.00 0.00 608.50 673.00" xmlns="http://www.w3.org/2000/svg" xmlns:xlink="http://www.w3.org/1999/xlink">
<g id="graph0" class="graph" transform="scale(1 1) rotate(0) translate(4 669)">
<title>ene.controllers.PlaylistController</title>
<!-- Node7 -->
<g id="node1" class="node">
<title>Node7</title>
<polygon fill="#bfbfbf" stroke="#000000" points="355.5,-.5 355.5,-145.5 471.5,-145.5 471.5,-.5 355.5,-.5"/>
<text text-anchor="start" x="363.5" y="-133.5" font-family="Helvetica,sans-Serif" font-size="10.00" fill="#000000">ene.controllers.Playlist</text>
<text text-anchor="middle" x="413.5" y="-122.5" font-family="Helvetica,sans-Serif" font-size="10.00" fill="#000000">Controller</text>
<polyline fill="none" stroke="#000000" points="355.5,-115.5 471.5,-115.5 "/>
<text text-anchor="middle" x="413.5" y="-103.5" font-family="Helvetica,sans-Serif" font-size="10.00" fill="#000000"> </text>
<polyline fill="none" stroke="#000000" points="355.5,-96.5 471.5,-96.5 "/>
<text text-anchor="start" x="363.5" y="-84.5" font-family="Helvetica,sans-Serif" font-size="10.00" fill="#000000">+ PlaylistController()</text>
<text text-anchor="start" x="363.5" y="-73.5" font-family="Helvetica,sans-Serif" font-size="10.00" fill="#000000">+ PlaylistController()</text>
<text text-anchor="start" x="363.5" y="-62.5" font-family="Helvetica,sans-Serif" font-size="10.00" fill="#000000">+ loadFromFile()</text>
<text text-anchor="start" x="363.5" y="-51.5" font-family="Helvetica,sans-Serif" font-size="10.00" fill="#000000">+ saveToFile()</text>
<text text-anchor="start" x="363.5" y="-40.5" font-family="Helvetica,sans-Serif" font-size="10.00" fill="#000000">+ add()</text>
<text text-anchor="start" x="363.5" y="-29.5" font-family="Helvetica,sans-Serif" font-size="10.00" fill="#000000">+ remove()</text>
<text text-anchor="start" x="363.5" y="-18.5" font-family="Helvetica,sans-Serif" font-size="10.00" fill="#000000"># setPlaylistFilename()</text>
<text text-anchor="start" x="363.5" y="-7.5" font-family="Helvetica,sans-Serif" font-size="10.00" fill="#000000"># getPlaylistFilename()</text>
</g>
<!-- Node8 -->
<g id="node2" class="node">
<title>Node8</title>
<g id="a_node2"><a xlink:href="classene_1_1controllers_1_1AbstractController.html" target="_top" xlink:title="{ene.controllers.Abstract\lController\&lt; PlaylistModel \&gt;\n|# model\l|+ setModel()\l+ getModel()\l}">
<polygon fill="none" stroke="#000000" points="142,-193.5 142,-272.5 277,-272.5 277,-193.5 142,-193.5"/>
<text text-anchor="start" x="150" y="-260.5" font-family="Helvetica,sans-Serif" font-size="10.00" fill="#000000">ene.controllers.Abstract</text>
<text text-anchor="middle" x="209.5" y="-249.5" font-family="Helvetica,sans-Serif" font-size="10.00" fill="#000000">Controller&lt; PlaylistModel &gt;</text>
<polyline fill="none" stroke="#000000" points="142,-242.5 277,-242.5 "/>
<text text-anchor="start" x="150" y="-230.5" font-family="Helvetica,sans-Serif" font-size="10.00" fill="#000000"># model</text>
<polyline fill="none" stroke="#000000" points="142,-223.5 277,-223.5 "/>
<text text-anchor="start" x="150" y="-211.5" font-family="Helvetica,sans-Serif" font-size="10.00" fill="#000000">+ setModel()</text>
<text text-anchor="start" x="150" y="-200.5" font-family="Helvetica,sans-Serif" font-size="10.00" fill="#000000">+ getModel()</text>
</a>
</g>
</g>
<!-- Node8&#45;&gt;Node7 -->
<g id="edge1" class="edge">
<title>Node8&#45;&gt;Node7</title>
<path fill="none" stroke="#191970" d="M267.89,-187.2039C295.3252,-165.6861 327.9462,-140.101 355.351,-118.607"/>
<polygon fill="none" stroke="#191970" points="265.6355,-184.524 259.927,-193.4494 269.9555,-190.032 265.6355,-184.524"/>
</g>
<!-- Node9 -->
<g id="node3" class="node">
<title>Node9</title>
<g id="a_node3"><a xlink:href="classene_1_1controllers_1_1AbstractController.html" target="_top" xlink:title="{ene.controllers.Abstract\lController\&lt; ModelType \&gt;\n||+ setModel()\l+ getModel()\l}">
<polygon fill="none" stroke="#000000" points="147,-320.5 147,-399.5 272,-399.5 272,-320.5 147,-320.5"/>
<text text-anchor="start" x="155" y="-387.5" font-family="Helvetica,sans-Serif" font-size="10.00" fill="#000000">ene.controllers.Abstract</text>
<text text-anchor="middle" x="209.5" y="-376.5" font-family="Helvetica,sans-Serif" font-size="10.00" fill="#000000">Controller&lt; ModelType &gt;</text>
<polyline fill="none" stroke="#000000" points="147,-369.5 272,-369.5 "/>
<text text-anchor="middle" x="209.5" y="-357.5" font-family="Helvetica,sans-Serif" font-size="10.00" fill="#000000"> </text>
<polyline fill="none" stroke="#000000" points="147,-350.5 272,-350.5 "/>
<text text-anchor="start" x="155" y="-338.5" font-family="Helvetica,sans-Serif" font-size="10.00" fill="#000000">+ setModel()</text>
<text text-anchor="start" x="155" y="-327.5" font-family="Helvetica,sans-Serif" font-size="10.00" fill="#000000">+ getModel()</text>
</a>
</g>
</g>
<!-- Node9&#45;&gt;Node8 -->
<g id="edge2" class="edge">
<title>Node9&#45;&gt;Node8</title>
<path fill="none" stroke="#ffa500" d="M209.5,-309.9789C209.5,-297.5999 209.5,-284.5045 209.5,-272.6938"/>
<polygon fill="#ffa500" stroke="#ffa500" points="206.0001,-310.1648 209.5,-320.1649 213.0001,-310.1649 206.0001,-310.1648"/>
<text text-anchor="middle" x="249.5" y="-294" font-family="Helvetica,sans-Serif" font-size="10.00" fill="#000000"> &lt; PlaylistModel &gt;</text>
</g>
<!-- Node10 -->
<g id="node4" class="node">
<title>Node10</title>
<g id="a_node4"><a xlink:href="classene_1_1AbstractObject.html" target="_top" xlink:title="{ene.AbstractObject\n||+ enableDebugMode()\l+ disableDebugMode()\l+ isDebugModeEnabled()\l+ debugInfoAbout()\l+ consoleOutput()\l# delay()\l}">
<polygon fill="none" stroke="#000000" points="0,-447.5 0,-559.5 127,-559.5 127,-447.5 0,-447.5"/>
<text text-anchor="middle" x="63.5" y="-547.5" font-family="Helvetica,sans-Serif" font-size="10.00" fill="#000000">ene.AbstractObject</text>
<polyline fill="none" stroke="#000000" points="0,-540.5 127,-540.5 "/>
<text text-anchor="middle" x="63.5" y="-528.5" font-family="Helvetica,sans-Serif" font-size="10.00" fill="#000000"> </text>
<polyline fill="none" stroke="#000000" points="0,-521.5 127,-521.5 "/>
<text text-anchor="start" x="8" y="-509.5" font-family="Helvetica,sans-Serif" font-size="10.00" fill="#000000">+ enableDebugMode()</text>
<text text-anchor="start" x="8" y="-498.5" font-family="Helvetica,sans-Serif" font-size="10.00" fill="#000000">+ disableDebugMode()</text>
<text text-anchor="start" x="8" y="-487.5" font-family="Helvetica,sans-Serif" font-size="10.00" fill="#000000">+ isDebugModeEnabled()</text>
<text text-anchor="start" x="8" y="-476.5" font-family="Helvetica,sans-Serif" font-size="10.00" fill="#000000">+ debugInfoAbout()</text>
<text text-anchor="start" x="8" y="-465.5" font-family="Helvetica,sans-Serif" font-size="10.00" fill="#000000">+ consoleOutput()</text>
<text text-anchor="start" x="8" y="-454.5" font-family="Helvetica,sans-Serif" font-size="10.00" fill="#000000"># delay()</text>
</a>
</g>
</g>
<!-- Node10&#45;&gt;Node9 -->
<g id="edge3" class="edge">
<title>Node10&#45;&gt;Node9</title>
<path fill="none" stroke="#191970" d="M128.0303,-440.0746C141.9812,-426.3626 156.3504,-412.2395 169.0626,-399.745"/>
<polygon fill="none" stroke="#191970" points="125.4625,-437.6909 120.784,-447.1969 130.3693,-442.6833 125.4625,-437.6909"/>
</g>
<!-- Node11 -->
<g id="node5" class="node">
<title>Node11</title>
<polygon fill="none" stroke="#bfbfbf" points="25,-607.5 25,-664.5 102,-664.5 102,-607.5 25,-607.5"/>
<text text-anchor="middle" x="63.5" y="-652.5" font-family="Helvetica,sans-Serif" font-size="10.00" fill="#000000">static boolean</text>
<polyline fill="none" stroke="#bfbfbf" points="25,-645.5 102,-645.5 "/>
<text text-anchor="middle" x="63.5" y="-633.5" font-family="Helvetica,sans-Serif" font-size="10.00" fill="#000000"> </text>
<polyline fill="none" stroke="#bfbfbf" points="25,-626.5 102,-626.5 "/>
<text text-anchor="middle" x="63.5" y="-614.5" font-family="Helvetica,sans-Serif" font-size="10.00" fill="#000000"> </text>
</g>
<!-- Node11&#45;&gt;Node10 -->
<g id="edge4" class="edge">
<title>Node11&#45;&gt;Node10</title>
<path fill="none" stroke="#404040" d="M63.5,-607.2495C63.5,-596.8031 63.5,-584.502 63.5,-572.0912"/>
<polygon fill="none" stroke="#404040" points="63.5001,-571.7084 59.5,-565.7085 63.5,-559.7084 67.5,-565.7084 63.5001,-571.7084"/>
<text text-anchor="middle" x="110.5" y="-581" font-family="Helvetica,sans-Serif" font-size="10.00" fill="#000000"> #debugModeEnabled</text>
</g>
<!-- Node12 -->
<g id="node6" class="node">
<title>Node12</title>
<g id="a_node6"><a xlink:href="interfaceene_1_1interfaces_1_1Controller.html" target="_top" xlink:title="{ene::interfaces::Controller\l\&lt; ModelType \&gt;\n||+ setModel()\l+ getModel()\l}">
<polygon fill="none" stroke="#000000" points="145,-464 145,-543 274,-543 274,-464 145,-464"/>
<text text-anchor="start" x="153" y="-531" font-family="Helvetica,sans-Serif" font-size="10.00" fill="#000000">ene::interfaces::Controller</text>
<text text-anchor="middle" x="209.5" y="-520" font-family="Helvetica,sans-Serif" font-size="10.00" fill="#000000">&lt; ModelType &gt;</text>
<polyline fill="none" stroke="#000000" points="145,-513 274,-513 "/>
<text text-anchor="middle" x="209.5" y="-501" font-family="Helvetica,sans-Serif" font-size="10.00" fill="#000000"> </text>
<polyline fill="none" stroke="#000000" points="145,-494 274,-494 "/>
<text text-anchor="start" x="153" y="-482" font-family="Helvetica,sans-Serif" font-size="10.00" fill="#000000">+ setModel()</text>
<text text-anchor="start" x="153" y="-471" font-family="Helvetica,sans-Serif" font-size="10.00" fill="#000000">+ getModel()</text>
</a>
</g>
</g>
<!-- Node12&#45;&gt;Node9 -->
<g id="edge5" class="edge">
<title>Node12&#45;&gt;Node9</title>
<path fill="none" stroke="#191970" d="M209.5,-453.8088C209.5,-436.2088 209.5,-416.6472 209.5,-399.9608"/>
<polygon fill="none" stroke="#191970" points="206.0001,-453.9081 209.5,-463.9081 213.0001,-453.9082 206.0001,-453.9081"/>
</g>
<!-- Node13 -->
<g id="node7" class="node">
<title>Node13</title>
<polygon fill="none" stroke="#bfbfbf" points="292,-475 292,-532 357,-532 357,-475 292,-475"/>
<text text-anchor="middle" x="324.5" y="-520" font-family="Helvetica,sans-Serif" font-size="10.00" fill="#000000">ModelType</text>
<polyline fill="none" stroke="#bfbfbf" points="292,-513 357,-513 "/>
<text text-anchor="middle" x="324.5" y="-501" font-family="Helvetica,sans-Serif" font-size="10.00" fill="#000000"> </text>
<polyline fill="none" stroke="#bfbfbf" points="292,-494 357,-494 "/>
<text text-anchor="middle" x="324.5" y="-482" font-family="Helvetica,sans-Serif" font-size="10.00" fill="#000000"> </text>
</g>
<!-- Node13&#45;&gt;Node9 -->
<g id="edge6" class="edge">
<title>Node13&#45;&gt;Node9</title>
<path fill="none" stroke="#404040" d="M303.672,-474.7992C297.0166,-465.8141 289.5468,-455.9188 282.5,-447 272.7584,-434.6706 262.0075,-421.5862 251.8196,-409.4118"/>
<polygon fill="none" stroke="#404040" points="251.5233,-409.0594 244.6002,-407.0417 243.8,-399.8751 250.7231,-401.8928 251.5233,-409.0594"/>
<text text-anchor="middle" x="285" y="-421" font-family="Helvetica,sans-Serif" font-size="10.00" fill="#000000"> #model</text>
</g>
<!-- Node14 -->
<g id="node8" class="node">
<title>Node14</title>
<g id="a_node8"><a xlink:href="interfaceene_1_1interfaces_1_1Import.html" target="_top" xlink:title="{ene.interfaces.Import\n||+ loadFromFile()\l}">
<polygon fill="none" stroke="#000000" points="295,-204.5 295,-261.5 404,-261.5 404,-204.5 295,-204.5"/>
<text text-anchor="middle" x="349.5" y="-249.5" font-family="Helvetica,sans-Serif" font-size="10.00" fill="#000000">ene.interfaces.Import</text>
<polyline fill="none" stroke="#000000" points="295,-242.5 404,-242.5 "/>
<text text-anchor="middle" x="349.5" y="-230.5" font-family="Helvetica,sans-Serif" font-size="10.00" fill="#000000"> </text>
<polyline fill="none" stroke="#000000" points="295,-223.5 404,-223.5 "/>
<text text-anchor="start" x="303" y="-211.5" font-family="Helvetica,sans-Serif" font-size="10.00" fill="#000000">+ loadFromFile()</text>
</a>
</g>
</g>
<!-- Node14&#45;&gt;Node7 -->
<g id="edge7" class="edge">
<title>Node14&#45;&gt;Node7</title>
<path fill="none" stroke="#191970" d="M364.6703,-195.0742C370.6002,-180.2495 377.6077,-162.7307 384.4355,-145.6612"/>
<polygon fill="none" stroke="#191970" points="361.4062,-193.8105 360.9419,-204.3952 367.9056,-196.4103 361.4062,-193.8105"/>
</g>
<!-- Node15 -->
<g id="node9" class="node">
<title>Node15</title>
<g id="a_node9"><a xlink:href="interfaceene_1_1interfaces_1_1Export.html" target="_top" xlink:title="{ene.interfaces.Export\n||+ saveToFile()\l}">
<polygon fill="none" stroke="#000000" points="422.5,-204.5 422.5,-261.5 532.5,-261.5 532.5,-204.5 422.5,-204.5"/>
<text text-anchor="middle" x="477.5" y="-249.5" font-family="Helvetica,sans-Serif" font-size="10.00" fill="#000000">ene.interfaces.Export</text>
<polyline fill="none" stroke="#000000" points="422.5,-242.5 532.5,-242.5 "/>
<text text-anchor="middle" x="477.5" y="-230.5" font-family="Helvetica,sans-Serif" font-size="10.00" fill="#000000"> </text>
<polyline fill="none" stroke="#000000" points="422.5,-223.5 532.5,-223.5 "/>
<text text-anchor="start" x="430.5" y="-211.5" font-family="Helvetica,sans-Serif" font-size="10.00" fill="#000000">+ saveToFile()</text>
</a>
</g>
</g>
<!-- Node15&#45;&gt;Node7 -->
<g id="edge8" class="edge">
<title>Node15&#45;&gt;Node7</title>
<path fill="none" stroke="#191970" d="M462.3297,-195.0742C456.3998,-180.2495 449.3923,-162.7307 442.5645,-145.6612"/>
<polygon fill="none" stroke="#191970" points="459.0944,-196.4103 466.0581,-204.3952 465.5938,-193.8105 459.0944,-196.4103"/>
</g>
<!-- Node16 -->
<g id="node10" class="node">
<title>Node16</title>
<polygon fill="none" stroke="#bfbfbf" points="550.5,-204.5 550.5,-261.5 592.5,-261.5 592.5,-204.5 550.5,-204.5"/>
<text text-anchor="middle" x="571.5" y="-249.5" font-family="Helvetica,sans-Serif" font-size="10.00" fill="#000000">String</text>
<polyline fill="none" stroke="#bfbfbf" points="550.5,-242.5 592.5,-242.5 "/>
<text text-anchor="middle" x="571.5" y="-230.5" font-family="Helvetica,sans-Serif" font-size="10.00" fill="#000000"> </text>
<polyline fill="none" stroke="#bfbfbf" points="550.5,-223.5 592.5,-223.5 "/>
<text text-anchor="middle" x="571.5" y="-211.5" font-family="Helvetica,sans-Serif" font-size="10.00" fill="#000000"> </text>
</g>
<!-- Node16&#45;&gt;Node7 -->
<g id="edge9" class="edge">
<title>Node16&#45;&gt;Node7</title>
<path fill="none" stroke="#404040" d="M550.784,-204.1096C547.7711,-200.2894 544.628,-196.4912 541.5,-193 522.7315,-172.0518 500.8499,-150.6037 480.5426,-131.7415"/>
<polygon fill="none" stroke="#404040" points="480.4727,-131.6771 473.3495,-130.5547 471.6459,-123.5476 478.7692,-124.6701 480.4727,-131.6771"/>
<text text-anchor="middle" x="561" y="-167" font-family="Helvetica,sans-Serif" font-size="10.00" fill="#000000"> #playlistFilename</text>
</g>
</g>
</svg>
