<?xml version="1.0" encoding="UTF-8" standalone="no"?>
<!DOCTYPE svg PUBLIC "-//W3C//DTD SVG 1.1//EN"
 "http://www.w3.org/Graphics/SVG/1.1/DTD/svg11.dtd">
<!-- Generated by graphviz version 2.40.1 (20161225.0304)
 -->
<!-- Title: ene.AbstractObject.consoleOutput Pages: 1 -->
<svg width="714pt" height="279pt"
 viewBox="0.00 0.00 714.00 279.00" xmlns="http://www.w3.org/2000/svg" xmlns:xlink="http://www.w3.org/1999/xlink">
<g id="graph0" class="graph" transform="scale(1 1) rotate(0) translate(4 275)">
<title>ene.AbstractObject.consoleOutput</title>
<!-- Node1 -->
<g id="node1" class="node">
<title>Node1</title>
<polygon fill="#bfbfbf" stroke="#000000" points="0,-64 0,-94 137,-94 137,-64 0,-64"/>
<text text-anchor="start" x="8" y="-82" font-family="Helvetica,sans-Serif" font-size="10.00" fill="#000000">ene.AbstractObject.console</text>
<text text-anchor="middle" x="68.5" y="-71" font-family="Helvetica,sans-Serif" font-size="10.00" fill="#000000">Output</text>
</g>
<!-- Node2 -->
<g id="node2" class="node">
<title>Node2</title>
<g id="a_node2"><a xlink:href="classene_1_1AbstractObject.html#aff9619cf289ec83735b6c6ca2c12e020" target="_top" xlink:title="ene.AbstractObject.debug\lInfoAbout">
<polygon fill="none" stroke="#000000" points="192,-132 192,-162 322,-162 322,-132 192,-132"/>
<text text-anchor="start" x="200" y="-150" font-family="Helvetica,sans-Serif" font-size="10.00" fill="#000000">ene.AbstractObject.debug</text>
<text text-anchor="middle" x="257" y="-139" font-family="Helvetica,sans-Serif" font-size="10.00" fill="#000000">InfoAbout</text>
</a>
</g>
</g>
<!-- Node1&#45;&gt;Node2 -->
<g id="edge1" class="edge">
<title>Node1&#45;&gt;Node2</title>
<path fill="none" stroke="#191970" d="M119.7872,-97.5015C149.7653,-108.3159 187.121,-121.7917 215.2827,-131.9508"/>
<polygon fill="#191970" stroke="#191970" points="120.9286,-94.1925 110.3343,-94.0914 118.5532,-100.7772 120.9286,-94.1925"/>
</g>
<!-- Node10 -->
<g id="node10" class="node">
<title>Node10</title>
<g id="a_node10"><a xlink:href="classene_1_1Application.html#a096fa8803429fdb43c79cde1705b489f" target="_top" xlink:title="ene.Application.processArguments">
<polygon fill="none" stroke="#000000" points="173,-47.5 173,-66.5 341,-66.5 341,-47.5 173,-47.5"/>
<text text-anchor="middle" x="257" y="-54.5" font-family="Helvetica,sans-Serif" font-size="10.00" fill="#000000">ene.Application.processArguments</text>
</a>
</g>
</g>
<!-- Node1&#45;&gt;Node10 -->
<g id="edge9" class="edge">
<title>Node1&#45;&gt;Node10</title>
<path fill="none" stroke="#191970" d="M147.1028,-69.8262C156.4265,-68.738 165.9603,-67.6253 175.3255,-66.5323"/>
<polygon fill="#191970" stroke="#191970" points="146.6129,-66.3595 137.0861,-70.9953 147.4244,-73.3123 146.6129,-66.3595"/>
</g>
<!-- Node3 -->
<g id="node3" class="node">
<title>Node3</title>
<g id="a_node3"><a xlink:href="classene_1_1models_1_1PlayerModel.html#a2c4655428b658dee3203787415a516a5" target="_top" xlink:title="ene.models.PlayerModel.load">
<polygon fill="none" stroke="#000000" points="382.5,-251.5 382.5,-270.5 527.5,-270.5 527.5,-251.5 382.5,-251.5"/>
<text text-anchor="middle" x="455" y="-258.5" font-family="Helvetica,sans-Serif" font-size="10.00" fill="#000000">ene.models.PlayerModel.load</text>
</a>
</g>
</g>
<!-- Node2&#45;&gt;Node3 -->
<g id="edge2" class="edge">
<title>Node2&#45;&gt;Node3</title>
<path fill="none" stroke="#191970" d="M279.1812,-169.5036C301.834,-191.2117 338.9822,-223.4339 377,-242 384.8901,-245.8532 393.6207,-248.9605 402.3001,-251.4558"/>
<polygon fill="#191970" stroke="#191970" points="281.3991,-166.7777 271.7954,-162.3032 276.5126,-171.79 281.3991,-166.7777"/>
</g>
<!-- Node4 -->
<g id="node4" class="node">
<title>Node4</title>
<g id="a_node4"><a xlink:href="classene_1_1models_1_1PlayerModel.html#a7d0471082171de01773a1da88cb3652d" target="_top" xlink:title="ene.models.PlayerModel.start">
<polygon fill="none" stroke="#000000" points="382,-213.5 382,-232.5 528,-232.5 528,-213.5 382,-213.5"/>
<text text-anchor="middle" x="455" y="-220.5" font-family="Helvetica,sans-Serif" font-size="10.00" fill="#000000">ene.models.PlayerModel.start</text>
</a>
</g>
</g>
<!-- Node2&#45;&gt;Node4 -->
<g id="edge3" class="edge">
<title>Node2&#45;&gt;Node4</title>
<path fill="none" stroke="#191970" d="M293.6169,-166.7998C316.9666,-178.8159 348.1549,-193.7577 377,-204 387.2447,-207.6377 398.4876,-210.8225 409.1694,-213.4927"/>
<polygon fill="#191970" stroke="#191970" points="294.9247,-163.5347 284.4388,-162.0197 291.6913,-169.7432 294.9247,-163.5347"/>
</g>
<!-- Node5 -->
<g id="node5" class="node">
<title>Node5</title>
<g id="a_node5"><a xlink:href="classene_1_1models_1_1PlayerModel.html#afdcaa5e17ecdfbccad3ac8e702914e00" target="_top" xlink:title="ene.models.PlayerModel.pause">
<polygon fill="none" stroke="#000000" points="378.5,-175.5 378.5,-194.5 531.5,-194.5 531.5,-175.5 378.5,-175.5"/>
<text text-anchor="middle" x="455" y="-182.5" font-family="Helvetica,sans-Serif" font-size="10.00" fill="#000000">ene.models.PlayerModel.pause</text>
</a>
</g>
</g>
<!-- Node2&#45;&gt;Node5 -->
<g id="edge4" class="edge">
<title>Node2&#45;&gt;Node5</title>
<path fill="none" stroke="#191970" d="M332.086,-161.4105C356.5559,-166.1067 383.099,-171.2008 405.2359,-175.4493"/>
<polygon fill="#191970" stroke="#191970" points="332.5873,-157.9429 322.1068,-159.4953 331.2679,-164.8174 332.5873,-157.9429"/>
</g>
<!-- Node6 -->
<g id="node6" class="node">
<title>Node6</title>
<g id="a_node6"><a xlink:href="classene_1_1models_1_1PlayerModel.html#a108968d6fd2beb7e322bba50028d32b1" target="_top" xlink:title="ene.models.PlayerModel.update">
<polygon fill="none" stroke="#000000" points="377,-137.5 377,-156.5 533,-156.5 533,-137.5 377,-137.5"/>
<text text-anchor="middle" x="455" y="-144.5" font-family="Helvetica,sans-Serif" font-size="10.00" fill="#000000">ene.models.PlayerModel.update</text>
</a>
</g>
</g>
<!-- Node2&#45;&gt;Node6 -->
<g id="edge5" class="edge">
<title>Node2&#45;&gt;Node6</title>
<path fill="none" stroke="#191970" d="M332.5077,-147C346.9905,-147 362.1853,-147 376.7524,-147"/>
<polygon fill="#191970" stroke="#191970" points="332.1069,-143.5001 322.1068,-147 332.1068,-150.5001 332.1069,-143.5001"/>
</g>
<!-- Node7 -->
<g id="node7" class="node">
<title>Node7</title>
<g id="a_node7"><a xlink:href="classene_1_1views_1_1gui_1_1partial_1_1AbstractTrackListView.html#aebe5720136b8b2215b6ad365c723843e" target="_top" xlink:title="ene.views.gui.partial.Abstract\lTrackListView.valueChanged">
<polygon fill="none" stroke="#000000" points="382,-88 382,-118 528,-118 528,-88 382,-88"/>
<text text-anchor="start" x="390" y="-106" font-family="Helvetica,sans-Serif" font-size="10.00" fill="#000000">ene.views.gui.partial.Abstract</text>
<text text-anchor="middle" x="455" y="-95" font-family="Helvetica,sans-Serif" font-size="10.00" fill="#000000">TrackListView.valueChanged</text>
</a>
</g>
</g>
<!-- Node2&#45;&gt;Node7 -->
<g id="edge6" class="edge">
<title>Node2&#45;&gt;Node7</title>
<path fill="none" stroke="#191970" d="M332.086,-130.3142C350.2916,-126.2685 369.6448,-121.9678 387.4772,-118.0051"/>
<polygon fill="#191970" stroke="#191970" points="331.1094,-126.9458 322.1068,-132.5318 332.628,-133.7791 331.1094,-126.9458"/>
</g>
<!-- Node8 -->
<g id="node8" class="node">
<title>Node8</title>
<g id="a_node8"><a xlink:href="classene_1_1views_1_1gui_1_1partial_1_1PlayerView.html#a6a20ce866e62ced7476b666fe891b10a" target="_top" xlink:title="ene.views.gui.partial.Player\lView.initialize">
<polygon fill="none" stroke="#000000" points="386.5,-39 386.5,-69 523.5,-69 523.5,-39 386.5,-39"/>
<text text-anchor="start" x="394.5" y="-57" font-family="Helvetica,sans-Serif" font-size="10.00" fill="#000000">ene.views.gui.partial.Player</text>
<text text-anchor="middle" x="455" y="-46" font-family="Helvetica,sans-Serif" font-size="10.00" fill="#000000">View.initialize</text>
</a>
</g>
</g>
<!-- Node2&#45;&gt;Node8 -->
<g id="edge7" class="edge">
<title>Node2&#45;&gt;Node8</title>
<path fill="none" stroke="#191970" d="M288.729,-126.6337C312.3983,-112.0387 345.8815,-92.631 377,-79 385.206,-75.4055 394.097,-72.0661 402.8388,-69.074"/>
<polygon fill="#191970" stroke="#191970" points="286.8006,-123.7113 280.1635,-131.9696 290.5019,-129.6528 286.8006,-123.7113"/>
</g>
<!-- Node9 -->
<g id="node9" class="node">
<title>Node9</title>
<g id="a_node9"><a xlink:href="classene_1_1views_1_1gui_1_1partial_1_1PlayerView.html#a87a7a4837fc2b68df6bf06984881a7ea" target="_top" xlink:title="ene.views.gui.partial.Player\lView.PlayerView">
<polygon fill="none" stroke="#000000" points="569,-39 569,-69 706,-69 706,-39 569,-39"/>
<text text-anchor="start" x="577" y="-57" font-family="Helvetica,sans-Serif" font-size="10.00" fill="#000000">ene.views.gui.partial.Player</text>
<text text-anchor="middle" x="637.5" y="-46" font-family="Helvetica,sans-Serif" font-size="10.00" fill="#000000">View.PlayerView</text>
</a>
</g>
</g>
<!-- Node8&#45;&gt;Node9 -->
<g id="edge8" class="edge">
<title>Node8&#45;&gt;Node9</title>
<path fill="none" stroke="#191970" d="M533.8716,-54C545.5083,-54 557.4186,-54 568.8266,-54"/>
<polygon fill="#191970" stroke="#191970" points="533.7354,-50.5001 523.7354,-54 533.7353,-57.5001 533.7354,-50.5001"/>
</g>
<!-- Node11 -->
<g id="node11" class="node">
<title>Node11</title>
<g id="a_node11"><a xlink:href="classene_1_1Application.html#a336bc7b9857591df7cc547781aacbf10" target="_top" xlink:title="ene.Application.main">
<polygon fill="none" stroke="#000000" points="401.5,-.5 401.5,-19.5 508.5,-19.5 508.5,-.5 401.5,-.5"/>
<text text-anchor="middle" x="455" y="-7.5" font-family="Helvetica,sans-Serif" font-size="10.00" fill="#000000">ene.Application.main</text>
</a>
</g>
</g>
<!-- Node10&#45;&gt;Node11 -->
<g id="edge10" class="edge">
<title>Node10&#45;&gt;Node11</title>
<path fill="none" stroke="#191970" d="M307.0636,-45.1162C340.3704,-37.2101 383.5501,-26.9603 414.652,-19.5776"/>
<polygon fill="#191970" stroke="#191970" points="305.9895,-41.7738 297.0683,-47.4888 307.6063,-48.5846 305.9895,-41.7738"/>
</g>
</g>
</svg>
