<?xml version="1.0" encoding="UTF-8" standalone="no"?>
<!DOCTYPE svg PUBLIC "-//W3C//DTD SVG 1.1//EN"
 "http://www.w3.org/Graphics/SVG/1.1/DTD/svg11.dtd">
<!-- Generated by graphviz version 2.40.1 (20161225.0304)
 -->
<!-- Title: ene.views.AbstractMasterView&lt; CoreComponentType &gt; Pages: 1 -->
<svg width="628pt" height="614pt"
 viewBox="0.00 0.00 628.00 614.00" xmlns="http://www.w3.org/2000/svg" xmlns:xlink="http://www.w3.org/1999/xlink">
<g id="graph0" class="graph" transform="scale(1 1) rotate(0) translate(4 610)">
<title>ene.views.AbstractMasterView&lt; CoreComponentType &gt;</title>
<!-- Node0 -->
<g id="node1" class="node">
<title>Node0</title>
<polygon fill="#bfbfbf" stroke="#000000" points="252,-160.5 252,-250.5 401,-250.5 401,-160.5 252,-160.5"/>
<text text-anchor="start" x="260" y="-238.5" font-family="Helvetica,sans-Serif" font-size="10.00" fill="#000000">ene.views.AbstractMaster</text>
<text text-anchor="middle" x="326.5" y="-227.5" font-family="Helvetica,sans-Serif" font-size="10.00" fill="#000000">View&lt; CoreComponentType &gt;</text>
<polyline fill="none" stroke="#000000" points="252,-220.5 401,-220.5 "/>
<text text-anchor="start" x="260" y="-208.5" font-family="Helvetica,sans-Serif" font-size="10.00" fill="#000000"># views</text>
<polyline fill="none" stroke="#000000" points="252,-201.5 401,-201.5 "/>
<text text-anchor="start" x="260" y="-189.5" font-family="Helvetica,sans-Serif" font-size="10.00" fill="#000000">+ addView()</text>
<text text-anchor="start" x="260" y="-178.5" font-family="Helvetica,sans-Serif" font-size="10.00" fill="#000000">+ setAllViews()</text>
<text text-anchor="start" x="260" y="-167.5" font-family="Helvetica,sans-Serif" font-size="10.00" fill="#000000">+ getAllViews()</text>
</g>
<!-- Node6 -->
<g id="node7" class="node">
<title>Node6</title>
<g id="a_node7"><a xlink:href="classene_1_1views_1_1gui_1_1partial_1_1ContentView.html" target="_top" xlink:title="{ene::views::gui::partial\l::ContentView\&lt; JTabbedPane \&gt;\n||+ ContentView()\l+ render()\l# initialize()\l}">
<polygon fill="none" stroke="#000000" points="0,-11.5 0,-101.5 157,-101.5 157,-11.5 0,-11.5"/>
<text text-anchor="start" x="8" y="-89.5" font-family="Helvetica,sans-Serif" font-size="10.00" fill="#000000">ene::views::gui::partial</text>
<text text-anchor="middle" x="78.5" y="-78.5" font-family="Helvetica,sans-Serif" font-size="10.00" fill="#000000">::ContentView&lt; JTabbedPane &gt;</text>
<polyline fill="none" stroke="#000000" points="0,-71.5 157,-71.5 "/>
<text text-anchor="middle" x="78.5" y="-59.5" font-family="Helvetica,sans-Serif" font-size="10.00" fill="#000000"> </text>
<polyline fill="none" stroke="#000000" points="0,-52.5 157,-52.5 "/>
<text text-anchor="start" x="8" y="-40.5" font-family="Helvetica,sans-Serif" font-size="10.00" fill="#000000">+ ContentView()</text>
<text text-anchor="start" x="8" y="-29.5" font-family="Helvetica,sans-Serif" font-size="10.00" fill="#000000">+ render()</text>
<text text-anchor="start" x="8" y="-18.5" font-family="Helvetica,sans-Serif" font-size="10.00" fill="#000000"># initialize()</text>
</a>
</g>
</g>
<!-- Node0&#45;&gt;Node6 -->
<g id="edge7" class="edge">
<title>Node0&#45;&gt;Node6</title>
<path fill="none" stroke="#191970" d="M243.3108,-158.3858C218.4613,-144.0494 191.2519,-128.0895 166.5,-113 160.4542,-109.3143 154.2081,-105.4403 147.9631,-101.5209"/>
<polygon fill="none" stroke="#191970" points="241.5813,-161.4287 251.994,-163.385 245.074,-155.3623 241.5813,-161.4287"/>
</g>
<!-- Node7 -->
<g id="node8" class="node">
<title>Node7</title>
<g id="a_node8"><a xlink:href="classene_1_1views_1_1gui_1_1WindowView.html" target="_top" xlink:title="{ene::views::gui::WindowView\l\&lt; JFrame \&gt;\n||+ setTitle()\l+ getTitle()\l+ WindowView()\l+ render()\l# initialize()\l}">
<polygon fill="none" stroke="#000000" points="175.5,-.5 175.5,-112.5 321.5,-112.5 321.5,-.5 175.5,-.5"/>
<text text-anchor="start" x="183.5" y="-100.5" font-family="Helvetica,sans-Serif" font-size="10.00" fill="#000000">ene::views::gui::WindowView</text>
<text text-anchor="middle" x="248.5" y="-89.5" font-family="Helvetica,sans-Serif" font-size="10.00" fill="#000000">&lt; JFrame &gt;</text>
<polyline fill="none" stroke="#000000" points="175.5,-82.5 321.5,-82.5 "/>
<text text-anchor="middle" x="248.5" y="-70.5" font-family="Helvetica,sans-Serif" font-size="10.00" fill="#000000"> </text>
<polyline fill="none" stroke="#000000" points="175.5,-63.5 321.5,-63.5 "/>
<text text-anchor="start" x="183.5" y="-51.5" font-family="Helvetica,sans-Serif" font-size="10.00" fill="#000000">+ setTitle()</text>
<text text-anchor="start" x="183.5" y="-40.5" font-family="Helvetica,sans-Serif" font-size="10.00" fill="#000000">+ getTitle()</text>
<text text-anchor="start" x="183.5" y="-29.5" font-family="Helvetica,sans-Serif" font-size="10.00" fill="#000000">+ WindowView()</text>
<text text-anchor="start" x="183.5" y="-18.5" font-family="Helvetica,sans-Serif" font-size="10.00" fill="#000000">+ render()</text>
<text text-anchor="start" x="183.5" y="-7.5" font-family="Helvetica,sans-Serif" font-size="10.00" fill="#000000"># initialize()</text>
</a>
</g>
</g>
<!-- Node0&#45;&gt;Node7 -->
<g id="edge8" class="edge">
<title>Node0&#45;&gt;Node7</title>
<path fill="none" stroke="#191970" d="M298.1593,-151.362C291.5441,-138.7253 284.4858,-125.2421 277.8287,-112.5254"/>
<polygon fill="none" stroke="#191970" points="295.147,-153.1545 302.8858,-160.3907 301.3487,-149.908 295.147,-153.1545"/>
</g>
<!-- Node8 -->
<g id="node9" class="node">
<title>Node8</title>
<g id="a_node9"><a xlink:href="classene_1_1views_1_1AbstractMasterView.html" target="_top" xlink:title="{ene.views.AbstractMaster\lView\&lt; JTabbedPane \&gt;\n|# views\l|+ addView()\l+ setAllViews()\l+ getAllViews()\l}">
<polygon fill="none" stroke="#000000" points="340,-11.5 340,-101.5 471,-101.5 471,-11.5 340,-11.5"/>
<text text-anchor="start" x="348" y="-89.5" font-family="Helvetica,sans-Serif" font-size="10.00" fill="#000000">ene.views.AbstractMaster</text>
<text text-anchor="middle" x="405.5" y="-78.5" font-family="Helvetica,sans-Serif" font-size="10.00" fill="#000000">View&lt; JTabbedPane &gt;</text>
<polyline fill="none" stroke="#000000" points="340,-71.5 471,-71.5 "/>
<text text-anchor="start" x="348" y="-59.5" font-family="Helvetica,sans-Serif" font-size="10.00" fill="#000000"># views</text>
<polyline fill="none" stroke="#000000" points="340,-52.5 471,-52.5 "/>
<text text-anchor="start" x="348" y="-40.5" font-family="Helvetica,sans-Serif" font-size="10.00" fill="#000000">+ addView()</text>
<text text-anchor="start" x="348" y="-29.5" font-family="Helvetica,sans-Serif" font-size="10.00" fill="#000000">+ setAllViews()</text>
<text text-anchor="start" x="348" y="-18.5" font-family="Helvetica,sans-Serif" font-size="10.00" fill="#000000">+ getAllViews()</text>
</a>
</g>
</g>
<!-- Node0&#45;&gt;Node8 -->
<g id="edge9" class="edge">
<title>Node0&#45;&gt;Node8</title>
<path fill="none" stroke="#ffa500" d="M355.1375,-151.4874C363.7955,-135.1579 373.2083,-117.4046 381.5281,-101.7129"/>
<polygon fill="#ffa500" stroke="#ffa500" points="352.0091,-149.9162 350.417,-160.3907 358.1936,-153.1953 352.0091,-149.9162"/>
<text text-anchor="middle" x="406.5" y="-134" font-family="Helvetica,sans-Serif" font-size="10.00" fill="#000000"> &lt; JTabbedPane &gt;</text>
</g>
<!-- Node9 -->
<g id="node10" class="node">
<title>Node9</title>
<g id="a_node10"><a xlink:href="classene_1_1views_1_1AbstractMasterView.html" target="_top" xlink:title="{ene.views.AbstractMaster\lView\&lt; JFrame \&gt;\n|# views\l|+ addView()\l+ setAllViews()\l+ getAllViews()\l}">
<polygon fill="none" stroke="#000000" points="489,-11.5 489,-101.5 620,-101.5 620,-11.5 489,-11.5"/>
<text text-anchor="start" x="497" y="-89.5" font-family="Helvetica,sans-Serif" font-size="10.00" fill="#000000">ene.views.AbstractMaster</text>
<text text-anchor="middle" x="554.5" y="-78.5" font-family="Helvetica,sans-Serif" font-size="10.00" fill="#000000">View&lt; JFrame &gt;</text>
<polyline fill="none" stroke="#000000" points="489,-71.5 620,-71.5 "/>
<text text-anchor="start" x="497" y="-59.5" font-family="Helvetica,sans-Serif" font-size="10.00" fill="#000000"># views</text>
<polyline fill="none" stroke="#000000" points="489,-52.5 620,-52.5 "/>
<text text-anchor="start" x="497" y="-40.5" font-family="Helvetica,sans-Serif" font-size="10.00" fill="#000000">+ addView()</text>
<text text-anchor="start" x="497" y="-29.5" font-family="Helvetica,sans-Serif" font-size="10.00" fill="#000000">+ setAllViews()</text>
<text text-anchor="start" x="497" y="-18.5" font-family="Helvetica,sans-Serif" font-size="10.00" fill="#000000">+ getAllViews()</text>
</a>
</g>
</g>
<!-- Node0&#45;&gt;Node9 -->
<g id="edge10" class="edge">
<title>Node0&#45;&gt;Node9</title>
<path fill="none" stroke="#ffa500" d="M410.2828,-166.2089C424.3503,-158.6928 438.5682,-150.4989 451.5,-142 469.6589,-130.0658 488.2931,-115.4438 504.633,-101.6893"/>
<polygon fill="#ffa500" stroke="#ffa500" points="408.2997,-163.2971 401.0751,-171.0466 411.5555,-169.4939 408.2997,-163.2971"/>
<text text-anchor="middle" x="493" y="-134" font-family="Helvetica,sans-Serif" font-size="10.00" fill="#000000"> &lt; JFrame &gt;</text>
</g>
<!-- Node1 -->
<g id="node2" class="node">
<title>Node1</title>
<g id="a_node2"><a xlink:href="classene_1_1views_1_1AbstractView.html" target="_top" xlink:title="{ene::views::AbstractView\l\&lt; CoreComponentType \&gt;\n|# title\l# coreComponent\l# layoutPosition\l|+ setTitle()\l+ getTitle()\l+ setCoreComponent()\l+ getCoreComponent()\l+ setLayoutPosition()\l+ getLayoutPosition()\l}">
<polygon fill="none" stroke="#000000" points="187.5,-288.5 187.5,-433.5 315.5,-433.5 315.5,-288.5 187.5,-288.5"/>
<text text-anchor="start" x="195.5" y="-421.5" font-family="Helvetica,sans-Serif" font-size="10.00" fill="#000000">ene::views::AbstractView</text>
<text text-anchor="middle" x="251.5" y="-410.5" font-family="Helvetica,sans-Serif" font-size="10.00" fill="#000000">&lt; CoreComponentType &gt;</text>
<polyline fill="none" stroke="#000000" points="187.5,-403.5 315.5,-403.5 "/>
<text text-anchor="start" x="195.5" y="-391.5" font-family="Helvetica,sans-Serif" font-size="10.00" fill="#000000"># title</text>
<text text-anchor="start" x="195.5" y="-380.5" font-family="Helvetica,sans-Serif" font-size="10.00" fill="#000000"># coreComponent</text>
<text text-anchor="start" x="195.5" y="-369.5" font-family="Helvetica,sans-Serif" font-size="10.00" fill="#000000"># layoutPosition</text>
<polyline fill="none" stroke="#000000" points="187.5,-362.5 315.5,-362.5 "/>
<text text-anchor="start" x="195.5" y="-350.5" font-family="Helvetica,sans-Serif" font-size="10.00" fill="#000000">+ setTitle()</text>
<text text-anchor="start" x="195.5" y="-339.5" font-family="Helvetica,sans-Serif" font-size="10.00" fill="#000000">+ getTitle()</text>
<text text-anchor="start" x="195.5" y="-328.5" font-family="Helvetica,sans-Serif" font-size="10.00" fill="#000000">+ setCoreComponent()</text>
<text text-anchor="start" x="195.5" y="-317.5" font-family="Helvetica,sans-Serif" font-size="10.00" fill="#000000">+ getCoreComponent()</text>
<text text-anchor="start" x="195.5" y="-306.5" font-family="Helvetica,sans-Serif" font-size="10.00" fill="#000000">+ setLayoutPosition()</text>
<text text-anchor="start" x="195.5" y="-295.5" font-family="Helvetica,sans-Serif" font-size="10.00" fill="#000000">+ getLayoutPosition()</text>
</a>
</g>
</g>
<!-- Node1&#45;&gt;Node0 -->
<g id="edge1" class="edge">
<title>Node1&#45;&gt;Node0</title>
<path fill="none" stroke="#191970" d="M290.9329,-279.2425C295.6646,-269.4321 300.3552,-259.7069 304.7022,-250.6941"/>
<polygon fill="none" stroke="#191970" points="287.7763,-277.7305 286.5845,-288.2581 294.0813,-280.7716 287.7763,-277.7305"/>
</g>
<!-- Node2 -->
<g id="node3" class="node">
<title>Node2</title>
<g id="a_node3"><a xlink:href="classene_1_1AbstractObject.html" target="_top" xlink:title="{ene.AbstractObject\n|# debugModeEnabled\l|+ enableDebugMode()\l+ disableDebugMode()\l+ isDebugModeEnabled()\l+ debugInfoAbout()\l+ consoleOutput()\l# delay()\l}">
<polygon fill="none" stroke="#000000" points="41,-482.5 41,-594.5 168,-594.5 168,-482.5 41,-482.5"/>
<text text-anchor="middle" x="104.5" y="-582.5" font-family="Helvetica,sans-Serif" font-size="10.00" fill="#000000">ene.AbstractObject</text>
<polyline fill="none" stroke="#000000" points="41,-575.5 168,-575.5 "/>
<text text-anchor="start" x="49" y="-563.5" font-family="Helvetica,sans-Serif" font-size="10.00" fill="#000000"># debugModeEnabled</text>
<polyline fill="none" stroke="#000000" points="41,-556.5 168,-556.5 "/>
<text text-anchor="start" x="49" y="-544.5" font-family="Helvetica,sans-Serif" font-size="10.00" fill="#000000">+ enableDebugMode()</text>
<text text-anchor="start" x="49" y="-533.5" font-family="Helvetica,sans-Serif" font-size="10.00" fill="#000000">+ disableDebugMode()</text>
<text text-anchor="start" x="49" y="-522.5" font-family="Helvetica,sans-Serif" font-size="10.00" fill="#000000">+ isDebugModeEnabled()</text>
<text text-anchor="start" x="49" y="-511.5" font-family="Helvetica,sans-Serif" font-size="10.00" fill="#000000">+ debugInfoAbout()</text>
<text text-anchor="start" x="49" y="-500.5" font-family="Helvetica,sans-Serif" font-size="10.00" fill="#000000">+ consoleOutput()</text>
<text text-anchor="start" x="49" y="-489.5" font-family="Helvetica,sans-Serif" font-size="10.00" fill="#000000"># delay()</text>
</a>
</g>
</g>
<!-- Node2&#45;&gt;Node1 -->
<g id="edge2" class="edge">
<title>Node2&#45;&gt;Node1</title>
<path fill="none" stroke="#191970" d="M157.3984,-474.6261C168.3909,-461.3528 180.0522,-447.272 191.2853,-433.7082"/>
<polygon fill="none" stroke="#191970" points="154.6945,-472.4037 151.0117,-482.3379 160.0857,-476.8686 154.6945,-472.4037"/>
</g>
<!-- Node3 -->
<g id="node4" class="node">
<title>Node3</title>
<g id="a_node4"><a xlink:href="interfaceene_1_1interfaces_1_1View.html" target="_top" xlink:title="{ene::interfaces::View\l\&lt; CoreComponentType \&gt;\n||+ setTitle()\l+ getTitle()\l+ setCoreComponent()\l+ getCoreComponent()\l+ setLayoutPosition()\l+ getLayoutPosition()\l+ render()\l}">
<polygon fill="none" stroke="#000000" points="338.5,-471.5 338.5,-605.5 466.5,-605.5 466.5,-471.5 338.5,-471.5"/>
<text text-anchor="start" x="346.5" y="-593.5" font-family="Helvetica,sans-Serif" font-size="10.00" fill="#000000">ene::interfaces::View</text>
<text text-anchor="middle" x="402.5" y="-582.5" font-family="Helvetica,sans-Serif" font-size="10.00" fill="#000000">&lt; CoreComponentType &gt;</text>
<polyline fill="none" stroke="#000000" points="338.5,-575.5 466.5,-575.5 "/>
<text text-anchor="middle" x="402.5" y="-563.5" font-family="Helvetica,sans-Serif" font-size="10.00" fill="#000000"> </text>
<polyline fill="none" stroke="#000000" points="338.5,-556.5 466.5,-556.5 "/>
<text text-anchor="start" x="346.5" y="-544.5" font-family="Helvetica,sans-Serif" font-size="10.00" fill="#000000">+ setTitle()</text>
<text text-anchor="start" x="346.5" y="-533.5" font-family="Helvetica,sans-Serif" font-size="10.00" fill="#000000">+ getTitle()</text>
<text text-anchor="start" x="346.5" y="-522.5" font-family="Helvetica,sans-Serif" font-size="10.00" fill="#000000">+ setCoreComponent()</text>
<text text-anchor="start" x="346.5" y="-511.5" font-family="Helvetica,sans-Serif" font-size="10.00" fill="#000000">+ getCoreComponent()</text>
<text text-anchor="start" x="346.5" y="-500.5" font-family="Helvetica,sans-Serif" font-size="10.00" fill="#000000">+ setLayoutPosition()</text>
<text text-anchor="start" x="346.5" y="-489.5" font-family="Helvetica,sans-Serif" font-size="10.00" fill="#000000">+ getLayoutPosition()</text>
<text text-anchor="start" x="346.5" y="-478.5" font-family="Helvetica,sans-Serif" font-size="10.00" fill="#000000">+ render()</text>
</a>
</g>
</g>
<!-- Node3&#45;&gt;Node1 -->
<g id="edge3" class="edge">
<title>Node3&#45;&gt;Node1</title>
<path fill="none" stroke="#191970" d="M338.6947,-463.4971C330.2533,-453.5742 321.612,-443.4164 313.2068,-433.5361"/>
<polygon fill="none" stroke="#191970" points="336.2679,-466.046 345.4134,-471.3949 341.5996,-461.5102 336.2679,-466.046"/>
</g>
<!-- Node5 -->
<g id="node6" class="node">
<title>Node5</title>
<g id="a_node6"><a xlink:href="interfaceene_1_1interfaces_1_1MasterView.html" target="_top" xlink:title="{ene::interfaces::MasterView\l\&lt; CoreComponentType \&gt;\n||+ addView()\l+ setAllViews()\l+ getAllViews()\l}">
<polygon fill="none" stroke="#000000" points="334,-316 334,-406 473,-406 473,-316 334,-316"/>
<text text-anchor="start" x="342" y="-394" font-family="Helvetica,sans-Serif" font-size="10.00" fill="#000000">ene::interfaces::MasterView</text>
<text text-anchor="middle" x="403.5" y="-383" font-family="Helvetica,sans-Serif" font-size="10.00" fill="#000000">&lt; CoreComponentType &gt;</text>
<polyline fill="none" stroke="#000000" points="334,-376 473,-376 "/>
<text text-anchor="middle" x="403.5" y="-364" font-family="Helvetica,sans-Serif" font-size="10.00" fill="#000000"> </text>
<polyline fill="none" stroke="#000000" points="334,-357 473,-357 "/>
<text text-anchor="start" x="342" y="-345" font-family="Helvetica,sans-Serif" font-size="10.00" fill="#000000">+ addView()</text>
<text text-anchor="start" x="342" y="-334" font-family="Helvetica,sans-Serif" font-size="10.00" fill="#000000">+ setAllViews()</text>
<text text-anchor="start" x="342" y="-323" font-family="Helvetica,sans-Serif" font-size="10.00" fill="#000000">+ getAllViews()</text>
</a>
</g>
</g>
<!-- Node3&#45;&gt;Node5 -->
<g id="edge6" class="edge">
<title>Node3&#45;&gt;Node5</title>
<path fill="none" stroke="#191970" d="M402.9348,-461.3251C403.0409,-442.4841 403.1511,-422.935 403.2456,-406.153"/>
<polygon fill="none" stroke="#191970" points="399.4345,-461.3753 402.8781,-471.3949 406.4344,-461.4148 399.4345,-461.3753"/>
</g>
<!-- Node4 -->
<g id="node5" class="node">
<title>Node4</title>
<g id="a_node5"><a xlink:href="interfaceene_1_1interfaces_1_1Localization.html" target="_top" xlink:title="{ene.interfaces.Localization\n|+ DEFAULT_LOCALE\l|+ getString()\l}">
<polygon fill="none" stroke="#000000" points="186,-510 186,-567 319,-567 319,-510 186,-510"/>
<text text-anchor="middle" x="252.5" y="-555" font-family="Helvetica,sans-Serif" font-size="10.00" fill="#000000">ene.interfaces.Localization</text>
<polyline fill="none" stroke="#000000" points="186,-548 319,-548 "/>
<text text-anchor="start" x="194" y="-536" font-family="Helvetica,sans-Serif" font-size="10.00" fill="#000000">+ DEFAULT_LOCALE</text>
<polyline fill="none" stroke="#000000" points="186,-529 319,-529 "/>
<text text-anchor="start" x="194" y="-517" font-family="Helvetica,sans-Serif" font-size="10.00" fill="#000000">+ getString()</text>
</a>
</g>
</g>
<!-- Node4&#45;&gt;Node1 -->
<g id="edge4" class="edge">
<title>Node4&#45;&gt;Node1</title>
<path fill="none" stroke="#191970" d="M252.2818,-499.7744C252.173,-480.4628 252.0378,-456.4585 251.9105,-433.8723"/>
<polygon fill="none" stroke="#191970" points="248.783,-500.0015 252.3393,-509.9816 255.7828,-499.962 248.783,-500.0015"/>
</g>
<!-- Node5&#45;&gt;Node0 -->
<g id="edge5" class="edge">
<title>Node5&#45;&gt;Node0</title>
<path fill="none" stroke="#191970" d="M376.5313,-306.5372C367.4931,-288.2847 357.5208,-268.1459 348.8734,-250.6827"/>
<polygon fill="none" stroke="#191970" points="373.4473,-308.1966 381.0214,-315.6049 379.7204,-305.0903 373.4473,-308.1966"/>
</g>
</g>
</svg>
