<?xml version="1.0" encoding="UTF-8" standalone="no"?>
<!DOCTYPE svg PUBLIC "-//W3C//DTD SVG 1.1//EN"
 "http://www.w3.org/Graphics/SVG/1.1/DTD/svg11.dtd">
<!-- Generated by graphviz version 2.40.1 (20161225.0304)
 -->
<!-- Title: ene.views.gui.partial.PlayerView.update Pages: 1 -->
<svg width="978pt" height="548pt"
 viewBox="0.00 0.00 978.00 548.00" xmlns="http://www.w3.org/2000/svg" xmlns:xlink="http://www.w3.org/1999/xlink">
<g id="graph0" class="graph" transform="scale(1 1) rotate(0) translate(4 544)">
<title>ene.views.gui.partial.PlayerView.update</title>
<!-- Node69 -->
<g id="node1" class="node">
<title>Node69</title>
<polygon fill="#bfbfbf" stroke="#000000" points="0,-230.5 0,-260.5 137,-260.5 137,-230.5 0,-230.5"/>
<text text-anchor="start" x="8" y="-248.5" font-family="Helvetica,sans-Serif" font-size="10.00" fill="#000000">ene.views.gui.partial.Player</text>
<text text-anchor="middle" x="68.5" y="-237.5" font-family="Helvetica,sans-Serif" font-size="10.00" fill="#000000">View.update</text>
</g>
<!-- Node70 -->
<g id="node2" class="node">
<title>Node70</title>
<g id="a_node2"><a xlink:href="classene_1_1views_1_1gui_1_1partial_1_1PlayerView.html#a7126e270c8cc5956e79773eddc508655" target="_top" xlink:title="ene.views.gui.partial.Player\lView.disablePlayerControls">
<polygon fill="none" stroke="#000000" points="195.5,-509.5 195.5,-539.5 332.5,-539.5 332.5,-509.5 195.5,-509.5"/>
<text text-anchor="start" x="203.5" y="-527.5" font-family="Helvetica,sans-Serif" font-size="10.00" fill="#000000">ene.views.gui.partial.Player</text>
<text text-anchor="middle" x="264" y="-516.5" font-family="Helvetica,sans-Serif" font-size="10.00" fill="#000000">View.disablePlayerControls</text>
</a>
</g>
</g>
<!-- Node69&#45;&gt;Node70 -->
<g id="edge1" class="edge">
<title>Node69&#45;&gt;Node70</title>
<path fill="none" stroke="#191970" d="M70.4509,-260.5638C76.8096,-303.5265 100.8646,-427.8431 173,-494.5 177.1234,-498.3102 181.7412,-501.6373 186.6514,-504.5422"/>
<polygon fill="#191970" stroke="#191970" points="185.2815,-507.7761 195.762,-509.3286 188.5371,-501.5792 185.2815,-507.7761"/>
</g>
<!-- Node71 -->
<g id="node3" class="node">
<title>Node71</title>
<g id="a_node3"><a xlink:href="classene_1_1views_1_1gui_1_1partial_1_1PlayerView.html#a3098a851f88f8b9ce6d4e2fcacdf55c9" target="_top" xlink:title="ene.views.gui.partial.Player\lView.enablePlayerControls">
<polygon fill="none" stroke="#000000" points="195.5,-362.5 195.5,-392.5 332.5,-392.5 332.5,-362.5 195.5,-362.5"/>
<text text-anchor="start" x="203.5" y="-380.5" font-family="Helvetica,sans-Serif" font-size="10.00" fill="#000000">ene.views.gui.partial.Player</text>
<text text-anchor="middle" x="264" y="-369.5" font-family="Helvetica,sans-Serif" font-size="10.00" fill="#000000">View.enablePlayerControls</text>
</a>
</g>
</g>
<!-- Node69&#45;&gt;Node71 -->
<g id="edge2" class="edge">
<title>Node69&#45;&gt;Node71</title>
<path fill="none" stroke="#191970" d="M80.0539,-260.5002C97.7814,-282.5521 133.7812,-323.677 173,-347.5 179.9744,-351.7365 187.6172,-355.4509 195.4163,-358.6879"/>
<polygon fill="#191970" stroke="#191970" points="194.3838,-362.0416 204.9725,-362.4023 196.9199,-355.5171 194.3838,-362.0416"/>
</g>
<!-- Node72 -->
<g id="node4" class="node">
<title>Node72</title>
<g id="a_node4"><a xlink:href="classene_1_1views_1_1AbstractPartialView.html#afb90f9e02eea94a2fb276d711a67ee36" target="_top" xlink:title="ene.views.AbstractPartial\lView.getModel">
<polygon fill="none" stroke="#000000" points="628.5,-465.5 628.5,-495.5 756.5,-495.5 756.5,-465.5 628.5,-465.5"/>
<text text-anchor="start" x="636.5" y="-483.5" font-family="Helvetica,sans-Serif" font-size="10.00" fill="#000000">ene.views.AbstractPartial</text>
<text text-anchor="middle" x="692.5" y="-472.5" font-family="Helvetica,sans-Serif" font-size="10.00" fill="#000000">View.getModel</text>
</a>
</g>
</g>
<!-- Node69&#45;&gt;Node72 -->
<g id="edge10" class="edge">
<title>Node69&#45;&gt;Node72</title>
<path fill="none" stroke="#191970" d="M74.1874,-260.7588C86.8018,-292.4183 120.2476,-365.3806 173,-402.5 307.3969,-497.0689 509.9695,-497.1541 618.1636,-488.9109"/>
<polygon fill="#191970" stroke="#191970" points="618.6479,-492.3833 628.3339,-488.0901 618.0847,-485.406 618.6479,-492.3833"/>
</g>
<!-- Node73 -->
<g id="node5" class="node">
<title>Node73</title>
<g id="a_node5"><a xlink:href="classene_1_1views_1_1gui_1_1partial_1_1PlayerView.html#a46b869b84db253abe071d06cb4629925" target="_top" xlink:title="ene.views.gui.partial.Player\lView.isCurrentTrackPartOfCurrent\lPlaylist">
<polygon fill="none" stroke="#000000" points="401.5,-323 401.5,-364 568.5,-364 568.5,-323 401.5,-323"/>
<text text-anchor="start" x="409.5" y="-352" font-family="Helvetica,sans-Serif" font-size="10.00" fill="#000000">ene.views.gui.partial.Player</text>
<text text-anchor="start" x="409.5" y="-341" font-family="Helvetica,sans-Serif" font-size="10.00" fill="#000000">View.isCurrentTrackPartOfCurrent</text>
<text text-anchor="middle" x="485" y="-330" font-family="Helvetica,sans-Serif" font-size="10.00" fill="#000000">Playlist</text>
</a>
</g>
</g>
<!-- Node69&#45;&gt;Node73 -->
<g id="edge19" class="edge">
<title>Node69&#45;&gt;Node73</title>
<path fill="none" stroke="#191970" d="M85.5423,-260.6492C105.1224,-277.07 138.9544,-302.5285 173,-314.5 243.2466,-339.2009 327.571,-345.7781 390.836,-346.5509"/>
<polygon fill="#191970" stroke="#191970" points="391.1743,-350.0534 401.2001,-346.6281 391.2265,-343.0536 391.1743,-350.0534"/>
</g>
<!-- Node79 -->
<g id="node11" class="node">
<title>Node79</title>
<g id="a_node11"><a xlink:href="classene_1_1views_1_1gui_1_1partial_1_1PlayerView.html#a4dc768b48e41f0ea98929d8069ef790a" target="_top" xlink:title="ene.views.gui.partial.Player\lView.getPlayerController">
<polygon fill="none" stroke="#000000" points="416.5,-224.5 416.5,-254.5 553.5,-254.5 553.5,-224.5 416.5,-224.5"/>
<text text-anchor="start" x="424.5" y="-242.5" font-family="Helvetica,sans-Serif" font-size="10.00" fill="#000000">ene.views.gui.partial.Player</text>
<text text-anchor="middle" x="485" y="-231.5" font-family="Helvetica,sans-Serif" font-size="10.00" fill="#000000">View.getPlayerController</text>
</a>
</g>
</g>
<!-- Node69&#45;&gt;Node79 -->
<g id="edge11" class="edge">
<title>Node69&#45;&gt;Node79</title>
<path fill="none" stroke="#191970" d="M137.2765,-244.5092C211.2419,-243.4437 328.6511,-241.7523 406.2622,-240.6343"/>
<polygon fill="#191970" stroke="#191970" points="406.5193,-244.131 416.4678,-240.4873 406.4184,-237.1318 406.5193,-244.131"/>
</g>
<!-- Node80 -->
<g id="node12" class="node">
<title>Node80</title>
<g id="a_node12"><a xlink:href="interfaceene_1_1interfaces_1_1Localization.html#ae7d5c65647a8bd1ca0c27b3279b0751c" target="_top" xlink:title="ene.interfaces.Localization.get\lString">
<polygon fill="none" stroke="#000000" points="189.5,-98.5 189.5,-128.5 338.5,-128.5 338.5,-98.5 189.5,-98.5"/>
<text text-anchor="start" x="197.5" y="-116.5" font-family="Helvetica,sans-Serif" font-size="10.00" fill="#000000">ene.interfaces.Localization.get</text>
<text text-anchor="middle" x="264" y="-105.5" font-family="Helvetica,sans-Serif" font-size="10.00" fill="#000000">String</text>
</a>
</g>
</g>
<!-- Node69&#45;&gt;Node80 -->
<g id="edge12" class="edge">
<title>Node69&#45;&gt;Node80</title>
<path fill="none" stroke="#191970" d="M80.0539,-230.4998C97.7814,-208.4479 133.7812,-167.323 173,-143.5 179.9744,-139.2635 187.6172,-135.5491 195.4163,-132.3121"/>
<polygon fill="#191970" stroke="#191970" points="196.9199,-135.4829 204.9725,-128.5977 194.3838,-128.9584 196.9199,-135.4829"/>
</g>
<!-- Node81 -->
<g id="node13" class="node">
<title>Node81</title>
<g id="a_node13"><a xlink:href="classene_1_1models_1_1PlayerModel.html#ac32610c7511e6187ae364f64e1cf290b" target="_top" xlink:title="ene.models.PlayerModel.get\lTrackLength">
<polygon fill="none" stroke="#000000" points="194,-.5 194,-30.5 334,-30.5 334,-.5 194,-.5"/>
<text text-anchor="start" x="202" y="-18.5" font-family="Helvetica,sans-Serif" font-size="10.00" fill="#000000">ene.models.PlayerModel.get</text>
<text text-anchor="middle" x="264" y="-7.5" font-family="Helvetica,sans-Serif" font-size="10.00" fill="#000000">TrackLength</text>
</a>
</g>
</g>
<!-- Node69&#45;&gt;Node81 -->
<g id="edge13" class="edge">
<title>Node69&#45;&gt;Node81</title>
<path fill="none" stroke="#191970" d="M71.6762,-230.382C80.5113,-192.1839 109.0553,-91.1676 173,-39.5 176.6001,-36.5911 180.5178,-34.0321 184.6386,-31.7811"/>
<polygon fill="#191970" stroke="#191970" points="186.431,-34.8036 193.9401,-27.3293 183.4089,-28.4895 186.431,-34.8036"/>
</g>
<!-- Node84 -->
<g id="node16" class="node">
<title>Node84</title>
<g id="a_node16"><a xlink:href="classene_1_1models_1_1PlayerModel.html#a3108500012be901007a2e809761ac136" target="_top" xlink:title="ene.models.PlayerModel.get\lTrackPosition">
<polygon fill="none" stroke="#000000" points="194,-49.5 194,-79.5 334,-79.5 334,-49.5 194,-49.5"/>
<text text-anchor="start" x="202" y="-67.5" font-family="Helvetica,sans-Serif" font-size="10.00" fill="#000000">ene.models.PlayerModel.get</text>
<text text-anchor="middle" x="264" y="-56.5" font-family="Helvetica,sans-Serif" font-size="10.00" fill="#000000">TrackPosition</text>
</a>
</g>
</g>
<!-- Node69&#45;&gt;Node84 -->
<g id="edge16" class="edge">
<title>Node69&#45;&gt;Node84</title>
<path fill="none" stroke="#191970" d="M74.2321,-230.3042C86.9312,-198.7642 120.5284,-126.0152 173,-88.5 176.5139,-85.9877 180.2725,-83.7384 184.1878,-81.7245"/>
<polygon fill="#191970" stroke="#191970" points="185.9254,-84.7787 193.5666,-77.4396 183.0165,-78.4117 185.9254,-84.7787"/>
</g>
<!-- Node85 -->
<g id="node17" class="node">
<title>Node85</title>
<g id="a_node17"><a xlink:href="classene_1_1controllers_1_1PlayerController.html#a1ed7610fce44dd038ceb2ec2f27ab592" target="_top" xlink:title="ene.controllers.PlayerController.next">
<polygon fill="none" stroke="#000000" points="397.5,-148 397.5,-167 572.5,-167 572.5,-148 397.5,-148"/>
<text text-anchor="middle" x="485" y="-155" font-family="Helvetica,sans-Serif" font-size="10.00" fill="#000000">ene.controllers.PlayerController.next</text>
</a>
</g>
</g>
<!-- Node69&#45;&gt;Node85 -->
<g id="edge20" class="edge">
<title>Node69&#45;&gt;Node85</title>
<path fill="none" stroke="#191970" d="M85.5213,-230.3924C105.0828,-214.05 138.898,-188.818 173,-177.5 242.0495,-154.5835 324.3247,-150.1816 387.0467,-151.1888"/>
<polygon fill="#191970" stroke="#191970" points="387.2631,-154.6941 397.3344,-151.4051 387.4102,-147.6956 387.2631,-154.6941"/>
</g>
<!-- Node87 -->
<g id="node19" class="node">
<title>Node87</title>
<g id="a_node19"><a xlink:href="classene_1_1views_1_1gui_1_1partial_1_1PlayerView.html#af84e60915df5af5201e75e01a2f9a4a5" target="_top" xlink:title="ene.views.gui.partial.Player\lView.resetProgress">
<polygon fill="none" stroke="#000000" points="195.5,-274.5 195.5,-304.5 332.5,-304.5 332.5,-274.5 195.5,-274.5"/>
<text text-anchor="start" x="203.5" y="-292.5" font-family="Helvetica,sans-Serif" font-size="10.00" fill="#000000">ene.views.gui.partial.Player</text>
<text text-anchor="middle" x="264" y="-281.5" font-family="Helvetica,sans-Serif" font-size="10.00" fill="#000000">View.resetProgress</text>
</a>
</g>
</g>
<!-- Node69&#45;&gt;Node87 -->
<g id="edge22" class="edge">
<title>Node69&#45;&gt;Node87</title>
<path fill="none" stroke="#191970" d="M135.2332,-260.5192C151.9698,-264.286 170.0597,-268.3574 187.2415,-272.2244"/>
<polygon fill="#191970" stroke="#191970" points="186.7113,-275.6926 197.2358,-274.4738 188.2484,-268.8634 186.7113,-275.6926"/>
</g>
<!-- Node91 -->
<g id="node23" class="node">
<title>Node91</title>
<g id="a_node23"><a xlink:href="classene_1_1controllers_1_1PlayerController.html#acea0cc4709105881026516d468c4baf8" target="_top" xlink:title="ene.controllers.PlayerController.toggle\lPlayback">
<polygon fill="none" stroke="#000000" points="173,-186.5 173,-216.5 355,-216.5 355,-186.5 173,-186.5"/>
<text text-anchor="start" x="181" y="-204.5" font-family="Helvetica,sans-Serif" font-size="10.00" fill="#000000">ene.controllers.PlayerController.toggle</text>
<text text-anchor="middle" x="264" y="-193.5" font-family="Helvetica,sans-Serif" font-size="10.00" fill="#000000">Playback</text>
</a>
</g>
</g>
<!-- Node69&#45;&gt;Node91 -->
<g id="edge29" class="edge">
<title>Node69&#45;&gt;Node91</title>
<path fill="none" stroke="#191970" d="M135.2332,-230.4808C151.9698,-226.714 170.0597,-222.6426 187.2415,-218.7756"/>
<polygon fill="#191970" stroke="#191970" points="188.2484,-222.1366 197.2358,-216.5262 186.7113,-215.3074 188.2484,-222.1366"/>
</g>
<!-- Node71&#45;&gt;Node72 -->
<g id="edge3" class="edge">
<title>Node71&#45;&gt;Node72</title>
<path fill="none" stroke="#191970" d="M300.7267,-392.5799C325.8199,-402.4405 360.0129,-415.0181 391,-423.5 467.414,-444.4162 556.7978,-460.2673 618.2929,-469.8793"/>
<polygon fill="#191970" stroke="#191970" points="617.8794,-473.3569 628.2969,-471.4264 618.9493,-466.4391 617.8794,-473.3569"/>
</g>
<!-- Node71&#45;&gt;Node73 -->
<g id="edge4" class="edge">
<title>Node71&#45;&gt;Node73</title>
<path fill="none" stroke="#191970" d="M332.7143,-366.9286C351.25,-364.0769 371.6253,-360.9423 391.2759,-357.9191"/>
<polygon fill="#191970" stroke="#191970" points="391.8099,-361.3782 401.1613,-356.3983 390.7454,-354.4596 391.8099,-361.3782"/>
</g>
<!-- Node74 -->
<g id="node6" class="node">
<title>Node74</title>
<g id="a_node6"><a xlink:href="classene_1_1models_1_1PlayerModel.html#af4959d7f4ae27ecf932452aa3ebddae5" target="_top" xlink:title="ene.models.PlayerModel.get\lCurrentTrack">
<polygon fill="none" stroke="#000000" points="622.5,-230.5 622.5,-260.5 762.5,-260.5 762.5,-230.5 622.5,-230.5"/>
<text text-anchor="start" x="630.5" y="-248.5" font-family="Helvetica,sans-Serif" font-size="10.00" fill="#000000">ene.models.PlayerModel.get</text>
<text text-anchor="middle" x="692.5" y="-237.5" font-family="Helvetica,sans-Serif" font-size="10.00" fill="#000000">CurrentTrack</text>
</a>
</g>
</g>
<!-- Node73&#45;&gt;Node74 -->
<g id="edge5" class="edge">
<title>Node73&#45;&gt;Node74</title>
<path fill="none" stroke="#191970" d="M562.1243,-322.9566C568.0336,-320.1722 573.7381,-317.0335 579,-313.5 599.6921,-299.6049 594.3296,-284.4272 615,-270.5 618.0521,-268.4436 621.2847,-266.5469 624.6298,-264.7987"/>
<polygon fill="#191970" stroke="#191970" points="626.1554,-267.9489 633.6998,-260.5103 623.1633,-261.6207 626.1554,-267.9489"/>
</g>
<!-- Node75 -->
<g id="node7" class="node">
<title>Node75</title>
<g id="a_node7"><a xlink:href="classene_1_1models_1_1TrackModel.html#aab88fe151b093dba71ad9f9ab5c6959d" target="_top" xlink:title="ene.models.TrackModel.get\lFilename">
<polygon fill="none" stroke="#000000" points="624,-367.5 624,-397.5 761,-397.5 761,-367.5 624,-367.5"/>
<text text-anchor="start" x="632" y="-385.5" font-family="Helvetica,sans-Serif" font-size="10.00" fill="#000000">ene.models.TrackModel.get</text>
<text text-anchor="middle" x="692.5" y="-374.5" font-family="Helvetica,sans-Serif" font-size="10.00" fill="#000000">Filename</text>
</a>
</g>
</g>
<!-- Node73&#45;&gt;Node75 -->
<g id="edge6" class="edge">
<title>Node73&#45;&gt;Node75</title>
<path fill="none" stroke="#191970" d="M568.5013,-359.1942C583.4157,-361.9974 598.9109,-364.9098 613.6887,-367.6873"/>
<polygon fill="#191970" stroke="#191970" points="613.3143,-371.1781 623.7888,-369.5856 614.6074,-364.2986 613.3143,-371.1781"/>
</g>
<!-- Node76 -->
<g id="node8" class="node">
<title>Node76</title>
<g id="a_node8"><a xlink:href="classene_1_1models_1_1PlayerModel.html#a85b0de48a8e962642825c254f9c47fb0" target="_top" xlink:title="ene.models.PlayerModel.get\lPlaylist">
<polygon fill="none" stroke="#000000" points="622.5,-318.5 622.5,-348.5 762.5,-348.5 762.5,-318.5 622.5,-318.5"/>
<text text-anchor="start" x="630.5" y="-336.5" font-family="Helvetica,sans-Serif" font-size="10.00" fill="#000000">ene.models.PlayerModel.get</text>
<text text-anchor="middle" x="692.5" y="-325.5" font-family="Helvetica,sans-Serif" font-size="10.00" fill="#000000">Playlist</text>
</a>
</g>
</g>
<!-- Node73&#45;&gt;Node76 -->
<g id="edge7" class="edge">
<title>Node73&#45;&gt;Node76</title>
<path fill="none" stroke="#191970" d="M568.5013,-339.4758C582.9098,-338.7815 597.8604,-338.0609 612.1825,-337.3707"/>
<polygon fill="#191970" stroke="#191970" points="612.6634,-340.8517 622.4833,-336.8743 612.3264,-333.8598 612.6634,-340.8517"/>
</g>
<!-- Node77 -->
<g id="node9" class="node">
<title>Node77</title>
<g id="a_node9"><a xlink:href="classene_1_1models_1_1TrackListModel.html#a8e4e0fa1a0a69e1479b62660084fc93c" target="_top" xlink:title="ene.models.TrackListModel.has">
<polygon fill="none" stroke="#000000" points="615,-280 615,-299 770,-299 770,-280 615,-280"/>
<text text-anchor="middle" x="692.5" y="-287" font-family="Helvetica,sans-Serif" font-size="10.00" fill="#000000">ene.models.TrackListModel.has</text>
</a>
</g>
</g>
<!-- Node73&#45;&gt;Node77 -->
<g id="edge8" class="edge">
<title>Node73&#45;&gt;Node77</title>
<path fill="none" stroke="#191970" d="M563.3576,-322.9625C580.3802,-318.5131 598.2915,-313.8409 615,-309.5 624.8852,-306.9318 635.4825,-304.1897 645.5683,-301.5852"/>
<polygon fill="#191970" stroke="#191970" points="646.63,-304.926 655.4382,-299.0382 644.8809,-298.148 646.63,-304.926"/>
</g>
<!-- Node78 -->
<g id="node10" class="node">
<title>Node78</title>
<g id="a_node10"><a xlink:href="classene_1_1models_1_1TrackListModel.html#a77a78d6a93e67e544d83bf5f4856d121" target="_top" xlink:title="ene.models.TrackListModel.getAll">
<polygon fill="none" stroke="#000000" points="806,-280 806,-299 970,-299 970,-280 806,-280"/>
<text text-anchor="middle" x="888" y="-287" font-family="Helvetica,sans-Serif" font-size="10.00" fill="#000000">ene.models.TrackListModel.getAll</text>
</a>
</g>
</g>
<!-- Node77&#45;&gt;Node78 -->
<g id="edge9" class="edge">
<title>Node77&#45;&gt;Node78</title>
<path fill="none" stroke="#191970" d="M770.0476,-289.5C778.4761,-289.5 787.1142,-289.5 795.6962,-289.5"/>
<polygon fill="#191970" stroke="#191970" points="795.729,-293.0001 805.7289,-289.5 795.7289,-286.0001 795.729,-293.0001"/>
</g>
<!-- Node82 -->
<g id="node14" class="node">
<title>Node82</title>
<g id="a_node14"><a xlink:href="classene_1_1AbstractObject.html#a600f6bedef1dc48e610cdfa5f81b7667" target="_top" xlink:title="ene.AbstractObject.delay">
<polygon fill="none" stroke="#000000" points="421.5,-50 421.5,-69 548.5,-69 548.5,-50 421.5,-50"/>
<text text-anchor="middle" x="485" y="-57" font-family="Helvetica,sans-Serif" font-size="10.00" fill="#000000">ene.AbstractObject.delay</text>
</a>
</g>
</g>
<!-- Node81&#45;&gt;Node82 -->
<g id="edge14" class="edge">
<title>Node81&#45;&gt;Node82</title>
<path fill="none" stroke="#191970" d="M334.2294,-29.4823C364.0596,-35.4214 398.4257,-42.2635 426.8073,-47.9141"/>
<polygon fill="#191970" stroke="#191970" points="426.4824,-51.4181 436.9734,-49.9381 427.8493,-44.5528 426.4824,-51.4181"/>
</g>
<!-- Node83 -->
<g id="node15" class="node">
<title>Node83</title>
<g id="a_node15"><a xlink:href="classene_1_1models_1_1PlayerModel.html#aa03431aa1bae96eacf2019c56fd18f45" target="_top" xlink:title="ene.models.PlayerModel.getClip">
<polygon fill="none" stroke="#000000" points="406,-9 406,-28 564,-28 564,-9 406,-9"/>
<text text-anchor="middle" x="485" y="-16" font-family="Helvetica,sans-Serif" font-size="10.00" fill="#000000">ene.models.PlayerModel.getClip</text>
</a>
</g>
</g>
<!-- Node81&#45;&gt;Node83 -->
<g id="edge15" class="edge">
<title>Node81&#45;&gt;Node83</title>
<path fill="none" stroke="#191970" d="M334.2294,-16.4533C353.6916,-16.7175 375.0846,-17.0079 395.4867,-17.2849"/>
<polygon fill="#191970" stroke="#191970" points="395.6819,-20.7878 405.7285,-17.4239 395.777,-13.7884 395.6819,-20.7878"/>
</g>
<!-- Node84&#45;&gt;Node82 -->
<g id="edge17" class="edge">
<title>Node84&#45;&gt;Node82</title>
<path fill="none" stroke="#191970" d="M334.2294,-62.9111C358.7793,-62.3557 386.4015,-61.7307 411.2316,-61.169"/>
<polygon fill="#191970" stroke="#191970" points="411.4021,-64.6661 421.3203,-60.9407 411.2437,-57.6679 411.4021,-64.6661"/>
</g>
<!-- Node84&#45;&gt;Node83 -->
<g id="edge18" class="edge">
<title>Node84&#45;&gt;Node83</title>
<path fill="none" stroke="#191970" d="M334.2294,-49.8821C364.9819,-43.4812 400.5551,-36.0768 429.4222,-30.0682"/>
<polygon fill="#191970" stroke="#191970" points="430.2574,-33.4695 439.3343,-28.0051 428.8309,-26.6164 430.2574,-33.4695"/>
</g>
<!-- Node86 -->
<g id="node18" class="node">
<title>Node86</title>
<g id="a_node18"><a xlink:href="classene_1_1controllers_1_1AbstractController.html#a9a5afba01d0004a64db4cb14c23e0bbd" target="_top" xlink:title="ene.controllers.Abstract\lController\&lt; PlayerModel\l \&gt;::getModel">
<polygon fill="none" stroke="#000000" points="631.5,-170 631.5,-211 753.5,-211 753.5,-170 631.5,-170"/>
<text text-anchor="start" x="639.5" y="-199" font-family="Helvetica,sans-Serif" font-size="10.00" fill="#000000">ene.controllers.Abstract</text>
<text text-anchor="start" x="639.5" y="-188" font-family="Helvetica,sans-Serif" font-size="10.00" fill="#000000">Controller&lt; PlayerModel</text>
<text text-anchor="middle" x="692.5" y="-177" font-family="Helvetica,sans-Serif" font-size="10.00" fill="#000000"> &gt;::getModel</text>
</a>
</g>
</g>
<!-- Node85&#45;&gt;Node86 -->
<g id="edge21" class="edge">
<title>Node85&#45;&gt;Node86</title>
<path fill="none" stroke="#191970" d="M544.7392,-167.0007C568.6259,-170.7995 596.3332,-175.206 621.2566,-179.1697"/>
<polygon fill="#191970" stroke="#191970" points="620.9568,-182.6659 631.3824,-180.7801 622.0563,-175.7528 620.9568,-182.6659"/>
</g>
<!-- Node87&#45;&gt;Node79 -->
<g id="edge25" class="edge">
<title>Node87&#45;&gt;Node79</title>
<path fill="none" stroke="#191970" d="M330.3073,-274.4984C354.8885,-268.937 382.963,-262.5853 408.3875,-256.8331"/>
<polygon fill="#191970" stroke="#191970" points="409.3767,-260.1979 418.3579,-254.5774 407.832,-253.3704 409.3767,-260.1979"/>
</g>
<!-- Node88 -->
<g id="node20" class="node">
<title>Node88</title>
<g id="a_node20"><a xlink:href="classene_1_1controllers_1_1PlayerController.html#a4431d7fb8789a039aba690fa30c7f76f" target="_top" xlink:title="ene.controllers.PlayerController.change\lTrackPosition">
<polygon fill="none" stroke="#000000" points="391,-273.5 391,-303.5 579,-303.5 579,-273.5 391,-273.5"/>
<text text-anchor="start" x="399" y="-291.5" font-family="Helvetica,sans-Serif" font-size="10.00" fill="#000000">ene.controllers.PlayerController.change</text>
<text text-anchor="middle" x="485" y="-280.5" font-family="Helvetica,sans-Serif" font-size="10.00" fill="#000000">TrackPosition</text>
</a>
</g>
</g>
<!-- Node87&#45;&gt;Node88 -->
<g id="edge23" class="edge">
<title>Node87&#45;&gt;Node88</title>
<path fill="none" stroke="#191970" d="M332.7143,-289.1891C347.9293,-289.1202 364.3839,-289.0458 380.6596,-288.9721"/>
<polygon fill="#191970" stroke="#191970" points="380.7738,-292.4717 390.7578,-288.9264 380.742,-285.4718 380.7738,-292.4717"/>
</g>
<!-- Node89 -->
<g id="node21" class="node">
<title>Node89</title>
<g id="a_node21"><a xlink:href="classene_1_1views_1_1gui_1_1partial_1_1PlayerView.html#af324f1c0b5648dab2400b4c0ab33f3ca" target="_top" xlink:title="ene.views.gui.partial.Player\lView.updateProgress">
<polygon fill="none" stroke="#000000" points="416.5,-383.5 416.5,-413.5 553.5,-413.5 553.5,-383.5 416.5,-383.5"/>
<text text-anchor="start" x="424.5" y="-401.5" font-family="Helvetica,sans-Serif" font-size="10.00" fill="#000000">ene.views.gui.partial.Player</text>
<text text-anchor="middle" x="485" y="-390.5" font-family="Helvetica,sans-Serif" font-size="10.00" fill="#000000">View.updateProgress</text>
</a>
</g>
</g>
<!-- Node87&#45;&gt;Node89 -->
<g id="edge26" class="edge">
<title>Node87&#45;&gt;Node89</title>
<path fill="none" stroke="#191970" d="M285.1951,-304.7368C315.327,-326.1838 369.2971,-363.752 391,-373.5 396.3783,-375.9157 402.0379,-378.1374 407.8022,-380.1732"/>
<polygon fill="#191970" stroke="#191970" points="406.9771,-383.5873 417.5707,-383.4252 409.1882,-376.9457 406.9771,-383.5873"/>
</g>
<!-- Node88&#45;&gt;Node86 -->
<g id="edge24" class="edge">
<title>Node88&#45;&gt;Node86</title>
<path fill="none" stroke="#191970" d="M561.6183,-273.3477C567.7042,-270.8364 573.5837,-267.9099 579,-264.5 600.0926,-251.2208 594.8184,-236.1265 615,-221.5 617.6401,-219.5866 620.4148,-217.7701 623.28,-216.0482"/>
<polygon fill="#191970" stroke="#191970" points="625.0493,-219.0693 632.1032,-211.1641 621.6591,-212.945 625.0493,-219.0693"/>
</g>
<!-- Node89&#45;&gt;Node72 -->
<g id="edge27" class="edge">
<title>Node89&#45;&gt;Node72</title>
<path fill="none" stroke="#191970" d="M543.4688,-413.6357C555.5397,-417.7257 567.9369,-422.6701 579,-428.5 596.9323,-437.9497 597.0271,-447.1277 615,-456.5 618.4833,-458.3164 622.1275,-460.022 625.8562,-461.6192"/>
<polygon fill="#191970" stroke="#191970" points="624.6701,-464.9142 635.2552,-465.3678 627.2633,-458.4122 624.6701,-464.9142"/>
</g>
<!-- Node90 -->
<g id="node22" class="node">
<title>Node90</title>
<g id="a_node22"><a xlink:href="classene_1_1views_1_1gui_1_1partial_1_1PlayerView.html#a5214bb8084cfb78242868039e33f78ef" target="_top" xlink:title="ene.views.gui.partial.Player\lView.formatTimeToString">
<polygon fill="none" stroke="#000000" points="624,-416.5 624,-446.5 761,-446.5 761,-416.5 624,-416.5"/>
<text text-anchor="start" x="632" y="-434.5" font-family="Helvetica,sans-Serif" font-size="10.00" fill="#000000">ene.views.gui.partial.Player</text>
<text text-anchor="middle" x="692.5" y="-423.5" font-family="Helvetica,sans-Serif" font-size="10.00" fill="#000000">View.formatTimeToString</text>
</a>
</g>
</g>
<!-- Node89&#45;&gt;Node90 -->
<g id="edge28" class="edge">
<title>Node89&#45;&gt;Node90</title>
<path fill="none" stroke="#191970" d="M553.5183,-409.3969C572.8066,-412.4644 593.9384,-415.8251 613.7726,-418.9795"/>
<polygon fill="#191970" stroke="#191970" points="613.2737,-422.4441 623.6993,-420.5582 614.3732,-415.5309 613.2737,-422.4441"/>
</g>
<!-- Node91&#45;&gt;Node86 -->
<g id="edge30" class="edge">
<title>Node91&#45;&gt;Node86</title>
<path fill="none" stroke="#191970" d="M355.136,-199.1605C434.5793,-197.1211 548.2061,-194.2042 621.1725,-192.331"/>
<polygon fill="#191970" stroke="#191970" points="621.2839,-195.8294 631.1907,-192.0739 621.1041,-188.8317 621.2839,-195.8294"/>
</g>
</g>
</svg>
