<?xml version="1.0" encoding="UTF-8" standalone="no"?>
<!DOCTYPE svg PUBLIC "-//W3C//DTD SVG 1.1//EN"
 "http://www.w3.org/Graphics/SVG/1.1/DTD/svg11.dtd">
<!-- Generated by graphviz version 2.40.1 (20161225.0304)
 -->
<!-- Title: ene.views.gui.partial.PlaylistView.render Pages: 1 -->
<svg width="950pt" height="538pt"
 viewBox="0.00 0.00 950.00 538.00" xmlns="http://www.w3.org/2000/svg" xmlns:xlink="http://www.w3.org/1999/xlink">
<g id="graph0" class="graph" transform="scale(1 1) rotate(0) translate(4 534)">
<title>ene.views.gui.partial.PlaylistView.render</title>
<!-- Node44 -->
<g id="node1" class="node">
<title>Node44</title>
<polygon fill="#bfbfbf" stroke="#000000" points="0,-213.5 0,-243.5 141,-243.5 141,-213.5 0,-213.5"/>
<text text-anchor="start" x="8" y="-231.5" font-family="Helvetica,sans-Serif" font-size="10.00" fill="#000000">ene.views.gui.partial.Playlist</text>
<text text-anchor="middle" x="70.5" y="-220.5" font-family="Helvetica,sans-Serif" font-size="10.00" fill="#000000">View.render</text>
</g>
<!-- Node45 -->
<g id="node2" class="node">
<title>Node45</title>
<g id="a_node2"><a xlink:href="classene_1_1views_1_1gui_1_1partial_1_1PlaylistView.html#a7333a1fc96cbf74f81345651fea52fe8" target="_top" xlink:title="ene.views.gui.partial.Playlist\lView.getPlaylistController">
<polygon fill="none" stroke="#000000" points="193,-499.5 193,-529.5 334,-529.5 334,-499.5 193,-499.5"/>
<text text-anchor="start" x="201" y="-517.5" font-family="Helvetica,sans-Serif" font-size="10.00" fill="#000000">ene.views.gui.partial.Playlist</text>
<text text-anchor="middle" x="263.5" y="-506.5" font-family="Helvetica,sans-Serif" font-size="10.00" fill="#000000">View.getPlaylistController</text>
</a>
</g>
</g>
<!-- Node44&#45;&gt;Node45 -->
<g id="edge1" class="edge">
<title>Node44&#45;&gt;Node45</title>
<path fill="none" stroke="#191970" d="M72.4505,-243.6149C78.8828,-287.3336 103.3945,-415.211 177,-484.5 181.0508,-488.3132 185.6108,-491.6445 190.465,-494.5544"/>
<polygon fill="#191970" stroke="#191970" points="189.0022,-497.7407 199.4741,-499.3501 192.2915,-491.5616 189.0022,-497.7407"/>
</g>
<!-- Node46 -->
<g id="node3" class="node">
<title>Node46</title>
<g id="a_node3"><a xlink:href="classene_1_1views_1_1gui_1_1partial_1_1AbstractTrackListView.html#a35a32113ecdb8bc210fa6b4e9c57c782" target="_top" xlink:title="ene.views.gui.partial.Abstract\lTrackListView.getSelectedFilename">
<polygon fill="none" stroke="#000000" points="177,-345.5 177,-375.5 350,-375.5 350,-345.5 177,-345.5"/>
<text text-anchor="start" x="185" y="-363.5" font-family="Helvetica,sans-Serif" font-size="10.00" fill="#000000">ene.views.gui.partial.Abstract</text>
<text text-anchor="middle" x="263.5" y="-352.5" font-family="Helvetica,sans-Serif" font-size="10.00" fill="#000000">TrackListView.getSelectedFilename</text>
</a>
</g>
</g>
<!-- Node44&#45;&gt;Node46 -->
<g id="edge2" class="edge">
<title>Node44&#45;&gt;Node46</title>
<path fill="none" stroke="#191970" d="M89.3077,-243.5589C110.2588,-260.1119 145.3531,-287.1839 177,-308.5 193.4005,-319.5467 212.1508,-330.9591 227.9922,-340.2681"/>
<polygon fill="#191970" stroke="#191970" points="226.5416,-343.4739 236.9434,-345.4874 230.0676,-337.4267 226.5416,-343.4739"/>
</g>
<!-- Node48 -->
<g id="node5" class="node">
<title>Node48</title>
<g id="a_node5"><a xlink:href="classene_1_1views_1_1gui_1_1partial_1_1AbstractTrackListView.html#a709dd0b919d5e537076fe18ad992f25f" target="_top" xlink:title="ene.views.gui.partial.Abstract\lTrackListView.getTableContent">
<polygon fill="none" stroke="#000000" points="588,-407.5 588,-437.5 742,-437.5 742,-407.5 588,-407.5"/>
<text text-anchor="start" x="596" y="-425.5" font-family="Helvetica,sans-Serif" font-size="10.00" fill="#000000">ene.views.gui.partial.Abstract</text>
<text text-anchor="middle" x="665" y="-414.5" font-family="Helvetica,sans-Serif" font-size="10.00" fill="#000000">TrackListView.getTableContent</text>
</a>
</g>
</g>
<!-- Node44&#45;&gt;Node48 -->
<g id="edge7" class="edge">
<title>Node44&#45;&gt;Node48</title>
<path fill="none" stroke="#191970" d="M76.7774,-243.9743C90.3057,-275.3905 125.2326,-346.9315 177,-385.5 312.7054,-486.6053 384.1049,-472.7005 552,-451.5 570.2253,-449.1986 589.7206,-444.8878 607.2983,-440.2802"/>
<polygon fill="#191970" stroke="#191970" points="608.6636,-443.5368 617.4021,-437.546 606.835,-436.7798 608.6636,-443.5368"/>
</g>
<!-- Node50 -->
<g id="node7" class="node">
<title>Node50</title>
<g id="a_node7"><a xlink:href="interfaceene_1_1interfaces_1_1Localization.html#ae7d5c65647a8bd1ca0c27b3279b0751c" target="_top" xlink:title="ene.interfaces.Localization.get\lString">
<polygon fill="none" stroke="#000000" points="590.5,-358.5 590.5,-388.5 739.5,-388.5 739.5,-358.5 590.5,-358.5"/>
<text text-anchor="start" x="598.5" y="-376.5" font-family="Helvetica,sans-Serif" font-size="10.00" fill="#000000">ene.interfaces.Localization.get</text>
<text text-anchor="middle" x="665" y="-365.5" font-family="Helvetica,sans-Serif" font-size="10.00" fill="#000000">String</text>
</a>
</g>
</g>
<!-- Node44&#45;&gt;Node50 -->
<g id="edge6" class="edge">
<title>Node44&#45;&gt;Node50</title>
<path fill="none" stroke="#191970" d="M98.1058,-243.5515C119.1105,-254.2851 149.0681,-268.081 177,-275.5 338.9502,-318.5159 400.2148,-243.5108 552,-314.5 572.2138,-323.9539 568.8225,-338.0895 588,-349.5 590.8279,-351.1826 593.7854,-352.7584 596.825,-354.2331"/>
<polygon fill="#191970" stroke="#191970" points="595.5813,-357.5101 606.1421,-358.3586 598.4155,-351.1095 595.5813,-357.5101"/>
</g>
<!-- Node51 -->
<g id="node8" class="node">
<title>Node51</title>
<g id="a_node8"><a xlink:href="classene_1_1views_1_1gui_1_1partial_1_1AbstractTrackListView.html#a2b9e7e6496c9675f9094dea99e1e469d" target="_top" xlink:title="ene.views.gui.partial.Abstract\lTrackListView.hideColumn">
<polygon fill="none" stroke="#000000" points="190.5,-147.5 190.5,-177.5 336.5,-177.5 336.5,-147.5 190.5,-147.5"/>
<text text-anchor="start" x="198.5" y="-165.5" font-family="Helvetica,sans-Serif" font-size="10.00" fill="#000000">ene.views.gui.partial.Abstract</text>
<text text-anchor="middle" x="263.5" y="-154.5" font-family="Helvetica,sans-Serif" font-size="10.00" fill="#000000">TrackListView.hideColumn</text>
</a>
</g>
</g>
<!-- Node44&#45;&gt;Node51 -->
<g id="edge8" class="edge">
<title>Node44&#45;&gt;Node51</title>
<path fill="none" stroke="#191970" d="M114.7781,-213.3583C143.0969,-203.6741 180.0019,-191.0537 209.9637,-180.8077"/>
<polygon fill="#191970" stroke="#191970" points="211.0984,-184.1188 219.4279,-177.5713 208.8334,-177.4954 211.0984,-184.1188"/>
</g>
<!-- Node52 -->
<g id="node9" class="node">
<title>Node52</title>
<g id="a_node9"><a xlink:href="classene_1_1views_1_1gui_1_1partial_1_1AbstractTrackListView.html#a7f0f3e14d200a2a0a17afaf8131037c3" target="_top" xlink:title="ene.views.gui.partial.Abstract\lTrackListView.setColumnWidth">
<polygon fill="none" stroke="#000000" points="391.5,-147.5 391.5,-177.5 546.5,-177.5 546.5,-147.5 391.5,-147.5"/>
<text text-anchor="start" x="399.5" y="-165.5" font-family="Helvetica,sans-Serif" font-size="10.00" fill="#000000">ene.views.gui.partial.Abstract</text>
<text text-anchor="middle" x="469" y="-154.5" font-family="Helvetica,sans-Serif" font-size="10.00" fill="#000000">TrackListView.setColumnWidth</text>
</a>
</g>
</g>
<!-- Node44&#45;&gt;Node52 -->
<g id="edge10" class="edge">
<title>Node44&#45;&gt;Node52</title>
<path fill="none" stroke="#191970" d="M141.0142,-218.8957C197.6226,-210.9467 279.0794,-198.9722 350,-186.5 362.1202,-184.3685 374.9024,-181.9608 387.414,-179.5137"/>
<polygon fill="#191970" stroke="#191970" points="388.2397,-182.9183 397.3722,-177.5473 386.8836,-176.0509 388.2397,-182.9183"/>
</g>
<!-- Node53 -->
<g id="node10" class="node">
<title>Node53</title>
<g id="a_node10"><a xlink:href="classene_1_1views_1_1AbstractView.html#aa9bee221c279bc8a9dbada91184d8181" target="_top" xlink:title="ene.views.AbstractView.set\lCoreComponent">
<polygon fill="none" stroke="#000000" points="194,-98.5 194,-128.5 333,-128.5 333,-98.5 194,-98.5"/>
<text text-anchor="start" x="202" y="-116.5" font-family="Helvetica,sans-Serif" font-size="10.00" fill="#000000">ene.views.AbstractView.set</text>
<text text-anchor="middle" x="263.5" y="-105.5" font-family="Helvetica,sans-Serif" font-size="10.00" fill="#000000">CoreComponent</text>
</a>
</g>
</g>
<!-- Node44&#45;&gt;Node53 -->
<g id="edge11" class="edge">
<title>Node44&#45;&gt;Node53</title>
<path fill="none" stroke="#191970" d="M84.1298,-213.2831C103.0437,-193.075 139.2105,-157.6013 177,-137.5 180.4613,-135.6588 184.0776,-133.9478 187.785,-132.359"/>
<polygon fill="#191970" stroke="#191970" points="189.1383,-135.5877 197.152,-128.6573 186.5655,-129.0776 189.1383,-135.5877"/>
</g>
<!-- Node54 -->
<g id="node11" class="node">
<title>Node54</title>
<g id="a_node11"><a xlink:href="classene_1_1views_1_1gui_1_1partial_1_1AbstractTrackListView.html#a597363a2069558d6801c75be622b1988" target="_top" xlink:title="ene.views.gui.partial.Abstract\lTrackListView.setTable">
<polygon fill="none" stroke="#000000" points="190.5,-49.5 190.5,-79.5 336.5,-79.5 336.5,-49.5 190.5,-49.5"/>
<text text-anchor="start" x="198.5" y="-67.5" font-family="Helvetica,sans-Serif" font-size="10.00" fill="#000000">ene.views.gui.partial.Abstract</text>
<text text-anchor="middle" x="263.5" y="-56.5" font-family="Helvetica,sans-Serif" font-size="10.00" fill="#000000">TrackListView.setTable</text>
</a>
</g>
</g>
<!-- Node44&#45;&gt;Node54 -->
<g id="edge12" class="edge">
<title>Node44&#45;&gt;Node54</title>
<path fill="none" stroke="#191970" d="M77.8101,-213.2443C92.453,-184.346 128.2074,-121.5638 177,-88.5 179.2799,-86.955 181.6573,-85.509 184.1078,-84.1556"/>
<polygon fill="#191970" stroke="#191970" points="185.8326,-87.2076 193.2569,-79.6491 182.7395,-80.928 185.8326,-87.2076"/>
</g>
<!-- Node55 -->
<g id="node12" class="node">
<title>Node55</title>
<g id="a_node12"><a xlink:href="classene_1_1views_1_1gui_1_1partial_1_1AbstractTrackListView.html#a7ba0c6e862c2ef6d4e999650b61ec695" target="_top" xlink:title="ene.views.gui.partial.Abstract\lTrackListView.setTableRowSorter">
<polygon fill="none" stroke="#000000" points="180.5,-.5 180.5,-30.5 346.5,-30.5 346.5,-.5 180.5,-.5"/>
<text text-anchor="start" x="188.5" y="-18.5" font-family="Helvetica,sans-Serif" font-size="10.00" fill="#000000">ene.views.gui.partial.Abstract</text>
<text text-anchor="middle" x="263.5" y="-7.5" font-family="Helvetica,sans-Serif" font-size="10.00" fill="#000000">TrackListView.setTableRowSorter</text>
</a>
</g>
</g>
<!-- Node44&#45;&gt;Node55 -->
<g id="edge13" class="edge">
<title>Node44&#45;&gt;Node55</title>
<path fill="none" stroke="#191970" d="M74.6411,-213.3462C85.2605,-177.4075 116.9433,-86.511 177,-39.5 178.7948,-38.0951 180.6668,-36.7724 182.6014,-35.527"/>
<polygon fill="#191970" stroke="#191970" points="184.4447,-38.5058 191.4389,-30.5476 181.0085,-32.4072 184.4447,-38.5058"/>
</g>
<!-- Node56 -->
<g id="node13" class="node">
<title>Node56</title>
<g id="a_node13"><a xlink:href="classene_1_1views_1_1gui_1_1partial_1_1PlaylistView.html#ad2b87823589c6e8895d2d7b98438a2dc" target="_top" xlink:title="ene.views.gui.partial.Playlist\lView.update">
<polygon fill="none" stroke="#000000" points="193,-235.5 193,-265.5 334,-265.5 334,-235.5 193,-235.5"/>
<text text-anchor="start" x="201" y="-253.5" font-family="Helvetica,sans-Serif" font-size="10.00" fill="#000000">ene.views.gui.partial.Playlist</text>
<text text-anchor="middle" x="263.5" y="-242.5" font-family="Helvetica,sans-Serif" font-size="10.00" fill="#000000">View.update</text>
</a>
</g>
</g>
<!-- Node44&#45;&gt;Node56 -->
<g id="edge14" class="edge">
<title>Node44&#45;&gt;Node56</title>
<path fill="none" stroke="#191970" d="M141.2702,-236.5671C154.7751,-238.1065 169.0053,-239.7286 182.7934,-241.3003"/>
<polygon fill="#191970" stroke="#191970" points="182.4063,-244.7787 192.7384,-242.4339 183.1992,-237.8238 182.4063,-244.7787"/>
</g>
<!-- Node47 -->
<g id="node4" class="node">
<title>Node47</title>
<g id="a_node4"><a xlink:href="classene_1_1views_1_1gui_1_1partial_1_1AbstractTrackListView.html#aeea3d90287745704cda06893c94b9666" target="_top" xlink:title="ene.views.gui.partial.Abstract\lTrackListView.getTable">
<polygon fill="none" stroke="#000000" points="396,-411.5 396,-441.5 542,-441.5 542,-411.5 396,-411.5"/>
<text text-anchor="start" x="404" y="-429.5" font-family="Helvetica,sans-Serif" font-size="10.00" fill="#000000">ene.views.gui.partial.Abstract</text>
<text text-anchor="middle" x="469" y="-418.5" font-family="Helvetica,sans-Serif" font-size="10.00" fill="#000000">TrackListView.getTable</text>
</a>
</g>
</g>
<!-- Node46&#45;&gt;Node47 -->
<g id="edge3" class="edge">
<title>Node46&#45;&gt;Node47</title>
<path fill="none" stroke="#191970" d="M310.3883,-375.559C340.6621,-385.282 380.2313,-397.9904 412.2739,-408.2814"/>
<polygon fill="#191970" stroke="#191970" points="411.3666,-411.666 421.9578,-411.3916 413.5071,-405.0013 411.3666,-411.666"/>
</g>
<!-- Node46&#45;&gt;Node48 -->
<g id="edge4" class="edge">
<title>Node46&#45;&gt;Node48</title>
<path fill="none" stroke="#191970" d="M350.0815,-372.3995C407.4341,-380.4554 484.2915,-391.5822 552,-402.5 560.4315,-403.8596 569.2078,-405.3246 577.9769,-406.8216"/>
<polygon fill="#191970" stroke="#191970" points="577.407,-410.2749 587.8558,-408.5216 578.5942,-403.3763 577.407,-410.2749"/>
</g>
<!-- Node49 -->
<g id="node6" class="node">
<title>Node49</title>
<g id="a_node6"><a xlink:href="classene_1_1views_1_1gui_1_1partial_1_1AbstractTrackListView.html#abb6fc383a050c8c908502156536ce518" target="_top" xlink:title="ene.views.gui.partial.Abstract\lTrackListView.getTableRowSorter">
<polygon fill="none" stroke="#000000" points="386,-323.5 386,-353.5 552,-353.5 552,-323.5 386,-323.5"/>
<text text-anchor="start" x="394" y="-341.5" font-family="Helvetica,sans-Serif" font-size="10.00" fill="#000000">ene.views.gui.partial.Abstract</text>
<text text-anchor="middle" x="469" y="-330.5" font-family="Helvetica,sans-Serif" font-size="10.00" fill="#000000">TrackListView.getTableRowSorter</text>
</a>
</g>
</g>
<!-- Node46&#45;&gt;Node49 -->
<g id="edge5" class="edge">
<title>Node46&#45;&gt;Node49</title>
<path fill="none" stroke="#191970" d="M350.0549,-351.2338C358.5697,-350.3222 367.2366,-349.3944 375.8139,-348.4761"/>
<polygon fill="#191970" stroke="#191970" points="376.2566,-351.9488 385.8272,-347.4041 375.5114,-344.9886 376.2566,-351.9488"/>
</g>
<!-- Node51&#45;&gt;Node52 -->
<g id="edge9" class="edge">
<title>Node51&#45;&gt;Node52</title>
<path fill="none" stroke="#191970" d="M336.5302,-162.5C350.9652,-162.5 366.2564,-162.5 381.1233,-162.5"/>
<polygon fill="#191970" stroke="#191970" points="381.3322,-166.0001 391.3321,-162.5 381.3321,-159.0001 381.3322,-166.0001"/>
</g>
<!-- Node57 -->
<g id="node14" class="node">
<title>Node57</title>
<g id="a_node14"><a xlink:href="classene_1_1views_1_1gui_1_1partial_1_1PlaylistView.html#aab891c82686652a49db41a3e1bc1f3b9" target="_top" xlink:title="ene.views.gui.partial.Playlist\lView.loadContent">
<polygon fill="none" stroke="#000000" points="398.5,-235.5 398.5,-265.5 539.5,-265.5 539.5,-235.5 398.5,-235.5"/>
<text text-anchor="start" x="406.5" y="-253.5" font-family="Helvetica,sans-Serif" font-size="10.00" fill="#000000">ene.views.gui.partial.Playlist</text>
<text text-anchor="middle" x="469" y="-242.5" font-family="Helvetica,sans-Serif" font-size="10.00" fill="#000000">View.loadContent</text>
</a>
</g>
</g>
<!-- Node56&#45;&gt;Node57 -->
<g id="edge15" class="edge">
<title>Node56&#45;&gt;Node57</title>
<path fill="none" stroke="#191970" d="M334.2214,-250.5C351.594,-250.5 370.3238,-250.5 388.1337,-250.5"/>
<polygon fill="#191970" stroke="#191970" points="388.4965,-254.0001 398.4965,-250.5 388.4964,-247.0001 388.4965,-254.0001"/>
</g>
<!-- Node64 -->
<g id="node21" class="node">
<title>Node64</title>
<g id="a_node21"><a xlink:href="classene_1_1views_1_1AbstractPartialView.html#afb90f9e02eea94a2fb276d711a67ee36" target="_top" xlink:title="ene.views.AbstractPartial\lView.getModel">
<polygon fill="none" stroke="#000000" points="601,-64.5 601,-94.5 729,-94.5 729,-64.5 601,-64.5"/>
<text text-anchor="start" x="609" y="-82.5" font-family="Helvetica,sans-Serif" font-size="10.00" fill="#000000">ene.views.AbstractPartial</text>
<text text-anchor="middle" x="665" y="-71.5" font-family="Helvetica,sans-Serif" font-size="10.00" fill="#000000">View.getModel</text>
</a>
</g>
</g>
<!-- Node56&#45;&gt;Node64 -->
<g id="edge26" class="edge">
<title>Node56&#45;&gt;Node64</title>
<path fill="none" stroke="#191970" d="M334.2745,-236.4726C416.9225,-219.8442 543.517,-193.5003 552,-186.5 583.0132,-160.9076 558.0866,-130.3697 588,-103.5 589.3249,-102.3099 590.7082,-101.1788 592.1409,-100.1038"/>
<polygon fill="#191970" stroke="#191970" points="594.2917,-102.8826 600.8224,-94.5399 590.5145,-96.989 594.2917,-102.8826"/>
</g>
<!-- Node57&#45;&gt;Node48 -->
<g id="edge24" class="edge">
<title>Node57&#45;&gt;Node48</title>
<path fill="none" stroke="#191970" d="M495.0677,-265.6114C513.0331,-277.1131 536.3929,-294.3662 552,-314.5 576.8845,-346.6021 557.8422,-371.2918 588,-398.5 589.3223,-399.693 590.7033,-400.8267 592.1338,-401.904"/>
<polygon fill="#191970" stroke="#191970" points="590.5013,-405.0153 600.8059,-407.4785 594.2865,-399.1269 590.5013,-405.0153"/>
</g>
<!-- Node57&#45;&gt;Node50 -->
<g id="edge23" class="edge">
<title>Node57&#45;&gt;Node50</title>
<path fill="none" stroke="#191970" d="M528.2876,-265.6883C536.8423,-269.587 545.0786,-274.4494 552,-280.5 578.0418,-303.2655 561.4561,-327.322 588,-349.5 589.5312,-350.7794 591.1305,-351.9907 592.7857,-353.1375"/>
<polygon fill="#191970" stroke="#191970" points="591.0941,-356.2042 601.4691,-358.3513 594.6975,-350.2029 591.0941,-356.2042"/>
</g>
<!-- Node58 -->
<g id="node15" class="node">
<title>Node58</title>
<g id="a_node15"><a xlink:href="classene_1_1models_1_1TrackModel.html#a04afba3cc5098c28ebd394fb7ac920ba" target="_top" xlink:title="ene.models.TrackModel.get\lArtist">
<polygon fill="none" stroke="#000000" points="596.5,-113.5 596.5,-143.5 733.5,-143.5 733.5,-113.5 596.5,-113.5"/>
<text text-anchor="start" x="604.5" y="-131.5" font-family="Helvetica,sans-Serif" font-size="10.00" fill="#000000">ene.models.TrackModel.get</text>
<text text-anchor="middle" x="665" y="-120.5" font-family="Helvetica,sans-Serif" font-size="10.00" fill="#000000">Artist</text>
</a>
</g>
</g>
<!-- Node57&#45;&gt;Node58 -->
<g id="edge16" class="edge">
<title>Node57&#45;&gt;Node58</title>
<path fill="none" stroke="#191970" d="M527.8275,-235.469C536.5392,-231.5425 544.9448,-226.6303 552,-220.5 577.8131,-198.0709 561.6922,-174.3468 588,-152.5 589.5351,-151.2253 591.1378,-150.0181 592.7959,-148.8748"/>
<polygon fill="#191970" stroke="#191970" points="594.7049,-151.8114 601.4913,-143.6754 591.1124,-145.8035 594.7049,-151.8114"/>
</g>
<!-- Node59 -->
<g id="node16" class="node">
<title>Node59</title>
<g id="a_node16"><a xlink:href="classene_1_1models_1_1PlaylistModel.html#ad63fd499a74248dc9dadad29b9882fd2" target="_top" xlink:title="ene.models.PlaylistModel.get\lCurrentTrack">
<polygon fill="none" stroke="#000000" points="592.5,-309.5 592.5,-339.5 737.5,-339.5 737.5,-309.5 592.5,-309.5"/>
<text text-anchor="start" x="600.5" y="-327.5" font-family="Helvetica,sans-Serif" font-size="10.00" fill="#000000">ene.models.PlaylistModel.get</text>
<text text-anchor="middle" x="665" y="-316.5" font-family="Helvetica,sans-Serif" font-size="10.00" fill="#000000">CurrentTrack</text>
</a>
</g>
</g>
<!-- Node57&#45;&gt;Node59 -->
<g id="edge17" class="edge">
<title>Node57&#45;&gt;Node59</title>
<path fill="none" stroke="#191970" d="M514.7575,-265.5551C527.0127,-269.9875 540.1454,-275.1067 552,-280.5 568.6602,-288.0796 571.1746,-293.2945 588,-300.5 592.4327,-302.3983 597.0662,-304.2202 601.7663,-305.9519"/>
<polygon fill="#191970" stroke="#191970" points="600.8695,-309.3469 611.4643,-309.3752 603.1996,-302.7461 600.8695,-309.3469"/>
</g>
<!-- Node62 -->
<g id="node19" class="node">
<title>Node62</title>
<g id="a_node19"><a xlink:href="classene_1_1models_1_1TrackModel.html#aab88fe151b093dba71ad9f9ab5c6959d" target="_top" xlink:title="ene.models.TrackModel.get\lFilename">
<polygon fill="none" stroke="#000000" points="596.5,-260.5 596.5,-290.5 733.5,-290.5 733.5,-260.5 596.5,-260.5"/>
<text text-anchor="start" x="604.5" y="-278.5" font-family="Helvetica,sans-Serif" font-size="10.00" fill="#000000">ene.models.TrackModel.get</text>
<text text-anchor="middle" x="665" y="-267.5" font-family="Helvetica,sans-Serif" font-size="10.00" fill="#000000">Filename</text>
</a>
</g>
</g>
<!-- Node57&#45;&gt;Node62 -->
<g id="edge20" class="edge">
<title>Node57&#45;&gt;Node62</title>
<path fill="none" stroke="#191970" d="M539.7605,-259.5256C554.8719,-261.4531 570.922,-263.5003 586.3106,-265.4631"/>
<polygon fill="#191970" stroke="#191970" points="585.9485,-268.9452 596.3111,-266.7387 586.8343,-262.0014 585.9485,-268.9452"/>
</g>
<!-- Node63 -->
<g id="node20" class="node">
<title>Node63</title>
<g id="a_node20"><a xlink:href="classene_1_1models_1_1PlaylistModel.html#af9e600b621b1b55d22812a70302ff23e" target="_top" xlink:title="ene.models.PlaylistModel.get\lLastAccess">
<polygon fill="none" stroke="#000000" points="592.5,-211.5 592.5,-241.5 737.5,-241.5 737.5,-211.5 592.5,-211.5"/>
<text text-anchor="start" x="600.5" y="-229.5" font-family="Helvetica,sans-Serif" font-size="10.00" fill="#000000">ene.models.PlaylistModel.get</text>
<text text-anchor="middle" x="665" y="-218.5" font-family="Helvetica,sans-Serif" font-size="10.00" fill="#000000">LastAccess</text>
</a>
</g>
</g>
<!-- Node57&#45;&gt;Node63 -->
<g id="edge21" class="edge">
<title>Node57&#45;&gt;Node63</title>
<path fill="none" stroke="#191970" d="M539.7605,-241.8354C553.5253,-240.15 568.0688,-238.3691 582.1819,-236.641"/>
<polygon fill="#191970" stroke="#191970" points="582.8645,-240.0836 592.365,-235.3941 582.0137,-233.1355 582.8645,-240.0836"/>
</g>
<!-- Node57&#45;&gt;Node64 -->
<g id="edge22" class="edge">
<title>Node57&#45;&gt;Node64</title>
<path fill="none" stroke="#191970" d="M531.402,-235.3428C539.0404,-231.4655 546.1868,-226.6012 552,-220.5 589.5299,-181.1108 549.5994,-142.0408 588,-103.5 589.4083,-102.0865 590.8985,-100.756 592.4569,-99.5037"/>
<polygon fill="#191970" stroke="#191970" points="594.4478,-102.3825 600.7563,-93.8706 590.5165,-96.5906 594.4478,-102.3825"/>
</g>
<!-- Node65 -->
<g id="node22" class="node">
<title>Node65</title>
<g id="a_node22"><a xlink:href="classene_1_1models_1_1TrackModel.html#a5bac0e2b6c87c93eef2802d9d10bf3c1" target="_top" xlink:title="ene.models.TrackModel.get\lTitle">
<polygon fill="none" stroke="#000000" points="596.5,-162.5 596.5,-192.5 733.5,-192.5 733.5,-162.5 596.5,-162.5"/>
<text text-anchor="start" x="604.5" y="-180.5" font-family="Helvetica,sans-Serif" font-size="10.00" fill="#000000">ene.models.TrackModel.get</text>
<text text-anchor="middle" x="665" y="-169.5" font-family="Helvetica,sans-Serif" font-size="10.00" fill="#000000">Title</text>
</a>
</g>
</g>
<!-- Node57&#45;&gt;Node65 -->
<g id="edge25" class="edge">
<title>Node57&#45;&gt;Node65</title>
<path fill="none" stroke="#191970" d="M513.7409,-235.4103C526.2394,-230.9035 539.7494,-225.7553 552,-220.5 568.4397,-213.4476 571.4465,-209.281 588,-202.5 593.4991,-200.2473 599.2822,-198.0568 605.1054,-195.9693"/>
<polygon fill="#191970" stroke="#191970" points="606.6061,-199.1531 614.9002,-192.5608 604.3054,-192.5419 606.6061,-199.1531"/>
</g>
<!-- Node60 -->
<g id="node17" class="node">
<title>Node60</title>
<g id="a_node17"><a xlink:href="classene_1_1models_1_1TrackListModel.html#a77a78d6a93e67e544d83bf5f4856d121" target="_top" xlink:title="ene.models.TrackListModel.getAll">
<polygon fill="none" stroke="#000000" points="778,-337 778,-356 942,-356 942,-337 778,-337"/>
<text text-anchor="middle" x="860" y="-344" font-family="Helvetica,sans-Serif" font-size="10.00" fill="#000000">ene.models.TrackListModel.getAll</text>
</a>
</g>
</g>
<!-- Node59&#45;&gt;Node60 -->
<g id="edge18" class="edge">
<title>Node59&#45;&gt;Node60</title>
<path fill="none" stroke="#191970" d="M737.6108,-332.692C747.4375,-333.8006 757.6258,-334.9501 767.7387,-336.091"/>
<polygon fill="#191970" stroke="#191970" points="767.4809,-339.5841 777.8102,-337.2273 768.2657,-332.6282 767.4809,-339.5841"/>
</g>
<!-- Node61 -->
<g id="node18" class="node">
<title>Node61</title>
<g id="a_node18"><a xlink:href="classene_1_1models_1_1PlaylistModel.html#adf17aa2e0d9900d3c620035dbc9641bc" target="_top" xlink:title="ene.models.PlaylistModel.update\lLastAccess">
<polygon fill="none" stroke="#000000" points="779.5,-287.5 779.5,-317.5 940.5,-317.5 940.5,-287.5 779.5,-287.5"/>
<text text-anchor="start" x="787.5" y="-305.5" font-family="Helvetica,sans-Serif" font-size="10.00" fill="#000000">ene.models.PlaylistModel.update</text>
<text text-anchor="middle" x="860" y="-294.5" font-family="Helvetica,sans-Serif" font-size="10.00" fill="#000000">LastAccess</text>
</a>
</g>
</g>
<!-- Node59&#45;&gt;Node61 -->
<g id="edge19" class="edge">
<title>Node59&#45;&gt;Node61</title>
<path fill="none" stroke="#191970" d="M737.6108,-316.308C747.9502,-315.1415 758.6898,-313.9299 769.3207,-312.7305"/>
<polygon fill="#191970" stroke="#191970" points="769.9188,-316.1853 779.4634,-311.5862 769.134,-309.2294 769.9188,-316.1853"/>
</g>
</g>
</svg>
