<?xml version="1.0" encoding="UTF-8" standalone="no"?>
<!DOCTYPE svg PUBLIC "-//W3C//DTD SVG 1.1//EN"
 "http://www.w3.org/Graphics/SVG/1.1/DTD/svg11.dtd">
<!-- Generated by graphviz version 2.40.1 (20161225.0304)
 -->
<!-- Title: ene.AbstractObject.isDebugModeEnabled Pages: 1 -->
<svg width="679pt" height="241pt"
 viewBox="0.00 0.00 679.00 241.00" xmlns="http://www.w3.org/2000/svg" xmlns:xlink="http://www.w3.org/1999/xlink">
<g id="graph0" class="graph" transform="scale(1 1) rotate(0) translate(4 237)">
<title>ene.AbstractObject.isDebugModeEnabled</title>
<!-- Node36 -->
<g id="node1" class="node">
<title>Node36</title>
<polygon fill="#bfbfbf" stroke="#000000" points="0,-101.5 0,-131.5 140,-131.5 140,-101.5 0,-101.5"/>
<text text-anchor="start" x="8" y="-119.5" font-family="Helvetica,sans-Serif" font-size="10.00" fill="#000000">ene.AbstractObject.isDebug</text>
<text text-anchor="middle" x="70" y="-108.5" font-family="Helvetica,sans-Serif" font-size="10.00" fill="#000000">ModeEnabled</text>
</g>
<!-- Node37 -->
<g id="node2" class="node">
<title>Node37</title>
<g id="a_node2"><a xlink:href="classene_1_1AbstractObject.html#aff9619cf289ec83735b6c6ca2c12e020" target="_top" xlink:title="ene.AbstractObject.debug\lInfoAbout">
<polygon fill="none" stroke="#000000" points="176,-101.5 176,-131.5 306,-131.5 306,-101.5 176,-101.5"/>
<text text-anchor="start" x="184" y="-119.5" font-family="Helvetica,sans-Serif" font-size="10.00" fill="#000000">ene.AbstractObject.debug</text>
<text text-anchor="middle" x="241" y="-108.5" font-family="Helvetica,sans-Serif" font-size="10.00" fill="#000000">InfoAbout</text>
</a>
</g>
</g>
<!-- Node36&#45;&gt;Node37 -->
<g id="edge1" class="edge">
<title>Node36&#45;&gt;Node37</title>
<path fill="none" stroke="#191970" d="M150.0825,-116.5C158.679,-116.5 167.3487,-116.5 175.7424,-116.5"/>
<polygon fill="#191970" stroke="#191970" points="150.0457,-113.0001 140.0456,-116.5 150.0456,-120.0001 150.0457,-113.0001"/>
</g>
<!-- Node38 -->
<g id="node3" class="node">
<title>Node38</title>
<g id="a_node3"><a xlink:href="classene_1_1views_1_1gui_1_1partial_1_1PlayerView.html#a6a20ce866e62ced7476b666fe891b10a" target="_top" xlink:title="ene.views.gui.partial.Player\lView.initialize">
<polygon fill="none" stroke="#000000" points="351.5,-202.5 351.5,-232.5 488.5,-232.5 488.5,-202.5 351.5,-202.5"/>
<text text-anchor="start" x="359.5" y="-220.5" font-family="Helvetica,sans-Serif" font-size="10.00" fill="#000000">ene.views.gui.partial.Player</text>
<text text-anchor="middle" x="420" y="-209.5" font-family="Helvetica,sans-Serif" font-size="10.00" fill="#000000">View.initialize</text>
</a>
</g>
</g>
<!-- Node37&#45;&gt;Node38 -->
<g id="edge2" class="edge">
<title>Node37&#45;&gt;Node38</title>
<path fill="none" stroke="#191970" d="M265.1075,-138.3368C284.6476,-155.0854 313.5222,-177.76 342,-192.5 349.1984,-196.2259 357.0582,-199.532 364.928,-202.4205"/>
<polygon fill="#191970" stroke="#191970" points="267.1717,-135.4931 257.3331,-131.5621 262.5729,-140.7705 267.1717,-135.4931"/>
</g>
<!-- Node40 -->
<g id="node5" class="node">
<title>Node40</title>
<g id="a_node5"><a xlink:href="classene_1_1models_1_1PlayerModel.html#a2c4655428b658dee3203787415a516a5" target="_top" xlink:title="ene.models.PlayerModel.load">
<polygon fill="none" stroke="#000000" points="347.5,-164 347.5,-183 492.5,-183 492.5,-164 347.5,-164"/>
<text text-anchor="middle" x="420" y="-171" font-family="Helvetica,sans-Serif" font-size="10.00" fill="#000000">ene.models.PlayerModel.load</text>
</a>
</g>
</g>
<!-- Node37&#45;&gt;Node40 -->
<g id="edge4" class="edge">
<title>Node37&#45;&gt;Node40</title>
<path fill="none" stroke="#191970" d="M287.7053,-135.4184C304.6506,-141.9234 324.0428,-148.9571 342,-154.5 353.1868,-157.9531 365.4302,-161.1857 376.8324,-163.9708"/>
<polygon fill="#191970" stroke="#191970" points="288.629,-132.0226 278.0402,-131.6648 286.0947,-138.5477 288.629,-132.0226"/>
</g>
<!-- Node41 -->
<g id="node6" class="node">
<title>Node41</title>
<g id="a_node6"><a xlink:href="classene_1_1models_1_1PlayerModel.html#afdcaa5e17ecdfbccad3ac8e702914e00" target="_top" xlink:title="ene.models.PlayerModel.pause">
<polygon fill="none" stroke="#000000" points="343.5,-126 343.5,-145 496.5,-145 496.5,-126 343.5,-126"/>
<text text-anchor="middle" x="420" y="-133" font-family="Helvetica,sans-Serif" font-size="10.00" fill="#000000">ene.models.PlayerModel.pause</text>
</a>
</g>
</g>
<!-- Node37&#45;&gt;Node41 -->
<g id="edge5" class="edge">
<title>Node37&#45;&gt;Node41</title>
<path fill="none" stroke="#191970" d="M316.1756,-124.4795C325.1659,-125.4338 334.3542,-126.4091 343.3647,-127.3655"/>
<polygon fill="#191970" stroke="#191970" points="316.4431,-120.9883 306.1295,-123.4132 315.7041,-127.9492 316.4431,-120.9883"/>
</g>
<!-- Node42 -->
<g id="node7" class="node">
<title>Node42</title>
<g id="a_node7"><a xlink:href="classene_1_1models_1_1PlayerModel.html#a7d0471082171de01773a1da88cb3652d" target="_top" xlink:title="ene.models.PlayerModel.start">
<polygon fill="none" stroke="#000000" points="347,-88 347,-107 493,-107 493,-88 347,-88"/>
<text text-anchor="middle" x="420" y="-95" font-family="Helvetica,sans-Serif" font-size="10.00" fill="#000000">ene.models.PlayerModel.start</text>
</a>
</g>
</g>
<!-- Node37&#45;&gt;Node42 -->
<g id="edge6" class="edge">
<title>Node37&#45;&gt;Node42</title>
<path fill="none" stroke="#191970" d="M316.1493,-108.5233C326.2728,-107.4487 336.6478,-106.3474 346.7379,-105.2764"/>
<polygon fill="#191970" stroke="#191970" points="315.7041,-105.0508 306.1295,-109.5868 316.4431,-112.0117 315.7041,-105.0508"/>
</g>
<!-- Node43 -->
<g id="node8" class="node">
<title>Node43</title>
<g id="a_node8"><a xlink:href="classene_1_1models_1_1PlayerModel.html#a108968d6fd2beb7e322bba50028d32b1" target="_top" xlink:title="ene.models.PlayerModel.update">
<polygon fill="none" stroke="#000000" points="342,-50 342,-69 498,-69 498,-50 342,-50"/>
<text text-anchor="middle" x="420" y="-57" font-family="Helvetica,sans-Serif" font-size="10.00" fill="#000000">ene.models.PlayerModel.update</text>
</a>
</g>
</g>
<!-- Node37&#45;&gt;Node43 -->
<g id="edge7" class="edge">
<title>Node37&#45;&gt;Node43</title>
<path fill="none" stroke="#191970" d="M287.7053,-97.5816C304.6506,-91.0766 324.0428,-84.0429 342,-78.5 353.1868,-75.0469 365.4302,-71.8143 376.8324,-69.0292"/>
<polygon fill="#191970" stroke="#191970" points="286.0947,-94.4523 278.0402,-101.3352 288.629,-100.9774 286.0947,-94.4523"/>
</g>
<!-- Node44 -->
<g id="node9" class="node">
<title>Node44</title>
<g id="a_node9"><a xlink:href="classene_1_1views_1_1gui_1_1partial_1_1AbstractTrackListView.html#aebe5720136b8b2215b6ad365c723843e" target="_top" xlink:title="ene.views.gui.partial.Abstract\lTrackListView.valueChanged">
<polygon fill="none" stroke="#000000" points="347,-.5 347,-30.5 493,-30.5 493,-.5 347,-.5"/>
<text text-anchor="start" x="355" y="-18.5" font-family="Helvetica,sans-Serif" font-size="10.00" fill="#000000">ene.views.gui.partial.Abstract</text>
<text text-anchor="middle" x="420" y="-7.5" font-family="Helvetica,sans-Serif" font-size="10.00" fill="#000000">TrackListView.valueChanged</text>
</a>
</g>
</g>
<!-- Node37&#45;&gt;Node44 -->
<g id="edge8" class="edge">
<title>Node37&#45;&gt;Node44</title>
<path fill="none" stroke="#191970" d="M265.1075,-94.6632C284.6476,-77.9146 313.5222,-55.24 342,-40.5 349.1984,-36.7741 357.0582,-33.468 364.928,-30.5795"/>
<polygon fill="#191970" stroke="#191970" points="262.5729,-92.2295 257.3331,-101.4379 267.1717,-97.5069 262.5729,-92.2295"/>
</g>
<!-- Node39 -->
<g id="node4" class="node">
<title>Node39</title>
<g id="a_node4"><a xlink:href="classene_1_1views_1_1gui_1_1partial_1_1PlayerView.html#a87a7a4837fc2b68df6bf06984881a7ea" target="_top" xlink:title="ene.views.gui.partial.Player\lView.PlayerView">
<polygon fill="none" stroke="#000000" points="534,-202.5 534,-232.5 671,-232.5 671,-202.5 534,-202.5"/>
<text text-anchor="start" x="542" y="-220.5" font-family="Helvetica,sans-Serif" font-size="10.00" fill="#000000">ene.views.gui.partial.Player</text>
<text text-anchor="middle" x="602.5" y="-209.5" font-family="Helvetica,sans-Serif" font-size="10.00" fill="#000000">View.PlayerView</text>
</a>
</g>
</g>
<!-- Node38&#45;&gt;Node39 -->
<g id="edge3" class="edge">
<title>Node38&#45;&gt;Node39</title>
<path fill="none" stroke="#191970" d="M498.8716,-217.5C510.5083,-217.5 522.4186,-217.5 533.8266,-217.5"/>
<polygon fill="#191970" stroke="#191970" points="498.7354,-214.0001 488.7354,-217.5 498.7353,-221.0001 498.7354,-214.0001"/>
</g>
</g>
</svg>
