<?xml version="1.0" encoding="UTF-8" standalone="no"?>
<!DOCTYPE svg PUBLIC "-//W3C//DTD SVG 1.1//EN"
 "http://www.w3.org/Graphics/SVG/1.1/DTD/svg11.dtd">
<!-- Generated by graphviz version 2.40.1 (20161225.0304)
 -->
<!-- Title: ene.controllers.LibraryController.addDirectoryContent Pages: 1 -->
<svg width="981pt" height="149pt"
 viewBox="0.00 0.00 981.00 148.50" xmlns="http://www.w3.org/2000/svg" xmlns:xlink="http://www.w3.org/1999/xlink">
<g id="graph0" class="graph" transform="scale(1 1) rotate(0) translate(4 144.5)">
<title>ene.controllers.LibraryController.addDirectoryContent</title>
<!-- Node27 -->
<g id="node1" class="node">
<title>Node27</title>
<polygon fill="#bfbfbf" stroke="#000000" points="0,-49.5 0,-79.5 173,-79.5 173,-49.5 0,-49.5"/>
<text text-anchor="start" x="8" y="-67.5" font-family="Helvetica,sans-Serif" font-size="10.00" fill="#000000">ene.controllers.LibraryController.add</text>
<text text-anchor="middle" x="86.5" y="-56.5" font-family="Helvetica,sans-Serif" font-size="10.00" fill="#000000">DirectoryContent</text>
</g>
<!-- Node28 -->
<g id="node2" class="node">
<title>Node28</title>
<g id="a_node2"><a xlink:href="classene_1_1controllers_1_1LibraryController.html#a3a8b922c846a9b770b67f478ea0e5352" target="_top" xlink:title="ene.controllers.LibraryController.scan">
<polygon fill="none" stroke="#000000" points="209,-55 209,-74 388,-74 388,-55 209,-55"/>
<text text-anchor="middle" x="298.5" y="-62" font-family="Helvetica,sans-Serif" font-size="10.00" fill="#000000">ene.controllers.LibraryController.scan</text>
</a>
</g>
</g>
<!-- Node27&#45;&gt;Node28 -->
<g id="edge1" class="edge">
<title>Node27&#45;&gt;Node28</title>
<path fill="none" stroke="#191970" d="M173.0343,-64.5C181.5103,-64.5 190.1583,-64.5 198.7514,-64.5"/>
<polygon fill="#191970" stroke="#191970" points="198.8,-68.0001 208.8,-64.5 198.7999,-61.0001 198.8,-68.0001"/>
</g>
<!-- Node29 -->
<g id="node3" class="node">
<title>Node29</title>
<g id="a_node3"><a xlink:href="classene_1_1controllers_1_1LibraryController.html#a8ebea67eb61c84ee6a4825fa98fe870b" target="_top" xlink:title="ene.controllers.LibraryController.addFile">
<polygon fill="none" stroke="#000000" points="424,-55 424,-74 613,-74 613,-55 424,-55"/>
<text text-anchor="middle" x="518.5" y="-62" font-family="Helvetica,sans-Serif" font-size="10.00" fill="#000000">ene.controllers.LibraryController.addFile</text>
</a>
</g>
</g>
<!-- Node28&#45;&gt;Node29 -->
<g id="edge2" class="edge">
<title>Node28&#45;&gt;Node29</title>
<path fill="none" stroke="#191970" d="M388.2997,-64.5C396.754,-64.5 405.3732,-64.5 413.9481,-64.5"/>
<polygon fill="#191970" stroke="#191970" points="413.9815,-68.0001 423.9815,-64.5 413.9814,-61.0001 413.9815,-68.0001"/>
</g>
<!-- Node30 -->
<g id="node4" class="node">
<title>Node30</title>
<g id="a_node4"><a xlink:href="classene_1_1controllers_1_1AbstractController.html#a9a5afba01d0004a64db4cb14c23e0bbd" target="_top" xlink:title="ene.controllers.Abstract\lController\&lt; LibraryModel\l \&gt;::getModel">
<polygon fill="none" stroke="#000000" points="663,-99 663,-140 786,-140 786,-99 663,-99"/>
<text text-anchor="start" x="671" y="-128" font-family="Helvetica,sans-Serif" font-size="10.00" fill="#000000">ene.controllers.Abstract</text>
<text text-anchor="start" x="671" y="-117" font-family="Helvetica,sans-Serif" font-size="10.00" fill="#000000">Controller&lt; LibraryModel</text>
<text text-anchor="middle" x="724.5" y="-106" font-family="Helvetica,sans-Serif" font-size="10.00" fill="#000000"> &gt;::getModel</text>
</a>
</g>
</g>
<!-- Node29&#45;&gt;Node30 -->
<g id="edge3" class="edge">
<title>Node29&#45;&gt;Node30</title>
<path fill="none" stroke="#191970" d="M554.3825,-74.0803C581.5561,-81.3354 619.7689,-91.5378 653.0955,-100.4357"/>
<polygon fill="#191970" stroke="#191970" points="652.2422,-103.8304 662.8066,-103.0285 654.0479,-97.0673 652.2422,-103.8304"/>
</g>
<!-- Node31 -->
<g id="node5" class="node">
<title>Node31</title>
<g id="a_node5"><a xlink:href="classene_1_1models_1_1TrackModel.html#ab0db9bf0054a77ed2879695a379e3bd9" target="_top" xlink:title="ene.models.TrackModel.detect\lArtist">
<polygon fill="none" stroke="#000000" points="649,-49.5 649,-79.5 800,-79.5 800,-49.5 649,-49.5"/>
<text text-anchor="start" x="657" y="-67.5" font-family="Helvetica,sans-Serif" font-size="10.00" fill="#000000">ene.models.TrackModel.detect</text>
<text text-anchor="middle" x="724.5" y="-56.5" font-family="Helvetica,sans-Serif" font-size="10.00" fill="#000000">Artist</text>
</a>
</g>
</g>
<!-- Node29&#45;&gt;Node31 -->
<g id="edge4" class="edge">
<title>Node29&#45;&gt;Node31</title>
<path fill="none" stroke="#191970" d="M613.0592,-64.5C621.5563,-64.5 630.1305,-64.5 638.5485,-64.5"/>
<polygon fill="#191970" stroke="#191970" points="638.7234,-68.0001 648.7233,-64.5 638.7233,-61.0001 638.7234,-68.0001"/>
</g>
<!-- Node33 -->
<g id="node7" class="node">
<title>Node33</title>
<g id="a_node7"><a xlink:href="classene_1_1models_1_1TrackModel.html#a860b368d4cb6d81e7504cbf979c0cad7" target="_top" xlink:title="ene.models.TrackModel.detect\lTitle">
<polygon fill="none" stroke="#000000" points="649,-.5 649,-30.5 800,-30.5 800,-.5 649,-.5"/>
<text text-anchor="start" x="657" y="-18.5" font-family="Helvetica,sans-Serif" font-size="10.00" fill="#000000">ene.models.TrackModel.detect</text>
<text text-anchor="middle" x="724.5" y="-7.5" font-family="Helvetica,sans-Serif" font-size="10.00" fill="#000000">Title</text>
</a>
</g>
</g>
<!-- Node29&#45;&gt;Node33 -->
<g id="edge6" class="edge">
<title>Node29&#45;&gt;Node33</title>
<path fill="none" stroke="#191970" d="M558.7079,-54.936C585.016,-48.6782 620.1618,-40.3183 651.3225,-32.9063"/>
<polygon fill="#191970" stroke="#191970" points="652.3648,-36.2561 661.2834,-30.537 650.7449,-29.4461 652.3648,-36.2561"/>
</g>
<!-- Node32 -->
<g id="node6" class="node">
<title>Node32</title>
<g id="a_node6"><a xlink:href="classene_1_1models_1_1TrackModel.html#a3bd9746678863a59cb9b7ec404f1f05e" target="_top" xlink:title="ene.models.TrackModel.cut\lFilenameFromPath">
<polygon fill="none" stroke="#000000" points="836,-24.5 836,-54.5 973,-54.5 973,-24.5 836,-24.5"/>
<text text-anchor="start" x="844" y="-42.5" font-family="Helvetica,sans-Serif" font-size="10.00" fill="#000000">ene.models.TrackModel.cut</text>
<text text-anchor="middle" x="904.5" y="-31.5" font-family="Helvetica,sans-Serif" font-size="10.00" fill="#000000">FilenameFromPath</text>
</a>
</g>
</g>
<!-- Node31&#45;&gt;Node32 -->
<g id="edge5" class="edge">
<title>Node31&#45;&gt;Node32</title>
<path fill="none" stroke="#191970" d="M800.0538,-54.0064C808.5593,-52.8251 817.2415,-51.6192 825.7858,-50.4325"/>
<polygon fill="#191970" stroke="#191970" points="826.3106,-53.8933 835.734,-49.0508 825.3475,-46.9599 826.3106,-53.8933"/>
</g>
<!-- Node33&#45;&gt;Node32 -->
<g id="edge7" class="edge">
<title>Node33&#45;&gt;Node32</title>
<path fill="none" stroke="#191970" d="M800.0538,-25.5738C808.5593,-26.7079 817.2415,-27.8655 825.7858,-29.0048"/>
<polygon fill="#191970" stroke="#191970" points="825.3591,-32.4788 835.734,-30.3312 826.2843,-25.5402 825.3591,-32.4788"/>
</g>
</g>
</svg>
