<?xml version="1.0" encoding="UTF-8" standalone="no"?>
<!DOCTYPE svg PUBLIC "-//W3C//DTD SVG 1.1//EN"
 "http://www.w3.org/Graphics/SVG/1.1/DTD/svg11.dtd">
<!-- Generated by graphviz version 2.40.1 (20161225.0304)
 -->
<!-- Title: ene.controllers.LibraryController.add Pages: 1 -->
<svg width="1054pt" height="351pt"
 viewBox="0.00 0.00 1054.00 350.50" xmlns="http://www.w3.org/2000/svg" xmlns:xlink="http://www.w3.org/1999/xlink">
<g id="graph0" class="graph" transform="scale(1 1) rotate(0) translate(4 346.5)">
<title>ene.controllers.LibraryController.add</title>
<!-- Node10 -->
<g id="node1" class="node">
<title>Node10</title>
<polygon fill="#bfbfbf" stroke="#000000" points="0,-213 0,-232 173,-232 173,-213 0,-213"/>
<text text-anchor="middle" x="86.5" y="-220" font-family="Helvetica,sans-Serif" font-size="10.00" fill="#000000">ene.controllers.LibraryController.add</text>
</g>
<!-- Node11 -->
<g id="node2" class="node">
<title>Node11</title>
<g id="a_node2"><a xlink:href="classene_1_1controllers_1_1LibraryController.html#a6bc70daa48b96db79d5524113a49cd3e" target="_top" xlink:title="ene.controllers.LibraryController.add\lDirectoryContent">
<polygon fill="none" stroke="#000000" points="212,-273.5 212,-303.5 385,-303.5 385,-273.5 212,-273.5"/>
<text text-anchor="start" x="220" y="-291.5" font-family="Helvetica,sans-Serif" font-size="10.00" fill="#000000">ene.controllers.LibraryController.add</text>
<text text-anchor="middle" x="298.5" y="-280.5" font-family="Helvetica,sans-Serif" font-size="10.00" fill="#000000">DirectoryContent</text>
</a>
</g>
</g>
<!-- Node10&#45;&gt;Node11 -->
<g id="edge1" class="edge">
<title>Node10&#45;&gt;Node11</title>
<path fill="none" stroke="#191970" d="M117.3266,-232.097C149.4724,-242.1046 200.6217,-258.0285 240.387,-270.4082"/>
<polygon fill="#191970" stroke="#191970" points="239.3856,-273.7621 249.974,-273.3929 241.4664,-267.0785 239.3856,-273.7621"/>
</g>
<!-- Node13 -->
<g id="node4" class="node">
<title>Node13</title>
<g id="a_node4"><a xlink:href="classene_1_1controllers_1_1LibraryController.html#a8ebea67eb61c84ee6a4825fa98fe870b" target="_top" xlink:title="ene.controllers.LibraryController.addFile">
<polygon fill="none" stroke="#000000" points="670,-257 670,-276 859,-276 859,-257 670,-257"/>
<text text-anchor="middle" x="764.5" y="-264" font-family="Helvetica,sans-Serif" font-size="10.00" fill="#000000">ene.controllers.LibraryController.addFile</text>
</a>
</g>
</g>
<!-- Node10&#45;&gt;Node13 -->
<g id="edge7" class="edge">
<title>Node10&#45;&gt;Node13</title>
<path fill="none" stroke="#191970" d="M173.0578,-228.1173C297.2684,-236.1782 525.7918,-251.0086 659.4932,-259.6854"/>
<polygon fill="#191970" stroke="#191970" points="659.5405,-263.1957 669.7462,-260.3508 659.9939,-256.2104 659.5405,-263.1957"/>
</g>
<!-- Node17 -->
<g id="node8" class="node">
<title>Node17</title>
<g id="a_node8"><a xlink:href="classene_1_1controllers_1_1LibraryController.html#a510cf010821311fd17a441739179e99f" target="_top" xlink:title="ene.controllers.LibraryController.get\lDatabaseFilename">
<polygon fill="none" stroke="#000000" points="213,-185.5 213,-215.5 384,-215.5 384,-185.5 213,-185.5"/>
<text text-anchor="start" x="221" y="-203.5" font-family="Helvetica,sans-Serif" font-size="10.00" fill="#000000">ene.controllers.LibraryController.get</text>
<text text-anchor="middle" x="298.5" y="-192.5" font-family="Helvetica,sans-Serif" font-size="10.00" fill="#000000">DatabaseFilename</text>
</a>
</g>
</g>
<!-- Node10&#45;&gt;Node17 -->
<g id="edge8" class="edge">
<title>Node10&#45;&gt;Node17</title>
<path fill="none" stroke="#191970" d="M173.0343,-213.52C182.8064,-212.5059 192.8071,-211.4681 202.6886,-210.4427"/>
<polygon fill="#191970" stroke="#191970" points="203.3432,-213.8936 212.9285,-209.3801 202.6206,-206.931 203.3432,-213.8936"/>
</g>
<!-- Node18 -->
<g id="node9" class="node">
<title>Node18</title>
<g id="a_node9"><a xlink:href="classene_1_1controllers_1_1LibraryController.html#aa40dceee9b0024082b71ab641a087c2e" target="_top" xlink:title="ene.controllers.LibraryController.save\lToFile">
<polygon fill="none" stroke="#000000" points="209,-117.5 209,-147.5 388,-147.5 388,-117.5 209,-117.5"/>
<text text-anchor="start" x="217" y="-135.5" font-family="Helvetica,sans-Serif" font-size="10.00" fill="#000000">ene.controllers.LibraryController.save</text>
<text text-anchor="middle" x="298.5" y="-124.5" font-family="Helvetica,sans-Serif" font-size="10.00" fill="#000000">ToFile</text>
</a>
</g>
</g>
<!-- Node10&#45;&gt;Node18 -->
<g id="edge9" class="edge">
<title>Node10&#45;&gt;Node18</title>
<path fill="none" stroke="#191970" d="M109.1877,-212.8684C143.5204,-198.2932 209.3533,-170.3453 253.6068,-151.5584"/>
<polygon fill="#191970" stroke="#191970" points="255.1415,-154.7093 262.9786,-147.5798 252.406,-148.2659 255.1415,-154.7093"/>
</g>
<!-- Node12 -->
<g id="node3" class="node">
<title>Node12</title>
<g id="a_node3"><a xlink:href="classene_1_1controllers_1_1LibraryController.html#a3a8b922c846a9b770b67f478ea0e5352" target="_top" xlink:title="ene.controllers.LibraryController.scan">
<polygon fill="none" stroke="#000000" points="439.5,-276 439.5,-295 618.5,-295 618.5,-276 439.5,-276"/>
<text text-anchor="middle" x="529" y="-283" font-family="Helvetica,sans-Serif" font-size="10.00" fill="#000000">ene.controllers.LibraryController.scan</text>
</a>
</g>
</g>
<!-- Node11&#45;&gt;Node12 -->
<g id="edge2" class="edge">
<title>Node11&#45;&gt;Node12</title>
<path fill="none" stroke="#191970" d="M385.3137,-287.3701C399.6227,-287.1839 414.5556,-286.9895 429.1527,-286.7995"/>
<polygon fill="#191970" stroke="#191970" points="429.2394,-290.2988 439.193,-286.6689 429.1483,-283.2994 429.2394,-290.2988"/>
</g>
<!-- Node12&#45;&gt;Node13 -->
<g id="edge3" class="edge">
<title>Node12&#45;&gt;Node13</title>
<path fill="none" stroke="#191970" d="M618.7043,-278.2627C632.1973,-277.1741 646.212,-276.0434 659.9822,-274.9324"/>
<polygon fill="#191970" stroke="#191970" points="660.2688,-278.4208 669.9549,-274.1278 659.7058,-271.4435 660.2688,-278.4208"/>
</g>
<!-- Node14 -->
<g id="node5" class="node">
<title>Node14</title>
<g id="a_node5"><a xlink:href="classene_1_1controllers_1_1AbstractController.html#a9a5afba01d0004a64db4cb14c23e0bbd" target="_top" xlink:title="ene.controllers.Abstract\lController\&lt; LibraryModel\l \&gt;::getModel">
<polygon fill="none" stroke="#000000" points="909,-301 909,-342 1032,-342 1032,-301 909,-301"/>
<text text-anchor="start" x="917" y="-330" font-family="Helvetica,sans-Serif" font-size="10.00" fill="#000000">ene.controllers.Abstract</text>
<text text-anchor="start" x="917" y="-319" font-family="Helvetica,sans-Serif" font-size="10.00" fill="#000000">Controller&lt; LibraryModel</text>
<text text-anchor="middle" x="970.5" y="-308" font-family="Helvetica,sans-Serif" font-size="10.00" fill="#000000"> &gt;::getModel</text>
</a>
</g>
</g>
<!-- Node13&#45;&gt;Node14 -->
<g id="edge4" class="edge">
<title>Node13&#45;&gt;Node14</title>
<path fill="none" stroke="#191970" d="M800.3825,-276.0803C827.5561,-283.3354 865.7689,-293.5378 899.0955,-302.4357"/>
<polygon fill="#191970" stroke="#191970" points="898.2422,-305.8304 908.8066,-305.0285 900.0479,-299.0673 898.2422,-305.8304"/>
</g>
<!-- Node15 -->
<g id="node6" class="node">
<title>Node15</title>
<g id="a_node6"><a xlink:href="classene_1_1models_1_1TrackModel.html#ab0db9bf0054a77ed2879695a379e3bd9" target="_top" xlink:title="ene.models.TrackModel.detect\lArtist">
<polygon fill="none" stroke="#000000" points="895,-251.5 895,-281.5 1046,-281.5 1046,-251.5 895,-251.5"/>
<text text-anchor="start" x="903" y="-269.5" font-family="Helvetica,sans-Serif" font-size="10.00" fill="#000000">ene.models.TrackModel.detect</text>
<text text-anchor="middle" x="970.5" y="-258.5" font-family="Helvetica,sans-Serif" font-size="10.00" fill="#000000">Artist</text>
</a>
</g>
</g>
<!-- Node13&#45;&gt;Node15 -->
<g id="edge5" class="edge">
<title>Node13&#45;&gt;Node15</title>
<path fill="none" stroke="#191970" d="M859.0592,-266.5C867.5563,-266.5 876.1305,-266.5 884.5485,-266.5"/>
<polygon fill="#191970" stroke="#191970" points="884.7234,-270.0001 894.7233,-266.5 884.7233,-263.0001 884.7234,-270.0001"/>
</g>
<!-- Node16 -->
<g id="node7" class="node">
<title>Node16</title>
<g id="a_node7"><a xlink:href="classene_1_1models_1_1TrackModel.html#a860b368d4cb6d81e7504cbf979c0cad7" target="_top" xlink:title="ene.models.TrackModel.detect\lTitle">
<polygon fill="none" stroke="#000000" points="895,-202.5 895,-232.5 1046,-232.5 1046,-202.5 895,-202.5"/>
<text text-anchor="start" x="903" y="-220.5" font-family="Helvetica,sans-Serif" font-size="10.00" fill="#000000">ene.models.TrackModel.detect</text>
<text text-anchor="middle" x="970.5" y="-209.5" font-family="Helvetica,sans-Serif" font-size="10.00" fill="#000000">Title</text>
</a>
</g>
</g>
<!-- Node13&#45;&gt;Node16 -->
<g id="edge6" class="edge">
<title>Node13&#45;&gt;Node16</title>
<path fill="none" stroke="#191970" d="M804.7079,-256.936C831.016,-250.6782 866.1618,-242.3183 897.3225,-234.9063"/>
<polygon fill="#191970" stroke="#191970" points="898.3648,-238.2561 907.2834,-232.537 896.7449,-231.4461 898.3648,-238.2561"/>
</g>
<!-- Node19 -->
<g id="node10" class="node">
<title>Node19</title>
<g id="a_node10"><a xlink:href="interfaceene_1_1interfaces_1_1DatabaseConnection.html#aabff21f4c6d43139690fc93cae679e46" target="_top" xlink:title="ene.interfaces.DatabaseConnection.execute">
<polygon fill="none" stroke="#000000" points="424,-197 424,-216 634,-216 634,-197 424,-197"/>
<text text-anchor="middle" x="529" y="-204" font-family="Helvetica,sans-Serif" font-size="10.00" fill="#000000">ene.interfaces.DatabaseConnection.execute</text>
</a>
</g>
</g>
<!-- Node18&#45;&gt;Node19 -->
<g id="edge10" class="edge">
<title>Node18&#45;&gt;Node19</title>
<path fill="none" stroke="#191970" d="M327.6766,-147.6259C352.6483,-159.9969 389.8691,-177.0905 424,-187.5 433.3027,-190.3372 443.2058,-192.8098 453.0719,-194.948"/>
<polygon fill="#191970" stroke="#191970" points="452.401,-198.3832 462.9019,-196.9759 453.8153,-191.5276 452.401,-198.3832"/>
</g>
<!-- Node20 -->
<g id="node11" class="node">
<title>Node20</title>
<g id="a_node11"><a xlink:href="classene_1_1models_1_1TrackModel.html#aab88fe151b093dba71ad9f9ab5c6959d" target="_top" xlink:title="ene.models.TrackModel.get\lFilename">
<polygon fill="none" stroke="#000000" points="460.5,-147.5 460.5,-177.5 597.5,-177.5 597.5,-147.5 460.5,-147.5"/>
<text text-anchor="start" x="468.5" y="-165.5" font-family="Helvetica,sans-Serif" font-size="10.00" fill="#000000">ene.models.TrackModel.get</text>
<text text-anchor="middle" x="529" y="-154.5" font-family="Helvetica,sans-Serif" font-size="10.00" fill="#000000">Filename</text>
</a>
</g>
</g>
<!-- Node18&#45;&gt;Node20 -->
<g id="edge11" class="edge">
<title>Node18&#45;&gt;Node20</title>
<path fill="none" stroke="#191970" d="M388.2773,-144.1847C408.7153,-146.8447 430.2783,-149.6512 450.2177,-152.2463"/>
<polygon fill="#191970" stroke="#191970" points="449.8036,-155.7219 460.1717,-153.5419 450.7071,-148.7804 449.8036,-155.7219"/>
</g>
<!-- Node21 -->
<g id="node12" class="node">
<title>Node21</title>
<g id="a_node12"><a xlink:href="classene_1_1models_1_1TrackModel.html#a04afba3cc5098c28ebd394fb7ac920ba" target="_top" xlink:title="ene.models.TrackModel.get\lArtist">
<polygon fill="none" stroke="#000000" points="460.5,-98.5 460.5,-128.5 597.5,-128.5 597.5,-98.5 460.5,-98.5"/>
<text text-anchor="start" x="468.5" y="-116.5" font-family="Helvetica,sans-Serif" font-size="10.00" fill="#000000">ene.models.TrackModel.get</text>
<text text-anchor="middle" x="529" y="-105.5" font-family="Helvetica,sans-Serif" font-size="10.00" fill="#000000">Artist</text>
</a>
</g>
</g>
<!-- Node18&#45;&gt;Node21 -->
<g id="edge12" class="edge">
<title>Node18&#45;&gt;Node21</title>
<path fill="none" stroke="#191970" d="M388.2773,-125.0997C408.622,-123.4227 430.0814,-121.6538 449.9445,-120.0165"/>
<polygon fill="#191970" stroke="#191970" points="450.493,-123.4833 460.1717,-119.1735 449.9179,-116.5069 450.493,-123.4833"/>
</g>
<!-- Node22 -->
<g id="node13" class="node">
<title>Node22</title>
<g id="a_node13"><a xlink:href="classene_1_1models_1_1TrackModel.html#a5bac0e2b6c87c93eef2802d9d10bf3c1" target="_top" xlink:title="ene.models.TrackModel.get\lTitle">
<polygon fill="none" stroke="#000000" points="460.5,-49.5 460.5,-79.5 597.5,-79.5 597.5,-49.5 460.5,-49.5"/>
<text text-anchor="start" x="468.5" y="-67.5" font-family="Helvetica,sans-Serif" font-size="10.00" fill="#000000">ene.models.TrackModel.get</text>
<text text-anchor="middle" x="529" y="-56.5" font-family="Helvetica,sans-Serif" font-size="10.00" fill="#000000">Title</text>
</a>
</g>
</g>
<!-- Node18&#45;&gt;Node22 -->
<g id="edge13" class="edge">
<title>Node18&#45;&gt;Node22</title>
<path fill="none" stroke="#191970" d="M337.6993,-117.4789C362.2667,-108.3847 394.7182,-96.9505 424,-88.5 432.576,-86.025 441.6045,-83.6386 450.6185,-81.3937"/>
<polygon fill="#191970" stroke="#191970" points="451.4855,-84.785 460.3719,-79.0159 449.8274,-77.9841 451.4855,-84.785"/>
</g>
<!-- Node23 -->
<g id="node14" class="node">
<title>Node23</title>
<g id="a_node14"><a xlink:href="classene_1_1models_1_1TrackModel.html#a2c57f7fe3f410c0e914af9a79de57346" target="_top" xlink:title="ene.models.TrackModel.get\lGenre">
<polygon fill="none" stroke="#000000" points="460.5,-.5 460.5,-30.5 597.5,-30.5 597.5,-.5 460.5,-.5"/>
<text text-anchor="start" x="468.5" y="-18.5" font-family="Helvetica,sans-Serif" font-size="10.00" fill="#000000">ene.models.TrackModel.get</text>
<text text-anchor="middle" x="529" y="-7.5" font-family="Helvetica,sans-Serif" font-size="10.00" fill="#000000">Genre</text>
</a>
</g>
</g>
<!-- Node18&#45;&gt;Node23 -->
<g id="edge14" class="edge">
<title>Node18&#45;&gt;Node23</title>
<path fill="none" stroke="#191970" d="M314.1396,-117.4795C336.6036,-96.7568 380.1481,-59.6765 424,-39.5 432.3584,-35.6543 441.3825,-32.4003 450.5079,-29.6526"/>
<polygon fill="#191970" stroke="#191970" points="451.7429,-32.9412 460.4227,-26.8657 449.8487,-26.2023 451.7429,-32.9412"/>
</g>
</g>
</svg>
