<?xml version="1.0" encoding="UTF-8" standalone="no"?>
<!DOCTYPE svg PUBLIC "-//W3C//DTD SVG 1.1//EN"
 "http://www.w3.org/Graphics/SVG/1.1/DTD/svg11.dtd">
<!-- Generated by graphviz version 2.40.1 (20161225.0304)
 -->
<!-- Title: ene.models.PlaylistModel.getCurrentTrack Pages: 1 -->
<svg width="734pt" height="264pt"
 viewBox="0.00 0.00 734.00 264.00" xmlns="http://www.w3.org/2000/svg" xmlns:xlink="http://www.w3.org/1999/xlink">
<g id="graph0" class="graph" transform="scale(1 1) rotate(0) translate(4 260)">
<title>ene.models.PlaylistModel.getCurrentTrack</title>
<!-- Node3 -->
<g id="node1" class="node">
<title>Node3</title>
<polygon fill="#bfbfbf" stroke="#000000" points="0,-110.5 0,-140.5 145,-140.5 145,-110.5 0,-110.5"/>
<text text-anchor="start" x="8" y="-128.5" font-family="Helvetica,sans-Serif" font-size="10.00" fill="#000000">ene.models.PlaylistModel.get</text>
<text text-anchor="middle" x="72.5" y="-117.5" font-family="Helvetica,sans-Serif" font-size="10.00" fill="#000000">CurrentTrack</text>
</g>
<!-- Node4 -->
<g id="node2" class="node">
<title>Node4</title>
<g id="a_node2"><a xlink:href="classene_1_1views_1_1gui_1_1partial_1_1PlaylistView.html#aab891c82686652a49db41a3e1bc1f3b9" target="_top" xlink:title="ene.views.gui.partial.Playlist\lView.loadContent">
<polygon fill="none" stroke="#000000" points="194.5,-225.5 194.5,-255.5 335.5,-255.5 335.5,-225.5 194.5,-225.5"/>
<text text-anchor="start" x="202.5" y="-243.5" font-family="Helvetica,sans-Serif" font-size="10.00" fill="#000000">ene.views.gui.partial.Playlist</text>
<text text-anchor="middle" x="265" y="-232.5" font-family="Helvetica,sans-Serif" font-size="10.00" fill="#000000">View.loadContent</text>
</a>
</g>
</g>
<!-- Node3&#45;&gt;Node4 -->
<g id="edge1" class="edge">
<title>Node3&#45;&gt;Node4</title>
<path fill="none" stroke="#191970" d="M93.7022,-148.0506C114.2195,-168.6332 147.1125,-198.5074 181,-216.5 187.43,-219.914 194.4018,-222.8915 201.4863,-225.4762"/>
<polygon fill="#191970" stroke="#191970" points="95.965,-145.3588 86.4685,-140.6613 90.9628,-150.2556 95.965,-145.3588"/>
</g>
<!-- Node7 -->
<g id="node5" class="node">
<title>Node7</title>
<g id="a_node5"><a xlink:href="classene_1_1models_1_1PlayerModel.html#acfe1fde39cea80b94ae65ed401706d70" target="_top" xlink:title="ene.models.PlayerModel.load\lPlaylist">
<polygon fill="none" stroke="#000000" points="192.5,-176.5 192.5,-206.5 337.5,-206.5 337.5,-176.5 192.5,-176.5"/>
<text text-anchor="start" x="200.5" y="-194.5" font-family="Helvetica,sans-Serif" font-size="10.00" fill="#000000">ene.models.PlayerModel.load</text>
<text text-anchor="middle" x="265" y="-183.5" font-family="Helvetica,sans-Serif" font-size="10.00" fill="#000000">Playlist</text>
</a>
</g>
</g>
<!-- Node3&#45;&gt;Node7 -->
<g id="edge4" class="edge">
<title>Node3&#45;&gt;Node7</title>
<path fill="none" stroke="#191970" d="M126.5042,-144.0157C156.3515,-154.2491 192.9604,-166.8007 221.0421,-176.4287"/>
<polygon fill="#191970" stroke="#191970" points="127.258,-140.5742 116.6634,-140.6417 124.9877,-147.1959 127.258,-140.5742"/>
</g>
<!-- Node8 -->
<g id="node6" class="node">
<title>Node8</title>
<g id="a_node6"><a xlink:href="classene_1_1models_1_1PlayerModel.html#a384fd9a2e98fc581e8221659257a8dd4" target="_top" xlink:title="ene.models.PlayerModel.next">
<polygon fill="none" stroke="#000000" points="394,-116 394,-135 540,-135 540,-116 394,-116"/>
<text text-anchor="middle" x="467" y="-123" font-family="Helvetica,sans-Serif" font-size="10.00" fill="#000000">ene.models.PlayerModel.next</text>
</a>
</g>
</g>
<!-- Node3&#45;&gt;Node8 -->
<g id="edge5" class="edge">
<title>Node3&#45;&gt;Node8</title>
<path fill="none" stroke="#191970" d="M155.3098,-128.0262C163.9837,-128.2201 172.6712,-128.3849 181,-128.5 255.6595,-129.532 274.3394,-129.4489 349,-128.5 363.5487,-128.3151 379.1039,-128.002 393.9882,-127.646"/>
<polygon fill="#191970" stroke="#191970" points="155.2358,-124.5235 145.1559,-127.7864 155.0705,-131.5216 155.2358,-124.5235"/>
</g>
<!-- Node9 -->
<g id="node7" class="node">
<title>Node9</title>
<g id="a_node7"><a xlink:href="classene_1_1models_1_1PlaylistModel.html#afba0932567d4d21976e3c37c8d80b634" target="_top" xlink:title="ene.models.PlaylistModel.next\lTrack">
<polygon fill="none" stroke="#000000" points="190,-88.5 190,-118.5 340,-118.5 340,-88.5 190,-88.5"/>
<text text-anchor="start" x="198" y="-106.5" font-family="Helvetica,sans-Serif" font-size="10.00" fill="#000000">ene.models.PlaylistModel.next</text>
<text text-anchor="middle" x="265" y="-95.5" font-family="Helvetica,sans-Serif" font-size="10.00" fill="#000000">Track</text>
</a>
</g>
</g>
<!-- Node3&#45;&gt;Node9 -->
<g id="edge6" class="edge">
<title>Node3&#45;&gt;Node9</title>
<path fill="none" stroke="#191970" d="M155.1025,-116.0597C166.6953,-114.7348 178.5577,-113.3791 189.9985,-112.0716"/>
<polygon fill="#191970" stroke="#191970" points="154.5396,-112.6012 145.0017,-117.2141 155.3345,-119.5559 154.5396,-112.6012"/>
</g>
<!-- Node10 -->
<g id="node8" class="node">
<title>Node10</title>
<g id="a_node8"><a xlink:href="classene_1_1models_1_1PlayerModel.html#a7242e20d537405f031ec8d18e7faf8fc" target="_top" xlink:title="ene.models.PlayerModel.previous">
<polygon fill="none" stroke="#000000" points="385,-28 385,-47 549,-47 549,-28 385,-28"/>
<text text-anchor="middle" x="467" y="-35" font-family="Helvetica,sans-Serif" font-size="10.00" fill="#000000">ene.models.PlayerModel.previous</text>
</a>
</g>
</g>
<!-- Node3&#45;&gt;Node10 -->
<g id="edge8" class="edge">
<title>Node3&#45;&gt;Node10</title>
<path fill="none" stroke="#191970" d="M111.3801,-106.1591C131.6796,-96.8018 157.1909,-86.1766 181,-79.5 248.2875,-60.631 326.9942,-49.8626 384.7885,-43.9651"/>
<polygon fill="#191970" stroke="#191970" points="109.7206,-103.0716 102.1552,-110.4888 112.6948,-109.4084 109.7206,-103.0716"/>
</g>
<!-- Node11 -->
<g id="node9" class="node">
<title>Node11</title>
<g id="a_node9"><a xlink:href="classene_1_1models_1_1PlaylistModel.html#ab30573de71b566da79145210f94be294" target="_top" xlink:title="ene.models.PlaylistModel.previous\lTrack">
<polygon fill="none" stroke="#000000" points="181,-.5 181,-30.5 349,-30.5 349,-.5 181,-.5"/>
<text text-anchor="start" x="189" y="-18.5" font-family="Helvetica,sans-Serif" font-size="10.00" fill="#000000">ene.models.PlaylistModel.previous</text>
<text text-anchor="middle" x="265" y="-7.5" font-family="Helvetica,sans-Serif" font-size="10.00" fill="#000000">Track</text>
</a>
</g>
</g>
<!-- Node3&#45;&gt;Node11 -->
<g id="edge9" class="edge">
<title>Node3&#45;&gt;Node11</title>
<path fill="none" stroke="#191970" d="M97.6799,-103.6C118.8057,-86.0735 150.3605,-61.8106 181,-45.5 191.6621,-39.8242 203.625,-34.822 215.1063,-30.6099"/>
<polygon fill="#191970" stroke="#191970" points="95.2455,-101.0741 89.8449,-110.1891 99.751,-106.4315 95.2455,-101.0741"/>
</g>
<!-- Node5 -->
<g id="node3" class="node">
<title>Node5</title>
<g id="a_node3"><a xlink:href="classene_1_1views_1_1gui_1_1partial_1_1PlaylistView.html#ad2b87823589c6e8895d2d7b98438a2dc" target="_top" xlink:title="ene.views.gui.partial.Playlist\lView.update">
<polygon fill="none" stroke="#000000" points="396.5,-225.5 396.5,-255.5 537.5,-255.5 537.5,-225.5 396.5,-225.5"/>
<text text-anchor="start" x="404.5" y="-243.5" font-family="Helvetica,sans-Serif" font-size="10.00" fill="#000000">ene.views.gui.partial.Playlist</text>
<text text-anchor="middle" x="467" y="-232.5" font-family="Helvetica,sans-Serif" font-size="10.00" fill="#000000">View.update</text>
</a>
</g>
</g>
<!-- Node4&#45;&gt;Node5 -->
<g id="edge2" class="edge">
<title>Node4&#45;&gt;Node5</title>
<path fill="none" stroke="#191970" d="M345.9316,-240.5C362.6307,-240.5 380.0925,-240.5 396.3901,-240.5"/>
<polygon fill="#191970" stroke="#191970" points="345.6498,-237.0001 335.6498,-240.5 345.6498,-244.0001 345.6498,-237.0001"/>
</g>
<!-- Node6 -->
<g id="node4" class="node">
<title>Node6</title>
<g id="a_node4"><a xlink:href="classene_1_1views_1_1gui_1_1partial_1_1PlaylistView.html#a8d541ff3e91c1492b2e47cc7272ca56d" target="_top" xlink:title="ene.views.gui.partial.Playlist\lView.render">
<polygon fill="none" stroke="#000000" points="585,-225.5 585,-255.5 726,-255.5 726,-225.5 585,-225.5"/>
<text text-anchor="start" x="593" y="-243.5" font-family="Helvetica,sans-Serif" font-size="10.00" fill="#000000">ene.views.gui.partial.Playlist</text>
<text text-anchor="middle" x="655.5" y="-232.5" font-family="Helvetica,sans-Serif" font-size="10.00" fill="#000000">View.render</text>
</a>
</g>
</g>
<!-- Node5&#45;&gt;Node6 -->
<g id="edge3" class="edge">
<title>Node5&#45;&gt;Node6</title>
<path fill="none" stroke="#191970" d="M547.9138,-240.5C560.1491,-240.5 572.6904,-240.5 584.6904,-240.5"/>
<polygon fill="#191970" stroke="#191970" points="547.7268,-237.0001 537.7267,-240.5 547.7267,-244.0001 547.7268,-237.0001"/>
</g>
<!-- Node9&#45;&gt;Node8 -->
<g id="edge7" class="edge">
<title>Node9&#45;&gt;Node8</title>
<path fill="none" stroke="#191970" d="M350.1619,-112.7751C364.651,-114.3531 379.5861,-115.9797 393.7342,-117.5206"/>
<polygon fill="#191970" stroke="#191970" points="350.5375,-109.2954 340.2173,-111.692 349.7796,-116.2542 350.5375,-109.2954"/>
</g>
<!-- Node11&#45;&gt;Node10 -->
<g id="edge10" class="edge">
<title>Node11&#45;&gt;Node10</title>
<path fill="none" stroke="#191970" d="M359.2193,-25.7615C367.7896,-26.6949 376.4253,-27.6354 384.8781,-28.556"/>
<polygon fill="#191970" stroke="#191970" points="359.5237,-22.274 349.2035,-24.6707 358.7657,-29.2329 359.5237,-22.274"/>
</g>
</g>
</svg>
