<?xml version="1.0" encoding="UTF-8" standalone="no"?>
<!DOCTYPE svg PUBLIC "-//W3C//DTD SVG 1.1//EN"
 "http://www.w3.org/Graphics/SVG/1.1/DTD/svg11.dtd">
<!-- Generated by graphviz version 2.40.1 (20161225.0304)
 -->
<!-- Title: Graphical Class Hierarchy Pages: 1 -->
<svg width="1318pt" height="296pt"
 viewBox="0.00 0.00 1318.00 296.00" xmlns="http://www.w3.org/2000/svg" xmlns:xlink="http://www.w3.org/1999/xlink">
<g id="graph0" class="graph" transform="scale(1 1) rotate(0) translate(4 292)">
<title>Graphical Class Hierarchy</title>
<!-- Node34 -->
<g id="node1" class="node">
<title>Node34</title>
<polygon fill="none" stroke="#bfbfbf" points="656,-94.5 656,-113.5 725,-113.5 725,-94.5 656,-94.5"/>
<text text-anchor="middle" x="690.5" y="-101.5" font-family="Helvetica,sans-Serif" font-size="10.00" fill="#000000">LineListener</text>
</g>
<!-- Node13 -->
<g id="node2" class="node">
<title>Node13</title>
<g id="a_node2"><a xlink:href="classene_1_1views_1_1gui_1_1WindowView.html" target="_top" xlink:title="ene.views.gui.WindowView">
<polygon fill="none" stroke="#000000" points="812,-132.5 812,-151.5 949,-151.5 949,-132.5 812,-132.5"/>
<text text-anchor="middle" x="880.5" y="-139.5" font-family="Helvetica,sans-Serif" font-size="10.00" fill="#000000">ene.views.gui.WindowView</text>
</a>
</g>
</g>
<!-- Node34&#45;&gt;Node13 -->
<g id="edge1" class="edge">
<title>Node34&#45;&gt;Node13</title>
<path fill="none" stroke="#191970" d="M735.3394,-112.9679C764.7234,-118.8447 803.0845,-126.5169 832.9916,-132.4983"/>
<polygon fill="#191970" stroke="#191970" points="735.8412,-109.499 725.3489,-110.9698 734.4683,-116.3631 735.8412,-109.499"/>
</g>
<!-- Node33 -->
<g id="node3" class="node">
<title>Node33</title>
<polygon fill="none" stroke="#bfbfbf" points="827,-268.5 827,-287.5 934,-287.5 934,-268.5 827,-268.5"/>
<text text-anchor="middle" x="880.5" y="-275.5" font-family="Helvetica,sans-Serif" font-size="10.00" fill="#000000">ListSelectionListener</text>
</g>
<!-- Node15 -->
<g id="node4" class="node">
<title>Node15</title>
<g id="a_node4"><a xlink:href="classene_1_1models_1_1LibraryModel.html" target="_top" xlink:title="ene.models.LibraryModel">
<polygon fill="none" stroke="#000000" points="1004.5,-254.5 1004.5,-273.5 1129.5,-273.5 1129.5,-254.5 1004.5,-254.5"/>
<text text-anchor="middle" x="1067" y="-261.5" font-family="Helvetica,sans-Serif" font-size="10.00" fill="#000000">ene.models.LibraryModel</text>
</a>
</g>
</g>
<!-- Node33&#45;&gt;Node15 -->
<g id="edge2" class="edge">
<title>Node33&#45;&gt;Node15</title>
<path fill="none" stroke="#191970" d="M944.1855,-273.2193C963.6677,-271.7568 985.0704,-270.1502 1004.4747,-268.6936"/>
<polygon fill="#191970" stroke="#191970" points="943.9032,-269.7306 934.1933,-273.9694 944.4273,-276.7109 943.9032,-269.7306"/>
</g>
<!-- Node16 -->
<g id="node5" class="node">
<title>Node16</title>
<g id="a_node5"><a xlink:href="classene_1_1models_1_1PlaylistModel.html" target="_top" xlink:title="ene.models.PlaylistModel">
<polygon fill="none" stroke="#000000" points="1182,-235.5 1182,-254.5 1310,-254.5 1310,-235.5 1182,-235.5"/>
<text text-anchor="middle" x="1246" y="-242.5" font-family="Helvetica,sans-Serif" font-size="10.00" fill="#000000">ene.models.PlaylistModel</text>
</a>
</g>
</g>
<!-- Node15&#45;&gt;Node16 -->
<g id="edge3" class="edge">
<title>Node15&#45;&gt;Node16</title>
<path fill="none" stroke="#191970" d="M1139.6713,-256.2863C1153.6613,-254.8013 1168.2204,-253.2559 1181.9141,-251.8024"/>
<polygon fill="#191970" stroke="#191970" points="1139.1802,-252.8187 1129.6055,-257.3547 1139.9191,-259.7796 1139.1802,-252.8187"/>
</g>
<!-- Node25 -->
<g id="node6" class="node">
<title>Node25</title>
<g id="a_node6"><a xlink:href="classene_1_1AbstractObject.html" target="_top" xlink:title="ene.AbstractObject">
<polygon fill="none" stroke="#000000" points="36,-88.5 36,-107.5 137,-107.5 137,-88.5 36,-88.5"/>
<text text-anchor="middle" x="86.5" y="-95.5" font-family="Helvetica,sans-Serif" font-size="10.00" fill="#000000">ene.AbstractObject</text>
</a>
</g>
</g>
<!-- Node26 -->
<g id="node7" class="node">
<title>Node26</title>
<g id="a_node7"><a xlink:href="classene_1_1Application.html" target="_top" xlink:title="ene.Application">
<polygon fill="none" stroke="#000000" points="240,-88.5 240,-107.5 323,-107.5 323,-88.5 240,-88.5"/>
<text text-anchor="middle" x="281.5" y="-95.5" font-family="Helvetica,sans-Serif" font-size="10.00" fill="#000000">ene.Application</text>
</a>
</g>
</g>
<!-- Node25&#45;&gt;Node26 -->
<g id="edge4" class="edge">
<title>Node25&#45;&gt;Node26</title>
<path fill="none" stroke="#191970" d="M147.5995,-98C177.629,-98 213.0376,-98 239.8984,-98"/>
<polygon fill="#191970" stroke="#191970" points="147.2249,-94.5001 137.2249,-98 147.2249,-101.5001 147.2249,-94.5001"/>
</g>
<!-- Node22 -->
<g id="node8" class="node">
<title>Node22</title>
<g id="a_node8"><a xlink:href="classene_1_1controllers_1_1AbstractController.html" target="_top" xlink:title="ene.controllers.Abstract\lController\&lt; ModelType \&gt;">
<polygon fill="none" stroke="#000000" points="219,-39 219,-69 344,-69 344,-39 219,-39"/>
<text text-anchor="start" x="227" y="-57" font-family="Helvetica,sans-Serif" font-size="10.00" fill="#000000">ene.controllers.Abstract</text>
<text text-anchor="middle" x="281.5" y="-46" font-family="Helvetica,sans-Serif" font-size="10.00" fill="#000000">Controller&lt; ModelType &gt;</text>
</a>
</g>
</g>
<!-- Node25&#45;&gt;Node22 -->
<g id="edge5" class="edge">
<title>Node25&#45;&gt;Node22</title>
<path fill="none" stroke="#191970" d="M138.704,-86.2206C163.3769,-80.6534 193.0255,-73.9635 218.8975,-68.1257"/>
<polygon fill="#191970" stroke="#191970" points="137.7965,-82.8373 128.8121,-88.4527 139.3373,-89.6657 137.7965,-82.8373"/>
</g>
<!-- Node20 -->
<g id="node9" class="node">
<title>Node20</title>
<g id="a_node9"><a xlink:href="classene_1_1databases_1_1SQLDatabase.html" target="_top" xlink:title="ene.databases.SQLDatabase">
<polygon fill="none" stroke="#000000" points="209,-.5 209,-19.5 354,-19.5 354,-.5 209,-.5"/>
<text text-anchor="middle" x="281.5" y="-7.5" font-family="Helvetica,sans-Serif" font-size="10.00" fill="#000000">ene.databases.SQLDatabase</text>
</a>
</g>
</g>
<!-- Node25&#45;&gt;Node20 -->
<g id="edge6" class="edge">
<title>Node25&#45;&gt;Node20</title>
<path fill="none" stroke="#191970" d="M147.2897,-89.7544C156.3556,-86.9129 165.2473,-83.1037 173,-78 195.5717,-63.1409 186.6468,-44.1857 209,-29 214.7044,-25.1247 221.1544,-22.0396 227.7966,-19.5837"/>
<polygon fill="#191970" stroke="#191970" points="146.1395,-86.4408 137.4296,-92.4732 148.0003,-93.189 146.1395,-86.4408"/>
</g>
<!-- Node12 -->
<g id="node10" class="node">
<title>Node12</title>
<g id="a_node10"><a xlink:href="classene_1_1views_1_1gui_1_1partial_1_1ContentView.html" target="_top" xlink:title="ene.views.gui.partial.ContentView">
<polygon fill="none" stroke="#000000" points="608,-170.5 608,-189.5 773,-189.5 773,-170.5 608,-170.5"/>
<text text-anchor="middle" x="690.5" y="-177.5" font-family="Helvetica,sans-Serif" font-size="10.00" fill="#000000">ene.views.gui.partial.ContentView</text>
</a>
</g>
</g>
<!-- Node25&#45;&gt;Node12 -->
<g id="edge7" class="edge">
<title>Node25&#45;&gt;Node12</title>
<path fill="none" stroke="#191970" d="M147.1776,-107.8197C166.8772,-110.8984 188.8483,-114.2167 209,-117 369.9859,-139.2351 411.0714,-138.3538 572,-161 592.2197,-163.8454 614.3244,-167.2966 633.9077,-170.4729"/>
<polygon fill="#191970" stroke="#191970" points="147.527,-104.3317 137.1047,-106.2357 146.4395,-111.2468 147.527,-104.3317"/>
</g>
<!-- Node10 -->
<g id="node13" class="node">
<title>Node10</title>
<g id="a_node13"><a xlink:href="classene_1_1views_1_1AbstractView.html" target="_top" xlink:title="ene.views.AbstractView\l\&lt; CoreComponentType \&gt;">
<polygon fill="none" stroke="#000000" points="217.5,-165 217.5,-195 345.5,-195 345.5,-165 217.5,-165"/>
<text text-anchor="start" x="225.5" y="-183" font-family="Helvetica,sans-Serif" font-size="10.00" fill="#000000">ene.views.AbstractView</text>
<text text-anchor="middle" x="281.5" y="-172" font-family="Helvetica,sans-Serif" font-size="10.00" fill="#000000">&lt; CoreComponentType &gt;</text>
</a>
</g>
</g>
<!-- Node25&#45;&gt;Node10 -->
<g id="edge13" class="edge">
<title>Node25&#45;&gt;Node10</title>
<path fill="none" stroke="#191970" d="M118.3053,-111.5946C143.0128,-122.1328 178.1497,-137.0697 209,-150 220.6836,-154.897 233.4464,-160.1952 244.9623,-164.9568"/>
<polygon fill="#191970" stroke="#191970" points="119.6231,-108.3517 109.0518,-107.6456 116.8755,-114.7899 119.6231,-108.3517"/>
</g>
<!-- Node12&#45;&gt;Node13 -->
<g id="edge8" class="edge">
<title>Node12&#45;&gt;Node13</title>
<path fill="none" stroke="#191970" d="M748.5475,-168.3905C775.5699,-162.986 807.3176,-156.6365 832.8997,-151.5201"/>
<polygon fill="#191970" stroke="#191970" points="747.5644,-165.0177 738.445,-170.411 748.9373,-171.8818 747.5644,-165.0177"/>
</g>
<!-- Node14 -->
<g id="node11" class="node">
<title>Node14</title>
<g id="a_node11"><a xlink:href="classene_1_1views_1_1AbstractPartialView.html" target="_top" xlink:title="ene.views.AbstractPartial\lView\&lt; CoreComponentType,\l ModelType \&gt;">
<polygon fill="none" stroke="#000000" points="809,-208.5 809,-249.5 952,-249.5 952,-208.5 809,-208.5"/>
<text text-anchor="start" x="817" y="-237.5" font-family="Helvetica,sans-Serif" font-size="10.00" fill="#000000">ene.views.AbstractPartial</text>
<text text-anchor="start" x="817" y="-226.5" font-family="Helvetica,sans-Serif" font-size="10.00" fill="#000000">View&lt; CoreComponentType,</text>
<text text-anchor="middle" x="880.5" y="-215.5" font-family="Helvetica,sans-Serif" font-size="10.00" fill="#000000"> ModelType &gt;</text>
</a>
</g>
</g>
<!-- Node12&#45;&gt;Node14 -->
<g id="edge9" class="edge">
<title>Node12&#45;&gt;Node14</title>
<path fill="none" stroke="#191970" d="M737.4526,-192.1088C758.9845,-197.6618 784.986,-204.3674 808.8828,-210.5303"/>
<polygon fill="#191970" stroke="#191970" points="738.1422,-188.6722 727.585,-189.564 736.3941,-195.4504 738.1422,-188.6722"/>
</g>
<!-- Node17 -->
<g id="node12" class="node">
<title>Node17</title>
<g id="a_node12"><a xlink:href="classene_1_1views_1_1gui_1_1partial_1_1PlayerView.html" target="_top" xlink:title="ene.views.gui.partial.PlayerView">
<polygon fill="none" stroke="#000000" points="988,-175.5 988,-194.5 1146,-194.5 1146,-175.5 988,-175.5"/>
<text text-anchor="middle" x="1067" y="-182.5" font-family="Helvetica,sans-Serif" font-size="10.00" fill="#000000">ene.views.gui.partial.PlayerView</text>
</a>
</g>
</g>
<!-- Node12&#45;&gt;Node17 -->
<g id="edge12" class="edge">
<title>Node12&#45;&gt;Node17</title>
<path fill="none" stroke="#191970" d="M783.4197,-181.234C846.1754,-182.0674 928.1331,-183.1558 987.7918,-183.9481"/>
<polygon fill="#191970" stroke="#191970" points="783.1702,-177.7305 773.1245,-181.0973 783.0771,-184.7298 783.1702,-177.7305"/>
</g>
<!-- Node14&#45;&gt;Node15 -->
<g id="edge10" class="edge">
<title>Node14&#45;&gt;Node15</title>
<path fill="none" stroke="#191970" d="M962.1822,-237.6255C990.9929,-242.8002 1021.2996,-249.1268 1041.872,-254.4975"/>
<polygon fill="#191970" stroke="#191970" points="962.5276,-234.1326 952.0724,-235.8466 961.3145,-241.0267 962.5276,-234.1326"/>
</g>
<!-- Node14&#45;&gt;Node15 -->
<g id="edge18" class="edge">
<title>Node14&#45;&gt;Node15</title>
<path fill="none" stroke="#191970" d="M962.2852,-251.0529C976.4235,-253.819 990.9187,-256.4425 1004.4443,-258.6742"/>
<polygon fill="#191970" stroke="#191970" points="962.5637,-247.5396 952.0724,-249.017 961.1952,-254.4045 962.5637,-247.5396"/>
</g>
<!-- Node14&#45;&gt;Node16 -->
<g id="edge11" class="edge">
<title>Node14&#45;&gt;Node16</title>
<path fill="none" stroke="#191970" d="M962.2702,-232.5795C1028.5483,-235.4809 1120.6554,-239.513 1181.7308,-242.1866"/>
<polygon fill="#191970" stroke="#191970" points="962.4185,-229.0828 952.2749,-232.142 962.1123,-236.0761 962.4185,-229.0828"/>
</g>
<!-- Node14&#45;&gt;Node17 -->
<g id="edge19" class="edge">
<title>Node14&#45;&gt;Node17</title>
<path fill="none" stroke="#191970" d="M961.9396,-209.7864C984.3412,-204.5013 1007.6669,-198.9982 1026.6328,-194.5236"/>
<polygon fill="#191970" stroke="#191970" points="961.0015,-206.4115 952.0724,-212.1143 962.6089,-213.2245 961.0015,-206.4115"/>
</g>
<!-- Node10&#45;&gt;Node14 -->
<g id="edge17" class="edge">
<title>Node10&#45;&gt;Node14</title>
<path fill="none" stroke="#191970" d="M355.5887,-194.1141C367.0786,-195.9727 378.8361,-197.6853 390,-199 538.2773,-216.4614 713.0426,-224.0688 808.7918,-227.1347"/>
<polygon fill="#191970" stroke="#191970" points="356.0208,-190.6379 345.582,-192.4496 354.8721,-197.5431 356.0208,-190.6379"/>
</g>
<!-- Node11 -->
<g id="node14" class="node">
<title>Node11</title>
<g id="a_node14"><a xlink:href="interfaceene_1_1interfaces_1_1Model.html" target="_top" xlink:title="ene.interfaces.Model">
<polygon fill="none" stroke="#000000" points="427.5,-170.5 427.5,-189.5 534.5,-189.5 534.5,-170.5 427.5,-170.5"/>
<text text-anchor="middle" x="481" y="-177.5" font-family="Helvetica,sans-Serif" font-size="10.00" fill="#000000">ene.interfaces.Model</text>
</a>
</g>
</g>
<!-- Node10&#45;&gt;Node11 -->
<g id="edge14" class="edge">
<title>Node10&#45;&gt;Node11</title>
<path fill="none" stroke="#191970" d="M355.749,-180C379.4823,-180 405.2801,-180 427.2609,-180"/>
<polygon fill="#191970" stroke="#191970" points="355.7212,-176.5001 345.7212,-180 355.7212,-183.5001 355.7212,-176.5001"/>
</g>
<!-- Node11&#45;&gt;Node13 -->
<g id="edge16" class="edge">
<title>Node11&#45;&gt;Node13</title>
<path fill="none" stroke="#191970" d="M544.6689,-169.4696C564.875,-166.3978 587.3352,-163.2626 608,-161 677.1811,-153.4252 756.5924,-148.2912 811.7719,-145.2889"/>
<polygon fill="#191970" stroke="#191970" points="543.9896,-166.0329 534.6401,-171.0166 545.0568,-172.9511 543.9896,-166.0329"/>
</g>
<!-- Node11&#45;&gt;Node12 -->
<g id="edge15" class="edge">
<title>Node11&#45;&gt;Node12</title>
<path fill="none" stroke="#191970" d="M544.8078,-173.7309C564.616,-173.2418 586.7423,-173.1258 607.6501,-173.3829"/>
<polygon fill="#191970" stroke="#191970" points="544.5752,-170.236 534.6794,-174.0206 544.7754,-177.2331 544.5752,-170.236"/>
</g>
<!-- Node11&#45;&gt;Node12 -->
<g id="edge23" class="edge">
<title>Node11&#45;&gt;Node12</title>
<path fill="none" stroke="#191970" d="M544.8078,-186.2691C564.616,-186.7582 586.7423,-186.8742 607.6501,-186.6171"/>
<polygon fill="#191970" stroke="#191970" points="544.7754,-182.7669 534.6794,-185.9794 544.5752,-189.764 544.7754,-182.7669"/>
</g>
<!-- Node21 -->
<g id="node15" class="node">
<title>Node21</title>
<g id="a_node15"><a xlink:href="interfaceene_1_1interfaces_1_1Controller.html" target="_top" xlink:title="ene.interfaces.Controller\l\&lt; ModelType \&gt;">
<polygon fill="none" stroke="#000000" points="25,-39 25,-69 148,-69 148,-39 25,-39"/>
<text text-anchor="start" x="33" y="-57" font-family="Helvetica,sans-Serif" font-size="10.00" fill="#000000">ene.interfaces.Controller</text>
<text text-anchor="middle" x="86.5" y="-46" font-family="Helvetica,sans-Serif" font-size="10.00" fill="#000000">&lt; ModelType &gt;</text>
</a>
</g>
</g>
<!-- Node21&#45;&gt;Node22 -->
<g id="edge20" class="edge">
<title>Node21&#45;&gt;Node22</title>
<path fill="none" stroke="#191970" d="M158.413,-54C178.2461,-54 199.5993,-54 218.8618,-54"/>
<polygon fill="#191970" stroke="#191970" points="158.1993,-50.5001 148.1992,-54 158.1992,-57.5001 158.1993,-50.5001"/>
</g>
<!-- Node19 -->
<g id="node16" class="node">
<title>Node19</title>
<g id="a_node16"><a xlink:href="interfaceene_1_1interfaces_1_1DatabaseConnection.html" target="_top" xlink:title="ene.interfaces.DatabaseConnection">
<polygon fill="none" stroke="#000000" points="0,-.5 0,-19.5 173,-19.5 173,-.5 0,-.5"/>
<text text-anchor="middle" x="86.5" y="-7.5" font-family="Helvetica,sans-Serif" font-size="10.00" fill="#000000">ene.interfaces.DatabaseConnection</text>
</a>
</g>
</g>
<!-- Node19&#45;&gt;Node20 -->
<g id="edge21" class="edge">
<title>Node19&#45;&gt;Node20</title>
<path fill="none" stroke="#191970" d="M183.2426,-10C191.8436,-10 200.4525,-10 208.8015,-10"/>
<polygon fill="#191970" stroke="#191970" points="183.1655,-6.5001 173.1654,-10 183.1654,-13.5001 183.1655,-6.5001"/>
</g>
<!-- Node18 -->
<g id="node17" class="node">
<title>Node18</title>
<g id="a_node17"><a xlink:href="interfaceene_1_1interfaces_1_1Localization.html" target="_top" xlink:title="ene.interfaces.Localization">
<polygon fill="none" stroke="#000000" points="20,-170.5 20,-189.5 153,-189.5 153,-170.5 20,-170.5"/>
<text text-anchor="middle" x="86.5" y="-177.5" font-family="Helvetica,sans-Serif" font-size="10.00" fill="#000000">ene.interfaces.Localization</text>
</a>
</g>
</g>
<!-- Node18&#45;&gt;Node10 -->
<g id="edge22" class="edge">
<title>Node18&#45;&gt;Node10</title>
<path fill="none" stroke="#191970" d="M163.4209,-180C181.2345,-180 200.0084,-180 217.2149,-180"/>
<polygon fill="#191970" stroke="#191970" points="163.0626,-176.5001 153.0625,-180 163.0625,-183.5001 163.0626,-176.5001"/>
</g>
<!-- Node0 -->
<g id="node18" class="node">
<title>Node0</title>
<g id="a_node18"><a xlink:href="interfaceene_1_1interfaces_1_1View.html" target="_top" xlink:title="ene.interfaces.View\l\&lt; CoreComponentType \&gt;">
<polygon fill="none" stroke="#000000" points="22.5,-214 22.5,-244 150.5,-244 150.5,-214 22.5,-214"/>
<text text-anchor="start" x="30.5" y="-232" font-family="Helvetica,sans-Serif" font-size="10.00" fill="#000000">ene.interfaces.View</text>
<text text-anchor="middle" x="86.5" y="-221" font-family="Helvetica,sans-Serif" font-size="10.00" fill="#000000">&lt; CoreComponentType &gt;</text>
</a>
</g>
</g>
<!-- Node0&#45;&gt;Node10 -->
<g id="edge28" class="edge">
<title>Node0&#45;&gt;Node10</title>
<path fill="none" stroke="#191970" d="M156.0505,-211.5232C177.5431,-206.1225 201.0149,-200.2245 221.7815,-195.0062"/>
<polygon fill="#191970" stroke="#191970" points="155.1771,-208.1338 146.3316,-213.9654 156.8831,-214.9227 155.1771,-208.1338"/>
</g>
<!-- Node1 -->
<g id="node19" class="node">
<title>Node1</title>
<g id="a_node19"><a xlink:href="interfaceene_1_1interfaces_1_1MasterView.html" target="_top" xlink:title="ene.interfaces.MasterView\l\&lt; CoreComponentType \&gt;">
<polygon fill="none" stroke="#000000" points="215,-214 215,-244 348,-244 348,-214 215,-214"/>
<text text-anchor="start" x="223" y="-232" font-family="Helvetica,sans-Serif" font-size="10.00" fill="#000000">ene.interfaces.MasterView</text>
<text text-anchor="middle" x="281.5" y="-221" font-family="Helvetica,sans-Serif" font-size="10.00" fill="#000000">&lt; CoreComponentType &gt;</text>
</a>
</g>
</g>
<!-- Node0&#45;&gt;Node1 -->
<g id="edge24" class="edge">
<title>Node0&#45;&gt;Node1</title>
<path fill="none" stroke="#191970" d="M160.8904,-229C178.5767,-229 197.3396,-229 214.6643,-229"/>
<polygon fill="#191970" stroke="#191970" points="160.6204,-225.5001 150.6204,-229 160.6203,-232.5001 160.6204,-225.5001"/>
</g>
<!-- Node5 -->
<g id="node20" class="node">
<title>Node5</title>
<g id="a_node20"><a xlink:href="interfaceene_1_1interfaces_1_1PartialView.html" target="_top" xlink:title="ene.interfaces.PartialView\l\&lt; CoreComponentType, ModelType \&gt;">
<polygon fill="none" stroke="#000000" points="390,-255 390,-285 572,-285 572,-255 390,-255"/>
<text text-anchor="start" x="398" y="-273" font-family="Helvetica,sans-Serif" font-size="10.00" fill="#000000">ene.interfaces.PartialView</text>
<text text-anchor="middle" x="481" y="-262" font-family="Helvetica,sans-Serif" font-size="10.00" fill="#000000">&lt; CoreComponentType, ModelType &gt;</text>
</a>
</g>
</g>
<!-- Node0&#45;&gt;Node5 -->
<g id="edge26" class="edge">
<title>Node0&#45;&gt;Node5</title>
<path fill="none" stroke="#191970" d="M160.9747,-245.9626C176.7608,-249.0618 193.3752,-251.9567 209,-254 268.9205,-261.8361 336.7721,-265.8358 389.7176,-267.8766"/>
<polygon fill="#191970" stroke="#191970" points="161.2332,-242.4445 150.7393,-243.9034 159.8525,-249.307 161.2332,-242.4445"/>
</g>
<!-- Node1&#45;&gt;Node11 -->
<g id="edge25" class="edge">
<title>Node1&#45;&gt;Node11</title>
<path fill="none" stroke="#191970" d="M352.7694,-211.4952C382.9051,-204.0935 416.8263,-195.762 442.2076,-189.528"/>
<polygon fill="#191970" stroke="#191970" points="351.5889,-208.1811 342.7124,-213.9654 353.2586,-214.979 351.5889,-208.1811"/>
</g>
<!-- Node5&#45;&gt;Node14 -->
<g id="edge27" class="edge">
<title>Node5&#45;&gt;Node14</title>
<path fill="none" stroke="#191970" d="M582.428,-259.5906C653.1925,-252.3282 745.8905,-242.8147 808.9982,-236.3381"/>
<polygon fill="#191970" stroke="#191970" points="581.743,-256.1424 572.1526,-260.6452 582.4577,-263.1059 581.743,-256.1424"/>
</g>
</g>
</svg>
