<?xml version="1.0" encoding="UTF-8" standalone="no"?>
<!DOCTYPE svg PUBLIC "-//W3C//DTD SVG 1.1//EN"
 "http://www.w3.org/Graphics/SVG/1.1/DTD/svg11.dtd">
<!-- Generated by graphviz version 2.40.1 (20161225.0304)
 -->
<!-- Title: Graphical Class Hierarchy Pages: 1 -->
<svg width="1227pt" height="411pt"
 viewBox="0.00 0.00 1227.00 410.50" xmlns="http://www.w3.org/2000/svg" xmlns:xlink="http://www.w3.org/1999/xlink">
<g id="graph0" class="graph" transform="scale(1 1) rotate(0) translate(4 406.5)">
<title>Graphical Class Hierarchy</title>
<!-- Node40 -->
<g id="node1" class="node">
<title>Node40</title>
<polygon fill="none" stroke="#bfbfbf" points="958,-81.5 958,-100.5 1027,-100.5 1027,-81.5 958,-81.5"/>
<text text-anchor="middle" x="992.5" y="-88.5" font-family="Helvetica,sans-Serif" font-size="10.00" fill="#000000">LineListener</text>
</g>
<!-- Node14 -->
<g id="node2" class="node">
<title>Node14</title>
<g id="a_node2"><a xlink:href="classene_1_1views_1_1gui_1_1WindowView.html" target="_top" xlink:title="ene.views.gui.WindowView">
<polygon fill="none" stroke="#000000" points="1082,-43.5 1082,-62.5 1219,-62.5 1219,-43.5 1082,-43.5"/>
<text text-anchor="middle" x="1150.5" y="-50.5" font-family="Helvetica,sans-Serif" font-size="10.00" fill="#000000">ene.views.gui.WindowView</text>
</a>
</g>
</g>
<!-- Node40&#45;&gt;Node14 -->
<g id="edge1" class="edge">
<title>Node40&#45;&gt;Node14</title>
<path fill="none" stroke="#191970" d="M1037.1209,-80.2684C1060.3327,-74.6858 1088.4636,-67.9201 1110.8975,-62.5246"/>
<polygon fill="#191970" stroke="#191970" points="1036.0781,-76.9193 1027.1738,-82.6607 1037.715,-83.7252 1036.0781,-76.9193"/>
</g>
<!-- Node39 -->
<g id="node3" class="node">
<title>Node39</title>
<polygon fill="none" stroke="#bfbfbf" points="445,-302.5 445,-321.5 552,-321.5 552,-302.5 445,-302.5"/>
<text text-anchor="middle" x="498.5" y="-309.5" font-family="Helvetica,sans-Serif" font-size="10.00" fill="#000000">ListSelectionListener</text>
</g>
<!-- Node16 -->
<g id="node4" class="node">
<title>Node16</title>
<g id="a_node4"><a xlink:href="classene_1_1models_1_1LibraryModel.html" target="_top" xlink:title="ene.models.LibraryModel">
<polygon fill="none" stroke="#000000" points="610,-331.5 610,-350.5 735,-350.5 735,-331.5 610,-331.5"/>
<text text-anchor="middle" x="672.5" y="-338.5" font-family="Helvetica,sans-Serif" font-size="10.00" fill="#000000">ene.models.LibraryModel</text>
</a>
</g>
</g>
<!-- Node39&#45;&gt;Node16 -->
<g id="edge2" class="edge">
<title>Node39&#45;&gt;Node16</title>
<path fill="none" stroke="#191970" d="M562.2063,-322.6177C579.6313,-325.5219 598.4022,-328.6504 615.4308,-331.4885"/>
<polygon fill="#191970" stroke="#191970" points="562.5649,-319.1293 552.1255,-320.9376 561.414,-326.034 562.5649,-319.1293"/>
</g>
<!-- Node17 -->
<g id="node5" class="node">
<title>Node17</title>
<g id="a_node5"><a xlink:href="classene_1_1models_1_1PlaylistModel.html" target="_top" xlink:title="ene.models.PlaylistModel">
<polygon fill="none" stroke="#000000" points="775,-304.5 775,-323.5 903,-323.5 903,-304.5 775,-304.5"/>
<text text-anchor="middle" x="839" y="-311.5" font-family="Helvetica,sans-Serif" font-size="10.00" fill="#000000">ene.models.PlaylistModel</text>
</a>
</g>
</g>
<!-- Node16&#45;&gt;Node17 -->
<g id="edge3" class="edge">
<title>Node16&#45;&gt;Node17</title>
<path fill="none" stroke="#191970" d="M741.4246,-329.823C754.329,-327.7304 767.7069,-325.561 780.2672,-323.5242"/>
<polygon fill="#191970" stroke="#191970" points="740.5125,-326.4251 731.2017,-331.4808 741.633,-333.3349 740.5125,-326.4251"/>
</g>
<!-- Node18 -->
<g id="node6" class="node">
<title>Node18</title>
<g id="a_node6"><a xlink:href="classene_1_1models_1_1TrackModel.html" target="_top" xlink:title="ene.models.TrackModel">
<polygon fill="none" stroke="#000000" points="778.5,-250.5 778.5,-269.5 899.5,-269.5 899.5,-250.5 778.5,-250.5"/>
<text text-anchor="middle" x="839" y="-257.5" font-family="Helvetica,sans-Serif" font-size="10.00" fill="#000000">ene.models.TrackModel</text>
</a>
</g>
</g>
<!-- Node16&#45;&gt;Node18 -->
<g id="edge4" class="edge">
<title>Node16&#45;&gt;Node18</title>
<path fill="none" stroke="#191970" d="M701.594,-326.8462C735.3591,-310.4199 790.1218,-283.7786 819.2721,-269.5973"/>
<polygon fill="#191970" stroke="#191970" points="699.7148,-323.8681 692.2536,-331.3902 702.7771,-330.1628 699.7148,-323.8681"/>
</g>
<!-- Node38 -->
<g id="node7" class="node">
<title>Node38</title>
<polygon fill="none" stroke="#bfbfbf" points="458.5,-340.5 458.5,-359.5 538.5,-359.5 538.5,-340.5 458.5,-340.5"/>
<text text-anchor="middle" x="498.5" y="-347.5" font-family="Helvetica,sans-Serif" font-size="10.00" fill="#000000">MouseListener</text>
</g>
<!-- Node38&#45;&gt;Node16 -->
<g id="edge5" class="edge">
<title>Node38&#45;&gt;Node16</title>
<path fill="none" stroke="#191970" d="M549.0891,-347.3833C568.0849,-346.4008 589.9062,-345.2721 609.8664,-344.2397"/>
<polygon fill="#191970" stroke="#191970" points="548.6623,-343.9006 538.8564,-347.9126 549.0239,-350.8913 548.6623,-343.9006"/>
</g>
<!-- Node30 -->
<g id="node8" class="node">
<title>Node30</title>
<g id="a_node8"><a xlink:href="classene_1_1AbstractObject.html" target="_top" xlink:title="ene.AbstractObject">
<polygon fill="none" stroke="#000000" points="36,-76.5 36,-95.5 137,-95.5 137,-76.5 36,-76.5"/>
<text text-anchor="middle" x="86.5" y="-83.5" font-family="Helvetica,sans-Serif" font-size="10.00" fill="#000000">ene.AbstractObject</text>
</a>
</g>
</g>
<!-- Node31 -->
<g id="node9" class="node">
<title>Node31</title>
<g id="a_node9"><a xlink:href="classene_1_1Application.html" target="_top" xlink:title="ene.Application">
<polygon fill="none" stroke="#000000" points="258.5,-38.5 258.5,-57.5 341.5,-57.5 341.5,-38.5 258.5,-38.5"/>
<text text-anchor="middle" x="300" y="-45.5" font-family="Helvetica,sans-Serif" font-size="10.00" fill="#000000">ene.Application</text>
</a>
</g>
</g>
<!-- Node30&#45;&gt;Node31 -->
<g id="edge6" class="edge">
<title>Node30&#45;&gt;Node31</title>
<path fill="none" stroke="#191970" d="M147.352,-75.1692C182.8768,-68.8463 226.7782,-61.0325 258.3679,-55.4099"/>
<polygon fill="#191970" stroke="#191970" points="146.3285,-71.7963 137.0965,-76.9945 147.5551,-78.688 146.3285,-71.7963"/>
</g>
<!-- Node27 -->
<g id="node10" class="node">
<title>Node27</title>
<g id="a_node10"><a xlink:href="classene_1_1controllers_1_1AbstractController.html" target="_top" xlink:title="ene.controllers.Abstract\lController\&lt; ModelType \&gt;">
<polygon fill="none" stroke="#000000" points="237.5,-153 237.5,-183 362.5,-183 362.5,-153 237.5,-153"/>
<text text-anchor="start" x="245.5" y="-171" font-family="Helvetica,sans-Serif" font-size="10.00" fill="#000000">ene.controllers.Abstract</text>
<text text-anchor="middle" x="300" y="-160" font-family="Helvetica,sans-Serif" font-size="10.00" fill="#000000">Controller&lt; ModelType &gt;</text>
</a>
</g>
</g>
<!-- Node30&#45;&gt;Node27 -->
<g id="edge7" class="edge">
<title>Node30&#45;&gt;Node27</title>
<path fill="none" stroke="#191970" d="M116.7091,-99.6518C141.3316,-110.5774 177.1205,-126.0025 209,-138 222.7007,-143.1561 237.7351,-148.3123 251.5673,-152.8593"/>
<polygon fill="#191970" stroke="#191970" points="118.0878,-96.4343 107.5293,-95.5572 115.2363,-102.8272 118.0878,-96.4343"/>
</g>
<!-- Node25 -->
<g id="node11" class="node">
<title>Node25</title>
<g id="a_node11"><a xlink:href="classene_1_1databases_1_1SQLDatabase.html" target="_top" xlink:title="ene.databases.SQLDatabase">
<polygon fill="none" stroke="#000000" points="227.5,-.5 227.5,-19.5 372.5,-19.5 372.5,-.5 227.5,-.5"/>
<text text-anchor="middle" x="300" y="-7.5" font-family="Helvetica,sans-Serif" font-size="10.00" fill="#000000">ene.databases.SQLDatabase</text>
</a>
</g>
</g>
<!-- Node30&#45;&gt;Node25 -->
<g id="edge8" class="edge">
<title>Node30&#45;&gt;Node25</title>
<path fill="none" stroke="#191970" d="M112.7845,-71.6094C137.1125,-58.8176 174.6082,-40.4227 209,-29 220.1811,-25.2864 232.3851,-22.1457 244.1194,-19.5532"/>
<polygon fill="#191970" stroke="#191970" points="111.0117,-68.5881 103.8305,-76.3779 114.3021,-74.7666 111.0117,-68.5881"/>
</g>
<!-- Node13 -->
<g id="node12" class="node">
<title>Node13</title>
<g id="a_node12"><a xlink:href="classene_1_1views_1_1gui_1_1partial_1_1ContentView.html" target="_top" xlink:title="ene.views.gui.partial.ContentView">
<polygon fill="none" stroke="#000000" points="217.5,-76.5 217.5,-95.5 382.5,-95.5 382.5,-76.5 217.5,-76.5"/>
<text text-anchor="middle" x="300" y="-83.5" font-family="Helvetica,sans-Serif" font-size="10.00" fill="#000000">ene.views.gui.partial.ContentView</text>
</a>
</g>
</g>
<!-- Node30&#45;&gt;Node13 -->
<g id="edge9" class="edge">
<title>Node30&#45;&gt;Node13</title>
<path fill="none" stroke="#191970" d="M147.1843,-86C168.9577,-86 193.8947,-86 217.2214,-86"/>
<polygon fill="#191970" stroke="#191970" points="147.0966,-82.5001 137.0965,-86 147.0965,-89.5001 147.0966,-82.5001"/>
</g>
<!-- Node11 -->
<g id="node14" class="node">
<title>Node11</title>
<g id="a_node14"><a xlink:href="classene_1_1views_1_1AbstractView.html" target="_top" xlink:title="ene.views.AbstractView\l\&lt; CoreComponentType \&gt;">
<polygon fill="none" stroke="#000000" points="775,-174 775,-204 903,-204 903,-174 775,-174"/>
<text text-anchor="start" x="783" y="-192" font-family="Helvetica,sans-Serif" font-size="10.00" fill="#000000">ene.views.AbstractView</text>
<text text-anchor="middle" x="839" y="-181" font-family="Helvetica,sans-Serif" font-size="10.00" fill="#000000">&lt; CoreComponentType &gt;</text>
</a>
</g>
</g>
<!-- Node30&#45;&gt;Node11 -->
<g id="edge15" class="edge">
<title>Node30&#45;&gt;Node11</title>
<path fill="none" stroke="#191970" d="M147.1978,-95.6763C166.8986,-98.7469 188.8653,-102.0966 209,-105 415.6862,-134.8043 661.0799,-166.4487 774.9971,-180.9244"/>
<polygon fill="#191970" stroke="#191970" points="147.5447,-92.1881 137.1238,-94.0999 146.4625,-99.104 147.5447,-92.1881"/>
</g>
<!-- Node13&#45;&gt;Node14 -->
<g id="edge10" class="edge">
<title>Node13&#45;&gt;Node14</title>
<path fill="none" stroke="#191970" d="M355.8734,-74.4037C367.487,-71.9738 379.6452,-69.4156 391,-67 516.2127,-40.3622 544.4851,-6 672.5,-6 672.5,-6 672.5,-6 839,-6 938.5394,-6 1053.9883,-29.7553 1112.415,-43.4888"/>
<polygon fill="#191970" stroke="#191970" points="354.9145,-71.0283 345.8415,-76.4992 356.3459,-77.8805 354.9145,-71.0283"/>
</g>
<!-- Node13&#45;&gt;Node18 -->
<g id="edge14" class="edge">
<title>Node13&#45;&gt;Node18</title>
<path fill="none" stroke="#191970" d="M339.4581,-98.7379C442.5506,-132.0182 718.2698,-221.0259 809.3452,-250.4268"/>
<polygon fill="#191970" stroke="#191970" points="340.3384,-95.3443 329.7467,-95.6028 338.1879,-102.0058 340.3384,-95.3443"/>
</g>
<!-- Node15 -->
<g id="node13" class="node">
<title>Node15</title>
<g id="a_node13"><a xlink:href="classene_1_1views_1_1AbstractPartialView.html" target="_top" xlink:title="ene.views.AbstractPartial\lView\&lt; CoreComponentType,\l ModelType \&gt;">
<polygon fill="none" stroke="#000000" points="427,-242.5 427,-283.5 570,-283.5 570,-242.5 427,-242.5"/>
<text text-anchor="start" x="435" y="-271.5" font-family="Helvetica,sans-Serif" font-size="10.00" fill="#000000">ene.views.AbstractPartial</text>
<text text-anchor="start" x="435" y="-260.5" font-family="Helvetica,sans-Serif" font-size="10.00" fill="#000000">View&lt; CoreComponentType,</text>
<text text-anchor="middle" x="498.5" y="-249.5" font-family="Helvetica,sans-Serif" font-size="10.00" fill="#000000"> ModelType &gt;</text>
</a>
</g>
</g>
<!-- Node13&#45;&gt;Node15 -->
<g id="edge11" class="edge">
<title>Node13&#45;&gt;Node15</title>
<path fill="none" stroke="#191970" d="M327.3978,-100.47C346.2048,-111.0296 371.2391,-126.3578 391,-143 427.5838,-173.8102 463.2586,-217.0018 482.9156,-242.287"/>
<polygon fill="#191970" stroke="#191970" points="328.9019,-97.3027 318.4542,-95.5429 325.5241,-103.4338 328.9019,-97.3027"/>
</g>
<!-- Node15&#45;&gt;Node16 -->
<g id="edge12" class="edge">
<title>Node15&#45;&gt;Node16</title>
<path fill="none" stroke="#191970" d="M578.0588,-288.8432C588.2634,-295.6262 592.1843,-301.0311 606,-308 624.4107,-317.2868 647.2965,-324.7206 660.855,-331.2776"/>
<polygon fill="#191970" stroke="#191970" points="579.669,-285.7285 569.2864,-283.6185 576.087,-291.7426 579.669,-285.7285"/>
</g>
<!-- Node15&#45;&gt;Node16 -->
<g id="edge20" class="edge">
<title>Node15&#45;&gt;Node16</title>
<path fill="none" stroke="#191970" d="M540.4081,-287.7467C550.2833,-292.2107 560.6522,-296.9823 570,-302 586.943,-311.0947 588.831,-317.3396 606,-326 609.726,-327.8795 613.6352,-329.683 617.6134,-331.3766"/>
<polygon fill="#191970" stroke="#191970" points="541.6953,-284.4877 531.1409,-283.5631 538.815,-290.8677 541.6953,-284.4877"/>
</g>
<!-- Node15&#45;&gt;Node17 -->
<g id="edge13" class="edge">
<title>Node15&#45;&gt;Node17</title>
<path fill="none" stroke="#191970" d="M579.9599,-279.4897C588.7353,-281.0938 597.544,-282.6312 606,-284 662.7683,-293.1895 727.6857,-301.357 774.5541,-306.8406"/>
<polygon fill="#191970" stroke="#191970" points="580.558,-276.041 570.0869,-277.6556 579.2794,-282.9232 580.558,-276.041"/>
</g>
<!-- Node19 -->
<g id="node16" class="node">
<title>Node19</title>
<g id="a_node16"><a xlink:href="interfaceene_1_1interfaces_1_1Localization.html" target="_top" xlink:title="ene.interfaces.Localization">
<polygon fill="none" stroke="#000000" points="606,-255.5 606,-274.5 739,-274.5 739,-255.5 606,-255.5"/>
<text text-anchor="middle" x="672.5" y="-262.5" font-family="Helvetica,sans-Serif" font-size="10.00" fill="#000000">ene.interfaces.Localization</text>
</a>
</g>
</g>
<!-- Node15&#45;&gt;Node19 -->
<g id="edge21" class="edge">
<title>Node15&#45;&gt;Node19</title>
<path fill="none" stroke="#191970" d="M580.0638,-263.9375C588.6599,-264.0363 597.3269,-264.1359 605.7276,-264.2325"/>
<polygon fill="#191970" stroke="#191970" points="580.0653,-260.4374 570.0257,-263.8221 579.9848,-267.4369 580.0653,-260.4374"/>
</g>
<!-- Node11&#45;&gt;Node15 -->
<g id="edge19" class="edge">
<title>Node11&#45;&gt;Node15</title>
<path fill="none" stroke="#191970" d="M764.9779,-205.087C707.2243,-217.6385 627.473,-234.9706 570.2952,-247.3969"/>
<polygon fill="#191970" stroke="#191970" points="765.7431,-208.5025 774.7717,-202.9586 764.2565,-201.6622 765.7431,-208.5025"/>
</g>
<!-- Node12 -->
<g id="node15" class="node">
<title>Node12</title>
<g id="a_node15"><a xlink:href="interfaceene_1_1interfaces_1_1Model.html" target="_top" xlink:title="ene.interfaces.Model">
<polygon fill="none" stroke="#000000" points="939,-43.5 939,-62.5 1046,-62.5 1046,-43.5 939,-43.5"/>
<text text-anchor="middle" x="992.5" y="-50.5" font-family="Helvetica,sans-Serif" font-size="10.00" fill="#000000">ene.interfaces.Model</text>
</a>
</g>
</g>
<!-- Node11&#45;&gt;Node12 -->
<g id="edge16" class="edge">
<title>Node11&#45;&gt;Node12</title>
<path fill="none" stroke="#191970" d="M853.7164,-165.2861C871.1108,-139.06 902.3671,-97.1919 939,-72 944.5226,-68.2022 950.8861,-65.0814 957.2541,-62.5459"/>
<polygon fill="#191970" stroke="#191970" points="850.6622,-163.5632 848.1558,-173.8573 856.5346,-167.373 850.6622,-163.5632"/>
</g>
<!-- Node12&#45;&gt;Node14 -->
<g id="edge18" class="edge">
<title>Node12&#45;&gt;Node14</title>
<path fill="none" stroke="#191970" d="M1056.4454,-53C1064.7695,-53 1073.3252,-53 1081.724,-53"/>
<polygon fill="#191970" stroke="#191970" points="1056.4328,-49.5001 1046.4327,-53 1056.4327,-56.5001 1056.4328,-49.5001"/>
</g>
<!-- Node12&#45;&gt;Node13 -->
<g id="edge17" class="edge">
<title>Node12&#45;&gt;Node13</title>
<path fill="none" stroke="#191970" d="M928.4892,-51.9343C802.4393,-54.5846 522.2091,-67.7899 382.5008,-77.5065"/>
<polygon fill="#191970" stroke="#191970" points="928.8174,-55.4287 938.7479,-51.7361 928.6821,-48.43 928.8174,-55.4287"/>
</g>
<!-- Node12&#45;&gt;Node13 -->
<g id="edge25" class="edge">
<title>Node12&#45;&gt;Node13</title>
<path fill="none" stroke="#191970" d="M928.4892,-60.1664C802.4393,-69.5295 522.2091,-83.0321 382.5008,-86.6306"/>
<polygon fill="#191970" stroke="#191970" points="929.0418,-63.6346 938.7479,-59.3868 928.5114,-56.6547 929.0418,-63.6346"/>
</g>
<!-- Node19&#45;&gt;Node11 -->
<g id="edge24" class="edge">
<title>Node19&#45;&gt;Node11</title>
<path fill="none" stroke="#191970" d="M711.3206,-251.9726C720.4898,-248.626 730.166,-244.8704 739,-241 764.4511,-229.8492 792.4352,-215.0695 812.3115,-204.1177"/>
<polygon fill="#191970" stroke="#191970" points="709.8758,-248.7719 701.6341,-255.4295 712.2287,-255.3647 709.8758,-248.7719"/>
</g>
<!-- Node26 -->
<g id="node17" class="node">
<title>Node26</title>
<g id="a_node17"><a xlink:href="interfaceene_1_1interfaces_1_1Controller.html" target="_top" xlink:title="ene.interfaces.Controller\l\&lt; ModelType \&gt;">
<polygon fill="none" stroke="#000000" points="25,-153 25,-183 148,-183 148,-153 25,-153"/>
<text text-anchor="start" x="33" y="-171" font-family="Helvetica,sans-Serif" font-size="10.00" fill="#000000">ene.interfaces.Controller</text>
<text text-anchor="middle" x="86.5" y="-160" font-family="Helvetica,sans-Serif" font-size="10.00" fill="#000000">&lt; ModelType &gt;</text>
</a>
</g>
</g>
<!-- Node26&#45;&gt;Node27 -->
<g id="edge22" class="edge">
<title>Node26&#45;&gt;Node27</title>
<path fill="none" stroke="#191970" d="M158.2729,-168C183.8746,-168 212.4939,-168 237.2754,-168"/>
<polygon fill="#191970" stroke="#191970" points="158.2531,-164.5001 148.253,-168 158.253,-171.5001 158.2531,-164.5001"/>
</g>
<!-- Node24 -->
<g id="node18" class="node">
<title>Node24</title>
<g id="a_node18"><a xlink:href="interfaceene_1_1interfaces_1_1DatabaseConnection.html" target="_top" xlink:title="ene.interfaces.DatabaseConnection">
<polygon fill="none" stroke="#000000" points="0,-.5 0,-19.5 173,-19.5 173,-.5 0,-.5"/>
<text text-anchor="middle" x="86.5" y="-7.5" font-family="Helvetica,sans-Serif" font-size="10.00" fill="#000000">ene.interfaces.DatabaseConnection</text>
</a>
</g>
</g>
<!-- Node24&#45;&gt;Node25 -->
<g id="edge23" class="edge">
<title>Node24&#45;&gt;Node25</title>
<path fill="none" stroke="#191970" d="M183.2438,-10C198.0764,-10 213.169,-10 227.3625,-10"/>
<polygon fill="#191970" stroke="#191970" points="183.0309,-6.5001 173.0308,-10 183.0308,-13.5001 183.0309,-6.5001"/>
</g>
<!-- Node0 -->
<g id="node19" class="node">
<title>Node0</title>
<g id="a_node19"><a xlink:href="interfaceene_1_1interfaces_1_1View.html" target="_top" xlink:title="ene.interfaces.View\l\&lt; CoreComponentType \&gt;">
<polygon fill="none" stroke="#000000" points="22.5,-248 22.5,-278 150.5,-278 150.5,-248 22.5,-248"/>
<text text-anchor="start" x="30.5" y="-266" font-family="Helvetica,sans-Serif" font-size="10.00" fill="#000000">ene.interfaces.View</text>
<text text-anchor="middle" x="86.5" y="-255" font-family="Helvetica,sans-Serif" font-size="10.00" fill="#000000">&lt; CoreComponentType &gt;</text>
</a>
</g>
</g>
<!-- Node0&#45;&gt;Node11 -->
<g id="edge30" class="edge">
<title>Node0&#45;&gt;Node11</title>
<path fill="none" stroke="#191970" d="M161.0059,-246.2679C176.7899,-243.1527 193.3955,-240.193 209,-238 414.5969,-209.1061 660.5119,-196.1537 774.7749,-191.3636"/>
<polygon fill="#191970" stroke="#191970" points="159.8822,-242.9239 150.771,-248.331 161.2655,-249.7859 159.8822,-242.9239"/>
</g>
<!-- Node1 -->
<g id="node20" class="node">
<title>Node1</title>
<g id="a_node20"><a xlink:href="interfaceene_1_1interfaces_1_1MasterView.html" target="_top" xlink:title="ene.interfaces.MasterView\l\&lt; CoreComponentType \&gt;">
<polygon fill="none" stroke="#000000" points="606,-372 606,-402 739,-402 739,-372 606,-372"/>
<text text-anchor="start" x="614" y="-390" font-family="Helvetica,sans-Serif" font-size="10.00" fill="#000000">ene.interfaces.MasterView</text>
<text text-anchor="middle" x="672.5" y="-379" font-family="Helvetica,sans-Serif" font-size="10.00" fill="#000000">&lt; CoreComponentType &gt;</text>
</a>
</g>
</g>
<!-- Node0&#45;&gt;Node1 -->
<g id="edge26" class="edge">
<title>Node0&#45;&gt;Node1</title>
<path fill="none" stroke="#191970" d="M134.1459,-281.6484C199.1956,-306.2201 319.9633,-348.6928 427,-369 486.8314,-380.3513 556.1215,-384.6427 605.8014,-386.2167"/>
<polygon fill="#191970" stroke="#191970" points="135.1689,-278.293 124.5779,-278.0112 132.6816,-284.8362 135.1689,-278.293"/>
</g>
<!-- Node5 -->
<g id="node21" class="node">
<title>Node5</title>
<g id="a_node21"><a xlink:href="interfaceene_1_1interfaces_1_1PartialView.html" target="_top" xlink:title="ene.interfaces.PartialView\l\&lt; CoreComponentType, ModelType \&gt;">
<polygon fill="none" stroke="#000000" points="209,-248 209,-278 391,-278 391,-248 209,-248"/>
<text text-anchor="start" x="217" y="-266" font-family="Helvetica,sans-Serif" font-size="10.00" fill="#000000">ene.interfaces.PartialView</text>
<text text-anchor="middle" x="300" y="-255" font-family="Helvetica,sans-Serif" font-size="10.00" fill="#000000">&lt; CoreComponentType, ModelType &gt;</text>
</a>
</g>
</g>
<!-- Node0&#45;&gt;Node5 -->
<g id="edge28" class="edge">
<title>Node0&#45;&gt;Node5</title>
<path fill="none" stroke="#191970" d="M160.601,-263C176.1327,-263 192.6848,-263 208.7576,-263"/>
<polygon fill="#191970" stroke="#191970" points="160.5571,-259.5001 150.557,-263 160.557,-266.5001 160.5571,-259.5001"/>
</g>
<!-- Node1&#45;&gt;Node12 -->
<g id="edge27" class="edge">
<title>Node1&#45;&gt;Node12</title>
<path fill="none" stroke="#191970" d="M749.0964,-389.923C800.1095,-387.4787 864.5947,-375.1564 903,-333 981.8601,-246.4374 865.0686,-162.8083 939,-72 942.1738,-68.1017 946.2063,-65.0026 950.6294,-62.539"/>
<polygon fill="#191970" stroke="#191970" points="748.9517,-386.4258 739.0851,-390.286 749.2054,-393.4212 748.9517,-386.4258"/>
</g>
<!-- Node5&#45;&gt;Node15 -->
<g id="edge29" class="edge">
<title>Node5&#45;&gt;Node15</title>
<path fill="none" stroke="#191970" d="M401.286,-263C409.9543,-263 418.6018,-263 426.964,-263"/>
<polygon fill="#191970" stroke="#191970" points="401.1165,-259.5001 391.1165,-263 401.1165,-266.5001 401.1165,-259.5001"/>
</g>
</g>
</svg>
