<?xml version="1.0" encoding="UTF-8" standalone="no"?>
<!DOCTYPE svg PUBLIC "-//W3C//DTD SVG 1.1//EN"
 "http://www.w3.org/Graphics/SVG/1.1/DTD/svg11.dtd">
<!-- Generated by graphviz version 2.40.1 (20161225.0304)
 -->
<!-- Title: Graphical Class Hierarchy Pages: 1 -->
<svg width="334pt" height="165pt"
 viewBox="0.00 0.00 334.00 165.00" xmlns="http://www.w3.org/2000/svg" xmlns:xlink="http://www.w3.org/1999/xlink">
<g id="graph0" class="graph" transform="scale(1 1) rotate(0) translate(4 161)">
<title>Graphical Class Hierarchy</title>
<!-- Node37 -->
<g id="node1" class="node">
<title>Node37</title>
<g id="a_node1"><a xlink:href="classene_1_1controllers_1_1AbstractController.html" target="_top" xlink:title="ene.controllers.Abstract\lController\&lt; LibraryModel \&gt;">
<polygon fill="none" stroke="#000000" points="1.5,-126.5 1.5,-156.5 133.5,-156.5 133.5,-126.5 1.5,-126.5"/>
<text text-anchor="start" x="9.5" y="-144.5" font-family="Helvetica,sans-Serif" font-size="10.00" fill="#000000">ene.controllers.Abstract</text>
<text text-anchor="middle" x="67.5" y="-133.5" font-family="Helvetica,sans-Serif" font-size="10.00" fill="#000000">Controller&lt; LibraryModel &gt;</text>
</a>
</g>
</g>
<!-- Node1 -->
<g id="node2" class="node">
<title>Node1</title>
<g id="a_node2"><a xlink:href="classene_1_1controllers_1_1LibraryController.html" target="_top" xlink:title="ene.controllers.LibraryController">
<polygon fill="none" stroke="#000000" points="171,-91 171,-110 326,-110 326,-91 171,-91"/>
<text text-anchor="middle" x="248.5" y="-98" font-family="Helvetica,sans-Serif" font-size="10.00" fill="#000000">ene.controllers.LibraryController</text>
</a>
</g>
</g>
<!-- Node37&#45;&gt;Node1 -->
<g id="edge1" class="edge">
<title>Node37&#45;&gt;Node1</title>
<path fill="none" stroke="#191970" d="M143.4269,-124.3011C164.9989,-119.4146 187.7054,-114.2712 206.4688,-110.0209"/>
<polygon fill="#191970" stroke="#191970" points="142.5931,-120.9012 133.6135,-126.524 144.1396,-127.7282 142.5931,-120.9012"/>
</g>
<!-- Node34 -->
<g id="node3" class="node">
<title>Node34</title>
<g id="a_node3"><a xlink:href="classene_1_1controllers_1_1AbstractController.html" target="_top" xlink:title="ene.controllers.Abstract\lController\&lt; PlaylistModel \&gt;">
<polygon fill="none" stroke="#000000" points="0,-.5 0,-30.5 135,-30.5 135,-.5 0,-.5"/>
<text text-anchor="start" x="8" y="-18.5" font-family="Helvetica,sans-Serif" font-size="10.00" fill="#000000">ene.controllers.Abstract</text>
<text text-anchor="middle" x="67.5" y="-7.5" font-family="Helvetica,sans-Serif" font-size="10.00" fill="#000000">Controller&lt; PlaylistModel &gt;</text>
</a>
</g>
</g>
<!-- Node2 -->
<g id="node4" class="node">
<title>Node2</title>
<g id="a_node4"><a xlink:href="classene_1_1controllers_1_1PlaylistController.html" target="_top" xlink:title="ene.controllers.Playlist\lController">
<polygon fill="none" stroke="#000000" points="190.5,-41.5 190.5,-71.5 306.5,-71.5 306.5,-41.5 190.5,-41.5"/>
<text text-anchor="start" x="198.5" y="-59.5" font-family="Helvetica,sans-Serif" font-size="10.00" fill="#000000">ene.controllers.Playlist</text>
<text text-anchor="middle" x="248.5" y="-48.5" font-family="Helvetica,sans-Serif" font-size="10.00" fill="#000000">Controller</text>
</a>
</g>
</g>
<!-- Node34&#45;&gt;Node2 -->
<g id="edge2" class="edge">
<title>Node34&#45;&gt;Node2</title>
<path fill="none" stroke="#191970" d="M143.9988,-32.8285C159.5669,-36.3549 175.7014,-40.0097 190.4992,-43.3617"/>
<polygon fill="#191970" stroke="#191970" points="144.3961,-29.3299 133.8699,-30.5341 142.8496,-36.1569 144.3961,-29.3299"/>
</g>
<!-- Node23 -->
<g id="node5" class="node">
<title>Node23</title>
<g id="a_node5"><a xlink:href="interfaceene_1_1interfaces_1_1Export.html" target="_top" xlink:title="ene.interfaces.Export">
<polygon fill="none" stroke="#000000" points="12.5,-88 12.5,-107 122.5,-107 122.5,-88 12.5,-88"/>
<text text-anchor="middle" x="67.5" y="-95" font-family="Helvetica,sans-Serif" font-size="10.00" fill="#000000">ene.interfaces.Export</text>
</a>
</g>
</g>
<!-- Node23&#45;&gt;Node1 -->
<g id="edge3" class="edge">
<title>Node23&#45;&gt;Node1</title>
<path fill="none" stroke="#191970" d="M132.9528,-98.5849C145.2666,-98.7889 158.252,-99.0042 170.8946,-99.2137"/>
<polygon fill="#191970" stroke="#191970" points="132.8461,-95.0827 122.7895,-98.4164 132.7301,-102.0817 132.8461,-95.0827"/>
</g>
<!-- Node23&#45;&gt;Node2 -->
<g id="edge4" class="edge">
<title>Node23&#45;&gt;Node2</title>
<path fill="none" stroke="#191970" d="M119.3678,-85.7509C141.5253,-80.7318 167.4862,-74.8512 190.2965,-69.6842"/>
<polygon fill="#191970" stroke="#191970" points="118.4596,-82.3679 109.48,-87.9907 120.0062,-89.1949 118.4596,-82.3679"/>
</g>
<!-- Node0 -->
<g id="node6" class="node">
<title>Node0</title>
<g id="a_node6"><a xlink:href="interfaceene_1_1interfaces_1_1Import.html" target="_top" xlink:title="ene.interfaces.Import">
<polygon fill="none" stroke="#000000" points="13,-50 13,-69 122,-69 122,-50 13,-50"/>
<text text-anchor="middle" x="67.5" y="-57" font-family="Helvetica,sans-Serif" font-size="10.00" fill="#000000">ene.interfaces.Import</text>
</a>
</g>
</g>
<!-- Node0&#45;&gt;Node1 -->
<g id="edge5" class="edge">
<title>Node0&#45;&gt;Node1</title>
<path fill="none" stroke="#191970" d="M119.3574,-71.2467C146.9603,-77.4993 180.4682,-85.0895 206.4345,-90.9714"/>
<polygon fill="#191970" stroke="#191970" points="120.0062,-67.8051 109.48,-69.0093 118.4596,-74.6321 120.0062,-67.8051"/>
</g>
<!-- Node0&#45;&gt;Node2 -->
<g id="edge6" class="edge">
<title>Node0&#45;&gt;Node2</title>
<path fill="none" stroke="#191970" d="M132.3428,-58.4253C151.3092,-58.1109 171.9144,-57.7694 190.432,-57.4625"/>
<polygon fill="#191970" stroke="#191970" points="132.2377,-54.9264 122.2972,-58.5918 132.3538,-61.9255 132.2377,-54.9264"/>
</g>
</g>
</svg>
