<?xml version="1.0" encoding="UTF-8" standalone="no"?>
<!DOCTYPE svg PUBLIC "-//W3C//DTD SVG 1.1//EN"
 "http://www.w3.org/Graphics/SVG/1.1/DTD/svg11.dtd">
<!-- Generated by graphviz version 2.40.1 (20161225.0304)
 -->
<!-- Title: ene.interfaces.View&lt; CoreComponentType &gt; Pages: 1 -->
<svg width="1324pt" height="874pt"
 viewBox="0.00 0.00 1323.50 874.00" xmlns="http://www.w3.org/2000/svg" xmlns:xlink="http://www.w3.org/1999/xlink">
<g id="graph0" class="graph" transform="scale(1 1) rotate(0) translate(4 870)">
<title>ene.interfaces.View&lt; CoreComponentType &gt;</title>
<!-- Node0 -->
<g id="node1" class="node">
<title>Node0</title>
<polygon fill="#bfbfbf" stroke="#000000" points="579.5,-731.5 579.5,-865.5 707.5,-865.5 707.5,-731.5 579.5,-731.5"/>
<text text-anchor="start" x="587.5" y="-853.5" font-family="Helvetica,sans-Serif" font-size="10.00" fill="#000000">ene.interfaces.View</text>
<text text-anchor="middle" x="643.5" y="-842.5" font-family="Helvetica,sans-Serif" font-size="10.00" fill="#000000">&lt; CoreComponentType &gt;</text>
<polyline fill="none" stroke="#000000" points="579.5,-835.5 707.5,-835.5 "/>
<text text-anchor="middle" x="643.5" y="-823.5" font-family="Helvetica,sans-Serif" font-size="10.00" fill="#000000"> </text>
<polyline fill="none" stroke="#000000" points="579.5,-816.5 707.5,-816.5 "/>
<text text-anchor="start" x="587.5" y="-804.5" font-family="Helvetica,sans-Serif" font-size="10.00" fill="#000000">+ setTitle()</text>
<text text-anchor="start" x="587.5" y="-793.5" font-family="Helvetica,sans-Serif" font-size="10.00" fill="#000000">+ getTitle()</text>
<text text-anchor="start" x="587.5" y="-782.5" font-family="Helvetica,sans-Serif" font-size="10.00" fill="#000000">+ setCoreComponent()</text>
<text text-anchor="start" x="587.5" y="-771.5" font-family="Helvetica,sans-Serif" font-size="10.00" fill="#000000">+ getCoreComponent()</text>
<text text-anchor="start" x="587.5" y="-760.5" font-family="Helvetica,sans-Serif" font-size="10.00" fill="#000000">+ setLayoutPosition()</text>
<text text-anchor="start" x="587.5" y="-749.5" font-family="Helvetica,sans-Serif" font-size="10.00" fill="#000000">+ getLayoutPosition()</text>
<text text-anchor="start" x="587.5" y="-738.5" font-family="Helvetica,sans-Serif" font-size="10.00" fill="#000000">+ render()</text>
</g>
<!-- Node1 -->
<g id="node2" class="node">
<title>Node1</title>
<g id="a_node2"><a xlink:href="interfaceene_1_1interfaces_1_1MasterView.html" target="_top" xlink:title="{ene::interfaces::MasterView\l\&lt; CoreComponentType \&gt;\n||+ addView()\l+ setAllViews()\l+ getAllViews()\l}">
<polygon fill="none" stroke="#000000" points="420,-576 420,-666 559,-666 559,-576 420,-576"/>
<text text-anchor="start" x="428" y="-654" font-family="Helvetica,sans-Serif" font-size="10.00" fill="#000000">ene::interfaces::MasterView</text>
<text text-anchor="middle" x="489.5" y="-643" font-family="Helvetica,sans-Serif" font-size="10.00" fill="#000000">&lt; CoreComponentType &gt;</text>
<polyline fill="none" stroke="#000000" points="420,-636 559,-636 "/>
<text text-anchor="middle" x="489.5" y="-624" font-family="Helvetica,sans-Serif" font-size="10.00" fill="#000000"> </text>
<polyline fill="none" stroke="#000000" points="420,-617 559,-617 "/>
<text text-anchor="start" x="428" y="-605" font-family="Helvetica,sans-Serif" font-size="10.00" fill="#000000">+ addView()</text>
<text text-anchor="start" x="428" y="-594" font-family="Helvetica,sans-Serif" font-size="10.00" fill="#000000">+ setAllViews()</text>
<text text-anchor="start" x="428" y="-583" font-family="Helvetica,sans-Serif" font-size="10.00" fill="#000000">+ getAllViews()</text>
</a>
</g>
</g>
<!-- Node0&#45;&gt;Node1 -->
<g id="edge1" class="edge">
<title>Node0&#45;&gt;Node1</title>
<path fill="none" stroke="#191970" d="M578.5732,-723.6655C561.6071,-704.1104 543.839,-683.631 528.675,-666.153"/>
<polygon fill="none" stroke="#191970" points="576.0821,-726.1351 585.2792,-731.3949 581.3695,-721.5478 576.0821,-726.1351"/>
</g>
<!-- Node7 -->
<g id="node8" class="node">
<title>Node7</title>
<g id="a_node8"><a xlink:href="interfaceene_1_1interfaces_1_1PartialView.html" target="_top" xlink:title="{ene::interfaces::Partial\lView\&lt; CoreComponentType \&gt;\n||+ setModel()\l+ getModel()\l+ update()\l}">
<polygon fill="none" stroke="#000000" points="747,-576 747,-666 896,-666 896,-576 747,-576"/>
<text text-anchor="start" x="755" y="-654" font-family="Helvetica,sans-Serif" font-size="10.00" fill="#000000">ene::interfaces::Partial</text>
<text text-anchor="middle" x="821.5" y="-643" font-family="Helvetica,sans-Serif" font-size="10.00" fill="#000000">View&lt; CoreComponentType &gt;</text>
<polyline fill="none" stroke="#000000" points="747,-636 896,-636 "/>
<text text-anchor="middle" x="821.5" y="-624" font-family="Helvetica,sans-Serif" font-size="10.00" fill="#000000"> </text>
<polyline fill="none" stroke="#000000" points="747,-617 896,-617 "/>
<text text-anchor="start" x="755" y="-605" font-family="Helvetica,sans-Serif" font-size="10.00" fill="#000000">+ setModel()</text>
<text text-anchor="start" x="755" y="-594" font-family="Helvetica,sans-Serif" font-size="10.00" fill="#000000">+ getModel()</text>
<text text-anchor="start" x="755" y="-583" font-family="Helvetica,sans-Serif" font-size="10.00" fill="#000000">+ update()</text>
</a>
</g>
</g>
<!-- Node0&#45;&gt;Node7 -->
<g id="edge7" class="edge">
<title>Node0&#45;&gt;Node7</title>
<path fill="none" stroke="#191970" d="M714.772,-727.4282C735.4804,-706.7779 757.5235,-684.7968 776.1676,-666.2051"/>
<polygon fill="none" stroke="#191970" points="712.1202,-725.1297 707.5106,-734.6692 717.063,-730.0864 712.1202,-725.1297"/>
</g>
<!-- Node14 -->
<g id="node15" class="node">
<title>Node14</title>
<g id="a_node15"><a xlink:href="classene_1_1views_1_1AbstractView.html" target="_top" xlink:title="{ene::views::AbstractView\l\&lt; CoreComponentType \&gt;\n|# title\l# coreComponent\l# layoutPosition\l|+ setTitle()\l+ getTitle()\l+ setCoreComponent()\l+ getCoreComponent()\l+ setLayoutPosition()\l+ getLayoutPosition()\l}">
<polygon fill="none" stroke="#000000" points="579.5,-548.5 579.5,-693.5 707.5,-693.5 707.5,-548.5 579.5,-548.5"/>
<text text-anchor="start" x="587.5" y="-681.5" font-family="Helvetica,sans-Serif" font-size="10.00" fill="#000000">ene::views::AbstractView</text>
<text text-anchor="middle" x="643.5" y="-670.5" font-family="Helvetica,sans-Serif" font-size="10.00" fill="#000000">&lt; CoreComponentType &gt;</text>
<polyline fill="none" stroke="#000000" points="579.5,-663.5 707.5,-663.5 "/>
<text text-anchor="start" x="587.5" y="-651.5" font-family="Helvetica,sans-Serif" font-size="10.00" fill="#000000"># title</text>
<text text-anchor="start" x="587.5" y="-640.5" font-family="Helvetica,sans-Serif" font-size="10.00" fill="#000000"># coreComponent</text>
<text text-anchor="start" x="587.5" y="-629.5" font-family="Helvetica,sans-Serif" font-size="10.00" fill="#000000"># layoutPosition</text>
<polyline fill="none" stroke="#000000" points="579.5,-622.5 707.5,-622.5 "/>
<text text-anchor="start" x="587.5" y="-610.5" font-family="Helvetica,sans-Serif" font-size="10.00" fill="#000000">+ setTitle()</text>
<text text-anchor="start" x="587.5" y="-599.5" font-family="Helvetica,sans-Serif" font-size="10.00" fill="#000000">+ getTitle()</text>
<text text-anchor="start" x="587.5" y="-588.5" font-family="Helvetica,sans-Serif" font-size="10.00" fill="#000000">+ setCoreComponent()</text>
<text text-anchor="start" x="587.5" y="-577.5" font-family="Helvetica,sans-Serif" font-size="10.00" fill="#000000">+ getCoreComponent()</text>
<text text-anchor="start" x="587.5" y="-566.5" font-family="Helvetica,sans-Serif" font-size="10.00" fill="#000000">+ setLayoutPosition()</text>
<text text-anchor="start" x="587.5" y="-555.5" font-family="Helvetica,sans-Serif" font-size="10.00" fill="#000000">+ getLayoutPosition()</text>
</a>
</g>
</g>
<!-- Node0&#45;&gt;Node14 -->
<g id="edge14" class="edge">
<title>Node0&#45;&gt;Node14</title>
<path fill="none" stroke="#191970" d="M643.5,-721.135C643.5,-711.9668 643.5,-702.6338 643.5,-693.5361"/>
<polygon fill="none" stroke="#191970" points="640.0001,-721.3948 643.5,-731.3949 647.0001,-721.3949 640.0001,-721.3948"/>
</g>
<!-- Node2 -->
<g id="node3" class="node">
<title>Node2</title>
<g id="a_node3"><a xlink:href="classene_1_1views_1_1AbstractMasterView.html" target="_top" xlink:title="{ene::views::AbstractMaster\lView\&lt; CoreComponentType \&gt;\n|# views\l|+ addView()\l+ setAllViews()\l+ getAllViews()\l}">
<polygon fill="none" stroke="#000000" points="404,-420.5 404,-510.5 553,-510.5 553,-420.5 404,-420.5"/>
<text text-anchor="start" x="412" y="-498.5" font-family="Helvetica,sans-Serif" font-size="10.00" fill="#000000">ene::views::AbstractMaster</text>
<text text-anchor="middle" x="478.5" y="-487.5" font-family="Helvetica,sans-Serif" font-size="10.00" fill="#000000">View&lt; CoreComponentType &gt;</text>
<polyline fill="none" stroke="#000000" points="404,-480.5 553,-480.5 "/>
<text text-anchor="start" x="412" y="-468.5" font-family="Helvetica,sans-Serif" font-size="10.00" fill="#000000"># views</text>
<polyline fill="none" stroke="#000000" points="404,-461.5 553,-461.5 "/>
<text text-anchor="start" x="412" y="-449.5" font-family="Helvetica,sans-Serif" font-size="10.00" fill="#000000">+ addView()</text>
<text text-anchor="start" x="412" y="-438.5" font-family="Helvetica,sans-Serif" font-size="10.00" fill="#000000">+ setAllViews()</text>
<text text-anchor="start" x="412" y="-427.5" font-family="Helvetica,sans-Serif" font-size="10.00" fill="#000000">+ getAllViews()</text>
</a>
</g>
</g>
<!-- Node1&#45;&gt;Node2 -->
<g id="edge2" class="edge">
<title>Node1&#45;&gt;Node2</title>
<path fill="none" stroke="#191970" d="M485.5764,-565.5352C484.3042,-547.55 482.909,-527.827 481.6962,-510.6827"/>
<polygon fill="none" stroke="#191970" points="482.0918,-565.8769 486.2888,-575.6049 489.0743,-565.3829 482.0918,-565.8769"/>
</g>
<!-- Node3 -->
<g id="node4" class="node">
<title>Node3</title>
<g id="a_node4"><a xlink:href="classene_1_1views_1_1gui_1_1partial_1_1ContentView.html" target="_top" xlink:title="{ene::views::gui::partial\l::ContentView\&lt; JTabbedPane \&gt;\n||+ ContentView()\l+ render()\l}">
<polygon fill="none" stroke="#000000" points="0,-222 0,-301 157,-301 157,-222 0,-222"/>
<text text-anchor="start" x="8" y="-289" font-family="Helvetica,sans-Serif" font-size="10.00" fill="#000000">ene::views::gui::partial</text>
<text text-anchor="middle" x="78.5" y="-278" font-family="Helvetica,sans-Serif" font-size="10.00" fill="#000000">::ContentView&lt; JTabbedPane &gt;</text>
<polyline fill="none" stroke="#000000" points="0,-271 157,-271 "/>
<text text-anchor="middle" x="78.5" y="-259" font-family="Helvetica,sans-Serif" font-size="10.00" fill="#000000"> </text>
<polyline fill="none" stroke="#000000" points="0,-252 157,-252 "/>
<text text-anchor="start" x="8" y="-240" font-family="Helvetica,sans-Serif" font-size="10.00" fill="#000000">+ ContentView()</text>
<text text-anchor="start" x="8" y="-229" font-family="Helvetica,sans-Serif" font-size="10.00" fill="#000000">+ render()</text>
</a>
</g>
</g>
<!-- Node2&#45;&gt;Node3 -->
<g id="edge3" class="edge">
<title>Node2&#45;&gt;Node3</title>
<path fill="none" stroke="#191970" d="M393.6691,-454.6821C327.2719,-442.9991 235.015,-419.416 166.5,-373 139.3463,-354.6045 116.6546,-325.2278 101.1179,-301.2453"/>
<polygon fill="none" stroke="#191970" points="393.2375,-458.1589 403.6834,-456.3887 394.4136,-451.2584 393.2375,-458.1589"/>
</g>
<!-- Node4 -->
<g id="node5" class="node">
<title>Node4</title>
<g id="a_node5"><a xlink:href="classene_1_1views_1_1gui_1_1WindowView.html" target="_top" xlink:title="{ene::views::gui::WindowView\l\&lt; JFrame \&gt;\n||+ setTitle()\l+ getTitle()\l+ WindowView()\l+ render()\l}">
<polygon fill="none" stroke="#000000" points="175.5,-211 175.5,-312 321.5,-312 321.5,-211 175.5,-211"/>
<text text-anchor="start" x="183.5" y="-300" font-family="Helvetica,sans-Serif" font-size="10.00" fill="#000000">ene::views::gui::WindowView</text>
<text text-anchor="middle" x="248.5" y="-289" font-family="Helvetica,sans-Serif" font-size="10.00" fill="#000000">&lt; JFrame &gt;</text>
<polyline fill="none" stroke="#000000" points="175.5,-282 321.5,-282 "/>
<text text-anchor="middle" x="248.5" y="-270" font-family="Helvetica,sans-Serif" font-size="10.00" fill="#000000"> </text>
<polyline fill="none" stroke="#000000" points="175.5,-263 321.5,-263 "/>
<text text-anchor="start" x="183.5" y="-251" font-family="Helvetica,sans-Serif" font-size="10.00" fill="#000000">+ setTitle()</text>
<text text-anchor="start" x="183.5" y="-240" font-family="Helvetica,sans-Serif" font-size="10.00" fill="#000000">+ getTitle()</text>
<text text-anchor="start" x="183.5" y="-229" font-family="Helvetica,sans-Serif" font-size="10.00" fill="#000000">+ WindowView()</text>
<text text-anchor="start" x="183.5" y="-218" font-family="Helvetica,sans-Serif" font-size="10.00" fill="#000000">+ render()</text>
</a>
</g>
</g>
<!-- Node2&#45;&gt;Node4 -->
<g id="edge4" class="edge">
<title>Node2&#45;&gt;Node4</title>
<path fill="none" stroke="#191970" d="M395.0614,-420.9895C372.8561,-407.1645 349.7228,-390.8235 330.5,-373 311.3821,-355.2738 293.7399,-332.5445 279.7567,-312.2373"/>
<polygon fill="none" stroke="#191970" points="393.4864,-424.1289 403.8438,-426.3596 397.1381,-418.1569 393.4864,-424.1289"/>
</g>
<!-- Node5 -->
<g id="node6" class="node">
<title>Node5</title>
<g id="a_node6"><a xlink:href="classene_1_1views_1_1AbstractMasterView.html" target="_top" xlink:title="{ene.views.AbstractMaster\lView\&lt; JTabbedPane \&gt;\n|# views\l|+ addView()\l+ setAllViews()\l+ getAllViews()\l}">
<polygon fill="none" stroke="#000000" points="340,-216.5 340,-306.5 471,-306.5 471,-216.5 340,-216.5"/>
<text text-anchor="start" x="348" y="-294.5" font-family="Helvetica,sans-Serif" font-size="10.00" fill="#000000">ene.views.AbstractMaster</text>
<text text-anchor="middle" x="405.5" y="-283.5" font-family="Helvetica,sans-Serif" font-size="10.00" fill="#000000">View&lt; JTabbedPane &gt;</text>
<polyline fill="none" stroke="#000000" points="340,-276.5 471,-276.5 "/>
<text text-anchor="start" x="348" y="-264.5" font-family="Helvetica,sans-Serif" font-size="10.00" fill="#000000"># views</text>
<polyline fill="none" stroke="#000000" points="340,-257.5 471,-257.5 "/>
<text text-anchor="start" x="348" y="-245.5" font-family="Helvetica,sans-Serif" font-size="10.00" fill="#000000">+ addView()</text>
<text text-anchor="start" x="348" y="-234.5" font-family="Helvetica,sans-Serif" font-size="10.00" fill="#000000">+ setAllViews()</text>
<text text-anchor="start" x="348" y="-223.5" font-family="Helvetica,sans-Serif" font-size="10.00" fill="#000000">+ getAllViews()</text>
</a>
</g>
</g>
<!-- Node2&#45;&gt;Node5 -->
<g id="edge5" class="edge">
<title>Node2&#45;&gt;Node5</title>
<path fill="none" stroke="#ffa500" d="M453.9528,-410.8106C452.7559,-407.8424 451.5972,-404.8919 450.5,-402 438.5522,-370.5094 427.0052,-334.2983 418.5999,-306.5253"/>
<polygon fill="#ffa500" stroke="#ffa500" points="450.8212,-412.3968 457.8766,-420.3008 457.2901,-409.7222 450.8212,-412.3968"/>
<text text-anchor="middle" x="491.5" y="-394" font-family="Helvetica,sans-Serif" font-size="10.00" fill="#000000"> &lt; JTabbedPane &gt;</text>
</g>
<!-- Node6 -->
<g id="node7" class="node">
<title>Node6</title>
<g id="a_node7"><a xlink:href="classene_1_1views_1_1AbstractMasterView.html" target="_top" xlink:title="{ene.views.AbstractMaster\lView\&lt; JFrame \&gt;\n|# views\l|+ addView()\l+ setAllViews()\l+ getAllViews()\l}">
<polygon fill="none" stroke="#000000" points="489,-216.5 489,-306.5 620,-306.5 620,-216.5 489,-216.5"/>
<text text-anchor="start" x="497" y="-294.5" font-family="Helvetica,sans-Serif" font-size="10.00" fill="#000000">ene.views.AbstractMaster</text>
<text text-anchor="middle" x="554.5" y="-283.5" font-family="Helvetica,sans-Serif" font-size="10.00" fill="#000000">View&lt; JFrame &gt;</text>
<polyline fill="none" stroke="#000000" points="489,-276.5 620,-276.5 "/>
<text text-anchor="start" x="497" y="-264.5" font-family="Helvetica,sans-Serif" font-size="10.00" fill="#000000"># views</text>
<polyline fill="none" stroke="#000000" points="489,-257.5 620,-257.5 "/>
<text text-anchor="start" x="497" y="-245.5" font-family="Helvetica,sans-Serif" font-size="10.00" fill="#000000">+ addView()</text>
<text text-anchor="start" x="497" y="-234.5" font-family="Helvetica,sans-Serif" font-size="10.00" fill="#000000">+ setAllViews()</text>
<text text-anchor="start" x="497" y="-223.5" font-family="Helvetica,sans-Serif" font-size="10.00" fill="#000000">+ getAllViews()</text>
</a>
</g>
</g>
<!-- Node2&#45;&gt;Node6 -->
<g id="edge6" class="edge">
<title>Node2&#45;&gt;Node6</title>
<path fill="none" stroke="#ffa500" d="M527.2577,-411.9226C529.1938,-408.6704 530.9616,-405.3543 532.5,-402 546.241,-372.0403 551.6334,-335.1192 553.6477,-306.6447"/>
<polygon fill="#ffa500" stroke="#ffa500" points="524.2873,-410.0704 521.7814,-420.3646 530.16,-413.88 524.2873,-410.0704"/>
<text text-anchor="middle" x="565" y="-394" font-family="Helvetica,sans-Serif" font-size="10.00" fill="#000000"> &lt; JFrame &gt;</text>
</g>
<!-- Node8 -->
<g id="node9" class="node">
<title>Node8</title>
<g id="a_node9"><a xlink:href="classene_1_1views_1_1AbstractPartialView.html" target="_top" xlink:title="{ene::views::AbstractPartial\lView\&lt; CoreComponentType,\l ModelType \&gt;\n|# model\l|+ setModel()\l+ getModel()\l}">
<polygon fill="none" stroke="#000000" points="839,-420.5 839,-510.5 982,-510.5 982,-420.5 839,-420.5"/>
<text text-anchor="start" x="847" y="-498.5" font-family="Helvetica,sans-Serif" font-size="10.00" fill="#000000">ene::views::AbstractPartial</text>
<text text-anchor="start" x="847" y="-487.5" font-family="Helvetica,sans-Serif" font-size="10.00" fill="#000000">View&lt; CoreComponentType,</text>
<text text-anchor="middle" x="910.5" y="-476.5" font-family="Helvetica,sans-Serif" font-size="10.00" fill="#000000"> ModelType &gt;</text>
<polyline fill="none" stroke="#000000" points="839,-469.5 982,-469.5 "/>
<text text-anchor="start" x="847" y="-457.5" font-family="Helvetica,sans-Serif" font-size="10.00" fill="#000000"># model</text>
<polyline fill="none" stroke="#000000" points="839,-450.5 982,-450.5 "/>
<text text-anchor="start" x="847" y="-438.5" font-family="Helvetica,sans-Serif" font-size="10.00" fill="#000000">+ setModel()</text>
<text text-anchor="start" x="847" y="-427.5" font-family="Helvetica,sans-Serif" font-size="10.00" fill="#000000">+ getModel()</text>
</a>
</g>
</g>
<!-- Node7&#45;&gt;Node8 -->
<g id="edge8" class="edge">
<title>Node7&#45;&gt;Node8</title>
<path fill="none" stroke="#191970" d="M852.5286,-566.7871C863.0131,-548.4687 874.5991,-528.2257 884.6398,-510.6827"/>
<polygon fill="none" stroke="#191970" points="849.4115,-565.1873 847.4817,-575.6049 855.4868,-568.6645 849.4115,-565.1873"/>
</g>
<!-- Node9 -->
<g id="node10" class="node">
<title>Node9</title>
<g id="a_node10"><a xlink:href="classene_1_1views_1_1gui_1_1partial_1_1AbstractTrackListView.html" target="_top" xlink:title="{ene::views::gui::partial\l::AbstractTrackListView\l\&lt; JPanel, TrackListModel \&gt;\n|# table\l# tableContent\l# playerController\l|+ valueChanged()\l# setTable()\l# getTable()\l# setTableContent()\l# getTableContent()\l# setPlayerController()\l# getPlayerController()\l# hideColumn()\l# getSelectedFilename()\l}">
<polygon fill="none" stroke="#000000" points="837,-167 837,-356 974,-356 974,-167 837,-167"/>
<text text-anchor="start" x="845" y="-344" font-family="Helvetica,sans-Serif" font-size="10.00" fill="#000000">ene::views::gui::partial</text>
<text text-anchor="start" x="845" y="-333" font-family="Helvetica,sans-Serif" font-size="10.00" fill="#000000">::AbstractTrackListView</text>
<text text-anchor="middle" x="905.5" y="-322" font-family="Helvetica,sans-Serif" font-size="10.00" fill="#000000">&lt; JPanel, TrackListModel &gt;</text>
<polyline fill="none" stroke="#000000" points="837,-315 974,-315 "/>
<text text-anchor="start" x="845" y="-303" font-family="Helvetica,sans-Serif" font-size="10.00" fill="#000000"># table</text>
<text text-anchor="start" x="845" y="-292" font-family="Helvetica,sans-Serif" font-size="10.00" fill="#000000"># tableContent</text>
<text text-anchor="start" x="845" y="-281" font-family="Helvetica,sans-Serif" font-size="10.00" fill="#000000"># playerController</text>
<polyline fill="none" stroke="#000000" points="837,-274 974,-274 "/>
<text text-anchor="start" x="845" y="-262" font-family="Helvetica,sans-Serif" font-size="10.00" fill="#000000">+ valueChanged()</text>
<text text-anchor="start" x="845" y="-251" font-family="Helvetica,sans-Serif" font-size="10.00" fill="#000000"># setTable()</text>
<text text-anchor="start" x="845" y="-240" font-family="Helvetica,sans-Serif" font-size="10.00" fill="#000000"># getTable()</text>
<text text-anchor="start" x="845" y="-229" font-family="Helvetica,sans-Serif" font-size="10.00" fill="#000000"># setTableContent()</text>
<text text-anchor="start" x="845" y="-218" font-family="Helvetica,sans-Serif" font-size="10.00" fill="#000000"># getTableContent()</text>
<text text-anchor="start" x="845" y="-207" font-family="Helvetica,sans-Serif" font-size="10.00" fill="#000000"># setPlayerController()</text>
<text text-anchor="start" x="845" y="-196" font-family="Helvetica,sans-Serif" font-size="10.00" fill="#000000"># getPlayerController()</text>
<text text-anchor="start" x="845" y="-185" font-family="Helvetica,sans-Serif" font-size="10.00" fill="#000000"># hideColumn()</text>
<text text-anchor="start" x="845" y="-174" font-family="Helvetica,sans-Serif" font-size="10.00" fill="#000000"># getSelectedFilename()</text>
</a>
</g>
</g>
<!-- Node8&#45;&gt;Node9 -->
<g id="edge9" class="edge">
<title>Node8&#45;&gt;Node9</title>
<path fill="none" stroke="#191970" d="M909.1484,-410.3553C908.7381,-393.6142 908.275,-374.7216 907.82,-356.1552"/>
<polygon fill="none" stroke="#191970" points="905.6525,-410.5676 909.3965,-420.4788 912.6504,-410.396 905.6525,-410.5676"/>
</g>
<!-- Node11 -->
<g id="node12" class="node">
<title>Node11</title>
<g id="a_node12"><a xlink:href="classene_1_1views_1_1gui_1_1partial_1_1PlayerView.html" target="_top" xlink:title="{ene::views::gui::partial\l::PlayerView\&lt; JPanel, PlayerModel \&gt;\n|~ progressTimer\l~ trackTimeFormat\l# playerController\l# playButton\l# progressSlider\l# progressLabel\l|+ PlayerView()\l+ update()\l+ render()\l# setPlayerController()\l# getPlayerController()\l# enablePlayerControls()\l# disablePlayerControls()\l# updateProgress()\l# resetProgress()\l# formatTimeToString()\l}">
<polygon fill="none" stroke="#000000" points="638.5,-150.5 638.5,-372.5 818.5,-372.5 818.5,-150.5 638.5,-150.5"/>
<text text-anchor="start" x="646.5" y="-360.5" font-family="Helvetica,sans-Serif" font-size="10.00" fill="#000000">ene::views::gui::partial</text>
<text text-anchor="middle" x="728.5" y="-349.5" font-family="Helvetica,sans-Serif" font-size="10.00" fill="#000000">::PlayerView&lt; JPanel, PlayerModel &gt;</text>
<polyline fill="none" stroke="#000000" points="638.5,-342.5 818.5,-342.5 "/>
<text text-anchor="start" x="646.5" y="-330.5" font-family="Helvetica,sans-Serif" font-size="10.00" fill="#000000">~ progressTimer</text>
<text text-anchor="start" x="646.5" y="-319.5" font-family="Helvetica,sans-Serif" font-size="10.00" fill="#000000">~ trackTimeFormat</text>
<text text-anchor="start" x="646.5" y="-308.5" font-family="Helvetica,sans-Serif" font-size="10.00" fill="#000000"># playerController</text>
<text text-anchor="start" x="646.5" y="-297.5" font-family="Helvetica,sans-Serif" font-size="10.00" fill="#000000"># playButton</text>
<text text-anchor="start" x="646.5" y="-286.5" font-family="Helvetica,sans-Serif" font-size="10.00" fill="#000000"># progressSlider</text>
<text text-anchor="start" x="646.5" y="-275.5" font-family="Helvetica,sans-Serif" font-size="10.00" fill="#000000"># progressLabel</text>
<polyline fill="none" stroke="#000000" points="638.5,-268.5 818.5,-268.5 "/>
<text text-anchor="start" x="646.5" y="-256.5" font-family="Helvetica,sans-Serif" font-size="10.00" fill="#000000">+ PlayerView()</text>
<text text-anchor="start" x="646.5" y="-245.5" font-family="Helvetica,sans-Serif" font-size="10.00" fill="#000000">+ update()</text>
<text text-anchor="start" x="646.5" y="-234.5" font-family="Helvetica,sans-Serif" font-size="10.00" fill="#000000">+ render()</text>
<text text-anchor="start" x="646.5" y="-223.5" font-family="Helvetica,sans-Serif" font-size="10.00" fill="#000000"># setPlayerController()</text>
<text text-anchor="start" x="646.5" y="-212.5" font-family="Helvetica,sans-Serif" font-size="10.00" fill="#000000"># getPlayerController()</text>
<text text-anchor="start" x="646.5" y="-201.5" font-family="Helvetica,sans-Serif" font-size="10.00" fill="#000000"># enablePlayerControls()</text>
<text text-anchor="start" x="646.5" y="-190.5" font-family="Helvetica,sans-Serif" font-size="10.00" fill="#000000"># disablePlayerControls()</text>
<text text-anchor="start" x="646.5" y="-179.5" font-family="Helvetica,sans-Serif" font-size="10.00" fill="#000000"># updateProgress()</text>
<text text-anchor="start" x="646.5" y="-168.5" font-family="Helvetica,sans-Serif" font-size="10.00" fill="#000000"># resetProgress()</text>
<text text-anchor="start" x="646.5" y="-157.5" font-family="Helvetica,sans-Serif" font-size="10.00" fill="#000000"># formatTimeToString()</text>
</a>
</g>
</g>
<!-- Node8&#45;&gt;Node11 -->
<g id="edge11" class="edge">
<title>Node8&#45;&gt;Node11</title>
<path fill="none" stroke="#191970" d="M829.3992,-432.8184C818.6732,-428.5037 807.8226,-424.1427 797.5,-420 777.5092,-411.9771 766.0402,-418.753 752.5,-402 745.4225,-393.2432 740.1027,-383.1609 736.1394,-372.5008"/>
<polygon fill="none" stroke="#191970" points="828.1928,-436.1057 838.7765,-436.5915 830.8058,-429.6116 828.1928,-436.1057"/>
</g>
<!-- Node12 -->
<g id="node13" class="node">
<title>Node12</title>
<g id="a_node13"><a xlink:href="classene_1_1views_1_1AbstractPartialView.html" target="_top" xlink:title="{ene.views.AbstractPartial\lView\&lt; JPanel, PlayerModel \&gt;\n|# model\l|+ setModel()\l+ getModel()\l}">
<polygon fill="none" stroke="#000000" points="1169.5,-222 1169.5,-301 1315.5,-301 1315.5,-222 1169.5,-222"/>
<text text-anchor="start" x="1177.5" y="-289" font-family="Helvetica,sans-Serif" font-size="10.00" fill="#000000">ene.views.AbstractPartial</text>
<text text-anchor="middle" x="1242.5" y="-278" font-family="Helvetica,sans-Serif" font-size="10.00" fill="#000000">View&lt; JPanel, PlayerModel &gt;</text>
<polyline fill="none" stroke="#000000" points="1169.5,-271 1315.5,-271 "/>
<text text-anchor="start" x="1177.5" y="-259" font-family="Helvetica,sans-Serif" font-size="10.00" fill="#000000"># model</text>
<polyline fill="none" stroke="#000000" points="1169.5,-252 1315.5,-252 "/>
<text text-anchor="start" x="1177.5" y="-240" font-family="Helvetica,sans-Serif" font-size="10.00" fill="#000000">+ setModel()</text>
<text text-anchor="start" x="1177.5" y="-229" font-family="Helvetica,sans-Serif" font-size="10.00" fill="#000000">+ getModel()</text>
</a>
</g>
</g>
<!-- Node8&#45;&gt;Node12 -->
<g id="edge12" class="edge">
<title>Node8&#45;&gt;Node12</title>
<path fill="none" stroke="#ffa500" d="M992.0262,-455.7166C1063.7874,-445.5817 1161.2773,-427.6131 1190.5,-402 1219.6439,-376.4559 1232.4781,-333.0509 1238.1152,-301.2295"/>
<polygon fill="#ffa500" stroke="#ffa500" points="991.5059,-452.2551 982.081,-457.0946 992.4668,-459.1889 991.5059,-452.2551"/>
<text text-anchor="middle" x="1254.5" y="-394" font-family="Helvetica,sans-Serif" font-size="10.00" fill="#000000"> &lt; JPanel, PlayerModel &gt;</text>
</g>
<!-- Node13 -->
<g id="node14" class="node">
<title>Node13</title>
<g id="a_node14"><a xlink:href="classene_1_1views_1_1AbstractPartialView.html" target="_top" xlink:title="{ene.views.AbstractPartial\lView\&lt; JPanel, TrackListModel \&gt;\n|# model\l|+ setModel()\l+ getModel()\l}">
<polygon fill="none" stroke="#000000" points="992,-222 992,-301 1151,-301 1151,-222 992,-222"/>
<text text-anchor="start" x="1000" y="-289" font-family="Helvetica,sans-Serif" font-size="10.00" fill="#000000">ene.views.AbstractPartial</text>
<text text-anchor="middle" x="1071.5" y="-278" font-family="Helvetica,sans-Serif" font-size="10.00" fill="#000000">View&lt; JPanel, TrackListModel &gt;</text>
<polyline fill="none" stroke="#000000" points="992,-271 1151,-271 "/>
<text text-anchor="start" x="1000" y="-259" font-family="Helvetica,sans-Serif" font-size="10.00" fill="#000000"># model</text>
<polyline fill="none" stroke="#000000" points="992,-252 1151,-252 "/>
<text text-anchor="start" x="1000" y="-240" font-family="Helvetica,sans-Serif" font-size="10.00" fill="#000000">+ setModel()</text>
<text text-anchor="start" x="1000" y="-229" font-family="Helvetica,sans-Serif" font-size="10.00" fill="#000000">+ getModel()</text>
</a>
</g>
</g>
<!-- Node8&#45;&gt;Node13 -->
<g id="edge13" class="edge">
<title>Node8&#45;&gt;Node13</title>
<path fill="none" stroke="#ffa500" d="M992.0621,-447.091C1016.4444,-437.5996 1040.8282,-423.3392 1056.5,-402 1077.7001,-373.1333 1079.5977,-331.4942 1077.3142,-301.0402"/>
<polygon fill="#ffa500" stroke="#ffa500" points="990.5687,-443.9101 982.3728,-450.6241 992.9668,-450.4865 990.5687,-443.9101"/>
<text text-anchor="middle" x="1124.5" y="-394" font-family="Helvetica,sans-Serif" font-size="10.00" fill="#000000"> &lt; JPanel, TrackListModel &gt;</text>
</g>
<!-- Node10 -->
<g id="node11" class="node">
<title>Node10</title>
<g id="a_node11"><a xlink:href="classene_1_1views_1_1gui_1_1partial_1_1LibraryView.html" target="_top" xlink:title="{ene.views.gui.partial.LibraryView\n|# libraryController\l|+ LibraryView()\l+ update()\l+ render()\l# setLibraryController()\l# getLibraryController()\l# loadContent()\l}">
<polygon fill="none" stroke="#000000" points="825.5,-.5 825.5,-112.5 985.5,-112.5 985.5,-.5 825.5,-.5"/>
<text text-anchor="middle" x="905.5" y="-100.5" font-family="Helvetica,sans-Serif" font-size="10.00" fill="#000000">ene.views.gui.partial.LibraryView</text>
<polyline fill="none" stroke="#000000" points="825.5,-93.5 985.5,-93.5 "/>
<text text-anchor="start" x="833.5" y="-81.5" font-family="Helvetica,sans-Serif" font-size="10.00" fill="#000000"># libraryController</text>
<polyline fill="none" stroke="#000000" points="825.5,-74.5 985.5,-74.5 "/>
<text text-anchor="start" x="833.5" y="-62.5" font-family="Helvetica,sans-Serif" font-size="10.00" fill="#000000">+ LibraryView()</text>
<text text-anchor="start" x="833.5" y="-51.5" font-family="Helvetica,sans-Serif" font-size="10.00" fill="#000000">+ update()</text>
<text text-anchor="start" x="833.5" y="-40.5" font-family="Helvetica,sans-Serif" font-size="10.00" fill="#000000">+ render()</text>
<text text-anchor="start" x="833.5" y="-29.5" font-family="Helvetica,sans-Serif" font-size="10.00" fill="#000000"># setLibraryController()</text>
<text text-anchor="start" x="833.5" y="-18.5" font-family="Helvetica,sans-Serif" font-size="10.00" fill="#000000"># getLibraryController()</text>
<text text-anchor="start" x="833.5" y="-7.5" font-family="Helvetica,sans-Serif" font-size="10.00" fill="#000000"># loadContent()</text>
</a>
</g>
</g>
<!-- Node9&#45;&gt;Node10 -->
<g id="edge10" class="edge">
<title>Node9&#45;&gt;Node10</title>
<path fill="none" stroke="#191970" d="M905.5,-156.7721C905.5,-141.5035 905.5,-126.3009 905.5,-112.5203"/>
<polygon fill="none" stroke="#191970" points="902.0001,-156.8009 905.5,-166.8009 909.0001,-156.8009 902.0001,-156.8009"/>
</g>
<!-- Node14&#45;&gt;Node2 -->
<g id="edge15" class="edge">
<title>Node14&#45;&gt;Node2</title>
<path fill="none" stroke="#191970" d="M571.88,-552.1398C570.4083,-550.7467 568.9471,-549.3655 567.5,-548 554.6281,-535.854 540.6211,-522.7964 527.6098,-510.7331"/>
<polygon fill="none" stroke="#191970" points="569.6439,-554.8429 579.3072,-559.1871 574.4621,-549.765 569.6439,-554.8429"/>
</g>
<!-- Node15 -->
<g id="node16" class="node">
<title>Node15</title>
<g id="a_node16"><a xlink:href="classene_1_1views_1_1AbstractPartialView.html" target="_top" xlink:title="{ene::views::AbstractPartial\lView\&lt; CoreComponentType \&gt;\n|# model\l|+ setModel()\l+ getModel()\l}">
<polygon fill="none" stroke="#000000" points="639,-426 639,-505 788,-505 788,-426 639,-426"/>
<text text-anchor="start" x="647" y="-493" font-family="Helvetica,sans-Serif" font-size="10.00" fill="#000000">ene::views::AbstractPartial</text>
<text text-anchor="middle" x="713.5" y="-482" font-family="Helvetica,sans-Serif" font-size="10.00" fill="#000000">View&lt; CoreComponentType &gt;</text>
<polyline fill="none" stroke="#000000" points="639,-475 788,-475 "/>
<text text-anchor="start" x="647" y="-463" font-family="Helvetica,sans-Serif" font-size="10.00" fill="#000000"># model</text>
<polyline fill="none" stroke="#000000" points="639,-456 788,-456 "/>
<text text-anchor="start" x="647" y="-444" font-family="Helvetica,sans-Serif" font-size="10.00" fill="#000000">+ setModel()</text>
<text text-anchor="start" x="647" y="-433" font-family="Helvetica,sans-Serif" font-size="10.00" fill="#000000">+ getModel()</text>
</a>
</g>
</g>
<!-- Node14&#45;&gt;Node15 -->
<g id="edge16" class="edge">
<title>Node14&#45;&gt;Node15</title>
<path fill="none" stroke="#191970" d="M680.4842,-538.8422C685.7649,-527.1116 690.9851,-515.5152 695.662,-505.1258"/>
<polygon fill="none" stroke="#191970" points="677.1589,-537.7027 676.2455,-548.2581 683.542,-540.5762 677.1589,-537.7027"/>
</g>
<!-- Node15&#45;&gt;Node9 -->
<g id="edge17" class="edge">
<title>Node15&#45;&gt;Node9</title>
<path fill="none" stroke="#191970" d="M729.4092,-416.526C734.5001,-406.9051 741.0777,-397.7239 749.5,-391 777.304,-368.8028 798.0081,-392.8999 827.5,-373 834.6478,-368.177 841.3429,-362.4626 847.5692,-356.2092"/>
<polygon fill="none" stroke="#191970" points="726.1225,-415.2867 724.9722,-425.8189 732.4394,-418.3028 726.1225,-415.2867"/>
</g>
<!-- Node15&#45;&gt;Node11 -->
<g id="edge18" class="edge">
<title>Node15&#45;&gt;Node11</title>
<path fill="none" stroke="#191970" d="M704.0354,-415.6517C703.4126,-411.0495 702.8823,-406.4468 702.5,-402 701.6819,-392.4846 701.698,-382.6535 702.3157,-372.8169"/>
<polygon fill="none" stroke="#191970" points="700.5916,-416.289 705.5251,-425.665 707.5153,-415.2588 700.5916,-416.289"/>
</g>
<!-- Node15&#45;&gt;Node12 -->
<g id="edge19" class="edge">
<title>Node15&#45;&gt;Node12</title>
<path fill="none" stroke="#ffa500" d="M797.6106,-430.7699C808.5753,-426.8407 819.7365,-423.1311 830.5,-420 870.0871,-408.4842 882.9153,-416.5251 921.5,-402 930.6319,-398.5623 931.1876,-393.9135 940.5,-391 987.3145,-376.3534 1117.6699,-396.9103 1160.5,-373 1189.1389,-357.0121 1210.5501,-326.3737 1224.2992,-301.2537"/>
<polygon fill="#ffa500" stroke="#ffa500" points="796.2296,-427.5482 788.0404,-434.2704 798.6342,-434.1222 796.2296,-427.5482"/>
<text text-anchor="middle" x="996.5" y="-394" font-family="Helvetica,sans-Serif" font-size="10.00" fill="#000000"> &lt; JPanel, PlayerModel &gt;</text>
</g>
<!-- Node15&#45;&gt;Node13 -->
<g id="edge20" class="edge">
<title>Node15&#45;&gt;Node13</title>
<path fill="none" stroke="#ffa500" d="M755.7698,-418.8404C768.1276,-407.9264 782.406,-397.5783 797.5,-391 873.6363,-357.8179 910.5969,-412.7858 983.5,-373 1013.0476,-356.8748 1036.1043,-326.2456 1051.1916,-301.164"/>
<polygon fill="#ffa500" stroke="#ffa500" points="753.3241,-416.3345 748.3334,-425.6804 758.0629,-421.4866 753.3241,-416.3345"/>
<text text-anchor="middle" x="859.5" y="-394" font-family="Helvetica,sans-Serif" font-size="10.00" fill="#000000"> &lt; JPanel, TrackListModel &gt;</text>
</g>
</g>
</svg>
