<?xml version="1.0" encoding="UTF-8" standalone="no"?>
<!DOCTYPE svg PUBLIC "-//W3C//DTD SVG 1.1//EN"
 "http://www.w3.org/Graphics/SVG/1.1/DTD/svg11.dtd">
<!-- Generated by graphviz version 2.40.1 (20161225.0304)
 -->
<!-- Title: ene.interfaces.DatabaseConnection.execute Pages: 1 -->
<svg width="833pt" height="104pt"
 viewBox="0.00 0.00 833.00 104.00" xmlns="http://www.w3.org/2000/svg" xmlns:xlink="http://www.w3.org/1999/xlink">
<g id="graph0" class="graph" transform="scale(1 1) rotate(0) translate(4 100)">
<title>ene.interfaces.DatabaseConnection.execute</title>
<!-- Node1 -->
<g id="node1" class="node">
<title>Node1</title>
<polygon fill="#bfbfbf" stroke="#000000" points="0,-38.5 0,-57.5 210,-57.5 210,-38.5 0,-38.5"/>
<text text-anchor="middle" x="105" y="-45.5" font-family="Helvetica,sans-Serif" font-size="10.00" fill="#000000">ene.interfaces.DatabaseConnection.execute</text>
</g>
<!-- Node2 -->
<g id="node2" class="node">
<title>Node2</title>
<g id="a_node2"><a xlink:href="classene_1_1controllers_1_1LibraryController.html#aa40dceee9b0024082b71ab641a087c2e" target="_top" xlink:title="ene.controllers.LibraryController.save\lToFile">
<polygon fill="none" stroke="#000000" points="246,-33 246,-63 425,-63 425,-33 246,-33"/>
<text text-anchor="start" x="254" y="-51" font-family="Helvetica,sans-Serif" font-size="10.00" fill="#000000">ene.controllers.LibraryController.save</text>
<text text-anchor="middle" x="335.5" y="-40" font-family="Helvetica,sans-Serif" font-size="10.00" fill="#000000">ToFile</text>
</a>
</g>
</g>
<!-- Node1&#45;&gt;Node2 -->
<g id="edge1" class="edge">
<title>Node1&#45;&gt;Node2</title>
<path fill="none" stroke="#191970" d="M220.1733,-48C228.7368,-48 237.3008,-48 245.6762,-48"/>
<polygon fill="#191970" stroke="#191970" points="220.1322,-44.5001 210.1322,-48 220.1322,-51.5001 220.1322,-44.5001"/>
</g>
<!-- Node3 -->
<g id="node3" class="node">
<title>Node3</title>
<g id="a_node3"><a xlink:href="classene_1_1controllers_1_1LibraryController.html#aa0d66e53872a376fe6d456eb070de8d4" target="_top" xlink:title="ene.controllers.LibraryController.add">
<polygon fill="none" stroke="#000000" points="469.5,-76.5 469.5,-95.5 642.5,-95.5 642.5,-76.5 469.5,-76.5"/>
<text text-anchor="middle" x="556" y="-83.5" font-family="Helvetica,sans-Serif" font-size="10.00" fill="#000000">ene.controllers.LibraryController.add</text>
</a>
</g>
</g>
<!-- Node2&#45;&gt;Node3 -->
<g id="edge2" class="edge">
<title>Node2&#45;&gt;Node3</title>
<path fill="none" stroke="#191970" d="M432.6075,-64.7351C455.991,-68.7649 480.1746,-72.9326 500.8696,-76.4991"/>
<polygon fill="#191970" stroke="#191970" points="433.0966,-61.2679 422.6474,-63.0186 431.9077,-68.1662 433.0966,-61.2679"/>
</g>
<!-- Node5 -->
<g id="node5" class="node">
<title>Node5</title>
<g id="a_node5"><a xlink:href="classene_1_1controllers_1_1LibraryController.html#a9e4da87d9fab61b162c2f57e97852be5" target="_top" xlink:title="ene.controllers.LibraryController.edit">
<polygon fill="none" stroke="#000000" points="469.5,-38.5 469.5,-57.5 642.5,-57.5 642.5,-38.5 469.5,-38.5"/>
<text text-anchor="middle" x="556" y="-45.5" font-family="Helvetica,sans-Serif" font-size="10.00" fill="#000000">ene.controllers.LibraryController.edit</text>
</a>
</g>
</g>
<!-- Node2&#45;&gt;Node5 -->
<g id="edge4" class="edge">
<title>Node2&#45;&gt;Node5</title>
<path fill="none" stroke="#191970" d="M435.4816,-48C446.7516,-48 458.166,-48 469.2482,-48"/>
<polygon fill="#191970" stroke="#191970" points="435.1858,-44.5001 425.1858,-48 435.1858,-51.5001 435.1858,-44.5001"/>
</g>
<!-- Node6 -->
<g id="node6" class="node">
<title>Node6</title>
<g id="a_node6"><a xlink:href="classene_1_1controllers_1_1LibraryController.html#aac7853b4f42ee8c4d8704e036eca61a0" target="_top" xlink:title="ene.controllers.LibraryController.remove">
<polygon fill="none" stroke="#000000" points="461,-.5 461,-19.5 651,-19.5 651,-.5 461,-.5"/>
<text text-anchor="middle" x="556" y="-7.5" font-family="Helvetica,sans-Serif" font-size="10.00" fill="#000000">ene.controllers.LibraryController.remove</text>
</a>
</g>
</g>
<!-- Node2&#45;&gt;Node6 -->
<g id="edge6" class="edge">
<title>Node2&#45;&gt;Node6</title>
<path fill="none" stroke="#191970" d="M432.6075,-31.2649C455.991,-27.2351 480.1746,-23.0674 500.8696,-19.5009"/>
<polygon fill="#191970" stroke="#191970" points="431.9077,-27.8338 422.6474,-32.9814 433.0966,-34.7321 431.9077,-27.8338"/>
</g>
<!-- Node4 -->
<g id="node4" class="node">
<title>Node4</title>
<g id="a_node4"><a xlink:href="classene_1_1views_1_1gui_1_1partial_1_1LibraryView.html#a0bd6885fe06ebde4d3dffbcd888c0b41" target="_top" xlink:title="ene.views.gui.partial.Library\lView.render">
<polygon fill="none" stroke="#000000" points="687,-52 687,-82 825,-82 825,-52 687,-52"/>
<text text-anchor="start" x="695" y="-70" font-family="Helvetica,sans-Serif" font-size="10.00" fill="#000000">ene.views.gui.partial.Library</text>
<text text-anchor="middle" x="756" y="-59" font-family="Helvetica,sans-Serif" font-size="10.00" fill="#000000">View.render</text>
</a>
</g>
</g>
<!-- Node3&#45;&gt;Node4 -->
<g id="edge3" class="edge">
<title>Node3&#45;&gt;Node4</title>
<path fill="none" stroke="#191970" d="M652.6515,-76.8181C664.1701,-75.7238 675.7481,-74.6239 686.7731,-73.5766"/>
<polygon fill="#191970" stroke="#191970" points="652.1838,-73.3467 642.5597,-77.7768 652.8459,-80.3153 652.1838,-73.3467"/>
</g>
<!-- Node5&#45;&gt;Node4 -->
<g id="edge5" class="edge">
<title>Node5&#45;&gt;Node4</title>
<path fill="none" stroke="#191970" d="M652.6515,-57.1819C664.1701,-58.2762 675.7481,-59.3761 686.7731,-60.4234"/>
<polygon fill="#191970" stroke="#191970" points="652.8459,-53.6847 642.5597,-56.2232 652.1838,-60.6533 652.8459,-53.6847"/>
</g>
</g>
</svg>
