<?xml version="1.0" encoding="UTF-8" standalone="no"?>
<!DOCTYPE svg PUBLIC "-//W3C//DTD SVG 1.1//EN"
 "http://www.w3.org/Graphics/SVG/1.1/DTD/svg11.dtd">
<!-- Generated by graphviz version 2.40.1 (20161225.0304)
 -->
<!-- Title: ene.interfaces.PartialView.update Pages: 1 -->
<svg width="992pt" height="361pt"
 viewBox="0.00 0.00 992.00 361.00" xmlns="http://www.w3.org/2000/svg" xmlns:xlink="http://www.w3.org/1999/xlink">
<g id="graph0" class="graph" transform="scale(1 1) rotate(0) translate(4 357)">
<title>ene.interfaces.PartialView.update</title>
<!-- Node5 -->
<g id="node1" class="node">
<title>Node5</title>
<polygon fill="#bfbfbf" stroke="#000000" points="0,-175 0,-194 163,-194 163,-175 0,-175"/>
<text text-anchor="middle" x="81.5" y="-182" font-family="Helvetica,sans-Serif" font-size="10.00" fill="#000000">ene.interfaces.PartialView.update</text>
</g>
<!-- Node6 -->
<g id="node2" class="node">
<title>Node6</title>
<g id="a_node2"><a xlink:href="classene_1_1models_1_1AbstractModel.html#a970306ac2228cbcb599f65476d8c80dd" target="_top" xlink:title="ene.models.AbstractModel.changed">
<polygon fill="none" stroke="#000000" points="199,-175 199,-194 372,-194 372,-175 199,-175"/>
<text text-anchor="middle" x="285.5" y="-182" font-family="Helvetica,sans-Serif" font-size="10.00" fill="#000000">ene.models.AbstractModel.changed</text>
</a>
</g>
</g>
<!-- Node5&#45;&gt;Node6 -->
<g id="edge1" class="edge">
<title>Node5&#45;&gt;Node6</title>
<path fill="none" stroke="#191970" d="M173.0068,-184.5C181.5779,-184.5 190.2489,-184.5 198.7742,-184.5"/>
<polygon fill="#191970" stroke="#191970" points="173.0057,-181.0001 163.0057,-184.5 173.0057,-188.0001 173.0057,-181.0001"/>
</g>
<!-- Node7 -->
<g id="node3" class="node">
<title>Node7</title>
<g id="a_node3"><a xlink:href="classene_1_1models_1_1PlayerModel.html#a108968d6fd2beb7e322bba50028d32b1" target="_top" xlink:title="ene.models.PlayerModel.update">
<polygon fill="none" stroke="#000000" points="416,-323 416,-342 572,-342 572,-323 416,-323"/>
<text text-anchor="middle" x="494" y="-330" font-family="Helvetica,sans-Serif" font-size="10.00" fill="#000000">ene.models.PlayerModel.update</text>
</a>
</g>
</g>
<!-- Node6&#45;&gt;Node7 -->
<g id="edge2" class="edge">
<title>Node6&#45;&gt;Node7</title>
<path fill="none" stroke="#191970" d="M297.3213,-202.655C316.8049,-231.0263 358.476,-285.5156 408,-313.5 414.9224,-317.4116 422.5809,-320.5181 430.3909,-322.9851"/>
<polygon fill="#191970" stroke="#191970" points="300.065,-200.4624 291.5852,-194.1108 294.2532,-204.3642 300.065,-200.4624"/>
</g>
<!-- Node8 -->
<g id="node4" class="node">
<title>Node8</title>
<g id="a_node4"><a xlink:href="classene_1_1models_1_1PlaylistModel.html#a7150506b3801f97a2e38955a585bbd07" target="_top" xlink:title="ene.models.PlaylistModel.set\lCurrentTrack">
<polygon fill="none" stroke="#000000" points="421.5,-273.5 421.5,-303.5 566.5,-303.5 566.5,-273.5 421.5,-273.5"/>
<text text-anchor="start" x="429.5" y="-291.5" font-family="Helvetica,sans-Serif" font-size="10.00" fill="#000000">ene.models.PlaylistModel.set</text>
<text text-anchor="middle" x="494" y="-280.5" font-family="Helvetica,sans-Serif" font-size="10.00" fill="#000000">CurrentTrack</text>
</a>
</g>
</g>
<!-- Node6&#45;&gt;Node8 -->
<g id="edge3" class="edge">
<title>Node6&#45;&gt;Node8</title>
<path fill="none" stroke="#191970" d="M305.8057,-200.2416C329.2772,-217.7898 369.6161,-245.9966 408,-263.5 416.2053,-267.2417 425.1071,-270.5712 433.9684,-273.4833"/>
<polygon fill="#191970" stroke="#191970" points="307.7597,-197.331 297.6752,-194.0825 303.5329,-202.9108 307.7597,-197.331"/>
</g>
<!-- Node14 -->
<g id="node10" class="node">
<title>Node14</title>
<g id="a_node10"><a xlink:href="classene_1_1models_1_1TrackListModel.html#a57554d49b1182a9138b871617ce57e9a" target="_top" xlink:title="ene.models.TrackListModel.add">
<polygon fill="none" stroke="#000000" points="416.5,-235 416.5,-254 571.5,-254 571.5,-235 416.5,-235"/>
<text text-anchor="middle" x="494" y="-242" font-family="Helvetica,sans-Serif" font-size="10.00" fill="#000000">ene.models.TrackListModel.add</text>
</a>
</g>
</g>
<!-- Node6&#45;&gt;Node14 -->
<g id="edge9" class="edge">
<title>Node6&#45;&gt;Node14</title>
<path fill="none" stroke="#191970" d="M321.0481,-197.5044C345.3361,-206.1154 378.3663,-217.2921 408,-225.5 420.3781,-228.9285 433.8923,-232.1527 446.4644,-234.9375"/>
<polygon fill="#191970" stroke="#191970" points="322.1333,-194.1754 311.5387,-194.1058 319.7774,-200.7671 322.1333,-194.1754"/>
</g>
<!-- Node15 -->
<g id="node11" class="node">
<title>Node15</title>
<g id="a_node11"><a xlink:href="classene_1_1models_1_1TrackListModel.html#a51482a5f74dfadca48a06dd8888751cd" target="_top" xlink:title="ene.models.TrackListModel.remove">
<polygon fill="none" stroke="#000000" points="408,-197 408,-216 580,-216 580,-197 408,-197"/>
<text text-anchor="middle" x="494" y="-204" font-family="Helvetica,sans-Serif" font-size="10.00" fill="#000000">ene.models.TrackListModel.remove</text>
</a>
</g>
</g>
<!-- Node6&#45;&gt;Node15 -->
<g id="edge10" class="edge">
<title>Node6&#45;&gt;Node15</title>
<path fill="none" stroke="#191970" d="M382.1784,-194.7011C390.7931,-195.6101 399.4772,-196.5264 407.9937,-197.425"/>
<polygon fill="#191970" stroke="#191970" points="382.4235,-191.2076 372.1114,-193.6389 381.6889,-198.169 382.4235,-191.2076"/>
</g>
<!-- Node16 -->
<g id="node12" class="node">
<title>Node16</title>
<g id="a_node12"><a xlink:href="classene_1_1models_1_1TrackModel.html#adcb5ee61c35e73b04879409a43c4b753" target="_top" xlink:title="ene.models.TrackModel.set\lFilename">
<polygon fill="none" stroke="#000000" points="425.5,-147.5 425.5,-177.5 562.5,-177.5 562.5,-147.5 425.5,-147.5"/>
<text text-anchor="start" x="433.5" y="-165.5" font-family="Helvetica,sans-Serif" font-size="10.00" fill="#000000">ene.models.TrackModel.set</text>
<text text-anchor="middle" x="494" y="-154.5" font-family="Helvetica,sans-Serif" font-size="10.00" fill="#000000">Filename</text>
</a>
</g>
</g>
<!-- Node6&#45;&gt;Node16 -->
<g id="edge11" class="edge">
<title>Node6&#45;&gt;Node16</title>
<path fill="none" stroke="#191970" d="M382.1784,-174.2989C396.786,-172.7576 411.593,-171.1952 425.4439,-169.7337"/>
<polygon fill="#191970" stroke="#191970" points="381.6889,-170.831 372.1114,-175.3611 382.4235,-177.7924 381.6889,-170.831"/>
</g>
<!-- Node18 -->
<g id="node14" class="node">
<title>Node18</title>
<g id="a_node14"><a xlink:href="classene_1_1models_1_1TrackModel.html#a6e059ab76ba75be47de8d661e132f514" target="_top" xlink:title="ene.models.TrackModel.set\lArtist">
<polygon fill="none" stroke="#000000" points="425.5,-98.5 425.5,-128.5 562.5,-128.5 562.5,-98.5 425.5,-98.5"/>
<text text-anchor="start" x="433.5" y="-116.5" font-family="Helvetica,sans-Serif" font-size="10.00" fill="#000000">ene.models.TrackModel.set</text>
<text text-anchor="middle" x="494" y="-105.5" font-family="Helvetica,sans-Serif" font-size="10.00" fill="#000000">Artist</text>
</a>
</g>
</g>
<!-- Node6&#45;&gt;Node18 -->
<g id="edge13" class="edge">
<title>Node6&#45;&gt;Node18</title>
<path fill="none" stroke="#191970" d="M318.7882,-171.2138C343.287,-161.6286 377.4966,-148.6444 408,-138.5 418.1803,-135.1144 429.1205,-131.7376 439.6713,-128.6109"/>
<polygon fill="#191970" stroke="#191970" points="317.2747,-168.0481 309.2501,-174.9658 319.8373,-174.5622 317.2747,-168.0481"/>
</g>
<!-- Node19 -->
<g id="node15" class="node">
<title>Node19</title>
<g id="a_node15"><a xlink:href="classene_1_1models_1_1TrackModel.html#a1e8a6872b5dcf826ba463a663a8249f1" target="_top" xlink:title="ene.models.TrackModel.set\lTitle">
<polygon fill="none" stroke="#000000" points="425.5,-49.5 425.5,-79.5 562.5,-79.5 562.5,-49.5 425.5,-49.5"/>
<text text-anchor="start" x="433.5" y="-67.5" font-family="Helvetica,sans-Serif" font-size="10.00" fill="#000000">ene.models.TrackModel.set</text>
<text text-anchor="middle" x="494" y="-56.5" font-family="Helvetica,sans-Serif" font-size="10.00" fill="#000000">Title</text>
</a>
</g>
</g>
<!-- Node6&#45;&gt;Node19 -->
<g id="edge15" class="edge">
<title>Node6&#45;&gt;Node19</title>
<path fill="none" stroke="#191970" d="M302.3678,-167.6736C324.6902,-146.3093 366.1288,-109.6863 408,-88.5 414.639,-85.1407 421.8118,-82.1975 429.0849,-79.6323"/>
<polygon fill="#191970" stroke="#191970" points="299.7717,-165.3162 295.0433,-174.7975 304.6522,-170.3343 299.7717,-165.3162"/>
</g>
<!-- Node20 -->
<g id="node16" class="node">
<title>Node20</title>
<g id="a_node16"><a xlink:href="classene_1_1models_1_1TrackModel.html#acfe29ae2331320c5c60824a1bb4e1ba7" target="_top" xlink:title="ene.models.TrackModel.set\lGenre">
<polygon fill="none" stroke="#000000" points="425.5,-.5 425.5,-30.5 562.5,-30.5 562.5,-.5 425.5,-.5"/>
<text text-anchor="start" x="433.5" y="-18.5" font-family="Helvetica,sans-Serif" font-size="10.00" fill="#000000">ene.models.TrackModel.set</text>
<text text-anchor="middle" x="494" y="-7.5" font-family="Helvetica,sans-Serif" font-size="10.00" fill="#000000">Genre</text>
</a>
</g>
</g>
<!-- Node6&#45;&gt;Node20 -->
<g id="edge17" class="edge">
<title>Node6&#45;&gt;Node20</title>
<path fill="none" stroke="#191970" d="M296.1627,-165.7258C314.7764,-134.6742 356.2015,-72.7545 408,-39.5 413.3481,-36.0665 419.1891,-33.1172 425.2279,-30.5851"/>
<polygon fill="#191970" stroke="#191970" points="292.9711,-164.2497 290.9365,-174.6473 299.0111,-167.7878 292.9711,-164.2497"/>
</g>
<!-- Node9 -->
<g id="node5" class="node">
<title>Node9</title>
<g id="a_node5"><a xlink:href="classene_1_1models_1_1PlaylistModel.html#ab30573de71b566da79145210f94be294" target="_top" xlink:title="ene.models.PlaylistModel.previous\lTrack">
<polygon fill="none" stroke="#000000" points="616,-322.5 616,-352.5 784,-352.5 784,-322.5 616,-322.5"/>
<text text-anchor="start" x="624" y="-340.5" font-family="Helvetica,sans-Serif" font-size="10.00" fill="#000000">ene.models.PlaylistModel.previous</text>
<text text-anchor="middle" x="700" y="-329.5" font-family="Helvetica,sans-Serif" font-size="10.00" fill="#000000">Track</text>
</a>
</g>
</g>
<!-- Node8&#45;&gt;Node9 -->
<g id="edge4" class="edge">
<title>Node8&#45;&gt;Node9</title>
<path fill="none" stroke="#191970" d="M567.1672,-305.9038C589.9554,-311.3243 614.8758,-317.252 636.9128,-322.4938"/>
<polygon fill="#191970" stroke="#191970" points="567.7453,-302.4438 557.2068,-303.5346 566.1254,-309.2538 567.7453,-302.4438"/>
</g>
<!-- Node11 -->
<g id="node7" class="node">
<title>Node11</title>
<g id="a_node7"><a xlink:href="classene_1_1models_1_1PlaylistModel.html#afba0932567d4d21976e3c37c8d80b634" target="_top" xlink:title="ene.models.PlaylistModel.next\lTrack">
<polygon fill="none" stroke="#000000" points="625,-273.5 625,-303.5 775,-303.5 775,-273.5 625,-273.5"/>
<text text-anchor="start" x="633" y="-291.5" font-family="Helvetica,sans-Serif" font-size="10.00" fill="#000000">ene.models.PlaylistModel.next</text>
<text text-anchor="middle" x="700" y="-280.5" font-family="Helvetica,sans-Serif" font-size="10.00" fill="#000000">Track</text>
</a>
</g>
</g>
<!-- Node8&#45;&gt;Node11 -->
<g id="edge6" class="edge">
<title>Node8&#45;&gt;Node11</title>
<path fill="none" stroke="#191970" d="M576.9344,-288.5C592.7881,-288.5 609.3015,-288.5 624.8927,-288.5"/>
<polygon fill="#191970" stroke="#191970" points="576.6279,-285.0001 566.6279,-288.5 576.6279,-292.0001 576.6279,-285.0001"/>
</g>
<!-- Node13 -->
<g id="node9" class="node">
<title>Node13</title>
<g id="a_node9"><a xlink:href="classene_1_1views_1_1gui_1_1partial_1_1PlaylistView.html#a108f11521a24d840a4aeb31190c0a34e" target="_top" xlink:title="ene.views.gui.partial.Playlist\lView.mousePressed">
<polygon fill="none" stroke="#000000" points="629.5,-224.5 629.5,-254.5 770.5,-254.5 770.5,-224.5 629.5,-224.5"/>
<text text-anchor="start" x="637.5" y="-242.5" font-family="Helvetica,sans-Serif" font-size="10.00" fill="#000000">ene.views.gui.partial.Playlist</text>
<text text-anchor="middle" x="700" y="-231.5" font-family="Helvetica,sans-Serif" font-size="10.00" fill="#000000">View.mousePressed</text>
</a>
</g>
</g>
<!-- Node8&#45;&gt;Node13 -->
<g id="edge8" class="edge">
<title>Node8&#45;&gt;Node13</title>
<path fill="none" stroke="#191970" d="M567.1672,-271.0962C589.9554,-265.6757 614.8758,-259.748 636.9128,-254.5062"/>
<polygon fill="#191970" stroke="#191970" points="566.1254,-267.7462 557.2068,-273.4654 567.7453,-274.5562 566.1254,-267.7462"/>
</g>
<!-- Node10 -->
<g id="node6" class="node">
<title>Node10</title>
<g id="a_node6"><a xlink:href="classene_1_1models_1_1PlayerModel.html#a7242e20d537405f031ec8d18e7faf8fc" target="_top" xlink:title="ene.models.PlayerModel.previous">
<polygon fill="none" stroke="#000000" points="820,-328 820,-347 984,-347 984,-328 820,-328"/>
<text text-anchor="middle" x="902" y="-335" font-family="Helvetica,sans-Serif" font-size="10.00" fill="#000000">ene.models.PlayerModel.previous</text>
</a>
</g>
</g>
<!-- Node9&#45;&gt;Node10 -->
<g id="edge5" class="edge">
<title>Node9&#45;&gt;Node10</title>
<path fill="none" stroke="#191970" d="M794.2193,-337.5C802.7896,-337.5 811.4253,-337.5 819.8781,-337.5"/>
<polygon fill="#191970" stroke="#191970" points="794.2035,-334.0001 784.2035,-337.5 794.2034,-341.0001 794.2035,-334.0001"/>
</g>
<!-- Node12 -->
<g id="node8" class="node">
<title>Node12</title>
<g id="a_node8"><a xlink:href="classene_1_1models_1_1PlayerModel.html#a384fd9a2e98fc581e8221659257a8dd4" target="_top" xlink:title="ene.models.PlayerModel.next">
<polygon fill="none" stroke="#000000" points="829,-279 829,-298 975,-298 975,-279 829,-279"/>
<text text-anchor="middle" x="902" y="-286" font-family="Helvetica,sans-Serif" font-size="10.00" fill="#000000">ene.models.PlayerModel.next</text>
</a>
</g>
</g>
<!-- Node11&#45;&gt;Node12 -->
<g id="edge7" class="edge">
<title>Node11&#45;&gt;Node12</title>
<path fill="none" stroke="#191970" d="M785.58,-288.5C799.9382,-288.5 814.7222,-288.5 828.7342,-288.5"/>
<polygon fill="#191970" stroke="#191970" points="785.2174,-285.0001 775.2173,-288.5 785.2173,-292.0001 785.2174,-285.0001"/>
</g>
<!-- Node17 -->
<g id="node13" class="node">
<title>Node17</title>
<g id="a_node13"><a xlink:href="classene_1_1models_1_1TrackModel.html#abcdd0235436de2871b905818aaff4873" target="_top" xlink:title="ene.models.TrackModel.Track\lModel">
<polygon fill="none" stroke="#000000" points="625.5,-74.5 625.5,-104.5 774.5,-104.5 774.5,-74.5 625.5,-74.5"/>
<text text-anchor="start" x="633.5" y="-92.5" font-family="Helvetica,sans-Serif" font-size="10.00" fill="#000000">ene.models.TrackModel.Track</text>
<text text-anchor="middle" x="700" y="-81.5" font-family="Helvetica,sans-Serif" font-size="10.00" fill="#000000">Model</text>
</a>
</g>
</g>
<!-- Node16&#45;&gt;Node17 -->
<g id="edge12" class="edge">
<title>Node16&#45;&gt;Node17</title>
<path fill="none" stroke="#191970" d="M561.5106,-144.462C567.7906,-142.5432 574.0331,-140.5432 580,-138.5 609.4862,-128.4033 642.1912,-114.8893 666.0015,-104.611"/>
<polygon fill="#191970" stroke="#191970" points="560.2277,-141.1923 551.6457,-147.4052 562.229,-147.9001 560.2277,-141.1923"/>
</g>
<!-- Node18&#45;&gt;Node17 -->
<g id="edge14" class="edge">
<title>Node18&#45;&gt;Node17</title>
<path fill="none" stroke="#191970" d="M572.6474,-104.3372C589.9382,-102.3227 608.2002,-100.1951 625.3289,-98.1995"/>
<polygon fill="#191970" stroke="#191970" points="572.1228,-100.8746 562.595,-105.5083 572.9329,-107.8275 572.1228,-100.8746"/>
</g>
<!-- Node19&#45;&gt;Node17 -->
<g id="edge16" class="edge">
<title>Node19&#45;&gt;Node17</title>
<path fill="none" stroke="#191970" d="M572.6474,-74.0446C589.9382,-76.143 608.2002,-78.3592 625.3289,-80.438"/>
<polygon fill="#191970" stroke="#191970" points="572.9439,-70.555 562.595,-72.8246 572.1005,-77.504 572.9439,-70.555"/>
</g>
<!-- Node20&#45;&gt;Node17 -->
<g id="edge18" class="edge">
<title>Node20&#45;&gt;Node17</title>
<path fill="none" stroke="#191970" d="M561.5262,-33.4929C567.8029,-35.4211 574.0404,-37.4356 580,-39.5 609.9632,-49.8794 643.1826,-63.9264 667.0587,-74.4888"/>
<polygon fill="#191970" stroke="#191970" points="562.2487,-30.0558 551.6649,-30.539 560.24,-36.7614 562.2487,-30.0558"/>
</g>
</g>
</svg>
