<?xml version="1.0" encoding="UTF-8" standalone="no"?>
<!DOCTYPE svg PUBLIC "-//W3C//DTD SVG 1.1//EN"
 "http://www.w3.org/Graphics/SVG/1.1/DTD/svg11.dtd">
<!-- Generated by graphviz version 2.40.1 (20161225.0304)
 -->
<!-- Title: ene.interfaces.Controller&lt; ModelType &gt; Pages: 1 -->
<svg width="334pt" height="559pt"
 viewBox="0.00 0.00 334.00 559.00" xmlns="http://www.w3.org/2000/svg" xmlns:xlink="http://www.w3.org/1999/xlink">
<g id="graph0" class="graph" transform="scale(1 1) rotate(0) translate(4 555)">
<title>ene.interfaces.Controller&lt; ModelType &gt;</title>
<!-- Node0 -->
<g id="node1" class="node">
<title>Node0</title>
<polygon fill="#bfbfbf" stroke="#000000" points="97,-471.5 97,-550.5 220,-550.5 220,-471.5 97,-471.5"/>
<text text-anchor="start" x="105" y="-538.5" font-family="Helvetica,sans-Serif" font-size="10.00" fill="#000000">ene.interfaces.Controller</text>
<text text-anchor="middle" x="158.5" y="-527.5" font-family="Helvetica,sans-Serif" font-size="10.00" fill="#000000">&lt; ModelType &gt;</text>
<polyline fill="none" stroke="#000000" points="97,-520.5 220,-520.5 "/>
<text text-anchor="middle" x="158.5" y="-508.5" font-family="Helvetica,sans-Serif" font-size="10.00" fill="#000000"> </text>
<polyline fill="none" stroke="#000000" points="97,-501.5 220,-501.5 "/>
<text text-anchor="start" x="105" y="-489.5" font-family="Helvetica,sans-Serif" font-size="10.00" fill="#000000">+ setModel()</text>
<text text-anchor="start" x="105" y="-478.5" font-family="Helvetica,sans-Serif" font-size="10.00" fill="#000000">+ getModel()</text>
</g>
<!-- Node1 -->
<g id="node2" class="node">
<title>Node1</title>
<g id="a_node2"><a xlink:href="classene_1_1controllers_1_1AbstractController.html" target="_top" xlink:title="{ene::controllers::Abstract\lController\&lt; ModelType \&gt;\n|# model\l|+ setModel()\l+ getModel()\l}">
<polygon fill="none" stroke="#000000" points="95.5,-354.5 95.5,-433.5 221.5,-433.5 221.5,-354.5 95.5,-354.5"/>
<text text-anchor="start" x="103.5" y="-421.5" font-family="Helvetica,sans-Serif" font-size="10.00" fill="#000000">ene::controllers::Abstract</text>
<text text-anchor="middle" x="158.5" y="-410.5" font-family="Helvetica,sans-Serif" font-size="10.00" fill="#000000">Controller&lt; ModelType &gt;</text>
<polyline fill="none" stroke="#000000" points="95.5,-403.5 221.5,-403.5 "/>
<text text-anchor="start" x="103.5" y="-391.5" font-family="Helvetica,sans-Serif" font-size="10.00" fill="#000000"># model</text>
<polyline fill="none" stroke="#000000" points="95.5,-384.5 221.5,-384.5 "/>
<text text-anchor="start" x="103.5" y="-372.5" font-family="Helvetica,sans-Serif" font-size="10.00" fill="#000000">+ setModel()</text>
<text text-anchor="start" x="103.5" y="-361.5" font-family="Helvetica,sans-Serif" font-size="10.00" fill="#000000">+ getModel()</text>
</a>
</g>
</g>
<!-- Node0&#45;&gt;Node1 -->
<g id="edge1" class="edge">
<title>Node0&#45;&gt;Node1</title>
<path fill="none" stroke="#191970" d="M158.5,-461.1578C158.5,-451.9409 158.5,-442.4308 158.5,-433.5701"/>
<polygon fill="none" stroke="#191970" points="155.0001,-461.3891 158.5,-471.3891 162.0001,-461.3892 155.0001,-461.3891"/>
</g>
<!-- Node2 -->
<g id="node3" class="node">
<title>Node2</title>
<g id="a_node3"><a xlink:href="classene_1_1controllers_1_1AbstractController.html" target="_top" xlink:title="{ene.controllers.Abstract\lController\&lt; LibraryModel \&gt;\n|# model\l|+ setModel()\l+ getModel()\l}">
<polygon fill="none" stroke="#000000" points="17.5,-227.5 17.5,-306.5 149.5,-306.5 149.5,-227.5 17.5,-227.5"/>
<text text-anchor="start" x="25.5" y="-294.5" font-family="Helvetica,sans-Serif" font-size="10.00" fill="#000000">ene.controllers.Abstract</text>
<text text-anchor="middle" x="83.5" y="-283.5" font-family="Helvetica,sans-Serif" font-size="10.00" fill="#000000">Controller&lt; LibraryModel &gt;</text>
<polyline fill="none" stroke="#000000" points="17.5,-276.5 149.5,-276.5 "/>
<text text-anchor="start" x="25.5" y="-264.5" font-family="Helvetica,sans-Serif" font-size="10.00" fill="#000000"># model</text>
<polyline fill="none" stroke="#000000" points="17.5,-257.5 149.5,-257.5 "/>
<text text-anchor="start" x="25.5" y="-245.5" font-family="Helvetica,sans-Serif" font-size="10.00" fill="#000000">+ setModel()</text>
<text text-anchor="start" x="25.5" y="-234.5" font-family="Helvetica,sans-Serif" font-size="10.00" fill="#000000">+ getModel()</text>
</a>
</g>
</g>
<!-- Node1&#45;&gt;Node2 -->
<g id="edge2" class="edge">
<title>Node1&#45;&gt;Node2</title>
<path fill="none" stroke="#ffa500" d="M127.3391,-345.6649C125.3404,-342.408 123.3783,-339.1648 121.5,-336 115.9162,-326.5917 110.1114,-316.3253 104.7689,-306.6559"/>
<polygon fill="#ffa500" stroke="#ffa500" points="124.4349,-347.6227 132.6822,-354.2735 130.3824,-343.9313 124.4349,-347.6227"/>
<text text-anchor="middle" x="160" y="-328" font-family="Helvetica,sans-Serif" font-size="10.00" fill="#000000"> &lt; LibraryModel &gt;</text>
</g>
<!-- Node4 -->
<g id="node5" class="node">
<title>Node4</title>
<g id="a_node5"><a xlink:href="classene_1_1controllers_1_1AbstractController.html" target="_top" xlink:title="{ene.controllers.Abstract\lController\&lt; PlayerModel \&gt;\n|# model\l|+ setModel()\l+ getModel()\l}">
<polygon fill="none" stroke="#000000" points="179,-227.5 179,-306.5 310,-306.5 310,-227.5 179,-227.5"/>
<text text-anchor="start" x="187" y="-294.5" font-family="Helvetica,sans-Serif" font-size="10.00" fill="#000000">ene.controllers.Abstract</text>
<text text-anchor="middle" x="244.5" y="-283.5" font-family="Helvetica,sans-Serif" font-size="10.00" fill="#000000">Controller&lt; PlayerModel &gt;</text>
<polyline fill="none" stroke="#000000" points="179,-276.5 310,-276.5 "/>
<text text-anchor="start" x="187" y="-264.5" font-family="Helvetica,sans-Serif" font-size="10.00" fill="#000000"># model</text>
<polyline fill="none" stroke="#000000" points="179,-257.5 310,-257.5 "/>
<text text-anchor="start" x="187" y="-245.5" font-family="Helvetica,sans-Serif" font-size="10.00" fill="#000000">+ setModel()</text>
<text text-anchor="start" x="187" y="-234.5" font-family="Helvetica,sans-Serif" font-size="10.00" fill="#000000">+ getModel()</text>
</a>
</g>
</g>
<!-- Node1&#45;&gt;Node4 -->
<g id="edge4" class="edge">
<title>Node1&#45;&gt;Node4</title>
<path fill="none" stroke="#ffa500" d="M191.6784,-346.0168C193.9929,-342.631 196.285,-339.2665 198.5,-336 204.8833,-326.5864 211.7075,-316.4119 218.0926,-306.8426"/>
<polygon fill="#ffa500" stroke="#ffa500" points="188.6762,-344.2061 185.9099,-354.4335 194.4503,-348.1635 188.6762,-344.2061"/>
<text text-anchor="middle" x="243.5" y="-328" font-family="Helvetica,sans-Serif" font-size="10.00" fill="#000000"> &lt; PlayerModel &gt;</text>
</g>
<!-- Node3 -->
<g id="node4" class="node">
<title>Node3</title>
<g id="a_node4"><a xlink:href="classene_1_1controllers_1_1LibraryController.html" target="_top" xlink:title="{ene.controllers.LibraryController\n|# databaseFilename\l# DATABASE_TIMEOUT\l# DATABASE_TABLE\l|+ LibraryController()\l+ LibraryController()\l+ loadFromFile()\l+ saveToFile()\l+ add()\l+ remove()\l# setDatabaseFilename()\l# getDatabaseFilename()\l# addFile()\l# addDirectoryContent()\l# scan()\l}">
<polygon fill="none" stroke="#000000" points="0,-.5 0,-189.5 155,-189.5 155,-.5 0,-.5"/>
<text text-anchor="middle" x="77.5" y="-177.5" font-family="Helvetica,sans-Serif" font-size="10.00" fill="#000000">ene.controllers.LibraryController</text>
<polyline fill="none" stroke="#000000" points="0,-170.5 155,-170.5 "/>
<text text-anchor="start" x="8" y="-158.5" font-family="Helvetica,sans-Serif" font-size="10.00" fill="#000000"># databaseFilename</text>
<text text-anchor="start" x="8" y="-147.5" font-family="Helvetica,sans-Serif" font-size="10.00" fill="#000000"># DATABASE_TIMEOUT</text>
<text text-anchor="start" x="8" y="-136.5" font-family="Helvetica,sans-Serif" font-size="10.00" fill="#000000"># DATABASE_TABLE</text>
<polyline fill="none" stroke="#000000" points="0,-129.5 155,-129.5 "/>
<text text-anchor="start" x="8" y="-117.5" font-family="Helvetica,sans-Serif" font-size="10.00" fill="#000000">+ LibraryController()</text>
<text text-anchor="start" x="8" y="-106.5" font-family="Helvetica,sans-Serif" font-size="10.00" fill="#000000">+ LibraryController()</text>
<text text-anchor="start" x="8" y="-95.5" font-family="Helvetica,sans-Serif" font-size="10.00" fill="#000000">+ loadFromFile()</text>
<text text-anchor="start" x="8" y="-84.5" font-family="Helvetica,sans-Serif" font-size="10.00" fill="#000000">+ saveToFile()</text>
<text text-anchor="start" x="8" y="-73.5" font-family="Helvetica,sans-Serif" font-size="10.00" fill="#000000">+ add()</text>
<text text-anchor="start" x="8" y="-62.5" font-family="Helvetica,sans-Serif" font-size="10.00" fill="#000000">+ remove()</text>
<text text-anchor="start" x="8" y="-51.5" font-family="Helvetica,sans-Serif" font-size="10.00" fill="#000000"># setDatabaseFilename()</text>
<text text-anchor="start" x="8" y="-40.5" font-family="Helvetica,sans-Serif" font-size="10.00" fill="#000000"># getDatabaseFilename()</text>
<text text-anchor="start" x="8" y="-29.5" font-family="Helvetica,sans-Serif" font-size="10.00" fill="#000000"># addFile()</text>
<text text-anchor="start" x="8" y="-18.5" font-family="Helvetica,sans-Serif" font-size="10.00" fill="#000000"># addDirectoryContent()</text>
<text text-anchor="start" x="8" y="-7.5" font-family="Helvetica,sans-Serif" font-size="10.00" fill="#000000"># scan()</text>
</a>
</g>
</g>
<!-- Node2&#45;&gt;Node3 -->
<g id="edge3" class="edge">
<title>Node2&#45;&gt;Node3</title>
<path fill="none" stroke="#191970" d="M81.7508,-216.8557C81.4483,-208.1852 81.1252,-198.9224 80.7973,-189.5225"/>
<polygon fill="none" stroke="#191970" points="78.2618,-217.2356 82.1084,-227.1074 85.2576,-216.9914 78.2618,-217.2356"/>
</g>
<!-- Node5 -->
<g id="node6" class="node">
<title>Node5</title>
<g id="a_node6"><a xlink:href="classene_1_1controllers_1_1PlayerController.html" target="_top" xlink:title="{ene.controllers.PlayerController\n||+ PlayerController()\l+ changeTrackPosition()\l+ load()\l+ togglePlayback()\l}">
<polygon fill="none" stroke="#000000" points="173,-50 173,-140 326,-140 326,-50 173,-50"/>
<text text-anchor="middle" x="249.5" y="-128" font-family="Helvetica,sans-Serif" font-size="10.00" fill="#000000">ene.controllers.PlayerController</text>
<polyline fill="none" stroke="#000000" points="173,-121 326,-121 "/>
<text text-anchor="middle" x="249.5" y="-109" font-family="Helvetica,sans-Serif" font-size="10.00" fill="#000000"> </text>
<polyline fill="none" stroke="#000000" points="173,-102 326,-102 "/>
<text text-anchor="start" x="181" y="-90" font-family="Helvetica,sans-Serif" font-size="10.00" fill="#000000">+ PlayerController()</text>
<text text-anchor="start" x="181" y="-79" font-family="Helvetica,sans-Serif" font-size="10.00" fill="#000000">+ changeTrackPosition()</text>
<text text-anchor="start" x="181" y="-68" font-family="Helvetica,sans-Serif" font-size="10.00" fill="#000000">+ load()</text>
<text text-anchor="start" x="181" y="-57" font-family="Helvetica,sans-Serif" font-size="10.00" fill="#000000">+ togglePlayback()</text>
</a>
</g>
</g>
<!-- Node4&#45;&gt;Node5 -->
<g id="edge5" class="edge">
<title>Node4&#45;&gt;Node5</title>
<path fill="none" stroke="#191970" d="M245.9531,-217.0122C246.6593,-192.7201 247.5015,-163.7494 248.1879,-140.1348"/>
<polygon fill="none" stroke="#191970" points="242.4518,-217.0099 245.6597,-227.1074 249.4489,-217.2134 242.4518,-217.0099"/>
</g>
</g>
</svg>
