<?xml version="1.0" encoding="UTF-8" standalone="no"?>
<!DOCTYPE svg PUBLIC "-//W3C//DTD SVG 1.1//EN"
 "http://www.w3.org/Graphics/SVG/1.1/DTD/svg11.dtd">
<!-- Generated by graphviz version 2.40.1 (20161225.0304)
 -->
<!-- Title: ene.interfaces.MasterView&lt; CoreComponentType &gt; Pages: 1 -->
<svg width="628pt" height="548pt"
 viewBox="0.00 0.00 628.00 548.00" xmlns="http://www.w3.org/2000/svg" xmlns:xlink="http://www.w3.org/1999/xlink">
<g id="graph0" class="graph" transform="scale(1 1) rotate(0) translate(4 544)">
<title>ene.interfaces.MasterView&lt; CoreComponentType &gt;</title>
<!-- Node0 -->
<g id="node1" class="node">
<title>Node0</title>
<polygon fill="#bfbfbf" stroke="#000000" points="260,-277.5 260,-367.5 393,-367.5 393,-277.5 260,-277.5"/>
<text text-anchor="start" x="268" y="-355.5" font-family="Helvetica,sans-Serif" font-size="10.00" fill="#000000">ene.interfaces.MasterView</text>
<text text-anchor="middle" x="326.5" y="-344.5" font-family="Helvetica,sans-Serif" font-size="10.00" fill="#000000">&lt; CoreComponentType &gt;</text>
<polyline fill="none" stroke="#000000" points="260,-337.5 393,-337.5 "/>
<text text-anchor="middle" x="326.5" y="-325.5" font-family="Helvetica,sans-Serif" font-size="10.00" fill="#000000"> </text>
<polyline fill="none" stroke="#000000" points="260,-318.5 393,-318.5 "/>
<text text-anchor="start" x="268" y="-306.5" font-family="Helvetica,sans-Serif" font-size="10.00" fill="#000000">+ addView()</text>
<text text-anchor="start" x="268" y="-295.5" font-family="Helvetica,sans-Serif" font-size="10.00" fill="#000000">+ setAllViews()</text>
<text text-anchor="start" x="268" y="-284.5" font-family="Helvetica,sans-Serif" font-size="10.00" fill="#000000">+ getAllViews()</text>
</g>
<!-- Node2 -->
<g id="node3" class="node">
<title>Node2</title>
<g id="a_node3"><a xlink:href="classene_1_1views_1_1AbstractMasterView.html" target="_top" xlink:title="{ene::views::AbstractMaster\lView\&lt; CoreComponentType \&gt;\n|# views\l|+ addView()\l+ setAllViews()\l+ getAllViews()\l}">
<polygon fill="none" stroke="#000000" points="252,-149.5 252,-239.5 401,-239.5 401,-149.5 252,-149.5"/>
<text text-anchor="start" x="260" y="-227.5" font-family="Helvetica,sans-Serif" font-size="10.00" fill="#000000">ene::views::AbstractMaster</text>
<text text-anchor="middle" x="326.5" y="-216.5" font-family="Helvetica,sans-Serif" font-size="10.00" fill="#000000">View&lt; CoreComponentType &gt;</text>
<polyline fill="none" stroke="#000000" points="252,-209.5 401,-209.5 "/>
<text text-anchor="start" x="260" y="-197.5" font-family="Helvetica,sans-Serif" font-size="10.00" fill="#000000"># views</text>
<polyline fill="none" stroke="#000000" points="252,-190.5 401,-190.5 "/>
<text text-anchor="start" x="260" y="-178.5" font-family="Helvetica,sans-Serif" font-size="10.00" fill="#000000">+ addView()</text>
<text text-anchor="start" x="260" y="-167.5" font-family="Helvetica,sans-Serif" font-size="10.00" fill="#000000">+ setAllViews()</text>
<text text-anchor="start" x="260" y="-156.5" font-family="Helvetica,sans-Serif" font-size="10.00" fill="#000000">+ getAllViews()</text>
</a>
</g>
</g>
<!-- Node0&#45;&gt;Node2 -->
<g id="edge2" class="edge">
<title>Node0&#45;&gt;Node2</title>
<path fill="none" stroke="#191970" d="M326.5,-267.1492C326.5,-257.9671 326.5,-248.5431 326.5,-239.6519"/>
<polygon fill="none" stroke="#191970" points="323.0001,-267.372 326.5,-277.372 330.0001,-267.372 323.0001,-267.372"/>
</g>
<!-- Node1 -->
<g id="node2" class="node">
<title>Node1</title>
<g id="a_node2"><a xlink:href="interfaceene_1_1interfaces_1_1View.html" target="_top" xlink:title="{ene::interfaces::View\l\&lt; CoreComponentType \&gt;\n||+ setTitle()\l+ getTitle()\l+ setCoreComponent()\l+ getCoreComponent()\l+ setLayoutPosition()\l+ getLayoutPosition()\l+ render()\l}">
<polygon fill="none" stroke="#000000" points="262.5,-405.5 262.5,-539.5 390.5,-539.5 390.5,-405.5 262.5,-405.5"/>
<text text-anchor="start" x="270.5" y="-527.5" font-family="Helvetica,sans-Serif" font-size="10.00" fill="#000000">ene::interfaces::View</text>
<text text-anchor="middle" x="326.5" y="-516.5" font-family="Helvetica,sans-Serif" font-size="10.00" fill="#000000">&lt; CoreComponentType &gt;</text>
<polyline fill="none" stroke="#000000" points="262.5,-509.5 390.5,-509.5 "/>
<text text-anchor="middle" x="326.5" y="-497.5" font-family="Helvetica,sans-Serif" font-size="10.00" fill="#000000"> </text>
<polyline fill="none" stroke="#000000" points="262.5,-490.5 390.5,-490.5 "/>
<text text-anchor="start" x="270.5" y="-478.5" font-family="Helvetica,sans-Serif" font-size="10.00" fill="#000000">+ setTitle()</text>
<text text-anchor="start" x="270.5" y="-467.5" font-family="Helvetica,sans-Serif" font-size="10.00" fill="#000000">+ getTitle()</text>
<text text-anchor="start" x="270.5" y="-456.5" font-family="Helvetica,sans-Serif" font-size="10.00" fill="#000000">+ setCoreComponent()</text>
<text text-anchor="start" x="270.5" y="-445.5" font-family="Helvetica,sans-Serif" font-size="10.00" fill="#000000">+ getCoreComponent()</text>
<text text-anchor="start" x="270.5" y="-434.5" font-family="Helvetica,sans-Serif" font-size="10.00" fill="#000000">+ setLayoutPosition()</text>
<text text-anchor="start" x="270.5" y="-423.5" font-family="Helvetica,sans-Serif" font-size="10.00" fill="#000000">+ getLayoutPosition()</text>
<text text-anchor="start" x="270.5" y="-412.5" font-family="Helvetica,sans-Serif" font-size="10.00" fill="#000000">+ render()</text>
</a>
</g>
</g>
<!-- Node1&#45;&gt;Node0 -->
<g id="edge1" class="edge">
<title>Node1&#45;&gt;Node0</title>
<path fill="none" stroke="#191970" d="M326.5,-395.1656C326.5,-385.7284 326.5,-376.3404 326.5,-367.6003"/>
<polygon fill="none" stroke="#191970" points="323.0001,-395.3971 326.5,-405.3971 330.0001,-395.3972 323.0001,-395.3971"/>
</g>
<!-- Node3 -->
<g id="node4" class="node">
<title>Node3</title>
<g id="a_node4"><a xlink:href="classene_1_1views_1_1gui_1_1partial_1_1ContentView.html" target="_top" xlink:title="{ene::views::gui::partial\l::ContentView\&lt; JTabbedPane \&gt;\n||+ ContentView()\l+ render()\l}">
<polygon fill="none" stroke="#000000" points="0,-11.5 0,-90.5 157,-90.5 157,-11.5 0,-11.5"/>
<text text-anchor="start" x="8" y="-78.5" font-family="Helvetica,sans-Serif" font-size="10.00" fill="#000000">ene::views::gui::partial</text>
<text text-anchor="middle" x="78.5" y="-67.5" font-family="Helvetica,sans-Serif" font-size="10.00" fill="#000000">::ContentView&lt; JTabbedPane &gt;</text>
<polyline fill="none" stroke="#000000" points="0,-60.5 157,-60.5 "/>
<text text-anchor="middle" x="78.5" y="-48.5" font-family="Helvetica,sans-Serif" font-size="10.00" fill="#000000"> </text>
<polyline fill="none" stroke="#000000" points="0,-41.5 157,-41.5 "/>
<text text-anchor="start" x="8" y="-29.5" font-family="Helvetica,sans-Serif" font-size="10.00" fill="#000000">+ ContentView()</text>
<text text-anchor="start" x="8" y="-18.5" font-family="Helvetica,sans-Serif" font-size="10.00" fill="#000000">+ render()</text>
</a>
</g>
</g>
<!-- Node2&#45;&gt;Node3 -->
<g id="edge3" class="edge">
<title>Node2&#45;&gt;Node3</title>
<path fill="none" stroke="#191970" d="M242.6727,-146.0597C218.121,-131.8663 191.232,-116.3157 166.5,-102 160.0814,-98.2847 153.4002,-94.4157 146.7154,-90.5435"/>
<polygon fill="none" stroke="#191970" points="241.1948,-149.2481 251.604,-151.2227 244.6981,-143.1878 241.1948,-149.2481"/>
</g>
<!-- Node4 -->
<g id="node5" class="node">
<title>Node4</title>
<g id="a_node5"><a xlink:href="classene_1_1views_1_1gui_1_1WindowView.html" target="_top" xlink:title="{ene::views::gui::WindowView\l\&lt; JFrame \&gt;\n||+ setTitle()\l+ getTitle()\l+ WindowView()\l+ render()\l}">
<polygon fill="none" stroke="#000000" points="175.5,-.5 175.5,-101.5 321.5,-101.5 321.5,-.5 175.5,-.5"/>
<text text-anchor="start" x="183.5" y="-89.5" font-family="Helvetica,sans-Serif" font-size="10.00" fill="#000000">ene::views::gui::WindowView</text>
<text text-anchor="middle" x="248.5" y="-78.5" font-family="Helvetica,sans-Serif" font-size="10.00" fill="#000000">&lt; JFrame &gt;</text>
<polyline fill="none" stroke="#000000" points="175.5,-71.5 321.5,-71.5 "/>
<text text-anchor="middle" x="248.5" y="-59.5" font-family="Helvetica,sans-Serif" font-size="10.00" fill="#000000"> </text>
<polyline fill="none" stroke="#000000" points="175.5,-52.5 321.5,-52.5 "/>
<text text-anchor="start" x="183.5" y="-40.5" font-family="Helvetica,sans-Serif" font-size="10.00" fill="#000000">+ setTitle()</text>
<text text-anchor="start" x="183.5" y="-29.5" font-family="Helvetica,sans-Serif" font-size="10.00" fill="#000000">+ getTitle()</text>
<text text-anchor="start" x="183.5" y="-18.5" font-family="Helvetica,sans-Serif" font-size="10.00" fill="#000000">+ WindowView()</text>
<text text-anchor="start" x="183.5" y="-7.5" font-family="Helvetica,sans-Serif" font-size="10.00" fill="#000000">+ render()</text>
</a>
</g>
</g>
<!-- Node2&#45;&gt;Node4 -->
<g id="edge4" class="edge">
<title>Node2&#45;&gt;Node4</title>
<path fill="none" stroke="#191970" d="M297.0886,-140.3905C290.1738,-127.669 282.8302,-114.1588 276.0029,-101.5983"/>
<polygon fill="none" stroke="#191970" points="294.1835,-142.3749 302.0343,-149.4894 300.3337,-139.032 294.1835,-142.3749"/>
</g>
<!-- Node5 -->
<g id="node6" class="node">
<title>Node5</title>
<g id="a_node6"><a xlink:href="classene_1_1views_1_1AbstractMasterView.html" target="_top" xlink:title="{ene.views.AbstractMaster\lView\&lt; JTabbedPane \&gt;\n|# views\l|+ addView()\l+ setAllViews()\l+ getAllViews()\l}">
<polygon fill="none" stroke="#000000" points="340,-6 340,-96 471,-96 471,-6 340,-6"/>
<text text-anchor="start" x="348" y="-84" font-family="Helvetica,sans-Serif" font-size="10.00" fill="#000000">ene.views.AbstractMaster</text>
<text text-anchor="middle" x="405.5" y="-73" font-family="Helvetica,sans-Serif" font-size="10.00" fill="#000000">View&lt; JTabbedPane &gt;</text>
<polyline fill="none" stroke="#000000" points="340,-66 471,-66 "/>
<text text-anchor="start" x="348" y="-54" font-family="Helvetica,sans-Serif" font-size="10.00" fill="#000000"># views</text>
<polyline fill="none" stroke="#000000" points="340,-47 471,-47 "/>
<text text-anchor="start" x="348" y="-35" font-family="Helvetica,sans-Serif" font-size="10.00" fill="#000000">+ addView()</text>
<text text-anchor="start" x="348" y="-24" font-family="Helvetica,sans-Serif" font-size="10.00" fill="#000000">+ setAllViews()</text>
<text text-anchor="start" x="348" y="-13" font-family="Helvetica,sans-Serif" font-size="10.00" fill="#000000">+ getAllViews()</text>
</a>
</g>
</g>
<!-- Node2&#45;&gt;Node5 -->
<g id="edge5" class="edge">
<title>Node2&#45;&gt;Node5</title>
<path fill="none" stroke="#ffa500" d="M356.186,-140.5767C364.2067,-126.0075 372.8038,-110.3913 380.537,-96.3443"/>
<polygon fill="#ffa500" stroke="#ffa500" points="353.036,-139.0412 351.2793,-149.4894 359.1682,-142.4172 353.036,-139.0412"/>
<text text-anchor="middle" x="407.5" y="-123" font-family="Helvetica,sans-Serif" font-size="10.00" fill="#000000"> &lt; JTabbedPane &gt;</text>
</g>
<!-- Node6 -->
<g id="node7" class="node">
<title>Node6</title>
<g id="a_node7"><a xlink:href="classene_1_1views_1_1AbstractMasterView.html" target="_top" xlink:title="{ene.views.AbstractMaster\lView\&lt; JFrame \&gt;\n|# views\l|+ addView()\l+ setAllViews()\l+ getAllViews()\l}">
<polygon fill="none" stroke="#000000" points="489,-6 489,-96 620,-96 620,-6 489,-6"/>
<text text-anchor="start" x="497" y="-84" font-family="Helvetica,sans-Serif" font-size="10.00" fill="#000000">ene.views.AbstractMaster</text>
<text text-anchor="middle" x="554.5" y="-73" font-family="Helvetica,sans-Serif" font-size="10.00" fill="#000000">View&lt; JFrame &gt;</text>
<polyline fill="none" stroke="#000000" points="489,-66 620,-66 "/>
<text text-anchor="start" x="497" y="-54" font-family="Helvetica,sans-Serif" font-size="10.00" fill="#000000"># views</text>
<polyline fill="none" stroke="#000000" points="489,-47 620,-47 "/>
<text text-anchor="start" x="497" y="-35" font-family="Helvetica,sans-Serif" font-size="10.00" fill="#000000">+ addView()</text>
<text text-anchor="start" x="497" y="-24" font-family="Helvetica,sans-Serif" font-size="10.00" fill="#000000">+ setAllViews()</text>
<text text-anchor="start" x="497" y="-13" font-family="Helvetica,sans-Serif" font-size="10.00" fill="#000000">+ getAllViews()</text>
</a>
</g>
</g>
<!-- Node2&#45;&gt;Node6 -->
<g id="edge6" class="edge">
<title>Node2&#45;&gt;Node6</title>
<path fill="none" stroke="#ffa500" d="M410.0842,-155.3175C424.5067,-147.7303 439.1443,-139.4846 452.5,-131 468.9316,-120.5613 485.9044,-108.0432 501.1767,-96.0428"/>
<polygon fill="#ffa500" stroke="#ffa500" points="408.4117,-152.2421 401.1454,-159.9527 411.6341,-158.4563 408.4117,-152.2421"/>
<text text-anchor="middle" x="495" y="-123" font-family="Helvetica,sans-Serif" font-size="10.00" fill="#000000"> &lt; JFrame &gt;</text>
</g>
</g>
</svg>
