<?xml version="1.0" encoding="UTF-8" standalone="no"?>
<!DOCTYPE svg PUBLIC "-//W3C//DTD SVG 1.1//EN"
 "http://www.w3.org/Graphics/SVG/1.1/DTD/svg11.dtd">
<!-- Generated by graphviz version 2.40.1 (20161225.0304)
 -->
<!-- Title: ene.interfaces.Controller&lt; ModelType &gt; Pages: 1 -->
<svg width="334pt" height="482pt"
 viewBox="0.00 0.00 334.00 482.00" xmlns="http://www.w3.org/2000/svg" xmlns:xlink="http://www.w3.org/1999/xlink">
<g id="graph0" class="graph" transform="scale(1 1) rotate(0) translate(4 478)">
<title>ene.interfaces.Controller&lt; ModelType &gt;</title>
<!-- Node0 -->
<g id="node1" class="node">
<title>Node0</title>
<polygon fill="#bfbfbf" stroke="#000000" points="97,-394.5 97,-473.5 220,-473.5 220,-394.5 97,-394.5"/>
<text text-anchor="start" x="105" y="-461.5" font-family="Helvetica,sans-Serif" font-size="10.00" fill="#000000">ene.interfaces.Controller</text>
<text text-anchor="middle" x="158.5" y="-450.5" font-family="Helvetica,sans-Serif" font-size="10.00" fill="#000000">&lt; ModelType &gt;</text>
<polyline fill="none" stroke="#000000" points="97,-443.5 220,-443.5 "/>
<text text-anchor="middle" x="158.5" y="-431.5" font-family="Helvetica,sans-Serif" font-size="10.00" fill="#000000"> </text>
<polyline fill="none" stroke="#000000" points="97,-424.5 220,-424.5 "/>
<text text-anchor="start" x="105" y="-412.5" font-family="Helvetica,sans-Serif" font-size="10.00" fill="#000000">+ setModel()</text>
<text text-anchor="start" x="105" y="-401.5" font-family="Helvetica,sans-Serif" font-size="10.00" fill="#000000">+ getModel()</text>
</g>
<!-- Node1 -->
<g id="node2" class="node">
<title>Node1</title>
<g id="a_node2"><a xlink:href="classene_1_1controllers_1_1AbstractController.html" target="_top" xlink:title="{ene::controllers::Abstract\lController\&lt; ModelType \&gt;\n|# model\l|+ setModel()\l+ getModel()\l}">
<polygon fill="none" stroke="#000000" points="95.5,-277.5 95.5,-356.5 221.5,-356.5 221.5,-277.5 95.5,-277.5"/>
<text text-anchor="start" x="103.5" y="-344.5" font-family="Helvetica,sans-Serif" font-size="10.00" fill="#000000">ene::controllers::Abstract</text>
<text text-anchor="middle" x="158.5" y="-333.5" font-family="Helvetica,sans-Serif" font-size="10.00" fill="#000000">Controller&lt; ModelType &gt;</text>
<polyline fill="none" stroke="#000000" points="95.5,-326.5 221.5,-326.5 "/>
<text text-anchor="start" x="103.5" y="-314.5" font-family="Helvetica,sans-Serif" font-size="10.00" fill="#000000"># model</text>
<polyline fill="none" stroke="#000000" points="95.5,-307.5 221.5,-307.5 "/>
<text text-anchor="start" x="103.5" y="-295.5" font-family="Helvetica,sans-Serif" font-size="10.00" fill="#000000">+ setModel()</text>
<text text-anchor="start" x="103.5" y="-284.5" font-family="Helvetica,sans-Serif" font-size="10.00" fill="#000000">+ getModel()</text>
</a>
</g>
</g>
<!-- Node0&#45;&gt;Node1 -->
<g id="edge1" class="edge">
<title>Node0&#45;&gt;Node1</title>
<path fill="none" stroke="#191970" d="M158.5,-384.1578C158.5,-374.9409 158.5,-365.4308 158.5,-356.5701"/>
<polygon fill="none" stroke="#191970" points="155.0001,-384.3891 158.5,-394.3891 162.0001,-384.3892 155.0001,-384.3891"/>
</g>
<!-- Node2 -->
<g id="node3" class="node">
<title>Node2</title>
<g id="a_node3"><a xlink:href="classene_1_1controllers_1_1AbstractController.html" target="_top" xlink:title="{ene.controllers.Abstract\lController\&lt; LibraryModel \&gt;\n|# model\l|+ setModel()\l+ getModel()\l}">
<polygon fill="none" stroke="#000000" points="17.5,-150.5 17.5,-229.5 149.5,-229.5 149.5,-150.5 17.5,-150.5"/>
<text text-anchor="start" x="25.5" y="-217.5" font-family="Helvetica,sans-Serif" font-size="10.00" fill="#000000">ene.controllers.Abstract</text>
<text text-anchor="middle" x="83.5" y="-206.5" font-family="Helvetica,sans-Serif" font-size="10.00" fill="#000000">Controller&lt; LibraryModel &gt;</text>
<polyline fill="none" stroke="#000000" points="17.5,-199.5 149.5,-199.5 "/>
<text text-anchor="start" x="25.5" y="-187.5" font-family="Helvetica,sans-Serif" font-size="10.00" fill="#000000"># model</text>
<polyline fill="none" stroke="#000000" points="17.5,-180.5 149.5,-180.5 "/>
<text text-anchor="start" x="25.5" y="-168.5" font-family="Helvetica,sans-Serif" font-size="10.00" fill="#000000">+ setModel()</text>
<text text-anchor="start" x="25.5" y="-157.5" font-family="Helvetica,sans-Serif" font-size="10.00" fill="#000000">+ getModel()</text>
</a>
</g>
</g>
<!-- Node1&#45;&gt;Node2 -->
<g id="edge2" class="edge">
<title>Node1&#45;&gt;Node2</title>
<path fill="none" stroke="#ffa500" d="M127.3391,-268.6649C125.3404,-265.408 123.3783,-262.1648 121.5,-259 115.9162,-249.5917 110.1114,-239.3253 104.7689,-229.6559"/>
<polygon fill="#ffa500" stroke="#ffa500" points="124.4349,-270.6227 132.6822,-277.2735 130.3824,-266.9313 124.4349,-270.6227"/>
<text text-anchor="middle" x="160" y="-251" font-family="Helvetica,sans-Serif" font-size="10.00" fill="#000000"> &lt; LibraryModel &gt;</text>
</g>
<!-- Node4 -->
<g id="node5" class="node">
<title>Node4</title>
<g id="a_node5"><a xlink:href="classene_1_1controllers_1_1AbstractController.html" target="_top" xlink:title="{ene.controllers.Abstract\lController\&lt; PlayerModel \&gt;\n|# model\l|+ setModel()\l+ getModel()\l}">
<polygon fill="none" stroke="#000000" points="179,-150.5 179,-229.5 310,-229.5 310,-150.5 179,-150.5"/>
<text text-anchor="start" x="187" y="-217.5" font-family="Helvetica,sans-Serif" font-size="10.00" fill="#000000">ene.controllers.Abstract</text>
<text text-anchor="middle" x="244.5" y="-206.5" font-family="Helvetica,sans-Serif" font-size="10.00" fill="#000000">Controller&lt; PlayerModel &gt;</text>
<polyline fill="none" stroke="#000000" points="179,-199.5 310,-199.5 "/>
<text text-anchor="start" x="187" y="-187.5" font-family="Helvetica,sans-Serif" font-size="10.00" fill="#000000"># model</text>
<polyline fill="none" stroke="#000000" points="179,-180.5 310,-180.5 "/>
<text text-anchor="start" x="187" y="-168.5" font-family="Helvetica,sans-Serif" font-size="10.00" fill="#000000">+ setModel()</text>
<text text-anchor="start" x="187" y="-157.5" font-family="Helvetica,sans-Serif" font-size="10.00" fill="#000000">+ getModel()</text>
</a>
</g>
</g>
<!-- Node1&#45;&gt;Node4 -->
<g id="edge4" class="edge">
<title>Node1&#45;&gt;Node4</title>
<path fill="none" stroke="#ffa500" d="M191.6784,-269.0168C193.9929,-265.631 196.285,-262.2665 198.5,-259 204.8833,-249.5864 211.7075,-239.4119 218.0926,-229.8426"/>
<polygon fill="#ffa500" stroke="#ffa500" points="188.6762,-267.2061 185.9099,-277.4335 194.4503,-271.1635 188.6762,-267.2061"/>
<text text-anchor="middle" x="243.5" y="-251" font-family="Helvetica,sans-Serif" font-size="10.00" fill="#000000"> &lt; PlayerModel &gt;</text>
</g>
<!-- Node3 -->
<g id="node4" class="node">
<title>Node3</title>
<g id="a_node4"><a xlink:href="classene_1_1controllers_1_1LibraryController.html" target="_top" xlink:title="{ene.controllers.LibraryController\n||+ LibraryController()\l+ add()\l+ remove()\l# addFile()\l# addDirectoryContent()\l# scan()\l}">
<polygon fill="none" stroke="#000000" points="0,-.5 0,-112.5 155,-112.5 155,-.5 0,-.5"/>
<text text-anchor="middle" x="77.5" y="-100.5" font-family="Helvetica,sans-Serif" font-size="10.00" fill="#000000">ene.controllers.LibraryController</text>
<polyline fill="none" stroke="#000000" points="0,-93.5 155,-93.5 "/>
<text text-anchor="middle" x="77.5" y="-81.5" font-family="Helvetica,sans-Serif" font-size="10.00" fill="#000000"> </text>
<polyline fill="none" stroke="#000000" points="0,-74.5 155,-74.5 "/>
<text text-anchor="start" x="8" y="-62.5" font-family="Helvetica,sans-Serif" font-size="10.00" fill="#000000">+ LibraryController()</text>
<text text-anchor="start" x="8" y="-51.5" font-family="Helvetica,sans-Serif" font-size="10.00" fill="#000000">+ add()</text>
<text text-anchor="start" x="8" y="-40.5" font-family="Helvetica,sans-Serif" font-size="10.00" fill="#000000">+ remove()</text>
<text text-anchor="start" x="8" y="-29.5" font-family="Helvetica,sans-Serif" font-size="10.00" fill="#000000"># addFile()</text>
<text text-anchor="start" x="8" y="-18.5" font-family="Helvetica,sans-Serif" font-size="10.00" fill="#000000"># addDirectoryContent()</text>
<text text-anchor="start" x="8" y="-7.5" font-family="Helvetica,sans-Serif" font-size="10.00" fill="#000000"># scan()</text>
</a>
</g>
</g>
<!-- Node2&#45;&gt;Node3 -->
<g id="edge3" class="edge">
<title>Node2&#45;&gt;Node3</title>
<path fill="none" stroke="#191970" d="M81.2545,-140.038C80.8522,-131.0858 80.4305,-121.7027 80.021,-112.5916"/>
<polygon fill="none" stroke="#191970" points="77.7705,-140.4743 81.716,-150.307 84.7634,-140.16 77.7705,-140.4743"/>
</g>
<!-- Node5 -->
<g id="node6" class="node">
<title>Node5</title>
<g id="a_node6"><a xlink:href="classene_1_1controllers_1_1PlayerController.html" target="_top" xlink:title="{ene.controllers.PlayerController\n||+ PlayerController()\l+ changeTrackPosition()\l+ load()\l+ togglePlayback()\l}">
<polygon fill="none" stroke="#000000" points="173,-11.5 173,-101.5 326,-101.5 326,-11.5 173,-11.5"/>
<text text-anchor="middle" x="249.5" y="-89.5" font-family="Helvetica,sans-Serif" font-size="10.00" fill="#000000">ene.controllers.PlayerController</text>
<polyline fill="none" stroke="#000000" points="173,-82.5 326,-82.5 "/>
<text text-anchor="middle" x="249.5" y="-70.5" font-family="Helvetica,sans-Serif" font-size="10.00" fill="#000000"> </text>
<polyline fill="none" stroke="#000000" points="173,-63.5 326,-63.5 "/>
<text text-anchor="start" x="181" y="-51.5" font-family="Helvetica,sans-Serif" font-size="10.00" fill="#000000">+ PlayerController()</text>
<text text-anchor="start" x="181" y="-40.5" font-family="Helvetica,sans-Serif" font-size="10.00" fill="#000000">+ changeTrackPosition()</text>
<text text-anchor="start" x="181" y="-29.5" font-family="Helvetica,sans-Serif" font-size="10.00" fill="#000000">+ load()</text>
<text text-anchor="start" x="181" y="-18.5" font-family="Helvetica,sans-Serif" font-size="10.00" fill="#000000">+ togglePlayback()</text>
</a>
</g>
</g>
<!-- Node4&#45;&gt;Node5 -->
<g id="edge5" class="edge">
<title>Node4&#45;&gt;Node5</title>
<path fill="none" stroke="#191970" d="M246.3712,-140.038C246.8398,-127.5271 247.3399,-114.1748 247.7997,-101.8993"/>
<polygon fill="none" stroke="#191970" points="242.8634,-140.183 245.9866,-150.307 249.8585,-140.4451 242.8634,-140.183"/>
</g>
</g>
</svg>
