<?xml version="1.0" encoding="UTF-8" standalone="no"?>
<!DOCTYPE svg PUBLIC "-//W3C//DTD SVG 1.1//EN"
 "http://www.w3.org/Graphics/SVG/1.1/DTD/svg11.dtd">
<!-- Generated by graphviz version 2.40.1 (20161225.0304)
 -->
<!-- Title: ene.interfaces.PartialView.update Pages: 1 -->
<svg width="773pt" height="301pt"
 viewBox="0.00 0.00 773.00 300.50" xmlns="http://www.w3.org/2000/svg" xmlns:xlink="http://www.w3.org/1999/xlink">
<g id="graph0" class="graph" transform="scale(1 1) rotate(0) translate(4 296.5)">
<title>ene.interfaces.PartialView.update</title>
<!-- Node5 -->
<g id="node1" class="node">
<title>Node5</title>
<polygon fill="#bfbfbf" stroke="#000000" points="0,-153 0,-172 163,-172 163,-153 0,-153"/>
<text text-anchor="middle" x="81.5" y="-160" font-family="Helvetica,sans-Serif" font-size="10.00" fill="#000000">ene.interfaces.PartialView.update</text>
</g>
<!-- Node6 -->
<g id="node2" class="node">
<title>Node6</title>
<g id="a_node2"><a xlink:href="classene_1_1models_1_1AbstractModel.html#a970306ac2228cbcb599f65476d8c80dd" target="_top" xlink:title="ene.models.AbstractModel.changed">
<polygon fill="none" stroke="#000000" points="199,-153 199,-172 372,-172 372,-153 199,-153"/>
<text text-anchor="middle" x="285.5" y="-160" font-family="Helvetica,sans-Serif" font-size="10.00" fill="#000000">ene.models.AbstractModel.changed</text>
</a>
</g>
</g>
<!-- Node5&#45;&gt;Node6 -->
<g id="edge1" class="edge">
<title>Node5&#45;&gt;Node6</title>
<path fill="none" stroke="#191970" d="M173.0068,-162.5C181.5779,-162.5 190.2489,-162.5 198.7742,-162.5"/>
<polygon fill="#191970" stroke="#191970" points="173.0057,-159.0001 163.0057,-162.5 173.0057,-166.0001 173.0057,-159.0001"/>
</g>
<!-- Node7 -->
<g id="node3" class="node">
<title>Node7</title>
<g id="a_node3"><a xlink:href="classene_1_1models_1_1PlayerModel.html#a108968d6fd2beb7e322bba50028d32b1" target="_top" xlink:title="ene.models.PlayerModel.update">
<polygon fill="none" stroke="#000000" points="416,-273 416,-292 572,-292 572,-273 416,-273"/>
<text text-anchor="middle" x="494" y="-280" font-family="Helvetica,sans-Serif" font-size="10.00" fill="#000000">ene.models.PlayerModel.update</text>
</a>
</g>
</g>
<!-- Node6&#45;&gt;Node7 -->
<g id="edge2" class="edge">
<title>Node6&#45;&gt;Node7</title>
<path fill="none" stroke="#191970" d="M301.0087,-179.5657C322.6814,-202.3235 364.3054,-242.2059 408,-263.5 415.9722,-267.3852 424.7465,-270.4852 433.5501,-272.9563"/>
<polygon fill="#191970" stroke="#191970" points="303.3446,-176.9391 293.9598,-172.0222 298.23,-181.7184 303.3446,-176.9391"/>
</g>
<!-- Node8 -->
<g id="node4" class="node">
<title>Node8</title>
<g id="a_node4"><a xlink:href="classene_1_1models_1_1TrackListModel.html#a57554d49b1182a9138b871617ce57e9a" target="_top" xlink:title="ene.models.TrackListModel.add">
<polygon fill="none" stroke="#000000" points="416.5,-235 416.5,-254 571.5,-254 571.5,-235 416.5,-235"/>
<text text-anchor="middle" x="494" y="-242" font-family="Helvetica,sans-Serif" font-size="10.00" fill="#000000">ene.models.TrackListModel.add</text>
</a>
</g>
</g>
<!-- Node6&#45;&gt;Node8 -->
<g id="edge3" class="edge">
<title>Node6&#45;&gt;Node8</title>
<path fill="none" stroke="#191970" d="M309.9741,-177.485C334.1128,-191.6785 372.4511,-212.6756 408,-225.5 418.3559,-229.236 429.6894,-232.3734 440.6314,-234.9534"/>
<polygon fill="#191970" stroke="#191970" points="311.5337,-174.3401 301.1517,-172.2274 307.9502,-180.3533 311.5337,-174.3401"/>
</g>
<!-- Node9 -->
<g id="node5" class="node">
<title>Node9</title>
<g id="a_node5"><a xlink:href="classene_1_1models_1_1TrackListModel.html#a51482a5f74dfadca48a06dd8888751cd" target="_top" xlink:title="ene.models.TrackListModel.remove">
<polygon fill="none" stroke="#000000" points="408,-197 408,-216 580,-216 580,-197 408,-197"/>
<text text-anchor="middle" x="494" y="-204" font-family="Helvetica,sans-Serif" font-size="10.00" fill="#000000">ene.models.TrackListModel.remove</text>
</a>
</g>
</g>
<!-- Node6&#45;&gt;Node9 -->
<g id="edge4" class="edge">
<title>Node6&#45;&gt;Node9</title>
<path fill="none" stroke="#191970" d="M340.9039,-174.192C374.6318,-181.3096 417.1733,-190.2872 448.8469,-196.9713"/>
<polygon fill="#191970" stroke="#191970" points="341.2486,-170.6877 330.7414,-172.0473 339.8032,-177.5368 341.2486,-170.6877"/>
</g>
<!-- Node10 -->
<g id="node6" class="node">
<title>Node10</title>
<g id="a_node6"><a xlink:href="classene_1_1models_1_1TrackModel.html#adcb5ee61c35e73b04879409a43c4b753" target="_top" xlink:title="ene.models.TrackModel.set\lFilename">
<polygon fill="none" stroke="#000000" points="425.5,-147.5 425.5,-177.5 562.5,-177.5 562.5,-147.5 425.5,-147.5"/>
<text text-anchor="start" x="433.5" y="-165.5" font-family="Helvetica,sans-Serif" font-size="10.00" fill="#000000">ene.models.TrackModel.set</text>
<text text-anchor="middle" x="494" y="-154.5" font-family="Helvetica,sans-Serif" font-size="10.00" fill="#000000">Filename</text>
</a>
</g>
</g>
<!-- Node6&#45;&gt;Node10 -->
<g id="edge5" class="edge">
<title>Node6&#45;&gt;Node10</title>
<path fill="none" stroke="#191970" d="M382.1784,-162.5C396.786,-162.5 411.593,-162.5 425.4439,-162.5"/>
<polygon fill="#191970" stroke="#191970" points="382.1115,-159.0001 372.1114,-162.5 382.1114,-166.0001 382.1115,-159.0001"/>
</g>
<!-- Node12 -->
<g id="node8" class="node">
<title>Node12</title>
<g id="a_node8"><a xlink:href="classene_1_1models_1_1TrackModel.html#a6e059ab76ba75be47de8d661e132f514" target="_top" xlink:title="ene.models.TrackModel.set\lArtist">
<polygon fill="none" stroke="#000000" points="425.5,-98.5 425.5,-128.5 562.5,-128.5 562.5,-98.5 425.5,-98.5"/>
<text text-anchor="start" x="433.5" y="-116.5" font-family="Helvetica,sans-Serif" font-size="10.00" fill="#000000">ene.models.TrackModel.set</text>
<text text-anchor="middle" x="494" y="-105.5" font-family="Helvetica,sans-Serif" font-size="10.00" fill="#000000">Artist</text>
</a>
</g>
</g>
<!-- Node6&#45;&gt;Node12 -->
<g id="edge7" class="edge">
<title>Node6&#45;&gt;Node12</title>
<path fill="none" stroke="#191970" d="M336.2497,-150.5732C364.4833,-143.938 399.8987,-135.6149 430.0162,-128.537"/>
<polygon fill="#191970" stroke="#191970" points="335.1299,-147.2409 326.1959,-152.936 336.7314,-154.0553 335.1299,-147.2409"/>
</g>
<!-- Node13 -->
<g id="node9" class="node">
<title>Node13</title>
<g id="a_node9"><a xlink:href="classene_1_1models_1_1TrackModel.html#a1e8a6872b5dcf826ba463a663a8249f1" target="_top" xlink:title="ene.models.TrackModel.set\lTitle">
<polygon fill="none" stroke="#000000" points="425.5,-49.5 425.5,-79.5 562.5,-79.5 562.5,-49.5 425.5,-49.5"/>
<text text-anchor="start" x="433.5" y="-67.5" font-family="Helvetica,sans-Serif" font-size="10.00" fill="#000000">ene.models.TrackModel.set</text>
<text text-anchor="middle" x="494" y="-56.5" font-family="Helvetica,sans-Serif" font-size="10.00" fill="#000000">Title</text>
</a>
</g>
</g>
<!-- Node6&#45;&gt;Node13 -->
<g id="edge9" class="edge">
<title>Node6&#45;&gt;Node13</title>
<path fill="none" stroke="#191970" d="M307.1463,-147.278C330.943,-131.1092 370.756,-105.6944 408,-89.5 416.4128,-85.842 425.5158,-82.5422 434.544,-79.6298"/>
<polygon fill="#191970" stroke="#191970" points="305.1057,-144.4336 298.849,-152.9837 309.072,-150.2015 305.1057,-144.4336"/>
</g>
<!-- Node14 -->
<g id="node10" class="node">
<title>Node14</title>
<g id="a_node10"><a xlink:href="classene_1_1models_1_1TrackModel.html#acfe29ae2331320c5c60824a1bb4e1ba7" target="_top" xlink:title="ene.models.TrackModel.set\lGenre">
<polygon fill="none" stroke="#000000" points="425.5,-.5 425.5,-30.5 562.5,-30.5 562.5,-.5 425.5,-.5"/>
<text text-anchor="start" x="433.5" y="-18.5" font-family="Helvetica,sans-Serif" font-size="10.00" fill="#000000">ene.models.TrackModel.set</text>
<text text-anchor="middle" x="494" y="-7.5" font-family="Helvetica,sans-Serif" font-size="10.00" fill="#000000">Genre</text>
</a>
</g>
</g>
<!-- Node6&#45;&gt;Node14 -->
<g id="edge11" class="edge">
<title>Node6&#45;&gt;Node14</title>
<path fill="none" stroke="#191970" d="M298.3681,-144.9382C318.7088,-118.4237 360.8544,-68.3218 408,-40.5 414.5615,-36.6279 421.7619,-33.3222 429.1162,-30.5079"/>
<polygon fill="#191970" stroke="#191970" points="295.5478,-142.8652 292.3301,-152.9596 301.1405,-147.075 295.5478,-142.8652"/>
</g>
<!-- Node11 -->
<g id="node7" class="node">
<title>Node11</title>
<g id="a_node7"><a xlink:href="classene_1_1models_1_1TrackModel.html#abcdd0235436de2871b905818aaff4873" target="_top" xlink:title="ene.models.TrackModel.Track\lModel">
<polygon fill="none" stroke="#000000" points="616,-73.5 616,-103.5 765,-103.5 765,-73.5 616,-73.5"/>
<text text-anchor="start" x="624" y="-91.5" font-family="Helvetica,sans-Serif" font-size="10.00" fill="#000000">ene.models.TrackModel.Track</text>
<text text-anchor="middle" x="690.5" y="-80.5" font-family="Helvetica,sans-Serif" font-size="10.00" fill="#000000">Model</text>
</a>
</g>
</g>
<!-- Node10&#45;&gt;Node11 -->
<g id="edge6" class="edge">
<title>Node10&#45;&gt;Node11</title>
<path fill="none" stroke="#191970" d="M562.6321,-144.3697C568.5429,-142.4997 574.4,-140.5349 580,-138.5 607.9046,-128.3604 638.5919,-114.2222 660.5313,-103.566"/>
<polygon fill="#191970" stroke="#191970" points="561.2054,-141.1462 552.6699,-147.4229 563.2565,-147.839 561.2054,-141.1462"/>
</g>
<!-- Node12&#45;&gt;Node11 -->
<g id="edge8" class="edge">
<title>Node12&#45;&gt;Node11</title>
<path fill="none" stroke="#191970" d="M572.9114,-103.4604C587.0586,-101.6605 601.7627,-99.7897 615.787,-98.0055"/>
<polygon fill="#191970" stroke="#191970" points="572.2044,-100.022 562.7262,-104.7562 573.088,-106.966 572.2044,-100.022"/>
</g>
<!-- Node13&#45;&gt;Node11 -->
<g id="edge10" class="edge">
<title>Node13&#45;&gt;Node11</title>
<path fill="none" stroke="#191970" d="M572.9114,-74.138C587.0586,-75.8659 601.7627,-77.6619 615.787,-79.3748"/>
<polygon fill="#191970" stroke="#191970" points="573.0768,-70.6323 562.7262,-72.894 572.228,-77.5807 573.0768,-70.6323"/>
</g>
<!-- Node14&#45;&gt;Node11 -->
<g id="edge12" class="edge">
<title>Node14&#45;&gt;Node11</title>
<path fill="none" stroke="#191970" d="M559.8531,-33.7097C566.6956,-35.8796 573.5146,-38.1594 580,-40.5 606.9531,-50.2273 636.7043,-63.2901 658.5396,-73.3327"/>
<polygon fill="#191970" stroke="#191970" points="560.4352,-30.2262 549.8475,-30.615 558.3667,-36.9137 560.4352,-30.2262"/>
</g>
</g>
</svg>
