<?xml version="1.0" encoding="UTF-8" standalone="no"?>
<!DOCTYPE svg PUBLIC "-//W3C//DTD SVG 1.1//EN"
 "http://www.w3.org/Graphics/SVG/1.1/DTD/svg11.dtd">
<!-- Generated by graphviz version 2.40.1 (20161225.0304)
 -->
<!-- Title: ene.interfaces.Localization.getString Pages: 1 -->
<svg width="714pt" height="362pt"
 viewBox="0.00 0.00 714.00 362.00" xmlns="http://www.w3.org/2000/svg" xmlns:xlink="http://www.w3.org/1999/xlink">
<g id="graph0" class="graph" transform="scale(1 1) rotate(0) translate(4 358)">
<title>ene.interfaces.Localization.getString</title>
<!-- Node1 -->
<g id="node1" class="node">
<title>Node1</title>
<polygon fill="#bfbfbf" stroke="#000000" points="0,-164.5 0,-194.5 149,-194.5 149,-164.5 0,-164.5"/>
<text text-anchor="start" x="8" y="-182.5" font-family="Helvetica,sans-Serif" font-size="10.00" fill="#000000">ene.interfaces.Localization.get</text>
<text text-anchor="middle" x="74.5" y="-171.5" font-family="Helvetica,sans-Serif" font-size="10.00" fill="#000000">String</text>
</g>
<!-- Node2 -->
<g id="node2" class="node">
<title>Node2</title>
<g id="a_node2"><a xlink:href="classene_1_1views_1_1gui_1_1partial_1_1LibraryView.html#a6411fbda85767fc960a3f57677e16f26" target="_top" xlink:title="ene.views.gui.partial.Library\lView.LibraryView">
<polygon fill="none" stroke="#000000" points="199.5,-323.5 199.5,-353.5 337.5,-353.5 337.5,-323.5 199.5,-323.5"/>
<text text-anchor="start" x="207.5" y="-341.5" font-family="Helvetica,sans-Serif" font-size="10.00" fill="#000000">ene.views.gui.partial.Library</text>
<text text-anchor="middle" x="268.5" y="-330.5" font-family="Helvetica,sans-Serif" font-size="10.00" fill="#000000">View.LibraryView</text>
</a>
</g>
</g>
<!-- Node1&#45;&gt;Node2 -->
<g id="edge1" class="edge">
<title>Node1&#45;&gt;Node2</title>
<path fill="none" stroke="#191970" d="M87.7016,-203.2579C105.7557,-233.5644 140.9866,-285.5143 185,-314.5 190.1648,-317.9014 195.817,-320.8288 201.6681,-323.3469"/>
<polygon fill="#191970" stroke="#191970" points="90.7154,-201.478 82.6594,-194.5967 84.6658,-204.9998 90.7154,-201.478"/>
</g>
<!-- Node3 -->
<g id="node3" class="node">
<title>Node3</title>
<g id="a_node3"><a xlink:href="classene_1_1views_1_1gui_1_1partial_1_1PlaylistView.html#aab891c82686652a49db41a3e1bc1f3b9" target="_top" xlink:title="ene.views.gui.partial.Playlist\lView.loadContent">
<polygon fill="none" stroke="#000000" points="198,-274.5 198,-304.5 339,-304.5 339,-274.5 198,-274.5"/>
<text text-anchor="start" x="206" y="-292.5" font-family="Helvetica,sans-Serif" font-size="10.00" fill="#000000">ene.views.gui.partial.Playlist</text>
<text text-anchor="middle" x="268.5" y="-281.5" font-family="Helvetica,sans-Serif" font-size="10.00" fill="#000000">View.loadContent</text>
</a>
</g>
</g>
<!-- Node1&#45;&gt;Node3 -->
<g id="edge2" class="edge">
<title>Node1&#45;&gt;Node3</title>
<path fill="none" stroke="#191970" d="M100.2193,-201.3523C121.7785,-218.8509 153.9375,-243.0996 185,-259.5 195.7612,-265.1817 207.8324,-270.2136 219.3803,-274.4557"/>
<polygon fill="#191970" stroke="#191970" points="102.1682,-198.4235 92.2215,-194.7748 97.7219,-203.83 102.1682,-198.4235"/>
</g>
<!-- Node5 -->
<g id="node5" class="node">
<title>Node5</title>
<g id="a_node5"><a xlink:href="classene_1_1views_1_1gui_1_1partial_1_1PlaylistView.html#a8d541ff3e91c1492b2e47cc7272ca56d" target="_top" xlink:title="ene.views.gui.partial.Playlist\lView.render">
<polygon fill="none" stroke="#000000" points="565,-252.5 565,-282.5 706,-282.5 706,-252.5 565,-252.5"/>
<text text-anchor="start" x="573" y="-270.5" font-family="Helvetica,sans-Serif" font-size="10.00" fill="#000000">ene.views.gui.partial.Playlist</text>
<text text-anchor="middle" x="635.5" y="-259.5" font-family="Helvetica,sans-Serif" font-size="10.00" fill="#000000">View.render</text>
</a>
</g>
</g>
<!-- Node1&#45;&gt;Node5 -->
<g id="edge7" class="edge">
<title>Node1&#45;&gt;Node5</title>
<path fill="none" stroke="#191970" d="M112.8296,-198.8198C133.6576,-208.4474 160.1677,-219.3252 185,-225.5 255.036,-242.915 456.629,-256.9683 564.8404,-263.5136"/>
<polygon fill="#191970" stroke="#191970" points="114.2236,-195.6075 103.6862,-194.5056 111.2365,-201.9382 114.2236,-195.6075"/>
</g>
<!-- Node6 -->
<g id="node6" class="node">
<title>Node6</title>
<g id="a_node6"><a xlink:href="classene_1_1views_1_1gui_1_1partial_1_1PlaylistView.html#acba54350f264fe81771e766ab3fbffde" target="_top" xlink:title="ene.views.gui.partial.Playlist\lView.PlaylistView">
<polygon fill="none" stroke="#000000" points="198,-186.5 198,-216.5 339,-216.5 339,-186.5 198,-186.5"/>
<text text-anchor="start" x="206" y="-204.5" font-family="Helvetica,sans-Serif" font-size="10.00" fill="#000000">ene.views.gui.partial.Playlist</text>
<text text-anchor="middle" x="268.5" y="-193.5" font-family="Helvetica,sans-Serif" font-size="10.00" fill="#000000">View.PlaylistView</text>
</a>
</g>
</g>
<!-- Node1&#45;&gt;Node6 -->
<g id="edge5" class="edge">
<title>Node1&#45;&gt;Node6</title>
<path fill="none" stroke="#191970" d="M159.4565,-189.1342C172.3091,-190.5918 185.4483,-192.0818 197.9524,-193.4998"/>
<polygon fill="#191970" stroke="#191970" points="159.5587,-185.6235 149.228,-187.9743 158.7699,-192.5789 159.5587,-185.6235"/>
</g>
<!-- Node7 -->
<g id="node7" class="node">
<title>Node7</title>
<g id="a_node7"><a xlink:href="classene_1_1views_1_1gui_1_1WindowView.html#a2ce6d135f47d21b01c91eeeac2e5c52a" target="_top" xlink:title="ene.views.gui.WindowView.render">
<polygon fill="none" stroke="#000000" points="185,-148 185,-167 352,-167 352,-148 185,-148"/>
<text text-anchor="middle" x="268.5" y="-155" font-family="Helvetica,sans-Serif" font-size="10.00" fill="#000000">ene.views.gui.WindowView.render</text>
</a>
</g>
</g>
<!-- Node1&#45;&gt;Node7 -->
<g id="edge6" class="edge">
<title>Node1&#45;&gt;Node7</title>
<path fill="none" stroke="#191970" d="M159.4132,-169.8707C167.8277,-168.9164 176.3654,-167.9483 184.7677,-166.9954"/>
<polygon fill="#191970" stroke="#191970" points="158.7699,-166.4211 149.228,-171.0257 159.5587,-173.3765 158.7699,-166.4211"/>
</g>
<!-- Node8 -->
<g id="node8" class="node">
<title>Node8</title>
<g id="a_node8"><a xlink:href="classene_1_1views_1_1gui_1_1partial_1_1LibraryView.html#a0bd6885fe06ebde4d3dffbcd888c0b41" target="_top" xlink:title="ene.views.gui.partial.Library\lView.render">
<polygon fill="none" stroke="#000000" points="199.5,-98.5 199.5,-128.5 337.5,-128.5 337.5,-98.5 199.5,-98.5"/>
<text text-anchor="start" x="207.5" y="-116.5" font-family="Helvetica,sans-Serif" font-size="10.00" fill="#000000">ene.views.gui.partial.Library</text>
<text text-anchor="middle" x="268.5" y="-105.5" font-family="Helvetica,sans-Serif" font-size="10.00" fill="#000000">View.render</text>
</a>
</g>
</g>
<!-- Node1&#45;&gt;Node8 -->
<g id="edge8" class="edge">
<title>Node1&#45;&gt;Node8</title>
<path fill="none" stroke="#191970" d="M122.6275,-160.876C141.9195,-153.6118 164.4174,-145.3918 185,-138.5 195.0445,-135.1367 205.8391,-131.7436 216.2225,-128.5883"/>
<polygon fill="#191970" stroke="#191970" points="121.2613,-157.6507 113.1486,-164.465 123.74,-164.1972 121.2613,-157.6507"/>
</g>
<!-- Node9 -->
<g id="node9" class="node">
<title>Node9</title>
<g id="a_node9"><a xlink:href="classene_1_1views_1_1gui_1_1partial_1_1PlayerView.html#a7e28fb299fee46d221d3224ffb87ea35" target="_top" xlink:title="ene.views.gui.partial.Player\lView.render">
<polygon fill="none" stroke="#000000" points="200,-49.5 200,-79.5 337,-79.5 337,-49.5 200,-49.5"/>
<text text-anchor="start" x="208" y="-67.5" font-family="Helvetica,sans-Serif" font-size="10.00" fill="#000000">ene.views.gui.partial.Player</text>
<text text-anchor="middle" x="268.5" y="-56.5" font-family="Helvetica,sans-Serif" font-size="10.00" fill="#000000">View.render</text>
</a>
</g>
</g>
<!-- Node1&#45;&gt;Node9 -->
<g id="edge9" class="edge">
<title>Node1&#45;&gt;Node9</title>
<path fill="none" stroke="#191970" d="M95.9035,-157.2519C116.841,-136.6837 150.5262,-106.6408 185,-88.5 191.4071,-85.1285 198.3471,-82.1775 205.3949,-79.6079"/>
<polygon fill="#191970" stroke="#191970" points="93.3884,-154.8172 88.7886,-164.3614 98.3363,-159.7688 93.3884,-154.8172"/>
</g>
<!-- Node10 -->
<g id="node10" class="node">
<title>Node10</title>
<g id="a_node10"><a xlink:href="classene_1_1views_1_1gui_1_1partial_1_1PlayerView.html#a15d3f24a6e52ff6dedb86bb793bb8fa9" target="_top" xlink:title="ene.views.gui.partial.Player\lView.update">
<polygon fill="none" stroke="#000000" points="200,-.5 200,-30.5 337,-30.5 337,-.5 200,-.5"/>
<text text-anchor="start" x="208" y="-18.5" font-family="Helvetica,sans-Serif" font-size="10.00" fill="#000000">ene.views.gui.partial.Player</text>
<text text-anchor="middle" x="268.5" y="-7.5" font-family="Helvetica,sans-Serif" font-size="10.00" fill="#000000">View.update</text>
</a>
</g>
</g>
<!-- Node1&#45;&gt;Node10 -->
<g id="edge10" class="edge">
<title>Node1&#45;&gt;Node10</title>
<path fill="none" stroke="#191970" d="M87.2036,-155.343C104.9314,-123.9774 140.0353,-69.688 185,-39.5 190.1344,-36.0529 195.766,-33.0944 201.6038,-30.5563"/>
<polygon fill="#191970" stroke="#191970" points="84.0341,-153.8425 82.268,-164.2891 90.1632,-157.224 84.0341,-153.8425"/>
</g>
<!-- Node4 -->
<g id="node4" class="node">
<title>Node4</title>
<g id="a_node4"><a xlink:href="classene_1_1views_1_1gui_1_1partial_1_1PlaylistView.html#ad2b87823589c6e8895d2d7b98438a2dc" target="_top" xlink:title="ene.views.gui.partial.Playlist\lView.update">
<polygon fill="none" stroke="#000000" points="388,-274.5 388,-304.5 529,-304.5 529,-274.5 388,-274.5"/>
<text text-anchor="start" x="396" y="-292.5" font-family="Helvetica,sans-Serif" font-size="10.00" fill="#000000">ene.views.gui.partial.Playlist</text>
<text text-anchor="middle" x="458.5" y="-281.5" font-family="Helvetica,sans-Serif" font-size="10.00" fill="#000000">View.update</text>
</a>
</g>
</g>
<!-- Node3&#45;&gt;Node4 -->
<g id="edge3" class="edge">
<title>Node3&#45;&gt;Node4</title>
<path fill="none" stroke="#191970" d="M349.3743,-289.5C362.115,-289.5 375.2023,-289.5 387.6919,-289.5"/>
<polygon fill="#191970" stroke="#191970" points="349.249,-286.0001 339.249,-289.5 349.249,-293.0001 349.249,-286.0001"/>
</g>
<!-- Node4&#45;&gt;Node5 -->
<g id="edge4" class="edge">
<title>Node4&#45;&gt;Node5</title>
<path fill="none" stroke="#191970" d="M539.2142,-279.4677C547.7843,-278.4025 556.4526,-277.3251 564.8942,-276.2759"/>
<polygon fill="#191970" stroke="#191970" points="538.7101,-276.0034 529.2182,-280.7102 539.5735,-282.9499 538.7101,-276.0034"/>
</g>
</g>
</svg>
