<?xml version="1.0" encoding="UTF-8" standalone="no"?>
<!DOCTYPE svg PUBLIC "-//W3C//DTD SVG 1.1//EN"
 "http://www.w3.org/Graphics/SVG/1.1/DTD/svg11.dtd">
<!-- Generated by graphviz version 2.40.1 (20161225.0304)
 -->
<!-- Title: ene.interfaces.Localization Pages: 1 -->
<svg width="175pt" height="171pt"
 viewBox="0.00 0.00 174.50 171.00" xmlns="http://www.w3.org/2000/svg" xmlns:xlink="http://www.w3.org/1999/xlink">
<g id="graph0" class="graph" transform="scale(1 1) rotate(0) translate(4 167)">
<title>ene.interfaces.Localization</title>
<!-- Node13 -->
<g id="node1" class="node">
<title>Node13</title>
<polygon fill="#bfbfbf" stroke="#000000" points="0,-.5 0,-57.5 133,-57.5 133,-.5 0,-.5"/>
<text text-anchor="middle" x="66.5" y="-45.5" font-family="Helvetica,sans-Serif" font-size="10.00" fill="#000000">ene.interfaces.Localization</text>
<polyline fill="none" stroke="#000000" points="0,-38.5 133,-38.5 "/>
<text text-anchor="middle" x="66.5" y="-26.5" font-family="Helvetica,sans-Serif" font-size="10.00" fill="#000000"> </text>
<polyline fill="none" stroke="#000000" points="0,-19.5 133,-19.5 "/>
<text text-anchor="start" x="8" y="-7.5" font-family="Helvetica,sans-Serif" font-size="10.00" fill="#000000">+ getString()</text>
</g>
<!-- Node14 -->
<g id="node2" class="node">
<title>Node14</title>
<polygon fill="none" stroke="#bfbfbf" points="21.5,-105.5 21.5,-162.5 111.5,-162.5 111.5,-105.5 21.5,-105.5"/>
<text text-anchor="middle" x="66.5" y="-150.5" font-family="Helvetica,sans-Serif" font-size="10.00" fill="#000000">static final String</text>
<polyline fill="none" stroke="#bfbfbf" points="21.5,-143.5 111.5,-143.5 "/>
<text text-anchor="middle" x="66.5" y="-131.5" font-family="Helvetica,sans-Serif" font-size="10.00" fill="#000000"> </text>
<polyline fill="none" stroke="#bfbfbf" points="21.5,-124.5 111.5,-124.5 "/>
<text text-anchor="middle" x="66.5" y="-112.5" font-family="Helvetica,sans-Serif" font-size="10.00" fill="#000000"> </text>
</g>
<!-- Node14&#45;&gt;Node13 -->
<g id="edge1" class="edge">
<title>Node14&#45;&gt;Node13</title>
<path fill="none" stroke="#404040" d="M66.5,-105.3083C66.5,-94.4281 66.5,-81.817 66.5,-70.0192"/>
<polygon fill="none" stroke="#404040" points="66.5001,-69.657 62.5,-63.6571 66.5,-57.657 70.5,-63.657 66.5001,-69.657"/>
<text text-anchor="middle" x="116.5" y="-79" font-family="Helvetica,sans-Serif" font-size="10.00" fill="#000000"> +DEFAULT_LOCALE</text>
</g>
</g>
</svg>
