<?xml version="1.0" encoding="UTF-8" standalone="no"?>
<!DOCTYPE svg PUBLIC "-//W3C//DTD SVG 1.1//EN"
 "http://www.w3.org/Graphics/SVG/1.1/DTD/svg11.dtd">
<!-- Generated by graphviz version 2.40.1 (20161225.0304)
 -->
<!-- Title: ene.interfaces.DatabaseConnection.query Pages: 1 -->
<svg width="614pt" height="39pt"
 viewBox="0.00 0.00 614.00 39.00" xmlns="http://www.w3.org/2000/svg" xmlns:xlink="http://www.w3.org/1999/xlink">
<g id="graph0" class="graph" transform="scale(1 1) rotate(0) translate(4 35)">
<title>ene.interfaces.DatabaseConnection.query</title>
<!-- Node8 -->
<g id="node1" class="node">
<title>Node8</title>
<polygon fill="#bfbfbf" stroke="#000000" points="0,-6 0,-25 200,-25 200,-6 0,-6"/>
<text text-anchor="middle" x="100" y="-13" font-family="Helvetica,sans-Serif" font-size="10.00" fill="#000000">ene.interfaces.DatabaseConnection.query</text>
</g>
<!-- Node9 -->
<g id="node2" class="node">
<title>Node9</title>
<g id="a_node2"><a xlink:href="classene_1_1controllers_1_1LibraryController.html#a109265deb8d32fc7def5c8010efc5af1" target="_top" xlink:title="ene.controllers.LibraryController.load\lFromFile">
<polygon fill="none" stroke="#000000" points="236,-.5 236,-30.5 412,-30.5 412,-.5 236,-.5"/>
<text text-anchor="start" x="244" y="-18.5" font-family="Helvetica,sans-Serif" font-size="10.00" fill="#000000">ene.controllers.LibraryController.load</text>
<text text-anchor="middle" x="324" y="-7.5" font-family="Helvetica,sans-Serif" font-size="10.00" fill="#000000">FromFile</text>
</a>
</g>
</g>
<!-- Node8&#45;&gt;Node9 -->
<g id="edge1" class="edge">
<title>Node8&#45;&gt;Node9</title>
<path fill="none" stroke="#191970" d="M210.2625,-15.5C218.8439,-15.5 227.439,-15.5 235.8461,-15.5"/>
<polygon fill="#191970" stroke="#191970" points="210.207,-12.0001 200.207,-15.5 210.2069,-19.0001 210.207,-12.0001"/>
</g>
<!-- Node10 -->
<g id="node3" class="node">
<title>Node10</title>
<g id="a_node3"><a xlink:href="classene_1_1controllers_1_1LibraryController.html#ad559d243af3d62fc4eaf313e88315217" target="_top" xlink:title="ene.controllers.LibraryController.\lLibraryController">
<polygon fill="none" stroke="#000000" points="448,-.5 448,-30.5 606,-30.5 606,-.5 448,-.5"/>
<text text-anchor="start" x="456" y="-18.5" font-family="Helvetica,sans-Serif" font-size="10.00" fill="#000000">ene.controllers.LibraryController.</text>
<text text-anchor="middle" x="527" y="-7.5" font-family="Helvetica,sans-Serif" font-size="10.00" fill="#000000">LibraryController</text>
</a>
</g>
</g>
<!-- Node9&#45;&gt;Node10 -->
<g id="edge2" class="edge">
<title>Node9&#45;&gt;Node10</title>
<path fill="none" stroke="#191970" d="M422.2184,-15.5C430.8174,-15.5 439.4479,-15.5 447.8626,-15.5"/>
<polygon fill="#191970" stroke="#191970" points="422.1531,-12.0001 412.1531,-15.5 422.1531,-19.0001 422.1531,-12.0001"/>
</g>
</g>
</svg>
