<?xml version="1.0" encoding="UTF-8" standalone="no"?>
<!DOCTYPE svg PUBLIC "-//W3C//DTD SVG 1.1//EN"
 "http://www.w3.org/Graphics/SVG/1.1/DTD/svg11.dtd">
<!-- Generated by graphviz version 2.40.1 (20161225.0304)
 -->
<!-- Title: ene.interfaces.Controller&lt; ModelType &gt; Pages: 1 -->
<svg width="334pt" height="570pt"
 viewBox="0.00 0.00 334.00 570.00" xmlns="http://www.w3.org/2000/svg" xmlns:xlink="http://www.w3.org/1999/xlink">
<g id="graph0" class="graph" transform="scale(1 1) rotate(0) translate(4 566)">
<title>ene.interfaces.Controller&lt; ModelType &gt;</title>
<!-- Node0 -->
<g id="node1" class="node">
<title>Node0</title>
<polygon fill="#bfbfbf" stroke="#000000" points="97,-482.5 97,-561.5 220,-561.5 220,-482.5 97,-482.5"/>
<text text-anchor="start" x="105" y="-549.5" font-family="Helvetica,sans-Serif" font-size="10.00" fill="#000000">ene.interfaces.Controller</text>
<text text-anchor="middle" x="158.5" y="-538.5" font-family="Helvetica,sans-Serif" font-size="10.00" fill="#000000">&lt; ModelType &gt;</text>
<polyline fill="none" stroke="#000000" points="97,-531.5 220,-531.5 "/>
<text text-anchor="middle" x="158.5" y="-519.5" font-family="Helvetica,sans-Serif" font-size="10.00" fill="#000000"> </text>
<polyline fill="none" stroke="#000000" points="97,-512.5 220,-512.5 "/>
<text text-anchor="start" x="105" y="-500.5" font-family="Helvetica,sans-Serif" font-size="10.00" fill="#000000">+ setModel()</text>
<text text-anchor="start" x="105" y="-489.5" font-family="Helvetica,sans-Serif" font-size="10.00" fill="#000000">+ getModel()</text>
</g>
<!-- Node1 -->
<g id="node2" class="node">
<title>Node1</title>
<g id="a_node2"><a xlink:href="classene_1_1controllers_1_1AbstractController.html" target="_top" xlink:title="{ene::controllers::Abstract\lController\&lt; ModelType \&gt;\n|# model\l|+ setModel()\l+ getModel()\l}">
<polygon fill="none" stroke="#000000" points="95.5,-365.5 95.5,-444.5 221.5,-444.5 221.5,-365.5 95.5,-365.5"/>
<text text-anchor="start" x="103.5" y="-432.5" font-family="Helvetica,sans-Serif" font-size="10.00" fill="#000000">ene::controllers::Abstract</text>
<text text-anchor="middle" x="158.5" y="-421.5" font-family="Helvetica,sans-Serif" font-size="10.00" fill="#000000">Controller&lt; ModelType &gt;</text>
<polyline fill="none" stroke="#000000" points="95.5,-414.5 221.5,-414.5 "/>
<text text-anchor="start" x="103.5" y="-402.5" font-family="Helvetica,sans-Serif" font-size="10.00" fill="#000000"># model</text>
<polyline fill="none" stroke="#000000" points="95.5,-395.5 221.5,-395.5 "/>
<text text-anchor="start" x="103.5" y="-383.5" font-family="Helvetica,sans-Serif" font-size="10.00" fill="#000000">+ setModel()</text>
<text text-anchor="start" x="103.5" y="-372.5" font-family="Helvetica,sans-Serif" font-size="10.00" fill="#000000">+ getModel()</text>
</a>
</g>
</g>
<!-- Node0&#45;&gt;Node1 -->
<g id="edge1" class="edge">
<title>Node0&#45;&gt;Node1</title>
<path fill="none" stroke="#191970" d="M158.5,-472.1578C158.5,-462.9409 158.5,-453.4308 158.5,-444.5701"/>
<polygon fill="none" stroke="#191970" points="155.0001,-472.3891 158.5,-482.3891 162.0001,-472.3892 155.0001,-472.3891"/>
</g>
<!-- Node2 -->
<g id="node3" class="node">
<title>Node2</title>
<g id="a_node3"><a xlink:href="classene_1_1controllers_1_1AbstractController.html" target="_top" xlink:title="{ene.controllers.Abstract\lController\&lt; LibraryModel \&gt;\n|# model\l|+ setModel()\l+ getModel()\l}">
<polygon fill="none" stroke="#000000" points="17.5,-238.5 17.5,-317.5 149.5,-317.5 149.5,-238.5 17.5,-238.5"/>
<text text-anchor="start" x="25.5" y="-305.5" font-family="Helvetica,sans-Serif" font-size="10.00" fill="#000000">ene.controllers.Abstract</text>
<text text-anchor="middle" x="83.5" y="-294.5" font-family="Helvetica,sans-Serif" font-size="10.00" fill="#000000">Controller&lt; LibraryModel &gt;</text>
<polyline fill="none" stroke="#000000" points="17.5,-287.5 149.5,-287.5 "/>
<text text-anchor="start" x="25.5" y="-275.5" font-family="Helvetica,sans-Serif" font-size="10.00" fill="#000000"># model</text>
<polyline fill="none" stroke="#000000" points="17.5,-268.5 149.5,-268.5 "/>
<text text-anchor="start" x="25.5" y="-256.5" font-family="Helvetica,sans-Serif" font-size="10.00" fill="#000000">+ setModel()</text>
<text text-anchor="start" x="25.5" y="-245.5" font-family="Helvetica,sans-Serif" font-size="10.00" fill="#000000">+ getModel()</text>
</a>
</g>
</g>
<!-- Node1&#45;&gt;Node2 -->
<g id="edge2" class="edge">
<title>Node1&#45;&gt;Node2</title>
<path fill="none" stroke="#ffa500" d="M127.3391,-356.6649C125.3404,-353.408 123.3783,-350.1648 121.5,-347 115.9162,-337.5917 110.1114,-327.3253 104.7689,-317.6559"/>
<polygon fill="#ffa500" stroke="#ffa500" points="124.4349,-358.6227 132.6822,-365.2735 130.3824,-354.9313 124.4349,-358.6227"/>
<text text-anchor="middle" x="160" y="-339" font-family="Helvetica,sans-Serif" font-size="10.00" fill="#000000"> &lt; LibraryModel &gt;</text>
</g>
<!-- Node4 -->
<g id="node5" class="node">
<title>Node4</title>
<g id="a_node5"><a xlink:href="classene_1_1controllers_1_1AbstractController.html" target="_top" xlink:title="{ene.controllers.Abstract\lController\&lt; PlayerModel \&gt;\n|# model\l|+ setModel()\l+ getModel()\l}">
<polygon fill="none" stroke="#000000" points="179,-238.5 179,-317.5 310,-317.5 310,-238.5 179,-238.5"/>
<text text-anchor="start" x="187" y="-305.5" font-family="Helvetica,sans-Serif" font-size="10.00" fill="#000000">ene.controllers.Abstract</text>
<text text-anchor="middle" x="244.5" y="-294.5" font-family="Helvetica,sans-Serif" font-size="10.00" fill="#000000">Controller&lt; PlayerModel &gt;</text>
<polyline fill="none" stroke="#000000" points="179,-287.5 310,-287.5 "/>
<text text-anchor="start" x="187" y="-275.5" font-family="Helvetica,sans-Serif" font-size="10.00" fill="#000000"># model</text>
<polyline fill="none" stroke="#000000" points="179,-268.5 310,-268.5 "/>
<text text-anchor="start" x="187" y="-256.5" font-family="Helvetica,sans-Serif" font-size="10.00" fill="#000000">+ setModel()</text>
<text text-anchor="start" x="187" y="-245.5" font-family="Helvetica,sans-Serif" font-size="10.00" fill="#000000">+ getModel()</text>
</a>
</g>
</g>
<!-- Node1&#45;&gt;Node4 -->
<g id="edge4" class="edge">
<title>Node1&#45;&gt;Node4</title>
<path fill="none" stroke="#ffa500" d="M191.6784,-357.0168C193.9929,-353.631 196.285,-350.2665 198.5,-347 204.8833,-337.5864 211.7075,-327.4119 218.0926,-317.8426"/>
<polygon fill="#ffa500" stroke="#ffa500" points="188.6762,-355.2061 185.9099,-365.4335 194.4503,-359.1635 188.6762,-355.2061"/>
<text text-anchor="middle" x="243.5" y="-339" font-family="Helvetica,sans-Serif" font-size="10.00" fill="#000000"> &lt; PlayerModel &gt;</text>
</g>
<!-- Node3 -->
<g id="node4" class="node">
<title>Node3</title>
<g id="a_node4"><a xlink:href="classene_1_1controllers_1_1LibraryController.html" target="_top" xlink:title="{ene.controllers.LibraryController\n|# databaseFilename\l# DATABASE_TIMEOUT\l# DATABASE_TABLE\l|+ LibraryController()\l+ LibraryController()\l+ loadFromFile()\l+ saveToFile()\l+ add()\l+ remove()\l+ edit()\l# setDatabaseFilename()\l# getDatabaseFilename()\l# addFile()\l# addDirectoryContent()\l# scan()\l}">
<polygon fill="none" stroke="#000000" points="0,-.5 0,-200.5 155,-200.5 155,-.5 0,-.5"/>
<text text-anchor="middle" x="77.5" y="-188.5" font-family="Helvetica,sans-Serif" font-size="10.00" fill="#000000">ene.controllers.LibraryController</text>
<polyline fill="none" stroke="#000000" points="0,-181.5 155,-181.5 "/>
<text text-anchor="start" x="8" y="-169.5" font-family="Helvetica,sans-Serif" font-size="10.00" fill="#000000"># databaseFilename</text>
<text text-anchor="start" x="8" y="-158.5" font-family="Helvetica,sans-Serif" font-size="10.00" fill="#000000"># DATABASE_TIMEOUT</text>
<text text-anchor="start" x="8" y="-147.5" font-family="Helvetica,sans-Serif" font-size="10.00" fill="#000000"># DATABASE_TABLE</text>
<polyline fill="none" stroke="#000000" points="0,-140.5 155,-140.5 "/>
<text text-anchor="start" x="8" y="-128.5" font-family="Helvetica,sans-Serif" font-size="10.00" fill="#000000">+ LibraryController()</text>
<text text-anchor="start" x="8" y="-117.5" font-family="Helvetica,sans-Serif" font-size="10.00" fill="#000000">+ LibraryController()</text>
<text text-anchor="start" x="8" y="-106.5" font-family="Helvetica,sans-Serif" font-size="10.00" fill="#000000">+ loadFromFile()</text>
<text text-anchor="start" x="8" y="-95.5" font-family="Helvetica,sans-Serif" font-size="10.00" fill="#000000">+ saveToFile()</text>
<text text-anchor="start" x="8" y="-84.5" font-family="Helvetica,sans-Serif" font-size="10.00" fill="#000000">+ add()</text>
<text text-anchor="start" x="8" y="-73.5" font-family="Helvetica,sans-Serif" font-size="10.00" fill="#000000">+ remove()</text>
<text text-anchor="start" x="8" y="-62.5" font-family="Helvetica,sans-Serif" font-size="10.00" fill="#000000">+ edit()</text>
<text text-anchor="start" x="8" y="-51.5" font-family="Helvetica,sans-Serif" font-size="10.00" fill="#000000"># setDatabaseFilename()</text>
<text text-anchor="start" x="8" y="-40.5" font-family="Helvetica,sans-Serif" font-size="10.00" fill="#000000"># getDatabaseFilename()</text>
<text text-anchor="start" x="8" y="-29.5" font-family="Helvetica,sans-Serif" font-size="10.00" fill="#000000"># addFile()</text>
<text text-anchor="start" x="8" y="-18.5" font-family="Helvetica,sans-Serif" font-size="10.00" fill="#000000"># addDirectoryContent()</text>
<text text-anchor="start" x="8" y="-7.5" font-family="Helvetica,sans-Serif" font-size="10.00" fill="#000000"># scan()</text>
</a>
</g>
</g>
<!-- Node2&#45;&gt;Node3 -->
<g id="edge3" class="edge">
<title>Node2&#45;&gt;Node3</title>
<path fill="none" stroke="#191970" d="M81.8087,-227.9671C81.517,-219.3352 81.2046,-210.0956 80.8864,-200.6814"/>
<polygon fill="none" stroke="#191970" points="78.3176,-228.2895 82.1535,-238.1655 85.3136,-228.053 78.3176,-228.2895"/>
</g>
<!-- Node5 -->
<g id="node6" class="node">
<title>Node5</title>
<g id="a_node6"><a xlink:href="classene_1_1controllers_1_1PlayerController.html" target="_top" xlink:title="{ene.controllers.PlayerController\n||+ PlayerController()\l+ changeTrackPosition()\l+ load()\l+ togglePlayback()\l}">
<polygon fill="none" stroke="#000000" points="173,-55.5 173,-145.5 326,-145.5 326,-55.5 173,-55.5"/>
<text text-anchor="middle" x="249.5" y="-133.5" font-family="Helvetica,sans-Serif" font-size="10.00" fill="#000000">ene.controllers.PlayerController</text>
<polyline fill="none" stroke="#000000" points="173,-126.5 326,-126.5 "/>
<text text-anchor="middle" x="249.5" y="-114.5" font-family="Helvetica,sans-Serif" font-size="10.00" fill="#000000"> </text>
<polyline fill="none" stroke="#000000" points="173,-107.5 326,-107.5 "/>
<text text-anchor="start" x="181" y="-95.5" font-family="Helvetica,sans-Serif" font-size="10.00" fill="#000000">+ PlayerController()</text>
<text text-anchor="start" x="181" y="-84.5" font-family="Helvetica,sans-Serif" font-size="10.00" fill="#000000">+ changeTrackPosition()</text>
<text text-anchor="start" x="181" y="-73.5" font-family="Helvetica,sans-Serif" font-size="10.00" fill="#000000">+ load()</text>
<text text-anchor="start" x="181" y="-62.5" font-family="Helvetica,sans-Serif" font-size="10.00" fill="#000000">+ togglePlayback()</text>
</a>
</g>
</g>
<!-- Node4&#45;&gt;Node5 -->
<g id="edge5" class="edge">
<title>Node4&#45;&gt;Node5</title>
<path fill="none" stroke="#191970" d="M245.9042,-228.1516C246.6352,-202.2018 247.522,-170.7201 248.232,-145.5139"/>
<polygon fill="none" stroke="#191970" points="242.4052,-228.0709 245.6221,-238.1655 249.4024,-228.2681 242.4052,-228.0709"/>
</g>
</g>
</svg>
