<?xml version="1.0" encoding="UTF-8" standalone="no"?>
<!DOCTYPE svg PUBLIC "-//W3C//DTD SVG 1.1//EN"
 "http://www.w3.org/Graphics/SVG/1.1/DTD/svg11.dtd">
<!-- Generated by graphviz version 2.40.1 (20161225.0304)
 -->
<!-- Title: ene.interfaces.PartialView.update Pages: 1 -->
<svg width="992pt" height="427pt"
 viewBox="0.00 0.00 992.00 426.50" xmlns="http://www.w3.org/2000/svg" xmlns:xlink="http://www.w3.org/1999/xlink">
<g id="graph0" class="graph" transform="scale(1 1) rotate(0) translate(4 422.5)">
<title>ene.interfaces.PartialView.update</title>
<!-- Node5 -->
<g id="node1" class="node">
<title>Node5</title>
<polygon fill="#bfbfbf" stroke="#000000" points="0,-216 0,-235 163,-235 163,-216 0,-216"/>
<text text-anchor="middle" x="81.5" y="-223" font-family="Helvetica,sans-Serif" font-size="10.00" fill="#000000">ene.interfaces.PartialView.update</text>
</g>
<!-- Node6 -->
<g id="node2" class="node">
<title>Node6</title>
<g id="a_node2"><a xlink:href="classene_1_1models_1_1AbstractModel.html#a970306ac2228cbcb599f65476d8c80dd" target="_top" xlink:title="ene.models.AbstractModel.changed">
<polygon fill="none" stroke="#000000" points="199,-216 199,-235 372,-235 372,-216 199,-216"/>
<text text-anchor="middle" x="285.5" y="-223" font-family="Helvetica,sans-Serif" font-size="10.00" fill="#000000">ene.models.AbstractModel.changed</text>
</a>
</g>
</g>
<!-- Node5&#45;&gt;Node6 -->
<g id="edge1" class="edge">
<title>Node5&#45;&gt;Node6</title>
<path fill="none" stroke="#191970" d="M173.0068,-225.5C181.5779,-225.5 190.2489,-225.5 198.7742,-225.5"/>
<polygon fill="#191970" stroke="#191970" points="173.0057,-222.0001 163.0057,-225.5 173.0057,-229.0001 173.0057,-222.0001"/>
</g>
<!-- Node7 -->
<g id="node3" class="node">
<title>Node7</title>
<g id="a_node3"><a xlink:href="classene_1_1models_1_1PlayerModel.html#a108968d6fd2beb7e322bba50028d32b1" target="_top" xlink:title="ene.models.PlayerModel.update">
<polygon fill="none" stroke="#000000" points="416,-399 416,-418 572,-418 572,-399 416,-399"/>
<text text-anchor="middle" x="494" y="-406" font-family="Helvetica,sans-Serif" font-size="10.00" fill="#000000">ene.models.PlayerModel.update</text>
</a>
</g>
</g>
<!-- Node6&#45;&gt;Node7 -->
<g id="edge2" class="edge">
<title>Node6&#45;&gt;Node7</title>
<path fill="none" stroke="#191970" d="M294.6962,-244.2101C312.0818,-277.6014 353.014,-347.4249 408,-384.5 417.3823,-390.8261 428.4067,-395.4959 439.3739,-398.9396"/>
<polygon fill="#191970" stroke="#191970" points="297.7154,-242.4254 290.0672,-235.0936 291.4739,-245.5946 297.7154,-242.4254"/>
</g>
<!-- Node8 -->
<g id="node4" class="node">
<title>Node8</title>
<g id="a_node4"><a xlink:href="classene_1_1models_1_1PlaylistModel.html#a7150506b3801f97a2e38955a585bbd07" target="_top" xlink:title="ene.models.PlaylistModel.set\lCurrentTrack">
<polygon fill="none" stroke="#000000" points="421.5,-311.5 421.5,-341.5 566.5,-341.5 566.5,-311.5 421.5,-311.5"/>
<text text-anchor="start" x="429.5" y="-329.5" font-family="Helvetica,sans-Serif" font-size="10.00" fill="#000000">ene.models.PlaylistModel.set</text>
<text text-anchor="middle" x="494" y="-318.5" font-family="Helvetica,sans-Serif" font-size="10.00" fill="#000000">CurrentTrack</text>
</a>
</g>
</g>
<!-- Node6&#45;&gt;Node8 -->
<g id="edge3" class="edge">
<title>Node6&#45;&gt;Node8</title>
<path fill="none" stroke="#191970" d="M308.5579,-240.6432C332.6689,-256.0476 371.9489,-279.9462 408,-296.5 419.9274,-301.9768 433.1608,-307.0557 445.5995,-311.4191"/>
<polygon fill="#191970" stroke="#191970" points="310.3993,-237.666 300.0982,-235.1882 306.6058,-243.549 310.3993,-237.666"/>
</g>
<!-- Node9 -->
<g id="node5" class="node">
<title>Node9</title>
<g id="a_node5"><a xlink:href="classene_1_1models_1_1PlaylistModel.html#ab30573de71b566da79145210f94be294" target="_top" xlink:title="ene.models.PlaylistModel.previous\lTrack">
<polygon fill="none" stroke="#000000" points="616,-360.5 616,-390.5 784,-390.5 784,-360.5 616,-360.5"/>
<text text-anchor="start" x="624" y="-378.5" font-family="Helvetica,sans-Serif" font-size="10.00" fill="#000000">ene.models.PlaylistModel.previous</text>
<text text-anchor="middle" x="700" y="-367.5" font-family="Helvetica,sans-Serif" font-size="10.00" fill="#000000">Track</text>
</a>
</g>
</g>
<!-- Node6&#45;&gt;Node9 -->
<g id="edge9" class="edge">
<title>Node6&#45;&gt;Node9</title>
<path fill="none" stroke="#191970" d="M297.0149,-244.0265C316.0767,-272.8303 357.1781,-327.5278 408,-351.5 472.9812,-382.151 555.1502,-386.2846 615.7572,-383.8319"/>
<polygon fill="#191970" stroke="#191970" points="299.7717,-241.8431 291.4132,-235.3328 293.8874,-245.6346 299.7717,-241.8431"/>
</g>
<!-- Node11 -->
<g id="node7" class="node">
<title>Node11</title>
<g id="a_node7"><a xlink:href="classene_1_1models_1_1PlaylistModel.html#afba0932567d4d21976e3c37c8d80b634" target="_top" xlink:title="ene.models.PlaylistModel.next\lTrack">
<polygon fill="none" stroke="#000000" points="625,-262.5 625,-292.5 775,-292.5 775,-262.5 625,-262.5"/>
<text text-anchor="start" x="633" y="-280.5" font-family="Helvetica,sans-Serif" font-size="10.00" fill="#000000">ene.models.PlaylistModel.next</text>
<text text-anchor="middle" x="700" y="-269.5" font-family="Helvetica,sans-Serif" font-size="10.00" fill="#000000">Track</text>
</a>
</g>
</g>
<!-- Node6&#45;&gt;Node11 -->
<g id="edge10" class="edge">
<title>Node6&#45;&gt;Node11</title>
<path fill="none" stroke="#191970" d="M319.3832,-238.5525C343.663,-247.2739 377.3543,-258.1021 408,-263.5 480.8506,-276.3318 565.3981,-279.0904 624.7096,-279.0865"/>
<polygon fill="#191970" stroke="#191970" points="320.5099,-235.2379 309.9161,-235.0874 318.1038,-241.8114 320.5099,-235.2379"/>
</g>
<!-- Node14 -->
<g id="node10" class="node">
<title>Node14</title>
<g id="a_node10"><a xlink:href="classene_1_1models_1_1TrackListModel.html#a57554d49b1182a9138b871617ce57e9a" target="_top" xlink:title="ene.models.TrackListModel.add">
<polygon fill="none" stroke="#000000" points="416.5,-235 416.5,-254 571.5,-254 571.5,-235 416.5,-235"/>
<text text-anchor="middle" x="494" y="-242" font-family="Helvetica,sans-Serif" font-size="10.00" fill="#000000">ene.models.TrackListModel.add</text>
</a>
</g>
</g>
<!-- Node6&#45;&gt;Node14 -->
<g id="edge11" class="edge">
<title>Node6&#45;&gt;Node14</title>
<path fill="none" stroke="#191970" d="M382.1333,-234.3059C393.5896,-235.3499 405.1692,-236.4051 416.3148,-237.4208"/>
<polygon fill="#191970" stroke="#191970" points="382.3878,-230.8147 372.1114,-233.3926 381.7525,-237.7858 382.3878,-230.8147"/>
</g>
<!-- Node15 -->
<g id="node11" class="node">
<title>Node15</title>
<g id="a_node11"><a xlink:href="classene_1_1models_1_1TrackListModel.html#a51482a5f74dfadca48a06dd8888751cd" target="_top" xlink:title="ene.models.TrackListModel.remove">
<polygon fill="none" stroke="#000000" points="408,-197 408,-216 580,-216 580,-197 408,-197"/>
<text text-anchor="middle" x="494" y="-204" font-family="Helvetica,sans-Serif" font-size="10.00" fill="#000000">ene.models.TrackListModel.remove</text>
</a>
</g>
</g>
<!-- Node6&#45;&gt;Node15 -->
<g id="edge12" class="edge">
<title>Node6&#45;&gt;Node15</title>
<path fill="none" stroke="#191970" d="M382.1784,-216.69C390.7931,-215.9049 399.4772,-215.1136 407.9937,-214.3375"/>
<polygon fill="#191970" stroke="#191970" points="381.7525,-213.2142 372.1114,-217.6074 382.3878,-220.1853 381.7525,-213.2142"/>
</g>
<!-- Node16 -->
<g id="node12" class="node">
<title>Node16</title>
<g id="a_node12"><a xlink:href="classene_1_1models_1_1TrackModel.html#adcb5ee61c35e73b04879409a43c4b753" target="_top" xlink:title="ene.models.TrackModel.set\lFilename">
<polygon fill="none" stroke="#000000" points="425.5,-147.5 425.5,-177.5 562.5,-177.5 562.5,-147.5 425.5,-147.5"/>
<text text-anchor="start" x="433.5" y="-165.5" font-family="Helvetica,sans-Serif" font-size="10.00" fill="#000000">ene.models.TrackModel.set</text>
<text text-anchor="middle" x="494" y="-154.5" font-family="Helvetica,sans-Serif" font-size="10.00" fill="#000000">Filename</text>
</a>
</g>
</g>
<!-- Node6&#45;&gt;Node16 -->
<g id="edge13" class="edge">
<title>Node6&#45;&gt;Node16</title>
<path fill="none" stroke="#191970" d="M325.4436,-212.9115C349.3601,-205.4234 380.3834,-195.7967 408,-187.5 418.8705,-184.2342 430.5345,-180.7981 441.6554,-177.5544"/>
<polygon fill="#191970" stroke="#191970" points="324.154,-209.6478 315.6594,-215.9796 326.2485,-216.3271 324.154,-209.6478"/>
</g>
<!-- Node18 -->
<g id="node14" class="node">
<title>Node18</title>
<g id="a_node14"><a xlink:href="classene_1_1models_1_1TrackModel.html#a6e059ab76ba75be47de8d661e132f514" target="_top" xlink:title="ene.models.TrackModel.set\lArtist">
<polygon fill="none" stroke="#000000" points="425.5,-98.5 425.5,-128.5 562.5,-128.5 562.5,-98.5 425.5,-98.5"/>
<text text-anchor="start" x="433.5" y="-116.5" font-family="Helvetica,sans-Serif" font-size="10.00" fill="#000000">ene.models.TrackModel.set</text>
<text text-anchor="middle" x="494" y="-105.5" font-family="Helvetica,sans-Serif" font-size="10.00" fill="#000000">Artist</text>
</a>
</g>
</g>
<!-- Node6&#45;&gt;Node18 -->
<g id="edge15" class="edge">
<title>Node6&#45;&gt;Node18</title>
<path fill="none" stroke="#191970" d="M304.0668,-209.2604C327.0345,-189.9248 368.0154,-157.8257 408,-138.5 415.6996,-134.7786 424.0603,-131.5023 432.4427,-128.6516"/>
<polygon fill="#191970" stroke="#191970" points="301.5158,-206.8363 296.1857,-215.9927 306.0625,-212.1587 301.5158,-206.8363"/>
</g>
<!-- Node19 -->
<g id="node15" class="node">
<title>Node19</title>
<g id="a_node15"><a xlink:href="classene_1_1models_1_1TrackModel.html#a1e8a6872b5dcf826ba463a663a8249f1" target="_top" xlink:title="ene.models.TrackModel.set\lTitle">
<polygon fill="none" stroke="#000000" points="425.5,-49.5 425.5,-79.5 562.5,-79.5 562.5,-49.5 425.5,-49.5"/>
<text text-anchor="start" x="433.5" y="-67.5" font-family="Helvetica,sans-Serif" font-size="10.00" fill="#000000">ene.models.TrackModel.set</text>
<text text-anchor="middle" x="494" y="-56.5" font-family="Helvetica,sans-Serif" font-size="10.00" fill="#000000">Title</text>
</a>
</g>
</g>
<!-- Node6&#45;&gt;Node19 -->
<g id="edge17" class="edge">
<title>Node6&#45;&gt;Node19</title>
<path fill="none" stroke="#191970" d="M297.0249,-207.1652C316.3674,-177.8997 358.1783,-120.7522 408,-89.5 414.1907,-85.6167 421.007,-82.3166 428.0106,-79.5165"/>
<polygon fill="#191970" stroke="#191970" points="293.8393,-205.6458 291.3474,-215.9434 299.7171,-209.4474 293.8393,-205.6458"/>
</g>
<!-- Node20 -->
<g id="node16" class="node">
<title>Node20</title>
<g id="a_node16"><a xlink:href="classene_1_1models_1_1TrackModel.html#acfe29ae2331320c5c60824a1bb4e1ba7" target="_top" xlink:title="ene.models.TrackModel.set\lGenre">
<polygon fill="none" stroke="#000000" points="425.5,-.5 425.5,-30.5 562.5,-30.5 562.5,-.5 425.5,-.5"/>
<text text-anchor="start" x="433.5" y="-18.5" font-family="Helvetica,sans-Serif" font-size="10.00" fill="#000000">ene.models.TrackModel.set</text>
<text text-anchor="middle" x="494" y="-7.5" font-family="Helvetica,sans-Serif" font-size="10.00" fill="#000000">Genre</text>
</a>
</g>
</g>
<!-- Node6&#45;&gt;Node20 -->
<g id="edge19" class="edge">
<title>Node6&#45;&gt;Node20</title>
<path fill="none" stroke="#191970" d="M292.7474,-206.2423C308.0178,-168.3327 347.1832,-83.8678 408,-39.5 413.2596,-35.663 419.1082,-32.439 425.2109,-29.7301"/>
<polygon fill="#191970" stroke="#191970" points="289.4594,-205.0402 289.0759,-215.6281 295.9784,-207.5904 289.4594,-205.0402"/>
</g>
<!-- Node8&#45;&gt;Node9 -->
<g id="edge4" class="edge">
<title>Node8&#45;&gt;Node9</title>
<path fill="none" stroke="#191970" d="M567.1672,-343.9038C589.9554,-349.3243 614.8758,-355.252 636.9128,-360.4938"/>
<polygon fill="#191970" stroke="#191970" points="567.7453,-340.4438 557.2068,-341.5346 566.1254,-347.2538 567.7453,-340.4438"/>
</g>
<!-- Node8&#45;&gt;Node11 -->
<g id="edge6" class="edge">
<title>Node8&#45;&gt;Node11</title>
<path fill="none" stroke="#191970" d="M567.1672,-309.0962C589.9554,-303.6757 614.8758,-297.748 636.9128,-292.5062"/>
<polygon fill="#191970" stroke="#191970" points="566.1254,-305.7462 557.2068,-311.4654 567.7453,-312.5562 566.1254,-305.7462"/>
</g>
<!-- Node13 -->
<g id="node9" class="node">
<title>Node13</title>
<g id="a_node9"><a xlink:href="classene_1_1views_1_1gui_1_1partial_1_1PlaylistView.html#a108f11521a24d840a4aeb31190c0a34e" target="_top" xlink:title="ene.views.gui.partial.Playlist\lView.mousePressed">
<polygon fill="none" stroke="#000000" points="629.5,-311.5 629.5,-341.5 770.5,-341.5 770.5,-311.5 629.5,-311.5"/>
<text text-anchor="start" x="637.5" y="-329.5" font-family="Helvetica,sans-Serif" font-size="10.00" fill="#000000">ene.views.gui.partial.Playlist</text>
<text text-anchor="middle" x="700" y="-318.5" font-family="Helvetica,sans-Serif" font-size="10.00" fill="#000000">View.mousePressed</text>
</a>
</g>
</g>
<!-- Node8&#45;&gt;Node13 -->
<g id="edge8" class="edge">
<title>Node8&#45;&gt;Node13</title>
<path fill="none" stroke="#191970" d="M576.7871,-326.5C594.2267,-326.5 612.4711,-326.5 629.4127,-326.5"/>
<polygon fill="#191970" stroke="#191970" points="576.6279,-323.0001 566.6279,-326.5 576.6279,-330.0001 576.6279,-323.0001"/>
</g>
<!-- Node10 -->
<g id="node6" class="node">
<title>Node10</title>
<g id="a_node6"><a xlink:href="classene_1_1models_1_1PlayerModel.html#a7242e20d537405f031ec8d18e7faf8fc" target="_top" xlink:title="ene.models.PlayerModel.previous">
<polygon fill="none" stroke="#000000" points="820,-366 820,-385 984,-385 984,-366 820,-366"/>
<text text-anchor="middle" x="902" y="-373" font-family="Helvetica,sans-Serif" font-size="10.00" fill="#000000">ene.models.PlayerModel.previous</text>
</a>
</g>
</g>
<!-- Node9&#45;&gt;Node10 -->
<g id="edge5" class="edge">
<title>Node9&#45;&gt;Node10</title>
<path fill="none" stroke="#191970" d="M794.2193,-375.5C802.7896,-375.5 811.4253,-375.5 819.8781,-375.5"/>
<polygon fill="#191970" stroke="#191970" points="794.2035,-372.0001 784.2035,-375.5 794.2034,-379.0001 794.2035,-372.0001"/>
</g>
<!-- Node12 -->
<g id="node8" class="node">
<title>Node12</title>
<g id="a_node8"><a xlink:href="classene_1_1models_1_1PlayerModel.html#a384fd9a2e98fc581e8221659257a8dd4" target="_top" xlink:title="ene.models.PlayerModel.next">
<polygon fill="none" stroke="#000000" points="829,-268 829,-287 975,-287 975,-268 829,-268"/>
<text text-anchor="middle" x="902" y="-275" font-family="Helvetica,sans-Serif" font-size="10.00" fill="#000000">ene.models.PlayerModel.next</text>
</a>
</g>
</g>
<!-- Node11&#45;&gt;Node12 -->
<g id="edge7" class="edge">
<title>Node11&#45;&gt;Node12</title>
<path fill="none" stroke="#191970" d="M785.58,-277.5C799.9382,-277.5 814.7222,-277.5 828.7342,-277.5"/>
<polygon fill="#191970" stroke="#191970" points="785.2174,-274.0001 775.2173,-277.5 785.2173,-281.0001 785.2174,-274.0001"/>
</g>
<!-- Node17 -->
<g id="node13" class="node">
<title>Node17</title>
<g id="a_node13"><a xlink:href="classene_1_1models_1_1TrackModel.html#abcdd0235436de2871b905818aaff4873" target="_top" xlink:title="ene.models.TrackModel.Track\lModel">
<polygon fill="none" stroke="#000000" points="625.5,-74.5 625.5,-104.5 774.5,-104.5 774.5,-74.5 625.5,-74.5"/>
<text text-anchor="start" x="633.5" y="-92.5" font-family="Helvetica,sans-Serif" font-size="10.00" fill="#000000">ene.models.TrackModel.Track</text>
<text text-anchor="middle" x="700" y="-81.5" font-family="Helvetica,sans-Serif" font-size="10.00" fill="#000000">Model</text>
</a>
</g>
</g>
<!-- Node16&#45;&gt;Node17 -->
<g id="edge14" class="edge">
<title>Node16&#45;&gt;Node17</title>
<path fill="none" stroke="#191970" d="M561.5106,-144.462C567.7906,-142.5432 574.0331,-140.5432 580,-138.5 609.4862,-128.4033 642.1912,-114.8893 666.0015,-104.611"/>
<polygon fill="#191970" stroke="#191970" points="560.2277,-141.1923 551.6457,-147.4052 562.229,-147.9001 560.2277,-141.1923"/>
</g>
<!-- Node18&#45;&gt;Node17 -->
<g id="edge16" class="edge">
<title>Node18&#45;&gt;Node17</title>
<path fill="none" stroke="#191970" d="M572.6474,-104.3372C589.9382,-102.3227 608.2002,-100.1951 625.3289,-98.1995"/>
<polygon fill="#191970" stroke="#191970" points="572.1228,-100.8746 562.595,-105.5083 572.9329,-107.8275 572.1228,-100.8746"/>
</g>
<!-- Node19&#45;&gt;Node17 -->
<g id="edge18" class="edge">
<title>Node19&#45;&gt;Node17</title>
<path fill="none" stroke="#191970" d="M572.6474,-74.0446C589.9382,-76.143 608.2002,-78.3592 625.3289,-80.438"/>
<polygon fill="#191970" stroke="#191970" points="572.9439,-70.555 562.595,-72.8246 572.1005,-77.504 572.9439,-70.555"/>
</g>
<!-- Node20&#45;&gt;Node17 -->
<g id="edge20" class="edge">
<title>Node20&#45;&gt;Node17</title>
<path fill="none" stroke="#191970" d="M561.5262,-33.4929C567.8029,-35.4211 574.0404,-37.4356 580,-39.5 609.9632,-49.8794 643.1826,-63.9264 667.0587,-74.4888"/>
<polygon fill="#191970" stroke="#191970" points="562.2487,-30.0558 551.6649,-30.539 560.24,-36.7614 562.2487,-30.0558"/>
</g>
</g>
</svg>
