<?xml version="1.0" encoding="UTF-8" standalone="no"?>
<!DOCTYPE svg PUBLIC "-//W3C//DTD SVG 1.1//EN"
 "http://www.w3.org/Graphics/SVG/1.1/DTD/svg11.dtd">
<!-- Generated by graphviz version 2.40.1 (20161225.0304)
 -->
<!-- Title: ene.interfaces.Localization.getString Pages: 1 -->
<svg width="544pt" height="220pt"
 viewBox="0.00 0.00 544.00 220.00" xmlns="http://www.w3.org/2000/svg" xmlns:xlink="http://www.w3.org/1999/xlink">
<g id="graph0" class="graph" transform="scale(1 1) rotate(0) translate(4 216)">
<title>ene.interfaces.Localization.getString</title>
<!-- Node1 -->
<g id="node1" class="node">
<title>Node1</title>
<polygon fill="#bfbfbf" stroke="#000000" points="0,-93.5 0,-123.5 149,-123.5 149,-93.5 0,-93.5"/>
<text text-anchor="start" x="8" y="-111.5" font-family="Helvetica,sans-Serif" font-size="10.00" fill="#000000">ene.interfaces.Localization.get</text>
<text text-anchor="middle" x="74.5" y="-100.5" font-family="Helvetica,sans-Serif" font-size="10.00" fill="#000000">String</text>
</g>
<!-- Node2 -->
<g id="node2" class="node">
<title>Node2</title>
<g id="a_node2"><a xlink:href="classene_1_1views_1_1gui_1_1WindowView.html#ab1f007806dcd28e2e4486eb29231fa21" target="_top" xlink:title="ene.views.gui.WindowView.initialize">
<polygon fill="none" stroke="#000000" points="185,-187 185,-206 360,-206 360,-187 185,-187"/>
<text text-anchor="middle" x="272.5" y="-194" font-family="Helvetica,sans-Serif" font-size="10.00" fill="#000000">ene.views.gui.WindowView.initialize</text>
</a>
</g>
</g>
<!-- Node1&#45;&gt;Node2 -->
<g id="edge1" class="edge">
<title>Node1&#45;&gt;Node2</title>
<path fill="none" stroke="#191970" d="M102.4509,-129.7615C123.9564,-145.1468 154.9827,-165.3011 185,-177.5 194.3608,-181.3042 204.609,-184.4014 214.6906,-186.9055"/>
<polygon fill="#191970" stroke="#191970" points="104.2768,-126.7615 94.1318,-123.707 100.1577,-132.4213 104.2768,-126.7615"/>
</g>
<!-- Node4 -->
<g id="node4" class="node">
<title>Node4</title>
<g id="a_node4"><a xlink:href="classene_1_1views_1_1gui_1_1partial_1_1LibraryView.html#a6e6e521f258ad6e3f2e06ed96180efb6" target="_top" xlink:title="ene.views.gui.partial.Library\lView.initialize">
<polygon fill="none" stroke="#000000" points="203.5,-137.5 203.5,-167.5 341.5,-167.5 341.5,-137.5 203.5,-137.5"/>
<text text-anchor="start" x="211.5" y="-155.5" font-family="Helvetica,sans-Serif" font-size="10.00" fill="#000000">ene.views.gui.partial.Library</text>
<text text-anchor="middle" x="272.5" y="-144.5" font-family="Helvetica,sans-Serif" font-size="10.00" fill="#000000">View.initialize</text>
</a>
</g>
</g>
<!-- Node1&#45;&gt;Node4 -->
<g id="edge3" class="edge">
<title>Node1&#45;&gt;Node4</title>
<path fill="none" stroke="#191970" d="M152.2079,-125.7684C169.6083,-129.6352 187.9298,-133.7066 204.8821,-137.4738"/>
<polygon fill="#191970" stroke="#191970" points="152.6077,-122.272 142.0866,-123.5192 151.0892,-129.1053 152.6077,-122.272"/>
</g>
<!-- Node5 -->
<g id="node5" class="node">
<title>Node5</title>
<g id="a_node5"><a xlink:href="classene_1_1views_1_1gui_1_1partial_1_1LibraryView.html#a23af39410ef7be2c3253b41ca96cdc4e" target="_top" xlink:title="ene.views.gui.partial.Library\lView.LibraryView">
<polygon fill="none" stroke="#000000" points="397,-115.5 397,-145.5 535,-145.5 535,-115.5 397,-115.5"/>
<text text-anchor="start" x="405" y="-133.5" font-family="Helvetica,sans-Serif" font-size="10.00" fill="#000000">ene.views.gui.partial.Library</text>
<text text-anchor="middle" x="466" y="-122.5" font-family="Helvetica,sans-Serif" font-size="10.00" fill="#000000">View.LibraryView</text>
</a>
</g>
</g>
<!-- Node1&#45;&gt;Node5 -->
<g id="edge7" class="edge">
<title>Node1&#45;&gt;Node5</title>
<path fill="none" stroke="#191970" d="M159.3321,-113.2671C230.4406,-117.2629 330.6962,-122.8967 396.9686,-126.6208"/>
<polygon fill="#191970" stroke="#191970" points="159.2403,-109.7565 149.0597,-112.6898 158.8475,-116.7455 159.2403,-109.7565"/>
</g>
<!-- Node6 -->
<g id="node6" class="node">
<title>Node6</title>
<g id="a_node6"><a xlink:href="classene_1_1views_1_1gui_1_1partial_1_1PlayerView.html#a6a20ce866e62ced7476b666fe891b10a" target="_top" xlink:title="ene.views.gui.partial.Player\lView.initialize">
<polygon fill="none" stroke="#000000" points="204,-49.5 204,-79.5 341,-79.5 341,-49.5 204,-49.5"/>
<text text-anchor="start" x="212" y="-67.5" font-family="Helvetica,sans-Serif" font-size="10.00" fill="#000000">ene.views.gui.partial.Player</text>
<text text-anchor="middle" x="272.5" y="-56.5" font-family="Helvetica,sans-Serif" font-size="10.00" fill="#000000">View.initialize</text>
</a>
</g>
</g>
<!-- Node1&#45;&gt;Node6 -->
<g id="edge5" class="edge">
<title>Node1&#45;&gt;Node6</title>
<path fill="none" stroke="#191970" d="M152.2079,-91.2316C169.6083,-87.3648 187.9298,-83.2934 204.8821,-79.5262"/>
<polygon fill="#191970" stroke="#191970" points="151.0892,-87.8947 142.0866,-93.4808 152.6077,-94.728 151.0892,-87.8947"/>
</g>
<!-- Node8 -->
<g id="node8" class="node">
<title>Node8</title>
<g id="a_node8"><a xlink:href="classene_1_1views_1_1gui_1_1partial_1_1PlayerView.html#a15d3f24a6e52ff6dedb86bb793bb8fa9" target="_top" xlink:title="ene.views.gui.partial.Player\lView.update">
<polygon fill="none" stroke="#000000" points="204,-.5 204,-30.5 341,-30.5 341,-.5 204,-.5"/>
<text text-anchor="start" x="212" y="-18.5" font-family="Helvetica,sans-Serif" font-size="10.00" fill="#000000">ene.views.gui.partial.Player</text>
<text text-anchor="middle" x="272.5" y="-7.5" font-family="Helvetica,sans-Serif" font-size="10.00" fill="#000000">View.update</text>
</a>
</g>
</g>
<!-- Node1&#45;&gt;Node8 -->
<g id="edge8" class="edge">
<title>Node1&#45;&gt;Node8</title>
<path fill="none" stroke="#191970" d="M103.0472,-87.4271C124.6365,-72.3156 155.5042,-52.4233 185,-39.5 192.6468,-36.1496 200.8778,-33.1578 209.1233,-30.5197"/>
<polygon fill="#191970" stroke="#191970" points="100.8059,-84.726 94.6799,-93.3702 104.8594,-90.4329 100.8059,-84.726"/>
</g>
<!-- Node3 -->
<g id="node3" class="node">
<title>Node3</title>
<g id="a_node3"><a xlink:href="classene_1_1views_1_1gui_1_1WindowView.html#a0d3e57ee4c8c74d85618d82de8087545" target="_top" xlink:title="ene.views.gui.WindowView.\lWindowView">
<polygon fill="none" stroke="#000000" points="396,-181.5 396,-211.5 536,-211.5 536,-181.5 396,-181.5"/>
<text text-anchor="start" x="404" y="-199.5" font-family="Helvetica,sans-Serif" font-size="10.00" fill="#000000">ene.views.gui.WindowView.</text>
<text text-anchor="middle" x="466" y="-188.5" font-family="Helvetica,sans-Serif" font-size="10.00" fill="#000000">WindowView</text>
</a>
</g>
</g>
<!-- Node2&#45;&gt;Node3 -->
<g id="edge2" class="edge">
<title>Node2&#45;&gt;Node3</title>
<path fill="none" stroke="#191970" d="M370.2592,-196.5C378.8451,-196.5 387.4203,-196.5 395.7145,-196.5"/>
<polygon fill="#191970" stroke="#191970" points="370.1915,-193.0001 360.1915,-196.5 370.1915,-200.0001 370.1915,-193.0001"/>
</g>
<!-- Node4&#45;&gt;Node5 -->
<g id="edge4" class="edge">
<title>Node4&#45;&gt;Node5</title>
<path fill="none" stroke="#191970" d="M351.8022,-143.4837C366.7876,-141.78 382.3505,-140.0105 396.9882,-138.3463"/>
<polygon fill="#191970" stroke="#191970" points="351.079,-140.0433 341.5384,-144.6507 351.8698,-146.9985 351.079,-140.0433"/>
</g>
<!-- Node7 -->
<g id="node7" class="node">
<title>Node7</title>
<g id="a_node7"><a xlink:href="classene_1_1views_1_1gui_1_1partial_1_1PlayerView.html#a87a7a4837fc2b68df6bf06984881a7ea" target="_top" xlink:title="ene.views.gui.partial.Player\lView.PlayerView">
<polygon fill="none" stroke="#000000" points="397.5,-49.5 397.5,-79.5 534.5,-79.5 534.5,-49.5 397.5,-49.5"/>
<text text-anchor="start" x="405.5" y="-67.5" font-family="Helvetica,sans-Serif" font-size="10.00" fill="#000000">ene.views.gui.partial.Player</text>
<text text-anchor="middle" x="466" y="-56.5" font-family="Helvetica,sans-Serif" font-size="10.00" fill="#000000">View.PlayerView</text>
</a>
</g>
</g>
<!-- Node6&#45;&gt;Node7 -->
<g id="edge6" class="edge">
<title>Node6&#45;&gt;Node7</title>
<path fill="none" stroke="#191970" d="M351.6651,-64.5C366.8523,-64.5 382.6376,-64.5 397.4557,-64.5"/>
<polygon fill="#191970" stroke="#191970" points="351.2657,-61.0001 341.2657,-64.5 351.2657,-68.0001 351.2657,-61.0001"/>
</g>
</g>
</svg>
