<?xml version="1.0" encoding="UTF-8" standalone="no"?>
<!DOCTYPE svg PUBLIC "-//W3C//DTD SVG 1.1//EN"
 "http://www.w3.org/Graphics/SVG/1.1/DTD/svg11.dtd">
<!-- Generated by graphviz version 2.40.1 (20161225.0304)
 -->
<!-- Title: ene.interfaces.View.render Pages: 1 -->
<svg width="420pt" height="28pt"
 viewBox="0.00 0.00 420.00 28.00" xmlns="http://www.w3.org/2000/svg" xmlns:xlink="http://www.w3.org/1999/xlink">
<g id="graph0" class="graph" transform="scale(1 1) rotate(0) translate(4 24)">
<title>ene.interfaces.View.render</title>
<!-- Node7 -->
<g id="node1" class="node">
<title>Node7</title>
<polygon fill="#bfbfbf" stroke="#000000" points="0,-.5 0,-19.5 133,-19.5 133,-.5 0,-.5"/>
<text text-anchor="middle" x="66.5" y="-7.5" font-family="Helvetica,sans-Serif" font-size="10.00" fill="#000000">ene.interfaces.View.render</text>
</g>
<!-- Node8 -->
<g id="node2" class="node">
<title>Node8</title>
<g id="a_node2"><a xlink:href="classene_1_1Application.html#a78f509d3eeb9756683ed98b5bed5edbf" target="_top" xlink:title="ene.Application.run">
<polygon fill="none" stroke="#000000" points="169,-.5 169,-19.5 269,-19.5 269,-.5 169,-.5"/>
<text text-anchor="middle" x="219" y="-7.5" font-family="Helvetica,sans-Serif" font-size="10.00" fill="#000000">ene.Application.run</text>
</a>
</g>
</g>
<!-- Node7&#45;&gt;Node8 -->
<g id="edge1" class="edge">
<title>Node7&#45;&gt;Node8</title>
<path fill="none" stroke="#191970" d="M143.429,-10C151.9994,-10 160.5585,-10 168.6729,-10"/>
<polygon fill="#191970" stroke="#191970" points="143.3888,-6.5001 133.3887,-10 143.3887,-13.5001 143.3888,-6.5001"/>
</g>
<!-- Node9 -->
<g id="node3" class="node">
<title>Node9</title>
<g id="a_node3"><a xlink:href="classene_1_1Application.html#a336bc7b9857591df7cc547781aacbf10" target="_top" xlink:title="ene.Application.main">
<polygon fill="none" stroke="#000000" points="305,-.5 305,-19.5 412,-19.5 412,-.5 305,-.5"/>
<text text-anchor="middle" x="358.5" y="-7.5" font-family="Helvetica,sans-Serif" font-size="10.00" fill="#000000">ene.Application.main</text>
</a>
</g>
</g>
<!-- Node8&#45;&gt;Node9 -->
<g id="edge2" class="edge">
<title>Node8&#45;&gt;Node9</title>
<path fill="none" stroke="#191970" d="M279.5381,-10C287.9826,-10 296.6105,-10 304.9148,-10"/>
<polygon fill="#191970" stroke="#191970" points="279.3627,-6.5001 269.3627,-10 279.3627,-13.5001 279.3627,-6.5001"/>
</g>
</g>
</svg>
