<?xml version="1.0" encoding="UTF-8" standalone="no"?>
<!DOCTYPE svg PUBLIC "-//W3C//DTD SVG 1.1//EN"
 "http://www.w3.org/Graphics/SVG/1.1/DTD/svg11.dtd">
<!-- Generated by graphviz version 2.40.1 (20161225.0304)
 -->
<!-- Title: ene.interfaces.View&lt; CoreComponentType &gt; Pages: 1 -->
<svg width="1348pt" height="984pt"
 viewBox="0.00 0.00 1347.50 984.00" xmlns="http://www.w3.org/2000/svg" xmlns:xlink="http://www.w3.org/1999/xlink">
<g id="graph0" class="graph" transform="scale(1 1) rotate(0) translate(4 980)">
<title>ene.interfaces.View&lt; CoreComponentType &gt;</title>
<!-- Node0 -->
<g id="node1" class="node">
<title>Node0</title>
<polygon fill="#bfbfbf" stroke="#000000" points="589.5,-841.5 589.5,-975.5 717.5,-975.5 717.5,-841.5 589.5,-841.5"/>
<text text-anchor="start" x="597.5" y="-963.5" font-family="Helvetica,sans-Serif" font-size="10.00" fill="#000000">ene.interfaces.View</text>
<text text-anchor="middle" x="653.5" y="-952.5" font-family="Helvetica,sans-Serif" font-size="10.00" fill="#000000">&lt; CoreComponentType &gt;</text>
<polyline fill="none" stroke="#000000" points="589.5,-945.5 717.5,-945.5 "/>
<text text-anchor="middle" x="653.5" y="-933.5" font-family="Helvetica,sans-Serif" font-size="10.00" fill="#000000"> </text>
<polyline fill="none" stroke="#000000" points="589.5,-926.5 717.5,-926.5 "/>
<text text-anchor="start" x="597.5" y="-914.5" font-family="Helvetica,sans-Serif" font-size="10.00" fill="#000000">+ setTitle()</text>
<text text-anchor="start" x="597.5" y="-903.5" font-family="Helvetica,sans-Serif" font-size="10.00" fill="#000000">+ getTitle()</text>
<text text-anchor="start" x="597.5" y="-892.5" font-family="Helvetica,sans-Serif" font-size="10.00" fill="#000000">+ setCoreComponent()</text>
<text text-anchor="start" x="597.5" y="-881.5" font-family="Helvetica,sans-Serif" font-size="10.00" fill="#000000">+ getCoreComponent()</text>
<text text-anchor="start" x="597.5" y="-870.5" font-family="Helvetica,sans-Serif" font-size="10.00" fill="#000000">+ setLayoutPosition()</text>
<text text-anchor="start" x="597.5" y="-859.5" font-family="Helvetica,sans-Serif" font-size="10.00" fill="#000000">+ getLayoutPosition()</text>
<text text-anchor="start" x="597.5" y="-848.5" font-family="Helvetica,sans-Serif" font-size="10.00" fill="#000000">+ render()</text>
</g>
<!-- Node1 -->
<g id="node2" class="node">
<title>Node1</title>
<g id="a_node2"><a xlink:href="interfaceene_1_1interfaces_1_1MasterView.html" target="_top" xlink:title="{ene::interfaces::MasterView\l\&lt; CoreComponentType \&gt;\n||+ addView()\l+ setAllViews()\l+ getAllViews()\l}">
<polygon fill="none" stroke="#000000" points="429,-686 429,-776 568,-776 568,-686 429,-686"/>
<text text-anchor="start" x="437" y="-764" font-family="Helvetica,sans-Serif" font-size="10.00" fill="#000000">ene::interfaces::MasterView</text>
<text text-anchor="middle" x="498.5" y="-753" font-family="Helvetica,sans-Serif" font-size="10.00" fill="#000000">&lt; CoreComponentType &gt;</text>
<polyline fill="none" stroke="#000000" points="429,-746 568,-746 "/>
<text text-anchor="middle" x="498.5" y="-734" font-family="Helvetica,sans-Serif" font-size="10.00" fill="#000000"> </text>
<polyline fill="none" stroke="#000000" points="429,-727 568,-727 "/>
<text text-anchor="start" x="437" y="-715" font-family="Helvetica,sans-Serif" font-size="10.00" fill="#000000">+ addView()</text>
<text text-anchor="start" x="437" y="-704" font-family="Helvetica,sans-Serif" font-size="10.00" fill="#000000">+ setAllViews()</text>
<text text-anchor="start" x="437" y="-693" font-family="Helvetica,sans-Serif" font-size="10.00" fill="#000000">+ getAllViews()</text>
</a>
</g>
</g>
<!-- Node0&#45;&gt;Node1 -->
<g id="edge1" class="edge">
<title>Node0&#45;&gt;Node1</title>
<path fill="none" stroke="#191970" d="M588.1516,-833.6655C571.0753,-814.1104 553.1919,-793.631 537.9294,-776.153"/>
<polygon fill="none" stroke="#191970" points="585.6873,-836.1646 594.9011,-841.3949 590.9599,-831.5604 585.6873,-836.1646"/>
</g>
<!-- Node7 -->
<g id="node8" class="node">
<title>Node7</title>
<g id="a_node8"><a xlink:href="interfaceene_1_1interfaces_1_1PartialView.html" target="_top" xlink:title="{ene::interfaces::Partial\lView\&lt; CoreComponentType \&gt;\n||+ setModel()\l+ getModel()\l+ update()\l}">
<polygon fill="none" stroke="#000000" points="757,-686 757,-776 906,-776 906,-686 757,-686"/>
<text text-anchor="start" x="765" y="-764" font-family="Helvetica,sans-Serif" font-size="10.00" fill="#000000">ene::interfaces::Partial</text>
<text text-anchor="middle" x="831.5" y="-753" font-family="Helvetica,sans-Serif" font-size="10.00" fill="#000000">View&lt; CoreComponentType &gt;</text>
<polyline fill="none" stroke="#000000" points="757,-746 906,-746 "/>
<text text-anchor="middle" x="831.5" y="-734" font-family="Helvetica,sans-Serif" font-size="10.00" fill="#000000"> </text>
<polyline fill="none" stroke="#000000" points="757,-727 906,-727 "/>
<text text-anchor="start" x="765" y="-715" font-family="Helvetica,sans-Serif" font-size="10.00" fill="#000000">+ setModel()</text>
<text text-anchor="start" x="765" y="-704" font-family="Helvetica,sans-Serif" font-size="10.00" fill="#000000">+ getModel()</text>
<text text-anchor="start" x="765" y="-693" font-family="Helvetica,sans-Serif" font-size="10.00" fill="#000000">+ update()</text>
</a>
</g>
</g>
<!-- Node0&#45;&gt;Node7 -->
<g id="edge7" class="edge">
<title>Node0&#45;&gt;Node7</title>
<path fill="none" stroke="#191970" d="M724.772,-837.4282C745.4804,-816.7779 767.5235,-794.7968 786.1676,-776.2051"/>
<polygon fill="none" stroke="#191970" points="722.1202,-835.1297 717.5106,-844.6692 727.063,-840.0864 722.1202,-835.1297"/>
</g>
<!-- Node15 -->
<g id="node16" class="node">
<title>Node15</title>
<g id="a_node16"><a xlink:href="classene_1_1views_1_1AbstractView.html" target="_top" xlink:title="{ene::views::AbstractView\l\&lt; CoreComponentType \&gt;\n|# title\l# coreComponent\l# layoutPosition\l|+ setTitle()\l+ getTitle()\l+ setCoreComponent()\l+ getCoreComponent()\l+ setLayoutPosition()\l+ getLayoutPosition()\l}">
<polygon fill="none" stroke="#000000" points="589.5,-658.5 589.5,-803.5 717.5,-803.5 717.5,-658.5 589.5,-658.5"/>
<text text-anchor="start" x="597.5" y="-791.5" font-family="Helvetica,sans-Serif" font-size="10.00" fill="#000000">ene::views::AbstractView</text>
<text text-anchor="middle" x="653.5" y="-780.5" font-family="Helvetica,sans-Serif" font-size="10.00" fill="#000000">&lt; CoreComponentType &gt;</text>
<polyline fill="none" stroke="#000000" points="589.5,-773.5 717.5,-773.5 "/>
<text text-anchor="start" x="597.5" y="-761.5" font-family="Helvetica,sans-Serif" font-size="10.00" fill="#000000"># title</text>
<text text-anchor="start" x="597.5" y="-750.5" font-family="Helvetica,sans-Serif" font-size="10.00" fill="#000000"># coreComponent</text>
<text text-anchor="start" x="597.5" y="-739.5" font-family="Helvetica,sans-Serif" font-size="10.00" fill="#000000"># layoutPosition</text>
<polyline fill="none" stroke="#000000" points="589.5,-732.5 717.5,-732.5 "/>
<text text-anchor="start" x="597.5" y="-720.5" font-family="Helvetica,sans-Serif" font-size="10.00" fill="#000000">+ setTitle()</text>
<text text-anchor="start" x="597.5" y="-709.5" font-family="Helvetica,sans-Serif" font-size="10.00" fill="#000000">+ getTitle()</text>
<text text-anchor="start" x="597.5" y="-698.5" font-family="Helvetica,sans-Serif" font-size="10.00" fill="#000000">+ setCoreComponent()</text>
<text text-anchor="start" x="597.5" y="-687.5" font-family="Helvetica,sans-Serif" font-size="10.00" fill="#000000">+ getCoreComponent()</text>
<text text-anchor="start" x="597.5" y="-676.5" font-family="Helvetica,sans-Serif" font-size="10.00" fill="#000000">+ setLayoutPosition()</text>
<text text-anchor="start" x="597.5" y="-665.5" font-family="Helvetica,sans-Serif" font-size="10.00" fill="#000000">+ getLayoutPosition()</text>
</a>
</g>
</g>
<!-- Node0&#45;&gt;Node15 -->
<g id="edge15" class="edge">
<title>Node0&#45;&gt;Node15</title>
<path fill="none" stroke="#191970" d="M653.5,-831.135C653.5,-821.9668 653.5,-812.6338 653.5,-803.5361"/>
<polygon fill="none" stroke="#191970" points="650.0001,-831.3948 653.5,-841.3949 657.0001,-831.3949 650.0001,-831.3948"/>
</g>
<!-- Node2 -->
<g id="node3" class="node">
<title>Node2</title>
<g id="a_node3"><a xlink:href="classene_1_1views_1_1AbstractMasterView.html" target="_top" xlink:title="{ene::views::AbstractMaster\lView\&lt; CoreComponentType \&gt;\n|# views\l|+ addView()\l+ setAllViews()\l+ getAllViews()\l}">
<polygon fill="none" stroke="#000000" points="406,-530.5 406,-620.5 555,-620.5 555,-530.5 406,-530.5"/>
<text text-anchor="start" x="414" y="-608.5" font-family="Helvetica,sans-Serif" font-size="10.00" fill="#000000">ene::views::AbstractMaster</text>
<text text-anchor="middle" x="480.5" y="-597.5" font-family="Helvetica,sans-Serif" font-size="10.00" fill="#000000">View&lt; CoreComponentType &gt;</text>
<polyline fill="none" stroke="#000000" points="406,-590.5 555,-590.5 "/>
<text text-anchor="start" x="414" y="-578.5" font-family="Helvetica,sans-Serif" font-size="10.00" fill="#000000"># views</text>
<polyline fill="none" stroke="#000000" points="406,-571.5 555,-571.5 "/>
<text text-anchor="start" x="414" y="-559.5" font-family="Helvetica,sans-Serif" font-size="10.00" fill="#000000">+ addView()</text>
<text text-anchor="start" x="414" y="-548.5" font-family="Helvetica,sans-Serif" font-size="10.00" fill="#000000">+ setAllViews()</text>
<text text-anchor="start" x="414" y="-537.5" font-family="Helvetica,sans-Serif" font-size="10.00" fill="#000000">+ getAllViews()</text>
</a>
</g>
</g>
<!-- Node1&#45;&gt;Node2 -->
<g id="edge2" class="edge">
<title>Node1&#45;&gt;Node2</title>
<path fill="none" stroke="#191970" d="M492.0796,-675.5352C489.9977,-657.55 487.7147,-637.827 485.7301,-620.6827"/>
<polygon fill="none" stroke="#191970" points="488.6185,-676.0738 493.2453,-685.6049 495.5721,-675.2688 488.6185,-676.0738"/>
</g>
<!-- Node3 -->
<g id="node4" class="node">
<title>Node3</title>
<g id="a_node4"><a xlink:href="classene_1_1views_1_1gui_1_1partial_1_1ContentView.html" target="_top" xlink:title="{ene::views::gui::partial\l::ContentView\&lt; JTabbedPane \&gt;\n||+ ContentView()\l+ render()\l}">
<polygon fill="none" stroke="#000000" points="0,-293.5 0,-372.5 157,-372.5 157,-293.5 0,-293.5"/>
<text text-anchor="start" x="8" y="-360.5" font-family="Helvetica,sans-Serif" font-size="10.00" fill="#000000">ene::views::gui::partial</text>
<text text-anchor="middle" x="78.5" y="-349.5" font-family="Helvetica,sans-Serif" font-size="10.00" fill="#000000">::ContentView&lt; JTabbedPane &gt;</text>
<polyline fill="none" stroke="#000000" points="0,-342.5 157,-342.5 "/>
<text text-anchor="middle" x="78.5" y="-330.5" font-family="Helvetica,sans-Serif" font-size="10.00" fill="#000000"> </text>
<polyline fill="none" stroke="#000000" points="0,-323.5 157,-323.5 "/>
<text text-anchor="start" x="8" y="-311.5" font-family="Helvetica,sans-Serif" font-size="10.00" fill="#000000">+ ContentView()</text>
<text text-anchor="start" x="8" y="-300.5" font-family="Helvetica,sans-Serif" font-size="10.00" fill="#000000">+ render()</text>
</a>
</g>
</g>
<!-- Node2&#45;&gt;Node3 -->
<g id="edge3" class="edge">
<title>Node2&#45;&gt;Node3</title>
<path fill="none" stroke="#191970" d="M395.5819,-567.6843C327.5496,-557.6598 232.8363,-534.8421 166.5,-483 130.2212,-454.648 105.9373,-406.8454 92.2315,-372.8268"/>
<polygon fill="none" stroke="#191970" points="395.4504,-571.2003 405.8408,-569.1292 396.4267,-564.2687 395.4504,-571.2003"/>
</g>
<!-- Node4 -->
<g id="node5" class="node">
<title>Node4</title>
<g id="a_node5"><a xlink:href="classene_1_1views_1_1gui_1_1WindowView.html" target="_top" xlink:title="{ene::views::gui::WindowView\l\&lt; JFrame \&gt;\n||+ setTitle()\l+ getTitle()\l+ WindowView()\l+ render()\l}">
<polygon fill="none" stroke="#000000" points="175.5,-282.5 175.5,-383.5 321.5,-383.5 321.5,-282.5 175.5,-282.5"/>
<text text-anchor="start" x="183.5" y="-371.5" font-family="Helvetica,sans-Serif" font-size="10.00" fill="#000000">ene::views::gui::WindowView</text>
<text text-anchor="middle" x="248.5" y="-360.5" font-family="Helvetica,sans-Serif" font-size="10.00" fill="#000000">&lt; JFrame &gt;</text>
<polyline fill="none" stroke="#000000" points="175.5,-353.5 321.5,-353.5 "/>
<text text-anchor="middle" x="248.5" y="-341.5" font-family="Helvetica,sans-Serif" font-size="10.00" fill="#000000"> </text>
<polyline fill="none" stroke="#000000" points="175.5,-334.5 321.5,-334.5 "/>
<text text-anchor="start" x="183.5" y="-322.5" font-family="Helvetica,sans-Serif" font-size="10.00" fill="#000000">+ setTitle()</text>
<text text-anchor="start" x="183.5" y="-311.5" font-family="Helvetica,sans-Serif" font-size="10.00" fill="#000000">+ getTitle()</text>
<text text-anchor="start" x="183.5" y="-300.5" font-family="Helvetica,sans-Serif" font-size="10.00" fill="#000000">+ WindowView()</text>
<text text-anchor="start" x="183.5" y="-289.5" font-family="Helvetica,sans-Serif" font-size="10.00" fill="#000000">+ render()</text>
</a>
</g>
</g>
<!-- Node2&#45;&gt;Node4 -->
<g id="edge4" class="edge">
<title>Node2&#45;&gt;Node4</title>
<path fill="none" stroke="#191970" d="M396.9941,-534.4546C373.6225,-520.336 349.4552,-502.9735 330.5,-483 303.3279,-454.3681 282.2564,-414.9997 268.2808,-383.7787"/>
<polygon fill="none" stroke="#191970" points="395.5082,-537.6415 405.9001,-539.7056 399.0635,-531.6116 395.5082,-537.6415"/>
</g>
<!-- Node5 -->
<g id="node6" class="node">
<title>Node5</title>
<g id="a_node6"><a xlink:href="classene_1_1views_1_1AbstractMasterView.html" target="_top" xlink:title="{ene.views.AbstractMaster\lView\&lt; JTabbedPane \&gt;\n|# views\l|+ addView()\l+ setAllViews()\l+ getAllViews()\l}">
<polygon fill="none" stroke="#000000" points="340,-288 340,-378 471,-378 471,-288 340,-288"/>
<text text-anchor="start" x="348" y="-366" font-family="Helvetica,sans-Serif" font-size="10.00" fill="#000000">ene.views.AbstractMaster</text>
<text text-anchor="middle" x="405.5" y="-355" font-family="Helvetica,sans-Serif" font-size="10.00" fill="#000000">View&lt; JTabbedPane &gt;</text>
<polyline fill="none" stroke="#000000" points="340,-348 471,-348 "/>
<text text-anchor="start" x="348" y="-336" font-family="Helvetica,sans-Serif" font-size="10.00" fill="#000000"># views</text>
<polyline fill="none" stroke="#000000" points="340,-329 471,-329 "/>
<text text-anchor="start" x="348" y="-317" font-family="Helvetica,sans-Serif" font-size="10.00" fill="#000000">+ addView()</text>
<text text-anchor="start" x="348" y="-306" font-family="Helvetica,sans-Serif" font-size="10.00" fill="#000000">+ setAllViews()</text>
<text text-anchor="start" x="348" y="-295" font-family="Helvetica,sans-Serif" font-size="10.00" fill="#000000">+ getAllViews()</text>
</a>
</g>
</g>
<!-- Node2&#45;&gt;Node5 -->
<g id="edge5" class="edge">
<title>Node2&#45;&gt;Node5</title>
<path fill="none" stroke="#ffa500" d="M420.0051,-522.0877C417.933,-518.8261 416.0759,-515.4592 414.5,-512 395.2151,-469.6679 395.385,-415.7326 398.864,-378.1831"/>
<polygon fill="#ffa500" stroke="#ffa500" points="417.3071,-524.3339 425.9465,-530.4668 423.0173,-520.2849 417.3071,-524.3339"/>
<text text-anchor="middle" x="455.5" y="-504" font-family="Helvetica,sans-Serif" font-size="10.00" fill="#000000"> &lt; JTabbedPane &gt;</text>
</g>
<!-- Node6 -->
<g id="node7" class="node">
<title>Node6</title>
<g id="a_node7"><a xlink:href="classene_1_1views_1_1AbstractMasterView.html" target="_top" xlink:title="{ene.views.AbstractMaster\lView\&lt; JFrame \&gt;\n|# views\l|+ addView()\l+ setAllViews()\l+ getAllViews()\l}">
<polygon fill="none" stroke="#000000" points="489,-288 489,-378 620,-378 620,-288 489,-288"/>
<text text-anchor="start" x="497" y="-366" font-family="Helvetica,sans-Serif" font-size="10.00" fill="#000000">ene.views.AbstractMaster</text>
<text text-anchor="middle" x="554.5" y="-355" font-family="Helvetica,sans-Serif" font-size="10.00" fill="#000000">View&lt; JFrame &gt;</text>
<polyline fill="none" stroke="#000000" points="489,-348 620,-348 "/>
<text text-anchor="start" x="497" y="-336" font-family="Helvetica,sans-Serif" font-size="10.00" fill="#000000"># views</text>
<polyline fill="none" stroke="#000000" points="489,-329 620,-329 "/>
<text text-anchor="start" x="497" y="-317" font-family="Helvetica,sans-Serif" font-size="10.00" fill="#000000">+ addView()</text>
<text text-anchor="start" x="497" y="-306" font-family="Helvetica,sans-Serif" font-size="10.00" fill="#000000">+ setAllViews()</text>
<text text-anchor="start" x="497" y="-295" font-family="Helvetica,sans-Serif" font-size="10.00" fill="#000000">+ getAllViews()</text>
</a>
</g>
</g>
<!-- Node2&#45;&gt;Node6 -->
<g id="edge6" class="edge">
<title>Node2&#45;&gt;Node6</title>
<path fill="none" stroke="#ffa500" d="M497.2177,-520.7157C510.3423,-477.7058 528.3945,-418.5486 540.7028,-378.2136"/>
<polygon fill="#ffa500" stroke="#ffa500" points="493.8165,-519.8698 494.2454,-530.4559 500.5118,-521.9129 493.8165,-519.8698"/>
<text text-anchor="middle" x="530" y="-504" font-family="Helvetica,sans-Serif" font-size="10.00" fill="#000000"> &lt; JFrame &gt;</text>
</g>
<!-- Node8 -->
<g id="node9" class="node">
<title>Node8</title>
<g id="a_node9"><a xlink:href="classene_1_1views_1_1AbstractPartialView.html" target="_top" xlink:title="{ene::views::AbstractPartial\lView\&lt; CoreComponentType,\l ModelType \&gt;\n|# model\l|+ setModel()\l+ getModel()\l}">
<polygon fill="none" stroke="#000000" points="862,-530.5 862,-620.5 1005,-620.5 1005,-530.5 862,-530.5"/>
<text text-anchor="start" x="870" y="-608.5" font-family="Helvetica,sans-Serif" font-size="10.00" fill="#000000">ene::views::AbstractPartial</text>
<text text-anchor="start" x="870" y="-597.5" font-family="Helvetica,sans-Serif" font-size="10.00" fill="#000000">View&lt; CoreComponentType,</text>
<text text-anchor="middle" x="933.5" y="-586.5" font-family="Helvetica,sans-Serif" font-size="10.00" fill="#000000"> ModelType &gt;</text>
<polyline fill="none" stroke="#000000" points="862,-579.5 1005,-579.5 "/>
<text text-anchor="start" x="870" y="-567.5" font-family="Helvetica,sans-Serif" font-size="10.00" fill="#000000"># model</text>
<polyline fill="none" stroke="#000000" points="862,-560.5 1005,-560.5 "/>
<text text-anchor="start" x="870" y="-548.5" font-family="Helvetica,sans-Serif" font-size="10.00" fill="#000000">+ setModel()</text>
<text text-anchor="start" x="870" y="-537.5" font-family="Helvetica,sans-Serif" font-size="10.00" fill="#000000">+ getModel()</text>
</a>
</g>
</g>
<!-- Node7&#45;&gt;Node8 -->
<g id="edge8" class="edge">
<title>Node7&#45;&gt;Node8</title>
<path fill="none" stroke="#191970" d="M867.0609,-676.7871C879.0768,-658.4687 892.3552,-638.2257 903.8625,-620.6827"/>
<polygon fill="none" stroke="#191970" points="863.8351,-675.3236 861.2768,-685.6049 869.6882,-679.163 863.8351,-675.3236"/>
</g>
<!-- Node9 -->
<g id="node10" class="node">
<title>Node9</title>
<g id="a_node10"><a xlink:href="classene_1_1views_1_1gui_1_1partial_1_1AbstractTrackListView.html" target="_top" xlink:title="{ene::views::gui::partial\l::AbstractTrackListView\l\&lt; JPanel, TrackListModel \&gt;\n|# table\l# tableRowSorter\l# tableContent\l# playerController\l# TABLE_COLUMN_FILENAME\l|+ mouseClicked()\l+ mousePressed()\l+ mouseReleased()\l+ mouseEntered()\l+ mouseExited()\l+ valueChanged()\l# setTable()\l# getTable()\l# setTableContent()\l# getTableContent()\l# setTableRowSorter()\l# getTableRowSorter()\l# setPlayerController()\l# getPlayerController()\l# hideColumn()\l# setColumnWidth()\l# getSelectedFilename()\l}">
<polygon fill="none" stroke="#000000" points="837,-183.5 837,-482.5 998,-482.5 998,-183.5 837,-183.5"/>
<text text-anchor="start" x="845" y="-470.5" font-family="Helvetica,sans-Serif" font-size="10.00" fill="#000000">ene::views::gui::partial</text>
<text text-anchor="start" x="845" y="-459.5" font-family="Helvetica,sans-Serif" font-size="10.00" fill="#000000">::AbstractTrackListView</text>
<text text-anchor="middle" x="917.5" y="-448.5" font-family="Helvetica,sans-Serif" font-size="10.00" fill="#000000">&lt; JPanel, TrackListModel &gt;</text>
<polyline fill="none" stroke="#000000" points="837,-441.5 998,-441.5 "/>
<text text-anchor="start" x="845" y="-429.5" font-family="Helvetica,sans-Serif" font-size="10.00" fill="#000000"># table</text>
<text text-anchor="start" x="845" y="-418.5" font-family="Helvetica,sans-Serif" font-size="10.00" fill="#000000"># tableRowSorter</text>
<text text-anchor="start" x="845" y="-407.5" font-family="Helvetica,sans-Serif" font-size="10.00" fill="#000000"># tableContent</text>
<text text-anchor="start" x="845" y="-396.5" font-family="Helvetica,sans-Serif" font-size="10.00" fill="#000000"># playerController</text>
<text text-anchor="start" x="845" y="-385.5" font-family="Helvetica,sans-Serif" font-size="10.00" fill="#000000"># TABLE_COLUMN_FILENAME</text>
<polyline fill="none" stroke="#000000" points="837,-378.5 998,-378.5 "/>
<text text-anchor="start" x="845" y="-366.5" font-family="Helvetica,sans-Serif" font-size="10.00" fill="#000000">+ mouseClicked()</text>
<text text-anchor="start" x="845" y="-355.5" font-family="Helvetica,sans-Serif" font-size="10.00" fill="#000000">+ mousePressed()</text>
<text text-anchor="start" x="845" y="-344.5" font-family="Helvetica,sans-Serif" font-size="10.00" fill="#000000">+ mouseReleased()</text>
<text text-anchor="start" x="845" y="-333.5" font-family="Helvetica,sans-Serif" font-size="10.00" fill="#000000">+ mouseEntered()</text>
<text text-anchor="start" x="845" y="-322.5" font-family="Helvetica,sans-Serif" font-size="10.00" fill="#000000">+ mouseExited()</text>
<text text-anchor="start" x="845" y="-311.5" font-family="Helvetica,sans-Serif" font-size="10.00" fill="#000000">+ valueChanged()</text>
<text text-anchor="start" x="845" y="-300.5" font-family="Helvetica,sans-Serif" font-size="10.00" fill="#000000"># setTable()</text>
<text text-anchor="start" x="845" y="-289.5" font-family="Helvetica,sans-Serif" font-size="10.00" fill="#000000"># getTable()</text>
<text text-anchor="start" x="845" y="-278.5" font-family="Helvetica,sans-Serif" font-size="10.00" fill="#000000"># setTableContent()</text>
<text text-anchor="start" x="845" y="-267.5" font-family="Helvetica,sans-Serif" font-size="10.00" fill="#000000"># getTableContent()</text>
<text text-anchor="start" x="845" y="-256.5" font-family="Helvetica,sans-Serif" font-size="10.00" fill="#000000"># setTableRowSorter()</text>
<text text-anchor="start" x="845" y="-245.5" font-family="Helvetica,sans-Serif" font-size="10.00" fill="#000000"># getTableRowSorter()</text>
<text text-anchor="start" x="845" y="-234.5" font-family="Helvetica,sans-Serif" font-size="10.00" fill="#000000"># setPlayerController()</text>
<text text-anchor="start" x="845" y="-223.5" font-family="Helvetica,sans-Serif" font-size="10.00" fill="#000000"># getPlayerController()</text>
<text text-anchor="start" x="845" y="-212.5" font-family="Helvetica,sans-Serif" font-size="10.00" fill="#000000"># hideColumn()</text>
<text text-anchor="start" x="845" y="-201.5" font-family="Helvetica,sans-Serif" font-size="10.00" fill="#000000"># setColumnWidth()</text>
<text text-anchor="start" x="845" y="-190.5" font-family="Helvetica,sans-Serif" font-size="10.00" fill="#000000"># getSelectedFilename()</text>
</a>
</g>
</g>
<!-- Node8&#45;&gt;Node9 -->
<g id="edge9" class="edge">
<title>Node8&#45;&gt;Node9</title>
<path fill="none" stroke="#191970" d="M929.8496,-520.1741C929.0863,-508.6051 928.2471,-495.8856 927.3764,-482.6898"/>
<polygon fill="none" stroke="#191970" points="926.3772,-520.7081 930.528,-530.4559 933.362,-520.2472 926.3772,-520.7081"/>
</g>
<!-- Node12 -->
<g id="node13" class="node">
<title>Node12</title>
<g id="a_node13"><a xlink:href="classene_1_1views_1_1gui_1_1partial_1_1PlayerView.html" target="_top" xlink:title="{ene::views::gui::partial\l::PlayerView\&lt; JPanel, PlayerModel \&gt;\n|~ progressTimer\l~ trackTimeFormat\l# playerController\l# previousButton\l# playButton\l# nextButton\l# progressSlider\l# progressLabel\l|+ PlayerView()\l+ update()\l+ render()\l# setPlayerController()\l# getPlayerController()\l# enablePlayerControls()\l# disablePlayerControls()\l# updateProgress()\l# resetProgress()\l# formatTimeToString()\l# isCurrentTrackPartOfCurrent\lPlaylist()\l}">
<polygon fill="none" stroke="#000000" points="638.5,-200 638.5,-466 818.5,-466 818.5,-200 638.5,-200"/>
<text text-anchor="start" x="646.5" y="-454" font-family="Helvetica,sans-Serif" font-size="10.00" fill="#000000">ene::views::gui::partial</text>
<text text-anchor="middle" x="728.5" y="-443" font-family="Helvetica,sans-Serif" font-size="10.00" fill="#000000">::PlayerView&lt; JPanel, PlayerModel &gt;</text>
<polyline fill="none" stroke="#000000" points="638.5,-436 818.5,-436 "/>
<text text-anchor="start" x="646.5" y="-424" font-family="Helvetica,sans-Serif" font-size="10.00" fill="#000000">~ progressTimer</text>
<text text-anchor="start" x="646.5" y="-413" font-family="Helvetica,sans-Serif" font-size="10.00" fill="#000000">~ trackTimeFormat</text>
<text text-anchor="start" x="646.5" y="-402" font-family="Helvetica,sans-Serif" font-size="10.00" fill="#000000"># playerController</text>
<text text-anchor="start" x="646.5" y="-391" font-family="Helvetica,sans-Serif" font-size="10.00" fill="#000000"># previousButton</text>
<text text-anchor="start" x="646.5" y="-380" font-family="Helvetica,sans-Serif" font-size="10.00" fill="#000000"># playButton</text>
<text text-anchor="start" x="646.5" y="-369" font-family="Helvetica,sans-Serif" font-size="10.00" fill="#000000"># nextButton</text>
<text text-anchor="start" x="646.5" y="-358" font-family="Helvetica,sans-Serif" font-size="10.00" fill="#000000"># progressSlider</text>
<text text-anchor="start" x="646.5" y="-347" font-family="Helvetica,sans-Serif" font-size="10.00" fill="#000000"># progressLabel</text>
<polyline fill="none" stroke="#000000" points="638.5,-340 818.5,-340 "/>
<text text-anchor="start" x="646.5" y="-328" font-family="Helvetica,sans-Serif" font-size="10.00" fill="#000000">+ PlayerView()</text>
<text text-anchor="start" x="646.5" y="-317" font-family="Helvetica,sans-Serif" font-size="10.00" fill="#000000">+ update()</text>
<text text-anchor="start" x="646.5" y="-306" font-family="Helvetica,sans-Serif" font-size="10.00" fill="#000000">+ render()</text>
<text text-anchor="start" x="646.5" y="-295" font-family="Helvetica,sans-Serif" font-size="10.00" fill="#000000"># setPlayerController()</text>
<text text-anchor="start" x="646.5" y="-284" font-family="Helvetica,sans-Serif" font-size="10.00" fill="#000000"># getPlayerController()</text>
<text text-anchor="start" x="646.5" y="-273" font-family="Helvetica,sans-Serif" font-size="10.00" fill="#000000"># enablePlayerControls()</text>
<text text-anchor="start" x="646.5" y="-262" font-family="Helvetica,sans-Serif" font-size="10.00" fill="#000000"># disablePlayerControls()</text>
<text text-anchor="start" x="646.5" y="-251" font-family="Helvetica,sans-Serif" font-size="10.00" fill="#000000"># updateProgress()</text>
<text text-anchor="start" x="646.5" y="-240" font-family="Helvetica,sans-Serif" font-size="10.00" fill="#000000"># resetProgress()</text>
<text text-anchor="start" x="646.5" y="-229" font-family="Helvetica,sans-Serif" font-size="10.00" fill="#000000"># formatTimeToString()</text>
<text text-anchor="start" x="646.5" y="-218" font-family="Helvetica,sans-Serif" font-size="10.00" fill="#000000"># isCurrentTrackPartOfCurrent</text>
<text text-anchor="start" x="646.5" y="-207" font-family="Helvetica,sans-Serif" font-size="10.00" fill="#000000">Playlist()</text>
</a>
</g>
</g>
<!-- Node8&#45;&gt;Node12 -->
<g id="edge12" class="edge">
<title>Node8&#45;&gt;Node12</title>
<path fill="none" stroke="#191970" d="M852.3992,-542.8184C841.6732,-538.5037 830.8226,-534.1427 820.5,-530 800.5092,-521.9771 789.7607,-528.1441 775.5,-512 763.8009,-498.7558 754.9594,-482.9402 748.2875,-466.2694"/>
<polygon fill="none" stroke="#191970" points="851.1928,-546.1057 861.7765,-546.5915 853.8058,-539.6116 851.1928,-546.1057"/>
</g>
<!-- Node13 -->
<g id="node14" class="node">
<title>Node13</title>
<g id="a_node14"><a xlink:href="classene_1_1views_1_1AbstractPartialView.html" target="_top" xlink:title="{ene.views.AbstractPartial\lView\&lt; JPanel, PlayerModel \&gt;\n|# model\l|+ setModel()\l+ getModel()\l}">
<polygon fill="none" stroke="#000000" points="1193.5,-293.5 1193.5,-372.5 1339.5,-372.5 1339.5,-293.5 1193.5,-293.5"/>
<text text-anchor="start" x="1201.5" y="-360.5" font-family="Helvetica,sans-Serif" font-size="10.00" fill="#000000">ene.views.AbstractPartial</text>
<text text-anchor="middle" x="1266.5" y="-349.5" font-family="Helvetica,sans-Serif" font-size="10.00" fill="#000000">View&lt; JPanel, PlayerModel &gt;</text>
<polyline fill="none" stroke="#000000" points="1193.5,-342.5 1339.5,-342.5 "/>
<text text-anchor="start" x="1201.5" y="-330.5" font-family="Helvetica,sans-Serif" font-size="10.00" fill="#000000"># model</text>
<polyline fill="none" stroke="#000000" points="1193.5,-323.5 1339.5,-323.5 "/>
<text text-anchor="start" x="1201.5" y="-311.5" font-family="Helvetica,sans-Serif" font-size="10.00" fill="#000000">+ setModel()</text>
<text text-anchor="start" x="1201.5" y="-300.5" font-family="Helvetica,sans-Serif" font-size="10.00" fill="#000000">+ getModel()</text>
</a>
</g>
</g>
<!-- Node8&#45;&gt;Node13 -->
<g id="edge13" class="edge">
<title>Node8&#45;&gt;Node13</title>
<path fill="none" stroke="#ffa500" d="M1015.1035,-566.0866C1086.8681,-556.2127 1184.1851,-538.4201 1212.5,-512 1251.0658,-476.0149 1262.4292,-413.59 1265.5853,-372.7909"/>
<polygon fill="#ffa500" stroke="#ffa500" points="1014.5994,-562.6228 1005.1566,-567.4274 1015.5345,-569.5601 1014.5994,-562.6228"/>
<text text-anchor="middle" x="1278.5" y="-504" font-family="Helvetica,sans-Serif" font-size="10.00" fill="#000000"> &lt; JPanel, PlayerModel &gt;</text>
</g>
<!-- Node14 -->
<g id="node15" class="node">
<title>Node14</title>
<g id="a_node15"><a xlink:href="classene_1_1views_1_1AbstractPartialView.html" target="_top" xlink:title="{ene.views.AbstractPartial\lView\&lt; JPanel, TrackListModel \&gt;\n|# model\l|+ setModel()\l+ getModel()\l}">
<polygon fill="none" stroke="#000000" points="1016,-293.5 1016,-372.5 1175,-372.5 1175,-293.5 1016,-293.5"/>
<text text-anchor="start" x="1024" y="-360.5" font-family="Helvetica,sans-Serif" font-size="10.00" fill="#000000">ene.views.AbstractPartial</text>
<text text-anchor="middle" x="1095.5" y="-349.5" font-family="Helvetica,sans-Serif" font-size="10.00" fill="#000000">View&lt; JPanel, TrackListModel &gt;</text>
<polyline fill="none" stroke="#000000" points="1016,-342.5 1175,-342.5 "/>
<text text-anchor="start" x="1024" y="-330.5" font-family="Helvetica,sans-Serif" font-size="10.00" fill="#000000"># model</text>
<polyline fill="none" stroke="#000000" points="1016,-323.5 1175,-323.5 "/>
<text text-anchor="start" x="1024" y="-311.5" font-family="Helvetica,sans-Serif" font-size="10.00" fill="#000000">+ setModel()</text>
<text text-anchor="start" x="1024" y="-300.5" font-family="Helvetica,sans-Serif" font-size="10.00" fill="#000000">+ getModel()</text>
</a>
</g>
</g>
<!-- Node8&#45;&gt;Node14 -->
<g id="edge14" class="edge">
<title>Node8&#45;&gt;Node14</title>
<path fill="none" stroke="#ffa500" d="M1014.6159,-557.5049C1039.2336,-548.0257 1063.8721,-533.6677 1079.5,-512 1108.7021,-471.5119 1107.6516,-411.712 1102.7571,-372.5558"/>
<polygon fill="#ffa500" stroke="#ffa500" points="1013.418,-554.2162 1005.2008,-560.9041 1015.7952,-560.8002 1013.418,-554.2162"/>
<text text-anchor="middle" x="1146.5" y="-504" font-family="Helvetica,sans-Serif" font-size="10.00" fill="#000000"> &lt; JPanel, TrackListModel &gt;</text>
</g>
<!-- Node10 -->
<g id="node11" class="node">
<title>Node10</title>
<g id="a_node11"><a xlink:href="classene_1_1views_1_1gui_1_1partial_1_1LibraryView.html" target="_top" xlink:title="{ene.views.gui.partial.LibraryView\n|# libraryController\l# playlistController\l|+ LibraryView()\l+ update()\l+ render()\l# setLibraryController()\l# getLibraryController()\l# setPlaylistController()\l# getPlaylistController()\l# loadContent()\l}">
<polygon fill="none" stroke="#000000" points="747.5,-.5 747.5,-145.5 907.5,-145.5 907.5,-.5 747.5,-.5"/>
<text text-anchor="middle" x="827.5" y="-133.5" font-family="Helvetica,sans-Serif" font-size="10.00" fill="#000000">ene.views.gui.partial.LibraryView</text>
<polyline fill="none" stroke="#000000" points="747.5,-126.5 907.5,-126.5 "/>
<text text-anchor="start" x="755.5" y="-114.5" font-family="Helvetica,sans-Serif" font-size="10.00" fill="#000000"># libraryController</text>
<text text-anchor="start" x="755.5" y="-103.5" font-family="Helvetica,sans-Serif" font-size="10.00" fill="#000000"># playlistController</text>
<polyline fill="none" stroke="#000000" points="747.5,-96.5 907.5,-96.5 "/>
<text text-anchor="start" x="755.5" y="-84.5" font-family="Helvetica,sans-Serif" font-size="10.00" fill="#000000">+ LibraryView()</text>
<text text-anchor="start" x="755.5" y="-73.5" font-family="Helvetica,sans-Serif" font-size="10.00" fill="#000000">+ update()</text>
<text text-anchor="start" x="755.5" y="-62.5" font-family="Helvetica,sans-Serif" font-size="10.00" fill="#000000">+ render()</text>
<text text-anchor="start" x="755.5" y="-51.5" font-family="Helvetica,sans-Serif" font-size="10.00" fill="#000000"># setLibraryController()</text>
<text text-anchor="start" x="755.5" y="-40.5" font-family="Helvetica,sans-Serif" font-size="10.00" fill="#000000"># getLibraryController()</text>
<text text-anchor="start" x="755.5" y="-29.5" font-family="Helvetica,sans-Serif" font-size="10.00" fill="#000000"># setPlaylistController()</text>
<text text-anchor="start" x="755.5" y="-18.5" font-family="Helvetica,sans-Serif" font-size="10.00" fill="#000000"># getPlaylistController()</text>
<text text-anchor="start" x="755.5" y="-7.5" font-family="Helvetica,sans-Serif" font-size="10.00" fill="#000000"># loadContent()</text>
</a>
</g>
</g>
<!-- Node9&#45;&gt;Node10 -->
<g id="edge10" class="edge">
<title>Node9&#45;&gt;Node10</title>
<path fill="none" stroke="#191970" d="M862.3182,-173.586C858.9916,-163.9757 855.7433,-154.5917 852.6513,-145.6594"/>
<polygon fill="none" stroke="#191970" points="859.0895,-174.9585 865.6681,-183.2634 865.7044,-172.6686 859.0895,-174.9585"/>
</g>
<!-- Node11 -->
<g id="node12" class="node">
<title>Node11</title>
<g id="a_node12"><a xlink:href="classene_1_1views_1_1gui_1_1partial_1_1PlaylistView.html" target="_top" xlink:title="{ene.views.gui.partial.PlaylistView\n|# playlistController\l|+ PlaylistView()\l+ mousePressed()\l+ update()\l+ render()\l# setPlaylistController()\l# getPlaylistController()\l# loadContent()\l}">
<polygon fill="none" stroke="#000000" points="926,-11.5 926,-134.5 1089,-134.5 1089,-11.5 926,-11.5"/>
<text text-anchor="middle" x="1007.5" y="-122.5" font-family="Helvetica,sans-Serif" font-size="10.00" fill="#000000">ene.views.gui.partial.PlaylistView</text>
<polyline fill="none" stroke="#000000" points="926,-115.5 1089,-115.5 "/>
<text text-anchor="start" x="934" y="-103.5" font-family="Helvetica,sans-Serif" font-size="10.00" fill="#000000"># playlistController</text>
<polyline fill="none" stroke="#000000" points="926,-96.5 1089,-96.5 "/>
<text text-anchor="start" x="934" y="-84.5" font-family="Helvetica,sans-Serif" font-size="10.00" fill="#000000">+ PlaylistView()</text>
<text text-anchor="start" x="934" y="-73.5" font-family="Helvetica,sans-Serif" font-size="10.00" fill="#000000">+ mousePressed()</text>
<text text-anchor="start" x="934" y="-62.5" font-family="Helvetica,sans-Serif" font-size="10.00" fill="#000000">+ update()</text>
<text text-anchor="start" x="934" y="-51.5" font-family="Helvetica,sans-Serif" font-size="10.00" fill="#000000">+ render()</text>
<text text-anchor="start" x="934" y="-40.5" font-family="Helvetica,sans-Serif" font-size="10.00" fill="#000000"># setPlaylistController()</text>
<text text-anchor="start" x="934" y="-29.5" font-family="Helvetica,sans-Serif" font-size="10.00" fill="#000000"># getPlaylistController()</text>
<text text-anchor="start" x="934" y="-18.5" font-family="Helvetica,sans-Serif" font-size="10.00" fill="#000000"># loadContent()</text>
</a>
</g>
</g>
<!-- Node9&#45;&gt;Node11 -->
<g id="edge11" class="edge">
<title>Node9&#45;&gt;Node11</title>
<path fill="none" stroke="#191970" d="M972.6311,-173.7323C977.3643,-160.0587 981.9397,-146.8408 986.1329,-134.7271"/>
<polygon fill="none" stroke="#191970" points="969.2956,-172.6686 969.3319,-183.2634 975.9105,-174.9585 969.2956,-172.6686"/>
</g>
<!-- Node15&#45;&gt;Node2 -->
<g id="edge16" class="edge">
<title>Node15&#45;&gt;Node2</title>
<path fill="none" stroke="#191970" d="M581.7109,-662.7286C579.9609,-661.1327 578.222,-659.5545 576.5,-658 562.8794,-645.7042 547.9309,-632.6525 533.9697,-620.6461"/>
<polygon fill="none" stroke="#191970" points="579.7029,-665.6363 589.4369,-669.8197 584.4363,-660.4792 579.7029,-665.6363"/>
</g>
<!-- Node16 -->
<g id="node17" class="node">
<title>Node16</title>
<g id="a_node17"><a xlink:href="classene_1_1views_1_1AbstractPartialView.html" target="_top" xlink:title="{ene::views::AbstractPartial\lView\&lt; CoreComponentType \&gt;\n|# model\l|+ setModel()\l+ getModel()\l}">
<polygon fill="none" stroke="#000000" points="662,-536 662,-615 811,-615 811,-536 662,-536"/>
<text text-anchor="start" x="670" y="-603" font-family="Helvetica,sans-Serif" font-size="10.00" fill="#000000">ene::views::AbstractPartial</text>
<text text-anchor="middle" x="736.5" y="-592" font-family="Helvetica,sans-Serif" font-size="10.00" fill="#000000">View&lt; CoreComponentType &gt;</text>
<polyline fill="none" stroke="#000000" points="662,-585 811,-585 "/>
<text text-anchor="start" x="670" y="-573" font-family="Helvetica,sans-Serif" font-size="10.00" fill="#000000"># model</text>
<polyline fill="none" stroke="#000000" points="662,-566 811,-566 "/>
<text text-anchor="start" x="670" y="-554" font-family="Helvetica,sans-Serif" font-size="10.00" fill="#000000">+ setModel()</text>
<text text-anchor="start" x="670" y="-543" font-family="Helvetica,sans-Serif" font-size="10.00" fill="#000000">+ getModel()</text>
</a>
</g>
</g>
<!-- Node15&#45;&gt;Node16 -->
<g id="edge17" class="edge">
<title>Node15&#45;&gt;Node16</title>
<path fill="none" stroke="#191970" d="M697.1667,-649.1906C703.4914,-637.3413 709.7489,-625.6181 715.3492,-615.1258"/>
<polygon fill="none" stroke="#191970" points="693.948,-647.7881 692.3268,-658.2581 700.1234,-651.0843 693.948,-647.7881"/>
</g>
<!-- Node16&#45;&gt;Node9 -->
<g id="edge18" class="edge">
<title>Node16&#45;&gt;Node9</title>
<path fill="none" stroke="#191970" d="M753.0267,-526.7883C758.0677,-517.2399 764.4688,-508.0222 772.5,-501 791.8625,-484.07 807.3932,-499.039 827.5,-483 830.7051,-480.4433 833.8224,-477.7392 836.8523,-474.9102"/>
<polygon fill="none" stroke="#191970" points="749.7843,-525.4548 748.6015,-535.9834 756.0918,-528.4904 749.7843,-525.4548"/>
</g>
<!-- Node16&#45;&gt;Node12 -->
<g id="edge19" class="edge">
<title>Node16&#45;&gt;Node12</title>
<path fill="none" stroke="#191970" d="M727.0354,-525.6517C726.4126,-521.0495 725.8823,-516.4468 725.5,-512 724.2221,-497.1361 723.5289,-481.5531 723.246,-466.0434"/>
<polygon fill="none" stroke="#191970" points="723.5916,-526.289 728.5251,-535.665 730.5153,-525.2588 723.5916,-526.289"/>
</g>
<!-- Node16&#45;&gt;Node13 -->
<g id="edge20" class="edge">
<title>Node16&#45;&gt;Node13</title>
<path fill="none" stroke="#ffa500" d="M820.6106,-540.7699C831.5753,-536.8407 842.7365,-533.1311 853.5,-530 893.0871,-518.4842 905.9153,-526.5251 944.5,-512 953.6319,-508.5623 954.187,-503.9118 963.5,-501 1010.5286,-486.2959 1143.1738,-509.8337 1184.5,-483 1223.2069,-457.8671 1245.1458,-407.9226 1256.4058,-372.5817"/>
<polygon fill="#ffa500" stroke="#ffa500" points="819.2296,-537.5482 811.0404,-544.2704 821.6342,-544.1222 819.2296,-537.5482"/>
<text text-anchor="middle" x="1019.5" y="-504" font-family="Helvetica,sans-Serif" font-size="10.00" fill="#000000"> &lt; JPanel, PlayerModel &gt;</text>
</g>
<!-- Node16&#45;&gt;Node14 -->
<g id="edge21" class="edge">
<title>Node16&#45;&gt;Node14</title>
<path fill="none" stroke="#ffa500" d="M778.7675,-528.8352C791.1253,-517.9212 805.4043,-507.5745 820.5,-501 897.0504,-467.6608 937.1198,-527.9231 1007.5,-483 1047.0746,-457.7399 1071.0408,-407.8227 1083.7589,-372.5229"/>
<polygon fill="#ffa500" stroke="#ffa500" points="776.3217,-526.3294 771.3312,-535.6753 781.0606,-531.4814 776.3217,-526.3294"/>
<text text-anchor="middle" x="882.5" y="-504" font-family="Helvetica,sans-Serif" font-size="10.00" fill="#000000"> &lt; JPanel, TrackListModel &gt;</text>
</g>
</g>
</svg>
