<?xml version="1.0" encoding="UTF-8" standalone="no"?>
<!DOCTYPE svg PUBLIC "-//W3C//DTD SVG 1.1//EN"
 "http://www.w3.org/Graphics/SVG/1.1/DTD/svg11.dtd">
<!-- Generated by graphviz version 2.40.1 (20161225.0304)
 -->
<!-- Title: ene.interfaces.View&lt; CoreComponentType &gt; Pages: 1 -->
<svg width="1324pt" height="885pt"
 viewBox="0.00 0.00 1323.50 885.00" xmlns="http://www.w3.org/2000/svg" xmlns:xlink="http://www.w3.org/1999/xlink">
<g id="graph0" class="graph" transform="scale(1 1) rotate(0) translate(4 881)">
<title>ene.interfaces.View&lt; CoreComponentType &gt;</title>
<!-- Node0 -->
<g id="node1" class="node">
<title>Node0</title>
<polygon fill="#bfbfbf" stroke="#000000" points="579.5,-742.5 579.5,-876.5 707.5,-876.5 707.5,-742.5 579.5,-742.5"/>
<text text-anchor="start" x="587.5" y="-864.5" font-family="Helvetica,sans-Serif" font-size="10.00" fill="#000000">ene.interfaces.View</text>
<text text-anchor="middle" x="643.5" y="-853.5" font-family="Helvetica,sans-Serif" font-size="10.00" fill="#000000">&lt; CoreComponentType &gt;</text>
<polyline fill="none" stroke="#000000" points="579.5,-846.5 707.5,-846.5 "/>
<text text-anchor="middle" x="643.5" y="-834.5" font-family="Helvetica,sans-Serif" font-size="10.00" fill="#000000"> </text>
<polyline fill="none" stroke="#000000" points="579.5,-827.5 707.5,-827.5 "/>
<text text-anchor="start" x="587.5" y="-815.5" font-family="Helvetica,sans-Serif" font-size="10.00" fill="#000000">+ setTitle()</text>
<text text-anchor="start" x="587.5" y="-804.5" font-family="Helvetica,sans-Serif" font-size="10.00" fill="#000000">+ getTitle()</text>
<text text-anchor="start" x="587.5" y="-793.5" font-family="Helvetica,sans-Serif" font-size="10.00" fill="#000000">+ setCoreComponent()</text>
<text text-anchor="start" x="587.5" y="-782.5" font-family="Helvetica,sans-Serif" font-size="10.00" fill="#000000">+ getCoreComponent()</text>
<text text-anchor="start" x="587.5" y="-771.5" font-family="Helvetica,sans-Serif" font-size="10.00" fill="#000000">+ setLayoutPosition()</text>
<text text-anchor="start" x="587.5" y="-760.5" font-family="Helvetica,sans-Serif" font-size="10.00" fill="#000000">+ getLayoutPosition()</text>
<text text-anchor="start" x="587.5" y="-749.5" font-family="Helvetica,sans-Serif" font-size="10.00" fill="#000000">+ render()</text>
</g>
<!-- Node1 -->
<g id="node2" class="node">
<title>Node1</title>
<g id="a_node2"><a xlink:href="interfaceene_1_1interfaces_1_1MasterView.html" target="_top" xlink:title="{ene::interfaces::MasterView\l\&lt; CoreComponentType \&gt;\n||+ addView()\l+ setAllViews()\l+ getAllViews()\l}">
<polygon fill="none" stroke="#000000" points="420,-587 420,-677 559,-677 559,-587 420,-587"/>
<text text-anchor="start" x="428" y="-665" font-family="Helvetica,sans-Serif" font-size="10.00" fill="#000000">ene::interfaces::MasterView</text>
<text text-anchor="middle" x="489.5" y="-654" font-family="Helvetica,sans-Serif" font-size="10.00" fill="#000000">&lt; CoreComponentType &gt;</text>
<polyline fill="none" stroke="#000000" points="420,-647 559,-647 "/>
<text text-anchor="middle" x="489.5" y="-635" font-family="Helvetica,sans-Serif" font-size="10.00" fill="#000000"> </text>
<polyline fill="none" stroke="#000000" points="420,-628 559,-628 "/>
<text text-anchor="start" x="428" y="-616" font-family="Helvetica,sans-Serif" font-size="10.00" fill="#000000">+ addView()</text>
<text text-anchor="start" x="428" y="-605" font-family="Helvetica,sans-Serif" font-size="10.00" fill="#000000">+ setAllViews()</text>
<text text-anchor="start" x="428" y="-594" font-family="Helvetica,sans-Serif" font-size="10.00" fill="#000000">+ getAllViews()</text>
</a>
</g>
</g>
<!-- Node0&#45;&gt;Node1 -->
<g id="edge1" class="edge">
<title>Node0&#45;&gt;Node1</title>
<path fill="none" stroke="#191970" d="M578.5732,-734.6655C561.6071,-715.1104 543.839,-694.631 528.675,-677.153"/>
<polygon fill="none" stroke="#191970" points="576.0821,-737.1351 585.2792,-742.3949 581.3695,-732.5478 576.0821,-737.1351"/>
</g>
<!-- Node7 -->
<g id="node8" class="node">
<title>Node7</title>
<g id="a_node8"><a xlink:href="interfaceene_1_1interfaces_1_1PartialView.html" target="_top" xlink:title="{ene::interfaces::Partial\lView\&lt; CoreComponentType \&gt;\n||+ setModel()\l+ getModel()\l+ update()\l}">
<polygon fill="none" stroke="#000000" points="747,-587 747,-677 896,-677 896,-587 747,-587"/>
<text text-anchor="start" x="755" y="-665" font-family="Helvetica,sans-Serif" font-size="10.00" fill="#000000">ene::interfaces::Partial</text>
<text text-anchor="middle" x="821.5" y="-654" font-family="Helvetica,sans-Serif" font-size="10.00" fill="#000000">View&lt; CoreComponentType &gt;</text>
<polyline fill="none" stroke="#000000" points="747,-647 896,-647 "/>
<text text-anchor="middle" x="821.5" y="-635" font-family="Helvetica,sans-Serif" font-size="10.00" fill="#000000"> </text>
<polyline fill="none" stroke="#000000" points="747,-628 896,-628 "/>
<text text-anchor="start" x="755" y="-616" font-family="Helvetica,sans-Serif" font-size="10.00" fill="#000000">+ setModel()</text>
<text text-anchor="start" x="755" y="-605" font-family="Helvetica,sans-Serif" font-size="10.00" fill="#000000">+ getModel()</text>
<text text-anchor="start" x="755" y="-594" font-family="Helvetica,sans-Serif" font-size="10.00" fill="#000000">+ update()</text>
</a>
</g>
</g>
<!-- Node0&#45;&gt;Node7 -->
<g id="edge7" class="edge">
<title>Node0&#45;&gt;Node7</title>
<path fill="none" stroke="#191970" d="M714.772,-738.4282C735.4804,-717.7779 757.5235,-695.7968 776.1676,-677.2051"/>
<polygon fill="none" stroke="#191970" points="712.1202,-736.1297 707.5106,-745.6692 717.063,-741.0864 712.1202,-736.1297"/>
</g>
<!-- Node14 -->
<g id="node15" class="node">
<title>Node14</title>
<g id="a_node15"><a xlink:href="classene_1_1views_1_1AbstractView.html" target="_top" xlink:title="{ene::views::AbstractView\l\&lt; CoreComponentType \&gt;\n|# title\l# coreComponent\l# layoutPosition\l|+ setTitle()\l+ getTitle()\l+ setCoreComponent()\l+ getCoreComponent()\l+ setLayoutPosition()\l+ getLayoutPosition()\l}">
<polygon fill="none" stroke="#000000" points="579.5,-559.5 579.5,-704.5 707.5,-704.5 707.5,-559.5 579.5,-559.5"/>
<text text-anchor="start" x="587.5" y="-692.5" font-family="Helvetica,sans-Serif" font-size="10.00" fill="#000000">ene::views::AbstractView</text>
<text text-anchor="middle" x="643.5" y="-681.5" font-family="Helvetica,sans-Serif" font-size="10.00" fill="#000000">&lt; CoreComponentType &gt;</text>
<polyline fill="none" stroke="#000000" points="579.5,-674.5 707.5,-674.5 "/>
<text text-anchor="start" x="587.5" y="-662.5" font-family="Helvetica,sans-Serif" font-size="10.00" fill="#000000"># title</text>
<text text-anchor="start" x="587.5" y="-651.5" font-family="Helvetica,sans-Serif" font-size="10.00" fill="#000000"># coreComponent</text>
<text text-anchor="start" x="587.5" y="-640.5" font-family="Helvetica,sans-Serif" font-size="10.00" fill="#000000"># layoutPosition</text>
<polyline fill="none" stroke="#000000" points="579.5,-633.5 707.5,-633.5 "/>
<text text-anchor="start" x="587.5" y="-621.5" font-family="Helvetica,sans-Serif" font-size="10.00" fill="#000000">+ setTitle()</text>
<text text-anchor="start" x="587.5" y="-610.5" font-family="Helvetica,sans-Serif" font-size="10.00" fill="#000000">+ getTitle()</text>
<text text-anchor="start" x="587.5" y="-599.5" font-family="Helvetica,sans-Serif" font-size="10.00" fill="#000000">+ setCoreComponent()</text>
<text text-anchor="start" x="587.5" y="-588.5" font-family="Helvetica,sans-Serif" font-size="10.00" fill="#000000">+ getCoreComponent()</text>
<text text-anchor="start" x="587.5" y="-577.5" font-family="Helvetica,sans-Serif" font-size="10.00" fill="#000000">+ setLayoutPosition()</text>
<text text-anchor="start" x="587.5" y="-566.5" font-family="Helvetica,sans-Serif" font-size="10.00" fill="#000000">+ getLayoutPosition()</text>
</a>
</g>
</g>
<!-- Node0&#45;&gt;Node14 -->
<g id="edge14" class="edge">
<title>Node0&#45;&gt;Node14</title>
<path fill="none" stroke="#191970" d="M643.5,-732.135C643.5,-722.9668 643.5,-713.6338 643.5,-704.5361"/>
<polygon fill="none" stroke="#191970" points="640.0001,-732.3948 643.5,-742.3949 647.0001,-732.3949 640.0001,-732.3948"/>
</g>
<!-- Node2 -->
<g id="node3" class="node">
<title>Node2</title>
<g id="a_node3"><a xlink:href="classene_1_1views_1_1AbstractMasterView.html" target="_top" xlink:title="{ene::views::AbstractMaster\lView\&lt; CoreComponentType \&gt;\n|# views\l|+ addView()\l+ setAllViews()\l+ getAllViews()\l}">
<polygon fill="none" stroke="#000000" points="404,-431.5 404,-521.5 553,-521.5 553,-431.5 404,-431.5"/>
<text text-anchor="start" x="412" y="-509.5" font-family="Helvetica,sans-Serif" font-size="10.00" fill="#000000">ene::views::AbstractMaster</text>
<text text-anchor="middle" x="478.5" y="-498.5" font-family="Helvetica,sans-Serif" font-size="10.00" fill="#000000">View&lt; CoreComponentType &gt;</text>
<polyline fill="none" stroke="#000000" points="404,-491.5 553,-491.5 "/>
<text text-anchor="start" x="412" y="-479.5" font-family="Helvetica,sans-Serif" font-size="10.00" fill="#000000"># views</text>
<polyline fill="none" stroke="#000000" points="404,-472.5 553,-472.5 "/>
<text text-anchor="start" x="412" y="-460.5" font-family="Helvetica,sans-Serif" font-size="10.00" fill="#000000">+ addView()</text>
<text text-anchor="start" x="412" y="-449.5" font-family="Helvetica,sans-Serif" font-size="10.00" fill="#000000">+ setAllViews()</text>
<text text-anchor="start" x="412" y="-438.5" font-family="Helvetica,sans-Serif" font-size="10.00" fill="#000000">+ getAllViews()</text>
</a>
</g>
</g>
<!-- Node1&#45;&gt;Node2 -->
<g id="edge2" class="edge">
<title>Node1&#45;&gt;Node2</title>
<path fill="none" stroke="#191970" d="M485.5764,-576.5352C484.3042,-558.55 482.909,-538.827 481.6962,-521.6827"/>
<polygon fill="none" stroke="#191970" points="482.0918,-576.8769 486.2888,-586.6049 489.0743,-576.3829 482.0918,-576.8769"/>
</g>
<!-- Node3 -->
<g id="node4" class="node">
<title>Node3</title>
<g id="a_node4"><a xlink:href="classene_1_1views_1_1gui_1_1partial_1_1ContentView.html" target="_top" xlink:title="{ene::views::gui::partial\l::ContentView\&lt; JTabbedPane \&gt;\n||+ ContentView()\l+ render()\l# initialize()\l}">
<polygon fill="none" stroke="#000000" points="0,-222 0,-312 157,-312 157,-222 0,-222"/>
<text text-anchor="start" x="8" y="-300" font-family="Helvetica,sans-Serif" font-size="10.00" fill="#000000">ene::views::gui::partial</text>
<text text-anchor="middle" x="78.5" y="-289" font-family="Helvetica,sans-Serif" font-size="10.00" fill="#000000">::ContentView&lt; JTabbedPane &gt;</text>
<polyline fill="none" stroke="#000000" points="0,-282 157,-282 "/>
<text text-anchor="middle" x="78.5" y="-270" font-family="Helvetica,sans-Serif" font-size="10.00" fill="#000000"> </text>
<polyline fill="none" stroke="#000000" points="0,-263 157,-263 "/>
<text text-anchor="start" x="8" y="-251" font-family="Helvetica,sans-Serif" font-size="10.00" fill="#000000">+ ContentView()</text>
<text text-anchor="start" x="8" y="-240" font-family="Helvetica,sans-Serif" font-size="10.00" fill="#000000">+ render()</text>
<text text-anchor="start" x="8" y="-229" font-family="Helvetica,sans-Serif" font-size="10.00" fill="#000000"># initialize()</text>
</a>
</g>
</g>
<!-- Node2&#45;&gt;Node3 -->
<g id="edge3" class="edge">
<title>Node2&#45;&gt;Node3</title>
<path fill="none" stroke="#191970" d="M393.6939,-466.1738C327.1056,-454.7548 234.5805,-431.2869 166.5,-384 139.9884,-365.5858 118.1237,-336.6472 102.82,-312.1582"/>
<polygon fill="none" stroke="#191970" points="393.2992,-469.6561 403.737,-467.8387 394.444,-462.7503 393.2992,-469.6561"/>
</g>
<!-- Node4 -->
<g id="node5" class="node">
<title>Node4</title>
<g id="a_node5"><a xlink:href="classene_1_1views_1_1gui_1_1WindowView.html" target="_top" xlink:title="{ene::views::gui::WindowView\l\&lt; JFrame \&gt;\n||+ setTitle()\l+ getTitle()\l+ WindowView()\l+ render()\l# initialize()\l}">
<polygon fill="none" stroke="#000000" points="175.5,-211 175.5,-323 321.5,-323 321.5,-211 175.5,-211"/>
<text text-anchor="start" x="183.5" y="-311" font-family="Helvetica,sans-Serif" font-size="10.00" fill="#000000">ene::views::gui::WindowView</text>
<text text-anchor="middle" x="248.5" y="-300" font-family="Helvetica,sans-Serif" font-size="10.00" fill="#000000">&lt; JFrame &gt;</text>
<polyline fill="none" stroke="#000000" points="175.5,-293 321.5,-293 "/>
<text text-anchor="middle" x="248.5" y="-281" font-family="Helvetica,sans-Serif" font-size="10.00" fill="#000000"> </text>
<polyline fill="none" stroke="#000000" points="175.5,-274 321.5,-274 "/>
<text text-anchor="start" x="183.5" y="-262" font-family="Helvetica,sans-Serif" font-size="10.00" fill="#000000">+ setTitle()</text>
<text text-anchor="start" x="183.5" y="-251" font-family="Helvetica,sans-Serif" font-size="10.00" fill="#000000">+ getTitle()</text>
<text text-anchor="start" x="183.5" y="-240" font-family="Helvetica,sans-Serif" font-size="10.00" fill="#000000">+ WindowView()</text>
<text text-anchor="start" x="183.5" y="-229" font-family="Helvetica,sans-Serif" font-size="10.00" fill="#000000">+ render()</text>
<text text-anchor="start" x="183.5" y="-218" font-family="Helvetica,sans-Serif" font-size="10.00" fill="#000000"># initialize()</text>
</a>
</g>
</g>
<!-- Node2&#45;&gt;Node4 -->
<g id="edge4" class="edge">
<title>Node2&#45;&gt;Node4</title>
<path fill="none" stroke="#191970" d="M395.1323,-432.4876C372.8208,-418.6207 349.6153,-402.1336 330.5,-384 311.8747,-366.3313 294.9063,-343.825 281.2995,-323.2809"/>
<polygon fill="none" stroke="#191970" points="393.5983,-435.6516 403.9585,-437.8691 397.2424,-429.6749 393.5983,-435.6516"/>
</g>
<!-- Node5 -->
<g id="node6" class="node">
<title>Node5</title>
<g id="a_node6"><a xlink:href="classene_1_1views_1_1AbstractMasterView.html" target="_top" xlink:title="{ene.views.AbstractMaster\lView\&lt; JTabbedPane \&gt;\n|# views\l|+ addView()\l+ setAllViews()\l+ getAllViews()\l}">
<polygon fill="none" stroke="#000000" points="340,-222 340,-312 471,-312 471,-222 340,-222"/>
<text text-anchor="start" x="348" y="-300" font-family="Helvetica,sans-Serif" font-size="10.00" fill="#000000">ene.views.AbstractMaster</text>
<text text-anchor="middle" x="405.5" y="-289" font-family="Helvetica,sans-Serif" font-size="10.00" fill="#000000">View&lt; JTabbedPane &gt;</text>
<polyline fill="none" stroke="#000000" points="340,-282 471,-282 "/>
<text text-anchor="start" x="348" y="-270" font-family="Helvetica,sans-Serif" font-size="10.00" fill="#000000"># views</text>
<polyline fill="none" stroke="#000000" points="340,-263 471,-263 "/>
<text text-anchor="start" x="348" y="-251" font-family="Helvetica,sans-Serif" font-size="10.00" fill="#000000">+ addView()</text>
<text text-anchor="start" x="348" y="-240" font-family="Helvetica,sans-Serif" font-size="10.00" fill="#000000">+ setAllViews()</text>
<text text-anchor="start" x="348" y="-229" font-family="Helvetica,sans-Serif" font-size="10.00" fill="#000000">+ getAllViews()</text>
</a>
</g>
</g>
<!-- Node2&#45;&gt;Node5 -->
<g id="edge5" class="edge">
<title>Node2&#45;&gt;Node5</title>
<path fill="none" stroke="#ffa500" d="M453.9142,-421.8251C452.7273,-418.8532 451.5813,-415.8979 450.5,-413 438.0747,-379.7007 426.3277,-341.2595 417.9533,-312.1829"/>
<polygon fill="#ffa500" stroke="#ffa500" points="450.7785,-423.4031 457.8147,-431.3241 457.2539,-420.7441 450.7785,-423.4031"/>
<text text-anchor="middle" x="491.5" y="-405" font-family="Helvetica,sans-Serif" font-size="10.00" fill="#000000"> &lt; JTabbedPane &gt;</text>
</g>
<!-- Node6 -->
<g id="node7" class="node">
<title>Node6</title>
<g id="a_node7"><a xlink:href="classene_1_1views_1_1AbstractMasterView.html" target="_top" xlink:title="{ene.views.AbstractMaster\lView\&lt; JFrame \&gt;\n|# views\l|+ addView()\l+ setAllViews()\l+ getAllViews()\l}">
<polygon fill="none" stroke="#000000" points="489,-222 489,-312 620,-312 620,-222 489,-222"/>
<text text-anchor="start" x="497" y="-300" font-family="Helvetica,sans-Serif" font-size="10.00" fill="#000000">ene.views.AbstractMaster</text>
<text text-anchor="middle" x="554.5" y="-289" font-family="Helvetica,sans-Serif" font-size="10.00" fill="#000000">View&lt; JFrame &gt;</text>
<polyline fill="none" stroke="#000000" points="489,-282 620,-282 "/>
<text text-anchor="start" x="497" y="-270" font-family="Helvetica,sans-Serif" font-size="10.00" fill="#000000"># views</text>
<polyline fill="none" stroke="#000000" points="489,-263 620,-263 "/>
<text text-anchor="start" x="497" y="-251" font-family="Helvetica,sans-Serif" font-size="10.00" fill="#000000">+ addView()</text>
<text text-anchor="start" x="497" y="-240" font-family="Helvetica,sans-Serif" font-size="10.00" fill="#000000">+ setAllViews()</text>
<text text-anchor="start" x="497" y="-229" font-family="Helvetica,sans-Serif" font-size="10.00" fill="#000000">+ getAllViews()</text>
</a>
</g>
</g>
<!-- Node2&#45;&gt;Node6 -->
<g id="edge6" class="edge">
<title>Node2&#45;&gt;Node6</title>
<path fill="none" stroke="#ffa500" d="M527.2813,-422.9333C529.2112,-419.6783 530.9712,-416.3587 532.5,-413 546.942,-381.2708 552.2484,-342.0488 554.0498,-312.2499"/>
<polygon fill="#ffa500" stroke="#ffa500" points="524.3094,-421.0835 521.8175,-431.3811 530.1872,-424.8851 524.3094,-421.0835"/>
<text text-anchor="middle" x="564" y="-405" font-family="Helvetica,sans-Serif" font-size="10.00" fill="#000000"> &lt; JFrame &gt;</text>
</g>
<!-- Node8 -->
<g id="node9" class="node">
<title>Node8</title>
<g id="a_node9"><a xlink:href="classene_1_1views_1_1AbstractPartialView.html" target="_top" xlink:title="{ene::views::AbstractPartial\lView\&lt; CoreComponentType,\l ModelType \&gt;\n|# model\l|+ setModel()\l+ getModel()\l}">
<polygon fill="none" stroke="#000000" points="839,-431.5 839,-521.5 982,-521.5 982,-431.5 839,-431.5"/>
<text text-anchor="start" x="847" y="-509.5" font-family="Helvetica,sans-Serif" font-size="10.00" fill="#000000">ene::views::AbstractPartial</text>
<text text-anchor="start" x="847" y="-498.5" font-family="Helvetica,sans-Serif" font-size="10.00" fill="#000000">View&lt; CoreComponentType,</text>
<text text-anchor="middle" x="910.5" y="-487.5" font-family="Helvetica,sans-Serif" font-size="10.00" fill="#000000"> ModelType &gt;</text>
<polyline fill="none" stroke="#000000" points="839,-480.5 982,-480.5 "/>
<text text-anchor="start" x="847" y="-468.5" font-family="Helvetica,sans-Serif" font-size="10.00" fill="#000000"># model</text>
<polyline fill="none" stroke="#000000" points="839,-461.5 982,-461.5 "/>
<text text-anchor="start" x="847" y="-449.5" font-family="Helvetica,sans-Serif" font-size="10.00" fill="#000000">+ setModel()</text>
<text text-anchor="start" x="847" y="-438.5" font-family="Helvetica,sans-Serif" font-size="10.00" fill="#000000">+ getModel()</text>
</a>
</g>
</g>
<!-- Node7&#45;&gt;Node8 -->
<g id="edge8" class="edge">
<title>Node7&#45;&gt;Node8</title>
<path fill="none" stroke="#191970" d="M852.5286,-577.7871C863.0131,-559.4687 874.5991,-539.2257 884.6398,-521.6827"/>
<polygon fill="none" stroke="#191970" points="849.4115,-576.1873 847.4817,-586.6049 855.4868,-579.6645 849.4115,-576.1873"/>
</g>
<!-- Node9 -->
<g id="node10" class="node">
<title>Node9</title>
<g id="a_node10"><a xlink:href="classene_1_1views_1_1gui_1_1partial_1_1AbstractTrackListView.html" target="_top" xlink:title="{ene::views::gui::partial\l::AbstractTrackListView\l\&lt; JPanel, TrackListModel \&gt;\n|# table\l# tableContent\l# playerController\l|+ valueChanged()\l+ render()\l# setTable()\l# getTable()\l# setTableContent()\l# getTableContent()\l# setPlayerController()\l# getPlayerController()\l# hideColumn()\l# getSelectedFilename()\l}">
<polygon fill="none" stroke="#000000" points="837,-167 837,-367 974,-367 974,-167 837,-167"/>
<text text-anchor="start" x="845" y="-355" font-family="Helvetica,sans-Serif" font-size="10.00" fill="#000000">ene::views::gui::partial</text>
<text text-anchor="start" x="845" y="-344" font-family="Helvetica,sans-Serif" font-size="10.00" fill="#000000">::AbstractTrackListView</text>
<text text-anchor="middle" x="905.5" y="-333" font-family="Helvetica,sans-Serif" font-size="10.00" fill="#000000">&lt; JPanel, TrackListModel &gt;</text>
<polyline fill="none" stroke="#000000" points="837,-326 974,-326 "/>
<text text-anchor="start" x="845" y="-314" font-family="Helvetica,sans-Serif" font-size="10.00" fill="#000000"># table</text>
<text text-anchor="start" x="845" y="-303" font-family="Helvetica,sans-Serif" font-size="10.00" fill="#000000"># tableContent</text>
<text text-anchor="start" x="845" y="-292" font-family="Helvetica,sans-Serif" font-size="10.00" fill="#000000"># playerController</text>
<polyline fill="none" stroke="#000000" points="837,-285 974,-285 "/>
<text text-anchor="start" x="845" y="-273" font-family="Helvetica,sans-Serif" font-size="10.00" fill="#000000">+ valueChanged()</text>
<text text-anchor="start" x="845" y="-262" font-family="Helvetica,sans-Serif" font-size="10.00" fill="#000000">+ render()</text>
<text text-anchor="start" x="845" y="-251" font-family="Helvetica,sans-Serif" font-size="10.00" fill="#000000"># setTable()</text>
<text text-anchor="start" x="845" y="-240" font-family="Helvetica,sans-Serif" font-size="10.00" fill="#000000"># getTable()</text>
<text text-anchor="start" x="845" y="-229" font-family="Helvetica,sans-Serif" font-size="10.00" fill="#000000"># setTableContent()</text>
<text text-anchor="start" x="845" y="-218" font-family="Helvetica,sans-Serif" font-size="10.00" fill="#000000"># getTableContent()</text>
<text text-anchor="start" x="845" y="-207" font-family="Helvetica,sans-Serif" font-size="10.00" fill="#000000"># setPlayerController()</text>
<text text-anchor="start" x="845" y="-196" font-family="Helvetica,sans-Serif" font-size="10.00" fill="#000000"># getPlayerController()</text>
<text text-anchor="start" x="845" y="-185" font-family="Helvetica,sans-Serif" font-size="10.00" fill="#000000"># hideColumn()</text>
<text text-anchor="start" x="845" y="-174" font-family="Helvetica,sans-Serif" font-size="10.00" fill="#000000"># getSelectedFilename()</text>
</a>
</g>
</g>
<!-- Node8&#45;&gt;Node9 -->
<g id="edge9" class="edge">
<title>Node8&#45;&gt;Node9</title>
<path fill="none" stroke="#191970" d="M909.1812,-421.2402C908.784,-404.6016 908.3353,-385.8 907.8912,-367.1906"/>
<polygon fill="none" stroke="#191970" points="905.6835,-421.3859 909.4212,-431.2995 912.6815,-421.2189 905.6835,-421.3859"/>
</g>
<!-- Node11 -->
<g id="node12" class="node">
<title>Node11</title>
<g id="a_node12"><a xlink:href="classene_1_1views_1_1gui_1_1partial_1_1PlayerView.html" target="_top" xlink:title="{ene::views::gui::partial\l::PlayerView\&lt; JPanel, PlayerModel \&gt;\n|~ progressTimer\l~ trackTimeFormat\l# playerController\l# playButton\l# progressSlider\l# progressLabel\l|+ PlayerView()\l+ update()\l+ render()\l# setPlayerController()\l# getPlayerController()\l# initialize()\l# enablePlayerControls()\l# disablePlayerControls()\l# updateProgress()\l# resetProgress()\l# formatTimeToString()\l}">
<polygon fill="none" stroke="#000000" points="638.5,-150.5 638.5,-383.5 818.5,-383.5 818.5,-150.5 638.5,-150.5"/>
<text text-anchor="start" x="646.5" y="-371.5" font-family="Helvetica,sans-Serif" font-size="10.00" fill="#000000">ene::views::gui::partial</text>
<text text-anchor="middle" x="728.5" y="-360.5" font-family="Helvetica,sans-Serif" font-size="10.00" fill="#000000">::PlayerView&lt; JPanel, PlayerModel &gt;</text>
<polyline fill="none" stroke="#000000" points="638.5,-353.5 818.5,-353.5 "/>
<text text-anchor="start" x="646.5" y="-341.5" font-family="Helvetica,sans-Serif" font-size="10.00" fill="#000000">~ progressTimer</text>
<text text-anchor="start" x="646.5" y="-330.5" font-family="Helvetica,sans-Serif" font-size="10.00" fill="#000000">~ trackTimeFormat</text>
<text text-anchor="start" x="646.5" y="-319.5" font-family="Helvetica,sans-Serif" font-size="10.00" fill="#000000"># playerController</text>
<text text-anchor="start" x="646.5" y="-308.5" font-family="Helvetica,sans-Serif" font-size="10.00" fill="#000000"># playButton</text>
<text text-anchor="start" x="646.5" y="-297.5" font-family="Helvetica,sans-Serif" font-size="10.00" fill="#000000"># progressSlider</text>
<text text-anchor="start" x="646.5" y="-286.5" font-family="Helvetica,sans-Serif" font-size="10.00" fill="#000000"># progressLabel</text>
<polyline fill="none" stroke="#000000" points="638.5,-279.5 818.5,-279.5 "/>
<text text-anchor="start" x="646.5" y="-267.5" font-family="Helvetica,sans-Serif" font-size="10.00" fill="#000000">+ PlayerView()</text>
<text text-anchor="start" x="646.5" y="-256.5" font-family="Helvetica,sans-Serif" font-size="10.00" fill="#000000">+ update()</text>
<text text-anchor="start" x="646.5" y="-245.5" font-family="Helvetica,sans-Serif" font-size="10.00" fill="#000000">+ render()</text>
<text text-anchor="start" x="646.5" y="-234.5" font-family="Helvetica,sans-Serif" font-size="10.00" fill="#000000"># setPlayerController()</text>
<text text-anchor="start" x="646.5" y="-223.5" font-family="Helvetica,sans-Serif" font-size="10.00" fill="#000000"># getPlayerController()</text>
<text text-anchor="start" x="646.5" y="-212.5" font-family="Helvetica,sans-Serif" font-size="10.00" fill="#000000"># initialize()</text>
<text text-anchor="start" x="646.5" y="-201.5" font-family="Helvetica,sans-Serif" font-size="10.00" fill="#000000"># enablePlayerControls()</text>
<text text-anchor="start" x="646.5" y="-190.5" font-family="Helvetica,sans-Serif" font-size="10.00" fill="#000000"># disablePlayerControls()</text>
<text text-anchor="start" x="646.5" y="-179.5" font-family="Helvetica,sans-Serif" font-size="10.00" fill="#000000"># updateProgress()</text>
<text text-anchor="start" x="646.5" y="-168.5" font-family="Helvetica,sans-Serif" font-size="10.00" fill="#000000"># resetProgress()</text>
<text text-anchor="start" x="646.5" y="-157.5" font-family="Helvetica,sans-Serif" font-size="10.00" fill="#000000"># formatTimeToString()</text>
</a>
</g>
</g>
<!-- Node8&#45;&gt;Node11 -->
<g id="edge11" class="edge">
<title>Node8&#45;&gt;Node11</title>
<path fill="none" stroke="#191970" d="M829.3992,-443.8184C818.6732,-439.5037 807.8226,-435.1427 797.5,-431 777.5092,-422.9771 765.9877,-429.7953 752.5,-413 745.5034,-404.2876 740.1915,-394.3205 736.1939,-383.7768"/>
<polygon fill="none" stroke="#191970" points="828.1928,-447.1057 838.7765,-447.5915 830.8058,-440.6116 828.1928,-447.1057"/>
</g>
<!-- Node12 -->
<g id="node13" class="node">
<title>Node12</title>
<g id="a_node13"><a xlink:href="classene_1_1views_1_1AbstractPartialView.html" target="_top" xlink:title="{ene.views.AbstractPartial\lView\&lt; JPanel, PlayerModel \&gt;\n|# model\l|+ setModel()\l+ getModel()\l}">
<polygon fill="none" stroke="#000000" points="1169.5,-227.5 1169.5,-306.5 1315.5,-306.5 1315.5,-227.5 1169.5,-227.5"/>
<text text-anchor="start" x="1177.5" y="-294.5" font-family="Helvetica,sans-Serif" font-size="10.00" fill="#000000">ene.views.AbstractPartial</text>
<text text-anchor="middle" x="1242.5" y="-283.5" font-family="Helvetica,sans-Serif" font-size="10.00" fill="#000000">View&lt; JPanel, PlayerModel &gt;</text>
<polyline fill="none" stroke="#000000" points="1169.5,-276.5 1315.5,-276.5 "/>
<text text-anchor="start" x="1177.5" y="-264.5" font-family="Helvetica,sans-Serif" font-size="10.00" fill="#000000"># model</text>
<polyline fill="none" stroke="#000000" points="1169.5,-257.5 1315.5,-257.5 "/>
<text text-anchor="start" x="1177.5" y="-245.5" font-family="Helvetica,sans-Serif" font-size="10.00" fill="#000000">+ setModel()</text>
<text text-anchor="start" x="1177.5" y="-234.5" font-family="Helvetica,sans-Serif" font-size="10.00" fill="#000000">+ getModel()</text>
</a>
</g>
</g>
<!-- Node8&#45;&gt;Node12 -->
<g id="edge12" class="edge">
<title>Node8&#45;&gt;Node12</title>
<path fill="none" stroke="#ffa500" d="M992.0988,-466.7989C1063.9111,-456.722 1161.4356,-438.7926 1190.5,-413 1220.9895,-385.9427 1233.6034,-339.7776 1238.8211,-306.5967"/>
<polygon fill="#ffa500" stroke="#ffa500" points="991.5756,-463.3378 982.1462,-468.1686 992.5301,-470.2724 991.5756,-463.3378"/>
<text text-anchor="middle" x="1254.5" y="-405" font-family="Helvetica,sans-Serif" font-size="10.00" fill="#000000"> &lt; JPanel, PlayerModel &gt;</text>
</g>
<!-- Node13 -->
<g id="node14" class="node">
<title>Node13</title>
<g id="a_node14"><a xlink:href="classene_1_1views_1_1AbstractPartialView.html" target="_top" xlink:title="{ene.views.AbstractPartial\lView\&lt; JPanel, TrackListModel \&gt;\n|# model\l|+ setModel()\l+ getModel()\l}">
<polygon fill="none" stroke="#000000" points="992,-227.5 992,-306.5 1151,-306.5 1151,-227.5 992,-227.5"/>
<text text-anchor="start" x="1000" y="-294.5" font-family="Helvetica,sans-Serif" font-size="10.00" fill="#000000">ene.views.AbstractPartial</text>
<text text-anchor="middle" x="1071.5" y="-283.5" font-family="Helvetica,sans-Serif" font-size="10.00" fill="#000000">View&lt; JPanel, TrackListModel &gt;</text>
<polyline fill="none" stroke="#000000" points="992,-276.5 1151,-276.5 "/>
<text text-anchor="start" x="1000" y="-264.5" font-family="Helvetica,sans-Serif" font-size="10.00" fill="#000000"># model</text>
<polyline fill="none" stroke="#000000" points="992,-257.5 1151,-257.5 "/>
<text text-anchor="start" x="1000" y="-245.5" font-family="Helvetica,sans-Serif" font-size="10.00" fill="#000000">+ setModel()</text>
<text text-anchor="start" x="1000" y="-234.5" font-family="Helvetica,sans-Serif" font-size="10.00" fill="#000000">+ getModel()</text>
</a>
</g>
</g>
<!-- Node8&#45;&gt;Node13 -->
<g id="edge13" class="edge">
<title>Node8&#45;&gt;Node13</title>
<path fill="none" stroke="#ffa500" d="M991.4497,-458.3842C1016.0556,-448.8964 1040.7291,-434.5639 1056.5,-413 1078.762,-382.5607 1080.297,-338.5195 1077.63,-306.7772"/>
<polygon fill="#ffa500" stroke="#ffa500" points="990.2539,-455.0947 982.0413,-461.7882 992.6356,-461.6771 990.2539,-455.0947"/>
<text text-anchor="middle" x="1124.5" y="-405" font-family="Helvetica,sans-Serif" font-size="10.00" fill="#000000"> &lt; JPanel, TrackListModel &gt;</text>
</g>
<!-- Node10 -->
<g id="node11" class="node">
<title>Node10</title>
<g id="a_node11"><a xlink:href="classene_1_1views_1_1gui_1_1partial_1_1LibraryView.html" target="_top" xlink:title="{ene.views.gui.partial.LibraryView\n|# libraryController\l|+ LibraryView()\l+ update()\l# setLibraryController()\l# getLibraryController()\l# initialize()\l# loadContent()\l}">
<polygon fill="none" stroke="#000000" points="825.5,-.5 825.5,-112.5 985.5,-112.5 985.5,-.5 825.5,-.5"/>
<text text-anchor="middle" x="905.5" y="-100.5" font-family="Helvetica,sans-Serif" font-size="10.00" fill="#000000">ene.views.gui.partial.LibraryView</text>
<polyline fill="none" stroke="#000000" points="825.5,-93.5 985.5,-93.5 "/>
<text text-anchor="start" x="833.5" y="-81.5" font-family="Helvetica,sans-Serif" font-size="10.00" fill="#000000"># libraryController</text>
<polyline fill="none" stroke="#000000" points="825.5,-74.5 985.5,-74.5 "/>
<text text-anchor="start" x="833.5" y="-62.5" font-family="Helvetica,sans-Serif" font-size="10.00" fill="#000000">+ LibraryView()</text>
<text text-anchor="start" x="833.5" y="-51.5" font-family="Helvetica,sans-Serif" font-size="10.00" fill="#000000">+ update()</text>
<text text-anchor="start" x="833.5" y="-40.5" font-family="Helvetica,sans-Serif" font-size="10.00" fill="#000000"># setLibraryController()</text>
<text text-anchor="start" x="833.5" y="-29.5" font-family="Helvetica,sans-Serif" font-size="10.00" fill="#000000"># getLibraryController()</text>
<text text-anchor="start" x="833.5" y="-18.5" font-family="Helvetica,sans-Serif" font-size="10.00" fill="#000000"># initialize()</text>
<text text-anchor="start" x="833.5" y="-7.5" font-family="Helvetica,sans-Serif" font-size="10.00" fill="#000000"># loadContent()</text>
</a>
</g>
</g>
<!-- Node9&#45;&gt;Node10 -->
<g id="edge10" class="edge">
<title>Node9&#45;&gt;Node10</title>
<path fill="none" stroke="#191970" d="M905.5,-156.9181C905.5,-141.6004 905.5,-126.4195 905.5,-112.6768"/>
<polygon fill="none" stroke="#191970" points="902.0001,-156.99 905.5,-166.99 909.0001,-156.9901 902.0001,-156.99"/>
</g>
<!-- Node14&#45;&gt;Node2 -->
<g id="edge15" class="edge">
<title>Node14&#45;&gt;Node2</title>
<path fill="none" stroke="#191970" d="M571.88,-563.1398C570.4083,-561.7467 568.9471,-560.3655 567.5,-559 554.6281,-546.854 540.6211,-533.7964 527.6098,-521.7331"/>
<polygon fill="none" stroke="#191970" points="569.6439,-565.8429 579.3072,-570.1871 574.4621,-560.765 569.6439,-565.8429"/>
</g>
<!-- Node15 -->
<g id="node16" class="node">
<title>Node15</title>
<g id="a_node16"><a xlink:href="classene_1_1views_1_1AbstractPartialView.html" target="_top" xlink:title="{ene::views::AbstractPartial\lView\&lt; CoreComponentType \&gt;\n|# model\l|+ setModel()\l+ getModel()\l}">
<polygon fill="none" stroke="#000000" points="639,-437 639,-516 788,-516 788,-437 639,-437"/>
<text text-anchor="start" x="647" y="-504" font-family="Helvetica,sans-Serif" font-size="10.00" fill="#000000">ene::views::AbstractPartial</text>
<text text-anchor="middle" x="713.5" y="-493" font-family="Helvetica,sans-Serif" font-size="10.00" fill="#000000">View&lt; CoreComponentType &gt;</text>
<polyline fill="none" stroke="#000000" points="639,-486 788,-486 "/>
<text text-anchor="start" x="647" y="-474" font-family="Helvetica,sans-Serif" font-size="10.00" fill="#000000"># model</text>
<polyline fill="none" stroke="#000000" points="639,-467 788,-467 "/>
<text text-anchor="start" x="647" y="-455" font-family="Helvetica,sans-Serif" font-size="10.00" fill="#000000">+ setModel()</text>
<text text-anchor="start" x="647" y="-444" font-family="Helvetica,sans-Serif" font-size="10.00" fill="#000000">+ getModel()</text>
</a>
</g>
</g>
<!-- Node14&#45;&gt;Node15 -->
<g id="edge16" class="edge">
<title>Node14&#45;&gt;Node15</title>
<path fill="none" stroke="#191970" d="M680.4842,-549.8422C685.7649,-538.1116 690.9851,-526.5152 695.662,-516.1258"/>
<polygon fill="none" stroke="#191970" points="677.1589,-548.7027 676.2455,-559.2581 683.542,-551.5762 677.1589,-548.7027"/>
</g>
<!-- Node15&#45;&gt;Node9 -->
<g id="edge17" class="edge">
<title>Node15&#45;&gt;Node9</title>
<path fill="none" stroke="#191970" d="M729.4092,-427.526C734.5001,-417.9051 741.0777,-408.7239 749.5,-402 777.304,-379.8028 798.2331,-404.2293 827.5,-384 834.5288,-379.1417 841.0936,-373.4249 847.19,-367.1751"/>
<polygon fill="none" stroke="#191970" points="726.1225,-426.2867 724.9722,-436.8189 732.4394,-429.3028 726.1225,-426.2867"/>
</g>
<!-- Node15&#45;&gt;Node11 -->
<g id="edge18" class="edge">
<title>Node15&#45;&gt;Node11</title>
<path fill="none" stroke="#191970" d="M704.0354,-426.6517C703.4126,-422.0495 702.8823,-417.4468 702.5,-413 701.684,-403.509 701.647,-393.7116 702.1809,-383.8948"/>
<polygon fill="none" stroke="#191970" points="700.5916,-427.289 705.5251,-436.665 707.5153,-426.2588 700.5916,-427.289"/>
</g>
<!-- Node15&#45;&gt;Node12 -->
<g id="edge19" class="edge">
<title>Node15&#45;&gt;Node12</title>
<path fill="none" stroke="#ffa500" d="M797.6106,-441.7699C808.5753,-437.8407 819.7365,-434.1311 830.5,-431 870.0871,-419.4842 882.9153,-427.5251 921.5,-413 930.6319,-409.5623 931.1876,-404.9135 940.5,-402 987.3145,-387.3534 1117.9453,-408.3972 1160.5,-384 1190.6264,-366.7281 1212.326,-333.3559 1225.8056,-306.6586"/>
<polygon fill="#ffa500" stroke="#ffa500" points="796.2296,-438.5482 788.0404,-445.2704 798.6342,-445.1222 796.2296,-438.5482"/>
<text text-anchor="middle" x="996.5" y="-405" font-family="Helvetica,sans-Serif" font-size="10.00" fill="#000000"> &lt; JPanel, PlayerModel &gt;</text>
</g>
<!-- Node15&#45;&gt;Node13 -->
<g id="edge20" class="edge">
<title>Node15&#45;&gt;Node13</title>
<path fill="none" stroke="#ffa500" d="M755.7698,-429.8404C768.1276,-418.9264 782.406,-408.5783 797.5,-402 873.6363,-368.8179 911.0648,-424.6316 983.5,-384 1014.5343,-366.5917 1037.9432,-333.2323 1052.7855,-306.5746"/>
<polygon fill="#ffa500" stroke="#ffa500" points="753.3241,-427.3345 748.3334,-436.6804 758.0629,-432.4866 753.3241,-427.3345"/>
<text text-anchor="middle" x="859.5" y="-405" font-family="Helvetica,sans-Serif" font-size="10.00" fill="#000000"> &lt; JPanel, TrackListModel &gt;</text>
</g>
</g>
</svg>
